<?xml version="1.0" encoding="utf-8"?>
<!-- Generator: Adobe Illustrator 26.3.1, SVG Export Plug-In . SVG Version: 6.00 Build 0)  -->
<svg version="1.1" id="oxIcon" xmlns="http://www.w3.org/2000/svg" xmlns:xlink="http://www.w3.org/1999/xlink" x="0px" y="0px"
	 viewBox="0 0 124.7 124.7" style="enable-background:new 0 0 124.7 124.7;" xml:space="preserve">
<style type="text/css">
	.st0{fill:url(#SVGID_1_);}
	.st1{fill:none;stroke:#1E1E1C;stroke-width:2.9402;stroke-miterlimit:10;}
	.st2{fill:none;stroke:#1E1E1C;stroke-width:0.9187;stroke-miterlimit:10;}
	
		.st3{fill:#E20E18;stroke:url(#SVGID_00000142159760560205769730000015026346862565914504_);stroke-width:2.9402;stroke-miterlimit:10;}
	
		.st4{fill:#E20E18;stroke:url(#SVGID_00000073693998884773099010000014299627511538407303_);stroke-width:2.9402;stroke-miterlimit:10;}
</style>
<g id="oxIcon_00000044892040760312896430000006188980944210964875_">
	
		<radialGradient id="SVGID_1_" cx="62.7" cy="63.7323" r="59.6" gradientTransform="matrix(1 0 0 -1 0 125.7323)" gradientUnits="userSpaceOnUse">
		<stop  offset="0" style="stop-color:#F7EE80"/>
		<stop  offset="0.7831" style="stop-color:#F7EE80"/>
		<stop  offset="0.9121" style="stop-color:#F7EE80"/>
		<stop  offset="0.9132" style="stop-color:#F7EE83"/>
		<stop  offset="0.935" style="stop-color:#FAF4B5"/>
		<stop  offset="0.9554" style="stop-color:#FDF9D8"/>
		<stop  offset="0.9736" style="stop-color:#FEFCEE"/>
		<stop  offset="0.9891" style="stop-color:#FFFEFB"/>
		<stop  offset="1" style="stop-color:#FFFFFF"/>
	</radialGradient>
	<path class="st0" d="M122.3,62c0,32.9-26.7,59.6-59.6,59.6S3.1,94.9,3.1,62S29.8,2.4,62.7,2.4C95.6,2.5,122.3,29.1,122.3,62z"/>
	<path class="st1" d="M122.2,62c0,32.9-26.7,59.6-59.6,59.6S3.1,94.9,3.1,62S29.8,2.4,62.7,2.4S122.2,29.2,122.2,62z"/>
	<path class="st2" d="M115.4,62c0,29.1-23.6,52.7-52.7,52.7S10,91.1,10,62S33.6,9.4,62.7,9.4S115.4,32.9,115.4,62z"/>
	
		<linearGradient id="SVGID_00000033369435790853497580000003611644863643078803_" gradientUnits="userSpaceOnUse" x1="67.5489" y1="39.5021" x2="33.6699" y2="73.3812" gradientTransform="matrix(1 0 0 -1 0 125.7323)">
		<stop  offset="0" style="stop-color:#5B120D"/>
		<stop  offset="9.780731e-02" style="stop-color:#611812"/>
		<stop  offset="0.2636" style="stop-color:#712921"/>
		<stop  offset="0.4772" style="stop-color:#8F4B42"/>
		<stop  offset="0.7302" style="stop-color:#BD877E"/>
		<stop  offset="1" style="stop-color:#FBDEDE"/>
	</linearGradient>
	
		<path style="fill:#E20E18;stroke:url(#SVGID_00000033369435790853497580000003611644863643078803_);stroke-width:2.9402;stroke-miterlimit:10;" d="
		M73.1,69.3c0,12.4-10.1,22.5-22.5,22.5S28.1,81.7,28.1,69.3s10.1-22.5,22.5-22.5C63.1,46.8,73.1,56.9,73.1,69.3z"/>
	
		<linearGradient id="SVGID_00000165917886883098188370000003565470490300110739_" gradientUnits="userSpaceOnUse" x1="91.5489" y1="55.7022" x2="57.6699" y2="89.5812" gradientTransform="matrix(1 0 0 -1 0 125.7323)">
		<stop  offset="0" style="stop-color:#5B120D"/>
		<stop  offset="9.780731e-02" style="stop-color:#611812"/>
		<stop  offset="0.2636" style="stop-color:#712921"/>
		<stop  offset="0.4772" style="stop-color:#8F4B42"/>
		<stop  offset="0.7302" style="stop-color:#BD877E"/>
		<stop  offset="1" style="stop-color:#FBDEDE"/>
	</linearGradient>
	
		<path style="fill:#E20E18;stroke:url(#SVGID_00000165917886883098188370000003565470490300110739_);stroke-width:2.9402;stroke-miterlimit:10;" d="
		M97.1,53.1c0,12.4-10.1,22.5-22.5,22.5S52.1,65.5,52.1,53.1s10.1-22.5,22.5-22.5C87.1,30.6,97.1,40.7,97.1,53.1z"/>
</g>
</svg>
