<?xml version="1.0" encoding="utf-8"?>
<!-- Generator: Adobe Illustrator 26.4.1, SVG Export Plug-In . SVG Version: 6.00 Build 0)  -->
<svg version="1.1" id="Layer" xmlns="http://www.w3.org/2000/svg" xmlns:xlink="http://www.w3.org/1999/xlink" x="0px" y="0px"
	 viewBox="0 0 721 379.9" style="enable-background:new 0 0 721 379.9;" xml:space="preserve">
<style type="text/css">
	.st0{fill:none;}
	.st1{fill:#20201E;}
	.st2{opacity:0;fill:#FFFFFF;fill-opacity:0;}
	.st3{fill:url(#external-border_00000029748666773741183860000002103301992479956883_);}
	.st4{fill:url(#internal-border_00000100365129914914258010000007750336673579303342_);}
	.st5{fill:url(#bg_00000101821038464574526070000012437278849426812317_);}
	.st6{opacity:0.1;fill:url(#bgPattern_00000053543890708123668170000013699489344631773825_);enable-background:new    ;}
	.st7{fill:#030304;}
	.st8{fill:url(#SVGID_1_);}
	.st9{fill:#48AD38;}
	.st10{fill:#0B572A;stroke:#1D4422;stroke-width:3.71;stroke-miterlimit:10;}
	.st11{opacity:5.000000e-02;fill:#030304;enable-background:new    ;}
	.st12{fill:url(#SVGID_00000070081081006665201470000007544870012593746083_);}
</style>
<pattern  y="379.9" width="19.7" height="21.7" patternUnits="userSpaceOnUse" id="Nowy_wzorek_5" viewBox="0 -21.7 19.7 21.7" style="overflow:visible;">
	<g>
		<rect y="-21.7" class="st0" width="19.7" height="21.7"/>
		<g>
			<rect y="-21.7" class="st0" width="19.7" height="21.7"/>
			<g>
				<rect y="-21.7" class="st0" width="19.7" height="21.7"/>
				<g>
					<rect y="-21.7" class="st0" width="19.7" height="21.7"/>
					<g>
						<rect y="-21.7" class="st0" width="19.7" height="21.7"/>
						<g>
							<rect y="-21.7" class="st0" width="19.7" height="21.7"/>
							<g>
								<rect y="-21.7" class="st0" width="19.7" height="21.7"/>
								<path class="st1" d="M16.6-13c2.1,2.1,2.1,5.6,0,7.7l-1.2,1.2C13.3-2,9.8-2,7.6-4.1L3.1-8.7c-2.1-2.1-2.1-5.6,0-7.7l1.2-1.2
									c2.1-2.1,5.6-2.1,7.7,0L16.6-13z"/>
							</g>
						</g>
					</g>
				</g>
			</g>
		</g>
	</g>
</pattern>
<rect x="0.5" y="0.5" class="st2" width="720" height="378.9"/>
<g id="prodBg">
	
		<linearGradient id="external-border_00000106861641692910101460000014461108905080187543_" gradientUnits="userSpaceOnUse" x1="331.705" y1="2379.1865" x2="155.145" y2="2202.6365" gradientTransform="matrix(1 0 0 1 0 -2096.9814)">
		<stop  offset="0" style="stop-color:#9F9D9C"/>
		<stop  offset="0.54" style="stop-color:#020303"/>
		<stop  offset="1" style="stop-color:#9F9D9C"/>
	</linearGradient>
	
		<rect id="external-border" x="154.4" y="106.5" style="fill:url(#external-border_00000106861641692910101460000014461108905080187543_);" width="178.1" height="175"/>
	
		<linearGradient id="internal-border_00000017513773422843656670000007945564067842260922_" gradientUnits="userSpaceOnUse" x1="243.505" y1="2373.8015" x2="243.505" y2="2208.0415" gradientTransform="matrix(1 0 0 1 0 -2096.9814)">
		<stop  offset="0" style="stop-color:#472D1C"/>
		<stop  offset="1" style="stop-color:#B18047"/>
	</linearGradient>
	
		<rect id="internal-border" x="159" y="111.1" style="fill:url(#internal-border_00000017513773422843656670000007945564067842260922_);" width="169.1" height="165.8"/>
	
		<linearGradient id="bg_00000177452860332210432140000015292087544699591314_" gradientUnits="userSpaceOnUse" x1="243.445" y1="2369.6216" x2="243.445" y2="2212.0715" gradientTransform="matrix(1 0 0 1 0 -2096.9814)">
		<stop  offset="0" style="stop-color:#946137"/>
		<stop  offset="1" style="stop-color:#815228"/>
	</linearGradient>
	
		<rect id="bg" x="163" y="115.1" style="fill:url(#bg_00000177452860332210432140000015292087544699591314_);" width="160.9" height="157.6"/>
	
		<pattern  id="bgPattern_00000106864819345482185480000017482539407592205726_" xlink:href="#Nowy_wzorek_5" patternTransform="matrix(1 0 0 1 44 34519.2031)">
	</pattern>
	
		<rect id="bgPattern" x="163" y="115.1" style="opacity:0.1;fill:url(#bgPattern_00000106864819345482185480000017482539407592205726_);enable-background:new    ;" width="160.9" height="157.6"/>
</g>
<g id="plant-2">
	<rect x="185.8" y="136.1" class="st7" width="115.7" height="115.7"/>
	
		<linearGradient id="SVGID_1_" gradientUnits="userSpaceOnUse" x1="-1629.4456" y1="3673.0347" x2="-1552.3496" y2="3595.939" gradientTransform="matrix(0.7071 -0.7071 0.7071 0.7071 -1201.3907 -3500.9197)">
		<stop  offset="0" style="stop-color:#0F6936"/>
		<stop  offset="4.000000e-02" style="stop-color:#0F6C37"/>
		<stop  offset="8.000000e-02" style="stop-color:#077739"/>
		<stop  offset="0.13" style="stop-color:#108837"/>
		<stop  offset="0.15" style="stop-color:#0A9039"/>
		<stop  offset="0.35" style="stop-color:#36993D"/>
		<stop  offset="0.76" style="stop-color:#5FB048"/>
		<stop  offset="1" style="stop-color:#6FB74B"/>
	</linearGradient>
	<rect x="189.1" y="139.5" class="st8" width="109" height="109"/>
	<rect x="194.4" y="144.8" class="st9" width="98.4" height="98.4"/>
	<path id="leaf-2" class="st10" d="M243.6,169.1c-14.1,1.9-24.9,11.1-24.9,24.9c0,3.3,0.6,6.6,1.9,9.6c-2.6,1.8-6.4,4.1-8.3,4.7
		c-3.2,1.1-9.7,0.4-10,0.9s1.9,6.4,2.6,6.7s6.7,0.3,10-0.9c2.4-0.8,6.8-3.6,9.3-5.5c4.6,5.8,11.6,9.4,19.5,9.4
		c13.7,0,24.7-8.6,24.7-22.4c0-5.3,1.3-12,3.2-16.1c2.1-4.6,13.2-7.6,13.2-7.6C283.7,169.1,249.2,168.3,243.6,169.1L243.6,169.1
		L243.6,169.1z"/>
	<path id="darker-2" class="st11" d="M298.2,248.5h-109v-59.8c0,0,34.3,5.3,54.5,5.3s54.6-5.3,54.6-5.3V248.5z"/>
</g>
<g id="plant-4">
	<rect x="440.5" y="136.3" class="st7" width="115.7" height="115.7"/>
	
		<linearGradient id="SVGID_00000102520634230897290190000005601863995848080290_" gradientUnits="userSpaceOnUse" x1="-1449.3878" y1="3853.2671" x2="-1372.292" y2="3776.1614" gradientTransform="matrix(0.7071 -0.7071 0.7071 0.7071 -1201.3907 -3500.9197)">
		<stop  offset="0" style="stop-color:#0F6936"/>
		<stop  offset="4.000000e-02" style="stop-color:#0F6C37"/>
		<stop  offset="8.000000e-02" style="stop-color:#077739"/>
		<stop  offset="0.13" style="stop-color:#108837"/>
		<stop  offset="0.15" style="stop-color:#0A9039"/>
		<stop  offset="0.35" style="stop-color:#36993D"/>
		<stop  offset="0.76" style="stop-color:#5FB048"/>
		<stop  offset="1" style="stop-color:#6FB74B"/>
	</linearGradient>
	
		<rect x="443.9" y="139.6" style="fill:url(#SVGID_00000102520634230897290190000005601863995848080290_);" width="109" height="109"/>
	<rect x="449.2" y="144.9" class="st9" width="98.5" height="98.4"/>
	<path id="leaf-4" class="st10" d="M498.4,169.2c-14.1,1.9-24.9,11.1-24.9,24.9c0,3.3,0.7,6.6,1.9,9.6c-2.6,1.8-6.4,4.1-8.3,4.7
		c-3.2,1.1-9.7,0.4-10,0.9s1.9,6.4,2.6,6.7s6.7,0.3,10-0.9c2.4-0.8,6.8-3.6,9.3-5.5c4.5,5.8,11.6,9.4,19.5,9.4
		c13.7,0,24.7-8.6,24.7-22.4c0-5.3,1.3-12,3.2-16.1c2.1-4.6,13.2-7.6,13.2-7.6C538.5,169.2,503.9,168.5,498.4,169.2L498.4,169.2
		L498.4,169.2z"/>
	<path id="darker-4" class="st11" d="M552.9,248.6h-109v-59.8c0,0,34.3,5.3,54.5,5.3s54.6-5.3,54.6-5.3V248.6L552.9,248.6z"/>
</g>
<path d="M396,201.6v-9h21.7v9H396z"/>
</svg>
