<?xml version="1.0" encoding="UTF-8"?><svg id="Layer" xmlns="http://www.w3.org/2000/svg" xmlns:xlink="http://www.w3.org/1999/xlink" viewBox="0 0 721 379.91"><defs><style>.cls-1{fill:url(#linear-gradient-2);}.cls-2{fill:#462c1b;}.cls-3{fill:url(#Nowy_wzorek_9);opacity:.1;}.cls-3,.cls-4{isolation:isolate;}.cls-5{fill:#010202;stroke:#030304;stroke-width:1.92px;}.cls-5,.cls-6{stroke-miterlimit:10;}.cls-7{fill:url(#linear-gradient-6);}.cls-8{fill:#946137;}.cls-9{fill:#1f1f1e;}.cls-6{fill:#fff;opacity:0;stroke:#1d1d1b;}.cls-4{opacity:.08;}.cls-4,.cls-10{fill:#030304;}.cls-11{fill:url(#linear-gradient-5);}.cls-12{fill:none;}.cls-13{fill:url(#linear-gradient-7);}.cls-14{fill:url(#linear-gradient-3);}.cls-15{fill:url(#linear-gradient);}.cls-16{fill:url(#linear-gradient-4);}.cls-17{fill:#010101;}.cls-18{fill:url(#linear-gradient-8);}</style><linearGradient id="linear-gradient" x1="511.25" y1="829.34" x2="209.75" y2="527.84" gradientTransform="translate(0 -488.64)" gradientUnits="userSpaceOnUse"><stop offset="0" stop-color="#9e9d9c"/><stop offset=".54" stop-color="#010202"/><stop offset="1" stop-color="#9e9d9c"/></linearGradient><linearGradient id="linear-gradient-2" x1="360.58" y1="761.85" x2="360.58" y2="595.36" gradientTransform="translate(0 -488.64)" gradientUnits="userSpaceOnUse"><stop offset="0" stop-color="#462c1b"/><stop offset="1" stop-color="#b18048"/></linearGradient><linearGradient id="linear-gradient-3" x1="360.49" y1="757.63" x2="360.49" y2="599.42" gradientTransform="translate(0 -488.64)" gradientUnits="userSpaceOnUse"><stop offset="0" stop-color="#946137"/><stop offset="1" stop-color="#805127"/></linearGradient><pattern id="Nowy_wzorek_9" x="0" y="0" width="19.7" height="21.7" patternTransform="translate(-2.42 16.27)" patternUnits="userSpaceOnUse" viewBox="0 0 19.7 21.7"><g><rect class="cls-12" width="19.7" height="21.7"/><g><rect class="cls-12" width="19.7" height="21.7"/><g><rect class="cls-12" width="19.7" height="21.7"/><g><rect class="cls-12" width="19.7" height="21.7"/><g><rect class="cls-12" width="19.7" height="21.7"/><g><rect class="cls-12" width="19.7" height="21.7"/><g><rect class="cls-12" width="19.7" height="21.7"/><path class="cls-9" d="M16.6,8.7c2.1,2.1,2.1,5.6,0,7.7l-1.2,1.2c-2.1,2.1-5.6,2.1-7.8,0L3.1,13c-2.1-2.1-2.1-5.6,0-7.7l1.2-1.2c2.1-2.1,5.6-2.1,7.7,0l4.6,4.6Z"/></g></g></g></g></g></g></g></pattern><linearGradient id="linear-gradient-4" x1="485.76" y1="-186.91" x2="485.76" y2="-78.88" gradientTransform="translate(0 56.73) scale(1 -1)" gradientUnits="userSpaceOnUse"><stop offset="0" stop-color="#462c1b"/><stop offset=".03" stop-color="#472d1b"/><stop offset=".05" stop-color="#4c2e19"/><stop offset=".07" stop-color="#563519"/><stop offset=".08" stop-color="#653e18"/><stop offset=".08" stop-color="#683f16"/><stop offset=".31" stop-color="#77491f"/><stop offset=".75" stop-color="#8d5b32"/><stop offset="1" stop-color="#946137"/></linearGradient><linearGradient id="linear-gradient-5" x1="241.64" y1="734.47" x2="241.64" y2="624.6" gradientTransform="translate(0 -489.65)" gradientUnits="userSpaceOnUse"><stop offset=".16" stop-color="#823a13"/><stop offset=".18" stop-color="#985c1a"/><stop offset=".22" stop-color="#ae7d22"/><stop offset=".26" stop-color="#c39d26"/><stop offset=".3" stop-color="#d6b92e"/><stop offset=".35" stop-color="#e4cf36"/><stop offset=".41" stop-color="#efe036"/><stop offset=".48" stop-color="#f6e947"/><stop offset=".58" stop-color="#f8ea4e"/><stop offset=".86" stop-color="#f6ea4d"/><stop offset="1" stop-color="#fcf4f9"/></linearGradient><linearGradient id="linear-gradient-6" x1="241.64" y1="618.75" x2="241.64" y2="786.7" gradientTransform="translate(0 -489.65)" gradientUnits="userSpaceOnUse"><stop offset=".26" stop-color="#f6ea4d"/><stop offset=".86" stop-color="#803813"/></linearGradient><linearGradient id="linear-gradient-7" x1="241.71" y1="732.96" x2="241.71" y2="626.22" gradientTransform="translate(0 -489.65)" gradientUnits="userSpaceOnUse"><stop offset=".16" stop-color="#803813"/><stop offset=".17" stop-color="#8c471e"/><stop offset=".18" stop-color="#a26b3c"/><stop offset=".2" stop-color="#b78954"/><stop offset=".22" stop-color="#c7a468"/><stop offset=".24" stop-color="#d7bb7a"/><stop offset=".26" stop-color="#e2cc88"/><stop offset=".3" stop-color="#ead891"/><stop offset=".34" stop-color="#eede97"/><stop offset=".46" stop-color="#efe097"/><stop offset=".7" stop-color="#803813"/><stop offset=".73" stop-color="#e6d234"/><stop offset=".74" stop-color="#ebd948"/><stop offset=".75" stop-color="#eede6d"/><stop offset=".77" stop-color="#f0e28a"/><stop offset=".79" stop-color="#f8ebaa"/><stop offset=".8" stop-color="#f8edbf"/><stop offset=".83" stop-color="#faf0cf"/><stop offset=".85" stop-color="#fcf2da"/><stop offset=".89" stop-color="#fdf4e1"/><stop offset=".99" stop-color="#fdf5e3"/></linearGradient><linearGradient id="linear-gradient-8" x1="241.63" y1="641.88" x2="241.63" y2="806.63" gradientTransform="translate(0 -489.65)" gradientUnits="userSpaceOnUse"><stop offset=".26" stop-color="#f6ea4d"/><stop offset=".77" stop-color="#803813"/></linearGradient></defs><rect class="cls-6" x=".5" y=".5" width="720" height="378.91"/><g><g id="prodBg"><rect id="external-border" class="cls-15" x="146.88" y="102.08" width="427.23" height="175.75"/><rect id="internal-border" class="cls-1" x="151.52" y="106.72" width="418.1" height="166.49"/><rect id="bg" class="cls-14" x="155.56" y="110.78" width="409.85" height="158.21"/><rect id="bgPattern" class="cls-3" x="155.56" y="110.78" width="409.85" height="158.21"/></g><g id="tagBuilding"><path class="cls-10" d="M543.94,189.68c0,32.14-26.14,58.28-58.28,58.28s-58.28-26.14-58.28-58.28,26.14-58.28,58.28-58.28,58.28,26.04,58.28,58.28Z"/><path class="cls-16" d="M539.73,189.68c0,29.8-24.17,53.97-53.97,53.97s-53.97-24.17-53.97-53.97,24.07-54.07,53.86-54.07,54.07,24.17,54.07,54.07h0Z"/><path class="cls-8" d="M534.46,189.68c0,26.89-21.8,48.79-48.79,48.79s-48.69-21.9-48.69-48.79,21.8-48.79,48.79-48.79,48.69,21.8,48.69,48.79Z"/><polygon class="cls-2" points="525.9 205.19 445.52 205.19 445.52 183.19 485.66 161.19 525.9 183.19 525.9 205.19"/><path id="darker" class="cls-4" d="M539.73,189.68c0-1.14,0-2.17-.1-3.2-10.9,3-29.62,6.86-53.86,6.86s-42.41-4.79-53.76-8.75c-.18,1.69-.28,3.38-.28,5.07,0,29.8,24.17,53.97,53.97,53.97s54.07-24.17,54.07-53.97h0l-.03,.03Z"/></g><path class="cls-17" d="M382,211.1v-7.77c2.98-3.99,5.85-7.22,8.63-9.64l4.01-3.56c2.88-2.55,5.25-5.07,7.14-7.57s2.83-5.1,2.83-7.82c0-2.47-.78-4.36-2.37-5.7s-3.73-2.02-6.43-2.02c-3.58,0-7.77,1.21-12.54,3.66v-7.22c5-1.87,9.84-2.8,14.51-2.8,5.17,0,9.33,1.24,12.51,3.71s4.77,5.78,4.77,9.94c0,2.62-.68,5.1-2.02,7.39-1.34,2.32-4.14,5.17-8.35,8.6l-3.33,2.65c-1.46,1.19-3.05,2.67-4.79,4.52s-2.88,3.78-3.43,5.85h21.72v7.77h-32.85Z"/><path class="cls-17" d="M321.52,221.97l32.42-69.31h8.33l-32.42,69.31h-8.33Z"/><g id="mln"><polygon id="obram_czarne" class="cls-5" points="200.97 131.6 183.31 149.26 183.31 230.52 200.97 248.18 282.31 248.18 299.87 230.52 299.87 149.26 282.31 131.6 200.97 131.6"/><polygon id="obram_zolte" class="cls-11" points="203.27 134.95 186.75 151.55 186.75 228.23 203.27 244.83 279.94 244.83 296.54 228.23 296.54 151.55 279.94 134.95 203.27 134.95"/><polygon id="tlo_wew" class="cls-7" points="204.41 136.57 188.28 152.71 188.28 227.09 204.41 243.21 278.88 243.21 295 227.09 295 152.71 278.88 136.57 204.41 136.57"/><path id="obram_skosne" class="cls-13" d="M287.28,210.47c-2.95,0-5.35-2.4-5.35-5.35v-30.45c0-2.95,2.4-5.35,5.35-5.35h7.64v-16.6l-16.05-16.15h-16.7v7.64c0,2.95-2.4,5.35-5.35,5.35h-30.45c-2.95,0-5.35-2.4-5.35-5.35v-7.64h-16.6l-16.15,16.15v16.7h7.64c2.95,0,5.35,2.4,5.35,5.35v30.45c0,2.95-2.4,5.35-5.35,5.35h-7.64v16.6l16.15,16.15h16.7v-7.64c0-2.95,2.4-5.35,5.35-5.35h30.45c2.95,0,5.35,2.4,5.35,5.35v7.64h16.7l16.15-16.15v-16.7h-7.85Z"/><path id="tlo_zew" class="cls-18" d="M287.01,212.28c-3.63,0-6.58-3.63-6.58-7.27v-30.28c0-3.63,2.95-7.27,6.58-7.27h6.21v-13.55l-15.67-15.57h-13.47v6.21c0,3.63-3.63,6.58-7.27,6.58h-30.28c-3.63,0-7.27-2.95-7.27-6.58v-6.21h-13.65l-15.57,15.57v13.55h6.21c3.63,0,6.58,3.63,6.58,7.27v30.28c0,3.63-2.95,7.27-6.58,7.27h-6.21v13.55l15.57,15.57h13.55v-6.21c0-3.63,3.63-6.58,7.27-6.58h30.17c3.63,0,7.27,2.95,7.27,6.58v6.21h13.55l15.57-15.57v-13.55h-5.98Z"/></g><path class="cls-17" d="M238.52,211.02v-43.5h-6.58l-.2-4.92,16.63-1.44v49.85h-9.84Z"/></g></svg>