<?xml version="1.0" encoding="UTF-8"?><svg id="Layer" xmlns="http://www.w3.org/2000/svg" xmlns:xlink="http://www.w3.org/1999/xlink" viewBox="0 0 721 379.91"><defs><style>.cls-1{fill:url(#linear-gradient-2);}.cls-2{fill:#05552b;stroke:#1c4421;stroke-width:3.75px;}.cls-2,.cls-3,.cls-4{stroke-miterlimit:10;}.cls-5{fill:#20201e;}.cls-6,.cls-7{fill:#020303;}.cls-8{fill:#48ad38;}.cls-9{fill:#42ab34;}.cls-3{fill:#fff;opacity:0;stroke:#1d1d1b;}.cls-10{fill:url(#linear-gradient-5);}.cls-11{fill:url(#Nowy_wzorek_7);opacity:.1;}.cls-11,.cls-12,.cls-7{isolation:isolate;}.cls-13{fill:none;}.cls-4{fill:#0b572a;stroke:#1d4422;stroke-width:3.73px;}.cls-12,.cls-14{fill:#030304;}.cls-12,.cls-7{opacity:.05;}.cls-15{fill:url(#linear-gradient-3);}.cls-16{fill:url(#linear-gradient);}.cls-17{fill:#010202;}.cls-18{fill:url(#linear-gradient-4);}</style><linearGradient id="linear-gradient" x1="499.24" y1="-437.25" x2="221.76" y2="-159.76" gradientTransform="translate(0 -108.55) scale(1 -1)" gradientUnits="userSpaceOnUse"><stop offset="0" stop-color="#9f9d9c"/><stop offset=".54" stop-color="#020303"/><stop offset="1" stop-color="#9f9d9c"/></linearGradient><linearGradient id="linear-gradient-2" x1="360.58" y1="-381.76" x2="360.58" y2="-215.27" gradientTransform="translate(0 -108.55) scale(1 -1)" gradientUnits="userSpaceOnUse"><stop offset="0" stop-color="#472d1c"/><stop offset="1" stop-color="#b18047"/></linearGradient><linearGradient id="linear-gradient-3" x1="360.49" y1="-377.54" x2="360.49" y2="-219.33" gradientTransform="translate(0 -108.55) scale(1 -1)" gradientUnits="userSpaceOnUse"><stop offset="0" stop-color="#946137"/><stop offset="1" stop-color="#815228"/></linearGradient><pattern id="Nowy_wzorek_7" x="0" y="0" width="19.7" height="21.7" patternTransform="translate(-2.92 -15651.97) scale(1 -1)" patternUnits="userSpaceOnUse" viewBox="0 0 19.7 21.7"><g><rect class="cls-13" width="19.7" height="21.7"/><g><rect class="cls-13" width="19.7" height="21.7"/><g><rect class="cls-13" width="19.7" height="21.7"/><g><rect class="cls-13" width="19.7" height="21.7"/><g><rect class="cls-13" width="19.7" height="21.7"/><g><rect class="cls-13" width="19.7" height="21.7"/><g><rect class="cls-13" width="19.7" height="21.7"/><g><rect class="cls-13" width="19.7" height="21.7"/><path class="cls-5" d="M16.6,13c2.1-2.1,2.1-5.6,0-7.7l-1.2-1.2c-2.1-2.1-5.6-2.1-7.8,0L3.1,8.7c-2.1,2.1-2.1,5.6,0,7.7l1.2,1.2c2.1,2.1,5.6,2.1,7.7,0l4.6-4.6Z"/></g></g></g></g></g></g></g></g></pattern><linearGradient id="linear-gradient-4" x1="-602.02" y1="-867.22" x2="-524.58" y2="-789.78" gradientTransform="translate(78.19 -794.17) rotate(-45) scale(1 -1)" gradientUnits="userSpaceOnUse"><stop offset="0" stop-color="#0f6936"/><stop offset=".04" stop-color="#0f6c37"/><stop offset=".08" stop-color="#077739"/><stop offset=".13" stop-color="#108837"/><stop offset=".15" stop-color="#0a9039"/><stop offset=".35" stop-color="#36993d"/><stop offset=".76" stop-color="#5fb048"/><stop offset="1" stop-color="#6fb74b"/></linearGradient><linearGradient id="linear-gradient-5" x1="461.96" y1="496.6" x2="461.96" y2="388.91" gradientTransform="translate(0 -253.17)" gradientUnits="userSpaceOnUse"><stop offset="0" stop-color="#0c6835"/><stop offset=".03" stop-color="#0c6935"/><stop offset=".05" stop-color="#086f37"/><stop offset=".07" stop-color="#067838"/><stop offset=".08" stop-color="#048438"/><stop offset=".08" stop-color="#058f39"/><stop offset=".12" stop-color="#0a9039"/><stop offset=".68" stop-color="#42ab34"/><stop offset="1" stop-color="#6cb64a"/></linearGradient></defs><rect class="cls-3" x=".5" y=".5" width="720" height="378.91"/><g><g id="prodBg"><rect id="external-border" class="cls-16" x="170.89" y="102.08" width="379.23" height="175.75"/><rect id="internal-border" class="cls-1" x="175.53" y="106.72" width="370.1" height="166.49"/><rect id="bg" class="cls-15" x="179.57" y="110.78" width="361.85" height="158.21"/><rect id="bgPattern" class="cls-11" x="179.57" y="110.78" width="361.85" height="158.21"/></g><path class="cls-17" d="M345.52,221.97l32.42-69.31h8.33l-32.42,69.31h-8.33Z"/><g id="plant"><rect class="cls-14" x="207.61" y="131.88" width="116.22" height="116.22"/><rect class="cls-18" x="210.96" y="135.23" width="109.51" height="109.51"/><rect class="cls-8" x="216.26" y="140.54" width="98.89" height="98.89"/><path id="leaf" class="cls-4" d="M265.67,164.96c-14.17,1.96-24.98,11.18-24.98,24.98,0,3.36,.65,6.62,1.86,9.6-2.61,1.77-6.43,4.1-8.29,4.75-3.26,1.12-9.79,.37-10.07,.93s1.86,6.43,2.61,6.71,6.71,.28,10.07-.93c2.42-.84,6.8-3.63,9.32-5.5,4.57,5.78,11.65,9.41,19.57,9.41,13.79,0,24.79-8.67,24.79-22.46,0-5.31,1.3-12.02,3.26-16.22,2.14-4.66,13.23-7.64,13.23-7.64-1.12-3.63-35.79-4.38-41.38-3.63h0Z"/><path id="darker" class="cls-12" d="M320.46,244.74h-109.51v-60.02s34.48,5.31,54.71,5.31,54.8-5.31,54.8-5.31v60.02h0Z"/></g><g id="tagPlant"><path class="cls-6" d="M519.98,189.63c0,32.05-26.06,58.11-58.11,58.11s-58.11-26.06-58.11-58.11,26.06-58.11,58.11-58.11c32.15,0,58.11,25.96,58.11,58.11Z"/><path class="cls-10" d="M515.76,189.63c0,29.71-24.09,53.8-53.8,53.8s-53.8-24.09-53.8-53.8,23.99-53.89,53.71-53.89,53.89,24.09,53.89,53.89Z"/><path class="cls-9" d="M510.51,189.63c0,26.81-21.74,48.64-48.64,48.64s-48.55-21.84-48.55-48.64,21.74-48.64,48.64-48.64,48.55,21.74,48.55,48.64Z"/><path id="leaf-2" class="cls-2" d="M461.86,167.88c-12.28,1.69-21.74,9.65-21.74,21.74,0,3,.56,5.81,1.69,8.34-2.25,1.59-5.53,3.47-7.22,4.12-2.91,1.03-8.53,.28-8.72,.75-.19,.47,1.69,5.62,2.25,5.81,.56,.28,5.81,.19,8.72-.75,2.06-.75,5.9-3.09,8.06-4.78,3.94,4.97,10.12,8.25,17.06,8.25,12,0,21.65-7.59,21.65-19.59,0-4.69,1.12-10.5,2.81-14.15,1.87-4.12,11.43-6.65,11.43-6.65-.84-3.09-31.02-3.84-35.99-3.09Z"/><path id="darker-2" class="cls-7" d="M515.76,189.63c0-1.12,0-2.16-.09-3.19-10.87,3-29.52,6.84-53.71,6.84s-42.27-4.78-53.61-8.72c-.19,1.69-.28,3.37-.28,5.06,0,29.71,24.09,53.8,53.8,53.8s53.89-24.09,53.89-53.8Z"/></g></g></svg>