<?xml version="1.0" encoding="UTF-8"?><svg id="Layer" xmlns="http://www.w3.org/2000/svg" xmlns:xlink="http://www.w3.org/1999/xlink" viewBox="0 0 721 379.91"><defs><style>.cls-1{fill:url(#linear-gradient-2);}.cls-2{fill:#946137;}.cls-3{fill:#1f1f1e;}.cls-4{opacity:0;stroke:#1d1d1b;}.cls-4,.cls-5{fill:#fff;stroke-miterlimit:10;}.cls-6{fill:url(#Nowy_wzorek_3);opacity:.1;}.cls-6,.cls-7{isolation:isolate;}.cls-7{opacity:.15;}.cls-7,.cls-8{fill:#030304;}.cls-9{fill:url(#linear-gradient-5);}.cls-10{fill:none;}.cls-11{fill:#7f358b;}.cls-5{stroke:#030304;stroke-width:.94px;}.cls-12{fill:url(#linear-gradient-3);}.cls-13{fill:url(#linear-gradient);}.cls-14{fill:url(#linear-gradient-4);}.cls-15{fill:#342217;}</style><linearGradient id="linear-gradient" x1="483.8" y1="565.89" x2="237.2" y2="319.29" gradientTransform="translate(0 -252.64)" gradientUnits="userSpaceOnUse"><stop offset="0" stop-color="#9e9d9c"/><stop offset=".54" stop-color="#010202"/><stop offset="1" stop-color="#9e9d9c"/></linearGradient><linearGradient id="linear-gradient-2" x1="360.58" y1="595" x2="360.58" y2="290.21" gradientTransform="translate(0 -252.64)" gradientUnits="userSpaceOnUse"><stop offset="0" stop-color="#462c1b"/><stop offset="1" stop-color="#b18048"/></linearGradient><linearGradient id="linear-gradient-3" x1="360.51" y1="590.76" x2="360.51" y2="294.29" gradientTransform="translate(0 -252.64)" gradientUnits="userSpaceOnUse"><stop offset="0" stop-color="#946137"/><stop offset="1" stop-color="#805127"/></linearGradient><pattern id="Nowy_wzorek_3" x="0" y="0" width="19.7" height="21.7" patternTransform="translate(43.9 16649.47)" patternUnits="userSpaceOnUse" viewBox="0 0 19.7 21.7"><g><rect class="cls-10" width="19.7" height="21.7"/><g><rect class="cls-10" width="19.7" height="21.7"/><g><rect class="cls-10" width="19.7" height="21.7"/><g><rect class="cls-10" width="19.7" height="21.7"/><g><rect class="cls-10" width="19.7" height="21.7"/><path class="cls-3" d="M16.6,8.7c2.1,2.1,2.1,5.6,0,7.7l-1.2,1.2c-2.1,2.1-5.6,2.1-7.8,0L3.1,13c-2.1-2.1-2.1-5.6,0-7.7l1.2-1.2c2.1-2.1,5.6-2.1,7.7,0l4.6,4.6Z"/></g></g></g></g></g></pattern><linearGradient id="linear-gradient-4" x1="-487.51" y1="1267.75" x2="-409.35" y2="1189.57" gradientTransform="translate(-191.13 -1064.43) rotate(-45)" gradientUnits="userSpaceOnUse"><stop offset="0" stop-color="#1d1427"/><stop offset=".24" stop-color="#372348"/><stop offset=".49" stop-color="#573b6c"/><stop offset=".71" stop-color="#72508c"/><stop offset=".89" stop-color="#835ca0"/><stop offset="1" stop-color="#8963a7"/></linearGradient><linearGradient id="linear-gradient-5" x1="-583.61" y1="-746.73" x2="-505.45" y2="-668.55" gradientTransform="translate(245.68 -627.62) rotate(-45) scale(1 -1)" gradientUnits="userSpaceOnUse"><stop offset="0" stop-color="#462c1b"/><stop offset=".05" stop-color="#58351a"/><stop offset=".1" stop-color="#683f16"/><stop offset=".32" stop-color="#77491f"/><stop offset=".75" stop-color="#8d5b32"/><stop offset="1" stop-color="#946137"/></linearGradient></defs><rect class="cls-4" x=".5" y=".5" width="720" height="378.91"/><g><g id="prodBg"><rect id="external-border" class="cls-13" x="270.96" y="32.9" width="179.08" height="314.11"/><rect id="internal-border" class="cls-1" x="275.63" y="37.57" width="169.89" height="304.79"/><rect id="bg" class="cls-12" x="279.72" y="41.66" width="161.59" height="296.47"/><rect id="bgPattern" class="cls-6" x="279.72" y="41.66" width="161.59" height="296.47"/></g><g id="energy"><rect class="cls-8" x="301.93" y="62.8" width="117.29" height="117.29"/><rect class="cls-14" x="305.31" y="66.18" width="110.53" height="110.53"/><polygon class="cls-11" points="410.49 71.54 410.49 171.36 310.67 171.36 310.67 71.54 410.49 71.54"/><polygon class="cls-5" points="348.39 110.02 381.32 89.61 363.72 115.1 373.04 130.23 340.67 150.67 356.95 125.26 348.39 110.02"/><path id="darker" class="cls-7" d="M415.84,176.71h-110.53v-60.57s34.81,5.36,55.22,5.36,55.32-5.36,55.32-5.36v60.57Z"/></g><g id="steel"><rect class="cls-8" x="302.34" y="199.16" width="117.29" height="117.29"/><rect class="cls-9" x="305.74" y="202.53" width="110.53" height="110.53"/><rect class="cls-2" x="311.1" y="207.89" width="99.8" height="99.8"/><g><path class="cls-15" d="M371.39,290.75l2.44-46.38-5.64-.66-.84-1.98h-4.32l-.76,2.08-6.58-.28v-12.03h7.62l.56,2.36,3.58,.48,.84-2.72h7.82l1.5,1.32,1.32-1.32h9.7l1.12,1.88,1.7-1.88,7.34,6.02-.48,4.14s-4.04-3.76-6.02-3.76-4.8-.1-4.8-.1l-4.04,6.5-2.44,.18,2.26,46.18h-11.86l-.03-.03Z"/><polygon class="cls-15" points="349.48 229.52 341.56 225.2 341.49 235.92 334.33 235.92 334.33 225.2 325.29 229.34 325.29 242.52 333.67 246.55 330.75 290.75 344.2 290.75 341.56 246.55 349.48 242.97 349.48 229.52"/></g><path id="darker-2" class="cls-7" d="M416.25,313.07h-110.53v-60.57s34.81,5.36,55.22,5.36,55.32-5.36,55.32-5.36v60.57h0Z"/></g></g></svg>