<?xml version="1.0" encoding="UTF-8"?><svg id="Layer" xmlns="http://www.w3.org/2000/svg" xmlns:xlink="http://www.w3.org/1999/xlink" viewBox="0 0 721 379.91"><defs><style>.cls-1{stroke:#030304;stroke-width:.93px;}.cls-1,.cls-2{fill:#fff;stroke-miterlimit:10;}.cls-3{fill:url(#linear-gradient-2);}.cls-4{fill:#1f1f1e;}.cls-2{opacity:0;stroke:#1d1d1b;}.cls-5{fill:url(#Nowy_wzorek_3);opacity:.1;}.cls-5,.cls-6,.cls-7{isolation:isolate;}.cls-6{opacity:.15;}.cls-6,.cls-7,.cls-8{fill:#030304;}.cls-9{fill:#ffd113;}.cls-10{fill:url(#linear-gradient-5);}.cls-11{fill:#e62b23;}.cls-12{fill:none;}.cls-7{opacity:.05;}.cls-13{fill:#7f358b;}.cls-14{fill:url(#linear-gradient-3);}.cls-15{fill:url(#linear-gradient);}.cls-16{fill:url(#linear-gradient-4);}.cls-17{fill:#010101;}</style><linearGradient id="linear-gradient" x1="501.4" y1="583.5" x2="219.6" y2="301.69" gradientTransform="translate(0 -252.64)" gradientUnits="userSpaceOnUse"><stop offset="0" stop-color="#9e9d9c"/><stop offset=".54" stop-color="#010202"/><stop offset="1" stop-color="#9e9d9c"/></linearGradient><linearGradient id="linear-gradient-2" x1="360.58" y1="594.04" x2="360.58" y2="291.17" gradientTransform="translate(0 -252.64)" gradientUnits="userSpaceOnUse"><stop offset="0" stop-color="#462c1b"/><stop offset="1" stop-color="#b18048"/></linearGradient><linearGradient id="linear-gradient-3" x1="360.51" y1="589.83" x2="360.51" y2="295.23" gradientTransform="translate(0 -252.64)" gradientUnits="userSpaceOnUse"><stop offset="0" stop-color="#946137"/><stop offset="1" stop-color="#805127"/></linearGradient><pattern id="Nowy_wzorek_3" x="0" y="0" width="19.7" height="21.7" patternTransform="translate(43.9 16649.47)" patternUnits="userSpaceOnUse" viewBox="0 0 19.7 21.7"><g><rect class="cls-12" width="19.7" height="21.7"/><g><rect class="cls-12" width="19.7" height="21.7"/><g><rect class="cls-12" width="19.7" height="21.7"/><g><rect class="cls-12" width="19.7" height="21.7"/><g><rect class="cls-12" width="19.7" height="21.7"/><path class="cls-4" d="M16.6,8.7c2.1,2.1,2.1,5.6,0,7.7l-1.2,1.2c-2.1,2.1-5.6,2.1-7.8,0L3.1,13c-2.1-2.1-2.1-5.6,0-7.7l1.2-1.2c2.1-2.1,5.6-2.1,7.7,0l4.6,4.6Z"/></g></g></g></g></g></pattern><linearGradient id="linear-gradient-4" x1="-461.3" y1="1294.25" x2="-383.64" y2="1216.56" gradientTransform="translate(-191.13 -1064.43) rotate(-45)" gradientUnits="userSpaceOnUse"><stop offset="0" stop-color="#1d1427"/><stop offset=".24" stop-color="#372348"/><stop offset=".49" stop-color="#573b6c"/><stop offset=".71" stop-color="#72508c"/><stop offset=".89" stop-color="#835ca0"/><stop offset="1" stop-color="#8963a7"/></linearGradient><linearGradient id="linear-gradient-5" x1="-557.21" y1="-772.43" x2="-479.54" y2="-694.74" gradientTransform="translate(245.68 -627.62) rotate(-45) scale(1 -1)" gradientUnits="userSpaceOnUse"><stop offset="0" stop-color="#951919"/><stop offset=".21" stop-color="#b9251d"/><stop offset=".47" stop-color="#e62b23"/><stop offset=".55" stop-color="#e62f2a"/><stop offset=".84" stop-color="#e73a3b"/><stop offset="1" stop-color="#e83e41"/></linearGradient></defs><rect class="cls-2" x=".5" y=".5" width="720" height="378.91"/><g><g id="prodBg"><rect id="external-border" class="cls-15" x="234.76" y="33.89" width="251.49" height="312.13"/><rect id="internal-border" class="cls-3" x="239.4" y="38.53" width="242.35" height="302.87"/><rect id="bg" class="cls-14" x="243.46" y="42.59" width="234.11" height="294.6"/><rect id="bgPattern" class="cls-5" x="243.46" y="42.59" width="234.11" height="294.6"/></g><path class="cls-17" d="M277.72,128.82v-13.67h32.82v13.67h-32.82Z"/><g id="energy"><rect class="cls-8" x="339.57" y="63.73" width="116.55" height="116.55"/><rect class="cls-16" x="342.93" y="67.09" width="109.84" height="109.84"/><polygon class="cls-13" points="447.44 72.41 447.44 171.6 348.28 171.6 348.28 72.41 447.44 72.41"/><polygon class="cls-1" points="385.76 110.65 418.46 90.37 400.98 115.7 410.23 130.76 378.1 151.04 394.27 125.79 385.76 110.65"/><path id="darker" class="cls-6" d="M452.77,176.92h-109.84v-60.19s34.59,5.32,54.87,5.32,54.97-5.32,54.97-5.32v60.19h0Z"/></g><path class="cls-17" d="M401.78,281.64v-13.14h-22.98v-7.39l22.58-28.71h9.01v28.71h5.75v7.39h-5.75v13.14h-8.6Zm-15.11-20.51h15.31v-19.3l-15.31,19.3Z"/><g id="heat"><rect class="cls-8" x="339.57" y="199.38" width="116.55" height="116.55"/><rect class="cls-10" x="342.93" y="202.73" width="109.84" height="109.84"/><rect class="cls-11" x="348.28" y="208.05" width="99.17" height="99.17"/><path id="darker-2" class="cls-7" d="M452.77,312.57h-109.84v-60.19s34.59,5.32,54.87,5.32,54.97-5.32,54.97-5.32v60.19h0Z"/><g><polygon class="cls-9" points="385.46 262.75 372.95 251.9 372.95 251.9 372.95 218.8 360.41 252.55 373.05 263.2 373.05 263.2 372.95 296.5 385.46 262.75"/><polygon class="cls-9" points="410.44 262.75 397.9 251.9 397.8 251.9 397.9 218.8 385.39 252.55 397.9 263.2 397.9 263.2 397.9 296.5 410.44 262.75"/><polygon class="cls-9" points="436.04 262.75 423.5 251.9 423.43 251.9 423.5 218.8 410.99 252.55 423.5 263.2 423.5 263.2 423.5 296.5 436.04 262.75"/></g></g><path class="cls-17" d="M298.13,281.64v-13.14h-22.98v-7.39l22.58-28.71h9.01v28.71h5.75v7.39h-5.75v13.14h-8.6Zm-15.11-20.51h15.31v-19.3l-15.31,19.3Z"/></g></svg>