<?xml version="1.0" encoding="UTF-8"?><svg id="Layer" xmlns="http://www.w3.org/2000/svg" xmlns:xlink="http://www.w3.org/1999/xlink" viewBox="0 0 721 379.91"><defs><style>.cls-1{stroke:#fff;}.cls-1,.cls-2,.cls-3,.cls-4,.cls-5,.cls-6,.cls-7,.cls-8,.cls-9,.cls-10{stroke-miterlimit:10;}.cls-1,.cls-2,.cls-3,.cls-11,.cls-7{fill:none;}.cls-1,.cls-6{stroke-width:2.07px;}.cls-12,.cls-13{fill:#020303;}.cls-14{fill:#1f1f1e;}.cls-2{stroke-width:4.54px;}.cls-2,.cls-3,.cls-6,.cls-7,.cls-9,.cls-10{stroke:#020303;}.cls-3{stroke-linecap:square;}.cls-3,.cls-9,.cls-10{stroke-width:3.03px;}.cls-15{fill:#42ab34;}.cls-16{fill:url(#linear-gradient-11);}.cls-4{fill:#fff;opacity:0;stroke:#1d1d1b;}.cls-17{fill:url(#Nowy_wzorek_3);opacity:.1;}.cls-17,.cls-18,.cls-19,.cls-20,.cls-13{isolation:isolate;}.cls-21{fill:url(#linear-gradient-10);}.cls-22{fill:url(#radial-gradient);}.cls-18{fill:url(#linear-gradient-6);opacity:.5;}.cls-23{fill:#44ac36;}.cls-5{fill:#07562a;stroke-width:3.37px;}.cls-5,.cls-8{stroke:#1c4421;}.cls-24{fill:url(#radial-gradient-2);}.cls-19{fill:url(#linear-gradient-4);}.cls-19,.cls-20{opacity:.31;}.cls-25{fill:url(#linear-gradient-7);}.cls-6{fill:url(#linear-gradient-5);}.cls-26{fill:url(#linear-gradient-9);}.cls-20{fill:url(#linear-gradient-2);}.cls-7{stroke-width:2.27px;}.cls-13{opacity:.05;}.cls-8{fill:#05552b;stroke-width:3.39px;}.cls-9{fill:url(#linear-gradient-3);}.cls-10{fill:url(#linear-gradient);}.cls-27{fill:url(#linear-gradient-8);}.cls-28{fill:url(#linear-gradient-12);}</style><linearGradient id="linear-gradient" x1="536.19" y1="18.8" x2="536.19" y2="149.35" gradientTransform="translate(0 363.09) scale(1 -1)" gradientUnits="userSpaceOnUse"><stop offset="0" stop-color="#951917"/><stop offset=".21" stop-color="#b13c1e"/><stop offset=".44" stop-color="#cb5e26"/><stop offset=".66" stop-color="#e17932"/><stop offset=".85" stop-color="#ee8c39"/><stop offset="1" stop-color="#f3923b"/></linearGradient><radialGradient id="radial-gradient" cx="536.26" cy="84.08" fx="536.26" fy="84.08" r="74.35" gradientTransform="translate(0 363.09) scale(1 -1)" gradientUnits="userSpaceOnUse"><stop offset="0" stop-color="#f3923b" stop-opacity=".5"/><stop offset="1" stop-color="#d23f16"/></radialGradient><linearGradient id="linear-gradient-2" x1="536.19" y1="18.8" x2="536.19" y2="101.97" gradientTransform="translate(0 363.09) scale(1 -1)" gradientUnits="userSpaceOnUse"><stop offset="0" stop-color="#1f1f1d"/><stop offset="1" stop-color="#3e3d3c"/></linearGradient><linearGradient id="linear-gradient-3" x1="536.03" y1="190.91" x2="536.03" y2="321.46" xlink:href="#linear-gradient"/><radialGradient id="radial-gradient-2" cx="536.11" cy="256.19" fx="536.11" fy="256.19" r="74.35" xlink:href="#radial-gradient"/><linearGradient id="linear-gradient-4" x1="536.03" y1="190.91" x2="536.03" y2="274.08" xlink:href="#linear-gradient-2"/><linearGradient id="linear-gradient-5" x1="687.75" y1="44.19" x2="687.75" y2="190.39" gradientTransform="translate(0 311.09) scale(1 -1)" gradientUnits="userSpaceOnUse"><stop offset=".08" stop-color="#42c0f0"/><stop offset=".15" stop-color="#51a5d4"/><stop offset=".23" stop-color="#5c84b3"/><stop offset=".3" stop-color="#62699b"/><stop offset=".37" stop-color="#66558b"/><stop offset=".42" stop-color="#674880"/><stop offset=".46" stop-color="#67447d"/><stop offset=".55" stop-color="#903d60"/><stop offset=".67" stop-color="#b6303b"/><stop offset=".75" stop-color="#cc2021"/><stop offset=".79" stop-color="#d4161a"/></linearGradient><linearGradient id="linear-gradient-6" x1="681.77" y1="70.23" x2="673.89" y2="78.11" gradientTransform="translate(0 311.09) scale(1 -1)" gradientUnits="userSpaceOnUse"><stop offset="0" stop-color="#1f1f1d" stop-opacity="0"/><stop offset="1" stop-color="#fff"/></linearGradient><linearGradient id="linear-gradient-7" x1="375.54" y1="610.93" x2="44.97" y2="280.36" gradientTransform="translate(0 -252.64)" gradientUnits="userSpaceOnUse"><stop offset="0" stop-color="#9e9d9c"/><stop offset=".54" stop-color="#010202"/><stop offset="1" stop-color="#9e9d9c"/></linearGradient><linearGradient id="linear-gradient-8" x1="210.32" y1="582.62" x2="210.32" y2="308.69" gradientTransform="translate(0 -252.64)" gradientUnits="userSpaceOnUse"><stop offset="0" stop-color="#462c1b"/><stop offset="1" stop-color="#b18048"/></linearGradient><linearGradient id="linear-gradient-9" x1="210.27" y1="578.81" x2="210.27" y2="312.36" gradientTransform="translate(0 -252.64)" gradientUnits="userSpaceOnUse"><stop offset="0" stop-color="#946137"/><stop offset="1" stop-color="#805127"/></linearGradient><pattern id="Nowy_wzorek_3" x="0" y="0" width="19.7" height="21.7" patternTransform="translate(43.9 16649.47)" patternUnits="userSpaceOnUse" viewBox="0 0 19.7 21.7"><g><rect class="cls-11" width="19.7" height="21.7"/><g><rect class="cls-11" width="19.7" height="21.7"/><g><rect class="cls-11" width="19.7" height="21.7"/><g><rect class="cls-11" width="19.7" height="21.7"/><g><rect class="cls-11" width="19.7" height="21.7"/><path class="cls-14" d="M16.6,8.7c2.1,2.1,2.1,5.6,0,7.7l-1.2,1.2c-2.1,2.1-5.6,2.1-7.8,0L3.1,13c-2.1-2.1-2.1-5.6,0-7.7l1.2-1.2c2.1-2.1,5.6-2.1,7.7,0l4.6,4.6Z"/></g></g></g></g></g></pattern><linearGradient id="linear-gradient-10" x1="131.27" y1="555.78" x2="131.27" y2="458.33" gradientTransform="translate(0 -253.17)" gradientUnits="userSpaceOnUse"><stop offset="0" stop-color="#0c6835"/><stop offset=".03" stop-color="#0c6935"/><stop offset=".05" stop-color="#086f37"/><stop offset=".07" stop-color="#067838"/><stop offset=".08" stop-color="#048438"/><stop offset=".08" stop-color="#058f39"/><stop offset=".12" stop-color="#0a9039"/><stop offset=".68" stop-color="#42ab34"/><stop offset="1" stop-color="#6cb64a"/></linearGradient><linearGradient id="linear-gradient-11" x1="-607.3" y1="1327.08" x2="-537.24" y2="1257.02" gradientTransform="translate(-190.6 -1064.17) rotate(-45)" gradientUnits="userSpaceOnUse"><stop offset="0" stop-color="#0c6835"/><stop offset=".04" stop-color="#0a6b36"/><stop offset=".08" stop-color="#047638"/><stop offset=".13" stop-color="#078738"/><stop offset=".15" stop-color="#058f39"/><stop offset=".35" stop-color="#34993d"/><stop offset=".76" stop-color="#5eaf47"/><stop offset="1" stop-color="#6eb74a"/></linearGradient><linearGradient id="linear-gradient-12" x1="-634.18" y1="1126.18" x2="-564.11" y2="1056.11" xlink:href="#linear-gradient-11"/></defs><rect class="cls-4" x=".5" y=".5" width="720" height="378.91"/><g id="tr"><rect class="cls-10" x="443.83" y="213.73" width="184.71" height="130.55"/><rect class="cls-22" x="449.58" y="219.48" width="173.36" height="119.05"/><g id="logo"><g><circle class="cls-2" cx="536.26" cy="274.7" r="33.58"/><path class="cls-7" d="M536.26,241.12s17.4,7.11,17.4,33.58-17.4,33.58-17.4,33.58"/><path class="cls-7" d="M536.26,241.12s-17.4,7.11-17.4,33.58,17.4,33.58,17.4,33.58"/><line class="cls-7" x1="536.26" y1="241.12" x2="536.26" y2="308.28"/><line class="cls-7" x1="502.68" y1="274.7" x2="569.84" y2="274.7"/><path class="cls-7" d="M510.09,253.52s9.83,4.99,26.02,4.99,26.02-4.99,26.02-4.99"/><path class="cls-7" d="M510.09,296.33c0-.15,9.83-4.99,26.02-4.99s26.02,4.99,26.02,4.99"/><polygon class="cls-12" points="556.38 247.17 565.31 239 553.51 236.58 579.22 229.16 573.32 255.94 569.84 242.63 561.37 252.46 556.38 247.17"/><polyline class="cls-3" points="536.26 316 524.16 316 529.3 316 529.3 327.95"/><polyline class="cls-3" points="544.88 327.95 544.88 316 542.61 316 539.74 324.01 538.83 324.01 536.41 320.23 534.6 320.23 534.6 327.95"/><path class="cls-12" d="M525.07,323.56c0,1.82-4.54,4.54-6.35,4.54s-12.71,.76-12.71-1.06,10.89-5.6,12.71-5.6c1.82,.15,6.35,.3,6.35,2.12Z"/><path class="cls-12" d="M519.62,319.48c-1.06,.91-5.14-.61-6.05-1.66s-6.66-7.41-5.6-8.32,8.77,4.08,9.68,5.14c.91,1.06,3.03,3.93,1.97,4.84Z"/><path class="cls-12" d="M511.6,321.59c-.3,1.36-4.24,2.87-5.75,2.57-1.36-.3-12.86-1.21-12.56-2.57s12.25-2.87,13.61-2.57c1.51,.3,4.99,1.21,4.69,2.57Z"/><path class="cls-12" d="M508.58,317.96c-1.36,.45-4.69-2.12-5.14-3.48s-5.75-11.65-4.54-12.1,8.77,8.93,9.38,10.29c.45,1.36,1.51,4.84,.3,5.29Z"/><path class="cls-12" d="M500.26,317.36c-.91,1.36-5.29,1.36-6.5,.61s-11.95-5.9-11.04-7.26,13.01,1.51,14.22,2.42c1.21,.76,4.24,2.87,3.33,4.24Z"/><path class="cls-12" d="M497.23,312.52c-1.51,0-3.63-3.48-3.63-4.84s-1.21-12.1,.3-12.1,5.14,10.89,5.14,12.25c-.15,1.21-.3,4.69-1.82,4.69Z"/><path class="cls-12" d="M489.21,303.29c-1.36-.3-2.72-4.08-2.42-5.45,.3-1.21,1.51-11.8,2.87-11.5,1.36,.3,2.42,11.5,2.12,12.71-.3,1.36-1.21,4.54-2.57,4.24Z"/><path class="cls-12" d="M489.97,309.19c-1.21,.91-5.29-.45-6.2-1.51-.91-1.21-9.38-9.23-8.17-10.14s11.5,5.6,12.4,6.66c.91,1.06,3.03,4.08,1.97,4.99Z"/><path class="cls-12" d="M483.01,297.84c-1.21,.61-4.84-1.36-5.45-2.57s-7.11-10.29-5.75-11.04c1.21-.61,9.68,7.41,10.29,8.62,.61,1.21,2.12,4.24,.91,4.99Z"/><path class="cls-12" d="M483.77,293.46c-1.06-.45-1.51-4.24-1.06-5.45s3.33-11.65,4.39-11.19c1.06,.45,.15,11.5-.3,12.71-.61,1.36-1.97,4.39-3.03,3.93Z"/><path class="cls-12" d="M479.08,286.35c-1.21,.3-3.78-2.72-4.08-4.24-.3-1.36-3.78-11.95-2.72-12.25,1.21-.3,6.66,9.98,6.96,11.35,.3,1.36,1.06,4.99-.15,5.14Z"/><path class="cls-12" d="M481.2,281.66c-1.06-.61-.91-4.08-.3-5.14s4.54-9.53,5.6-8.93-1.36,10.29-1.97,11.19c-.61,1.06-2.27,3.48-3.33,2.87Z"/><path class="cls-12" d="M478.02,273.03c-1.21-.15-2.87-3.63-2.72-4.99s-.15-11.8,1.06-11.8c1.21,.15,3.48,10.89,3.33,12.25s-.45,4.69-1.66,4.54Z"/><path class="cls-12" d="M481.05,269.56c-.76-.76,.45-4.24,1.36-4.99s7.56-8.32,8.32-7.41c.76,.76-4.69,9.68-5.6,10.44-.91,.76-3.33,2.87-4.08,1.97Z"/><path class="cls-12" d="M485.58,258.51c-.61-.76,.3-3.33,1.06-4.08,.76-.61,6.05-6.66,6.66-5.9s-3.63,7.72-4.39,8.47c-.91,.45-2.72,2.12-3.33,1.51Z"/><path class="cls-12" d="M480.44,260.02c-.91-.3-1.51-3.93-1.21-5.14,.3-1.21,2.42-11.5,3.33-11.35,.91,.3,.45,11.04,.15,12.25-.15,1.51-1.21,4.69-2.27,4.24Z"/><path class="cls-12" d="M486.19,252.01c-1.21-.45-1.82-4.08-1.36-5.29,.45-1.21,2.87-11.04,4.08-10.59,1.21,.45,.61,11.04,.15,12.25-.45,1.06-1.66,4.08-2.87,3.63Z"/><path class="cls-12" d="M547.46,323.11c0,1.82,4.54,4.54,6.35,4.54s12.71,.76,12.71-1.06-10.89-5.6-12.71-5.6-6.35,.3-6.35,2.12Z"/><path class="cls-12" d="M552.9,319.02c1.06,.91,5.14-.61,6.05-1.66s6.66-7.41,5.6-8.32c-1.06-.91-8.77,4.08-9.68,5.14-.91,1.06-3.03,3.93-1.97,4.84Z"/><path class="cls-12" d="M560.92,321.14c.3,1.36,4.24,2.87,5.75,2.57,1.36-.3,12.86-1.21,12.56-2.57-.3-1.36-12.25-2.87-13.61-2.57-1.51,.3-4.99,1.21-4.69,2.57Z"/><path class="cls-12" d="M563.94,317.51c1.36,.45,4.69-2.12,5.14-3.48s5.75-11.65,4.39-12.1-8.77,8.93-9.38,10.29c-.3,1.36-1.36,4.84-.15,5.29Z"/><path class="cls-12" d="M572.26,316.9c.91,1.36,5.29,1.36,6.5,.61s11.8-5.9,10.89-7.26c-.91-1.36-13.01,1.51-14.22,2.42-1.06,.76-4.08,2.87-3.18,4.24Z"/><path class="cls-12" d="M575.29,312.06c1.51,0,3.63-3.48,3.63-4.84s1.21-12.1-.3-12.1-5.14,10.89-5.14,12.25c.15,1.36,.3,4.69,1.82,4.69Z"/><path class="cls-12" d="M583.31,302.84c1.36-.3,2.72-4.08,2.42-5.45-.3-1.21-1.51-11.8-2.87-11.5-1.36,.3-2.42,11.5-2.12,12.71,.3,1.36,1.21,4.54,2.57,4.24Z"/><path class="cls-12" d="M582.55,308.74c1.21,.91,5.29-.45,6.2-1.51,.91-1.21,9.38-9.23,8.17-10.14-1.21-.91-11.5,5.6-12.4,6.66-.91,1.21-3.03,4.08-1.97,4.99Z"/><path class="cls-12" d="M589.51,297.39c1.21,.61,4.84-1.36,5.45-2.57s7.11-10.29,5.75-11.04c-1.21-.61-9.68,7.41-10.29,8.62-.61,1.21-2.12,4.39-.91,4.99Z"/><path class="cls-12" d="M588.75,293.15c1.06-.45,1.66-4.24,1.06-5.45s-3.33-11.65-4.39-11.19c-1.06,.45-.15,11.5,.3,12.71,.61,1.21,1.97,4.39,3.03,3.93Z"/><path class="cls-12" d="M593.44,285.89c1.21,.3,3.78-2.72,4.08-4.24,.3-1.36,3.93-11.95,2.72-12.25-1.21-.3-6.66,9.98-6.96,11.35-.3,1.51-1.06,4.99,.15,5.14Z"/><path class="cls-12" d="M591.33,281.2c1.06-.61,1.06-4.08,.3-5.14-.61-1.06-4.69-9.53-5.6-8.93s1.36,10.29,1.97,11.19c.61,1.06,2.27,3.63,3.33,2.87Z"/><path class="cls-12" d="M594.5,272.58c1.21-.15,2.87-3.63,2.72-4.99-.15-1.36,.15-11.95-1.06-11.8-1.21,.15-3.48,10.89-3.33,12.25,0,1.36,.45,4.69,1.66,4.54Z"/><path class="cls-12" d="M591.48,269.1c.76-.76-.45-4.24-1.36-4.99s-7.56-8.32-8.32-7.41c-.76,.76,4.69,9.68,5.6,10.44,.91,.76,3.33,2.87,4.08,1.97Z"/><path class="cls-12" d="M586.94,258.06c.61-.76-.3-3.33-1.06-4.08s-6.05-6.66-6.66-5.9,3.63,7.72,4.39,8.47c.76,.61,2.72,2.12,3.33,1.51Z"/><path class="cls-12" d="M591.93,259.72c.91-.3,1.51-3.93,1.21-5.14-.3-1.21-2.42-11.5-3.33-11.35-.91,.3-.45,11.04-.15,12.25,.3,1.36,1.36,4.54,2.27,4.24Z"/><path class="cls-12" d="M586.33,251.55c1.21-.45,1.82-4.08,1.36-5.29-.45-1.21-2.87-11.04-4.08-10.59-1.21,.45-.61,11.04-.15,12.25,.45,1.06,1.66,4.08,2.87,3.63Z"/></g></g><path id="darker" class="cls-20" d="M627.93,261.39c-2.87,5.75-51.59,15.13-91.67,15.13s-89.56-10.29-92.43-15.13v82.9h184.71v-81.99c-.15-1.06-.45-1.51-.61-.91Z"/></g><g id="tr-2"><rect class="cls-9" x="443.68" y="41.62" width="184.71" height="130.55"/><rect class="cls-24" x="449.43" y="47.37" width="173.36" height="119.05"/><g id="logo-2"><g><circle class="cls-2" cx="536.11" cy="102.59" r="33.58"/><path class="cls-7" d="M536.11,69s17.4,7.11,17.4,33.58-17.4,33.58-17.4,33.58"/><path class="cls-7" d="M536.11,69s-17.4,7.11-17.4,33.58,17.4,33.58,17.4,33.58"/><line class="cls-7" x1="536.11" y1="69" x2="536.11" y2="136.17"/><line class="cls-7" x1="502.53" y1="102.59" x2="569.69" y2="102.59"/><path class="cls-7" d="M509.94,81.41s9.83,4.99,26.02,4.99,26.02-4.99,26.02-4.99"/><path class="cls-7" d="M509.94,124.22c0-.15,9.83-4.99,26.02-4.99s26.02,4.99,26.02,4.99"/><polygon class="cls-12" points="556.23 75.05 565.15 66.88 553.36 64.46 579.07 57.05 573.17 83.83 569.69 70.52 561.22 80.35 556.23 75.05"/><polyline class="cls-3" points="536.11 143.88 524.01 143.88 529.15 143.88 529.15 155.84"/><polyline class="cls-3" points="544.73 155.84 544.73 143.88 542.46 143.88 539.59 151.9 538.68 151.9 536.26 148.12 534.45 148.12 534.45 155.84"/><path class="cls-12" d="M524.92,151.45c0,1.82-4.54,4.54-6.35,4.54s-12.71,.76-12.71-1.06,10.89-5.6,12.71-5.6c1.82,.15,6.35,.3,6.35,2.12Z"/><path class="cls-12" d="M519.47,147.36c-1.06,.91-5.14-.61-6.05-1.66s-6.66-7.41-5.6-8.32,8.77,4.08,9.68,5.14c.91,1.06,3.03,3.93,1.97,4.84Z"/><path class="cls-12" d="M511.45,149.48c-.3,1.36-4.24,2.87-5.75,2.57-1.36-.3-12.86-1.21-12.56-2.57s12.25-2.87,13.61-2.57c1.51,.3,4.99,1.21,4.69,2.57Z"/><path class="cls-12" d="M508.43,145.85c-1.36,.45-4.69-2.12-5.14-3.48s-5.75-11.65-4.54-12.1,8.77,8.93,9.38,10.29c.45,1.36,1.51,4.84,.3,5.29Z"/><path class="cls-12" d="M500.11,145.25c-.91,1.36-5.29,1.36-6.5,.61s-11.95-5.9-11.04-7.26,13.01,1.51,14.22,2.42c1.21,.76,4.24,2.87,3.33,4.24Z"/><path class="cls-12" d="M497.08,140.4c-1.51,0-3.63-3.48-3.63-4.84s-1.21-12.1,.3-12.1,5.14,10.89,5.14,12.25c-.15,1.21-.3,4.69-1.82,4.69Z"/><path class="cls-12" d="M489.06,131.18c-1.36-.3-2.72-4.08-2.42-5.45,.3-1.21,1.51-11.8,2.87-11.5,1.36,.3,2.42,11.5,2.12,12.71-.3,1.36-1.21,4.54-2.57,4.24Z"/><path class="cls-12" d="M489.82,137.08c-1.21,.91-5.29-.45-6.2-1.51-.91-1.21-9.38-9.23-8.17-10.14s11.5,5.6,12.4,6.66c.91,1.06,3.03,4.08,1.97,4.99Z"/><path class="cls-12" d="M482.86,125.73c-1.21,.61-4.84-1.36-5.45-2.57s-7.11-10.29-5.75-11.04c1.21-.61,9.68,7.41,10.29,8.62,.61,1.21,2.12,4.24,.91,4.99Z"/><path class="cls-12" d="M483.62,121.34c-1.06-.45-1.51-4.24-1.06-5.45s3.33-11.65,4.39-11.19c1.06,.45,.15,11.5-.3,12.71-.61,1.36-1.97,4.39-3.03,3.93Z"/><path class="cls-12" d="M478.93,114.23c-1.21,.3-3.78-2.72-4.08-4.24-.3-1.36-3.78-11.95-2.72-12.25,1.21-.3,6.66,9.98,6.96,11.35,.3,1.36,1.06,4.99-.15,5.14Z"/><path class="cls-12" d="M481.05,109.54c-1.06-.61-.91-4.08-.3-5.14s4.54-9.53,5.6-8.93-1.36,10.29-1.97,11.19c-.61,1.06-2.27,3.48-3.33,2.87Z"/><path class="cls-12" d="M477.87,100.92c-1.21-.15-2.87-3.63-2.72-4.99s-.15-11.8,1.06-11.8c1.21,.15,3.48,10.89,3.33,12.25s-.45,4.69-1.66,4.54Z"/><path class="cls-12" d="M480.89,97.44c-.76-.76,.45-4.24,1.36-4.99s7.56-8.32,8.32-7.41c.76,.76-4.69,9.68-5.6,10.44-.91,.76-3.33,2.87-4.08,1.97Z"/><path class="cls-12" d="M485.43,86.4c-.61-.76,.3-3.33,1.06-4.08,.76-.61,6.05-6.66,6.66-5.9s-3.63,7.72-4.39,8.47c-.91,.45-2.72,2.12-3.33,1.51Z"/><path class="cls-12" d="M480.29,87.91c-.91-.3-1.51-3.93-1.21-5.14,.3-1.21,2.42-11.5,3.33-11.35,.91,.3,.45,11.04,.15,12.25-.15,1.51-1.21,4.69-2.27,4.24Z"/><path class="cls-12" d="M486.04,79.89c-1.21-.45-1.82-4.08-1.36-5.29,.45-1.21,2.87-11.04,4.08-10.59,1.21,.45,.61,11.04,.15,12.25-.45,1.06-1.66,4.08-2.87,3.63Z"/><path class="cls-12" d="M547.3,150.99c0,1.82,4.54,4.54,6.35,4.54s12.71,.76,12.71-1.06-10.89-5.6-12.71-5.6-6.35,.3-6.35,2.12Z"/><path class="cls-12" d="M552.75,146.91c1.06,.91,5.14-.61,6.05-1.66s6.66-7.41,5.6-8.32c-1.06-.91-8.77,4.08-9.68,5.14-.91,1.06-3.03,3.93-1.97,4.84Z"/><path class="cls-12" d="M560.77,149.03c.3,1.36,4.24,2.87,5.75,2.57,1.36-.3,12.86-1.21,12.56-2.57-.3-1.36-12.25-2.87-13.61-2.57-1.51,.3-4.99,1.21-4.69,2.57Z"/><path class="cls-12" d="M563.79,145.4c1.36,.45,4.69-2.12,5.14-3.48s5.75-11.65,4.39-12.1-8.77,8.93-9.38,10.29c-.3,1.36-1.36,4.84-.15,5.29Z"/><path class="cls-12" d="M572.11,144.79c.91,1.36,5.29,1.36,6.5,.61s11.8-5.9,10.89-7.26c-.91-1.36-13.01,1.51-14.22,2.42-1.06,.76-4.08,2.87-3.18,4.24Z"/><path class="cls-12" d="M575.14,139.95c1.51,0,3.63-3.48,3.63-4.84s1.21-12.1-.3-12.1-5.14,10.89-5.14,12.25c.15,1.36,.3,4.69,1.82,4.69Z"/><path class="cls-12" d="M583.16,130.72c1.36-.3,2.72-4.08,2.42-5.45-.3-1.21-1.51-11.8-2.87-11.5-1.36,.3-2.42,11.5-2.12,12.71,.3,1.36,1.21,4.54,2.57,4.24Z"/><path class="cls-12" d="M582.4,136.62c1.21,.91,5.29-.45,6.2-1.51,.91-1.21,9.38-9.23,8.17-10.14-1.21-.91-11.5,5.6-12.4,6.66-.91,1.21-3.03,4.08-1.97,4.99Z"/><path class="cls-12" d="M589.36,125.28c1.21,.61,4.84-1.36,5.45-2.57s7.11-10.29,5.75-11.04c-1.21-.61-9.68,7.41-10.29,8.62-.61,1.21-2.12,4.39-.91,4.99Z"/><path class="cls-12" d="M588.6,121.04c1.06-.45,1.66-4.24,1.06-5.45s-3.33-11.65-4.39-11.19c-1.06,.45-.15,11.5,.3,12.71,.61,1.21,1.97,4.39,3.03,3.93Z"/><path class="cls-12" d="M593.29,113.78c1.21,.3,3.78-2.72,4.08-4.24,.3-1.36,3.93-11.95,2.72-12.25-1.21-.3-6.66,9.98-6.96,11.35-.3,1.51-1.06,4.99,.15,5.14Z"/><path class="cls-12" d="M591.17,109.09c1.06-.61,1.06-4.08,.3-5.14-.61-1.06-4.69-9.53-5.6-8.93s1.36,10.29,1.97,11.19c.61,1.06,2.27,3.63,3.33,2.87Z"/><path class="cls-12" d="M594.35,100.47c1.21-.15,2.87-3.63,2.72-4.99-.15-1.36,.15-11.95-1.06-11.8-1.21,.15-3.48,10.89-3.33,12.25,0,1.36,.45,4.69,1.66,4.54Z"/><path class="cls-12" d="M591.33,96.99c.76-.76-.45-4.24-1.36-4.99s-7.56-8.32-8.32-7.41c-.76,.76,4.69,9.68,5.6,10.44,.91,.76,3.33,2.87,4.08,1.97Z"/><path class="cls-12" d="M586.79,85.95c.61-.76-.3-3.33-1.06-4.08s-6.05-6.66-6.66-5.9,3.63,7.72,4.39,8.47c.76,.61,2.72,2.12,3.33,1.51Z"/><path class="cls-12" d="M591.78,87.61c.91-.3,1.51-3.93,1.21-5.14-.3-1.21-2.42-11.5-3.33-11.35-.91,.3-.45,11.04-.15,12.25,.3,1.36,1.36,4.54,2.27,4.24Z"/><path class="cls-12" d="M586.18,79.44c1.21-.45,1.82-4.08,1.36-5.29-.45-1.21-2.87-11.04-4.08-10.59-1.21,.45-.61,11.04-.15,12.25,.45,1.06,1.66,4.08,2.87,3.63Z"/></g></g><path id="darker-2" class="cls-19" d="M627.78,89.27c-2.87,5.75-51.59,15.13-91.67,15.13s-89.56-10.29-92.43-15.13v82.9h184.71V90.18c-.15-1.06-.45-1.51-.61-.91Z"/></g><g id="tempIcon"><path class="cls-6" d="M697.45,228.09v-97.69c0-5.29-4.41-9.7-9.7-9.7s-9.7,4.41-9.7,9.7v97.47c-6.39,3.53-11.03,10.36-11.03,18.3,0,11.47,9.26,20.73,20.73,20.73s20.73-9.26,20.73-20.73c0-7.94-4.41-14.77-11.03-18.08Z"/><line class="cls-1" x1="683.56" y1="141.87" x2="692.16" y2="141.87"/><line class="cls-1" x1="683.56" y1="168.99" x2="692.16" y2="168.99"/><line class="cls-1" x1="683.56" y1="193.69" x2="692.16" y2="193.69"/><line class="cls-1" x1="683.56" y1="216.62" x2="692.16" y2="216.62"/><line class="cls-1" x1="683.56" y1="245.73" x2="692.16" y2="245.73"/><path class="cls-18" d="M681.79,240.66c-3.09,3.31-7.5,3.97-9.7,1.98-2.21-2.21-1.32-6.62,1.76-9.7s7.5-3.97,9.7-1.76,1.54,6.39-1.76,9.48Z"/></g><g id="prodBg"><rect id="external-border" class="cls-25" x="20.84" y="51.85" width="378.83" height="282.3"/><rect id="internal-border" class="cls-27" x="25.04" y="56.05" width="370.57" height="273.93"/><rect id="bg" class="cls-26" x="28.71" y="59.72" width="363.11" height="266.45"/><rect id="bgPattern" class="cls-17" x="28.71" y="59.72" width="363.11" height="266.45"/></g><g id="tagPlant"><path class="cls-12" d="M183.76,253.92c0,29-23.58,52.58-52.58,52.58s-52.58-23.58-52.58-52.58,23.58-52.58,52.58-52.58c29.09,0,52.58,23.49,52.58,52.58Z"/><path class="cls-21" d="M179.95,253.92c0,26.88-21.8,48.68-48.68,48.68s-48.68-21.8-48.68-48.68,21.71-48.76,48.59-48.76,48.76,21.8,48.76,48.76Z"/><path class="cls-15" d="M175.2,253.92c0,24.26-19.68,44.02-44.02,44.02s-43.93-19.76-43.93-44.02,19.68-44.02,44.02-44.02,43.93,19.68,43.93,44.02Z"/><path id="leaf" class="cls-8" d="M131.18,234.25c-11.11,1.53-19.68,8.74-19.68,19.68,0,2.71,.51,5.26,1.53,7.55-2.04,1.44-5,3.14-6.53,3.73-2.63,.93-7.72,.25-7.89,.68-.17,.42,1.53,5.09,2.04,5.26,.51,.25,5.26,.17,7.89-.68,1.87-.68,5.34-2.8,7.29-4.33,3.56,4.49,9.16,7.46,15.44,7.46,10.86,0,19.59-6.87,19.59-17.72,0-4.24,1.02-9.5,2.54-12.81,1.7-3.73,10.35-6.02,10.35-6.02-.76-2.8-28.07-3.48-32.57-2.8Z"/><path id="darker-3" class="cls-13" d="M179.95,253.92c0-1.02,0-1.95-.08-2.88-9.84,2.71-26.71,6.19-48.59,6.19s-38.25-4.33-48.51-7.89c-.17,1.53-.25,3.05-.25,4.58,0,26.88,21.8,48.68,48.68,48.68s48.76-21.8,48.76-48.68Z"/></g><g id="plant"><rect class="cls-12" x="265.77" y="201.5" width="105.16" height="105.16"/><rect class="cls-16" x="268.81" y="204.54" width="99.09" height="99.09"/><rect class="cls-23" x="273.62" y="209.35" width="89.48" height="89.48"/><path id="leaf-2" class="cls-5" d="M318.31,231.44c-12.82,1.77-22.6,10.12-22.6,22.6,0,3.04,.59,5.99,1.69,8.69-2.36,1.6-5.82,3.71-7.51,4.3-2.95,1.01-8.85,.34-9.11,.84s1.69,5.82,2.36,6.07,6.07,.25,9.11-.84c2.19-.76,6.16-3.29,8.43-4.98,4.13,5.23,10.54,8.52,17.71,8.52,12.48,0,22.43-7.84,22.43-20.32,0-4.81,1.18-10.88,2.95-14.67,1.94-4.22,11.98-6.92,11.98-6.92-1.01-3.29-32.38-3.96-37.44-3.29Z"/><path id="darker-4" class="cls-13" d="M367.9,303.63h-99.09v-54.31s31.2,4.81,49.5,4.81,49.59-4.81,49.59-4.81v54.31Z"/></g><g id="plant-2"><rect class="cls-12" x="104.71" y="78.44" width="105.16" height="105.16"/><rect class="cls-28" x="107.75" y="81.48" width="99.09" height="99.09"/><rect class="cls-23" x="112.55" y="86.29" width="89.48" height="89.48"/><path id="leaf-3" class="cls-5" d="M157.25,108.38c-12.82,1.77-22.6,10.12-22.6,22.6,0,3.04,.59,5.99,1.69,8.69-2.36,1.6-5.82,3.71-7.51,4.3-2.95,1.01-8.85,.34-9.11,.84s1.69,5.82,2.36,6.07,6.07,.25,9.11-.84c2.19-.76,6.16-3.29,8.43-4.98,4.13,5.23,10.54,8.52,17.71,8.52,12.48,0,22.43-7.84,22.43-20.32,0-4.81,1.18-10.88,2.95-14.67,1.94-4.22,11.98-6.92,11.98-6.92-1.01-3.29-32.38-3.96-37.44-3.29Z"/><path id="darker-5" class="cls-13" d="M206.84,180.57H107.75v-54.31s31.2,4.81,49.5,4.81,49.59-4.81,49.59-4.81v54.31Z"/></g><g><path d="M253.47,157.66c-5.03,0-9.42-1.04-13.14-3.12-3.73-2.08-6.56-5.08-8.5-8.99-1.94-3.91-2.91-8.34-2.91-13.29s.97-9.35,2.91-13.27,4.78-6.93,8.53-9.01c3.75-2.08,8.12-3.12,13.11-3.12s9.33,1.04,13.08,3.12c3.75,2.08,6.59,5.08,8.53,9.01,1.94,3.92,2.91,8.35,2.91,13.27s-.97,9.38-2.91,13.29c-1.94,3.91-4.77,6.91-8.48,8.99-3.72,2.08-8.09,3.12-13.13,3.12Zm0-6.64c4.66,0,8.14-1.9,10.41-5.71,2.28-3.81,3.42-8.16,3.42-13.07s-1.14-9.29-3.43-13.07c-2.29-3.79-5.75-5.68-10.4-5.68s-8.14,1.89-10.43,5.68c-2.29,3.78-3.43,8.14-3.43,13.07s1.14,9.27,3.42,13.07c2.28,3.81,5.76,5.71,10.45,5.71Z"/><path d="M287.05,156.45v-48.39h18.11c3.71,0,6.53,.46,8.47,1.39,1.94,.93,3.47,2.33,4.59,4.22,1.12,1.89,1.68,4.02,1.68,6.39,0,2.83-.82,5.51-2.45,8.03s-3.95,4.44-6.93,5.77l15.84,22.59h-12.27l-12.03-19.78h-5.54v19.78h-9.48Zm9.48-26.42h2.32c4.16,0,7.03-.9,8.61-2.71s2.38-3.86,2.38-6.15c0-1.98-.65-3.56-1.93-4.72-1.29-1.17-3.91-1.75-7.87-1.75h-3.51v15.33Z"/></g><path d="M37.49,277.6v-7.26c4.79,1.85,8.77,2.78,11.93,2.78,2.79,0,5.08-.74,6.87-2.21,1.79-1.47,2.68-3.45,2.68-5.93,0-1.81-.47-3.45-1.41-4.92-.94-1.47-2.3-2.62-4.1-3.43s-4.64-1.23-8.52-1.23h-2.98v-5.79l2.52-.03c3.71,0,6.36-.33,7.98-1,1.61-.67,2.88-1.69,3.79-3.09,.92-1.39,1.37-2.9,1.37-4.51,0-1.94-.66-3.52-1.98-4.74-1.32-1.22-3.37-1.83-6.16-1.83-3.53,0-7.31,.92-11.34,2.75v-6.6c2.03-.7,3.63-1.16,4.82-1.39s2.58-.42,4.17-.57c1.59-.15,3.09-.23,4.51-.23,5.08,0,9,1.04,11.75,3.13,2.76,2.09,4.14,4.9,4.14,8.42,0,2.85-.89,5.28-2.66,7.3-1.78,2.01-4.45,3.61-8.03,4.78,3.12,.72,5.5,1.72,7.14,2.99,1.65,1.27,2.9,2.78,3.78,4.51,.87,1.73,1.31,3.59,1.31,5.57,0,3.66-1.44,6.93-4.33,9.79-2.89,2.87-7.56,4.3-14.01,4.3-1.7,0-3.5-.05-5.41-.15-1.91-.1-4.52-.57-7.83-1.42Z"/><path d="M243.02,277.96v-12.91h-22.59v-7.26l22.2-28.22h8.86v28.22h5.66v7.26h-5.66v12.91h-8.47Zm-14.86-20.17h15.06v-18.98l-15.06,18.98Z"/><path d="M194.86,247.38v-9.68h9.68v9.68h-9.68Zm0,26.22v-9.68h9.68v9.68h-9.68Z"/></svg>