<?xml version="1.0" encoding="UTF-8"?><svg id="Layer" xmlns="http://www.w3.org/2000/svg" xmlns:xlink="http://www.w3.org/1999/xlink" viewBox="0 0 721 379.91"><defs><style>.cls-1{fill:url(#linear-gradient-2);}.cls-2{fill:#20201e;}.cls-3,.cls-4{fill:#020303;}.cls-5{fill:#e52922;}.cls-6{fill:url(#Nowy_wzorek_5);opacity:.1;}.cls-6,.cls-4{isolation:isolate;}.cls-7{fill:#fff;opacity:0;stroke:#1d1d1b;stroke-miterlimit:10;}.cls-8{fill:url(#linear-gradient-5);}.cls-9{fill:none;}.cls-10{fill:#ffd110;}.cls-11{fill:url(#linear-gradient-3);}.cls-4{opacity:.05;}.cls-12{fill:url(#linear-gradient);}.cls-13{fill:url(#linear-gradient-4);}</style><linearGradient id="linear-gradient" x1="483.64" y1="564.54" x2="237.36" y2="318.28" gradientTransform="translate(0 -251.46)" gradientUnits="userSpaceOnUse"><stop offset="0" stop-color="#9f9d9c"/><stop offset=".54" stop-color="#030304"/><stop offset="1" stop-color="#9f9d9c"/></linearGradient><linearGradient id="linear-gradient-2" x1="360.58" y1="524.3" x2="360.58" y2="358.54" gradientTransform="translate(0 -251.46)" gradientUnits="userSpaceOnUse"><stop offset="0" stop-color="#482d1d"/><stop offset="1" stop-color="#b18046"/></linearGradient><linearGradient id="linear-gradient-3" x1="360.53" y1="520.12" x2="360.53" y2="362.57" gradientTransform="translate(0 -251.46)" gradientUnits="userSpaceOnUse"><stop offset="0" stop-color="#946137"/><stop offset="1" stop-color="#825329"/></linearGradient><pattern id="Nowy_wzorek_5" x="0" y="0" width="19.7" height="21.7" patternTransform="translate(4 16409.79)" patternUnits="userSpaceOnUse" viewBox="0 0 19.7 21.7"><g><rect class="cls-9" width="19.7" height="21.7"/><g><rect class="cls-9" width="19.7" height="21.7"/><g><rect class="cls-9" width="19.7" height="21.7"/><g><rect class="cls-9" width="19.7" height="21.7"/><g><rect class="cls-9" width="19.7" height="21.7"/><g><rect class="cls-9" width="19.7" height="21.7"/><g><rect class="cls-9" width="19.7" height="21.7"/><g><rect class="cls-9" width="19.7" height="21.7"/><g><rect class="cls-9" width="19.7" height="21.7"/><path class="cls-2" d="M16.6,8.7c2.1,2.1,2.1,5.6,0,7.7l-1.2,1.2c-2.1,2.1-5.6,2.1-7.8,0L3.1,13c-2.1-2.1-2.1-5.6,0-7.7l1.2-1.2c2.1-2.1,5.6-2.1,7.7,0l4.6,4.6Z"/></g></g></g></g></g></g></g></g></g></pattern><linearGradient id="linear-gradient-4" x1="-585.33" y1="1265.42" x2="-507.89" y2="1187.99" gradientTransform="translate(-190.1 -1063.96) rotate(-45)" gradientUnits="userSpaceOnUse"><stop offset="0" stop-color="#951917"/><stop offset=".21" stop-color="#b9231c"/><stop offset=".47" stop-color="#e52922"/><stop offset=".55" stop-color="#e62d28"/><stop offset=".84" stop-color="#e7393a"/><stop offset="1" stop-color="#e83e41"/></linearGradient><linearGradient id="linear-gradient-5" x1="-486.33" y1="1364.42" x2="-408.9" y2="1286.98" xlink:href="#linear-gradient-4"/></defs><rect class="cls-7" x=".5" y=".5" width="720" height="378.91"/><g><g id="prodBg"><rect id="external-border" class="cls-12" x="201.72" y="102.47" width="317.57" height="174.96"/><rect id="internal-border" class="cls-1" x="206.33" y="107.08" width="308.51" height="165.76"/><rect id="bg" class="cls-11" x="210.38" y="111.11" width="300.31" height="157.55"/><rect id="bgPattern" class="cls-6" x="210.38" y="111.11" width="300.31" height="157.55"/></g><g id="heat"><rect class="cls-3" x="232.69" y="131.84" width="116.22" height="116.22"/><rect class="cls-13" x="236.05" y="135.2" width="109.51" height="109.51"/><rect class="cls-5" x="241.36" y="140.51" width="98.89" height="98.89"/><path id="darker" class="cls-4" d="M345.56,244.71h-109.51v-60.02s34.48,5.31,54.71,5.31,54.8-5.31,54.8-5.31v60.02h0Z"/><g><polygon class="cls-10" points="278.46 195.03 265.97 184.22 265.97 184.22 265.97 151.23 253.48 184.88 266.06 195.5 266.06 195.5 265.97 228.68 278.46 195.03"/><polygon class="cls-10" points="303.34 195.03 290.85 184.22 290.76 184.22 290.85 151.23 278.36 184.88 290.85 195.5 290.85 195.5 290.85 228.68 303.34 195.03"/><polygon class="cls-10" points="328.88 195.03 316.39 184.22 316.3 184.22 316.39 151.23 303.9 184.88 316.39 195.5 316.39 195.5 316.39 228.68 328.88 195.03"/></g></g><g id="heat-2"><rect class="cls-3" x="372.69" y="131.84" width="116.22" height="116.22"/><rect class="cls-8" x="376.05" y="135.2" width="109.51" height="109.51"/><rect class="cls-5" x="381.36" y="140.51" width="98.89" height="98.89"/><path id="darker-2" class="cls-4" d="M485.56,244.71h-109.51v-60.02s34.48,5.31,54.71,5.31,54.8-5.31,54.8-5.31v60.02h0Z"/><g><polygon class="cls-10" points="418.46 195.03 405.97 184.22 405.97 184.22 405.97 151.23 393.48 184.88 406.06 195.5 406.06 195.5 405.97 228.68 418.46 195.03"/><polygon class="cls-10" points="443.34 195.03 430.85 184.22 430.76 184.22 430.85 151.23 418.36 184.88 430.85 195.5 430.85 195.5 430.85 228.68 443.34 195.03"/><polygon class="cls-10" points="468.88 195.03 456.39 184.22 456.3 184.22 456.39 151.23 443.9 184.88 456.39 195.5 456.39 195.5 456.39 228.68 468.88 195.03"/></g></g></g></svg>