<?xml version="1.0" encoding="UTF-8"?><svg id="Layer" xmlns="http://www.w3.org/2000/svg" xmlns:xlink="http://www.w3.org/1999/xlink" viewBox="0 0 721 379.91"><defs><style>.cls-1{stroke:#ffd80c;stroke-width:4.65px;}.cls-1,.cls-2,.cls-3,.cls-4{stroke-miterlimit:10;}.cls-1,.cls-5{fill:none;}.cls-6{fill:url(#linear-gradient-2);}.cls-7{fill:url(#linear-gradient-6);}.cls-8{fill:#1f1f1e;}.cls-2{stroke-width:.93px;}.cls-2,.cls-3{fill:#fff;}.cls-2,.cls-4{stroke:#030304;}.cls-3{opacity:0;stroke:#1d1d1b;}.cls-9{fill:url(#Nowy_wzorek_6);opacity:.1;}.cls-9,.cls-10,.cls-11{isolation:isolate;}.cls-10{opacity:.15;}.cls-10,.cls-11,.cls-12{fill:#030304;}.cls-13{fill:url(#linear-gradient-5);}.cls-11{opacity:.64;}.cls-14{fill:url(#linear-gradient-7);}.cls-15{fill:url(#linear-gradient-9);}.cls-16{fill:#7f358b;}.cls-17{fill:#515150;}.cls-18{fill:url(#linear-gradient-3);}.cls-19{fill:url(#linear-gradient);}.cls-4{fill:#010202;stroke-width:1.91px;}.cls-20{fill:url(#linear-gradient-4);}.cls-21{fill:#010101;}.cls-22{fill:url(#linear-gradient-8);}</style><linearGradient id="linear-gradient" x1="535.42" y1="617.51" x2="185.58" y2="267.67" gradientTransform="translate(0 -252.64)" gradientUnits="userSpaceOnUse"><stop offset="0" stop-color="#9e9d9c"/><stop offset=".54" stop-color="#010202"/><stop offset="1" stop-color="#9e9d9c"/></linearGradient><linearGradient id="linear-gradient-2" x1="360.58" y1="593.46" x2="360.58" y2="291.74" gradientTransform="translate(0 -252.64)" gradientUnits="userSpaceOnUse"><stop offset="0" stop-color="#462c1b"/><stop offset="1" stop-color="#b18048"/></linearGradient><linearGradient id="linear-gradient-3" x1="360.51" y1="589.27" x2="360.51" y2="295.79" gradientTransform="translate(0 -252.64)" gradientUnits="userSpaceOnUse"><stop offset="0" stop-color="#946137"/><stop offset="1" stop-color="#805127"/></linearGradient><pattern id="Nowy_wzorek_6" x="0" y="0" width="19.7" height="21.7" patternTransform="translate(43.9 16649.47)" patternUnits="userSpaceOnUse" viewBox="0 0 19.7 21.7"><g><rect class="cls-5" width="19.7" height="21.7"/><g><rect class="cls-5" width="19.7" height="21.7"/><g><rect class="cls-5" width="19.7" height="21.7"/><g><rect class="cls-5" width="19.7" height="21.7"/><g><rect class="cls-5" width="19.7" height="21.7"/><path class="cls-8" d="M16.6,8.7c2.1,2.1,2.1,5.6,0,7.7l-1.2,1.2c-2.1,2.1-5.6,2.1-7.8,0L3.1,13c-2.1-2.1-2.1-5.6,0-7.7l1.2-1.2c2.1-2.1,5.6-2.1,7.7,0l4.6,4.6Z"/></g></g></g></g></g></pattern><linearGradient id="linear-gradient-4" x1="-460.55" y1="1295.06" x2="-383.18" y2="1217.69" gradientTransform="translate(-191.13 -1064.43) rotate(-45)" gradientUnits="userSpaceOnUse"><stop offset="0" stop-color="#1d1427"/><stop offset=".24" stop-color="#372348"/><stop offset=".49" stop-color="#573b6c"/><stop offset=".71" stop-color="#72508c"/><stop offset=".89" stop-color="#835ca0"/><stop offset="1" stop-color="#8963a7"/></linearGradient><linearGradient id="linear-gradient-5" x1="-604.79" y1="1341.94" x2="-527.39" y2="1264.57" gradientTransform="translate(-191.13 -1064.43) rotate(-45)" gradientUnits="userSpaceOnUse"><stop offset="0" stop-color="#030304"/><stop offset="1" stop-color="#7a7879"/></linearGradient><linearGradient id="linear-gradient-6" x1="466.87" y1="565.77" x2="466.87" y2="456.3" gradientTransform="translate(0 -253.65)" gradientUnits="userSpaceOnUse"><stop offset=".16" stop-color="#823a13"/><stop offset=".18" stop-color="#985c1a"/><stop offset=".22" stop-color="#ae7d22"/><stop offset=".26" stop-color="#c39d26"/><stop offset=".3" stop-color="#d6b92e"/><stop offset=".35" stop-color="#e4cf36"/><stop offset=".41" stop-color="#efe036"/><stop offset=".48" stop-color="#f6e947"/><stop offset=".58" stop-color="#f8ea4e"/><stop offset=".86" stop-color="#f6ea4d"/><stop offset="1" stop-color="#fcf4f9"/></linearGradient><linearGradient id="linear-gradient-7" x1="466.88" y1="450.47" x2="466.88" y2="617.8" gradientTransform="translate(0 -253.65)" gradientUnits="userSpaceOnUse"><stop offset=".26" stop-color="#f6ea4d"/><stop offset=".86" stop-color="#803813"/></linearGradient><linearGradient id="linear-gradient-8" x1="466.93" y1="564.24" x2="466.93" y2="457.91" gradientTransform="translate(0 -253.65)" gradientUnits="userSpaceOnUse"><stop offset=".16" stop-color="#803813"/><stop offset=".17" stop-color="#8c471e"/><stop offset=".18" stop-color="#a26b3c"/><stop offset=".2" stop-color="#b78954"/><stop offset=".22" stop-color="#c7a468"/><stop offset=".24" stop-color="#d7bb7a"/><stop offset=".26" stop-color="#e2cc88"/><stop offset=".3" stop-color="#ead891"/><stop offset=".34" stop-color="#eede97"/><stop offset=".46" stop-color="#efe097"/><stop offset=".7" stop-color="#803813"/><stop offset=".73" stop-color="#e6d234"/><stop offset=".74" stop-color="#ebd948"/><stop offset=".75" stop-color="#eede6d"/><stop offset=".77" stop-color="#f0e28a"/><stop offset=".79" stop-color="#f8ebaa"/><stop offset=".8" stop-color="#f8edbf"/><stop offset=".83" stop-color="#faf0cf"/><stop offset=".85" stop-color="#fcf2da"/><stop offset=".89" stop-color="#fdf4e1"/><stop offset=".99" stop-color="#fdf5e3"/></linearGradient><linearGradient id="linear-gradient-9" x1="466.85" y1="473.52" x2="466.85" y2="637.62" gradientTransform="translate(0 -253.65)" gradientUnits="userSpaceOnUse"><stop offset=".26" stop-color="#f6ea4d"/><stop offset=".77" stop-color="#803813"/></linearGradient></defs><rect class="cls-3" x=".5" y=".5" width="720" height="378.91"/><g><g id="prodBg"><rect id="external-border" class="cls-19" x="166.12" y="34.48" width="388.75" height="310.95"/><rect id="internal-border" class="cls-6" x="170.75" y="39.11" width="379.65" height="301.72"/><rect id="bg" class="cls-18" x="174.79" y="43.15" width="371.44" height="293.48"/><rect id="bgPattern" class="cls-9" x="174.79" y="43.15" width="371.44" height="293.48"/></g><path class="cls-21" d="M281.8,129.05v-13.62h32.7v13.62h-32.7Z"/><g id="energy"><rect class="cls-12" x="340.91" y="64.21" width="116.1" height="116.1"/><rect class="cls-20" x="344.25" y="67.55" width="109.42" height="109.42"/><polygon class="cls-16" points="448.37 72.86 448.37 171.67 349.58 171.67 349.58 72.86 448.37 72.86"/><polygon class="cls-2" points="386.93 110.95 419.49 90.75 402.08 115.98 411.3 130.98 379.29 151.19 395.39 126.03 386.93 110.95"/><path id="darker" class="cls-10" d="M453.67,176.97h-109.42v-59.96s34.45,5.3,54.66,5.3,54.76-5.3,54.76-5.3v59.96Z"/></g><path class="cls-21" d="M218.62,286.04v-24.3h-24.3v-9.98h24.3v-24.3h9.98v24.3h24.3v9.98h-24.3v24.3h-9.98Z"/><g id="titan"><rect class="cls-12" x="272.08" y="199.34" width="116.1" height="116.1"/><rect class="cls-13" x="275.42" y="202.68" width="109.42" height="109.42"/><rect class="cls-17" x="280.72" y="207.98" width="98.79" height="98.79"/><path id="darker-2" class="cls-11" d="M384.84,312.1h-109.42v-59.96s34.45,5.3,54.66,5.3,54.76-5.3,54.76-5.3v59.96Z"/><polygon class="cls-1" points="330.73 225.12 341.06 246.81 364.91 249.9 347.39 266.39 351.87 289.94 330.73 278.4 309.7 289.94 314.17 266.39 296.65 249.9 320.5 246.81 330.73 225.12"/></g><g id="mln"><polygon id="obram_czarne" class="cls-4" points="426.36 199.34 408.76 216.93 408.76 297.85 426.36 315.44 507.38 315.44 524.89 297.85 524.89 216.93 507.38 199.34 426.36 199.34"/><polygon id="obram_zolte" class="cls-7" points="428.64 202.66 412.18 219.22 412.18 295.57 428.64 312.13 505.02 312.13 521.55 295.57 521.55 219.22 505.02 202.66 428.64 202.66"/><polygon id="tlo_wew" class="cls-14" points="429.77 204.29 413.71 220.35 413.71 294.44 429.77 310.49 503.96 310.49 520.04 294.44 520.04 220.35 503.96 204.29 429.77 204.29"/><path id="obram_skosne" class="cls-22" d="M512.33,277.87c-2.94,0-5.33-2.39-5.33-5.33v-30.33c0-2.94,2.39-5.33,5.33-5.33h7.61v-16.54l-15.98-16.08h-16.64v7.61c0,2.94-2.39,5.33-5.33,5.33h-30.33c-2.94,0-5.33-2.39-5.33-5.33v-7.61h-16.54l-16.08,16.08v16.64h7.61c2.94,0,5.33,2.39,5.33,5.33v30.33c0,2.94-2.39,5.33-5.33,5.33h-7.61v16.54l16.08,16.08h16.64v-7.61c0-2.94,2.39-5.33,5.33-5.33h30.33c2.94,0,5.33,2.39,5.33,5.33v7.61h16.64l16.08-16.08v-16.64h-7.82Z"/><path id="tlo_zew" class="cls-15" d="M512.05,279.68c-3.62,0-6.56-3.62-6.56-7.24v-30.16c0-3.62,2.94-7.24,6.56-7.24h6.18v-13.5l-15.61-15.51h-13.42v6.18c0,3.62-3.62,6.56-7.24,6.56h-30.16c-3.62,0-7.24-2.94-7.24-6.56v-6.18h-13.6l-15.51,15.51v13.5h6.18c3.62,0,6.56,3.62,6.56,7.24v30.16c0,3.62-2.94,7.24-6.56,7.24h-6.18v13.5l15.51,15.51h13.5v-6.18c0-3.62,3.62-6.56,7.24-6.56h30.06c3.62,0,7.24,2.94,7.24,6.56v6.18h13.5l15.51-15.51v-13.5h-5.96Z"/></g><path class="cls-21" d="M463.45,281.97v-43.33h-6.56l-.2-4.9,16.56-1.43v49.66h-9.8Z"/></g></svg>