<?xml version="1.0" encoding="UTF-8"?><svg id="Layer" xmlns="http://www.w3.org/2000/svg" xmlns:xlink="http://www.w3.org/1999/xlink" viewBox="0 0 721 379.91"><defs><style>.cls-1{fill:url(#linear-gradient-2);}.cls-2{fill:none;stroke:#030304;stroke-width:1.62px;}.cls-2,.cls-3,.cls-4{stroke-miterlimit:10;}.cls-3{fill:#fff;opacity:0;stroke:#1d1d1b;}.cls-5{fill:url(#radial-gradient);}.cls-6{isolation:isolate;opacity:.29;}.cls-6,.cls-7{fill:#010202;}.cls-8{fill:url(#linear-gradient-5);}.cls-9{fill:#030304;}.cls-10{fill:url(#linear-gradient-3);}.cls-4{fill:#020303;stroke:#030404;stroke-width:1.84px;}.cls-11{fill:url(#linear-gradient);}.cls-12{fill:url(#linear-gradient-4);}</style><linearGradient id="linear-gradient" x1="360.49" y1="388.72" x2="360.49" y2="166.72" gradientTransform="translate(0 -15.82)" gradientUnits="userSpaceOnUse"><stop offset="0" stop-color="#010202"/><stop offset="1" stop-color="#fff"/></linearGradient><radialGradient id="radial-gradient" cx="360.68" cy="277.72" fx="360.68" fy="277.72" r="96.9" gradientTransform="translate(0 -15.82)" gradientUnits="userSpaceOnUse"><stop offset="0" stop-color="#c9c7c7"/><stop offset="1" stop-color="#737171"/></radialGradient><linearGradient id="linear-gradient-2" x1="380.22" y1="398.63" x2="380.22" y2="292.53" gradientTransform="translate(0 -277.12)" gradientUnits="userSpaceOnUse"><stop offset=".16" stop-color="#823b14"/><stop offset=".18" stop-color="#995d1a"/><stop offset=".22" stop-color="#ae7d22"/><stop offset=".26" stop-color="#c39d25"/><stop offset=".3" stop-color="#d6b92e"/><stop offset=".35" stop-color="#e4cf36"/><stop offset=".41" stop-color="#efe036"/><stop offset=".48" stop-color="#f5e94d"/><stop offset=".58" stop-color="#f8eb53"/><stop offset=".86" stop-color="#f5ea52"/><stop offset="1" stop-color="#fcf4f9"/></linearGradient><linearGradient id="linear-gradient-3" x1="380.22" y1="286.88" x2="380.22" y2="449.09" gradientTransform="translate(0 -277.12)" gradientUnits="userSpaceOnUse"><stop offset=".26" stop-color="#f5ea52"/><stop offset=".86" stop-color="#813a14"/></linearGradient><linearGradient id="linear-gradient-4" x1="380.17" y1="397.17" x2="380.17" y2="293.99" gradientTransform="translate(0 -277.12)" gradientUnits="userSpaceOnUse"><stop offset=".16" stop-color="#813a14"/><stop offset=".17" stop-color="#8d481f"/><stop offset=".18" stop-color="#a36c3d"/><stop offset=".2" stop-color="#b78954"/><stop offset=".22" stop-color="#c7a468"/><stop offset=".24" stop-color="#d7bb7a"/><stop offset=".26" stop-color="#e2cc88"/><stop offset=".3" stop-color="#ead891"/><stop offset=".34" stop-color="#eede97"/><stop offset=".46" stop-color="#efe097"/><stop offset=".7" stop-color="#813a14"/><stop offset=".73" stop-color="#e6d234"/><stop offset=".74" stop-color="#ebda49"/><stop offset=".75" stop-color="#eede6d"/><stop offset=".77" stop-color="#f0e18a"/><stop offset=".79" stop-color="#f8ebab"/><stop offset=".8" stop-color="#f8edbf"/><stop offset=".83" stop-color="#faf0cf"/><stop offset=".85" stop-color="#fcf2da"/><stop offset=".89" stop-color="#fdf4e1"/><stop offset=".99" stop-color="#fdf5e3"/></linearGradient><linearGradient id="linear-gradient-5" x1="380.17" y1="309.22" x2="380.17" y2="468.32" gradientTransform="translate(0 -277.12)" gradientUnits="userSpaceOnUse"><stop offset=".26" stop-color="#f5ea52"/><stop offset=".77" stop-color="#813a14"/></linearGradient></defs><rect class="cls-3" x=".5" y=".5" width="720" height="378.91"/><g id="city"><polygon class="cls-7" points="459.71 319.26 459.71 204.73 360.59 147.56 261.29 204.73 261.29 319.26 360.59 376.61 459.71 319.26"/><polygon class="cls-11" points="456.55 317.4 456.55 206.4 360.59 150.9 264.44 206.4 264.44 317.4 360.59 372.9 456.55 317.4"/><polygon class="cls-5" points="450.43 313.87 450.43 210.11 360.59 158.33 270.94 210.11 270.94 313.87 360.59 365.47 450.43 313.87"/><path class="cls-6" d="M459.15,315.91v-71.46h0c-65.71,9.77-131.48,9.77-197.31,0h0v71.46l98.56,56.98,98.75-56.98Z"/><g id="city-logo"><path class="cls-2" d="M291.91,274.52c0-36.75,30.81-66.27,68.49-66.27"/><path class="cls-2" d="M428.71,274.52c0-36.75-31-66.27-69.24-66.27"/><rect class="cls-9" x="290.61" y="270.25" width="139.4" height="8.72"/><rect class="cls-9" x="297.85" y="262.09" width="4.27" height="8.17"/><rect class="cls-9" x="300.08" y="255.59" width="2.04" height="6.68"/><rect class="cls-9" x="306.39" y="261.16" width="7.61" height="9.28"/><rect class="cls-9" x="306.39" y="250.58" width="3.71" height="10.58"/><rect class="cls-9" x="316.41" y="258.74" width="3.16" height="11.32"/><rect class="cls-9" x="319.57" y="236.1" width="3.53" height="34.15"/><rect class="cls-9" x="321.43" y="232.39" width="1.86" height="3.53"/><rect class="cls-9" x="323.28" y="262.09" width="5.94" height="8.17"/><rect class="cls-9" x="328.11" y="258" width="1.11" height="4.27"/><rect class="cls-9" x="329.22" y="227.75" width="4.83" height="42.51"/><rect class="cls-9" x="334.05" y="235.36" width="2.41" height="34.71"/><rect class="cls-9" x="336.65" y="247.79" width="5.01" height="22.46"/><rect class="cls-9" x="341.66" y="252.43" width="3.16" height="18"/><rect class="cls-9" x="347.6" y="241.48" width="6.68" height="28.77"/><rect class="cls-9" x="354.47" y="252.8" width="3.34" height="17.45"/><rect class="cls-9" x="357.81" y="220.69" width="8.17" height="49.56"/><rect class="cls-9" x="369.87" y="231.64" width="4.27" height="38.61"/><rect class="cls-9" x="378.41" y="239.63" width="4.64" height="30.63"/><rect class="cls-9" x="373.77" y="260.04" width="4.64" height="10.21"/><rect class="cls-9" x="383.05" y="264.68" width="3.34" height="5.75"/><rect class="cls-9" x="390.29" y="261.53" width="2.97" height="8.54"/><rect class="cls-9" x="393.26" y="247.79" width="5.2" height="22.46"/><rect class="cls-9" x="398.27" y="237.4" width="3.71" height="32.85"/><rect class="cls-9" x="401.98" y="260.41" width="3.16" height="9.84"/><rect class="cls-9" x="406.99" y="254.47" width="4.08" height="15.78"/><rect class="cls-9" x="411.08" y="252.8" width="4.45" height="17.45"/><rect class="cls-9" x="418.32" y="262.46" width="2.04" height="7.98"/><rect class="cls-9" x="420.36" y="266.35" width="3.71" height="4.08"/></g></g><g id="mln"><polygon id="obram_czarne" class="cls-4" points="340.92 12.16 323.88 29.2 323.88 107.71 340.92 124.75 419.43 124.75 436.47 107.71 436.47 29.2 419.43 12.16 340.92 12.16"/><polygon id="obram_zolte" class="cls-1" points="343.11 15.4 327.22 31.5 327.22 105.51 343.11 121.51 417.13 121.51 433.22 105.51 433.22 31.5 417.13 15.4 343.11 15.4"/><polygon id="tlo_wew" class="cls-10" points="344.26 16.97 328.69 32.55 328.69 104.36 344.26 119.94 416.18 119.94 431.76 104.36 431.76 32.55 416.18 16.97 344.26 16.97"/><path id="obram_skosne" class="cls-12" d="M424.23,88.37c-2.82,0-5.12-2.3-5.12-5.12v-29.48c0-2.82,2.3-5.12,5.12-5.12h7.42v-16.1l-15.47-15.58h-16.1v7.32c0,2.82-2.3,5.12-5.12,5.12h-29.38c-2.82,0-5.12-2.3-5.12-5.12v-7.42h-16.2l-15.58,15.58v16.1h7.42c2.82,0,5.12,2.3,5.12,5.12v29.38c0,2.82-2.3,5.12-5.12,5.12h-7.42v16.31l15.58,15.58h16.1v-7.42c0-2.82,2.3-5.12,5.12-5.12h29.38c2.82,0,5.12,2.3,5.12,5.12v7.42h16.1l15.58-15.58v-16.1h-7.42Z"/><path id="tlo_zew" class="cls-8" d="M424.02,90.04c-3.45,0-6.38-3.45-6.38-7v-29.27c0-3.45,2.82-7,6.38-7h5.96v-12.96l-15.16-15.05h-12.96v5.96c0,3.55-3.45,6.38-7,6.38h-29.27c-3.45,0-7-2.82-7-6.38v-5.96h-13.17l-15.05,15.05v13.07h5.96c3.45,0,6.38,3.45,6.38,7v29.27c0,3.45-2.82,7-6.38,7h-5.96v13.07l15.05,15.05h13.07v-5.96c0-3.45,3.45-6.38,7-6.38h29.17c3.45,0,7,2.82,7,6.38v5.96h13.07l15.05-15.05v-13.17h-5.75Z"/></g><g><path class="cls-7" d="M350.01,75.2v-6.48h15.47v6.48h-15.47Z"/><path class="cls-7" d="M386.29,93.81V48.33h-6.9l-.21-5.12,17.35-1.46v52.06h-10.24Z"/></g><path d="M283.94,60.25v-11.71h11.71v11.71h-11.71Zm0,31.57v-11.6h11.71v11.71h-11.71v-.1Z"/></svg>