<?xml version="1.0" encoding="UTF-8"?><svg id="Layer" xmlns="http://www.w3.org/2000/svg" xmlns:xlink="http://www.w3.org/1999/xlink" viewBox="0 0 721 379.91"><defs><style>.cls-1{fill:url(#linear-gradient-2);}.cls-2{fill:#1f1f1e;}.cls-3{opacity:0;stroke:#1d1d1b;}.cls-3,.cls-4{fill:#fff;stroke-miterlimit:10;}.cls-5{fill:url(#Nowy_wzorek_3);opacity:.1;}.cls-5,.cls-6{isolation:isolate;}.cls-6{opacity:.15;}.cls-6,.cls-7{fill:#030304;}.cls-4{stroke:#030304;stroke-width:.93px;}.cls-8{fill:url(#linear-gradient-5);}.cls-9{fill:none;}.cls-10{fill:#7f358b;}.cls-11{fill:url(#linear-gradient-3);}.cls-12{fill:url(#linear-gradient);}.cls-13{fill:url(#linear-gradient-4);}</style><linearGradient id="linear-gradient" x1="481.85" y1="563.94" x2="239.15" y2="321.24" gradientTransform="translate(0 -252.64)" gradientUnits="userSpaceOnUse"><stop offset="0" stop-color="#9e9d9c"/><stop offset=".54" stop-color="#010202"/><stop offset="1" stop-color="#9e9d9c"/></linearGradient><linearGradient id="linear-gradient-2" x1="360.58" y1="525.85" x2="360.58" y2="359.36" gradientTransform="translate(0 -252.64)" gradientUnits="userSpaceOnUse"><stop offset="0" stop-color="#462c1b"/><stop offset="1" stop-color="#b18048"/></linearGradient><linearGradient id="linear-gradient-3" x1="360.5" y1="521.63" x2="360.5" y2="363.42" gradientTransform="translate(0 -252.64)" gradientUnits="userSpaceOnUse"><stop offset="0" stop-color="#946137"/><stop offset="1" stop-color="#805127"/></linearGradient><pattern id="Nowy_wzorek_3" x="0" y="0" width="19.7" height="21.7" patternTransform="translate(43.9 16649.47)" patternUnits="userSpaceOnUse" viewBox="0 0 19.7 21.7"><g><rect class="cls-9" width="19.7" height="21.7"/><g><rect class="cls-9" width="19.7" height="21.7"/><g><rect class="cls-9" width="19.7" height="21.7"/><g><rect class="cls-9" width="19.7" height="21.7"/><g><rect class="cls-9" width="19.7" height="21.7"/><path class="cls-2" d="M16.6,8.7c2.1,2.1,2.1,5.6,0,7.7l-1.2,1.2c-2.1,2.1-5.6,2.1-7.8,0L3.1,13c-2.1-2.1-2.1-5.6,0-7.7l1.2-1.2c2.1-2.1,5.6-2.1,7.7,0l4.6,4.6Z"/></g></g></g></g></g></pattern><linearGradient id="linear-gradient-4" x1="-488.9" y1="1362.76" x2="-411.22" y2="1285.06" gradientTransform="translate(-191.13 -1064.43) rotate(-45)" gradientUnits="userSpaceOnUse"><stop offset="0" stop-color="#1d1427"/><stop offset=".24" stop-color="#372348"/><stop offset=".49" stop-color="#573b6c"/><stop offset=".71" stop-color="#72508c"/><stop offset=".89" stop-color="#835ca0"/><stop offset="1" stop-color="#8963a7"/></linearGradient><linearGradient id="linear-gradient-5" x1="-581.67" y1="1269.99" x2="-503.99" y2="1192.29" xlink:href="#linear-gradient-4"/></defs><rect class="cls-3" x=".5" y=".5" width="720" height="378.91"/><g><g id="prodBg"><rect id="external-border" class="cls-12" x="205.67" y="102.08" width="309.67" height="175.75"/><rect id="internal-border" class="cls-1" x="210.31" y="106.72" width="300.53" height="166.49"/><rect id="bg" class="cls-11" x="214.37" y="110.78" width="292.26" height="158.21"/><rect id="bgPattern" class="cls-5" x="214.37" y="110.78" width="292.26" height="158.21"/></g><g id="energy"><rect class="cls-7" x="368.5" y="131.67" width="116.56" height="116.56"/><rect class="cls-13" x="371.85" y="135.03" width="109.85" height="109.85"/><polygon class="cls-10" points="476.38 140.35 476.38 239.55 377.18 239.55 377.18 140.35 476.38 140.35"/><polygon class="cls-4" points="414.67 178.6 447.39 158.32 429.91 183.65 439.17 198.71 407 218.99 423.17 193.74 414.67 178.6"/><path id="darker" class="cls-6" d="M481.7,244.88h-109.85v-60.2s34.59,5.32,54.87,5.32,54.97-5.32,54.97-5.32v60.2Z"/></g><g id="energy-2"><rect class="cls-7" x="237.3" y="131.67" width="116.56" height="116.56"/><rect class="cls-8" x="240.66" y="135.03" width="109.85" height="109.85"/><polygon class="cls-10" points="345.19 140.35 345.19 239.55 245.98 239.55 245.98 140.35 345.19 140.35"/><polygon class="cls-4" points="283.47 178.6 316.2 158.32 298.71 183.65 307.97 198.71 275.8 218.99 291.98 193.74 283.47 178.6"/><path id="darker-2" class="cls-6" d="M350.51,244.88h-109.85v-60.2s34.59,5.32,54.87,5.32,54.97-5.32,54.97-5.32v60.2Z"/></g></g></svg>