<?xml version="1.0" encoding="UTF-8"?><svg id="Layer" xmlns="http://www.w3.org/2000/svg" xmlns:xlink="http://www.w3.org/1999/xlink" viewBox="0 0 721 379.91"><defs><style>.cls-1{fill:url(#linear-gradient-2);}.cls-2{fill:#20201e;}.cls-3{fill:url(#linear-gradient-6);}.cls-4{fill:url(#Nowy_wzorek_5);isolation:isolate;opacity:.1;}.cls-5{fill:#fff;opacity:0;stroke:#1d1d1b;}.cls-5,.cls-6{stroke-miterlimit:10;}.cls-7{fill:url(#linear-gradient-5);}.cls-8{fill:none;}.cls-9{fill:url(#linear-gradient-7);}.cls-6{fill:#020303;stroke:#030404;stroke-width:1.89px;}.cls-10{fill:url(#linear-gradient-3);}.cls-11{fill:url(#linear-gradient);}.cls-12{fill:url(#linear-gradient-4);}</style><linearGradient id="linear-gradient" x1="446.73" y1="-157.69" x2="272.4" y2="16.64" gradientTransform="translate(0 127.45) scale(1 -1)" gradientUnits="userSpaceOnUse"><stop offset="0" stop-color="#9f9d9c"/><stop offset=".54" stop-color="#020303"/><stop offset="1" stop-color="#9f9d9c"/></linearGradient><linearGradient id="linear-gradient-2" x1="359.64" y1="-152.68" x2="359.64" y2="11.6" gradientTransform="translate(0 127.45) scale(1 -1)" gradientUnits="userSpaceOnUse"><stop offset="0" stop-color="#472d1c"/><stop offset="1" stop-color="#b18047"/></linearGradient><linearGradient id="linear-gradient-3" x1="359.57" y1="-148.52" x2="359.57" y2="7.59" gradientTransform="translate(0 127.45) scale(1 -1)" gradientUnits="userSpaceOnUse"><stop offset="0" stop-color="#946137"/><stop offset="1" stop-color="#815228"/></linearGradient><pattern id="Nowy_wzorek_5" x="0" y="0" width="19.7" height="21.7" patternTransform="translate(43.4 -32285.17) scale(1 -1)" patternUnits="userSpaceOnUse" viewBox="0 0 19.7 21.7"><g><rect class="cls-8" width="19.7" height="21.7"/><g><rect class="cls-8" width="19.7" height="21.7"/><g><rect class="cls-8" width="19.7" height="21.7"/><g><rect class="cls-8" width="19.7" height="21.7"/><g><rect class="cls-8" width="19.7" height="21.7"/><g><rect class="cls-8" width="19.7" height="21.7"/><path class="cls-2" d="M16.6,13c2.1-2.1,2.1-5.6,0-7.7l-1.2-1.2c-2.1-2.1-5.6-2.1-7.8,0L3.1,8.7c-2.1,2.1-2.1,5.6,0,7.7l1.2,1.2c2.1,2.1,5.6,2.1,7.7,0l4.6-4.6Z"/></g></g></g></g></g></g></pattern><linearGradient id="linear-gradient-4" x1="360.61" y1="-125.68" x2="360.61" y2="-17.27" gradientTransform="translate(0 126.44) scale(1 -1)" gradientUnits="userSpaceOnUse"><stop offset=".16" stop-color="#823b14"/><stop offset=".18" stop-color="#995d1a"/><stop offset=".22" stop-color="#ae7d22"/><stop offset=".26" stop-color="#c39d25"/><stop offset=".3" stop-color="#d6b92e"/><stop offset=".35" stop-color="#e4cf36"/><stop offset=".41" stop-color="#efe036"/><stop offset=".48" stop-color="#f5e94d"/><stop offset=".58" stop-color="#f8eb53"/><stop offset=".86" stop-color="#f5ea52"/><stop offset="1" stop-color="#fcf4f9"/></linearGradient><linearGradient id="linear-gradient-5" x1="360.61" y1="-11.49" x2="360.61" y2="-177.21" gradientTransform="translate(0 126.44) scale(1 -1)" gradientUnits="userSpaceOnUse"><stop offset=".26" stop-color="#f5ea52"/><stop offset=".86" stop-color="#813a14"/></linearGradient><linearGradient id="linear-gradient-6" x1="360.67" y1="-124.19" x2="360.67" y2="-18.86" gradientTransform="translate(0 126.44) scale(1 -1)" gradientUnits="userSpaceOnUse"><stop offset=".16" stop-color="#813a14"/><stop offset=".17" stop-color="#8d481f"/><stop offset=".18" stop-color="#a36c3d"/><stop offset=".2" stop-color="#b78954"/><stop offset=".22" stop-color="#c7a468"/><stop offset=".24" stop-color="#d7bb7a"/><stop offset=".26" stop-color="#e2cc88"/><stop offset=".3" stop-color="#ead891"/><stop offset=".34" stop-color="#eede97"/><stop offset=".46" stop-color="#efe097"/><stop offset=".7" stop-color="#813a14"/><stop offset=".73" stop-color="#e6d234"/><stop offset=".74" stop-color="#ebda49"/><stop offset=".75" stop-color="#eede6d"/><stop offset=".77" stop-color="#f0e18a"/><stop offset=".79" stop-color="#f8ebab"/><stop offset=".8" stop-color="#f8edbf"/><stop offset=".83" stop-color="#faf0cf"/><stop offset=".85" stop-color="#fcf2da"/><stop offset=".89" stop-color="#fdf4e1"/><stop offset=".99" stop-color="#fdf5e3"/></linearGradient><linearGradient id="linear-gradient-7" x1="360.59" y1="-34.32" x2="360.59" y2="-196.88" gradientTransform="translate(0 126.44) scale(1 -1)" gradientUnits="userSpaceOnUse"><stop offset=".26" stop-color="#f5ea52"/><stop offset=".77" stop-color="#813a14"/></linearGradient></defs><rect class="cls-5" x=".5" y=".5" width="720" height="378.91"/><g id="prodBg"><rect id="external-border" class="cls-11" x="271.94" y="111.27" width="175.25" height="173.41"/><rect id="internal-border" class="cls-1" x="276.52" y="115.85" width="166.24" height="164.28"/><rect id="bg" class="cls-10" x="280.53" y="119.86" width="158.08" height="156.11"/><rect id="bgPattern" class="cls-4" x="280.53" y="119.86" width="158.08" height="156.11"/></g><g id="mln"><polygon id="obram_czarne" class="cls-6" points="320.48 140.4 303.06 157.83 303.06 238.01 320.48 255.44 400.74 255.44 418.07 238.01 418.07 157.83 400.74 140.4 320.48 140.4"/><polygon id="obram_zolte" class="cls-12" points="322.75 143.71 306.44 160.09 306.44 235.74 322.75 252.12 398.4 252.12 414.78 235.74 414.78 160.09 398.4 143.71 322.75 143.71"/><polygon id="tlo_wew" class="cls-7" points="323.87 145.3 307.96 161.24 307.96 234.62 323.87 250.53 397.36 250.53 413.26 234.62 413.26 161.24 397.36 145.3 323.87 145.3"/><path id="obram_skosne" class="cls-3" d="M405.65,218.22c-2.91,0-5.28-2.36-5.28-5.28v-30.05c0-2.91,2.36-5.28,5.28-5.28h7.54v-16.38l-15.83-15.93h-16.48v7.54c0,2.91-2.36,5.28-5.28,5.28h-30.05c-2.91,0-5.28-2.36-5.28-5.28v-7.54h-16.38l-15.93,15.93v16.48h7.54c2.91,0,5.28,2.36,5.28,5.28v30.05c0,2.91-2.36,5.28-5.28,5.28h-7.54v16.38l15.93,15.93h16.48v-7.54c0-2.91,2.36-5.28,5.28-5.28h30.05c2.91,0,5.28,2.36,5.28,5.28v7.54h16.48l15.93-15.93v-16.48h-7.74Z"/><path id="tlo_zew" class="cls-9" d="M405.37,220.01c-3.58,0-6.5-3.58-6.5-7.17v-29.87c0-3.58,2.91-7.17,6.5-7.17h6.12v-13.37l-15.46-15.36h-13.29v6.12c0,3.58-3.58,6.5-7.17,6.5h-29.87c-3.58,0-7.17-2.91-7.17-6.5v-6.12h-13.47l-15.36,15.36v13.37h6.12c3.58,0,6.5,3.58,6.5,7.17v29.87c0,3.58-2.91,7.17-6.5,7.17h-6.12v13.37l15.36,15.36h13.37v-6.12c0-3.58,3.58-6.5,7.17-6.5h29.77c3.58,0,7.17,2.91,7.17,6.5v6.12h13.37l15.36-15.36v-13.37h-5.9Z"/></g><path d="M345.47,222.59v-7.59c5.01,1.94,9.17,2.91,12.48,2.91,2.92,0,5.31-.77,7.18-2.31,1.87-1.54,2.8-3.61,2.8-6.2,0-1.89-.49-3.61-1.47-5.14-.98-1.54-2.41-2.74-4.29-3.59-1.88-.85-4.85-1.28-8.9-1.28h-3.11v-6.05l2.63-.03c3.87,0,6.65-.35,8.34-1.04,1.69-.69,3.01-1.77,3.96-3.23,.96-1.46,1.44-3.03,1.44-4.72,0-2.03-.69-3.68-2.07-4.96-1.38-1.28-3.53-1.91-6.44-1.91-3.69,0-7.65,.96-11.86,2.87v-6.9c2.12-.73,3.8-1.21,5.04-1.45,1.24-.24,2.69-.44,4.36-.6,1.66-.16,3.24-.24,4.72-.24,5.31,0,9.4,1.09,12.29,3.28,2.88,2.18,4.32,5.12,4.32,8.81,0,2.98-.93,5.52-2.79,7.63-1.86,2.11-4.65,3.77-8.39,5,3.26,.75,5.75,1.79,7.47,3.13s3.04,2.91,3.95,4.72c.91,1.81,1.37,3.75,1.37,5.83,0,3.83-1.51,7.24-4.53,10.24-3.02,3-7.9,4.5-14.65,4.5-1.78,0-3.66-.05-5.66-.15-1.99-.1-4.72-.6-8.19-1.49Z"/></svg>