<?xml version="1.0" encoding="UTF-8"?><svg id="Layer" xmlns="http://www.w3.org/2000/svg" xmlns:xlink="http://www.w3.org/1999/xlink" viewBox="0 0 721 379.91"><defs><style>.cls-1{fill:url(#linear-gradient);opacity:.4;}.cls-1,.cls-2,.cls-3,.cls-4,.cls-5,.cls-6{isolation:isolate;}.cls-7{fill:url(#linear-gradient-2);}.cls-8,.cls-2{fill:#030404;}.cls-9,.cls-4{fill:#020303;}.cls-10{fill:#332116;}.cls-2{opacity:.05;}.cls-11{fill:url(#linear-gradient-6);}.cls-12{fill:#946137;}.cls-3{fill:url(#linear-gradient-8);}.cls-3,.cls-5,.cls-6{opacity:.5;}.cls-13{fill:url(#linear-gradient-9);}.cls-13,.cls-14,.cls-15,.cls-16,.cls-17,.cls-18{stroke-miterlimit:10;}.cls-13,.cls-15,.cls-17{stroke:#020303;}.cls-13,.cls-15,.cls-17,.cls-18{stroke-width:2.81px;}.cls-14{fill:#fff;opacity:0;stroke:#1d1d1b;}.cls-4{opacity:.15;}.cls-15{fill:url(#linear-gradient-7);}.cls-5{fill:url(#linear-gradient-5);}.cls-16{fill:#0d582a;stroke:#1e4523;stroke-width:3.68px;}.cls-6{fill:url(#linear-gradient-10);}.cls-17{fill:url(#linear-gradient-4);}.cls-19{fill:url(#linear-gradient-3);}.cls-20{fill:#4bad39;}.cls-18{fill:none;stroke:#fff;}</style><linearGradient id="linear-gradient" x1="559.34" y1="-221.4" x2="559.34" y2="-82.89" gradientTransform="translate(0 143.45) scale(1 -1)" gradientUnits="userSpaceOnUse"><stop offset="0" stop-color="#ffdc15"/><stop offset="0" stop-color="#ffdb16"/><stop offset=".05" stop-color="#f9bb24"/><stop offset=".1" stop-color="#f59d1e"/><stop offset=".16" stop-color="#ef7c1e"/><stop offset=".22" stop-color="#e86312"/><stop offset=".27" stop-color="#e94c21"/><stop offset=".34" stop-color="#e63b23"/><stop offset=".41" stop-color="#e63624"/><stop offset=".5" stop-color="#e63324"/><stop offset=".59" stop-color="#e63624"/><stop offset=".66" stop-color="#e63b23"/><stop offset=".73" stop-color="#e94c21"/><stop offset=".78" stop-color="#e86312"/><stop offset=".84" stop-color="#ef7c1e"/><stop offset=".9" stop-color="#f59d1e"/><stop offset=".95" stop-color="#f9bb24"/><stop offset="1" stop-color="#ffdb16"/><stop offset="1" stop-color="#ffdc15"/></linearGradient><linearGradient id="linear-gradient-2" x1="559.36" y1="-216.3" x2="559.36" y2="-87.99" xlink:href="#linear-gradient"/><linearGradient id="linear-gradient-3" x1="-468.48" y1="-1149.37" x2="-391.91" y2="-1072.8" gradientTransform="translate(77.99 -794.09) rotate(-45) scale(1 -1)" gradientUnits="userSpaceOnUse"><stop offset="0" stop-color="#116a37"/><stop offset=".04" stop-color="#156d38"/><stop offset=".08" stop-color="#0a783a"/><stop offset=".13" stop-color="#148837"/><stop offset=".15" stop-color="#0f9039"/><stop offset=".35" stop-color="#38993d"/><stop offset=".76" stop-color="#61b149"/><stop offset="1" stop-color="#70b74b"/></linearGradient><linearGradient id="linear-gradient-4" x1="118.78" y1="16.52" x2="118.78" y2="214.28" gradientTransform="translate(0 311.09) scale(1 -1)" gradientUnits="userSpaceOnUse"><stop offset=".08" stop-color="#42c0f0"/><stop offset=".15" stop-color="#51a5d4"/><stop offset=".23" stop-color="#5c84b3"/><stop offset=".3" stop-color="#62699b"/><stop offset=".37" stop-color="#66558b"/><stop offset=".42" stop-color="#674880"/><stop offset=".46" stop-color="#67447d"/><stop offset=".55" stop-color="#903d60"/><stop offset=".67" stop-color="#b6303b"/><stop offset=".75" stop-color="#cc2021"/><stop offset=".79" stop-color="#d4161a"/></linearGradient><linearGradient id="linear-gradient-5" x1="110.69" y1="51.75" x2="100.03" y2="62.41" gradientTransform="translate(0 311.09) scale(1 -1)" gradientUnits="userSpaceOnUse"><stop offset="0" stop-color="#1f1f1d" stop-opacity="0"/><stop offset="1" stop-color="#fff"/></linearGradient><linearGradient id="linear-gradient-6" x1="-317.64" y1="1377.45" x2="-240.2" y2="1300.01" gradientTransform="translate(-190.6 -1064.17) rotate(-45)" gradientUnits="userSpaceOnUse"><stop offset="0" stop-color="#452b1a"/><stop offset=".05" stop-color="#583519"/><stop offset=".1" stop-color="#683e15"/><stop offset=".32" stop-color="#76481e"/><stop offset=".75" stop-color="#8c5a31"/><stop offset="1" stop-color="#946137"/></linearGradient><linearGradient id="linear-gradient-7" x1="203.28" x2="203.28" xlink:href="#linear-gradient-4"/><linearGradient id="linear-gradient-8" x1="195.19" x2="184.53" y2="62.41" xlink:href="#linear-gradient-5"/><linearGradient id="linear-gradient-9" x1="287.78" x2="287.78" xlink:href="#linear-gradient-4"/><linearGradient id="linear-gradient-10" x1="279.69" x2="269.03" y2="62.41" xlink:href="#linear-gradient-5"/></defs><rect class="cls-14" x=".5" y=".5" width="720" height="378.91"/><g id="plant"><rect class="cls-1" x="490.08" y="226.34" width="138.51" height="138.51"/><rect class="cls-7" x="495.2" y="231.44" width="128.31" height="128.31"/><rect class="cls-8" x="501.99" y="238.31" width="114.91" height="114.91"/><rect class="cls-19" x="505.3" y="241.61" width="108.29" height="108.29"/><rect class="cls-20" x="510.55" y="246.86" width="97.77" height="97.77"/><path id="leaf" class="cls-16" d="M559.39,271.01c-14,1.94-24.7,11.07-24.7,24.7,0,3.31,.65,6.54,1.84,9.5-2.59,1.74-6.37,4.05-8.21,4.7-3.23,1.09-9.67,.37-9.95,.92s1.84,6.37,2.59,6.64,6.64,.27,9.95-.92c2.39-.82,6.72-3.61,9.23-5.45,4.53,5.72,11.52,9.3,19.35,9.3,13.63,0,24.52-8.58,24.52-22.21,0-5.25,1.29-11.89,3.23-16.04,2.11-4.6,13.08-7.56,13.08-7.56-1.09-3.61-35.39-4.33-40.91-3.61h0l-.02,.02h0Z"/><path id="darker" class="cls-2" d="M613.59,349.9h-108.29v-59.34s34.1,5.25,54.1,5.25,54.19-5.25,54.19-5.25v59.34Z"/></g><path d="M387.82,301.39v-13.64h32.74v13.64h-32.74Z"/><g id="tempIcon"><path class="cls-17" d="M131.9,242.07V109.93c0-7.16-5.97-13.12-13.12-13.12s-13.12,5.97-13.12,13.12V241.77c-8.65,4.77-14.91,14.02-14.91,24.76,0,15.51,12.53,28.04,28.04,28.04s28.04-12.53,28.04-28.04c0-10.74-5.97-19.99-14.91-24.46Z"/><line class="cls-18" x1="113.11" y1="125.44" x2="124.74" y2="125.44"/><line class="cls-18" x1="113.11" y1="162.13" x2="124.74" y2="162.13"/><line class="cls-18" x1="113.11" y1="195.53" x2="124.74" y2="195.53"/><line class="cls-18" x1="113.11" y1="226.56" x2="124.74" y2="226.56"/><line class="cls-18" x1="113.11" y1="265.93" x2="124.74" y2="265.93"/><path class="cls-5" d="M110.72,259.07c-4.18,4.47-10.14,5.37-13.12,2.68-2.98-2.98-1.79-8.95,2.39-13.12s10.14-5.37,13.12-2.39c2.98,2.98,2.09,8.65-2.39,12.83Z"/></g><g id="steel"><rect class="cls-9" x="500.68" y="21.56" width="116.22" height="116.22"/><rect class="cls-11" x="504.04" y="24.91" width="109.51" height="109.51"/><rect class="cls-12" x="509.35" y="30.22" width="98.89" height="98.89"/><g><path class="cls-10" d="M569.09,112.33l2.42-45.95-5.59-.65-.84-1.96h-4.29l-.75,2.05-6.52-.28v-11.93h7.55l.56,2.33,3.54,.47,.84-2.7h7.74l1.49,1.3,1.3-1.3h9.6l1.12,1.86,1.68-1.86,7.27,5.96-.47,4.1s-4.01-3.73-5.96-3.73-4.75-.09-4.75-.09l-4.01,6.43-2.42,.19,2.24,45.76h-11.74Z"/><polygon class="cls-10" points="547.38 51.66 539.55 47.37 539.45 58 532.37 58 532.37 47.37 523.42 51.47 523.42 64.52 531.72 68.53 528.83 112.33 542.16 112.33 539.55 68.53 547.38 64.99 547.38 51.66"/></g><path id="darker-2" class="cls-4" d="M613.55,134.42h-109.51v-60.02s34.48,5.31,54.71,5.31,54.8-5.31,54.8-5.31v60.02Z"/></g><g id="tempIcon-2"><path class="cls-15" d="M216.4,242.07V109.93c0-7.16-5.97-13.12-13.12-13.12s-13.12,5.97-13.12,13.12V241.77c-8.65,4.77-14.91,14.02-14.91,24.76,0,15.51,12.53,28.04,28.04,28.04s28.04-12.53,28.04-28.04c0-10.74-5.97-19.99-14.91-24.46Z"/><line class="cls-18" x1="197.61" y1="125.44" x2="209.24" y2="125.44"/><line class="cls-18" x1="197.61" y1="162.13" x2="209.24" y2="162.13"/><line class="cls-18" x1="197.61" y1="195.53" x2="209.24" y2="195.53"/><line class="cls-18" x1="197.61" y1="226.56" x2="209.24" y2="226.56"/><line class="cls-18" x1="197.61" y1="265.93" x2="209.24" y2="265.93"/><path class="cls-3" d="M195.22,259.07c-4.18,4.47-10.14,5.37-13.12,2.68-2.98-2.98-1.79-8.95,2.39-13.12s10.14-5.37,13.12-2.39c2.98,2.98,2.09,8.65-2.39,12.83Z"/></g><g id="tempIcon-3"><path class="cls-13" d="M300.9,242.07V109.93c0-7.16-5.97-13.12-13.12-13.12s-13.12,5.97-13.12,13.12V241.77c-8.65,4.77-14.91,14.02-14.91,24.76,0,15.51,12.53,28.04,28.04,28.04s28.04-12.53,28.04-28.04c0-10.74-5.97-19.99-14.91-24.46Z"/><line class="cls-18" x1="282.11" y1="125.44" x2="293.74" y2="125.44"/><line class="cls-18" x1="282.11" y1="162.13" x2="293.74" y2="162.13"/><line class="cls-18" x1="282.11" y1="195.53" x2="293.74" y2="195.53"/><line class="cls-18" x1="282.11" y1="226.56" x2="293.74" y2="226.56"/><line class="cls-18" x1="282.11" y1="265.93" x2="293.74" y2="265.93"/><path class="cls-6" d="M279.72,259.07c-4.18,4.47-10.14,5.37-13.12,2.68-2.98-2.98-1.79-8.95,2.39-13.12s10.14-5.37,13.12-2.39c2.98,2.98,2.09,8.65-2.39,12.83Z"/></g><path d="M468.04,108.79v-14.27h-24.97v-8.02l24.53-31.18h9.79v31.18h6.25v8.02h-6.25v14.27h-9.36Zm-16.43-22.29h16.64v-20.98l-16.64,20.98Z"/><path d="M449.71,294.4c-5.16-3.39-7.73-7.48-7.73-12.27,0-2.5,.75-4.88,2.24-7.15,1.49-2.27,3.55-3.96,6.16-5.06s5.7-1.66,9.27-1.66c5.25,0,9.29,1.15,12.12,3.46s4.25,5.16,4.25,8.57c0,2.14-.62,4.29-1.86,6.44-1.24,2.15-3.63,4.47-7.17,6.95,7.61,3.98,11.42,8.98,11.42,15.01,0,4.24-1.73,7.92-5.19,11.04-3.46,3.12-8.4,4.68-14.83,4.68s-11.3-1.45-14.53-4.36c-3.23-2.9-4.84-6.27-4.84-10.1,0-2.8,.88-5.57,2.66-8.33,1.77-2.76,4.45-5.17,8.04-7.21Zm5.28,3.58c-2.72,2.27-4.37,4.15-4.95,5.66-.58,1.51-.87,3.03-.87,4.57,0,3.11,1.08,5.49,3.23,7.14s4.51,2.48,7.06,2.48,4.64-.69,6.49-2.08c1.84-1.39,2.76-3.18,2.76-5.37,0-1.71-.54-3.22-1.61-4.52-1.07-1.3-3.45-2.99-7.14-5.06l-4.99-2.82Zm6.43-7.33c3.56-2.79,5.35-5.75,5.35-8.88,0-2.09-.75-3.75-2.26-4.98s-3.43-1.84-5.76-1.84-4.17,.57-5.51,1.7c-1.34,1.13-2,2.53-2,4.19,0,1.47,.56,2.86,1.68,4.17s3.96,3.19,8.51,5.65Z"/></svg>