<?xml version="1.0" encoding="UTF-8"?><svg id="Layer" xmlns="http://www.w3.org/2000/svg" xmlns:xlink="http://www.w3.org/1999/xlink" viewBox="0 0 721 379.91"><defs><style>.cls-1{fill:url(#linear-gradient-2);}.cls-2{fill:url(#linear-gradient-6);}.cls-3{fill:#1f1f1e;}.cls-4{fill:#fff;opacity:0;stroke:#1d1d1b;}.cls-4,.cls-5{stroke-miterlimit:10;}.cls-6{fill:url(#Nowy_wzorek_3);opacity:.1;}.cls-6,.cls-7{isolation:isolate;}.cls-8{fill:#ffd113;}.cls-9{fill:url(#linear-gradient-5);}.cls-10{fill:#e62b23;}.cls-5{fill:#010202;stroke:#030304;stroke-width:1.9px;}.cls-11{fill:none;}.cls-12{fill:url(#linear-gradient-7);}.cls-7{opacity:.05;}.cls-7,.cls-13{fill:#030304;}.cls-14{fill:url(#linear-gradient-9);}.cls-15{fill:url(#linear-gradient-3);}.cls-16{fill:url(#linear-gradient);}.cls-17{fill:url(#linear-gradient-4);}.cls-18{fill:#010101;}.cls-19{fill:url(#linear-gradient-8);}</style><linearGradient id="linear-gradient" x1="530.18" y1="1.71" x2="190.51" y2="341.39" gradientTransform="translate(0 364.63) scale(1 -1)" gradientUnits="userSpaceOnUse"><stop offset="0" stop-color="#9e9d9c"/><stop offset=".54" stop-color="#010202"/><stop offset="1" stop-color="#9e9d9c"/></linearGradient><linearGradient id="linear-gradient-2" x1="360.42" y1="21.28" x2="360.42" y2="321.79" gradientTransform="translate(0 364.63) scale(1 -1)" gradientUnits="userSpaceOnUse"><stop offset="0" stop-color="#462c1b"/><stop offset="1" stop-color="#b18048"/></linearGradient><linearGradient id="linear-gradient-3" x1="360.36" y1="25.46" x2="360.36" y2="317.76" gradientTransform="translate(0 364.63) scale(1 -1)" gradientUnits="userSpaceOnUse"><stop offset="0" stop-color="#946137"/><stop offset="1" stop-color="#805127"/></linearGradient><pattern id="Nowy_wzorek_3" x="0" y="0" width="19.7" height="21.7" patternTransform="translate(43.9 -32159.12) scale(1 -1)" patternUnits="userSpaceOnUse" viewBox="0 0 19.7 21.7"><g><rect class="cls-11" width="19.7" height="21.7"/><g><rect class="cls-11" width="19.7" height="21.7"/><g><rect class="cls-11" width="19.7" height="21.7"/><g><rect class="cls-11" width="19.7" height="21.7"/><g><rect class="cls-11" width="19.7" height="21.7"/><g><rect class="cls-11" width="19.7" height="21.7"/><path class="cls-3" d="M16.6,13c2.1-2.1,2.1-5.6,0-7.7l-1.2-1.2c-2.1-2.1-5.6-2.1-7.8,0L3.1,8.7c-2.1,2.1-2.1,5.6,0,7.7l1.2,1.2c2.1,2.1,5.6,2.1,7.7,0l4.6-4.6Z"/></g></g></g></g></g></g></pattern><linearGradient id="linear-gradient-4" x1="-517.01" y1="1242.64" x2="-439.92" y2="1165.58" gradientTransform="translate(-190.8 -1064.09) rotate(-45)" gradientUnits="userSpaceOnUse"><stop offset="0" stop-color="#951919"/><stop offset=".21" stop-color="#b9251d"/><stop offset=".47" stop-color="#e62b23"/><stop offset=".55" stop-color="#e62f2a"/><stop offset=".84" stop-color="#e73a3b"/><stop offset="1" stop-color="#e83e41"/></linearGradient><linearGradient id="linear-gradient-5" x1="-421.42" y1="1338.23" x2="-344.36" y2="1261.14" xlink:href="#linear-gradient-4"/><linearGradient id="linear-gradient-6" x1="387.44" y1="48.91" x2="387.44" y2="157.94" gradientTransform="translate(0 363.62) scale(1 -1)" gradientUnits="userSpaceOnUse"><stop offset=".16" stop-color="#823a13"/><stop offset=".18" stop-color="#985c1a"/><stop offset=".22" stop-color="#ae7d22"/><stop offset=".26" stop-color="#c39d26"/><stop offset=".3" stop-color="#d6b92e"/><stop offset=".35" stop-color="#e4cf36"/><stop offset=".41" stop-color="#efe036"/><stop offset=".48" stop-color="#f6e947"/><stop offset=".58" stop-color="#f8ea4e"/><stop offset=".86" stop-color="#f6ea4d"/><stop offset="1" stop-color="#fcf4f9"/></linearGradient><linearGradient id="linear-gradient-7" x1="387.45" y1="163.74" x2="387.45" y2="-2.9" gradientTransform="translate(0 363.62) scale(1 -1)" gradientUnits="userSpaceOnUse"><stop offset=".26" stop-color="#f6ea4d"/><stop offset=".86" stop-color="#803813"/></linearGradient><linearGradient id="linear-gradient-8" x1="387.5" y1="50.41" x2="387.5" y2="156.31" gradientTransform="translate(0 363.62) scale(1 -1)" gradientUnits="userSpaceOnUse"><stop offset=".16" stop-color="#803813"/><stop offset=".17" stop-color="#8c471e"/><stop offset=".18" stop-color="#a26b3c"/><stop offset=".2" stop-color="#b78954"/><stop offset=".22" stop-color="#c7a468"/><stop offset=".24" stop-color="#d7bb7a"/><stop offset=".26" stop-color="#e2cc88"/><stop offset=".3" stop-color="#ead891"/><stop offset=".34" stop-color="#eede97"/><stop offset=".46" stop-color="#efe097"/><stop offset=".7" stop-color="#803813"/><stop offset=".73" stop-color="#e6d234"/><stop offset=".74" stop-color="#ebd948"/><stop offset=".75" stop-color="#eede6d"/><stop offset=".77" stop-color="#f0e28a"/><stop offset=".79" stop-color="#f8ebaa"/><stop offset=".8" stop-color="#f8edbf"/><stop offset=".83" stop-color="#faf0cf"/><stop offset=".85" stop-color="#fcf2da"/><stop offset=".89" stop-color="#fdf4e1"/><stop offset=".99" stop-color="#fdf5e3"/></linearGradient><linearGradient id="linear-gradient-9" x1="387.43" y1="140.79" x2="387.43" y2="-22.65" gradientTransform="translate(0 363.62) scale(1 -1)" gradientUnits="userSpaceOnUse"><stop offset=".26" stop-color="#f6ea4d"/><stop offset=".77" stop-color="#803813"/></linearGradient></defs><rect class="cls-4" x=".5" y=".5" width="720" height="378.91"/><g id="prodBg"><rect id="external-border" class="cls-16" x="175.51" y="38.24" width="369.66" height="309.69"/><rect id="internal-border" class="cls-1" x="180.12" y="42.84" width="360.6" height="300.5"/><rect id="bg" class="cls-15" x="184.15" y="46.87" width="352.42" height="292.3"/><rect id="bgPattern" class="cls-6" x="184.15" y="46.87" width="352.42" height="292.3"/></g><path class="cls-18" d="M275.88,290.96v-24.2h-24.2v-9.94h24.2v-24.2h9.94v24.2h24.2v9.94h-24.2v24.2h-9.94Z"/><path class="cls-18" d="M208.13,132.43v-13.57h32.56v13.57h-32.56Z"/><g id="heat"><rect class="cls-13" x="264.49" y="67.85" width="115.64" height="115.64"/><rect class="cls-17" x="267.82" y="71.18" width="108.98" height="108.98"/><rect class="cls-10" x="273.13" y="76.46" width="98.39" height="98.39"/><path id="darker" class="cls-7" d="M376.8,180.16h-108.98v-59.72s34.32,5.28,54.44,5.28,54.54-5.28,54.54-5.28v59.72Z"/><g><polygon class="cls-8" points="310.02 130.72 297.61 119.96 297.61 119.96 297.61 87.15 285.17 120.61 297.71 131.2 297.71 131.2 297.61 164.21 310.02 130.72"/><polygon class="cls-8" points="334.8 130.72 322.36 119.96 322.26 119.96 322.36 87.15 309.95 120.61 322.36 131.2 322.36 131.2 322.36 164.21 334.8 130.72"/><polygon class="cls-8" points="360.21 130.72 347.77 119.96 347.69 119.96 347.77 87.15 335.35 120.61 347.77 131.2 347.77 131.2 347.77 164.21 360.21 130.72"/></g></g><g id="heat-2"><rect class="cls-13" x="399.65" y="67.85" width="115.64" height="115.64"/><rect class="cls-9" x="402.98" y="71.18" width="108.98" height="108.98"/><rect class="cls-10" x="408.29" y="76.46" width="98.39" height="98.39"/><path id="darker-2" class="cls-7" d="M511.96,180.16h-108.98v-59.72s34.32,5.28,54.44,5.28,54.54-5.28,54.54-5.28v59.72h0Z"/><g><polygon class="cls-8" points="445.18 130.72 432.77 119.96 432.77 119.96 432.77 87.15 420.33 120.61 432.87 131.2 432.87 131.2 432.77 164.21 445.18 130.72"/><polygon class="cls-8" points="469.96 130.72 457.52 119.96 457.42 119.96 457.52 87.15 445.11 120.61 457.52 131.2 457.52 131.2 457.52 164.21 469.96 130.72"/><polygon class="cls-8" points="495.37 130.72 482.93 119.96 482.85 119.96 482.93 87.15 470.51 120.61 482.93 131.2 482.93 131.2 482.93 164.21 495.37 130.72"/></g></g><g id="mln"><polygon id="obram_czarne" class="cls-5" points="347.09 202.38 329.57 219.9 329.57 300.5 347.09 318.02 427.79 318.02 445.23 300.5 445.23 219.9 427.79 202.38 347.09 202.38"/><polygon id="obram_zolte" class="cls-2" points="349.37 205.69 332.97 222.18 332.97 298.22 349.37 314.72 425.43 314.72 441.9 298.22 441.9 222.18 425.43 205.69 349.37 205.69"/><polygon id="tlo_wew" class="cls-12" points="350.49 207.31 334.5 223.31 334.5 297.1 350.49 313.11 424.38 313.11 440.4 297.1 440.4 223.31 424.38 207.31 350.49 207.31"/><path id="obram_skosne" class="cls-19" d="M432.72,280.63c-2.93,0-5.31-2.38-5.31-5.31v-30.21c0-2.93,2.38-5.31,5.31-5.31h7.58v-16.47l-15.92-16.02h-16.57v7.58c0,2.93-2.38,5.31-5.31,5.31h-30.21c-2.93,0-5.31-2.38-5.31-5.31v-7.58h-16.47l-16.02,16.02v16.57h7.58c2.93,0,5.31,2.38,5.31,5.31v30.21c0,2.93-2.38,5.31-5.31,5.31h-7.58v16.47l16.02,16.02h16.57v-7.58c0-2.93,2.38-5.31,5.31-5.31h30.21c2.93,0,5.31,2.38,5.31,5.31v7.58h16.57l16.02-16.02v-16.57h-7.78Z"/><path id="tlo_zew" class="cls-14" d="M432.44,282.4c-3.6,0-6.53-3.6-6.53-7.21v-30.04c0-3.6,2.93-7.21,6.53-7.21h6.16v-13.44l-15.54-15.44h-13.37v6.16c0,3.6-3.6,6.53-7.21,6.53h-30.04c-3.6,0-7.21-2.93-7.21-6.53v-6.16h-13.54l-15.44,15.44v13.44h6.16c3.6,0,6.53,3.6,6.53,7.21v30.04c0,3.6-2.93,7.21-6.53,7.21h-6.16v13.44l15.44,15.44h13.44v-6.16c0-3.6,3.6-6.53,7.21-6.53h29.94c3.6,0,7.21,2.93,7.21,6.53v6.16h13.44l15.44-15.44v-13.44h-5.93Z"/></g><path class="cls-18" d="M373.72,284.46v-7.33c4.83,1.88,8.86,2.8,12.04,2.8,2.8,0,5.13-.75,6.93-2.23s2.7-3.48,2.7-5.98c0-1.83-.48-3.48-1.43-4.96-.95-1.48-2.33-2.63-4.13-3.45-1.83-.83-4.68-1.23-8.59-1.23h-3v-5.83h2.53c3.73-.03,6.43-.38,8.06-1.05s2.9-1.7,3.83-3.13,1.38-2.93,1.38-4.56c0-1.95-.68-3.55-2-4.78-1.33-1.23-3.4-1.85-6.23-1.85-3.55,0-7.38,.93-11.44,2.78v-6.66c2.05-.7,3.68-1.18,4.86-1.4,1.2-.23,2.6-.43,4.2-.58s3.13-.23,4.56-.23c5.13,0,9.09,1.05,11.86,3.15,2.78,2.1,4.18,4.93,4.18,8.51,0,2.88-.9,5.33-2.68,7.36-1.8,2.03-4.48,3.65-8.11,4.83,3.15,.73,5.56,1.73,7.21,3.03,1.65,1.28,2.93,2.8,3.8,4.56,.88,1.75,1.33,3.63,1.33,5.63,0,3.7-1.45,6.98-4.38,9.89-2.9,2.9-7.63,4.33-14.14,4.33-1.73,0-3.53-.05-5.46-.15s-4.56-.58-7.91-1.43v-.05h.03Z"/></svg>