<?xml version="1.0" encoding="UTF-8"?><svg id="Layer" xmlns="http://www.w3.org/2000/svg" xmlns:xlink="http://www.w3.org/1999/xlink" viewBox="0 0 721 379.91"><defs><style>.cls-1{fill:url(#linear-gradient-2);}.cls-2{fill:#010202;stroke-width:1.88px;}.cls-2,.cls-3,.cls-4,.cls-5,.cls-6{stroke-miterlimit:10;}.cls-2,.cls-5{stroke:#030304;}.cls-7,.cls-8{fill:#020303;}.cls-9{fill:url(#linear-gradient-6);}.cls-10{fill:#1f1f1e;}.cls-3{stroke:#020303;stroke-width:1.62px;}.cls-3,.cls-11{fill:none;}.cls-12{fill:url(#linear-gradient-11);}.cls-4{opacity:0;stroke:#1d1d1b;}.cls-4,.cls-5{fill:#fff;}.cls-13{fill:url(#linear-gradient-10);}.cls-14{opacity:.15;}.cls-14,.cls-15,.cls-8,.cls-16{isolation:isolate;}.cls-14,.cls-17{fill:#030304;}.cls-18{fill:url(#radial-gradient);}.cls-15{fill:url(#Nowy_wzorek_4);opacity:.1;}.cls-19{fill:#44ac36;}.cls-20{fill:url(#linear-gradient-5);}.cls-5{stroke-width:.91px;}.cls-6{fill:#07562a;stroke:#1c4421;stroke-width:3.66px;}.cls-21{fill:url(#linear-gradient-7);}.cls-22{fill:url(#linear-gradient-9);}.cls-23{fill:#7f358b;}.cls-24{fill:url(#linear-gradient-3);}.cls-8{opacity:.05;}.cls-25{fill:url(#linear-gradient);}.cls-16{opacity:.29;}.cls-16,.cls-26{fill:#010101;}.cls-27{fill:url(#linear-gradient-4);}.cls-28{fill:url(#linear-gradient-8);}.cls-29{fill:url(#linear-gradient-12);}</style><linearGradient id="linear-gradient" x1="298.47" y1="36.2" x2="21.52" y2="313.16" gradientTransform="translate(0 364.63) scale(1 -1)" gradientUnits="userSpaceOnUse"><stop offset="0" stop-color="#9e9d9c"/><stop offset=".54" stop-color="#010202"/><stop offset="1" stop-color="#9e9d9c"/></linearGradient><linearGradient id="linear-gradient-2" x1="160.07" y1="26.5" x2="160.07" y2="322.83" gradientTransform="translate(0 364.63) scale(1 -1)" gradientUnits="userSpaceOnUse"><stop offset="0" stop-color="#462c1b"/><stop offset="1" stop-color="#b18048"/></linearGradient><linearGradient id="linear-gradient-3" x1="160.01" y1="30.62" x2="160.01" y2="318.86" gradientTransform="translate(0 364.63) scale(1 -1)" gradientUnits="userSpaceOnUse"><stop offset="0" stop-color="#946137"/><stop offset="1" stop-color="#805127"/></linearGradient><pattern id="Nowy_wzorek_4" x="0" y="0" width="19.7" height="21.7" patternTransform="translate(43.9 -32159.12) scale(1 -1)" patternUnits="userSpaceOnUse" viewBox="0 0 19.7 21.7"><g><rect class="cls-11" width="19.7" height="21.7"/><g><rect class="cls-11" width="19.7" height="21.7"/><g><rect class="cls-11" width="19.7" height="21.7"/><g><rect class="cls-11" width="19.7" height="21.7"/><g><rect class="cls-11" width="19.7" height="21.7"/><g><rect class="cls-11" width="19.7" height="21.7"/><path class="cls-10" d="M16.6,13c2.1-2.1,2.1-5.6,0-7.7l-1.2-1.2c-2.1-2.1-5.6-2.1-7.8,0L3.1,8.7c-2.1,2.1-2.1,5.6,0,7.7l1.2,1.2c2.1,2.1,5.6,2.1,7.7,0l4.6-4.6Z"/></g></g></g></g></g></g></pattern><linearGradient id="linear-gradient-4" x1="197.82" y1="53.73" x2="197.82" y2="161.24" gradientTransform="translate(0 363.62) scale(1 -1)" gradientUnits="userSpaceOnUse"><stop offset=".16" stop-color="#823a13"/><stop offset=".18" stop-color="#985c1a"/><stop offset=".22" stop-color="#ae7d22"/><stop offset=".26" stop-color="#c39d26"/><stop offset=".3" stop-color="#d6b92e"/><stop offset=".35" stop-color="#e4cf36"/><stop offset=".41" stop-color="#efe036"/><stop offset=".48" stop-color="#f6e947"/><stop offset=".58" stop-color="#f8ea4e"/><stop offset=".86" stop-color="#f6ea4d"/><stop offset="1" stop-color="#fcf4f9"/></linearGradient><linearGradient id="linear-gradient-5" x1="197.83" y1="166.97" x2="197.83" y2="2.64" gradientTransform="translate(0 363.62) scale(1 -1)" gradientUnits="userSpaceOnUse"><stop offset=".26" stop-color="#f6ea4d"/><stop offset=".86" stop-color="#803813"/></linearGradient><linearGradient id="linear-gradient-6" x1="197.88" y1="55.21" x2="197.88" y2="159.64" gradientTransform="translate(0 363.62) scale(1 -1)" gradientUnits="userSpaceOnUse"><stop offset=".16" stop-color="#803813"/><stop offset=".17" stop-color="#8c471e"/><stop offset=".18" stop-color="#a26b3c"/><stop offset=".2" stop-color="#b78954"/><stop offset=".22" stop-color="#c7a468"/><stop offset=".24" stop-color="#d7bb7a"/><stop offset=".26" stop-color="#e2cc88"/><stop offset=".3" stop-color="#ead891"/><stop offset=".34" stop-color="#eede97"/><stop offset=".46" stop-color="#efe097"/><stop offset=".7" stop-color="#803813"/><stop offset=".73" stop-color="#e6d234"/><stop offset=".74" stop-color="#ebd948"/><stop offset=".75" stop-color="#eede6d"/><stop offset=".77" stop-color="#f0e28a"/><stop offset=".79" stop-color="#f8ebaa"/><stop offset=".8" stop-color="#f8edbf"/><stop offset=".83" stop-color="#faf0cf"/><stop offset=".85" stop-color="#fcf2da"/><stop offset=".89" stop-color="#fdf4e1"/><stop offset=".99" stop-color="#fdf5e3"/></linearGradient><linearGradient id="linear-gradient-7" x1="197.81" y1="144.34" x2="197.81" y2="-16.84" gradientTransform="translate(0 363.62) scale(1 -1)" gradientUnits="userSpaceOnUse"><stop offset=".26" stop-color="#f6ea4d"/><stop offset=".77" stop-color="#803813"/></linearGradient><linearGradient id="linear-gradient-8" x1="-602.98" y1="-535.72" x2="-526.99" y2="-459.68" gradientTransform="translate(245.35 -627.96) rotate(-45) scale(1 -1)" gradientUnits="userSpaceOnUse"><stop offset="0" stop-color="#1d1427"/><stop offset=".24" stop-color="#372348"/><stop offset=".49" stop-color="#573b6c"/><stop offset=".71" stop-color="#72508c"/><stop offset=".89" stop-color="#835ca0"/><stop offset="1" stop-color="#8963a7"/></linearGradient><linearGradient id="linear-gradient-9" x1="-448.8" y1="1238.96" x2="-372.83" y2="1162.99" gradientTransform="translate(-190.6 -1064.17) rotate(-45)" gradientUnits="userSpaceOnUse"><stop offset="0" stop-color="#0c6835"/><stop offset=".04" stop-color="#0a6b36"/><stop offset=".08" stop-color="#047638"/><stop offset=".13" stop-color="#078738"/><stop offset=".15" stop-color="#058f39"/><stop offset=".35" stop-color="#34993d"/><stop offset=".76" stop-color="#5eaf47"/><stop offset="1" stop-color="#6eb74a"/></linearGradient><linearGradient id="linear-gradient-10" x1="-356.88" y1="1330.89" x2="-280.9" y2="1254.91" xlink:href="#linear-gradient-9"/><linearGradient id="linear-gradient-11" x1="-264.96" y1="1422.81" x2="-188.98" y2="1346.84" xlink:href="#linear-gradient-9"/><linearGradient id="linear-gradient-12" x1="495.55" y1="-11.13" x2="495.55" y2="210.86" gradientTransform="translate(0 363.09) scale(1 -1)" gradientUnits="userSpaceOnUse"><stop offset="0" stop-color="#010101"/><stop offset="1" stop-color="#fff"/></linearGradient><radialGradient id="radial-gradient" cx="495.73" cy="99.87" fx="495.73" fy="99.87" r="96.91" gradientTransform="translate(0 363.09) scale(1 -1)" gradientUnits="userSpaceOnUse"><stop offset="0" stop-color="#c8c7c7"/><stop offset="1" stop-color="#727070"/></radialGradient></defs><rect class="cls-4" x=".5" y=".5" width="720" height="378.91"/><g id="prodBg"><rect id="external-border" class="cls-25" x="35.74" y="37.26" width="248.52" height="305.39"/><rect id="internal-border" class="cls-1" x="40.28" y="41.8" width="239.59" height="296.33"/><rect id="bg" class="cls-24" x="44.25" y="45.77" width="231.52" height="288.23"/><rect id="bgPattern" class="cls-15" x="44.25" y="45.77" width="231.52" height="288.23"/></g><path class="cls-26" d="M87.82,286.47v-23.87h-23.87v-9.8h23.87v-23.87h9.8v23.87h23.87v9.8h-23.87v23.87h-9.8Z"/><path class="cls-26" d="M77.77,130.14v-13.38h32.11v13.38h-32.11Z"/><g id="mln"><polygon id="obram_czarne" class="cls-2" points="158.04 199.12 140.76 216.4 140.76 295.88 158.04 313.15 237.61 313.15 254.81 295.88 254.81 216.4 237.61 199.12 158.04 199.12"/><polygon id="obram_zolte" class="cls-27" points="160.28 202.38 144.11 218.65 144.11 293.63 160.28 309.89 235.29 309.89 251.53 293.63 251.53 218.65 235.29 202.38 160.28 202.38"/><polygon id="tlo_wew" class="cls-20" points="161.39 203.99 145.62 219.76 145.62 292.52 161.39 308.32 234.25 308.32 250.05 292.52 250.05 219.76 234.25 203.99 161.39 203.99"/><path id="obram_skosne" class="cls-9" d="M242.47,276.28c-2.89,0-5.23-2.34-5.23-5.23v-29.79c0-2.89,2.34-5.23,5.23-5.23h7.48v-16.24l-15.7-15.8h-16.34v7.48c0,2.89-2.34,5.23-5.23,5.23h-29.79c-2.89,0-5.23-2.34-5.23-5.23v-7.48h-16.24l-15.8,15.8v16.34h7.48c2.89,0,5.23,2.34,5.23,5.23v29.79c0,2.89-2.34,5.23-5.23,5.23h-7.48v16.24l15.8,15.8h16.34v-7.48c0-2.89,2.34-5.23,5.23-5.23h29.79c2.89,0,5.23,2.34,5.23,5.23v7.48h16.34l15.8-15.8v-16.34h-7.68Z"/><path id="tlo_zew" class="cls-21" d="M242.2,278.03c-3.55,0-6.44-3.55-6.44-7.11v-29.62c0-3.55,2.89-7.11,6.44-7.11h6.07v-13.25l-15.33-15.23h-13.18v6.07c0,3.55-3.55,6.44-7.11,6.44h-29.62c-3.55,0-7.11-2.89-7.11-6.44v-6.07h-13.35l-15.23,15.23v13.25h6.07c3.55,0,6.44,3.55,6.44,7.11v29.62c0,3.55-2.89,7.11-6.44,7.11h-6.07v13.25l15.23,15.23h13.25v-6.07c0-3.55,3.55-6.44,7.11-6.44h29.52c3.55,0,7.11,2.89,7.11,6.44v6.07h13.25l15.23-15.23v-13.25h-5.85Z"/></g><path class="cls-26" d="M184.3,280.05v-7.23c4.76,1.85,8.74,2.76,11.87,2.76,2.76,0,5.06-.74,6.84-2.2,1.78-1.46,2.67-3.43,2.67-5.9,0-1.8-.47-3.43-1.41-4.89-.94-1.46-2.3-2.59-4.07-3.41-1.8-.81-4.62-1.21-8.47-1.21h-2.96v-5.75h2.49c3.68-.02,6.34-.37,7.95-1.04,1.6-.67,2.86-1.68,3.78-3.09s1.36-2.89,1.36-4.49c0-1.93-.67-3.5-1.97-4.71-1.31-1.21-3.36-1.83-6.15-1.83-3.5,0-7.28,.91-11.28,2.74v-6.57c2.02-.69,3.63-1.16,4.79-1.38,1.18-.22,2.57-.42,4.15-.57s3.09-.22,4.49-.22c5.06,0,8.96,1.04,11.7,3.11,2.74,2.07,4.12,4.86,4.12,8.39,0,2.84-.89,5.26-2.64,7.26-1.78,2-4.42,3.6-8,4.76,3.11,.72,5.48,1.7,7.11,2.99,1.63,1.26,2.89,2.76,3.75,4.49,.86,1.73,1.31,3.58,1.31,5.55,0,3.65-1.43,6.89-4.32,9.75-2.86,2.86-7.53,4.27-13.95,4.27-1.7,0-3.48-.05-5.38-.15s-4.49-.57-7.8-1.41v-.05h.02Z"/><g id="energy"><rect class="cls-17" x="140.76" y="66.46" width="114.03" height="114.03"/><rect class="cls-28" x="144.04" y="69.74" width="107.46" height="107.46"/><polygon class="cls-23" points="246.3 74.95 246.3 172 149.27 172 149.27 74.95 246.3 74.95"/><polygon class="cls-5" points="185.95 112.37 217.94 92.52 200.83 117.3 209.89 132.04 178.45 151.88 194.27 127.18 185.95 112.37"/><path id="darker" class="cls-14" d="M251.51,177.21h-107.46v-58.89s33.84,5.21,53.68,5.21,53.78-5.21,53.78-5.21v58.89h0Z"/></g><g id="plant"><rect class="cls-7" x="311.1" y="18.51" width="114.03" height="114.03"/><rect class="cls-22" x="314.4" y="21.8" width="107.45" height="107.45"/><rect class="cls-19" x="319.61" y="27.01" width="97.02" height="97.02"/><path id="leaf" class="cls-6" d="M368.07,50.97c-13.9,1.92-24.51,10.97-24.51,24.51,0,3.29,.64,6.49,1.83,9.42-2.56,1.74-6.31,4.02-8.14,4.66-3.2,1.1-9.6,.37-9.88,.91s1.83,6.31,2.56,6.58,6.58,.27,9.88-.91c2.38-.82,6.68-3.57,9.14-5.4,4.48,5.67,11.43,9.24,19.2,9.24,13.53,0,24.32-8.5,24.32-22.04,0-5.21,1.28-11.8,3.2-15.91,2.1-4.57,12.98-7.5,12.98-7.5-1.1-3.57-35.11-4.3-40.6-3.57Z"/><path id="darker-2" class="cls-8" d="M421.84,129.24h-107.45v-58.89s33.83,5.21,53.68,5.21,53.77-5.21,53.77-5.21v58.89Z"/></g><g id="plant-2"><rect class="cls-7" x="441.1" y="18.51" width="114.03" height="114.03"/><rect class="cls-13" x="444.4" y="21.8" width="107.45" height="107.45"/><rect class="cls-19" x="449.61" y="27.01" width="97.02" height="97.02"/><path id="leaf-2" class="cls-6" d="M498.07,50.97c-13.9,1.92-24.51,10.97-24.51,24.51,0,3.29,.64,6.49,1.83,9.42-2.56,1.74-6.31,4.02-8.14,4.66-3.2,1.1-9.6,.37-9.88,.91s1.83,6.31,2.56,6.58,6.58,.27,9.88-.91c2.38-.82,6.68-3.57,9.14-5.4,4.48,5.67,11.43,9.24,19.2,9.24,13.53,0,24.32-8.5,24.32-22.04,0-5.21,1.28-11.8,3.2-15.91,2.1-4.57,12.98-7.5,12.98-7.5-1.1-3.57-35.11-4.3-40.6-3.57Z"/><path id="darker-3" class="cls-8" d="M551.84,129.24h-107.45v-58.89s33.83,5.21,53.68,5.21,53.77-5.21,53.77-5.21v58.89Z"/></g><g id="plant-3"><rect class="cls-7" x="571.1" y="18.51" width="114.03" height="114.03"/><rect class="cls-12" x="574.4" y="21.8" width="107.45" height="107.45"/><rect class="cls-19" x="579.61" y="27.01" width="97.02" height="97.02"/><path id="leaf-3" class="cls-6" d="M628.07,50.97c-13.9,1.92-24.51,10.97-24.51,24.51,0,3.29,.64,6.49,1.83,9.42-2.56,1.74-6.31,4.02-8.14,4.66-3.2,1.1-9.6,.37-9.88,.91s1.83,6.31,2.56,6.58,6.58,.27,9.88-.91c2.38-.82,6.68-3.57,9.14-5.4,4.48,5.67,11.43,9.24,19.2,9.24,13.53,0,24.32-8.5,24.32-22.04,0-5.21,1.28-11.8,3.2-15.91,2.1-4.57,12.98-7.5,12.98-7.5-1.1-3.57-35.11-4.3-40.6-3.57Z"/><path id="darker-4" class="cls-8" d="M681.84,129.24h-107.45v-58.89s33.83,5.21,53.68,5.21,53.77-5.21,53.77-5.21v58.89Z"/></g><g id="city"><polygon class="cls-26" points="594.76 320.58 594.76 206.05 495.64 148.88 396.34 206.05 396.34 320.58 495.64 377.93 594.76 320.58"/><polygon class="cls-29" points="591.6 318.72 591.6 207.72 495.64 152.22 399.49 207.72 399.49 318.72 495.64 374.22 591.6 318.72"/><polygon class="cls-18" points="585.48 315.19 585.48 211.43 495.64 159.65 405.99 211.43 405.99 315.19 495.64 366.79 585.48 315.19"/><path class="cls-16" d="M594.2,317.23v-71.46h0q-98.56,14.66-197.31,0h0v71.46l98.56,56.98,98.75-56.98Z"/><g id="city-logo"><path class="cls-3" d="M426.96,275.84c0-36.75,30.81-66.27,68.49-66.27"/><path class="cls-3" d="M563.76,275.84c0-36.75-31-66.27-69.24-66.27"/><rect class="cls-7" x="425.66" y="271.57" width="139.4" height="8.72"/><rect class="cls-7" x="432.9" y="263.41" width="4.27" height="8.17"/><rect class="cls-7" x="435.13" y="256.91" width="2.04" height="6.68"/><rect class="cls-7" x="441.44" y="262.48" width="7.61" height="9.28"/><rect class="cls-7" x="441.44" y="251.9" width="3.71" height="10.58"/><rect class="cls-7" x="451.46" y="260.06" width="3.16" height="11.32"/><rect class="cls-7" x="454.62" y="237.42" width="3.53" height="34.15"/><rect class="cls-7" x="456.48" y="233.71" width="1.86" height="3.53"/><rect class="cls-7" x="458.33" y="263.41" width="5.94" height="8.17"/><rect class="cls-7" x="463.16" y="259.32" width="1.11" height="4.27"/><rect class="cls-7" x="464.27" y="229.07" width="4.83" height="42.51"/><rect class="cls-7" x="469.1" y="236.68" width="2.41" height="34.71"/><rect class="cls-7" x="471.7" y="249.11" width="5.01" height="22.46"/><rect class="cls-7" x="476.71" y="253.75" width="3.16" height="18"/><rect class="cls-7" x="482.65" y="242.8" width="6.68" height="28.77"/><rect class="cls-7" x="489.52" y="254.12" width="3.34" height="17.45"/><rect class="cls-7" x="492.86" y="222.01" width="8.17" height="49.56"/><rect class="cls-7" x="504.92" y="232.96" width="4.27" height="38.61"/><rect class="cls-7" x="513.46" y="240.95" width="4.64" height="30.63"/><rect class="cls-7" x="508.82" y="261.36" width="4.64" height="10.21"/><rect class="cls-7" x="518.1" y="266" width="3.34" height="5.75"/><rect class="cls-7" x="525.34" y="262.85" width="2.97" height="8.54"/><rect class="cls-7" x="528.31" y="249.11" width="5.2" height="22.46"/><rect class="cls-7" x="533.32" y="238.72" width="3.71" height="32.85"/><rect class="cls-7" x="537.03" y="261.73" width="3.16" height="9.84"/><rect class="cls-7" x="542.04" y="255.79" width="4.08" height="15.78"/><rect class="cls-7" x="546.13" y="254.12" width="4.45" height="17.45"/><rect class="cls-7" x="553.37" y="263.78" width="2.04" height="7.98"/><rect class="cls-7" x="555.41" y="267.67" width="3.71" height="4.08"/></g></g></svg>