<?xml version="1.0" encoding="UTF-8"?><svg id="Layer" xmlns="http://www.w3.org/2000/svg" xmlns:xlink="http://www.w3.org/1999/xlink" viewBox="0 0 721 379.91"><defs><style>.cls-1{fill:#1c2c4c;}.cls-2{fill:#fff;opacity:0;stroke:#1d1d1b;stroke-miterlimit:10;}.cls-3{fill:url(#radial-gradient);}.cls-4{fill:#83a3d5;}.cls-5{fill:#7ca5d8;}.cls-6{fill:#3f5ea8;}.cls-7{fill:#93c6ec;}.cls-8{fill:url(#linear-gradient);}.cls-9{fill:#010202;}.cls-10{fill:#0f468e;}</style><linearGradient id="linear-gradient" x1="360.58" y1="303.07" x2="360.58" y2="116.47" gradientTransform="translate(0 -19.82)" gradientUnits="userSpaceOnUse"><stop offset="0" stop-color="#c2dcf4"/><stop offset="1" stop-color="#275387"/></linearGradient><radialGradient id="radial-gradient" cx="360.42" cy="221.44" fx="360.42" fy="221.44" r="80.92" gradientTransform="translate(0 -19.82)" gradientUnits="userSpaceOnUse"><stop offset="0" stop-color="#fff" stop-opacity=".7"/><stop offset=".13" stop-color="#f9fbfe" stop-opacity=".68"/><stop offset=".28" stop-color="#e4e9f7" stop-opacity=".62"/><stop offset=".44" stop-color="#c3cdea" stop-opacity=".53"/><stop offset=".62" stop-color="#93a7d6" stop-opacity=".4"/><stop offset=".79" stop-color="#5673b7" stop-opacity=".23"/><stop offset=".98" stop-color="#2e509e" stop-opacity=".03"/><stop offset="1" stop-color="#2c4c9b" stop-opacity="0"/></radialGradient></defs><rect class="cls-2" x=".5" y=".5" width="720" height="378.91"/><g id="ocean"><polygon class="cls-9" points="443.98 238.17 443.98 141.73 360.58 93.59 277.02 141.73 277.02 238.17 360.58 286.31 443.98 238.17"/><polygon class="cls-8" points="441.4 236.72 441.4 143.34 360.58 96.65 279.76 143.34 279.76 236.72 360.58 283.25 441.4 236.72"/><polygon class="cls-4" points="435.92 233.5 435.92 146.4 360.58 102.77 285.08 146.4 285.08 233.5 360.58 277.13 435.92 233.5"/><path class="cls-10" d="M435.92,201.46c-3.38-3.22-9.98-4.51-21.25-5.96-10.95-1.45-16.42-2.09-19.16-2.09-17.39-.16-18.51,4.67-32.84,4.83-3.86,0-14.17-2.09-35.1-6.44-12.07-2.41-15.78-3.38-21.9-2.9-8.53,.64-15.62,3.54-20.77,6.6v38l75.67,43.63,75.35-43.63v-32.04h0Z"/><path class="cls-1" d="M360.74,253.63h0c33.97-.64,50.55-34.94,34.78-72.45-1.29-3.22-3.06-6.6-4.99-10.14-29.95-54.74-29.95-54.42-29.95-54.42,0,0,0-.32-29.95,54.42-1.93,3.54-3.54,6.92-4.99,10.14-15.78,37.51,.8,71.81,34.78,72.45h0"/><path class="cls-7" d="M360.74,251.53h0c32.2-.64,47.82-33,33-68.59-1.29-3.06-2.9-6.28-4.67-9.66-28.34-51.84-28.34-51.52-28.34-51.52,0,0,0-.32-28.34,51.52-1.77,3.38-3.38,6.44-4.67,9.66-15.13,35.58,.48,68.1,33,68.59h0"/><path class="cls-5" d="M360.58,247.83h0c29.62-.48,43.95-30.27,30.27-62.79-1.13-2.9-2.74-5.8-4.35-8.85-25.92-47.66-25.92-47.33-25.92-47.33,0,0,0-.32-26.08,47.33-1.61,3.06-3.06,5.96-4.35,8.85-13.52,32.52,.8,62.15,30.43,62.79h0"/><path class="cls-6" d="M393.9,193.41c-15.78,.16-17.23,4.67-31.23,4.83-3.86,0-14.17-2.09-34.94-6.28-9.02,29.78,5.31,55.38,32.84,55.87h.16c26.89-.48,41.22-25.28,33.17-54.42h0Z"/><circle class="cls-3" cx="360.42" cy="201.62" r="80.82"/></g><path d="M469.34,123.42l-11.37-1.42,2.62-8.03,10.01,5.55c-.86,.95-1.29,1.98-1.29,3.11,0,.18,.01,.45,.04,.79Zm3.55,3.12l-4.88,10.39-6.8-4.97,8.36-7.86c.73,1.33,1.83,2.15,3.32,2.43Zm-3.86-18.71h8.44l-2.15,11.25c-.7-.34-1.39-.51-2.07-.51s-1.35,.17-2.03,.51l-2.19-11.25Zm7.96,16.28l8.36,7.86-6.84,4.97-4.84-10.39c1.46-.29,2.56-1.1,3.32-2.43Zm-1.06-4.59l10.04-5.55,2.58,8.03-11.37,1.42c.05-.34,.08-.6,.08-.79,0-1.13-.45-2.17-1.33-3.11Z"/></svg>