<?xml version="1.0" encoding="UTF-8"?><svg id="Layer" xmlns="http://www.w3.org/2000/svg" xmlns:xlink="http://www.w3.org/1999/xlink" viewBox="0 0 721 379.91"><defs><style>.cls-1{fill:url(#linear-gradient-2);}.cls-2{fill:url(#Nowy_wzorek_8);opacity:.1;}.cls-2,.cls-3,.cls-4,.cls-5{isolation:isolate;}.cls-6{fill:#030404;}.cls-7{fill:#20201e;}.cls-8,.cls-4{fill:#020303;}.cls-9{fill:url(#linear-gradient-6);}.cls-3{fill:url(#linear-gradient-4);opacity:.4;}.cls-10{opacity:0;stroke:#1d1d1b;}.cls-10,.cls-11,.cls-12{stroke-miterlimit:10;}.cls-10,.cls-12{fill:#fff;}.cls-4{opacity:.15;}.cls-13{fill:#7e348b;}.cls-14{fill:url(#radial-gradient);}.cls-5{opacity:.29;}.cls-5,.cls-15{fill:#030304;}.cls-16{fill:url(#linear-gradient-5);}.cls-17,.cls-11{fill:none;}.cls-18{fill:url(#linear-gradient-7);}.cls-11{stroke:#030404;stroke-width:.93px;}.cls-19{fill:url(#linear-gradient-3);}.cls-20{fill:url(#linear-gradient);}.cls-12{stroke:#020303;stroke-width:.93px;}.cls-21{fill:#010202;}</style><linearGradient id="linear-gradient" x1="501.24" y1="-439.25" x2="219.76" y2="-157.76" gradientTransform="translate(0 -108.55) scale(1 -1)" gradientUnits="userSpaceOnUse"><stop offset="0" stop-color="#9f9d9c"/><stop offset=".54" stop-color="#020303"/><stop offset="1" stop-color="#9f9d9c"/></linearGradient><linearGradient id="linear-gradient-2" x1="360.58" y1="-381.76" x2="360.58" y2="-215.27" gradientTransform="translate(0 -108.55) scale(1 -1)" gradientUnits="userSpaceOnUse"><stop offset="0" stop-color="#472d1c"/><stop offset="1" stop-color="#b18047"/></linearGradient><linearGradient id="linear-gradient-3" x1="360.49" y1="-377.54" x2="360.49" y2="-219.33" gradientTransform="translate(0 -108.55) scale(1 -1)" gradientUnits="userSpaceOnUse"><stop offset="0" stop-color="#946137"/><stop offset="1" stop-color="#815228"/></linearGradient><pattern id="Nowy_wzorek_8" x="0" y="0" width="19.7" height="21.7" patternTransform="translate(-2.92 -15651.97) scale(1 -1)" patternUnits="userSpaceOnUse" viewBox="0 0 19.7 21.7"><g><rect class="cls-17" width="19.7" height="21.7"/><g><rect class="cls-17" width="19.7" height="21.7"/><g><rect class="cls-17" width="19.7" height="21.7"/><g><rect class="cls-17" width="19.7" height="21.7"/><g><rect class="cls-17" width="19.7" height="21.7"/><g><rect class="cls-17" width="19.7" height="21.7"/><g><rect class="cls-17" width="19.7" height="21.7"/><g><rect class="cls-17" width="19.7" height="21.7"/><path class="cls-7" d="M16.6,13c2.1-2.1,2.1-5.6,0-7.7l-1.2-1.2c-2.1-2.1-5.6-2.1-7.8,0L3.1,8.7c-2.1,2.1-2.1,5.6,0,7.7l1.2,1.2c2.1,2.1,5.6,2.1,7.7,0l4.6-4.6Z"/></g></g></g></g></g></g></g></g></pattern><linearGradient id="linear-gradient-4" x1="464.84" y1="-139.53" x2="464.84" y2="1.37" gradientTransform="translate(0 122.92) scale(1 -1)" gradientUnits="userSpaceOnUse"><stop offset="0" stop-color="#ffdc15"/><stop offset="0" stop-color="#ffdb16"/><stop offset=".05" stop-color="#f9bb1f"/><stop offset=".1" stop-color="#f59c1b"/><stop offset=".16" stop-color="#ef7b1b"/><stop offset=".22" stop-color="#e86212"/><stop offset=".27" stop-color="#e84b1f"/><stop offset=".34" stop-color="#e63a21"/><stop offset=".41" stop-color="#e63323"/><stop offset=".5" stop-color="#e63023"/><stop offset=".59" stop-color="#e63323"/><stop offset=".66" stop-color="#e63a21"/><stop offset=".73" stop-color="#e84b1f"/><stop offset=".78" stop-color="#e86212"/><stop offset=".84" stop-color="#ef7b1b"/><stop offset=".9" stop-color="#f59c1b"/><stop offset=".95" stop-color="#f9bb1f"/><stop offset="1" stop-color="#ffdb16"/><stop offset="1" stop-color="#ffdc15"/></linearGradient><linearGradient id="linear-gradient-5" x1="464.79" y1="-138.13" x2="464.79" y2=".17" xlink:href="#linear-gradient-4"/><linearGradient id="linear-gradient-6" x1="464.79" y1="-132.43" x2="464.79" y2="-5.63" gradientTransform="translate(0 122.92) scale(1 -1)" gradientUnits="userSpaceOnUse"><stop offset="0" stop-color="#030304"/><stop offset="1" stop-color="#fff"/></linearGradient><radialGradient id="radial-gradient" cx="464.89" cy="-69.03" fx="464.89" fy="-69.03" r="55.37" gradientTransform="translate(0 122.92) scale(1 -1)" gradientUnits="userSpaceOnUse"><stop offset="0" stop-color="#cbc9c9"/><stop offset="1" stop-color="#747373"/></radialGradient><linearGradient id="linear-gradient-7" x1="-608.42" y1="-626.28" x2="-530.99" y2="-548.84" gradientTransform="translate(245.16 -628.42) rotate(-45) scale(1 -1)" gradientUnits="userSpaceOnUse"><stop offset="0" stop-color="#1d1327"/><stop offset=".24" stop-color="#372348"/><stop offset=".49" stop-color="#573a6c"/><stop offset=".71" stop-color="#714f8b"/><stop offset=".89" stop-color="#825c9f"/><stop offset="1" stop-color="#8862a6"/></linearGradient></defs><rect class="cls-10" x=".5" y=".5" width="720" height="378.91"/><g><g id="prodBg"><rect id="external-border" class="cls-20" x="166.89" y="102.08" width="387.23" height="175.75"/><rect id="internal-border" class="cls-1" x="171.53" y="106.72" width="378.1" height="166.49"/><rect id="bg" class="cls-19" x="175.57" y="110.78" width="369.85" height="158.21"/><rect id="bgPattern" class="cls-2" x="175.57" y="110.78" width="369.85" height="158.21"/></g><path class="cls-21" d="M341.52,221.97l32.42-69.31h8.33l-32.42,69.31h-8.33Z"/><g id="cityAny"><path class="cls-3" d="M464.83,262.45l-61-35.3v-70.4l61.1-35.2,60.9,35.2v70.4l-61,35.3h0Z"/><path class="cls-16" d="M464.83,261.05l-59.9-34.6v-69.1l59.9-34.6,59.8,34.6v69.1l-59.8,34.6h0Z"/><polygon class="cls-15" points="521.43 224.65 521.43 159.25 464.83 126.55 408.14 159.25 408.14 224.65 464.83 257.35 521.43 224.65"/><polygon class="cls-9" points="519.64 223.65 519.64 160.25 464.83 128.55 409.93 160.25 409.93 223.65 464.83 255.35 519.64 223.65"/><polygon class="cls-14" points="516.14 221.55 516.14 162.35 464.83 132.75 413.64 162.35 413.64 221.55 464.83 251.15 516.14 221.55"/><path class="cls-5" d="M521.14,222.85v-40.9h0c-37.5,5.6-75.1,5.6-112.6,0h0v40.9l56.3,32.5,56.3-32.5Z"/><g id="city-logo"><path class="cls-11" d="M425.64,199.15c0-21,17.6-37.9,39.1-37.9"/><path class="cls-11" d="M503.83,199.15c0-21-17.7-37.9-39.5-37.9"/><rect class="cls-6" x="424.93" y="196.65" width="79.6" height="5"/><rect class="cls-6" x="429.04" y="191.95" width="2.4" height="4.7"/><rect class="cls-6" x="430.33" y="188.35" width="1.1" height="3.8"/><rect class="cls-6" x="433.93" y="191.55" width="4.3" height="5.2"/><rect class="cls-6" x="433.93" y="185.45" width="2.2" height="6.1"/><rect class="cls-6" x="439.64" y="190.15" width="1.8" height="6.5"/><rect class="cls-6" x="441.43" y="177.15" width="2" height="19.5"/><rect class="cls-6" x="442.54" y="175.05" width="1" height="2"/><rect class="cls-6" x="443.54" y="191.95" width="3.4" height="4.7"/><rect class="cls-6" x="446.24" y="189.75" width=".7" height="2.4"/><rect class="cls-6" x="446.93" y="172.45" width="2.7" height="24.3"/><rect class="cls-6" x="449.74" y="176.85" width="1.4" height="19.9"/><rect class="cls-6" x="451.14" y="183.85" width="2.9" height="12.8"/><rect class="cls-6" x="454.04" y="186.55" width="1.8" height="10.3"/><rect class="cls-6" x="457.43" y="180.25" width="3.8" height="16.4"/><rect class="cls-6" x="461.33" y="186.75" width="1.9" height="9.9"/><rect class="cls-6" x="463.24" y="168.35" width="4.7" height="28.3"/><rect class="cls-6" x="470.14" y="174.65" width="2.4" height="22"/><rect class="cls-6" x="475.04" y="179.15" width="2.6" height="17.5"/><rect class="cls-6" x="472.43" y="190.85" width="2.6" height="5.8"/><rect class="cls-6" x="477.64" y="193.45" width="1.9" height="3.3"/><rect class="cls-6" x="481.74" y="191.75" width="1.7" height="4.9"/><rect class="cls-6" x="483.43" y="183.85" width="3" height="12.8"/><rect class="cls-6" x="486.33" y="177.95" width="2.2" height="18.7"/><rect class="cls-6" x="488.54" y="191.05" width="1.8" height="5.6"/><rect class="cls-6" x="491.33" y="187.65" width="2.3" height="9"/><rect class="cls-6" x="493.64" y="186.75" width="2.5" height="9.9"/><rect class="cls-6" x="497.83" y="192.25" width="1.1" height="4.6"/><rect class="cls-6" x="499.04" y="194.45" width="2.2" height="2.3"/></g></g><g id="energy"><rect class="cls-8" x="199.67" y="131.77" width="116.22" height="116.22"/><rect class="cls-18" x="203.03" y="135.13" width="109.51" height="109.51"/><polygon class="cls-13" points="307.22 140.44 307.22 239.33 208.34 239.33 208.34 140.44 307.22 140.44"/><polygon class="cls-12" points="245.71 178.56 278.33 158.34 260.9 183.59 270.13 198.6 238.07 218.82 254.19 193.66 245.71 178.56"/><path id="darker" class="cls-4" d="M312.54,244.64h-109.51v-60.02s34.48,5.31,54.71,5.31,54.8-5.31,54.8-5.31v60.02Z"/></g></g></svg>