<?xml version="1.0" encoding="UTF-8"?><svg id="Layer" xmlns="http://www.w3.org/2000/svg" xmlns:xlink="http://www.w3.org/1999/xlink" viewBox="0 0 721 379.91"><defs><style>.cls-1{fill:#020303;}.cls-2{fill:url(#linear-gradient-6);}.cls-3{fill:#48ad38;}.cls-4{fill:#1f1f1e;}.cls-5{fill:#0b572a;stroke:#1d4422;stroke-width:3.69px;}.cls-5,.cls-6,.cls-7,.cls-8,.cls-9,.cls-10,.cls-11{stroke-miterlimit:10;}.cls-6{opacity:0;stroke:#1d1d1b;}.cls-6,.cls-11{fill:#fff;}.cls-12{fill:url(#Nowy_wzorek_3);opacity:.1;}.cls-12,.cls-13,.cls-14,.cls-15{isolation:isolate;}.cls-13{opacity:.15;}.cls-13,.cls-14,.cls-16{fill:#030304;}.cls-17{fill:url(#radial-gradient);}.cls-7{stroke-linecap:square;}.cls-7,.cls-8,.cls-9,.cls-18{fill:none;}.cls-7,.cls-8,.cls-9,.cls-10{stroke:#020303;}.cls-7,.cls-10{stroke-width:3.23px;}.cls-8{stroke-width:4.84px;}.cls-9{stroke-width:2.42px;}.cls-19{fill:url(#linear-gradient-5);}.cls-20{fill:url(#linear-gradient-7);}.cls-10{fill:url(#linear-gradient);}.cls-14{opacity:.05;}.cls-21{fill:#7f358b;}.cls-15{fill:url(#linear-gradient-2);opacity:.31;}.cls-22{fill:url(#linear-gradient-3);}.cls-11{stroke:#030304;stroke-width:.92px;}.cls-23{fill:url(#linear-gradient-4);}.cls-24{fill:#010101;}.cls-25{fill:url(#linear-gradient-8);}</style><linearGradient id="linear-gradient" x1="574.48" y1="98.77" x2="574.48" y2="237.98" gradientTransform="translate(0 363.09) scale(1 -1)" gradientUnits="userSpaceOnUse"><stop offset="0" stop-color="#951917"/><stop offset=".21" stop-color="#b13c1e"/><stop offset=".44" stop-color="#cb5e26"/><stop offset=".66" stop-color="#e17932"/><stop offset=".85" stop-color="#ee8c39"/><stop offset="1" stop-color="#f3923b"/></linearGradient><radialGradient id="radial-gradient" cx="574.56" cy="168.38" fx="574.56" fy="168.38" r="79.28" gradientTransform="translate(0 363.09) scale(1 -1)" gradientUnits="userSpaceOnUse"><stop offset="0" stop-color="#f3923b" stop-opacity=".5"/><stop offset="1" stop-color="#d23f16"/></radialGradient><linearGradient id="linear-gradient-2" x1="574.48" y1="98.77" x2="574.48" y2="187.46" gradientTransform="translate(0 363.09) scale(1 -1)" gradientUnits="userSpaceOnUse"><stop offset="0" stop-color="#1f1f1d"/><stop offset="1" stop-color="#3e3d3c"/></linearGradient><linearGradient id="linear-gradient-3" x1="414.32" y1="616.08" x2="67.34" y2="269.1" gradientTransform="translate(0 -252.64)" gradientUnits="userSpaceOnUse"><stop offset="0" stop-color="#9e9d9c"/><stop offset=".54" stop-color="#010202"/><stop offset="1" stop-color="#9e9d9c"/></linearGradient><linearGradient id="linear-gradient-4" x1="240.9" y1="592.23" x2="240.9" y2="292.98" gradientTransform="translate(0 -252.64)" gradientUnits="userSpaceOnUse"><stop offset="0" stop-color="#462c1b"/><stop offset="1" stop-color="#b18048"/></linearGradient><linearGradient id="linear-gradient-5" x1="240.84" y1="588.07" x2="240.84" y2="296.99" gradientTransform="translate(0 -252.64)" gradientUnits="userSpaceOnUse"><stop offset="0" stop-color="#946137"/><stop offset="1" stop-color="#805127"/></linearGradient><pattern id="Nowy_wzorek_3" x="0" y="0" width="19.7" height="21.7" patternTransform="translate(43.9 16649.47)" patternUnits="userSpaceOnUse" viewBox="0 0 19.7 21.7"><g><rect class="cls-18" width="19.7" height="21.7"/><g><rect class="cls-18" width="19.7" height="21.7"/><g><rect class="cls-18" width="19.7" height="21.7"/><g><rect class="cls-18" width="19.7" height="21.7"/><g><rect class="cls-18" width="19.7" height="21.7"/><path class="cls-4" d="M16.6,8.7c2.1,2.1,2.1,5.6,0,7.7l-1.2,1.2c-2.1,2.1-5.6,2.1-7.8,0L3.1,13c-2.1-2.1-2.1-5.6,0-7.7l1.2-1.2c2.1-2.1,5.6-2.1,7.7,0l4.6,4.6Z"/></g></g></g></g></g></pattern><linearGradient id="linear-gradient-6" x1="-641.53" y1="-686.5" x2="-564.77" y2="-609.76" gradientTransform="translate(245.68 -627.62) rotate(-45) scale(1 -1)" gradientUnits="userSpaceOnUse"><stop offset="0" stop-color="#0f6936"/><stop offset=".04" stop-color="#0f6c37"/><stop offset=".08" stop-color="#077739"/><stop offset=".13" stop-color="#108837"/><stop offset=".15" stop-color="#0a9039"/><stop offset=".35" stop-color="#36993d"/><stop offset=".76" stop-color="#5fb048"/><stop offset="1" stop-color="#6fb74b"/></linearGradient><linearGradient id="linear-gradient-7" x1="-499.04" y1="1256.74" x2="-422.27" y2="1180" gradientTransform="translate(-191.13 -1064.43) rotate(-45)" gradientUnits="userSpaceOnUse"><stop offset="0" stop-color="#1d1427"/><stop offset=".24" stop-color="#372348"/><stop offset=".49" stop-color="#573b6c"/><stop offset=".71" stop-color="#72508c"/><stop offset=".89" stop-color="#835ca0"/><stop offset="1" stop-color="#8963a7"/></linearGradient><linearGradient id="linear-gradient-8" x1="-592.44" y1="1163.34" x2="-515.7" y2="1086.58" xlink:href="#linear-gradient-7"/></defs><rect class="cls-6" x=".5" y=".5" width="720" height="378.91"/><g><g id="tr"><rect class="cls-10" x="476" y="125.11" width="196.95" height="139.21"/><rect class="cls-17" x="482.13" y="131.24" width="184.86" height="126.95"/><g id="logo"><g><circle class="cls-8" cx="574.56" cy="190.11" r="35.81"/><path class="cls-9" d="M574.56,154.3s18.55,7.58,18.55,35.81-18.55,35.81-18.55,35.81"/><path class="cls-9" d="M574.56,154.3s-18.55,7.58-18.55,35.81,18.55,35.81,18.55,35.81"/><line class="cls-9" x1="574.56" y1="154.3" x2="574.56" y2="225.92"/><line class="cls-9" x1="538.75" y1="190.11" x2="610.37" y2="190.11"/><path class="cls-9" d="M546.65,167.53s10.48,5.32,27.74,5.32,27.74-5.32,27.74-5.32"/><path class="cls-9" d="M546.65,213.18c0-.16,10.48-5.32,27.74-5.32s27.74,5.32,27.74,5.32"/><polygon class="cls-1" points="596.01 160.75 605.53 152.04 592.95 149.46 620.37 141.56 614.08 170.11 610.37 155.92 601.34 166.4 596.01 160.75"/><polyline class="cls-7" points="574.56 234.15 561.66 234.15 567.14 234.15 567.14 246.89"/><polyline class="cls-7" points="583.75 246.89 583.75 234.15 581.33 234.15 578.27 242.7 577.3 242.7 574.72 238.67 572.79 238.67 572.79 246.89"/><path class="cls-1" d="M562.62,242.21c0,1.94-4.84,4.84-6.77,4.84s-13.55,.81-13.55-1.13,11.61-5.97,13.55-5.97c1.94,.16,6.77,.32,6.77,2.26Z"/><path class="cls-1" d="M556.82,237.86c-1.13,.97-5.48-.65-6.45-1.77s-7.1-7.9-5.97-8.87,9.36,4.36,10.32,5.48c.97,1.13,3.23,4.19,2.1,5.16Z"/><path class="cls-1" d="M548.27,240.12c-.32,1.45-4.52,3.06-6.13,2.74-1.45-.32-13.71-1.29-13.39-2.74s13.07-3.06,14.52-2.74c1.61,.32,5.32,1.29,5,2.74Z"/><path class="cls-1" d="M545.04,236.25c-1.45,.48-5-2.26-5.48-3.71s-6.13-12.42-4.84-12.9,9.36,9.52,10,10.97c.48,1.45,1.61,5.16,.32,5.65Z"/><path class="cls-1" d="M536.17,235.6c-.97,1.45-5.65,1.45-6.94,.65s-12.74-6.29-11.78-7.74,13.87,1.61,15.16,2.58c1.29,.81,4.52,3.06,3.55,4.52Z"/><path class="cls-1" d="M532.94,230.44c-1.61,0-3.87-3.71-3.87-5.16s-1.29-12.9,.32-12.9,5.48,11.61,5.48,13.07c-.16,1.29-.32,5-1.94,5Z"/><path class="cls-1" d="M524.39,220.6c-1.45-.32-2.9-4.36-2.58-5.81,.32-1.29,1.61-12.58,3.06-12.26,1.45,.32,2.58,12.26,2.26,13.55-.32,1.45-1.29,4.84-2.74,4.52Z"/><path class="cls-1" d="M525.2,226.89c-1.29,.97-5.65-.48-6.61-1.61-.97-1.29-10-9.84-8.71-10.81s12.26,5.97,13.23,7.1c.97,1.13,3.23,4.36,2.1,5.32Z"/><path class="cls-1" d="M517.78,214.79c-1.29,.65-5.16-1.45-5.81-2.74s-7.58-10.97-6.13-11.78c1.29-.65,10.32,7.9,10.97,9.19,.65,1.29,2.26,4.52,.97,5.32Z"/><path class="cls-1" d="M518.59,210.11c-1.13-.48-1.61-4.52-1.13-5.81s3.55-12.42,4.68-11.94c1.13,.48,.16,12.26-.32,13.55-.65,1.45-2.1,4.68-3.23,4.19Z"/><path class="cls-1" d="M513.59,202.53c-1.29,.32-4.03-2.9-4.36-4.52-.32-1.45-4.03-12.74-2.9-13.07,1.29-.32,7.1,10.65,7.42,12.1,.32,1.45,1.13,5.32-.16,5.48Z"/><path class="cls-1" d="M515.84,197.53c-1.13-.65-.97-4.36-.32-5.48s4.84-10.16,5.97-9.52-1.45,10.97-2.1,11.94c-.65,1.13-2.42,3.71-3.55,3.06Z"/><path class="cls-1" d="M512.46,188.34c-1.29-.16-3.06-3.87-2.9-5.32s-.16-12.58,1.13-12.58c1.29,.16,3.71,11.61,3.55,13.07s-.48,5-1.77,4.84Z"/><path class="cls-1" d="M515.68,184.63c-.81-.81,.48-4.52,1.45-5.32s8.07-8.87,8.87-7.9c.81,.81-5,10.32-5.97,11.13-.97,.81-3.55,3.06-4.36,2.1Z"/><path class="cls-1" d="M520.52,172.85c-.65-.81,.32-3.55,1.13-4.36,.81-.65,6.45-7.1,7.1-6.29s-3.87,8.23-4.68,9.03c-.97,.48-2.9,2.26-3.55,1.61Z"/><path class="cls-1" d="M515.04,174.47c-.97-.32-1.61-4.19-1.29-5.48,.32-1.29,2.58-12.26,3.55-12.1,.97,.32,.48,11.78,.16,13.07-.16,1.61-1.29,5-2.42,4.52Z"/><path class="cls-1" d="M521.17,165.92c-1.29-.48-1.94-4.36-1.45-5.65,.48-1.29,3.06-11.78,4.36-11.29,1.29,.48,.65,11.78,.16,13.07-.48,1.13-1.77,4.36-3.06,3.87Z"/><path class="cls-1" d="M586.5,241.73c0,1.94,4.84,4.84,6.77,4.84s13.55,.81,13.55-1.13-11.61-5.97-13.55-5.97-6.77,.32-6.77,2.26Z"/><path class="cls-1" d="M592.3,237.38c1.13,.97,5.48-.65,6.45-1.77s7.1-7.9,5.97-8.87c-1.13-.97-9.36,4.36-10.32,5.48-.97,1.13-3.23,4.19-2.1,5.16Z"/><path class="cls-1" d="M600.85,239.63c.32,1.45,4.52,3.06,6.13,2.74,1.45-.32,13.71-1.29,13.39-2.74-.32-1.45-13.07-3.06-14.52-2.74-1.61,.32-5.32,1.29-5,2.74Z"/><path class="cls-1" d="M604.08,235.76c1.45,.48,5-2.26,5.48-3.71s6.13-12.42,4.68-12.9-9.36,9.52-10,10.97c-.32,1.45-1.45,5.16-.16,5.65Z"/><path class="cls-1" d="M612.95,235.12c.97,1.45,5.65,1.45,6.94,.65s12.58-6.29,11.61-7.74c-.97-1.45-13.87,1.61-15.16,2.58-1.13,.81-4.36,3.06-3.39,4.52Z"/><path class="cls-1" d="M616.18,229.96c1.61,0,3.87-3.71,3.87-5.16s1.29-12.9-.32-12.9-5.48,11.61-5.48,13.07c.16,1.45,.32,5,1.94,5Z"/><path class="cls-1" d="M624.73,220.12c1.45-.32,2.9-4.36,2.58-5.81-.32-1.29-1.61-12.58-3.06-12.26-1.45,.32-2.58,12.26-2.26,13.55,.32,1.45,1.29,4.84,2.74,4.52Z"/><path class="cls-1" d="M623.92,226.41c1.29,.97,5.65-.48,6.61-1.61,.97-1.29,10-9.84,8.71-10.81-1.29-.97-12.26,5.97-13.23,7.1-.97,1.29-3.23,4.36-2.1,5.32Z"/><path class="cls-1" d="M631.34,214.31c1.29,.65,5.16-1.45,5.81-2.74s7.58-10.97,6.13-11.78c-1.29-.65-10.32,7.9-10.97,9.19-.65,1.29-2.26,4.68-.97,5.32Z"/><path class="cls-1" d="M630.53,209.79c1.13-.48,1.77-4.52,1.13-5.81s-3.55-12.42-4.68-11.94c-1.13,.48-.16,12.26,.32,13.55,.65,1.29,2.1,4.68,3.23,4.19Z"/><path class="cls-1" d="M635.53,202.05c1.29,.32,4.03-2.9,4.36-4.52,.32-1.45,4.19-12.74,2.9-13.07-1.29-.32-7.1,10.65-7.42,12.1-.32,1.61-1.13,5.32,.16,5.48Z"/><path class="cls-1" d="M633.28,197.05c1.13-.65,1.13-4.36,.32-5.48-.65-1.13-5-10.16-5.97-9.52s1.45,10.97,2.1,11.94c.65,1.13,2.42,3.87,3.55,3.06Z"/><path class="cls-1" d="M636.66,187.85c1.29-.16,3.06-3.87,2.9-5.32-.16-1.45,.16-12.74-1.13-12.58-1.29,.16-3.71,11.61-3.55,13.07,0,1.45,.48,5,1.77,4.84Z"/><path class="cls-1" d="M633.44,184.14c.81-.81-.48-4.52-1.45-5.32s-8.07-8.87-8.87-7.9c-.81,.81,5,10.32,5.97,11.13,.97,.81,3.55,3.06,4.36,2.1Z"/><path class="cls-1" d="M628.6,172.37c.65-.81-.32-3.55-1.13-4.36s-6.45-7.1-7.1-6.29,3.87,8.23,4.68,9.03c.81,.65,2.9,2.26,3.55,1.61Z"/><path class="cls-1" d="M633.92,174.14c.97-.32,1.61-4.19,1.29-5.48-.32-1.29-2.58-12.26-3.55-12.1-.97,.32-.48,11.78-.16,13.07,.32,1.45,1.45,4.84,2.42,4.52Z"/><path class="cls-1" d="M627.95,165.43c1.29-.48,1.94-4.36,1.45-5.65-.48-1.29-3.06-11.78-4.36-11.29-1.29,.48-.65,11.78-.16,13.07,.48,1.13,1.77,4.36,3.06,3.87Z"/></g></g><path id="darker" class="cls-15" d="M672.31,175.92c-3.06,6.13-55.01,16.13-97.75,16.13s-95.49-10.97-98.56-16.13v88.4h196.95v-87.43c-.16-1.13-.48-1.61-.65-.97Z"/></g><g id="prodBg"><rect id="external-border" class="cls-22" x="48.04" y="35.75" width="385.57" height="308.4"/><rect id="internal-border" class="cls-23" x="52.63" y="40.34" width="376.55" height="299.25"/><rect id="bg" class="cls-19" x="56.64" y="44.35" width="368.4" height="291.08"/><rect id="bgPattern" class="cls-12" x="56.64" y="44.35" width="368.4" height="291.08"/></g><g id="plant"><rect class="cls-16" x="219.9" y="199.59" width="115.16" height="115.16"/><rect class="cls-2" x="223.22" y="202.9" width="108.53" height="108.53"/><rect class="cls-3" x="228.5" y="208.19" width="97.98" height="97.98"/><path id="leaf" class="cls-5" d="M277.43,232.36c-14.03,1.94-24.75,11.09-24.75,24.75,0,3.32,.65,6.56,1.84,9.52-2.59,1.74-6.38,4.06-8.23,4.71-3.24,1.1-9.7,.37-9.97,.92s1.84,6.38,2.59,6.66,6.66,.27,9.97-.92c2.39-.82,6.73-3.61,9.25-5.46,4.54,5.73,11.54,9.32,19.39,9.32,13.66,0,24.58-8.6,24.58-22.26,0-5.26,1.3-11.91,3.24-16.08,2.12-4.61,13.11-7.58,13.11-7.58-1.1-3.61-35.47-4.34-41-3.61l-.02,.02Z"/><path id="darker-2" class="cls-14" d="M331.74,311.43h-108.53v-59.47s34.17,5.26,54.21,5.26,54.31-5.26,54.31-5.26v59.47Z"/></g><path class="cls-24" d="M88.87,129.55v-13.51h32.43v13.51h-32.43Z"/><g id="energy"><rect class="cls-16" x="287.08" y="65.24" width="115.16" height="115.16"/><rect class="cls-20" x="290.39" y="68.55" width="108.53" height="108.53"/><polygon class="cls-21" points="393.66 73.81 393.66 171.82 295.65 171.82 295.65 73.81 393.66 73.81"/><polygon class="cls-11" points="332.69 111.6 365.02 91.56 347.75 116.59 356.89 131.47 325.11 151.51 341.09 126.56 332.69 111.6"/><path id="darker-2" class="cls-13" d="M398.92,177.08h-108.53v-59.47s34.17,5.26,54.21,5.26,54.31-5.26,54.31-5.26v59.47h0Z"/></g><path class="cls-24" d="M162.43,285.26v-24.1h-24.1v-9.9h24.1v-24.1h9.9v24.1h24.1v9.9h-24.1v24.1h-9.9Z"/><g id="energy-2"><rect class="cls-16" x="154.97" y="65.24" width="115.16" height="115.16"/><rect class="cls-25" x="158.29" y="68.55" width="108.53" height="108.53"/><polygon class="cls-21" points="261.55 73.81 261.55 171.82 163.55 171.82 163.55 73.81 261.55 73.81"/><polygon class="cls-11" points="200.59 111.6 232.92 91.56 215.64 116.59 224.79 131.47 193.01 151.51 208.99 126.56 200.59 111.6"/><path id="darker-3" class="cls-13" d="M266.81,177.08h-108.53v-59.47s34.17,5.26,54.21,5.26,54.31-5.26,54.31-5.26v59.47Z"/></g></g></svg>