<?xml version="1.0" encoding="UTF-8"?><svg id="Layer" xmlns="http://www.w3.org/2000/svg" xmlns:xlink="http://www.w3.org/1999/xlink" viewBox="0 0 721 379.91"><defs><style>.cls-1{fill:url(#linear-gradient-2);}.cls-2,.cls-3{fill:#020303;}.cls-4{fill:url(#linear-gradient-6);}.cls-5{fill:#1f1f1e;}.cls-6{fill:url(#linear-gradient-4);opacity:.4;}.cls-6,.cls-3,.cls-7{isolation:isolate;}.cls-8{fill:#fff;opacity:0;stroke:#1d1d1b;}.cls-8,.cls-9{stroke-miterlimit:10;}.cls-3{opacity:.64;}.cls-10{fill:url(#linear-gradient-5);}.cls-11{fill:#50504f;}.cls-7{fill:url(#Nowy_wzorek_2);opacity:.14;}.cls-12,.cls-9{fill:none;}.cls-13{fill:url(#linear-gradient-7);}.cls-9{stroke:#ffd80c;stroke-width:4.66px;}.cls-14{fill:url(#linear-gradient-3);}.cls-15{fill:url(#linear-gradient);}</style><linearGradient id="linear-gradient" x1="504.99" y1="586.02" x2="218.14" y2="299.17" gradientTransform="translate(0 -252.64)" gradientUnits="userSpaceOnUse"><stop offset="0" stop-color="#9e9d9c"/><stop offset=".54" stop-color="#010202"/><stop offset="1" stop-color="#9e9d9c"/></linearGradient><linearGradient id="linear-gradient-2" x1="361.64" y1="593.68" x2="361.64" y2="291.53" gradientTransform="translate(0 -252.64)" gradientUnits="userSpaceOnUse"><stop offset="0" stop-color="#462c1b"/><stop offset="1" stop-color="#b18048"/></linearGradient><linearGradient id="linear-gradient-3" x1="361.58" y1="589.48" x2="361.58" y2="295.58" gradientTransform="translate(0 -252.64)" gradientUnits="userSpaceOnUse"><stop offset="0" stop-color="#946137"/><stop offset="1" stop-color="#805127"/></linearGradient><pattern id="Nowy_wzorek_2" x="0" y="0" width="56.69" height="62.45" patternTransform="translate(.5 .5)" patternUnits="userSpaceOnUse" viewBox="0 0 56.69 62.45"><g><rect class="cls-12" width="56.69" height="62.45"/><g><rect class="cls-12" x="0" y="0" width="56.69" height="62.45"/><g><rect class="cls-12" x="0" y="0" width="56.69" height="62.45"/><g><rect class="cls-12" x="0" y="0" width="56.69" height="62.45"/><path class="cls-5" d="M47.77,25.04c6.04,6.04,6.04,16.12,0,22.16l-3.45,3.45c-6.04,6.04-16.12,6.04-22.45,0l-12.95-13.24c-6.04-6.04-6.04-16.12,0-22.16l3.45-3.45c6.04-6.04,16.12-6.04,22.16,0l13.24,13.24Z"/></g></g></g></g></pattern><linearGradient id="linear-gradient-4" x1="401.51" y1="429.09" x2="401.51" y2="288.79" gradientTransform="translate(0 -236.64)" gradientUnits="userSpaceOnUse"><stop offset="0" stop-color="#ffdc15"/><stop offset="0" stop-color="#ffdb16"/><stop offset=".05" stop-color="#f9bb1f"/><stop offset=".1" stop-color="#f59c1b"/><stop offset=".16" stop-color="#ef7b1b"/><stop offset=".22" stop-color="#e86212"/><stop offset=".27" stop-color="#e84b1f"/><stop offset=".34" stop-color="#e63a21"/><stop offset=".41" stop-color="#e63323"/><stop offset=".5" stop-color="#e63023"/><stop offset=".59" stop-color="#e63323"/><stop offset=".66" stop-color="#e63a21"/><stop offset=".73" stop-color="#e84b1f"/><stop offset=".78" stop-color="#e86212"/><stop offset=".84" stop-color="#ef7b1b"/><stop offset=".9" stop-color="#f59c1b"/><stop offset=".95" stop-color="#f9bb1f"/><stop offset="1" stop-color="#ffdb16"/><stop offset="1" stop-color="#ffdc15"/></linearGradient><linearGradient id="linear-gradient-5" x1="401.54" y1="423.93" x2="401.54" y2="293.96" xlink:href="#linear-gradient-4"/><linearGradient id="linear-gradient-6" x1="-458.92" y1="-680.05" x2="-381.45" y2="-602.58" gradientTransform="translate(245.16 -628.42) rotate(-45) scale(1 -1)" gradientUnits="userSpaceOnUse"><stop offset="0" stop-color="#020303"/><stop offset="1" stop-color="#797879"/></linearGradient><linearGradient id="linear-gradient-7" x1="-554.38" y1="-775.51" x2="-476.91" y2="-698.04" xlink:href="#linear-gradient-6"/></defs><rect class="cls-8" x=".5" y=".5" width="720" height="378.91"/><g id="prodBg"><rect id="external-border" class="cls-15" x="230.41" y="34.26" width="262.31" height="311.39"/><rect id="internal-border" class="cls-1" x="235.04" y="38.89" width="253.2" height="302.15"/><rect id="bg" class="cls-14" x="239.09" y="42.94" width="244.97" height="293.9"/><rect id="bgPattern" class="cls-7" x="239.09" y="42.94" width="244.97" height="293.9"/></g><path d="M276.63,128.96v-13.64h32.74v13.64h-32.74Z"/><path d="M285.9,286.18v-24.34h-24.34v-9.99h24.34v-24.34h9.99v24.34h24.34v9.99h-24.34v24.34h-9.99Z"/><g id="titan"><rect class="cls-6" x="331.36" y="52.16" width="140.3" height="140.3"/><rect class="cls-10" x="336.55" y="57.32" width="129.97" height="129.97"/><rect class="cls-2" x="343.38" y="64.03" width="116.27" height="116.27"/><rect class="cls-4" x="346.73" y="67.39" width="109.56" height="109.56"/><rect class="cls-11" x="352.05" y="72.7" width="98.93" height="98.93"/><path id="darker" class="cls-3" d="M456.29,176.95h-109.56v-60.05s34.5,5.31,54.73,5.31,54.83-5.31,54.83-5.31v60.05Z"/><polygon class="cls-9" points="402.12 89.86 412.47 111.58 436.34 114.66 418.81 131.16 423.28 154.75 402.12 143.19 381.05 154.75 385.52 131.16 367.99 114.66 391.86 111.58 402.12 89.86"/></g><g id="titan-2"><rect class="cls-2" x="343.38" y="199.03" width="116.27" height="116.27"/><rect class="cls-13" x="346.73" y="202.39" width="109.56" height="109.56"/><rect class="cls-11" x="352.05" y="207.7" width="98.93" height="98.93"/><path id="darker-2" class="cls-3" d="M456.29,311.95h-109.56v-60.05s34.5,5.31,54.73,5.31,54.83-5.31,54.83-5.31v60.05Z"/><polygon class="cls-9" points="402.12 224.86 412.47 246.58 436.34 249.66 418.81 266.16 423.28 289.75 402.12 278.19 381.05 289.75 385.52 266.16 367.99 249.66 391.86 246.58 402.12 224.86"/></g></svg>