<?xml version="1.0" encoding="UTF-8"?><svg id="Layer" xmlns="http://www.w3.org/2000/svg" xmlns:xlink="http://www.w3.org/1999/xlink" viewBox="0 0 721 379.91"><defs><style>.cls-1{fill:url(#linear-gradient-2);}.cls-2{fill:#010202;stroke-width:1.88px;}.cls-2,.cls-3,.cls-4,.cls-5{stroke-miterlimit:10;}.cls-2,.cls-5{stroke:#030304;}.cls-6{fill:#020303;}.cls-7{fill:url(#linear-gradient-6);}.cls-8{fill:#1f1f1e;}.cls-3{stroke:#020303;stroke-width:1.62px;}.cls-3,.cls-9{fill:none;}.cls-4{opacity:0;stroke:#1d1d1b;}.cls-4,.cls-5{fill:#fff;}.cls-10{opacity:.15;}.cls-10,.cls-11,.cls-12{isolation:isolate;}.cls-10,.cls-13{fill:#030304;}.cls-14{fill:url(#radial-gradient);}.cls-11{fill:url(#Nowy_wzorek_4);opacity:.1;}.cls-15{fill:url(#linear-gradient-5);}.cls-5{stroke-width:.91px;}.cls-16{fill:url(#linear-gradient-7);}.cls-17{fill:url(#linear-gradient-9);}.cls-18{fill:#7f358b;}.cls-19{fill:url(#linear-gradient-3);}.cls-20{fill:url(#linear-gradient);}.cls-12{opacity:.29;}.cls-12,.cls-21{fill:#010101;}.cls-22{fill:url(#linear-gradient-4);}.cls-23{fill:url(#linear-gradient-8);}</style><linearGradient id="linear-gradient" x1="363.47" y1="35.2" x2="86.52" y2="312.16" gradientTransform="translate(0 364.63) scale(1 -1)" gradientUnits="userSpaceOnUse"><stop offset="0" stop-color="#9e9d9c"/><stop offset=".54" stop-color="#010202"/><stop offset="1" stop-color="#9e9d9c"/></linearGradient><linearGradient id="linear-gradient-2" x1="225.07" y1="25.5" x2="225.07" y2="321.83" gradientTransform="translate(0 364.63) scale(1 -1)" gradientUnits="userSpaceOnUse"><stop offset="0" stop-color="#462c1b"/><stop offset="1" stop-color="#b18048"/></linearGradient><linearGradient id="linear-gradient-3" x1="225.01" y1="29.62" x2="225.01" y2="317.86" gradientTransform="translate(0 364.63) scale(1 -1)" gradientUnits="userSpaceOnUse"><stop offset="0" stop-color="#946137"/><stop offset="1" stop-color="#805127"/></linearGradient><pattern id="Nowy_wzorek_4" x="0" y="0" width="19.7" height="21.7" patternTransform="translate(43.9 -32159.12) scale(1 -1)" patternUnits="userSpaceOnUse" viewBox="0 0 19.7 21.7"><g><rect class="cls-9" width="19.7" height="21.7"/><g><rect class="cls-9" width="19.7" height="21.7"/><g><rect class="cls-9" width="19.7" height="21.7"/><g><rect class="cls-9" width="19.7" height="21.7"/><g><rect class="cls-9" width="19.7" height="21.7"/><g><rect class="cls-9" width="19.7" height="21.7"/><path class="cls-8" d="M16.6,13c2.1-2.1,2.1-5.6,0-7.7l-1.2-1.2c-2.1-2.1-5.6-2.1-7.8,0L3.1,8.7c-2.1,2.1-2.1,5.6,0,7.7l1.2,1.2c2.1,2.1,5.6,2.1,7.7,0l4.6-4.6Z"/></g></g></g></g></g></g></pattern><linearGradient id="linear-gradient-4" x1="262.82" y1="52.73" x2="262.82" y2="160.24" gradientTransform="translate(0 363.62) scale(1 -1)" gradientUnits="userSpaceOnUse"><stop offset=".16" stop-color="#823a13"/><stop offset=".18" stop-color="#985c1a"/><stop offset=".22" stop-color="#ae7d22"/><stop offset=".26" stop-color="#c39d26"/><stop offset=".3" stop-color="#d6b92e"/><stop offset=".35" stop-color="#e4cf36"/><stop offset=".41" stop-color="#efe036"/><stop offset=".48" stop-color="#f6e947"/><stop offset=".58" stop-color="#f8ea4e"/><stop offset=".86" stop-color="#f6ea4d"/><stop offset="1" stop-color="#fcf4f9"/></linearGradient><linearGradient id="linear-gradient-5" x1="262.83" y1="165.97" x2="262.83" y2="1.64" gradientTransform="translate(0 363.62) scale(1 -1)" gradientUnits="userSpaceOnUse"><stop offset=".26" stop-color="#f6ea4d"/><stop offset=".86" stop-color="#803813"/></linearGradient><linearGradient id="linear-gradient-6" x1="262.88" y1="54.21" x2="262.88" y2="158.64" gradientTransform="translate(0 363.62) scale(1 -1)" gradientUnits="userSpaceOnUse"><stop offset=".16" stop-color="#803813"/><stop offset=".17" stop-color="#8c471e"/><stop offset=".18" stop-color="#a26b3c"/><stop offset=".2" stop-color="#b78954"/><stop offset=".22" stop-color="#c7a468"/><stop offset=".24" stop-color="#d7bb7a"/><stop offset=".26" stop-color="#e2cc88"/><stop offset=".3" stop-color="#ead891"/><stop offset=".34" stop-color="#eede97"/><stop offset=".46" stop-color="#efe097"/><stop offset=".7" stop-color="#803813"/><stop offset=".73" stop-color="#e6d234"/><stop offset=".74" stop-color="#ebd948"/><stop offset=".75" stop-color="#eede6d"/><stop offset=".77" stop-color="#f0e28a"/><stop offset=".79" stop-color="#f8ebaa"/><stop offset=".8" stop-color="#f8edbf"/><stop offset=".83" stop-color="#faf0cf"/><stop offset=".85" stop-color="#fcf2da"/><stop offset=".89" stop-color="#fdf4e1"/><stop offset=".99" stop-color="#fdf5e3"/></linearGradient><linearGradient id="linear-gradient-7" x1="262.81" y1="143.34" x2="262.81" y2="-17.84" gradientTransform="translate(0 363.62) scale(1 -1)" gradientUnits="userSpaceOnUse"><stop offset=".26" stop-color="#f6ea4d"/><stop offset=".77" stop-color="#803813"/></linearGradient><linearGradient id="linear-gradient-8" x1="-557.72" y1="-582.39" x2="-481.73" y2="-506.35" gradientTransform="translate(245.35 -627.96) rotate(-45) scale(1 -1)" gradientUnits="userSpaceOnUse"><stop offset="0" stop-color="#1d1427"/><stop offset=".24" stop-color="#372348"/><stop offset=".49" stop-color="#573b6c"/><stop offset=".71" stop-color="#72508c"/><stop offset=".89" stop-color="#835ca0"/><stop offset="1" stop-color="#8963a7"/></linearGradient><linearGradient id="linear-gradient-9" x1="520.55" y1="60.87" x2="520.55" y2="282.86" gradientTransform="translate(0 363.09) scale(1 -1)" gradientUnits="userSpaceOnUse"><stop offset="0" stop-color="#010101"/><stop offset="1" stop-color="#fff"/></linearGradient><radialGradient id="radial-gradient" cx="520.73" cy="171.87" fx="520.73" fy="171.87" r="96.91" gradientTransform="translate(0 363.09) scale(1 -1)" gradientUnits="userSpaceOnUse"><stop offset="0" stop-color="#c8c7c7"/><stop offset="1" stop-color="#727070"/></radialGradient></defs><rect class="cls-4" x=".5" y=".5" width="720" height="378.91"/><g id="prodBg"><rect id="external-border" class="cls-20" x="100.74" y="38.26" width="248.52" height="305.39"/><rect id="internal-border" class="cls-1" x="105.28" y="42.8" width="239.59" height="296.33"/><rect id="bg" class="cls-19" x="109.25" y="46.77" width="231.52" height="288.23"/><rect id="bgPattern" class="cls-11" x="109.25" y="46.77" width="231.52" height="288.23"/></g><path class="cls-21" d="M152.82,287.47v-23.87h-23.87v-9.8h23.87v-23.87h9.8v23.87h23.87v9.8h-23.87v23.87h-9.8Z"/><path class="cls-21" d="M142.77,131.14v-13.38h32.11v13.38h-32.11Z"/><g id="mln"><polygon id="obram_czarne" class="cls-2" points="223.04 200.12 205.76 217.4 205.76 296.88 223.04 314.15 302.61 314.15 319.81 296.88 319.81 217.4 302.61 200.12 223.04 200.12"/><polygon id="obram_zolte" class="cls-22" points="225.28 203.38 209.11 219.65 209.11 294.63 225.28 310.89 300.29 310.89 316.53 294.63 316.53 219.65 300.29 203.38 225.28 203.38"/><polygon id="tlo_wew" class="cls-15" points="226.39 204.99 210.62 220.76 210.62 293.52 226.39 309.32 299.25 309.32 315.05 293.52 315.05 220.76 299.25 204.99 226.39 204.99"/><path id="obram_skosne" class="cls-7" d="M307.47,277.28c-2.89,0-5.23-2.34-5.23-5.23v-29.79c0-2.89,2.34-5.23,5.23-5.23h7.48v-16.24l-15.7-15.8h-16.34v7.48c0,2.89-2.34,5.23-5.23,5.23h-29.79c-2.89,0-5.23-2.34-5.23-5.23v-7.48h-16.24l-15.8,15.8v16.34h7.48c2.89,0,5.23,2.34,5.23,5.23v29.79c0,2.89-2.34,5.23-5.23,5.23h-7.48v16.24l15.8,15.8h16.34v-7.48c0-2.89,2.34-5.23,5.23-5.23h29.79c2.89,0,5.23,2.34,5.23,5.23v7.48h16.34l15.8-15.8v-16.34h-7.68Z"/><path id="tlo_zew" class="cls-16" d="M307.2,279.03c-3.55,0-6.44-3.55-6.44-7.11v-29.62c0-3.55,2.89-7.11,6.44-7.11h6.07v-13.25l-15.33-15.23h-13.18v6.07c0,3.55-3.55,6.44-7.11,6.44h-29.62c-3.55,0-7.11-2.89-7.11-6.44v-6.07h-13.35l-15.23,15.23v13.25h6.07c3.55,0,6.44,3.55,6.44,7.11v29.62c0,3.55-2.89,7.11-6.44,7.11h-6.07v13.25l15.23,15.23h13.25v-6.07c0-3.55,3.55-6.44,7.11-6.44h29.52c3.55,0,7.11,2.89,7.11,6.44v6.07h13.25l15.23-15.23v-13.25h-5.85Z"/></g><g id="energy"><rect class="cls-13" x="205.76" y="67.46" width="114.03" height="114.03"/><rect class="cls-23" x="209.04" y="70.74" width="107.46" height="107.46"/><polygon class="cls-18" points="311.3 75.95 311.3 173 214.27 173 214.27 75.95 311.3 75.95"/><polygon class="cls-5" points="250.95 113.37 282.94 93.52 265.83 118.3 274.89 133.04 243.45 152.88 259.27 128.18 250.95 113.37"/><path id="darker" class="cls-10" d="M316.51,178.21h-107.46v-58.89s33.84,5.21,53.68,5.21,53.78-5.21,53.78-5.21v58.89h0Z"/></g><g id="city"><polygon class="cls-21" points="619.76 248.58 619.76 134.05 520.64 76.88 421.34 134.05 421.34 248.58 520.64 305.93 619.76 248.58"/><polygon class="cls-17" points="616.6 246.72 616.6 135.72 520.64 80.22 424.49 135.72 424.49 246.72 520.64 302.22 616.6 246.72"/><polygon class="cls-14" points="610.48 243.19 610.48 139.43 520.64 87.65 430.99 139.43 430.99 243.19 520.64 294.79 610.48 243.19"/><path class="cls-12" d="M619.2,245.23v-71.46h0q-98.56,14.66-197.31,0h0v71.46l98.56,56.98,98.75-56.98Z"/><g id="city-logo"><path class="cls-3" d="M451.96,203.84c0-36.75,30.81-66.27,68.49-66.27"/><path class="cls-3" d="M588.76,203.84c0-36.75-31-66.27-69.24-66.27"/><rect class="cls-6" x="450.66" y="199.57" width="139.4" height="8.72"/><rect class="cls-6" x="457.9" y="191.41" width="4.27" height="8.17"/><rect class="cls-6" x="460.13" y="184.91" width="2.04" height="6.68"/><rect class="cls-6" x="466.44" y="190.48" width="7.61" height="9.28"/><rect class="cls-6" x="466.44" y="179.9" width="3.71" height="10.58"/><rect class="cls-6" x="476.46" y="188.06" width="3.16" height="11.32"/><rect class="cls-6" x="479.62" y="165.42" width="3.53" height="34.15"/><rect class="cls-6" x="481.48" y="161.71" width="1.86" height="3.53"/><rect class="cls-6" x="483.33" y="191.41" width="5.94" height="8.17"/><rect class="cls-6" x="488.16" y="187.32" width="1.11" height="4.27"/><rect class="cls-6" x="489.27" y="157.07" width="4.83" height="42.51"/><rect class="cls-6" x="494.1" y="164.68" width="2.41" height="34.71"/><rect class="cls-6" x="496.7" y="177.11" width="5.01" height="22.46"/><rect class="cls-6" x="501.71" y="181.75" width="3.16" height="18"/><rect class="cls-6" x="507.65" y="170.8" width="6.68" height="28.77"/><rect class="cls-6" x="514.52" y="182.12" width="3.34" height="17.45"/><rect class="cls-6" x="517.86" y="150.01" width="8.17" height="49.56"/><rect class="cls-6" x="529.92" y="160.96" width="4.27" height="38.61"/><rect class="cls-6" x="538.46" y="168.95" width="4.64" height="30.63"/><rect class="cls-6" x="533.82" y="189.36" width="4.64" height="10.21"/><rect class="cls-6" x="543.1" y="194" width="3.34" height="5.75"/><rect class="cls-6" x="550.34" y="190.85" width="2.97" height="8.54"/><rect class="cls-6" x="553.31" y="177.11" width="5.2" height="22.46"/><rect class="cls-6" x="558.32" y="166.72" width="3.71" height="32.85"/><rect class="cls-6" x="562.03" y="189.73" width="3.16" height="9.84"/><rect class="cls-6" x="567.04" y="183.79" width="4.08" height="15.78"/><rect class="cls-6" x="571.13" y="182.12" width="4.45" height="17.45"/><rect class="cls-6" x="578.37" y="191.78" width="2.04" height="7.98"/><rect class="cls-6" x="580.41" y="195.67" width="3.71" height="4.08"/></g></g><path d="M247.63,281.08v-7.77c2.96-3.98,5.84-7.19,8.62-9.63l4.01-3.55c2.87-2.54,5.25-5.06,7.12-7.55,1.88-2.49,2.81-5.1,2.81-7.82,0-2.46-.79-4.35-2.37-5.69-1.58-1.34-3.72-2.01-6.42-2.01-3.59,0-7.76,1.22-12.52,3.65v-7.21c5-1.86,9.83-2.79,14.5-2.79,5.15,0,9.31,1.23,12.49,3.7,3.17,2.47,4.76,5.77,4.76,9.91,0,2.61-.67,5.08-2.01,7.39-1.34,2.31-4.12,5.17-8.34,8.58l-3.32,2.66c-1.46,1.17-3.05,2.68-4.79,4.52-1.73,1.84-2.88,3.79-3.43,5.84h21.68v7.77h-32.8Z"/><path d="M640.6,98.21l-12.22-1.52,2.81-8.63,10.76,5.96c-.93,1.02-1.39,2.13-1.39,3.35,0,.2,.01,.48,.04,.85Zm3.82,3.36l-5.25,11.17-7.31-5.34,8.99-8.45c.78,1.44,1.97,2.31,3.57,2.62Zm-4.15-20.11h9.07l-2.31,12.1c-.76-.37-1.5-.55-2.23-.55s-1.46,.18-2.18,.55l-2.35-12.1Zm8.56,17.5l8.99,8.45-7.35,5.34-5.21-11.17c1.57-.31,2.76-1.18,3.57-2.62Zm-1.14-4.94l10.8-5.96,2.77,8.63-12.22,1.52c.06-.37,.08-.65,.08-.85,0-1.21-.48-2.33-1.43-3.35Z"/></svg>