<?xml version="1.0" encoding="UTF-8"?><svg id="Layer" xmlns="http://www.w3.org/2000/svg" xmlns:xlink="http://www.w3.org/1999/xlink" viewBox="0 0 721 379.91"><defs><style>.cls-1{stroke:#020303;stroke-width:1.86px;}.cls-1,.cls-2,.cls-3,.cls-4,.cls-5{stroke-miterlimit:10;}.cls-1,.cls-4,.cls-5,.cls-6{fill:none;}.cls-7{fill:#e62e25;}.cls-2{fill:url(#linear-gradient);}.cls-2,.cls-4,.cls-5,.cls-6{stroke:#030404;}.cls-2,.cls-5{stroke-width:2.93px;}.cls-8,.cls-9{fill:#030404;}.cls-9{opacity:.05;}.cls-9,.cls-10,.cls-11{isolation:isolate;}.cls-3{fill:#fff;opacity:0;stroke:#1d1d1b;}.cls-4{stroke-width:2.2px;}.cls-12{fill:url(#radial-gradient);}.cls-13{fill:#ce141e;}.cls-14{fill:#ffd116;}.cls-10{fill:#e03e17;opacity:.5;}.cls-11{fill:url(#linear-gradient-2);opacity:.31;}.cls-15{fill:url(#linear-gradient-3);}.cls-5{stroke-linecap:square;}.cls-6{stroke-miterlimit:10;stroke-width:4.39px;}.cls-16{fill:url(#linear-gradient-4);}</style><linearGradient id="linear-gradient" x1="543.55" y1="526.45" x2="543.55" y2="400.01" gradientTransform="translate(0 -273.27)" gradientUnits="userSpaceOnUse"><stop offset="0" stop-color="#95191b"/><stop offset=".21" stop-color="#b13c1e"/><stop offset=".44" stop-color="#cb5e26"/><stop offset=".66" stop-color="#e27a34"/><stop offset=".85" stop-color="#ef8e3b"/><stop offset="1" stop-color="#f3943d"/></linearGradient><radialGradient id="radial-gradient" cx="543.55" cy="463.17" fx="543.55" fy="463.17" r="72.03" gradientTransform="translate(0 -273.27)" gradientUnits="userSpaceOnUse"><stop offset="0" stop-color="#f3943d" stop-opacity=".5"/><stop offset="1" stop-color="#d34118"/></radialGradient><linearGradient id="linear-gradient-2" x1="543.43" y1="526.45" x2="543.43" y2="445.87" gradientTransform="translate(0 -273.27)" gradientUnits="userSpaceOnUse"><stop offset="0" stop-color="#20201e"/><stop offset="1" stop-color="#403e3c"/></linearGradient><linearGradient id="linear-gradient-3" x1="361.6" y1="169.73" x2="361.6" y2="212.67" gradientTransform="translate(0 380.63) scale(1 -1)" gradientUnits="userSpaceOnUse"><stop offset="0" stop-color="#532a15"/><stop offset=".45" stop-color="#532a15" stop-opacity=".7"/><stop offset=".58" stop-color="#e03e17" stop-opacity=".5"/><stop offset="1" stop-color="#e03e17" stop-opacity=".5"/></linearGradient><linearGradient id="linear-gradient-4" x1="-771.68" y1="-891.37" x2="-694.2" y2="-813.9" gradientTransform="translate(128.43 -930.29) rotate(-45) scale(1 -1)" gradientUnits="userSpaceOnUse"><stop offset="0" stop-color="#95191b"/><stop offset=".21" stop-color="#ba261e"/><stop offset=".47" stop-color="#e62e25"/><stop offset=".55" stop-color="#e6322c"/><stop offset=".84" stop-color="#e83b3c"/><stop offset="1" stop-color="#e83e41"/></linearGradient></defs><rect class="cls-3" x=".5" y=".5" width="720" height="378.91"/><g><g id="tr"><rect class="cls-2" x="454.09" y="126.73" width="178.92" height="126.44"/><rect class="cls-12" x="459.58" y="132.22" width="167.94" height="115.34"/><g id="logo"><g><circle class="cls-6" cx="543.54" cy="185.73" r="32.59" transform="translate(234.78 670.09) rotate(-76.35)"/><path class="cls-4" d="M543.55,153.22s16.84,6.96,16.84,32.59-16.84,32.59-16.84,32.59"/><path class="cls-4" d="M543.55,153.22s-16.84,6.96-16.84,32.59,16.84,32.59,16.84,32.59"/><line class="cls-4" x1="543.55" y1="153.22" x2="543.55" y2="218.27"/><line class="cls-4" x1="511.09" y1="185.8" x2="576.14" y2="185.8"/><path class="cls-4" d="M518.29,165.18s9.52,4.88,25.26,4.88,25.26-4.88,25.26-4.88"/><path class="cls-4" d="M518.29,206.67c0-.12,9.52-4.88,25.26-4.88s25.26,4.88,25.26,4.88"/><polygon class="cls-8" points="563.08 159.08 571.75 151.14 560.27 148.82 585.17 141.62 579.44 167.62 576.14 154.68 567.96 164.2 563.08 159.08"/><polyline class="cls-5" points="543.55 225.71 531.84 225.71 536.84 225.71 536.84 237.31"/><polyline class="cls-5" points="551.98 237.31 551.98 225.71 549.78 225.71 546.97 233.53 546.12 233.53 543.68 229.86 541.97 229.86 541.97 237.31"/><path class="cls-8" d="M532.69,233.04c0,1.71-4.39,4.39-6.1,4.39s-12.33,.73-12.33-.98,10.62-5.37,12.33-5.37c1.71,.12,6.1,.24,6.1,1.95Z"/><path class="cls-8" d="M527.44,229.13c-.98,.85-5-.61-5.86-1.59s-6.47-7.2-5.37-8.06,8.54,3.91,9.4,5,2.93,3.78,1.83,4.64h0Z"/><path class="cls-8" d="M519.75,231.21c-.24,1.34-4.15,2.81-5.61,2.44-1.34-.24-12.45-1.22-12.2-2.44s11.84-2.81,13.18-2.44c1.46,.24,4.88,1.1,4.64,2.44h0Z"/><path class="cls-8" d="M516.82,227.67c-1.34,.49-4.52-2.07-5-3.42s-5.61-11.23-4.39-11.72,8.54,8.67,9.15,10.01c.37,1.34,1.34,4.64,.24,5.13h0Z"/><path class="cls-8" d="M508.65,227.06c-.85,1.34-5.13,1.34-6.35,.61s-11.59-5.74-10.74-7.08,12.57,1.46,13.79,2.32c1.34,.85,4.27,2.81,3.3,4.15h0Z"/><path class="cls-8" d="M505.84,222.42c-1.46,0-3.54-3.42-3.54-4.64s-1.22-11.72,.24-11.72,5,10.62,5,11.84c-.12,1.1-.24,4.52-1.71,4.52h0Z"/><path class="cls-8" d="M498.03,213.39c-1.34-.24-2.69-3.91-2.32-5.25,.24-1.22,1.46-11.47,2.81-11.11s2.32,11.11,2.07,12.33c-.37,1.34-1.22,4.39-2.56,4.03h0Z"/><path class="cls-8" d="M498.76,219.12c-1.22,.85-5.13-.49-5.98-1.46-.85-1.22-9.15-8.91-7.93-9.89s11.11,5.37,11.96,6.47c.85,1.1,2.93,4.03,1.95,4.88h0Z"/><path class="cls-8" d="M492.05,208.14c-1.22,.61-4.64-1.34-5.25-2.44s-6.96-10.01-5.61-10.74c1.22-.61,9.4,7.2,10.01,8.3,.49,1.22,1.95,4.15,.85,4.88h0Z"/><path class="cls-8" d="M492.78,203.87c-.98-.49-1.46-4.15-.98-5.25s3.17-11.23,4.27-10.86c.98,.49,.12,11.11-.24,12.33-.73,1.34-2.07,4.27-3.05,3.78h0Z"/><path class="cls-8" d="M488.14,197.03c-1.22,.24-3.66-2.69-3.91-4.15-.24-1.34-3.66-11.59-2.69-11.84,1.22-.24,6.47,9.64,6.71,10.98s1.1,4.88-.12,5h0Z"/><path class="cls-8" d="M490.22,192.52c-.98-.61-.85-3.91-.24-5s4.39-9.28,5.37-8.67-1.34,10.01-1.95,10.86c-.49,.98-2.07,3.42-3.17,2.81h0Z"/><path class="cls-8" d="M487.17,184.1c-1.22-.12-2.81-3.54-2.69-4.88s-.12-11.47,.98-11.47c1.22,.12,3.42,10.5,3.17,11.84s-.24,4.76-1.46,4.52h0Z"/><path class="cls-8" d="M490.1,180.8c-.73-.73,.49-4.15,1.34-4.88s7.32-8.06,8.06-7.2c.73,.73-4.52,9.4-5.37,10.13s-3.3,2.81-4.03,1.95h0Z"/><path class="cls-8" d="M494.49,170.06c-.61-.73,.24-3.17,.98-3.91,.73-.61,5.86-6.47,6.47-5.74s-3.54,7.45-4.27,8.18c-.85,.49-2.56,2.07-3.17,1.46h0Z"/><path class="cls-8" d="M489.49,171.52c-.85-.24-1.46-3.78-1.22-5s2.32-11.11,3.17-10.98c.85,.24,.49,10.74,.12,11.84,0,1.46-.98,4.64-2.07,4.15h0Z"/><path class="cls-8" d="M495.1,163.71c-1.22-.49-1.71-3.91-1.34-5.13,.49-1.22,2.81-10.74,3.91-10.25,1.22,.49,.61,10.74,.12,11.84-.37,1.1-1.59,4.03-2.69,3.54h0Z"/><path class="cls-8" d="M554.42,232.67c0,1.71,4.39,4.39,6.1,4.39s12.33,.73,12.33-.98-10.62-5.37-12.33-5.37-6.1,.12-6.1,1.95Z"/><path class="cls-8" d="M559.66,228.64c.98,.85,5-.61,5.86-1.59s6.47-7.2,5.37-8.06-8.54,3.91-9.4,5-2.81,3.78-1.83,4.64h0Z"/><path class="cls-8" d="M567.48,230.72c.24,1.34,4.15,2.81,5.61,2.44,1.34-.24,12.45-1.22,12.2-2.44-.24-1.34-11.84-2.81-13.18-2.44-1.59,.24-4.88,1.1-4.64,2.44h0Z"/><path class="cls-8" d="M570.4,227.18c1.34,.49,4.52-2.07,5-3.42s5.61-11.23,4.27-11.72-8.54,8.67-9.15,10.01c-.24,1.34-1.34,4.76-.12,5.13h0Z"/><path class="cls-8" d="M578.46,226.69c.85,1.34,5.13,1.34,6.35,.61s11.47-5.74,10.62-7.08-12.69,1.46-13.91,2.32c-.98,.73-3.91,2.81-3.05,4.15h0Z"/><path class="cls-8" d="M581.39,221.93c1.46,0,3.54-3.42,3.54-4.64s1.22-11.72-.24-11.72-5,10.62-5,11.84c.12,1.34,.24,4.52,1.71,4.52h0Z"/><path class="cls-8" d="M589.2,213.02c1.34-.24,2.69-3.91,2.32-5.25-.24-1.22-1.46-11.47-2.81-11.11-1.34,.24-2.32,11.11-2.07,12.33,.37,1.22,1.22,4.27,2.56,4.03h0Z"/><path class="cls-8" d="M588.47,218.76c1.22,.85,5.13-.49,5.98-1.46,.85-1.22,9.15-8.91,7.93-9.89s-11.11,5.37-11.96,6.47c-.98,1.22-3.05,3.91-1.95,4.88h0Z"/><path class="cls-8" d="M595.18,207.77c1.22,.61,4.64-1.34,5.25-2.44s6.96-10.01,5.61-10.74c-1.22-.61-9.4,7.2-10.01,8.3-.61,1.22-2.07,4.27-.85,4.88h0Z"/><path class="cls-8" d="M594.45,203.62c.98-.49,1.59-4.15,.98-5.25s-3.17-11.23-4.27-10.86c-.98,.49-.12,11.11,.24,12.33,.73,1.1,2.07,4.27,3.05,3.78h0Z"/><path class="cls-8" d="M598.96,196.54c1.22,.24,3.66-2.69,3.91-4.15,.24-1.34,3.78-11.59,2.69-11.84s-6.47,9.64-6.71,10.98c-.24,1.59-.98,4.88,.12,5h0Z"/><path class="cls-8" d="M596.89,192.03c.98-.61,.98-3.91,.24-5-.61-.98-4.52-9.28-5.37-8.67s1.34,10.01,1.95,10.86c.61,1.1,2.2,3.54,3.17,2.81h0Z"/><path class="cls-8" d="M600.06,183.73c1.22-.12,2.81-3.54,2.69-4.88s.12-11.59-.98-11.47-3.42,10.5-3.17,11.84c-.24,1.34,.24,4.64,1.46,4.52h0Z"/><path class="cls-8" d="M597.13,180.31c.73-.73-.49-4.15-1.34-4.88s-7.32-8.06-8.06-7.2c-.73,.73,4.52,9.4,5.37,10.13s3.3,2.81,4.03,1.95h0Z"/><path class="cls-8" d="M592.74,169.57c.61-.73-.24-3.17-.98-3.91s-5.86-6.47-6.47-5.74,3.54,7.45,4.27,8.18c.61,.61,2.56,2.07,3.17,1.46h0Z"/><path class="cls-8" d="M597.5,171.28c.85-.24,1.46-3.78,1.22-5s-2.32-11.11-3.17-10.98c-.85,.24-.49,10.74-.12,11.84,.24,1.34,1.22,4.39,2.07,4.15Z"/><path class="cls-8" d="M592.13,163.35c1.22-.49,1.71-3.91,1.34-5.13-.49-1.22-2.81-10.74-3.91-10.25-1.22,.49-.61,10.74-.12,11.84,.37,.98,1.46,3.91,2.69,3.54h0Z"/></g></g><path id="darker" class="cls-11" d="M632.41,172.87c-2.81,5.61-50.04,14.65-88.85,14.65s-86.78-10.01-89.58-14.65v80.31h178.92v-79.45c-.12-.98-.37-1.46-.49-.85Z"/></g><g id="arrow"><path class="cls-10" d="M421.38,189.42l-57.09-26.34,6.88,13.76h-64.29s-1.94,6.24-1.94,12.15,1.94,10.75,1.94,10.75h65.58l-8.17,16.13,57.09-26.45h0Z"/><path class="cls-15" d="M376.22,197.37h-67.63c-.54-1.72-1.29-4.95-1.29-8.49,0-3.76,.86-7.63,1.4-9.78h66.33l-5.59-11.07,46.45,21.5-46.45,21.5,6.77-13.65h0Z"/><path class="cls-13" d="M381.17,194.25h-70.31c-.32-1.51-.54-3.44-.54-5.38,0-2.37,.43-4.84,.75-6.67h68.92l-3.87-7.74,32.36,14.94-32.36,14.94,5.05-10.11h0Z"/><path class="cls-1" d="M376.22,197.37h-67.63c-.54-1.72-1.29-4.95-1.29-8.49,0-3.76,.86-7.63,1.4-9.78h66.33l-5.59-11.07,46.45,21.5-46.45,21.5,6.77-13.65h0Z"/></g><g id="heat"><rect class="cls-8" x="154.96" y="132.76" width="116.22" height="116.22"/><rect class="cls-16" x="158.3" y="136.09" width="109.55" height="109.55"/><rect class="cls-7" x="163.57" y="141.36" width="98.91" height="98.91"/><path id="darker-2" class="cls-9" d="M267.85,245.64h-109.55v-60.1s34.51,5.27,54.72,5.27,54.83-5.27,54.83-5.27v60.1h0Z"/><g><polygon class="cls-14" points="200.76 195.97 188.19 185.12 188.19 185.12 188.19 152.11 175.71 185.76 188.29 196.4 188.29 196.4 188.19 229.63 200.76 195.97"/><polygon class="cls-14" points="225.6 195.97 213.13 185.12 213.02 185.12 213.13 152.11 200.66 185.76 213.13 196.4 213.13 196.4 213.13 229.63 225.6 195.97"/><polygon class="cls-14" points="251.19 195.97 238.61 185.12 238.61 185.12 238.61 152.11 226.14 185.76 238.61 196.4 238.61 196.4 238.61 229.63 251.19 195.97"/></g></g><path d="M100.35,189.09c-6.02-3.98-8.92-8.71-8.92-14.19,0-2.9,.86-5.7,2.58-8.28s4.09-4.62,7.1-5.91,6.56-1.94,10.75-1.94c6.13,0,10.75,1.29,14.08,3.98s4.95,6.02,4.95,9.89c0,2.47-.75,4.95-2.15,7.53-1.4,2.47-4.19,5.16-8.28,8.06,8.82,4.62,13.22,10.43,13.22,17.42,0,4.95-2.04,9.14-6.02,12.79s-9.78,5.48-17.2,5.48-13.12-1.72-16.88-5.05-5.59-7.31-5.59-11.72c0-3.23,.97-6.45,3.12-9.68s5.05-6.02,9.25-8.39h0Zm6.02,4.09c-3.12,2.58-5.05,4.84-5.7,6.56s-.97,3.55-.97,5.27c0,3.66,1.29,6.34,3.76,8.28,2.47,1.94,5.27,2.9,8.17,2.9s5.38-.86,7.53-2.37,3.23-3.66,3.23-6.24c0-1.94-.65-3.76-1.83-5.27s-3.98-3.44-8.28-5.81l-5.91-3.33h0Zm7.53-8.49c4.09-3.23,6.24-6.67,6.24-10.32,0-2.37-.86-4.3-2.58-5.81-1.72-1.4-3.98-2.15-6.67-2.15s-4.84,.65-6.34,1.94-2.37,2.9-2.37,4.84c0,1.72,.65,3.33,1.94,4.84s4.52,3.87,9.78,6.67h0Z"/></g></svg>