<?xml version="1.0" encoding="UTF-8"?><svg id="Layer" xmlns="http://www.w3.org/2000/svg" xmlns:xlink="http://www.w3.org/1999/xlink" viewBox="0 0 721 379.91"><defs><style>.cls-1{fill:#010101;stroke:#020303;stroke-width:1.9px;}.cls-1,.cls-2{stroke-miterlimit:10;}.cls-3{fill:#020303;}.cls-4{fill:url(#linear-gradient-6);}.cls-2{fill:#fff;opacity:0;stroke:#1d1d1b;}.cls-5{fill:#415fa9;}.cls-6{fill:#1d2d4c;}.cls-7{fill:url(#radial-gradient);}.cls-8{fill:#84a3d5;}.cls-9{fill:url(#linear-gradient-5);}.cls-10{fill:#7ca5d8;}.cls-11{fill:url(#linear-gradient-7);}.cls-12{fill:#11478d;}.cls-13{fill:#93c6ec;}.cls-14{fill:url(#linear-gradient-3);}.cls-15{fill:url(#linear-gradient);}.cls-16{fill:url(#linear-gradient-4);}.cls-17{fill:url(#linear-gradient-2);isolation:isolate;opacity:.4;}</style><linearGradient id="linear-gradient" x1="362.22" y1="159.91" x2="362.22" y2="346.51" gradientTransform="translate(0 360.27) scale(1 -1)" gradientUnits="userSpaceOnUse"><stop offset="0" stop-color="#c3dcf4"/><stop offset="1" stop-color="#2a5488"/></linearGradient><radialGradient id="radial-gradient" cx="362.06" cy="241.54" fx="362.06" fy="241.54" r="80.92" gradientTransform="translate(0 360.27) scale(1 -1)" gradientUnits="userSpaceOnUse"><stop offset="0" stop-color="#fff" stop-opacity=".7"/><stop offset=".13" stop-color="#fafcfe" stop-opacity=".68"/><stop offset=".28" stop-color="#e4e9f7" stop-opacity=".62"/><stop offset=".44" stop-color="#c4ceea" stop-opacity=".53"/><stop offset=".62" stop-color="#93a7d6" stop-opacity=".4"/><stop offset=".79" stop-color="#5673b7" stop-opacity=".23"/><stop offset=".98" stop-color="#30519e" stop-opacity=".03"/><stop offset="1" stop-color="#2e4d9b" stop-opacity="0"/></radialGradient><linearGradient id="linear-gradient-2" x1="361.13" y1="369.2" x2="361.13" y2="231.53" gradientTransform="matrix(1, 0, 0, 1, 0, 0)" gradientUnits="userSpaceOnUse"><stop offset="0" stop-color="#ffdc15"/><stop offset="0" stop-color="#ffdb16"/><stop offset=".05" stop-color="#f9bb1f"/><stop offset=".1" stop-color="#f59c1b"/><stop offset=".16" stop-color="#ef7b1b"/><stop offset=".22" stop-color="#e86212"/><stop offset=".27" stop-color="#e84b1f"/><stop offset=".34" stop-color="#e63a21"/><stop offset=".41" stop-color="#e63323"/><stop offset=".5" stop-color="#e63023"/><stop offset=".59" stop-color="#e63323"/><stop offset=".66" stop-color="#e63a21"/><stop offset=".73" stop-color="#e84b1f"/><stop offset=".78" stop-color="#e86212"/><stop offset=".84" stop-color="#ef7b1b"/><stop offset=".9" stop-color="#f59c1b"/><stop offset=".95" stop-color="#f9bb1f"/><stop offset="1" stop-color="#ffdb16"/><stop offset="1" stop-color="#ffdc15"/></linearGradient><linearGradient id="linear-gradient-3" x1="361.13" y1="366.04" x2="361.13" y2="234.7" xlink:href="#linear-gradient-2"/><linearGradient id="linear-gradient-4" x1="361.18" y1="7.94" x2="361.18" y2="117.49" gradientTransform="translate(0 363.09) scale(1 -1)" gradientUnits="userSpaceOnUse"><stop offset=".16" stop-color="#813912"/><stop offset=".18" stop-color="#975a19"/><stop offset=".22" stop-color="#ae7d21"/><stop offset=".26" stop-color="#c39d27"/><stop offset=".3" stop-color="#d6b92e"/><stop offset=".35" stop-color="#e4cf35"/><stop offset=".41" stop-color="#efe036"/><stop offset=".48" stop-color="#f6e942"/><stop offset=".58" stop-color="#f8ea48"/><stop offset=".86" stop-color="#f7ea47"/><stop offset="1" stop-color="#fcf4f9"/></linearGradient><linearGradient id="linear-gradient-5" x1="361.18" y1="123.33" x2="361.18" y2="-44.13" gradientTransform="translate(0 363.09) scale(1 -1)" gradientUnits="userSpaceOnUse"><stop offset=".26" stop-color="#f7ea47"/><stop offset=".86" stop-color="#803612"/></linearGradient><linearGradient id="linear-gradient-6" x1="361.22" y1="9.46" x2="361.22" y2="115.88" gradientTransform="translate(0 363.09) scale(1 -1)" gradientUnits="userSpaceOnUse"><stop offset=".16" stop-color="#803612"/><stop offset=".17" stop-color="#8b461e"/><stop offset=".18" stop-color="#a26a3b"/><stop offset=".2" stop-color="#b78954"/><stop offset=".22" stop-color="#c7a468"/><stop offset=".24" stop-color="#d7bb7a"/><stop offset=".26" stop-color="#e2cc88"/><stop offset=".3" stop-color="#ead891"/><stop offset=".34" stop-color="#eede97"/><stop offset=".46" stop-color="#efe097"/><stop offset=".7" stop-color="#803612"/><stop offset=".73" stop-color="#e6d234"/><stop offset=".74" stop-color="#ead848"/><stop offset=".75" stop-color="#eede6d"/><stop offset=".77" stop-color="#f1e38b"/><stop offset=".79" stop-color="#f7eaa9"/><stop offset=".8" stop-color="#f8edbf"/><stop offset=".83" stop-color="#faf0cf"/><stop offset=".85" stop-color="#fcf2da"/><stop offset=".89" stop-color="#fdf4e1"/><stop offset=".99" stop-color="#fdf5e3"/></linearGradient><linearGradient id="linear-gradient-7" x1="361.18" y1="100.27" x2="361.18" y2="-63.98" gradientTransform="translate(0 363.09) scale(1 -1)" gradientUnits="userSpaceOnUse"><stop offset=".26" stop-color="#f7ea47"/><stop offset=".77" stop-color="#803612"/></linearGradient></defs><rect class="cls-2" x=".5" y=".5" width="720" height="378.91"/><g><g id="ocean"><polygon class="cls-3" points="445.62 155.28 445.62 58.84 362.22 10.7 278.66 58.84 278.66 155.28 362.22 203.42 445.62 155.28"/><polygon class="cls-15" points="443.04 153.83 443.04 60.45 362.22 13.76 281.4 60.45 281.4 153.83 362.22 200.36 443.04 153.83"/><polygon class="cls-8" points="437.56 150.61 437.56 63.51 362.22 19.88 286.72 63.51 286.72 150.61 362.22 194.24 437.56 150.61"/><path class="cls-12" d="M437.56,118.57c-3.38-3.22-9.98-4.51-21.25-5.96-10.95-1.45-16.42-2.09-19.16-2.09-17.39-.16-18.51,4.67-32.84,4.83-3.86,0-14.17-2.09-35.1-6.44-12.07-2.41-15.78-3.38-21.9-2.9-8.53,.64-15.62,3.54-20.77,6.6v38l75.67,43.63,75.35-43.63v-32.04h0Z"/><path class="cls-6" d="M362.38,170.74h0c33.97-.64,50.55-34.94,34.78-72.45-1.29-3.22-3.06-6.6-4.99-10.14-29.95-54.74-29.95-54.42-29.95-54.42,0,0,0-.32-29.95,54.42-1.93,3.54-3.54,6.92-4.99,10.14-15.78,37.51,.8,71.81,34.78,72.45h0"/><path class="cls-13" d="M362.38,168.64h0c32.2-.64,47.82-33,33-68.59-1.29-3.06-2.9-6.28-4.67-9.66-28.34-51.84-28.34-51.52-28.34-51.52,0,0,0-.32-28.34,51.52-1.77,3.38-3.38,6.44-4.67,9.66-15.13,35.58,.48,68.1,33,68.59h0"/><path class="cls-10" d="M362.22,164.94h0c29.62-.48,43.95-30.27,30.27-62.79-1.13-2.9-2.74-5.8-4.35-8.85-25.92-47.66-25.92-47.33-25.92-47.33,0,0,0-.32-26.08,47.33-1.61,3.06-3.06,5.96-4.35,8.85-13.52,32.52,.8,62.15,30.43,62.79h0"/><path class="cls-5" d="M395.54,110.52c-15.78,.16-17.23,4.67-31.23,4.83-3.86,0-14.17-2.09-34.94-6.28-9.02,29.78,5.31,55.38,32.84,55.87h.16c26.89-.48,41.22-25.28,33.17-54.42h0Z"/><circle class="cls-7" cx="362.06" cy="118.73" r="80.82"/></g><g id="mln"><polygon id="obram_czarne" class="cls-17" points="313.15 231.53 292.29 252.39 292.29 348.35 313.15 369.2 409.22 369.2 429.96 348.35 429.96 252.39 409.22 231.53 313.15 231.53"/><polygon id="obram_czarne-2" class="cls-14" points="315.36 234.7 295.46 254.6 295.46 346.14 315.36 366.04 407.01 366.04 426.8 346.14 426.8 254.6 407.01 234.7 315.36 234.7"/><polygon id="obram_czarne-3" class="cls-1" points="320.63 242.26 303.02 259.87 303.02 340.87 320.63 358.48 401.72 358.48 419.24 340.87 419.24 259.87 401.72 242.26 320.63 242.26"/><polygon id="obram_zolte" class="cls-16" points="322.91 245.59 306.44 262.15 306.44 338.59 322.91 355.15 399.34 355.15 415.91 338.59 415.91 262.15 399.34 245.59 322.91 245.59"/><polygon id="tlo_wew" class="cls-9" points="324.05 247.21 307.97 263.29 307.97 337.44 324.05 353.53 398.3 353.53 414.38 337.44 414.38 263.29 398.3 247.21 324.05 247.21"/><path id="obram_skosne" class="cls-4" d="M406.67,320.88c-2.95,0-5.33-2.38-5.33-5.33v-30.36c0-2.95,2.38-5.33,5.33-5.33h7.61v-16.56l-15.99-16.09h-16.66v7.61c0,2.95-2.38,5.33-5.33,5.33h-30.36c-2.95,0-5.33-2.38-5.33-5.33v-7.61h-16.56l-16.09,16.09v16.66h7.61c2.95,0,5.33,2.38,5.33,5.33v30.36c0,2.95-2.38,5.33-5.33,5.33h-7.61v16.56l16.09,16.09h16.66v-7.61c0-2.95,2.38-5.33,5.33-5.33h30.36c2.95,0,5.33,2.38,5.33,5.33v7.61h16.66l16.09-16.09v-16.66h-7.81Z"/><path id="tlo_zew" class="cls-11" d="M406.39,322.69c-3.62,0-6.57-3.62-6.57-7.23v-30.17c0-3.62,2.95-7.23,6.57-7.23h6.19v-13.52l-15.61-15.52h-13.42v6.19c0,3.62-3.62,6.57-7.23,6.57h-30.17c-3.62,0-7.23-2.95-7.23-6.57v-6.19h-13.61l-15.52,15.52v13.52h6.19c3.62,0,6.57,3.62,6.57,7.23v30.17c0,3.62-2.95,7.23-6.57,7.23h-6.19v13.52l15.52,15.52h13.52v-6.19c0-3.62,3.62-6.57,7.23-6.57h30.08c3.62,0,7.23,2.95,7.23,6.57v6.19h13.52l15.52-15.52v-13.52h-6Z"/></g><path d="M364.7,326.48v-13.69h-23.96v-7.7l23.54-29.92h9.39v29.92h6v7.7h-6v13.69h-8.98Zm-15.76-21.39h15.97v-20.13l-15.97,20.13Z"/><path d="M449.43,258.91l-10.09-1.26,2.32-7.13,8.88,4.92c-.77,.84-1.15,1.76-1.15,2.76,0,.16,.01,.4,.03,.7Zm3.16,2.77l-4.33,9.22-6.03-4.41,7.42-6.97c.65,1.18,1.63,1.9,2.95,2.16Zm-3.42-16.61h7.49l-1.91,9.99c-.62-.3-1.24-.45-1.84-.45s-1.2,.15-1.8,.45l-1.94-9.99Zm7.06,14.45l7.42,6.97-6.07,4.41-4.3-9.22c1.29-.26,2.28-.98,2.95-2.16Zm-.94-4.08l8.92-4.92,2.29,7.13-10.09,1.26c.05-.3,.07-.54,.07-.7,0-1-.4-1.92-1.18-2.76Z"/><path d="M255.73,305.36v-9.03h21.68v9.03h-21.68Z"/></g></svg>