<?xml version="1.0" encoding="UTF-8"?><svg id="Layer" xmlns="http://www.w3.org/2000/svg" xmlns:xlink="http://www.w3.org/1999/xlink" viewBox="0 0 721 379.91"><defs><style>.cls-1{fill:url(#linear-gradient-2);}.cls-2{fill:#fff;opacity:0;stroke:#1d1d1b;}.cls-2,.cls-3{stroke-miterlimit:10;}.cls-4{fill:#cd141b;}.cls-5{fill:#3d4920;}.cls-3{fill:none;stroke:#010202;stroke-width:1.87px;}.cls-6{fill:#96c227;}.cls-7,.cls-8{fill:#030304;}.cls-9{fill:url(#linear-gradient);}.cls-10{fill:#e03d15;opacity:.5;}.cls-10,.cls-8{isolation:isolate;}.cls-8{opacity:.12;}</style><linearGradient id="linear-gradient" x1="-664.43" y1="-1133.83" x2="-587.06" y2="-1056.46" gradientTransform="translate(82.59 -1026.94) rotate(-45) scale(1 -1)" gradientUnits="userSpaceOnUse"><stop offset="0" stop-color="#3d4920"/><stop offset=".14" stop-color="#4b5e24"/><stop offset=".42" stop-color="#69852b"/><stop offset=".66" stop-color="#81a42c"/><stop offset=".86" stop-color="#8fb923"/><stop offset="1" stop-color="#96c227"/></linearGradient><linearGradient id="linear-gradient-2" x1="263.76" y1="168.66" x2="263.76" y2="211.57" gradientTransform="translate(0 380.09) scale(1 -1)" gradientUnits="userSpaceOnUse"><stop offset="0" stop-color="#542913"/><stop offset=".45" stop-color="#542913" stop-opacity=".7"/><stop offset=".58" stop-color="#e03d15" stop-opacity=".5"/><stop offset="1" stop-color="#e03d15" stop-opacity=".5"/></linearGradient></defs><rect class="cls-2" x=".5" y=".5" width="720" height="378.91"/><g><path d="M496.04,150.19l-10.47-1.29,2.37-7.45,9.17,5.07c-.76,.86-1.19,1.83-1.19,2.91,0,.22,0,.43,.11,.76h0Zm3.24,2.91l-4.53,9.6-6.26-4.53,7.66-7.23c.76,1.08,1.73,1.83,3.13,2.16h0Zm-3.56-17.27h7.77l-1.94,10.36c-.65-.32-1.29-.43-1.94-.43s-1.29,.11-1.83,.43l-2.05-10.36h0Zm7.34,15l7.66,7.23-6.26,4.53-4.42-9.6c1.29-.22,2.27-.97,3.02-2.16h0Zm-.97-4.21l9.28-5.07,2.37,7.45-10.47,1.29c0-.32,.11-.54,.11-.76-.11-1.08-.54-2.05-1.29-2.91h0Z"/><g id="microbe"><rect class="cls-7" x="356.4" y="131.84" width="116.22" height="116.22"/><rect class="cls-9" x="359.74" y="135.19" width="109.53" height="109.42"/><rect class="cls-6" x="365.14" y="140.58" width="98.85" height="98.85"/><g id="microbes"><polygon class="cls-5" points="415.75 199.94 411.11 200.47 411.76 205.12 407.12 204.36 406.36 209 402.15 206.84 400.1 211.05 396.65 207.81 393.52 211.27 391.15 207.17 387.05 209.43 386.18 204.79 381.54 205.87 381.97 201.23 377.33 200.69 379.06 196.48 374.74 194.65 377.77 190.98 374.1 188.07 378.09 185.48 375.39 181.59 379.92 180.3 378.63 175.76 383.27 175.87 383.38 171.23 387.8 172.63 389.2 168.21 393.09 170.8 395.79 167.02 398.59 170.69 402.26 167.89 403.99 172.2 408.3 170.58 408.63 175.33 413.27 175.01 412.19 179.54 416.72 180.62 414.24 184.61 418.34 186.99 414.89 190.22 418.02 193.68 413.7 195.62 415.75 199.94"/><polygon class="cls-5" points="455.89 181.16 454.38 181.7 454.38 183.86 451.9 183.1 450.39 184.5 448.02 182.89 445.64 183.53 438.84 184.5 435.93 184.29 432.91 178.57 429.56 177.49 426.87 174.68 423.63 173.07 421.04 169.94 418.02 168.53 416.18 165.19 413.59 162.92 412.51 160.33 410.68 158.28 410.46 156.12 408.84 154.18 410.14 152.78 410.25 150.84 411.65 150.84 412.94 149.43 414.89 150.19 418.12 147.27 420.5 149 423.3 149.22 426.11 151.27 429.35 152.24 431.18 156.77 434.74 158.17 437.12 161.09 440.46 163.03 442.51 165.84 445.64 167.99 450.93 170.8 453.41 173.28 453.74 175.33 455.46 177.38 455.03 179.11 455.89 181.16"/><polygon class="cls-5" points="450.71 203.39 451.04 203.93 451.79 205.44 450.39 206.19 450.5 207.81 447.37 209 446.07 211.05 442.19 214.94 437.76 216.88 432.05 218.6 428.48 220.76 423.84 221.73 419.96 223.68 415.43 224.43 411.76 226.27 407.33 226.48 403.45 227.67 400.43 227.56 397.19 228.32 395.14 227.78 392.33 228.21 392.12 226.81 391.25 226.48 391.47 225.08 391.25 223.68 393.41 222.49 393.2 219.14 396.65 217.96 398.92 216.01 402.8 214.72 407.33 213.53 411.54 212.88 415.43 210.62 419.85 209.86 424.06 208.03 428.16 207.49 432.48 205.87 438.84 202.85 442.94 201.99 444.99 202.31 448.12 201.77 449.2 202.63 450.71 203.39"/></g><path id="darker" class="cls-8" d="M469.27,244.72h-109.53v-60s34.42,5.29,54.71,5.29,54.82-5.29,54.82-5.29v60Z"/></g><g id="arrow"><path class="cls-10" d="M323.59,190.01l-56.98-26.44,6.91,13.7h-64.32s-1.94,6.15-1.94,12.09,1.94,10.79,1.94,10.79h65.5l-8.09,16.08,56.98-26.22h0Z"/><path class="cls-1" d="M278.49,197.89h-67.66c-.54-1.73-1.29-4.96-1.29-8.42,0-3.78,.86-7.66,1.4-9.82h66.26l-5.61-11.11,46.4,21.47-46.4,21.47,6.91-13.6h0Z"/><path class="cls-4" d="M283.45,194.76h-70.25c-.32-1.51-.54-3.35-.54-5.4,0-2.37,.43-4.75,.76-6.69h68.85l-3.88-7.66,32.37,15-32.37,15,5.07-10.25h0Z"/><path class="cls-3" d="M278.49,197.89h-67.66c-.54-1.73-1.29-4.96-1.29-8.42,0-3.78,.86-7.66,1.4-9.82h66.26l-5.61-11.11,46.4,21.47-46.4,21.47,6.91-13.6h0Z"/></g></g></svg>