<?xml version="1.0" encoding="UTF-8"?><svg id="Layer" xmlns="http://www.w3.org/2000/svg" xmlns:xlink="http://www.w3.org/1999/xlink" viewBox="0 0 720 378.91"><defs><style>.cls-1{fill:url(#linear-gradient);}.cls-1,.cls-2{opacity:.4;}.cls-1,.cls-2,.cls-3,.cls-4{isolation:isolate;}.cls-5{fill:url(#linear-gradient-2);}.cls-6,.cls-3{fill:#030404;}.cls-7{fill:rgba(255,255,255,0);}.cls-8{fill:#1a291d;}.cls-9{fill:url(#linear-gradient-6);}.cls-10,.cls-4{fill:#020202;}.cls-2{fill:url(#linear-gradient-4);}.cls-11{fill:#155929;}.cls-12{fill:url(#radial-gradient);}.cls-13{fill:#05562a;stroke:#1b4420;stroke-miterlimit:10;stroke-width:3.73px;}.cls-3{opacity:.08;}.cls-14{fill:#43aa35;}.cls-4{opacity:.05;}.cls-15{fill:url(#linear-gradient-5);}.cls-16{fill:url(#linear-gradient-3);}.cls-17{fill:#010101;}</style><linearGradient id="linear-gradient" x1="205.26" y1="-120.01" x2="205.26" y2="19.7" gradientTransform="translate(0 141.27) scale(1 -1)" gradientUnits="userSpaceOnUse"><stop offset="0" stop-color="#ffdc12"/><stop offset="0" stop-color="#ffdb13"/><stop offset=".05" stop-color="#f9bb1b"/><stop offset=".1" stop-color="#f59b18"/><stop offset=".16" stop-color="#ef7b19"/><stop offset=".22" stop-color="#e86112"/><stop offset=".27" stop-color="#e84a1d"/><stop offset=".34" stop-color="#e5391e"/><stop offset=".41" stop-color="#e63121"/><stop offset=".5" stop-color="#e62e21"/><stop offset=".59" stop-color="#e63121"/><stop offset=".66" stop-color="#e5391e"/><stop offset=".73" stop-color="#e84a1d"/><stop offset=".78" stop-color="#e86112"/><stop offset=".84" stop-color="#ef7b19"/><stop offset=".9" stop-color="#f59b18"/><stop offset=".95" stop-color="#f9bb1b"/><stop offset="1" stop-color="#ffdb13"/><stop offset="1" stop-color="#ffdc12"/></linearGradient><linearGradient id="linear-gradient-2" x1="205.28" y1="-116.36" x2="205.28" y2="16.05" gradientTransform="translate(0 141.27) scale(1 -1)" gradientUnits="userSpaceOnUse"><stop offset="0" stop-color="#ffdc12"/><stop offset="0" stop-color="#ffdb13"/><stop offset=".05" stop-color="#f9bb1b"/><stop offset=".1" stop-color="#f59b18"/><stop offset=".16" stop-color="#ef7b19"/><stop offset=".22" stop-color="#e86112"/><stop offset=".27" stop-color="#e84a1d"/><stop offset=".34" stop-color="#e5391e"/><stop offset=".41" stop-color="#e63121"/><stop offset=".5" stop-color="#e62e21"/><stop offset=".59" stop-color="#e63121"/><stop offset=".66" stop-color="#e5391e"/><stop offset=".73" stop-color="#e84a1d"/><stop offset=".78" stop-color="#e86112"/><stop offset=".84" stop-color="#ef7b19"/><stop offset=".9" stop-color="#f59b18"/><stop offset=".95" stop-color="#f9bb1b"/><stop offset="1" stop-color="#ffdb13"/><stop offset="1" stop-color="#ffdc12"/></linearGradient><linearGradient id="linear-gradient-3" x1="-813.81" y1="-969.02" x2="-736.44" y2="-891.66" gradientTransform="translate(95.18 -1014) rotate(-45) scale(1 -1)" gradientUnits="userSpaceOnUse"><stop offset="0" stop-color="#1f4d23"/><stop offset=".43" stop-color="#4c7030"/><stop offset="1" stop-color="#97ab45"/></linearGradient><radialGradient id="radial-gradient" cx="204.94" cy="-66.02" fx="204.94" fy="-66.02" r="49.4" gradientTransform="translate(0 125.92) scale(1 -1)" gradientUnits="userSpaceOnUse"><stop offset=".25" stop-color="#97ab45"/><stop offset="1" stop-color="#3c7b31"/></radialGradient><linearGradient id="linear-gradient-4" x1="606.4" y1="-120.53" x2="606.4" y2="19.18" gradientTransform="translate(0 141.27) scale(1 -1)" gradientUnits="userSpaceOnUse"><stop offset="0" stop-color="#ffdb13"/><stop offset="0" stop-color="#ffda13"/><stop offset=".05" stop-color="#f8ba1d"/><stop offset=".1" stop-color="#f49a1a"/><stop offset=".16" stop-color="#ee7b1a"/><stop offset=".22" stop-color="#e76111"/><stop offset=".27" stop-color="#e74a1e"/><stop offset=".34" stop-color="#e43920"/><stop offset=".41" stop-color="#e53123"/><stop offset=".5" stop-color="#e52f23"/><stop offset=".59" stop-color="#e53123"/><stop offset=".66" stop-color="#e43920"/><stop offset=".73" stop-color="#e74a1e"/><stop offset=".78" stop-color="#e76111"/><stop offset=".84" stop-color="#ee7b1a"/><stop offset=".9" stop-color="#f49a1a"/><stop offset=".95" stop-color="#f8ba1d"/><stop offset="1" stop-color="#ffda13"/><stop offset="1" stop-color="#ffdb13"/></linearGradient><linearGradient id="linear-gradient-5" x1="606.41" y1="-116.88" x2="606.41" y2="15.53" xlink:href="#linear-gradient-4"/><linearGradient id="linear-gradient-6" x1="-364.01" y1="1490.78" x2="-286.58" y2="1413.34" gradientTransform="translate(-190.12 -1065.2) rotate(-45)" gradientUnits="userSpaceOnUse"><stop offset="0" stop-color="#096835"/><stop offset=".04" stop-color="#066a35"/><stop offset=".08" stop-color="#007538"/><stop offset=".13" stop-color="#028538"/><stop offset=".15" stop-color="#008d39"/><stop offset=".35" stop-color="#32973c"/><stop offset=".76" stop-color="#5dae46"/><stop offset="1" stop-color="#6db549"/></linearGradient></defs><rect class="cls-7" width="720" height="378.91"/><path d="M88.95,220.63v-8.86c3.38-4.54,6.65-8.19,9.83-10.97l4.57-4.05c3.27-2.9,5.99-5.77,8.12-8.61,2.14-2.83,3.2-5.81,3.2-8.91,0-2.79-.91-4.96-2.71-6.48-1.8-1.53-4.24-2.28-7.32-2.28-4.08,0-8.84,1.39-14.27,4.16v-8.21c5.69-2.12,11.19-3.18,16.51-3.18,5.87,0,10.62,1.4,14.23,4.22,3.61,2.81,5.42,6.57,5.42,11.29,0,2.97-.77,5.78-2.28,8.41s-4.7,5.9-9.49,9.78l-3.78,3.02c-1.67,1.34-3.47,3.05-5.45,5.14-1.98,2.09-3.27,4.31-3.9,6.66h24.71v8.86h-37.39Z"/><g id="animal"><rect class="cls-1" x="135.41" y="121.57" width="139.71" height="139.71"/><rect class="cls-5" x="139.08" y="125.22" width="132.41" height="132.41"/><rect class="cls-6" x="146.87" y="133.88" width="116.11" height="116.11"/><rect class="cls-16" x="150.23" y="137.24" width="109.41" height="109.41"/><rect class="cls-12" x="155.54" y="142.54" width="98.8" height="98.8"/><path id="darker" class="cls-3" d="M259.63,246.65h-109.41v-59.97s34.46,5.31,54.66,5.31,54.75-5.31,54.75-5.31v59.97h0Z"/><path class="cls-11" d="M193.34,164.15c-.28,0-2.97,.37-4.57,2.6-.65,.84-.93,1.77-1.12,2.79-.37,2.05-1.12,5.77,.37,10.34,.74,2.14,1.58,4.75,4.01,6.52,.74,.56,2.23,1.58,4.19,1.39,2.14-.19,3.45-1.77,3.9-2.32,1.86-2.14,1.86-4.66,1.95-7.35,0-1.3,0-5.31-2.05-9.49-1.39-2.79-2.6-3.53-3.16-3.82-1.49-.93-3.08-.74-3.53-.65h.01Z"/><path class="cls-11" d="M219.04,162.57c-.28-.09-2.88-.65-5.12,.84-.84,.56-1.49,1.3-2.05,2.23-1.12,1.77-3.08,4.94-3.25,9.78-.09,2.32-.19,5.03,1.49,7.54,.56,.74,1.58,2.23,3.45,2.71,2.05,.56,3.9-.46,4.47-.84,2.42-1.39,3.45-3.73,4.47-6.24,.46-1.21,1.86-4.94,1.39-9.6-.28-3.08-1.21-4.19-1.67-4.66-1.21-1.21-2.71-1.58-3.16-1.77h-.02Z"/><path class="cls-11" d="M175.93,179.04c-.28,.09-2.88,.65-4.29,2.97-.56,.93-.74,1.77-.84,2.88-.19,2.05-.56,5.77,1.3,10.25,.93,2.05,1.95,4.57,4.66,6.15,.84,.46,2.42,1.3,4.29,.93,2.14-.37,3.25-2.05,3.73-2.71,1.58-2.32,1.49-4.84,1.3-7.54-.09-1.3-.46-5.22-2.97-9.21-1.58-2.6-2.88-3.25-3.53-3.53-1.67-.56-3.08-.28-3.64-.19h-.01Z"/><path class="cls-11" d="M234.6,176.81c-.28-.09-2.88-.65-5.12,.93-.84,.65-1.39,1.39-1.95,2.32-1.02,1.86-2.97,5.03-2.97,9.86,0,2.32-.09,5.03,1.67,7.45,.56,.74,1.67,2.23,3.53,2.6,2.05,.46,3.82-.56,4.47-.93,2.42-1.39,3.36-3.82,4.29-6.33,.46-1.21,1.77-4.94,1.12-9.6-.37-3.08-1.3-4.19-1.77-4.66-1.3-1.21-2.79-1.58-3.25-1.67h0v.03Z"/><path class="cls-8" d="M233.94,179.79c-.19,0-2.14-.46-3.82,.74-.65,.46-1.02,1.02-1.49,1.67-.74,1.39-2.14,3.73-2.23,7.35,0,1.67-.09,3.73,1.3,5.59,.37,.56,1.21,1.67,2.6,1.95,1.58,.37,2.88-.46,3.36-.65,1.77-1.12,2.42-2.79,3.16-4.75,.37-.93,1.3-3.73,.84-7.17-.28-2.23-1.02-3.08-1.3-3.45-.93-1.02-2.05-1.3-2.42-1.3h0v.02Z"/><path class="cls-8" d="M218.3,165.64c-.19-.09-2.14-.46-3.82,.56-.65,.46-1.02,.93-1.49,1.67-.84,1.3-2.23,3.64-2.42,7.26-.09,1.67-.19,3.73,1.12,5.59,.37,.56,1.12,1.67,2.51,2.05,1.58,.37,2.88-.37,3.36-.56,1.77-1.02,2.51-2.71,3.25-4.57,.37-.93,1.39-3.64,1.02-7.08-.28-2.23-.93-3.08-1.21-3.45-.93-1.12-1.95-1.39-2.32-1.49h0v.02Z"/><path class="cls-8" d="M193.71,167.22c-.19,0-2.14,.28-3.36,1.86-.46,.65-.65,1.3-.84,2.05-.28,1.49-.84,4.19,.28,7.63,.56,1.58,1.12,3.53,2.97,4.84,.56,.37,1.67,1.12,3.08,1.02,1.58-.19,2.51-1.3,2.88-1.67,1.3-1.58,1.39-3.45,1.49-5.4,0-.93,0-3.9-1.58-6.98-1.02-2.05-1.95-2.6-2.32-2.79-1.12-.74-2.23-.65-2.6-.56h0Z"/><path class="cls-8" d="M176.58,181.75c-.19,0-2.23,.46-3.25,2.32-.46,.74-.56,1.39-.65,2.23-.19,1.58-.46,4.47,1.02,7.82,.65,1.58,1.49,3.53,3.53,4.66,.65,.37,1.86,1.02,3.25,.74,1.58-.28,2.51-1.58,2.79-2.05,1.21-1.77,1.12-3.73,1.02-5.77-.09-1.02-.37-4.01-2.23-7.08-1.21-2.05-2.23-2.51-2.71-2.71-1.3-.46-2.51-.19-2.79-.19v.03h.02Z"/><path class="cls-11" d="M205.73,186.68c-1.3,.09-2.71,.09-4.29,.93-1.77,.93-2.79,2.32-3.73,3.53-.84,1.12-.74,1.21-1.95,3.16-1.12,1.67-1.67,2.71-2.71,3.82-1.21,1.39-2.42,2.23-4.57,3.9-2.32,1.77-2.51,1.67-3.16,2.42-1.58,1.86-1.95,3.9-2.23,5.31-.19,1.3-.65,3.73,.37,6.52,.46,1.21,1.3,3.53,3.45,4.57,.84,.37,1.67,.46,3.73,.37,3.45-.19,5.77-.84,7.82-1.3,2.42-.56,4.94-1.12,8.1-1.21,3.82-.09,7.17,.56,8.93,.84,2.05,.37,3.53,.84,6.42,1.12,2.42,.28,3.64,.19,5.03-.28,.84-.28,2.32-.74,3.45-2.05,1.21-1.49,1.3-3.08,1.3-4.75,.09-1.12,.09-3.82-1.49-6.98-.65-1.39-1.21-2.05-3.36-4.66-5.77-7.17-6.05-8.01-8.38-9.97-1.39-1.21-2.79-2.42-4.94-3.45-1.12-.65-4.01-2.05-7.82-1.86h.04v.02Z"/><path class="cls-8" d="M206.01,189.1c-1.12,.09-2.32,.09-3.73,.84-1.49,.84-2.42,2.05-3.16,3.08-.74,.93-.65,1.02-1.67,2.79-.93,1.49-1.49,2.32-2.32,3.25-1.02,1.21-2.05,1.95-3.9,3.36-2.05,1.58-2.14,1.39-2.79,2.14-1.39,1.58-2.6,4.01-2.88,5.12-.19,1.12-.56,3.16,.28,5.59,.37,1.12,1.12,3.08,2.97,3.9,.74,.37,2.42-.09,4.1-.28,2.97-.19,5.03-.74,6.8-1.12,2.05-.46,4.29-.93,6.98-1.02,3.25-.09,6.15,.46,7.73,.74,1.77,.37,3.08,.74,5.5,.93,2.05,.19,4.57,1.02,5.68,.65,.74-.19,1.95-.74,2.97-1.95s.74-3.82,.84-5.31c.09-.93-.74-2.97-2.32-5.68-.74-1.3-1.12-1.77-2.88-4.01-4.94-6.15-5.22-6.89-7.17-8.56-1.21-1.02-2.42-2.05-4.29-2.97-.93-.46-3.45-1.67-6.7-1.49h-.04Z"/></g><g><path class="cls-17" d="M338.46,224.4c-5.93,0-11.1-1.23-15.49-3.68-4.39-2.45-7.73-5.99-10.02-10.6-2.28-4.61-3.43-9.84-3.43-15.67s1.15-11.03,3.43-15.65,5.64-8.17,10.06-10.62c4.42-2.45,9.57-3.68,15.45-3.68s11,1.23,15.42,3.68,7.77,6,10.06,10.62c2.28,4.62,3.43,9.84,3.43,15.65s-1.15,11.05-3.43,15.67c-2.28,4.61-5.61,8.14-10,10.6-4.38,2.45-9.53,3.68-15.48,3.68h0Zm0-7.82c5.5,0,9.58-2.25,12.28-6.73,2.68-4.49,4.03-9.62,4.03-15.42s-1.35-10.95-4.05-15.42-6.78-6.69-12.25-6.69-9.6,2.23-12.29,6.69-4.05,9.6-4.05,15.42,1.34,10.92,4.03,15.42c2.68,4.49,6.79,6.73,12.31,6.73h-.01Z"/><path class="cls-17" d="M378.05,222.97v-57.03h21.35c4.36,0,7.7,.55,9.98,1.63,2.28,1.1,4.1,2.74,5.41,4.98,1.33,2.22,1.99,4.73,1.99,7.53,0,3.34-.96,6.5-2.9,9.46-1.93,2.97-4.65,5.23-8.17,6.8l18.67,26.63h-14.46l-14.18-23.31h-6.52v23.31h-11.17Zm11.18-31.14h2.73c4.9,0,8.28-1.07,10.16-3.2,1.86-2.13,2.81-4.54,2.81-7.25,0-2.34-.77-4.2-2.28-5.56-1.52-1.38-4.61-2.07-9.28-2.07h-4.13v18.07h-.01Z"/></g><path d="M48.57,198.07v-9.03h21.68v9.03h-21.68Z"/><path d="M448.1,198.42v-9.03h21.68v9.03h-21.68Z"/><path d="M488.67,220.98v-8.5c4.99,1.92,9.17,2.89,12.52,2.89,3.67,0,6.4-1.1,8.2-3.3,1.8-2.2,2.69-4.79,2.69-7.77,0-3.77-1.49-6.81-4.46-9.12s-7.52-3.46-13.65-3.46c-1.43,0-2.85,.12-4.28,.36v-29.39h33.62v9.25h-25.07l-.59,12.62c9.12,0,15.88,1.87,20.27,5.62,4.39,3.74,6.59,8.42,6.59,14.04,0,5.22-1.94,9.6-5.81,13.15-3.88,3.55-9.64,5.32-17.28,5.32-1.85,0-3.51-.09-5-.26s-4.07-.65-7.73-1.44h-.02Z"/><g id="plant"><rect class="cls-2" x="536.54" y="122.09" width="139.71" height="139.71"/><rect class="cls-15" x="540.2" y="125.74" width="132.41" height="132.41"/><rect class="cls-10" x="548.5" y="133.46" width="116.22" height="116.22"/><rect class="cls-9" x="551.86" y="136.81" width="109.51" height="109.51"/><rect class="cls-14" x="557.17" y="142.12" width="98.89" height="98.89"/><path id="leaf" class="cls-13" d="M606.57,166.54c-14.17,1.96-24.98,11.18-24.98,24.98,0,3.36,.65,6.62,1.86,9.6-2.61,1.77-6.43,4.1-8.29,4.75-3.26,1.12-9.79,.37-10.07,.93s1.86,6.43,2.61,6.71,6.71,.28,10.07-.93c2.42-.84,6.8-3.63,9.32-5.5,4.57,5.78,11.65,9.41,19.57,9.41,13.79,0,24.79-8.67,24.79-22.46,0-5.31,1.3-12.02,3.26-16.22,2.14-4.66,13.23-7.64,13.23-7.64-1.12-3.63-35.79-4.38-41.38-3.63Z"/><path id="darker-2" class="cls-4" d="M661.37,246.32h-109.51v-60.02s34.48,5.31,54.71,5.31,54.8-5.31,54.8-5.31v60.02Z"/></g></svg>