<?xml version="1.0" encoding="UTF-8"?><svg id="Layer" xmlns="http://www.w3.org/2000/svg" xmlns:xlink="http://www.w3.org/1999/xlink" viewBox="0 0 721 379.91"><defs><style>.cls-1{fill:url(#linear-gradient-2);}.cls-2,.cls-3,.cls-4,.cls-5{fill:#020303;}.cls-6{fill:#fff;opacity:0;stroke:#1d1d1b;}.cls-6,.cls-7{stroke-miterlimit:10;}.cls-8{fill:#18291b;}.cls-9{fill:url(#radial-gradient);}.cls-3{opacity:.12;}.cls-3,.cls-4,.cls-5{isolation:isolate;}.cls-10{fill:#3c481e;}.cls-11{fill:#44ac36;}.cls-4{opacity:.08;}.cls-12{fill:#95c125;}.cls-7{fill:#07562a;stroke:#1c4421;stroke-width:3.73px;}.cls-13{fill:url(#linear-gradient-3);}.cls-14{fill:#115729;}.cls-5{opacity:.05;}.cls-15{fill:url(#linear-gradient);}</style><linearGradient id="linear-gradient" x1="-685.29" y1="1249.26" x2="-607.85" y2="1171.82" gradientTransform="translate(-190.6 -1064.17) rotate(-45)" gradientUnits="userSpaceOnUse"><stop offset="0" stop-color="#0c6835"/><stop offset=".04" stop-color="#0a6b36"/><stop offset=".08" stop-color="#047638"/><stop offset=".13" stop-color="#078738"/><stop offset=".15" stop-color="#058f39"/><stop offset=".35" stop-color="#34993d"/><stop offset=".76" stop-color="#5eaf47"/><stop offset="1" stop-color="#6eb74a"/></linearGradient><linearGradient id="linear-gradient-2" x1="-585.24" y1="1349.31" x2="-507.81" y2="1271.87" gradientTransform="translate(-190.6 -1064.17) rotate(-45)" gradientUnits="userSpaceOnUse"><stop offset="0" stop-color="#3c481e"/><stop offset=".14" stop-color="#4a5d23"/><stop offset=".42" stop-color="#68842b"/><stop offset=".66" stop-color="#80a42a"/><stop offset=".86" stop-color="#8fb923"/><stop offset="1" stop-color="#95c125"/></linearGradient><linearGradient id="linear-gradient-3" x1="-485.19" y1="1449.36" x2="-407.76" y2="1371.92" gradientTransform="translate(-190.6 -1064.17) rotate(-45)" gradientUnits="userSpaceOnUse"><stop offset="0" stop-color="#1f4d23"/><stop offset=".43" stop-color="#4b6e30"/><stop offset="1" stop-color="#95a946"/></linearGradient><radialGradient id="radial-gradient" cx="491.16" cy="502.16" fx="491.16" fy="502.16" r="49.44" gradientTransform="translate(0 -253.17)" gradientUnits="userSpaceOnUse"><stop offset=".25" stop-color="#95a946"/><stop offset="1" stop-color="#397931"/></radialGradient></defs><rect class="cls-6" x=".5" y=".5" width="720" height="378.91"/><g><g><path d="M158.79,107.99c-3.01,0-5.62-.62-7.85-1.87s-3.92-3.03-5.08-5.37c-1.16-2.34-1.74-4.98-1.74-7.94s.58-5.59,1.74-7.93c1.16-2.34,2.86-4.14,5.1-5.38,2.24-1.24,4.85-1.87,7.83-1.87s5.57,.62,7.81,1.87c2.24,1.24,3.94,3.04,5.1,5.38,1.16,2.34,1.74,4.99,1.74,7.93s-.58,5.6-1.74,7.94c-1.16,2.34-2.85,4.13-5.07,5.37-2.22,1.24-4.83,1.87-7.84,1.87Zm0-3.96c2.79,0,4.86-1.14,6.22-3.41,1.36-2.27,2.04-4.88,2.04-7.81s-.68-5.55-2.05-7.81c-1.37-2.26-3.44-3.39-6.21-3.39s-4.86,1.13-6.23,3.39c-1.37,2.26-2.05,4.86-2.05,7.81s.68,5.54,2.04,7.81c1.36,2.27,3.44,3.41,6.24,3.41Z"/><path d="M178.85,107.27v-28.91h9.94c2.89,0,4.92,.3,6.1,.91,1.18,.61,2.06,1.46,2.66,2.57,.6,1.11,.9,2.5,.9,4.18,0,3.23-1.02,5.69-3.05,7.38-2.04,1.69-4.77,2.54-8.19,2.54h-2.45v11.33h-5.9Zm5.9-15.29h1.13c2.21,0,3.84-.53,4.87-1.59,1.04-1.06,1.56-2.31,1.56-3.74,0-.81-.16-1.54-.49-2.2-.33-.66-.83-1.17-1.52-1.55-.69-.38-1.78-.57-3.29-.57h-2.26v9.65Z"/><path d="M216.25,107.99c-3.01,0-5.62-.62-7.85-1.87s-3.92-3.03-5.08-5.37c-1.16-2.34-1.74-4.98-1.74-7.94s.58-5.59,1.74-7.93c1.16-2.34,2.86-4.14,5.1-5.38,2.24-1.24,4.85-1.87,7.83-1.87s5.57,.62,7.81,1.87c2.24,1.24,3.94,3.04,5.1,5.38,1.16,2.34,1.74,4.99,1.74,7.93s-.58,5.6-1.74,7.94c-1.16,2.34-2.85,4.13-5.07,5.37-2.22,1.24-4.83,1.87-7.84,1.87Zm0-3.96c2.79,0,4.86-1.14,6.22-3.41,1.36-2.27,2.04-4.88,2.04-7.81s-.68-5.55-2.05-7.81c-1.37-2.26-3.44-3.39-6.21-3.39s-4.86,1.13-6.23,3.39c-1.37,2.26-2.05,4.86-2.05,7.81s.68,5.54,2.04,7.81c1.36,2.27,3.44,3.41,6.24,3.41Z"/><path d="M236.31,107.27v-28.91h5.3l13.37,19.75v-19.75h4.82v28.91h-5.4l-13.28-19.75v19.75h-4.82Z"/><path d="M267.05,107.27v-28.91h18.52v3.98h-12.5v8.05h10.33v3.98h-10.33v8.79h13.42v4.1h-19.43Z"/><path d="M291.08,107.27v-28.91h5.3l13.37,19.75v-19.75h4.82v28.91h-5.4l-13.28-19.75v19.75h-4.82Z"/><path d="M329.01,107.27v-24.92h-10.35v-3.98h26.72v3.98h-10.35v24.92h-6.02Z"/><path d="M347.79,107.01v-4.96c2.26,.95,3.94,1.51,5.06,1.7,1.12,.18,2.14,.28,3.08,.28,1.69,0,2.95-.38,3.78-1.13,.83-.76,1.25-1.66,1.25-2.72,0-.81-.23-1.54-.7-2.19-.47-.64-1.61-1.47-3.42-2.48l-1.95-1.08c-2.79-1.55-4.67-2.98-5.66-4.3-1-1.32-1.5-2.84-1.5-4.57,0-2.18,.83-4.04,2.5-5.59,1.66-1.55,4.05-2.33,7.17-2.33,2.33,0,4.95,.33,7.87,1v4.63c-2.99-1.11-5.36-1.66-7.12-1.66-1.45,0-2.56,.32-3.32,.95s-1.14,1.39-1.14,2.28c0,.68,.23,1.31,.7,1.9,.45,.59,1.58,1.39,3.4,2.4l2.09,1.15c3.19,1.79,5.23,3.34,6.11,4.65,.87,1.33,1.3,2.82,1.3,4.47,0,2.37-.9,4.39-2.71,6.07-1.81,1.68-4.68,2.52-8.62,2.52-2.34,0-5.06-.33-8.16-.98Z"/><path d="M385.04,107.27v-28.91h7.95l6.98,20.33,7.18-20.33h6.99v28.91h-5.55v-21.82l-7.06,19.88h-4.84l-6.93-20.18v22.11h-4.73Z"/><path d="M418.19,107.27l11.26-28.91h6.03l11.25,28.91h-6.18l-3-7.71h-11.97l-3,7.71h-4.38Zm8.88-11.56h8.97l-4.48-11.52-4.49,11.52Z"/><path d="M457.68,107.27v-12.11l-9.71-16.8h6.65l7.05,12.2,7.35-12.2h4.76l-10.1,16.76v12.15h-6.02Z"/><path d="M491.04,107.27v-28.91h5.3l13.37,19.75v-19.75h4.82v28.91h-5.4l-13.28-19.75v19.75h-4.82Z"/><path d="M534.65,107.99c-3.01,0-5.62-.62-7.85-1.87s-3.92-3.03-5.08-5.37c-1.16-2.34-1.74-4.98-1.74-7.94s.58-5.59,1.74-7.93c1.16-2.34,2.86-4.14,5.1-5.38,2.24-1.24,4.85-1.87,7.83-1.87s5.57,.62,7.81,1.87c2.24,1.24,3.94,3.04,5.1,5.38,1.16,2.34,1.74,4.99,1.74,7.93s-.58,5.6-1.74,7.94c-1.16,2.34-2.85,4.13-5.07,5.37-2.22,1.24-4.83,1.87-7.84,1.87Zm0-3.96c2.79,0,4.86-1.14,6.22-3.41,1.36-2.27,2.04-4.88,2.04-7.81s-.68-5.55-2.05-7.81c-1.37-2.26-3.44-3.39-6.21-3.39s-4.86,1.13-6.23,3.39c-1.37,2.26-2.05,4.86-2.05,7.81s.68,5.54,2.04,7.81c1.36,2.27,3.44,3.41,6.24,3.41Z"/><path d="M561.9,107.27v-24.92h-10.35v-3.98h26.72v3.98h-10.35v24.92h-6.02Z"/><path d="M212.59,155.27v-28.91h10.82c2.21,0,3.9,.28,5.06,.83,1.16,.55,2.07,1.39,2.74,2.52,.67,1.13,1.01,2.4,1.01,3.82,0,1.69-.49,3.29-1.46,4.79s-2.36,2.65-4.14,3.45l9.46,13.5h-7.33l-7.19-11.82h-3.31v11.82h-5.66Zm5.66-15.78h1.38c2.48,0,4.2-.54,5.14-1.62,.95-1.08,1.42-2.3,1.42-3.67,0-1.18-.39-2.13-1.16-2.82-.77-.7-2.34-1.04-4.7-1.04h-2.1v9.16Z"/><path d="M240.19,155.27v-28.91h18.52v3.98h-12.5v8.05h10.33v3.98h-10.33v8.79h13.42v4.1h-19.43Z"/><path d="M264.21,155.27v-28.91h7.95l6.98,20.33,7.18-20.33h6.99v28.91h-5.55v-21.82l-7.06,19.88h-4.83l-6.93-20.18v22.11h-4.73Z"/><path d="M313.39,155.99c-3.01,0-5.62-.62-7.85-1.87s-3.92-3.03-5.08-5.37c-1.16-2.34-1.74-4.98-1.74-7.94s.58-5.59,1.74-7.93c1.16-2.34,2.86-4.14,5.1-5.38,2.24-1.24,4.85-1.87,7.83-1.87s5.57,.62,7.81,1.87c2.24,1.24,3.94,3.04,5.1,5.38,1.16,2.34,1.74,4.99,1.74,7.93s-.58,5.6-1.74,7.94c-1.16,2.34-2.85,4.13-5.07,5.37-2.22,1.24-4.83,1.87-7.84,1.87Zm0-3.96c2.79,0,4.86-1.14,6.22-3.41,1.36-2.27,2.04-4.88,2.04-7.81s-.68-5.55-2.05-7.81c-1.37-2.26-3.44-3.39-6.21-3.39s-4.86,1.13-6.23,3.39c-1.37,2.26-2.05,4.86-2.05,7.81s.68,5.54,2.04,7.81c1.36,2.27,3.44,3.41,6.24,3.41Z"/><path d="M341.02,155.27l-10.69-28.91h6.42l8.29,22.36,8.04-22.36h4.32l-10.36,28.91h-6.01Z"/><path d="M361.4,155.27v-28.91h18.52v3.98h-12.5v8.05h10.33v3.98h-10.33v8.79h13.42v4.1h-19.43Z"/><path d="M405.07,155.27v-12.11l-9.71-16.8h6.65l7.05,12.2,7.35-12.2h4.76l-10.1,16.76v12.15h-6.02Z"/><path d="M438.53,155.99c-3.01,0-5.62-.62-7.85-1.87s-3.92-3.03-5.08-5.37c-1.16-2.34-1.74-4.98-1.74-7.94s.58-5.59,1.74-7.93c1.16-2.34,2.86-4.14,5.1-5.38,2.24-1.24,4.85-1.87,7.83-1.87s5.57,.62,7.81,1.87c2.24,1.24,3.94,3.04,5.1,5.38,1.16,2.34,1.74,4.99,1.74,7.93s-.58,5.6-1.74,7.94c-1.16,2.34-2.85,4.13-5.07,5.37-2.22,1.24-4.83,1.87-7.84,1.87Zm0-3.96c2.79,0,4.86-1.14,6.22-3.41,1.36-2.27,2.04-4.88,2.04-7.81s-.68-5.55-2.05-7.81c-1.37-2.26-3.44-3.39-6.21-3.39s-4.86,1.13-6.23,3.39c-1.37,2.26-2.05,4.86-2.05,7.81s.68,5.54,2.04,7.81c1.36,2.27,3.44,3.41,6.24,3.41Z"/><path d="M458.35,126.36h6.02v17.73c0,3.21,.54,5.33,1.63,6.37,1.09,1.04,2.5,1.56,4.23,1.56s3.06-.51,4.07-1.54c1.01-1.03,1.51-3.02,1.51-5.96v-18.16h5.23v17.75c0,3.35-.42,5.75-1.26,7.2-.84,1.45-2.05,2.59-3.64,3.43-1.59,.83-3.6,1.25-6.04,1.25s-4.45-.39-6.17-1.16-3.08-1.93-4.08-3.46c-1-1.53-1.5-3.97-1.5-7.31v-17.7Z"/><path d="M488.04,155.27v-28.91h10.82c2.21,0,3.9,.28,5.06,.83,1.16,.55,2.07,1.39,2.74,2.52,.67,1.13,1.01,2.4,1.01,3.82,0,1.69-.49,3.29-1.46,4.79s-2.36,2.65-4.14,3.45l9.46,13.5h-7.33l-7.19-11.82h-3.31v11.82h-5.66Zm5.66-15.78h1.38c2.48,0,4.2-.54,5.14-1.62,.95-1.08,1.42-2.3,1.42-3.67,0-1.18-.38-2.13-1.15-2.82-.77-.7-2.34-1.04-4.7-1.04h-2.1v9.16Z"/></g><g id="plant"><rect class="cls-2" x="150.07" y="190.88" width="116.22" height="116.22"/><rect class="cls-15" x="153.43" y="194.24" width="109.51" height="109.51"/><rect class="cls-11" x="158.74" y="199.55" width="98.89" height="98.89"/><path id="leaf" class="cls-7" d="M208.13,223.97c-14.17,1.96-24.98,11.18-24.98,24.98,0,3.36,.65,6.62,1.86,9.6-2.61,1.77-6.43,4.1-8.29,4.75-3.26,1.12-9.79,.37-10.07,.93s1.86,6.43,2.61,6.71,6.71,.28,10.07-.93c2.42-.84,6.8-3.63,9.32-5.5,4.57,5.78,11.65,9.41,19.57,9.41,13.79,0,24.79-8.67,24.79-22.46,0-5.31,1.3-12.02,3.26-16.22,2.14-4.66,13.23-7.64,13.23-7.64-1.12-3.63-35.79-4.38-41.38-3.63Z"/><path id="darker" class="cls-5" d="M262.94,303.75h-109.51v-60.02s34.48,5.31,54.71,5.31,54.8-5.31,54.8-5.31v60.02Z"/></g><g id="microbe"><rect class="cls-2" x="291.56" y="190.88" width="116.22" height="116.22"/><rect class="cls-1" x="294.91" y="194.24" width="109.51" height="109.51"/><rect class="cls-12" x="300.23" y="199.55" width="98.89" height="98.89"/><g id="microbes"><polygon class="cls-10" points="350.93 258.92 346.27 259.48 346.92 264.14 342.26 263.39 341.51 268.05 337.32 265.91 335.27 270.1 331.82 266.84 328.65 270.29 326.32 266.19 322.22 268.42 321.29 263.86 316.72 264.88 317.1 260.22 312.44 259.75 314.21 255.47 309.92 253.7 312.9 250.06 309.27 247.08 313.18 244.47 310.57 240.65 315.05 239.34 313.74 234.78 318.4 234.87 318.49 230.21 322.97 231.61 324.37 227.23 328.19 229.84 330.89 226.02 333.78 229.74 337.41 226.86 339.09 231.24 343.47 229.65 343.75 234.31 348.41 234.03 347.29 238.6 351.86 239.62 349.44 243.63 353.54 246.05 350 249.22 353.16 252.67 348.88 254.63 350.93 258.92"/><polygon class="cls-10" points="391.1 240.18 389.51 240.74 389.51 242.89 387.09 242.14 385.6 243.54 383.17 241.95 380.75 242.61 373.95 243.54 371.06 243.26 368.08 237.57 364.72 236.55 362.02 233.66 358.76 232.07 356.24 229 353.16 227.6 351.3 224.15 348.69 221.92 347.67 219.31 345.8 217.26 345.61 215.11 344.03 213.25 345.34 211.85 345.43 209.8 346.83 209.89 348.13 208.4 350.09 209.24 353.26 206.26 355.68 208.03 358.48 208.22 361.27 210.27 364.53 211.2 366.31 215.76 369.85 217.16 372.27 220.14 375.63 222.01 377.68 224.9 380.84 227.04 386.06 229.84 388.58 232.26 388.95 234.31 390.63 236.36 390.16 238.13 391.1 240.18"/><polygon class="cls-10" points="385.88 262.46 386.25 263.02 386.9 264.41 385.6 265.25 385.69 266.84 382.52 268.05 381.22 270.1 377.3 273.92 372.92 275.97 367.14 277.65 363.7 279.79 359.04 280.82 355.12 282.68 350.55 283.52 346.92 285.29 342.54 285.48 338.62 286.69 335.55 286.6 332.38 287.34 330.33 286.78 327.44 287.25 327.25 285.85 326.42 285.48 326.6 284.08 326.42 282.68 328.56 281.56 328.37 278.21 331.82 277 334.06 275.04 337.97 273.73 342.54 272.52 346.64 271.87 350.55 269.63 355.03 268.89 359.22 267.12 363.32 266.47 367.61 264.88 374.04 261.9 378.14 260.97 380.19 261.34 383.27 260.78 384.39 261.71 385.88 262.46"/></g><path id="darker-2" class="cls-3" d="M404.42,303.75h-109.51v-60.02s34.48,5.31,54.71,5.31,54.8-5.31,54.8-5.31v60.02Z"/></g><g id="animal"><rect class="cls-2" x="433.05" y="190.88" width="116.22" height="116.22"/><rect class="cls-13" x="436.4" y="194.24" width="109.51" height="109.51"/><rect class="cls-9" x="441.71" y="199.55" width="98.89" height="98.89"/><path id="darker-3" class="cls-4" d="M545.91,303.75h-109.51v-60.02s34.48,5.31,54.71,5.31,54.8-5.31,54.8-5.31v60.02Z"/><path class="cls-14" d="M479.55,221.17c-.28,0-2.98,.37-4.57,2.61-.65,.84-.93,1.77-1.12,2.8-.37,2.05-1.12,5.78,.37,10.35,.75,2.14,1.58,4.75,4.01,6.52,.75,.56,2.24,1.58,4.19,1.4,2.14-.19,3.45-1.77,3.91-2.33,1.86-2.14,1.86-4.66,1.96-7.36,0-1.3,0-5.31-2.05-9.51-1.4-2.8-2.61-3.54-3.17-3.82-1.49-.93-3.08-.75-3.54-.65Z"/><path class="cls-14" d="M505.28,219.59c-.28-.09-2.89-.65-5.13,.84-.84,.56-1.49,1.3-2.05,2.24-1.12,1.77-3.08,4.94-3.26,9.79-.09,2.33-.19,5.03,1.49,7.55,.56,.75,1.58,2.24,3.45,2.7,2.05,.56,3.91-.47,4.47-.84,2.42-1.4,3.45-3.73,4.47-6.24,.47-1.21,1.86-4.94,1.4-9.6-.28-3.08-1.21-4.19-1.68-4.66-1.21-1.21-2.7-1.58-3.17-1.77Z"/><path class="cls-14" d="M462.12,236.08c-.28,.09-2.89,.65-4.29,2.98-.56,.93-.75,1.77-.84,2.89-.19,2.05-.56,5.78,1.3,10.25,.93,2.05,1.96,4.57,4.66,6.15,.84,.47,2.42,1.3,4.29,.93,2.14-.37,3.26-2.05,3.73-2.7,1.58-2.33,1.49-4.85,1.3-7.55-.09-1.3-.47-5.22-2.98-9.23-1.58-2.61-2.89-3.26-3.54-3.54-1.68-.56-3.08-.28-3.63-.19Z"/><path class="cls-14" d="M520.84,233.85c-.28-.09-2.89-.65-5.13,.93-.84,.65-1.4,1.4-1.96,2.33-1.03,1.86-2.98,5.03-2.98,9.88,0,2.33-.09,5.03,1.68,7.46,.56,.75,1.68,2.24,3.54,2.61,2.05,.47,3.82-.56,4.47-.93,2.42-1.4,3.36-3.82,4.29-6.34,.47-1.21,1.77-4.94,1.12-9.6-.37-3.08-1.3-4.19-1.77-4.66-1.3-1.21-2.8-1.58-3.26-1.68Z"/><path class="cls-8" d="M520.19,236.83c-.19,0-2.14-.47-3.82,.75-.65,.47-1.03,1.03-1.49,1.68-.75,1.4-2.14,3.73-2.24,7.36,0,1.68-.09,3.73,1.3,5.59,.37,.56,1.21,1.68,2.61,1.96,1.58,.37,2.89-.47,3.36-.65,1.77-1.12,2.42-2.8,3.17-4.75,.37-.93,1.3-3.73,.84-7.18-.28-2.24-1.03-3.08-1.3-3.45-.93-1.03-2.05-1.3-2.42-1.3Z"/><path class="cls-8" d="M504.53,222.66c-.19-.09-2.14-.47-3.82,.56-.65,.47-1.03,.93-1.49,1.68-.84,1.3-2.24,3.63-2.42,7.27-.09,1.68-.19,3.73,1.12,5.59,.37,.56,1.12,1.68,2.52,2.05,1.58,.37,2.89-.37,3.36-.56,1.77-1.03,2.52-2.7,3.26-4.57,.37-.93,1.4-3.63,1.03-7.08-.28-2.24-.93-3.08-1.21-3.45-.93-1.12-1.96-1.4-2.33-1.49Z"/><path class="cls-8" d="M479.93,224.25c-.19,0-2.14,.28-3.36,1.86-.47,.65-.65,1.3-.84,2.05-.28,1.49-.84,4.19,.28,7.64,.56,1.58,1.12,3.54,2.98,4.85,.56,.37,1.68,1.12,3.08,1.03,1.58-.19,2.52-1.3,2.89-1.68,1.3-1.58,1.4-3.45,1.49-5.41,0-.93,0-3.91-1.58-6.99-1.03-2.05-1.96-2.61-2.33-2.8-1.12-.75-2.24-.65-2.61-.56Z"/><path class="cls-8" d="M462.78,238.78c-.19,0-2.24,.47-3.26,2.33-.47,.75-.56,1.4-.65,2.24-.19,1.58-.47,4.47,1.03,7.83,.65,1.58,1.49,3.54,3.54,4.66,.65,.37,1.86,1.03,3.26,.75,1.58-.28,2.52-1.58,2.8-2.05,1.21-1.77,1.12-3.73,1.03-5.78-.09-1.03-.37-4.01-2.24-7.08-1.21-2.05-2.24-2.52-2.7-2.7-1.3-.47-2.52-.19-2.8-.19Z"/><path class="cls-14" d="M491.95,243.72c-1.3,.09-2.7,.09-4.29,.93-1.77,.93-2.8,2.33-3.73,3.54-.84,1.12-.75,1.21-1.96,3.17-1.12,1.68-1.68,2.7-2.7,3.82-1.21,1.4-2.42,2.24-4.57,3.91-2.33,1.77-2.52,1.68-3.17,2.42-1.58,1.86-1.96,3.91-2.24,5.31-.19,1.3-.65,3.73,.37,6.52,.47,1.21,1.3,3.54,3.45,4.57,.84,.37,1.68,.47,3.73,.37,3.45-.19,5.78-.84,7.83-1.3,2.42-.56,4.94-1.12,8.11-1.21,3.82-.09,7.18,.56,8.95,.84,2.05,.37,3.54,.84,6.43,1.12,2.42,.28,3.63,.19,5.03-.28,.84-.28,2.33-.75,3.45-2.05,1.21-1.49,1.3-3.08,1.3-4.75,.09-1.12,.09-3.82-1.49-6.99-.65-1.4-1.21-2.05-3.36-4.66-5.78-7.18-6.06-8.02-8.39-9.97-1.4-1.21-2.8-2.42-4.94-3.45-1.12-.65-4.01-2.05-7.83-1.86Z"/><path class="cls-8" d="M492.23,246.15c-1.12,.09-2.33,.09-3.73,.84-1.49,.84-2.42,2.05-3.17,3.08-.75,.93-.65,1.03-1.68,2.8-.93,1.49-1.49,2.33-2.33,3.26-1.03,1.21-2.05,1.96-3.91,3.36-2.05,1.58-2.14,1.4-2.8,2.14-1.4,1.58-2.61,4.01-2.89,5.13-.19,1.12-.56,3.17,.28,5.59,.37,1.12,1.12,3.08,2.98,3.91,.75,.37,2.42-.09,4.1-.28,2.98-.19,5.03-.75,6.8-1.12,2.05-.47,4.29-.93,6.99-1.03,3.26-.09,6.15,.47,7.74,.75,1.77,.37,3.08,.75,5.5,.93,2.05,.19,4.57,1.03,5.69,.65,.75-.19,1.96-.75,2.98-1.96,1.03-1.21,.75-3.82,.84-5.31,.09-.93-.75-2.98-2.33-5.69-.75-1.3-1.12-1.77-2.89-4.01-4.94-6.15-5.22-6.9-7.18-8.57-1.21-1.03-2.42-2.05-4.29-2.98-.93-.47-3.45-1.68-6.71-1.49Z"/></g></g></svg>