<?xml version="1.0" encoding="UTF-8"?><svg id="Layer" xmlns="http://www.w3.org/2000/svg" viewBox="0 0 721 379.91"><defs><style>.cls-1{fill:#fff;opacity:0;stroke:#1d1d1b;stroke-miterlimit:10;}</style></defs><rect class="cls-1" x=".5" y=".5" width="720" height="378.91"/><g><path d="M26.87,156.59v-27.66h5.76v23.73h12.32v3.92H26.87Z"/><path d="M61.44,157.28c-2.88,0-5.38-.6-7.51-1.78-2.13-1.19-3.75-2.9-4.86-5.14-1.11-2.24-1.66-4.77-1.66-7.6s.55-5.35,1.66-7.59c1.11-2.24,2.73-3.96,4.88-5.15,2.14-1.19,4.64-1.78,7.49-1.78s5.33,.6,7.48,1.78c2.14,1.19,3.77,2.91,4.88,5.15,1.11,2.24,1.66,4.77,1.66,7.59s-.55,5.36-1.66,7.6c-1.11,2.24-2.73,3.95-4.85,5.14-2.12,1.19-4.63,1.78-7.5,1.78Zm0-3.79c2.67,0,4.65-1.09,5.95-3.26,1.3-2.18,1.95-4.67,1.95-7.47s-.65-5.31-1.96-7.47-3.29-3.25-5.94-3.25-4.65,1.08-5.96,3.25-1.96,4.65-1.96,7.47,.65,5.3,1.95,7.47c1.3,2.18,3.29,3.26,5.97,3.26Z"/><path d="M92.95,157.28c-2.88,0-5.38-.6-7.51-1.78-2.13-1.19-3.75-2.9-4.86-5.14-1.11-2.24-1.66-4.77-1.66-7.6s.55-5.35,1.66-7.59c1.11-2.24,2.73-3.96,4.88-5.15,2.14-1.19,4.64-1.78,7.49-1.78s5.33,.6,7.48,1.78c2.14,1.19,3.77,2.91,4.88,5.15,1.11,2.24,1.66,4.77,1.66,7.59s-.55,5.36-1.66,7.6c-1.11,2.24-2.73,3.95-4.85,5.14-2.12,1.19-4.63,1.78-7.5,1.78Zm0-3.79c2.67,0,4.65-1.09,5.95-3.26,1.3-2.18,1.95-4.67,1.95-7.47s-.65-5.31-1.96-7.47-3.29-3.25-5.94-3.25-4.65,1.08-5.96,3.25-1.96,4.65-1.96,7.47,.65,5.3,1.95,7.47c1.3,2.18,3.29,3.26,5.97,3.26Z"/><path d="M112.15,156.59v-27.66h5.53v13.42l10.25-13.42h4.72l-9.26,12.37,11.57,15.28h-7.12l-10.16-13.61v13.61h-5.53Z"/><path d="M148.51,156.59l10.77-27.66h5.77l10.76,27.66h-5.92l-2.87-7.38h-11.45l-2.88,7.38h-4.19Zm8.5-11.06h8.58l-4.29-11.03-4.29,11.03Z"/><path d="M186.6,156.59v-23.85h-9.91v-3.81h25.57v3.81h-9.91v23.85h-5.76Z"/><path d="M225.23,156.59v-23.85h-9.91v-3.81h25.57v3.81h-9.91v23.85h-5.76Z"/><path d="M244.76,156.59v-27.66h5.76v11.23h11.44v-11.23h5.76v27.66h-5.76v-12.61h-11.44v12.61h-5.76Z"/><path d="M274.63,156.59v-27.66h17.72v3.81h-11.96v7.7h9.89v3.81h-9.89v8.41h12.84v3.92h-18.6Z"/><path d="M316.71,156.59v-23.85h-9.91v-3.81h25.57v3.81h-9.91v23.85h-5.76Z"/><path d="M348.56,157.28c-2.88,0-5.38-.6-7.51-1.78-2.13-1.19-3.75-2.9-4.86-5.14-1.11-2.24-1.66-4.77-1.66-7.6s.55-5.35,1.66-7.59c1.11-2.24,2.73-3.96,4.88-5.15,2.14-1.19,4.64-1.78,7.49-1.78s5.33,.6,7.48,1.78c2.14,1.19,3.77,2.91,4.88,5.15,1.11,2.24,1.66,4.77,1.66,7.59s-.55,5.36-1.66,7.6c-1.11,2.24-2.73,3.95-4.85,5.14-2.12,1.19-4.63,1.78-7.5,1.78Zm0-3.79c2.67,0,4.65-1.09,5.95-3.26,1.3-2.18,1.95-4.67,1.95-7.47s-.65-5.31-1.96-7.47-3.29-3.25-5.94-3.25-4.65,1.08-5.96,3.25-1.96,4.65-1.96,7.47,.65,5.3,1.95,7.47c1.3,2.18,3.29,3.26,5.97,3.26Z"/><path d="M367.75,156.59v-27.66h9.51c2.76,0,4.71,.29,5.83,.87,1.12,.58,1.97,1.4,2.54,2.46,.57,1.06,.86,2.39,.86,4,0,3.09-.97,5.44-2.92,7.06-1.95,1.62-4.56,2.43-7.83,2.43h-2.35v10.84h-5.64Zm5.64-14.63h1.08c2.12,0,3.67-.51,4.66-1.52s1.49-2.21,1.49-3.58c0-.77-.16-1.47-.47-2.1-.31-.63-.8-1.12-1.45-1.49-.66-.36-1.71-.54-3.15-.54h-2.16v9.23Z"/><path d="M403.35,156.38v-4.15c2.74,1.06,5.02,1.59,6.82,1.59,1.59,0,2.9-.42,3.92-1.26s1.53-1.97,1.53-3.39c0-1.03-.27-1.97-.8-2.81-.54-.84-1.32-1.5-2.35-1.96-1.03-.47-2.65-.7-4.87-.7h-1.7v-3.31l1.44-.02c2.12,0,3.64-.19,4.56-.57,.92-.38,1.64-.97,2.17-1.77,.52-.8,.79-1.66,.79-2.58,0-1.11-.38-2.01-1.13-2.71s-1.93-1.05-3.52-1.05c-2.02,0-4.18,.52-6.49,1.57v-3.78c1.16-.4,2.08-.66,2.76-.79,.68-.13,1.47-.24,2.38-.33,.91-.09,1.77-.13,2.58-.13,2.9,0,5.14,.6,6.72,1.79s2.37,2.8,2.37,4.81c0,1.63-.51,3.02-1.52,4.17s-2.54,2.06-4.59,2.73c1.78,.41,3.14,.98,4.08,1.71,.94,.73,1.66,1.59,2.16,2.58,.5,.99,.75,2.05,.75,3.19,0,2.09-.82,3.96-2.47,5.6-1.65,1.64-4.32,2.46-8.01,2.46-.97,0-2-.03-3.09-.08s-2.58-.33-4.48-.81Z"/><path d="M462.37,155.5c-1.21,.53-2.26,.89-3.16,1.09-.9,.2-1.92,.36-3.06,.49s-2.26,.19-3.37,.19c-4.83,0-8.44-1.36-10.82-4.09-2.38-2.73-3.57-6.2-3.57-10.43s1.19-7.73,3.56-10.45c2.37-2.72,6.1-4.07,11.19-4.07,3,0,5.99,.35,8.97,1.06v4.5c-1.43-.5-2.61-.86-3.51-1.09-.91-.23-1.77-.4-2.59-.51-.82-.11-1.63-.17-2.44-.17-3.18,0-5.48,1.02-6.92,3.06-1.43,2.04-2.15,4.57-2.15,7.59,0,3.16,.81,5.73,2.44,7.68,1.62,1.96,4.04,2.93,7.26,2.93,2.68,0,5.4-.68,8.17-2.04v4.24Z"/><path d="M464.35,156.59l10.77-27.66h5.77l10.76,27.66h-5.92l-2.87-7.38h-11.45l-2.88,7.38h-4.19Zm8.5-11.06h8.58l-4.29-11.03-4.29,11.03Z"/><path d="M495.56,156.59v-27.66h10.35c2.12,0,3.73,.26,4.84,.79,1.11,.53,1.98,1.33,2.62,2.41s.96,2.3,.96,3.65c0,1.62-.47,3.15-1.4,4.59-.93,1.44-2.25,2.54-3.96,3.3l9.05,12.91h-7.01l-6.88-11.31h-3.17v11.31h-5.42Zm5.42-15.1h1.33c2.38,0,4.02-.52,4.92-1.55,.91-1.03,1.36-2.21,1.36-3.51,0-1.13-.37-2.03-1.11-2.7-.74-.67-2.24-1-4.5-1h-2.01v8.76Z"/><path d="M521.97,156.59v-27.66h11.9c3.19,0,5.67,.51,7.45,1.53,1.78,1.02,3.19,2.53,4.24,4.51s1.58,4.39,1.58,7.2-.5,5.21-1.5,7.38c-1,2.17-2.46,3.88-4.38,5.14-1.92,1.26-4.55,1.89-7.89,1.89h-11.4Zm5.76-3.92h4.3c2.24,0,3.96-.35,5.15-1.05s2.13-1.88,2.82-3.54,1.04-3.52,1.04-5.56-.34-3.69-1.01-5.2c-.67-1.51-1.6-2.65-2.79-3.43-1.19-.78-3.2-1.17-6.03-1.17h-3.48v19.94Z"/><path d="M550.77,156.34v-4.75c2.16,.91,3.77,1.45,4.84,1.62,1.07,.18,2.05,.26,2.95,.26,1.62,0,2.82-.36,3.62-1.08s1.19-1.59,1.19-2.6c0-.77-.22-1.47-.67-2.1-.45-.61-1.54-1.4-3.27-2.38l-1.87-1.03c-2.67-1.48-4.47-2.86-5.41-4.11-.96-1.26-1.43-2.72-1.43-4.38,0-2.08,.8-3.86,2.39-5.35,1.59-1.48,3.88-2.23,6.86-2.23,2.23,0,4.74,.32,7.53,.95v4.43c-2.86-1.06-5.13-1.59-6.81-1.59-1.39,0-2.45,.3-3.18,.91-.73,.6-1.09,1.33-1.09,2.18,0,.65,.22,1.25,.67,1.81,.43,.56,1.52,1.33,3.25,2.3l2,1.1c3.05,1.71,5,3.19,5.85,4.45,.83,1.27,1.24,2.7,1.24,4.28,0,2.27-.86,4.2-2.59,5.81-1.73,1.61-4.48,2.41-8.25,2.41-2.24,0-4.84-.31-7.81-.93Z"/><path d="M586.41,156.59v-27.66h17.23v3.81h-11.47v8.39h9.4v3.81h-9.4v11.64h-5.76Z"/><path d="M608.39,156.59v-27.66h10.35c2.12,0,3.73,.26,4.84,.79,1.11,.53,1.98,1.33,2.63,2.41,.64,1.08,.96,2.3,.96,3.65,0,1.62-.47,3.15-1.4,4.59-.94,1.44-2.26,2.54-3.96,3.3l9.05,12.91h-7.01l-6.88-11.31h-3.16v11.31h-5.42Zm5.42-15.1h1.32c2.38,0,4.02-.52,4.92-1.55,.91-1.03,1.36-2.21,1.36-3.51,0-1.13-.37-2.03-1.11-2.7-.74-.67-2.23-1-4.5-1h-2v8.76Z"/><path d="M647.11,157.28c-2.88,0-5.38-.6-7.51-1.78-2.13-1.19-3.75-2.9-4.86-5.14-1.11-2.24-1.66-4.77-1.66-7.6s.55-5.35,1.66-7.59c1.11-2.24,2.73-3.96,4.88-5.15,2.14-1.19,4.64-1.78,7.49-1.78s5.33,.6,7.48,1.78c2.14,1.19,3.77,2.91,4.88,5.15,1.11,2.24,1.66,4.77,1.66,7.59s-.55,5.36-1.66,7.6c-1.11,2.24-2.73,3.95-4.85,5.14-2.12,1.19-4.62,1.78-7.5,1.78Zm0-3.79c2.67,0,4.65-1.09,5.95-3.26,1.3-2.18,1.95-4.67,1.95-7.47s-.65-5.31-1.96-7.47-3.29-3.25-5.94-3.25-4.65,1.08-5.96,3.25-1.96,4.65-1.96,7.47,.65,5.3,1.95,7.47c1.3,2.18,3.29,3.26,5.97,3.26Z"/><path d="M666.3,156.59v-27.66h7.61l6.68,19.46,6.87-19.46h6.69v27.66h-5.31v-20.88l-6.76,19.03h-4.63l-6.63-19.31v21.16h-4.52Z"/><path d="M37.57,202.52v-23.85h-9.91v-3.81h25.57v3.81h-9.91v23.85h-5.76Z"/><path d="M57.1,202.52v-27.66h5.76v11.23h11.44v-11.23h5.76v27.66h-5.76v-12.62h-11.44v12.62h-5.76Z"/><path d="M86.96,202.52v-27.66h17.72v3.81h-11.96v7.7h9.89v3.81h-9.89v8.41h12.84v3.92h-18.6Z"/><path d="M122.17,202.52v-27.66h11.9c3.19,0,5.67,.51,7.45,1.53,1.78,1.02,3.19,2.53,4.24,4.51s1.58,4.39,1.58,7.2-.5,5.21-1.5,7.38-2.46,3.88-4.38,5.14c-1.92,1.26-4.55,1.89-7.89,1.89h-11.4Zm5.76-3.92h4.3c2.24,0,3.96-.35,5.15-1.05,1.19-.7,2.13-1.88,2.82-3.54,.69-1.66,1.04-3.52,1.04-5.56s-.34-3.69-1.01-5.2c-.67-1.51-1.6-2.65-2.79-3.43-1.19-.78-3.2-1.17-6.03-1.17h-3.48v19.94Z"/><path d="M152.52,202.52v-27.66h17.72v3.81h-11.96v7.7h9.89v3.81h-9.89v8.41h12.84v3.92h-18.6Z"/><path d="M197.77,201.43c-1.21,.53-2.26,.89-3.16,1.09s-1.92,.36-3.06,.49c-1.14,.13-2.26,.19-3.37,.19-4.83,0-8.44-1.36-10.82-4.09-2.38-2.73-3.57-6.21-3.57-10.43s1.19-7.73,3.56-10.45c2.37-2.72,6.1-4.07,11.19-4.07,3,0,5.99,.35,8.97,1.06v4.5c-1.43-.5-2.6-.86-3.51-1.09-.91-.23-1.77-.4-2.59-.51s-1.63-.17-2.44-.17c-3.18,0-5.48,1.02-6.91,3.06-1.43,2.04-2.15,4.57-2.15,7.59,0,3.17,.81,5.72,2.44,7.68s4.05,2.93,7.26,2.93c2.68,0,5.4-.68,8.17-2.04v4.24Z"/><path d="M202.78,202.52v-27.66h5.53v13.42l10.25-13.42h4.72l-9.26,12.37,11.57,15.29h-7.12l-10.16-13.61v13.61h-5.53Z"/><path d="M228.23,202.52v-6h6v6h-6Z"/><path d="M258.51,202.52v-23.85h-9.91v-3.81h25.57v3.81h-9.91v23.85h-5.76Z"/><path d="M275.01,202.52l10.77-27.66h5.77l10.76,27.66h-5.92l-2.87-7.38h-11.45l-2.88,7.38h-4.19Zm8.5-11.06h8.58l-4.29-11.03-4.29,11.03Z"/><path d="M306.22,202.52v-27.66h5.53v13.42l10.25-13.42h4.72l-9.26,12.37,11.57,15.29h-7.12l-10.16-13.61v13.61h-5.53Z"/><path d="M333.39,202.52v-27.66h17.72v3.81h-11.96v7.7h9.89v3.81h-9.89v8.41h12.84v3.92h-18.6Z"/><path d="M374.71,202.52v-24.44h-3.7l-.11-2.77,9.34-.8v28.01h-5.53Z"/><path d="M417.58,203.21c-2.88,0-5.38-.59-7.51-1.79-2.13-1.19-3.75-2.9-4.86-5.14-1.11-2.24-1.66-4.77-1.66-7.6s.55-5.34,1.66-7.59c1.11-2.24,2.73-3.96,4.88-5.15,2.14-1.19,4.64-1.78,7.49-1.78s5.33,.6,7.48,1.78c2.14,1.19,3.77,2.91,4.88,5.15,1.11,2.24,1.66,4.77,1.66,7.59s-.55,5.36-1.66,7.6-2.73,3.95-4.85,5.14c-2.12,1.19-4.62,1.79-7.5,1.79Zm0-3.79c2.67,0,4.65-1.09,5.95-3.26,1.3-2.18,1.95-4.67,1.95-7.47s-.65-5.31-1.96-7.47-3.29-3.25-5.94-3.25-4.65,1.08-5.96,3.25-1.96,4.65-1.96,7.47,.65,5.3,1.95,7.47c1.3,2.18,3.29,3.26,5.97,3.26Z"/><path d="M436.78,202.52v-27.66h17.23v3.81h-11.47v8.39h9.4v3.81h-9.4v11.64h-5.76Z"/><path d="M477.86,202.52v-23.85h-9.9v-3.81h25.57v3.81h-9.91v23.85h-5.76Z"/><path d="M497.38,202.52v-27.66h5.76v11.23h11.44v-11.23h5.76v27.66h-5.76v-12.62h-11.44v12.62h-5.76Z"/><path d="M527.25,202.52v-27.66h17.72v3.81h-11.96v7.7h9.89v3.81h-9.89v8.41h12.84v3.92h-18.6Z"/><path d="M550.24,202.52v-27.66h7.61l6.68,19.46,6.87-19.46h6.69v27.66h-5.31v-20.88l-6.76,19.02h-4.63l-6.63-19.31v21.16h-4.52Z"/><path d="M597.2,202.52v-27.66h5.76v27.66h-5.76Z"/><path d="M609.89,202.52v-27.66h5.07l12.79,18.89v-18.89h4.62v27.66h-5.16l-12.7-18.89v18.89h-4.62Z"/><path d="M646.19,202.52v-23.85h-9.91v-3.81h25.57v3.81h-9.9v23.85h-5.76Z"/><path d="M678.03,203.21c-2.88,0-5.38-.59-7.51-1.79-2.13-1.19-3.75-2.9-4.86-5.14-1.11-2.24-1.66-4.77-1.66-7.6s.55-5.34,1.66-7.59c1.11-2.24,2.73-3.96,4.88-5.15,2.14-1.19,4.64-1.78,7.49-1.78s5.33,.6,7.48,1.78c2.14,1.19,3.77,2.91,4.88,5.15,1.11,2.24,1.66,4.77,1.66,7.59s-.55,5.36-1.66,7.6-2.73,3.95-4.85,5.14c-2.12,1.19-4.62,1.79-7.5,1.79Zm0-3.79c2.67,0,4.65-1.09,5.95-3.26,1.3-2.18,1.95-4.67,1.95-7.47s-.65-5.31-1.96-7.47-3.29-3.25-5.94-3.25-4.65,1.08-5.96,3.25-1.96,4.65-1.96,7.47,.65,5.3,1.95,7.47c1.3,2.18,3.29,3.26,5.97,3.26Z"/><path d="M16.8,248.44v-27.66h5.76v11.23h11.44v-11.23h5.76v27.66h-5.76v-12.62h-11.44v12.62h-5.76Z"/><path d="M43.63,248.44l10.77-27.66h5.77l10.76,27.66h-5.92l-2.87-7.38h-11.45l-2.88,7.38h-4.19Zm8.5-11.06h8.58l-4.29-11.03-4.29,11.03Z"/><path d="M74.84,248.44v-27.66h5.07l12.79,18.89v-18.89h4.62v27.66h-5.16l-12.7-18.89v18.89h-4.62Z"/><path d="M104.26,248.44v-27.66h11.9c3.19,0,5.67,.51,7.45,1.53s3.19,2.53,4.24,4.51,1.58,4.39,1.58,7.2-.5,5.21-1.5,7.38-2.46,3.88-4.38,5.14c-1.92,1.26-4.55,1.89-7.89,1.89h-11.4Zm5.76-3.92h4.3c2.24,0,3.96-.35,5.15-1.05,1.19-.7,2.13-1.88,2.82-3.54,.69-1.66,1.04-3.52,1.04-5.56s-.34-3.69-1.01-5.2c-.67-1.51-1.6-2.65-2.79-3.43-1.19-.78-3.2-1.17-6.03-1.17h-3.48v19.94Z"/><path d="M143.8,248.44l10.77-27.66h5.77l10.76,27.66h-5.92l-2.87-7.38h-11.45l-2.88,7.38h-4.19Zm8.5-11.06h8.58l-4.29-11.03-4.29,11.03Z"/><path d="M175.02,248.44v-27.66h5.07l12.79,18.89v-18.89h4.62v27.66h-5.16l-12.7-18.89v18.89h-4.62Z"/><path d="M204.43,248.44v-27.66h11.9c3.19,0,5.67,.51,7.45,1.53s3.19,2.53,4.24,4.51,1.58,4.39,1.58,7.2-.5,5.21-1.5,7.38-2.46,3.88-4.38,5.14c-1.92,1.26-4.55,1.89-7.89,1.89h-11.4Zm5.76-3.92h4.3c2.24,0,3.96-.35,5.15-1.05,1.19-.7,2.13-1.88,2.82-3.54,.69-1.66,1.04-3.52,1.04-5.56s-.34-3.69-1.01-5.2c-.67-1.51-1.6-2.65-2.79-3.43-1.19-.78-3.2-1.17-6.03-1.17h-3.48v19.94Z"/><path d="M247,248.44v-27.66h11.9c3.19,0,5.67,.51,7.45,1.53s3.19,2.53,4.24,4.51,1.58,4.39,1.58,7.2-.5,5.21-1.5,7.38-2.46,3.88-4.38,5.14c-1.92,1.26-4.55,1.89-7.89,1.89h-11.4Zm5.76-3.92h4.3c2.24,0,3.96-.35,5.15-1.05,1.19-.7,2.13-1.88,2.82-3.54,.69-1.66,1.04-3.52,1.04-5.56s-.34-3.69-1.01-5.2c-.67-1.51-1.6-2.65-2.79-3.43-1.19-.78-3.2-1.17-6.03-1.17h-3.48v19.94Z"/><path d="M277.35,248.44v-27.66h5.76v27.66h-5.76Z"/><path d="M288.49,248.2v-4.75c2.16,.91,3.77,1.45,4.84,1.62,1.07,.18,2.05,.26,2.95,.26,1.62,0,2.82-.36,3.62-1.08,.8-.72,1.19-1.59,1.19-2.6,0-.77-.22-1.47-.67-2.09-.45-.61-1.54-1.4-3.27-2.38l-1.87-1.03c-2.67-1.48-4.47-2.86-5.41-4.12-.96-1.26-1.43-2.72-1.43-4.38,0-2.08,.8-3.86,2.39-5.35,1.59-1.48,3.88-2.23,6.86-2.23,2.23,0,4.74,.32,7.53,.95v4.43c-2.86-1.06-5.13-1.59-6.81-1.59-1.39,0-2.45,.3-3.18,.91-.73,.6-1.09,1.33-1.09,2.18,0,.65,.22,1.25,.67,1.81,.43,.56,1.52,1.33,3.25,2.3l2,1.1c3.06,1.71,5,3.19,5.85,4.45,.83,1.27,1.24,2.7,1.24,4.28,0,2.27-.86,4.2-2.59,5.81-1.73,1.61-4.48,2.41-8.25,2.41-2.24,0-4.84-.31-7.81-.93Z"/><path d="M334.17,247.36c-1.21,.53-2.26,.89-3.16,1.09s-1.92,.36-3.06,.49c-1.14,.13-2.26,.19-3.37,.19-4.83,0-8.44-1.36-10.82-4.09-2.38-2.73-3.57-6.21-3.57-10.43s1.19-7.73,3.56-10.45,6.1-4.07,11.19-4.07c3,0,5.99,.35,8.97,1.07v4.5c-1.43-.5-2.6-.86-3.51-1.09-.91-.23-1.77-.4-2.59-.51s-1.63-.17-2.44-.17c-3.18,0-5.48,1.02-6.91,3.06-1.43,2.04-2.15,4.57-2.15,7.59,0,3.17,.81,5.72,2.44,7.68s4.05,2.93,7.26,2.93c2.68,0,5.4-.68,8.17-2.04v4.24Z"/><path d="M336.15,248.44l10.77-27.66h5.77l10.76,27.66h-5.92l-2.87-7.38h-11.45l-2.88,7.38h-4.19Zm8.5-11.06h8.58l-4.29-11.03-4.29,11.03Z"/><path d="M367.36,248.44v-27.66h10.35c2.12,0,3.73,.26,4.84,.79,1.11,.53,1.98,1.33,2.63,2.41,.64,1.08,.96,2.3,.96,3.65,0,1.62-.47,3.15-1.4,4.59-.94,1.44-2.26,2.54-3.96,3.3l9.05,12.91h-7.01l-6.88-11.31h-3.16v11.31h-5.42Zm5.42-15.1h1.32c2.38,0,4.02-.52,4.92-1.55,.91-1.03,1.36-2.21,1.36-3.51,0-1.13-.37-2.03-1.11-2.7-.74-.67-2.23-1-4.5-1h-2v8.76Z"/><path d="M393.77,248.44v-27.66h11.9c3.19,0,5.67,.51,7.45,1.53s3.19,2.53,4.24,4.51,1.58,4.39,1.58,7.2-.5,5.21-1.5,7.38c-1,2.17-2.46,3.88-4.38,5.14-1.92,1.26-4.55,1.89-7.89,1.89h-11.4Zm5.76-3.92h4.3c2.24,0,3.96-.35,5.15-1.05,1.19-.7,2.13-1.88,2.82-3.54s1.04-3.52,1.04-5.56-.34-3.69-1.01-5.2c-.67-1.51-1.6-2.65-2.79-3.43-1.19-.78-3.2-1.17-6.03-1.17h-3.48v19.94Z"/><path d="M443.22,248.44v-23.85h-9.91v-3.81h25.57v3.81h-9.9v23.85h-5.76Z"/><path d="M462.75,248.44v-27.66h5.76v11.23h11.44v-11.23h5.76v27.66h-5.76v-12.62h-11.44v12.62h-5.76Z"/><path d="M492.61,248.44v-27.66h17.72v3.81h-11.96v7.7h9.88v3.81h-9.88v8.41h12.84v3.92h-18.6Z"/><path d="M540.14,249.14c-2.88,0-5.38-.59-7.51-1.79-2.13-1.19-3.75-2.9-4.86-5.14s-1.66-4.77-1.66-7.6,.55-5.34,1.66-7.59c1.11-2.24,2.73-3.96,4.88-5.15,2.14-1.19,4.64-1.78,7.49-1.78s5.33,.59,7.47,1.78c2.14,1.19,3.77,2.91,4.88,5.15,1.11,2.24,1.66,4.77,1.66,7.59s-.55,5.36-1.66,7.6c-1.11,2.24-2.73,3.95-4.85,5.14-2.12,1.19-4.62,1.79-7.5,1.79Zm0-3.79c2.67,0,4.65-1.09,5.95-3.26,1.3-2.18,1.95-4.67,1.95-7.47s-.65-5.31-1.96-7.47c-1.31-2.16-3.29-3.25-5.94-3.25s-4.65,1.08-5.96,3.25-1.96,4.65-1.96,7.47,.65,5.3,1.95,7.47c1.3,2.18,3.29,3.26,5.97,3.26Z"/><path d="M566.21,248.44v-23.85h-9.91v-3.81h25.57v3.81h-9.9v23.85h-5.76Z"/><path d="M585.74,248.44v-27.66h5.76v11.23h11.44v-11.23h5.76v27.66h-5.76v-12.62h-11.44v12.62h-5.76Z"/><path d="M615.6,248.44v-27.66h17.72v3.81h-11.96v7.7h9.88v3.81h-9.88v8.41h12.84v3.92h-18.6Z"/><path d="M638.59,248.44v-27.66h10.35c2.12,0,3.73,.26,4.84,.79,1.11,.53,1.98,1.33,2.63,2.41,.64,1.08,.96,2.3,.96,3.65,0,1.62-.47,3.15-1.4,4.59-.94,1.44-2.26,2.54-3.96,3.3l9.05,12.91h-7.01l-6.88-11.31h-3.16v11.31h-5.42Zm5.42-15.1h1.32c2.38,0,4.02-.52,4.92-1.55,.91-1.03,1.36-2.21,1.36-3.51,0-1.13-.37-2.03-1.11-2.7-.74-.67-2.23-1-4.5-1h-2v8.76Z"/><path d="M676.11,248.44v-4.37c1.67-2.24,3.29-4.05,4.86-5.42l2.26-2c1.62-1.43,2.95-2.85,4.01-4.25,1.06-1.4,1.58-2.87,1.58-4.4,0-1.38-.45-2.45-1.34-3.21s-2.1-1.13-3.62-1.13c-2.02,0-4.37,.69-7.04,2.06v-4.06c2.81-1.05,5.53-1.57,8.16-1.57,2.9,0,5.24,.69,7.03,2.08,1.79,1.39,2.68,3.25,2.68,5.58,0,1.47-.38,2.86-1.13,4.16-.75,1.3-2.32,2.91-4.7,4.83l-1.87,1.5c-.82,.66-1.72,1.51-2.7,2.54s-1.62,2.13-1.93,3.29h12.2v4.37h-18.46Z"/><path d="M699.94,248.44v-6h6v6h-6Z"/></g></svg>