<?xml version="1.0" encoding="UTF-8"?><svg id="Layer" xmlns="http://www.w3.org/2000/svg" xmlns:xlink="http://www.w3.org/1999/xlink" viewBox="0 0 721 379.91"><defs><style>.cls-1{fill:url(#linear-gradient-2);}.cls-2{fill:#20201e;}.cls-3,.cls-4{fill:#020303;}.cls-5{fill:url(#linear-gradient-6);}.cls-6{fill:url(#linear-gradient-11);}.cls-7{fill:#fff;opacity:0;stroke:#1d1d1b;}.cls-7,.cls-4{stroke-miterlimit:10;}.cls-8{fill:url(#linear-gradient-10);}.cls-9{fill:url(#Nowy_wzorek_4);opacity:.1;}.cls-9,.cls-10{isolation:isolate;}.cls-11{fill:#f5ea52;}.cls-12{fill:url(#linear-gradient-5);}.cls-4{stroke:#030404;stroke-width:1.9px;}.cls-13{fill:none;}.cls-14{fill:url(#linear-gradient-7);}.cls-15{fill:url(#linear-gradient-9);}.cls-16{fill:url(#linear-gradient-3);}.cls-10{fill:url(#linear-gradient-8);opacity:.4;}.cls-17{fill:url(#linear-gradient);}.cls-18{fill:#010202;}.cls-19{fill:#686868;}.cls-20{fill:url(#linear-gradient-4);}.cls-21{fill:#010101;}</style><linearGradient id="linear-gradient" x1="499.24" y1="-205.64" x2="222.47" y2="71.13" gradientTransform="translate(0 127.45) scale(1 -1)" gradientUnits="userSpaceOnUse"><stop offset="0" stop-color="#9f9d9c"/><stop offset=".54" stop-color="#020303"/><stop offset="1" stop-color="#9f9d9c"/></linearGradient><linearGradient id="linear-gradient-2" x1="360.93" y1="-149.89" x2="360.93" y2="15.37" gradientTransform="translate(0 127.45) scale(1 -1)" gradientUnits="userSpaceOnUse"><stop offset="0" stop-color="#472d1c"/><stop offset="1" stop-color="#b18047"/></linearGradient><linearGradient id="linear-gradient-3" x1="360.84" y1="-145.72" x2="360.84" y2="11.33" gradientTransform="translate(0 127.45) scale(1 -1)" gradientUnits="userSpaceOnUse"><stop offset="0" stop-color="#946137"/><stop offset="1" stop-color="#815228"/></linearGradient><pattern id="Nowy_wzorek_4" x="0" y="0" width="19.7" height="21.7" patternTransform="translate(43.4 -32285.17) scale(1 -1)" patternUnits="userSpaceOnUse" viewBox="0 0 19.7 21.7"><g><rect class="cls-13" width="19.7" height="21.7"/><g><rect class="cls-13" width="19.7" height="21.7"/><g><rect class="cls-13" width="19.7" height="21.7"/><g><rect class="cls-13" width="19.7" height="21.7"/><g><rect class="cls-13" width="19.7" height="21.7"/><g><rect class="cls-13" width="19.7" height="21.7"/><path class="cls-2" d="M16.6,13c2.1-2.1,2.1-5.6,0-7.7l-1.2-1.2c-2.1-2.1-5.6-2.1-7.8,0L3.1,8.7c-2.1,2.1-2.1,5.6,0,7.7l1.2,1.2c2.1,2.1,5.6,2.1,7.7,0l4.6-4.6Z"/></g></g></g></g></g></g></pattern><linearGradient id="linear-gradient-4" x1="265.37" y1="-122.73" x2="265.37" y2="-13.67" gradientTransform="translate(0 126.44) scale(1 -1)" gradientUnits="userSpaceOnUse"><stop offset=".16" stop-color="#823b14"/><stop offset=".18" stop-color="#995d1a"/><stop offset=".22" stop-color="#ae7d22"/><stop offset=".26" stop-color="#c39d25"/><stop offset=".3" stop-color="#d6b92e"/><stop offset=".35" stop-color="#e4cf36"/><stop offset=".41" stop-color="#efe036"/><stop offset=".48" stop-color="#f5e94d"/><stop offset=".58" stop-color="#f8eb53"/><stop offset=".86" stop-color="#f5ea52"/><stop offset="1" stop-color="#fcf4f9"/></linearGradient><linearGradient id="linear-gradient-5" x1="265.38" y1="-7.85" x2="265.38" y2="-174.57" gradientTransform="translate(0 126.44) scale(1 -1)" gradientUnits="userSpaceOnUse"><stop offset=".26" stop-color="#f5ea52"/><stop offset=".86" stop-color="#813a14"/></linearGradient><linearGradient id="linear-gradient-6" x1="265.43" y1="-121.23" x2="265.43" y2="-15.26" gradientTransform="translate(0 126.44) scale(1 -1)" gradientUnits="userSpaceOnUse"><stop offset=".16" stop-color="#813a14"/><stop offset=".17" stop-color="#8d481f"/><stop offset=".18" stop-color="#a36c3d"/><stop offset=".2" stop-color="#b78954"/><stop offset=".22" stop-color="#c7a468"/><stop offset=".24" stop-color="#d7bb7a"/><stop offset=".26" stop-color="#e2cc88"/><stop offset=".3" stop-color="#ead891"/><stop offset=".34" stop-color="#eede97"/><stop offset=".46" stop-color="#efe097"/><stop offset=".7" stop-color="#813a14"/><stop offset=".73" stop-color="#e6d234"/><stop offset=".74" stop-color="#ebda49"/><stop offset=".75" stop-color="#eede6d"/><stop offset=".77" stop-color="#f0e18a"/><stop offset=".79" stop-color="#f8ebab"/><stop offset=".8" stop-color="#f8edbf"/><stop offset=".83" stop-color="#faf0cf"/><stop offset=".85" stop-color="#fcf2da"/><stop offset=".89" stop-color="#fdf4e1"/><stop offset=".99" stop-color="#fdf5e3"/></linearGradient><linearGradient id="linear-gradient-7" x1="265.37" y1="-30.82" x2="265.37" y2="-194.35" gradientTransform="translate(0 126.44) scale(1 -1)" gradientUnits="userSpaceOnUse"><stop offset=".26" stop-color="#f5ea52"/><stop offset=".77" stop-color="#813a14"/></linearGradient><linearGradient id="linear-gradient-8" x1="462.6" y1="263.21" x2="462.6" y2="125.36" gradientTransform="matrix(1, 0, 0, 1, 0, 0)" gradientUnits="userSpaceOnUse"><stop offset="0" stop-color="#ffdc12"/><stop offset="0" stop-color="#ffdb13"/><stop offset=".05" stop-color="#f9bb1b"/><stop offset=".1" stop-color="#f59b18"/><stop offset=".16" stop-color="#ef7b19"/><stop offset=".22" stop-color="#e86112"/><stop offset=".27" stop-color="#e84a1d"/><stop offset=".34" stop-color="#e5391e"/><stop offset=".41" stop-color="#e63121"/><stop offset=".5" stop-color="#e62e21"/><stop offset=".59" stop-color="#e63121"/><stop offset=".66" stop-color="#e5391e"/><stop offset=".73" stop-color="#e84a1d"/><stop offset=".78" stop-color="#e86112"/><stop offset=".84" stop-color="#ef7b19"/><stop offset=".9" stop-color="#f59b18"/><stop offset=".95" stop-color="#f9bb1b"/><stop offset="1" stop-color="#ffdb13"/><stop offset="1" stop-color="#ffdc12"/></linearGradient><linearGradient id="linear-gradient-9" y1="259.26" y2="129.31" xlink:href="#linear-gradient-8"/><linearGradient id="linear-gradient-10" x1="462.64" y1="518.27" x2="462.64" y2="410.58" gradientTransform="translate(0 -270.18)" gradientUnits="userSpaceOnUse"><stop offset="0" stop-color="#020303"/><stop offset=".07" stop-color="#030404"/><stop offset=".11" stop-color="#060809"/><stop offset=".14" stop-color="#0f1113"/><stop offset=".16" stop-color="#1c1e20"/><stop offset=".19" stop-color="#2c2d2e"/><stop offset=".21" stop-color="#3e3d3c"/><stop offset=".4" stop-color="#575655"/><stop offset=".67" stop-color="#7b7a79"/><stop offset=".88" stop-color="#939292"/><stop offset="1" stop-color="#9f9d9c"/></linearGradient><linearGradient id="linear-gradient-11" x1="462.64" y1="518.27" x2="462.64" y2="459.41" gradientTransform="translate(0 -270.18)" gradientUnits="userSpaceOnUse"><stop offset="0" stop-color="#070708"/><stop offset="1" stop-color="#292928"/></linearGradient></defs><rect class="cls-7" x=".5" y=".5" width="720" height="378.91"/><g id="prodBg"><rect id="external-border" class="cls-17" x="171.31" y="107.49" width="379.09" height="174.45"/><rect id="internal-border" class="cls-1" x="175.92" y="112.09" width="370.02" height="165.26"/><rect id="bg" class="cls-16" x="179.93" y="116.13" width="361.83" height="157.05"/><rect id="bgPattern" class="cls-9" x="179.93" y="116.13" width="361.83" height="157.05"/></g><path class="cls-21" d="M344.67,226.49l32.18-68.79h8.26l-32.18,68.79h-8.26Z"/><g id="mln"><polygon id="obram_czarne" class="cls-4" points="225.01 136.79 207.48 154.32 207.48 234.98 225.01 252.51 305.75 252.51 323.18 234.98 323.18 154.32 305.75 136.79 225.01 136.79"/><polygon id="obram_zolte" class="cls-20" points="227.29 140.12 210.88 156.6 210.88 232.7 227.29 249.18 303.39 249.18 319.87 232.7 319.87 156.6 303.39 140.12 227.29 140.12"/><polygon id="tlo_wew" class="cls-12" points="228.41 141.72 212.41 157.75 212.41 231.58 228.41 247.58 302.34 247.58 318.35 231.58 318.35 157.75 302.34 141.72 228.41 141.72"/><path id="obram_skosne" class="cls-5" d="M310.68,215.07c-2.93,0-5.31-2.38-5.31-5.31v-30.23c0-2.93,2.38-5.31,5.31-5.31h7.59v-16.48l-15.93-16.03h-16.58v7.59c0,2.93-2.38,5.31-5.31,5.31h-30.23c-2.93,0-5.31-2.38-5.31-5.31v-7.59h-16.48l-16.03,16.03v16.58h7.59c2.93,0,5.31,2.38,5.31,5.31v30.23c0,2.93-2.38,5.31-5.31,5.31h-7.59v16.48l16.03,16.03h16.58v-7.59c0-2.93,2.38-5.31,5.31-5.31h30.23c2.93,0,5.31,2.38,5.31,5.31v7.59h16.58l16.03-16.03v-16.58h-7.79Z"/><path id="tlo_zew" class="cls-14" d="M310.41,216.88c-3.61,0-6.54-3.61-6.54-7.21v-30.05c0-3.61,2.93-7.21,6.54-7.21h6.16v-13.45l-15.55-15.45h-13.37v6.16c0,3.61-3.61,6.54-7.21,6.54h-30.05c-3.61,0-7.21-2.93-7.21-6.54v-6.16h-13.55l-15.45,15.45v13.45h6.16c3.61,0,6.54,3.61,6.54,7.21v30.05c0,3.61-2.93,7.21-6.54,7.21h-6.16v13.45l15.45,15.45h13.45v-6.16c0-3.61,3.61-6.54,7.21-6.54h29.95c3.61,0,7.21,2.93,7.21,6.54v6.16h13.45l15.45-15.45v-13.45h-5.94Z"/></g><path class="cls-18" d="M262.27,215.62v-43.18h-6.54l-.2-4.88,16.5-1.43v49.49h-9.76Z"/><g id="tagSpace"><path class="cls-10" d="M531.52,194.29c0,38.02-30.91,68.93-68.93,68.93s-68.93-30.91-68.93-68.93,30.91-68.93,68.93-68.93,68.93,30.8,68.93,68.93Z"/><path class="cls-15" d="M527.57,194.29c0,35.84-29.13,64.97-64.97,64.97s-64.97-29.13-64.97-64.97,29.13-64.97,64.97-64.97,64.97,29.03,64.97,64.97Z"/><path class="cls-3" d="M520.71,194.29c0,32.05-26.06,58.11-58.11,58.11s-58.11-26.06-58.11-58.11,26.06-58.11,58.11-58.11,58.11,25.96,58.11,58.11Z"/><path class="cls-8" d="M516.49,194.29c0,29.71-24.09,53.8-53.8,53.8s-53.89-24.09-53.89-53.8,24.09-53.89,53.8-53.89,53.89,24.09,53.89,53.89Z"/><path class="cls-19" d="M511.24,194.29c0,26.81-21.74,48.64-48.64,48.64s-48.55-21.84-48.55-48.64,21.74-48.64,48.64-48.64,48.55,21.74,48.55,48.64Z"/><path id="ciemniej" class="cls-6" d="M516.49,194.29c0-1.12,0-2.16-.09-3.19-10.87,3-29.52,6.84-53.71,6.84s-42.27-4.78-53.61-8.72c-.19,1.69-.28,3.37-.28,5.06,0,29.71,24.09,53.8,53.8,53.8s53.89-24.09,53.89-53.8Z"/><g id="gwiazda"><circle class="cls-11" cx="462.6" cy="194.29" r="7.97"/><path class="cls-11" d="M472.63,189.32l17.53-22.49-22.49,17.53c2.16,.94,3.94,2.72,4.97,4.97Z"/><path class="cls-11" d="M457.63,184.26l-22.49-17.53,17.53,22.49c1.03-2.16,2.81-3.94,4.97-4.97Z"/><path class="cls-11" d="M501.49,194.29l-28.31-3.56c.37,1.12,.56,2.34,.56,3.56s-.19,2.44-.56,3.56l28.31-3.56Z"/><path class="cls-11" d="M466.16,183.7l-3.56-28.31-3.56,28.31c1.12-.37,2.34-.56,3.56-.56,1.31-.09,2.44,.19,3.56,.56Z"/><path class="cls-11" d="M467.66,204.22l22.49,17.53-17.53-22.49c-1.03,2.16-2.81,3.94-4.97,4.97Z"/><path class="cls-11" d="M451.44,194.29c0-1.22,.19-2.44,.56-3.56l-28.31,3.56,28.31,3.56c-.28-1.12-.56-2.34-.56-3.56Z"/><path class="cls-11" d="M459.04,204.88l3.56,28.31,3.56-28.31c-1.12,.37-2.34,.56-3.56,.56-1.22,0-2.34-.19-3.56-.56Z"/><path class="cls-11" d="M452.66,199.25l-17.53,22.49,22.49-17.53c-2.16-1.03-3.94-2.81-4.97-4.97Z"/></g></g></svg>