<?xml version="1.0" encoding="UTF-8"?><svg id="Layer" xmlns="http://www.w3.org/2000/svg" xmlns:xlink="http://www.w3.org/1999/xlink" viewBox="0 0 721 379.91"><defs><style>.cls-1{stroke:#030404;stroke-width:.92px;}.cls-1,.cls-2,.cls-3,.cls-4,.cls-5,.cls-6,.cls-7,.cls-8{stroke-miterlimit:10;}.cls-1,.cls-4{fill:#fff;}.cls-9,.cls-10,.cls-11{fill:#030404;}.cls-12{fill:#cf1820;}.cls-2{stroke:#ffd80c;stroke-width:4.63px;}.cls-2,.cls-3,.cls-6,.cls-8{fill:none;}.cls-13{fill:#525251;}.cls-3,.cls-5,.cls-7{stroke-width:3.62px;}.cls-3,.cls-6{stroke:#20201e;}.cls-10{opacity:.15;}.cls-10,.cls-14,.cls-11{isolation:isolate;}.cls-4{opacity:0;stroke:#1d1d1b;}.cls-5{stroke:url(#linear-gradient-2);}.cls-5,.cls-7{fill:#e2181e;}.cls-6{stroke-width:1.13px;}.cls-15{fill:url(#radial-gradient);}.cls-7{stroke:url(#linear-gradient);}.cls-16{fill:url(#linear-gradient-5);}.cls-8{stroke:#030304;stroke-width:1.86px;}.cls-14{fill:#e03f19;opacity:.5;}.cls-17{fill:#80368c;}.cls-18{fill:url(#linear-gradient-3);}.cls-11{opacity:.64;}.cls-19{fill:url(#linear-gradient-4);}</style><radialGradient id="radial-gradient" cx="621.21" cy="445.83" fx="621.21" fy="445.83" r="73.3" gradientTransform="translate(0 -252.63)" gradientUnits="userSpaceOnUse"><stop offset="0" stop-color="#f6ee87"/><stop offset=".78" stop-color="#f6ee87"/><stop offset=".91" stop-color="#f6ee87"/><stop offset=".91" stop-color="#f7ee88"/><stop offset=".94" stop-color="#faf4b7"/><stop offset=".96" stop-color="#fdfade"/><stop offset=".97" stop-color="#fefcf2"/><stop offset=".99" stop-color="#fff"/><stop offset="1" stop-color="#fff"/></radialGradient><linearGradient id="linear-gradient" x1="627.15" y1="475.71" x2="585.46" y2="434.02" gradientTransform="translate(0 -252.63)" gradientUnits="userSpaceOnUse"><stop offset="0" stop-color="#5e1613"/><stop offset=".1" stop-color="#611912"/><stop offset=".26" stop-color="#732c23"/><stop offset=".48" stop-color="#924e45"/><stop offset=".73" stop-color="#bf8981"/><stop offset="1" stop-color="#fbdede"/></linearGradient><linearGradient id="linear-gradient-2" x1="656.72" y1="455.71" x2="615.04" y2="414.02" xlink:href="#linear-gradient"/><linearGradient id="linear-gradient-3" x1="-575.89" y1="-1011.77" x2="-498.91" y2="-934.78" gradientTransform="translate(142.81 -874.95) rotate(-45) scale(1 -1)" gradientUnits="userSpaceOnUse"><stop offset="0" stop-color="#030404"/><stop offset="1" stop-color="#7a787a"/></linearGradient><linearGradient id="linear-gradient-4" x1="298.67" y1="164.13" x2="298.67" y2="206.99" gradientTransform="translate(0 378.32) scale(1 -1)" gradientUnits="userSpaceOnUse"><stop offset="0" stop-color="#522b16"/><stop offset=".45" stop-color="#522b16" stop-opacity=".7"/><stop offset=".58" stop-color="#e03f19" stop-opacity=".5"/><stop offset="1" stop-color="#e03f19" stop-opacity=".5"/></linearGradient><linearGradient id="linear-gradient-5" x1="-788.76" y1="-798.29" x2="-711.78" y2="-721.3" gradientTransform="translate(142.81 -874.95) rotate(-45) scale(1 -1)" gradientUnits="userSpaceOnUse"><stop offset="0" stop-color="#1d1527"/><stop offset=".24" stop-color="#372348"/><stop offset=".49" stop-color="#583c6c"/><stop offset=".71" stop-color="#73518d"/><stop offset=".89" stop-color="#835ca1"/><stop offset="1" stop-color="#8964a8"/></linearGradient></defs><rect class="cls-4" x=".5" y=".5" width="720" height="378.91"/><g id="oxIcon"><path class="cls-15" d="M694.51,193.19c0,40.52-32.89,73.3-73.3,73.3s-73.3-32.89-73.3-73.3,32.89-73.3,73.3-73.3c40.52,.11,73.3,32.78,73.3,73.3h0Z"/><path class="cls-3" d="M694.4,193.19c0,40.52-32.89,73.3-73.3,73.3s-73.19-32.89-73.19-73.3,32.89-73.3,73.3-73.3,73.19,32.89,73.19,73.3Z"/><path class="cls-6" d="M686.12,193.19c0,35.79-29.02,64.81-64.81,64.81s-64.81-29.02-64.81-64.81,29.02-64.7,64.81-64.7,64.81,28.91,64.81,64.7Z"/><path class="cls-7" d="M634,202.22c0,15.26-12.47,27.73-27.73,27.73s-27.73-12.47-27.73-27.73,12.47-27.73,27.73-27.73,27.73,12.36,27.73,27.73Z"/><path class="cls-5" d="M663.55,182.23c0,15.26-12.47,27.73-27.73,27.73s-27.62-12.47-27.62-27.73,12.47-27.73,27.73-27.73,27.62,12.47,27.62,27.73Z"/></g><g id="titan"><rect class="cls-9" x="393.25" y="135.48" width="115.54" height="115.54"/><rect class="cls-18" x="396.58" y="138.81" width="108.87" height="108.87"/><rect class="cls-13" x="401.85" y="144.08" width="98.23" height="98.23"/><path id="darker" class="cls-11" d="M505.46,247.58h-108.87v-59.65s34.28,5.27,54.38,5.27,54.49-5.27,54.49-5.27v59.65Z"/><polygon class="cls-2" points="451.61 161.06 461.93 182.66 485.68 185.78 468.27 202.11 472.68 225.54 451.61 214.15 430.76 225.54 435.17 202.11 417.76 185.78 441.4 182.66 451.61 161.06"/></g><g id="arrow"><path class="cls-14" d="M358.43,192.76l-56.96-26.33,6.88,13.65h-64.16s-1.93,6.13-1.93,12.14,1.93,10.75,1.93,10.75h65.45l-8.06,16.12,56.85-26.33h0Z"/><path class="cls-19" d="M313.29,200.72h-67.49c-.54-1.72-1.29-4.94-1.29-8.49,0-3.76,.86-7.63,1.4-9.78h66.21l-5.59-11.07,46.32,21.39-46.32,21.39,6.77-13.43h0Z"/><path class="cls-12" d="M318.34,197.6h-70.18c-.32-1.5-.54-3.33-.54-5.37,0-2.36,.43-4.73,.75-6.66h68.78l-3.87-7.74,32.35,14.94-32.35,14.94,5.05-10.1h0Z"/><path class="cls-8" d="M313.29,200.72h-67.49c-.54-1.72-1.29-4.94-1.29-8.49,0-3.76,.86-7.63,1.4-9.78h66.21l-5.59-11.07,46.32,21.39-46.32,21.39,6.77-13.43h0Z"/></g><g id="energy"><rect class="cls-9" x="91.78" y="135.05" width="115.54" height="115.54"/><rect class="cls-16" x="95.11" y="138.38" width="108.87" height="108.87"/><polygon class="cls-17" points="198.72 143.65 198.72 241.88 100.49 241.88 100.49 143.65 198.72 143.65"/><polygon class="cls-1" points="137.57 181.48 170.02 161.38 152.61 186.53 161.86 201.47 129.93 221.57 145.95 196.52 137.57 181.48"/><path id="darker-2" class="cls-10" d="M203.99,247.15H95.11v-59.65s34.28,5.27,54.38,5.27,54.49-5.27,54.49-5.27v59.65Z"/></g><path d="M53.73,222.53v-16.44H24.93v-9.24l28.27-35.9h11.28v35.9h7.2v9.24h-7.2v16.44h-10.75Zm-18.92-25.58h19.13v-24.18l-19.13,24.18Z"/></svg>