<?xml version="1.0" encoding="UTF-8"?><svg id="Layer" xmlns="http://www.w3.org/2000/svg" xmlns:xlink="http://www.w3.org/1999/xlink" viewBox="0 0 721 379.91"><defs><style>.cls-1{fill:url(#linear-gradient-2);}.cls-2{fill:url(#linear-gradient-6);}.cls-3{stroke:#030304;stroke-width:.94px;}.cls-3,.cls-4{fill:#fff;stroke-miterlimit:10;}.cls-5{fill:#946137;}.cls-6{fill:#1f1f1e;}.cls-4{opacity:0;stroke:#1d1d1b;}.cls-7{opacity:.15;}.cls-7,.cls-8{isolation:isolate;}.cls-7,.cls-9{fill:#030304;}.cls-8{fill:url(#Nowy_wzorek_4);opacity:.1;}.cls-10{fill:url(#linear-gradient-5);}.cls-11{fill:none;}.cls-12{fill:#7f358b;}.cls-13{fill:url(#linear-gradient-3);}.cls-14{fill:url(#linear-gradient);}.cls-15{fill:url(#linear-gradient-4);}.cls-16{fill:#342217;}.cls-17{fill:#010101;}</style><linearGradient id="linear-gradient" x1="537.13" y1="622.1" x2="183.72" y2="268.69" gradientTransform="translate(0 -252.64)" gradientUnits="userSpaceOnUse"><stop offset="0" stop-color="#9e9d9c"/><stop offset=".54" stop-color="#010202"/><stop offset="1" stop-color="#9e9d9c"/></linearGradient><linearGradient id="linear-gradient-2" x1="360.5" y1="597.8" x2="360.5" y2="293.01" gradientTransform="translate(0 -252.64)" gradientUnits="userSpaceOnUse"><stop offset="0" stop-color="#462c1b"/><stop offset="1" stop-color="#b18048"/></linearGradient><linearGradient id="linear-gradient-3" x1="360.44" y1="593.56" x2="360.44" y2="297.1" gradientTransform="translate(0 -252.64)" gradientUnits="userSpaceOnUse"><stop offset="0" stop-color="#946137"/><stop offset="1" stop-color="#805127"/></linearGradient><pattern id="Nowy_wzorek_4" x="0" y="0" width="19.7" height="21.7" patternTransform="translate(43.9 16649.47)" patternUnits="userSpaceOnUse" viewBox="0 0 19.7 21.7"><g><rect class="cls-11" width="19.7" height="21.7"/><g><rect class="cls-11" width="19.7" height="21.7"/><g><rect class="cls-11" width="19.7" height="21.7"/><g><rect class="cls-11" width="19.7" height="21.7"/><g><rect class="cls-11" width="19.7" height="21.7"/><path class="cls-6" d="M16.6,8.7c2.1,2.1,2.1,5.6,0,7.7l-1.2,1.2c-2.1,2.1-5.6,2.1-7.8,0L3.1,13c-2.1-2.1-2.1-5.6,0-7.7l1.2-1.2c2.1-2.1,5.6-2.1,7.7,0l4.6,4.6Z"/></g></g></g></g></g></pattern><linearGradient id="linear-gradient-4" x1="-462.22" y1="1297.17" x2="-384.06" y2="1219.02" gradientTransform="translate(-191.13 -1064.43) rotate(-45)" gradientUnits="userSpaceOnUse"><stop offset="0" stop-color="#1d1427"/><stop offset=".24" stop-color="#372348"/><stop offset=".49" stop-color="#573b6c"/><stop offset=".71" stop-color="#72508c"/><stop offset=".89" stop-color="#835ca0"/><stop offset="1" stop-color="#8963a7"/></linearGradient><linearGradient id="linear-gradient-5" x1="-607.54" y1="-727.38" x2="-529.38" y2="-649.19" gradientTransform="translate(245.68 -627.62) rotate(-45) scale(1 -1)" gradientUnits="userSpaceOnUse"><stop offset="0" stop-color="#462c1b"/><stop offset=".05" stop-color="#58351a"/><stop offset=".1" stop-color="#683f16"/><stop offset=".32" stop-color="#77491f"/><stop offset=".75" stop-color="#8d5b32"/><stop offset="1" stop-color="#946137"/></linearGradient><linearGradient id="linear-gradient-6" x1="-510.62" y1="-824.3" x2="-432.43" y2="-746.14" xlink:href="#linear-gradient-5"/></defs><rect class="cls-4" x=".5" y=".5" width="720" height="378.91"/><g id="prodBg"><rect id="external-border" class="cls-14" x="164.07" y="35.7" width="392.71" height="314.11"/><rect id="internal-border" class="cls-1" x="168.74" y="40.37" width="383.52" height="304.79"/><rect id="bg" class="cls-13" x="172.83" y="44.46" width="375.22" height="296.47"/><rect id="bgPattern" class="cls-8" x="172.83" y="44.46" width="375.22" height="296.47"/></g><path class="cls-17" d="M280.92,131.23v-13.76h33.03v13.76h-33.03Z"/><g id="energy"><rect class="cls-9" x="340.63" y="65.73" width="117.29" height="117.29"/><rect class="cls-15" x="344.01" y="69.11" width="110.53" height="110.53"/><polygon class="cls-12" points="449.19 74.47 449.19 174.29 349.39 174.29 349.39 74.47 449.19 74.47"/><polygon class="cls-3" points="387.12 112.95 420.02 92.54 402.43 118.03 411.74 133.19 379.4 153.6 395.67 128.18 387.12 112.95"/><path id="darker" class="cls-7" d="M454.54,179.64h-110.53v-60.57s34.81,5.36,55.22,5.36,55.32-5.36,55.32-5.36v60.57Z"/></g><path class="cls-17" d="M217.1,289.82v-24.55h-24.55v-10.08h24.55v-24.55h10.08v24.55h24.55v10.08h-24.55v24.55h-10.08Z"/><g id="steel"><rect class="cls-9" x="271.76" y="202.36" width="117.29" height="117.29"/><rect class="cls-10" x="275.14" y="205.77" width="110.53" height="110.53"/><rect class="cls-5" x="280.49" y="211.12" width="99.8" height="99.8"/><g><path class="cls-16" d="M340.79,293.99l2.44-46.38-5.64-.66-.84-1.98h-4.32l-.76,2.08-6.58-.28v-12.03h7.62l.56,2.36,3.58,.48,.84-2.72h7.82l1.5,1.32,1.32-1.32h9.7l1.12,1.88,1.7-1.88,7.34,6.02-.48,4.14s-4.04-3.76-6.02-3.76-4.8-.1-4.8-.1l-4.04,6.5-2.44,.18,2.26,46.18h-11.86l-.03-.03Z"/><polygon class="cls-16" points="318.88 232.75 310.98 228.44 310.88 239.15 303.75 239.15 303.75 228.44 294.71 232.57 294.71 245.72 303.09 249.79 300.17 293.99 313.62 293.99 310.98 249.79 318.88 246.21 318.88 232.75"/></g><path id="darker-2" class="cls-7" d="M385.67,316.27h-110.53v-60.57s34.81,5.36,55.22,5.36,55.32-5.36,55.32-5.36v60.57Z"/></g><g id="steel-2"><rect class="cls-9" x="408.85" y="202.36" width="117.29" height="117.29"/><rect class="cls-2" x="412.22" y="205.77" width="110.53" height="110.53"/><rect class="cls-5" x="417.58" y="211.12" width="99.8" height="99.8"/><g><path class="cls-16" d="M477.87,293.99l2.44-46.38-5.64-.66-.84-1.98h-4.32l-.76,2.08-6.58-.28v-12.03h7.62l.56,2.36,3.58,.48,.84-2.72h7.82l1.5,1.32,1.32-1.32h9.7l1.12,1.88,1.7-1.88,7.34,6.02-.48,4.14s-4.04-3.76-6.02-3.76-4.8-.1-4.8-.1l-4.04,6.5-2.44,.18,2.26,46.18h-11.86l-.03-.03Z"/><polygon class="cls-16" points="455.97 232.75 448.07 228.44 447.97 239.15 440.84 239.15 440.84 228.44 431.8 232.57 431.8 245.72 440.18 249.79 437.26 293.99 450.71 293.99 448.07 249.79 455.97 246.21 455.97 232.75"/></g><path id="darker-3" class="cls-7" d="M522.76,316.27h-110.53v-60.57s34.81,5.36,55.22,5.36,55.32-5.36,55.32-5.36v60.57h0Z"/></g></svg>