<?xml version="1.0" encoding="UTF-8"?><svg id="Layer" xmlns="http://www.w3.org/2000/svg" xmlns:xlink="http://www.w3.org/1999/xlink" viewBox="0 0 721 379.91"><defs><style>.cls-1{stroke-width:1.05px;}.cls-1,.cls-2,.cls-3,.cls-4,.cls-5,.cls-6,.cls-7{stroke-miterlimit:10;}.cls-1,.cls-3,.cls-7{fill:none;}.cls-1,.cls-7{stroke:#1f1f1e;}.cls-8{fill:url(#linear-gradient-6);}.cls-9{fill:#946137;}.cls-2{opacity:0;stroke:#1d1d1b;}.cls-2,.cls-6{fill:#fff;}.cls-10{opacity:.15;}.cls-10,.cls-11{isolation:isolate;}.cls-10,.cls-12{fill:#030304;}.cls-13{fill:url(#radial-gradient);}.cls-14{fill:#ce141e;}.cls-11{fill:#e03e17;opacity:.5;}.cls-15{fill:url(#linear-gradient-5);}.cls-3{stroke:#020303;stroke-width:1.71px;}.cls-4{stroke:url(#linear-gradient);}.cls-4,.cls-5{fill:#e2161c;}.cls-4,.cls-5,.cls-7{stroke-width:3.35px;}.cls-5{stroke:url(#linear-gradient-2);}.cls-16{fill:#7f358b;}.cls-17{fill:url(#linear-gradient-3);}.cls-6{stroke:#030304;stroke-width:.85px;}.cls-18{fill:url(#linear-gradient-4);}.cls-19{fill:#342217;}</style><radialGradient id="radial-gradient" cx="647.65" cy="170.78" fx="647.65" fy="170.78" r="67.96" gradientTransform="translate(0 364.09) scale(1 -1)" gradientUnits="userSpaceOnUse"><stop offset="0" stop-color="#f6ee84"/><stop offset=".78" stop-color="#f6ee84"/><stop offset=".91" stop-color="#f6ee84"/><stop offset=".91" stop-color="#f7ee87"/><stop offset=".94" stop-color="#faf4b7"/><stop offset=".96" stop-color="#fdfadc"/><stop offset=".97" stop-color="#fefcf1"/><stop offset=".99" stop-color="#fffffe"/><stop offset="1" stop-color="#fff"/></radialGradient><linearGradient id="linear-gradient" x1="653.2" y1="143.17" x2="614.6" y2="181.77" gradientTransform="translate(0 364.09) scale(1 -1)" gradientUnits="userSpaceOnUse"><stop offset="0" stop-color="#5d1512"/><stop offset=".1" stop-color="#611912"/><stop offset=".26" stop-color="#732b23"/><stop offset=".48" stop-color="#914d44"/><stop offset=".73" stop-color="#be8880"/><stop offset="1" stop-color="#fbdede"/></linearGradient><linearGradient id="linear-gradient-2" x1="680.6" y1="161.67" x2="642" y2="200.27" xlink:href="#linear-gradient"/><linearGradient id="linear-gradient-3" x1="-515.78" y1="-1006.13" x2="-444.77" y2="-935.13" gradientTransform="translate(161.37 -833.46) rotate(-45) scale(1 -1)" gradientUnits="userSpaceOnUse"><stop offset="0" stop-color="#462c1b"/><stop offset=".05" stop-color="#58351a"/><stop offset=".1" stop-color="#683f16"/><stop offset=".32" stop-color="#77491f"/><stop offset=".75" stop-color="#8d5b32"/><stop offset="1" stop-color="#946137"/></linearGradient><linearGradient id="linear-gradient-4" x1="-606.42" y1="-915.48" x2="-535.43" y2="-844.48" xlink:href="#linear-gradient-3"/><linearGradient id="linear-gradient-5" x1="248.71" y1="450.95" x2="248.71" y2="411.58" gradientTransform="translate(0 -238.94)" gradientUnits="userSpaceOnUse"><stop offset="0" stop-color="#532a15"/><stop offset=".45" stop-color="#532a15" stop-opacity=".7"/><stop offset=".58" stop-color="#e03e17" stop-opacity=".5"/><stop offset="1" stop-color="#e03e17" stop-opacity=".5"/></linearGradient><linearGradient id="linear-gradient-6" x1="-789" y1="1352.67" x2="-718" y2="1281.68" gradientTransform="translate(-277.07 -1271.9) rotate(-45)" gradientUnits="userSpaceOnUse"><stop offset="0" stop-color="#1d1427"/><stop offset=".24" stop-color="#372348"/><stop offset=".49" stop-color="#573b6c"/><stop offset=".71" stop-color="#72508c"/><stop offset=".89" stop-color="#835ca0"/><stop offset="1" stop-color="#8963a7"/></linearGradient></defs><rect class="cls-2" x=".5" y=".5" width="720" height="378.91"/><g id="oxIcon"><path class="cls-13" d="M715.61,193.31c0,37.49-30.47,67.96-67.96,67.96s-67.96-30.47-67.96-67.96,30.47-67.96,67.96-67.96c37.49,.1,67.96,30.37,67.96,67.96h0Z"/><path class="cls-7" d="M715.51,193.31c0,37.49-30.47,67.96-67.96,67.96s-67.86-30.47-67.86-67.96,30.47-67.96,67.96-67.96,67.86,30.47,67.86,67.96h0Z"/><path class="cls-1" d="M707.79,193.31c0,33.14-26.91,60.14-60.14,60.14s-60.04-27-60.04-60.14,26.91-59.94,60.14-59.94,60.04,26.71,60.04,59.94Z"/><path class="cls-4" d="M659.52,201.62c0,14.15-11.47,25.62-25.62,25.62s-25.62-11.47-25.62-25.62,11.47-25.62,25.62-25.62,25.62,11.47,25.62,25.62Z"/><path class="cls-5" d="M686.92,183.12c0,14.15-11.47,25.62-25.62,25.62s-25.62-11.47-25.62-25.62,11.47-25.62,25.62-25.62,25.62,11.47,25.62,25.62Z"/></g><g id="steel"><rect class="cls-12" x="454.84" y="139.21" width="106.53" height="106.53"/><rect class="cls-17" x="457.91" y="142.27" width="100.4" height="100.4"/><rect class="cls-9" x="462.75" y="147.22" width="90.61" height="90.61"/><g><path class="cls-19" d="M517.55,222.49l2.18-42.14-5.14-.59-.79-1.78h-3.96l-.69,1.88-5.94-.3v-10.88h6.92l.49,2.18,3.26,.4,.79-2.47h7.12l1.38,1.19,1.19-1.19h8.8l.99,1.68,1.48-1.68,6.63,5.44-.4,3.76s-3.66-3.46-5.44-3.46-4.35-.1-4.35-.1l-3.66,5.94-2.18,.2,2.08,41.94h-10.78Z"/><polygon class="cls-19" points="497.67 166.8 490.45 162.85 490.35 172.64 483.82 172.64 483.82 162.85 475.71 166.7 475.71 178.57 483.23 182.33 480.66 222.49 492.82 222.49 490.45 182.33 497.67 179.07 497.67 166.8"/></g><path id="darker" class="cls-10" d="M558.31,242.67h-100.4v-55s31.65,4.85,50.15,4.85,50.25-4.85,50.25-4.85v55h0Z"/></g><g id="steel-2"><rect class="cls-12" x="326.64" y="139.21" width="106.53" height="106.53"/><rect class="cls-18" x="329.71" y="142.27" width="100.4" height="100.4"/><rect class="cls-9" x="334.65" y="147.22" width="90.61" height="90.61"/><g><path class="cls-19" d="M389.36,222.49l2.18-42.14-5.14-.59-.79-1.78h-3.96l-.69,1.88-5.94-.3v-10.88h6.92l.49,2.18,3.26,.4,.79-2.47h7.12l1.38,1.19,1.19-1.19h8.8l.99,1.68,1.48-1.68,6.63,5.44-.4,3.76s-3.66-3.46-5.44-3.46-4.35-.1-4.35-.1l-3.66,5.94-2.18,.2,2.08,41.94h-10.78Z"/><polygon class="cls-19" points="369.47 166.8 362.35 162.85 362.25 172.64 355.72 172.64 355.72 162.85 347.51 166.7 347.51 178.57 355.13 182.33 352.46 222.49 364.73 222.49 362.35 182.33 369.47 179.07 369.47 166.8"/></g><path id="darker-2" class="cls-10" d="M430.11,242.67h-100.3v-55s31.65,4.85,50.15,4.85,50.25-4.85,50.25-4.85v55h-.1Z"/></g><g id="arrow"><path class="cls-11" d="M303.61,192.32l-52.33-24.14,6.33,12.56h-58.95s-1.78,5.64-1.78,11.08,1.78,9.89,1.78,9.89h60.04l-7.42,14.74,52.33-24.14h0Z"/><path class="cls-15" d="M262.16,199.54h-62.02c-.49-1.58-1.19-4.55-1.19-7.72,0-3.46,.79-7.02,1.29-9h60.83l-5.14-10.19,42.53,19.68-42.53,19.68,6.23-12.46h0Z"/><path class="cls-14" d="M266.81,196.78h-64.39c-.3-1.38-.49-3.07-.49-4.95,0-2.18,.4-4.35,.69-6.13h63.11l-3.56-7.02,29.68,13.75-29.68,13.75,4.65-9.4h0Z"/><path class="cls-3" d="M262.16,199.54h-62.02c-.49-1.58-1.19-4.55-1.19-7.72,0-3.46,.79-7.02,1.29-9h60.83l-5.14-10.19,42.53,19.68-42.53,19.68,6.23-12.46h0Z"/></g><g id="energy"><rect class="cls-12" x="68.24" y="139.01" width="106.53" height="106.53"/><rect class="cls-8" x="71.31" y="142.07" width="100.4" height="100.4"/><polygon class="cls-16" points="166.86 147.02 166.86 237.63 76.26 237.63 76.26 147.02 166.86 147.02"/><polygon class="cls-6" points="110.48 181.94 140.35 163.44 124.43 186.59 132.84 200.34 103.46 218.83 118.3 195.79 110.48 181.94"/><path id="darker-3" class="cls-10" d="M171.71,242.47H71.31v-55s31.55,4.85,50.15,4.85,50.25-4.85,50.25-4.85v55h0Z"/></g><path d="M33.13,219.82v-15.13H6.62v-8.51l26.02-33.14h10.39v33.14h6.63v8.51h-6.63v15.13h-9.89Zm-17.41-23.74h17.71v-22.26l-17.71,22.26Z"/></svg>