<?xml version="1.0" encoding="UTF-8"?><svg id="Layer" xmlns="http://www.w3.org/2000/svg" xmlns:xlink="http://www.w3.org/1999/xlink" viewBox="0 0 721 379.91"><defs><style>.cls-1{stroke:url(#linear-gradient-3);}.cls-1,.cls-2,.cls-3,.cls-4,.cls-5{stroke-miterlimit:10;}.cls-1,.cls-4,.cls-5{stroke-width:.96px;}.cls-1,.cls-5{fill:#e21c1f;}.cls-6{fill:#030404;}.cls-7{fill:#20201e;}.cls-2{stroke-width:.3px;}.cls-2,.cls-4{fill:none;stroke:#20201e;}.cls-8{fill:#4aae40;}.cls-3{fill:#fff;opacity:0;stroke:#1d1d1b;}.cls-9{fill:url(#radial-gradient);}.cls-5{stroke:url(#linear-gradient-2);}.cls-10{fill:url(#linear-gradient);}</style><linearGradient id="linear-gradient" x1="358.82" y1="271.31" x2="358.82" y2="127.07" gradientTransform="translate(0 -3.59)" gradientUnits="userSpaceOnUse"><stop offset="0" stop-color="#136b38"/><stop offset=".15" stop-color="#149138"/><stop offset=".62" stop-color="#28a138"/><stop offset=".65" stop-color="#2da43b"/><stop offset=".84" stop-color="#50af46"/><stop offset="1" stop-color="#5ab249"/></linearGradient><radialGradient id="radial-gradient" cx="423.16" cy="163.05" fx="423.16" fy="163.05" r="19.52" gradientTransform="translate(0 -3.59)" gradientUnits="userSpaceOnUse"><stop offset="0" stop-color="#f6ee89"/><stop offset=".78" stop-color="#f6ee89"/><stop offset=".91" stop-color="#f6ee89"/><stop offset=".91" stop-color="#f7ef89"/><stop offset=".94" stop-color="#faf4b7"/><stop offset=".96" stop-color="#fdfae0"/><stop offset=".97" stop-color="#fefcf3"/><stop offset=".99" stop-color="#fff"/><stop offset="1" stop-color="#fff"/></radialGradient><linearGradient id="linear-gradient-2" x1="424.7" y1="171.08" x2="413.61" y2="159.97" gradientTransform="translate(0 -3.59)" gradientUnits="userSpaceOnUse"><stop offset="0" stop-color="#5f1714"/><stop offset=".1" stop-color="#611912"/><stop offset=".26" stop-color="#742d24"/><stop offset=".48" stop-color="#934f46"/><stop offset=".73" stop-color="#c08a82"/><stop offset="1" stop-color="#fbdede"/></linearGradient><linearGradient id="linear-gradient-3" x1="432.64" y1="165.72" x2="421.52" y2="154.6" xlink:href="#linear-gradient-2"/></defs><rect class="cls-3" x=".5" y=".5" width="720" height="378.91"/><g id="greenery"><polygon class="cls-6" points="358.87 271.14 293.44 233.35 293.44 157.96 358.87 120.06 424.29 157.96 424.29 233.35 358.87 271.14"/><polygon class="cls-10" points="358.87 267.72 296.34 231.63 296.34 159.57 358.87 123.48 421.3 159.57 421.3 231.63 358.87 267.72"/><polygon class="cls-8" points="358.87 262.58 300.94 229.06 300.94 162.25 358.87 128.73 416.8 162.25 416.8 229.06 358.87 262.58"/><path class="cls-7" d="M368.08,239.77c-.64,.64-13.6-.75-15.74,0-1.07,1.07,1.71-3.64,1.71-6.21v-46.69h9.64v47.33c.11,2.68,4.93,4.93,4.39,5.57h0Z"/><path class="cls-7" d="M364.54,168.14c7.39,8.78,8.57,20.13,2.57,25.16s-16.81,1.93-24.31-6.85c-7.39-8.78-8.57-20.13-2.57-25.16,6-5.03,16.92-2.03,24.31,6.85Z"/><path class="cls-7" d="M357.16,185.7c0,6.64-7.6,11.89-17.03,11.89s-17.03-5.25-17.03-11.89,7.6-11.89,17.03-11.89,17.03,5.25,17.03,11.89Z"/><path class="cls-7" d="M385.85,170.06c2.46,11.67-2.25,22.59-10.39,24.31-8.14,1.71-16.92-6.21-19.38-17.88s2.25-22.59,10.39-24.31c8.24-1.93,16.92,6.21,19.38,17.88Z"/><path class="cls-7" d="M390.99,189.12c-1.61,5.46-9.21,7.92-17.13,5.78-8.03-2.36-13.17-8.46-11.56-14.03,1.61-5.35,9.21-8.03,17.13-5.78,8.03,2.36,13.17,8.57,11.56,14.03Z"/><path class="cls-7" d="M384.25,194.69c-.11,1.18-5.89,1.71-13.06,1.18-7.07-.54-12.85-1.82-12.74-3.11s5.89-1.71,13.06-1.18c7.07,.54,12.85,1.93,12.74,3.11Z"/></g><g id="oxIcon"><path class="cls-9" d="M442.71,159.46c0,10.81-8.78,19.49-19.49,19.49s-19.6-8.67-19.6-19.49,8.78-19.49,19.6-19.49,19.49,8.78,19.49,19.49Z"/><path class="cls-4" d="M442.71,159.46c0,10.81-8.78,19.49-19.49,19.49s-19.6-8.67-19.6-19.49,8.78-19.49,19.49-19.49,19.6,8.78,19.6,19.49Z"/><path class="cls-2" d="M440.46,159.46c0,9.53-7.71,17.24-17.24,17.24s-17.24-7.71-17.24-17.24,7.71-17.24,17.24-17.24,17.24,7.71,17.24,17.24Z"/><path class="cls-5" d="M426.54,161.92c0,4.07-3.32,7.39-7.39,7.39s-7.39-3.32-7.39-7.39,3.32-7.39,7.39-7.39,7.39,3.32,7.39,7.39Z"/><path class="cls-1" d="M434.47,156.57c0,4.07-3.32,7.39-7.39,7.39s-7.39-3.32-7.39-7.39,3.32-7.39,7.39-7.39,7.39,3.32,7.39,7.39Z"/></g></svg>