<?xml version="1.0" encoding="UTF-8"?><svg id="Layer" xmlns="http://www.w3.org/2000/svg" xmlns:xlink="http://www.w3.org/1999/xlink" viewBox="0 0 721 379.91"><defs><style>.cls-1{fill:url(#linear-gradient-2);}.cls-2{stroke:#020303;stroke-width:1.9px;}.cls-2,.cls-3{stroke-miterlimit:10;}.cls-2,.cls-4{fill:#010101;}.cls-5{fill:#20201e;}.cls-6,.cls-7{fill:#020303;}.cls-8{fill:#e52922;}.cls-9{fill:url(#linear-gradient-6);}.cls-10{fill:#1c2c4c;}.cls-11{fill:url(#linear-gradient-11);}.cls-3{fill:#fff;opacity:0;stroke:#1d1d1b;}.cls-12{fill:url(#linear-gradient-10);}.cls-13{fill:url(#radial-gradient);}.cls-14{fill:#83a3d5;}.cls-15{fill:url(#linear-gradient-5);}.cls-16{fill:url(#Nowy_wzorek_4);opacity:.14;}.cls-16,.cls-7{isolation:isolate;}.cls-17{fill:none;}.cls-18{fill:#ffd110;}.cls-19{fill:#7ca5d8;}.cls-20{fill:#3f5ea8;}.cls-21{fill:url(#linear-gradient-7);}.cls-22{fill:url(#linear-gradient-9);}.cls-23{fill:#93c6ec;}.cls-24{fill:url(#linear-gradient-3);}.cls-7{opacity:.05;}.cls-25{fill:url(#linear-gradient);}.cls-26{fill:#010202;}.cls-27{fill:url(#linear-gradient-4);}.cls-28{fill:url(#linear-gradient-8);}.cls-29{fill:#0f468e;}</style><linearGradient id="linear-gradient" x1="634.16" y1="303.07" x2="634.16" y2="116.47" gradientTransform="translate(0 -19.82)" gradientUnits="userSpaceOnUse"><stop offset="0" stop-color="#c2dcf4"/><stop offset="1" stop-color="#275387"/></linearGradient><radialGradient id="radial-gradient" cx="633.99" cy="221.44" fx="633.99" fy="221.44" r="80.92" gradientTransform="translate(0 -19.82)" gradientUnits="userSpaceOnUse"><stop offset="0" stop-color="#fff" stop-opacity=".7"/><stop offset=".13" stop-color="#f9fbfe" stop-opacity=".68"/><stop offset=".28" stop-color="#e4e9f7" stop-opacity=".62"/><stop offset=".44" stop-color="#c3cdea" stop-opacity=".53"/><stop offset=".62" stop-color="#93a7d6" stop-opacity=".4"/><stop offset=".79" stop-color="#5673b7" stop-opacity=".23"/><stop offset=".98" stop-color="#2e509e" stop-opacity=".03"/><stop offset="1" stop-color="#2c4c9b" stop-opacity="0"/></radialGradient><linearGradient id="linear-gradient-2" x1="475.41" y1="-265.85" x2="58.48" y2="151.07" gradientTransform="translate(0 127.45) scale(1 -1)" gradientUnits="userSpaceOnUse"><stop offset="0" stop-color="#9f9d9c"/><stop offset=".54" stop-color="#020303"/><stop offset="1" stop-color="#9f9d9c"/></linearGradient><linearGradient id="linear-gradient-3" x1="267.02" y1="-208.48" x2="267.02" y2="93.67" gradientTransform="translate(0 127.45) scale(1 -1)" gradientUnits="userSpaceOnUse"><stop offset="0" stop-color="#472d1c"/><stop offset="1" stop-color="#b18047"/></linearGradient><linearGradient id="linear-gradient-4" x1="266.95" y1="-204.28" x2="266.95" y2="89.62" gradientTransform="translate(0 127.45) scale(1 -1)" gradientUnits="userSpaceOnUse"><stop offset="0" stop-color="#946137"/><stop offset="1" stop-color="#815228"/></linearGradient><pattern id="Nowy_wzorek_4" x="0" y="0" width="56.69" height="62.45" patternTransform="translate(0 -15630.4) scale(1 -1)" patternUnits="userSpaceOnUse" viewBox="0 0 56.69 62.45"><g><rect class="cls-17" width="56.69" height="62.45"/><g><rect class="cls-17" width="56.69" height="62.45"/><g><rect class="cls-17" width="56.69" height="62.45"/><g><rect class="cls-17" width="56.69" height="62.45"/><g><rect class="cls-17" width="56.69" height="62.45"/><path class="cls-5" d="M47.77,37.41c6.04-6.04,6.04-16.12,0-22.16l-3.45-3.45c-6.04-6.04-16.12-6.04-22.45,0l-12.95,13.24c-6.04,6.04-6.04,16.12,0,22.16l3.45,3.45c6.04,6.04,16.12,6.04,22.16,0l13.24-13.24Z"/></g></g></g></g></g></pattern><linearGradient id="linear-gradient-5" x1="308.87" y1="191.11" x2="308.87" y2="300.66" gradientTransform="translate(0 363.09) scale(1 -1)" gradientUnits="userSpaceOnUse"><stop offset=".16" stop-color="#813912"/><stop offset=".18" stop-color="#975a19"/><stop offset=".22" stop-color="#ae7d21"/><stop offset=".26" stop-color="#c39d27"/><stop offset=".3" stop-color="#d6b92e"/><stop offset=".35" stop-color="#e4cf35"/><stop offset=".41" stop-color="#efe036"/><stop offset=".48" stop-color="#f6e942"/><stop offset=".58" stop-color="#f8ea48"/><stop offset=".86" stop-color="#f7ea47"/><stop offset="1" stop-color="#fcf4f9"/></linearGradient><linearGradient id="linear-gradient-6" x1="308.87" y1="306.5" x2="308.87" y2="139.04" gradientTransform="translate(0 363.09) scale(1 -1)" gradientUnits="userSpaceOnUse"><stop offset=".26" stop-color="#f7ea47"/><stop offset=".86" stop-color="#803612"/></linearGradient><linearGradient id="linear-gradient-7" x1="308.91" y1="192.63" x2="308.91" y2="299.05" gradientTransform="translate(0 363.09) scale(1 -1)" gradientUnits="userSpaceOnUse"><stop offset=".16" stop-color="#803612"/><stop offset=".17" stop-color="#8b461e"/><stop offset=".18" stop-color="#a26a3b"/><stop offset=".2" stop-color="#b78954"/><stop offset=".22" stop-color="#c7a468"/><stop offset=".24" stop-color="#d7bb7a"/><stop offset=".26" stop-color="#e2cc88"/><stop offset=".3" stop-color="#ead891"/><stop offset=".34" stop-color="#eede97"/><stop offset=".46" stop-color="#efe097"/><stop offset=".7" stop-color="#803612"/><stop offset=".73" stop-color="#e6d234"/><stop offset=".74" stop-color="#ead848"/><stop offset=".75" stop-color="#eede6d"/><stop offset=".77" stop-color="#f1e38b"/><stop offset=".79" stop-color="#f7eaa9"/><stop offset=".8" stop-color="#f8edbf"/><stop offset=".83" stop-color="#faf0cf"/><stop offset=".85" stop-color="#fcf2da"/><stop offset=".89" stop-color="#fdf4e1"/><stop offset=".99" stop-color="#fdf5e3"/></linearGradient><linearGradient id="linear-gradient-8" x1="308.87" y1="283.44" x2="308.87" y2="119.19" gradientTransform="translate(0 363.09) scale(1 -1)" gradientUnits="userSpaceOnUse"><stop offset=".26" stop-color="#f7ea47"/><stop offset=".77" stop-color="#803612"/></linearGradient><linearGradient id="linear-gradient-9" x1="-709.27" y1="1229.81" x2="-631.83" y2="1152.38" gradientTransform="translate(-190.6 -1064.17) rotate(-45)" gradientUnits="userSpaceOnUse"><stop offset="0" stop-color="#951917"/><stop offset=".21" stop-color="#b9231c"/><stop offset=".47" stop-color="#e52922"/><stop offset=".55" stop-color="#e62d28"/><stop offset=".84" stop-color="#e7393a"/><stop offset="1" stop-color="#e83e41"/></linearGradient><linearGradient id="linear-gradient-10" x1="-616.99" y1="1322.09" x2="-539.55" y2="1244.65" xlink:href="#linear-gradient-9"/><linearGradient id="linear-gradient-11" x1="-524.71" y1="1414.37" x2="-447.28" y2="1336.93" xlink:href="#linear-gradient-9"/></defs><rect class="cls-3" x=".5" y=".5" width="720" height="378.91"/><g id="ocean"><polygon class="cls-26" points="717.55 238.17 717.55 141.73 634.15 93.59 550.6 141.73 550.6 238.17 634.15 286.31 717.55 238.17"/><polygon class="cls-25" points="714.98 236.72 714.98 143.34 634.15 96.65 553.33 143.34 553.33 236.72 634.15 283.25 714.98 236.72"/><polygon class="cls-14" points="709.5 233.5 709.5 146.4 634.15 102.77 558.65 146.4 558.65 233.5 634.15 277.13 709.5 233.5"/><path class="cls-29" d="M709.5,201.46c-3.38-3.22-9.98-4.51-21.25-5.96-10.95-1.45-16.42-2.09-19.16-2.09-17.39-.16-18.51,4.67-32.84,4.83-3.86,0-14.17-2.09-35.1-6.44-12.07-2.41-15.78-3.38-21.9-2.9-8.53,.64-15.62,3.54-20.77,6.6v38l75.67,43.63,75.35-43.63v-32.04h0Z"/><path class="cls-10" d="M634.32,253.63h0c33.97-.64,50.55-34.94,34.78-72.45-1.29-3.22-3.06-6.6-4.99-10.14-29.95-54.74-29.95-54.42-29.95-54.42,0,0,0-.32-29.95,54.42-1.93,3.54-3.54,6.92-4.99,10.14-15.78,37.51,.8,71.81,34.78,72.45h0"/><path class="cls-23" d="M634.32,251.53h0c32.2-.64,47.82-33,33-68.59-1.29-3.06-2.9-6.28-4.67-9.66-28.34-51.84-28.34-51.52-28.34-51.52,0,0,0-.32-28.34,51.52-1.77,3.38-3.38,6.44-4.67,9.66-15.13,35.58,.48,68.1,33,68.59h0"/><path class="cls-19" d="M634.15,247.83h0c29.62-.48,43.95-30.27,30.27-62.79-1.13-2.9-2.74-5.8-4.35-8.85-25.92-47.66-25.92-47.33-25.92-47.33,0,0,0-.32-26.08,47.33-1.61,3.06-3.06,5.96-4.35,8.85-13.52,32.52,.8,62.15,30.43,62.79h0"/><path class="cls-20" d="M667.48,193.41c-15.78,.16-17.23,4.67-31.23,4.83-3.86,0-14.17-2.09-34.94-6.28-9.02,29.78,5.31,55.38,32.84,55.87h.16c26.89-.48,41.22-25.28,33.17-54.42h0Z"/><circle class="cls-13" cx="633.99" cy="201.62" r="80.82"/></g><g id="prodBg"><rect id="external-border" class="cls-1" x="5.72" y="29.15" width="522.45" height="311.39"/><rect id="internal-border" class="cls-24" x="10.35" y="33.78" width="513.34" height="302.15"/><rect id="bg" class="cls-27" x="14.4" y="37.83" width="505.11" height="293.9"/><rect id="bgPattern" class="cls-16" x="14.4" y="37.83" width="505.11" height="293.9"/></g><path class="cls-4" d="M183.94,123.85v-13.64h32.74v13.64h-32.74Z"/><path class="cls-4" d="M61.21,281.07v-24.34h-24.34v-9.99h24.34v-24.34h9.99v24.34h24.34v9.99h-24.34v24.34h-9.99Z"/><g id="mln"><polygon id="obram_czarne" class="cls-2" points="268.32 59.09 250.71 76.7 250.71 157.7 268.32 175.31 349.42 175.31 366.93 157.7 366.93 76.7 349.42 59.09 268.32 59.09"/><polygon id="obram_zolte" class="cls-15" points="270.6 62.42 254.14 78.98 254.14 155.42 270.6 171.98 347.04 171.98 363.6 155.42 363.6 78.98 347.04 62.42 270.6 62.42"/><polygon id="tlo_wew" class="cls-9" points="271.75 64.04 255.66 80.13 255.66 154.27 271.75 170.36 345.99 170.36 362.08 154.27 362.08 80.13 345.99 64.04 271.75 64.04"/><path id="obram_skosne" class="cls-21" d="M354.37,137.71c-2.95,0-5.33-2.38-5.33-5.33v-30.36c0-2.95,2.38-5.33,5.33-5.33h7.61v-16.56l-15.99-16.09h-16.66v7.61c0,2.95-2.38,5.33-5.33,5.33h-30.36c-2.95,0-5.33-2.38-5.33-5.33v-7.61h-16.56l-16.09,16.09v16.66h7.61c2.95,0,5.33,2.38,5.33,5.33v30.36c0,2.95-2.38,5.33-5.33,5.33h-7.61v16.56l16.09,16.09h16.66v-7.61c0-2.95,2.38-5.33,5.33-5.33h30.36c2.95,0,5.33,2.38,5.33,5.33v7.61h16.66l16.09-16.09v-16.66h-7.81Z"/><path id="tlo_zew" class="cls-28" d="M354.08,139.52c-3.62,0-6.57-3.62-6.57-7.23v-30.17c0-3.62,2.95-7.23,6.57-7.23h6.19v-13.52l-15.61-15.52h-13.42v6.19c0,3.62-3.62,6.57-7.23,6.57h-30.17c-3.62,0-7.23-2.95-7.23-6.57v-6.19h-13.61l-15.52,15.52v13.52h6.19c3.62,0,6.57,3.62,6.57,7.23v30.17c0,3.62-2.95,7.23-6.57,7.23h-6.19v13.52l15.52,15.52h13.52v-6.19c0-3.62,3.62-6.57,7.23-6.57h30.08c3.62,0,7.23,2.95,7.23,6.57v6.19h13.52l15.52-15.52v-13.52h-6Z"/></g><g id="heat"><rect class="cls-6" x="119.36" y="194.08" width="116.22" height="116.22"/><rect class="cls-22" x="122.72" y="197.44" width="109.51" height="109.51"/><rect class="cls-8" x="128.03" y="202.75" width="98.89" height="98.89"/><path id="darker" class="cls-7" d="M232.23,306.95H122.72v-60.02s34.48,5.31,54.71,5.31,54.8-5.31,54.8-5.31v60.02Z"/><g><polygon class="cls-18" points="165.13 257.27 152.64 246.46 152.64 246.46 152.64 213.47 140.15 247.12 152.73 257.74 152.73 257.74 152.64 290.92 165.13 257.27"/><polygon class="cls-18" points="190.01 257.27 177.52 246.46 177.43 246.46 177.52 213.47 165.03 247.12 177.52 257.74 177.52 257.74 177.52 290.92 190.01 257.27"/><polygon class="cls-18" points="215.55 257.27 203.06 246.46 202.96 246.46 203.06 213.47 190.57 247.12 203.06 257.74 203.06 257.74 203.06 290.92 215.55 257.27"/></g></g><g id="heat-2"><rect class="cls-6" x="249.86" y="194.08" width="116.22" height="116.22"/><rect class="cls-12" x="253.22" y="197.44" width="109.51" height="109.51"/><rect class="cls-8" x="258.53" y="202.75" width="98.89" height="98.89"/><path id="darker-2" class="cls-7" d="M362.73,306.95h-109.51v-60.02s34.48,5.31,54.71,5.31,54.8-5.31,54.8-5.31v60.02Z"/><g><polygon class="cls-18" points="295.63 257.27 283.14 246.46 283.14 246.46 283.14 213.47 270.65 247.12 283.23 257.74 283.23 257.74 283.14 290.92 295.63 257.27"/><polygon class="cls-18" points="320.51 257.27 308.02 246.46 307.93 246.46 308.02 213.47 295.53 247.12 308.02 257.74 308.02 257.74 308.02 290.92 320.51 257.27"/><polygon class="cls-18" points="346.05 257.27 333.56 246.46 333.46 246.46 333.56 213.47 321.07 247.12 333.56 257.74 333.56 257.74 333.56 290.92 346.05 257.27"/></g></g><g id="heat-3"><rect class="cls-6" x="380.36" y="194.08" width="116.22" height="116.22"/><rect class="cls-11" x="383.72" y="197.44" width="109.51" height="109.51"/><rect class="cls-8" x="389.03" y="202.75" width="98.89" height="98.89"/><path id="darker-3" class="cls-7" d="M493.23,306.95h-109.51v-60.02s34.48,5.31,54.71,5.31,54.8-5.31,54.8-5.31v60.02Z"/><g><polygon class="cls-18" points="426.13 257.27 413.64 246.46 413.64 246.46 413.64 213.47 401.15 247.12 413.73 257.74 413.73 257.74 413.64 290.92 426.13 257.27"/><polygon class="cls-18" points="451.01 257.27 438.52 246.46 438.43 246.46 438.52 213.47 426.03 247.12 438.52 257.74 438.52 257.74 438.52 290.92 451.01 257.27"/><polygon class="cls-18" points="476.55 257.27 464.06 246.46 463.96 246.46 464.06 213.47 451.57 247.12 464.06 257.74 464.06 257.74 464.06 290.92 476.55 257.27"/></g></g><path d="M291.45,142.81v-8.46c3.22-4.34,6.35-7.83,9.39-10.48l4.37-3.87c3.13-2.77,5.71-5.51,7.75-8.22,2.04-2.71,3.06-5.55,3.06-8.51,0-2.67-.86-4.74-2.58-6.2-1.72-1.46-4.05-2.19-6.99-2.19-3.9,0-8.44,1.33-13.62,3.97v-7.84c5.44-2.02,10.7-3.04,15.77-3.04,5.61,0,10.14,1.34,13.59,4.03,3.45,2.69,5.18,6.28,5.18,10.79,0,2.84-.73,5.52-2.18,8.04-1.46,2.52-4.48,5.63-9.08,9.34l-3.61,2.89c-1.59,1.28-3.32,2.92-5.21,4.91-1.89,2-3.13,4.12-3.73,6.36h23.59v8.46h-35.7Z"/></svg>