<?xml version="1.0" encoding="UTF-8"?><svg id="Layer" xmlns="http://www.w3.org/2000/svg" xmlns:xlink="http://www.w3.org/1999/xlink" viewBox="0 0 721 379.91"><defs><style>.cls-1{fill:url(#linear-gradient-2);}.cls-2{fill:#48ad38;}.cls-3{fill:#1f1f1e;}.cls-4{stroke:#030304;stroke-width:.93px;}.cls-4,.cls-5{fill:#fff;}.cls-4,.cls-5,.cls-6{stroke-miterlimit:10;}.cls-5{opacity:0;stroke:#1d1d1b;}.cls-7{fill:url(#Nowy_wzorek_6);opacity:.1;}.cls-7,.cls-8,.cls-9{isolation:isolate;}.cls-8{opacity:.15;}.cls-8,.cls-9,.cls-10{fill:#030304;}.cls-11{fill:url(#linear-gradient-5);}.cls-12{fill:none;}.cls-6{fill:#0b572a;stroke:#1d4422;stroke-width:3.71px;}.cls-9{opacity:.05;}.cls-13{fill:#7f358b;}.cls-14{fill:url(#linear-gradient-3);}.cls-15{fill:url(#linear-gradient);}.cls-16{fill:url(#linear-gradient-4);}.cls-17{fill:#010101;}</style><linearGradient id="linear-gradient" x1="500.58" y1="582.67" x2="220.42" y2="302.51" gradientTransform="translate(0 -252.64)" gradientUnits="userSpaceOnUse"><stop offset="0" stop-color="#9e9d9c"/><stop offset=".54" stop-color="#010202"/><stop offset="1" stop-color="#9e9d9c"/></linearGradient><linearGradient id="linear-gradient-2" x1="360.58" y1="593.16" x2="360.58" y2="292.05" gradientTransform="translate(0 -252.64)" gradientUnits="userSpaceOnUse"><stop offset="0" stop-color="#462c1b"/><stop offset="1" stop-color="#b18048"/></linearGradient><linearGradient id="linear-gradient-3" x1="360.51" y1="588.97" x2="360.51" y2="296.09" gradientTransform="translate(0 -252.64)" gradientUnits="userSpaceOnUse"><stop offset="0" stop-color="#946137"/><stop offset="1" stop-color="#805127"/></linearGradient><pattern id="Nowy_wzorek_6" x="0" y="0" width="19.7" height="21.7" patternTransform="translate(43.9 16649.47)" patternUnits="userSpaceOnUse" viewBox="0 0 19.7 21.7"><g><rect class="cls-12" width="19.7" height="21.7"/><g><rect class="cls-12" width="19.7" height="21.7"/><g><rect class="cls-12" width="19.7" height="21.7"/><g><rect class="cls-12" width="19.7" height="21.7"/><g><rect class="cls-12" width="19.7" height="21.7"/><path class="cls-3" d="M16.6,8.7c2.1,2.1,2.1,5.6,0,7.7l-1.2,1.2c-2.1,2.1-5.6,2.1-7.8,0L3.1,13c-2.1-2.1-2.1-5.6,0-7.7l1.2-1.2c2.1-2.1,5.6-2.1,7.7,0l4.6,4.6Z"/></g></g></g></g></g></pattern><linearGradient id="linear-gradient-4" x1="-461.51" y1="1294.15" x2="-384.3" y2="1216.91" gradientTransform="translate(-191.13 -1064.43) rotate(-45)" gradientUnits="userSpaceOnUse"><stop offset="0" stop-color="#1d1427"/><stop offset=".24" stop-color="#372348"/><stop offset=".49" stop-color="#573b6c"/><stop offset=".71" stop-color="#72508c"/><stop offset=".89" stop-color="#835ca0"/><stop offset="1" stop-color="#8963a7"/></linearGradient><linearGradient id="linear-gradient-5" x1="-556.57" y1="-772.06" x2="-479.33" y2="-694.84" gradientTransform="translate(245.68 -627.62) rotate(-45) scale(1 -1)" gradientUnits="userSpaceOnUse"><stop offset="0" stop-color="#0f6936"/><stop offset=".04" stop-color="#0f6c37"/><stop offset=".08" stop-color="#077739"/><stop offset=".13" stop-color="#108837"/><stop offset=".15" stop-color="#0a9039"/><stop offset=".35" stop-color="#36993d"/><stop offset=".76" stop-color="#5fb048"/><stop offset="1" stop-color="#6fb74b"/></linearGradient></defs><rect class="cls-5" x=".5" y=".5" width="720" height="378.91"/><g><g id="prodBg"><rect id="external-border" class="cls-15" x="235.49" y="34.8" width="250.02" height="310.31"/><rect id="internal-border" class="cls-1" x="240.1" y="39.41" width="240.94" height="301.11"/><rect id="bg" class="cls-14" x="244.14" y="43.45" width="232.74" height="292.88"/><rect id="bgPattern" class="cls-7" x="244.14" y="43.45" width="232.74" height="292.88"/></g><path class="cls-17" d="M278.2,129.17v-13.59h32.63v13.59h-32.63Z"/><g id="energy"><rect class="cls-10" x="339.7" y="64.47" width="115.87" height="115.87"/><rect class="cls-16" x="343.03" y="67.8" width="109.2" height="109.2"/><polygon class="cls-13" points="446.94 73.09 446.94 171.71 348.35 171.71 348.35 73.09 446.94 73.09"/><polygon class="cls-4" points="385.62 111.11 418.12 90.95 400.74 116.13 409.95 131.1 377.99 151.27 394.07 126.16 385.62 111.11"/><path id="darker" class="cls-8" d="M452.23,177h-109.2v-59.84s34.38,5.29,54.55,5.29,54.65-5.29,54.65-5.29v59.84h0Z"/></g><g id="plant"><rect class="cls-10" x="340.12" y="199.32" width="115.87" height="115.87"/><rect class="cls-11" x="343.46" y="202.66" width="109.2" height="109.2"/><rect class="cls-2" x="348.75" y="207.95" width="98.59" height="98.59"/><path id="leaf" class="cls-6" d="M398.01,232.3c-14.12,1.96-24.9,11.16-24.9,24.9,0,3.34,.65,6.6,1.86,9.58-2.61,1.76-6.42,4.09-8.28,4.74-3.26,1.1-9.76,.38-10.03,.93s1.86,6.42,2.61,6.7,6.7,.28,10.03-.93c2.41-.83,6.77-3.64,9.3-5.49,4.56,5.77,11.61,9.38,19.51,9.38,13.74,0,24.73-8.65,24.73-22.4,0-5.29,1.3-11.99,3.26-16.18,2.13-4.64,13.19-7.62,13.19-7.62-1.1-3.64-35.69-4.36-41.26-3.64l-.03,.03Z"/><path id="darker-2" class="cls-9" d="M452.66,311.85h-109.2v-59.84s34.38,5.29,54.55,5.29,54.65-5.29,54.65-5.29v59.84Z"/></g><path class="cls-17" d="M287.88,285.85v-24.25h-24.25v-9.96h24.25v-24.25h9.96v24.25h24.25v9.96h-24.25v24.25h-9.96Z"/></g></svg>