<?xml version="1.0" encoding="UTF-8"?><svg id="Layer" xmlns="http://www.w3.org/2000/svg" xmlns:xlink="http://www.w3.org/1999/xlink" viewBox="0 0 721 379.91"><defs><style>.cls-1{fill:url(#linear-gradient-2);}.cls-2{fill:#1c2c4c;}.cls-3{fill:#fff;opacity:0;stroke:#1d1d1b;stroke-miterlimit:10;}.cls-4{fill:url(#radial-gradient);}.cls-5{fill:#83a3d5;}.cls-6{fill:url(#radial-gradient-2);}.cls-7{fill:#7ca5d8;}.cls-8{fill:#3f5ea8;}.cls-9{fill:#93c6ec;}.cls-10{fill:url(#linear-gradient);}.cls-11{fill:#010202;}.cls-12{fill:#0f468e;}</style><linearGradient id="linear-gradient" x1="240.61" y1="318.63" x2="240.61" y2="103.2" gradientTransform="translate(0 -19.82)" gradientUnits="userSpaceOnUse"><stop offset="0" stop-color="#c2dcf4"/><stop offset="1" stop-color="#275387"/></linearGradient><radialGradient id="radial-gradient" cx="240.42" cy="224.39" fx="240.42" fy="224.39" r="93.42" gradientTransform="translate(0 -19.82)" gradientUnits="userSpaceOnUse"><stop offset="0" stop-color="#fff" stop-opacity=".7"/><stop offset=".13" stop-color="#f9fbfe" stop-opacity=".68"/><stop offset=".28" stop-color="#e4e9f7" stop-opacity=".62"/><stop offset=".44" stop-color="#c3cdea" stop-opacity=".53"/><stop offset=".62" stop-color="#93a7d6" stop-opacity=".4"/><stop offset=".79" stop-color="#5673b7" stop-opacity=".23"/><stop offset=".98" stop-color="#2e509e" stop-opacity=".03"/><stop offset="1" stop-color="#2c4c9b" stop-opacity="0"/></radialGradient><linearGradient id="linear-gradient-2" x1="480.61" x2="480.61" xlink:href="#linear-gradient"/><radialGradient id="radial-gradient-2" cx="480.42" fx="480.42" xlink:href="#radial-gradient"/></defs><rect class="cls-3" x=".5" y=".5" width="720" height="378.91"/><g id="ocean"><polygon class="cls-11" points="336.9 246.76 336.9 135.42 240.62 79.84 144.14 135.42 144.14 246.76 240.62 302.34 336.9 246.76"/><polygon class="cls-10" points="333.93 245.1 333.93 137.28 240.62 83.38 147.29 137.28 147.29 245.1 240.62 298.81 333.93 245.1"/><polygon class="cls-5" points="327.61 241.38 327.61 140.81 240.62 90.44 153.44 140.81 153.44 241.38 240.62 291.75 327.61 241.38"/><path class="cls-12" d="M327.61,204.38c-3.9-3.72-11.53-5.21-24.53-6.87-12.64-1.67-18.96-2.41-22.12-2.41-20.08-.18-21.38,5.39-37.92,5.58-4.46,0-16.36-2.41-40.52-7.44-13.94-2.78-18.22-3.9-25.27-3.35-9.85,.74-18.03,4.09-23.98,7.62v43.87l87.36,50.37,86.99-50.37v-36.99h0Z"/><path class="cls-2" d="M240.8,264.61h0c39.22-.74,58.37-40.34,40.15-83.64-1.49-3.72-3.53-7.62-5.76-11.71-34.57-63.2-34.57-62.83-34.57-62.83,0,0,0-.37-34.57,62.83-2.23,4.09-4.09,7.99-5.76,11.71-18.22,43.31,.92,82.9,40.15,83.64h0"/><path class="cls-9" d="M240.8,262.19h0c37.17-.74,55.2-38.11,38.11-79.18-1.49-3.53-3.35-7.25-5.39-11.16-32.71-59.86-32.71-59.48-32.71-59.48,0,0,0-.37-32.71,59.48-2.04,3.9-3.9,7.44-5.39,11.16-17.48,41.08,.55,78.63,38.11,79.18h0"/><path class="cls-7" d="M240.62,257.92h0c34.2-.55,50.74-34.94,34.94-72.5-1.31-3.35-3.16-6.69-5.01-10.22-29.93-55.02-29.93-54.65-29.93-54.65,0,0,0-.37-30.11,54.65-1.86,3.53-3.53,6.87-5.01,10.22-15.62,37.55,.92,71.75,35.13,72.5h0"/><path class="cls-8" d="M279.09,195.09c-18.22,.18-19.89,5.39-36.06,5.58-4.46,0-16.36-2.41-40.34-7.25-10.41,34.39,6.13,63.95,37.92,64.5h.18c31.04-.55,47.59-29.18,38.29-62.83h0Z"/><circle class="cls-4" cx="240.42" cy="204.57" r="93.31"/></g><g id="ocean-2"><polygon class="cls-11" points="576.9 246.76 576.9 135.42 480.62 79.84 384.14 135.42 384.14 246.76 480.62 302.34 576.9 246.76"/><polygon class="cls-1" points="573.93 245.1 573.93 137.28 480.62 83.38 387.29 137.28 387.29 245.1 480.62 298.81 573.93 245.1"/><polygon class="cls-5" points="567.61 241.38 567.61 140.81 480.62 90.44 393.44 140.81 393.44 241.38 480.62 291.75 567.61 241.38"/><path class="cls-12" d="M567.61,204.38c-3.9-3.72-11.53-5.21-24.53-6.87-12.64-1.67-18.96-2.41-22.12-2.41-20.08-.18-21.38,5.39-37.92,5.58-4.46,0-16.36-2.41-40.52-7.44-13.94-2.78-18.22-3.9-25.27-3.35-9.85,.74-18.03,4.09-23.98,7.62v43.87l87.36,50.37,86.99-50.37v-36.99h0Z"/><path class="cls-2" d="M480.8,264.61h0c39.22-.74,58.37-40.34,40.15-83.64-1.49-3.72-3.53-7.62-5.76-11.71-34.57-63.2-34.57-62.83-34.57-62.83,0,0,0-.37-34.57,62.83-2.23,4.09-4.09,7.99-5.76,11.71-18.22,43.31,.92,82.9,40.15,83.64h0"/><path class="cls-9" d="M480.8,262.19h0c37.17-.74,55.2-38.11,38.11-79.18-1.49-3.53-3.35-7.25-5.39-11.16-32.71-59.86-32.71-59.48-32.71-59.48,0,0,0-.37-32.71,59.48-2.04,3.9-3.9,7.44-5.39,11.16-17.48,41.08,.55,78.63,38.11,79.18h0"/><path class="cls-7" d="M480.62,257.92h0c34.2-.55,50.74-34.94,34.94-72.5-1.31-3.35-3.16-6.69-5.01-10.22-29.93-55.02-29.93-54.65-29.93-54.65,0,0,0-.37-30.11,54.65-1.86,3.53-3.53,6.87-5.01,10.22-15.62,37.55,.92,71.75,35.13,72.5h0"/><path class="cls-8" d="M519.09,195.09c-18.22,.18-19.89,5.39-36.06,5.58-4.46,0-16.36-2.41-40.34-7.25-10.41,34.39,6.13,63.95,37.92,64.5h.18c31.04-.55,47.59-29.18,38.29-62.83h0Z"/><circle class="cls-6" cx="480.42" cy="204.57" r="93.31"/></g></svg>