<?xml version="1.0" encoding="UTF-8"?><svg id="Layer" xmlns="http://www.w3.org/2000/svg" xmlns:xlink="http://www.w3.org/1999/xlink" viewBox="0 0 721 379.91"><defs><style>.cls-1{opacity:.29;}.cls-1,.cls-2{fill:#030404;}.cls-1,.cls-3,.cls-4{isolation:isolate;}.cls-5{fill:#48ad38;}.cls-6{fill:#fff;opacity:0;stroke:#1d1d1b;}.cls-6,.cls-7,.cls-8{stroke-miterlimit:10;}.cls-9{fill:url(#radial-gradient);}.cls-7{fill:none;stroke:#030404;}.cls-3{opacity:.05;}.cls-3,.cls-10{fill:#030304;}.cls-11{fill:url(#linear-gradient-3);}.cls-12{fill:url(#linear-gradient);}.cls-13{fill:#010202;}.cls-14{fill:url(#linear-gradient-4);}.cls-4{fill:url(#linear-gradient-2);opacity:.4;}.cls-8{fill:#0b572a;stroke:#1d4422;stroke-width:3.71px;}</style><linearGradient id="linear-gradient" x1="-613.27" y1="-859.7" x2="-536.18" y2="-782.59" gradientTransform="translate(78.19 -794.17) rotate(-45) scale(1 -1)" gradientUnits="userSpaceOnUse"><stop offset="0" stop-color="#0f6936"/><stop offset=".04" stop-color="#0f6c37"/><stop offset=".08" stop-color="#077739"/><stop offset=".13" stop-color="#108837"/><stop offset=".15" stop-color="#0a9039"/><stop offset=".35" stop-color="#36993d"/><stop offset=".76" stop-color="#5fb048"/><stop offset="1" stop-color="#6fb74b"/></linearGradient><linearGradient id="linear-gradient-2" x1="458.29" y1="-141.41" x2="458.29" y2="10.41" gradientTransform="translate(0 128.64) scale(1 -1)" gradientUnits="userSpaceOnUse"><stop offset="0" stop-color="#ffdc15"/><stop offset="0" stop-color="#ffdb16"/><stop offset=".05" stop-color="#f9bc27"/><stop offset=".1" stop-color="#f59e22"/><stop offset=".16" stop-color="#ef7c21"/><stop offset=".22" stop-color="#e96411"/><stop offset=".27" stop-color="#e94d23"/><stop offset=".34" stop-color="#e63c24"/><stop offset=".41" stop-color="#e63725"/><stop offset=".5" stop-color="#e63525"/><stop offset=".59" stop-color="#e63725"/><stop offset=".66" stop-color="#e63c24"/><stop offset=".73" stop-color="#e94d23"/><stop offset=".78" stop-color="#e96411"/><stop offset=".84" stop-color="#ef7c21"/><stop offset=".9" stop-color="#f59e22"/><stop offset=".95" stop-color="#f9bc27"/><stop offset="1" stop-color="#ffdb16"/><stop offset="1" stop-color="#ffdc15"/></linearGradient><linearGradient id="linear-gradient-3" y1="-140.01" y2="9" xlink:href="#linear-gradient-2"/><linearGradient id="linear-gradient-4" x1="458.35" y1="-133.77" x2="458.35" y2="2.87" gradientTransform="translate(0 128.64) scale(1 -1)" gradientUnits="userSpaceOnUse"><stop offset="0" stop-color="#030404"/><stop offset="1" stop-color="#fff"/></linearGradient><radialGradient id="radial-gradient" cx="458.4" cy="-65.5" fx="458.4" fy="-65.5" r="59.61" gradientTransform="translate(0 128.64) scale(1 -1)" gradientUnits="userSpaceOnUse"><stop offset="0" stop-color="#ccc9ca"/><stop offset="1" stop-color="#767575"/></radialGradient></defs><rect class="cls-6" x=".5" y=".5" width="720" height="378.91"/><g id="plant-4"><rect class="cls-10" x="194.58" y="135" width="115.71" height="115.71"/><rect class="cls-12" x="197.92" y="138.34" width="109.03" height="109.03"/><rect class="cls-5" x="203.21" y="143.63" width="98.45" height="98.45"/><path id="leaf-4" class="cls-8" d="M252.39,167.94c-14.1,1.95-24.87,11.13-24.87,24.87,0,3.34,.65,6.59,1.86,9.56-2.6,1.76-6.4,4.08-8.26,4.73-3.25,1.11-9.74,.37-10.02,.93s1.86,6.4,2.6,6.68,6.68,.28,10.02-.93c2.41-.84,6.77-3.62,9.28-5.47,4.55,5.75,11.6,9.37,19.49,9.37,13.73,0,24.68-8.63,24.68-22.36,0-5.29,1.3-11.97,3.25-16.15,2.13-4.64,13.18-7.61,13.18-7.61-1.11-3.62-35.63-4.36-41.2-3.62h0Z"/><path id="darker-4" class="cls-3" d="M306.95,247.37h-109.03v-59.76s34.33,5.29,54.47,5.29,54.56-5.29,54.56-5.29v59.76h0Z"/></g><path class="cls-13" d="M331.5,227.51l32.62-69.66h8.4l-32.73,69.66h-8.29Z"/><g id="cityAny"><path class="cls-4" d="M458.35,270.06l-65.79-38.01v-75.91l65.79-37.9,65.68,37.9v75.91l-65.68,38.01h0Z"/><path class="cls-11" d="M458.35,268.66l-64.6-37.25v-74.51l64.6-37.25,64.49,37.25v74.4l-64.49,37.36h0Z"/><polygon class="cls-2" points="519.4 229.36 519.4 158.94 458.35 123.74 397.3 158.94 397.3 229.36 458.35 264.68 519.4 229.36"/><polygon class="cls-14" points="517.46 228.28 517.46 160.02 458.35 125.78 399.24 160.02 399.24 228.28 458.35 262.42 517.46 228.28"/><polygon class="cls-9" points="513.58 226.02 513.58 162.28 458.35 130.41 403.22 162.28 403.22 226.02 458.35 257.89 513.58 226.02"/><path class="cls-1" d="M518.97,227.42v-44.04h0c-40.38,6.03-80.86,6.03-121.35,0h0v44.04l60.62,34.99,60.73-34.99h0Z"/><g id="city-logo"><path class="cls-7" d="M416.03,201.9c0-22.61,18.95-40.81,42.21-40.81"/><path class="cls-7" d="M500.34,201.9c0-22.61-19.06-40.81-42.53-40.81"/><rect class="cls-2" x="415.39" y="199.21" width="85.71" height="5.38"/><rect class="cls-2" x="419.8" y="194.26" width="2.58" height="5.06"/><rect class="cls-2" x="421.09" y="190.28" width="1.18" height="4.09"/><rect class="cls-2" x="425.08" y="193.72" width="4.63" height="5.6"/><rect class="cls-2" x="425.08" y="187.15" width="2.37" height="6.57"/><rect class="cls-2" x="431.21" y="192.21" width="1.94" height="7"/><rect class="cls-2" x="433.15" y="178.22" width="2.26" height="21"/><rect class="cls-2" x="434.34" y="175.96" width="1.08" height="2.26"/><rect class="cls-2" x="435.41" y="194.26" width="3.66" height="5.06"/><rect class="cls-2" x="438.32" y="191.78" width=".75" height="2.58"/><rect class="cls-2" x="439.07" y="173.16" width="2.91" height="26.16"/><rect class="cls-2" x="441.98" y="177.89" width="1.51" height="21.43"/><rect class="cls-2" x="443.6" y="185.43" width="3.12" height="13.78"/><rect class="cls-2" x="446.72" y="188.34" width="1.94" height="11.09"/><rect class="cls-2" x="450.38" y="181.55" width="4.09" height="17.77"/><rect class="cls-2" x="454.58" y="188.55" width="2.05" height="10.66"/><rect class="cls-2" x="456.62" y="168.74" width="5.06" height="30.47"/><rect class="cls-2" x="464.05" y="175.53" width="2.58" height="23.69"/><rect class="cls-2" x="469.33" y="180.37" width="2.8" height="18.84"/><rect class="cls-2" x="466.53" y="192.97" width="2.8" height="6.24"/><rect class="cls-2" x="472.13" y="195.77" width="2.05" height="3.55"/><rect class="cls-2" x="476.65" y="193.94" width="1.83" height="5.28"/><rect class="cls-2" x="478.48" y="185.43" width="3.23" height="13.78"/><rect class="cls-2" x="481.5" y="179.08" width="2.37" height="20.13"/><rect class="cls-2" x="483.87" y="193.18" width="1.94" height="6.03"/><rect class="cls-2" x="486.88" y="189.52" width="2.48" height="9.69"/><rect class="cls-2" x="489.36" y="188.55" width="2.69" height="10.66"/><rect class="cls-2" x="493.88" y="194.48" width="1.18" height="4.95"/><rect class="cls-2" x="495.17" y="196.95" width="2.37" height="2.48"/></g></g></svg>