<?xml version="1.0" encoding="UTF-8"?><svg id="Layer" xmlns="http://www.w3.org/2000/svg" xmlns:xlink="http://www.w3.org/1999/xlink" viewBox="0 0 721 379.91"><defs><style>.cls-1{fill:url(#linear-gradient-2);}.cls-2{stroke:#fff;}.cls-2,.cls-3,.cls-4,.cls-5{stroke-miterlimit:10;}.cls-2,.cls-4{fill:none;}.cls-2,.cls-5{stroke-width:2.29px;}.cls-3{fill:#fff;opacity:0;stroke:#1d1d1b;}.cls-6{fill:url(#linear-gradient-7);}.cls-6,.cls-7{opacity:.5;}.cls-6,.cls-7,.cls-8{isolation:isolate;}.cls-9{fill:#cd141b;}.cls-4{stroke:#010202;stroke-width:1.87px;}.cls-10{fill:#3d4920;}.cls-11{fill:url(#linear-gradient-5);}.cls-12{fill:#96c227;}.cls-13,.cls-8{fill:#030304;}.cls-14{fill:url(#linear-gradient-3);}.cls-15{fill:url(#linear-gradient);}.cls-5{fill:url(#linear-gradient-6);stroke:#020303;}.cls-7{fill:#e03d15;}.cls-8{opacity:.12;}.cls-16{fill:url(#linear-gradient-4);}</style><linearGradient id="linear-gradient" x1="531.22" y1="82.45" x2="531.22" y2="125.42" gradientTransform="translate(0 380.09) scale(1 -1)" gradientUnits="userSpaceOnUse"><stop offset="0" stop-color="#542913"/><stop offset=".45" stop-color="#542913" stop-opacity=".7"/><stop offset=".58" stop-color="#e03d15" stop-opacity=".5"/><stop offset="1" stop-color="#e03d15" stop-opacity=".5"/></linearGradient><linearGradient id="linear-gradient-2" x1="-640" y1="-919.84" x2="-562.46" y2="-842.29" gradientTransform="translate(193.12 -772.01) rotate(-45) scale(1 -1)" gradientUnits="userSpaceOnUse"><stop offset="0" stop-color="#3d4920"/><stop offset=".14" stop-color="#4b5e24"/><stop offset=".42" stop-color="#69852b"/><stop offset=".66" stop-color="#81a42c"/><stop offset=".86" stop-color="#8fb923"/><stop offset="1" stop-color="#96c227"/></linearGradient><linearGradient id="linear-gradient-3" x1="-740.24" y1="-819.6" x2="-662.7" y2="-742.05" xlink:href="#linear-gradient-2"/><linearGradient id="linear-gradient-4" x1="-482.44" y1="-816.63" x2="-404.9" y2="-739.1" xlink:href="#linear-gradient-2"/><linearGradient id="linear-gradient-5" x1="291.03" y1="266.83" x2="291.03" y2="309.81" xlink:href="#linear-gradient"/><linearGradient id="linear-gradient-6" x1="648.87" y1="-43.55" x2="648.87" y2="118.14" gradientTransform="translate(0 311.09) scale(1 -1)" gradientUnits="userSpaceOnUse"><stop offset=".08" stop-color="#42c0f0"/><stop offset=".15" stop-color="#51a5d4"/><stop offset=".23" stop-color="#5c84b3"/><stop offset=".3" stop-color="#62699b"/><stop offset=".37" stop-color="#66558b"/><stop offset=".42" stop-color="#674880"/><stop offset=".46" stop-color="#67447d"/><stop offset=".55" stop-color="#903d60"/><stop offset=".67" stop-color="#b6303b"/><stop offset=".75" stop-color="#cc2021"/><stop offset=".79" stop-color="#d4161a"/></linearGradient><linearGradient id="linear-gradient-7" x1="642.26" y1="-14.74" x2="633.54" y2="-6.03" gradientTransform="translate(0 311.09) scale(1 -1)" gradientUnits="userSpaceOnUse"><stop offset="0" stop-color="#1f1f1d" stop-opacity="0"/><stop offset="1" stop-color="#fff"/></linearGradient></defs><rect class="cls-3" x=".5" y=".5" width="720" height="378.91"/><g id="arrow"><path class="cls-7" d="M591.23,276.18l-57.16-26.42,6.95,13.66h-64.33s-1.94,6.15-1.94,12.18,1.94,10.82,1.94,10.82h65.59l-8.2,16.17,57.16-26.42h0Z"/><path class="cls-15" d="M545.91,284.04h-67.75c-.57-1.82-1.25-4.9-1.25-8.43,0-3.76,.8-7.63,1.37-9.79h66.38l-5.58-11.16,46.46,21.52-46.46,21.52,6.83-13.66h0Z"/><path class="cls-9" d="M550.92,280.96h-70.37c-.34-1.48-.57-3.42-.57-5.35,0-2.39,.34-4.78,.8-6.72h68.89l-3.87-7.74,32.45,15.03-32.45,14.92,5.12-10.13h0Z"/><path class="cls-4" d="M545.91,284.04h-67.75c-.57-1.82-1.25-4.9-1.25-8.43,0-3.76,.8-7.63,1.37-9.79h66.38l-5.58-11.16,46.46,21.52-46.46,21.52,6.83-13.66h0Z"/></g><g id="microbe"><rect class="cls-13" x="332.87" y="217.99" width="116.37" height="116.37"/><rect class="cls-1" x="336.17" y="221.3" width="109.65" height="109.65"/><rect class="cls-12" x="341.52" y="226.65" width="98.95" height="98.95"/><g id="microbes"><polygon class="cls-10" points="392.31 286.09 387.64 286.65 388.32 291.32 383.65 290.53 382.86 295.19 378.64 293.14 376.59 297.24 373.18 294.06 369.99 297.47 367.71 293.37 363.61 295.65 362.59 290.98 358.03 292.01 358.49 287.45 353.82 286.88 355.53 282.67 351.2 280.85 354.28 277.2 350.63 274.24 354.5 271.62 351.88 267.75 356.44 266.5 355.07 261.95 359.74 262.06 359.85 257.39 364.3 258.76 365.78 254.43 369.53 256.94 372.27 253.18 375.11 256.94 378.76 253.98 380.46 258.42 384.9 256.82 385.13 261.49 389.8 261.15 388.66 265.7 393.22 266.84 390.83 270.83 394.92 273.22 391.4 276.41 394.58 279.82 390.26 281.76 392.31 286.09"/><polygon class="cls-10" points="432.5 267.3 430.91 267.87 430.91 270.03 428.52 269.35 427.03 270.71 424.64 269.12 422.14 269.8 415.31 270.71 412.46 270.37 409.5 264.68 406.08 263.65 403.46 260.81 400.16 259.21 397.66 256.14 394.58 254.77 392.65 251.24 390.03 249.08 389 246.46 387.18 244.41 386.95 242.25 385.36 240.43 386.73 238.94 386.84 236.9 388.21 237.01 389.46 235.53 391.51 236.33 394.58 233.37 397.09 235.19 399.82 235.3 402.67 237.35 405.97 238.38 407.68 242.93 411.21 244.3 413.71 247.26 417.01 249.19 419.06 252.04 422.25 254.2 427.49 256.94 430 259.44 430.34 261.49 432.04 263.54 431.59 265.25 432.5 267.3"/><polygon class="cls-10" points="427.26 289.61 427.72 290.18 428.29 291.55 427.03 292.46 427.15 294.06 423.96 295.19 422.59 297.24 418.72 301.12 414.28 303.16 408.59 304.87 405.06 307.04 400.39 308.06 396.52 309.88 391.96 310.68 388.32 312.5 383.88 312.73 380.01 313.87 376.93 313.75 373.75 314.55 371.7 313.98 368.85 314.44 368.62 313.07 367.83 312.73 367.94 311.25 367.83 309.88 369.87 308.74 369.76 305.44 373.18 304.19 375.45 302.25 379.33 300.89 383.88 299.75 387.98 299.07 391.96 296.79 396.41 296.11 400.62 294.28 404.72 293.6 409.04 292.01 415.42 289.05 419.52 288.13 421.57 288.48 424.64 287.91 425.78 288.93 427.26 289.61"/></g><path id="darker" class="cls-8" d="M445.82,330.95h-109.65v-60.12s34.5,5.35,54.77,5.35,54.88-5.35,54.88-5.35v60.12Z"/></g><g id="microbe-2"><rect class="cls-13" x="190.99" y="217.99" width="116.37" height="116.37"/><rect class="cls-14" x="194.41" y="221.3" width="109.65" height="109.65"/><rect class="cls-12" x="199.76" y="226.65" width="98.95" height="98.95"/><g id="microbes-2"><polygon class="cls-10" points="250.43 286.09 245.76 286.65 246.44 291.32 241.78 290.53 241.09 295.19 236.88 293.14 234.83 297.24 231.3 294.06 228.11 297.47 225.84 293.37 221.74 295.65 220.83 290.98 216.27 292.01 216.61 287.45 211.94 286.88 213.77 282.67 209.44 280.85 212.4 277.2 208.76 274.24 212.63 271.62 210.12 267.75 214.56 266.5 213.2 261.95 217.86 262.06 217.98 257.39 222.53 258.76 223.9 254.43 227.66 256.94 230.39 253.18 233.35 256.94 236.99 253.98 238.59 258.42 243.03 256.82 243.26 261.49 247.93 261.15 246.79 265.7 251.45 266.84 248.95 270.83 253.05 273.22 249.52 276.41 252.71 279.82 248.38 281.76 250.43 286.09"/><polygon class="cls-10" points="290.74 267.3 289.14 267.87 289.14 270.03 286.64 269.35 285.16 270.71 282.77 269.12 280.38 269.8 273.54 270.71 270.58 270.37 267.62 264.68 264.32 263.65 261.59 260.81 258.29 259.21 255.78 256.14 252.71 254.77 250.89 251.24 248.27 249.08 247.24 246.46 245.31 244.41 245.19 242.25 243.6 240.43 244.85 238.94 244.96 236.9 246.33 237.01 247.7 235.53 249.63 236.33 252.82 233.37 255.21 235.19 258.06 235.3 260.79 237.35 264.09 238.38 265.92 242.93 269.45 244.3 271.84 247.26 275.25 249.19 277.3 252.04 280.38 254.2 285.61 256.94 288.23 259.44 288.57 261.49 290.17 263.54 289.71 265.25 290.74 267.3"/><polygon class="cls-10" points="285.5 289.61 285.84 290.18 286.53 291.55 285.16 292.46 285.27 294.06 282.08 295.19 280.83 297.24 276.85 301.12 272.52 303.16 266.71 304.87 263.3 307.04 258.63 308.06 254.64 309.88 250.09 310.68 246.44 312.5 242.12 312.73 238.13 313.87 235.06 313.75 231.87 314.55 229.82 313.98 226.97 314.44 226.75 313.07 225.95 312.73 226.18 311.25 225.95 309.88 228.11 308.74 227.88 305.44 231.3 304.19 233.58 302.25 237.56 300.89 242.12 299.75 246.22 299.07 250.09 296.79 254.64 296.11 258.74 294.28 262.84 293.6 267.17 292.01 273.66 289.05 277.76 288.13 279.81 288.48 282.88 287.91 284.02 288.93 285.5 289.61"/></g><path id="darker-2" class="cls-8" d="M304.06,330.95h-109.65v-60.12s34.5,5.35,54.77,5.35,54.88-5.35,54.88-5.35v60.12h0Z"/></g><g><path d="M81.91,301.68c-5.58,0-10.36-1.14-14.46-3.42s-7.17-5.58-9.34-9.91-3.19-9.22-3.19-14.57,1.02-10.25,3.19-14.57,5.24-7.63,9.34-9.91,9-3.42,14.46-3.42,10.25,1.14,14.35,3.42,7.29,5.58,9.34,9.91c2.05,4.33,3.19,9.22,3.19,14.57s-1.02,10.36-3.19,14.57-5.24,7.63-9.34,9.91c-3.99,2.28-8.77,3.42-14.35,3.42Zm0-7.29c5.12,0,9-2.05,11.5-6.26s3.76-9,3.76-14.35-1.25-10.25-3.76-14.35c-2.51-4.21-6.38-6.26-11.5-6.26s-9,2.05-11.5,6.26-3.76,9-3.76,14.35,1.25,10.25,3.76,14.35,6.26,6.26,11.5,6.26h0Z"/><path d="M118.92,300.32v-53.29h19.93c4.1,0,7.17,.57,9.34,1.48s3.87,2.51,5.01,4.67c1.25,2.05,1.82,4.44,1.82,7.06,0,3.07-.91,6.03-2.73,8.88s-4.33,4.9-7.63,6.38l17.42,24.82h-13.55l-13.09-21.75h-6.15v21.75h-10.36Zm10.48-29.04h2.51c4.55,0,7.74-1.02,9.45-2.96s2.62-4.21,2.62-6.72c0-2.16-.68-3.87-2.16-5.24-1.37-1.25-4.33-1.94-8.65-1.94h-3.87l.11,16.85h0Z"/></g><g id="microbe-3"><rect class="cls-13" x="371.3" y="33.61" width="116.37" height="116.37"/><rect class="cls-16" x="374.61" y="36.91" width="109.65" height="109.65"/><rect class="cls-12" x="379.96" y="42.26" width="98.95" height="98.95"/><g id="microbes-3"><polygon class="cls-10" points="430.74 101.7 426.07 102.27 426.64 106.94 422.09 106.14 421.29 110.81 417.08 108.76 415.03 112.86 411.61 109.67 408.42 113.09 406.03 108.99 401.93 111.26 401.02 106.6 396.47 107.62 396.81 103.07 392.14 102.5 393.96 98.28 389.64 96.46 392.6 92.82 388.95 89.86 392.94 87.24 390.32 83.37 394.76 82.12 393.51 77.56 398.18 77.67 398.18 73.01 402.73 74.37 404.1 70.05 407.97 72.55 410.7 68.79 413.55 72.55 417.19 69.59 418.9 74.03 423.23 72.44 423.57 77.11 428.24 76.76 427.1 81.32 431.65 82.46 429.26 86.44 433.36 88.83 429.83 92.02 432.91 95.44 428.69 97.37 430.74 101.7"/><polygon class="cls-10" points="470.94 82.91 469.34 83.48 469.34 85.65 466.95 84.96 465.47 86.33 462.97 84.73 460.57 85.42 453.74 86.33 450.9 85.99 447.82 80.29 444.52 79.27 441.79 76.42 438.6 74.83 435.98 71.75 432.91 70.39 431.08 66.86 428.46 64.69 427.44 62.08 425.62 60.03 425.39 57.86 423.8 56.04 425.05 54.56 425.16 52.51 426.64 52.62 427.9 51.14 429.83 51.94 433.02 48.98 435.52 50.8 438.26 50.92 441.1 52.97 444.29 53.99 446.11 58.55 449.64 59.91 452.03 62.87 455.45 64.81 457.5 67.65 460.69 69.82 465.93 72.55 468.43 75.06 468.77 77.11 470.48 79.15 470.03 80.86 470.94 82.91"/><polygon class="cls-10" points="465.7 105.23 466.04 105.8 466.72 107.17 465.47 108.08 465.47 109.67 462.28 110.81 461.03 112.86 457.16 116.73 452.72 118.78 446.91 120.49 443.49 122.65 438.83 123.68 434.95 125.5 430.29 126.3 426.64 128.12 422.32 128.34 418.44 129.48 415.26 129.37 412.18 130.17 410.13 129.6 407.17 130.05 407.06 128.69 406.15 128.34 406.37 126.86 406.15 125.5 408.31 124.36 408.08 121.06 411.61 119.8 413.78 117.87 417.76 116.5 422.32 115.36 426.41 114.68 430.29 112.4 434.84 111.72 439.05 109.9 443.15 109.22 447.37 107.62 453.86 104.66 457.96 103.75 460.01 104.09 463.08 103.52 464.22 104.55 465.7 105.23"/></g><path id="darker-3" class="cls-8" d="M484.26,146.56h-109.65v-60.12s34.5,5.35,54.77,5.35,54.88-5.35,54.88-5.35v60.12h0Z"/></g><g id="arrow-2"><path class="cls-7" d="M350.92,91.79l-57.16-26.42,6.95,13.66h-64.33s-1.94,6.15-1.94,12.18,1.94,10.82,1.94,10.82h65.59l-8.2,16.17,57.16-26.42h0Z"/><path class="cls-11" d="M305.72,99.65h-67.75c-.57-1.82-1.25-4.9-1.25-8.43,0-3.76,.8-7.63,1.37-9.79h66.38l-5.58-11.16,46.46,21.52-46.46,21.52,6.83-13.66h0Z"/><path class="cls-9" d="M310.73,96.58h-70.37c-.34-1.48-.57-3.42-.57-5.35,0-2.39,.34-4.78,.8-6.72h69l-3.87-7.74,32.45,15.03-32.57,14.92,5.12-10.13h0Z"/><path class="cls-4" d="M305.72,99.65h-67.75c-.57-1.82-1.25-4.9-1.25-8.43,0-3.76,.8-7.63,1.37-9.79h66.38l-5.58-11.16,46.46,21.52-46.46,21.52,6.83-13.66h0Z"/></g><g id="tempIcon"><path class="cls-5" d="M659.6,311.71v-108.04c0-5.85-4.88-10.73-10.73-10.73s-10.73,4.88-10.73,10.73v107.79c-7.07,3.9-12.19,11.46-12.19,20.24,0,12.68,10.24,22.92,22.92,22.92s22.92-10.24,22.92-22.92c0-8.78-4.88-16.34-12.19-20Z"/><line class="cls-2" x1="644.23" y1="216.36" x2="653.75" y2="216.36"/><line class="cls-2" x1="644.23" y1="246.35" x2="653.75" y2="246.35"/><line class="cls-2" x1="644.23" y1="273.67" x2="653.75" y2="273.67"/><line class="cls-2" x1="644.23" y1="299.03" x2="653.75" y2="299.03"/><line class="cls-2" x1="644.23" y1="331.22" x2="653.75" y2="331.22"/><path class="cls-6" d="M642.28,325.61c-3.41,3.66-8.29,4.39-10.73,2.19-2.44-2.44-1.46-7.32,1.95-10.73s8.29-4.39,10.73-1.95,1.71,7.07-1.95,10.49Z"/></g></svg>