<?xml version="1.0" encoding="UTF-8"?><svg id="Layer" xmlns="http://www.w3.org/2000/svg" xmlns:xlink="http://www.w3.org/1999/xlink" viewBox="0 0 721 379.91"><defs><style>.cls-1{fill:url(#linear-gradient-5);}.cls-1,.cls-2,.cls-3,.cls-4{stroke-miterlimit:10;}.cls-1,.cls-3{stroke-width:3.34px;}.cls-1,.cls-4{stroke:#020303;}.cls-5{fill:url(#linear-gradient-2);}.cls-6,.cls-7{fill:#020303;}.cls-8{fill:#1f1f1e;}.cls-2{opacity:0;stroke:#1d1d1b;}.cls-2,.cls-4{fill:#fff;}.cls-7{opacity:.15;}.cls-7,.cls-9,.cls-10{isolation:isolate;}.cls-11{fill:#7e348b;}.cls-9{fill:url(#linear-gradient-6);opacity:.5;}.cls-10{fill:url(#Nowy_wzorek_2);opacity:.14;}.cls-12,.cls-3{fill:none;}.cls-13{fill:url(#linear-gradient-3);}.cls-14{fill:url(#linear-gradient);}.cls-3{stroke:#fff;}.cls-4{stroke-width:.93px;}.cls-15{fill:url(#linear-gradient-4);}</style><linearGradient id="linear-gradient" x1="379.42" y1="540.52" x2="199.58" y2="360.67" gradientTransform="translate(0 -252.64)" gradientUnits="userSpaceOnUse"><stop offset="0" stop-color="#9e9d9c"/><stop offset=".54" stop-color="#010202"/><stop offset="1" stop-color="#9e9d9c"/></linearGradient><linearGradient id="linear-gradient-2" x1="289.58" y1="535.18" x2="289.58" y2="366.03" gradientTransform="translate(0 -252.64)" gradientUnits="userSpaceOnUse"><stop offset="0" stop-color="#462c1b"/><stop offset="1" stop-color="#b18048"/></linearGradient><linearGradient id="linear-gradient-3" x1="289.51" y1="530.98" x2="289.51" y2="370.08" gradientTransform="translate(0 -252.64)" gradientUnits="userSpaceOnUse"><stop offset="0" stop-color="#946137"/><stop offset="1" stop-color="#805127"/></linearGradient><pattern id="Nowy_wzorek_2" x="0" y="0" width="56.69" height="62.45" patternTransform="translate(.5 .5)" patternUnits="userSpaceOnUse" viewBox="0 0 56.69 62.45"><g><rect class="cls-12" width="56.69" height="62.45"/><g><rect class="cls-12" x="0" y="0" width="56.69" height="62.45"/><g><rect class="cls-12" x="0" y="0" width="56.69" height="62.45"/><g><rect class="cls-12" x="0" y="0" width="56.69" height="62.45"/><path class="cls-8" d="M47.77,25.04c6.04,6.04,6.04,16.12,0,22.16l-3.45,3.45c-6.04,6.04-16.12,6.04-22.45,0l-12.95-13.24c-6.04-6.04-6.04-16.12,0-22.16l3.45-3.45c6.04-6.04,16.12-6.04,22.16,0l13.24,13.24Z"/></g></g></g></g></pattern><linearGradient id="linear-gradient-4" x1="-591.2" y1="-653.13" x2="-513.73" y2="-575.66" gradientTransform="translate(245.16 -628.42) rotate(-45) scale(1 -1)" gradientUnits="userSpaceOnUse"><stop offset="0" stop-color="#1d1327"/><stop offset=".24" stop-color="#372348"/><stop offset=".49" stop-color="#573a6c"/><stop offset=".71" stop-color="#714f8b"/><stop offset=".89" stop-color="#825c9f"/><stop offset="1" stop-color="#8862a6"/></linearGradient><linearGradient id="linear-gradient-5" x1="495.49" y1="-1.92" x2="495.49" y2="233.37" gradientTransform="translate(0 311.09) scale(1 -1)" gradientUnits="userSpaceOnUse"><stop offset=".08" stop-color="#42c0f0"/><stop offset=".15" stop-color="#51a5d4"/><stop offset=".23" stop-color="#5c84b3"/><stop offset=".3" stop-color="#62699b"/><stop offset=".37" stop-color="#66558b"/><stop offset=".42" stop-color="#674880"/><stop offset=".46" stop-color="#67447d"/><stop offset=".55" stop-color="#903d60"/><stop offset=".67" stop-color="#b6303b"/><stop offset=".75" stop-color="#cc2021"/><stop offset=".79" stop-color="#d4161a"/></linearGradient><linearGradient id="linear-gradient-6" x1="485.87" y1="39.99" x2="473.19" y2="52.68" gradientTransform="translate(0 311.09) scale(1 -1)" gradientUnits="userSpaceOnUse"><stop offset="0" stop-color="#1f1f1d" stop-opacity="0"/><stop offset="1" stop-color="#fff"/></linearGradient></defs><rect class="cls-2" x=".5" y=".5" width="720" height="378.91"/><g id="prodBg"><rect id="external-border" class="cls-14" x="198.85" y="108.76" width="181.31" height="178.39"/><rect id="internal-border" class="cls-5" x="203.48" y="113.39" width="172.2" height="169.15"/><rect id="bg" class="cls-13" x="207.53" y="117.44" width="163.97" height="160.9"/><rect id="bgPattern" class="cls-10" x="207.53" y="117.44" width="163.97" height="160.9"/></g><g id="energy"><rect class="cls-6" x="230.81" y="138.53" width="116.27" height="116.27"/><rect class="cls-15" x="234.17" y="141.89" width="109.56" height="109.56"/><polygon class="cls-11" points="338.41 147.2 338.41 246.13 239.48 246.13 239.48 147.2 338.41 147.2"/><polygon class="cls-4" points="276.87 185.34 309.51 165.1 292.07 190.37 301.3 205.38 269.23 225.62 285.36 200.44 276.87 185.34"/><path id="darker" class="cls-7" d="M343.73,251.45h-109.56v-60.05s34.5,5.31,54.73,5.31,54.83-5.31,54.83-5.31v60.05Z"/></g><g id="tempIcon"><path class="cls-1" d="M511.1,250.55V93.33c0-8.52-7.1-15.61-15.61-15.61s-15.61,7.1-15.61,15.61V250.19c-10.29,5.68-17.74,16.68-17.74,29.46,0,18.45,14.91,33.36,33.36,33.36s33.36-14.91,33.36-33.36c0-12.78-7.1-23.78-17.74-29.1Z"/><line class="cls-3" x1="488.74" y1="111.79" x2="502.59" y2="111.79"/><line class="cls-3" x1="488.74" y1="155.44" x2="502.59" y2="155.44"/><line class="cls-3" x1="488.74" y1="195.18" x2="502.59" y2="195.18"/><line class="cls-3" x1="488.74" y1="232.09" x2="502.59" y2="232.09"/><line class="cls-3" x1="488.74" y1="278.94" x2="502.59" y2="278.94"/><path class="cls-9" d="M485.91,270.77c-4.97,5.32-12.07,6.39-15.61,3.19-3.55-3.55-2.13-10.65,2.84-15.61,4.97-4.97,12.07-6.39,15.61-2.84s2.48,10.29-2.84,15.26Z"/></g></svg>