<?xml version="1.0" encoding="UTF-8"?><svg id="Layer" xmlns="http://www.w3.org/2000/svg" xmlns:xlink="http://www.w3.org/1999/xlink" viewBox="0 0 721 379.91"><defs><style>.cls-1{stroke:#ffd80c;stroke-width:4.68px;}.cls-1,.cls-2{stroke-miterlimit:10;}.cls-1,.cls-3{fill:none;}.cls-4{fill:url(#linear-gradient-2);}.cls-5,.cls-6{fill:#020303;}.cls-7{fill:#1f1f1e;}.cls-2{fill:#fff;opacity:0;stroke:#1d1d1b;}.cls-8{fill:url(#Nowy_wzorek_4);opacity:.1;}.cls-8,.cls-6{isolation:isolate;}.cls-6{opacity:.64;}.cls-9{fill:#50504f;}.cls-10{fill:url(#linear-gradient-3);}.cls-11{fill:url(#linear-gradient);}.cls-12{fill:url(#linear-gradient-4);}</style><linearGradient id="linear-gradient" x1="448.96" y1="533.98" x2="272.04" y2="357.07" gradientTransform="translate(0 -252.64)" gradientUnits="userSpaceOnUse"><stop offset="0" stop-color="#9e9d9c"/><stop offset=".54" stop-color="#010202"/><stop offset="1" stop-color="#9e9d9c"/></linearGradient><linearGradient id="linear-gradient-2" x1="360.58" y1="528.81" x2="360.58" y2="362.27" gradientTransform="translate(0 -252.64)" gradientUnits="userSpaceOnUse"><stop offset="0" stop-color="#462c1b"/><stop offset="1" stop-color="#b18048"/></linearGradient><linearGradient id="linear-gradient-3" x1="360.51" y1="524.59" x2="360.51" y2="366.33" gradientTransform="translate(0 -252.64)" gradientUnits="userSpaceOnUse"><stop offset="0" stop-color="#946137"/><stop offset="1" stop-color="#805127"/></linearGradient><pattern id="Nowy_wzorek_4" x="0" y="0" width="19.7" height="21.7" patternTransform="translate(43.9 16649.47)" patternUnits="userSpaceOnUse" viewBox="0 0 19.7 21.7"><g><rect class="cls-3" width="19.7" height="21.7"/><g><rect class="cls-3" width="19.7" height="21.7"/><g><rect class="cls-3" width="19.7" height="21.7"/><g><rect class="cls-3" width="19.7" height="21.7"/><g><rect class="cls-3" width="19.7" height="21.7"/><path class="cls-7" d="M16.6,8.7c2.1,2.1,2.1,5.6,0,7.7l-1.2,1.2c-2.1,2.1-5.6,2.1-7.8,0L3.1,13c-2.1-2.1-2.1-5.6,0-7.7l1.2-1.2c2.1-2.1,5.6-2.1,7.7,0l4.6,4.6Z"/></g></g></g></g></g></pattern><linearGradient id="linear-gradient-4" x1="-537.88" y1="-702.79" x2="-460.19" y2="-625.1" gradientTransform="translate(245.16 -628.42) rotate(-45) scale(1 -1)" gradientUnits="userSpaceOnUse"><stop offset="0" stop-color="#020303"/><stop offset="1" stop-color="#797879"/></linearGradient></defs><rect class="cls-2" x=".5" y=".5" width="720" height="378.91"/><g id="prodBg"><rect id="external-border" class="cls-11" x="271.49" y="104.99" width="178.02" height="175.8"/><rect id="internal-border" class="cls-4" x="276.13" y="109.63" width="168.89" height="166.54"/><rect id="bg" class="cls-10" x="280.2" y="113.7" width="160.63" height="158.26"/><rect id="bgPattern" class="cls-8" x="280.2" y="113.7" width="160.63" height="158.26"/></g><g id="titan"><rect class="cls-5" x="303.46" y="135.63" width="116.59" height="116.59"/><rect class="cls-12" x="306.83" y="138.99" width="109.86" height="109.86"/><rect class="cls-9" x="312.16" y="144.32" width="99.2" height="99.2"/><path id="darker" class="cls-6" d="M416.69,248.85h-109.86v-60.21s34.6,5.33,54.88,5.33,54.98-5.33,54.98-5.33v60.21Z"/><polygon class="cls-1" points="362.37 161.53 372.75 183.31 396.68 186.4 379.11 202.95 383.59 226.6 362.37 215.01 341.24 226.6 345.73 202.95 328.15 186.4 352.08 183.31 362.37 161.53"/></g></svg>