<?xml version="1.0" encoding="UTF-8"?><svg id="Layer" xmlns="http://www.w3.org/2000/svg" xmlns:xlink="http://www.w3.org/1999/xlink" viewBox="0 0 721 379.91"><defs><style>.cls-1{fill:url(#linear-gradient-2);}.cls-2{fill:url(#linear-gradient-6);}.cls-3{fill:#1f1f1e;}.cls-4{opacity:0;stroke:#1d1d1b;}.cls-4,.cls-5{fill:#fff;stroke-miterlimit:10;}.cls-6{opacity:.15;}.cls-6,.cls-7,.cls-8{isolation:isolate;}.cls-6,.cls-8,.cls-9{fill:#030304;}.cls-7{fill:url(#Nowy_wzorek_4);opacity:.1;}.cls-10{fill:#ffd113;}.cls-11{fill:url(#linear-gradient-5);}.cls-12{fill:#e62b23;}.cls-13{fill:none;}.cls-14{fill:url(#linear-gradient-7);}.cls-8{opacity:.05;}.cls-15{fill:#7f358b;}.cls-16{fill:url(#linear-gradient-3);}.cls-17{fill:url(#linear-gradient);}.cls-5{stroke:#030304;stroke-width:.93px;}.cls-18{fill:url(#linear-gradient-4);}.cls-19{fill:#010101;}</style><linearGradient id="linear-gradient" x1="570.67" y1="654.44" x2="150.38" y2="234.15" gradientTransform="translate(0 -252.64)" gradientUnits="userSpaceOnUse"><stop offset="0" stop-color="#9e9d9c"/><stop offset=".54" stop-color="#010202"/><stop offset="1" stop-color="#9e9d9c"/></linearGradient><linearGradient id="linear-gradient-2" x1="360.6" y1="594.75" x2="360.6" y2="293.87" gradientTransform="translate(0 -252.64)" gradientUnits="userSpaceOnUse"><stop offset="0" stop-color="#462c1b"/><stop offset="1" stop-color="#b18048"/></linearGradient><linearGradient id="linear-gradient-3" x1="360.53" y1="590.56" x2="360.53" y2="297.91" gradientTransform="translate(0 -252.64)" gradientUnits="userSpaceOnUse"><stop offset="0" stop-color="#946137"/><stop offset="1" stop-color="#805127"/></linearGradient><pattern id="Nowy_wzorek_4" x="0" y="0" width="19.7" height="21.7" patternTransform="translate(43.9 16649.47)" patternUnits="userSpaceOnUse" viewBox="0 0 19.7 21.7"><g><rect class="cls-13" width="19.7" height="21.7"/><g><rect class="cls-13" width="19.7" height="21.7"/><g><rect class="cls-13" width="19.7" height="21.7"/><g><rect class="cls-13" width="19.7" height="21.7"/><g><rect class="cls-13" width="19.7" height="21.7"/><path class="cls-3" d="M16.6,8.7c2.1,2.1,2.1,5.6,0,7.7l-1.2,1.2c-2.1,2.1-5.6,2.1-7.8,0L3.1,13c-2.1-2.1-2.1-5.6,0-7.7l1.2-1.2c2.1-2.1,5.6-2.1,7.7,0l4.6,4.6Z"/></g></g></g></g></g></pattern><linearGradient id="linear-gradient-4" x1="-456.79" y1="1301.29" x2="-379.64" y2="1224.13" gradientTransform="translate(-191.13 -1064.43) rotate(-45)" gradientUnits="userSpaceOnUse"><stop offset="0" stop-color="#1d1427"/><stop offset=".24" stop-color="#372348"/><stop offset=".49" stop-color="#573b6c"/><stop offset=".71" stop-color="#72508c"/><stop offset=".89" stop-color="#835ca0"/><stop offset="1" stop-color="#8963a7"/></linearGradient><linearGradient id="linear-gradient-5" x1="-458.38" y1="-872.98" x2="-381.23" y2="-795.82" gradientTransform="translate(245.68 -627.62) rotate(-45) scale(1 -1)" gradientUnits="userSpaceOnUse"><stop offset="0" stop-color="#951919"/><stop offset=".21" stop-color="#b9251d"/><stop offset=".47" stop-color="#e62b23"/><stop offset=".55" stop-color="#e62f2a"/><stop offset=".84" stop-color="#e73a3b"/><stop offset="1" stop-color="#e83e41"/></linearGradient><linearGradient id="linear-gradient-6" x1="-552.3" y1="-779.06" x2="-475.15" y2="-701.91" xlink:href="#linear-gradient-5"/><linearGradient id="linear-gradient-7" x1="-646.22" y1="-685.15" x2="-569.06" y2="-607.97" xlink:href="#linear-gradient-5"/></defs><rect class="cls-4" x=".5" y=".5" width="720" height="378.91"/><g id="prodBg"><rect id="external-border" class="cls-17" x="95.27" y="36.63" width="530.51" height="310.07"/><rect id="internal-border" class="cls-1" x="99.88" y="41.24" width="521.43" height="300.88"/><rect id="bg" class="cls-16" x="103.92" y="45.27" width="513.24" height="292.66"/><rect id="bgPattern" class="cls-7" x="103.92" y="45.27" width="513.24" height="292.66"/></g><path class="cls-19" d="M289.19,130.93v-13.58h32.6v13.58h-32.6Z"/><g id="energy"><rect class="cls-9" x="348.13" y="66.27" width="115.78" height="115.78"/><rect class="cls-18" x="351.46" y="69.61" width="109.11" height="109.11"/><polygon class="cls-15" points="455.29 74.89 455.29 173.43 356.75 173.43 356.75 74.89 455.29 74.89"/><polygon class="cls-5" points="393.99 112.88 426.49 92.74 409.13 117.9 418.32 132.86 386.37 153.01 402.44 127.92 393.99 112.88"/><path id="darker" class="cls-6" d="M460.58,178.72h-109.11v-59.79s34.36,5.29,54.51,5.29,54.61-5.29,54.61-5.29v59.79Z"/></g><path class="cls-19" d="M157.64,287.48v-24.23h-24.23v-9.95h24.23v-24.23h9.95v24.23h24.23v9.95h-24.23v24.23h-9.95Z"/><g id="heat"><rect class="cls-9" x="480.95" y="201.35" width="115.78" height="115.78"/><rect class="cls-11" x="484.28" y="204.68" width="109.11" height="109.11"/><rect class="cls-12" x="489.57" y="209.97" width="98.51" height="98.51"/><path id="darker-2" class="cls-8" d="M593.4,313.79h-109.11v-59.79s34.36,5.29,54.51,5.29,54.61-5.29,54.61-5.29v59.79h0Z"/><g><polygon class="cls-10" points="526.54 264.3 514.11 253.52 514.11 253.52 514.11 220.64 501.65 254.18 514.18 264.75 514.18 264.75 514.11 297.81 526.54 264.3"/><polygon class="cls-10" points="551.32 264.3 538.89 253.52 538.79 253.52 538.89 220.64 526.43 254.18 538.89 264.75 538.89 264.75 538.89 297.81 551.32 264.3"/><polygon class="cls-10" points="576.78 264.3 564.33 253.52 564.23 253.52 564.33 220.64 551.9 254.18 564.33 264.75 564.33 264.75 564.33 297.81 576.78 264.3"/></g></g><g id="heat-2"><rect class="cls-9" x="348.13" y="201.35" width="115.78" height="115.78"/><rect class="cls-2" x="351.46" y="204.68" width="109.11" height="109.11"/><rect class="cls-12" x="356.75" y="209.97" width="98.51" height="98.51"/><path id="darker-3" class="cls-8" d="M460.58,313.79h-109.11v-59.79s34.36,5.29,54.51,5.29,54.61-5.29,54.61-5.29v59.79Z"/><g><polygon class="cls-10" points="393.71 264.3 381.28 253.52 381.28 253.52 381.28 220.64 368.83 254.18 381.36 264.75 381.36 264.75 381.28 297.81 393.71 264.3"/><polygon class="cls-10" points="418.5 264.3 406.07 253.52 405.97 253.52 406.07 220.64 393.61 254.18 406.07 264.75 406.07 264.75 406.07 297.81 418.5 264.3"/><polygon class="cls-10" points="443.96 264.3 431.51 253.52 431.41 253.52 431.51 220.64 419.08 254.18 431.51 264.75 431.51 264.75 431.51 297.81 443.96 264.3"/></g></g><g id="heat-3"><rect class="cls-9" x="215.31" y="201.35" width="115.78" height="115.78"/><rect class="cls-14" x="218.64" y="204.68" width="109.11" height="109.11"/><rect class="cls-12" x="223.93" y="209.97" width="98.51" height="98.51"/><path id="darker-4" class="cls-8" d="M327.76,313.79h-109.11v-59.79s34.36,5.29,54.51,5.29,54.61-5.29,54.61-5.29v59.79Z"/><g><polygon class="cls-10" points="260.89 264.3 248.46 253.52 248.46 253.52 248.46 220.64 236.01 254.18 248.54 264.75 248.54 264.75 248.46 297.81 260.89 264.3"/><polygon class="cls-10" points="285.68 264.3 273.25 253.52 273.15 253.52 273.25 220.64 260.79 254.18 273.25 264.75 273.25 264.75 273.25 297.81 285.68 264.3"/><polygon class="cls-10" points="311.14 264.3 298.69 253.52 298.58 253.52 298.69 220.64 286.26 254.18 298.69 264.75 298.69 264.75 298.69 297.81 311.14 264.3"/></g></g></svg>