<?xml version="1.0" encoding="UTF-8"?><svg id="Layer" xmlns="http://www.w3.org/2000/svg" xmlns:xlink="http://www.w3.org/1999/xlink" viewBox="0 0 721 379.91"><defs><style>.cls-1,.cls-2{fill:#fff;}.cls-3{fill:#020303;}.cls-4{fill:url(#linear-gradient-3);isolation:isolate;opacity:.5;}.cls-5{fill:url(#linear-gradient);stroke:#020303;stroke-width:3.28px;}.cls-5,.cls-6,.cls-7,.cls-2,.cls-8,.cls-9,.cls-10,.cls-11{stroke-miterlimit:10;}.cls-6{stroke:url(#linear-gradient-6);}.cls-6,.cls-7,.cls-9{stroke-width:2.76px;}.cls-6,.cls-9{fill:#e2181e;}.cls-7,.cls-8,.cls-10{fill:none;}.cls-7,.cls-10{stroke:#20201e;}.cls-2{opacity:0;stroke:#1d1d1b;}.cls-12{fill:#415fa9;}.cls-8{stroke:#fff;}.cls-8,.cls-11{stroke-width:1.56px;}.cls-13{fill:#1d2d4c;}.cls-14{fill:url(#radial-gradient);}.cls-15{fill:#84a3d5;}.cls-9{stroke:url(#linear-gradient-5);}.cls-10{stroke-width:.86px;}.cls-16{fill:url(#radial-gradient-2);}.cls-17{fill:#7ca5d8;}.cls-11{fill:url(#linear-gradient-2);stroke:#030404;}.cls-18{fill:#11478d;}.cls-19{fill:#93c6ec;}.cls-20{fill:#010202;}.cls-21{fill:url(#linear-gradient-4);}</style><linearGradient id="linear-gradient" x1="18.43" y1="442.86" x2="467.98" y2="442.86" gradientTransform="translate(0 -253.17)" gradientUnits="userSpaceOnUse"><stop offset="0" stop-color="#e96232"/><stop offset=".16" stop-color="#f18f31"/><stop offset=".5" stop-color="#f6a11f"/><stop offset=".65" stop-color="#f59e25"/><stop offset=".79" stop-color="#f4972d"/><stop offset=".85" stop-color="#f18f31"/><stop offset="1" stop-color="#e96232"/></linearGradient><linearGradient id="linear-gradient-2" x1="407.59" y1="52.34" x2="407.59" y2="162.46" gradientTransform="translate(0 297.09) scale(1 -1)" gradientUnits="userSpaceOnUse"><stop offset=".08" stop-color="#4ac0ef"/><stop offset=".15" stop-color="#54a5d6"/><stop offset=".23" stop-color="#5e86b5"/><stop offset=".3" stop-color="#636b9d"/><stop offset=".37" stop-color="#68578d"/><stop offset=".42" stop-color="#6a4a82"/><stop offset=".46" stop-color="#69467f"/><stop offset=".55" stop-color="#943f62"/><stop offset=".67" stop-color="#b7343d"/><stop offset=".75" stop-color="#cd2522"/><stop offset=".79" stop-color="#d41d1e"/></linearGradient><linearGradient id="linear-gradient-3" x1="403.11" y1="71.96" x2="397.18" y2="77.9" gradientTransform="translate(0 297.09) scale(1 -1)" gradientUnits="userSpaceOnUse"><stop offset="0" stop-color="#20201e" stop-opacity="0"/><stop offset="1" stop-color="#fff"/></linearGradient><linearGradient id="linear-gradient-4" x1="275.64" y1="101.22" x2="275.64" y2="210.11" gradientTransform="translate(0 345.09) scale(1 -1)" gradientUnits="userSpaceOnUse"><stop offset="0" stop-color="#c3dcf4"/><stop offset="1" stop-color="#2a5488"/></linearGradient><radialGradient id="radial-gradient" cx="275.55" cy="148.84" fx="275.55" fy="148.84" r="47.18" gradientTransform="translate(0 345.09) scale(1 -1)" gradientUnits="userSpaceOnUse"><stop offset="0" stop-color="#fff" stop-opacity=".7"/><stop offset=".13" stop-color="#fafcfe" stop-opacity=".68"/><stop offset=".28" stop-color="#e4e9f7" stop-opacity=".62"/><stop offset=".44" stop-color="#c4ceea" stop-opacity=".53"/><stop offset=".62" stop-color="#93a7d6" stop-opacity=".4"/><stop offset=".79" stop-color="#5673b7" stop-opacity=".23"/><stop offset=".98" stop-color="#30519e" stop-opacity=".03"/><stop offset="1" stop-color="#2e4d9b" stop-opacity="0"/></radialGradient><radialGradient id="radial-gradient-2" cx="108.83" cy="459.17" fx="108.83" fy="459.17" r="55.99" gradientTransform="translate(0 -269.17)" gradientUnits="userSpaceOnUse"><stop offset="0" stop-color="#f6ee87"/><stop offset=".78" stop-color="#f6ee87"/><stop offset=".91" stop-color="#f6ee87"/><stop offset=".91" stop-color="#f7ee88"/><stop offset=".94" stop-color="#faf4b7"/><stop offset=".96" stop-color="#fdfade"/><stop offset=".97" stop-color="#fefcf2"/><stop offset=".99" stop-color="#fff"/><stop offset="1" stop-color="#fff"/></radialGradient><linearGradient id="linear-gradient-5" x1="113.38" y1="481.93" x2="81.54" y2="450.09" gradientTransform="translate(0 -269.17)" gradientUnits="userSpaceOnUse"><stop offset="0" stop-color="#5e1613"/><stop offset=".1" stop-color="#611912"/><stop offset=".26" stop-color="#732c23"/><stop offset=".48" stop-color="#924e45"/><stop offset=".73" stop-color="#bf8981"/><stop offset="1" stop-color="#fbdede"/></linearGradient><linearGradient id="linear-gradient-6" x1="135.92" y1="466.7" x2="104.08" y2="434.86" xlink:href="#linear-gradient-5"/></defs><rect class="cls-2" x=".5" y=".5" width="720" height="378.91"/><g><g id="bg"><rect class="cls-1" x="9.8" y="130.58" width="466.72" height="118.75"/><rect id="tlo_i_obram" class="cls-5" x="18.43" y="138.68" width="449.55" height="102.02"/><g><rect class="cls-3" x="25.38" y="215.17" width="10.92" height="5.9"/><rect class="cls-3" x="25.38" y="202.06" width="10.92" height="5.55"/><rect class="cls-3" x="25.38" y="169.58" width="10.92" height="6.87"/><rect class="cls-3" x="25.38" y="155.93" width="10.92" height="6.07"/><polygon class="cls-3" points="25.38 191.85 36.38 176.62 36.38 170.81 25.38 186.04 25.38 191.85"/><polygon class="cls-3" points="25.38 207.6 36.38 192.37 36.38 186.56 25.38 201.79 25.38 207.6"/></g></g><g><path d="M490.96,187.8v-12.5h12.5v12.5h-12.5Zm0,33.8v-12.5h12.5v12.5h-12.5Z"/><path d="M559.18,219.57v-19.01h-19.01v-7.83h19.01v-18.93h7.83v19.01h19.01v7.83h-19.01v19.01h-7.83v-.09Z"/><path d="M591.22,234.1l37.06-79.14h9.51l-37.06,79.14h-9.51Z"/><path d="M641.48,198.98v-7.83h18.75v7.83h-18.75Z"/><path d="M669.21,221.6v-9.86c3.79-5.11,7.39-9.15,11-12.24l5.11-4.49c3.7-3.26,6.69-6.43,9.07-9.59s3.61-6.51,3.61-9.95c0-3.08-.97-5.55-2.99-7.22s-4.75-2.55-8.19-2.55c-4.58,0-9.86,1.58-15.93,4.67v-9.24c6.34-2.38,12.5-3.52,18.4-3.52,6.51,0,11.88,1.58,15.84,4.67s6.07,7.31,6.07,12.59c0,3.35-.88,6.43-2.55,9.42-1.67,2.9-5.28,6.6-10.56,10.92l-4.23,3.35c-1.85,1.5-3.87,3.43-6.07,5.72s-3.7,4.84-4.4,7.39h27.55v9.86l-41.72,.09h0Z"/></g><g id="tempIcon"><path class="cls-11" d="M414.9,215.53v-73.59c0-3.96-3.35-7.31-7.31-7.31s-7.31,3.35-7.31,7.31v73.41c-4.84,2.64-8.27,7.83-8.27,13.82,0,8.63,6.95,15.58,15.58,15.58s15.58-6.95,15.58-15.58c0-5.99-3.26-11.18-8.27-13.64h0Z"/><line class="cls-8" x1="404.43" y1="150.56" x2="410.94" y2="150.56"/><line class="cls-8" x1="404.43" y1="170.98" x2="410.94" y2="170.98"/><line class="cls-8" x1="404.43" y1="189.65" x2="410.94" y2="189.65"/><line class="cls-8" x1="404.43" y1="206.9" x2="410.94" y2="206.9"/><line class="cls-8" x1="404.43" y1="228.82" x2="410.94" y2="228.82"/><path class="cls-4" d="M403.11,224.94c-2.29,2.46-5.63,2.99-7.31,1.5-1.67-1.67-.97-5.02,1.32-7.31s5.63-2.99,7.31-1.32,1.14,4.84-1.32,7.13Z"/></g><path class="cls-20" d="M173.27,230.58l37.06-79.14h9.51l-37.06,79.14h-9.51Z"/><g id="ocean"><polygon class="cls-3" points="324.32 217.64 324.32 161.3 275.64 133.22 226.87 161.3 226.87 217.64 275.64 245.72 324.32 217.64"/><polygon class="cls-21" points="322.82 216.76 322.82 162.27 275.64 134.98 228.46 162.27 228.46 216.76 275.64 243.87 322.82 216.76"/><polygon class="cls-15" points="319.66 214.91 319.66 164.03 275.64 138.59 231.63 164.03 231.63 214.91 275.64 240.35 319.66 214.91"/><path class="cls-18" d="M319.66,196.16c-1.94-1.85-5.81-2.64-12.41-3.43-6.43-.88-9.59-1.23-11.18-1.23-10.12-.09-10.83,2.73-19.19,2.82-2.29,0-8.27-1.23-20.51-3.79-7.04-1.41-9.24-1.94-12.76-1.67-5.02,.35-9.15,2.02-12.15,3.87v22.18l44.19,25.44,44.01-25.44v-18.75h0Z"/><path class="cls-13" d="M275.82,226.62h0c19.81-.35,29.49-20.42,20.33-42.25-.79-1.85-1.76-3.87-2.9-5.9-17.61-31.95-17.61-31.78-17.61-31.78,0,0,0-.18-17.52,31.78-1.14,2.02-2.11,4.05-2.9,5.9-9.24,21.92,.44,41.9,20.33,42.25h0"/><path class="cls-19" d="M275.82,225.38h0c18.84-.35,27.9-19.28,19.28-40.05-.79-1.76-1.67-3.7-2.73-5.63-16.55-30.28-16.55-30.11-16.55-30.11,0,0,0-.18-16.55,30.11-1.06,1.94-1.94,3.79-2.73,5.63-8.89,20.77,.26,39.79,19.28,40.05h0"/><path class="cls-17" d="M275.64,223.27h0c17.25-.26,25.62-17.69,17.69-36.62-.7-1.67-1.58-3.35-2.55-5.19-15.14-27.82-15.14-27.64-15.14-27.64,0,0,0-.18-15.23,27.64-.97,1.76-1.76,3.52-2.55,5.19-7.83,18.93,.53,36.18,17.78,36.62h0"/><path class="cls-12" d="M295.1,191.49c-9.15,.09-10.04,2.73-18.22,2.82-2.29,0-8.27-1.23-20.42-3.7-5.28,17.43,3.08,32.31,19.19,32.57h.09c15.76-.26,24.12-14.7,19.37-31.69h0Z"/><circle class="cls-14" cx="275.55" cy="196.25" r="47.18"/></g><path class="cls-20" d="M334.18,230.58l37.06-79.14h9.51l-37.06,79.14h-9.51Z"/><g id="oxIcon"><path class="cls-16" d="M164.82,190c0,30.9-25.09,55.99-55.99,55.99s-55.99-25.09-55.99-55.99,25.09-55.99,55.99-55.99c30.9,.09,55.99,25.09,55.99,55.99Z"/><path class="cls-7" d="M164.73,190c0,30.9-25.09,55.99-55.99,55.99s-55.9-25.09-55.9-55.99,25.09-55.99,55.99-55.99,55.9,25.18,55.9,55.99h0Z"/><path class="cls-10" d="M158.3,190c0,27.38-22.18,49.47-49.47,49.47s-49.47-22.18-49.47-49.47,22.09-49.47,49.47-49.47,49.47,22.09,49.47,49.47Z"/><path class="cls-9" d="M118.6,196.86c0,11.62-9.51,21.13-21.13,21.13s-21.13-9.51-21.13-21.13,9.51-21.13,21.13-21.13,21.13,9.42,21.13,21.13Z"/><path class="cls-6" d="M141.14,181.63c0,11.62-9.51,21.13-21.13,21.13s-21.13-9.51-21.13-21.13,9.51-21.13,21.13-21.13,21.13,9.42,21.13,21.13Z"/></g></g></svg>