<?xml version="1.0" encoding="UTF-8"?><svg id="Layer" xmlns="http://www.w3.org/2000/svg" xmlns:xlink="http://www.w3.org/1999/xlink" viewBox="0 0 721 379.91"><defs><style>.cls-1{fill:url(#linear-gradient-2);}.cls-2{fill:#342218;}.cls-3,.cls-4{opacity:.15;}.cls-3,.cls-4,.cls-5,.cls-6{isolation:isolate;}.cls-3,.cls-7{fill:#010202;}.cls-8{fill:#977355;}.cls-9,.cls-4,.cls-6{fill:#030404;}.cls-10{fill:#20201e;}.cls-11{fill:#525251;}.cls-12{fill:#946137;}.cls-13{fill:#fff;opacity:0;stroke:#1d1d1b;}.cls-13,.cls-14,.cls-15{stroke-miterlimit:10;}.cls-14{stroke:#ffd80c;stroke-width:4.46px;}.cls-14,.cls-16{fill:none;}.cls-15{fill:url(#linear-gradient-6);stroke:#010202;stroke-width:1.16px;}.cls-17{fill:url(#linear-gradient-5);}.cls-5{fill:url(#Nowy_wzorek_7);opacity:.1;}.cls-18{fill:url(#linear-gradient-3);}.cls-6{opacity:.64;}.cls-19{fill:url(#linear-gradient);}.cls-20{fill:#473628;}.cls-21{fill:url(#linear-gradient-4);}.cls-22{fill:#010101;}.cls-23{fill:#b98e6e;}</style><linearGradient id="linear-gradient" x1="511.35" y1="697.48" x2="210.4" y2="396.53" gradientTransform="translate(0 -255.39)" gradientUnits="userSpaceOnUse"><stop offset="0" stop-color="#9f9d9c"/><stop offset=".54" stop-color="#020303"/><stop offset="1" stop-color="#9f9d9c"/></linearGradient><linearGradient id="linear-gradient-2" x1="360.95" y1="626.63" x2="360.95" y2="467.42" gradientTransform="translate(0 -255.39)" gradientUnits="userSpaceOnUse"><stop offset="0" stop-color="#472d1c"/><stop offset="1" stop-color="#b18047"/></linearGradient><linearGradient id="linear-gradient-3" x1="360.88" y1="622.59" x2="360.88" y2="471.3" gradientTransform="translate(0 -255.39)" gradientUnits="userSpaceOnUse"><stop offset="0" stop-color="#946137"/><stop offset="1" stop-color="#815228"/></linearGradient><pattern id="Nowy_wzorek_7" x="0" y="0" width="19.7" height="21.7" patternTransform="translate(-6.62 16.75)" patternUnits="userSpaceOnUse" viewBox="0 0 19.7 21.7"><g><rect class="cls-16" width="19.7" height="21.7"/><g><rect class="cls-16" width="19.7" height="21.7"/><g><rect class="cls-16" width="19.7" height="21.7"/><g><rect class="cls-16" width="19.7" height="21.7"/><g><rect class="cls-16" width="19.7" height="21.7"/><g><rect class="cls-16" width="19.7" height="21.7"/><g><rect class="cls-16" width="19.7" height="21.7"/><path class="cls-10" d="M16.6,8.7c2.1,2.1,2.1,5.6,0,7.7l-1.2,1.2c-2.1,2.1-5.6,2.1-7.8,0L3.1,13c-2.1-2.1-2.1-5.6,0-7.7l1.2-1.2c2.1-2.1,5.6-2.1,7.7,0l4.6,4.6Z"/></g></g></g></g></g></g></g></pattern><linearGradient id="linear-gradient-4" x1="-740.5" y1="-774.94" x2="-666.2" y2="-700.67" gradientTransform="translate(205.89 -726.44) rotate(-45) scale(1 -1)" gradientUnits="userSpaceOnUse"><stop offset="0" stop-color="#472d1c"/><stop offset=".05" stop-color="#58361a"/><stop offset=".1" stop-color="#684016"/><stop offset=".32" stop-color="#784a20"/><stop offset=".75" stop-color="#8e5c33"/><stop offset="1" stop-color="#946137"/></linearGradient><linearGradient id="linear-gradient-5" x1="-555.06" y1="1582.36" x2="-480.78" y2="1508.05" gradientTransform="translate(-233.71 -1166.03) rotate(-45)" gradientUnits="userSpaceOnUse"><stop offset="0" stop-color="#030404"/><stop offset="1" stop-color="#7a787a"/></linearGradient><linearGradient id="linear-gradient-6" x1="361.03" y1="178.95" x2="361.03" y2="351.06" gradientTransform="translate(0 364.27) scale(1 -1)" gradientUnits="userSpaceOnUse"><stop offset="0" stop-color="#251e1d"/><stop offset="1" stop-color="#d5b39c"/></linearGradient></defs><rect class="cls-13" x=".5" y=".5" width="720" height="378.91"/><g><g id="prodBg"><rect id="external-border" class="cls-19" x="143.96" y="207.59" width="433.83" height="168.06"/><rect id="internal-border" class="cls-1" x="148.4" y="212.03" width="425.09" height="159.21"/><rect id="bg" class="cls-18" x="152.28" y="215.91" width="417.2" height="151.29"/><rect id="bgPattern" class="cls-5" x="152.28" y="215.91" width="417.2" height="151.29"/></g><g id="steel"><rect class="cls-9" x="174.5" y="236.88" width="111.46" height="111.46"/><rect class="cls-21" x="177.73" y="240.09" width="105.04" height="105.04"/><rect class="cls-12" x="182.82" y="245.18" width="94.84" height="94.84"/><g><path class="cls-2" d="M240.12,323.95l2.32-44.08-5.36-.63-.8-1.88h-4.1l-.72,1.98-6.25-.27v-11.44h7.24l.53,2.24,3.4,.46,.8-2.58h7.43l1.42,1.25,1.25-1.25h9.22l1.06,1.79,1.62-1.79,6.97,5.72-.46,3.93s-3.84-3.57-5.72-3.57-4.56-.1-4.56-.1l-3.84,6.18-2.32,.17,2.15,43.89h-11.27l-.02-.02h0Z"/><polygon class="cls-2" points="219.3 265.76 211.78 261.63 211.7 271.84 204.9 271.84 204.9 261.63 196.31 265.56 196.31 278.09 204.27 281.92 201.5 323.95 214.28 323.95 211.78 281.92 219.3 278.52 219.3 265.76"/></g><path id="darker" class="cls-4" d="M282.75,345.13h-105.04v-57.56s33.08,5.09,52.47,5.09,52.57-5.09,52.57-5.09v57.56h0Z"/></g><g id="titan"><rect class="cls-9" x="436.94" y="237.06" width="111.46" height="111.46"/><rect class="cls-17" x="440.17" y="240.29" width="105.05" height="105.05"/><rect class="cls-11" x="445.27" y="245.38" width="94.84" height="94.84"/><path id="darker-2" class="cls-6" d="M545.2,345.31h-105.05v-57.57s33.08,5.09,52.47,5.09,52.57-5.09,52.57-5.09v57.57h0Z"/><polygon class="cls-14" points="493.28 261.84 503.19 282.66 526.06 285.6 509.27 301.43 513.57 324.06 493.28 312.96 473.06 324.06 477.35 301.43 460.54 285.6 483.43 282.66 493.28 261.84"/></g><g><path class="cls-22" d="M336.26,318.76c-5.28,0-9.87-1.09-13.78-3.27s-6.88-5.32-8.91-9.43c-2.03-4.1-3.05-8.75-3.05-13.94s1.02-9.8,3.05-13.92c2.03-4.11,5.02-7.26,8.95-9.44s8.51-3.27,13.75-3.27,9.78,1.09,13.71,3.27,6.91,5.33,8.95,9.44c2.03,4.11,3.05,8.75,3.05,13.92s-1.02,9.83-3.05,13.94c-2.04,4.1-5,7.25-8.9,9.43s-8.48,3.27-13.76,3.27h-.01Zm0-6.96c4.89,0,8.53-2,10.92-5.99s3.58-8.56,3.58-13.71-1.2-9.74-3.6-13.71-6.03-5.95-10.9-5.95-8.54,1.98-10.94,5.95-3.6,8.54-3.6,13.71,1.19,9.72,3.58,13.71,6.04,5.99,10.95,5.99h.01Z"/><path class="cls-22" d="M371.46,317.49v-50.74h18.99c3.89,0,6.84,.49,8.88,1.46,2.04,.97,3.64,2.45,4.82,4.42,1.18,1.98,1.77,4.21,1.77,6.7,0,2.97-.86,5.78-2.57,8.42-1.71,2.64-4.14,4.66-7.27,6.05l16.61,23.69h-12.86l-12.62-20.74h-5.8v20.74h-9.95Zm9.94-27.7h2.43c4.36,0,7.37-.95,9.03-2.84,1.66-1.9,2.49-4.04,2.49-6.45,0-2.08-.68-3.73-2.03-4.95s-4.1-1.83-8.25-1.83h-3.68v16.08h0Z"/></g><g id="miningRightsArea"><polygon class="cls-7" points="443.3 146.92 443.3 51.76 360.95 4.26 278.44 51.76 278.44 146.92 360.95 194.58 443.3 146.92"/><polygon class="cls-8" points="440.68 145.38 440.68 53.15 360.95 7.04 281.06 53.15 281.06 145.38 360.95 191.49 440.68 145.38"/><polygon class="cls-15" points="435.59 142.45 435.59 56.23 360.95 13.21 286.46 56.23 286.46 142.45 360.95 185.32 435.59 142.45"/><polygon class="cls-23" points="430.2 139.36 430.2 59.32 360.95 19.53 291.85 59.32 291.85 139.36 360.95 179 430.2 139.36"/><path class="cls-3" d="M442.84,144.14v-59.38h0c-54.59,8.12-109.24,8.12-163.94,0h0v59.38l81.89,47.35,82.05-47.35h0Z"/><g><rect class="cls-20" x="314.04" y="65.24" width="41.49" height="18.51" transform="translate(45.38 258.55) rotate(-45)"/><path class="cls-20" d="M397.19,136.12l-.46,.46c-3.08,3.08-8.17,3.08-11.41,0l-62.15-66.47,7.09-7.09,66.93,61.85c3.08,3.08,3.08,8.17,0,11.26h0Z"/><path class="cls-20" d="M368.66,66.57l13.26-12.96,18.66,19.12c5.71,6.01,5.71,15.27-.15,20.97l-2.62,2.62-29.15-29.77v.02h0Z"/><path class="cls-20" d="M327.48,136.59l-.46-.46c-3.08-3.24-3.08-8.33,.15-11.41l67.24-61.38,7.09,7.25-62.77,66.01c-3.08,3.24-8.17,3.08-11.26,0h.01Z"/></g></g><path class="cls-22" d="M470.23,32.16l-12.79-1.6,2.94-9.03,11.26,6.24c-.97,1.06-1.46,2.23-1.46,3.5,0,.21,.01,.5,.04,.89h0Zm4,3.52l-5.49,11.69-7.65-5.59,9.4-8.84c.82,1.5,2.06,2.41,3.73,2.74h0Zm-4.34-21.05h9.49l-2.42,12.66c-.79-.38-1.57-.57-2.33-.57s-1.52,.19-2.29,.57l-2.46-12.66h.01Zm8.95,18.31l9.4,8.84-7.69,5.59-5.45-11.69c1.64-.32,2.88-1.24,3.73-2.74h.01Zm-1.19-5.17l11.3-6.24,2.9,9.03-12.79,1.6c.06-.38,.09-.68,.09-.89,0-1.27-.5-2.44-1.5-3.5h0Z"/><path class="cls-22" d="M607.42,240.06l-12.79-1.6,2.94-9.03,11.26,6.24c-.97,1.06-1.46,2.23-1.46,3.5,0,.21,.01,.5,.04,.89h0Zm4,3.52l-5.49,11.69-7.65-5.59,9.4-8.84c.82,1.5,2.06,2.41,3.73,2.74h0Zm-4.34-21.05h9.49l-2.42,12.66c-.79-.38-1.57-.57-2.33-.57s-1.52,.19-2.29,.57l-2.46-12.66h.01Zm8.95,18.31l9.4,8.84-7.69,5.59-5.45-11.69c1.64-.32,2.88-1.24,3.73-2.74h.01Zm-1.19-5.17l11.3-6.24,2.9,9.03-12.79,1.6c.06-.38,.09-.68,.09-.89,0-1.27-.5-2.44-1.5-3.5h0Z"/></g></svg>