<?xml version="1.0" encoding="UTF-8"?><svg id="Layer" xmlns="http://www.w3.org/2000/svg" xmlns:xlink="http://www.w3.org/1999/xlink" viewBox="0 0 721 379.91"><defs><style>.cls-1{fill:url(#linear-gradient-2);}.cls-2{fill:#977355;}.cls-3{fill:url(#Nowy_wzorek_9);opacity:.1;}.cls-3,.cls-4,.cls-5{isolation:isolate;}.cls-6,.cls-4{fill:#030404;}.cls-7{fill:#20201e;}.cls-8{fill:#030304;stroke-width:1.88px;}.cls-8,.cls-9,.cls-10,.cls-11{stroke-miterlimit:10;}.cls-8,.cls-11{stroke:#030404;}.cls-12{fill:#020303;}.cls-13{fill:url(#linear-gradient-6);}.cls-4,.cls-5{opacity:.15;}.cls-9{opacity:0;stroke:#1d1d1b;}.cls-9,.cls-11{fill:#fff;}.cls-10{fill:url(#linear-gradient-9);stroke:#010101;stroke-width:1.34px;}.cls-11{stroke-width:.91px;}.cls-14{fill:url(#linear-gradient-5);}.cls-15{fill:none;}.cls-16{fill:url(#linear-gradient-7);}.cls-17{fill:#b88d6d;}.cls-18{fill:url(#linear-gradient-3);}.cls-19{fill:url(#linear-gradient);}.cls-20{fill:#80378d;}.cls-21{fill:#473628;}.cls-22{fill:url(#linear-gradient-4);}.cls-23,.cls-5{fill:#010101;}.cls-24{fill:url(#linear-gradient-8);}</style><linearGradient id="linear-gradient" x1="353.97" y1="33.61" x2="77.02" y2="310.57" gradientTransform="translate(0 365.81) scale(1 -1)" gradientUnits="userSpaceOnUse"><stop offset="0" stop-color="#9f9d9c"/><stop offset=".54" stop-color="#030304"/><stop offset="1" stop-color="#9f9d9c"/></linearGradient><linearGradient id="linear-gradient-2" x1="215.57" y1="23.91" x2="215.57" y2="320.24" gradientTransform="translate(0 365.81) scale(1 -1)" gradientUnits="userSpaceOnUse"><stop offset="0" stop-color="#482d1d"/><stop offset="1" stop-color="#b18046"/></linearGradient><linearGradient id="linear-gradient-3" x1="215.51" y1="28.04" x2="215.51" y2="316.27" gradientTransform="translate(0 365.81) scale(1 -1)" gradientUnits="userSpaceOnUse"><stop offset="0" stop-color="#946137"/><stop offset="1" stop-color="#825329"/></linearGradient><pattern id="Nowy_wzorek_9" x="0" y="0" width="19.7" height="21.7" patternTransform="translate(3.5 -11.32) scale(1 -1)" patternUnits="userSpaceOnUse" viewBox="0 0 19.7 21.7"><g><rect class="cls-15" width="19.7" height="21.7"/><g><rect class="cls-15" width="19.7" height="21.7"/><g><rect class="cls-15" width="19.7" height="21.7"/><g><rect class="cls-15" width="19.7" height="21.7"/><g><rect class="cls-15" width="19.7" height="21.7"/><g><rect class="cls-15" width="19.7" height="21.7"/><g><rect class="cls-15" width="19.7" height="21.7"/><g><rect class="cls-15" width="19.7" height="21.7"/><path class="cls-7" d="M16.6,13c2.1-2.1,2.1-5.6,0-7.7l-1.2-1.2c-2.1-2.1-5.6-2.1-7.8,0L3.1,8.7c-2.1,2.1-2.1,5.6,0,7.7l1.2,1.2c2.1,2.1,5.6,2.1,7.7,0l4.6-4.6Z"/></g></g></g></g></g></g></g></g></pattern><linearGradient id="linear-gradient-4" x1="253.32" y1="51.14" x2="253.32" y2="158.65" gradientTransform="translate(0 364.8) scale(1 -1)" gradientUnits="userSpaceOnUse"><stop offset=".16" stop-color="#833c15"/><stop offset=".18" stop-color="#9a5e1a"/><stop offset=".22" stop-color="#ae7d22"/><stop offset=".26" stop-color="#c39d24"/><stop offset=".3" stop-color="#d6b92e"/><stop offset=".35" stop-color="#e4cf36"/><stop offset=".41" stop-color="#efe036"/><stop offset=".48" stop-color="#f5e952"/><stop offset=".58" stop-color="#f8eb57"/><stop offset=".86" stop-color="#f4e956"/><stop offset="1" stop-color="#fcf4f9"/></linearGradient><linearGradient id="linear-gradient-5" x1="253.33" y1="164.38" x2="253.33" y2=".05" gradientTransform="translate(0 364.8) scale(1 -1)" gradientUnits="userSpaceOnUse"><stop offset=".26" stop-color="#f4e956"/><stop offset=".86" stop-color="#823b15"/></linearGradient><linearGradient id="linear-gradient-6" x1="253.38" y1="52.61" x2="253.38" y2="157.04" gradientTransform="translate(0 364.8) scale(1 -1)" gradientUnits="userSpaceOnUse"><stop offset=".16" stop-color="#823b15"/><stop offset=".17" stop-color="#8e491f"/><stop offset=".18" stop-color="#a36d3e"/><stop offset=".2" stop-color="#b78954"/><stop offset=".22" stop-color="#c7a468"/><stop offset=".24" stop-color="#d7bb7a"/><stop offset=".26" stop-color="#e2cc88"/><stop offset=".3" stop-color="#ead891"/><stop offset=".34" stop-color="#eede97"/><stop offset=".46" stop-color="#efe097"/><stop offset=".7" stop-color="#823b15"/><stop offset=".73" stop-color="#e6d234"/><stop offset=".74" stop-color="#ecda49"/><stop offset=".75" stop-color="#eede6d"/><stop offset=".77" stop-color="#efe18a"/><stop offset=".79" stop-color="#f8ebac"/><stop offset=".8" stop-color="#f8edbf"/><stop offset=".83" stop-color="#faf0cf"/><stop offset=".85" stop-color="#fcf2da"/><stop offset=".89" stop-color="#fdf4e1"/><stop offset=".99" stop-color="#fdf5e3"/></linearGradient><linearGradient id="linear-gradient-7" x1="253.3" y1="141.75" x2="253.3" y2="-19.43" gradientTransform="translate(0 364.8) scale(1 -1)" gradientUnits="userSpaceOnUse"><stop offset=".26" stop-color="#f4e956"/><stop offset=".77" stop-color="#823b15"/></linearGradient><linearGradient id="linear-gradient-8" x1="-564.68" y1="-574.66" x2="-488.69" y2="-498.64" gradientTransform="translate(246.23 -624.65) rotate(-45) scale(1 -1)" gradientUnits="userSpaceOnUse"><stop offset="0" stop-color="#1d1627"/><stop offset=".24" stop-color="#372348"/><stop offset=".49" stop-color="#593d6d"/><stop offset=".71" stop-color="#74528e"/><stop offset=".89" stop-color="#835ca2"/><stop offset="1" stop-color="#8965a8"/></linearGradient><linearGradient id="linear-gradient-9" x1="533.99" y1="565.64" x2="533.99" y2="365.68" gradientTransform="translate(0 -272.18)" gradientUnits="userSpaceOnUse"><stop offset="0" stop-color="#241d1c"/><stop offset="1" stop-color="#d4b39c"/></linearGradient></defs><rect class="cls-9" x=".5" y=".5" width="720" height="378.91"/><g id="prodBg"><rect id="external-border" class="cls-19" x="91.24" y="41.03" width="248.52" height="305.39"/><rect id="internal-border" class="cls-1" x="95.78" y="45.57" width="239.59" height="296.33"/><rect id="bg" class="cls-18" x="99.75" y="49.54" width="231.52" height="288.23"/><rect id="bgPattern" class="cls-3" x="99.75" y="49.54" width="231.52" height="288.23"/></g><path class="cls-12" d="M143.32,290.24v-23.87h-23.87v-9.8h23.87v-23.87h9.8v23.87h23.87v9.8h-23.87v23.87h-9.8Z"/><path class="cls-12" d="M133.27,133.91v-13.38h32.11v13.38h-32.11Z"/><g id="mln"><polygon id="obram_czarne" class="cls-8" points="213.54 202.89 196.26 220.17 196.26 299.65 213.54 316.92 293.11 316.92 310.31 299.65 310.31 220.17 293.11 202.89 213.54 202.89"/><polygon id="obram_zolte" class="cls-22" points="215.78 206.15 199.61 222.42 199.61 297.4 215.78 313.66 290.79 313.66 307.03 297.4 307.03 222.42 290.79 206.15 215.78 206.15"/><polygon id="tlo_wew" class="cls-14" points="216.89 207.76 201.12 223.53 201.12 296.29 216.89 312.09 289.75 312.09 305.55 296.29 305.55 223.53 289.75 207.76 216.89 207.76"/><path id="obram_skosne" class="cls-13" d="M297.97,280.05c-2.89,0-5.23-2.34-5.23-5.23v-29.79c0-2.89,2.34-5.23,5.23-5.23h7.48v-16.24l-15.7-15.8h-16.34v7.48c0,2.89-2.34,5.23-5.23,5.23h-29.79c-2.89,0-5.23-2.34-5.23-5.23v-7.48h-16.24l-15.8,15.8v16.34h7.48c2.89,0,5.23,2.34,5.23,5.23v29.79c0,2.89-2.34,5.23-5.23,5.23h-7.48v16.24l15.8,15.8h16.34v-7.48c0-2.89,2.34-5.23,5.23-5.23h29.79c2.89,0,5.23,2.34,5.23,5.23v7.48h16.34l15.8-15.8v-16.34h-7.68Z"/><path id="tlo_zew" class="cls-16" d="M297.7,281.8c-3.55,0-6.44-3.55-6.44-7.11v-29.62c0-3.55,2.89-7.11,6.44-7.11h6.07v-13.25l-15.33-15.23h-13.18v6.07c0,3.55-3.55,6.44-7.11,6.44h-29.62c-3.55,0-7.11-2.89-7.11-6.44v-6.07h-13.35l-15.23,15.23v13.25h6.07c3.55,0,6.44,3.55,6.44,7.11v29.62c0,3.55-2.89,7.11-6.44,7.11h-6.07v13.25l15.23,15.23h13.25v-6.07c0-3.55,3.55-6.44,7.11-6.44h29.52c3.55,0,7.11,2.89,7.11,6.44v6.07h13.25l15.23-15.23v-13.25h-5.84Z"/></g><g id="energy"><rect class="cls-6" x="196.26" y="70.23" width="114.03" height="114.03"/><rect class="cls-24" x="199.54" y="73.51" width="107.46" height="107.46"/><polygon class="cls-20" points="301.8 78.72 301.8 175.77 204.77 175.77 204.77 78.72 301.8 78.72"/><polygon class="cls-11" points="241.45 116.14 273.44 96.29 256.33 121.07 265.39 135.81 233.95 155.65 249.77 130.95 241.45 116.14"/><path id="darker" class="cls-4" d="M307.01,180.98h-107.46v-58.89s33.84,5.21,53.68,5.21,53.78-5.21,53.78-5.21v58.89h0Z"/></g><path class="cls-23" d="M256.88,284.97v-13.31h-23.28v-7.48l22.88-29.08h9.13v29.08h5.83v7.48h-5.83v13.31h-8.73Zm-15.32-20.79h15.52v-19.56l-15.52,19.56Z"/><g id="commercialDistrict"><polygon class="cls-23" points="629.58 248.84 629.58 138.29 533.9 83.11 438.04 138.29 438.04 248.84 533.9 304.21 629.58 248.84"/><polygon class="cls-2" points="626.53 247.05 626.53 139.9 533.9 86.33 441.08 139.9 441.08 247.05 533.9 300.63 626.53 247.05"/><polygon class="cls-10" points="620.62 243.65 620.62 143.49 533.9 93.5 447.36 143.49 447.36 243.65 533.9 293.46 620.62 243.65"/><polygon class="cls-17" points="614.35 240.06 614.35 147.07 533.9 100.84 453.63 147.07 453.63 240.06 533.9 286.11 614.35 240.06"/><path class="cls-5" d="M629.04,245.62v-68.98h0c-63.43,9.5-126.86,9.5-190.46,0h0v68.98l95.14,55.01,95.32-55.01Z"/><path class="cls-21" d="M521,206.74v.36c1.79,6.09,4.84,10.75,9.32,13.98s9.85,4.84,16.13,4.84c7.35,0,14.69-2.33,21.86-6.81v13.98c-7.53,3.94-16.13,5.91-26.16,5.91-3.76,0-7.17-.36-10.57-.9s-6.45-1.43-9.14-2.69c-2.87-1.25-5.38-2.69-7.7-4.66-2.33-1.79-4.48-3.94-6.27-6.27s-3.58-5.38-5.38-9.14-2.51-6.45-2.51-8.24v-.36h-8.78l2.33-11.47h4.84c0-.72-.18-1.79-.18-3.23l.18-4.12v-.36h-7.35l2.33-11.47h6.63v-.36c2.69-10.93,7.53-18.99,14.51-24.19,6.99-5.2,15.95-7.88,27.23-7.88,9.14,0,17.56,1.25,25.08,3.58v14.69c-9.14-3.94-17.02-5.91-23.47-5.91-12.18,0-19.89,6.63-23.11,19.89h37.09l-2.33,11.47h-36.73v.36c0,.72-.18,1.97-.18,3.58l.18,3.4v.36h35.3l-2.33,11.65h-30.82Z"/></g></svg>