<?xml version="1.0" encoding="UTF-8"?><svg id="Layer" xmlns="http://www.w3.org/2000/svg" xmlns:xlink="http://www.w3.org/1999/xlink" viewBox="0 0 721 379.91"><defs><style>.cls-1{fill:url(#linear-gradient-2);}.cls-2,.cls-3,.cls-4{fill:#030404;}.cls-3{opacity:.05;}.cls-3,.cls-5,.cls-4{isolation:isolate;}.cls-6{fill:#0d582a;stroke:#1e4523;stroke-width:3.72px;}.cls-6,.cls-7,.cls-8{stroke-miterlimit:10;}.cls-7{fill:#fff;opacity:0;stroke:#1d1d1b;}.cls-8{fill:none;stroke:#020303;stroke-width:1.86px;}.cls-9{fill:#ce141e;}.cls-5{fill:#e03e17;opacity:.5;}.cls-10{fill:url(#linear-gradient-5);}.cls-11{fill:#3e4a21;}.cls-12{fill:url(#linear-gradient-3);}.cls-13{fill:url(#linear-gradient);}.cls-14{fill:#4bad39;}.cls-15{fill:url(#linear-gradient-4);}.cls-4{opacity:.12;}.cls-16{fill:#97c22a;}</style><linearGradient id="linear-gradient" x1="-519.73" y1="-1047.33" x2="-442.41" y2="-970.01" gradientTransform="translate(182.51 -775.36) rotate(-45) scale(1 -1)" gradientUnits="userSpaceOnUse"><stop offset="0" stop-color="#3e4a21"/><stop offset=".14" stop-color="#4c5e25"/><stop offset=".42" stop-color="#6a852b"/><stop offset=".66" stop-color="#82a52e"/><stop offset=".86" stop-color="#8fb923"/><stop offset="1" stop-color="#97c22a"/></linearGradient><linearGradient id="linear-gradient-2" x1="-618.56" y1="-948.5" x2="-541.24" y2="-871.18" xlink:href="#linear-gradient"/><linearGradient id="linear-gradient-3" x1="265.14" y1="81.15" x2="265.14" y2="124.05" gradientTransform="translate(0 380.63) scale(1 -1)" gradientUnits="userSpaceOnUse"><stop offset="0" stop-color="#532a15"/><stop offset=".45" stop-color="#532a15" stop-opacity=".7"/><stop offset=".58" stop-color="#e03e17" stop-opacity=".5"/><stop offset="1" stop-color="#e03e17" stop-opacity=".5"/></linearGradient><linearGradient id="linear-gradient-4" x1="-480.39" y1="-837.39" x2="-403.07" y2="-760.08" gradientTransform="translate(182.51 -775.36) rotate(-45) scale(1 -1)" gradientUnits="userSpaceOnUse"><stop offset="0" stop-color="#116a37"/><stop offset=".04" stop-color="#156d38"/><stop offset=".08" stop-color="#0a783a"/><stop offset=".13" stop-color="#148837"/><stop offset=".15" stop-color="#0f9039"/><stop offset=".35" stop-color="#38993d"/><stop offset=".76" stop-color="#61b149"/><stop offset="1" stop-color="#70b74b"/></linearGradient><linearGradient id="linear-gradient-5" x1="284.38" y1="257.41" x2="284.38" y2="300.31" xlink:href="#linear-gradient-3"/></defs><rect class="cls-7" x=".5" y=".5" width="720" height="378.91"/><g><g><path d="M641.32,234.33l-10.43-1.29,2.37-7.42,9.14,5.05c-.75,.86-1.18,1.83-1.18,2.9,.11,.11,.11,.43,.11,.75h0Zm3.33,2.8l-4.52,9.57-6.24-4.52,7.63-7.2c.75,1.18,1.72,1.94,3.12,2.15h0Zm-3.55-17.2h7.74l-1.94,10.32c-.65-.32-1.29-.43-1.94-.43s-1.29,.11-1.83,.43l-2.04-10.32h0Zm7.31,15.05l7.63,7.2-6.24,4.52-4.41-9.57c1.29-.22,2.26-.97,3.01-2.15Zm-.97-4.3l9.25-5.05,2.37,7.42-10.43,1.29c0-.32,.11-.54,.11-.75-.11-1.08-.43-2.04-1.29-2.9h0Z"/><g id="microbe"><rect class="cls-2" x="497.58" y="220.03" width="116.11" height="116.11"/><rect class="cls-13" x="500.91" y="223.36" width="109.34" height="109.34"/><rect class="cls-16" x="506.29" y="228.63" width="98.8" height="98.8"/><g id="microbes"><polygon class="cls-11" points="556.92 287.98 552.3 288.51 552.84 293.14 548.22 292.38 547.46 297.11 543.27 294.96 541.23 299.16 537.79 295.82 534.67 299.27 532.3 295.18 528.22 297.44 527.25 292.92 522.74 293.89 523.06 289.27 518.44 288.84 520.26 284.54 515.96 282.71 518.97 279.16 515.32 276.15 519.19 273.57 516.61 269.7 521.02 268.41 519.73 263.79 524.46 263.89 524.46 259.27 528.97 260.67 530.37 256.26 534.24 258.95 536.93 255.08 539.72 258.84 543.38 255.94 545.1 260.35 549.4 258.73 549.72 263.36 554.34 263.14 553.27 267.66 557.78 268.62 555.42 272.71 559.5 275.07 555.96 278.3 559.07 281.74 554.88 283.68 556.92 287.98"/><polygon class="cls-11" points="597.03 269.27 595.41 269.81 595.41 271.96 593.05 271.2 591.54 272.6 589.07 270.99 586.71 271.63 579.93 272.6 577.03 272.28 574.02 266.69 570.69 265.61 568 262.71 564.67 261.1 562.19 258.09 559.07 256.69 557.25 253.25 554.67 250.99 553.59 248.41 551.76 246.37 551.55 244.22 550.04 242.28 551.33 240.89 551.44 238.95 552.84 238.95 554.13 237.45 556.06 238.31 559.18 235.4 561.65 237.12 564.45 237.34 567.25 239.38 570.47 240.35 572.3 244.86 575.74 246.26 578.21 249.27 581.54 251.1 583.59 254 586.81 256.15 591.97 258.95 594.55 261.31 594.88 263.36 596.6 265.4 596.06 267.23 597.03 269.27"/><polygon class="cls-11" points="591.87 291.52 592.19 292.06 592.83 293.46 591.54 294.32 591.65 295.82 588.43 297.11 587.14 299.16 583.26 302.92 578.86 304.96 573.05 306.68 569.61 308.83 564.99 309.8 561.12 311.74 556.49 312.49 552.84 314.32 548.54 314.53 544.56 315.71 541.55 315.61 538.32 316.36 536.28 315.82 533.49 316.25 533.27 314.85 532.41 314.53 532.63 313.13 532.41 311.74 534.56 310.55 534.35 307.22 537.79 306.04 540.05 304.1 543.92 302.81 548.54 301.52 552.62 300.88 556.49 298.62 561.01 297.87 565.2 296.15 569.29 295.5 573.59 293.89 580.04 290.99 584.12 290.02 586.17 290.34 589.18 289.8 590.36 290.77 591.87 291.52"/></g><path id="darker" class="cls-4" d="M610.36,332.7h-109.45v-59.88s34.4,5.27,54.62,5.27,54.72-5.27,54.72-5.27l.11,59.88Z"/></g><g id="microbe-2"><rect class="cls-2" x="357.81" y="220.03" width="116.11" height="116.11"/><rect class="cls-1" x="361.15" y="223.36" width="109.34" height="109.34"/><rect class="cls-16" x="366.52" y="228.63" width="98.8" height="98.8"/><g id="microbes-2"><polygon class="cls-11" points="417.16 287.98 412.43 288.51 413.07 293.14 408.45 292.38 407.7 297.11 403.5 294.96 401.46 299.16 398.02 295.82 394.9 299.27 392.54 295.18 388.45 297.44 387.49 292.92 382.97 293.89 383.29 289.27 378.67 288.84 380.5 284.54 376.2 282.71 379.21 279.16 375.55 276.15 379.42 273.57 376.84 269.7 381.25 268.41 379.96 263.79 384.69 263.89 384.69 259.27 389.21 260.67 390.6 256.26 394.47 258.95 397.16 255.08 399.96 258.84 403.61 255.94 405.33 260.35 409.63 258.73 409.96 263.36 414.58 263.14 413.5 267.66 418.02 268.62 415.65 272.71 419.74 275.07 416.19 278.3 419.31 281.74 415.12 283.68 417.16 287.98"/><polygon class="cls-11" points="457.26 269.27 455.65 269.81 455.65 271.96 453.28 271.2 451.78 272.6 449.3 270.99 446.94 271.63 440.17 272.6 437.26 272.28 434.25 266.69 430.92 265.61 428.23 262.71 424.9 261.1 422.43 258.09 419.31 256.69 417.48 253.25 414.9 250.99 413.83 248.41 412 246.37 411.78 244.22 410.28 242.28 411.57 240.89 411.68 238.95 413.07 238.95 414.36 237.45 416.3 238.31 419.42 235.4 421.89 237.12 424.68 237.34 427.48 239.38 430.71 240.35 432.53 244.86 435.97 246.26 438.45 249.27 441.78 251.1 443.82 254 447.05 256.15 452.21 258.95 454.79 261.31 455.11 263.36 456.83 265.4 456.29 267.23 457.26 269.27"/><polygon class="cls-11" points="451.99 291.52 452.42 292.06 453.07 293.46 451.78 294.32 451.89 295.82 448.66 297.11 447.37 299.16 443.5 302.92 439.09 304.96 433.29 306.68 429.85 308.83 425.22 309.8 421.35 311.74 416.73 312.49 413.07 314.32 408.77 314.53 404.79 315.71 401.78 315.61 398.56 316.36 396.52 315.82 393.72 316.25 393.51 314.85 392.65 314.53 392.86 313.13 392.65 311.74 394.8 310.55 394.58 307.22 398.02 306.04 400.28 304.1 404.15 302.81 408.77 301.52 412.86 300.88 416.73 298.62 421.24 297.87 425.44 296.15 429.52 295.5 433.82 293.89 440.27 290.99 444.36 290.02 446.4 290.34 449.41 289.8 450.6 290.77 451.99 291.52"/></g><path id="darker-2" class="cls-4" d="M470.59,332.7h-109.45v-59.88s34.4,5.27,54.62,5.27,54.72-5.27,54.72-5.27l.11,59.88Z"/></g><g id="arrow"><path class="cls-5" d="M324.81,278.09l-56.98-26.34,6.88,13.65h-64.29s-1.94,6.13-1.94,12.15,1.94,10.75,1.94,10.75h65.58l-8.06,16.13,56.87-26.34h0Z"/><path class="cls-12" d="M279.76,285.93h-67.52c-.54-1.72-1.29-4.95-1.29-8.49,0-3.76,.86-7.63,1.4-9.78h66.23l-5.59-11.07,46.34,21.39-46.45,21.5,6.88-13.55h0Z"/><path class="cls-9" d="M284.7,282.92h-70.21c-.32-1.51-.54-3.33-.54-5.38,0-2.37,.43-4.73,.75-6.67h68.81l-3.87-7.74,32.36,14.94-32.36,14.94,5.05-10.11h0Z"/><path class="cls-8" d="M279.76,285.93h-67.52c-.54-1.72-1.29-4.95-1.29-8.49,0-3.76,.86-7.63,1.4-9.78h66.23l-5.59-11.07,46.34,21.39-46.45,21.5,6.88-13.55h0Z"/></g><g><path d="M88.92,303.57c-5.48,0-10.32-1.18-14.41-3.44s-7.2-5.59-9.35-9.89-3.23-9.14-3.23-14.62,1.08-10.21,3.23-14.62c2.15-4.41,5.27-7.63,9.35-9.89,4.09-2.26,8.92-3.44,14.41-3.44s10.21,1.18,14.41,3.44c4.09,2.26,7.2,5.59,9.35,9.89s3.23,9.14,3.23,14.62-1.08,10.32-3.23,14.62-5.27,7.63-9.35,9.89-8.92,3.44-14.41,3.44h0Zm0-7.31c5.16,0,8.92-2.04,11.4-6.24s3.76-8.92,3.76-14.3-1.29-10.21-3.76-14.3c-2.47-4.19-6.34-6.24-11.4-6.24s-8.92,2.04-11.5,6.24c-2.47,4.19-3.76,8.92-3.76,14.3s1.29,10.21,3.76,14.3,6.34,6.24,11.5,6.24h0Z"/><path d="M125.8,302.17v-53.11h19.89c4.09,0,7.2,.54,9.25,1.51,2.15,.97,3.76,2.58,5.05,4.62,1.18,2.04,1.83,4.41,1.83,6.99,0,3.12-.86,6.02-2.69,8.82-1.83,2.8-4.3,4.84-7.63,6.34l17.42,24.84h-13.44l-13.22-21.72h-6.02v21.72h-10.43Zm10.43-29.03h2.58c4.52,0,7.74-.97,9.46-3.01s2.58-4.19,2.58-6.77c0-2.15-.75-3.87-2.15-5.16s-4.3-1.94-8.6-1.94h-3.87v16.88h0Z"/></g></g><g><g id="plant"><rect class="cls-2" x="376.95" y="43.77" width="116.11" height="116.11"/><rect class="cls-15" x="380.28" y="47.1" width="109.34" height="109.34"/><rect class="cls-14" x="385.66" y="52.37" width="98.8" height="98.8"/><path id="leaf" class="cls-6" d="M435.01,76.77c-14.19,1.94-24.94,11.18-24.94,24.94,0,3.33,.65,6.67,1.83,9.57-2.58,1.83-6.45,4.09-8.28,4.73-3.23,1.08-9.78,.32-10.11,.97s1.83,6.45,2.58,6.67,6.67,.32,10.11-.97c2.37-.86,6.77-3.66,9.35-5.48,4.52,5.81,11.61,9.46,19.57,9.46,13.76,0,24.73-8.71,24.73-22.47,0-5.27,1.29-12.04,3.23-16.23,2.15-4.62,13.22-7.63,13.22-7.63-1.08-3.55-35.8-4.3-41.28-3.55h0Z"/><path id="darker-3" class="cls-3" d="M489.73,156.44h-109.45v-59.88s34.4,5.27,54.62,5.27,54.72-5.27,54.72-5.27l.11,59.88Z"/></g><g id="arrow-2"><path class="cls-5" d="M344.16,101.82l-56.98-26.34,6.88,13.65h-64.18s-1.94,6.13-1.94,12.15,1.94,10.75,1.94,10.75h65.47l-8.17,16.13,56.98-26.34h0Z"/><path class="cls-10" d="M299.11,109.67h-67.63c-.54-1.72-1.29-4.95-1.29-8.49,0-3.76,.86-7.63,1.4-9.78h66.23l-5.59-11.07,46.34,21.39-46.23,21.5,6.77-13.55h0Z"/><path class="cls-9" d="M304.06,106.66h-70.1c-.32-1.51-.54-3.33-.54-5.38,0-2.37,.43-4.73,.75-6.67h68.81l-3.98-7.74,32.36,14.94-32.36,14.94,5.05-10.11h0Z"/><path class="cls-8" d="M299.11,109.67h-67.63c-.54-1.72-1.29-4.95-1.29-8.49,0-3.76,.86-7.63,1.4-9.78h66.23l-5.59-11.07,46.34,21.39-46.23,21.5,6.77-13.55h0Z"/></g></g></g></svg>