<?xml version="1.0" encoding="UTF-8"?><svg id="Layer" xmlns="http://www.w3.org/2000/svg" xmlns:xlink="http://www.w3.org/1999/xlink" viewBox="0 0 721 379.91"><defs><style>.cls-1{fill:url(#linear-gradient-2);}.cls-2{fill:#fff;opacity:0;stroke:#1d1d1b;}.cls-2,.cls-3,.cls-4{stroke-miterlimit:10;}.cls-3{fill:#020303;stroke:#030404;stroke-width:1.9px;}.cls-5{fill:#f59c2c;}.cls-6{fill:url(#linear-gradient-5);}.cls-4{fill:none;stroke:#1f1f1d;stroke-width:4.28px;}.cls-7{fill:url(#linear-gradient-3);}.cls-8{fill:url(#linear-gradient);}.cls-9{fill:#010202;}.cls-10{fill:url(#linear-gradient-4);}</style><linearGradient id="linear-gradient" x1="548.4" y1="116.37" x2="548.4" y2="226.23" gradientTransform="translate(0 361.25) scale(1 -1)" gradientUnits="userSpaceOnUse"><stop offset=".16" stop-color="#823b14"/><stop offset=".18" stop-color="#995d1a"/><stop offset=".22" stop-color="#ae7d22"/><stop offset=".26" stop-color="#c39d25"/><stop offset=".3" stop-color="#d6b92e"/><stop offset=".35" stop-color="#e4cf36"/><stop offset=".41" stop-color="#efe036"/><stop offset=".48" stop-color="#f5e94d"/><stop offset=".58" stop-color="#f8eb53"/><stop offset=".86" stop-color="#f5ea52"/><stop offset="1" stop-color="#fcf4f9"/></linearGradient><linearGradient id="linear-gradient-2" x1="548.4" y1="232.03" x2="548.4" y2="64.19" gradientTransform="translate(0 361.25) scale(1 -1)" gradientUnits="userSpaceOnUse"><stop offset=".26" stop-color="#f5ea52"/><stop offset=".86" stop-color="#813a14"/></linearGradient><linearGradient id="linear-gradient-3" x1="548.5" y1="117.92" x2="548.5" y2="224.59" gradientTransform="translate(0 361.25) scale(1 -1)" gradientUnits="userSpaceOnUse"><stop offset=".16" stop-color="#813a14"/><stop offset=".17" stop-color="#8d481f"/><stop offset=".18" stop-color="#a36c3d"/><stop offset=".2" stop-color="#b78954"/><stop offset=".22" stop-color="#c7a468"/><stop offset=".24" stop-color="#d7bb7a"/><stop offset=".26" stop-color="#e2cc88"/><stop offset=".3" stop-color="#ead891"/><stop offset=".34" stop-color="#eede97"/><stop offset=".46" stop-color="#efe097"/><stop offset=".7" stop-color="#813a14"/><stop offset=".73" stop-color="#e6d234"/><stop offset=".74" stop-color="#ebda49"/><stop offset=".75" stop-color="#eede6d"/><stop offset=".77" stop-color="#f0e18a"/><stop offset=".79" stop-color="#f8ebab"/><stop offset=".8" stop-color="#f8edbf"/><stop offset=".83" stop-color="#faf0cf"/><stop offset=".85" stop-color="#fcf2da"/><stop offset=".89" stop-color="#fdf4e1"/><stop offset=".99" stop-color="#fdf5e3"/></linearGradient><linearGradient id="linear-gradient-4" x1="548.34" y1="208.91" x2="548.34" y2="44.29" gradientTransform="translate(0 361.25) scale(1 -1)" gradientUnits="userSpaceOnUse"><stop offset=".26" stop-color="#f5ea52"/><stop offset=".77" stop-color="#813a14"/></linearGradient><linearGradient id="linear-gradient-5" x1="257.62" y1="487.42" x2="257.62" y2="370.96" gradientTransform="translate(0 -239.18)" gradientUnits="userSpaceOnUse"><stop offset="0" stop-color="#b54924"/><stop offset="1" stop-color="#ffd765"/></linearGradient></defs><rect class="cls-2" x=".5" y=".5" width="720" height="378.91"/><g><g id="mln"><polygon id="obram_czarne" class="cls-3" points="507.75 131.67 490.11 149.42 490.11 230.6 507.75 248.24 589.04 248.24 606.57 230.6 606.57 149.42 589.04 131.67 507.75 131.67"/><polygon id="obram_zolte" class="cls-8" points="510.03 135.02 493.58 151.69 493.58 228.21 510.03 244.88 586.66 244.88 603.22 228.21 603.22 151.69 586.66 135.02 510.03 135.02"/><polygon id="tlo_wew" class="cls-1" points="511.22 136.65 495.09 152.77 495.09 227.13 511.22 243.26 585.58 243.26 601.7 227.13 601.7 152.77 585.58 136.65 511.22 136.65"/><path id="obram_skosne" class="cls-7" d="M594.02,210.46c-2.92,0-5.3-2.38-5.3-5.3v-30.41c0-2.92,2.38-5.3,5.3-5.3h7.58v-16.67l-16.02-16.13h-16.67v7.68c0,2.92-2.38,5.3-5.3,5.3h-30.41c-2.92,0-5.3-2.38-5.3-5.3v-7.68h-16.56l-16.13,16.13v16.67h7.58c2.92,0,5.3,2.38,5.3,5.3v30.41c0,2.92-2.38,5.3-5.3,5.3h-7.58v16.56l16.13,16.13h16.67v-7.68c0-2.92,2.38-5.3,5.3-5.3h30.41c2.92,0,5.3,2.38,5.3,5.3v7.68h16.67l16.13-16.13v-16.56h-7.79Z"/><path id="tlo_zew" class="cls-10" d="M593.69,212.3c-3.57,0-6.6-3.57-6.6-7.25v-30.2c0-3.57,2.92-7.25,6.6-7.25h6.17v-13.53l-15.69-15.59h-13.42v6.17c0,3.68-3.57,6.6-7.25,6.6h-30.2c-3.57,0-7.25-2.92-7.25-6.6v-6.17h-13.64l-15.59,15.59v13.53h6.17c3.57,0,6.6,3.57,6.6,7.25v30.2c0,3.57-2.92,7.25-6.6,7.25h-6.17v13.53l15.59,15.59h13.64v-6.17c0-3.57,3.57-6.6,7.25-6.6h30.09c3.57,0,7.25,2.92,7.25,6.6v6.17h13.53l15.59-15.59v-13.53h-6.06Z"/></g><path class="cls-9" d="M532.65,214.58v-8.23c5.41,2.06,9.96,3.14,13.64,3.14,3.14,0,5.74-.87,7.79-2.49s3.03-3.9,3.03-6.71c0-2.06-.54-3.9-1.62-5.63s-2.6-3.03-4.65-3.9-5.3-1.41-9.74-1.41h-3.36v-6.6h2.92c4.22,0,7.25-.32,9.09-1.19,1.84-.76,3.25-1.95,4.33-3.46s1.62-3.25,1.62-5.2c0-2.16-.76-4-2.27-5.41-1.52-1.41-3.79-2.06-7.04-2.06-4,0-8.33,1.08-12.88,3.14v-7.58c2.27-.76,4.11-1.3,5.52-1.62s2.92-.43,4.76-.65c1.84-.22,3.57-.22,5.2-.22,5.74,0,10.28,1.19,13.42,3.57s4.65,5.63,4.65,9.63c0,3.25-.97,6.06-3.03,8.33-2.06,2.27-5.09,4.11-9.2,5.41,3.57,.87,6.28,1.95,8.12,3.46,1.84,1.41,3.36,3.14,4.33,5.2s1.52,4.11,1.52,6.39c0,4.22-1.62,7.9-4.98,11.15-3.25,3.25-8.66,4.87-16.02,4.87-1.95,0-4-.11-6.17-.22-2.16-.22-5.2-.65-8.98-1.73h0Z"/><path d="M441.51,185.14v-10.82h10.93v10.93h-10.93v-.11Zm0,29.55v-10.82h10.93v10.93h-10.93v-.11Z"/><g><path class="cls-6" d="M362.94,248.24H155.56c-32.15,0-41.13-26.08-41.13-58.23h0c0-32.15,8.98-58.23,41.13-58.23h207.38c32.15,0,37.88,26.08,37.88,58.23h0c0,32.15-5.74,58.23-37.88,58.23h0Z"/><path class="cls-5" d="M359.8,239.36H159.34c-27.28,0-34.85-22.19-34.85-49.36h0c0-27.28,7.58-49.36,34.85-49.36h200.45c27.28,0,30.41,22.08,30.41,49.36h0c0,27.28-3.14,49.36-30.41,49.36Z"/><path class="cls-4" d="M362.94,248.24H155.56c-32.15,0-41.13-26.08-41.13-58.23h0c0-32.15,8.98-58.23,41.13-58.23h207.38c32.15,0,37.88,26.08,37.88,58.23h0c0,32.15-5.74,58.23-37.88,58.23h0Z"/><g><path class="cls-9" d="M165.41,182.21v-5.3c2.38,.97,4.22,1.62,5.41,1.84s2.27,.32,3.25,.32c1.73,0,3.14-.43,4-1.19s1.3-1.73,1.3-2.92c0-.87-.22-1.62-.76-2.27s-1.73-1.52-3.68-2.6l-2.06-1.08c-2.92-1.62-4.98-3.14-5.95-4.55-1.08-1.41-1.62-3.03-1.62-4.87,0-2.27,.87-4.33,2.6-5.95s4.33-2.49,7.58-2.49c2.49,0,5.3,.32,8.33,1.08v4.87c-3.14-1.19-5.63-1.73-7.58-1.73-1.52,0-2.71,.32-3.46,.97s-1.19,1.52-1.19,2.38c0,.76,.22,1.41,.76,1.95,.43,.65,1.62,1.52,3.57,2.6l2.16,1.19c3.36,1.95,5.52,3.57,6.49,4.87,.97,1.41,1.41,3.03,1.41,4.76,0,2.49-.97,4.65-2.81,6.39-1.95,1.84-4.98,2.71-9.09,2.71-2.6,0-5.41-.32-8.66-.97h0Z"/><path class="cls-9" d="M202.96,182.32c-1.52,.43-2.6,.65-3.46,.65-1.95,0-3.57-.32-4.65-.87s-1.95-1.3-2.49-2.27-.87-2.38-.87-4.33v-11.91h-2.6v-3.9h2.6v-3.79l6.06-.76v4.55h4.87v3.79h-4.87v11.15c0,1.62,.32,2.71,.87,3.36,.54,.54,1.41,.87,2.6,.87,.54,0,1.19-.11,1.84-.22l.11,3.68h0Z"/><path class="cls-9" d="M219.52,180.05c-.87,.87-1.62,1.52-2.27,1.84s-1.3,.65-2.06,.87-1.41,.32-2.27,.32c-2.06,0-3.68-.65-4.87-1.95s-1.84-2.81-1.84-4.65c0-2.27,.97-4.11,2.71-5.63s4.76-2.27,8.88-2.27h1.62v-2.06c0-1.41-.43-2.38-1.19-2.81-.76-.54-1.73-.76-2.92-.76-2.38,0-4.76,.65-7.14,2.06v-4.22c2.81-1.08,5.52-1.62,8.23-1.62,1.73,0,3.14,.22,4.55,.65s2.38,1.19,3.14,2.16c.76,.97,1.19,2.38,1.19,4.33v10.07c0,1.19,.22,1.95,.54,2.27s.76,.43,1.08,.43c.22,0,.54,0,.87-.11l.11,3.46c-1.3,.43-2.49,.54-3.46,.54-1.08,0-2.16-.22-2.92-.54-.87-.32-1.41-1.19-1.95-2.38h0Zm0-3.25v-4.65h-1.41c-1.95,0-3.46,.32-4.44,1.08s-1.52,1.62-1.52,2.71c0,.87,.32,1.62,.87,2.16s1.3,.87,2.06,.87,1.41-.22,2.16-.54,1.52-.97,2.27-1.62h0Z"/><path class="cls-9" d="M233.38,182.43v-22.73h6.06v4.33c1.08-1.73,2.27-3.03,3.68-3.68,1.3-.76,2.71-1.08,4.11-1.08,1.73,0,3.36,.54,4.65,1.73s1.95,2.92,1.95,5.41v16.02h-6.06v-14.5c0-1.3-.11-2.06-.32-2.49s-.54-.76-.97-.97-.87-.32-1.3-.32c-.87,0-1.73,.32-2.6,.87s-1.95,1.62-2.92,3.25v14.18h-6.28Z"/><path class="cls-9" d="M275.26,182.43v-4.33c-.76,1.62-1.73,2.81-3.03,3.57s-2.71,1.19-4.33,1.19c-2.71,0-4.87-.97-6.39-3.14-1.52-2.06-2.27-4.76-2.27-8.12,0-3.57,.87-6.49,2.49-8.88s4-3.57,7.04-3.57c.87,0,1.62,.11,2.27,.22,.65,.22,1.3,.43,1.95,.76,.65,.32,1.3,.97,2.16,1.73v-12.12h6.06v32.69h-5.95Zm0-16.78c-.87-.97-1.62-1.62-2.38-1.95s-1.52-.54-2.27-.54c-1.62,0-2.81,.76-3.68,2.38s-1.19,3.46-1.19,5.63,.32,3.79,1.08,5.09,1.84,1.95,3.25,1.95c.87,0,1.84-.32,2.71-.97s1.73-1.52,2.38-2.49l.11-9.09h0Z"/><path class="cls-9" d="M300.38,180.05c-.87,.87-1.62,1.52-2.27,1.84s-1.3,.65-2.06,.87-1.41,.32-2.27,.32c-2.06,0-3.68-.65-4.87-1.95s-1.84-2.81-1.84-4.65c0-2.27,.87-4.11,2.71-5.63s4.76-2.27,8.88-2.27h1.62v-2.06c0-1.41-.43-2.38-1.19-2.81-.76-.54-1.73-.76-2.92-.76-2.38,0-4.76,.65-7.14,2.06v-4.22c2.81-1.08,5.52-1.62,8.23-1.62,1.73,0,3.14,.22,4.55,.65s2.38,1.19,3.14,2.16,1.19,2.38,1.19,4.33v10.07c0,1.19,.22,1.95,.54,2.27s.76,.43,1.08,.43c.22,0,.54,0,.87-.11l.11,3.46c-1.3,.43-2.49,.54-3.46,.54-1.08,0-2.16-.22-2.92-.54-.87-.32-1.41-1.19-1.95-2.38h0Zm0-3.25v-4.65h-1.41c-1.95,0-3.46,.32-4.44,1.08s-1.52,1.62-1.52,2.71c0,.87,.32,1.62,.87,2.16s1.3,.87,2.06,.87,1.41-.22,2.16-.54,1.52-.97,2.27-1.62h0Z"/><path class="cls-9" d="M314.12,182.43v-22.73h6.17v4.33c.76-1.41,1.73-2.6,3.03-3.46s2.71-1.3,4.22-1.3c.32,0,.76,0,1.08,.11v5.41c-.87-.32-1.62-.43-2.38-.43-1.19,0-2.27,.32-3.36,.87s-1.84,1.52-2.6,2.81v14.4h-6.17Z"/><path class="cls-9" d="M347.46,182.43v-4.33c-.76,1.62-1.73,2.81-3.03,3.57s-2.71,1.19-4.33,1.19c-2.71,0-4.87-.97-6.39-3.14-1.52-2.06-2.27-4.76-2.27-8.12,0-3.57,.87-6.49,2.49-8.88,1.73-2.38,4-3.57,7.04-3.57,.87,0,1.62,.11,2.27,.22s1.3,.43,1.95,.76,1.3,.97,2.16,1.73v-12.12h6.17v32.69h-6.06Zm0-16.78c-.87-.97-1.62-1.62-2.38-1.95s-1.52-.54-2.27-.54c-1.62,0-2.81,.76-3.57,2.38s-1.19,3.46-1.19,5.63,.32,3.79,1.08,5.09,1.84,1.95,3.25,1.95c.87,0,1.84-.32,2.71-.97s1.73-1.52,2.38-2.49v-9.09h0Z"/></g><g><path class="cls-9" d="M178.29,232.54v-30.85h6.06v4.33c.76-1.62,1.73-2.81,3.03-3.57s2.71-1.19,4.33-1.19c2.71,0,4.87,1.08,6.39,3.14s2.27,4.76,2.27,8.12c0,3.57-.87,6.49-2.49,8.88-1.73,2.38-4,3.57-7.04,3.57-.76,0-1.52-.11-2.27-.22-.65-.22-1.3-.43-1.95-.76s-1.3-.97-2.16-1.73v10.5l-6.17-.22h0Zm6.17-14.07c.87,.97,1.62,1.62,2.38,1.95s1.52,.54,2.27,.54c1.62,0,2.81-.87,3.68-2.38,.76-1.62,1.19-3.46,1.19-5.52s-.43-3.9-1.08-5.09-1.84-1.84-3.25-1.84c-.87,0-1.73,.32-2.6,.97s-1.73,1.52-2.49,2.6l-.11,8.77h0Z"/><path class="cls-9" d="M206.32,224.43v-22.73h6.06v4.22c.76-1.41,1.73-2.6,3.03-3.46s2.71-1.3,4.22-1.3c.32,0,.76,0,1.08,.11v5.52c-.87-.32-1.62-.43-2.38-.43-1.19,0-2.27,.32-3.36,.87s-1.84,1.52-2.6,2.81v14.4h-6.06Z"/><path class="cls-9" d="M235.33,224.86c-2.49,0-4.55-.43-6.28-1.41s-3.14-2.38-4-4.22-1.41-3.9-1.41-6.17,.43-4.33,1.41-6.17,2.27-3.25,4-4.22,3.9-1.41,6.39-1.41,4.55,.43,6.39,1.41c1.73,.97,3.14,2.38,4,4.22s1.41,3.9,1.41,6.17-.43,4.33-1.41,6.17-2.27,3.25-4,4.22-4,1.41-6.49,1.41h0Zm0-3.79c1.73,0,3.03-.76,3.9-2.27s1.3-3.46,1.3-5.74-.43-4.22-1.3-5.74-2.16-2.27-3.9-2.27-3.03,.76-3.9,2.27c-.87,1.52-1.3,3.46-1.3,5.74s.43,4.22,1.3,5.74,2.16,2.27,3.9,2.27Z"/><path class="cls-9" d="M245.18,232.11v-4.11c1.73,.87,3.36,1.3,4.55,1.3,.87,0,1.62-.32,2.27-.87s.97-1.84,.97-4v-22.73h6.06v22.3c0,2.38-.32,4.22-.97,5.3-.65,1.19-1.62,2.06-2.81,2.71s-2.92,.97-5.09,.97c-1.3,.11-3.03-.22-4.98-.87h0Zm7.79-34.31v-5.09h6.06v5.09h-6.06Z"/><path class="cls-9" d="M285.22,223.67c-2.92,.87-5.63,1.3-8.23,1.3s-4.55-.43-6.49-1.41c-1.84-.87-3.25-2.38-4.22-4.33s-1.52-4.11-1.52-6.39,.43-4.11,1.3-5.84c.87-1.84,2.06-3.25,3.68-4.22s3.57-1.52,5.95-1.52c2.92,0,5.2,.87,6.93,2.81,1.73,1.84,2.6,5.3,2.6,10.28h-13.96c.11,1.52,.54,2.71,1.08,3.57s1.3,1.62,2.27,2.06,2.16,.76,3.79,.76c2.06,0,4.33-.43,6.93-1.41l-.11,4.33h0Zm-14.07-12.88h8.01c0-2.06-.32-3.57-1.08-4.44-.65-.87-1.62-1.3-2.71-1.3-1.19,0-2.16,.54-2.92,1.52s-1.19,2.38-1.3,4.22h0Z"/><path class="cls-9" d="M308.17,223.89c-2.49,.65-4.87,.97-7.04,.97-3.79,0-6.71-1.19-8.66-3.46-1.95-2.27-2.92-5.09-2.92-8.44s.97-6.39,3.03-8.55c2.06-2.16,5.09-3.36,8.98-3.36,1.84,0,3.9,.32,6.28,.87v4.44c-2.49-.87-4.44-1.19-5.84-1.19-2.06,0-3.57,.76-4.55,2.38s-1.41,3.36-1.41,5.3c0,1.52,.32,2.92,.87,4.11s1.3,2.27,2.38,2.81c.97,.65,2.16,.87,3.36,.87,1.84,0,3.68-.43,5.52-1.19v4.44h0Z"/><path class="cls-9" d="M325.81,224.32c-1.41,.43-2.6,.65-3.46,.65-1.95,0-3.57-.32-4.65-.87s-1.95-1.3-2.49-2.27-.87-2.38-.87-4.33v-11.91h-2.49v-3.79h2.49v-3.79l6.17-.76v4.55h4.87v3.79h-4.87v11.15c0,1.62,.32,2.71,.87,3.36s1.41,.87,2.49,.87c.54,0,1.19-.11,1.84-.22l.11,3.57h0Z"/><path class="cls-9" d="M330.68,223.67v-4.44c3.03,1.3,5.63,1.95,7.79,1.95,1.08,0,2.06-.22,2.71-.76s.97-1.08,.97-1.84c0-.65-.22-1.19-.76-1.62s-1.3-.87-2.38-1.3l-2.06-.87c-2.16-.87-3.68-1.84-4.76-2.81-.97-.97-1.52-2.38-1.52-4,0-1.95,.76-3.57,2.27-4.87s3.9-1.95,7.04-1.95c1.84,0,4,.22,6.6,.76v4.33c-2.49-.87-4.44-1.3-6.06-1.3-1.3,0-2.16,.22-2.81,.65s-.97,.97-.97,1.73c0,.54,.22,.97,.65,1.41,.43,.43,1.08,.87,2.16,1.19l1.84,.65c2.92,1.08,4.87,2.16,5.74,3.25s1.3,2.38,1.3,3.79c0,1.95-.87,3.57-2.49,5.09-1.62,1.41-4,2.16-7.14,2.16-2.6,0-5.3-.32-8.12-1.19h0Z"/></g></g></g></svg>