<?xml version="1.0" encoding="UTF-8"?><svg id="Layer" xmlns="http://www.w3.org/2000/svg" xmlns:xlink="http://www.w3.org/1999/xlink" viewBox="0 0 721 379.91"><defs><style>.cls-1{fill:url(#linear-gradient-2);}.cls-2{fill:#020303;}.cls-3{stroke-width:1.92px;}.cls-3,.cls-4,.cls-5,.cls-6,.cls-7,.cls-8,.cls-9,.cls-10,.cls-11{stroke-miterlimit:10;}.cls-3,.cls-4,.cls-8,.cls-9,.cls-10,.cls-11{stroke:#020303;}.cls-3,.cls-12,.cls-8,.cls-11{fill:none;}.cls-13{fill:url(#linear-gradient-6);}.cls-14{fill:#48ad38;}.cls-15{fill:#1f1f1e;}.cls-4{fill:url(#linear-gradient-9);}.cls-4,.cls-8,.cls-9,.cls-10{stroke-width:2.55px;}.cls-5{opacity:0;stroke:#1d1d1b;}.cls-5,.cls-6{fill:#fff;}.cls-6{stroke:#030304;stroke-width:.93px;}.cls-16{fill:url(#linear-gradient-12);}.cls-16,.cls-17,.cls-18,.cls-19,.cls-20,.cls-21{isolation:isolate;}.cls-16,.cls-18,.cls-20{opacity:.31;}.cls-17{fill:url(#Nowy_wzorek_3);opacity:.1;}.cls-18{fill:url(#linear-gradient-10);}.cls-19{opacity:.15;}.cls-19,.cls-21,.cls-22{fill:#030304;}.cls-23{fill:url(#radial-gradient);}.cls-7{fill:#0b572a;stroke:#1d4422;stroke-width:3.73px;}.cls-24{fill:url(#linear-gradient-5);}.cls-25{fill:url(#radial-gradient-2);}.cls-26{fill:url(#radial-gradient-3);}.cls-20{fill:url(#linear-gradient-8);}.cls-8{stroke-linecap:square;}.cls-21{opacity:.05;}.cls-27{fill:#7f358b;}.cls-28{fill:url(#linear-gradient-3);}.cls-29{fill:url(#linear-gradient);}.cls-9{fill:url(#linear-gradient-7);}.cls-30{fill:url(#linear-gradient-4);}.cls-10{fill:url(#linear-gradient-11);}.cls-11{stroke-width:3.83px;}.cls-31{fill:#010101;}</style><linearGradient id="linear-gradient" x1="429.82" y1="620.4" x2="72.85" y2="263.44" gradientTransform="translate(0 -252.64)" gradientUnits="userSpaceOnUse"><stop offset="0" stop-color="#9e9d9c"/><stop offset=".54" stop-color="#010202"/><stop offset="1" stop-color="#9e9d9c"/></linearGradient><linearGradient id="linear-gradient-2" x1="251.41" y1="593.15" x2="251.41" y2="290.72" gradientTransform="translate(0 -252.64)" gradientUnits="userSpaceOnUse"><stop offset="0" stop-color="#462c1b"/><stop offset="1" stop-color="#b18048"/></linearGradient><linearGradient id="linear-gradient-3" x1="251.35" y1="588.94" x2="251.35" y2="294.77" gradientTransform="translate(0 -252.64)" gradientUnits="userSpaceOnUse"><stop offset="0" stop-color="#946137"/><stop offset="1" stop-color="#805127"/></linearGradient><pattern id="Nowy_wzorek_3" x="0" y="0" width="19.7" height="21.7" patternTransform="translate(43.9 16649.47)" patternUnits="userSpaceOnUse" viewBox="0 0 19.7 21.7"><g><rect class="cls-12" width="19.7" height="21.7"/><g><rect class="cls-12" width="19.7" height="21.7"/><g><rect class="cls-12" width="19.7" height="21.7"/><g><rect class="cls-12" width="19.7" height="21.7"/><g><rect class="cls-12" width="19.7" height="21.7"/><path class="cls-15" d="M16.6,8.7c2.1,2.1,2.1,5.6,0,7.7l-1.2,1.2c-2.1,2.1-5.6,2.1-7.8,0L3.1,13c-2.1-2.1-2.1-5.6,0-7.7l1.2-1.2c2.1-2.1,5.6-2.1,7.7,0l4.6,4.6Z"/></g></g></g></g></g></pattern><linearGradient id="linear-gradient-4" x1="-516.09" y1="1238.55" x2="-438.51" y2="1161" gradientTransform="translate(-191.13 -1064.43) rotate(-45)" gradientUnits="userSpaceOnUse"><stop offset="0" stop-color="#1d1427"/><stop offset=".24" stop-color="#372348"/><stop offset=".49" stop-color="#573b6c"/><stop offset=".71" stop-color="#72508c"/><stop offset=".89" stop-color="#835ca0"/><stop offset="1" stop-color="#8963a7"/></linearGradient><linearGradient id="linear-gradient-5" x1="-676.16" y1="-652.73" x2="-598.61" y2="-575.17" gradientTransform="translate(245.68 -627.62) rotate(-45) scale(1 -1)" gradientUnits="userSpaceOnUse"><stop offset="0" stop-color="#0f6936"/><stop offset=".04" stop-color="#0f6c37"/><stop offset=".08" stop-color="#077739"/><stop offset=".13" stop-color="#108837"/><stop offset=".15" stop-color="#0a9039"/><stop offset=".35" stop-color="#36993d"/><stop offset=".76" stop-color="#5fb048"/><stop offset="1" stop-color="#6fb74b"/></linearGradient><linearGradient id="linear-gradient-6" x1="-581.76" y1="-747.14" x2="-504.2" y2="-669.56" xlink:href="#linear-gradient-5"/><linearGradient id="linear-gradient-7" x1="592.84" y1="118.03" x2="592.84" y2="228.23" gradientTransform="translate(0 363.09) scale(1 -1)" gradientUnits="userSpaceOnUse"><stop offset="0" stop-color="#951917"/><stop offset=".21" stop-color="#b13c1e"/><stop offset=".44" stop-color="#cb5e26"/><stop offset=".66" stop-color="#e17932"/><stop offset=".85" stop-color="#ee8c39"/><stop offset="1" stop-color="#f3923b"/></linearGradient><radialGradient id="radial-gradient" cx="592.9" cy="173.13" fx="592.9" fy="173.13" r="62.76" gradientTransform="translate(0 363.09) scale(1 -1)" gradientUnits="userSpaceOnUse"><stop offset="0" stop-color="#f3923b" stop-opacity=".5"/><stop offset="1" stop-color="#d23f16"/></radialGradient><linearGradient id="linear-gradient-8" x1="592.84" y1="118.03" x2="592.84" y2="188.24" gradientTransform="translate(0 363.09) scale(1 -1)" gradientUnits="userSpaceOnUse"><stop offset="0" stop-color="#1f1f1d"/><stop offset="1" stop-color="#3e3d3c"/></linearGradient><linearGradient id="linear-gradient-9" y1="242.03" y2="352.23" xlink:href="#linear-gradient-7"/><radialGradient id="radial-gradient-2" cy="297.13" fy="297.13" r="62.76" xlink:href="#radial-gradient"/><linearGradient id="linear-gradient-10" y1="242.03" y2="312.24" xlink:href="#linear-gradient-8"/><linearGradient id="linear-gradient-11" y1="-5.97" y2="104.23" xlink:href="#linear-gradient-7"/><radialGradient id="radial-gradient-3" cy="49.13" fy="49.13" r="62.76" xlink:href="#radial-gradient"/><linearGradient id="linear-gradient-12" y1="-5.97" y2="64.24" xlink:href="#linear-gradient-8"/></defs><rect class="cls-5" x=".5" y=".5" width="720" height="378.91"/><g><g id="prodBg"><rect id="external-border" class="cls-29" x="50.21" y="33.45" width="402.26" height="311.67"/><rect id="internal-border" class="cls-1" x="54.84" y="38.08" width="393.14" height="302.43"/><rect id="bg" class="cls-28" x="58.9" y="42.14" width="384.9" height="294.17"/><rect id="bgPattern" class="cls-17" x="58.9" y="42.14" width="384.9" height="294.17"/></g><path class="cls-31" d="M107.67,286.27v-24.36h-24.36v-10h24.36v-24.36h10v24.36h24.36v10h-24.36v24.36h-10Z"/><path class="cls-31" d="M149.4,128.23v-13.65h32.77v13.65h-32.77Z"/><g id="energy"><rect class="cls-22" x="261.55" y="63.24" width="116.38" height="116.38"/><rect class="cls-30" x="264.9" y="66.6" width="109.68" height="109.68"/><polygon class="cls-27" points="369.26 71.91 369.26 170.96 270.22 170.96 270.22 71.91 369.26 71.91"/><polygon class="cls-6" points="307.65 110.1 340.32 89.85 322.86 115.14 332.11 130.17 299.99 150.43 316.14 125.21 307.65 110.1"/><path id="darker" class="cls-19" d="M374.58,176.27h-109.68v-60.1s34.54,5.32,54.79,5.32,54.89-5.32,54.89-5.32v60.1h0Z"/></g><g id="plant"><rect class="cls-22" x="170.92" y="199.02" width="116.38" height="116.38"/><rect class="cls-24" x="174.27" y="202.37" width="109.68" height="109.68"/><rect class="cls-14" x="179.58" y="207.68" width="99.02" height="99.02"/><path id="leaf" class="cls-7" d="M229.06,232.14c-14.18,1.96-25.01,11.21-25.01,25.01,0,3.35,.65,6.62,1.86,9.62-2.62,1.76-6.45,4.11-8.31,4.76-3.27,1.11-9.8,.38-10.08,.93s1.86,6.45,2.62,6.73,6.73,.28,10.08-.93c2.42-.83,6.8-3.65,9.35-5.52,4.58,5.79,11.66,9.42,19.6,9.42,13.8,0,24.84-8.69,24.84-22.49,0-5.32,1.31-12.04,3.27-16.25,2.14-4.66,13.25-7.66,13.25-7.66-1.11-3.65-35.85-4.38-41.44-3.65l-.03,.03Z"/><path id="darker-2" class="cls-21" d="M283.94,312.05h-109.68v-60.1s34.54,5.32,54.79,5.32,54.89-5.32,54.89-5.32v60.1Z"/></g><path class="cls-31" d="M223.24,145.49v-13.12h-22.95v-7.38l22.54-28.67h8.99v28.67h5.74v7.38h-5.74v13.12h-8.59Zm-15.09-20.48h15.29v-19.27l-15.29,19.27Z"/><g id="plant-2"><rect class="cls-22" x="304.42" y="199.02" width="116.38" height="116.38"/><rect class="cls-13" x="307.77" y="202.37" width="109.68" height="109.68"/><rect class="cls-14" x="313.09" y="207.68" width="99.02" height="99.02"/><path id="leaf-2" class="cls-7" d="M362.56,232.14c-14.18,1.96-25.01,11.21-25.01,25.01,0,3.35,.65,6.62,1.86,9.62-2.62,1.76-6.45,4.11-8.31,4.76-3.27,1.11-9.8,.38-10.08,.93s1.86,6.45,2.62,6.73,6.73,.28,10.08-.93c2.42-.83,6.8-3.65,9.35-5.52,4.58,5.79,11.66,9.42,19.6,9.42,13.8,0,24.84-8.69,24.84-22.49,0-5.32,1.31-12.04,3.27-16.25,2.14-4.66,13.25-7.66,13.25-7.66-1.11-3.65-35.85-4.38-41.44-3.65l-.03,.03Z"/><path id="darker-3" class="cls-21" d="M417.45,312.05h-109.68v-60.1s34.54,5.32,54.79,5.32,54.89-5.32,54.89-5.32v60.1h0Z"/></g><g id="tr"><rect class="cls-9" x="514.88" y="134.86" width="155.91" height="110.2"/><rect class="cls-23" x="519.74" y="139.71" width="146.33" height="100.49"/><g id="logo"><g><circle class="cls-11" cx="592.9" cy="186.31" r="28.35"/><path class="cls-3" d="M592.9,157.97s14.68,6,14.68,28.35-14.68,28.35-14.68,28.35"/><path class="cls-3" d="M592.9,157.97s-14.68,6-14.68,28.35,14.68,28.35,14.68,28.35"/><line class="cls-3" x1="592.9" y1="157.97" x2="592.9" y2="214.66"/><line class="cls-3" x1="564.56" y1="186.31" x2="621.25" y2="186.31"/><path class="cls-3" d="M570.81,168.44s8.3,4.21,21.96,4.21,21.96-4.21,21.96-4.21"/><path class="cls-3" d="M570.81,204.57c0-.13,8.3-4.21,21.96-4.21s21.96,4.21,21.96,4.21"/><polygon class="cls-2" points="609.89 163.07 617.42 156.18 607.46 154.14 629.17 147.88 624.19 170.48 621.25 159.24 614.1 167.54 609.89 163.07"/><polyline class="cls-8" points="592.9 221.17 582.69 221.17 587.03 221.17 587.03 231.26"/><polyline class="cls-8" points="600.18 231.26 600.18 221.17 598.27 221.17 595.84 227.94 595.07 227.94 593.03 224.75 591.5 224.75 591.5 231.26"/><path class="cls-2" d="M583.45,227.56c0,1.53-3.83,3.83-5.36,3.83s-10.73,.64-10.73-.89,9.19-4.72,10.73-4.72c1.53,.13,5.36,.26,5.36,1.79Z"/><path class="cls-2" d="M578.86,224.11c-.89,.77-4.34-.51-5.11-1.4s-5.62-6.26-4.72-7.02,7.41,3.45,8.17,4.34c.77,.89,2.55,3.32,1.66,4.09Z"/><path class="cls-2" d="M572.09,225.9c-.26,1.15-3.58,2.43-4.85,2.17-1.15-.26-10.85-1.02-10.6-2.17s10.34-2.43,11.49-2.17c1.28,.26,4.21,1.02,3.96,2.17Z"/><path class="cls-2" d="M569.54,222.83c-1.15,.38-3.96-1.79-4.34-2.94s-4.85-9.83-3.83-10.22,7.41,7.53,7.92,8.68c.38,1.15,1.28,4.09,.26,4.47Z"/><path class="cls-2" d="M562.51,222.32c-.77,1.15-4.47,1.15-5.49,.51s-10.09-4.98-9.32-6.13,10.98,1.28,12,2.04c1.02,.64,3.58,2.43,2.81,3.58Z"/><path class="cls-2" d="M559.96,218.24c-1.28,0-3.06-2.94-3.06-4.09s-1.02-10.22,.26-10.22,4.34,9.19,4.34,10.34c-.13,1.02-.26,3.96-1.53,3.96Z"/><path class="cls-2" d="M553.19,210.45c-1.15-.26-2.3-3.45-2.04-4.6,.26-1.02,1.28-9.96,2.43-9.7,1.15,.26,2.04,9.7,1.79,10.73-.26,1.15-1.02,3.83-2.17,3.58Z"/><path class="cls-2" d="M553.83,215.43c-1.02,.77-4.47-.38-5.24-1.28-.77-1.02-7.92-7.79-6.9-8.56s9.7,4.72,10.47,5.62c.77,.89,2.55,3.45,1.66,4.21Z"/><path class="cls-2" d="M547.96,205.85c-1.02,.51-4.09-1.15-4.6-2.17s-6-8.68-4.85-9.32c1.02-.51,8.17,6.26,8.68,7.28,.51,1.02,1.79,3.58,.77,4.21Z"/><path class="cls-2" d="M548.59,202.15c-.89-.38-1.28-3.58-.89-4.6s2.81-9.83,3.7-9.45c.89,.38,.13,9.7-.26,10.73-.51,1.15-1.66,3.7-2.55,3.32Z"/><path class="cls-2" d="M544.64,196.15c-1.02,.26-3.19-2.3-3.45-3.58-.26-1.15-3.19-10.09-2.3-10.34,1.02-.26,5.62,8.43,5.87,9.58,.26,1.15,.89,4.21-.13,4.34Z"/><path class="cls-2" d="M546.42,192.19c-.89-.51-.77-3.45-.26-4.34s3.83-8.04,4.72-7.53-1.15,8.68-1.66,9.45c-.51,.89-1.92,2.94-2.81,2.43Z"/><path class="cls-2" d="M543.74,184.91c-1.02-.13-2.43-3.06-2.3-4.21s-.13-9.96,.89-9.96c1.02,.13,2.94,9.19,2.81,10.34s-.38,3.96-1.4,3.83Z"/><path class="cls-2" d="M546.3,181.97c-.64-.64,.38-3.58,1.15-4.21s6.38-7.02,7.02-6.26c.64,.64-3.96,8.17-4.72,8.81-.77,.64-2.81,2.43-3.45,1.66Z"/><path class="cls-2" d="M550.13,172.65c-.51-.64,.26-2.81,.89-3.45,.64-.51,5.11-5.62,5.62-4.98s-3.06,6.51-3.7,7.15c-.77,.38-2.3,1.79-2.81,1.28Z"/><path class="cls-2" d="M545.79,173.93c-.77-.26-1.28-3.32-1.02-4.34,.26-1.02,2.04-9.7,2.81-9.58,.77,.26,.38,9.32,.13,10.34-.13,1.28-1.02,3.96-1.92,3.58Z"/><path class="cls-2" d="M550.64,167.16c-1.02-.38-1.53-3.45-1.15-4.47,.38-1.02,2.43-9.32,3.45-8.94,1.02,.38,.51,9.32,.13,10.34-.38,.89-1.4,3.45-2.43,3.06Z"/><path class="cls-2" d="M602.35,227.17c0,1.53,3.83,3.83,5.36,3.83s10.73,.64,10.73-.89-9.19-4.72-10.73-4.72-5.36,.26-5.36,1.79Z"/><path class="cls-2" d="M606.95,223.73c.89,.77,4.34-.51,5.11-1.4s5.62-6.26,4.72-7.02c-.89-.77-7.41,3.45-8.17,4.34-.77,.89-2.55,3.32-1.66,4.09Z"/><path class="cls-2" d="M613.72,225.51c.26,1.15,3.58,2.43,4.85,2.17,1.15-.26,10.85-1.02,10.6-2.17-.26-1.15-10.34-2.43-11.49-2.17-1.28,.26-4.21,1.02-3.96,2.17Z"/><path class="cls-2" d="M616.27,222.45c1.15,.38,3.96-1.79,4.34-2.94s4.85-9.83,3.7-10.22-7.41,7.53-7.92,8.68c-.26,1.15-1.15,4.09-.13,4.47Z"/><path class="cls-2" d="M623.29,221.94c.77,1.15,4.47,1.15,5.49,.51s9.96-4.98,9.19-6.13c-.77-1.15-10.98,1.28-12,2.04-.89,.64-3.45,2.43-2.68,3.58Z"/><path class="cls-2" d="M625.85,217.85c1.28,0,3.06-2.94,3.06-4.09s1.02-10.22-.26-10.22-4.34,9.19-4.34,10.34c.13,1.15,.26,3.96,1.53,3.96Z"/><path class="cls-2" d="M632.61,210.06c1.15-.26,2.3-3.45,2.04-4.6-.26-1.02-1.28-9.96-2.43-9.7-1.15,.26-2.04,9.7-1.79,10.73,.26,1.15,1.02,3.83,2.17,3.58Z"/><path class="cls-2" d="M631.98,215.04c1.02,.77,4.47-.38,5.24-1.28,.77-1.02,7.92-7.79,6.9-8.56-1.02-.77-9.7,4.72-10.47,5.62-.77,1.02-2.55,3.45-1.66,4.21Z"/><path class="cls-2" d="M637.85,205.47c1.02,.51,4.09-1.15,4.6-2.17s6-8.68,4.85-9.32c-1.02-.51-8.17,6.26-8.68,7.28-.51,1.02-1.79,3.7-.77,4.21Z"/><path class="cls-2" d="M637.21,201.89c.89-.38,1.4-3.58,.89-4.6s-2.81-9.83-3.7-9.45c-.89,.38-.13,9.7,.26,10.73,.51,1.02,1.66,3.7,2.55,3.32Z"/><path class="cls-2" d="M641.17,195.76c1.02,.26,3.19-2.3,3.45-3.58,.26-1.15,3.32-10.09,2.3-10.34-1.02-.26-5.62,8.43-5.87,9.58-.26,1.28-.89,4.21,.13,4.34Z"/><path class="cls-2" d="M639.38,191.81c.89-.51,.89-3.45,.26-4.34-.51-.89-3.96-8.04-4.72-7.53s1.15,8.68,1.66,9.45c.51,.89,1.92,3.06,2.81,2.43Z"/><path class="cls-2" d="M642.06,184.53c1.02-.13,2.43-3.06,2.3-4.21-.13-1.15,.13-10.09-.89-9.96-1.02,.13-2.94,9.19-2.81,10.34,0,1.15,.38,3.96,1.4,3.83Z"/><path class="cls-2" d="M639.51,181.59c.64-.64-.38-3.58-1.15-4.21s-6.38-7.02-7.02-6.26c-.64,.64,3.96,8.17,4.72,8.81,.77,.64,2.81,2.43,3.45,1.66Z"/><path class="cls-2" d="M635.68,172.27c.51-.64-.26-2.81-.89-3.45s-5.11-5.62-5.62-4.98,3.06,6.51,3.7,7.15c.64,.51,2.3,1.79,2.81,1.28Z"/><path class="cls-2" d="M639.89,173.67c.77-.26,1.28-3.32,1.02-4.34-.26-1.02-2.04-9.7-2.81-9.58-.77,.26-.38,9.32-.13,10.34,.26,1.15,1.15,3.83,1.92,3.58Z"/><path class="cls-2" d="M635.17,166.78c1.02-.38,1.53-3.45,1.15-4.47-.38-1.02-2.43-9.32-3.45-8.94-1.02,.38-.51,9.32-.13,10.34,.38,.89,1.4,3.45,2.43,3.06Z"/></g></g><path id="darker-2" class="cls-20" d="M670.28,175.08c-2.43,4.85-43.54,12.77-77.38,12.77s-75.59-8.68-78.02-12.77v69.97h155.91v-69.21c-.13-.89-.38-1.28-.51-.77Z"/></g><g id="tr-2"><rect class="cls-4" x="514.88" y="10.86" width="155.91" height="110.2"/><rect class="cls-25" x="519.74" y="15.71" width="146.33" height="100.49"/><g id="logo-2"><g><circle class="cls-11" cx="592.9" cy="62.31" r="28.35"/><path class="cls-3" d="M592.9,33.97s14.68,6,14.68,28.35-14.68,28.35-14.68,28.35"/><path class="cls-3" d="M592.9,33.97s-14.68,6-14.68,28.35,14.68,28.35,14.68,28.35"/><line class="cls-3" x1="592.9" y1="33.97" x2="592.9" y2="90.66"/><line class="cls-3" x1="564.56" y1="62.31" x2="621.25" y2="62.31"/><path class="cls-3" d="M570.81,44.44s8.3,4.21,21.96,4.21,21.96-4.21,21.96-4.21"/><path class="cls-3" d="M570.81,80.57c0-.13,8.3-4.21,21.96-4.21s21.96,4.21,21.96,4.21"/><polygon class="cls-2" points="609.89 39.07 617.42 32.18 607.46 30.14 629.17 23.88 624.19 46.48 621.25 35.24 614.1 43.54 609.89 39.07"/><polyline class="cls-8" points="592.9 97.17 582.69 97.17 587.03 97.17 587.03 107.26"/><polyline class="cls-8" points="600.18 107.26 600.18 97.17 598.27 97.17 595.84 103.94 595.07 103.94 593.03 100.75 591.5 100.75 591.5 107.26"/><path class="cls-2" d="M583.45,103.56c0,1.53-3.83,3.83-5.36,3.83s-10.73,.64-10.73-.89,9.19-4.72,10.73-4.72c1.53,.13,5.36,.26,5.36,1.79Z"/><path class="cls-2" d="M578.86,100.11c-.89,.77-4.34-.51-5.11-1.4s-5.62-6.26-4.72-7.02,7.41,3.45,8.17,4.34c.77,.89,2.55,3.32,1.66,4.09Z"/><path class="cls-2" d="M572.09,101.9c-.26,1.15-3.58,2.43-4.85,2.17-1.15-.26-10.85-1.02-10.6-2.17s10.34-2.43,11.49-2.17c1.28,.26,4.21,1.02,3.96,2.17Z"/><path class="cls-2" d="M569.54,98.83c-1.15,.38-3.96-1.79-4.34-2.94s-4.85-9.83-3.83-10.22,7.41,7.53,7.92,8.68c.38,1.15,1.28,4.09,.26,4.47Z"/><path class="cls-2" d="M562.51,98.32c-.77,1.15-4.47,1.15-5.49,.51s-10.09-4.98-9.32-6.13,10.98,1.28,12,2.04c1.02,.64,3.58,2.43,2.81,3.58Z"/><path class="cls-2" d="M559.96,94.24c-1.28,0-3.06-2.94-3.06-4.09s-1.02-10.22,.26-10.22,4.34,9.19,4.34,10.34c-.13,1.02-.26,3.96-1.53,3.96Z"/><path class="cls-2" d="M553.19,86.45c-1.15-.26-2.3-3.45-2.04-4.6,.26-1.02,1.28-9.96,2.43-9.7,1.15,.26,2.04,9.7,1.79,10.73-.26,1.15-1.02,3.83-2.17,3.58Z"/><path class="cls-2" d="M553.83,91.43c-1.02,.77-4.47-.38-5.24-1.28-.77-1.02-7.92-7.79-6.9-8.56s9.7,4.72,10.47,5.62c.77,.89,2.55,3.45,1.66,4.21Z"/><path class="cls-2" d="M547.96,81.85c-1.02,.51-4.09-1.15-4.6-2.17s-6-8.68-4.85-9.32c1.02-.51,8.17,6.26,8.68,7.28,.51,1.02,1.79,3.58,.77,4.21Z"/><path class="cls-2" d="M548.59,78.15c-.89-.38-1.28-3.58-.89-4.6s2.81-9.83,3.7-9.45c.89,.38,.13,9.7-.26,10.73-.51,1.15-1.66,3.7-2.55,3.32Z"/><path class="cls-2" d="M544.64,72.15c-1.02,.26-3.19-2.3-3.45-3.58-.26-1.15-3.19-10.09-2.3-10.34,1.02-.26,5.62,8.43,5.87,9.58,.26,1.15,.89,4.21-.13,4.34Z"/><path class="cls-2" d="M546.42,68.19c-.89-.51-.77-3.45-.26-4.34s3.83-8.04,4.72-7.53-1.15,8.68-1.66,9.45c-.51,.89-1.92,2.94-2.81,2.43Z"/><path class="cls-2" d="M543.74,60.91c-1.02-.13-2.43-3.06-2.3-4.21s-.13-9.96,.89-9.96c1.02,.13,2.94,9.19,2.81,10.34s-.38,3.96-1.4,3.83Z"/><path class="cls-2" d="M546.3,57.97c-.64-.64,.38-3.58,1.15-4.21s6.38-7.02,7.02-6.26c.64,.64-3.96,8.17-4.72,8.81-.77,.64-2.81,2.43-3.45,1.66Z"/><path class="cls-2" d="M550.13,48.65c-.51-.64,.26-2.81,.89-3.45,.64-.51,5.11-5.62,5.62-4.98s-3.06,6.51-3.7,7.15c-.77,.38-2.3,1.79-2.81,1.28Z"/><path class="cls-2" d="M545.79,49.93c-.77-.26-1.28-3.32-1.02-4.34,.26-1.02,2.04-9.7,2.81-9.58,.77,.26,.38,9.32,.13,10.34-.13,1.28-1.02,3.96-1.92,3.58Z"/><path class="cls-2" d="M550.64,43.16c-1.02-.38-1.53-3.45-1.15-4.47,.38-1.02,2.43-9.32,3.45-8.94,1.02,.38,.51,9.32,.13,10.34-.38,.89-1.4,3.45-2.43,3.06Z"/><path class="cls-2" d="M602.35,103.17c0,1.53,3.83,3.83,5.36,3.83s10.73,.64,10.73-.89-9.19-4.72-10.73-4.72-5.36,.26-5.36,1.79Z"/><path class="cls-2" d="M606.95,99.73c.89,.77,4.34-.51,5.11-1.4s5.62-6.26,4.72-7.02c-.89-.77-7.41,3.45-8.17,4.34-.77,.89-2.55,3.32-1.66,4.09Z"/><path class="cls-2" d="M613.72,101.51c.26,1.15,3.58,2.43,4.85,2.17,1.15-.26,10.85-1.02,10.6-2.17-.26-1.15-10.34-2.43-11.49-2.17-1.28,.26-4.21,1.02-3.96,2.17Z"/><path class="cls-2" d="M616.27,98.45c1.15,.38,3.96-1.79,4.34-2.94s4.85-9.83,3.7-10.22-7.41,7.53-7.92,8.68c-.26,1.15-1.15,4.09-.13,4.47Z"/><path class="cls-2" d="M623.29,97.94c.77,1.15,4.47,1.15,5.49,.51s9.96-4.98,9.19-6.13c-.77-1.15-10.98,1.28-12,2.04-.89,.64-3.45,2.43-2.68,3.58Z"/><path class="cls-2" d="M625.85,93.85c1.28,0,3.06-2.94,3.06-4.09s1.02-10.22-.26-10.22-4.34,9.19-4.34,10.34c.13,1.15,.26,3.96,1.53,3.96Z"/><path class="cls-2" d="M632.61,86.06c1.15-.26,2.3-3.45,2.04-4.6-.26-1.02-1.28-9.96-2.43-9.7-1.15,.26-2.04,9.7-1.79,10.73,.26,1.15,1.02,3.83,2.17,3.58Z"/><path class="cls-2" d="M631.98,91.04c1.02,.77,4.47-.38,5.24-1.28,.77-1.02,7.92-7.79,6.9-8.56-1.02-.77-9.7,4.72-10.47,5.62-.77,1.02-2.55,3.45-1.66,4.21Z"/><path class="cls-2" d="M637.85,81.47c1.02,.51,4.09-1.15,4.6-2.17s6-8.68,4.85-9.32c-1.02-.51-8.17,6.26-8.68,7.28-.51,1.02-1.79,3.7-.77,4.21Z"/><path class="cls-2" d="M637.21,77.89c.89-.38,1.4-3.58,.89-4.6s-2.81-9.83-3.7-9.45c-.89,.38-.13,9.7,.26,10.73,.51,1.02,1.66,3.7,2.55,3.32Z"/><path class="cls-2" d="M641.17,71.76c1.02,.26,3.19-2.3,3.45-3.58,.26-1.15,3.32-10.09,2.3-10.34-1.02-.26-5.62,8.43-5.87,9.58-.26,1.28-.89,4.21,.13,4.34Z"/><path class="cls-2" d="M639.38,67.81c.89-.51,.89-3.45,.26-4.34-.51-.89-3.96-8.04-4.72-7.53s1.15,8.68,1.66,9.45c.51,.89,1.92,3.06,2.81,2.43Z"/><path class="cls-2" d="M642.06,60.53c1.02-.13,2.43-3.06,2.3-4.21-.13-1.15,.13-10.09-.89-9.96-1.02,.13-2.94,9.19-2.81,10.34,0,1.15,.38,3.96,1.4,3.83Z"/><path class="cls-2" d="M639.51,57.59c.64-.64-.38-3.58-1.15-4.21s-6.38-7.02-7.02-6.26c-.64,.64,3.96,8.17,4.72,8.81,.77,.64,2.81,2.43,3.45,1.66Z"/><path class="cls-2" d="M635.68,48.27c.51-.64-.26-2.81-.89-3.45s-5.11-5.62-5.62-4.98,3.06,6.51,3.7,7.15c.64,.51,2.3,1.79,2.81,1.28Z"/><path class="cls-2" d="M639.89,49.67c.77-.26,1.28-3.32,1.02-4.34-.26-1.02-2.04-9.7-2.81-9.58-.77,.26-.38,9.32-.13,10.34,.26,1.15,1.15,3.83,1.92,3.58Z"/><path class="cls-2" d="M635.17,42.78c1.02-.38,1.53-3.45,1.15-4.47-.38-1.02-2.43-9.32-3.45-8.94-1.02,.38-.51,9.32-.13,10.34,.38,.89,1.4,3.45,2.43,3.06Z"/></g></g><path id="darker-3" class="cls-18" d="M670.28,51.08c-2.43,4.85-43.54,12.77-77.38,12.77s-75.59-8.68-78.02-12.77V121.05h155.91V51.84c-.13-.89-.38-1.28-.51-.77Z"/></g><g id="tr-3"><rect class="cls-10" x="514.88" y="258.86" width="155.91" height="110.2"/><rect class="cls-26" x="519.74" y="263.71" width="146.33" height="100.49"/><g id="logo-3"><g><circle class="cls-11" cx="592.9" cy="310.31" r="28.35"/><path class="cls-3" d="M592.9,281.97s14.68,6,14.68,28.35-14.68,28.35-14.68,28.35"/><path class="cls-3" d="M592.9,281.97s-14.68,6-14.68,28.35,14.68,28.35,14.68,28.35"/><line class="cls-3" x1="592.9" y1="281.97" x2="592.9" y2="338.66"/><line class="cls-3" x1="564.56" y1="310.31" x2="621.25" y2="310.31"/><path class="cls-3" d="M570.81,292.44s8.3,4.21,21.96,4.21,21.96-4.21,21.96-4.21"/><path class="cls-3" d="M570.81,328.57c0-.13,8.3-4.21,21.96-4.21s21.96,4.21,21.96,4.21"/><polygon class="cls-2" points="609.89 287.07 617.42 280.18 607.46 278.14 629.17 271.88 624.19 294.48 621.25 283.24 614.1 291.54 609.89 287.07"/><polyline class="cls-8" points="592.9 345.17 582.69 345.17 587.03 345.17 587.03 355.26"/><polyline class="cls-8" points="600.18 355.26 600.18 345.17 598.27 345.17 595.84 351.94 595.07 351.94 593.03 348.75 591.5 348.75 591.5 355.26"/><path class="cls-2" d="M583.45,351.56c0,1.53-3.83,3.83-5.36,3.83s-10.73,.64-10.73-.89,9.19-4.72,10.73-4.72c1.53,.13,5.36,.26,5.36,1.79Z"/><path class="cls-2" d="M578.86,348.11c-.89,.77-4.34-.51-5.11-1.4s-5.62-6.26-4.72-7.02,7.41,3.45,8.17,4.34c.77,.89,2.55,3.32,1.66,4.09Z"/><path class="cls-2" d="M572.09,349.9c-.26,1.15-3.58,2.43-4.85,2.17-1.15-.26-10.85-1.02-10.6-2.17s10.34-2.43,11.49-2.17c1.28,.26,4.21,1.02,3.96,2.17Z"/><path class="cls-2" d="M569.54,346.83c-1.15,.38-3.96-1.79-4.34-2.94s-4.85-9.83-3.83-10.22,7.41,7.53,7.92,8.68c.38,1.15,1.28,4.09,.26,4.47Z"/><path class="cls-2" d="M562.51,346.32c-.77,1.15-4.47,1.15-5.49,.51s-10.09-4.98-9.32-6.13,10.98,1.28,12,2.04c1.02,.64,3.58,2.43,2.81,3.58Z"/><path class="cls-2" d="M559.96,342.24c-1.28,0-3.06-2.94-3.06-4.09s-1.02-10.22,.26-10.22,4.34,9.19,4.34,10.34c-.13,1.02-.26,3.96-1.53,3.96Z"/><path class="cls-2" d="M553.19,334.45c-1.15-.26-2.3-3.45-2.04-4.6,.26-1.02,1.28-9.96,2.43-9.7,1.15,.26,2.04,9.7,1.79,10.73-.26,1.15-1.02,3.83-2.17,3.58Z"/><path class="cls-2" d="M553.83,339.43c-1.02,.77-4.47-.38-5.24-1.28-.77-1.02-7.92-7.79-6.9-8.56s9.7,4.72,10.47,5.62c.77,.89,2.55,3.45,1.66,4.21Z"/><path class="cls-2" d="M547.96,329.85c-1.02,.51-4.09-1.15-4.6-2.17s-6-8.68-4.85-9.32c1.02-.51,8.17,6.26,8.68,7.28,.51,1.02,1.79,3.58,.77,4.21Z"/><path class="cls-2" d="M548.59,326.15c-.89-.38-1.28-3.58-.89-4.6s2.81-9.83,3.7-9.45c.89,.38,.13,9.7-.26,10.73-.51,1.15-1.66,3.7-2.55,3.32Z"/><path class="cls-2" d="M544.64,320.15c-1.02,.26-3.19-2.3-3.45-3.58-.26-1.15-3.19-10.09-2.3-10.34,1.02-.26,5.62,8.43,5.87,9.58,.26,1.15,.89,4.21-.13,4.34Z"/><path class="cls-2" d="M546.42,316.19c-.89-.51-.77-3.45-.26-4.34s3.83-8.04,4.72-7.53-1.15,8.68-1.66,9.45c-.51,.89-1.92,2.94-2.81,2.43Z"/><path class="cls-2" d="M543.74,308.91c-1.02-.13-2.43-3.06-2.3-4.21s-.13-9.96,.89-9.96c1.02,.13,2.94,9.19,2.81,10.34s-.38,3.96-1.4,3.83Z"/><path class="cls-2" d="M546.3,305.97c-.64-.64,.38-3.58,1.15-4.21s6.38-7.02,7.02-6.26c.64,.64-3.96,8.17-4.72,8.81-.77,.64-2.81,2.43-3.45,1.66Z"/><path class="cls-2" d="M550.13,296.65c-.51-.64,.26-2.81,.89-3.45,.64-.51,5.11-5.62,5.62-4.98s-3.06,6.51-3.7,7.15c-.77,.38-2.3,1.79-2.81,1.28Z"/><path class="cls-2" d="M545.79,297.93c-.77-.26-1.28-3.32-1.02-4.34,.26-1.02,2.04-9.7,2.81-9.58,.77,.26,.38,9.32,.13,10.34-.13,1.28-1.02,3.96-1.92,3.58Z"/><path class="cls-2" d="M550.64,291.16c-1.02-.38-1.53-3.45-1.15-4.47,.38-1.02,2.43-9.32,3.45-8.94,1.02,.38,.51,9.32,.13,10.34-.38,.89-1.4,3.45-2.43,3.06Z"/><path class="cls-2" d="M602.35,351.17c0,1.53,3.83,3.83,5.36,3.83s10.73,.64,10.73-.89-9.19-4.72-10.73-4.72-5.36,.26-5.36,1.79Z"/><path class="cls-2" d="M606.95,347.73c.89,.77,4.34-.51,5.11-1.4s5.62-6.26,4.72-7.02c-.89-.77-7.41,3.45-8.17,4.34-.77,.89-2.55,3.32-1.66,4.09Z"/><path class="cls-2" d="M613.72,349.51c.26,1.15,3.58,2.43,4.85,2.17,1.15-.26,10.85-1.02,10.6-2.17-.26-1.15-10.34-2.43-11.49-2.17-1.28,.26-4.21,1.02-3.96,2.17Z"/><path class="cls-2" d="M616.27,346.45c1.15,.38,3.96-1.79,4.34-2.94s4.85-9.83,3.7-10.22-7.41,7.53-7.92,8.68c-.26,1.15-1.15,4.09-.13,4.47Z"/><path class="cls-2" d="M623.29,345.94c.77,1.15,4.47,1.15,5.49,.51s9.96-4.98,9.19-6.13c-.77-1.15-10.98,1.28-12,2.04-.89,.64-3.45,2.43-2.68,3.58Z"/><path class="cls-2" d="M625.85,341.85c1.28,0,3.06-2.94,3.06-4.09s1.02-10.22-.26-10.22-4.34,9.19-4.34,10.34c.13,1.15,.26,3.96,1.53,3.96Z"/><path class="cls-2" d="M632.61,334.06c1.15-.26,2.3-3.45,2.04-4.6-.26-1.02-1.28-9.96-2.43-9.7-1.15,.26-2.04,9.7-1.79,10.73,.26,1.15,1.02,3.83,2.17,3.58Z"/><path class="cls-2" d="M631.98,339.04c1.02,.77,4.47-.38,5.24-1.28,.77-1.02,7.92-7.79,6.9-8.56-1.02-.77-9.7,4.72-10.47,5.62-.77,1.02-2.55,3.45-1.66,4.21Z"/><path class="cls-2" d="M637.85,329.47c1.02,.51,4.09-1.15,4.6-2.17s6-8.68,4.85-9.32c-1.02-.51-8.17,6.26-8.68,7.28-.51,1.02-1.79,3.7-.77,4.21Z"/><path class="cls-2" d="M637.21,325.89c.89-.38,1.4-3.58,.89-4.6s-2.81-9.83-3.7-9.45c-.89,.38-.13,9.7,.26,10.73,.51,1.02,1.66,3.7,2.55,3.32Z"/><path class="cls-2" d="M641.17,319.76c1.02,.26,3.19-2.3,3.45-3.58,.26-1.15,3.32-10.09,2.3-10.34-1.02-.26-5.62,8.43-5.87,9.58-.26,1.28-.89,4.21,.13,4.34Z"/><path class="cls-2" d="M639.38,315.81c.89-.51,.89-3.45,.26-4.34-.51-.89-3.96-8.04-4.72-7.53s1.15,8.68,1.66,9.45c.51,.89,1.92,3.06,2.81,2.43Z"/><path class="cls-2" d="M642.06,308.53c1.02-.13,2.43-3.06,2.3-4.21-.13-1.15,.13-10.09-.89-9.96-1.02,.13-2.94,9.19-2.81,10.34,0,1.15,.38,3.96,1.4,3.83Z"/><path class="cls-2" d="M639.51,305.59c.64-.64-.38-3.58-1.15-4.21s-6.38-7.02-7.02-6.26c-.64,.64,3.96,8.17,4.72,8.81,.77,.64,2.81,2.43,3.45,1.66Z"/><path class="cls-2" d="M635.68,296.27c.51-.64-.26-2.81-.89-3.45s-5.11-5.62-5.62-4.98,3.06,6.51,3.7,7.15c.64,.51,2.3,1.79,2.81,1.28Z"/><path class="cls-2" d="M639.89,297.67c.77-.26,1.28-3.32,1.02-4.34-.26-1.02-2.04-9.7-2.81-9.58-.77,.26-.38,9.32-.13,10.34,.26,1.15,1.15,3.83,1.92,3.58Z"/><path class="cls-2" d="M635.17,290.78c1.02-.38,1.53-3.45,1.15-4.47-.38-1.02-2.43-9.32-3.45-8.94-1.02,.38-.51,9.32-.13,10.34,.38,.89,1.4,3.45,2.43,3.06Z"/></g></g><path id="darker-4" class="cls-16" d="M670.28,299.08c-2.43,4.85-43.54,12.77-77.38,12.77s-75.59-8.68-78.02-12.77v69.97h155.91v-69.21c-.13-.89-.38-1.28-.51-.77Z"/></g></g></svg>