<?xml version="1.0" encoding="UTF-8"?><svg id="Layer" xmlns="http://www.w3.org/2000/svg" xmlns:xlink="http://www.w3.org/1999/xlink" viewBox="0 0 720 378.91"><defs><style>.cls-1{fill:url(#linear-gradient);}.cls-1,.cls-2,.cls-3,.cls-4,.cls-5{isolation:isolate;}.cls-1,.cls-2,.cls-4{opacity:.4;}.cls-6{fill:url(#linear-gradient-2);}.cls-7{fill:none;stroke:#ffd80c;stroke-width:3.84px;}.cls-7,.cls-8{stroke-miterlimit:10;}.cls-9,.cls-3,.cls-5{fill:#020303;}.cls-10{fill:#332116;}.cls-11{fill:rgba(255,255,255,0);}.cls-12{fill:url(#linear-gradient-6);}.cls-13{fill:#946137;}.cls-2{fill:url(#linear-gradient-4);}.cls-14{fill:url(#linear-gradient-11);}.cls-3{opacity:.15;}.cls-4{fill:url(#linear-gradient-7);}.cls-15{fill:url(#linear-gradient-10);}.cls-5{opacity:.64;}.cls-16{fill:url(#linear-gradient-5);}.cls-17{fill:#50504f;}.cls-18{fill:url(#linear-gradient-9);}.cls-19{fill:url(#linear-gradient-3);}.cls-8{fill:#010101;stroke:#020303;stroke-width:1.57px;}.cls-20{fill:url(#linear-gradient-8);}.cls-21{fill:url(#linear-gradient-12);}</style><linearGradient id="linear-gradient" x1="123.16" y1="-103.55" x2="123.16" y2="9.69" gradientTransform="translate(0 142.45) scale(1 -1)" gradientUnits="userSpaceOnUse"><stop offset="0" stop-color="#ffdc15"/><stop offset="0" stop-color="#ffdb16"/><stop offset=".05" stop-color="#f9bb24"/><stop offset=".1" stop-color="#f59d1e"/><stop offset=".16" stop-color="#ef7c1e"/><stop offset=".22" stop-color="#e86312"/><stop offset=".27" stop-color="#e94c21"/><stop offset=".34" stop-color="#e63b23"/><stop offset=".41" stop-color="#e63624"/><stop offset=".5" stop-color="#e63324"/><stop offset=".59" stop-color="#e63624"/><stop offset=".66" stop-color="#e63b23"/><stop offset=".73" stop-color="#e94c21"/><stop offset=".78" stop-color="#e86312"/><stop offset=".84" stop-color="#ef7c1e"/><stop offset=".9" stop-color="#f59d1e"/><stop offset=".95" stop-color="#f9bb24"/><stop offset="1" stop-color="#ffdb16"/><stop offset="1" stop-color="#ffdc15"/></linearGradient><linearGradient id="linear-gradient-2" x1="123.17" y1="-100.6" x2="123.17" y2="6.73" gradientTransform="translate(0 142.45) scale(1 -1)" gradientUnits="userSpaceOnUse"><stop offset="0" stop-color="#ffdc15"/><stop offset="0" stop-color="#ffdb16"/><stop offset=".05" stop-color="#f9bb24"/><stop offset=".1" stop-color="#f59d1e"/><stop offset=".16" stop-color="#ef7c1e"/><stop offset=".22" stop-color="#e86312"/><stop offset=".27" stop-color="#e94c21"/><stop offset=".34" stop-color="#e63b23"/><stop offset=".41" stop-color="#e63624"/><stop offset=".5" stop-color="#e63324"/><stop offset=".59" stop-color="#e63624"/><stop offset=".66" stop-color="#e63b23"/><stop offset=".73" stop-color="#e94c21"/><stop offset=".78" stop-color="#e86312"/><stop offset=".84" stop-color="#ef7c1e"/><stop offset=".9" stop-color="#f59d1e"/><stop offset=".95" stop-color="#f9bb24"/><stop offset="1" stop-color="#ffdb16"/><stop offset="1" stop-color="#ffdc15"/></linearGradient><linearGradient id="linear-gradient-3" x1="-696.63" y1="902.3" x2="-632.87" y2="838.54" gradientTransform="translate(-22.27 -896.14) rotate(-45)" gradientUnits="userSpaceOnUse"><stop offset="0" stop-color="#020303"/><stop offset="1" stop-color="#797879"/></linearGradient><linearGradient id="linear-gradient-4" x1="402.27" y1="-103.55" x2="402.27" y2="9.69" gradientTransform="translate(0 142.45) scale(1 -1)" gradientUnits="userSpaceOnUse"><stop offset="0" stop-color="#ffdc15"/><stop offset="0" stop-color="#ffdb16"/><stop offset=".05" stop-color="#f9bb24"/><stop offset=".1" stop-color="#f59d1e"/><stop offset=".16" stop-color="#ef7c1e"/><stop offset=".22" stop-color="#e86312"/><stop offset=".27" stop-color="#e94c21"/><stop offset=".34" stop-color="#e63b23"/><stop offset=".41" stop-color="#e63624"/><stop offset=".5" stop-color="#e63324"/><stop offset=".59" stop-color="#e63624"/><stop offset=".66" stop-color="#e63b23"/><stop offset=".73" stop-color="#e94c21"/><stop offset=".78" stop-color="#e86312"/><stop offset=".84" stop-color="#ef7c1e"/><stop offset=".9" stop-color="#f59d1e"/><stop offset=".95" stop-color="#f9bb24"/><stop offset="1" stop-color="#ffdb16"/><stop offset="1" stop-color="#ffdc15"/></linearGradient><linearGradient id="linear-gradient-5" x1="402.27" y1="-100.6" x2="402.27" y2="6.73" gradientTransform="translate(0 142.45) scale(1 -1)" gradientUnits="userSpaceOnUse"><stop offset="0" stop-color="#ffdc15"/><stop offset="0" stop-color="#ffdb16"/><stop offset=".05" stop-color="#f9bb24"/><stop offset=".1" stop-color="#f59d1e"/><stop offset=".16" stop-color="#ef7c1e"/><stop offset=".22" stop-color="#e86312"/><stop offset=".27" stop-color="#e94c21"/><stop offset=".34" stop-color="#e63b23"/><stop offset=".41" stop-color="#e63624"/><stop offset=".5" stop-color="#e63324"/><stop offset=".59" stop-color="#e63624"/><stop offset=".66" stop-color="#e63b23"/><stop offset=".73" stop-color="#e94c21"/><stop offset=".78" stop-color="#e86312"/><stop offset=".84" stop-color="#ef7c1e"/><stop offset=".9" stop-color="#f59d1e"/><stop offset=".95" stop-color="#f9bb24"/><stop offset="1" stop-color="#ffdb16"/><stop offset="1" stop-color="#ffdc15"/></linearGradient><linearGradient id="linear-gradient-6" x1="-499.1" y1="-959.25" x2="-435.34" y2="-895.49" gradientTransform="translate(77.12 -796.74) rotate(-45) scale(1 -1)" gradientUnits="userSpaceOnUse"><stop offset="0" stop-color="#452b1a"/><stop offset=".05" stop-color="#583519"/><stop offset=".1" stop-color="#683e15"/><stop offset=".32" stop-color="#76481e"/><stop offset=".75" stop-color="#8c5a31"/><stop offset="1" stop-color="#946137"/></linearGradient><linearGradient id="linear-gradient-7" x1="655.21" y1="245.95" x2="655.21" y2="130.76" gradientTransform="translate(0 1.18)" gradientUnits="userSpaceOnUse"><stop offset="0" stop-color="#ffdc15"/><stop offset="0" stop-color="#ffdb16"/><stop offset=".05" stop-color="#f9bb24"/><stop offset=".1" stop-color="#f59d1e"/><stop offset=".16" stop-color="#ef7c1e"/><stop offset=".22" stop-color="#e86312"/><stop offset=".27" stop-color="#e94c21"/><stop offset=".34" stop-color="#e63b23"/><stop offset=".41" stop-color="#e63624"/><stop offset=".5" stop-color="#e63324"/><stop offset=".59" stop-color="#e63624"/><stop offset=".66" stop-color="#e63b23"/><stop offset=".73" stop-color="#e94c21"/><stop offset=".78" stop-color="#e86312"/><stop offset=".84" stop-color="#ef7c1e"/><stop offset=".9" stop-color="#f59d1e"/><stop offset=".95" stop-color="#f9bb24"/><stop offset="1" stop-color="#ffdb16"/><stop offset="1" stop-color="#ffdc15"/></linearGradient><linearGradient id="linear-gradient-8" x1="655.21" y1="243.3" x2="655.21" y2="133.42" gradientTransform="translate(0 1.18)" gradientUnits="userSpaceOnUse"><stop offset="0" stop-color="#ffdc15"/><stop offset="0" stop-color="#ffdb16"/><stop offset=".05" stop-color="#f9bb24"/><stop offset=".1" stop-color="#f59d1e"/><stop offset=".16" stop-color="#ef7c1e"/><stop offset=".22" stop-color="#e86312"/><stop offset=".27" stop-color="#e94c21"/><stop offset=".34" stop-color="#e63b23"/><stop offset=".41" stop-color="#e63624"/><stop offset=".5" stop-color="#e63324"/><stop offset=".59" stop-color="#e63624"/><stop offset=".66" stop-color="#e63b23"/><stop offset=".73" stop-color="#e94c21"/><stop offset=".78" stop-color="#e86312"/><stop offset=".84" stop-color="#ef7c1e"/><stop offset=".9" stop-color="#f59d1e"/><stop offset=".95" stop-color="#f9bb24"/><stop offset="1" stop-color="#ffdb16"/><stop offset="1" stop-color="#ffdc15"/></linearGradient><linearGradient id="linear-gradient-9" x1="655.24" y1="250.42" x2="655.24" y2="160.21" gradientTransform="translate(0 -15.82)" gradientUnits="userSpaceOnUse"><stop offset=".16" stop-color="#813912"/><stop offset=".18" stop-color="#975a19"/><stop offset=".22" stop-color="#ae7d21"/><stop offset=".26" stop-color="#c39d27"/><stop offset=".3" stop-color="#d6b92e"/><stop offset=".35" stop-color="#e4cf35"/><stop offset=".41" stop-color="#efe036"/><stop offset=".48" stop-color="#f6e942"/><stop offset=".58" stop-color="#f8ea48"/><stop offset=".86" stop-color="#f7ea47"/><stop offset="1" stop-color="#fcf4f9"/></linearGradient><linearGradient id="linear-gradient-10" x1="655.25" y1="155.41" x2="655.25" y2="293.3" gradientTransform="translate(0 -15.82)" gradientUnits="userSpaceOnUse"><stop offset=".26" stop-color="#f7ea47"/><stop offset=".86" stop-color="#803612"/></linearGradient><linearGradient id="linear-gradient-11" x1="655.28" y1="249.18" x2="655.28" y2="161.54" gradientTransform="translate(0 -15.82)" gradientUnits="userSpaceOnUse"><stop offset=".16" stop-color="#803612"/><stop offset=".17" stop-color="#8b461e"/><stop offset=".18" stop-color="#a26a3b"/><stop offset=".2" stop-color="#b78954"/><stop offset=".22" stop-color="#c7a468"/><stop offset=".24" stop-color="#d7bb7a"/><stop offset=".26" stop-color="#e2cc88"/><stop offset=".3" stop-color="#ead891"/><stop offset=".34" stop-color="#eede97"/><stop offset=".46" stop-color="#efe097"/><stop offset=".7" stop-color="#803612"/><stop offset=".73" stop-color="#e6d234"/><stop offset=".74" stop-color="#ead848"/><stop offset=".75" stop-color="#eede6d"/><stop offset=".77" stop-color="#f1e38b"/><stop offset=".79" stop-color="#f7eaa9"/><stop offset=".8" stop-color="#f8edbf"/><stop offset=".83" stop-color="#faf0cf"/><stop offset=".85" stop-color="#fcf2da"/><stop offset=".89" stop-color="#fdf4e1"/><stop offset=".99" stop-color="#fdf5e3"/></linearGradient><linearGradient id="linear-gradient-12" x1="655.24" y1="174.4" x2="655.24" y2="309.64" gradientTransform="translate(0 -15.82)" gradientUnits="userSpaceOnUse"><stop offset=".26" stop-color="#f7ea47"/><stop offset=".77" stop-color="#803612"/></linearGradient></defs><rect class="cls-11" width="720" height="378.91"/><g id="titan"><rect class="cls-1" x="66.54" y="132.76" width="113.24" height="113.24"/><rect class="cls-6" x="69.51" y="135.72" width="107.33" height="107.33"/><rect class="cls-9" x="75.31" y="141.53" width="95.7" height="95.7"/><rect class="cls-19" x="78.08" y="144.3" width="90.17" height="90.17"/><rect class="cls-17" x="82.45" y="148.67" width="81.42" height="81.42"/><path id="darker" class="cls-5" d="M168.25,234.47H78.08v-49.42s28.39,4.37,45.05,4.37,45.12-4.37,45.12-4.37v49.42Z"/><polygon class="cls-7" points="123.66 162.79 132.18 180.67 151.82 183.2 137.4 196.79 141.08 216.2 123.66 206.69 106.32 216.2 110 196.79 95.57 183.2 115.22 180.67 123.66 162.79"/></g><g id="steel"><rect class="cls-2" x="345.65" y="132.76" width="113.24" height="113.24"/><rect class="cls-16" x="348.61" y="135.72" width="107.33" height="107.33"/><rect class="cls-9" x="354.65" y="141.53" width="95.7" height="95.7"/><rect class="cls-12" x="357.41" y="144.3" width="90.17" height="90.17"/><rect class="cls-13" x="361.78" y="148.67" width="81.42" height="81.42"/><g><path class="cls-10" d="M410.97,216.28l2-37.83-4.6-.54-.69-1.61h-3.53l-.61,1.69-5.37-.23v-9.82h6.22l.46,1.92,2.92,.38,.69-2.23h6.37l1.23,1.07,1.07-1.07h7.9l.92,1.53,1.38-1.53,5.99,4.91-.38,3.38s-3.3-3.07-4.91-3.07-3.91-.08-3.91-.08l-3.3,5.3-2,.15,1.84,37.68h-9.69Z"/><polygon class="cls-10" points="393.09 166.32 386.65 162.79 386.57 171.54 380.74 171.54 380.74 162.79 373.37 166.17 373.37 176.91 380.2 180.21 377.82 216.28 388.8 216.28 386.65 180.21 393.09 177.29 393.09 166.32"/></g><path id="darker-2" class="cls-3" d="M447.58,234.47h-90.17v-49.42s28.39,4.37,45.05,4.37,45.12-4.37,45.12-4.37v49.42h0Z"/></g><g id="mln"><polygon id="obram_czarne" class="cls-4" points="615.07 131.94 597.62 149.4 597.62 229.68 615.07 247.13 695.45 247.13 712.8 229.68 712.8 149.4 695.45 131.94 615.07 131.94"/><polygon id="obram_czarne-2" class="cls-20" points="616.92 134.6 600.27 151.25 600.27 227.83 616.92 244.48 693.6 244.48 710.16 227.83 710.16 151.25 693.6 134.6 616.92 134.6"/><polygon id="obram_czarne-2-2" class="cls-8" points="621.86 141.65 607.36 156.15 607.36 222.84 621.86 237.34 688.64 237.34 703.06 222.84 703.06 156.15 688.64 141.65 621.86 141.65"/><polygon id="obram_zolte" class="cls-18" points="623.74 144.39 610.18 158.03 610.18 220.96 623.74 234.6 686.68 234.6 700.31 220.96 700.31 158.03 686.68 144.39 623.74 144.39"/><polygon id="tlo_wew" class="cls-15" points="624.68 145.72 611.44 158.97 611.44 220.02 624.68 233.27 685.82 233.27 699.06 220.02 699.06 158.97 685.82 145.72 624.68 145.72"/><path id="obram_skosne" class="cls-14" d="M692.71,206.39c-2.43,0-4.39-1.96-4.39-4.39v-25c0-2.43,1.96-4.39,4.39-4.39h6.27v-13.64l-13.17-13.25h-13.72v6.27c0,2.43-1.96,4.39-4.39,4.39h-25c-2.43,0-4.39-1.96-4.39-4.39v-6.27h-13.64l-13.25,13.25v13.72h6.27c2.43,0,4.39,1.96,4.39,4.39v25c0,2.43-1.96,4.39-4.39,4.39h-6.27v13.64l13.25,13.25h13.72v-6.27c0-2.43,1.96-4.39,4.39-4.39h25c2.43,0,4.39,1.96,4.39,4.39v6.27h13.72l13.25-13.25v-13.72h-6.43Z"/><path id="tlo_zew" class="cls-21" d="M692.48,207.87c-2.98,0-5.41-2.98-5.41-5.96v-24.85c0-2.98,2.43-5.96,5.41-5.96h5.09v-11.13l-12.85-12.78h-11.05v5.09c0,2.98-2.98,5.41-5.96,5.41h-24.85c-2.98,0-5.96-2.43-5.96-5.41v-5.09h-11.21l-12.78,12.78v11.13h5.09c2.98,0,5.41,2.98,5.41,5.96v24.85c0,2.98-2.43,5.96-5.41,5.96h-5.09v11.13l12.78,12.78h11.13v-5.09c0-2.98,2.98-5.41,5.96-5.41h24.77c2.98,0,5.96,2.43,5.96,5.41v5.09h11.13l12.78-12.78v-11.13h-4.94Z"/></g><path d="M643.69,211.46c.25-2.06,.62-3.82,1.1-5.27s1.27-3.18,2.36-5.2c1.09-2.02,3.4-5.6,6.93-10.75l10.07-14.68h-22.29v-6.95h29.29v6.95c-4.11,5.17-7.39,9.88-9.83,14.11-2.44,4.24-4.41,8.17-5.91,11.81s-2.24,6.96-2.24,9.97h-9.48Z"/><g><path d="M9.69,195.86v-5.36h12.85v5.36H9.69Z"/><path d="M30.27,211.08v-6.43c4.25,1.64,7.77,2.46,10.57,2.46,2.47,0,4.5-.65,6.08-1.95,1.58-1.3,2.37-3.05,2.37-5.25,0-1.6-.42-3.05-1.24-4.36-.83-1.3-2.04-2.32-3.63-3.04-1.59-.72-4.11-1.08-7.54-1.08h-2.63v-5.12l2.23-.03c3.28,0,5.64-.29,7.06-.88,1.43-.59,2.55-1.5,3.36-2.74s1.22-2.57,1.22-4c0-1.72-.58-3.12-1.75-4.2s-2.99-1.62-5.46-1.62c-3.13,0-6.47,.81-10.04,2.43v-5.85c1.79-.62,3.22-1.03,4.27-1.23s2.28-.37,3.69-.51c1.41-.13,2.74-.2,3.99-.2,4.5,0,7.97,.93,10.41,2.78s3.66,4.34,3.66,7.46c0,2.52-.79,4.68-2.36,6.46-1.57,1.78-3.94,3.19-7.11,4.23,2.76,.64,4.87,1.52,6.33,2.65s2.57,2.46,3.34,4c.77,1.53,1.16,3.18,1.16,4.94,0,3.24-1.28,6.13-3.84,8.67s-6.69,3.81-12.4,3.81c-1.51,0-3.1-.04-4.79-.13-1.69-.09-4-.51-6.93-1.26h-.02Z"/></g><g><path d="M288.18,196.97v-5.36h12.85v5.36h-12.85Z"/><path d="M325.69,212.51v-11.43h-20v-6.43l19.66-24.98h7.84v24.98h5.01v6.43h-5.01v11.43h-7.5Zm-13.16-17.86h13.33v-16.8l-13.33,16.8Z"/></g><path d="M577.18,194.31v-5.36h12.85v5.36h-12.85Z"/><g><path d="M213.12,213.54c-4.46,0-8.34-.92-11.64-2.76s-5.81-4.5-7.53-7.96-2.58-7.39-2.58-11.77,.86-8.28,2.58-11.75,4.24-6.13,7.56-7.98c3.32-1.84,7.19-2.76,11.61-2.76s8.26,.92,11.58,2.76,5.84,4.5,7.56,7.98c1.72,3.47,2.58,7.39,2.58,11.75s-.86,8.3-2.58,11.77c-1.72,3.46-4.22,6.12-7.51,7.96-3.29,1.84-7.16,2.76-11.62,2.76h-.01Zm0-5.88c4.13,0,7.2-1.68,9.22-5.06,2.02-3.37,3.03-7.23,3.03-11.57s-1.01-8.22-3.04-11.58-5.1-5.03-9.21-5.03-7.21,1.68-9.23,5.03-3.04,7.21-3.04,11.58,1.01,8.2,3.02,11.57c2.02,3.37,5.1,5.06,9.25,5.06h0Z"/><path d="M242.85,212.47v-42.84h16.04c3.28,0,5.78,.41,7.5,1.23,1.72,.82,3.07,2.07,4.07,3.73,.99,1.67,1.49,3.56,1.49,5.66,0,2.51-.72,4.88-2.17,7.11s-3.49,3.93-6.14,5.11l14.03,20h-10.86l-10.65-17.51h-4.9v17.51h-8.41Zm8.4-23.39h2.05c3.68,0,6.22-.8,7.63-2.4,1.4-1.6,2.1-3.42,2.1-5.44,0-1.76-.57-3.15-1.71-4.18-1.14-1.03-3.46-1.55-6.96-1.55h-3.1v13.58h0Z"/></g><g><path d="M496.8,213.58c-4.46,0-8.34-.92-11.64-2.76s-5.81-4.5-7.53-7.96-2.58-7.39-2.58-11.77,.86-8.28,2.58-11.75,4.24-6.13,7.56-7.98c3.32-1.84,7.19-2.76,11.61-2.76s8.26,.92,11.58,2.76c3.32,1.84,5.84,4.5,7.55,7.98s2.58,7.39,2.58,11.75-.86,8.3-2.58,11.77c-1.72,3.46-4.22,6.12-7.51,7.96-3.29,1.84-7.17,2.76-11.62,2.76h0Zm0-5.88c4.13,0,7.2-1.68,9.22-5.06,2.02-3.37,3.02-7.23,3.02-11.57s-1.01-8.22-3.04-11.58-5.09-5.03-9.21-5.03-7.21,1.68-9.23,5.03-3.04,7.21-3.04,11.58,1.01,8.2,3.03,11.57c2.02,3.37,5.1,5.06,9.25,5.06h0Z"/><path d="M526.53,212.51v-42.84h16.04c3.28,0,5.78,.41,7.5,1.23,1.72,.82,3.07,2.07,4.07,3.73,.99,1.67,1.49,3.56,1.49,5.66,0,2.51-.72,4.88-2.17,7.11s-3.49,3.93-6.14,5.11l14.03,20h-10.86l-10.65-17.51h-4.9v17.51h-8.41Zm8.39-23.39h2.05c3.68,0,6.22-.8,7.62-2.4s2.11-3.42,2.11-5.44c0-1.76-.57-3.15-1.71-4.18s-3.46-1.55-6.96-1.55h-3.11v13.58h0Z"/></g></svg>