<?xml version="1.0" encoding="UTF-8"?><svg id="Layer" xmlns="http://www.w3.org/2000/svg" xmlns:xlink="http://www.w3.org/1999/xlink" viewBox="0 0 721 379.91"><defs><style>.cls-1{fill:url(#linear-gradient-2);}.cls-2{fill:#20201e;}.cls-3,.cls-4{fill:#020303;}.cls-5{fill:url(#linear-gradient-6);}.cls-6{fill:url(#linear-gradient-11);}.cls-7{opacity:0;stroke:#1d1d1b;}.cls-7,.cls-8,.cls-9{stroke-miterlimit:10;}.cls-7,.cls-9{fill:#fff;}.cls-4{opacity:.15;}.cls-4,.cls-10,.cls-11{isolation:isolate;}.cls-12{fill:#7e348b;}.cls-13{fill:url(#linear-gradient-10);}.cls-10{fill:url(#Nowy_wzorek_5);opacity:.14;}.cls-14{fill:#ffd113;}.cls-15{fill:url(#linear-gradient-5);}.cls-16{fill:#e62b23;}.cls-17{fill:none;}.cls-18{fill:url(#linear-gradient-7);}.cls-11{opacity:.05;}.cls-11,.cls-19{fill:#030304;}.cls-20{fill:url(#linear-gradient-9);}.cls-21{fill:url(#linear-gradient-3);}.cls-22{fill:url(#linear-gradient);}.cls-8{stroke:#030304;stroke-width:1.9px;}.cls-8,.cls-23{fill:#010202;}.cls-9{stroke:#020303;stroke-width:.93px;}.cls-24{fill:url(#linear-gradient-4);}.cls-25{fill:#010101;}.cls-26{fill:url(#linear-gradient-8);}</style><linearGradient id="linear-gradient" x1="585.82" y1="670" x2="133.89" y2="218.09" gradientTransform="translate(0 -251.46)" gradientUnits="userSpaceOnUse"><stop offset="0" stop-color="#9f9d9c"/><stop offset=".54" stop-color="#030304"/><stop offset="1" stop-color="#9f9d9c"/></linearGradient><linearGradient id="linear-gradient-2" x1="359.93" y1="595.13" x2="359.93" y2="292.98" gradientTransform="translate(0 -251.46)" gradientUnits="userSpaceOnUse"><stop offset="0" stop-color="#482d1d"/><stop offset="1" stop-color="#b18046"/></linearGradient><linearGradient id="linear-gradient-3" x1="359.87" y1="590.93" x2="359.87" y2="297.03" gradientTransform="translate(0 -251.46)" gradientUnits="userSpaceOnUse"><stop offset="0" stop-color="#946137"/><stop offset="1" stop-color="#825329"/></linearGradient><pattern id="Nowy_wzorek_5" x="0" y="0" width="56.69" height="62.45" patternTransform="translate(-.5 16015.11)" patternUnits="userSpaceOnUse" viewBox="0 0 56.69 62.45"><g><rect class="cls-17" width="56.69" height="62.45"/><g><rect class="cls-17" width="56.69" height="62.45"/><g><rect class="cls-17" width="56.69" height="62.45"/><g><rect class="cls-17" width="56.69" height="62.45"/><g><rect class="cls-17" width="56.69" height="62.45"/><g><rect class="cls-17" width="56.69" height="62.45"/><path class="cls-2" d="M47.77,25.04c6.04,6.04,6.04,16.12,0,22.16l-3.45,3.45c-6.04,6.04-16.12,6.04-22.45,0l-12.95-13.24c-6.04-6.04-6.04-16.12,0-22.16l3.45-3.45c6.04-6.04,16.12-6.04,22.16,0l13.24,13.24Z"/></g></g></g></g></g></g></pattern><linearGradient id="linear-gradient-4" x1="210.78" y1="263.54" x2="210.78" y2="153.98" gradientTransform="translate(0 -15.82)" gradientUnits="userSpaceOnUse"><stop offset=".16" stop-color="#823a13"/><stop offset=".18" stop-color="#985c1a"/><stop offset=".22" stop-color="#ae7d22"/><stop offset=".26" stop-color="#c39d26"/><stop offset=".3" stop-color="#d6b92e"/><stop offset=".35" stop-color="#e4cf36"/><stop offset=".41" stop-color="#efe036"/><stop offset=".48" stop-color="#f6e947"/><stop offset=".58" stop-color="#f8ea4e"/><stop offset=".86" stop-color="#f6ea4d"/><stop offset="1" stop-color="#fcf4f9"/></linearGradient><linearGradient id="linear-gradient-5" x1="210.78" y1="148.15" x2="210.78" y2="315.61" gradientTransform="translate(0 -15.82)" gradientUnits="userSpaceOnUse"><stop offset=".26" stop-color="#f6ea4d"/><stop offset=".86" stop-color="#803813"/></linearGradient><linearGradient id="linear-gradient-6" x1="210.83" y1="262.02" x2="210.83" y2="155.6" gradientTransform="translate(0 -15.82)" gradientUnits="userSpaceOnUse"><stop offset=".16" stop-color="#803813"/><stop offset=".17" stop-color="#8c471e"/><stop offset=".18" stop-color="#a26b3c"/><stop offset=".2" stop-color="#b78954"/><stop offset=".22" stop-color="#c7a468"/><stop offset=".24" stop-color="#d7bb7a"/><stop offset=".26" stop-color="#e2cc88"/><stop offset=".3" stop-color="#ead891"/><stop offset=".34" stop-color="#eede97"/><stop offset=".46" stop-color="#efe097"/><stop offset=".7" stop-color="#803813"/><stop offset=".73" stop-color="#e6d234"/><stop offset=".74" stop-color="#ebd948"/><stop offset=".75" stop-color="#eede6d"/><stop offset=".77" stop-color="#f0e28a"/><stop offset=".79" stop-color="#f8ebaa"/><stop offset=".8" stop-color="#f8edbf"/><stop offset=".83" stop-color="#faf0cf"/><stop offset=".85" stop-color="#fcf2da"/><stop offset=".89" stop-color="#fdf4e1"/><stop offset=".99" stop-color="#fdf5e3"/></linearGradient><linearGradient id="linear-gradient-7" x1="210.79" y1="171.21" x2="210.79" y2="335.46" gradientTransform="translate(0 -15.82)" gradientUnits="userSpaceOnUse"><stop offset=".26" stop-color="#f6ea4d"/><stop offset=".77" stop-color="#803813"/></linearGradient><linearGradient id="linear-gradient-8" x1="-530.8" y1="-1037.37" x2="-453.36" y2="-959.93" gradientTransform="translate(78.19 -794.17) rotate(-45) scale(1 -1)" gradientUnits="userSpaceOnUse"><stop offset="0" stop-color="#951919"/><stop offset=".21" stop-color="#b9251d"/><stop offset=".47" stop-color="#e62b23"/><stop offset=".55" stop-color="#e62f2a"/><stop offset=".84" stop-color="#e73a3b"/><stop offset="1" stop-color="#e83e41"/></linearGradient><linearGradient id="linear-gradient-9" x1="-438.52" y1="-1129.65" x2="-361.09" y2="-1052.21" xlink:href="#linear-gradient-8"/><linearGradient id="linear-gradient-10" x1="-435.46" y1="-705.97" x2="-358.03" y2="-628.54" gradientTransform="translate(245.16 -628.42) rotate(-45) scale(1 -1)" gradientUnits="userSpaceOnUse"><stop offset="0" stop-color="#1d1327"/><stop offset=".24" stop-color="#372348"/><stop offset=".49" stop-color="#573a6c"/><stop offset=".71" stop-color="#714f8b"/><stop offset=".89" stop-color="#825c9f"/><stop offset="1" stop-color="#8862a6"/></linearGradient><linearGradient id="linear-gradient-11" x1="-343.54" y1="-797.9" x2="-266.1" y2="-720.46" xlink:href="#linear-gradient-10"/></defs><rect class="cls-7" x=".5" y=".5" width="720" height="378.91"/><g id="prodBg"><rect id="external-border" class="cls-22" x="63.63" y="36.89" width="592.45" height="311.39"/><rect id="internal-border" class="cls-1" x="68.26" y="41.52" width="583.34" height="302.15"/><rect id="bg" class="cls-21" x="72.31" y="45.57" width="575.11" height="293.9"/><rect id="bgPattern" class="cls-10" x="72.31" y="45.57" width="575.11" height="293.9"/></g><path class="cls-23" d="M95.85,199.59v-13.64h32.74v13.64h-32.74Z"/><path class="cls-23" d="M320.12,288.81v-24.34h-24.34v-9.99h24.34v-24.34h9.99v24.34h24.34v9.99h-24.34v24.34h-9.99Z"/><g id="mln"><polygon id="obram_czarne" class="cls-8" points="170.23 134.83 152.62 152.44 152.62 233.44 170.23 251.05 251.33 251.05 268.84 233.44 268.84 152.44 251.33 134.83 170.23 134.83"/><polygon id="obram_zolte" class="cls-24" points="172.51 138.16 156.05 154.72 156.05 231.16 172.51 247.72 248.95 247.72 265.51 231.16 265.51 154.72 248.95 138.16 172.51 138.16"/><polygon id="tlo_wew" class="cls-15" points="173.66 139.78 157.57 155.87 157.57 230.01 173.66 246.1 247.9 246.1 263.99 230.01 263.99 155.87 247.9 139.78 173.66 139.78"/><path id="obram_skosne" class="cls-5" d="M256.28,213.45c-2.95,0-5.33-2.38-5.33-5.33v-30.36c0-2.95,2.38-5.33,5.33-5.33h7.61v-16.56l-15.99-16.09h-16.66v7.61c0,2.95-2.38,5.33-5.33,5.33h-30.36c-2.95,0-5.33-2.38-5.33-5.33v-7.61h-16.56l-16.09,16.09v16.66h7.61c2.95,0,5.33,2.38,5.33,5.33v30.36c0,2.95-2.38,5.33-5.33,5.33h-7.61v16.56l16.09,16.09h16.66v-7.61c0-2.95,2.38-5.33,5.33-5.33h30.36c2.95,0,5.33,2.38,5.33,5.33v7.61h16.66l16.09-16.09v-16.66h-7.81Z"/><path id="tlo_zew" class="cls-18" d="M255.99,215.26c-3.62,0-6.57-3.62-6.57-7.23v-30.17c0-3.62,2.95-7.23,6.57-7.23h6.19v-13.52l-15.61-15.52h-13.42v6.19c0,3.62-3.62,6.57-7.23,6.57h-30.17c-3.62,0-7.23-2.95-7.23-6.57v-6.19h-13.61l-15.52,15.52v13.52h6.19c3.62,0,6.57,3.62,6.57,7.23v30.17c0,3.62-2.95,7.23-6.57,7.23h-6.19v13.52l15.52,15.52h13.52v-6.19c0-3.62,3.62-6.57,7.23-6.57h30.08c3.62,0,7.23,2.95,7.23,6.57v6.19h13.52l15.52-15.52v-13.52h-6.02Z"/></g><g id="heat"><rect class="cls-19" x="378.27" y="201.82" width="116.22" height="116.22"/><rect class="cls-26" x="381.63" y="205.18" width="109.51" height="109.51"/><rect class="cls-16" x="386.94" y="210.49" width="98.89" height="98.89"/><path id="darker" class="cls-11" d="M491.14,314.69h-109.51v-60.02s34.48,5.31,54.71,5.31,54.8-5.31,54.8-5.31v60.02Z"/><g><polygon class="cls-14" points="424.04 265.01 411.55 254.2 411.55 254.2 411.55 221.21 399.06 254.86 411.64 265.48 411.64 265.48 411.55 298.66 424.04 265.01"/><polygon class="cls-14" points="448.92 265.01 436.43 254.2 436.34 254.2 436.43 221.21 423.94 254.86 436.43 265.48 436.43 265.48 436.43 298.66 448.92 265.01"/><polygon class="cls-14" points="474.46 265.01 461.97 254.2 461.87 254.2 461.97 221.21 449.48 254.86 461.97 265.48 461.97 265.48 461.97 298.66 474.46 265.01"/></g></g><g id="heat-2"><rect class="cls-19" x="508.77" y="201.82" width="116.22" height="116.22"/><rect class="cls-20" x="512.13" y="205.18" width="109.51" height="109.51"/><rect class="cls-16" x="517.44" y="210.49" width="98.89" height="98.89"/><path id="darker-2" class="cls-11" d="M621.64,314.69h-109.51v-60.02s34.48,5.31,54.71,5.31,54.8-5.31,54.8-5.31v60.02h0Z"/><g><polygon class="cls-14" points="554.54 265.01 542.05 254.2 542.05 254.2 542.05 221.21 529.56 254.86 542.14 265.48 542.14 265.48 542.05 298.66 554.54 265.01"/><polygon class="cls-14" points="579.42 265.01 566.93 254.2 566.84 254.2 566.93 221.21 554.44 254.86 566.93 265.48 566.93 265.48 566.93 298.66 579.42 265.01"/><polygon class="cls-14" points="604.96 265.01 592.47 254.2 592.37 254.2 592.47 221.21 579.98 254.86 592.47 265.48 592.47 265.48 592.47 298.66 604.96 265.01"/></g></g><path class="cls-25" d="M193.36,218.55v-8.46c3.22-4.34,6.35-7.83,9.39-10.48l4.37-3.87c3.13-2.77,5.71-5.51,7.75-8.22s3.06-5.55,3.06-8.51c0-2.67-.86-4.74-2.58-6.2s-4.05-2.19-6.99-2.19c-3.9,0-8.44,1.33-13.62,3.97v-7.84c5.44-2.02,10.7-3.04,15.77-3.04,5.61,0,10.14,1.34,13.59,4.03,3.45,2.69,5.18,6.28,5.18,10.79,0,2.84-.73,5.52-2.18,8.04-1.46,2.52-4.48,5.63-9.08,9.34l-3.61,2.89c-1.59,1.28-3.32,2.92-5.21,4.91-1.89,2-3.13,4.12-3.73,6.36h23.59v8.46h-35.7v.02Z"/><g id="energy"><rect class="cls-3" x="378.32" y="65.83" width="116.22" height="116.22"/><rect class="cls-13" x="381.68" y="69.18" width="109.51" height="109.51"/><polygon class="cls-12" points="485.87 74.5 485.87 173.38 386.99 173.38 386.99 74.5 485.87 74.5"/><polygon class="cls-9" points="424.36 112.61 456.98 92.39 439.55 117.65 448.78 132.65 416.72 152.88 432.84 127.71 424.36 112.61"/><path id="darker-2" class="cls-4" d="M491.19,178.69h-109.51v-60.02s34.48,5.31,54.71,5.31,54.8-5.31,54.8-5.31v60.02Z"/></g><path class="cls-23" d="M320.12,152.81v-24.34h-24.34v-9.99h24.34v-24.34h9.99v24.34h24.34v9.99h-24.34v24.34h-9.99Z"/><g id="energy-2"><rect class="cls-3" x="508.32" y="65.83" width="116.22" height="116.22"/><rect class="cls-6" x="511.68" y="69.18" width="109.51" height="109.51"/><polygon class="cls-12" points="615.87 74.5 615.87 173.38 516.99 173.38 516.99 74.5 615.87 74.5"/><polygon class="cls-9" points="554.36 112.61 586.98 92.39 569.55 117.65 578.78 132.65 546.72 152.88 562.84 127.71 554.36 112.61"/><path id="darker-3" class="cls-4" d="M621.19,178.69h-109.51v-60.02s34.48,5.31,54.71,5.31,54.8-5.31,54.8-5.31v60.02Z"/></g></svg>