<?xml version="1.0" encoding="UTF-8"?><svg id="Layer" xmlns="http://www.w3.org/2000/svg" xmlns:xlink="http://www.w3.org/1999/xlink" viewBox="0 0 721 379.91"><defs><style>.cls-1{fill:url(#linear-gradient-2);}.cls-2{fill:#fff;opacity:0;stroke:#1d1d1b;}.cls-2,.cls-3{stroke-miterlimit:10;}.cls-3{fill:#030304;stroke:#030404;stroke-width:1.91px;}.cls-4{fill:url(#linear-gradient-3);}.cls-5{fill:url(#linear-gradient);}.cls-6{fill:#010202;}.cls-7{fill:url(#linear-gradient-4);}</style><linearGradient id="linear-gradient" x1="379.3" y1="114.42" x2="379.3" y2="224.58" gradientTransform="translate(0 364.16) scale(1 -1)" gradientUnits="userSpaceOnUse"><stop offset=".16" stop-color="#823b14"/><stop offset=".18" stop-color="#995d1a"/><stop offset=".22" stop-color="#ae7d22"/><stop offset=".26" stop-color="#c39d25"/><stop offset=".3" stop-color="#d6b92e"/><stop offset=".35" stop-color="#e4cf36"/><stop offset=".41" stop-color="#efe036"/><stop offset=".48" stop-color="#f5e94d"/><stop offset=".58" stop-color="#f8eb53"/><stop offset=".86" stop-color="#f5ea52"/><stop offset="1" stop-color="#fcf4f9"/></linearGradient><linearGradient id="linear-gradient-2" x1="379.3" y1="230.5" x2="379.3" y2="62.13" gradientTransform="translate(0 364.16) scale(1 -1)" gradientUnits="userSpaceOnUse"><stop offset=".26" stop-color="#f5ea52"/><stop offset=".86" stop-color="#813a14"/></linearGradient><linearGradient id="linear-gradient-3" x1="379.4" y1="115.83" x2="379.4" y2="222.87" gradientTransform="translate(0 364.16) scale(1 -1)" gradientUnits="userSpaceOnUse"><stop offset=".16" stop-color="#813a14"/><stop offset=".17" stop-color="#8d481f"/><stop offset=".18" stop-color="#a36c3d"/><stop offset=".2" stop-color="#b78954"/><stop offset=".22" stop-color="#c7a468"/><stop offset=".24" stop-color="#d7bb7a"/><stop offset=".26" stop-color="#e2cc88"/><stop offset=".3" stop-color="#ead891"/><stop offset=".34" stop-color="#eede97"/><stop offset=".46" stop-color="#efe097"/><stop offset=".7" stop-color="#813a14"/><stop offset=".73" stop-color="#e6d234"/><stop offset=".74" stop-color="#ebda49"/><stop offset=".75" stop-color="#eede6d"/><stop offset=".77" stop-color="#f0e18a"/><stop offset=".79" stop-color="#f8ebab"/><stop offset=".8" stop-color="#f8edbf"/><stop offset=".83" stop-color="#faf0cf"/><stop offset=".85" stop-color="#fcf2da"/><stop offset=".89" stop-color="#fdf4e1"/><stop offset=".99" stop-color="#fdf5e3"/></linearGradient><linearGradient id="linear-gradient-4" x1="379.3" y1="207.32" x2="379.3" y2="42.17" gradientTransform="translate(0 364.16) scale(1 -1)" gradientUnits="userSpaceOnUse"><stop offset=".26" stop-color="#f5ea52"/><stop offset=".77" stop-color="#813a14"/></linearGradient></defs><rect class="cls-2" x=".5" y=".5" width="720" height="378.91"/><g id="mln"><polygon id="obram_czarne" class="cls-3" points="338.49 136.22 320.8 153.91 320.8 235.31 338.49 253 420.1 253 437.69 235.31 437.69 153.91 420.1 136.22 338.49 136.22"/><polygon id="obram_zolte" class="cls-5" points="340.77 139.58 324.27 156.19 324.27 233.03 340.77 249.74 417.61 249.74 434.32 233.03 434.32 156.19 417.61 139.58 340.77 139.58"/><polygon id="tlo_wew" class="cls-1" points="341.96 141.1 325.79 157.27 325.79 231.84 341.96 248.01 416.63 248.01 432.8 231.84 432.8 157.27 416.63 141.1 341.96 141.1"/><path id="obram_skosne" class="cls-4" d="M424.99,215.23c-3.04,0-5.43-2.39-5.43-5.43v-30.5c0-3.04,2.39-5.43,5.43-5.43h7.71v-16.61l-16.06-16.17h-16.82v7.71c0,3.04-2.39,5.43-5.43,5.43h-30.5c-3.04,0-5.43-2.39-5.43-5.43v-7.71h-16.71l-16.06,16.17v16.82h7.71c3.04,0,5.43,2.39,5.43,5.43v30.5c0,3.04-2.39,5.43-5.43,5.43h-7.71v16.71l16.17,16.17h16.93v-7.71c0-3.04,2.39-5.43,5.43-5.43h30.5c3.04,0,5.43,2.39,5.43,5.43v7.71h16.82l16.17-16.17v-16.93h-8.14Z"/><path id="tlo_zew" class="cls-7" d="M424.77,217.08c-3.69,0-6.51-3.69-6.51-7.27v-30.39c0-3.69,3.04-7.27,6.51-7.27h6.19v-13.68l-15.63-15.52h-13.46v6.19c0,3.69-3.69,6.62-7.27,6.62h-30.39c-3.69,0-7.27-3.04-7.27-6.62v-6.19h-13.68l-15.63,15.63v13.57h6.19c3.69,0,6.51,3.69,6.51,7.27v30.39c0,3.69-3.04,7.27-6.51,7.27h-6.19v13.57l15.63,15.63h13.57v-6.19c0-3.69,3.69-6.62,7.27-6.62h30.28c3.69,0,7.27,3.04,7.27,6.62v6.19h13.57l15.63-15.63v-13.57h-6.08Z"/></g><g><path class="cls-6" d="M347.93,201.56v-6.73h16.06v6.73h-16.06Z"/><path class="cls-6" d="M371.7,220.87v-8.47c3.26-4.34,6.29-7.81,9.33-10.42l4.34-3.91c3.15-2.82,5.64-5.54,7.71-8.25,2.06-2.71,3.04-5.54,3.04-8.47,0-2.71-.87-4.78-2.6-6.19-1.74-1.41-4.02-2.17-6.95-2.17-3.91,0-8.47,1.3-13.57,4.02v-7.81c5.43-2.06,10.64-3.04,15.74-3.04,5.64,0,10.09,1.3,13.57,4.02s5.21,6.29,5.21,10.74c0,2.82-.76,5.54-2.17,8.03s-4.45,5.64-9.01,9.33l-3.58,2.93c-1.63,1.3-3.36,2.93-5.21,4.88s-3.26,4.12-3.8,6.29h23.55v8.47h-35.6Z"/></g><path d="M279.45,186.04v-12.16h12.05v12.16h-12.05Zm0,32.89v-12.16h12.05v12.16h-12.05Z"/></svg>