<?xml version="1.0" encoding="utf-8"?>
<!-- Generator: Adobe Illustrator 26.4.1, SVG Export Plug-In . SVG Version: 6.00 Build 0)  -->
<svg version="1.1" id="Layer" xmlns="http://www.w3.org/2000/svg" xmlns:xlink="http://www.w3.org/1999/xlink" x="0px" y="0px"
	 viewBox="0 0 721 379.9" style="enable-background:new 0 0 721 379.9;" xml:space="preserve">
<style type="text/css">
	.st0{opacity:0;fill:#FFFFFF;fill-opacity:0;}
	.st1{fill:#020303;}
	.st2{fill:url(#SVGID_1_);}
	.st3{fill:#946137;}
	.st4{fill:#332116;}
	.st5{opacity:0.15;fill:#020303;enable-background:new    ;}
	.st6{opacity:0.4;fill:url(#SVGID_00000082346110312230490810000006758654009905296021_);enable-background:new    ;}
	.st7{fill:url(#SVGID_00000088115742810346115040000008966483139006795140_);}
	.st8{fill:#030404;}
	.st9{fill:url(#SVGID_00000154399504733376187020000002977530618634632355_);}
	.st10{fill:#4BAD39;}
	.st11{fill:#0D582A;stroke:#1E4523;stroke-width:3.68;stroke-miterlimit:10;}
	.st12{opacity:5.000000e-02;fill:#030404;enable-background:new    ;}
	.st13{opacity:0.4;fill:url(#SVGID_00000039093172213770340890000015335669864439109514_);enable-background:new    ;}
	.st14{fill:url(#SVGID_00000009572295718929154910000009282760868217314711_);}
	.st15{fill:url(#SVGID_00000149344438190344280610000018209361015927341456_);}
	.st16{fill:url(#SVGID_00000119822986848111615020000005251287887155086727_);}
	.st17{fill:url(#SVGID_00000065763645694805305150000006585768459665578149_);}
	.st18{fill:none;stroke:#1F1F1D;stroke-width:4.75;stroke-miterlimit:10;}
	.st19{fill:none;stroke:#1F1F1D;stroke-width:1.49;stroke-miterlimit:10;}
	
		.st20{fill:#E2131B;stroke:url(#SVGID_00000005956464798692149750000002375301853427965580_);stroke-width:4.75;stroke-miterlimit:10;}
	
		.st21{fill:#E2131B;stroke:url(#SVGID_00000108292027677384371050000001431872917879891082_);stroke-width:4.75;stroke-miterlimit:10;}
</style>
<rect x="0.5" y="0.5" class="st0" width="720" height="378.9"/>
<g id="steel">
	<rect x="184.6" y="246.4" class="st1" width="116.3" height="116.3"/>
	
		<linearGradient id="SVGID_1_" gradientUnits="userSpaceOnUse" x1="-1709.2815" y1="-1524.8826" x2="-1631.8108" y2="-1447.412" gradientTransform="matrix(0.7071 -0.7071 -0.7071 -0.7071 373.1497 -1927.5892)">
		<stop  offset="0" style="stop-color:#452B1A"/>
		<stop  offset="5.000000e-02" style="stop-color:#583519"/>
		<stop  offset="0.1" style="stop-color:#683E15"/>
		<stop  offset="0.32" style="stop-color:#76481E"/>
		<stop  offset="0.75" style="stop-color:#8C5A31"/>
		<stop  offset="1" style="stop-color:#946137"/>
	</linearGradient>
	<rect x="188" y="249.8" class="st2" width="109.6" height="109.6"/>
	<rect x="193.3" y="255.1" class="st3" width="98.9" height="98.9"/>
	<g>
		<path class="st4" d="M253.1,337.2l2.4-46l-5.6-0.6l-0.8-2h-4.3l-0.8,2l-6.5-0.3v-11.9h7.5l0.6,2.3l3.5,0.5l0.8-2.7h7.7l1.5,1.3
			l1.3-1.3h9.6l1.1,1.9l1.7-1.9l7.3,6l-0.5,4.1c0,0-4-3.7-6-3.7s-4.8-0.1-4.8-0.1l-4,6.4l-2.4,0.2l2.2,45.8L253.1,337.2L253.1,337.2
			z"/>
		<polygon class="st4" points="231.3,276.5 223.5,272.2 223.4,282.9 216.3,282.9 216.3,272.2 207.4,276.3 207.4,289.4 215.7,293.4 
			212.8,337.2 226.1,337.2 223.5,293.4 231.3,289.9 		"/>
	</g>
	<path id="darker" class="st5" d="M297.5,359.3H188v-60c0,0,34.5,5.3,54.7,5.3s54.8-5.3,54.8-5.3L297.5,359.3L297.5,359.3z"/>
</g>
<g id="plant-2">
	
		<linearGradient id="SVGID_00000080897759338571302930000016213837499268743580_" gradientUnits="userSpaceOnUse" x1="471.405" y1="2454.9514" x2="471.405" y2="2316.4414" gradientTransform="matrix(1 0 0 1 0 -2080.9814)">
		<stop  offset="0" style="stop-color:#FFDC15"/>
		<stop  offset="0" style="stop-color:#FFDB16"/>
		<stop  offset="5.000000e-02" style="stop-color:#F9BB24"/>
		<stop  offset="0.1" style="stop-color:#F59D1E"/>
		<stop  offset="0.16" style="stop-color:#EF7C1E"/>
		<stop  offset="0.22" style="stop-color:#E86312"/>
		<stop  offset="0.27" style="stop-color:#E94C21"/>
		<stop  offset="0.34" style="stop-color:#E63B23"/>
		<stop  offset="0.41" style="stop-color:#E63624"/>
		<stop  offset="0.5" style="stop-color:#E63324"/>
		<stop  offset="0.59" style="stop-color:#E63624"/>
		<stop  offset="0.66" style="stop-color:#E63B23"/>
		<stop  offset="0.73" style="stop-color:#E94C21"/>
		<stop  offset="0.78" style="stop-color:#E86312"/>
		<stop  offset="0.84" style="stop-color:#EF7C1E"/>
		<stop  offset="0.9" style="stop-color:#F59D1E"/>
		<stop  offset="0.95" style="stop-color:#F9BB24"/>
		<stop  offset="1" style="stop-color:#FFDB16"/>
		<stop  offset="1" style="stop-color:#FFDC15"/>
	</linearGradient>
	
		<rect x="402.1" y="235.5" style="opacity:0.4;fill:url(#SVGID_00000080897759338571302930000016213837499268743580_);enable-background:new    ;" width="138.5" height="138.5"/>
	
		<linearGradient id="SVGID_00000062870287709712025840000015484245815806897565_" gradientUnits="userSpaceOnUse" x1="471.425" y1="2449.8516" x2="471.425" y2="2321.5415" gradientTransform="matrix(1 0 0 1 0 -2080.9814)">
		<stop  offset="0" style="stop-color:#FFDC15"/>
		<stop  offset="0" style="stop-color:#FFDB16"/>
		<stop  offset="5.000000e-02" style="stop-color:#F9BB24"/>
		<stop  offset="0.1" style="stop-color:#F59D1E"/>
		<stop  offset="0.16" style="stop-color:#EF7C1E"/>
		<stop  offset="0.22" style="stop-color:#E86312"/>
		<stop  offset="0.27" style="stop-color:#E94C21"/>
		<stop  offset="0.34" style="stop-color:#E63B23"/>
		<stop  offset="0.41" style="stop-color:#E63624"/>
		<stop  offset="0.5" style="stop-color:#E63324"/>
		<stop  offset="0.59" style="stop-color:#E63624"/>
		<stop  offset="0.66" style="stop-color:#E63B23"/>
		<stop  offset="0.73" style="stop-color:#E94C21"/>
		<stop  offset="0.78" style="stop-color:#E86312"/>
		<stop  offset="0.84" style="stop-color:#EF7C1E"/>
		<stop  offset="0.9" style="stop-color:#F59D1E"/>
		<stop  offset="0.95" style="stop-color:#F9BB24"/>
		<stop  offset="1" style="stop-color:#FFDB16"/>
		<stop  offset="1" style="stop-color:#FFDC15"/>
	</linearGradient>
	
		<rect x="407.3" y="240.6" style="fill:url(#SVGID_00000062870287709712025840000015484245815806897565_);" width="128.3" height="128.3"/>
	<rect x="414.1" y="247.4" class="st8" width="114.9" height="114.9"/>
	
		<linearGradient id="SVGID_00000080181210914960637170000001651392842341252513_" gradientUnits="userSpaceOnUse" x1="-1546.2686" y1="3912.3975" x2="-1469.6959" y2="3835.825" gradientTransform="matrix(0.7071 -0.7071 0.7071 0.7071 -1201.5908 -3500.8396)">
		<stop  offset="0" style="stop-color:#116A37"/>
		<stop  offset="4.000000e-02" style="stop-color:#156D38"/>
		<stop  offset="8.000000e-02" style="stop-color:#0A783A"/>
		<stop  offset="0.13" style="stop-color:#148837"/>
		<stop  offset="0.15" style="stop-color:#0F9039"/>
		<stop  offset="0.35" style="stop-color:#38993D"/>
		<stop  offset="0.76" style="stop-color:#61B149"/>
		<stop  offset="1" style="stop-color:#70B74B"/>
	</linearGradient>
	
		<rect x="417.4" y="250.7" style="fill:url(#SVGID_00000080181210914960637170000001651392842341252513_);" width="108.3" height="108.3"/>
	<rect x="422.6" y="256" class="st10" width="97.8" height="97.8"/>
	<path id="leaf-2" class="st11" d="M471.5,280.1c-14,1.9-24.7,11.1-24.7,24.7c0,3.3,0.6,6.5,1.8,9.5c-2.6,1.7-6.4,4-8.2,4.7
		c-3.2,1.1-9.7,0.4-10,0.9s1.8,6.4,2.6,6.6s6.6,0.3,10-0.9c2.4-0.8,6.7-3.6,9.2-5.5c4.5,5.7,11.5,9.3,19.4,9.3
		c13.6,0,24.5-8.6,24.5-22.2c0-5.2,1.3-11.9,3.2-16c2.1-4.6,13.1-7.6,13.1-7.6C511.3,280.1,477,279.4,471.5,280.1L471.5,280.1
		L471.5,280.1L471.5,280.1L471.5,280.1z"/>
	<path id="darker-2" class="st12" d="M525.7,359H417.4v-59.3c0,0,34.1,5.2,54.1,5.2s54.2-5.2,54.2-5.2V359z"/>
</g>
<g id="plant-2-2">
	
		<linearGradient id="SVGID_00000174583568148705832480000004368878937088630165_" gradientUnits="userSpaceOnUse" x1="613.405" y1="2454.9514" x2="613.405" y2="2316.4414" gradientTransform="matrix(1 0 0 1 0 -2080.9814)">
		<stop  offset="0" style="stop-color:#FFDC15"/>
		<stop  offset="0" style="stop-color:#FFDB16"/>
		<stop  offset="5.000000e-02" style="stop-color:#F9BB24"/>
		<stop  offset="0.1" style="stop-color:#F59D1E"/>
		<stop  offset="0.16" style="stop-color:#EF7C1E"/>
		<stop  offset="0.22" style="stop-color:#E86312"/>
		<stop  offset="0.27" style="stop-color:#E94C21"/>
		<stop  offset="0.34" style="stop-color:#E63B23"/>
		<stop  offset="0.41" style="stop-color:#E63624"/>
		<stop  offset="0.5" style="stop-color:#E63324"/>
		<stop  offset="0.59" style="stop-color:#E63624"/>
		<stop  offset="0.66" style="stop-color:#E63B23"/>
		<stop  offset="0.73" style="stop-color:#E94C21"/>
		<stop  offset="0.78" style="stop-color:#E86312"/>
		<stop  offset="0.84" style="stop-color:#EF7C1E"/>
		<stop  offset="0.9" style="stop-color:#F59D1E"/>
		<stop  offset="0.95" style="stop-color:#F9BB24"/>
		<stop  offset="1" style="stop-color:#FFDB16"/>
		<stop  offset="1" style="stop-color:#FFDC15"/>
	</linearGradient>
	
		<rect x="544.2" y="235.5" style="opacity:0.4;fill:url(#SVGID_00000174583568148705832480000004368878937088630165_);enable-background:new    ;" width="138.5" height="138.5"/>
	
		<linearGradient id="SVGID_00000154426984928378653650000012521617497971064460_" gradientUnits="userSpaceOnUse" x1="613.425" y1="2449.8516" x2="613.425" y2="2321.5415" gradientTransform="matrix(1 0 0 1 0 -2080.9814)">
		<stop  offset="0" style="stop-color:#FFDC15"/>
		<stop  offset="0" style="stop-color:#FFDB16"/>
		<stop  offset="5.000000e-02" style="stop-color:#F9BB24"/>
		<stop  offset="0.1" style="stop-color:#F59D1E"/>
		<stop  offset="0.16" style="stop-color:#EF7C1E"/>
		<stop  offset="0.22" style="stop-color:#E86312"/>
		<stop  offset="0.27" style="stop-color:#E94C21"/>
		<stop  offset="0.34" style="stop-color:#E63B23"/>
		<stop  offset="0.41" style="stop-color:#E63624"/>
		<stop  offset="0.5" style="stop-color:#E63324"/>
		<stop  offset="0.59" style="stop-color:#E63624"/>
		<stop  offset="0.66" style="stop-color:#E63B23"/>
		<stop  offset="0.73" style="stop-color:#E94C21"/>
		<stop  offset="0.78" style="stop-color:#E86312"/>
		<stop  offset="0.84" style="stop-color:#EF7C1E"/>
		<stop  offset="0.9" style="stop-color:#F59D1E"/>
		<stop  offset="0.95" style="stop-color:#F9BB24"/>
		<stop  offset="1" style="stop-color:#FFDB16"/>
		<stop  offset="1" style="stop-color:#FFDC15"/>
	</linearGradient>
	
		<rect x="549.3" y="240.6" style="fill:url(#SVGID_00000154426984928378653650000012521617497971064460_);" width="128.3" height="128.3"/>
	<rect x="556.1" y="247.4" class="st8" width="114.9" height="114.9"/>
	
		<linearGradient id="SVGID_00000117666968269234470900000002272579438179318436_" gradientUnits="userSpaceOnUse" x1="-1445.8594" y1="4012.8066" x2="-1369.2869" y2="3936.2341" gradientTransform="matrix(0.7071 -0.7071 0.7071 0.7071 -1201.5908 -3500.8396)">
		<stop  offset="0" style="stop-color:#116A37"/>
		<stop  offset="4.000000e-02" style="stop-color:#156D38"/>
		<stop  offset="8.000000e-02" style="stop-color:#0A783A"/>
		<stop  offset="0.13" style="stop-color:#148837"/>
		<stop  offset="0.15" style="stop-color:#0F9039"/>
		<stop  offset="0.35" style="stop-color:#38993D"/>
		<stop  offset="0.76" style="stop-color:#61B149"/>
		<stop  offset="1" style="stop-color:#70B74B"/>
	</linearGradient>
	
		<rect x="559.4" y="250.7" style="fill:url(#SVGID_00000117666968269234470900000002272579438179318436_);" width="108.3" height="108.3"/>
	<rect x="564.6" y="256" class="st10" width="97.8" height="97.8"/>
	<path id="leaf-2-2" class="st11" d="M613.5,280.1c-14,1.9-24.7,11.1-24.7,24.7c0,3.3,0.7,6.5,1.8,9.5c-2.6,1.7-6.4,4-8.2,4.7
		c-3.2,1.1-9.7,0.4-10,0.9s1.8,6.4,2.6,6.6s6.6,0.3,10-0.9c2.4-0.8,6.7-3.6,9.2-5.5c4.5,5.7,11.5,9.3,19.3,9.3
		c13.6,0,24.5-8.6,24.5-22.2c0-5.2,1.3-11.9,3.2-16c2.1-4.6,13.1-7.6,13.1-7.6C653.3,280.1,619,279.4,613.5,280.1L613.5,280.1
		L613.5,280.1L613.5,280.1L613.5,280.1z"/>
	<path id="darker-2-2" class="st12" d="M667.7,359H559.4v-59.3c0,0,34.1,5.2,54.1,5.2s54.2-5.2,54.2-5.2V359z"/>
</g>
<g id="steel-2">
	<rect x="48.6" y="246.4" class="st1" width="116.3" height="116.3"/>
	
		<linearGradient id="SVGID_00000034783474573229264290000013782896068682156688_" gradientUnits="userSpaceOnUse" x1="-1805.453" y1="-1428.7161" x2="-1727.9724" y2="-1351.2455" gradientTransform="matrix(0.7071 -0.7071 -0.7071 -0.7071 373.1497 -1927.5892)">
		<stop  offset="0" style="stop-color:#452B1A"/>
		<stop  offset="5.000000e-02" style="stop-color:#583519"/>
		<stop  offset="0.1" style="stop-color:#683E15"/>
		<stop  offset="0.32" style="stop-color:#76481E"/>
		<stop  offset="0.75" style="stop-color:#8C5A31"/>
		<stop  offset="1" style="stop-color:#946137"/>
	</linearGradient>
	
		<rect x="52" y="249.8" style="fill:url(#SVGID_00000034783474573229264290000013782896068682156688_);" width="109.6" height="109.6"/>
	<rect x="57.3" y="255.1" class="st3" width="98.9" height="98.9"/>
	<g>
		<path class="st4" d="M117.1,337.2l2.4-46l-5.6-0.6l-0.8-2h-4.3l-0.8,2l-6.5-0.3v-11.9h7.6l0.6,2.3l3.5,0.5l0.8-2.7h7.7l1.5,1.3
			l1.3-1.3h9.6l1.1,1.9l1.7-1.9l7.3,6l-0.5,4.1c0,0-4-3.7-6-3.7s-4.8-0.1-4.8-0.1l-4,6.4l-2.4,0.2l2.2,45.8L117.1,337.2L117.1,337.2
			z"/>
		<polygon class="st4" points="95.3,276.5 87.5,272.2 87.4,282.9 80.3,282.9 80.3,272.2 71.4,276.3 71.4,289.4 79.7,293.4 
			76.8,337.2 90.1,337.2 87.5,293.4 95.3,289.9 		"/>
	</g>
	<path id="darker-2_00000049902544138085294640000015128927791989562505_" class="st5" d="M161.5,359.3H52v-60
		c0,0,34.5,5.3,54.7,5.3s54.8-5.3,54.8-5.3L161.5,359.3L161.5,359.3z"/>
</g>
<g id="oxIcon">
	
		<radialGradient id="SVGID_00000078767720906726062910000016412985232692811171_" cx="360.5" cy="20.7265" r="96.3775" gradientTransform="matrix(1 0 0 -1 0 129.2616)" gradientUnits="userSpaceOnUse">
		<stop  offset="0" style="stop-color:#F6EE82"/>
		<stop  offset="0.78" style="stop-color:#F6EE82"/>
		<stop  offset="0.91" style="stop-color:#F6EE82"/>
		<stop  offset="0.91" style="stop-color:#F7EE85"/>
		<stop  offset="0.94" style="stop-color:#FAF4B6"/>
		<stop  offset="0.96" style="stop-color:#FDFADA"/>
		<stop  offset="0.97" style="stop-color:#FEFCEF"/>
		<stop  offset="0.99" style="stop-color:#FFFFFD"/>
		<stop  offset="1" style="stop-color:#FFFFFF"/>
	</radialGradient>
	<path style="fill:url(#SVGID_00000078767720906726062910000016412985232692811171_);" d="M456.9,108.5c0,53.2-43.2,96.4-96.4,96.4
		s-96.4-43.2-96.4-96.4s43.2-96.4,96.4-96.4C413.7,12.3,456.9,55.3,456.9,108.5L456.9,108.5z"/>
	<path class="st18" d="M456.7,108.5c0,53.2-43.2,96.4-96.4,96.4s-96.2-43.2-96.2-96.4s43.2-96.4,96.4-96.4S456.7,55.5,456.7,108.5
		L456.7,108.5z"/>
	<path class="st19" d="M445.7,108.5c0,47.1-38.2,85.2-85.2,85.2s-85.2-38.2-85.2-85.2s38.2-85.1,85.2-85.1S445.7,61.5,445.7,108.5z"
		/>
	
		<linearGradient id="SVGID_00000181067774836410576390000007243412090363867271_" gradientUnits="userSpaceOnUse" x1="368.3406" y1="-18.4541" x2="313.5694" y2="36.3271" gradientTransform="matrix(1 0 0 -1 0 129.2616)">
		<stop  offset="0" style="stop-color:#5C1410"/>
		<stop  offset="0.1" style="stop-color:#611912"/>
		<stop  offset="0.26" style="stop-color:#722A22"/>
		<stop  offset="0.48" style="stop-color:#904C43"/>
		<stop  offset="0.73" style="stop-color:#BE887F"/>
		<stop  offset="1" style="stop-color:#FBDEDE"/>
	</linearGradient>
	
		<path style="fill:#E2131B;stroke:url(#SVGID_00000181067774836410576390000007243412090363867271_);stroke-width:4.75;stroke-miterlimit:10;" d="
		M377.3,120.3c0,20.1-16.3,36.4-36.4,36.4s-36.4-16.3-36.4-36.4S320.9,84,340.9,84C361.1,84,377.3,100.3,377.3,120.3z"/>
	
		<linearGradient id="SVGID_00000121971351237910379750000001322088616015833485_" gradientUnits="userSpaceOnUse" x1="407.1531" y1="7.7484" x2="352.3769" y2="62.5246" gradientTransform="matrix(1 0 0 -1 0 129.2616)">
		<stop  offset="0" style="stop-color:#5C1410"/>
		<stop  offset="0.1" style="stop-color:#611912"/>
		<stop  offset="0.26" style="stop-color:#722A22"/>
		<stop  offset="0.48" style="stop-color:#904C43"/>
		<stop  offset="0.73" style="stop-color:#BE887F"/>
		<stop  offset="1" style="stop-color:#FBDEDE"/>
	</linearGradient>
	
		<path style="fill:#E2131B;stroke:url(#SVGID_00000121971351237910379750000001322088616015833485_);stroke-width:4.75;stroke-miterlimit:10;" d="
		M416.1,94.1c0,20.1-16.3,36.4-36.4,36.4s-36.4-16.3-36.4-36.4s16.3-36.4,36.4-36.4C400,57.8,416.1,74.1,416.1,94.1z"/>
</g>
<path d="M360.6,311.7v-13.6h32.7v13.6H360.6z"/>
</svg>
