<?xml version="1.0" encoding="UTF-8"?><svg id="Layer" xmlns="http://www.w3.org/2000/svg" xmlns:xlink="http://www.w3.org/1999/xlink" viewBox="0 0 721 379.91"><defs><style>.cls-1{fill:url(#linear-gradient-2);}.cls-2,.cls-3,.cls-4,.cls-5{fill:#030404;}.cls-3{opacity:.05;}.cls-3,.cls-4,.cls-5{isolation:isolate;}.cls-6{fill:#1a291d;}.cls-7{fill:url(#linear-gradient-6);}.cls-8{fill:#50ae3a;}.cls-9{fill:#fff;opacity:0;stroke:#1d1d1b;}.cls-9,.cls-10,.cls-11{stroke-miterlimit:10;}.cls-12{fill:#3f4b23;}.cls-13{fill:url(#radial-gradient);}.cls-4{opacity:.08;}.cls-14{fill:#175a29;}.cls-15{fill:#4eae3b;}.cls-16{fill:url(#linear-gradient-5);}.cls-17{fill:url(#radial-gradient-2);}.cls-18{fill:#99c32e;}.cls-19{fill:url(#linear-gradient-3);}.cls-10{fill:#10592a;stroke:#1f4524;}.cls-10,.cls-11{stroke-width:3.7px;}.cls-20{fill:url(#linear-gradient);}.cls-11{fill:#0b592f;stroke:#204525;}.cls-21{fill:url(#linear-gradient-4);}.cls-5{opacity:.12;}</style><linearGradient id="linear-gradient" x1="-599.14" y1="1776.66" x2="-522.33" y2="1699.85" gradientTransform="translate(-295.09 -1351.15) rotate(-45)" gradientUnits="userSpaceOnUse"><stop offset="0" stop-color="#1f4d23"/><stop offset=".43" stop-color="#4d7131"/><stop offset="1" stop-color="#99ac44"/></linearGradient><radialGradient id="radial-gradient" cx="537.48" cy="543.05" fx="537.48" fy="543.05" r="49.02" gradientTransform="translate(0 -268.63)" gradientUnits="userSpaceOnUse"><stop offset=".25" stop-color="#99ac44"/><stop offset="1" stop-color="#3e7c31"/></radialGradient><linearGradient id="linear-gradient-2" x1="-658.16" y1="-818" x2="-581.35" y2="-741.18" gradientTransform="translate(223.62 -714.9) rotate(-45) scale(1 -1)" gradientUnits="userSpaceOnUse"><stop offset="0" stop-color="#3f4b23"/><stop offset=".14" stop-color="#4f6027"/><stop offset=".42" stop-color="#6c872b"/><stop offset=".66" stop-color="#84a532"/><stop offset=".86" stop-color="#8fb923"/><stop offset="1" stop-color="#99c32e"/></linearGradient><linearGradient id="linear-gradient-3" x1="-869.35" y1="1506.46" x2="-792.52" y2="1429.65" gradientTransform="translate(-295.09 -1351.15) rotate(-45)" gradientUnits="userSpaceOnUse"><stop offset="0" stop-color="#136b38"/><stop offset=".04" stop-color="#176d39"/><stop offset=".08" stop-color="#0e793b"/><stop offset=".13" stop-color="#188937"/><stop offset=".15" stop-color="#149138"/><stop offset=".35" stop-color="#3a9a3d"/><stop offset=".76" stop-color="#63b24a"/><stop offset="1" stop-color="#70b74b"/></linearGradient><linearGradient id="linear-gradient-4" x1="518.83" y1="450.29" x2="518.83" y2="344.13" gradientTransform="translate(0 -287.64)" gradientUnits="userSpaceOnUse"><stop offset="0" stop-color="#204d23"/><stop offset="1" stop-color="#9aad44"/></linearGradient><radialGradient id="radial-gradient-2" cx="518.58" cy="397.07" fx="491.96" fy="397.07" r="47.33" gradientTransform="translate(0 -287.64)" gradientUnits="userSpaceOnUse"><stop offset=".24" stop-color="#9aad44"/><stop offset=".39" stop-color="#8da344"/><stop offset=".67" stop-color="#67912e"/><stop offset="1" stop-color="#3e7c31"/></radialGradient><linearGradient id="linear-gradient-5" x1="343.8" y1="450.29" x2="343.8" y2="344.23" gradientTransform="translate(0 -287.64)" gradientUnits="userSpaceOnUse"><stop offset="0" stop-color="#3f4b23"/><stop offset=".14" stop-color="#536123"/><stop offset=".42" stop-color="#6c872b"/><stop offset=".66" stop-color="#84a532"/><stop offset=".86" stop-color="#8fb923"/><stop offset="1" stop-color="#99c32e"/></linearGradient><linearGradient id="linear-gradient-6" x1="168.52" y1="183.25" x2="168.52" y2="289.42" gradientTransform="translate(0 345.9) scale(1 -1)" gradientUnits="userSpaceOnUse"><stop offset="0" stop-color="#156c39"/><stop offset=".03" stop-color="#1a6d39"/><stop offset=".05" stop-color="#06733b"/><stop offset=".07" stop-color="#127c3c"/><stop offset=".08" stop-color="#15873c"/><stop offset=".08" stop-color="#179238"/><stop offset=".12" stop-color="#1a9238"/><stop offset=".68" stop-color="#50ae3a"/><stop offset="1" stop-color="#70b74b"/></linearGradient></defs><rect class="cls-9" x=".5" y=".5" width="720" height="378.91"/><path d="M611.2,237.37l-7.8-1.07,1.82-5.56,6.95,3.85c-.64,.64-.96,1.39-.96,2.14v.64h0Zm2.46,2.14l-3.42,7.16-4.7-3.42,5.77-5.45c.64,.96,1.28,1.5,2.35,1.71h0Zm-2.67-12.94h5.77l-1.5,7.8c-.43-.21-.96-.32-1.5-.32s-.96,.11-1.39,.32l-1.39-7.8h0Zm5.56,11.33l5.77,5.45-4.7,3.42-3.31-7.16c.96-.21,1.71-.75,2.25-1.71h0Zm-.75-3.31l6.95-3.85,1.71,5.56-7.8,1.07c0-.32,.11-.43,.11-.53,0-.86-.43-1.6-.96-2.25h0Z"/><g id="animal"><rect class="cls-2" x="479.8" y="216.84" width="115.26" height="115.26"/><rect class="cls-20" x="483.22" y="220.16" width="108.63" height="108.63"/><rect class="cls-13" x="488.46" y="225.4" width="98.04" height="98.04"/><path id="darker" class="cls-4" d="M591.74,328.68h-108.52v-59.45s34.21,5.24,54.21,5.24,54.31-5.24,54.31-5.24v59.45Z"/><path class="cls-14" d="M525.99,246.89c-.32,0-2.99,.32-4.49,2.57-.64,.86-.96,1.71-1.07,2.78-.32,2.03-1.07,5.77,.32,10.26,.75,2.14,1.6,4.7,3.96,6.52,.75,.53,2.25,1.6,4.17,1.39,2.14-.21,3.42-1.71,3.85-2.35,1.82-2.14,1.82-4.6,1.92-7.27,0-1.28,0-5.24-2.03-9.41-1.39-2.78-2.57-3.53-3.1-3.74-1.5-1.07-3.1-.86-3.53-.75h0Z"/><path class="cls-14" d="M551.44,245.28c-.32-.11-2.89-.64-5.13,.86-.86,.53-1.5,1.28-2.03,2.25-1.07,1.71-2.99,4.92-3.21,9.73-.11,2.35-.21,5.03,1.5,7.48,.53,.75,1.6,2.25,3.42,2.67,2.03,.53,3.85-.43,4.49-.86,2.35-1.39,3.42-3.74,4.49-6.2,.43-1.18,1.82-4.92,1.39-9.52-.32-2.99-1.18-4.17-1.71-4.6-1.18-1.28-2.67-1.6-3.21-1.82h0Z"/><path class="cls-14" d="M508.67,261.64c-.32,.11-2.89,.64-4.28,2.99-.53,.96-.75,1.71-.86,2.89-.21,2.03-.53,5.77,1.28,10.16,.96,2.03,1.92,4.49,4.6,6.09,.86,.43,2.35,1.28,4.28,.96,2.14-.32,3.21-2.03,3.74-2.67,1.6-2.35,1.5-4.81,1.28-7.48-.11-1.28-.43-5.13-2.99-9.09-1.6-2.57-2.89-3.21-3.53-3.53-1.5-.64-2.89-.43-3.53-.32h0Z"/><path class="cls-14" d="M566.94,259.39c-.32-.11-2.89-.64-5.13,.96-.86,.64-1.39,1.39-1.92,2.35-.96,1.82-2.99,5.03-2.99,9.84,0,2.35-.11,5.03,1.71,7.38,.53,.75,1.71,2.25,3.53,2.57,2.03,.43,3.74-.53,4.49-.96,2.35-1.39,3.31-3.74,4.28-6.31,.43-1.18,1.71-4.92,1.07-9.52-.32-2.99-1.28-4.17-1.71-4.6-1.39-1.28-2.89-1.6-3.31-1.71h0Z"/><path class="cls-6" d="M566.3,262.39c-.21,0-2.14-.43-3.74,.75-.64,.43-.96,1.07-1.5,1.71-.75,1.39-2.14,3.74-2.25,7.27,0,1.71-.11,3.74,1.28,5.56,.32,.53,1.18,1.71,2.57,1.92,1.6,.32,2.89-.43,3.31-.64,1.71-1.07,2.35-2.78,3.1-4.7,.32-.96,1.28-3.74,.86-7.16-.32-2.25-.96-2.99-1.28-3.42-.86-1.07-2.03-1.28-2.35-1.28h0Z"/><path class="cls-6" d="M550.69,248.38c-.21-.11-2.14-.43-3.74,.53-.64,.43-1.07,.96-1.5,1.71-.86,1.28-2.25,3.64-2.35,7.16-.11,1.71-.21,3.74,1.07,5.56,.32,.53,1.07,1.71,2.46,2.03,1.6,.32,2.89-.32,3.31-.53,1.71-1.07,2.46-2.67,3.21-4.49,.32-.96,1.39-3.64,1.07-7.06-.32-2.25-.96-2.99-1.18-3.42-.86-1.18-1.92-1.5-2.35-1.5h0Z"/><path class="cls-6" d="M526.31,249.88c-.21,0-2.14,.32-3.31,1.82-.43,.64-.64,1.28-.86,2.03-.32,1.5-.86,4.17,.32,7.59,.53,1.6,1.07,3.53,2.99,4.81,.53,.32,1.71,1.07,2.99,.96,1.6-.21,2.46-1.28,2.89-1.71,1.28-1.6,1.39-3.42,1.5-5.35,0-.96,0-3.85-1.6-6.95-1.07-2.03-1.92-2.57-2.35-2.78-1.07-.64-2.14-.53-2.57-.43h0Z"/><path class="cls-6" d="M509.31,264.31c-.21,0-2.25,.43-3.21,2.35-.43,.75-.53,1.39-.64,2.25-.21,1.6-.43,4.49,1.07,7.8,.64,1.6,1.5,3.53,3.53,4.6,.64,.32,1.82,.96,3.21,.75,1.6-.32,2.46-1.6,2.78-2.03,1.18-1.71,1.07-3.74,1.07-5.77-.11-.96-.32-3.96-2.25-7.06-1.18-2.03-2.25-2.46-2.67-2.67-1.39-.43-2.57-.21-2.89-.21h0Z"/><path class="cls-14" d="M538.28,269.23c-1.28,.11-2.67,.11-4.28,.96-1.71,.96-2.78,2.35-3.74,3.53-.86,1.07-.75,1.18-1.92,3.1-1.07,1.71-1.71,2.67-2.67,3.74-1.18,1.39-2.35,2.25-4.49,3.85-2.35,1.71-2.46,1.71-3.1,2.35-1.6,1.82-1.92,3.85-2.25,5.24-.21,1.28-.64,3.74,.32,6.52,.43,1.18,1.28,3.53,3.42,4.49,.86,.32,1.71,.43,3.74,.32,3.42-.21,5.77-.86,7.8-1.28,2.35-.53,4.92-1.07,8.02-1.18,3.74-.11,7.16,.53,8.87,.86,2.03,.32,3.53,.86,6.41,1.07,2.35,.32,3.64,.21,5.02-.32,.86-.32,2.35-.75,3.42-2.03,1.18-1.5,1.28-2.99,1.28-4.7,.11-1.07,.11-3.74-1.5-6.95-.64-1.39-1.18-2.03-3.31-4.6-5.77-7.16-5.99-7.91-8.34-9.84-1.39-1.18-2.78-2.35-4.92-3.42-1.18-.53-4.06-1.92-7.8-1.71h0Z"/><path class="cls-6" d="M538.5,271.58c-1.07,.11-2.35,.11-3.74,.86-1.5,.86-2.35,2.03-3.1,2.99s-.64,.96-1.71,2.78c-.96,1.5-1.5,2.35-2.35,3.21-1.07,1.18-2.03,1.92-3.85,3.31-2.03,1.6-2.14,1.39-2.78,2.14-1.39,1.6-2.57,3.96-2.89,5.13-.21,1.07-.53,3.1,.32,5.56,.32,1.07,1.07,2.99,2.99,3.85,.75,.32,2.35-.11,4.06-.32,2.99-.21,5.03-.75,6.74-1.07,2.03-.43,4.28-.96,6.95-.96,3.21-.11,6.09,.43,7.7,.75,1.71,.32,2.99,.75,5.45,.96,2.03,.21,4.49,.96,5.67,.64,.75-.21,1.92-.75,2.99-1.92,.96-1.18,.75-3.74,.86-5.24,.11-.96-.75-2.99-2.35-5.67-.75-1.28-1.07-1.71-2.89-3.96-4.92-6.09-5.13-6.84-7.16-8.55-1.18-.96-2.35-2.03-4.28-2.99-.86-.43-3.31-1.71-6.63-1.5h0Z"/></g><path d="M421.96,313.39l36.35-77.83h9.3l-36.35,77.83h-9.3Z"/><path d="M409.88,237.37l-7.8-1.07,1.82-5.56,6.95,3.85c-.64,.64-.96,1.39-.96,2.14v.64h0Zm2.57,2.14l-3.42,7.16-4.7-3.42,5.77-5.45c.53,.96,1.28,1.5,2.35,1.71h0Zm-2.67-12.94h5.77l-1.5,7.8c-.43-.21-.96-.32-1.39-.32s-.96,.11-1.39,.32l-1.5-7.8h0Zm5.45,11.33l5.77,5.45-4.7,3.42-3.31-7.16c.96-.21,1.71-.75,2.25-1.71h0Zm-.75-3.31l6.95-3.85,1.71,5.56-7.8,1.07c0-.32,.11-.43,.11-.53,0-.86-.32-1.6-.96-2.25h0Z"/><g id="microbe"><rect class="cls-2" x="279.01" y="216.84" width="115.26" height="115.26"/><rect class="cls-1" x="282.33" y="220.26" width="108.63" height="108.63"/><rect class="cls-18" x="287.67" y="225.5" width="98.04" height="98.04"/><g id="microbes"><polygon class="cls-12" points="337.82 284.31 333.33 284.95 333.86 289.55 329.37 288.8 328.62 293.29 324.45 291.26 322.31 295.43 319 292.22 315.69 295.53 313.55 291.47 309.48 293.82 308.52 289.22 304.03 290.19 304.35 285.59 299.76 285.16 301.47 280.88 297.3 279.07 300.18 275.54 296.55 272.65 300.5 270.09 297.94 266.13 302.32 264.85 301.04 260.46 305.64 260.57 305.74 255.87 310.13 257.26 311.52 252.87 315.37 255.55 318.04 251.7 320.92 255.44 324.56 252.55 326.16 256.94 330.55 255.23 330.76 259.82 335.36 259.61 334.29 264.1 338.78 265.28 336.43 269.23 340.38 271.58 336.96 274.68 340.17 278.21 335.89 280.14 337.82 284.31"/><polygon class="cls-12" points="377.59 265.81 376.2 266.34 376.2 268.38 373.74 267.63 372.14 269.12 369.89 267.52 367.43 268.16 360.7 269.02 357.81 268.7 354.92 263.24 351.61 262.17 348.83 259.18 345.73 257.68 343.16 254.69 340.17 253.19 338.25 249.77 335.68 247.63 334.72 245.07 332.79 243.04 332.69 240.9 331.08 239.08 332.36 237.69 332.47 235.66 333.86 235.66 335.14 234.27 337.07 235.13 340.17 232.13 342.63 233.95 345.41 234.06 348.19 236.09 351.4 236.94 353 241.54 356.63 242.93 359.09 245.82 362.3 247.74 364.44 250.63 367.54 252.77 372.78 255.44 375.24 257.9 375.67 259.93 377.27 261.96 376.84 263.67 377.59 265.81"/><polygon class="cls-12" points="372.57 287.83 372.89 288.37 373.53 289.87 372.24 290.51 372.35 292.22 369.25 293.39 367.97 295.32 364.01 299.17 359.74 301.2 353.85 302.91 350.54 305.05 345.94 306.12 342.09 307.93 337.5 308.79 333.97 310.5 329.48 310.71 325.74 311.89 322.64 311.78 319.43 312.43 317.4 311.89 314.62 312.43 314.4 311.04 313.65 310.71 313.76 309.32 313.55 307.83 315.69 306.76 315.58 303.44 318.89 302.27 321.14 300.34 325.09 298.95 329.59 297.78 333.65 297.14 337.5 295 341.88 294.25 346.05 292.43 350.22 291.9 354.5 290.19 360.8 287.3 364.87 286.34 366.9 286.66 370 286.12 371.07 287.19 372.57 287.83"/></g><path id="darker-2" class="cls-5" d="M390.95,328.68h-108.63v-59.45s34.21,5.24,54.21,5.24,54.31-5.24,54.31-5.24v59.45h.11Z"/></g><path d="M222.56,313.39l36.35-77.83h9.3l-36.35,77.83h-9.3Z"/><g id="plant"><rect class="cls-2" x="97.68" y="216.84" width="115.26" height="115.26"/><rect class="cls-19" x="101.11" y="220.16" width="108.63" height="108.63"/><rect class="cls-15" x="106.34" y="225.4" width="98.04" height="98.04"/><path id="leaf" class="cls-10" d="M155.31,249.67c-14.01,1.92-24.8,11.12-24.8,24.8,0,3.31,.64,6.52,1.82,9.52-2.57,1.71-6.41,4.06-8.23,4.7-3.21,1.07-9.73,.32-9.94,.96s1.82,6.41,2.57,6.63,6.63,.32,9.94-.96c2.35-.86,6.74-3.64,9.19-5.45,4.49,5.77,11.55,9.3,19.46,9.3,13.69,0,24.59-8.55,24.59-22.24,0-5.24,1.28-11.97,3.21-16.04,2.14-4.6,13.15-7.59,13.15-7.59-1.18-3.74-35.5-4.49-40.95-3.64h0Z"/><path id="darker-3" class="cls-3" d="M209.52,328.68H101.11v-59.45s34.21,5.24,54.21,5.24,54.31-5.24,54.31-5.24l-.11,59.45h0Z"/></g><path d="M594.09,99.14v-12.3h12.3v12.3h-12.3Zm0,33.36v-12.3h12.3v12.3h-12.3Z"/><g id="tagAnimal"><path class="cls-2" d="M576.03,109.62c0,31.65-25.66,57.31-57.31,57.31s-57.31-25.66-57.31-57.31,25.66-57.31,57.31-57.31,57.31,25.66,57.31,57.31Z"/><path class="cls-21" d="M571.86,109.62c0,29.29-23.74,53.03-53.03,53.03s-53.03-23.74-53.03-53.03,23.63-53.14,52.92-53.14,53.14,23.74,53.14,53.14h0Z"/><path class="cls-17" d="M566.72,109.62c0,26.41-21.38,48.01-48.01,48.01s-47.9-21.49-47.9-48.01,21.38-48.01,48.01-48.01,47.9,21.49,47.9,48.01h0Z"/><path id="darker-3-2" class="cls-4" d="M571.86,109.62c0-1.07,0-2.14-.11-3.1-10.69,2.99-29.08,6.74-52.92,6.74s-41.7-4.6-52.92-8.55c-.21,1.71-.32,3.31-.32,5.03,0,29.29,23.74,53.03,53.03,53.03s53.24-23.74,53.24-53.14h0Z"/><path class="cls-14" d="M506.32,77.12c-.32,0-2.99,.32-4.49,2.57-.64,.86-.96,1.71-1.07,2.78-.43,2.03-1.07,5.77,.43,10.26,.75,2.14,1.6,4.7,3.96,6.41,.75,.53,2.25,1.6,4.17,1.39,2.14-.21,3.42-1.71,3.85-2.35,1.82-2.14,1.82-4.6,1.92-7.27,0-1.28,0-5.24-2.03-9.41-1.39-2.78-2.57-3.53-3.1-3.74-1.6-.96-3.1-.75-3.64-.64h0Z"/><path class="cls-14" d="M531.87,75.51c-.32-.11-2.89-.64-5.13,.86-.86,.53-1.5,1.28-2.03,2.25-1.07,1.71-3.1,4.92-3.21,9.73-.11,2.35-.21,5.03,1.5,7.48,.53,.75,1.6,2.25,3.42,2.67,2.03,.53,3.85-.43,4.38-.86,2.35-1.39,3.42-3.74,4.38-6.2,.43-1.18,1.82-4.92,1.39-9.52-.32-2.99-1.18-4.17-1.71-4.6-1.07-1.28-2.57-1.6-2.99-1.82h0Z"/><path class="cls-14" d="M489.1,91.98c-.32,.11-2.89,.64-4.28,2.99-.53,.96-.75,1.71-.86,2.89-.21,2.03-.53,5.77,1.28,10.16,.96,2.03,1.92,4.49,4.6,6.09,.86,.43,2.35,1.28,4.28,.96,2.14-.32,3.21-2.03,3.74-2.67,1.6-2.35,1.5-4.81,1.28-7.48-.11-1.28-.43-5.13-2.99-9.09-1.6-2.57-2.89-3.21-3.53-3.53-1.6-.64-2.99-.32-3.53-.32h0Z"/><path class="cls-14" d="M547.27,89.73c-.32-.11-2.89-.64-5.13,.96-.86,.64-1.39,1.39-1.92,2.35-1.07,1.82-2.99,5.03-2.99,9.84,0,2.35-.11,5.03,1.71,7.38,.53,.75,1.71,2.25,3.53,2.57,2.03,.43,3.74-.53,4.38-.96,2.35-1.39,3.31-3.74,4.28-6.31,.43-1.18,1.71-4.92,1.07-9.52-.43-2.99-1.28-4.17-1.71-4.6-1.28-1.18-2.67-1.6-3.21-1.71h0Z"/><path class="cls-6" d="M546.62,92.73c-.21,0-2.14-.43-3.74,.75-.64,.43-1.07,1.07-1.5,1.71-.75,1.39-2.14,3.74-2.25,7.27,0,1.71-.11,3.74,1.28,5.56,.43,.53,1.18,1.71,2.57,1.92,1.6,.32,2.89-.43,3.31-.64,1.71-1.07,2.35-2.78,3.1-4.7,.43-.96,1.28-3.74,.86-7.16-.32-2.25-1.07-2.99-1.28-3.42-.86-1.07-1.92-1.39-2.35-1.28h0Z"/><path class="cls-6" d="M531.12,78.61c-.21-.11-2.14-.43-3.74,.53-.64,.43-1.07,.96-1.5,1.71-.86,1.28-2.25,3.64-2.35,7.16-.11,1.71-.21,3.74,1.07,5.56,.43,.53,1.07,1.71,2.46,2.03,1.6,.32,2.89-.32,3.31-.53,1.71-1.07,2.46-2.67,3.21-4.49,.43-.96,1.39-3.64,1.07-7.06-.32-2.25-.96-2.99-1.18-3.42-.96-1.18-1.92-1.39-2.35-1.5h0Z"/><path class="cls-6" d="M506.74,80.11c-.21,0-2.14,.32-3.31,1.82-.43,.64-.64,1.28-.86,2.03-.32,1.5-.86,4.17,.32,7.59,.53,1.6,1.07,3.53,2.99,4.81,.53,.32,1.71,1.07,3.1,1.07,1.6-.21,2.46-1.28,2.89-1.71,1.28-1.6,1.39-3.42,1.5-5.35,0-.96,0-3.85-1.6-6.95-1.07-2.03-1.92-2.57-2.35-2.78-1.18-.64-2.35-.53-2.67-.53h0Z"/><path class="cls-6" d="M489.74,94.54c-.21,0-2.25,.43-3.21,2.35-.43,.75-.53,1.39-.64,2.25-.21,1.6-.43,4.38,1.07,7.8,.64,1.6,1.5,3.53,3.53,4.6,.64,.32,1.82,.96,3.21,.75,1.6-.32,2.46-1.6,2.78-2.03,1.18-1.71,1.07-3.74,1.07-5.77-.11-.96-.43-3.96-2.25-7.06-1.18-2.03-2.25-2.46-2.67-2.67-1.39-.32-2.57-.21-2.89-.21h0Z"/><path class="cls-14" d="M518.61,99.46c-1.28,.11-2.67,.11-4.28,.96-1.71,.96-2.78,2.35-3.74,3.53-.86,1.07-.75,1.18-1.92,3.1-1.07,1.71-1.71,2.67-2.67,3.74-1.18,1.39-2.35,2.25-4.49,3.85-2.35,1.71-2.46,1.71-3.1,2.35-1.6,1.82-1.92,3.85-2.25,5.24-.21,1.28-.64,3.74,.43,6.52,.43,1.18,1.28,3.53,3.42,4.49,.86,.32,1.71,.43,3.74,.32,3.42-.21,5.77-.86,7.8-1.28,2.35-.53,4.92-1.07,8.02-1.18,3.74-.11,7.16,.53,8.87,.86,2.03,.32,3.53,.86,6.41,1.07,2.35,.32,3.64,.21,5.03-.32,.86-.32,2.35-.75,3.42-2.03,1.18-1.5,1.28-2.99,1.28-4.7,.11-1.07,.11-3.74-1.5-6.95-.64-1.39-1.18-2.03-3.31-4.6-5.77-7.16-5.99-7.91-8.34-9.84-1.39-1.18-2.78-2.35-4.92-3.42-1.18-.53-4.06-1.92-7.91-1.71h0Z"/><path class="cls-6" d="M518.93,101.92c-1.07,.11-2.35,.11-3.74,.86-1.5,.86-2.35,2.03-3.1,2.99-.75,.96-.64,.96-1.71,2.78-.96,1.5-1.5,2.35-2.35,3.21-1.07,1.18-2.03,1.92-3.85,3.31-2.03,1.6-2.14,1.39-2.78,2.14-1.39,1.6-2.57,3.96-2.89,5.13-.21,1.07-.53,3.1,.32,5.56,.43,1.07,1.07,2.99,2.99,3.85,.75,.32,2.35-.11,4.06-.32,2.99-.21,5.03-.75,6.74-1.07,2.03-.43,4.28-.96,6.95-.96,3.21-.11,6.09,.43,7.7,.75,1.71,.32,3.1,.75,5.45,.96,2.03,.21,4.49,.96,5.67,.64,.75-.21,1.92-.75,2.99-1.92,1.07-1.18,.75-3.74,.86-5.24,.11-.96-.75-2.99-2.35-5.67-.75-1.28-1.07-1.71-2.89-3.96-4.92-6.09-5.13-6.84-7.16-8.55-1.18-.96-2.35-2.03-4.28-2.99-.96-.43-3.42-1.71-6.63-1.5h0Z"/></g><path d="M407.31,148.64l36.46-77.94h9.3l-36.35,77.83-9.41,.11h0Z"/><g id="tagMicrobe"><path class="cls-2" d="M401.11,109.62c0,31.65-25.66,57.31-57.31,57.31s-57.31-25.66-57.31-57.31,25.66-57.31,57.31-57.31,57.31,25.77,57.31,57.31Z"/><path class="cls-16" d="M396.84,109.62c0,29.29-23.74,53.03-53.03,53.03s-53.03-23.74-53.03-53.03,23.74-53.03,53.03-53.03,53.03,23.74,53.03,53.03Z"/><path class="cls-18" d="M391.81,109.62c0,26.41-21.38,48.01-48.01,48.01s-48.01-21.49-48.01-48.01,21.38-48.01,48.01-48.01,48.01,21.6,48.01,48.01Z"/><g id="microbes-2"><polygon class="cls-12" points="345.84 115.61 341.56 116.25 342.2 120.52 338.03 119.78 337.39 123.94 333.43 122.13 331.62 125.87 328.41 123.09 325.52 126.19 323.49 122.45 319.64 124.37 318.89 120.31 314.72 121.17 315.04 116.89 310.77 116.57 312.37 112.5 308.42 111.01 311.2 107.69 307.88 104.91 311.41 102.67 309.06 99.03 313.23 97.75 312.05 93.69 316.22 93.79 316.22 89.52 320.39 90.91 321.67 86.74 325.09 89.2 327.66 85.78 330.23 89.2 333.65 86.42 335.14 90.48 339.1 88.98 339.42 93.15 343.59 92.94 342.63 97.22 346.8 98.07 344.55 101.81 348.19 103.95 345.09 106.84 347.97 110.15 344.02 111.86 345.84 115.61"/><polygon class="cls-12" points="382.51 98.71 381.12 99.14 381.12 101.06 378.87 100.42 377.59 101.81 375.34 100.32 373.1 100.85 366.9 101.71 364.33 101.49 361.55 96.25 358.45 95.29 355.99 92.73 353 91.12 350.75 88.34 347.97 87.17 346.16 83.96 343.8 81.93 342.84 79.57 341.24 77.76 341.02 75.73 339.64 74.02 340.7 72.73 340.81 70.91 342.2 70.91 343.38 69.63 345.09 70.38 348.08 67.71 350.33 69.2 352.79 69.42 355.35 71.24 358.35 72.09 359.84 76.37 363.16 77.54 365.29 80.22 368.4 82.14 370.32 84.71 373.31 86.74 378.02 89.2 380.26 91.34 380.69 93.37 382.19 95.08 381.65 96.68 382.51 98.71"/><polygon class="cls-12" points="377.8 118.92 378.12 119.45 378.77 120.74 377.59 121.59 377.59 123.09 374.7 124.05 373.53 125.87 370 129.5 365.94 131.32 360.59 132.82 357.6 134.85 353.32 135.81 349.69 137.42 345.52 138.16 342.31 139.77 338.25 140.09 334.61 141.05 331.83 140.94 328.94 141.59 327.02 141.05 324.45 141.48 324.35 140.41 323.49 140.09 323.7 138.7 323.49 137.42 325.52 136.35 325.31 133.25 328.41 132.28 330.55 130.47 334.08 129.29 338.25 128.11 341.99 127.58 345.52 125.66 349.58 124.91 353.43 123.09 357.17 122.66 361.13 121.17 367.01 118.49 370.64 117.64 372.67 117.85 375.45 117.53 376.52 118.28 377.8 118.92"/></g><path id="ciemniej" class="cls-4" d="M396.84,109.62c0-1.07,0-2.14-.11-3.1-10.69,2.99-29.08,6.74-52.92,6.74s-41.7-4.7-52.82-8.55c-.21,1.71-.32,3.31-.32,5.03,0,29.29,23.74,53.03,53.03,53.03s53.14-23.74,53.14-53.14h0Z"/></g><path d="M234.75,148.64l36.46-77.83h9.3l-36.46,77.83h-9.3Z"/><g id="tagPlant"><path class="cls-2" d="M225.66,109.62c0,31.65-25.66,57.31-57.31,57.31s-57.31-25.55-57.31-57.31,25.66-57.31,57.31-57.31,57.31,25.66,57.31,57.31h0Z"/><path class="cls-7" d="M221.6,109.62c0,29.29-23.74,53.03-53.03,53.03s-53.14-23.63-53.14-53.03,23.63-53.14,52.92-53.14,53.14,23.74,53.24,53.14h0Z"/><path class="cls-8" d="M216.36,109.62c0,26.41-21.49,48.01-48.01,48.01s-47.79-21.6-47.79-48.01,21.49-48.01,48.01-48.01,47.79,21.6,47.79,48.01Z"/><path id="leaf-2" class="cls-11" d="M168.36,88.34c-12.08,1.71-21.49,9.52-21.49,21.38,0,2.99,.53,5.77,1.71,8.23-2.25,1.6-5.45,3.42-7.16,4.06-2.89,.96-8.45,.32-8.55,.75s1.71,5.56,2.25,5.77c.53,.32,5.77,.21,8.55-.75,2.03-.75,5.77-2.99,7.91-4.7,3.85,4.92,9.94,8.13,16.79,8.13,11.87,0,21.38-7.48,21.38-19.35,0-4.6,1.07-10.37,2.78-13.9,1.82-4.06,11.33-6.52,11.33-6.52-.75-3.1-30.58-3.85-35.5-3.1h0Z"/><path id="darker-2-2" class="cls-3" d="M221.6,109.62c0-1.07,0-2.14-.11-3.1-10.69,2.99-29.08,6.74-52.92,6.74s-41.7-4.6-52.82-8.55c-.21,1.71-.32,3.31-.32,5.03,0,29.29,23.74,53.03,53.03,53.03s53.14-23.74,53.14-53.14h0Z"/></g></svg>