<?xml version="1.0" encoding="UTF-8"?><svg id="Layer" xmlns="http://www.w3.org/2000/svg" xmlns:xlink="http://www.w3.org/1999/xlink" viewBox="0 0 721 379.91"><defs><style>.cls-1{fill:url(#linear-gradient-2);}.cls-2,.cls-3{fill:#020303;}.cls-4{fill:url(#linear-gradient-6);}.cls-5{fill:#1f1f1e;}.cls-6{fill:url(#linear-gradient-11);}.cls-7{fill:#fff;opacity:0;stroke:#1d1d1b;}.cls-7,.cls-8,.cls-9{stroke-miterlimit:10;}.cls-8{fill:#07562a;stroke:#1c4421;stroke-width:3.71px;}.cls-10{fill:url(#linear-gradient-10);}.cls-11{fill:url(#Nowy_wzorek_4);opacity:.1;}.cls-11,.cls-3{isolation:isolate;}.cls-9{fill:#010101;stroke:#020303;stroke-width:1.89px;}.cls-12{fill:#44ac36;}.cls-13{fill:url(#linear-gradient-5);}.cls-14{fill:none;}.cls-15{fill:url(#linear-gradient-7);}.cls-16{fill:url(#linear-gradient-9);}.cls-17{fill:url(#linear-gradient-3);}.cls-3{opacity:.05;}.cls-18{fill:url(#linear-gradient);}.cls-19{fill:url(#linear-gradient-4);}.cls-20{fill:url(#linear-gradient-8);}</style><linearGradient id="linear-gradient" x1="349.07" y1="599.77" x2="39.01" y2="289.72" gradientTransform="translate(0 -252.64)" gradientUnits="userSpaceOnUse"><stop offset="0" stop-color="#9e9d9c"/><stop offset=".54" stop-color="#010202"/><stop offset="1" stop-color="#9e9d9c"/></linearGradient><linearGradient id="linear-gradient-2" x1="194.12" y1="595.14" x2="194.12" y2="294.38" gradientTransform="translate(0 -252.64)" gradientUnits="userSpaceOnUse"><stop offset="0" stop-color="#462c1b"/><stop offset="1" stop-color="#b18048"/></linearGradient><linearGradient id="linear-gradient-3" x1="194.05" y1="590.96" x2="194.05" y2="298.41" gradientTransform="translate(0 -252.64)" gradientUnits="userSpaceOnUse"><stop offset="0" stop-color="#946137"/><stop offset="1" stop-color="#805127"/></linearGradient><pattern id="Nowy_wzorek_4" x="0" y="0" width="19.7" height="21.7" patternTransform="translate(43.9 16649.47)" patternUnits="userSpaceOnUse" viewBox="0 0 19.7 21.7"><g><rect class="cls-14" width="19.7" height="21.7"/><g><rect class="cls-14" width="19.7" height="21.7"/><g><rect class="cls-14" width="19.7" height="21.7"/><g><rect class="cls-14" width="19.7" height="21.7"/><g><rect class="cls-14" width="19.7" height="21.7"/><path class="cls-5" d="M16.6,8.7c2.1,2.1,2.1,5.6,0,7.7l-1.2,1.2c-2.1,2.1-5.6,2.1-7.8,0L3.1,13c-2.1-2.1-2.1-5.6,0-7.7l1.2-1.2c2.1-2.1,5.6-2.1,7.7,0l4.6,4.6Z"/></g></g></g></g></g></pattern><linearGradient id="linear-gradient-4" x1="-655.14" y1="1294.16" x2="-578.04" y2="1217.07" gradientTransform="translate(-190.6 -1064.17) rotate(-45)" gradientUnits="userSpaceOnUse"><stop offset="0" stop-color="#0c6835"/><stop offset=".04" stop-color="#0a6b36"/><stop offset=".08" stop-color="#047638"/><stop offset=".13" stop-color="#078738"/><stop offset=".15" stop-color="#058f39"/><stop offset=".35" stop-color="#34993d"/><stop offset=".76" stop-color="#5eaf47"/><stop offset="1" stop-color="#6eb74a"/></linearGradient><linearGradient id="linear-gradient-5" x1="-749.18" y1="1200.12" x2="-672.09" y2="1123.02" xlink:href="#linear-gradient-4"/><linearGradient id="linear-gradient-6" x1="-349.51" y1="1507.73" x2="-272.41" y2="1430.63" xlink:href="#linear-gradient-4"/><linearGradient id="linear-gradient-7" x1="-442.85" y1="1414.39" x2="-365.75" y2="1337.29" xlink:href="#linear-gradient-4"/><linearGradient id="linear-gradient-8" x1="194.59" y1="184.2" x2="194.59" y2="292.7" gradientTransform="translate(0 363.09) scale(1 -1)" gradientUnits="userSpaceOnUse"><stop offset=".16" stop-color="#813912"/><stop offset=".18" stop-color="#975a19"/><stop offset=".22" stop-color="#ae7d21"/><stop offset=".26" stop-color="#c39d27"/><stop offset=".3" stop-color="#d6b92e"/><stop offset=".35" stop-color="#e4cf35"/><stop offset=".41" stop-color="#efe036"/><stop offset=".48" stop-color="#f6e942"/><stop offset=".58" stop-color="#f8ea48"/><stop offset=".86" stop-color="#f7ea47"/><stop offset="1" stop-color="#fcf4f9"/></linearGradient><linearGradient id="linear-gradient-9" x1="194.59" y1="298.48" x2="194.59" y2="132.64" gradientTransform="translate(0 363.09) scale(1 -1)" gradientUnits="userSpaceOnUse"><stop offset=".26" stop-color="#f7ea47"/><stop offset=".86" stop-color="#803612"/></linearGradient><linearGradient id="linear-gradient-10" x1="194.64" y1="185.71" x2="194.64" y2="291.1" gradientTransform="translate(0 363.09) scale(1 -1)" gradientUnits="userSpaceOnUse"><stop offset=".16" stop-color="#803612"/><stop offset=".17" stop-color="#8b461e"/><stop offset=".18" stop-color="#a26a3b"/><stop offset=".2" stop-color="#b78954"/><stop offset=".22" stop-color="#c7a468"/><stop offset=".24" stop-color="#d7bb7a"/><stop offset=".26" stop-color="#e2cc88"/><stop offset=".3" stop-color="#ead891"/><stop offset=".34" stop-color="#eede97"/><stop offset=".46" stop-color="#efe097"/><stop offset=".7" stop-color="#803612"/><stop offset=".73" stop-color="#e6d234"/><stop offset=".74" stop-color="#ead848"/><stop offset=".75" stop-color="#eede6d"/><stop offset=".77" stop-color="#f1e38b"/><stop offset=".79" stop-color="#f7eaa9"/><stop offset=".8" stop-color="#f8edbf"/><stop offset=".83" stop-color="#faf0cf"/><stop offset=".85" stop-color="#fcf2da"/><stop offset=".89" stop-color="#fdf4e1"/><stop offset=".99" stop-color="#fdf5e3"/></linearGradient><linearGradient id="linear-gradient-11" x1="194.59" y1="275.64" x2="194.59" y2="112.98" gradientTransform="translate(0 363.09) scale(1 -1)" gradientUnits="userSpaceOnUse"><stop offset=".26" stop-color="#f7ea47"/><stop offset=".77" stop-color="#803612"/></linearGradient></defs><rect class="cls-7" x=".5" y=".5" width="720" height="378.91"/><g id="prodBg"><rect id="external-border" class="cls-18" x="38.96" y="37.13" width="310.15" height="309.96"/><rect id="internal-border" class="cls-1" x="43.57" y="41.74" width="301.09" height="300.76"/><rect id="bg" class="cls-17" x="47.61" y="45.77" width="292.89" height="292.55"/><rect id="bgPattern" class="cls-11" x="47.61" y="45.77" width="292.89" height="292.55"/></g><g id="plant"><rect class="cls-2" x="203.4" y="201.8" width="115.71" height="115.71"/><rect class="cls-19" x="206.74" y="205.15" width="109.03" height="109.03"/><rect class="cls-12" x="212.03" y="210.43" width="98.45" height="98.45"/><path id="leaf" class="cls-8" d="M261.21,234.75c-14.1,1.95-24.87,11.13-24.87,24.87,0,3.34,.65,6.59,1.86,9.56-2.6,1.76-6.4,4.08-8.26,4.73-3.25,1.11-9.74,.37-10.02,.93s1.86,6.4,2.6,6.68,6.68,.28,10.02-.93c2.41-.84,6.77-3.62,9.28-5.47,4.55,5.75,11.6,9.37,19.49,9.37,13.73,0,24.68-8.63,24.68-22.36,0-5.29,1.3-11.97,3.25-16.15,2.13-4.64,13.18-7.61,13.18-7.61-1.11-3.62-35.63-4.36-41.2-3.62Z"/><path id="darker" class="cls-3" d="M315.77,314.17h-109.03v-59.76s34.33,5.29,54.47,5.29,54.56-5.29,54.56-5.29v59.76Z"/></g><g id="plant-2"><rect class="cls-2" x="70.4" y="201.8" width="115.71" height="115.71"/><rect class="cls-13" x="73.74" y="205.15" width="109.03" height="109.03"/><rect class="cls-12" x="79.03" y="210.43" width="98.45" height="98.45"/><path id="leaf-2" class="cls-8" d="M128.21,234.75c-14.1,1.95-24.87,11.13-24.87,24.87,0,3.34,.65,6.59,1.86,9.56-2.6,1.76-6.4,4.08-8.26,4.73-3.25,1.11-9.74,.37-10.02,.93s1.86,6.4,2.6,6.68,6.68,.28,10.02-.93c2.41-.84,6.77-3.62,9.28-5.47,4.55,5.75,11.6,9.37,19.49,9.37,13.73,0,24.68-8.63,24.68-22.36,0-5.29,1.3-11.97,3.25-16.15,2.13-4.64,13.18-7.61,13.18-7.61-1.11-3.62-35.63-4.36-41.2-3.62Z"/><path id="darker-2" class="cls-3" d="M182.77,314.17H73.74v-59.76s34.33,5.29,54.47,5.29,54.56-5.29,54.56-5.29v59.76Z"/></g><g id="plant-3"><rect class="cls-2" x="570.52" y="136.71" width="115.71" height="115.71"/><rect class="cls-4" x="573.86" y="140.05" width="109.03" height="109.03"/><rect class="cls-12" x="579.15" y="145.34" width="98.45" height="98.45"/><path id="leaf-3" class="cls-8" d="M628.33,169.65c-14.1,1.95-24.87,11.13-24.87,24.87,0,3.34,.65,6.59,1.86,9.56-2.6,1.76-6.4,4.08-8.26,4.73-3.25,1.11-9.74,.37-10.02,.93s1.86,6.4,2.6,6.68,6.68,.28,10.02-.93c2.41-.84,6.77-3.62,9.28-5.47,4.55,5.75,11.6,9.37,19.49,9.37,13.73,0,24.68-8.63,24.68-22.36,0-5.29,1.3-11.97,3.25-16.15,2.13-4.64,13.18-7.61,13.18-7.61-1.11-3.62-35.63-4.36-41.2-3.62Z"/><path id="darker-3" class="cls-3" d="M682.89,249.08h-109.03v-59.76s34.33,5.29,54.47,5.29,54.56-5.29,54.56-5.29v59.76Z"/></g><g id="plant-4"><rect class="cls-2" x="438.52" y="136.71" width="115.71" height="115.71"/><rect class="cls-15" x="441.86" y="140.05" width="109.03" height="109.03"/><rect class="cls-12" x="447.15" y="145.34" width="98.45" height="98.45"/><path id="leaf-4" class="cls-8" d="M496.33,169.65c-14.1,1.95-24.87,11.13-24.87,24.87,0,3.34,.65,6.59,1.86,9.56-2.6,1.76-6.4,4.08-8.26,4.73-3.25,1.11-9.74,.37-10.02,.93s1.86,6.4,2.6,6.68,6.68,.28,10.02-.93c2.41-.84,6.77-3.62,9.28-5.47,4.55,5.75,11.6,9.37,19.49,9.37,13.73,0,24.68-8.63,24.68-22.36,0-5.29,1.3-11.97,3.25-16.15,2.13-4.64,13.18-7.61,13.18-7.61-1.11-3.62-35.63-4.36-41.2-3.62Z"/><path id="darker-4" class="cls-3" d="M550.89,249.08h-109.03v-59.76s34.33,5.29,54.47,5.29,54.56-5.29,54.56-5.29v59.76Z"/></g><g id="mln"><polygon id="obram_czarne" class="cls-9" points="154.43 67.08 136.99 84.52 136.99 164.75 154.43 182.18 234.75 182.18 252.09 164.75 252.09 84.52 234.75 67.08 154.43 67.08"/><polygon id="obram_zolte" class="cls-20" points="156.69 70.38 140.38 86.79 140.38 162.48 156.69 178.89 232.39 178.89 248.79 162.48 248.79 86.79 232.39 70.38 156.69 70.38"/><polygon id="tlo_wew" class="cls-16" points="157.82 71.99 141.89 87.92 141.89 161.35 157.82 177.28 231.35 177.28 247.28 161.35 247.28 87.92 231.35 71.99 157.82 71.99"/><path id="obram_skosne" class="cls-10" d="M239.65,144.95c-2.92,0-5.28-2.36-5.28-5.28v-30.07c0-2.92,2.36-5.28,5.28-5.28h7.54v-16.4l-15.84-15.93h-16.5v7.54c0,2.92-2.36,5.28-5.28,5.28h-30.07c-2.92,0-5.28-2.36-5.28-5.28v-7.54h-16.4l-15.93,15.93v16.5h7.54c2.92,0,5.28,2.36,5.28,5.28v30.07c0,2.92-2.36,5.28-5.28,5.28h-7.54v16.4l15.93,15.93h16.5v-7.54c0-2.92,2.36-5.28,5.28-5.28h30.07c2.92,0,5.28,2.36,5.28,5.28v7.54h16.5l15.93-15.93v-16.5h-7.73Z"/><path id="tlo_zew" class="cls-6" d="M239.36,146.74c-3.58,0-6.5-3.58-6.5-7.16v-29.88c0-3.58,2.92-7.16,6.5-7.16h6.13v-13.39l-15.46-15.37h-13.29v6.13c0,3.58-3.58,6.5-7.16,6.5h-29.88c-3.58,0-7.16-2.92-7.16-6.5v-6.13h-13.48l-15.37,15.37v13.39h6.13c3.58,0,6.5,3.58,6.5,7.16v29.88c0,3.58-2.92,7.16-6.5,7.16h-6.13v13.39l15.37,15.37h13.39v-6.13c0-3.58,3.58-6.5,7.16-6.5h29.79c3.58,0,7.16,2.92,7.16,6.5v6.13h13.39l15.37-15.37v-13.39h-5.94Z"/></g><path d="M178.33,149.8v-8c3.05-4.1,6.01-7.41,8.88-9.91l4.13-3.66c2.96-2.62,5.4-5.21,7.34-7.78,1.93-2.56,2.9-5.25,2.9-8.05,0-2.53-.82-4.48-2.44-5.86-1.63-1.38-3.83-2.07-6.61-2.07-3.69,0-7.99,1.25-12.89,3.76v-7.42c5.14-1.91,10.12-2.87,14.92-2.87,5.3,0,9.59,1.27,12.85,3.81,3.27,2.54,4.9,5.94,4.9,10.2,0,2.69-.69,5.22-2.07,7.6-1.38,2.38-4.24,5.33-8.59,8.84l-3.41,2.73c-1.5,1.21-3.14,2.76-4.93,4.65-1.78,1.89-2.96,3.9-3.53,6.02h22.32v8h-33.77Z"/></svg>