<?xml version="1.0" encoding="UTF-8"?><svg id="Layer" xmlns="http://www.w3.org/2000/svg" xmlns:xlink="http://www.w3.org/1999/xlink" viewBox="0 0 721 379.91"><defs><style>.cls-1{fill:url(#linear-gradient-2);}.cls-2{fill:url(#linear-gradient-14);}.cls-3{fill:url(#linear-gradient-6);}.cls-4{fill:#1f1f1e;}.cls-5{fill:url(#linear-gradient-4);opacity:.4;}.cls-5,.cls-6,.cls-7{isolation:isolate;}.cls-8{stroke:#030304;stroke-width:.93px;}.cls-8,.cls-9{fill:#fff;}.cls-8,.cls-9,.cls-10{stroke-miterlimit:10;}.cls-11{fill:url(#linear-gradient-11);}.cls-9{opacity:0;stroke:#1d1d1b;}.cls-6{fill:url(#Nowy_wzorek_3);opacity:.1;}.cls-12{fill:url(#linear-gradient-10);}.cls-7{opacity:.15;}.cls-7,.cls-13{fill:#030304;}.cls-14{fill:url(#linear-gradient-5);}.cls-15{fill:none;}.cls-16{fill:url(#linear-gradient-7);}.cls-17{fill:url(#linear-gradient-9);}.cls-18{fill:#7f358b;}.cls-19{fill:url(#linear-gradient-3);}.cls-20{fill:url(#linear-gradient);}.cls-21,.cls-10{fill:#010101;}.cls-22{fill:url(#linear-gradient-8);}.cls-23{fill:url(#linear-gradient-12);}.cls-24{fill:url(#linear-gradient-13);}.cls-10{stroke:#020303;stroke-width:1.85px;}</style><linearGradient id="linear-gradient" x1="533.43" y1="615.52" x2="187.57" y2="269.66" gradientTransform="translate(0 -252.64)" gradientUnits="userSpaceOnUse"><stop offset="0" stop-color="#9e9d9c"/><stop offset=".54" stop-color="#010202"/><stop offset="1" stop-color="#9e9d9c"/></linearGradient><linearGradient id="linear-gradient-2" x1="360.58" y1="594.29" x2="360.58" y2="290.92" gradientTransform="translate(0 -252.64)" gradientUnits="userSpaceOnUse"><stop offset="0" stop-color="#462c1b"/><stop offset="1" stop-color="#b18048"/></linearGradient><linearGradient id="linear-gradient-3" x1="360.51" y1="590.07" x2="360.51" y2="294.98" gradientTransform="translate(0 -252.64)" gradientUnits="userSpaceOnUse"><stop offset="0" stop-color="#946137"/><stop offset="1" stop-color="#805127"/></linearGradient><pattern id="Nowy_wzorek_3" x="0" y="0" width="19.7" height="21.7" patternTransform="translate(43.9 16649.47)" patternUnits="userSpaceOnUse" viewBox="0 0 19.7 21.7"><g><rect class="cls-15" width="19.7" height="21.7"/><g><rect class="cls-15" width="19.7" height="21.7"/><g><rect class="cls-15" width="19.7" height="21.7"/><g><rect class="cls-15" width="19.7" height="21.7"/><g><rect class="cls-15" width="19.7" height="21.7"/><path class="cls-4" d="M16.6,8.7c2.1,2.1,2.1,5.6,0,7.7l-1.2,1.2c-2.1,2.1-5.6,2.1-7.8,0L3.1,13c-2.1-2.1-2.1-5.6,0-7.7l1.2-1.2c2.1-2.1,5.6-2.1,7.7,0l4.6,4.6Z"/></g></g></g></g></g></pattern><linearGradient id="linear-gradient-4" x1="460" y1="190.16" x2="460" y2="326.33" gradientTransform="translate(0 380.09) scale(1 -1)" gradientUnits="userSpaceOnUse"><stop offset="0" stop-color="#ffdc15"/><stop offset="0" stop-color="#ffdb16"/><stop offset=".05" stop-color="#f9bb24"/><stop offset=".1" stop-color="#f59d1e"/><stop offset=".16" stop-color="#ef7c1e"/><stop offset=".22" stop-color="#e86312"/><stop offset=".27" stop-color="#e94c21"/><stop offset=".34" stop-color="#e63b23"/><stop offset=".41" stop-color="#e63624"/><stop offset=".5" stop-color="#e63324"/><stop offset=".59" stop-color="#e63624"/><stop offset=".66" stop-color="#e63b23"/><stop offset=".73" stop-color="#e94c21"/><stop offset=".78" stop-color="#e86312"/><stop offset=".84" stop-color="#ef7c1e"/><stop offset=".9" stop-color="#f59d1e"/><stop offset=".95" stop-color="#f9bb24"/><stop offset="1" stop-color="#ffdb16"/><stop offset="1" stop-color="#ffdc15"/></linearGradient><linearGradient id="linear-gradient-5" x1="460" y1="193.29" x2="460" y2="323.2" xlink:href="#linear-gradient-4"/><linearGradient id="linear-gradient-6" x1="460.04" y1="187.96" x2="460.04" y2="294.61" gradientTransform="translate(0 363.09) scale(1 -1)" gradientUnits="userSpaceOnUse"><stop offset=".16" stop-color="#813912"/><stop offset=".18" stop-color="#975a19"/><stop offset=".22" stop-color="#ae7d21"/><stop offset=".26" stop-color="#c39d27"/><stop offset=".3" stop-color="#d6b92e"/><stop offset=".35" stop-color="#e4cf35"/><stop offset=".41" stop-color="#efe036"/><stop offset=".48" stop-color="#f6e942"/><stop offset=".58" stop-color="#f8ea48"/><stop offset=".86" stop-color="#f7ea47"/><stop offset="1" stop-color="#fcf4f9"/></linearGradient><linearGradient id="linear-gradient-7" x1="460.04" y1="300.29" x2="460.04" y2="137.28" gradientTransform="translate(0 363.09) scale(1 -1)" gradientUnits="userSpaceOnUse"><stop offset=".26" stop-color="#f7ea47"/><stop offset=".86" stop-color="#803612"/></linearGradient><linearGradient id="linear-gradient-8" x1="460.09" y1="189.44" x2="460.09" y2="293.04" gradientTransform="translate(0 363.09) scale(1 -1)" gradientUnits="userSpaceOnUse"><stop offset=".16" stop-color="#803612"/><stop offset=".17" stop-color="#8b461e"/><stop offset=".18" stop-color="#a26a3b"/><stop offset=".2" stop-color="#b78954"/><stop offset=".22" stop-color="#c7a468"/><stop offset=".24" stop-color="#d7bb7a"/><stop offset=".26" stop-color="#e2cc88"/><stop offset=".3" stop-color="#ead891"/><stop offset=".34" stop-color="#eede97"/><stop offset=".46" stop-color="#efe097"/><stop offset=".7" stop-color="#803612"/><stop offset=".73" stop-color="#e6d234"/><stop offset=".74" stop-color="#ead848"/><stop offset=".75" stop-color="#eede6d"/><stop offset=".77" stop-color="#f1e38b"/><stop offset=".79" stop-color="#f7eaa9"/><stop offset=".8" stop-color="#f8edbf"/><stop offset=".83" stop-color="#faf0cf"/><stop offset=".85" stop-color="#fcf2da"/><stop offset=".89" stop-color="#fdf4e1"/><stop offset=".99" stop-color="#fdf5e3"/></linearGradient><linearGradient id="linear-gradient-9" x1="460.04" y1="277.84" x2="460.04" y2="117.95" gradientTransform="translate(0 363.09) scale(1 -1)" gradientUnits="userSpaceOnUse"><stop offset=".26" stop-color="#f7ea47"/><stop offset=".77" stop-color="#803612"/></linearGradient><linearGradient id="linear-gradient-10" x1="-512.14" y1="1243.39" x2="-434.34" y2="1165.57" gradientTransform="translate(-191.13 -1064.43) rotate(-45)" gradientUnits="userSpaceOnUse"><stop offset="0" stop-color="#1d1427"/><stop offset=".24" stop-color="#372348"/><stop offset=".49" stop-color="#573b6c"/><stop offset=".71" stop-color="#72508c"/><stop offset=".89" stop-color="#835ca0"/><stop offset="1" stop-color="#8963a7"/></linearGradient><linearGradient id="linear-gradient-11" x1="391.96" y1="51.7" x2="391.96" y2="158.35" xlink:href="#linear-gradient-6"/><linearGradient id="linear-gradient-12" x1="391.96" y1="164.03" x2="391.96" y2="1.02" xlink:href="#linear-gradient-7"/><linearGradient id="linear-gradient-13" x1="392" y1="53.18" x2="392" y2="156.78" xlink:href="#linear-gradient-8"/><linearGradient id="linear-gradient-14" x1="391.96" y1="141.59" x2="391.96" y2="-18.31" xlink:href="#linear-gradient-9"/></defs><rect class="cls-9" x=".5" y=".5" width="720" height="378.91"/><g><g id="prodBg"><rect id="external-border" class="cls-20" x="170.96" y="33.63" width="379.08" height="312.65"/><rect id="internal-border" class="cls-1" x="175.61" y="38.28" width="369.94" height="303.38"/><rect id="bg" class="cls-19" x="179.68" y="42.35" width="361.67" height="295.09"/><rect id="bgPattern" class="cls-6" x="179.68" y="42.35" width="361.67" height="295.09"/></g><g id="mln"><polygon id="obram_czarne" class="cls-5" points="412.54 53.76 391.91 74.39 391.91 169.31 412.54 189.93 507.57 189.93 528.08 169.31 528.08 74.39 507.57 53.76 412.54 53.76"/><polygon id="obram_czarne-2" class="cls-14" points="414.73 56.89 395.05 76.58 395.05 167.12 414.73 186.81 505.38 186.81 524.96 167.12 524.96 76.58 505.38 56.89 414.73 56.89"/><polygon id="obram_czarne-2" class="cls-10" points="420.57 65.23 403.43 82.37 403.43 161.23 420.57 178.37 499.52 178.37 516.57 161.23 516.57 82.37 499.52 65.23 420.57 65.23"/><polygon id="obram_zolte" class="cls-3" points="422.79 68.47 406.76 84.6 406.76 159 422.79 175.13 497.2 175.13 513.32 159 513.32 84.6 497.2 68.47 422.79 68.47"/><polygon id="tlo_wew" class="cls-16" points="423.91 70.05 408.25 85.71 408.25 157.89 423.91 173.55 496.18 173.55 511.84 157.89 511.84 85.71 496.18 70.05 423.91 70.05"/><path id="obram_skosne" class="cls-22" d="M504.33,141.77c-2.87,0-5.19-2.32-5.19-5.19v-29.56c0-2.87,2.32-5.19,5.19-5.19h7.41v-16.12l-15.57-15.66h-16.22v7.41c0,2.87-2.32,5.19-5.19,5.19h-29.56c-2.87,0-5.19-2.32-5.19-5.19v-7.41h-16.12l-15.66,15.66v16.22h7.41c2.87,0,5.19,2.32,5.19,5.19v29.56c0,2.87-2.32,5.19-5.19,5.19h-7.41v16.12l15.66,15.66h16.22v-7.41c0-2.87,2.32-5.19,5.19-5.19h29.56c2.87,0,5.19,2.32,5.19,5.19v7.41h16.22l15.66-15.66v-16.22h-7.6Z"/><path id="tlo_zew" class="cls-17" d="M504.06,143.53c-3.52,0-6.39-3.52-6.39-7.04v-29.37c0-3.52,2.87-7.04,6.39-7.04h6.02v-13.16l-15.2-15.1h-13.07v6.02c0,3.52-3.52,6.39-7.04,6.39h-29.37c-3.52,0-7.04-2.87-7.04-6.39v-6.02h-13.25l-15.1,15.1v13.16h6.02c3.52,0,6.39,3.52,6.39,7.04v29.37c0,3.52-2.87,7.04-6.39,7.04h-6.02v13.16l15.1,15.1h13.16v-6.02c0-3.52,3.52-6.39,7.04-6.39h29.28c3.52,0,7.04,2.87,7.04,6.39v6.02h13.16l15.1-15.1v-13.16h-5.84Z"/></g><path d="M443.3,147.77v-8.01c3.05-4.11,6.02-7.41,8.89-9.92l4.14-3.66c2.96-2.62,5.41-5.22,7.34-7.79,1.93-2.57,2.9-5.25,2.9-8.06,0-2.53-.82-4.49-2.45-5.87-1.63-1.38-3.84-2.07-6.62-2.07-3.7,0-8,1.25-12.9,3.76v-7.43c5.15-1.92,10.13-2.87,14.94-2.87,5.31,0,9.6,1.27,12.87,3.82,3.27,2.54,4.91,5.95,4.91,10.22,0,2.69-.69,5.23-2.07,7.62s-4.25,5.33-8.6,8.85l-3.42,2.74c-1.5,1.21-3.15,2.76-4.93,4.66s-2.97,3.9-3.53,6.02h22.35v8.01h-33.81Z"/><path class="cls-21" d="M208.55,128.71v-13.7h32.87v13.7h-32.87Z"/><path class="cls-21" d="M275.42,286.57v-24.43h-24.43v-10.03h24.43v-24.43h10.03v24.43h24.43v10.03h-24.43v24.43h-10.03Z"/><g id="energy-2"><rect class="cls-13" x="267.56" y="63.52" width="116.74" height="116.74"/><rect class="cls-12" x="270.92" y="66.88" width="110.02" height="110.02"/><polygon class="cls-18" points="375.61 72.21 375.61 171.57 276.26 171.57 276.26 72.21 375.61 72.21"/><polygon class="cls-8" points="313.8 110.52 346.58 90.21 329.07 115.58 338.34 130.66 306.12 150.98 322.32 125.68 313.8 110.52"/><path id="darker-2" class="cls-7" d="M380.94,176.9h-110.02v-60.29s34.64,5.33,54.96,5.33,55.06-5.33,55.06-5.33v60.29Z"/></g><g id="mln-2"><polygon id="obram_czarne-3" class="cls-10" points="352.48 201.49 335.34 218.63 335.34 297.48 352.48 314.63 431.43 314.63 448.48 297.48 448.48 218.63 431.43 201.49 352.48 201.49"/><polygon id="obram_zolte-2" class="cls-11" points="354.71 204.73 338.68 220.85 338.68 295.26 354.71 311.38 429.11 311.38 445.24 295.26 445.24 220.85 429.11 204.73 354.71 204.73"/><polygon id="tlo_wew-2" class="cls-23" points="355.82 206.31 340.16 221.97 340.16 294.15 355.82 309.81 428.09 309.81 443.75 294.15 443.75 221.97 428.09 206.31 355.82 206.31"/><path id="obram_skosne-2" class="cls-24" d="M436.25,278.03c-2.87,0-5.19-2.32-5.19-5.19v-29.56c0-2.87,2.32-5.19,5.19-5.19h7.41v-16.12l-15.57-15.66h-16.22v7.41c0,2.87-2.32,5.19-5.19,5.19h-29.56c-2.87,0-5.19-2.32-5.19-5.19v-7.41h-16.12l-15.66,15.66v16.22h7.41c2.87,0,5.19,2.32,5.19,5.19v29.56c0,2.87-2.32,5.19-5.19,5.19h-7.41v16.12l15.66,15.66h16.22v-7.41c0-2.87,2.32-5.19,5.19-5.19h29.56c2.87,0,5.19,2.32,5.19,5.19v7.41h16.22l15.66-15.66v-16.22h-7.6Z"/><path id="tlo_zew-2" class="cls-2" d="M435.97,279.79c-3.52,0-6.39-3.52-6.39-7.04v-29.37c0-3.52,2.87-7.04,6.39-7.04h6.02v-13.16l-15.2-15.1h-13.07v6.02c0,3.52-3.52,6.39-7.04,6.39h-29.37c-3.52,0-7.04-2.87-7.04-6.39v-6.02h-13.25l-15.1,15.1v13.16h6.02c3.52,0,6.39,3.52,6.39,7.04v29.37c0,3.52-2.87,7.04-6.39,7.04h-6.02v13.16l15.1,15.1h13.16v-6.02c0-3.52,3.52-6.39,7.04-6.39h29.28c3.52,0,7.04,2.87,7.04,6.39v6.02h13.16l15.1-15.1v-13.16h-5.84Z"/></g><path d="M375.22,284.03v-8.01c3.05-4.11,6.02-7.41,8.89-9.92l4.14-3.66c2.96-2.62,5.41-5.22,7.34-7.79,1.93-2.57,2.9-5.25,2.9-8.06,0-2.53-.82-4.49-2.45-5.87-1.63-1.38-3.84-2.07-6.62-2.07-3.7,0-8,1.25-12.9,3.76v-7.43c5.15-1.92,10.13-2.87,14.94-2.87,5.31,0,9.6,1.27,12.87,3.82,3.27,2.54,4.91,5.95,4.91,10.22,0,2.69-.69,5.23-2.07,7.62s-4.25,5.33-8.6,8.85l-3.42,2.74c-1.5,1.21-3.15,2.76-4.93,4.66s-2.97,3.9-3.53,6.02h22.35v8.01h-33.81Z"/></g></svg>