<?xml version="1.0" encoding="UTF-8"?><svg id="Layer" xmlns="http://www.w3.org/2000/svg" xmlns:xlink="http://www.w3.org/1999/xlink" viewBox="0 0 721 379.91"><defs><style>.cls-1{fill:url(#linear-gradient-2);}.cls-2{fill:#462c1b;}.cls-3{fill:#946137;}.cls-4{fill:#1f1f1e;}.cls-5{fill:#fff;opacity:0;stroke:#1d1d1b;stroke-miterlimit:10;}.cls-6{opacity:.08;}.cls-6,.cls-7{isolation:isolate;}.cls-6,.cls-8{fill:#030304;}.cls-7{fill:url(#Nowy_wzorek_3);opacity:.1;}.cls-9{fill:none;}.cls-10{fill:url(#linear-gradient-3);}.cls-11{fill:url(#linear-gradient);}.cls-12{fill:url(#linear-gradient-4);}.cls-13{fill:#010101;}</style><linearGradient id="linear-gradient" x1="549.64" y1="-152.71" x2="373.07" y2="23.85" gradientTransform="translate(0 127.45) scale(1 -1)" gradientUnits="userSpaceOnUse"><stop offset="0" stop-color="#9e9d9c"/><stop offset=".54" stop-color="#010202"/><stop offset="1" stop-color="#9e9d9c"/></linearGradient><linearGradient id="linear-gradient-2" x1="461.43" y1="-147.69" x2="461.43" y2="18.8" gradientTransform="translate(0 127.45) scale(1 -1)" gradientUnits="userSpaceOnUse"><stop offset="0" stop-color="#462c1b"/><stop offset="1" stop-color="#b18048"/></linearGradient><linearGradient id="linear-gradient-3" x1="461.34" y1="-143.47" x2="461.34" y2="14.74" gradientTransform="translate(0 127.45) scale(1 -1)" gradientUnits="userSpaceOnUse"><stop offset="0" stop-color="#946137"/><stop offset="1" stop-color="#805127"/></linearGradient><pattern id="Nowy_wzorek_3" x="0" y="0" width="19.7" height="21.7" patternTransform="translate(-334.52 -32363.15) scale(1 -1)" patternUnits="userSpaceOnUse" viewBox="0 0 19.7 21.7"><g><rect class="cls-9" width="19.7" height="21.7"/><g><rect class="cls-9" width="19.7" height="21.7"/><g><rect class="cls-9" width="19.7" height="21.7"/><g><rect class="cls-9" width="19.7" height="21.7"/><g><rect class="cls-9" width="19.7" height="21.7"/><g><rect class="cls-9" width="19.7" height="21.7"/><path class="cls-4" d="M16.6,13c2.1-2.1,2.1-5.6,0-7.7l-1.2-1.2c-2.1-2.1-5.6-2.1-7.8,0L3.1,8.7c-2.1,2.1-2.1,5.6,0,7.7l1.2,1.2c2.1,2.1,5.6,2.1,7.7,0l4.6-4.6Z"/></g></g></g></g></g></g></pattern><linearGradient id="linear-gradient-4" x1="461.69" y1="568.93" x2="461.69" y2="460.9" gradientTransform="translate(0 -323.36)" gradientUnits="userSpaceOnUse"><stop offset="0" stop-color="#462c1b"/><stop offset=".03" stop-color="#472d1b"/><stop offset=".05" stop-color="#4c2e19"/><stop offset=".07" stop-color="#563519"/><stop offset=".08" stop-color="#653e18"/><stop offset=".08" stop-color="#683f16"/><stop offset=".31" stop-color="#77491f"/><stop offset=".75" stop-color="#8d5b32"/><stop offset="1" stop-color="#946137"/></linearGradient></defs><rect class="cls-5" x=".5" y=".5" width="720" height="378.91"/><g id="prodBg"><rect id="external-border" class="cls-11" x="372.66" y="104.01" width="177.38" height="175.75"/><rect id="internal-border" class="cls-1" x="377.31" y="108.65" width="168.25" height="166.49"/><rect id="bg" class="cls-10" x="381.34" y="112.71" width="160" height="158.21"/><rect id="bgPattern" class="cls-7" x="381.34" y="112.71" width="160" height="158.21"/></g><g id="tagBuilding"><path class="cls-8" d="M519.87,191.61c0,32.14-26.14,58.28-58.28,58.28s-58.28-26.14-58.28-58.28,26.14-58.28,58.28-58.28,58.28,26.04,58.28,58.28Z"/><path class="cls-12" d="M515.66,191.61c0,29.8-24.17,53.97-53.97,53.97s-53.97-24.17-53.97-53.97,24.07-54.07,53.86-54.07,54.07,24.17,54.07,54.07h0Z"/><path class="cls-3" d="M510.38,191.61c0,26.89-21.8,48.79-48.79,48.79s-48.69-21.9-48.69-48.79,21.8-48.79,48.79-48.79,48.69,21.8,48.69,48.79Z"/><polygon class="cls-2" points="501.83 207.12 421.45 207.12 421.45 185.12 461.59 163.12 501.83 185.12 501.83 207.12"/><path id="darker" class="cls-6" d="M515.66,191.61c0-1.14,0-2.17-.1-3.2-10.9,3-29.62,6.86-53.86,6.86s-42.41-4.79-53.76-8.75c-.18,1.69-.28,3.38-.28,5.07,0,29.8,24.17,53.97,53.97,53.97s54.07-24.17,54.07-53.97h-.03v.03Z"/></g><g><path class="cls-13" d="M200.26,204.85c-1.42,.62-2.66,1.05-3.71,1.28-1.05,.23-2.25,.42-3.59,.58-1.34,.15-2.66,.23-3.97,.23-5.68,0-9.92-1.6-12.72-4.81s-4.2-7.29-4.2-12.26,1.4-9.09,4.19-12.28c2.79-3.19,7.17-4.79,13.15-4.79,3.53,0,7.05,.42,10.55,1.25v5.3c-1.68-.59-3.06-1.01-4.13-1.29-1.07-.27-2.08-.47-3.04-.6-.96-.13-1.92-.2-2.87-.2-3.73,0-6.45,1.2-8.13,3.6-1.69,2.4-2.53,5.38-2.53,8.92,0,3.72,.96,6.73,2.87,9.03,1.91,2.3,4.76,3.45,8.54,3.45,3.15,0,6.35-.8,9.6-2.4v4.99Z"/><path class="cls-13" d="M220.63,206.93c-3.38,0-6.33-.7-8.83-2.1-2.5-1.4-4.41-3.41-5.71-6.04-1.3-2.63-1.96-5.61-1.96-8.93s.65-6.28,1.96-8.92,3.21-4.65,5.74-6.05c2.52-1.4,5.46-2.1,8.81-2.1s6.27,.7,8.79,2.1c2.52,1.4,4.43,3.42,5.73,6.05s1.96,5.61,1.96,8.92-.65,6.3-1.96,8.93c-1.3,2.63-3.2,4.64-5.7,6.04-2.5,1.4-5.44,2.1-8.82,2.1Zm0-4.46c3.13,0,5.47-1.28,7-3.84,1.53-2.56,2.3-5.49,2.3-8.79s-.77-6.24-2.31-8.79c-1.54-2.54-3.87-3.82-6.99-3.82s-5.47,1.27-7.01,3.82c-1.54,2.54-2.31,5.47-2.31,8.79s.77,6.23,2.3,8.79c1.53,2.56,3.87,3.84,7.02,3.84Z"/><path class="cls-13" d="M243.2,206.12v-32.52h11.18c3.25,0,5.54,.34,6.86,1.02,1.32,.68,2.32,1.64,2.99,2.89s1.01,2.81,1.01,4.7c0,3.63-1.15,6.4-3.44,8.31-2.29,1.9-5.36,2.86-9.21,2.86h-2.76v12.74h-6.64Zm6.64-17.21h1.27c2.49,0,4.32-.6,5.48-1.79,1.17-1.19,1.75-2.6,1.75-4.21,0-.91-.18-1.73-.55-2.47-.37-.74-.94-1.32-1.71-1.75-.77-.42-2-.64-3.7-.64h-2.54v10.85Z"/><path class="cls-13" d="M278.53,206.12v-13.62l-10.92-18.9h7.48l7.93,13.73,8.27-13.73h5.36l-11.36,18.85v13.67h-6.77Z"/><path class="cls-13" d="M312.5,206.12l12.66-32.52h6.78l12.66,32.52h-6.95l-3.38-8.68h-13.46l-3.38,8.68h-4.93Zm9.99-13.01h10.09l-5.04-12.96-5.05,12.96Z"/></g></svg>