<?xml version="1.0" encoding="UTF-8"?><svg id="Layer" xmlns="http://www.w3.org/2000/svg" xmlns:xlink="http://www.w3.org/1999/xlink" viewBox="0 0 721 379.91"><defs><style>.cls-1{fill:url(#linear-gradient-2);}.cls-2{fill:#342218;}.cls-3,.cls-4,.cls-5{fill:#030404;}.cls-4{opacity:.05;}.cls-4,.cls-5,.cls-6,.cls-7,.cls-8{isolation:isolate;}.cls-9{fill:url(#linear-gradient-6);}.cls-10{fill:#946137;}.cls-5,.cls-6{opacity:.15;}.cls-11{fill:#1f1f1e;}.cls-12{fill:url(#linear-gradient-11);}.cls-13{opacity:0;stroke:#1d1d1b;}.cls-13,.cls-14,.cls-15,.cls-16,.cls-17{stroke-miterlimit:10;}.cls-13,.cls-15{fill:#fff;}.cls-18{fill:#1f1f1d;}.cls-19{fill:url(#linear-gradient-10);}.cls-6,.cls-20{fill:#030304;}.cls-14{fill:#020303;stroke:#030404;}.cls-14,.cls-16{stroke-width:1.86px;}.cls-7{fill:url(#Nowy_wzorek_4);opacity:.1;}.cls-21{fill:#ce141e;}.cls-8{fill:#e03e17;opacity:.5;}.cls-22{fill:url(#linear-gradient-5);}.cls-15{stroke:#030304;stroke-width:.9px;}.cls-23,.cls-16{fill:none;}.cls-16{stroke:#020303;}.cls-24{fill:url(#linear-gradient-7);}.cls-25{fill:url(#linear-gradient-9);}.cls-26{fill:#7f358b;}.cls-27{fill:url(#linear-gradient-3);}.cls-28{fill:url(#linear-gradient);}.cls-17{fill:#0d582a;stroke:#1e4523;stroke-width:3.72px;}.cls-29{fill:#4bad39;}.cls-30{fill:url(#linear-gradient-4);}.cls-31{fill:url(#linear-gradient-8);}</style><linearGradient id="linear-gradient" x1="604.29" y1="407.84" x2="604.29" y2="300.82" gradientTransform="translate(0 -271.61)" gradientUnits="userSpaceOnUse"><stop offset=".16" stop-color="#823b14"/><stop offset=".18" stop-color="#995d1a"/><stop offset=".22" stop-color="#ae7d22"/><stop offset=".26" stop-color="#c39d25"/><stop offset=".3" stop-color="#d6b92e"/><stop offset=".35" stop-color="#e4cf36"/><stop offset=".41" stop-color="#efe036"/><stop offset=".48" stop-color="#f5e94d"/><stop offset=".58" stop-color="#f8eb53"/><stop offset=".86" stop-color="#f5ea52"/><stop offset="1" stop-color="#fcf4f9"/></linearGradient><linearGradient id="linear-gradient-2" x1="604.29" y1="295.15" x2="604.29" y2="458.75" gradientTransform="translate(0 -271.61)" gradientUnits="userSpaceOnUse"><stop offset=".26" stop-color="#f5ea52"/><stop offset=".86" stop-color="#813a14"/></linearGradient><linearGradient id="linear-gradient-3" x1="604.45" y1="406.39" x2="604.45" y2="302.43" gradientTransform="translate(0 -271.61)" gradientUnits="userSpaceOnUse"><stop offset=".16" stop-color="#813a14"/><stop offset=".17" stop-color="#8d481f"/><stop offset=".18" stop-color="#a36c3d"/><stop offset=".2" stop-color="#b78954"/><stop offset=".22" stop-color="#c7a468"/><stop offset=".24" stop-color="#d7bb7a"/><stop offset=".26" stop-color="#e2cc88"/><stop offset=".3" stop-color="#ead891"/><stop offset=".34" stop-color="#eede97"/><stop offset=".46" stop-color="#efe097"/><stop offset=".7" stop-color="#813a14"/><stop offset=".73" stop-color="#e6d234"/><stop offset=".74" stop-color="#ebda49"/><stop offset=".75" stop-color="#eede6d"/><stop offset=".77" stop-color="#f0e18a"/><stop offset=".79" stop-color="#f8ebab"/><stop offset=".8" stop-color="#f8edbf"/><stop offset=".83" stop-color="#faf0cf"/><stop offset=".85" stop-color="#fcf2da"/><stop offset=".89" stop-color="#fdf4e1"/><stop offset=".99" stop-color="#fdf5e3"/></linearGradient><linearGradient id="linear-gradient-4" x1="604.18" y1="317.69" x2="604.18" y2="478.14" gradientTransform="translate(0 -271.61)" gradientUnits="userSpaceOnUse"><stop offset=".26" stop-color="#f5ea52"/><stop offset=".77" stop-color="#813a14"/></linearGradient><linearGradient id="linear-gradient-5" x1="457.04" y1="276.45" x2="457.04" y2="319.26" gradientTransform="translate(0 380.63) scale(1 -1)" gradientUnits="userSpaceOnUse"><stop offset="0" stop-color="#532a15"/><stop offset=".45" stop-color="#532a15" stop-opacity=".7"/><stop offset=".58" stop-color="#e03e17" stop-opacity=".5"/><stop offset="1" stop-color="#e03e17" stop-opacity=".5"/></linearGradient><linearGradient id="linear-gradient-6" x1="-612.55" y1="-855.14" x2="-535.28" y2="-777.86" gradientTransform="translate(140.13 -900.39) rotate(-45) scale(1 -1)" gradientUnits="userSpaceOnUse"><stop offset="0" stop-color="#472d1c"/><stop offset=".05" stop-color="#58361a"/><stop offset=".1" stop-color="#684016"/><stop offset=".32" stop-color="#784a20"/><stop offset=".75" stop-color="#8e5c33"/><stop offset="1" stop-color="#946137"/></linearGradient><linearGradient id="linear-gradient-7" x1="-749.54" y1="-718.16" x2="-672.26" y2="-640.87" gradientTransform="translate(140.13 -900.39) rotate(-45) scale(1 -1)" gradientUnits="userSpaceOnUse"><stop offset="0" stop-color="#116a37"/><stop offset=".04" stop-color="#156d38"/><stop offset=".08" stop-color="#0a783a"/><stop offset=".13" stop-color="#148837"/><stop offset=".15" stop-color="#0f9039"/><stop offset=".35" stop-color="#38993d"/><stop offset=".76" stop-color="#61b149"/><stop offset="1" stop-color="#70b74b"/></linearGradient><linearGradient id="linear-gradient-8" x1="459.54" y1="638.28" x2="261.44" y2="440.18" gradientTransform="translate(0 -252.64)" gradientUnits="userSpaceOnUse"><stop offset="0" stop-color="#9e9d9c"/><stop offset=".54" stop-color="#010202"/><stop offset="1" stop-color="#9e9d9c"/></linearGradient><linearGradient id="linear-gradient-9" x1="360.55" y1="619.81" x2="360.55" y2="458.67" gradientTransform="translate(0 -252.64)" gradientUnits="userSpaceOnUse"><stop offset="0" stop-color="#462c1b"/><stop offset="1" stop-color="#b18048"/></linearGradient><linearGradient id="linear-gradient-10" x1="360.48" y1="615.73" x2="360.48" y2="462.6" gradientTransform="translate(0 -252.64)" gradientUnits="userSpaceOnUse"><stop offset="0" stop-color="#946137"/><stop offset="1" stop-color="#805127"/></linearGradient><pattern id="Nowy_wzorek_4" x="0" y="0" width="19.7" height="21.7" patternTransform="translate(43.9 16649.47)" patternUnits="userSpaceOnUse" viewBox="0 0 19.7 21.7"><g><rect class="cls-23" width="19.7" height="21.7"/><g><rect class="cls-23" width="19.7" height="21.7"/><g><rect class="cls-23" width="19.7" height="21.7"/><g><rect class="cls-23" width="19.7" height="21.7"/><g><rect class="cls-23" width="19.7" height="21.7"/><path class="cls-11" d="M16.6,8.7c2.1,2.1,2.1,5.6,0,7.7l-1.2,1.2c-2.1,2.1-5.6,2.1-7.8,0L3.1,13c-2.1-2.1-2.1-5.6,0-7.7l1.2-1.2c2.1-2.1,5.6-2.1,7.7,0l4.6,4.6Z"/></g></g></g></g></g></pattern><linearGradient id="linear-gradient-11" x1="-583.11" y1="1401.89" x2="-507.93" y2="1326.68" gradientTransform="translate(-191.13 -1064.43) rotate(-45)" gradientUnits="userSpaceOnUse"><stop offset="0" stop-color="#1d1427"/><stop offset=".24" stop-color="#372348"/><stop offset=".49" stop-color="#573b6c"/><stop offset=".71" stop-color="#72508c"/><stop offset=".89" stop-color="#835ca0"/><stop offset="1" stop-color="#8963a7"/></linearGradient></defs><rect class="cls-13" x=".5" y=".5" width="720" height="378.91"/><g id="mln"><polygon id="obram_czarne" class="cls-14" points="564.66 25.98 547.44 43.19 547.44 122.35 564.66 139.56 643.93 139.56 661.03 122.35 661.03 43.19 643.93 25.98 564.66 25.98"/><polygon id="obram_zolte" class="cls-28" points="566.91 29.2 550.78 45.45 550.78 120.1 566.91 136.23 641.56 136.23 657.8 120.1 657.8 45.45 641.56 29.2 566.91 29.2"/><polygon id="tlo_wew" class="cls-1" points="567.99 30.82 552.29 46.52 552.29 118.91 567.99 134.72 640.59 134.72 656.3 118.91 656.3 46.52 640.59 30.82 567.99 30.82"/><path id="obram_skosne" class="cls-27" d="M648.77,102.78c-2.9,0-5.16-2.37-5.16-5.16v-29.69c0-2.9,2.37-5.16,5.16-5.16h7.42v-16.13l-15.6-15.81h-16.24v7.42c0,2.9-2.37,5.16-5.16,5.16h-29.69c-2.9,0-5.16-2.37-5.16-5.16v-7.42h-16.13l-15.7,15.7v16.24h7.42c2.9,0,5.16,2.37,5.16,5.16v29.69c0,2.9-2.37,5.16-5.16,5.16h-7.42v16.13l15.7,15.7h16.24v-7.42c0-2.9,2.37-5.16,5.16-5.16h29.69c2.9,0,5.16,2.37,5.16,5.16v7.42h16.24l15.7-15.7v-16.13h-7.64Z"/><path id="tlo_zew" class="cls-30" d="M648.45,104.61c-3.55,0-6.45-3.55-6.45-7.1v-29.47c0-3.55,2.9-7.1,6.45-7.1h6.02v-13.23l-15.27-15.17h-13.12v6.02c0,3.55-3.55,6.45-7.1,6.45h-29.47c-3.55,0-7.1-2.9-7.1-6.45v-6.02h-13.34l-15.17,15.17v13.23h6.02c3.55,0,6.45,3.55,6.45,7.1v29.47c0,3.55-2.9,7.1-6.45,7.1h-6.02v13.23l15.17,15.17h13.23v-6.02c0-3.55,3.55-6.45,7.1-6.45h29.36c3.55,0,7.1,2.9,7.1,6.45v6.02h13.23l15.17-15.17v-13.23h-5.81Z"/></g><path class="cls-18" d="M590.69,109.98c.32-2.58,.75-4.73,1.4-6.56s1.61-3.98,2.9-6.45,4.19-6.88,8.61-13.34l12.48-18.18h-27.64v-8.61h36.36v8.61c-5.06,6.45-9.14,12.26-12.15,17.43-3.01,5.27-5.49,10.11-7.31,14.63s-2.8,8.61-2.8,12.37h-11.83v.11Z"/><g id="arrow"><path class="cls-8" d="M516.68,82.77l-56.9-26.35,6.88,13.66h-64.22s-1.94,6.13-1.94,12.05,1.94,10.76,1.94,10.76h65.4l-8.07,16.13,56.9-26.25h0Z"/><path class="cls-22" d="M471.61,90.62h-67.44c-.54-1.72-1.29-4.95-1.29-8.39,0-3.76,.86-7.64,1.4-9.79h66.15l-5.59-11.08,46.36,21.41-46.36,21.41,6.78-13.55h0Z"/><path class="cls-21" d="M476.56,87.61h-70.13c-.32-1.51-.54-3.33-.54-5.38,0-2.37,.43-4.73,.75-6.67h68.73l-3.87-7.74,32.27,14.95-32.27,14.95,5.06-10.11h0Z"/><path class="cls-16" d="M471.61,90.62h-67.44c-.54-1.72-1.29-4.95-1.29-8.39,0-3.76,.86-7.64,1.4-9.79h66.15l-5.59-11.08,46.36,21.41-46.36,21.41,6.78-13.55h0Z"/></g><g id="steel"><rect class="cls-3" x="253.69" y="24.79" width="115.95" height="115.95"/><rect class="cls-9" x="257.02" y="28.13" width="109.28" height="109.28"/><rect class="cls-10" x="262.29" y="33.4" width="98.64" height="98.64"/><g><path class="cls-2" d="M321.99,115.36l2.37-45.82-5.59-.65-.86-2.04h-4.3l-.75,2.04-6.45-.32v-11.83h7.53l.54,2.37,3.55,.43,.86-2.69h7.74l1.51,1.29,1.29-1.29h9.57l1.08,1.83,1.72-1.83,7.21,5.92-.43,4.09s-3.98-3.76-5.92-3.76-4.73-.11-4.73-.11l-3.98,6.45-2.37,.22,2.26,45.61-11.83,.11h0Z"/><polygon class="cls-2" points="300.26 54.8 292.41 50.5 292.41 61.15 285.31 61.15 285.31 50.5 276.39 54.59 276.39 67.6 284.67 71.69 281.76 115.36 295.1 115.36 292.41 71.69 300.26 68.14 300.26 54.8"/></g><path id="darker" class="cls-5" d="M366.31,137.41h-109.28v-59.91s34.42,5.27,54.64,5.27,54.64-5.27,54.64-5.27v59.91h0Z"/></g><path d="M191.63,123.21l36.68-78.31h9.47l-36.68,78.31h-9.47Z"/><g id="plant"><rect class="cls-3" x="59.97" y="24.79" width="115.95" height="115.95"/><rect class="cls-24" x="63.3" y="28.13" width="109.28" height="109.28"/><rect class="cls-29" x="68.57" y="33.4" width="98.64" height="98.64"/><path id="leaf" class="cls-17" d="M117.84,57.82c-14.09,1.94-24.95,11.19-24.95,24.95,0,3.33,.65,6.56,1.83,9.57-2.58,1.72-6.45,4.09-8.28,4.73-3.23,1.08-9.79,.32-10,.97s1.83,6.45,2.58,6.67,6.67,.32,10-.97c2.37-.86,6.78-3.66,9.25-5.49,4.52,5.81,11.62,9.36,19.58,9.36,13.77,0,24.74-8.61,24.74-22.37,0-5.27,1.29-12.05,3.23-16.13,2.15-4.63,13.23-7.64,13.23-7.64-.97-3.66-35.6-4.41-41.2-3.66h0Z"/><path id="darker-2" class="cls-4" d="M172.59,137.41H63.3v-59.91s34.42,5.27,54.64,5.27,54.64-5.27,54.64-5.27v59.91Z"/></g><g id="prodBg"><rect id="external-border" class="cls-31" x="247.44" y="201.54" width="226.09" height="170.1"/><rect id="internal-border" class="cls-25" x="251.91" y="206.03" width="217.28" height="161.14"/><rect id="bg" class="cls-19" x="255.84" y="209.97" width="209.27" height="153.13"/><rect id="bgPattern" class="cls-7" x="255.84" y="209.97" width="209.27" height="153.13"/></g><g id="energy"><rect class="cls-20" x="331.42" y="229.6" width="112.81" height="112.81"/><rect class="cls-12" x="334.67" y="232.85" width="106.32" height="106.32"/><polygon class="cls-26" points="435.83 238 435.83 334.01 339.82 334.01 339.82 238 435.83 238"/><polygon class="cls-15" points="376.1 275.02 407.77 255.38 390.85 279.9 399.81 294.48 368.68 314.11 384.33 289.67 376.1 275.02"/><path id="darker-2" class="cls-6" d="M440.98,339.16h-106.32v-58.26s33.48,5.15,53.11,5.15,53.21-5.15,53.21-5.15v58.26Z"/></g><path d="M278.7,295.67v-13.23h31.77v13.23h-31.77Z"/></svg>