<?xml version="1.0" encoding="UTF-8"?><svg id="Layer" xmlns="http://www.w3.org/2000/svg" xmlns:xlink="http://www.w3.org/1999/xlink" viewBox="0 0 721 379.91"><defs><style>.cls-1{fill:url(#linear-gradient-2);}.cls-2{fill:#20201e;}.cls-3,.cls-4{fill:#020303;}.cls-5{fill:#332116;}.cls-6{fill:url(#linear-gradient-6);}.cls-7{fill:#946137;}.cls-8{fill:#fff;opacity:0;stroke:#1d1d1b;stroke-miterlimit:10;}.cls-4{opacity:.15;}.cls-4,.cls-9,.cls-10{isolation:isolate;}.cls-9{fill:url(#Nowy_wzorek_7);opacity:.14;}.cls-10{fill:url(#linear-gradient-5);opacity:.4;}.cls-11{fill:none;}.cls-12{fill:url(#linear-gradient-7);}.cls-13{fill:url(#linear-gradient-3);}.cls-14{fill:url(#linear-gradient);}.cls-15{fill:url(#linear-gradient-4);}.cls-16{fill:#010101;}</style><linearGradient id="linear-gradient" x1="532" y1="-229.99" x2="245.15" y2="56.86" gradientTransform="translate(0 127.45) scale(1 -1)" gradientUnits="userSpaceOnUse"><stop offset="0" stop-color="#9f9d9c"/><stop offset=".54" stop-color="#020303"/><stop offset="1" stop-color="#9f9d9c"/></linearGradient><linearGradient id="linear-gradient-2" x1="388.65" y1="-237.65" x2="388.65" y2="64.5" gradientTransform="translate(0 127.45) scale(1 -1)" gradientUnits="userSpaceOnUse"><stop offset="0" stop-color="#472d1c"/><stop offset="1" stop-color="#b18047"/></linearGradient><linearGradient id="linear-gradient-3" x1="388.59" y1="-233.45" x2="388.59" y2="60.45" gradientTransform="translate(0 127.45) scale(1 -1)" gradientUnits="userSpaceOnUse"><stop offset="0" stop-color="#946137"/><stop offset="1" stop-color="#815228"/></linearGradient><pattern id="Nowy_wzorek_7" x="0" y="0" width="56.69" height="62.45" patternTransform="translate(0 -15630.4) scale(1 -1)" patternUnits="userSpaceOnUse" viewBox="0 0 56.69 62.45"><g><rect class="cls-11" width="56.69" height="62.45"/><g><rect class="cls-11" width="56.69" height="62.45"/><g><rect class="cls-11" width="56.69" height="62.45"/><g><rect class="cls-11" width="56.69" height="62.45"/><g><rect class="cls-11" width="56.69" height="62.45"/><path class="cls-2" d="M47.77,37.41c6.04-6.04,6.04-16.12,0-22.16l-3.45-3.45c-6.04-6.04-16.12-6.04-22.45,0l-12.95,13.24c-6.04,6.04-6.04,16.12,0,22.16l3.45,3.45c6.04,6.04,16.12,6.04,22.16,0l13.24-13.24Z"/></g></g></g></g></g></pattern><linearGradient id="linear-gradient-4" x1="-552.29" y1="1427.88" x2="-474.83" y2="1350.41" gradientTransform="translate(-190.6 -1064.17) rotate(-45)" gradientUnits="userSpaceOnUse"><stop offset="0" stop-color="#452b1a"/><stop offset=".05" stop-color="#583519"/><stop offset=".1" stop-color="#683e15"/><stop offset=".32" stop-color="#76481e"/><stop offset=".75" stop-color="#8c5a31"/><stop offset="1" stop-color="#946137"/></linearGradient><linearGradient id="linear-gradient-5" x1="428.52" y1="-73.07" x2="428.52" y2="67.23" gradientTransform="translate(0 143.45) scale(1 -1)" gradientUnits="userSpaceOnUse"><stop offset="0" stop-color="#ffdc15"/><stop offset="0" stop-color="#ffdb16"/><stop offset=".05" stop-color="#f9bb24"/><stop offset=".1" stop-color="#f59d1e"/><stop offset=".16" stop-color="#ef7c1e"/><stop offset=".22" stop-color="#e86312"/><stop offset=".27" stop-color="#e94c21"/><stop offset=".34" stop-color="#e63b23"/><stop offset=".41" stop-color="#e63624"/><stop offset=".5" stop-color="#e63324"/><stop offset=".59" stop-color="#e63624"/><stop offset=".66" stop-color="#e63b23"/><stop offset=".73" stop-color="#e94c21"/><stop offset=".78" stop-color="#e86312"/><stop offset=".84" stop-color="#ef7c1e"/><stop offset=".9" stop-color="#f59d1e"/><stop offset=".95" stop-color="#f9bb24"/><stop offset="1" stop-color="#ffdb16"/><stop offset="1" stop-color="#ffdc15"/></linearGradient><linearGradient id="linear-gradient-6" x1="428.55" y1="-67.9" x2="428.55" y2="62.07" xlink:href="#linear-gradient-5"/><linearGradient id="linear-gradient-7" x1="-456.83" y1="1332.42" x2="-379.37" y2="1254.95" xlink:href="#linear-gradient-4"/></defs><rect class="cls-8" x=".5" y=".5" width="720" height="378.91"/><g id="prodBg"><rect id="external-border" class="cls-14" x="257.42" y="58.32" width="262.31" height="311.39"/><rect id="internal-border" class="cls-1" x="262.05" y="62.95" width="253.2" height="302.15"/><rect id="bg" class="cls-13" x="266.1" y="67" width="244.97" height="293.9"/><rect id="bgPattern" class="cls-9" x="266.1" y="67" width="244.97" height="293.9"/></g><path class="cls-16" d="M303.64,153.02v-13.64h32.74v13.64h-32.74Z"/><path class="cls-16" d="M312.91,310.24v-24.34h-24.34v-9.99h24.34v-24.34h9.99v24.34h24.34v9.99h-24.34v24.34h-9.99Z"/><g id="steel"><rect class="cls-3" x="370.39" y="223.09" width="116.27" height="116.27"/><rect class="cls-15" x="373.74" y="226.45" width="109.56" height="109.56"/><rect class="cls-7" x="379.06" y="231.76" width="98.93" height="98.93"/><g><path class="cls-5" d="M438.82,313.91l2.42-45.97-5.59-.65-.84-1.96h-4.29l-.75,2.05-6.53-.28v-11.93h7.55l.56,2.33,3.54,.47,.84-2.7h7.74l1.49,1.31,1.31-1.31h9.6l1.12,1.86,1.68-1.86,7.27,5.97-.47,4.1s-4.01-3.73-5.97-3.73-4.76-.09-4.76-.09l-4.01,6.43-2.42,.19,2.24,45.78h-11.75Z"/><polygon class="cls-5" points="417.1 253.21 409.27 248.92 409.17 259.55 402.09 259.55 402.09 248.92 393.14 253.02 393.14 266.08 401.44 270.08 398.55 313.91 411.88 313.91 409.27 270.08 417.1 266.54 417.1 253.21"/></g><path id="darker" class="cls-4" d="M483.3,336h-109.56v-60.05s34.5,5.31,54.73,5.31,54.82-5.31,54.82-5.31v60.05Z"/></g><g id="steel-2"><rect class="cls-10" x="358.37" y="76.22" width="140.3" height="140.3"/><rect class="cls-6" x="363.56" y="81.38" width="129.97" height="129.97"/><rect class="cls-3" x="370.39" y="88.09" width="116.27" height="116.27"/><rect class="cls-12" x="373.74" y="91.45" width="109.56" height="109.56"/><rect class="cls-7" x="379.06" y="96.76" width="98.93" height="98.93"/><g><path class="cls-5" d="M438.82,178.91l2.42-45.97-5.59-.65-.84-1.96h-4.29l-.75,2.05-6.53-.28v-11.93h7.55l.56,2.33,3.54,.47,.84-2.7h7.74l1.49,1.31,1.31-1.31h9.6l1.12,1.86,1.68-1.86,7.27,5.97-.47,4.1s-4.01-3.73-5.97-3.73-4.76-.09-4.76-.09l-4.01,6.43-2.42,.19,2.24,45.78h-11.75Z"/><polygon class="cls-5" points="417.1 118.21 409.27 113.92 409.17 124.55 402.09 124.55 402.09 113.92 393.14 118.02 393.14 131.08 401.44 135.08 398.55 178.91 411.88 178.91 409.27 135.08 417.1 131.54 417.1 118.21"/></g><path id="darker-2" class="cls-4" d="M483.3,201h-109.56v-60.05s34.5,5.31,54.73,5.31,54.82-5.31,54.82-5.31v60.05Z"/></g></svg>