<?xml version="1.0" encoding="UTF-8"?><svg id="Layer" xmlns="http://www.w3.org/2000/svg" xmlns:xlink="http://www.w3.org/1999/xlink" viewBox="0 0 721 379.91"><defs><style>.cls-1{fill:url(#linear-gradient-2);}.cls-2,.cls-3{fill:#030404;}.cls-4,.cls-5{fill:#020303;}.cls-6{fill:#222;}.cls-7{fill:url(#linear-gradient-6);}.cls-8{fill:#fff;opacity:0;stroke:#1d1d1b;}.cls-8,.cls-5{stroke-miterlimit:10;}.cls-5{stroke:#030404;stroke-width:1.87px;}.cls-3{isolation:isolate;opacity:.08;}.cls-9{fill:url(#linear-gradient-5);}.cls-10{fill:url(#linear-gradient-3);}.cls-11{fill:url(#linear-gradient);}.cls-12{fill:#010202;}.cls-13{fill:url(#linear-gradient-4);}</style><linearGradient id="linear-gradient" x1="455.56" y1="102.7" x2="455.56" y2="210.54" gradientTransform="translate(0 346.63) scale(1 -1)" gradientUnits="userSpaceOnUse"><stop offset=".16" stop-color="#823b14"/><stop offset=".18" stop-color="#995d1a"/><stop offset=".22" stop-color="#ae7d22"/><stop offset=".26" stop-color="#c39d25"/><stop offset=".3" stop-color="#d6b92e"/><stop offset=".35" stop-color="#e4cf36"/><stop offset=".41" stop-color="#efe036"/><stop offset=".48" stop-color="#f5e94d"/><stop offset=".58" stop-color="#f8eb53"/><stop offset=".86" stop-color="#f5ea52"/><stop offset="1" stop-color="#fcf4f9"/></linearGradient><linearGradient id="linear-gradient-2" x1="455.56" y1="216.28" x2="455.56" y2="51.49" gradientTransform="translate(0 346.63) scale(1 -1)" gradientUnits="userSpaceOnUse"><stop offset=".26" stop-color="#f5ea52"/><stop offset=".86" stop-color="#813a14"/></linearGradient><linearGradient id="linear-gradient-3" x1="455.51" y1="104.21" x2="455.51" y2="208.93" gradientTransform="translate(0 346.63) scale(1 -1)" gradientUnits="userSpaceOnUse"><stop offset=".16" stop-color="#813a14"/><stop offset=".17" stop-color="#8d481f"/><stop offset=".18" stop-color="#a36c3d"/><stop offset=".2" stop-color="#b78954"/><stop offset=".22" stop-color="#c7a468"/><stop offset=".24" stop-color="#d7bb7a"/><stop offset=".26" stop-color="#e2cc88"/><stop offset=".3" stop-color="#ead891"/><stop offset=".34" stop-color="#eede97"/><stop offset=".46" stop-color="#efe097"/><stop offset=".7" stop-color="#813a14"/><stop offset=".73" stop-color="#e6d234"/><stop offset=".74" stop-color="#ebda49"/><stop offset=".75" stop-color="#eede6d"/><stop offset=".77" stop-color="#f0e18a"/><stop offset=".79" stop-color="#f8ebab"/><stop offset=".8" stop-color="#f8edbf"/><stop offset=".83" stop-color="#faf0cf"/><stop offset=".85" stop-color="#fcf2da"/><stop offset=".89" stop-color="#fdf4e1"/><stop offset=".99" stop-color="#fdf5e3"/></linearGradient><linearGradient id="linear-gradient-4" x1="455.51" y1="193.58" x2="455.51" y2="31.95" gradientTransform="translate(0 346.63) scale(1 -1)" gradientUnits="userSpaceOnUse"><stop offset=".26" stop-color="#f5ea52"/><stop offset=".77" stop-color="#813a14"/></linearGradient><linearGradient id="linear-gradient-5" x1="266.46" y1="514.94" x2="266.46" y2="407.31" gradientTransform="translate(0 -271.17)" gradientUnits="userSpaceOnUse"><stop offset="0" stop-color="#ed932c"/><stop offset="1" stop-color="#f5ea52"/></linearGradient><linearGradient id="linear-gradient-6" x1="217.93" y1="156.68" x2="315.14" y2="156.68" gradientTransform="translate(0 346.63) scale(1 -1)" gradientUnits="userSpaceOnUse"><stop offset=".09" stop-color="#f5ea52"/><stop offset=".98" stop-color="#f5ea52"/></linearGradient></defs><rect class="cls-8" x=".5" y=".5" width="720" height="378.91"/><g><g id="mln"><polygon id="obram_czarne" class="cls-5" points="415.66 132.76 398.26 150.16 398.26 229.86 415.66 247.15 495.46 247.15 512.65 229.86 512.65 150.16 495.46 132.76 415.66 132.76"/><polygon id="obram_zolte" class="cls-11" points="417.91 136.09 401.69 152.41 401.69 227.6 417.91 243.93 493.1 243.93 509.43 227.6 509.43 152.41 493.1 136.09 417.91 136.09"/><polygon id="tlo_wew" class="cls-1" points="418.99 137.7 403.2 153.49 403.2 226.53 418.99 242.32 492.03 242.32 507.92 226.53 507.92 153.49 492.03 137.7 418.99 137.7"/><path id="obram_skosne" class="cls-10" d="M500.3,210.2c-2.9,0-5.26-2.36-5.26-5.26v-29.86c0-2.9,2.36-5.26,5.26-5.26h7.52v-16.33l-15.79-15.79h-16.43v7.52c0,2.9-2.36,5.26-5.26,5.26h-29.86c-2.9,0-5.26-2.36-5.26-5.26v-7.52h-16.33l-15.79,15.79v16.43h7.52c2.9,0,5.26,2.36,5.26,5.26v29.86c0,2.9-2.36,5.26-5.26,5.26h-7.52v16.33l15.79,15.79h16.43v-7.52c0-2.9,2.36-5.26,5.26-5.26h29.86c2.9,0,5.26,2.36,5.26,5.26v7.52h16.43l15.79-15.79v-16.43h-7.63Z"/><path id="tlo_zew" class="cls-13" d="M499.98,211.92c-3.54,0-6.44-3.54-6.44-7.09v-29.65c0-3.54,2.9-7.09,6.44-7.09h6.12v-13.32l-15.36-15.25h-13.21v6.12c0,3.54-3.54,6.44-7.09,6.44h-29.75c-3.54,0-7.09-2.9-7.09-6.44v-6.12h-13.43l-15.25,15.25v13.32h6.12c3.54,0,6.44,3.54,6.44,7.09v29.65c0,3.54-2.9,7.09-6.44,7.09h-6.12v13.32l15.25,15.25h13.32v-6.12c0-3.54,3.54-6.44,7.09-6.44h29.65c3.54,0,7.09,2.9,7.09,6.44v6.12h13.32l15.25-15.25v-13.32h-5.91Z"/></g><path class="cls-12" d="M440.25,215.36v-7.73c5.05,1.93,9.34,3.01,12.67,3.01,3.01,0,5.37-.75,7.3-2.36s2.9-3.65,2.9-6.34c0-1.93-.54-3.65-1.5-5.26s-2.47-2.79-4.4-3.65-4.94-1.29-9.02-1.29h-3.22v-6.12h2.69c3.97,0,6.77-.32,8.49-1.07s3.01-1.83,4.08-3.33c.97-1.5,1.5-3.11,1.5-4.83,0-2.04-.75-3.76-2.15-5.05s-3.54-1.93-6.55-1.93c-3.76,0-7.73,.97-12.03,2.9v-6.98c2.15-.75,3.87-1.29,5.16-1.5s2.69-.43,4.4-.64c1.72-.21,3.33-.21,4.83-.21,5.37,0,9.56,1.07,12.46,3.33s4.4,5.16,4.4,8.92c0,3.01-.97,5.59-2.79,7.73-1.93,2.15-4.73,3.87-8.49,5.05,3.33,.75,5.8,1.83,7.63,3.22s3.11,3.01,3.97,4.83c.97,1.83,1.4,3.87,1.4,5.91,0,3.87-1.5,7.3-4.62,10.42s-8.06,4.62-14.93,4.62c-1.83,0-3.76-.11-5.69-.21-2.26-.11-5.05-.54-8.49-1.4h0Z"/><path d="M348.85,179.32v-12.46h12.46v12.46h-12.46Zm0,33.73v-12.46h12.46v12.46h-12.46Z"/><g id="tagEvent"><path class="cls-2" d="M324.57,189.95c0,32.01-25.99,58.11-58.11,58.11s-58.11-25.99-58.11-58.11,25.99-58.11,58.11-58.11,58.11,25.99,58.11,58.11Z"/><path class="cls-9" d="M320.27,189.95c0,29.65-24.06,53.81-53.81,53.81s-53.81-24.06-53.81-53.81,23.95-53.81,53.71-53.81,53.92,24.06,53.92,53.81h0Z"/><path class="cls-7" d="M315.01,189.95c0,26.75-21.7,48.66-48.66,48.66s-48.55-21.8-48.55-48.66,21.7-48.66,48.66-48.66c26.96,.11,48.55,21.8,48.55,48.66Z"/><path id="darker" class="cls-3" d="M320.27,189.95c0-1.18,0-2.15-.11-3.22-10.85,3.01-29.54,6.87-53.71,6.87s-42.21-4.73-53.6-8.7c-.21,1.72-.32,3.33-.32,5.05,0,29.65,24.06,53.81,53.81,53.81s53.92-24.06,53.92-53.81h0Z"/><rect class="cls-6" x="254.11" y="154.08" width="24.49" height="39.64"/><polygon class="cls-4" points="241.86 193.82 290.2 193.82 267.32 226.04 241.86 193.82"/></g></g></svg>