<?xml version="1.0" encoding="UTF-8"?><svg id="Layer" xmlns="http://www.w3.org/2000/svg" xmlns:xlink="http://www.w3.org/1999/xlink" viewBox="0 0 721 379.91"><defs><style>.cls-1{fill:url(#linear-gradient-2);}.cls-2,.cls-3{fill:#020303;}.cls-4{fill:#e52922;}.cls-5{fill:url(#linear-gradient-6);}.cls-6{fill:#010202;stroke:#030304;stroke-width:1.92px;}.cls-6,.cls-7{stroke-miterlimit:10;}.cls-8{fill:#1f1f1e;}.cls-7{fill:#fff;opacity:0;stroke:#1d1d1b;}.cls-9{fill:url(#Nowy_wzorek_3);opacity:.1;}.cls-9,.cls-3{isolation:isolate;}.cls-10{fill:url(#linear-gradient-5);}.cls-11{fill:none;}.cls-12{fill:#ffd110;}.cls-13{fill:url(#linear-gradient-7);}.cls-14{fill:url(#linear-gradient-3);}.cls-3{opacity:.05;}.cls-15{fill:url(#linear-gradient);}.cls-16{fill:url(#linear-gradient-4);}.cls-17{fill:url(#linear-gradient-8);}</style><linearGradient id="linear-gradient" x1="511.46" y1="593.55" x2="209.54" y2="291.63" gradientTransform="translate(0 -252.64)" gradientUnits="userSpaceOnUse"><stop offset="0" stop-color="#9e9d9c"/><stop offset=".54" stop-color="#010202"/><stop offset="1" stop-color="#9e9d9c"/></linearGradient><linearGradient id="linear-gradient-2" x1="360.58" y1="525.85" x2="360.58" y2="359.36" gradientTransform="translate(0 -252.64)" gradientUnits="userSpaceOnUse"><stop offset="0" stop-color="#462c1b"/><stop offset="1" stop-color="#b18048"/></linearGradient><linearGradient id="linear-gradient-3" x1="360.5" y1="521.63" x2="360.5" y2="363.42" gradientTransform="translate(0 -252.64)" gradientUnits="userSpaceOnUse"><stop offset="0" stop-color="#946137"/><stop offset="1" stop-color="#805127"/></linearGradient><pattern id="Nowy_wzorek_3" x="0" y="0" width="19.7" height="21.7" patternTransform="translate(43.9 16649.47)" patternUnits="userSpaceOnUse" viewBox="0 0 19.7 21.7"><g><rect class="cls-11" width="19.7" height="21.7"/><g><rect class="cls-11" width="19.7" height="21.7"/><g><rect class="cls-11" width="19.7" height="21.7"/><g><rect class="cls-11" width="19.7" height="21.7"/><g><rect class="cls-11" width="19.7" height="21.7"/><path class="cls-8" d="M16.6,8.7c2.1,2.1,2.1,5.6,0,7.7l-1.2,1.2c-2.1,2.1-5.6,2.1-7.8,0L3.1,13c-2.1-2.1-2.1-5.6,0-7.7l1.2-1.2c2.1-2.1,5.6-2.1,7.7,0l4.6,4.6Z"/></g></g></g></g></g></pattern><linearGradient id="linear-gradient-4" x1="486.32" y1="498.47" x2="486.32" y2="388.6" gradientTransform="translate(0 -253.65)" gradientUnits="userSpaceOnUse"><stop offset=".16" stop-color="#823a13"/><stop offset=".18" stop-color="#985c1a"/><stop offset=".22" stop-color="#ae7d22"/><stop offset=".26" stop-color="#c39d26"/><stop offset=".3" stop-color="#d6b92e"/><stop offset=".35" stop-color="#e4cf36"/><stop offset=".41" stop-color="#efe036"/><stop offset=".48" stop-color="#f6e947"/><stop offset=".58" stop-color="#f8ea4e"/><stop offset=".86" stop-color="#f6ea4d"/><stop offset="1" stop-color="#fcf4f9"/></linearGradient><linearGradient id="linear-gradient-5" x1="486.32" y1="382.75" x2="486.32" y2="550.7" gradientTransform="translate(0 -253.65)" gradientUnits="userSpaceOnUse"><stop offset=".26" stop-color="#f6ea4d"/><stop offset=".86" stop-color="#803813"/></linearGradient><linearGradient id="linear-gradient-6" x1="486.38" y1="496.96" x2="486.38" y2="390.22" gradientTransform="translate(0 -253.65)" gradientUnits="userSpaceOnUse"><stop offset=".16" stop-color="#803813"/><stop offset=".17" stop-color="#8c471e"/><stop offset=".18" stop-color="#a26b3c"/><stop offset=".2" stop-color="#b78954"/><stop offset=".22" stop-color="#c7a468"/><stop offset=".24" stop-color="#d7bb7a"/><stop offset=".26" stop-color="#e2cc88"/><stop offset=".3" stop-color="#ead891"/><stop offset=".34" stop-color="#eede97"/><stop offset=".46" stop-color="#efe097"/><stop offset=".7" stop-color="#803813"/><stop offset=".73" stop-color="#e6d234"/><stop offset=".74" stop-color="#ebd948"/><stop offset=".75" stop-color="#eede6d"/><stop offset=".77" stop-color="#f0e28a"/><stop offset=".79" stop-color="#f8ebaa"/><stop offset=".8" stop-color="#f8edbf"/><stop offset=".83" stop-color="#faf0cf"/><stop offset=".85" stop-color="#fcf2da"/><stop offset=".89" stop-color="#fdf4e1"/><stop offset=".99" stop-color="#fdf5e3"/></linearGradient><linearGradient id="linear-gradient-7" x1="486.31" y1="405.88" x2="486.31" y2="570.63" gradientTransform="translate(0 -253.65)" gradientUnits="userSpaceOnUse"><stop offset=".26" stop-color="#f6ea4d"/><stop offset=".77" stop-color="#803813"/></linearGradient><linearGradient id="linear-gradient-8" x1="-591.42" y1="1261.22" x2="-513.99" y2="1183.78" gradientTransform="translate(-190.6 -1064.17) rotate(-45)" gradientUnits="userSpaceOnUse"><stop offset="0" stop-color="#951917"/><stop offset=".21" stop-color="#b9231c"/><stop offset=".47" stop-color="#e52922"/><stop offset=".55" stop-color="#e62d28"/><stop offset=".84" stop-color="#e7393a"/><stop offset="1" stop-color="#e83e41"/></linearGradient></defs><rect class="cls-7" x=".5" y=".5" width="720" height="378.91"/><g><g id="prodBg"><rect id="external-border" class="cls-15" x="146.45" y="102.08" width="428.09" height="175.75"/><rect id="internal-border" class="cls-1" x="151.1" y="106.72" width="418.96" height="166.49"/><rect id="bg" class="cls-14" x="155.16" y="110.78" width="410.68" height="158.21"/><rect id="bgPattern" class="cls-9" x="155.16" y="110.78" width="410.68" height="158.21"/></g><g id="mln"><polygon id="obram_czarne" class="cls-6" points="445.65 131.6 427.99 149.26 427.99 230.52 445.65 248.18 526.99 248.18 544.55 230.52 544.55 149.26 526.99 131.6 445.65 131.6"/><polygon id="obram_zolte" class="cls-16" points="447.95 134.95 431.42 151.55 431.42 228.23 447.95 244.83 524.62 244.83 541.22 228.23 541.22 151.55 524.62 134.95 447.95 134.95"/><polygon id="tlo_wew" class="cls-10" points="449.08 136.57 432.96 152.71 432.96 227.09 449.08 243.21 523.56 243.21 539.68 227.09 539.68 152.71 523.56 136.57 449.08 136.57"/><path id="obram_skosne" class="cls-5" d="M531.96,210.47c-2.95,0-5.35-2.4-5.35-5.35v-30.45c0-2.95,2.4-5.35,5.35-5.35h7.64v-16.6l-16.05-16.15h-16.7v7.64c0,2.95-2.4,5.35-5.35,5.35h-30.45c-2.95,0-5.35-2.4-5.35-5.35v-7.64h-16.6l-16.15,16.15v16.7h7.64c2.95,0,5.35,2.4,5.35,5.35v30.45c0,2.95-2.4,5.35-5.35,5.35h-7.64v16.6l16.15,16.15h16.7v-7.64c0-2.95,2.4-5.35,5.35-5.35h30.45c2.95,0,5.35,2.4,5.35,5.35v7.64h16.7l16.15-16.15v-16.7h-7.85Z"/><path id="tlo_zew" class="cls-13" d="M531.68,212.28c-3.63,0-6.58-3.63-6.58-7.27v-30.28c0-3.63,2.95-7.27,6.58-7.27h6.21v-13.55l-15.67-15.57h-13.47v6.21c0,3.63-3.63,6.58-7.27,6.58h-30.28c-3.63,0-7.27-2.95-7.27-6.58v-6.21h-13.65l-15.57,15.57v13.55h6.21c3.63,0,6.58,3.63,6.58,7.27v30.28c0,3.63-2.95,7.27-6.58,7.27h-6.21v13.55l15.57,15.57h13.55v-6.21c0-3.63,3.63-6.58,7.27-6.58h30.17c3.63,0,7.27,2.95,7.27,6.58v6.21h13.55l15.57-15.57v-13.55h-5.98Z"/></g><path d="M467.4,213.27l14.59-22.42-13.94-23.1h11.05l9.25,15.35,10.03-15.35h7.66l-13.99,21.49,14.48,24.04h-11.01l-9.86-16.34-10.6,16.34h-7.66Z"/><g id="heat"><rect class="cls-2" x="224.9" y="132.96" width="116.22" height="116.22"/><rect class="cls-17" x="228.25" y="136.32" width="109.51" height="109.51"/><rect class="cls-4" x="233.57" y="141.63" width="98.89" height="98.89"/><path id="darker" class="cls-3" d="M337.76,245.83h-109.51v-60.02s34.48,5.31,54.71,5.31,54.8-5.31,54.8-5.31v60.02Z"/><g><polygon class="cls-12" points="270.66 196.15 258.17 185.34 258.17 185.34 258.17 152.35 245.68 185.99 258.26 196.62 258.26 196.62 258.17 229.8 270.66 196.15"/><polygon class="cls-12" points="295.54 196.15 283.05 185.34 282.96 185.34 283.05 152.35 270.57 185.99 283.05 196.62 283.05 196.62 283.05 229.8 295.54 196.15"/><polygon class="cls-12" points="321.08 196.15 308.59 185.34 308.5 185.34 308.59 152.35 296.1 185.99 308.59 196.62 308.59 196.62 308.59 229.8 321.08 196.15"/></g></g><path d="M170.73,213.75l14.59-22.42-13.94-23.1h11.05l9.25,15.35,10.03-15.35h7.66l-13.99,21.49,14.48,24.04h-11.01l-9.86-16.34-10.6,16.34h-7.66Z"/><path d="M385.95,209.03v-15.82h-15.82v-6.5h15.82v-15.82h6.5v15.82h15.82v6.5h-15.82v15.82h-6.5Z"/></g></svg>