<?xml version="1.0" encoding="UTF-8"?><svg id="Layer" xmlns="http://www.w3.org/2000/svg" xmlns:xlink="http://www.w3.org/1999/xlink" viewBox="0 0 721 379.91"><defs><style>.cls-1{fill:url(#linear-gradient-2);}.cls-2{fill:#20201e;}.cls-3{fill:#020303;}.cls-4{fill:url(#linear-gradient-6);}.cls-5{fill:#fff;opacity:0;stroke:#1d1d1b;}.cls-5,.cls-6{stroke-miterlimit:10;}.cls-7{fill:url(#Nowy_wzorek_4);isolation:isolate;opacity:.1;}.cls-8{fill:url(#linear-gradient-5);}.cls-6{stroke:#030404;stroke-width:1.9px;}.cls-6,.cls-9{fill:#030304;}.cls-10{fill:none;}.cls-11{fill:url(#linear-gradient-7);}.cls-12{fill:url(#linear-gradient-9);}.cls-13{fill:url(#linear-gradient-3);}.cls-14{fill:#6a6a69;}.cls-15{fill:#f4e956;}.cls-16{fill:url(#linear-gradient);}.cls-17{fill:#010202;}.cls-18{fill:url(#linear-gradient-4);}.cls-19{fill:url(#linear-gradient-8);}</style><linearGradient id="linear-gradient" x1="498.89" y1="579.8" x2="222.11" y2="303.03" gradientTransform="translate(0 -251.46)" gradientUnits="userSpaceOnUse"><stop offset="0" stop-color="#9f9d9c"/><stop offset=".54" stop-color="#030304"/><stop offset="1" stop-color="#9f9d9c"/></linearGradient><linearGradient id="linear-gradient-2" x1="360.57" y1="524.05" x2="360.57" y2="358.79" gradientTransform="translate(0 -251.46)" gradientUnits="userSpaceOnUse"><stop offset="0" stop-color="#482d1d"/><stop offset="1" stop-color="#b18046"/></linearGradient><linearGradient id="linear-gradient-3" x1="360.49" y1="519.88" x2="360.49" y2="362.83" gradientTransform="translate(0 -251.46)" gradientUnits="userSpaceOnUse"><stop offset="0" stop-color="#946137"/><stop offset="1" stop-color="#825329"/></linearGradient><pattern id="Nowy_wzorek_4" x="0" y="0" width="19.7" height="21.7" patternTransform="translate(42.9 32675.68)" patternUnits="userSpaceOnUse" viewBox="0 0 19.7 21.7"><g><rect class="cls-10" width="19.7" height="21.7"/><g><rect class="cls-10" width="19.7" height="21.7"/><g><rect class="cls-10" width="19.7" height="21.7"/><g><rect class="cls-10" width="19.7" height="21.7"/><g><rect class="cls-10" width="19.7" height="21.7"/><g><rect class="cls-10" width="19.7" height="21.7"/><g><rect class="cls-10" width="19.7" height="21.7"/><path class="cls-2" d="M16.6,8.7c2.1,2.1,2.1,5.6,0,7.7l-1.2,1.2c-2.1,2.1-5.6,2.1-7.8,0L3.1,13c-2.1-2.1-2.1-5.6,0-7.7l1.2-1.2c2.1-2.1,5.6-2.1,7.7,0l4.6,4.6Z"/></g></g></g></g></g></g></g></pattern><linearGradient id="linear-gradient-4" x1="265.02" y1="496.89" x2="265.02" y2="387.83" gradientTransform="translate(0 -252.47)" gradientUnits="userSpaceOnUse"><stop offset=".16" stop-color="#833c15"/><stop offset=".18" stop-color="#9a5e1a"/><stop offset=".22" stop-color="#ae7d22"/><stop offset=".26" stop-color="#c39d24"/><stop offset=".3" stop-color="#d6b92e"/><stop offset=".35" stop-color="#e4cf36"/><stop offset=".41" stop-color="#efe036"/><stop offset=".48" stop-color="#f5e952"/><stop offset=".58" stop-color="#f8eb57"/><stop offset=".86" stop-color="#f4e956"/><stop offset="1" stop-color="#fcf4f9"/></linearGradient><linearGradient id="linear-gradient-5" x1="265.02" y1="382" x2="265.02" y2="548.72" gradientTransform="translate(0 -252.47)" gradientUnits="userSpaceOnUse"><stop offset=".26" stop-color="#f4e956"/><stop offset=".86" stop-color="#823b15"/></linearGradient><linearGradient id="linear-gradient-6" x1="265.08" y1="495.39" x2="265.08" y2="389.42" gradientTransform="translate(0 -252.47)" gradientUnits="userSpaceOnUse"><stop offset=".16" stop-color="#823b15"/><stop offset=".17" stop-color="#8e491f"/><stop offset=".18" stop-color="#a36d3e"/><stop offset=".2" stop-color="#b78954"/><stop offset=".22" stop-color="#c7a468"/><stop offset=".24" stop-color="#d7bb7a"/><stop offset=".26" stop-color="#e2cc88"/><stop offset=".3" stop-color="#ead891"/><stop offset=".34" stop-color="#eede97"/><stop offset=".46" stop-color="#efe097"/><stop offset=".7" stop-color="#823b15"/><stop offset=".73" stop-color="#e6d234"/><stop offset=".74" stop-color="#ecda49"/><stop offset=".75" stop-color="#eede6d"/><stop offset=".77" stop-color="#efe18a"/><stop offset=".79" stop-color="#f8ebac"/><stop offset=".8" stop-color="#f8edbf"/><stop offset=".83" stop-color="#faf0cf"/><stop offset=".85" stop-color="#fcf2da"/><stop offset=".89" stop-color="#fdf4e1"/><stop offset=".99" stop-color="#fdf5e3"/></linearGradient><linearGradient id="linear-gradient-7" x1="265.02" y1="404.97" x2="265.02" y2="568.5" gradientTransform="translate(0 -252.47)" gradientUnits="userSpaceOnUse"><stop offset=".26" stop-color="#f4e956"/><stop offset=".77" stop-color="#823b15"/></linearGradient><linearGradient id="linear-gradient-8" x1="462.29" y1="-133.42" x2="462.29" y2="-25.73" gradientTransform="translate(0 109.91) scale(1 -1)" gradientUnits="userSpaceOnUse"><stop offset="0" stop-color="#030304"/><stop offset=".07" stop-color="#030404"/><stop offset=".11" stop-color="#070909"/><stop offset=".14" stop-color="#0f1113"/><stop offset=".16" stop-color="#1d1f21"/><stop offset=".19" stop-color="#2d2d2f"/><stop offset=".21" stop-color="#3f3e3c"/><stop offset=".4" stop-color="#595756"/><stop offset=".67" stop-color="#7b7a7a"/><stop offset=".88" stop-color="#929292"/><stop offset="1" stop-color="#9f9d9c"/></linearGradient><linearGradient id="linear-gradient-9" x1="462.29" y1="-133.41" x2="462.29" y2="-74.55" gradientTransform="translate(0 109.91) scale(1 -1)" gradientUnits="userSpaceOnUse"><stop offset="0" stop-color="#070808"/><stop offset="1" stop-color="#292a29"/></linearGradient></defs><rect class="cls-5" x=".5" y=".5" width="720" height="378.91"/><g><g id="prodBg"><rect id="external-border" class="cls-16" x="170.95" y="102.73" width="379.09" height="174.45"/><rect id="internal-border" class="cls-1" x="175.56" y="107.33" width="370.02" height="165.26"/><rect id="bg" class="cls-13" x="179.57" y="111.37" width="361.83" height="157.05"/><rect id="bgPattern" class="cls-7" x="179.57" y="111.37" width="361.83" height="157.05"/></g><path class="cls-17" d="M344.32,221.73l32.18-68.79h8.26l-32.18,68.79h-8.26Z"/><g id="mln"><polygon id="obram_czarne" class="cls-6" points="224.65 132.03 207.12 149.56 207.12 230.22 224.65 247.75 305.39 247.75 322.82 230.22 322.82 149.56 305.39 132.03 224.65 132.03"/><polygon id="obram_zolte" class="cls-18" points="226.93 135.36 210.52 151.84 210.52 227.94 226.93 244.42 303.04 244.42 319.51 227.94 319.51 151.84 303.04 135.36 226.93 135.36"/><polygon id="tlo_wew" class="cls-8" points="228.05 136.96 212.05 152.99 212.05 226.82 228.05 242.82 301.98 242.82 317.99 226.82 317.99 152.99 301.98 136.96 228.05 136.96"/><path id="obram_skosne" class="cls-4" d="M310.32,210.31c-2.93,0-5.31-2.38-5.31-5.31v-30.23c0-2.93,2.38-5.31,5.31-5.31h7.59v-16.48l-15.93-16.03h-16.58v7.59c0,2.93-2.38,5.31-5.31,5.31h-30.23c-2.93,0-5.31-2.38-5.31-5.31v-7.59h-16.48l-16.03,16.03v16.58h7.59c2.93,0,5.31,2.38,5.31,5.31v30.23c0,2.93-2.38,5.31-5.31,5.31h-7.59v16.48l16.03,16.03h16.58v-7.59c0-2.93,2.38-5.31,5.31-5.31h30.23c2.93,0,5.31,2.38,5.31,5.31v7.59h16.58l16.03-16.03v-16.58h-7.79Z"/><path id="tlo_zew" class="cls-11" d="M310.05,212.12c-3.61,0-6.54-3.61-6.54-7.21v-30.05c0-3.61,2.93-7.21,6.54-7.21h6.16v-13.45l-15.55-15.45h-13.37v6.16c0,3.61-3.61,6.54-7.21,6.54h-30.05c-3.61,0-7.21-2.93-7.21-6.54v-6.16h-13.55l-15.45,15.45v13.45h6.16c3.61,0,6.54,3.61,6.54,7.21v30.05c0,3.61-2.93,7.21-6.54,7.21h-6.16v13.45l15.45,15.45h13.45v-6.16c0-3.61,3.61-6.54,7.21-6.54h29.95c3.61,0,7.21,2.93,7.21,6.54v6.16h13.45l15.45-15.45v-13.45h-5.94Z"/></g><path class="cls-3" d="M261.91,210.86v-43.18h-6.54l-.2-4.88,16.5-1.43v49.49h-9.76Z"/><g id="tagSpace"><path class="cls-9" d="M520.36,189.53c0,32.05-26.06,58.11-58.11,58.11s-58.11-26.06-58.11-58.11,26.06-58.11,58.11-58.11,58.11,25.96,58.11,58.11Z"/><path class="cls-19" d="M516.13,189.53c0,29.71-24.09,53.8-53.8,53.8s-53.89-24.09-53.89-53.8,24.09-53.89,53.8-53.89,53.89,24.09,53.89,53.89Z"/><path class="cls-14" d="M510.88,189.53c0,26.81-21.74,48.64-48.64,48.64s-48.55-21.84-48.55-48.64,21.74-48.64,48.64-48.64,48.55,21.74,48.55,48.64Z"/><path id="ciemniej" class="cls-12" d="M516.13,189.53c0-1.12,0-2.16-.09-3.19-10.87,3-29.52,6.84-53.71,6.84s-42.27-4.78-53.61-8.72c-.19,1.69-.28,3.37-.28,5.06,0,29.71,24.09,53.8,53.8,53.8s53.89-24.09,53.89-53.8h0Z"/><g id="gwiazda"><circle class="cls-15" cx="462.24" cy="189.53" r="7.97"/><path class="cls-15" d="M472.27,184.56l17.53-22.49-22.49,17.53c2.16,.94,3.94,2.72,4.97,4.97h-.01Z"/><path class="cls-15" d="M457.27,179.5l-22.49-17.53,17.53,22.49c1.03-2.16,2.81-3.94,4.97-4.97h-.01Z"/><path class="cls-15" d="M501.13,189.53l-28.31-3.56c.37,1.12,.56,2.34,.56,3.56s-.19,2.44-.56,3.56l28.31-3.56Z"/><path class="cls-15" d="M465.8,178.94l-3.56-28.31-3.56,28.31c1.12-.37,2.34-.56,3.56-.56,1.31-.09,2.44,.19,3.56,.56Z"/><path class="cls-15" d="M467.3,199.46l22.49,17.53-17.53-22.49c-1.03,2.16-2.81,3.94-4.97,4.97h.01Z"/><path class="cls-15" d="M451.08,189.53c0-1.22,.19-2.44,.56-3.56l-28.31,3.56,28.31,3.56c-.28-1.12-.56-2.34-.56-3.56Z"/><path class="cls-15" d="M458.68,200.12l3.56,28.31,3.56-28.31c-1.12,.37-2.34,.56-3.56,.56s-2.34-.19-3.56-.56Z"/><path class="cls-15" d="M452.3,194.49l-17.53,22.49,22.49-17.53c-2.16-1.03-3.94-2.81-4.97-4.97h.01Z"/></g></g></g></svg>