<?xml version="1.0" encoding="UTF-8"?><svg id="Layer" xmlns="http://www.w3.org/2000/svg" xmlns:xlink="http://www.w3.org/1999/xlink" viewBox="0 0 721 379.91"><defs><style>.cls-1{fill:url(#linear-gradient-2);}.cls-2,.cls-3{fill:#020303;}.cls-4{fill:#1f1f1e;}.cls-5{fill:#fff;opacity:0;stroke:#1d1d1b;}.cls-5,.cls-6{stroke-miterlimit:10;}.cls-7{fill:url(#Nowy_wzorek_3);opacity:.1;}.cls-7,.cls-3{isolation:isolate;}.cls-6{stroke:#ffd80c;stroke-width:4.7px;}.cls-6,.cls-8{fill:none;}.cls-3{opacity:.64;}.cls-9{fill:url(#linear-gradient-5);}.cls-10{fill:#50504f;}.cls-11{fill:url(#linear-gradient-3);}.cls-12{fill:url(#linear-gradient);}.cls-13{fill:url(#linear-gradient-4);}</style><linearGradient id="linear-gradient" x1="481.54" y1="566.64" x2="237.46" y2="322.55" gradientTransform="translate(0 -252.64)" gradientUnits="userSpaceOnUse"><stop offset="0" stop-color="#9e9d9c"/><stop offset=".54" stop-color="#010202"/><stop offset="1" stop-color="#9e9d9c"/></linearGradient><linearGradient id="linear-gradient-2" x1="359.58" y1="528.32" x2="359.58" y2="360.88" gradientTransform="translate(0 -252.64)" gradientUnits="userSpaceOnUse"><stop offset="0" stop-color="#462c1b"/><stop offset="1" stop-color="#b18048"/></linearGradient><linearGradient id="linear-gradient-3" x1="359.5" y1="524.08" x2="359.5" y2="364.97" gradientTransform="translate(0 -252.64)" gradientUnits="userSpaceOnUse"><stop offset="0" stop-color="#946137"/><stop offset="1" stop-color="#805127"/></linearGradient><pattern id="Nowy_wzorek_3" x="0" y="0" width="19.7" height="21.7" patternTransform="translate(43.9 16649.47)" patternUnits="userSpaceOnUse" viewBox="0 0 19.7 21.7"><g><rect class="cls-8" width="19.7" height="21.7"/><g><rect class="cls-8" width="19.7" height="21.7"/><g><rect class="cls-8" width="19.7" height="21.7"/><g><rect class="cls-8" width="19.7" height="21.7"/><g><rect class="cls-8" width="19.7" height="21.7"/><path class="cls-4" d="M16.6,8.7c2.1,2.1,2.1,5.6,0,7.7l-1.2,1.2c-2.1,2.1-5.6,2.1-7.8,0L3.1,13c-2.1-2.1-2.1-5.6,0-7.7l1.2-1.2c2.1-2.1,5.6-2.1,7.7,0l4.6,4.6Z"/></g></g></g></g></g></pattern><linearGradient id="linear-gradient-4" x1="-490.72" y1="-746.69" x2="-412.64" y2="-668.61" gradientTransform="translate(245.16 -628.42) rotate(-45) scale(1 -1)" gradientUnits="userSpaceOnUse"><stop offset="0" stop-color="#020303"/><stop offset="1" stop-color="#797879"/></linearGradient><linearGradient id="linear-gradient-5" x1="-584.06" y1="-653.35" x2="-505.98" y2="-575.27" xlink:href="#linear-gradient-4"/></defs><rect class="cls-5" x=".5" y=".5" width="720" height="378.91"/><g id="prodBg"><rect id="external-border" class="cls-12" x="203.79" y="103.58" width="311.43" height="176.75"/><rect id="internal-border" class="cls-1" x="208.45" y="108.25" width="302.24" height="167.44"/><rect id="bg" class="cls-11" x="212.54" y="112.33" width="293.92" height="159.11"/><rect id="bgPattern" class="cls-7" x="212.54" y="112.33" width="293.92" height="159.11"/></g><g id="titan"><rect class="cls-2" x="367.56" y="132.75" width="117.18" height="117.18"/><rect class="cls-13" x="370.95" y="136.14" width="110.42" height="110.42"/><rect class="cls-10" x="376.3" y="141.49" width="99.71" height="99.71"/><path id="darker" class="cls-3" d="M481.36,246.55h-110.42v-60.52s34.77,5.36,55.16,5.36,55.26-5.36,55.26-5.36v60.52Z"/><polygon class="cls-6" points="426.77 158.78 437.2 180.68 461.25 183.78 443.59 200.41 448.1 224.19 426.77 212.54 405.53 224.19 410.04 200.41 392.37 183.78 416.43 180.68 426.77 158.78"/></g><g id="titan-2"><rect class="cls-2" x="235.56" y="132.75" width="117.18" height="117.18"/><rect class="cls-9" x="238.95" y="136.14" width="110.42" height="110.42"/><rect class="cls-10" x="244.3" y="141.49" width="99.71" height="99.71"/><path id="darker-2" class="cls-3" d="M349.36,246.55h-110.42v-60.52s34.77,5.36,55.16,5.36,55.26-5.36,55.26-5.36v60.52Z"/><polygon class="cls-6" points="294.77 158.78 305.2 180.68 329.25 183.78 311.59 200.41 316.1 224.19 294.77 212.54 273.53 224.19 278.04 200.41 260.37 183.78 284.43 180.68 294.77 158.78"/></g></svg>