<?xml version="1.0" encoding="UTF-8"?><svg id="Layer" xmlns="http://www.w3.org/2000/svg" xmlns:xlink="http://www.w3.org/1999/xlink" viewBox="0 0 721 379.91"><defs><style>.cls-1{fill:url(#linear-gradient-2);}.cls-2{fill:#030404;}.cls-3,.cls-4,.cls-5{fill:#020303;}.cls-4{stroke-width:1.9px;}.cls-4,.cls-6,.cls-7{stroke-miterlimit:10;}.cls-4,.cls-7{stroke:#030404;}.cls-5{opacity:.29;}.cls-5,.cls-8{isolation:isolate;}.cls-9{fill:url(#linear-gradient-6);}.cls-6{fill:#fff;opacity:0;stroke:#1d1d1b;}.cls-10{fill:url(#radial-gradient);}.cls-8{fill:url(#linear-gradient-5);opacity:.4;}.cls-11{fill:url(#linear-gradient-7);}.cls-12{fill:url(#linear-gradient-3);}.cls-13{fill:url(#linear-gradient);}.cls-7{fill:none;stroke-width:.98px;}.cls-14{fill:#010202;}.cls-15{fill:url(#linear-gradient-4);}</style><linearGradient id="linear-gradient" x1="466.07" y1="508.89" x2="466.07" y2="399.88" gradientTransform="translate(0 -261.17)" gradientUnits="userSpaceOnUse"><stop offset=".16" stop-color="#823b14"/><stop offset=".18" stop-color="#995d1a"/><stop offset=".22" stop-color="#ae7d22"/><stop offset=".26" stop-color="#c39d25"/><stop offset=".3" stop-color="#d6b92e"/><stop offset=".35" stop-color="#e4cf36"/><stop offset=".41" stop-color="#efe036"/><stop offset=".48" stop-color="#f5e94d"/><stop offset=".58" stop-color="#f8eb53"/><stop offset=".86" stop-color="#f5ea52"/><stop offset="1" stop-color="#fcf4f9"/></linearGradient><linearGradient id="linear-gradient-2" x1="466.02" y1="394.13" x2="466.02" y2="560.74" gradientTransform="translate(0 -261.17)" gradientUnits="userSpaceOnUse"><stop offset=".26" stop-color="#f5ea52"/><stop offset=".86" stop-color="#813a14"/></linearGradient><linearGradient id="linear-gradient-3" x1="466.07" y1="507.49" x2="466.07" y2="401.6" gradientTransform="translate(0 -261.17)" gradientUnits="userSpaceOnUse"><stop offset=".16" stop-color="#813a14"/><stop offset=".17" stop-color="#8d481f"/><stop offset=".18" stop-color="#a36c3d"/><stop offset=".2" stop-color="#b78954"/><stop offset=".22" stop-color="#c7a468"/><stop offset=".24" stop-color="#d7bb7a"/><stop offset=".26" stop-color="#e2cc88"/><stop offset=".3" stop-color="#ead891"/><stop offset=".34" stop-color="#eede97"/><stop offset=".46" stop-color="#efe097"/><stop offset=".7" stop-color="#813a14"/><stop offset=".73" stop-color="#e6d234"/><stop offset=".74" stop-color="#ebda49"/><stop offset=".75" stop-color="#eede6d"/><stop offset=".77" stop-color="#f0e18a"/><stop offset=".79" stop-color="#f8ebab"/><stop offset=".8" stop-color="#f8edbf"/><stop offset=".83" stop-color="#faf0cf"/><stop offset=".85" stop-color="#fcf2da"/><stop offset=".89" stop-color="#fdf4e1"/><stop offset=".99" stop-color="#fdf5e3"/></linearGradient><linearGradient id="linear-gradient-4" x1="466.02" y1="417.07" x2="466.02" y2="580.49" gradientTransform="translate(0 -261.17)" gradientUnits="userSpaceOnUse"><stop offset=".26" stop-color="#f5ea52"/><stop offset=".77" stop-color="#813a14"/></linearGradient><linearGradient id="linear-gradient-5" x1="259.65" y1="93.29" x2="259.65" y2="241.56" gradientTransform="translate(0 360.63) scale(1 -1)" gradientUnits="userSpaceOnUse"><stop offset="0" stop-color="#ffdc12"/><stop offset="0" stop-color="#ffdb13"/><stop offset=".05" stop-color="#f9bb1b"/><stop offset=".1" stop-color="#f59b18"/><stop offset=".16" stop-color="#ef7b19"/><stop offset=".22" stop-color="#e86112"/><stop offset=".27" stop-color="#e84a1d"/><stop offset=".34" stop-color="#e5391e"/><stop offset=".41" stop-color="#e63121"/><stop offset=".5" stop-color="#e62e21"/><stop offset=".59" stop-color="#e63121"/><stop offset=".66" stop-color="#e5391e"/><stop offset=".73" stop-color="#e84a1d"/><stop offset=".78" stop-color="#e86112"/><stop offset=".84" stop-color="#ef7b19"/><stop offset=".9" stop-color="#f59b18"/><stop offset=".95" stop-color="#f9bb1b"/><stop offset="1" stop-color="#ffdb13"/><stop offset="1" stop-color="#ffdc12"/></linearGradient><linearGradient id="linear-gradient-6" x1="259.65" y1="94.79" x2="259.65" y2="240.27" xlink:href="#linear-gradient-5"/><linearGradient id="linear-gradient-7" x1="259.71" y1="100.8" x2="259.71" y2="234.26" gradientTransform="translate(0 360.63) scale(1 -1)" gradientUnits="userSpaceOnUse"><stop offset="0" stop-color="#020303"/><stop offset="1" stop-color="#fff"/></linearGradient><radialGradient id="radial-gradient" cx="259.76" cy="167.53" fx="259.76" fy="167.53" r="58.28" gradientTransform="translate(0 360.63) scale(1 -1)" gradientUnits="userSpaceOnUse"><stop offset="0" stop-color="#cac8c8"/><stop offset="1" stop-color="#747272"/></radialGradient></defs><rect class="cls-6" x=".5" y=".5" width="720" height="378.91"/><g id="mln"><polygon id="obram_czarne" class="cls-4" points="425.68 135.38 408.19 152.98 408.19 233.55 425.68 251.04 506.36 251.04 523.74 233.55 523.74 152.98 506.36 135.38 425.68 135.38"/><polygon id="obram_zolte" class="cls-13" points="427.93 138.71 411.62 155.23 411.62 231.3 427.93 247.71 504 247.71 520.52 231.3 520.52 155.23 504 138.71 427.93 138.71"/><polygon id="tlo_wew" class="cls-1" points="429.11 140.32 413.13 156.41 413.13 230.12 429.11 246.1 503.03 246.1 518.91 230.12 518.91 156.41 503.03 140.32 429.11 140.32"/><path id="obram_skosne" class="cls-12" d="M511.29,213.7c-2.9,0-5.26-2.36-5.26-5.26v-30.26c0-2.9,2.36-5.26,5.26-5.26h7.62v-16.52l-15.88-15.99h-16.63v7.62c0,2.9-2.36,5.26-5.26,5.26h-30.26c-2.9,0-5.26-2.36-5.26-5.26v-7.62h-16.52l-15.99,15.99v16.63h7.62c2.9,0,5.26,2.36,5.26,5.26v30.26c0,2.9-2.36,5.26-5.26,5.26h-7.62v16.52l15.99,15.99h16.63v-7.62c0-2.9,2.36-5.26,5.26-5.26h30.26c2.9,0,5.26,2.36,5.26,5.26v7.62h16.52l15.99-15.99v-16.63h-7.72Z"/><path id="tlo_zew" class="cls-15" d="M511.08,215.42c-3.65,0-6.54-3.65-6.54-7.19v-30.04c0-3.65,2.9-7.19,6.54-7.19h6.12v-13.41l-15.56-15.45h-13.41v6.12c0,3.65-3.65,6.54-7.19,6.54h-30.04c-3.65,0-7.19-2.9-7.19-6.54v-6.12h-13.52l-15.45,15.45v13.52h6.12c3.65,0,6.54,3.65,6.54,7.19v30.04c0,3.65-2.9,7.19-6.54,7.19h-6.12v13.41l15.45,15.45h13.41v-6.12c0-3.65,3.65-6.54,7.19-6.54h29.93c3.65,0,7.19,2.9,7.19,6.54v6.12h13.41l15.45-15.45v-13.52h-5.79Z"/></g><path class="cls-14" d="M447.46,220.89v-8.69c3.33-4.51,6.54-8.05,9.66-10.73l4.51-3.97c3.22-2.9,5.9-5.69,7.94-8.48,2.15-2.79,3.11-5.69,3.11-8.8,0-2.79-.86-4.83-2.68-6.33s-4.18-2.25-7.19-2.25c-3.97,0-8.69,1.39-13.95,4.08v-8.05c5.58-2.04,10.94-3.11,16.2-3.11,5.79,0,10.41,1.39,13.95,4.18s5.36,6.44,5.36,11.05c0,2.9-.75,5.69-2.25,8.26-1.5,2.57-4.61,5.79-9.33,9.55l-3.76,3c-1.61,1.29-3.43,3-5.36,5.04-1.93,2.04-3.22,4.18-3.86,6.54h24.25v8.69h-36.59Z"/><path d="M348,182.59v-14.27h14.27v14.27h-14.27Zm0,38.62v-14.27h14.27v14.27h-14.27Z"/><g id="cityAny"><path class="cls-8" d="M259.71,267.34l-64.27-37.12v-74.14l64.27-37.01,64.16,37.01v74.14l-64.16,37.12Z"/><path class="cls-9" d="M259.71,265.84l-63.09-36.37v-72.74l63.09-36.37,62.98,36.37v72.74l-62.98,36.37Z"/><polygon class="cls-3" points="319.36 227.54 319.36 158.66 259.71 124.33 200.05 158.66 200.05 227.54 259.71 261.98 319.36 227.54"/><polygon class="cls-11" points="317.43 226.47 317.43 159.74 259.71 126.37 201.98 159.74 201.98 226.47 259.71 259.83 317.43 226.47"/><polygon class="cls-10" points="313.67 224.32 313.67 161.99 259.71 130.77 205.85 161.99 205.85 224.32 259.71 255.44 313.67 224.32"/><path class="cls-5" d="M319.04,225.61v-43.02h0c-39.48,5.79-78.96,5.79-118.55,0h0v43.02l59.22,34.22,59.33-34.22h0Z"/><g id="city-logo"><path class="cls-7" d="M218.4,200.72c0-22.1,18.45-39.91,41.2-39.91"/><path class="cls-7" d="M300.69,200.72c0-22.1-18.67-39.91-41.63-39.91"/><rect class="cls-2" x="217.65" y="198.14" width="83.79" height="5.26"/><rect class="cls-2" x="222.05" y="193.21" width="2.57" height="4.94"/><rect class="cls-2" x="223.33" y="189.35" width="1.18" height="3.97"/><rect class="cls-2" x="227.2" y="192.67" width="4.61" height="5.58"/><rect class="cls-2" x="227.2" y="186.34" width="2.25" height="6.33"/><rect class="cls-2" x="233.21" y="191.28" width="1.93" height="6.87"/><rect class="cls-2" x="235.14" y="177.55" width="2.15" height="20.49"/><rect class="cls-2" x="236.21" y="175.4" width="1.07" height="2.15"/><rect class="cls-2" x="237.28" y="193.21" width="3.65" height="4.94"/><rect class="cls-2" x="240.18" y="190.74" width=".75" height="2.47"/><rect class="cls-2" x="240.82" y="172.61" width="2.9" height="25.53"/><rect class="cls-2" x="243.72" y="177.22" width="1.39" height="20.92"/><rect class="cls-2" x="245.33" y="184.63" width="3" height="13.41"/><rect class="cls-2" x="248.33" y="187.42" width="1.93" height="10.84"/><rect class="cls-2" x="251.98" y="180.76" width="3.97" height="17.27"/><rect class="cls-2" x="256.06" y="187.63" width="2.04" height="10.41"/><rect class="cls-2" x="258.1" y="168.32" width="4.94" height="29.83"/><rect class="cls-2" x="265.28" y="174.86" width="2.57" height="23.17"/><rect class="cls-2" x="270.43" y="179.69" width="2.79" height="18.35"/><rect class="cls-2" x="267.64" y="191.92" width="2.79" height="6.12"/><rect class="cls-2" x="273.22" y="194.71" width="2.04" height="3.43"/><rect class="cls-2" x="277.51" y="192.89" width="1.82" height="5.15"/><rect class="cls-2" x="279.34" y="184.63" width="3.11" height="13.41"/><rect class="cls-2" x="282.34" y="178.4" width="2.25" height="19.74"/><rect class="cls-2" x="284.6" y="192.24" width="1.93" height="5.9"/><rect class="cls-2" x="287.6" y="188.6" width="2.36" height="9.44"/><rect class="cls-2" x="290.07" y="187.63" width="2.68" height="10.41"/><rect class="cls-2" x="294.47" y="193.42" width="1.18" height="4.83"/><rect class="cls-2" x="295.65" y="195.78" width="2.25" height="2.36"/></g></g></svg>