<?xml version="1.0" encoding="UTF-8"?><svg id="Layer" xmlns="http://www.w3.org/2000/svg" viewBox="0 0 721 379.91"><defs><style>.cls-1{fill:#fff;opacity:0;stroke:#1d1d1b;stroke-miterlimit:10;}</style></defs><rect class="cls-1" x=".5" y=".5" width="720" height="378.91"/><g><path d="M31.19,157.02v-27.3h5.68v23.43h12.16v3.87H31.19Z"/><path d="M65.32,157.7c-2.84,0-5.31-.59-7.42-1.76-2.1-1.17-3.7-2.87-4.8-5.07s-1.64-4.71-1.64-7.5,.55-5.28,1.64-7.49,2.7-3.91,4.81-5.08,4.58-1.76,7.4-1.76,5.26,.59,7.38,1.76,3.72,2.87,4.81,5.08c1.09,2.21,1.64,4.71,1.64,7.49s-.55,5.29-1.64,7.5c-1.09,2.21-2.69,3.9-4.79,5.07s-4.57,1.76-7.41,1.76Zm0-3.74c2.63,0,4.59-1.07,5.88-3.22s1.93-4.61,1.93-7.38-.65-5.24-1.94-7.38c-1.29-2.14-3.25-3.2-5.87-3.2s-4.59,1.07-5.88,3.2c-1.29,2.14-1.94,4.59-1.94,7.38s.64,5.23,1.93,7.38c1.28,2.15,3.25,3.22,5.89,3.22Z"/><path d="M96.42,157.7c-2.84,0-5.31-.59-7.42-1.76-2.1-1.17-3.7-2.87-4.8-5.07s-1.64-4.71-1.64-7.5,.55-5.28,1.64-7.49,2.7-3.91,4.81-5.08,4.58-1.76,7.4-1.76,5.26,.59,7.38,1.76,3.72,2.87,4.81,5.08c1.09,2.21,1.64,4.71,1.64,7.49s-.55,5.29-1.64,7.5c-1.09,2.21-2.69,3.9-4.79,5.07s-4.57,1.76-7.41,1.76Zm0-3.74c2.63,0,4.59-1.07,5.88-3.22s1.93-4.61,1.93-7.38-.65-5.24-1.94-7.38c-1.29-2.14-3.25-3.2-5.87-3.2s-4.59,1.07-5.88,3.2c-1.29,2.14-1.94,4.59-1.94,7.38s.64,5.23,1.93,7.38c1.28,2.15,3.25,3.22,5.89,3.22Z"/><path d="M115.36,157.02v-27.3h5.46v13.24l10.12-13.24h4.66l-9.14,12.21,11.42,15.09h-7.03l-10.03-13.43v13.43h-5.46Z"/><path d="M151.26,157.02l10.63-27.3h5.7l10.62,27.3h-5.84l-2.84-7.29h-11.3l-2.84,7.29h-4.14Zm8.39-10.92h8.47l-4.24-10.88-4.24,10.88Z"/><path d="M188.85,157.02v-23.54h-9.78v-3.76h25.24v3.76h-9.78v23.54h-5.68Z"/><path d="M226.98,157.02v-23.54h-9.78v-3.76h25.24v3.76h-9.78v23.54h-5.68Z"/><path d="M246.26,157.02v-27.3h5.68v11.09h11.29v-11.09h5.68v27.3h-5.68v-12.45h-11.29v12.45h-5.68Z"/><path d="M275.74,157.02v-27.3h17.49v3.76h-11.81v7.6h9.76v3.76h-9.76v8.3h12.67v3.87h-18.35Z"/><path d="M317.28,157.02v-23.54h-9.78v-3.76h25.24v3.76h-9.78v23.54h-5.68Z"/><path d="M348.71,157.7c-2.84,0-5.31-.59-7.42-1.76-2.1-1.17-3.7-2.87-4.8-5.07-1.09-2.21-1.64-4.71-1.64-7.5s.55-5.28,1.64-7.49c1.09-2.21,2.7-3.91,4.81-5.08,2.11-1.17,4.58-1.76,7.4-1.76s5.26,.59,7.38,1.76,3.72,2.87,4.81,5.08,1.64,4.71,1.64,7.49-.55,5.29-1.64,7.5-2.69,3.9-4.79,5.07-4.57,1.76-7.41,1.76Zm0-3.74c2.63,0,4.59-1.07,5.88-3.22s1.93-4.61,1.93-7.38-.65-5.24-1.94-7.38c-1.29-2.14-3.25-3.2-5.87-3.2s-4.59,1.07-5.88,3.2c-1.29,2.14-1.94,4.59-1.94,7.38s.64,5.23,1.93,7.38,3.25,3.22,5.89,3.22Z"/><path d="M367.66,157.02v-27.3h9.39c2.73,0,4.65,.29,5.76,.86s1.95,1.38,2.51,2.43,.85,2.36,.85,3.95c0,3.05-.96,5.37-2.88,6.97-1.92,1.6-4.5,2.4-7.73,2.4h-2.32v10.7h-5.57Zm5.57-14.44h1.07c2.09,0,3.62-.5,4.6-1.5,.98-1,1.47-2.18,1.47-3.53,0-.76-.15-1.45-.46-2.08s-.79-1.11-1.43-1.47c-.65-.36-1.68-.54-3.11-.54h-2.14v9.11Z"/><path d="M413.59,157.02v-7.29h-12.75v-4.1l12.53-15.92h5v15.92h3.19v4.1h-3.19v7.29h-4.78Zm-8.39-11.38h8.5v-10.71l-8.5,10.71Z"/><path d="M461.05,155.95c-1.19,.52-2.23,.88-3.12,1.08-.88,.19-1.89,.36-3.02,.48s-2.24,.19-3.33,.19c-4.77,0-8.33-1.35-10.68-4.04-2.35-2.69-3.52-6.12-3.52-10.29s1.17-7.63,3.51-10.31c2.34-2.68,6.02-4.02,11.04-4.02,2.96,0,5.92,.35,8.85,1.05v4.45c-1.41-.49-2.57-.85-3.47-1.08s-1.75-.4-2.55-.51c-.81-.11-1.61-.17-2.41-.17-3.14,0-5.41,1.01-6.83,3.03-1.42,2.02-2.12,4.51-2.12,7.49,0,3.12,.8,5.65,2.41,7.58,1.6,1.93,3.99,2.9,7.17,2.9,2.64,0,5.33-.67,8.06-2.01v4.19Z"/><path d="M463.01,157.02l10.63-27.3h5.7l10.62,27.3h-5.84l-2.84-7.29h-11.3l-2.84,7.29h-4.14Zm8.39-10.92h8.47l-4.24-10.88-4.24,10.88Z"/><path d="M493.81,157.02v-27.3h10.22c2.09,0,3.68,.26,4.78,.78,1.09,.52,1.96,1.32,2.59,2.38,.63,1.06,.95,2.27,.95,3.61,0,1.6-.46,3.11-1.38,4.53-.92,1.42-2.23,2.51-3.91,3.26l8.94,12.75h-6.92l-6.79-11.16h-3.12v11.16h-5.35Zm5.35-14.9h1.31c2.34,0,3.96-.51,4.86-1.53,.89-1.02,1.34-2.18,1.34-3.47,0-1.12-.36-2.01-1.09-2.67-.73-.66-2.21-.99-4.44-.99h-1.98v8.65Z"/><path d="M519.88,157.02v-27.3h11.75c3.15,0,5.6,.5,7.35,1.51,1.75,1.01,3.15,2.49,4.19,4.45,1.04,1.96,1.56,4.33,1.56,7.11s-.5,5.15-1.48,7.29c-.99,2.14-2.43,3.83-4.33,5.07-1.89,1.24-4.49,1.86-7.78,1.86h-11.25Zm5.68-3.87h4.24c2.21,0,3.91-.34,5.08-1.03,1.17-.69,2.1-1.85,2.79-3.5s1.02-3.47,1.02-5.49-.33-3.64-1-5.13c-.66-1.49-1.58-2.62-2.76-3.38-1.17-.77-3.16-1.15-5.95-1.15h-3.43v19.68Z"/><path d="M548.3,156.78v-4.69c2.13,.9,3.72,1.43,4.78,1.6,1.05,.17,2.02,.26,2.91,.26,1.6,0,2.79-.36,3.57-1.07s1.18-1.57,1.18-2.57c0-.76-.22-1.45-.66-2.07-.44-.6-1.52-1.38-3.23-2.34l-1.84-1.02c-2.63-1.46-4.41-2.82-5.34-4.06-.94-1.24-1.42-2.68-1.42-4.32,0-2.05,.79-3.81,2.36-5.28s3.83-2.2,6.77-2.2c2.2,0,4.68,.31,7.44,.94v4.37c-2.82-1.05-5.06-1.57-6.72-1.57-1.37,0-2.42,.3-3.14,.9-.72,.6-1.08,1.31-1.08,2.15,0,.64,.22,1.24,.66,1.79,.43,.55,1.5,1.31,3.21,2.27l1.97,1.09c3.02,1.69,4.94,3.15,5.77,4.39,.82,1.25,1.23,2.66,1.23,4.22,0,2.24-.85,4.15-2.56,5.73s-4.42,2.38-8.14,2.38c-2.21,0-4.78-.31-7.71-.92Z"/><path d="M583.48,157.02v-27.3h17.01v3.76h-11.33v8.28h9.28v3.76h-9.28v11.49h-5.68Z"/><path d="M605.17,157.02v-27.3h10.22c2.09,0,3.68,.26,4.78,.78,1.09,.52,1.96,1.32,2.59,2.38,.63,1.06,.95,2.27,.95,3.61,0,1.6-.46,3.11-1.38,4.53-.92,1.42-2.23,2.51-3.91,3.26l8.94,12.75h-6.92l-6.79-11.16h-3.12v11.16h-5.35Zm5.35-14.9h1.31c2.34,0,3.96-.51,4.86-1.53,.89-1.02,1.34-2.18,1.34-3.47,0-1.12-.36-2.01-1.09-2.67-.73-.66-2.21-.99-4.44-.99h-1.98v8.65Z"/><path d="M643.39,157.7c-2.84,0-5.31-.59-7.42-1.76s-3.7-2.87-4.8-5.07c-1.09-2.21-1.64-4.71-1.64-7.5s.55-5.28,1.64-7.49c1.09-2.21,2.7-3.91,4.81-5.08s4.58-1.76,7.4-1.76,5.26,.59,7.38,1.76,3.72,2.87,4.81,5.08,1.64,4.71,1.64,7.49-.55,5.29-1.64,7.5-2.69,3.9-4.79,5.07-4.57,1.76-7.41,1.76Zm0-3.74c2.63,0,4.59-1.07,5.88-3.22,1.28-2.15,1.93-4.61,1.93-7.38s-.65-5.24-1.94-7.38c-1.29-2.14-3.25-3.2-5.87-3.2s-4.59,1.07-5.88,3.2c-1.29,2.14-1.94,4.59-1.94,7.38s.64,5.23,1.93,7.38,3.25,3.22,5.89,3.22Z"/><path d="M662.34,157.02v-27.3h7.51l6.59,19.2,6.78-19.2h6.6v27.3h-5.24v-20.6l-6.67,18.78h-4.57l-6.54-19.06v20.88h-4.46Z"/><path d="M41.75,202.35v-23.54h-9.78v-3.76h25.23v3.76h-9.78v23.54h-5.68Z"/><path d="M61.03,202.35v-27.3h5.68v11.09h11.29v-11.09h5.68v27.3h-5.68v-12.45h-11.29v12.45h-5.68Z"/><path d="M90.51,202.35v-27.3h17.49v3.76h-11.81v7.6h9.76v3.76h-9.76v8.3h12.67v3.87h-18.35Z"/><path d="M125.26,202.35v-27.3h11.75c3.15,0,5.6,.5,7.35,1.51s3.15,2.49,4.19,4.45c1.04,1.96,1.56,4.33,1.56,7.11s-.5,5.15-1.49,7.29c-.99,2.14-2.43,3.83-4.33,5.07-1.89,1.24-4.49,1.86-7.78,1.86h-11.25Zm5.68-3.87h4.24c2.21,0,3.91-.34,5.08-1.03,1.17-.69,2.1-1.85,2.79-3.5s1.02-3.47,1.02-5.49-.33-3.64-1-5.13c-.66-1.49-1.58-2.62-2.76-3.38-1.17-.77-3.16-1.15-5.95-1.15h-3.43v19.68Z"/><path d="M155.22,202.35v-27.3h17.49v3.76h-11.81v7.6h9.76v3.76h-9.76v8.3h12.67v3.87h-18.35Z"/><path d="M199.88,201.28c-1.19,.52-2.23,.88-3.12,1.08-.89,.19-1.89,.36-3.02,.48-1.13,.13-2.24,.19-3.33,.19-4.77,0-8.33-1.35-10.68-4.04-2.35-2.69-3.52-6.12-3.52-10.29s1.17-7.63,3.51-10.31c2.34-2.68,6.02-4.02,11.04-4.02,2.96,0,5.92,.35,8.85,1.05v4.45c-1.41-.49-2.57-.85-3.47-1.08-.9-.23-1.75-.4-2.55-.51-.81-.11-1.61-.17-2.41-.17-3.14,0-5.41,1.01-6.83,3.03-1.41,2.02-2.12,4.51-2.12,7.49,0,3.12,.8,5.65,2.41,7.58,1.61,1.93,3.99,2.9,7.17,2.9,2.64,0,5.33-.67,8.06-2.01v4.19Z"/><path d="M204.82,202.35v-27.3h5.46v13.24l10.12-13.24h4.66l-9.14,12.21,11.42,15.09h-7.03l-10.03-13.43v13.43h-5.46Z"/><path d="M229.94,202.35v-5.92h5.92v5.92h-5.92Z"/><path d="M259.83,202.35v-23.54h-9.78v-3.76h25.23v3.76h-9.78v23.54h-5.68Z"/><path d="M276.12,202.35l10.63-27.3h5.69l10.62,27.3h-5.84l-2.84-7.29h-11.3l-2.84,7.29h-4.14Zm8.39-10.92h8.47l-4.24-10.88-4.24,10.88Z"/><path d="M306.92,202.35v-27.3h5.46v13.24l10.12-13.24h4.66l-9.14,12.21,11.42,15.09h-7.03l-10.03-13.43v13.43h-5.46Z"/><path d="M333.74,202.35v-27.3h17.49v3.76h-11.81v7.6h9.76v3.76h-9.76v8.3h12.67v3.87h-18.35Z"/><path d="M367.41,202.35v-4.32c1.65-2.21,3.24-4,4.79-5.35l2.23-1.97c1.6-1.41,2.92-2.81,3.96-4.2,1.04-1.38,1.56-2.83,1.56-4.34,0-1.36-.44-2.42-1.32-3.16-.88-.74-2.07-1.12-3.57-1.12-1.99,0-4.31,.68-6.95,2.03v-4c2.78-1.03,5.46-1.55,8.05-1.55,2.86,0,5.17,.69,6.94,2.06,1.76,1.37,2.64,3.21,2.64,5.51,0,1.45-.37,2.82-1.12,4.1-.74,1.29-2.29,2.88-4.63,4.77l-1.84,1.48c-.81,.65-1.7,1.49-2.66,2.51-.96,1.02-1.6,2.1-1.91,3.25h12.05v4.32h-18.23Z"/><path d="M416.84,203.04c-2.84,0-5.31-.59-7.42-1.76-2.1-1.17-3.7-2.87-4.8-5.07-1.09-2.21-1.64-4.71-1.64-7.5s.55-5.28,1.64-7.49c1.09-2.21,2.7-3.91,4.81-5.08s4.58-1.76,7.4-1.76,5.26,.59,7.38,1.76,3.72,2.87,4.81,5.08,1.64,4.71,1.64,7.49-.55,5.29-1.64,7.5c-1.09,2.21-2.69,3.9-4.79,5.07-2.1,1.17-4.57,1.76-7.41,1.76Zm0-3.74c2.63,0,4.59-1.07,5.88-3.22,1.28-2.15,1.93-4.61,1.93-7.38s-.65-5.24-1.94-7.38c-1.29-2.14-3.25-3.2-5.87-3.2s-4.59,1.07-5.88,3.2c-1.29,2.14-1.94,4.59-1.94,7.38s.64,5.23,1.93,7.38c1.29,2.15,3.25,3.22,5.89,3.22Z"/><path d="M435.79,202.35v-27.3h17.01v3.76h-11.33v8.28h9.28v3.76h-9.28v11.49h-5.68Z"/><path d="M476.33,202.35v-23.54h-9.78v-3.76h25.24v3.76h-9.78v23.54h-5.68Z"/><path d="M495.61,202.35v-27.3h5.68v11.09h11.29v-11.09h5.68v27.3h-5.68v-12.45h-11.29v12.45h-5.68Z"/><path d="M525.09,202.35v-27.3h17.49v3.76h-11.81v7.6h9.76v3.76h-9.76v8.3h12.67v3.87h-18.35Z"/><path d="M547.78,202.35v-27.3h7.51l6.59,19.2,6.78-19.2h6.6v27.3h-5.24v-20.6l-6.67,18.78h-4.57l-6.54-19.05v20.88h-4.46Z"/><path d="M594.13,202.35v-27.3h5.68v27.3h-5.68Z"/><path d="M606.66,202.35v-27.3h5.01l12.63,18.65v-18.65h4.56v27.3h-5.1l-12.54-18.65v18.65h-4.56Z"/><path d="M642.48,202.35v-23.54h-9.78v-3.76h25.24v3.76h-9.78v23.54h-5.68Z"/><path d="M673.91,203.04c-2.84,0-5.31-.59-7.42-1.76-2.1-1.17-3.7-2.87-4.8-5.07-1.09-2.21-1.64-4.71-1.64-7.5s.55-5.28,1.64-7.49c1.09-2.21,2.7-3.91,4.81-5.08s4.58-1.76,7.4-1.76,5.26,.59,7.38,1.76,3.72,2.87,4.81,5.08,1.64,4.71,1.64,7.49-.55,5.29-1.64,7.5c-1.09,2.21-2.69,3.9-4.79,5.07-2.1,1.17-4.57,1.76-7.41,1.76Zm0-3.74c2.63,0,4.59-1.07,5.88-3.22,1.28-2.15,1.93-4.61,1.93-7.38s-.65-5.24-1.94-7.38c-1.29-2.14-3.25-3.2-5.87-3.2s-4.59,1.07-5.88,3.2c-1.29,2.14-1.94,4.59-1.94,7.38s.64,5.23,1.93,7.38c1.29,2.15,3.25,3.22,5.89,3.22Z"/><path d="M21.25,247.69v-27.3h5.68v11.09h11.29v-11.09h5.68v27.3h-5.68v-12.45h-11.29v12.45h-5.68Z"/><path d="M47.74,247.69l10.63-27.3h5.7l10.62,27.3h-5.84l-2.84-7.29h-11.3l-2.84,7.29h-4.14Zm8.39-10.92h8.47l-4.24-10.88-4.24,10.88Z"/><path d="M78.55,247.69v-27.3h5.01l12.63,18.65v-18.65h4.56v27.3h-5.1l-12.54-18.65v18.65h-4.56Z"/><path d="M107.58,247.69v-27.3h11.75c3.15,0,5.6,.5,7.35,1.51s3.15,2.49,4.19,4.46c1.04,1.96,1.56,4.33,1.56,7.11s-.5,5.15-1.49,7.29c-.99,2.14-2.43,3.83-4.33,5.07s-4.49,1.86-7.78,1.86h-11.25Zm5.68-3.87h4.24c2.21,0,3.91-.34,5.08-1.03,1.17-.69,2.1-1.85,2.79-3.5s1.02-3.47,1.02-5.49-.33-3.64-1-5.13c-.66-1.49-1.58-2.62-2.76-3.38-1.17-.77-3.16-1.15-5.95-1.15h-3.43v19.68Z"/><path d="M146.61,247.69l10.63-27.3h5.7l10.62,27.3h-5.84l-2.84-7.29h-11.3l-2.84,7.29h-4.14Zm8.39-10.92h8.47l-4.24-10.88-4.24,10.88Z"/><path d="M177.42,247.69v-27.3h5.01l12.63,18.65v-18.65h4.56v27.3h-5.1l-12.54-18.65v18.65h-4.56Z"/><path d="M206.45,247.69v-27.3h11.75c3.15,0,5.6,.5,7.35,1.51s3.15,2.49,4.19,4.46c1.04,1.96,1.56,4.33,1.56,7.11s-.5,5.15-1.49,7.29c-.99,2.14-2.43,3.83-4.33,5.07s-4.49,1.86-7.78,1.86h-11.25Zm5.68-3.87h4.24c2.21,0,3.91-.34,5.08-1.03,1.17-.69,2.1-1.85,2.79-3.5s1.02-3.47,1.02-5.49-.33-3.64-1-5.13c-.66-1.49-1.58-2.62-2.76-3.38-1.17-.77-3.16-1.15-5.95-1.15h-3.43v19.68Z"/><path d="M248.47,247.69v-27.3h11.75c3.15,0,5.6,.5,7.35,1.51,1.75,1.01,3.15,2.49,4.19,4.46,1.04,1.96,1.56,4.33,1.56,7.11s-.5,5.15-1.48,7.29c-.99,2.14-2.43,3.83-4.33,5.07s-4.49,1.86-7.78,1.86h-11.25Zm5.68-3.87h4.24c2.21,0,3.91-.34,5.08-1.03,1.17-.69,2.1-1.85,2.79-3.5s1.02-3.47,1.02-5.49-.33-3.64-1-5.13c-.66-1.49-1.58-2.62-2.76-3.38-1.17-.77-3.16-1.15-5.95-1.15h-3.43v19.68Z"/><path d="M278.43,247.69v-27.3h5.68v27.3h-5.68Z"/><path d="M289.43,247.45v-4.69c2.13,.9,3.72,1.43,4.78,1.6,1.05,.17,2.02,.26,2.91,.26,1.6,0,2.79-.36,3.57-1.07s1.18-1.57,1.18-2.57c0-.76-.22-1.45-.66-2.07-.44-.6-1.52-1.38-3.23-2.34l-1.84-1.02c-2.63-1.46-4.41-2.82-5.34-4.06-.94-1.24-1.42-2.68-1.42-4.32,0-2.05,.79-3.81,2.36-5.28,1.57-1.46,3.83-2.2,6.77-2.2,2.2,0,4.68,.31,7.43,.94v4.37c-2.82-1.05-5.06-1.57-6.72-1.57-1.37,0-2.42,.3-3.14,.9-.72,.6-1.08,1.31-1.08,2.15,0,.64,.22,1.24,.66,1.79,.43,.55,1.5,1.31,3.21,2.27l1.97,1.09c3.01,1.69,4.94,3.15,5.77,4.39,.82,1.25,1.23,2.66,1.23,4.22,0,2.24-.85,4.15-2.56,5.73-1.71,1.58-4.42,2.38-8.14,2.38-2.21,0-4.78-.31-7.71-.92Z"/><path d="M334.51,246.62c-1.19,.52-2.23,.88-3.12,1.08-.89,.2-1.89,.36-3.02,.48-1.13,.13-2.24,.19-3.33,.19-4.77,0-8.33-1.35-10.68-4.04s-3.52-6.12-3.52-10.29,1.17-7.63,3.51-10.31,6.02-4.02,11.04-4.02c2.96,0,5.92,.35,8.85,1.05v4.45c-1.41-.49-2.57-.85-3.47-1.08-.9-.23-1.75-.4-2.55-.51-.81-.11-1.61-.17-2.41-.17-3.14,0-5.41,1.01-6.83,3.02-1.41,2.02-2.12,4.51-2.12,7.49,0,3.12,.8,5.65,2.41,7.58,1.61,1.93,3.99,2.9,7.17,2.9,2.64,0,5.33-.67,8.06-2.01v4.19Z"/><path d="M336.46,247.69l10.63-27.3h5.69l10.62,27.3h-5.84l-2.84-7.29h-11.3l-2.84,7.29h-4.14Zm8.39-10.92h8.47l-4.24-10.88-4.24,10.88Z"/><path d="M367.27,247.69v-27.3h10.22c2.09,0,3.68,.26,4.78,.78s1.96,1.32,2.59,2.38c.63,1.06,.95,2.27,.95,3.61,0,1.6-.46,3.11-1.38,4.53-.92,1.42-2.23,2.51-3.91,3.26l8.94,12.75h-6.92l-6.79-11.16h-3.12v11.16h-5.35Zm5.35-14.9h1.31c2.34,0,3.96-.51,4.86-1.53,.89-1.02,1.34-2.18,1.34-3.47,0-1.12-.36-2.01-1.09-2.67-.73-.66-2.21-.99-4.44-.99h-1.98v8.65Z"/><path d="M393.33,247.69v-27.3h11.75c3.15,0,5.6,.5,7.35,1.51,1.75,1.01,3.15,2.49,4.19,4.46,1.04,1.96,1.56,4.33,1.56,7.11s-.5,5.15-1.48,7.29c-.99,2.14-2.43,3.83-4.33,5.07s-4.49,1.86-7.78,1.86h-11.25Zm5.68-3.87h4.24c2.21,0,3.91-.34,5.08-1.03,1.17-.69,2.1-1.85,2.79-3.5s1.02-3.47,1.02-5.49-.33-3.64-1-5.13c-.66-1.49-1.58-2.62-2.76-3.38-1.17-.77-3.16-1.15-5.95-1.15h-3.43v19.68Z"/><path d="M442.14,247.69v-23.54h-9.78v-3.76h25.24v3.76h-9.78v23.54h-5.68Z"/><path d="M461.42,247.69v-27.3h5.68v11.09h11.29v-11.09h5.68v27.3h-5.68v-12.45h-11.29v12.45h-5.68Z"/><path d="M490.9,247.69v-27.3h17.49v3.76h-11.81v7.6h9.76v3.76h-9.76v8.3h12.67v3.87h-18.35Z"/><path d="M537.81,248.37c-2.84,0-5.31-.59-7.42-1.76s-3.7-2.87-4.8-5.07c-1.09-2.21-1.64-4.71-1.64-7.5s.55-5.28,1.64-7.49c1.09-2.21,2.7-3.91,4.81-5.08,2.12-1.17,4.58-1.76,7.4-1.76s5.26,.59,7.38,1.76c2.12,1.17,3.72,2.87,4.81,5.08s1.64,4.71,1.64,7.49-.55,5.29-1.64,7.5c-1.09,2.21-2.69,3.9-4.79,5.07s-4.57,1.76-7.41,1.76Zm0-3.75c2.63,0,4.59-1.07,5.88-3.22,1.28-2.15,1.93-4.61,1.93-7.38s-.65-5.24-1.94-7.38-3.25-3.2-5.87-3.2-4.59,1.07-5.88,3.2-1.94,4.59-1.94,7.38,.64,5.23,1.93,7.38c1.29,2.15,3.25,3.22,5.89,3.22Z"/><path d="M563.54,247.69v-23.54h-9.78v-3.76h25.24v3.76h-9.78v23.54h-5.68Z"/><path d="M582.82,247.69v-27.3h5.68v11.09h11.29v-11.09h5.68v27.3h-5.68v-12.45h-11.29v12.45h-5.68Z"/><path d="M612.29,247.69v-27.3h17.49v3.76h-11.81v7.6h9.76v3.76h-9.76v8.3h12.67v3.87h-18.35Z"/><path d="M634.98,247.69v-27.3h10.22c2.09,0,3.68,.26,4.78,.78s1.96,1.32,2.59,2.38c.63,1.06,.95,2.27,.95,3.61,0,1.6-.46,3.11-1.38,4.53-.92,1.42-2.23,2.51-3.91,3.26l8.94,12.75h-6.92l-6.79-11.16h-3.12v11.16h-5.35Zm5.35-14.9h1.31c2.34,0,3.96-.51,4.86-1.53,.89-1.02,1.34-2.18,1.34-3.47,0-1.12-.36-2.01-1.09-2.67-.73-.66-2.21-.99-4.44-.99h-1.98v8.65Z"/><path d="M672.02,247.69v-4.32c1.65-2.21,3.24-4,4.79-5.35l2.23-1.97c1.6-1.41,2.92-2.81,3.96-4.2,1.04-1.38,1.56-2.83,1.56-4.34,0-1.37-.44-2.42-1.32-3.16s-2.07-1.12-3.57-1.12c-1.99,0-4.31,.68-6.95,2.03v-4c2.78-1.03,5.46-1.55,8.05-1.55,2.86,0,5.17,.69,6.94,2.06,1.76,1.37,2.64,3.21,2.64,5.51,0,1.45-.37,2.82-1.12,4.1s-2.29,2.87-4.63,4.77l-1.84,1.48c-.81,.65-1.7,1.49-2.66,2.51-.96,1.02-1.6,2.1-1.91,3.25h12.05v4.32h-18.23Z"/><path d="M695.54,247.69v-5.92h5.92v5.92h-5.92Z"/></g></svg>