<?xml version="1.0" encoding="UTF-8"?><svg id="Layer" xmlns="http://www.w3.org/2000/svg" xmlns:xlink="http://www.w3.org/1999/xlink" viewBox="0 0 721 379.91"><defs><style>.cls-1{fill:url(#linear-gradient-2);}.cls-2{fill:#1f1f1e;}.cls-3{fill:#fff;opacity:0;stroke:#1d1d1b;}.cls-3,.cls-4{stroke-miterlimit:10;}.cls-5{fill:url(#Nowy_wzorek_3);opacity:.1;}.cls-5,.cls-6{isolation:isolate;}.cls-6{opacity:.64;}.cls-6,.cls-7{fill:#030304;}.cls-8,.cls-4{fill:none;}.cls-4{stroke:#ffd80c;stroke-width:4.67px;}.cls-9{fill:#515150;}.cls-10{fill:url(#linear-gradient-3);}.cls-11{fill:url(#linear-gradient);}.cls-12{fill:url(#linear-gradient-4);}</style><linearGradient id="linear-gradient" x1="448.93" y1="531.02" x2="272.07" y2="354.16" gradientTransform="translate(0 -252.64)" gradientUnits="userSpaceOnUse"><stop offset="0" stop-color="#9e9d9c"/><stop offset=".54" stop-color="#010202"/><stop offset="1" stop-color="#9e9d9c"/></linearGradient><linearGradient id="linear-gradient-2" x1="360.58" y1="525.85" x2="360.58" y2="359.36" gradientTransform="translate(0 -252.64)" gradientUnits="userSpaceOnUse"><stop offset="0" stop-color="#462c1b"/><stop offset="1" stop-color="#b18048"/></linearGradient><linearGradient id="linear-gradient-3" x1="360.51" y1="521.63" x2="360.51" y2="363.42" gradientTransform="translate(0 -252.64)" gradientUnits="userSpaceOnUse"><stop offset="0" stop-color="#946137"/><stop offset="1" stop-color="#805127"/></linearGradient><pattern id="Nowy_wzorek_3" x="0" y="0" width="19.7" height="21.7" patternTransform="translate(43.9 16649.47)" patternUnits="userSpaceOnUse" viewBox="0 0 19.7 21.7"><g><rect class="cls-8" width="19.7" height="21.7"/><g><rect class="cls-8" width="19.7" height="21.7"/><g><rect class="cls-8" width="19.7" height="21.7"/><g><rect class="cls-8" width="19.7" height="21.7"/><g><rect class="cls-8" width="19.7" height="21.7"/><path class="cls-2" d="M16.6,8.7c2.1,2.1,2.1,5.6,0,7.7l-1.2,1.2c-2.1,2.1-5.6,2.1-7.8,0L3.1,13c-2.1-2.1-2.1-5.6,0-7.7l1.2-1.2c2.1-2.1,5.6-2.1,7.7,0l4.6,4.6Z"/></g></g></g></g></g></pattern><linearGradient id="linear-gradient-4" x1="-535.76" y1="1315.93" x2="-458.09" y2="1238.23" gradientTransform="translate(-191.13 -1064.43) rotate(-45)" gradientUnits="userSpaceOnUse"><stop offset="0" stop-color="#030304"/><stop offset="1" stop-color="#7a7879"/></linearGradient></defs><rect class="cls-3" x=".5" y=".5" width="720" height="378.91"/><g id="prodBg"><rect id="external-border" class="cls-11" x="271.52" y="102.08" width="177.97" height="175.75"/><rect id="internal-border" class="cls-1" x="276.16" y="106.72" width="168.84" height="166.49"/><rect id="bg" class="cls-10" x="280.22" y="110.78" width="160.59" height="158.21"/><rect id="bgPattern" class="cls-5" x="280.22" y="110.78" width="160.59" height="158.21"/></g><g id="titan"><rect class="cls-7" x="302.22" y="131.67" width="116.56" height="116.56"/><rect class="cls-12" x="305.6" y="135.05" width="109.85" height="109.85"/><rect class="cls-9" x="310.92" y="140.38" width="99.18" height="99.18"/><path id="darker" class="cls-6" d="M415.42,244.88h-109.85v-60.2s34.59,5.32,54.87,5.32,54.97-5.32,54.97-5.32v60.2h0Z"/><polygon class="cls-4" points="361.13 157.58 371.5 179.36 395.42 182.44 377.86 198.99 382.35 222.65 361.13 211.05 339.99 222.65 344.48 198.99 326.89 182.44 350.84 179.36 361.13 157.58"/></g></svg>