<?xml version="1.0" encoding="utf-8"?>
<!-- Generator: Adobe Illustrator 26.4.1, SVG Export Plug-In . SVG Version: 6.00 Build 0)  -->
<svg version="1.1" id="Layer" xmlns="http://www.w3.org/2000/svg" xmlns:xlink="http://www.w3.org/1999/xlink" x="0px" y="0px"
	 viewBox="0 0 721 379.9" style="enable-background:new 0 0 721 379.9;" xml:space="preserve">
<style type="text/css">
	.st0{fill:none;}
	.st1{fill:#1F1F1E;}
	.st2{opacity:0;fill:#FFFFFF;fill-opacity:0;}
	.st3{fill:#020303;}
	.st4{fill:url(#SVGID_1_);}
	.st5{fill:url(#SVGID_00000048495418335668081890000012563285011460278192_);}
	.st6{opacity:8.000000e-02;fill:#020303;enable-background:new    ;}
	.st7{fill:#115729;}
	.st8{fill:#18291B;}
	.st9{opacity:0.5;fill:#E03D15;enable-background:new    ;}
	.st10{fill:url(#SVGID_00000034071937107935839950000008689281506239473818_);}
	.st11{fill:#CD141B;}
	.st12{fill:none;stroke:#010202;stroke-width:1.88;stroke-miterlimit:10;}
	.st13{fill:url(#external-border_00000049191332294713511060000015634845238764690867_);}
	.st14{fill:url(#internal-border_00000007393781365480455240000001591976257840280989_);}
	.st15{fill:url(#bg_00000035507366799785823500000015519640870971203214_);}
	.st16{opacity:0.1;fill:url(#bgPattern_00000090252635432758639790000002545189326579246512_);enable-background:new    ;}
	.st17{fill:#010202;stroke:#030304;stroke-width:1.9;stroke-miterlimit:10;}
	.st18{fill:url(#obram_zolte_00000129206627841199388980000009288387774483225765_);}
	.st19{fill:url(#tlo_wew_00000070815545028025732510000018354344362778952626_);}
	.st20{fill:url(#obram_skosne_00000183955398442996704360000005131831471199462789_);}
	.st21{fill:url(#tlo_zew_00000023258179142614361320000017954610086789100160_);}
	.st22{fill:#030304;}
	.st23{fill:url(#SVGID_00000025429860243646782450000017256158154123713184_);}
	.st24{fill:#48AD38;}
	.st25{fill:#0B572A;stroke:#1D4422;stroke-width:3.7;stroke-miterlimit:10;}
	.st26{opacity:5.000000e-02;fill:#030304;enable-background:new    ;}
	.st27{fill:#010101;}
</style>
<pattern  y="379.9" width="19.7" height="21.7" patternUnits="userSpaceOnUse" id="bgPattern_000001774572804211885" viewBox="0 -21.7 19.7 21.7" style="overflow:visible;">
	<g>
		<rect y="-21.7" class="st0" width="19.7" height="21.7"/>
		<g>
			<rect y="-21.7" class="st0" width="19.7" height="21.7"/>
			<g>
				<rect y="-21.7" class="st0" width="19.7" height="21.7"/>
				<g>
					<rect y="-21.7" class="st0" width="19.7" height="21.7"/>
					<g>
						<rect y="-21.7" class="st0" width="19.7" height="21.7"/>
						<g>
							<rect y="-21.7" class="st0" width="19.7" height="21.7"/>
							<g>
								<rect y="-21.7" class="st0" width="19.7" height="21.7"/>
								<g>
									<rect y="-21.7" class="st0" width="19.7" height="21.7"/>
									<path class="st1" d="M16.6-8.7c2.1-2.1,2.1-5.6,0-7.7l-1.2-1.2c-2.1-2.1-5.6-2.1-7.8,0L3.1-13C1-10.9,1-7.4,3.1-5.3
										l1.2,1.2C6.4-2,9.9-2,12-4.1L16.6-8.7z"/>
								</g>
							</g>
						</g>
					</g>
				</g>
			</g>
		</g>
	</g>
</pattern>
<rect x="0.5" y="0.5" class="st2" width="720" height="378.9"/>
<g id="animal">
	<rect x="542.9" y="131.4" class="st3" width="117" height="117"/>
	
		<linearGradient id="SVGID_1_" gradientUnits="userSpaceOnUse" x1="-2555.4175" y1="4914.3633" x2="-2477.4229" y2="4836.3687" gradientTransform="matrix(0.7071 -0.7071 0.7071 0.7071 -1066.5605 -5036.8818)">
		<stop  offset="0" style="stop-color:#1F4D23"/>
		<stop  offset="0.43" style="stop-color:#4B6E30"/>
		<stop  offset="1" style="stop-color:#95A946"/>
	</linearGradient>
	<rect x="546.3" y="134.7" class="st4" width="110.3" height="110.3"/>
	
		<radialGradient id="SVGID_00000144311164528595521620000011043606746244963762_" cx="601.5" cy="2285.0798" r="49.7501" gradientTransform="matrix(1 0 0 1 0 -2095.1797)" gradientUnits="userSpaceOnUse">
		<stop  offset="0.25" style="stop-color:#95A946"/>
		<stop  offset="1" style="stop-color:#397931"/>
	</radialGradient>
	
		<rect x="551.7" y="140.1" style="fill:url(#SVGID_00000144311164528595521620000011043606746244963762_);" width="99.6" height="99.6"/>
	<path id="darker" class="st6" d="M656.6,245H546.3v-60.4c0,0,34.7,5.3,55.1,5.3s55.2-5.3,55.2-5.3V245z"/>
	<path class="st7" d="M589.8,161.9c-0.3,0-3,0.4-4.6,2.6c-0.7,0.8-0.9,1.8-1.1,2.8c-0.4,2.1-1.1,5.8,0.4,10.4c0.8,2.2,1.6,4.8,4,6.6
		c0.8,0.6,2.2,1.6,4.2,1.4c2.2-0.2,3.5-1.8,4-2.4c1.9-2.2,1.9-4.7,2-7.4c0-1.3,0-5.3-2.1-9.6c-1.4-2.8-2.6-3.6-3.2-3.9
		C591.8,161.6,590.3,161.8,589.8,161.9L589.8,161.9L589.8,161.9z"/>
	<path class="st7" d="M615.7,160.3c-0.3-0.1-2.9-0.7-5.2,0.8c-0.8,0.6-1.5,1.3-2.1,2.2c-1.1,1.8-3.1,5-3.3,9.8
		c-0.1,2.4-0.2,5.1,1.5,7.6c0.6,0.8,1.6,2.2,3.5,2.7c2.1,0.6,4-0.5,4.5-0.8c2.4-1.4,3.5-3.8,4.5-6.3c0.5-1.2,1.9-5,1.4-9.7
		c-0.3-3.1-1.2-4.2-1.7-4.7C617.6,160.8,616.1,160.4,615.7,160.3L615.7,160.3L615.7,160.3z"/>
	<path class="st7" d="M572.2,176.9c-0.3,0.1-2.9,0.7-4.3,3c-0.6,0.9-0.8,1.8-0.8,2.9c-0.2,2.1-0.6,5.8,1.3,10.3
		c0.9,2.1,2,4.6,4.7,6.2c0.8,0.5,2.4,1.3,4.3,0.9c2.2-0.4,3.3-2.1,3.8-2.7c1.6-2.3,1.5-4.9,1.3-7.6c-0.1-1.3-0.5-5.2-3-9.3
		c-1.6-2.6-2.9-3.3-3.6-3.6C574.2,176.5,572.8,176.8,572.2,176.9L572.2,176.9L572.2,176.9z"/>
	<path class="st7" d="M631.3,174.6c-0.3-0.1-2.9-0.7-5.2,0.9c-0.8,0.7-1.4,1.4-2,2.4c-1,1.9-3,5.1-3,9.9c0,2.3-0.1,5.1,1.7,7.5
		c0.6,0.8,1.7,2.2,3.6,2.6c2.1,0.5,3.8-0.6,4.5-0.9c2.4-1.4,3.4-3.8,4.3-6.4c0.5-1.2,1.8-5,1.1-9.7c-0.4-3.1-1.3-4.2-1.8-4.7
		C633.3,175.1,631.8,174.7,631.3,174.6L631.3,174.6L631.3,174.6z"/>
	<path class="st8" d="M630.7,177.6c-0.2,0-2.2-0.5-3.8,0.8c-0.7,0.5-1,1-1.5,1.7c-0.8,1.4-2.2,3.8-2.2,7.4c0,1.7-0.1,3.8,1.3,5.6
		c0.4,0.6,1.2,1.7,2.6,2c1.6,0.4,2.9-0.5,3.4-0.7c1.8-1.1,2.4-2.8,3.2-4.8c0.4-0.9,1.3-3.8,0.8-7.2c-0.3-2.2-1-3.1-1.3-3.5
		C632.2,177.9,631,177.6,630.7,177.6L630.7,177.6L630.7,177.6z"/>
	<path class="st8" d="M614.9,163.4c-0.2-0.1-2.2-0.5-3.8,0.6c-0.7,0.5-1,0.9-1.5,1.7c-0.8,1.3-2.2,3.7-2.4,7.3
		c-0.1,1.7-0.2,3.8,1.1,5.6c0.4,0.6,1.1,1.7,2.5,2.1c1.6,0.4,2.9-0.4,3.4-0.6c1.8-1,2.5-2.7,3.3-4.6c0.4-0.9,1.4-3.7,1-7.1
		c-0.3-2.2-0.9-3.1-1.2-3.5C616.3,163.8,615.3,163.5,614.9,163.4L614.9,163.4L614.9,163.4z"/>
	<path class="st8" d="M590.1,165c-0.2,0-2.2,0.3-3.4,1.9c-0.5,0.7-0.7,1.3-0.8,2.1c-0.3,1.5-0.8,4.2,0.3,7.7c0.6,1.6,1.1,3.6,3,4.9
		c0.6,0.4,1.7,1.1,3.1,1c1.6-0.2,2.5-1.3,2.9-1.7c1.3-1.6,1.4-3.5,1.5-5.4c0-0.9,0-3.9-1.6-7c-1-2.1-2-2.6-2.3-2.8
		C591.6,164.8,590.5,164.9,590.1,165L590.1,165L590.1,165z"/>
	<path class="st8" d="M572.9,179.6c-0.2,0-2.2,0.5-3.3,2.3c-0.5,0.8-0.6,1.4-0.7,2.2c-0.2,1.6-0.5,4.5,1,7.9
		c0.7,1.6,1.5,3.6,3.6,4.7c0.7,0.4,1.9,1,3.3,0.8c1.6-0.3,2.5-1.6,2.8-2.1c1.2-1.8,1.1-3.8,1-5.8c-0.1-1-0.4-4-2.2-7.1
		c-1.2-2.1-2.2-2.5-2.7-2.7C574.4,179.3,573.2,179.6,572.9,179.6L572.9,179.6L572.9,179.6z"/>
	<path class="st7" d="M602.2,184.6c-1.3,0.1-2.7,0.1-4.3,0.9c-1.8,0.9-2.8,2.4-3.8,3.6c-0.8,1.1-0.8,1.2-2,3.2
		c-1.1,1.7-1.7,2.7-2.7,3.8c-1.2,1.4-2.4,2.2-4.6,3.9c-2.3,1.8-2.5,1.7-3.2,2.4c-1.6,1.9-2,3.9-2.2,5.4c-0.2,1.3-0.7,3.8,0.4,6.6
		c0.5,1.2,1.3,3.6,3.5,4.6c0.8,0.4,1.7,0.5,3.8,0.4c3.5-0.2,5.8-0.8,7.9-1.3c2.4-0.6,5-1.1,8.2-1.2c3.8-0.1,7.2,0.6,9,0.8
		c2.1,0.4,3.6,0.8,6.5,1.1c2.4,0.3,3.7,0.2,5.1-0.3c0.8-0.3,2.3-0.8,3.5-2.1c1.2-1.5,1.3-3.1,1.3-4.8c0.1-1.1,0.1-3.8-1.5-7
		c-0.7-1.4-1.2-2.1-3.4-4.7c-5.8-7.2-6.1-8.1-8.4-10c-1.4-1.2-2.8-2.4-5-3.5C609,185.8,606.1,184.4,602.2,184.6L602.2,184.6
		L602.2,184.6z"/>
	<path class="st8" d="M602.5,187c-1.1,0.1-2.3,0.1-3.8,0.8c-1.5,0.8-2.4,2.1-3.2,3.1c-0.8,0.9-0.7,1-1.7,2.8
		c-0.9,1.5-1.5,2.4-2.3,3.3c-1,1.2-2.1,2-4,3.4c-2.1,1.6-2.2,1.4-2.8,2.2c-1.4,1.6-2.6,4-2.9,5.2c-0.2,1.1-0.6,3.2,0.3,5.6
		c0.4,1.1,1.1,3.1,3,3.9c0.8,0.4,2.4-0.1,4.1-0.3c3-0.2,5.1-0.8,6.8-1.1c2.1-0.5,4.3-0.9,7-1c3.3-0.1,6.2,0.5,7.8,0.8
		c1.8,0.4,3.1,0.8,5.5,0.9c2.1,0.2,4.6,1,5.7,0.7c0.8-0.2,2-0.8,3-2s0.8-3.9,0.8-5.4c0.1-0.9-0.8-3-2.3-5.7c-0.8-1.3-1.1-1.8-2.9-4
		c-5-6.2-5.2-6.9-7.2-8.6c-1.2-1-2.4-2.1-4.3-3C608.3,188,605.8,186.8,602.5,187L602.5,187L602.5,187z"/>
</g>
<g id="arrow">
	<path class="st9" d="M509.9,189.9l-57.5-26.6l7,13.8h-64.8c0,0-2,6.2-2,12.2s2,10.9,2,10.9h66l-8.2,16.2L509.9,189.9L509.9,189.9
		L509.9,189.9z"/>
	
		<linearGradient id="SVGID_00000005239452447509112570000004408934995870799238_" gradientUnits="userSpaceOnUse" x1="449.7" y1="-1689.4099" x2="449.7" y2="-1646.21" gradientTransform="matrix(1 0 0 -1 0 -1477.9098)">
		<stop  offset="0" style="stop-color:#542913"/>
		<stop  offset="0.45" style="stop-color:#542913;stop-opacity:0.7"/>
		<stop  offset="0.58" style="stop-color:#E03D15;stop-opacity:0.5"/>
		<stop  offset="1" style="stop-color:#E03D15;stop-opacity:0.5"/>
	</linearGradient>
	<path style="fill:url(#SVGID_00000005239452447509112570000004408934995870799238_);" d="M464.4,197.9h-68.1
		c-0.5-1.8-1.3-5-1.3-8.5c0-3.8,0.8-7.7,1.4-9.9h66.8l-5.6-11.2l46.8,21.6l-46.8,21.6L464.4,197.9L464.4,197.9L464.4,197.9
		L464.4,197.9z"/>
	<path class="st11" d="M469.4,194.8h-70.7c-0.3-1.5-0.6-3.4-0.6-5.4c0-2.4,0.4-4.8,0.8-6.8h69.3l-3.9-7.8l32.6,15.1L464.3,205
		L469.4,194.8L469.4,194.8L469.4,194.8z"/>
	<path class="st12" d="M464.4,197.9h-68.1c-0.5-1.8-1.3-5-1.3-8.5c0-3.8,0.8-7.7,1.4-9.9h66.8l-5.6-11.2l46.8,21.6l-46.8,21.6
		L464.4,197.9L464.4,197.9L464.4,197.9L464.4,197.9z"/>
</g>
<g id="prodBg">
	
		<linearGradient id="external-border_00000018920875910036246920000007749638982057241002_" gradientUnits="userSpaceOnUse" x1="326.7067" y1="-1807.4617" x2="46.4933" y2="-1527.2781" gradientTransform="matrix(1 0 0 -1 0 -1477.3698)">
		<stop  offset="0" style="stop-color:#9E9D9C"/>
		<stop  offset="0.54" style="stop-color:#010202"/>
		<stop  offset="1" style="stop-color:#9E9D9C"/>
	</linearGradient>
	
		<rect id="external-border" x="61" y="35.4" style="fill:url(#external-border_00000018920875910036246920000007749638982057241002_);" width="251.2" height="309.2"/>
	
		<linearGradient id="internal-border_00000104695849656789827200000001753889823599112871_" gradientUnits="userSpaceOnUse" x1="186.7" y1="-1817.2699" x2="186.7" y2="-1517.2699" gradientTransform="matrix(1 0 0 -1 0 -1477.3698)">
		<stop  offset="0" style="stop-color:#462C1B"/>
		<stop  offset="1" style="stop-color:#B18048"/>
	</linearGradient>
	
		<rect id="internal-border" x="65.6" y="39.9" style="fill:url(#internal-border_00000104695849656789827200000001753889823599112871_);" width="242.2" height="300"/>
	
		<linearGradient id="bg_00000116207302093216931890000006401189222806729887_" gradientUnits="userSpaceOnUse" x1="186.6" y1="-1813.1699" x2="186.6" y2="-1521.3699" gradientTransform="matrix(1 0 0 -1 0 -1477.3698)">
		<stop  offset="0" style="stop-color:#946137"/>
		<stop  offset="1" style="stop-color:#805127"/>
	</linearGradient>
	
		<rect id="bg" x="69.6" y="44" style="fill:url(#bg_00000116207302093216931890000006401189222806729887_);" width="234" height="291.8"/>
	
		<pattern  id="bgPattern_00000172403728683960120250000008638947363209490096_" xlink:href="#bgPattern_000001774572804211885" patternTransform="matrix(1 0 0 -1 45.1 -49365.0586)">
	</pattern>
	
		<rect id="bgPattern" x="69.6" y="44" style="opacity:0.1;fill:url(#bgPattern_00000172403728683960120250000008638947363209490096_);enable-background:new    ;" width="234" height="291.8"/>
</g>
<g id="mln">
	<polygon id="obram_czarne" class="st17" points="184.3,199.2 166.8,216.7 166.8,297.1 184.3,314.6 264.9,314.6 282.3,297.1 
		282.3,216.7 264.9,199.2 	"/>
	
		<linearGradient id="obram_zolte_00000019642461317728214270000016854414845357904319_" gradientUnits="userSpaceOnUse" x1="224.6" y1="-1789.6799" x2="224.6" y2="-1680.8799" gradientTransform="matrix(1 0 0 -1 0 -1478.3798)">
		<stop  offset="0.16" style="stop-color:#823A13"/>
		<stop  offset="0.18" style="stop-color:#985C1A"/>
		<stop  offset="0.22" style="stop-color:#AE7D22"/>
		<stop  offset="0.26" style="stop-color:#C39D26"/>
		<stop  offset="0.3" style="stop-color:#D6B92E"/>
		<stop  offset="0.35" style="stop-color:#E4CF36"/>
		<stop  offset="0.41" style="stop-color:#EFE036"/>
		<stop  offset="0.48" style="stop-color:#F6E947"/>
		<stop  offset="0.58" style="stop-color:#F8EA4E"/>
		<stop  offset="0.86" style="stop-color:#F6EA4D"/>
		<stop  offset="1" style="stop-color:#FCF4F9"/>
	</linearGradient>
	<polygon id="obram_zolte" style="fill:url(#obram_zolte_00000019642461317728214270000016854414845357904319_);" points="
		186.6,202.5 170.2,218.9 170.2,294.9 186.6,311.3 262.5,311.3 279,294.9 279,218.9 262.5,202.5 	"/>
	
		<linearGradient id="tlo_wew_00000179603945410180155280000014599740971193895323_" gradientUnits="userSpaceOnUse" x1="224.65" y1="-1675.0599" x2="224.65" y2="-1841.4398" gradientTransform="matrix(1 0 0 -1 0 -1478.3798)">
		<stop  offset="0.26" style="stop-color:#F6EA4D"/>
		<stop  offset="0.86" style="stop-color:#803813"/>
	</linearGradient>
	<polygon id="tlo_wew" style="fill:url(#tlo_wew_00000179603945410180155280000014599740971193895323_);" points="187.7,204.1 
		171.8,220.1 171.8,293.7 187.7,309.7 261.5,309.7 277.5,293.7 277.5,220.1 261.5,204.1 	"/>
	
		<linearGradient id="obram_skosne_00000073706952753755688960000012526907215034492081_" gradientUnits="userSpaceOnUse" x1="224.7" y1="-1788.1799" x2="224.7" y2="-1682.4799" gradientTransform="matrix(1 0 0 -1 0 -1478.3798)">
		<stop  offset="0.16" style="stop-color:#803813"/>
		<stop  offset="0.17" style="stop-color:#8C471E"/>
		<stop  offset="0.18" style="stop-color:#A26B3C"/>
		<stop  offset="0.2" style="stop-color:#B78954"/>
		<stop  offset="0.22" style="stop-color:#C7A468"/>
		<stop  offset="0.24" style="stop-color:#D7BB7A"/>
		<stop  offset="0.26" style="stop-color:#E2CC88"/>
		<stop  offset="0.3" style="stop-color:#EAD891"/>
		<stop  offset="0.34" style="stop-color:#EEDE97"/>
		<stop  offset="0.46" style="stop-color:#EFE097"/>
		<stop  offset="0.7" style="stop-color:#803813"/>
		<stop  offset="0.73" style="stop-color:#E6D234"/>
		<stop  offset="0.74" style="stop-color:#EBD948"/>
		<stop  offset="0.75" style="stop-color:#EEDE6D"/>
		<stop  offset="0.77" style="stop-color:#F0E28A"/>
		<stop  offset="0.79" style="stop-color:#F8EBAA"/>
		<stop  offset="0.8" style="stop-color:#F8EDBF"/>
		<stop  offset="0.83" style="stop-color:#FAF0CF"/>
		<stop  offset="0.85" style="stop-color:#FCF2DA"/>
		<stop  offset="0.89" style="stop-color:#FDF4E1"/>
		<stop  offset="0.99" style="stop-color:#FDF5E3"/>
	</linearGradient>
	<path id="obram_skosne" style="fill:url(#obram_skosne_00000073706952753755688960000012526907215034492081_);" d="M269.8,277.3
		c-2.9,0-5.3-2.4-5.3-5.3v-30.2c0-2.9,2.4-5.3,5.3-5.3h7.6v-16.4l-15.9-16H245v7.6c0,2.9-2.4,5.3-5.3,5.3h-30.2
		c-2.9,0-5.3-2.4-5.3-5.3v-7.6h-16.4l-16,16v16.5h7.6c2.9,0,5.3,2.4,5.3,5.3v30.2c0,2.9-2.4,5.3-5.3,5.3h-7.6v16.4l16,16h16.5v-7.6
		c0-2.9,2.4-5.3,5.3-5.3h30.2c2.9,0,5.3,2.4,5.3,5.3v7.6h16.5l16-16v-16.5H269.8L269.8,277.3z"/>
	
		<linearGradient id="tlo_zew_00000006682378312772653300000017619750149142303157_" gradientUnits="userSpaceOnUse" x1="224.55" y1="-1697.9698" x2="224.55" y2="-1861.1498" gradientTransform="matrix(1 0 0 -1 0 -1478.3798)">
		<stop  offset="0.26" style="stop-color:#F6EA4D"/>
		<stop  offset="0.77" style="stop-color:#803813"/>
	</linearGradient>
	<path id="tlo_zew" style="fill:url(#tlo_zew_00000006682378312772653300000017619750149142303157_);" d="M269.5,279.1
		c-3.6,0-6.5-3.6-6.5-7.2v-30c0-3.6,2.9-7.2,6.5-7.2h6.1v-13.4l-15.5-15.4h-13.3v6.1c0,3.6-3.6,6.5-7.2,6.5h-30
		c-3.6,0-7.2-2.9-7.2-6.5v-6.1h-13.5l-15.4,15.4v13.4h6.1c3.6,0,6.5,3.6,6.5,7.2v30c0,3.6-2.9,7.2-6.5,7.2h-6.1v13.4l15.4,15.4h13.4
		v-6.1c0-3.6,3.6-6.5,7.2-6.5h29.9c3.6,0,7.2,2.9,7.2,6.5v6.1H260l15.4-15.4v-13.4H269.5L269.5,279.1z"/>
</g>
<g id="plant">
	<rect x="166.4" y="64.8" class="st22" width="115.4" height="115.4"/>
	
		<linearGradient id="SVGID_00000177470210734617681110000001849602594880157848_" gradientUnits="userSpaceOnUse" x1="-2602.3979" y1="4201.6792" x2="-2525.4641" y2="4124.6855" gradientTransform="matrix(0.7071 -0.7071 0.7071 0.7071 -906.6305 -4634.2417)">
		<stop  offset="0" style="stop-color:#0F6936"/>
		<stop  offset="4.000000e-02" style="stop-color:#0F6C37"/>
		<stop  offset="8.000000e-02" style="stop-color:#077739"/>
		<stop  offset="0.13" style="stop-color:#108837"/>
		<stop  offset="0.15" style="stop-color:#0A9039"/>
		<stop  offset="0.35" style="stop-color:#36993D"/>
		<stop  offset="0.76" style="stop-color:#5FB048"/>
		<stop  offset="1" style="stop-color:#6FB74B"/>
	</linearGradient>
	
		<rect x="169.8" y="68.1" style="fill:url(#SVGID_00000177470210734617681110000001849602594880157848_);" width="108.8" height="108.8"/>
	<rect x="175" y="73.4" class="st24" width="98.2" height="98.2"/>
	<path id="leaf" class="st25" d="M224.1,97.6c-14.1,1.9-24.8,11.1-24.8,24.8c0,3.3,0.6,6.6,1.9,9.5c-2.6,1.8-6.4,4.1-8.2,4.7
		c-3.2,1.1-9.7,0.4-10,0.9s1.9,6.4,2.6,6.7c0.8,0.3,6.7,0.3,10-0.9c2.4-0.8,6.8-3.6,9.3-5.5c4.6,5.8,11.6,9.4,19.4,9.4
		c13.7,0,24.6-8.6,24.6-22.3c0-5.3,1.3-11.9,3.2-16.1c2.1-4.6,13.1-7.6,13.1-7.6C264.1,97.6,229.7,96.9,224.1,97.6L224.1,97.6
		L224.1,97.6L224.1,97.6z"/>
	<path id="darker-2" class="st26" d="M278.5,176.9H169.8v-59.6c0,0,34.3,5.3,54.4,5.3s54.4-5.3,54.4-5.3v59.6H278.5z"/>
</g>
<path class="st27" d="M113.3,287.7v-24.2H89.2v-9.9h24.2v-24.2h9.9v24.2h24.2v9.9h-24.2v24.2C123.2,287.7,113.3,287.7,113.3,287.7z"
	/>
<path class="st27" d="M102.8,132.3v-13.5h32.5v13.5H102.8z"/>
<path d="M206.6,284.3v-8.5c3.2-4.3,6.4-7.8,9.4-10.5l4.4-3.9c3.1-2.8,5.7-5.5,7.8-8.2c2-2.7,3.1-5.6,3.1-8.5c0-2.7-0.9-4.7-2.6-6.2
	c-1.7-1.5-4-2.2-7-2.2c-3.9,0-8.4,1.3-13.6,4v-7.8c5.4-2,10.7-3,15.8-3c5.6,0,10.1,1.3,13.6,4c3.5,2.7,5.2,6.3,5.2,10.8
	c0,2.8-0.7,5.5-2.2,8c-1.5,2.5-4.5,5.6-9.1,9.3l-3.6,2.9c-1.6,1.3-3.3,2.9-5.2,4.9c-1.9,2-3.1,4.1-3.7,6.4h23.6v8.5L206.6,284.3
	L206.6,284.3z"/>
</svg>
