<?xml version="1.0" encoding="UTF-8"?><svg id="Layer" xmlns="http://www.w3.org/2000/svg" xmlns:xlink="http://www.w3.org/1999/xlink" viewBox="0 0 721 379.91"><defs><style>.cls-1{fill:url(#linear-gradient-2);}.cls-2{fill:#0b572a;stroke:#1d4422;stroke-width:2.92px;}.cls-2,.cls-3{stroke-miterlimit:10;}.cls-4{fill:#48ad38;}.cls-5{fill:#1c2c4c;}.cls-3{fill:#fff;opacity:0;stroke:#1d1d1b;}.cls-6{opacity:.08;}.cls-6,.cls-7,.cls-8,.cls-9{fill:#030304;}.cls-6,.cls-7,.cls-9{isolation:isolate;}.cls-10{fill:url(#radial-gradient);}.cls-11{fill:#83a3d5;}.cls-12{fill:#3d4920;}.cls-13{fill:#135829;}.cls-14{fill:url(#radial-gradient-2);}.cls-15{fill:#7ca5d8;}.cls-16{fill:#3f5ea8;}.cls-17{fill:#96c227;}.cls-7{opacity:.05;}.cls-18{fill:#93c6ec;}.cls-19{fill:url(#linear-gradient-3);}.cls-20{fill:url(#linear-gradient);}.cls-21{fill:#010202;}.cls-9{opacity:.12;}.cls-22{fill:#19291c;}.cls-23{fill:url(#linear-gradient-4);}.cls-24{fill:#010101;}.cls-25{fill:#0f468e;}</style><linearGradient id="linear-gradient" x1="-417.7" y1="-1185.94" x2="-357.07" y2="-1125.32" gradientTransform="translate(95.37 -1014.74) rotate(-45) scale(1 -1)" gradientUnits="userSpaceOnUse"><stop offset="0" stop-color="#1f4d23"/><stop offset=".43" stop-color="#4c6f30"/><stop offset="1" stop-color="#96aa46"/></linearGradient><radialGradient id="radial-gradient" cx="638.6" cy="50.58" fx="638.6" fy="50.58" r="38.71" gradientTransform="translate(0 126.92) scale(1 -1)" gradientUnits="userSpaceOnUse"><stop offset=".25" stop-color="#96aa46"/><stop offset="1" stop-color="#3a7a31"/></radialGradient><linearGradient id="linear-gradient-2" x1="-803.18" y1="-800.47" x2="-742.55" y2="-739.84" gradientTransform="translate(95.37 -1014.74) rotate(-45) scale(1 -1)" gradientUnits="userSpaceOnUse"><stop offset="0" stop-color="#0f6936"/><stop offset=".04" stop-color="#0f6c37"/><stop offset=".08" stop-color="#077739"/><stop offset=".13" stop-color="#108837"/><stop offset=".15" stop-color="#0a9039"/><stop offset=".35" stop-color="#36993d"/><stop offset=".76" stop-color="#5fb048"/><stop offset="1" stop-color="#6fb74b"/></linearGradient><linearGradient id="linear-gradient-3" x1="-619.06" y1="-984.58" x2="-558.44" y2="-923.95" gradientTransform="translate(95.37 -1014.74) rotate(-45) scale(1 -1)" gradientUnits="userSpaceOnUse"><stop offset="0" stop-color="#3d4920"/><stop offset=".14" stop-color="#4b5e24"/><stop offset=".42" stop-color="#69852b"/><stop offset=".66" stop-color="#81a42c"/><stop offset=".86" stop-color="#8fb923"/><stop offset="1" stop-color="#96c227"/></linearGradient><linearGradient id="linear-gradient-4" x1="360.7" y1="390.43" x2="360.7" y2="203.83" gradientTransform="translate(0 -19.82)" gradientUnits="userSpaceOnUse"><stop offset="0" stop-color="#c2dcf4"/><stop offset="1" stop-color="#275387"/></linearGradient><radialGradient id="radial-gradient-2" cx="360.54" cy="308.8" fx="360.54" fy="308.8" r="80.92" gradientTransform="translate(0 -19.82)" gradientUnits="userSpaceOnUse"><stop offset="0" stop-color="#fff" stop-opacity=".7"/><stop offset=".13" stop-color="#f9fbfe" stop-opacity=".68"/><stop offset=".28" stop-color="#e4e9f7" stop-opacity=".62"/><stop offset=".44" stop-color="#c3cdea" stop-opacity=".53"/><stop offset=".62" stop-color="#93a7d6" stop-opacity=".4"/><stop offset=".79" stop-color="#5673b7" stop-opacity=".23"/><stop offset=".98" stop-color="#2e509e" stop-opacity=".03"/><stop offset="1" stop-color="#2c4c9b" stop-opacity="0"/></radialGradient></defs><rect class="cls-3" x=".5" y=".5" width="720" height="378.91"/><path class="cls-24" d="M547.71,98.82v-6.94c2.65-3.56,5.21-6.42,7.7-8.6l3.58-3.17c2.56-2.27,4.69-4.52,6.36-6.75,1.68-2.22,2.51-4.55,2.51-6.98,0-2.19-.71-3.89-2.12-5.08-1.41-1.2-3.32-1.79-5.74-1.79-3.2,0-6.93,1.09-11.18,3.26v-6.43c4.46-1.66,8.77-2.49,12.94-2.49,4.6,0,8.32,1.1,11.15,3.31,2.83,2.2,4.25,5.15,4.25,8.85,0,2.33-.6,4.53-1.79,6.59-1.19,2.06-3.68,4.62-7.44,7.66l-2.96,2.37c-1.31,1.05-2.72,2.39-4.27,4.03-1.55,1.64-2.56,3.38-3.06,5.22h19.36v6.94h-29.29Z"/><g id="animal"><rect class="cls-8" x="593.1" y="30.84" width="90.99" height="90.99"/><rect class="cls-20" x="595.73" y="33.47" width="85.74" height="85.74"/><rect class="cls-10" x="599.89" y="37.63" width="77.42" height="77.42"/><path id="darker" class="cls-6" d="M681.46,119.21h-85.74v-46.99s27,4.16,42.83,4.16,42.9-4.16,42.9-4.16v46.99h0Z"/><path class="cls-13" d="M629.51,54.56c-.22,0-2.33,.29-3.58,2.04-.51,.66-.73,1.39-.88,2.19-.29,1.61-.88,4.52,.29,8.1,.58,1.68,1.24,3.72,3.14,5.11,.58,.44,1.75,1.24,3.28,1.09,1.68-.15,2.7-1.39,3.06-1.82,1.46-1.68,1.46-3.65,1.53-5.76,0-1.02,0-4.16-1.61-7.44-1.09-2.19-2.04-2.77-2.48-2.99-1.17-.73-2.41-.58-2.77-.51Z"/><path class="cls-13" d="M649.65,53.32c-.22-.07-2.26-.51-4.01,.66-.66,.44-1.17,1.02-1.61,1.75-.88,1.39-2.41,3.87-2.55,7.66-.07,1.82-.15,3.94,1.17,5.91,.44,.58,1.24,1.75,2.7,2.12,1.61,.44,3.06-.36,3.5-.66,1.9-1.09,2.7-2.92,3.5-4.89,.36-.95,1.46-3.87,1.09-7.52-.22-2.41-.95-3.28-1.31-3.65-.95-.95-2.12-1.24-2.48-1.39h0Z"/><path class="cls-13" d="M615.87,66.23c-.22,.07-2.26,.51-3.36,2.33-.44,.73-.58,1.39-.66,2.26-.15,1.61-.44,4.52,1.02,8.03,.73,1.61,1.53,3.58,3.65,4.82,.66,.36,1.9,1.02,3.36,.73,1.68-.29,2.55-1.61,2.92-2.12,1.24-1.82,1.17-3.79,1.02-5.91-.07-1.02-.36-4.09-2.33-7.22-1.24-2.04-2.26-2.55-2.77-2.77-1.31-.44-2.41-.22-2.85-.15Z"/><path class="cls-13" d="M661.84,64.48c-.22-.07-2.26-.51-4.01,.73-.66,.51-1.09,1.09-1.53,1.82-.8,1.46-2.33,3.94-2.33,7.73,0,1.82-.07,3.94,1.31,5.84,.44,.58,1.31,1.75,2.77,2.04,1.61,.36,2.99-.44,3.5-.73,1.9-1.09,2.63-2.99,3.36-4.96,.36-.95,1.39-3.87,.88-7.52-.29-2.41-1.02-3.28-1.39-3.65-1.02-.95-2.19-1.24-2.55-1.31h0Z"/><path class="cls-22" d="M661.33,66.82c-.15,0-1.68-.36-2.99,.58-.51,.36-.8,.8-1.17,1.31-.58,1.09-1.68,2.92-1.75,5.76,0,1.31-.07,2.92,1.02,4.38,.29,.44,.95,1.31,2.04,1.53,1.24,.29,2.26-.36,2.63-.51,1.39-.88,1.9-2.19,2.48-3.72,.29-.73,1.02-2.92,.66-5.62-.22-1.75-.8-2.41-1.02-2.7-.73-.8-1.61-1.02-1.9-1.02h0Z"/><path class="cls-22" d="M649.07,55.73c-.15-.07-1.68-.36-2.99,.44-.51,.36-.8,.73-1.17,1.31-.66,1.02-1.75,2.85-1.9,5.69-.07,1.31-.15,2.92,.88,4.38,.29,.44,.88,1.31,1.97,1.61,1.24,.29,2.26-.29,2.63-.44,1.39-.8,1.97-2.12,2.55-3.58,.29-.73,1.09-2.85,.8-5.55-.22-1.75-.73-2.41-.95-2.7-.73-.88-1.53-1.09-1.82-1.17h0Z"/><path class="cls-22" d="M629.8,56.97c-.15,0-1.68,.22-2.63,1.46-.36,.51-.51,1.02-.66,1.61-.22,1.17-.66,3.28,.22,5.98,.44,1.24,.88,2.77,2.33,3.79,.44,.29,1.31,.88,2.41,.8,1.24-.15,1.97-1.02,2.26-1.31,1.02-1.24,1.09-2.7,1.17-4.23,0-.73,0-3.06-1.24-5.47-.8-1.61-1.53-2.04-1.82-2.19-.88-.58-1.75-.51-2.04-.44Z"/><path class="cls-22" d="M616.38,68.35c-.15,0-1.75,.36-2.55,1.82-.36,.58-.44,1.09-.51,1.75-.15,1.24-.36,3.5,.8,6.13,.51,1.24,1.17,2.77,2.77,3.65,.51,.29,1.46,.8,2.55,.58,1.24-.22,1.97-1.24,2.19-1.61,.95-1.39,.88-2.92,.8-4.52-.07-.8-.29-3.14-1.75-5.55-.95-1.61-1.75-1.97-2.12-2.12-1.02-.36-1.97-.15-2.19-.15Z"/><path class="cls-13" d="M639.22,72.22c-1.02,.07-2.12,.07-3.36,.73-1.39,.73-2.19,1.82-2.92,2.77-.66,.88-.58,.95-1.53,2.48-.88,1.31-1.31,2.12-2.12,2.99-.95,1.09-1.9,1.75-3.58,3.06-1.82,1.39-1.97,1.31-2.48,1.9-1.24,1.46-1.53,3.06-1.75,4.16-.15,1.02-.51,2.92,.29,5.11,.36,.95,1.02,2.77,2.7,3.58,.66,.29,1.31,.36,2.92,.29,2.7-.15,4.52-.66,6.13-1.02,1.9-.44,3.87-.88,6.35-.95,2.99-.07,5.62,.44,7,.66,1.61,.29,2.77,.66,5.03,.88,1.9,.22,2.85,.15,3.94-.22,.66-.22,1.82-.58,2.7-1.61,.95-1.17,1.02-2.41,1.02-3.72,.07-.88,.07-2.99-1.17-5.47-.51-1.09-.95-1.61-2.63-3.65-4.52-5.62-4.74-6.28-6.57-7.81-1.09-.95-2.19-1.9-3.87-2.7-.88-.51-3.14-1.61-6.13-1.46h0Z"/><path class="cls-22" d="M639.44,74.11c-.88,.07-1.82,.07-2.92,.66-1.17,.66-1.9,1.61-2.48,2.41-.58,.73-.51,.8-1.31,2.19-.73,1.17-1.17,1.82-1.82,2.55-.8,.95-1.61,1.53-3.06,2.63-1.61,1.24-1.68,1.09-2.19,1.68-1.09,1.24-2.04,3.14-2.26,4.01-.15,.88-.44,2.48,.22,4.38,.29,.88,.88,2.41,2.33,3.06,.58,.29,1.9-.07,3.21-.22,2.33-.15,3.94-.58,5.33-.88,1.61-.36,3.36-.73,5.47-.8,2.55-.07,4.82,.36,6.06,.58,1.39,.29,2.41,.58,4.31,.73,1.61,.15,3.58,.8,4.45,.51,.58-.15,1.53-.58,2.33-1.53,.8-.95,.58-2.99,.66-4.16,.07-.73-.58-2.33-1.82-4.45-.58-1.02-.88-1.39-2.26-3.14-3.87-4.82-4.09-5.4-5.62-6.71-.95-.8-1.9-1.61-3.36-2.33-.73-.36-2.7-1.31-5.25-1.17h0Z"/></g><g id="plant"><rect class="cls-8" x="47.96" y="30.84" width="90.99" height="90.99"/><rect class="cls-1" x="50.58" y="33.47" width="85.74" height="85.74"/><rect class="cls-4" x="54.74" y="37.63" width="77.42" height="77.42"/><path id="leaf" class="cls-2" d="M93.41,56.75c-11.09,1.53-19.56,8.76-19.56,19.56,0,2.63,.51,5.18,1.46,7.52-2.04,1.39-5.03,3.21-6.49,3.72-2.55,.88-7.66,.29-7.88,.73s1.46,5.03,2.04,5.25,5.25,.22,7.88-.73c1.9-.66,5.33-2.85,7.3-4.31,3.58,4.52,9.12,7.37,15.32,7.37,10.8,0,19.41-6.79,19.41-17.58,0-4.16,1.02-9.41,2.55-12.7,1.68-3.65,10.36-5.98,10.36-5.98-.88-2.85-28.02-3.43-32.4-2.85h0Z"/><path id="darker-2" class="cls-7" d="M136.32,119.21H50.58v-46.99s27,4.16,42.83,4.16,42.9-4.16,42.9-4.16v46.99Z"/></g><path class="cls-24" d="M5.3,97.93v-6.58c4.35,1.68,7.95,2.52,10.82,2.52,2.53,0,4.61-.67,6.22-2s2.43-3.13,2.43-5.38c0-1.64-.42-3.13-1.27-4.46-.85-1.34-2.09-2.37-3.72-3.11s-4.2-1.11-7.72-1.11h-2.69v-5.24l2.28-.03c3.36,0,5.77-.3,7.23-.9,1.46-.6,2.61-1.53,3.44-2.8s1.24-2.63,1.24-4.09c0-1.76-.6-3.19-1.79-4.29-1.2-1.11-3.06-1.66-5.58-1.66-3.2,0-6.63,.83-10.28,2.49v-5.99c1.84-.63,3.29-1.05,4.37-1.26s2.34-.38,3.78-.52c1.44-.14,2.81-.2,4.09-.2,4.61,0,8.16,.95,10.65,2.85s3.75,4.44,3.75,7.63c0,2.59-.8,4.79-2.41,6.62s-4.04,3.27-7.28,4.34c2.82,.65,4.99,1.56,6.48,2.71,1.49,1.15,2.63,2.52,3.42,4.09,.79,1.57,1.18,3.26,1.18,5.05,0,3.32-1.31,6.28-3.93,8.88s-6.85,3.9-12.7,3.9c-1.54,0-3.18-.05-4.9-.14-1.73-.09-4.1-.52-7.1-1.29v-.02Z"/><path class="cls-24" d="M266.33,97.93v-6.58c4.35,1.68,7.95,2.52,10.82,2.52,2.53,0,4.61-.67,6.22-2s2.43-3.13,2.43-5.38c0-1.64-.42-3.13-1.27-4.46-.85-1.34-2.09-2.37-3.72-3.11s-4.2-1.11-7.72-1.11h-2.69v-5.24l2.28-.03c3.36,0,5.77-.3,7.23-.9,1.46-.6,2.61-1.53,3.44-2.8s1.24-2.63,1.24-4.09c0-1.76-.6-3.19-1.79-4.29-1.2-1.11-3.06-1.66-5.58-1.66-3.2,0-6.63,.83-10.28,2.49v-5.99c1.84-.63,3.29-1.05,4.37-1.26s2.34-.38,3.78-.52c1.44-.14,2.81-.2,4.09-.2,4.61,0,8.16,.95,10.65,2.85s3.75,4.44,3.75,7.63c0,2.59-.8,4.79-2.41,6.62s-4.04,3.27-7.28,4.34c2.82,.65,4.99,1.56,6.48,2.71,1.49,1.15,2.63,2.52,3.42,4.09,.79,1.57,1.18,3.26,1.18,5.05,0,3.32-1.31,6.28-3.93,8.88s-6.85,3.9-12.7,3.9c-1.54,0-3.18-.05-4.9-.14-1.73-.09-4.1-.52-7.1-1.29v-.02Z"/><g id="microbe"><rect class="cls-8" x="308.33" y="30.84" width="90.99" height="90.99"/><rect class="cls-19" x="310.96" y="33.47" width="85.74" height="85.74"/><rect class="cls-17" x="315.12" y="37.63" width="77.42" height="77.42"/><g id="microbes"><polygon class="cls-12" points="354.81 84.11 351.16 84.55 351.67 88.2 348.03 87.61 347.44 91.26 344.16 89.58 342.55 92.87 339.85 90.31 337.37 93.01 335.55 89.8 332.34 91.55 331.61 87.98 328.03 88.78 328.32 85.13 324.68 84.77 326.06 81.41 322.71 80.02 325.04 77.18 322.2 74.84 325.26 72.8 323.22 69.81 326.72 68.79 325.7 65.21 329.35 65.28 329.42 61.64 332.92 62.73 334.02 59.3 337.01 61.34 339.12 58.35 341.39 61.27 344.23 59.01 345.55 62.44 348.97 61.2 349.19 64.85 352.84 64.63 351.97 68.2 355.54 69.01 353.64 72.14 356.85 74.04 354.08 76.52 356.56 79.22 353.21 80.75 354.81 84.11"/><polygon class="cls-12" points="386.26 69.44 385.02 69.88 385.02 71.56 383.12 70.98 381.96 72.07 380.06 70.83 378.16 71.34 372.83 72.07 370.57 71.85 368.24 67.4 365.61 66.6 363.49 64.34 360.94 63.09 358.97 60.69 356.56 59.59 355.1 56.89 353.06 55.14 352.26 53.1 350.8 51.49 350.65 49.81 349.41 48.36 350.43 47.26 350.51 45.66 351.6 45.73 352.62 44.56 354.16 45.22 356.64 42.88 358.53 44.27 360.72 44.42 362.91 46.02 365.47 46.75 366.85 50.33 369.62 51.42 371.52 53.75 374.15 55.21 375.75 57.48 378.23 59.15 382.32 61.34 384.29 63.24 384.58 64.85 385.9 66.45 385.53 67.84 386.26 69.44"/><polygon class="cls-12" points="382.17 86.88 382.47 87.32 382.98 88.41 381.96 89.07 382.03 90.31 379.55 91.26 378.53 92.87 375.46 95.86 372.03 97.46 367.51 98.78 364.81 100.45 361.16 101.26 358.1 102.72 354.52 103.37 351.67 104.76 348.24 104.9 345.18 105.85 342.77 105.78 340.29 106.36 338.69 105.93 336.42 106.29 336.28 105.2 335.62 104.9 335.77 103.81 335.62 102.72 337.3 101.84 337.15 99.21 339.85 98.26 341.6 96.73 344.67 95.71 348.24 94.76 351.46 94.25 354.52 92.5 358.02 91.92 361.31 90.53 364.52 90.02 367.87 88.78 372.91 86.44 376.12 85.71 377.72 86.01 380.13 85.57 381.01 86.3 382.17 86.88"/></g><path id="darker-3" class="cls-9" d="M396.69,119.21h-85.74v-46.99s27,4.16,42.83,4.16,42.9-4.16,42.9-4.16v46.99Z"/></g><g><path d="M179.84,99.32c-4.65,0-8.7-.96-12.14-2.88-3.44-1.92-6.06-4.69-7.85-8.31-1.79-3.61-2.69-7.71-2.69-12.28s.9-8.64,2.69-12.26c1.79-3.62,4.42-6.4,7.88-8.32,3.46-1.92,7.5-2.88,12.11-2.88s8.62,.96,12.08,2.88c3.46,1.92,6.09,4.7,7.88,8.32,1.79,3.62,2.69,7.71,2.69,12.26s-.9,8.66-2.69,12.28c-1.79,3.61-4.4,6.38-7.84,8.31-3.43,1.92-7.47,2.88-12.13,2.88Zm0-6.13c4.31,0,7.51-1.76,9.62-5.27,2.1-3.52,3.16-7.54,3.16-12.08s-1.06-8.58-3.17-12.08c-2.11-3.5-5.31-5.24-9.6-5.24s-7.52,1.75-9.63,5.24-3.17,7.52-3.17,12.08,1.05,8.56,3.16,12.08c2.1,3.52,5.32,5.27,9.65,5.27Z"/><path d="M210.86,98.2V53.51h16.73c3.42,0,6.03,.43,7.82,1.28,1.79,.86,3.21,2.15,4.24,3.9,1.04,1.74,1.56,3.71,1.56,5.9,0,2.62-.75,5.09-2.27,7.41-1.51,2.33-3.64,4.1-6.4,5.33l14.63,20.87h-11.33l-11.11-18.27h-5.11v18.27h-8.76Zm8.76-24.4h2.14c3.84,0,6.49-.84,7.96-2.51,1.46-1.67,2.2-3.56,2.2-5.68,0-1.83-.6-3.29-1.79-4.36-1.19-1.08-3.61-1.62-7.27-1.62h-3.24v14.16Z"/></g><g><path d="M461.57,99.32c-4.65,0-8.7-.96-12.14-2.88-3.44-1.92-6.06-4.69-7.85-8.31-1.79-3.61-2.69-7.71-2.69-12.28s.9-8.64,2.69-12.26c1.79-3.62,4.42-6.4,7.88-8.32,3.46-1.92,7.5-2.88,12.11-2.88s8.62,.96,12.08,2.88c3.46,1.92,6.09,4.7,7.88,8.32,1.79,3.62,2.69,7.71,2.69,12.26s-.9,8.66-2.69,12.28c-1.79,3.61-4.4,6.38-7.84,8.31-3.43,1.92-7.47,2.88-12.13,2.88Zm0-6.13c4.31,0,7.51-1.76,9.62-5.27,2.1-3.52,3.16-7.54,3.16-12.08s-1.06-8.58-3.17-12.08c-2.11-3.5-5.32-5.24-9.6-5.24s-7.52,1.75-9.63,5.24c-2.11,3.5-3.17,7.52-3.17,12.08s1.05,8.56,3.16,12.08c2.1,3.52,5.32,5.27,9.65,5.27Z"/><path d="M492.59,98.2V53.51h16.73c3.42,0,6.03,.43,7.82,1.28,1.79,.86,3.21,2.15,4.24,3.9,1.04,1.74,1.55,3.71,1.55,5.9,0,2.62-.75,5.09-2.26,7.41-1.51,2.33-3.64,4.1-6.4,5.33l14.63,20.87h-11.33l-11.11-18.27h-5.11v18.27h-8.76Zm8.76-24.4h2.14c3.84,0,6.49-.84,7.96-2.51,1.46-1.67,2.2-3.56,2.2-5.68,0-1.83-.6-3.29-1.79-4.36-1.19-1.08-3.61-1.62-7.27-1.62h-3.24v14.16Z"/></g><path d="M414.54,49.72l-8.79-1.1,2.02-6.21,7.74,4.29c-.67,.73-1,1.53-1,2.41,0,.14,0,.35,.03,.61Zm2.75,2.42l-3.77,8.03-5.25-3.84,6.46-6.08c.56,1.03,1.42,1.66,2.57,1.88Zm-2.98-14.47h6.52l-1.66,8.7c-.54-.26-1.08-.39-1.6-.39s-1.05,.13-1.57,.39l-1.69-8.7Zm6.15,12.58l6.46,6.08-5.29,3.84-3.74-8.03c1.13-.22,1.98-.85,2.57-1.88Zm-.82-3.55l7.77-4.29,1.99,6.21-8.79,1.1c.04-.26,.06-.47,.06-.61,0-.87-.34-1.68-1.03-2.41Z"/><g id="ocean"><polygon class="cls-21" points="444.1 325.53 444.1 229.09 360.7 180.95 277.15 229.09 277.15 325.53 360.7 373.67 444.1 325.53"/><polygon class="cls-23" points="441.53 324.08 441.53 230.7 360.7 184.01 279.88 230.7 279.88 324.08 360.7 370.61 441.53 324.08"/><polygon class="cls-11" points="436.05 320.86 436.05 233.76 360.7 190.13 285.2 233.76 285.2 320.86 360.7 364.49 436.05 320.86"/><path class="cls-25" d="M436.05,288.82c-3.38-3.22-9.98-4.51-21.25-5.96-10.95-1.45-16.42-2.09-19.16-2.09-17.39-.16-18.51,4.67-32.84,4.83-3.86,0-14.17-2.09-35.1-6.44-12.07-2.41-15.78-3.38-21.9-2.9-8.53,.64-15.62,3.54-20.77,6.6v38l75.67,43.63,75.35-43.63v-32.04h0Z"/><path class="cls-5" d="M360.87,340.99h0c33.97-.64,50.55-34.94,34.78-72.45-1.29-3.22-3.06-6.6-4.99-10.14-29.95-54.74-29.95-54.42-29.95-54.42,0,0,0-.32-29.95,54.42-1.93,3.54-3.54,6.92-4.99,10.14-15.78,37.51,.8,71.81,34.78,72.45h0"/><path class="cls-18" d="M360.87,338.89h0c32.2-.64,47.82-33,33-68.59-1.29-3.06-2.9-6.28-4.67-9.66-28.34-51.84-28.34-51.52-28.34-51.52,0,0,0-.32-28.34,51.52-1.77,3.38-3.38,6.44-4.67,9.66-15.13,35.58,.48,68.1,33,68.59h0"/><path class="cls-15" d="M360.7,335.19h0c29.62-.48,43.95-30.27,30.27-62.79-1.13-2.9-2.74-5.8-4.35-8.85-25.92-47.66-25.92-47.33-25.92-47.33,0,0,0-.32-26.08,47.33-1.61,3.06-3.06,5.96-4.35,8.85-13.52,32.52,.8,62.15,30.43,62.79h0"/><path class="cls-16" d="M394.03,280.77c-15.78,.16-17.23,4.67-31.23,4.83-3.86,0-14.17-2.09-34.94-6.28-9.02,29.78,5.31,55.38,32.84,55.87h.16c26.89-.48,41.22-25.28,33.17-54.42h0Z"/><circle class="cls-14" cx="360.54" cy="288.98" r="80.82"/></g><path d="M699.47,49.9l-8.79-1.1,2.02-6.21,7.74,4.29c-.67,.73-1,1.53-1,2.41,0,.14,0,.35,.03,.61Zm2.75,2.42l-3.77,8.03-5.25-3.84,6.46-6.08c.56,1.03,1.42,1.66,2.57,1.88Zm-2.98-14.47h6.52l-1.66,8.7c-.54-.26-1.08-.39-1.6-.39s-1.05,.13-1.57,.39l-1.69-8.7Zm6.15,12.58l6.46,6.08-5.29,3.84-3.74-8.03c1.13-.22,1.98-.85,2.57-1.88Zm-.82-3.55l7.77-4.29,1.99,6.21-8.79,1.1c.04-.26,.06-.47,.06-.61,0-.87-.34-1.68-1.03-2.41Z"/></svg>