<?xml version="1.0" encoding="UTF-8"?><svg id="Layer" xmlns="http://www.w3.org/2000/svg" xmlns:xlink="http://www.w3.org/1999/xlink" viewBox="0 0 720 378.91"><defs><style>.cls-1{fill:url(#linear-gradient-2);}.cls-2{fill:#20201e;}.cls-3,.cls-4{fill:#020203;}.cls-5{fill:#fff;opacity:0;}.cls-6{fill:url(#Nowy_wzorek_5);opacity:.1;}.cls-6,.cls-4{isolation:isolate;}.cls-7{fill:none;}.cls-8{fill:#ffd10c;}.cls-9{fill:url(#linear-gradient-3);}.cls-10{fill:#e52521;}.cls-11{fill:url(#linear-gradient);}.cls-4{opacity:.05;}.cls-12{fill:url(#linear-gradient-4);}</style><linearGradient id="linear-gradient" x1="448.28" y1="-150.28" x2="271.72" y2="26.26" gradientTransform="translate(0 127.45) scale(1 -1)" gradientUnits="userSpaceOnUse"><stop offset="0" stop-color="#9f9d9c"/><stop offset=".54" stop-color="#020303"/><stop offset="1" stop-color="#9f9d9c"/></linearGradient><linearGradient id="linear-gradient-2" x1="360.08" y1="-144.9" x2="360.08" y2="20.86" gradientTransform="translate(0 127.45) scale(1 -1)" gradientUnits="userSpaceOnUse"><stop offset="0" stop-color="#472d1c"/><stop offset="1" stop-color="#b18047"/></linearGradient><linearGradient id="linear-gradient-3" x1="360.02" y1="-140.72" x2="360.02" y2="16.83" gradientTransform="translate(0 127.45) scale(1 -1)" gradientUnits="userSpaceOnUse"><stop offset="0" stop-color="#946137"/><stop offset="1" stop-color="#815228"/></linearGradient><pattern id="Nowy_wzorek_5" x="0" y="0" width="19.7" height="21.7" patternTransform="translate(2.5 -16020.28) scale(1 -1)" patternUnits="userSpaceOnUse" viewBox="0 0 19.7 21.7"><g><rect class="cls-7" width="19.7" height="21.7"/><g><rect class="cls-7" width="19.7" height="21.7"/><g><rect class="cls-7" width="19.7" height="21.7"/><g><rect class="cls-7" width="19.7" height="21.7"/><g><rect class="cls-7" width="19.7" height="21.7"/><g><rect class="cls-7" width="19.7" height="21.7"/><g><rect class="cls-7" width="19.7" height="21.7"/><g><rect class="cls-7" width="19.7" height="21.7"/><path class="cls-2" d="M16.6,13c2.1-2.1,2.1-5.6,0-7.7l-1.2-1.2c-2.1-2.1-5.6-2.1-7.8,0L3.1,8.7c-2.1,2.1-2.1,5.6,0,7.7l1.2,1.2c2.1,2.1,5.6,2.1,7.7,0l4.6-4.6Z"/></g></g></g></g></g></g></g></g></pattern><linearGradient id="linear-gradient-4" x1="-536.9" y1="-935.99" x2="-459.46" y2="-858.55" gradientTransform="translate(77.81 -797.27) rotate(-45) scale(1 -1)" gradientUnits="userSpaceOnUse"><stop offset="0" stop-color="#941914"/><stop offset=".21" stop-color="#b91f1a"/><stop offset=".47" stop-color="#e52521"/><stop offset=".55" stop-color="#e62a27"/><stop offset=".84" stop-color="#e73939"/><stop offset="1" stop-color="#e83e40"/></linearGradient></defs><rect class="cls-5" width="720" height="378.91"/><g id="prodBg"><rect id="external-border" class="cls-11" x="270.92" y="101.97" width="178.15" height="174.96"/><rect id="internal-border" class="cls-1" x="275.53" y="106.58" width="169.09" height="165.76"/><rect id="bg" class="cls-9" x="279.58" y="110.61" width="160.89" height="157.55"/><rect id="bgPattern" class="cls-6" x="279.58" y="110.61" width="160.89" height="157.55"/></g><g id="heat"><rect class="cls-3" x="301.89" y="131.34" width="116.22" height="116.22"/><rect class="cls-12" x="305.25" y="134.7" width="109.51" height="109.51"/><rect class="cls-10" x="310.56" y="140.01" width="98.89" height="98.89"/><path id="darker" class="cls-4" d="M414.76,244.21h-109.51v-60.02s34.48,5.31,54.71,5.31,54.8-5.31,54.8-5.31v60.02h0Z"/><g><polygon class="cls-8" points="347.66 194.53 335.17 183.72 335.17 183.72 335.17 150.73 322.68 184.38 335.26 195 335.26 195 335.17 228.18 347.66 194.53"/><polygon class="cls-8" points="372.54 194.53 360.05 183.72 359.96 183.72 360.05 150.73 347.56 184.38 360.05 195 360.05 195 360.05 228.18 372.54 194.53"/><polygon class="cls-8" points="398.08 194.53 385.59 183.72 385.5 183.72 385.59 150.73 373.1 184.38 385.59 195 385.59 195 385.59 228.18 398.08 194.53"/></g></g></svg>