<?xml version="1.0" encoding="UTF-8"?><svg id="Layer" xmlns="http://www.w3.org/2000/svg" xmlns:xlink="http://www.w3.org/1999/xlink" viewBox="0 0 721 379.91"><defs><style>.cls-1{fill:url(#linear-gradient-2);}.cls-2{fill:url(#linear-gradient-9);}.cls-2,.cls-3{opacity:.4;}.cls-2,.cls-3,.cls-4,.cls-5,.cls-6,.cls-7{isolation:isolate;}.cls-8,.cls-5,.cls-6{fill:#020303;}.cls-9{fill:#1f1f1e;}.cls-10{fill:url(#linear-gradient-11);}.cls-11{fill:#fff;opacity:0;stroke:#1d1d1b;}.cls-11,.cls-12,.cls-13{stroke-miterlimit:10;}.cls-14{fill:#cd141b;}.cls-15{fill:url(#linear-gradient-10);}.cls-16{fill:#18291b;}.cls-3{fill:url(#linear-gradient-6);}.cls-17{fill:url(#radial-gradient);}.cls-4{fill:url(#Nowy_wzorek_4);opacity:.1;}.cls-18{fill:#44ac36;}.cls-19{fill:url(#linear-gradient-5);}.cls-20,.cls-13{fill:none;}.cls-5{opacity:.08;}.cls-21{fill:url(#linear-gradient-7);}.cls-12{fill:#07562a;stroke:#1c4421;stroke-width:3.73px;}.cls-22{fill:url(#linear-gradient-3);}.cls-23{fill:#115729;}.cls-6{opacity:.05;}.cls-24{fill:url(#linear-gradient);}.cls-7{fill:#e03d15;opacity:.5;}.cls-25{fill:url(#linear-gradient-4);}.cls-26{fill:#010101;}.cls-27{fill:url(#linear-gradient-8);}.cls-13{stroke:#010202;stroke-width:1.88px;}</style><linearGradient id="linear-gradient" x1="499.91" y1="676.89" x2="223.64" y2="400.62" gradientTransform="translate(0 -252.64)" gradientUnits="userSpaceOnUse"><stop offset="0" stop-color="#9e9d9c"/><stop offset=".54" stop-color="#010202"/><stop offset="1" stop-color="#9e9d9c"/></linearGradient><linearGradient id="linear-gradient-2" x1="361.85" y1="621.4" x2="361.85" y2="456.14" gradientTransform="translate(0 -252.64)" gradientUnits="userSpaceOnUse"><stop offset="0" stop-color="#462c1b"/><stop offset="1" stop-color="#b18048"/></linearGradient><linearGradient id="linear-gradient-3" x1="361.77" y1="617.22" x2="361.77" y2="460.17" gradientTransform="translate(0 -252.64)" gradientUnits="userSpaceOnUse"><stop offset="0" stop-color="#946137"/><stop offset="1" stop-color="#805127"/></linearGradient><pattern id="Nowy_wzorek_4" x="0" y="0" width="19.7" height="21.7" patternTransform="translate(43.9 16649.47)" patternUnits="userSpaceOnUse" viewBox="0 0 19.7 21.7"><g><rect class="cls-20" width="19.7" height="21.7"/><g><rect class="cls-20" width="19.7" height="21.7"/><g><rect class="cls-20" width="19.7" height="21.7"/><g><rect class="cls-20" width="19.7" height="21.7"/><g><rect class="cls-20" width="19.7" height="21.7"/><path class="cls-9" d="M16.6,8.7c2.1,2.1,2.1,5.6,0,7.7l-1.2,1.2c-2.1,2.1-5.6,2.1-7.8,0L3.1,13c-2.1-2.1-2.1-5.6,0-7.7l1.2-1.2c2.1-2.1,5.6-2.1,7.7,0l4.6,4.6Z"/></g></g></g></g></g></pattern><linearGradient id="linear-gradient-4" x1="-569.75" y1="1682.09" x2="-491.78" y2="1604.12" gradientTransform="translate(-350.73 -1466.73) rotate(-45)" gradientUnits="userSpaceOnUse"><stop offset="0" stop-color="#1f4d23"/><stop offset=".43" stop-color="#4b6e30"/><stop offset="1" stop-color="#95a946"/></linearGradient><radialGradient id="radial-gradient" cx="435.83" cy="323.6" fx="435.83" fy="323.6" r="49.79" gradientTransform="translate(0 -253.18)" gradientUnits="userSpaceOnUse"><stop offset=".25" stop-color="#95a946"/><stop offset="1" stop-color="#397931"/></radialGradient><linearGradient id="linear-gradient-5" x1="284.03" y1="272.03" x2="284.03" y2="315.26" gradientTransform="translate(0 364.09) scale(1 -1)" gradientUnits="userSpaceOnUse"><stop offset="0" stop-color="#542913"/><stop offset=".45" stop-color="#542913" stop-opacity=".7"/><stop offset=".58" stop-color="#e03d15" stop-opacity=".5"/><stop offset="1" stop-color="#e03d15" stop-opacity=".5"/></linearGradient><linearGradient id="linear-gradient-6" x1="321.02" y1="-212.84" x2="321.02" y2="-73.13" gradientTransform="translate(0 143.45) scale(1 -1)" gradientUnits="userSpaceOnUse"><stop offset="0" stop-color="#ffdc15"/><stop offset="0" stop-color="#ffdb16"/><stop offset=".05" stop-color="#f9bb1f"/><stop offset=".1" stop-color="#f59c1b"/><stop offset=".16" stop-color="#ef7b1b"/><stop offset=".22" stop-color="#e86212"/><stop offset=".27" stop-color="#e84b1f"/><stop offset=".34" stop-color="#e63a21"/><stop offset=".41" stop-color="#e63323"/><stop offset=".5" stop-color="#e63023"/><stop offset=".59" stop-color="#e63323"/><stop offset=".66" stop-color="#e63a21"/><stop offset=".73" stop-color="#e84b1f"/><stop offset=".78" stop-color="#e86212"/><stop offset=".84" stop-color="#ef7b1b"/><stop offset=".9" stop-color="#f59c1b"/><stop offset=".95" stop-color="#f9bb1f"/><stop offset="1" stop-color="#ffdb16"/><stop offset="1" stop-color="#ffdc15"/></linearGradient><linearGradient id="linear-gradient-7" x1="321.03" y1="-209.19" x2="321.03" y2="-76.78" xlink:href="#linear-gradient-6"/><linearGradient id="linear-gradient-8" x1="-631.56" y1="1355.41" x2="-554.12" y2="1277.98" gradientTransform="translate(-190.6 -1064.17) rotate(-45)" gradientUnits="userSpaceOnUse"><stop offset="0" stop-color="#0c6835"/><stop offset=".04" stop-color="#0a6b36"/><stop offset=".08" stop-color="#047638"/><stop offset=".13" stop-color="#078738"/><stop offset=".15" stop-color="#058f39"/><stop offset=".35" stop-color="#34993d"/><stop offset=".76" stop-color="#5eaf47"/><stop offset="1" stop-color="#6eb74a"/></linearGradient><linearGradient id="linear-gradient-9" x1="463.02" x2="463.02" xlink:href="#linear-gradient-6"/><linearGradient id="linear-gradient-10" x1="463.03" y1="-209.19" x2="463.03" y2="-76.78" xlink:href="#linear-gradient-6"/><linearGradient id="linear-gradient-11" x1="-531.15" y1="1455.82" x2="-453.71" y2="1378.39" xlink:href="#linear-gradient-8"/></defs><rect class="cls-11" x=".5" y=".5" width="720" height="378.91"/><g id="prodBg"><rect id="external-border" class="cls-24" x="172.73" y="198.89" width="378.09" height="174.45"/><rect id="internal-border" class="cls-1" x="177.34" y="203.5" width="369.02" height="165.26"/><rect id="bg" class="cls-22" x="181.35" y="207.53" width="360.83" height="157.05"/><rect id="bgPattern" class="cls-4" x="181.35" y="207.53" width="360.83" height="157.05"/></g><g id="animal"><rect class="cls-8" x="377.31" y="11.92" width="117.03" height="117.03"/><rect class="cls-25" x="380.68" y="15.29" width="110.27" height="110.27"/><rect class="cls-17" x="386.04" y="20.64" width="99.57" height="99.57"/><path id="darker" class="cls-5" d="M490.95,125.56h-110.27v-60.44s34.73,5.35,55.09,5.35,55.18-5.35,55.18-5.35v60.44Z"/><path class="cls-23" d="M424.14,42.42c-.28,0-3.01,.38-4.6,2.63-.66,.84-.94,1.78-1.12,2.81-.38,2.07-1.12,5.82,.38,10.41,.75,2.16,1.6,4.79,4.03,6.57,.75,.56,2.25,1.6,4.23,1.41,2.16-.18,3.47-1.78,3.95-2.35,1.88-2.16,1.88-4.69,1.97-7.42,0-1.32,0-5.35-2.07-9.57-1.41-2.81-2.63-3.57-3.19-3.85-1.5-.94-3.09-.75-3.57-.66h0Z"/><path class="cls-23" d="M450.04,40.82c-.28-.1-2.91-.66-5.16,.84-.84,.56-1.5,1.32-2.07,2.25-1.12,1.78-3.09,4.97-3.29,9.85-.1,2.35-.18,5.07,1.5,7.6,.56,.75,1.6,2.25,3.47,2.72,2.07,.56,3.95-.47,4.51-.84,2.44-1.41,3.47-3.75,4.51-6.29,.47-1.22,1.88-4.97,1.41-9.67-.28-3.09-1.22-4.23-1.69-4.69-1.22-1.22-2.72-1.6-3.19-1.78h.01Z"/><path class="cls-23" d="M406.59,57.42c-.28,.1-2.91,.66-4.31,3.01-.56,.94-.75,1.78-.84,2.91-.18,2.07-.56,5.82,1.32,10.33,.94,2.07,1.97,4.6,4.69,6.2,.84,.47,2.44,1.32,4.31,.94,2.16-.38,3.29-2.07,3.75-2.72,1.6-2.35,1.5-4.88,1.32-7.6-.1-1.32-.47-5.25-3.01-9.29-1.6-2.63-2.91-3.29-3.57-3.57-1.69-.56-3.09-.28-3.65-.18v-.02Z"/><path class="cls-23" d="M465.71,55.17c-.28-.1-2.91-.66-5.16,.94-.84,.66-1.41,1.41-1.97,2.35-1.03,1.88-3.01,5.07-3.01,9.95,0,2.35-.1,5.07,1.69,7.5,.56,.75,1.69,2.25,3.57,2.63,2.07,.47,3.85-.56,4.51-.94,2.44-1.41,3.37-3.85,4.31-6.38,.47-1.22,1.78-4.97,1.12-9.67-.38-3.09-1.32-4.23-1.78-4.69-1.32-1.22-2.81-1.6-3.29-1.69h.01Z"/><path class="cls-16" d="M465.05,58.18c-.18,0-2.16-.47-3.85,.75-.66,.47-1.03,1.03-1.5,1.69-.75,1.41-2.16,3.75-2.25,7.42,0,1.69-.1,3.75,1.32,5.63,.38,.56,1.22,1.69,2.63,1.97,1.6,.38,2.91-.47,3.37-.66,1.78-1.12,2.44-2.81,3.19-4.79,.38-.94,1.32-3.75,.84-7.22-.28-2.25-1.03-3.09-1.32-3.47-.94-1.03-2.07-1.32-2.44-1.32h0Z"/><path class="cls-16" d="M449.28,43.92c-.18-.1-2.16-.47-3.85,.56-.66,.47-1.03,.94-1.5,1.69-.84,1.32-2.25,3.65-2.44,7.32-.1,1.69-.18,3.75,1.12,5.63,.38,.56,1.12,1.69,2.53,2.07,1.6,.38,2.91-.38,3.37-.56,1.78-1.03,2.53-2.72,3.29-4.6,.38-.94,1.41-3.65,1.03-7.14-.28-2.25-.94-3.09-1.22-3.47-.94-1.12-1.97-1.41-2.35-1.5h0Z"/><path class="cls-16" d="M424.51,45.51c-.18,0-2.16,.28-3.37,1.88-.47,.66-.66,1.32-.84,2.07-.28,1.5-.84,4.23,.28,7.7,.56,1.6,1.12,3.57,3.01,4.88,.56,.38,1.69,1.12,3.09,1.03,1.6-.18,2.53-1.32,2.91-1.69,1.32-1.6,1.41-3.47,1.5-5.44,0-.94,0-3.95-1.6-7.04-1.03-2.07-1.97-2.63-2.35-2.81-1.12-.75-2.25-.66-2.63-.56h0Z"/><path class="cls-16" d="M407.25,60.15c-.18,0-2.25,.47-3.29,2.35-.47,.75-.56,1.41-.66,2.25-.18,1.6-.47,4.51,1.03,7.88,.66,1.6,1.5,3.57,3.57,4.69,.66,.38,1.88,1.03,3.29,.75,1.6-.28,2.53-1.6,2.81-2.07,1.22-1.78,1.12-3.75,1.03-5.82-.1-1.03-.38-4.03-2.25-7.14-1.22-2.07-2.25-2.53-2.72-2.72-1.32-.47-2.53-.18-2.81-.18h-.01Z"/><path class="cls-23" d="M436.61,65.12c-1.32,.1-2.72,.1-4.31,.94-1.78,.94-2.81,2.35-3.75,3.57-.84,1.12-.75,1.22-1.97,3.19-1.12,1.69-1.69,2.72-2.72,3.85-1.22,1.41-2.44,2.25-4.6,3.95-2.35,1.78-2.53,1.69-3.19,2.44-1.6,1.88-1.97,3.95-2.25,5.35-.18,1.32-.66,3.75,.38,6.57,.47,1.22,1.32,3.57,3.47,4.6,.84,.38,1.69,.47,3.75,.38,3.47-.18,5.82-.84,7.88-1.32,2.44-.56,4.97-1.12,8.16-1.22,3.85-.1,7.22,.56,9.01,.84,2.07,.38,3.57,.84,6.48,1.12,2.44,.28,3.65,.18,5.07-.28,.84-.28,2.35-.75,3.47-2.07,1.22-1.5,1.32-3.09,1.32-4.79,.1-1.12,.1-3.85-1.5-7.04-.66-1.41-1.22-2.07-3.37-4.69-5.82-7.22-6.1-8.07-8.44-10.04-1.41-1.22-2.81-2.44-4.97-3.47-1.12-.66-4.03-2.07-7.88-1.88h-.02Z"/><path class="cls-16" d="M436.89,67.56c-1.12,.1-2.35,.1-3.75,.84-1.5,.84-2.44,2.07-3.19,3.09-.75,.94-.66,1.03-1.69,2.81-.94,1.5-1.5,2.35-2.35,3.29-1.03,1.22-2.07,1.97-3.95,3.37-2.07,1.6-2.16,1.41-2.81,2.16-1.41,1.6-2.63,4.03-2.91,5.16-.18,1.12-.56,3.19,.28,5.63,.38,1.12,1.12,3.09,3.01,3.95,.75,.38,2.44-.1,4.13-.28,3.01-.18,5.07-.75,6.85-1.12,2.07-.47,4.31-.94,7.04-1.03,3.29-.1,6.2,.47,7.78,.75,1.78,.38,3.09,.75,5.54,.94,2.07,.18,4.6,1.03,5.72,.66,.75-.18,1.97-.75,3.01-1.97,1.03-1.22,.75-3.85,.84-5.35,.1-.94-.75-3.01-2.35-5.72-.75-1.32-1.12-1.78-2.91-4.03-4.97-6.2-5.25-6.94-7.22-8.64-1.22-1.03-2.44-2.07-4.31-3.01-.94-.47-3.47-1.69-6.76-1.5h.01Z"/></g><g id="arrow"><path class="cls-7" d="M344.26,70.43l-57.46-26.55,6.95,13.8h-64.76s-1.95,6.22-1.95,12.2,1.95,10.87,1.95,10.87h65.98l-8.18,16.25,57.46-26.55h.01Z"/><path class="cls-19" d="M298.79,78.4h-68.1c-.53-1.78-1.29-4.96-1.29-8.52,0-3.78,.84-7.72,1.39-9.86h66.78l-5.64-11.19,46.75,21.62-46.75,21.62,6.87-13.64h0v-.02Z"/><path class="cls-14" d="M303.81,75.31h-70.73c-.32-1.5-.6-3.41-.6-5.42,0-2.36,.38-4.82,.77-6.77h69.34l-3.9-7.76,32.61,15.07-32.61,15.07,5.13-10.2h0Z"/><path class="cls-13" d="M298.79,78.4h-68.1c-.53-1.78-1.29-4.96-1.29-8.52,0-3.78,.84-7.72,1.39-9.86h66.78l-5.64-11.19,46.75,21.62-46.75,21.62,6.87-13.64h0v-.02Z"/></g><path class="cls-26" d="M208.73,291.12v-9.03h21.68v9.03h-21.68Z"/><g id="plant"><rect class="cls-3" x="251.16" y="216.58" width="139.71" height="139.71"/><rect class="cls-21" x="254.82" y="220.23" width="132.41" height="132.41"/><rect class="cls-8" x="263.12" y="227.95" width="116.22" height="116.22"/><rect class="cls-27" x="266.48" y="231.3" width="109.51" height="109.51"/><rect class="cls-18" x="271.79" y="236.62" width="98.89" height="98.89"/><path id="leaf" class="cls-12" d="M321.19,261.03c-14.17,1.96-24.98,11.18-24.98,24.98,0,3.36,.65,6.62,1.86,9.6-2.61,1.77-6.43,4.1-8.29,4.75-3.26,1.12-9.79,.37-10.07,.93s1.86,6.43,2.61,6.71,6.71,.28,10.07-.93c2.42-.84,6.8-3.63,9.32-5.5,4.57,5.78,11.65,9.41,19.57,9.41,13.79,0,24.79-8.67,24.79-22.46,0-5.31,1.3-12.02,3.26-16.22,2.14-4.66,13.23-7.64,13.23-7.64-1.12-3.63-35.79-4.38-41.38-3.63Z"/><path id="darker-2" class="cls-6" d="M375.99,340.81h-109.51v-60.02s34.48,5.31,54.71,5.31,54.8-5.31,54.8-5.31v60.02Z"/></g><g id="plant-2"><rect class="cls-2" x="393.16" y="216.58" width="139.71" height="139.71"/><rect class="cls-15" x="396.82" y="220.23" width="132.41" height="132.41"/><rect class="cls-8" x="405.12" y="227.95" width="116.22" height="116.22"/><rect class="cls-10" x="408.48" y="231.3" width="109.51" height="109.51"/><rect class="cls-18" x="413.79" y="236.62" width="98.89" height="98.89"/><path id="leaf-2" class="cls-12" d="M463.19,261.03c-14.17,1.96-24.98,11.18-24.98,24.98,0,3.36,.65,6.62,1.86,9.6-2.61,1.77-6.43,4.1-8.29,4.75-3.26,1.12-9.79,.37-10.07,.93s1.86,6.43,2.61,6.71,6.71,.28,10.07-.93c2.42-.84,6.8-3.63,9.32-5.5,4.57,5.78,11.65,9.41,19.57,9.41,13.79,0,24.79-8.67,24.79-22.46,0-5.31,1.3-12.02,3.26-16.22,2.14-4.66,13.23-7.64,13.23-7.64-1.12-3.63-35.79-4.38-41.38-3.63Z"/><path id="darker-3" class="cls-6" d="M517.99,340.81h-109.51v-60.02s34.48,5.31,54.71,5.31,54.8-5.31,54.8-5.31v60.02Z"/></g></svg>