<?xml version="1.0" encoding="UTF-8"?><svg id="Layer" xmlns="http://www.w3.org/2000/svg" xmlns:xlink="http://www.w3.org/1999/xlink" viewBox="0 0 721 379.91"><defs><style>.cls-1{fill:url(#linear-gradient-2);}.cls-2{fill:#030404;}.cls-3,.cls-4{fill:#020303;}.cls-4{opacity:.29;}.cls-4,.cls-5,.cls-6{isolation:isolate;}.cls-7{fill:url(#linear-gradient-6);}.cls-8{fill:#010202;stroke:#030304;stroke-width:1.92px;}.cls-8,.cls-9,.cls-10{stroke-miterlimit:10;}.cls-11{fill:#1f1f1e;}.cls-9{fill:#fff;opacity:0;stroke:#1d1d1b;}.cls-5{fill:url(#Nowy_wzorek_6);opacity:.1;}.cls-12{fill:url(#linear-gradient-10);}.cls-13{fill:url(#radial-gradient);}.cls-14{fill:url(#linear-gradient-5);}.cls-15,.cls-10{fill:none;}.cls-16{fill:url(#linear-gradient-7);}.cls-17{fill:url(#linear-gradient-9);}.cls-10{stroke:#030404;stroke-width:.93px;}.cls-18{fill:url(#linear-gradient-3);}.cls-6{fill:url(#linear-gradient-8);opacity:.4;}.cls-19{fill:url(#linear-gradient);}.cls-20{fill:url(#linear-gradient-4);}.cls-21{fill:#010101;}</style><linearGradient id="linear-gradient" x1="501.25" y1="819.34" x2="219.75" y2="537.84" gradientTransform="translate(0 -488.64)" gradientUnits="userSpaceOnUse"><stop offset="0" stop-color="#9e9d9c"/><stop offset=".54" stop-color="#010202"/><stop offset="1" stop-color="#9e9d9c"/></linearGradient><linearGradient id="linear-gradient-2" x1="360.58" y1="761.85" x2="360.58" y2="595.36" gradientTransform="translate(0 -488.64)" gradientUnits="userSpaceOnUse"><stop offset="0" stop-color="#462c1b"/><stop offset="1" stop-color="#b18048"/></linearGradient><linearGradient id="linear-gradient-3" x1="360.49" y1="757.63" x2="360.49" y2="599.42" gradientTransform="translate(0 -488.64)" gradientUnits="userSpaceOnUse"><stop offset="0" stop-color="#946137"/><stop offset="1" stop-color="#805127"/></linearGradient><pattern id="Nowy_wzorek_6" x="0" y="0" width="19.7" height="21.7" patternTransform="translate(-2.42 16.27)" patternUnits="userSpaceOnUse" viewBox="0 0 19.7 21.7"><g><rect class="cls-15" width="19.7" height="21.7"/><g><rect class="cls-15" width="19.7" height="21.7"/><g><rect class="cls-15" width="19.7" height="21.7"/><g><rect class="cls-15" width="19.7" height="21.7"/><g><rect class="cls-15" width="19.7" height="21.7"/><g><rect class="cls-15" width="19.7" height="21.7"/><g><rect class="cls-15" width="19.7" height="21.7"/><path class="cls-11" d="M16.6,8.7c2.1,2.1,2.1,5.6,0,7.7l-1.2,1.2c-2.1,2.1-5.6,2.1-7.8,0L3.1,13c-2.1-2.1-2.1-5.6,0-7.7l1.2-1.2c2.1-2.1,5.6-2.1,7.7,0l4.6,4.6Z"/></g></g></g></g></g></g></g></pattern><linearGradient id="linear-gradient-4" x1="261.64" y1="734.47" x2="261.64" y2="624.6" gradientTransform="translate(0 -489.65)" gradientUnits="userSpaceOnUse"><stop offset=".16" stop-color="#823a13"/><stop offset=".18" stop-color="#985c1a"/><stop offset=".22" stop-color="#ae7d22"/><stop offset=".26" stop-color="#c39d26"/><stop offset=".3" stop-color="#d6b92e"/><stop offset=".35" stop-color="#e4cf36"/><stop offset=".41" stop-color="#efe036"/><stop offset=".48" stop-color="#f6e947"/><stop offset=".58" stop-color="#f8ea4e"/><stop offset=".86" stop-color="#f6ea4d"/><stop offset="1" stop-color="#fcf4f9"/></linearGradient><linearGradient id="linear-gradient-5" x1="261.64" y1="618.75" x2="261.64" y2="786.7" gradientTransform="translate(0 -489.65)" gradientUnits="userSpaceOnUse"><stop offset=".26" stop-color="#f6ea4d"/><stop offset=".86" stop-color="#803813"/></linearGradient><linearGradient id="linear-gradient-6" x1="261.71" y1="732.96" x2="261.71" y2="626.22" gradientTransform="translate(0 -489.65)" gradientUnits="userSpaceOnUse"><stop offset=".16" stop-color="#803813"/><stop offset=".17" stop-color="#8c471e"/><stop offset=".18" stop-color="#a26b3c"/><stop offset=".2" stop-color="#b78954"/><stop offset=".22" stop-color="#c7a468"/><stop offset=".24" stop-color="#d7bb7a"/><stop offset=".26" stop-color="#e2cc88"/><stop offset=".3" stop-color="#ead891"/><stop offset=".34" stop-color="#eede97"/><stop offset=".46" stop-color="#efe097"/><stop offset=".7" stop-color="#803813"/><stop offset=".73" stop-color="#e6d234"/><stop offset=".74" stop-color="#ebd948"/><stop offset=".75" stop-color="#eede6d"/><stop offset=".77" stop-color="#f0e28a"/><stop offset=".79" stop-color="#f8ebaa"/><stop offset=".8" stop-color="#f8edbf"/><stop offset=".83" stop-color="#faf0cf"/><stop offset=".85" stop-color="#fcf2da"/><stop offset=".89" stop-color="#fdf4e1"/><stop offset=".99" stop-color="#fdf5e3"/></linearGradient><linearGradient id="linear-gradient-7" x1="261.63" y1="641.88" x2="261.63" y2="806.63" gradientTransform="translate(0 -489.65)" gradientUnits="userSpaceOnUse"><stop offset=".26" stop-color="#f6ea4d"/><stop offset=".77" stop-color="#803813"/></linearGradient><linearGradient id="linear-gradient-8" x1="464.83" y1="519.63" x2="464.83" y2="378.73" gradientTransform="translate(0 -257.17)" gradientUnits="userSpaceOnUse"><stop offset="0" stop-color="#ffdc12"/><stop offset="0" stop-color="#ffdb13"/><stop offset=".05" stop-color="#f9bb1b"/><stop offset=".1" stop-color="#f59b18"/><stop offset=".16" stop-color="#ef7b19"/><stop offset=".22" stop-color="#e86112"/><stop offset=".27" stop-color="#e84a1d"/><stop offset=".34" stop-color="#e5391e"/><stop offset=".41" stop-color="#e63121"/><stop offset=".5" stop-color="#e62e21"/><stop offset=".59" stop-color="#e63121"/><stop offset=".66" stop-color="#e5391e"/><stop offset=".73" stop-color="#e84a1d"/><stop offset=".78" stop-color="#e86112"/><stop offset=".84" stop-color="#ef7b19"/><stop offset=".9" stop-color="#f59b18"/><stop offset=".95" stop-color="#f9bb1b"/><stop offset="1" stop-color="#ffdb13"/><stop offset="1" stop-color="#ffdc12"/></linearGradient><linearGradient id="linear-gradient-9" x1="464.78" y1="518.23" x2="464.78" y2="379.93" xlink:href="#linear-gradient-8"/><linearGradient id="linear-gradient-10" x1="464.78" y1="512.53" x2="464.78" y2="385.73" gradientTransform="translate(0 -257.17)" gradientUnits="userSpaceOnUse"><stop offset="0" stop-color="#020303"/><stop offset="1" stop-color="#fff"/></linearGradient><radialGradient id="radial-gradient" cx="464.88" cy="449.13" fx="464.88" fy="449.13" r="55.37" gradientTransform="translate(0 -257.17)" gradientUnits="userSpaceOnUse"><stop offset="0" stop-color="#cac8c8"/><stop offset="1" stop-color="#747272"/></radialGradient></defs><rect class="cls-9" x=".5" y=".5" width="720" height="378.91"/><g><g id="prodBg"><rect id="external-border" class="cls-19" x="166.88" y="102.08" width="387.23" height="175.75"/><rect id="internal-border" class="cls-1" x="171.52" y="106.72" width="378.1" height="166.49"/><rect id="bg" class="cls-18" x="175.56" y="110.78" width="369.85" height="158.21"/><rect id="bgPattern" class="cls-5" x="175.56" y="110.78" width="369.85" height="158.21"/></g><path class="cls-21" d="M341.52,221.97l32.42-69.31h8.33l-32.42,69.31h-8.33Z"/><g id="mln"><polygon id="obram_czarne" class="cls-8" points="220.97 131.6 203.31 149.26 203.31 230.52 220.97 248.18 302.31 248.18 319.87 230.52 319.87 149.26 302.31 131.6 220.97 131.6"/><polygon id="obram_zolte" class="cls-20" points="223.27 134.95 206.75 151.55 206.75 228.23 223.27 244.83 299.94 244.83 316.54 228.23 316.54 151.55 299.94 134.95 223.27 134.95"/><polygon id="tlo_wew" class="cls-14" points="224.41 136.57 208.28 152.71 208.28 227.09 224.41 243.21 298.88 243.21 315 227.09 315 152.71 298.88 136.57 224.41 136.57"/><path id="obram_skosne" class="cls-7" d="M307.28,210.47c-2.95,0-5.35-2.4-5.35-5.35v-30.45c0-2.95,2.4-5.35,5.35-5.35h7.64v-16.6l-16.05-16.15h-16.7v7.64c0,2.95-2.4,5.35-5.35,5.35h-30.45c-2.95,0-5.35-2.4-5.35-5.35v-7.64h-16.6l-16.15,16.15v16.7h7.64c2.95,0,5.35,2.4,5.35,5.35v30.45c0,2.95-2.4,5.35-5.35,5.35h-7.64v16.6l16.15,16.15h16.7v-7.64c0-2.95,2.4-5.35,5.35-5.35h30.45c2.95,0,5.35,2.4,5.35,5.35v7.64h16.7l16.15-16.15v-16.7h-7.85Z"/><path id="tlo_zew" class="cls-16" d="M307.01,212.28c-3.63,0-6.58-3.63-6.58-7.27v-30.28c0-3.63,2.95-7.27,6.58-7.27h6.21v-13.55l-15.67-15.57h-13.47v6.21c0,3.63-3.63,6.58-7.27,6.58h-30.28c-3.63,0-7.27-2.95-7.27-6.58v-6.21h-13.65l-15.57,15.57v13.55h6.21c3.63,0,6.58,3.63,6.58,7.27v30.28c0,3.63-2.95,7.27-6.58,7.27h-6.21v13.55l15.57,15.57h13.55v-6.21c0-3.63,3.63-6.58,7.27-6.58h30.17c3.63,0,7.27,2.95,7.27,6.58v6.21h13.55l15.57-15.57v-13.55h-5.98Z"/></g><path class="cls-21" d="M259.52,215.02v-43.5h-6.58l-.2-4.92,16.63-1.44v49.85h-9.84Z"/><g id="cityAny"><path class="cls-6" d="M464.83,262.45l-61-35.3v-70.4l61.1-35.2,60.9,35.2v70.4l-61,35.3h0Z"/><path class="cls-17" d="M464.83,261.05l-59.9-34.6v-69.1l59.9-34.6,59.8,34.6v69.1l-59.8,34.6h0Z"/><polygon class="cls-3" points="521.43 224.65 521.43 159.25 464.83 126.55 408.13 159.25 408.13 224.65 464.83 257.35 521.43 224.65"/><polygon class="cls-12" points="519.63 223.65 519.63 160.25 464.83 128.55 409.93 160.25 409.93 223.65 464.83 255.35 519.63 223.65"/><polygon class="cls-13" points="516.13 221.55 516.13 162.35 464.83 132.75 413.63 162.35 413.63 221.55 464.83 251.15 516.13 221.55"/><path class="cls-4" d="M521.13,222.85v-40.9h0c-37.5,5.6-75.1,5.6-112.6,0h0v40.9l56.3,32.5,56.3-32.5Z"/><g id="city-logo"><path class="cls-10" d="M425.63,199.15c0-21,17.6-37.9,39.1-37.9"/><path class="cls-10" d="M503.83,199.15c0-21-17.7-37.9-39.5-37.9"/><rect class="cls-2" x="424.93" y="196.65" width="79.6" height="5"/><rect class="cls-2" x="429.03" y="191.95" width="2.4" height="4.7"/><rect class="cls-2" x="430.33" y="188.35" width="1.1" height="3.8"/><rect class="cls-2" x="433.93" y="191.55" width="4.3" height="5.2"/><rect class="cls-2" x="433.93" y="185.45" width="2.2" height="6.1"/><rect class="cls-2" x="439.63" y="190.15" width="1.8" height="6.5"/><rect class="cls-2" x="441.43" y="177.15" width="2" height="19.5"/><rect class="cls-2" x="442.53" y="175.05" width="1" height="2"/><rect class="cls-2" x="443.53" y="191.95" width="3.4" height="4.7"/><rect class="cls-2" x="446.23" y="189.75" width=".7" height="2.4"/><rect class="cls-2" x="446.93" y="172.45" width="2.7" height="24.3"/><rect class="cls-2" x="449.73" y="176.85" width="1.4" height="19.9"/><rect class="cls-2" x="451.13" y="183.85" width="2.9" height="12.8"/><rect class="cls-2" x="454.03" y="186.55" width="1.8" height="10.3"/><rect class="cls-2" x="457.43" y="180.25" width="3.8" height="16.4"/><rect class="cls-2" x="461.33" y="186.75" width="1.9" height="9.9"/><rect class="cls-2" x="463.23" y="168.35" width="4.7" height="28.3"/><rect class="cls-2" x="470.13" y="174.65" width="2.4" height="22"/><rect class="cls-2" x="475.03" y="179.15" width="2.6" height="17.5"/><rect class="cls-2" x="472.43" y="190.85" width="2.6" height="5.8"/><rect class="cls-2" x="477.63" y="193.45" width="1.9" height="3.3"/><rect class="cls-2" x="481.73" y="191.75" width="1.7" height="4.9"/><rect class="cls-2" x="483.43" y="183.85" width="3" height="12.8"/><rect class="cls-2" x="486.33" y="177.95" width="2.2" height="18.7"/><rect class="cls-2" x="488.53" y="191.05" width="1.8" height="5.6"/><rect class="cls-2" x="491.33" y="187.65" width="2.3" height="9"/><rect class="cls-2" x="493.63" y="186.75" width="2.5" height="9.9"/><rect class="cls-2" x="497.83" y="192.25" width="1.1" height="4.6"/><rect class="cls-2" x="499.03" y="194.45" width="2.2" height="2.3"/></g></g></g></svg>