<?xml version="1.0" encoding="UTF-8"?><svg id="Layer" xmlns="http://www.w3.org/2000/svg" xmlns:xlink="http://www.w3.org/1999/xlink" viewBox="0 0 721 379.91"><defs><style>.cls-1{fill:url(#linear-gradient-2);}.cls-2{fill:url(#Nowy_wzorek_8);opacity:.1;}.cls-2,.cls-3{isolation:isolate;}.cls-4,.cls-3{fill:#030404;}.cls-5{fill:#20201e;}.cls-3{opacity:.05;}.cls-6{fill:#fff;opacity:0;stroke:#1d1d1b;}.cls-6,.cls-7{stroke-miterlimit:10;}.cls-8{fill:url(#linear-gradient-5);}.cls-9{fill:none;}.cls-10{fill:url(#linear-gradient-3);}.cls-11{fill:url(#linear-gradient);}.cls-12{fill:#4bad39;}.cls-7{fill:#0d582a;stroke:#1e4523;stroke-width:3.71px;}.cls-13{fill:url(#linear-gradient-4);}</style><linearGradient id="linear-gradient" x1="481.28" y1="562.19" x2="239.72" y2="320.63" gradientTransform="translate(0 -251.46)" gradientUnits="userSpaceOnUse"><stop offset="0" stop-color="#9f9d9c"/><stop offset=".54" stop-color="#030304"/><stop offset="1" stop-color="#9f9d9c"/></linearGradient><linearGradient id="linear-gradient-2" x1="360.58" y1="524.3" x2="360.58" y2="358.54" gradientTransform="translate(0 -251.46)" gradientUnits="userSpaceOnUse"><stop offset="0" stop-color="#482d1d"/><stop offset="1" stop-color="#b18046"/></linearGradient><linearGradient id="linear-gradient-3" x1="360.52" y1="520.12" x2="360.52" y2="362.57" gradientTransform="translate(0 -251.46)" gradientUnits="userSpaceOnUse"><stop offset="0" stop-color="#946137"/><stop offset="1" stop-color="#825329"/></linearGradient><pattern id="Nowy_wzorek_8" x="0" y="0" width="19.7" height="21.7" patternTransform="translate(42.9 32675.68)" patternUnits="userSpaceOnUse" viewBox="0 0 19.7 21.7"><g><rect class="cls-9" width="19.7" height="21.7"/><g><rect class="cls-9" width="19.7" height="21.7"/><g><rect class="cls-9" width="19.7" height="21.7"/><g><rect class="cls-9" width="19.7" height="21.7"/><g><rect class="cls-9" width="19.7" height="21.7"/><g><rect class="cls-9" width="19.7" height="21.7"/><g><rect class="cls-9" width="19.7" height="21.7"/><path class="cls-5" d="M16.6,8.7c2.1,2.1,2.1,5.6,0,7.7l-1.2,1.2c-2.1,2.1-5.6,2.1-7.8,0L3.1,13c-2.1-2.1-2.1-5.6,0-7.7l1.2-1.2c2.1-2.1,5.6-2.1,7.7,0l4.6,4.6Z"/></g></g></g></g></g></g></g></pattern><linearGradient id="linear-gradient-4" x1="-486.45" y1="1359.64" x2="-409.36" y2="1282.55" gradientTransform="translate(-189.72 -1060.86) rotate(-45)" gradientUnits="userSpaceOnUse"><stop offset="0" stop-color="#116a37"/><stop offset=".04" stop-color="#156d38"/><stop offset=".08" stop-color="#0a783a"/><stop offset=".13" stop-color="#148837"/><stop offset=".15" stop-color="#0f9039"/><stop offset=".35" stop-color="#38993d"/><stop offset=".76" stop-color="#61b149"/><stop offset="1" stop-color="#70b74b"/></linearGradient><linearGradient id="linear-gradient-5" x1="-579.8" y1="1266.3" x2="-502.69" y2="1189.21" xlink:href="#linear-gradient-4"/></defs><rect class="cls-6" x=".5" y=".5" width="720" height="378.91"/><g><g id="prodBg"><rect id="external-border" class="cls-11" x="206.43" y="102.47" width="308.15" height="174.96"/><rect id="internal-border" class="cls-1" x="211.03" y="107.08" width="299.09" height="165.76"/><rect id="bg" class="cls-10" x="215.07" y="111.11" width="290.89" height="157.55"/><rect id="bgPattern" class="cls-2" x="215.07" y="111.11" width="290.89" height="157.55"/></g><g id="plant"><rect class="cls-4" x="369.86" y="132.14" width="115.71" height="115.71"/><rect class="cls-13" x="373.21" y="135.49" width="109.03" height="109.03"/><rect class="cls-12" x="378.49" y="140.77" width="98.45" height="98.45"/><path id="leaf" class="cls-7" d="M427.68,165.09c-14.1,1.95-24.87,11.13-24.87,24.87,0,3.34,.65,6.59,1.86,9.56-2.6,1.76-6.4,4.08-8.26,4.73-3.25,1.11-9.74,.37-10.02,.93s1.86,6.4,2.6,6.68,6.68,.28,10.02-.93c2.41-.84,6.77-3.62,9.28-5.47,4.55,5.75,11.6,9.37,19.49,9.37,13.73,0,24.68-8.63,24.68-22.36,0-5.29,1.3-11.97,3.25-16.15,2.13-4.64,13.18-7.61,13.18-7.61-1.11-3.62-35.63-4.36-41.2-3.62h-.01Z"/><path id="darker" class="cls-3" d="M482.24,244.51h-109.03v-59.76s34.33,5.29,54.47,5.29,54.56-5.29,54.56-5.29v59.76Z"/></g><g id="plant-2"><rect class="cls-4" x="237.87" y="132.14" width="115.71" height="115.71"/><rect class="cls-8" x="241.21" y="135.49" width="109.03" height="109.03"/><rect class="cls-12" x="246.49" y="140.77" width="98.45" height="98.45"/><path id="leaf-2" class="cls-7" d="M295.67,165.09c-14.1,1.95-24.87,11.13-24.87,24.87,0,3.34,.65,6.59,1.86,9.56-2.6,1.76-6.4,4.08-8.26,4.73-3.25,1.11-9.74,.37-10.02,.93s1.86,6.4,2.6,6.68,6.68,.28,10.02-.93c2.41-.84,6.77-3.62,9.28-5.47,4.55,5.75,11.6,9.37,19.49,9.37,13.73,0,24.68-8.63,24.68-22.36,0-5.29,1.3-11.97,3.25-16.15,2.13-4.64,13.18-7.61,13.18-7.61-1.11-3.62-35.63-4.36-41.2-3.62h-.01Z"/><path id="darker-2" class="cls-3" d="M350.24,244.51h-109.03v-59.76s34.33,5.29,54.47,5.29,54.56-5.29,54.56-5.29v59.76Z"/></g></g></svg>