<?xml version="1.0" encoding="UTF-8"?><svg id="Layer" xmlns="http://www.w3.org/2000/svg" xmlns:xlink="http://www.w3.org/1999/xlink" viewBox="0 0 721 379.91"><defs><style>.cls-1{fill:none;stroke:#020303;stroke-width:1.82px;}.cls-1,.cls-2{stroke-miterlimit:10;}.cls-2{fill:#fff;opacity:0;stroke:#1d1d1b;}.cls-3{fill:#ce141e;}.cls-4{fill:#e03e17;isolation:isolate;opacity:.5;}.cls-5{fill:url(#linear-gradient);}</style><linearGradient id="linear-gradient" x1="66.36" y1="392.85" x2="66.36" y2="350.9" gradientTransform="translate(0 -236.63)" gradientUnits="userSpaceOnUse"><stop offset="0" stop-color="#532a15"/><stop offset=".45" stop-color="#532a15" stop-opacity=".7"/><stop offset=".58" stop-color="#e03e17" stop-opacity=".5"/><stop offset="1" stop-color="#e03e17" stop-opacity=".5"/></linearGradient></defs><rect class="cls-2" x=".5" y=".5" width="720" height="378.91"/><g id="strzalka_efekt"><path class="cls-4" d="M124.79,135.22l-55.8-25.74,6.73,13.45H12.88s-1.89,5.99-1.89,11.87,1.89,10.51,1.89,10.51h63.99l-7.99,15.76,55.9-25.85h0Z"/><path class="cls-5" d="M80.65,142.99H14.56c-.53-1.68-1.26-4.83-1.26-8.3,0-3.68,.84-7.46,1.37-9.56H79.5l-5.46-10.82,45.39,21.02-45.39,21.02,6.62-13.35h0Z"/><path class="cls-3" d="M85.49,139.95H16.87c-.32-1.47-.63-3.36-.63-5.25,0-2.31,.42-4.62,.74-6.51H84.23l-3.78-7.57,31.63,14.61-31.63,14.61,5.04-9.88h0Z"/><path class="cls-1" d="M80.65,142.99H14.56c-.53-1.68-1.26-4.83-1.26-8.3,0-3.68,.84-7.46,1.37-9.56H79.5l-5.46-10.82,45.39,21.02-45.39,21.02,6.62-13.35h0Z"/></g><g><path d="M145.15,149.82l11.26-28.91h6.03l11.25,28.91h-6.18l-3-7.71h-11.97l-3,7.71h-4.38Zm8.88-11.56h8.97l-4.48-11.52-4.49,11.52Z"/><path d="M201.03,148.69c-1.26,.55-2.36,.93-3.3,1.14-.94,.21-2,.38-3.19,.51s-2.37,.2-3.53,.2c-5.05,0-8.82-1.43-11.31-4.28s-3.73-6.48-3.73-10.9,1.24-8.08,3.72-10.92c2.48-2.84,6.38-4.26,11.69-4.26,3.14,0,6.26,.37,9.38,1.11v4.71c-1.5-.52-2.72-.9-3.67-1.14-.95-.24-1.85-.42-2.71-.54s-1.7-.18-2.55-.18c-3.32,0-5.73,1.07-7.23,3.2-1.5,2.14-2.25,4.78-2.25,7.93,0,3.31,.85,5.98,2.55,8.03,1.7,2.04,4.23,3.07,7.59,3.07,2.8,0,5.64-.71,8.54-2.13v4.43Z"/><path d="M213.45,149.82v-24.92h-10.35v-3.98h26.72v3.98h-10.35v24.92h-6.02Z"/><path d="M233.86,149.82v-28.91h6.02v28.91h-6.02Z"/><path d="M260,150.55c-3.01,0-5.62-.62-7.85-1.87s-3.92-3.03-5.08-5.37c-1.16-2.34-1.74-4.98-1.74-7.94s.58-5.59,1.74-7.93,2.86-4.14,5.1-5.38c2.24-1.24,4.85-1.87,7.83-1.87s5.57,.62,7.81,1.87c2.24,1.24,3.94,3.04,5.1,5.38s1.74,4.99,1.74,7.93-.58,5.6-1.74,7.94c-1.16,2.34-2.85,4.13-5.07,5.37s-4.83,1.87-7.84,1.87Zm0-3.96c2.79,0,4.86-1.14,6.22-3.41,1.36-2.27,2.04-4.88,2.04-7.81s-.68-5.55-2.05-7.81c-1.37-2.26-3.44-3.39-6.21-3.39s-4.86,1.13-6.23,3.39c-1.37,2.26-2.05,4.86-2.05,7.81s.68,5.54,2.04,7.81c1.36,2.27,3.44,3.41,6.24,3.41Z"/><path d="M280.05,149.82v-28.91h5.3l13.37,19.75v-19.75h4.82v28.91h-5.4l-13.28-19.75v19.75h-4.82Z"/><path d="M309.23,134.16v-5.78h5.78v5.78h-5.78Zm0,15.66v-5.78h5.78v5.78h-5.78Z"/><path d="M333.45,149.82v-28.91h6.02v24.8h12.87v4.1h-18.89Z"/><path d="M369.58,150.55c-3.01,0-5.62-.62-7.85-1.87s-3.92-3.03-5.08-5.37c-1.16-2.34-1.74-4.98-1.74-7.94s.58-5.59,1.74-7.93,2.86-4.14,5.1-5.38c2.24-1.24,4.85-1.87,7.83-1.87s5.57,.62,7.81,1.87c2.24,1.24,3.94,3.04,5.1,5.38s1.74,4.99,1.74,7.93-.58,5.6-1.74,7.94c-1.16,2.34-2.85,4.13-5.07,5.37s-4.83,1.87-7.84,1.87Zm0-3.96c2.79,0,4.86-1.14,6.22-3.41,1.36-2.27,2.04-4.88,2.04-7.81s-.68-5.55-2.05-7.81c-1.37-2.26-3.44-3.39-6.21-3.39s-4.86,1.13-6.23,3.39c-1.37,2.26-2.05,4.86-2.05,7.81s.68,5.54,2.04,7.81c1.36,2.27,3.44,3.41,6.24,3.41Z"/><path d="M402.51,150.55c-3.01,0-5.62-.62-7.85-1.87s-3.92-3.03-5.08-5.37c-1.16-2.34-1.74-4.98-1.74-7.94s.58-5.59,1.74-7.93,2.86-4.14,5.1-5.38c2.24-1.24,4.85-1.87,7.83-1.87s5.57,.62,7.81,1.87c2.24,1.24,3.94,3.04,5.1,5.38s1.74,4.99,1.74,7.93-.58,5.6-1.74,7.94c-1.16,2.34-2.85,4.13-5.07,5.37s-4.83,1.87-7.84,1.87Zm0-3.96c2.79,0,4.86-1.14,6.22-3.41,1.36-2.27,2.04-4.88,2.04-7.81s-.68-5.55-2.05-7.81c-1.37-2.26-3.44-3.39-6.21-3.39s-4.86,1.13-6.23,3.39c-1.37,2.26-2.05,4.86-2.05,7.81s.68,5.54,2.04,7.81c1.36,2.27,3.44,3.41,6.24,3.41Z"/><path d="M422.57,149.82v-28.91h5.78v14.02l10.71-14.02h4.93l-9.68,12.93,12.1,15.97h-7.45l-10.62-14.22v14.22h-5.78Z"/><path d="M460.58,149.82l11.26-28.91h6.03l11.25,28.91h-6.18l-3-7.71h-11.97l-3,7.71h-4.38Zm8.88-11.56h8.97l-4.48-11.52-4.49,11.52Z"/><path d="M500.39,149.82v-24.92h-10.35v-3.98h26.72v3.98h-10.35v24.92h-6.02Z"/><path d="M540.76,149.82v-24.92h-10.35v-3.98h26.72v3.98h-10.35v24.92h-6.02Z"/><path d="M561.17,149.82v-28.91h6.02v11.74h11.95v-11.74h6.02v28.91h-6.02v-13.18h-11.95v13.18h-6.02Z"/><path d="M592.38,149.82v-28.91h18.52v3.98h-12.5v8.05h10.33v3.98h-10.33v8.79h13.42v4.1h-19.43Z"/><path d="M636.36,149.82v-24.92h-10.35v-3.98h26.72v3.98h-10.35v24.92h-6.02Z"/><path d="M669.64,150.55c-3.01,0-5.62-.62-7.85-1.87s-3.92-3.03-5.08-5.37c-1.16-2.34-1.74-4.98-1.74-7.94s.58-5.59,1.74-7.93,2.86-4.14,5.1-5.38c2.24-1.24,4.85-1.87,7.83-1.87s5.57,.62,7.81,1.87c2.24,1.24,3.94,3.04,5.1,5.38s1.74,4.99,1.74,7.93-.58,5.6-1.74,7.94c-1.16,2.34-2.85,4.13-5.07,5.37s-4.83,1.87-7.84,1.87Zm0-3.96c2.79,0,4.86-1.14,6.22-3.41,1.36-2.27,2.04-4.88,2.04-7.81s-.68-5.55-2.05-7.81c-1.37-2.26-3.44-3.39-6.21-3.39s-4.86,1.13-6.23,3.39c-1.37,2.26-2.05,4.86-2.05,7.81s.68,5.54,2.04,7.81c1.36,2.27,3.44,3.41,6.24,3.41Z"/><path d="M689.7,149.82v-28.91h9.94c2.89,0,4.92,.3,6.1,.91s2.06,1.46,2.66,2.57c.6,1.11,.9,2.5,.9,4.18,0,3.23-1.02,5.69-3.05,7.38-2.04,1.69-4.76,2.54-8.19,2.54h-2.45v11.33h-5.9Zm5.9-15.29h1.13c2.21,0,3.84-.53,4.87-1.59,1.04-1.06,1.55-2.31,1.55-3.74,0-.81-.16-1.54-.49-2.2-.33-.66-.83-1.17-1.52-1.55-.68-.38-1.78-.57-3.29-.57h-2.26v9.65Z"/><path d="M120.48,203.69c-1.26,.55-2.36,.93-3.3,1.14s-2,.38-3.19,.51-2.37,.2-3.53,.2c-5.05,0-8.82-1.43-11.31-4.28-2.49-2.85-3.73-6.48-3.73-10.9s1.24-8.08,3.72-10.92,6.38-4.26,11.69-4.26c3.14,0,6.26,.37,9.38,1.11v4.71c-1.5-.52-2.72-.9-3.67-1.14-.95-.24-1.85-.42-2.71-.54-.85-.12-1.7-.18-2.55-.18-3.32,0-5.73,1.07-7.23,3.2-1.5,2.14-2.25,4.78-2.25,7.93,0,3.31,.85,5.98,2.55,8.03s4.23,3.07,7.59,3.07c2.8,0,5.64-.71,8.54-2.13v4.43Z"/><path d="M122.55,204.82l11.26-28.91h6.03l11.25,28.91h-6.18l-3-7.71h-11.97l-3,7.71h-4.38Zm8.88-11.56h8.97l-4.48-11.52-4.49,11.52Z"/><path d="M155.17,204.82v-28.91h10.82c2.21,0,3.9,.28,5.06,.83s2.07,1.39,2.74,2.52,1.01,2.4,1.01,3.82c0,1.69-.49,3.29-1.46,4.79s-2.36,2.65-4.14,3.45l9.46,13.5h-7.33l-7.19-11.82h-3.31v11.82h-5.66Zm5.66-15.78h1.38c2.48,0,4.2-.54,5.14-1.62,.95-1.08,1.42-2.3,1.42-3.67,0-1.18-.38-2.13-1.16-2.82s-2.34-1.04-4.7-1.04h-2.09v9.16Z"/><path d="M182.77,204.82v-28.91h12.44c3.33,0,5.93,.53,7.78,1.6s3.33,2.64,4.43,4.72,1.65,4.59,1.65,7.53-.52,5.45-1.57,7.71-2.58,4.06-4.58,5.37-4.75,1.97-8.24,1.97h-11.91Zm6.02-4.1h4.49c2.34,0,4.14-.36,5.38-1.09s2.23-1.96,2.95-3.7,1.08-3.67,1.08-5.81-.35-3.85-1.05-5.43-1.68-2.77-2.92-3.58-3.34-1.22-6.3-1.22h-3.63v20.84Z"/><path d="M224.1,204.82l11.26-28.91h6.03l11.25,28.91h-6.18l-3-7.71h-11.97l-3,7.71h-4.38Zm8.88-11.56h8.97l-4.48-11.52-4.49,11.52Z"/><path d="M256.71,204.82v-28.91h5.3l13.37,19.75v-19.75h4.82v28.91h-5.4l-13.28-19.75v19.75h-4.82Z"/><path d="M287.46,204.82v-28.91h12.44c3.33,0,5.93,.53,7.78,1.6s3.33,2.64,4.43,4.72,1.65,4.59,1.65,7.53-.52,5.45-1.57,7.71-2.58,4.06-4.58,5.37-4.75,1.97-8.24,1.97h-11.91Zm6.02-4.1h4.49c2.34,0,4.14-.36,5.38-1.09s2.23-1.96,2.95-3.7,1.08-3.67,1.08-5.81-.35-3.85-1.05-5.43-1.68-2.77-2.92-3.58-3.34-1.22-6.3-1.22h-3.63v20.84Z"/><path d="M331.95,204.82v-28.91h18.52v3.98h-12.5v8.05h10.33v3.98h-10.33v8.79h13.42v4.1h-19.43Z"/><path d="M355.97,204.82v-28.91h6.02v28.91h-6.02Z"/><path d="M376.42,204.82v-24.92h-10.35v-3.98h26.72v3.98h-10.35v24.92h-6.02Z"/><path d="M396.83,204.82v-28.91h6.02v11.74h11.95v-11.74h6.02v28.91h-6.02v-13.18h-11.95v13.18h-6.02Z"/><path d="M428.04,204.82v-28.91h18.52v3.98h-12.5v8.05h10.33v3.98h-10.33v8.79h13.42v4.1h-19.43Z"/><path d="M452.07,204.82v-28.91h10.82c2.21,0,3.9,.28,5.06,.83s2.07,1.39,2.74,2.52,1.01,2.4,1.01,3.82c0,1.69-.49,3.29-1.46,4.79s-2.36,2.65-4.14,3.45l9.46,13.5h-7.33l-7.19-11.82h-3.31v11.82h-5.66Zm5.66-15.78h1.38c2.48,0,4.2-.54,5.14-1.62,.95-1.08,1.42-2.3,1.42-3.67,0-1.18-.38-2.13-1.16-2.82s-2.34-1.04-4.7-1.04h-2.09v9.16Z"/><path d="M492.44,204.82v-28.91h9.76c2.35,0,4.1,.26,5.23,.79,1.13,.53,2.02,1.31,2.66,2.34s.96,2.13,.96,3.29c0,1.46-.5,2.85-1.51,4.17s-2.81,2.39-5.41,3.21c2.07,.51,3.65,1.14,4.75,1.89s1.93,1.65,2.5,2.7c.56,1.04,.85,2.16,.85,3.36,0,1.3-.33,2.52-1,3.64-.67,1.13-1.58,1.99-2.75,2.6s-2.96,.91-5.38,.91h-10.66Zm5.78-16.88h1.29c1.82,0,3.18-.45,4.08-1.36s1.35-2.01,1.35-3.31c0-.69-.13-1.29-.4-1.8s-.74-.9-1.4-1.18-1.95-.42-3.84-.42h-1.08v8.07Zm0,12.77h1.15c2.09,0,3.51-.14,4.27-.41s1.33-.72,1.71-1.33,.58-1.29,.58-2.03c0-1.43-.63-2.65-1.89-3.64s-2.86-1.49-4.79-1.49h-1.04v8.91Z"/><path d="M517.4,175.92h6.02v17.73c0,3.21,.54,5.33,1.63,6.37,1.09,1.04,2.5,1.56,4.23,1.56s3.06-.51,4.07-1.54,1.51-3.02,1.51-5.96v-18.16h5.23v17.75c0,3.35-.42,5.75-1.26,7.2s-2.05,2.59-3.64,3.43-3.6,1.25-6.04,1.25-4.45-.39-6.17-1.16-3.08-1.93-4.08-3.46-1.5-3.97-1.5-7.31v-17.7Z"/><path d="M553.96,204.82v-12.11l-9.71-16.8h6.65l7.05,12.2,7.35-12.2h4.76l-10.1,16.76v12.15h-6.02Z"/><path d="M587.32,204.82v-28.91h6.02v28.91h-6.02Z"/><path d="M607.77,204.82v-24.92h-10.35v-3.98h26.72v3.98h-10.35v24.92h-6.02Z"/><path d="M225.05,260.55c-3.01,0-5.62-.62-7.85-1.87s-3.92-3.03-5.08-5.37-1.74-4.98-1.74-7.94,.58-5.59,1.74-7.93,2.86-4.14,5.1-5.38,4.85-1.87,7.83-1.87,5.57,.62,7.81,1.87,3.94,3.04,5.1,5.38,1.74,4.99,1.74,7.93-.58,5.6-1.74,7.94-2.85,4.13-5.07,5.37-4.83,1.87-7.84,1.87Zm0-3.96c2.79,0,4.86-1.14,6.22-3.41s2.04-4.88,2.04-7.81-.68-5.55-2.05-7.81-3.44-3.39-6.21-3.39-4.86,1.13-6.23,3.39-2.05,4.86-2.05,7.81,.68,5.54,2.04,7.81,3.44,3.41,6.24,3.41Z"/><path d="M245.11,259.82v-28.91h10.82c2.21,0,3.9,.28,5.06,.83s2.07,1.39,2.74,2.52,1.01,2.4,1.01,3.82c0,1.69-.49,3.29-1.46,4.79s-2.36,2.65-4.14,3.45l9.46,13.5h-7.33l-7.19-11.82h-3.31v11.82h-5.66Zm5.66-15.78h1.38c2.48,0,4.2-.54,5.14-1.62,.95-1.08,1.42-2.3,1.42-3.67,0-1.18-.38-2.13-1.16-2.82s-2.34-1.04-4.7-1.04h-2.09v9.16Z"/><path d="M285.48,259.82v-28.91h12.44c3.33,0,5.93,.53,7.78,1.6s3.33,2.64,4.43,4.72,1.65,4.59,1.65,7.53-.52,5.45-1.57,7.71-2.58,4.06-4.58,5.37-4.75,1.97-8.24,1.97h-11.91Zm6.02-4.1h4.49c2.34,0,4.14-.36,5.38-1.09s2.23-1.96,2.95-3.7,1.08-3.67,1.08-5.81-.35-3.85-1.05-5.43-1.68-2.77-2.92-3.58-3.34-1.22-6.3-1.22h-3.63v20.84Z"/><path d="M317.2,259.82v-28.91h6.02v28.91h-6.02Z"/><path d="M328.84,259.57v-4.96c2.26,.95,3.94,1.51,5.06,1.7s2.14,.28,3.08,.28c1.69,0,2.95-.38,3.78-1.13s1.25-1.66,1.25-2.72c0-.81-.23-1.54-.7-2.19-.47-.64-1.61-1.47-3.42-2.48l-1.95-1.07c-2.79-1.55-4.67-2.98-5.66-4.3-1-1.32-1.5-2.84-1.5-4.57,0-2.18,.83-4.04,2.5-5.59,1.66-1.55,4.05-2.33,7.17-2.33,2.33,0,4.95,.33,7.87,1v4.63c-2.99-1.11-5.36-1.66-7.12-1.66-1.45,0-2.56,.32-3.32,.95-.76,.63-1.14,1.39-1.14,2.28,0,.68,.23,1.31,.7,1.9,.45,.59,1.58,1.39,3.4,2.4l2.09,1.15c3.19,1.79,5.23,3.33,6.11,4.65,.87,1.33,1.3,2.82,1.3,4.47,0,2.37-.9,4.39-2.71,6.07s-4.68,2.52-8.62,2.52c-2.34,0-5.06-.33-8.16-.98Z"/><path d="M376.58,258.69c-1.26,.55-2.36,.93-3.3,1.14s-2,.38-3.19,.51-2.37,.2-3.53,.2c-5.05,0-8.82-1.43-11.31-4.28s-3.73-6.48-3.73-10.9,1.24-8.08,3.72-10.92,6.38-4.26,11.69-4.26c3.14,0,6.26,.37,9.38,1.11v4.71c-1.5-.52-2.72-.9-3.67-1.14s-1.85-.42-2.71-.54-1.7-.18-2.55-.18c-3.32,0-5.73,1.07-7.23,3.2s-2.25,4.78-2.25,7.93c0,3.31,.85,5.98,2.55,8.03s4.23,3.07,7.59,3.07c2.8,0,5.64-.71,8.54-2.13v4.43Z"/><path d="M378.65,259.82l11.26-28.91h6.03l11.25,28.91h-6.18l-3-7.71h-11.97l-3,7.71h-4.38Zm8.88-11.56h8.97l-4.48-11.52-4.49,11.52Z"/><path d="M411.26,259.82v-28.91h10.82c2.21,0,3.9,.28,5.06,.83s2.07,1.39,2.74,2.52,1.01,2.4,1.01,3.82c0,1.69-.49,3.29-1.46,4.79s-2.36,2.65-4.14,3.45l9.46,13.5h-7.33l-7.19-11.82h-3.31v11.82h-5.66Zm5.66-15.78h1.38c2.48,0,4.2-.54,5.14-1.62,.95-1.08,1.42-2.3,1.42-3.67,0-1.18-.38-2.13-1.16-2.82s-2.34-1.04-4.7-1.04h-2.09v9.16Z"/><path d="M438.86,259.82v-28.91h12.44c3.33,0,5.93,.53,7.78,1.6s3.33,2.64,4.43,4.72,1.65,4.59,1.65,7.53-.52,5.45-1.57,7.71-2.58,4.06-4.58,5.37-4.75,1.97-8.24,1.97h-11.91Zm6.02-4.1h4.49c2.34,0,4.14-.36,5.38-1.09s2.23-1.96,2.95-3.7,1.08-3.67,1.08-5.81-.35-3.85-1.05-5.43-1.68-2.77-2.92-3.58-3.34-1.22-6.3-1.22h-3.63v20.84Z"/><path d="M483.35,259.82v-28.91h6.02v28.91h-6.02Z"/><path d="M503.8,259.82v-24.92h-10.35v-3.98h26.72v3.98h-10.35v24.92h-6.02Z"/></g></svg>