<?xml version="1.0" encoding="UTF-8"?><svg id="Layer" xmlns="http://www.w3.org/2000/svg" xmlns:xlink="http://www.w3.org/1999/xlink" viewBox="0 0 721 379.91"><defs><style>.cls-1{fill:url(#linear-gradient-2);}.cls-2{fill:#6b6c6a;}.cls-3{stroke:#030404;stroke-width:1.64px;}.cls-3,.cls-4{fill:#020303;}.cls-3,.cls-5{stroke-miterlimit:10;}.cls-6{fill:#e62e25;}.cls-7,.cls-8,.cls-9{fill:#030404;}.cls-10{fill:#f4e95a;}.cls-11{fill:#222;}.cls-8{opacity:.05;}.cls-8,.cls-9{isolation:isolate;}.cls-12{fill:url(#linear-gradient-6);}.cls-13{fill:url(#linear-gradient-11);}.cls-5{fill:#fff;opacity:0;stroke:#1d1d1b;}.cls-14{fill:url(#linear-gradient-10);}.cls-15{fill:#ffd116;}.cls-9{opacity:.08;}.cls-16{fill:url(#linear-gradient-5);}.cls-17{fill:url(#linear-gradient-7);}.cls-18{fill:url(#linear-gradient-9);}.cls-19{fill:url(#linear-gradient-3);}.cls-20{fill:url(#linear-gradient);}.cls-21{fill:#010202;}.cls-22{fill:url(#linear-gradient-4);}.cls-23{fill:url(#linear-gradient-8);}</style><linearGradient id="linear-gradient" x1="-630.82" y1="1727.7" x2="-563.85" y2="1660.72" gradientTransform="translate(-334.79 -1428.31) rotate(-45)" gradientUnits="userSpaceOnUse"><stop offset="0" stop-color="#95191b"/><stop offset=".21" stop-color="#ba261e"/><stop offset=".47" stop-color="#e62e25"/><stop offset=".55" stop-color="#e6322c"/><stop offset=".84" stop-color="#e83b3c"/><stop offset="1" stop-color="#e83e41"/></linearGradient><linearGradient id="linear-gradient-2" x1="-550.93" y1="1807.59" x2="-483.95" y2="1740.62" xlink:href="#linear-gradient"/><linearGradient id="linear-gradient-3" x1="-471.11" y1="1887.42" x2="-404.12" y2="1820.44" xlink:href="#linear-gradient"/><linearGradient id="linear-gradient-4" x1="329.08" y1="107.74" x2="329.08" y2="202.27" gradientTransform="translate(0 347.05) scale(1 -1)" gradientUnits="userSpaceOnUse"><stop offset=".16" stop-color="#823b14"/><stop offset=".18" stop-color="#995d1a"/><stop offset=".22" stop-color="#ae7d22"/><stop offset=".26" stop-color="#c39d25"/><stop offset=".3" stop-color="#d6b92e"/><stop offset=".35" stop-color="#e4cf36"/><stop offset=".41" stop-color="#efe036"/><stop offset=".48" stop-color="#f5e94d"/><stop offset=".58" stop-color="#f8eb53"/><stop offset=".86" stop-color="#f5ea52"/><stop offset="1" stop-color="#fcf4f9"/></linearGradient><linearGradient id="linear-gradient-5" x1="329.08" y1="207.29" x2="329.08" y2="62.86" gradientTransform="translate(0 347.05) scale(1 -1)" gradientUnits="userSpaceOnUse"><stop offset=".26" stop-color="#f5ea52"/><stop offset=".86" stop-color="#813a14"/></linearGradient><linearGradient id="linear-gradient-6" x1="329.08" y1="109.14" x2="329.08" y2="200.87" gradientTransform="translate(0 347.05) scale(1 -1)" gradientUnits="userSpaceOnUse"><stop offset=".16" stop-color="#813a14"/><stop offset=".17" stop-color="#8d481f"/><stop offset=".18" stop-color="#a36c3d"/><stop offset=".2" stop-color="#b78954"/><stop offset=".22" stop-color="#c7a468"/><stop offset=".24" stop-color="#d7bb7a"/><stop offset=".26" stop-color="#e2cc88"/><stop offset=".3" stop-color="#ead891"/><stop offset=".34" stop-color="#eede97"/><stop offset=".46" stop-color="#efe097"/><stop offset=".7" stop-color="#813a14"/><stop offset=".73" stop-color="#e6d234"/><stop offset=".74" stop-color="#ebda49"/><stop offset=".75" stop-color="#eede6d"/><stop offset=".77" stop-color="#f0e18a"/><stop offset=".79" stop-color="#f8ebab"/><stop offset=".8" stop-color="#f8edbf"/><stop offset=".83" stop-color="#faf0cf"/><stop offset=".85" stop-color="#fcf2da"/><stop offset=".89" stop-color="#fdf4e1"/><stop offset=".99" stop-color="#fdf5e3"/></linearGradient><linearGradient id="linear-gradient-7" x1="329.08" y1="187.41" x2="329.08" y2="45.74" gradientTransform="translate(0 347.05) scale(1 -1)" gradientUnits="userSpaceOnUse"><stop offset=".26" stop-color="#f5ea52"/><stop offset=".77" stop-color="#813a14"/></linearGradient><linearGradient id="linear-gradient-8" x1="164.04" y1="507.93" x2="164.04" y2="414.24" gradientTransform="translate(0 -269.17)" gradientUnits="userSpaceOnUse"><stop offset="0" stop-color="#ed932c"/><stop offset="1" stop-color="#f5ea52"/></linearGradient><linearGradient id="linear-gradient-9" x1="121.81" y1="155.1" x2="206.36" y2="155.1" gradientTransform="translate(0 347.05) scale(1 -1)" gradientUnits="userSpaceOnUse"><stop offset=".09" stop-color="#f5ea52"/><stop offset=".98" stop-color="#f5ea52"/></linearGradient><linearGradient id="linear-gradient-10" x1="54.64" y1="524.94" x2="54.64" y2="431.25" gradientTransform="translate(0 -286.18)" gradientUnits="userSpaceOnUse"><stop offset="0" stop-color="#030404"/><stop offset=".07" stop-color="#030404"/><stop offset=".11" stop-color="#080a0a"/><stop offset=".14" stop-color="#0f1113"/><stop offset=".16" stop-color="#1e2022"/><stop offset=".19" stop-color="#2e2e30"/><stop offset=".21" stop-color="#403e3c"/><stop offset=".4" stop-color="#5a5857"/><stop offset=".67" stop-color="#7b7a7b"/><stop offset=".88" stop-color="#919292"/><stop offset="1" stop-color="#9f9d9c"/></linearGradient><linearGradient id="linear-gradient-11" x1="54.64" y1="525.08" x2="54.64" y2="473.91" gradientTransform="translate(0 -286.18)" gradientUnits="userSpaceOnUse"><stop offset="0" stop-color="#070808"/><stop offset="1" stop-color="#2a2b2a"/></linearGradient></defs><rect class="cls-5" x=".5" y=".5" width="720" height="378.91"/><g id="heat"><rect class="cls-7" x="390.56" y="141.8" width="100.49" height="100.49"/><rect class="cls-20" x="393.45" y="144.69" width="94.71" height="94.71"/><rect class="cls-6" x="398.11" y="149.26" width="85.58" height="85.58"/><path id="darker" class="cls-8" d="M488.26,239.4h-94.81v-51.92s29.83,4.57,47.36,4.57,47.36-4.57,47.36-4.57v51.92h.09Z"/><g><polygon class="cls-15" points="430.18 196.43 419.37 187.11 419.37 187.11 419.37 158.49 408.56 187.67 419.46 196.8 419.46 196.8 419.37 225.51 430.18 196.43"/><polygon class="cls-15" points="451.72 196.43 440.9 187.11 440.81 187.11 440.9 158.49 430.09 187.67 440.9 196.8 440.9 196.8 440.9 225.51 451.72 196.43"/><polygon class="cls-15" points="473.81 196.43 463 187.11 462.9 187.11 463 158.49 452.18 187.67 463 196.8 463 196.8 463 225.51 473.81 196.43"/></g></g><g id="heat-2"><rect class="cls-7" x="503.55" y="141.8" width="100.49" height="100.49"/><rect class="cls-1" x="506.44" y="144.69" width="94.71" height="94.71"/><rect class="cls-6" x="511.1" y="149.26" width="85.58" height="85.58"/><path id="darker-2" class="cls-8" d="M601.15,239.4h-94.71v-51.92s29.83,4.57,47.36,4.57,47.36-4.57,47.36-4.57v51.92Z"/><g><polygon class="cls-15" points="543.17 196.43 532.35 187.11 532.35 187.11 532.35 158.49 521.54 187.67 532.45 196.8 532.45 196.8 532.35 225.51 543.17 196.43"/><polygon class="cls-15" points="564.7 196.43 553.89 187.11 553.8 187.11 553.89 158.49 543.07 187.67 553.89 196.8 553.89 196.8 553.89 225.51 564.7 196.43"/><polygon class="cls-15" points="586.8 196.43 575.98 187.11 575.89 187.11 575.98 158.49 565.17 187.67 575.98 196.8 575.98 196.8 575.98 225.51 586.8 196.43"/></g></g><g id="heat-3"><rect class="cls-7" x="616.44" y="141.8" width="100.49" height="100.49"/><rect class="cls-19" x="619.33" y="144.69" width="94.71" height="94.71"/><rect class="cls-6" x="623.9" y="149.26" width="85.58" height="85.58"/><path id="darker-3" class="cls-8" d="M714.04,239.4h-94.71v-51.92s29.83,4.57,47.36,4.57,47.36-4.57,47.36-4.57v51.92h0Z"/><g><polygon class="cls-15" points="656.06 196.43 645.25 187.11 645.25 187.11 645.25 158.49 634.43 187.67 645.34 196.8 645.34 196.8 645.25 225.51 656.06 196.43"/><polygon class="cls-15" points="677.5 196.43 666.78 187.11 666.69 187.11 666.78 158.49 655.97 187.67 666.78 196.8 666.78 196.8 666.78 225.51 677.5 196.43"/><polygon class="cls-15" points="699.59 196.43 688.78 187.11 688.78 187.11 688.78 158.49 678.06 187.67 688.78 196.8 688.78 196.8 688.78 225.51 699.59 196.43"/></g></g><g id="mln"><polygon id="obram_czarne" class="cls-3" points="294.08 141.89 278.88 157.09 278.88 227 294.08 242.2 364.09 242.2 379.19 227 379.19 157.09 364.09 141.89 294.08 141.89"/><polygon id="obram_zolte" class="cls-22" points="296.04 144.78 281.87 159.05 281.87 224.95 296.04 239.31 362.04 239.31 376.3 224.95 376.3 159.05 362.04 144.78 296.04 144.78"/><polygon id="tlo_wew" class="cls-16" points="297.06 146.18 283.17 160.07 283.17 224.02 297.06 237.91 361.11 237.91 375 224.02 375 160.07 361.11 146.18 297.06 146.18"/><path id="obram_skosne" class="cls-12" d="M368.28,209.76c-2.52,0-4.57-2.05-4.57-4.57v-26.2c0-2.52,2.05-4.57,4.57-4.57h6.53v-14.36l-13.8-13.89h-14.36v6.53c0,2.52-2.05,4.57-4.57,4.57h-26.2c-2.52,0-4.57-2.05-4.57-4.57v-6.53h-14.26l-13.89,13.89v14.36h6.53c2.52,0,4.57,2.05,4.57,4.57v26.2c0,2.52-2.05,4.57-4.57,4.57h-6.53v14.26l13.89,13.89h14.36v-6.62c0-2.52,2.05-4.57,4.57-4.57h26.2c2.52,0,4.57,2.05,4.57,4.57v6.62h14.36l13.89-13.89v-14.26h-6.71Z"/><path id="tlo_zew" class="cls-17" d="M368.1,211.25c-3.08,0-5.69-3.08-5.69-6.25v-26.01c0-3.08,2.52-6.25,5.69-6.25h5.31v-11.65l-13.42-13.42h-11.56v5.31c0,3.17-3.08,5.69-6.25,5.69h-26.01c-3.08,0-6.25-2.52-6.25-5.69v-5.31h-11.75l-13.42,13.42v11.65h5.31c3.08,0,5.69,3.08,5.69,6.25v26.1c0,3.08-2.52,6.25-5.69,6.25h-5.31v11.65l13.33,13.33h11.65v-5.31c0-3.08,3.08-5.69,6.25-5.69h25.92c3.08,0,6.25,2.52,6.25,5.69v5.31h11.65l13.33-13.33v-11.75c.09,0-5.03,0-5.03,0Z"/></g><path class="cls-21" d="M315.05,215.26v-6.99c4.57,1.77,8.48,2.61,11.56,2.61,2.61,0,4.94-.75,6.62-2.05s2.61-3.36,2.61-5.69c0-1.77-.47-3.36-1.4-4.75s-2.24-2.52-3.92-3.36-4.47-1.21-8.2-1.21h-2.8v-5.59h2.42c3.54,0,6.15-.28,7.64-.93s2.7-1.58,3.64-2.98,1.31-2.8,1.31-4.38c0-1.86-.65-3.36-1.96-4.57s-3.26-1.77-5.97-1.77c-3.36,0-6.99,.93-10.91,2.61v-6.34c1.96-.65,3.45-1.12,4.66-1.4s2.52-.37,4.01-.56,2.98-.28,4.38-.28c4.94,0,8.67,.93,11.28,3.08,2.61,2.05,3.92,4.66,3.92,8.11,0,2.7-.93,5.13-2.61,6.99-1.68,1.96-4.29,3.45-7.74,4.57,2.98,.75,5.31,1.58,6.81,2.89,1.58,1.21,2.8,2.61,3.64,4.38s1.31,3.45,1.31,5.41c0,3.54-1.4,6.71-4.19,9.42s-7.27,4.1-13.42,4.1c-1.58,0-3.36-.09-5.22-.19-1.77,.19-4.29-.28-7.46-1.12h0Z"/><path d="M233.86,184.4v-10.72h10.72v10.72h-10.72Zm0,29.09v-10.72h10.72v10.72h-10.72Z"/><g id="tagEvent"><path class="cls-7" d="M214.47,191.95c0,27.87-22.65,50.53-50.53,50.53s-50.53-22.65-50.53-50.53,22.65-50.53,50.53-50.53c27.97,0,50.53,22.56,50.53,50.53Z"/><path class="cls-23" d="M210.83,191.95c0,25.82-20.97,46.8-46.8,46.8s-46.8-20.97-46.8-46.8,20.88-46.89,46.7-46.89,46.89,20.97,46.89,46.89h0Z"/><path class="cls-18" d="M206.36,191.95c0,23.31-18.92,42.32-42.32,42.32s-42.23-18.92-42.23-42.32,18.92-42.32,42.32-42.32,42.23,18.92,42.23,42.32h0Z"/><path id="darker-4" class="cls-9" d="M210.83,191.95c0-1.03,0-1.86-.09-2.8-9.42,2.61-25.73,5.97-46.7,5.97s-36.82-4.1-46.61-7.55c-.19,1.49-.28,2.98-.28,4.38,0,25.82,20.97,46.8,46.8,46.8s46.89-20.79,46.89-46.8h0Z"/><rect class="cls-11" x="153.22" y="160.72" width="21.25" height="34.49"/><polygon class="cls-4" points="142.59 195.31 184.73 195.31 164.78 223.37 142.59 195.31"/></g><g id="tagSpace"><path class="cls-7" d="M105.12,191.95c0,27.87-22.65,50.53-50.53,50.53S4.07,219.92,4.07,191.95s22.65-50.53,50.53-50.53,50.53,22.56,50.53,50.53Z"/><path class="cls-14" d="M101.48,191.95c0,25.82-20.97,46.8-46.8,46.8S7.8,217.87,7.8,191.95s20.97-46.89,46.8-46.89,46.89,20.97,46.89,46.89h0Z"/><path class="cls-2" d="M96.92,191.95c0,23.31-18.92,42.32-42.32,42.32s-42.32-18.92-42.32-42.32,18.92-42.32,42.32-42.32,42.32,19.02,42.32,42.32Z"/><path id="ciemniej" class="cls-13" d="M101.48,191.95c0-1.03,0-1.86-.09-2.8-9.42,2.61-25.73,5.97-46.7,5.97s-36.82-4.1-46.61-7.55c-.19,1.49-.28,2.98-.28,4.38,0,25.82,20.97,46.8,46.8,46.8s46.89-20.79,46.89-46.8h0Z"/><g id="gwiazda"><circle class="cls-10" cx="54.59" cy="191.95" r="6.9"/><path class="cls-10" d="M63.26,187.67l15.29-19.58-19.58,15.29c1.86,.84,3.45,2.42,4.29,4.29h0Z"/><path class="cls-10" d="M50.21,183.38l-19.58-15.29,15.29,19.58c.93-1.86,2.42-3.45,4.29-4.29Z"/><path class="cls-10" d="M88.43,191.95l-24.61-3.08c.37,1.03,.47,2.05,.47,3.08s-.19,2.14-.47,3.08c0,.19,24.61-2.98,24.61-3.08Z"/><path class="cls-10" d="M57.67,182.82l-3.08-24.7-3.08,24.61c.93-.28,2.05-.47,3.08-.47,1.12,0,2.05,.28,3.08,.56Z"/><path class="cls-10" d="M58.97,200.62l19.58,15.29-15.29-19.58c-.84,1.86-2.42,3.36-4.29,4.29Z"/><path class="cls-10" d="M44.9,191.95c0-1.03,.19-2.14,.47-3.08l-24.61,3.08,24.61,3.08c-.28-.84-.47-1.86-.47-3.08Z"/><path class="cls-10" d="M51.42,201.28l3.08,24.61,3.08-24.61c-.93,.28-2.05,.47-3.08,.47s-1.96-.09-3.08-.47Z"/><path class="cls-10" d="M45.92,196.43l-15.29,19.58,19.58-15.29c-1.86-.93-3.36-2.52-4.29-4.29Z"/></g></g></svg>