<?xml version="1.0" encoding="UTF-8"?><svg id="Layer" xmlns="http://www.w3.org/2000/svg" xmlns:xlink="http://www.w3.org/1999/xlink" viewBox="0 0 721 379.91"><defs><style>.cls-1,.cls-2{fill:#020303;}.cls-3{fill:#332116;}.cls-4{fill:#946137;}.cls-5{fill:#fff;opacity:0;stroke:#1d1d1b;stroke-miterlimit:10;}.cls-2{isolation:isolate;opacity:.15;}.cls-6{fill:url(#linear-gradient);}</style><linearGradient id="linear-gradient" x1="-518.4" y1="1339.16" x2="-440.93" y2="1261.69" gradientTransform="translate(-190.6 -1064.17) rotate(-45)" gradientUnits="userSpaceOnUse"><stop offset="0" stop-color="#452b1a"/><stop offset=".05" stop-color="#583519"/><stop offset=".1" stop-color="#683e15"/><stop offset=".32" stop-color="#76481e"/><stop offset=".75" stop-color="#8c5a31"/><stop offset="1" stop-color="#946137"/></linearGradient></defs><rect class="cls-5" x=".5" y=".5" width="720" height="378.91"/><g id="steel"><rect class="cls-1" x="331.62" y="136.4" width="116.27" height="116.27"/><rect class="cls-6" x="334.98" y="139.75" width="109.56" height="109.56"/><rect class="cls-4" x="340.3" y="145.07" width="98.93" height="98.93"/><g><path class="cls-3" d="M400.06,227.21l2.42-45.97-5.59-.65-.84-1.96h-4.29l-.75,2.05-6.53-.28v-11.93h7.55l.56,2.33,3.54,.47,.84-2.7h7.74l1.49,1.31,1.31-1.31h9.6l1.12,1.86,1.68-1.86,7.27,5.97-.47,4.1s-4.01-3.73-5.97-3.73-4.76-.09-4.76-.09l-4.01,6.43-2.42,.19,2.24,45.78h-11.75Z"/><polygon class="cls-3" points="378.34 166.51 370.5 162.22 370.41 172.85 363.32 172.85 363.32 162.22 354.37 166.33 354.37 179.38 362.67 183.39 359.78 227.21 373.12 227.21 370.5 183.39 378.34 179.85 378.34 166.51"/></g><path id="darker" class="cls-2" d="M444.54,249.31h-109.56v-60.05s34.5,5.31,54.73,5.31,54.82-5.31,54.82-5.31v60.05Z"/></g><path d="M278.07,222.33v-7.66c4.5,1.74,8.26,2.6,11.28,2.6,3.31,0,5.77-.99,7.39-2.98,1.62-1.98,2.43-4.32,2.43-7,0-3.4-1.34-6.14-4.02-8.22s-6.78-3.12-12.3-3.12c-1.29,0-2.57,.11-3.86,.32v-26.48h30.3v8.34h-22.6l-.53,11.37c8.22,0,14.31,1.69,18.27,5.06,3.96,3.38,5.94,7.59,5.94,12.65,0,4.71-1.75,8.66-5.24,11.85-3.49,3.2-8.69,4.79-15.58,4.79-1.66,0-3.17-.08-4.51-.23-1.34-.16-3.67-.59-6.97-1.3Z"/></svg>