<?xml version="1.0" encoding="UTF-8"?><svg id="Layer" xmlns="http://www.w3.org/2000/svg" xmlns:xlink="http://www.w3.org/1999/xlink" viewBox="0 0 721 379.91"><defs><style>.cls-1{fill:url(#linear-gradient-2);}.cls-2{fill:#010202;stroke-width:1.69px;}.cls-2,.cls-3,.cls-4,.cls-5{stroke-miterlimit:10;}.cls-2,.cls-4{stroke:#030304;}.cls-6{fill:url(#linear-gradient-6);}.cls-7{fill:#1f1f1e;}.cls-3{opacity:0;stroke:#1d1d1b;}.cls-3,.cls-4{fill:#fff;}.cls-8{opacity:.15;}.cls-8,.cls-9,.cls-10{isolation:isolate;}.cls-8,.cls-11{fill:#030304;}.cls-9{fill:url(#Nowy_wzorek_4);opacity:.1;}.cls-12{fill:#ce141e;}.cls-4{stroke-width:.91px;}.cls-10{fill:#e03e17;opacity:.5;}.cls-13{fill:url(#linear-gradient-5);}.cls-14,.cls-5{fill:none;}.cls-15{fill:url(#linear-gradient-7);}.cls-16{fill:url(#linear-gradient-9);}.cls-17{fill:#7f358b;}.cls-18{fill:url(#linear-gradient-3);}.cls-19{fill:url(#linear-gradient);}.cls-5{stroke:#020303;stroke-width:1.67px;}.cls-20{fill:url(#linear-gradient-4);}.cls-21{fill:#010101;}.cls-22{fill:url(#linear-gradient-8);}</style><linearGradient id="linear-gradient" x1="326.69" y1="161.78" x2="326.69" y2="200.18" gradientTransform="translate(0 374.66) scale(1 -1)" gradientUnits="userSpaceOnUse"><stop offset="0" stop-color="#532a15"/><stop offset=".45" stop-color="#532a15" stop-opacity=".7"/><stop offset=".58" stop-color="#e03e17" stop-opacity=".5"/><stop offset="1" stop-color="#e03e17" stop-opacity=".5"/></linearGradient><linearGradient id="linear-gradient-2" x1="191.45" y1="115.34" x2="191.45" y2="212.61" gradientTransform="translate(0 357.65) scale(1 -1)" gradientUnits="userSpaceOnUse"><stop offset=".16" stop-color="#823a13"/><stop offset=".18" stop-color="#985c1a"/><stop offset=".22" stop-color="#ae7d22"/><stop offset=".26" stop-color="#c39d26"/><stop offset=".3" stop-color="#d6b92e"/><stop offset=".35" stop-color="#e4cf36"/><stop offset=".41" stop-color="#efe036"/><stop offset=".48" stop-color="#f6e947"/><stop offset=".58" stop-color="#f8ea4e"/><stop offset=".86" stop-color="#f6ea4d"/><stop offset="1" stop-color="#fcf4f9"/></linearGradient><linearGradient id="linear-gradient-3" x1="191.45" y1="217.79" x2="191.45" y2="69.11" gradientTransform="translate(0 357.65) scale(1 -1)" gradientUnits="userSpaceOnUse"><stop offset=".26" stop-color="#f6ea4d"/><stop offset=".86" stop-color="#803813"/></linearGradient><linearGradient id="linear-gradient-4" x1="191.5" y1="116.69" x2="191.5" y2="211.18" gradientTransform="translate(0 357.65) scale(1 -1)" gradientUnits="userSpaceOnUse"><stop offset=".16" stop-color="#803813"/><stop offset=".17" stop-color="#8c471e"/><stop offset=".18" stop-color="#a26b3c"/><stop offset=".2" stop-color="#b78954"/><stop offset=".22" stop-color="#c7a468"/><stop offset=".24" stop-color="#d7bb7a"/><stop offset=".26" stop-color="#e2cc88"/><stop offset=".3" stop-color="#ead891"/><stop offset=".34" stop-color="#eede97"/><stop offset=".46" stop-color="#efe097"/><stop offset=".7" stop-color="#803813"/><stop offset=".73" stop-color="#e6d234"/><stop offset=".74" stop-color="#ebd948"/><stop offset=".75" stop-color="#eede6d"/><stop offset=".77" stop-color="#f0e28a"/><stop offset=".79" stop-color="#f8ebaa"/><stop offset=".8" stop-color="#f8edbf"/><stop offset=".83" stop-color="#faf0cf"/><stop offset=".85" stop-color="#fcf2da"/><stop offset=".89" stop-color="#fdf4e1"/><stop offset=".99" stop-color="#fdf5e3"/></linearGradient><linearGradient id="linear-gradient-5" x1="191.45" y1="197.32" x2="191.45" y2="51.49" gradientTransform="translate(0 357.65) scale(1 -1)" gradientUnits="userSpaceOnUse"><stop offset=".26" stop-color="#f6ea4d"/><stop offset=".77" stop-color="#803813"/></linearGradient><linearGradient id="linear-gradient-6" x1="580.76" y1="531.12" x2="408.91" y2="359.26" gradientTransform="translate(0 -252.64)" gradientUnits="userSpaceOnUse"><stop offset="0" stop-color="#9e9d9c"/><stop offset=".54" stop-color="#010202"/><stop offset="1" stop-color="#9e9d9c"/></linearGradient><linearGradient id="linear-gradient-7" x1="494.9" y1="526.06" x2="494.9" y2="364.34" gradientTransform="translate(0 -252.64)" gradientUnits="userSpaceOnUse"><stop offset="0" stop-color="#462c1b"/><stop offset="1" stop-color="#b18048"/></linearGradient><linearGradient id="linear-gradient-8" x1="494.82" y1="521.97" x2="494.82" y2="368.29" gradientTransform="translate(0 -252.64)" gradientUnits="userSpaceOnUse"><stop offset="0" stop-color="#946137"/><stop offset="1" stop-color="#805127"/></linearGradient><pattern id="Nowy_wzorek_4" x="0" y="0" width="19.7" height="21.7" patternTransform="translate(43.9 16649.47)" patternUnits="userSpaceOnUse" viewBox="0 0 19.7 21.7"><g><rect class="cls-14" width="19.7" height="21.7"/><g><rect class="cls-14" width="19.7" height="21.7"/><g><rect class="cls-14" width="19.7" height="21.7"/><g><rect class="cls-14" width="19.7" height="21.7"/><g><rect class="cls-14" width="19.7" height="21.7"/><path class="cls-7" d="M16.6,8.7c2.1,2.1,2.1,5.6,0,7.7l-1.2,1.2c-2.1,2.1-5.6,2.1-7.8,0L3.1,13c-2.1-2.1-2.1-5.6,0-7.7l1.2-1.2c2.1-2.1,5.6-2.1,7.7,0l4.6,4.6Z"/></g></g></g></g></g></pattern><linearGradient id="linear-gradient-9" x1="-440.75" y1="1411.53" x2="-365.29" y2="1336.06" gradientTransform="translate(-191.13 -1064.43) rotate(-45)" gradientUnits="userSpaceOnUse"><stop offset="0" stop-color="#1d1427"/><stop offset=".24" stop-color="#372348"/><stop offset=".49" stop-color="#573b6c"/><stop offset=".71" stop-color="#72508c"/><stop offset=".89" stop-color="#835ca0"/><stop offset="1" stop-color="#8963a7"/></linearGradient></defs><rect class="cls-3" x=".5" y=".5" width="720" height="378.91"/><g id="arrow"><path class="cls-10" d="M380.19,193.67l-51.04-23.59,6.18,12.27h-57.52s-1.74,5.53-1.74,10.85,1.74,9.65,1.74,9.65h58.61l-7.27,14.43,51.04-23.59h0v-.02Z"/><path class="cls-19" d="M339.8,200.76h-60.49c-.46-1.57-1.15-4.4-1.15-7.57,0-3.36,.75-6.86,1.23-8.76h59.31l-5.01-9.94,41.52,19.2-41.52,19.2,6.1-12.11h0Z"/><path class="cls-12" d="M344.26,198h-62.82c-.28-1.33-.53-3.03-.53-4.82,0-2.1,.34-4.28,.67-6.01h61.59l-3.47-6.89,28.97,13.38-28.97,13.38,4.56-9.06h0v.02Z"/><path class="cls-5" d="M339.8,200.76h-60.49c-.46-1.57-1.15-4.4-1.15-7.57,0-3.36,.75-6.86,1.23-8.76h59.31l-5.01-9.94,41.52,19.2-41.52,19.2,6.1-12.11h0Z"/></g><g id="mln"><polygon id="obram_czarne" class="cls-2" points="155.45 142.08 139.82 157.72 139.82 229.64 155.45 245.27 227.45 245.27 243.01 229.64 243.01 157.72 227.45 142.08 155.45 142.08"/><polygon id="obram_zolte" class="cls-1" points="157.48 145.04 142.86 159.75 142.86 227.61 157.48 242.32 225.34 242.32 240.05 227.61 240.05 159.75 225.34 145.04 157.48 145.04"/><polygon id="tlo_wew" class="cls-18" points="158.49 146.48 144.21 160.76 144.21 226.59 158.49 240.88 224.41 240.88 238.7 226.59 238.7 160.76 224.41 146.48 158.49 146.48"/><path id="obram_skosne" class="cls-20" d="M231.85,211.89c-2.62,0-4.73-2.11-4.73-4.73v-26.96c0-2.62,2.11-4.73,4.73-4.73h6.76v-14.7l-14.19-14.28h-14.79v6.76c0,2.62-2.11,4.73-4.73,4.73h-26.96c-2.62,0-4.73-2.11-4.73-4.73v-6.76h-14.7l-14.28,14.28v14.79h6.76c2.62,0,4.73,2.11,4.73,4.73v26.96c0,2.62-2.11,4.73-4.73,4.73h-6.76v14.7l14.28,14.28h14.79v-6.76c0-2.62,2.11-4.73,4.73-4.73h26.96c2.62,0,4.73,2.11,4.73,4.73v6.76h14.79l14.28-14.28v-14.79h-6.93Z"/><path id="tlo_zew" class="cls-13" d="M231.59,213.5c-3.21,0-5.83-3.21-5.83-6.42v-26.79c0-3.21,2.62-6.42,5.83-6.42h5.5v-12l-13.86-13.78h-11.92v5.5c0,3.21-3.21,5.83-6.42,5.83h-26.79c-3.21,0-6.42-2.62-6.42-5.83v-5.5h-12.08l-13.78,13.78v12h5.5c3.21,0,5.83,3.21,5.83,6.42v26.79c0,3.21-2.62,6.42-5.83,6.42h-5.5v12l13.78,13.78h12v-5.5c0-3.21,3.21-5.83,6.42-5.83h26.7c3.21,0,6.42,2.62,6.42,5.83v5.5h12l13.78-13.78v-12h-5.34Z"/></g><path class="cls-21" d="M178.26,217.56c.29-2.36,.7-4.36,1.25-6.01,.55-1.65,1.45-3.63,2.69-5.92s3.88-6.39,7.91-12.27l11.48-16.73h-25.42v-7.93h33.4v7.93c-4.69,5.9-8.43,11.26-11.2,16.09s-5.02,9.32-6.74,13.47c-1.71,4.15-2.56,7.94-2.56,11.38h-10.82v-.02Z"/><g id="prodBg"><rect id="external-border" class="cls-6" x="408.34" y="107.19" width="173" height="170.72"/><rect id="internal-border" class="cls-15" x="412.82" y="111.7" width="164.15" height="161.72"/><rect id="bg" class="cls-22" x="416.77" y="115.65" width="156.11" height="153.69"/><rect id="bgPattern" class="cls-9" x="416.77" y="115.65" width="156.11" height="153.69"/></g><g id="energy"><rect class="cls-11" x="438.7" y="135.35" width="113.22" height="113.22"/><rect class="cls-16" x="441.96" y="138.61" width="106.7" height="106.7"/><polygon class="cls-17" points="543.5 143.78 543.5 240.15 447.13 240.15 447.13 143.78 543.5 143.78"/><polygon class="cls-4" points="483.55 180.94 515.34 161.23 498.35 185.84 507.35 200.47 476.1 220.17 491.81 195.64 483.55 180.94"/><path id="darker" class="cls-8" d="M548.67,245.32h-106.7v-58.47s33.6,5.17,53.3,5.17,53.4-5.17,53.4-5.17v58.47Z"/></g></svg>