<?xml version="1.0" encoding="UTF-8"?><svg id="Layer" xmlns="http://www.w3.org/2000/svg" viewBox="0 0 721 379.91"><defs><style>.cls-1{fill:#fff;opacity:0;stroke:#1d1d1b;stroke-miterlimit:10;}</style></defs><rect class="cls-1" x=".5" y=".5" width="720" height="378.91"/><g><path d="M22.09,159.68v-28.91h9.94c2.89,0,4.92,.3,6.1,.91,1.18,.61,2.06,1.46,2.66,2.57,.6,1.11,.9,2.5,.9,4.18,0,3.23-1.02,5.69-3.05,7.38s-4.77,2.54-8.19,2.54h-2.45v11.33h-5.9Zm5.9-15.29h1.13c2.21,0,3.84-.53,4.87-1.59s1.56-2.31,1.56-3.74c0-.81-.16-1.54-.49-2.2s-.83-1.17-1.52-1.55c-.69-.38-1.78-.57-3.29-.57h-2.26v9.65Z"/><path d="M46.62,159.68v-28.91h6.02v24.8h12.87v4.1h-18.89Z"/><path d="M66.72,159.68l11.26-28.91h6.03l11.25,28.91h-6.18l-3-7.71h-11.97l-3,7.71h-4.38Zm8.88-11.56h8.97l-4.48-11.52-4.49,11.52Z"/><path d="M122.6,158.55c-1.26,.55-2.36,.93-3.3,1.14s-2,.38-3.19,.51-2.37,.2-3.53,.2c-5.05,0-8.82-1.43-11.31-4.28-2.49-2.85-3.73-6.48-3.73-10.9s1.24-8.08,3.72-10.92,6.38-4.26,11.69-4.26c3.14,0,6.26,.37,9.38,1.11v4.71c-1.5-.52-2.72-.9-3.67-1.14-.95-.24-1.85-.42-2.71-.54-.85-.12-1.7-.18-2.55-.18-3.32,0-5.73,1.07-7.23,3.2-1.5,2.14-2.25,4.78-2.25,7.93,0,3.31,.85,5.98,2.55,8.03s4.23,3.07,7.59,3.07c2.8,0,5.64-.71,8.54-2.13v4.43Z"/><path d="M127.83,159.68v-28.91h18.52v3.98h-12.5v8.05h10.33v3.98h-10.33v8.79h13.42v4.1h-19.43Z"/><path d="M171.51,159.68v-12.11l-9.71-16.8h6.65l7.05,12.2,7.35-12.2h4.76l-10.1,16.76v12.15h-6.02Z"/><path d="M204.96,160.4c-3.01,0-5.62-.62-7.85-1.87s-3.92-3.03-5.08-5.37c-1.16-2.34-1.74-4.98-1.74-7.94s.58-5.59,1.74-7.93c1.16-2.34,2.86-4.14,5.1-5.38,2.24-1.24,4.85-1.87,7.83-1.87s5.57,.62,7.81,1.87c2.24,1.24,3.94,3.04,5.1,5.38,1.16,2.34,1.74,4.99,1.74,7.93s-.58,5.6-1.74,7.94c-1.16,2.34-2.85,4.13-5.07,5.37-2.22,1.24-4.83,1.87-7.84,1.87Zm0-3.96c2.79,0,4.86-1.14,6.22-3.41,1.36-2.27,2.04-4.88,2.04-7.81s-.68-5.55-2.05-7.81-3.44-3.39-6.21-3.39-4.86,1.13-6.23,3.39-2.05,4.86-2.05,7.81,.68,5.54,2.04,7.81c1.36,2.27,3.44,3.41,6.24,3.41Z"/><path d="M224.79,130.77h6.02v17.73c0,3.21,.54,5.33,1.63,6.37,1.09,1.04,2.5,1.56,4.23,1.56s3.06-.51,4.07-1.54c1.01-1.03,1.51-3.02,1.51-5.96v-18.16h5.23v17.75c0,3.35-.42,5.75-1.26,7.2s-2.05,2.59-3.64,3.43c-1.59,.83-3.6,1.25-6.04,1.25s-4.45-.39-6.17-1.16-3.08-1.93-4.08-3.46c-1-1.53-1.5-3.97-1.5-7.31v-17.7Z"/><path d="M254.47,159.68v-28.91h10.82c2.21,0,3.9,.28,5.06,.83,1.16,.55,2.07,1.39,2.74,2.52,.67,1.13,1.01,2.4,1.01,3.82,0,1.69-.49,3.29-1.46,4.79s-2.36,2.65-4.14,3.45l9.46,13.5h-7.33l-7.19-11.82h-3.31v11.82h-5.66Zm5.66-15.78h1.38c2.48,0,4.2-.54,5.14-1.62s1.42-2.3,1.42-3.67c0-1.18-.39-2.13-1.16-2.82-.77-.7-2.34-1.04-4.7-1.04h-2.1v9.16Z"/><path d="M294.85,159.68v-28.91h7.95l6.98,20.33,7.18-20.33h6.99v28.91h-5.55v-21.82l-7.06,19.88h-4.83l-6.93-20.18v22.11h-4.73Z"/><path d="M327.99,159.68l11.26-28.91h6.03l11.25,28.91h-6.18l-3-7.71h-11.97l-3,7.71h-4.38Zm8.88-11.56h8.97l-4.48-11.52-4.49,11.52Z"/><path d="M360.61,159.68v-28.91h10.82c2.21,0,3.9,.28,5.06,.83s2.07,1.39,2.74,2.52,1.01,2.4,1.01,3.82c0,1.69-.49,3.29-1.46,4.79s-2.36,2.65-4.14,3.45l9.46,13.5h-7.33l-7.19-11.82h-3.31v11.82h-5.66Zm5.66-15.78h1.38c2.48,0,4.2-.54,5.14-1.62,.95-1.08,1.42-2.3,1.42-3.67,0-1.18-.38-2.13-1.16-2.82s-2.34-1.04-4.7-1.04h-2.1v9.16Z"/><path d="M388.21,159.68v-28.91h5.78v14.02l10.71-14.02h4.93l-9.68,12.93,12.1,15.97h-7.45l-10.62-14.22v14.22h-5.78Z"/><path d="M416.6,159.68v-28.91h18.52v3.98h-12.5v8.05h10.33v3.98h-10.33v8.79h13.42v4.1h-19.43Z"/><path d="M440.63,159.68v-28.91h10.82c2.21,0,3.9,.28,5.06,.83s2.07,1.39,2.74,2.52,1.01,2.4,1.01,3.82c0,1.69-.49,3.29-1.46,4.79s-2.36,2.65-4.14,3.45l9.46,13.5h-7.33l-7.19-11.82h-3.31v11.82h-5.66Zm5.66-15.78h1.38c2.48,0,4.2-.54,5.14-1.62,.95-1.08,1.42-2.3,1.42-3.67,0-1.18-.38-2.13-1.16-2.82s-2.34-1.04-4.7-1.04h-2.1v9.16Z"/><path d="M493.87,160.4c-3.01,0-5.62-.62-7.85-1.87s-3.92-3.03-5.08-5.37-1.74-4.98-1.74-7.94,.58-5.59,1.74-7.93,2.86-4.14,5.1-5.38,4.85-1.87,7.83-1.87,5.57,.62,7.81,1.87,3.94,3.04,5.1,5.38,1.74,4.99,1.74,7.93-.58,5.6-1.74,7.94-2.85,4.13-5.07,5.37-4.83,1.87-7.84,1.87Zm0-3.96c2.79,0,4.86-1.14,6.22-3.41s2.04-4.88,2.04-7.81-.68-5.55-2.05-7.81-3.44-3.39-6.21-3.39-4.86,1.13-6.23,3.39-2.05,4.86-2.05,7.81,.68,5.54,2.04,7.81,3.44,3.41,6.24,3.41Z"/><path d="M513.93,159.68v-28.91h5.3l13.37,19.75v-19.75h4.82v28.91h-5.4l-13.28-19.75v19.75h-4.82Z"/><path d="M554.28,159.68l11.26-28.91h6.03l11.25,28.91h-6.18l-3-7.71h-11.97l-3,7.71h-4.38Zm8.88-11.56h8.97l-4.48-11.52-4.49,11.52Z"/><path d="M599.67,159.68v-28.91h5.3l13.37,19.75v-19.75h4.82v28.91h-5.4l-13.28-19.75v19.75h-4.82Z"/><path d="M643.28,160.4c-3.01,0-5.62-.62-7.85-1.87s-3.92-3.03-5.08-5.37-1.74-4.98-1.74-7.94,.58-5.59,1.74-7.93,2.86-4.14,5.1-5.38,4.85-1.87,7.83-1.87,5.57,.62,7.81,1.87,3.94,3.04,5.1,5.38,1.74,4.99,1.74,7.93-.58,5.6-1.74,7.94-2.85,4.13-5.07,5.37-4.83,1.87-7.84,1.87Zm0-3.96c2.79,0,4.86-1.14,6.22-3.41s2.04-4.88,2.04-7.81-.68-5.55-2.05-7.81-3.44-3.39-6.21-3.39-4.86,1.13-6.23,3.39-2.05,4.86-2.05,7.81,.68,5.54,2.04,7.81,3.44,3.41,6.24,3.41Z"/><path d="M663.34,159.68v-28.91h5.3l13.37,19.75v-19.75h4.82v28.91h-5.4l-13.28-19.75v19.75h-4.82Z"/><path d="M692.15,149.19v-3.61h8.67v3.61h-8.67Z"/><path d="M24.74,207.68v-28.91h10.82c2.21,0,3.9,.28,5.06,.83,1.16,.55,2.07,1.39,2.74,2.52,.67,1.13,1.01,2.4,1.01,3.82,0,1.69-.49,3.29-1.46,4.8-.98,1.5-2.36,2.65-4.14,3.45l9.46,13.5h-7.33l-7.19-11.82h-3.31v11.82h-5.66Zm5.66-15.78h1.38c2.48,0,4.2-.54,5.14-1.62,.95-1.08,1.42-2.3,1.42-3.67,0-1.18-.39-2.13-1.16-2.82-.77-.7-2.34-1.04-4.7-1.04h-2.1v9.16Z"/><path d="M52.34,207.68v-28.91h18.52v3.98h-12.5v8.05h10.33v3.98h-10.33v8.79h13.42v4.1h-19.43Z"/><path d="M74.74,207.42v-4.96c2.26,.95,3.94,1.51,5.06,1.7s2.14,.28,3.08,.28c1.69,0,2.95-.38,3.78-1.13,.83-.76,1.25-1.66,1.25-2.72,0-.81-.23-1.54-.7-2.19-.47-.64-1.61-1.47-3.42-2.48l-1.95-1.07c-2.79-1.55-4.67-2.98-5.66-4.3-1-1.32-1.5-2.84-1.5-4.57,0-2.18,.83-4.04,2.5-5.59,1.66-1.55,4.05-2.33,7.17-2.33,2.33,0,4.95,.33,7.87,1v4.63c-2.99-1.11-5.36-1.66-7.12-1.66-1.45,0-2.56,.32-3.32,.95s-1.14,1.39-1.14,2.28c0,.68,.23,1.31,.7,1.9,.45,.59,1.58,1.39,3.4,2.4l2.09,1.15c3.19,1.79,5.23,3.33,6.11,4.65,.87,1.33,1.3,2.82,1.3,4.47,0,2.37-.9,4.39-2.71,6.07s-4.68,2.52-8.62,2.52c-2.34,0-5.06-.33-8.16-.98Z"/><path d="M99.21,207.68v-28.91h18.52v3.98h-12.5v8.05h10.33v3.98h-10.33v8.79h13.42v4.1h-19.43Z"/><path d="M123.23,207.68v-28.91h10.82c2.21,0,3.9,.28,5.06,.83,1.16,.55,2.07,1.39,2.74,2.52,.67,1.13,1.01,2.4,1.01,3.82,0,1.69-.49,3.29-1.46,4.8-.98,1.5-2.36,2.65-4.14,3.45l9.46,13.5h-7.33l-7.19-11.82h-3.31v11.82h-5.66Zm5.66-15.78h1.38c2.48,0,4.2-.54,5.14-1.62,.95-1.08,1.42-2.3,1.42-3.67,0-1.18-.39-2.13-1.16-2.82-.77-.7-2.34-1.04-4.7-1.04h-2.1v9.16Z"/><path d="M158.4,207.68l-10.69-28.91h6.42l8.29,22.36,8.04-22.36h4.32l-10.36,28.91h-6.01Z"/><path d="M178.78,207.68v-28.91h18.52v3.98h-12.5v8.05h10.33v3.98h-10.33v8.79h13.42v4.1h-19.43Z"/><path d="M202.8,207.68v-28.91h12.44c3.33,0,5.93,.53,7.78,1.6s3.33,2.64,4.43,4.72c1.1,2.08,1.65,4.59,1.65,7.53s-.52,5.45-1.57,7.71c-1.05,2.27-2.58,4.06-4.58,5.37-2.01,1.32-4.75,1.97-8.24,1.97h-11.91Zm6.02-4.1h4.49c2.34,0,4.14-.36,5.38-1.09,1.24-.73,2.23-1.96,2.95-3.7s1.08-3.67,1.08-5.81-.35-3.85-1.05-5.43-1.68-2.77-2.92-3.58c-1.24-.81-3.34-1.22-6.3-1.22h-3.63v20.84Z"/><path d="M244.13,207.68l11.26-28.91h6.03l11.25,28.91h-6.18l-3-7.71h-11.97l-3,7.71h-4.38Zm8.88-11.56h8.97l-4.48-11.52-4.49,11.52Z"/><path d="M276.75,207.68v-28.91h10.82c2.21,0,3.9,.28,5.06,.83,1.16,.55,2.07,1.39,2.74,2.52,.67,1.13,1.01,2.4,1.01,3.82,0,1.69-.49,3.29-1.46,4.8-.98,1.5-2.36,2.65-4.14,3.45l9.46,13.5h-7.33l-7.19-11.82h-3.31v11.82h-5.66Zm5.66-15.78h1.38c2.48,0,4.2-.54,5.14-1.62,.95-1.08,1.42-2.3,1.42-3.67,0-1.18-.39-2.13-1.16-2.82-.77-.7-2.34-1.04-4.7-1.04h-2.1v9.16Z"/><path d="M304.35,207.68v-28.91h18.52v3.98h-12.5v8.05h10.33v3.98h-10.33v8.79h13.42v4.1h-19.43Z"/><path d="M325.21,207.68l11.26-28.91h6.03l11.25,28.91h-6.18l-3-7.71h-11.97l-3,7.71h-4.38Zm8.88-11.56h8.97l-4.48-11.52-4.49,11.52Z"/><path d="M356.03,207.68v-6.27h6.27v6.27h-6.27Z"/><path d="M393.35,208.4c-3.01,0-5.62-.62-7.85-1.87s-3.92-3.03-5.08-5.37-1.74-4.98-1.74-7.94,.58-5.59,1.74-7.93,2.86-4.14,5.1-5.38,4.85-1.87,7.83-1.87,5.57,.62,7.81,1.87,3.94,3.04,5.1,5.38,1.74,4.99,1.74,7.93-.58,5.6-1.74,7.94-2.85,4.13-5.07,5.37-4.83,1.87-7.84,1.87Zm0-3.96c2.79,0,4.86-1.14,6.22-3.41s2.04-4.88,2.04-7.81-.68-5.55-2.05-7.81-3.44-3.39-6.21-3.39-4.86,1.13-6.23,3.39-2.05,4.86-2.05,7.81,.68,5.54,2.04,7.81,3.44,3.41,6.24,3.41Z"/><path d="M413.41,207.68v-28.91h5.3l13.37,19.75v-19.75h4.82v28.91h-5.4l-13.28-19.75v19.75h-4.82Z"/><path d="M444.15,207.68v-28.91h6.02v24.81h12.87v4.1h-18.89Z"/><path d="M474.29,207.68v-12.11l-9.71-16.8h6.65l7.05,12.2,7.35-12.2h4.76l-10.1,16.76v12.15h-6.02Z"/><path d="M514.52,207.68v-12.11l-9.71-16.8h6.65l7.05,12.2,7.36-12.2h4.76l-10.1,16.76v12.15h-6.02Z"/><path d="M547.98,208.4c-3.01,0-5.62-.62-7.85-1.87s-3.92-3.03-5.08-5.37-1.74-4.98-1.74-7.94,.58-5.59,1.74-7.93,2.86-4.14,5.1-5.38,4.85-1.87,7.83-1.87,5.57,.62,7.81,1.87,3.94,3.04,5.1,5.38,1.74,4.99,1.74,7.93-.58,5.6-1.74,7.94-2.85,4.13-5.07,5.37-4.83,1.87-7.84,1.87Zm0-3.96c2.79,0,4.86-1.14,6.22-3.41s2.04-4.88,2.04-7.81-.68-5.55-2.05-7.81-3.44-3.39-6.21-3.39-4.86,1.13-6.23,3.39-2.05,4.86-2.05,7.81,.68,5.54,2.04,7.81,3.44,3.41,6.24,3.41Z"/><path d="M567.81,178.77h6.02v17.73c0,3.21,.54,5.33,1.63,6.37,1.09,1.04,2.5,1.56,4.23,1.56s3.06-.51,4.07-1.54,1.51-3.02,1.51-5.96v-18.16h5.23v17.75c0,3.35-.42,5.75-1.26,7.2s-2.05,2.59-3.64,3.43-3.6,1.25-6.04,1.25-4.45-.39-6.17-1.16-3.08-1.93-4.08-3.46-1.5-3.97-1.5-7.31v-17.7Z"/><path d="M610.27,207.68v-28.91h7.95l6.98,20.33,7.18-20.33h6.99v28.91h-5.55v-21.82l-7.06,19.88h-4.84l-6.93-20.18v22.11h-4.73Z"/><path d="M643.41,207.68l11.26-28.91h6.03l11.25,28.91h-6.18l-3-7.71h-11.97l-3,7.71h-4.38Zm8.88-11.56h8.97l-4.48-11.52-4.49,11.52Z"/><path d="M682.9,207.68v-12.11l-9.71-16.8h6.65l7.05,12.2,7.35-12.2h4.76l-10.1,16.76v12.15h-6.02Z"/><path d="M162.9,255.68v-28.91h9.94c2.89,0,4.92,.3,6.1,.91,1.18,.61,2.06,1.46,2.66,2.57,.6,1.11,.9,2.5,.9,4.18,0,3.23-1.02,5.69-3.05,7.38s-4.77,2.54-8.19,2.54h-2.45v11.33h-5.9Zm5.9-15.29h1.13c2.21,0,3.84-.53,4.87-1.59s1.56-2.31,1.56-3.74c0-.81-.16-1.54-.49-2.2s-.83-1.17-1.52-1.55c-.69-.38-1.78-.57-3.29-.57h-2.26v9.65Z"/><path d="M187.43,255.68v-28.91h6.02v24.8h12.87v4.1h-18.89Z"/><path d="M207.53,255.68l11.26-28.91h6.03l11.25,28.91h-6.18l-3-7.71h-11.97l-3,7.71h-4.38Zm8.88-11.56h8.97l-4.48-11.52-4.49,11.52Z"/><path d="M263.41,254.55c-1.26,.55-2.36,.93-3.3,1.14s-2,.38-3.19,.51-2.37,.2-3.53,.2c-5.05,0-8.82-1.43-11.31-4.28-2.49-2.85-3.73-6.48-3.73-10.9s1.24-8.08,3.72-10.92,6.38-4.26,11.69-4.26c3.14,0,6.26,.37,9.38,1.11v4.71c-1.5-.52-2.72-.9-3.67-1.14-.95-.24-1.85-.42-2.71-.54-.85-.12-1.7-.18-2.55-.18-3.32,0-5.73,1.07-7.23,3.2-1.5,2.14-2.25,4.78-2.25,7.93,0,3.31,.85,5.98,2.55,8.03s4.23,3.07,7.59,3.07c2.8,0,5.64-.71,8.54-2.13v4.43Z"/><path d="M268.64,255.68v-28.91h18.52v3.98h-12.5v8.05h10.33v3.98h-10.33v8.79h13.42v4.1h-19.43Z"/><path d="M302.28,255.68l11.26-28.91h6.03l11.25,28.91h-6.18l-3-7.71h-11.97l-3,7.71h-4.38Zm8.88-11.56h8.97l-4.48-11.52-4.49,11.52Z"/><path d="M354.86,255.68v-24.92h-10.35v-3.98h26.72v3.98h-10.35v24.92h-6.02Z"/><path d="M375.27,255.68v-28.91h6.02v28.91h-6.02Z"/><path d="M388.53,255.68v-28.91h6.02v24.8h12.87v4.1h-18.89Z"/><path d="M411.79,255.68v-28.91h18.52v3.98h-12.5v8.05h10.33v3.98h-10.33v8.79h13.42v4.1h-19.43Z"/><path d="M448.59,255.68v-28.91h6.02v11.74h11.95v-11.74h6.02v28.91h-6.02v-13.18h-11.95v13.18h-6.02Z"/><path d="M479.8,255.68v-28.91h18.52v3.98h-12.5v8.05h10.33v3.98h-10.33v8.79h13.42v4.1h-19.43Z"/><path d="M503.82,255.68v-28.91h10.82c2.21,0,3.9,.28,5.06,.83s2.07,1.39,2.75,2.52c.67,1.13,1.01,2.4,1.01,3.82,0,1.69-.49,3.29-1.46,4.79-.98,1.5-2.36,2.65-4.14,3.45l9.46,13.5h-7.33l-7.19-11.82h-3.31v11.82h-5.66Zm5.66-15.78h1.38c2.48,0,4.2-.54,5.14-1.62,.95-1.08,1.42-2.3,1.42-3.67,0-1.18-.38-2.13-1.16-2.82s-2.34-1.04-4.7-1.04h-2.1v9.16Z"/><path d="M531.42,255.68v-28.91h18.52v3.98h-12.5v8.05h10.33v3.98h-10.33v8.79h13.42v4.1h-19.43Z"/><path d="M553.65,255.68v-6.27h6.27v6.27h-6.27Z"/></g></svg>