<?xml version="1.0" encoding="UTF-8"?><svg id="Layer" xmlns="http://www.w3.org/2000/svg" xmlns:xlink="http://www.w3.org/1999/xlink" viewBox="0 0 721 379.91"><defs><style>.cls-1{fill:url(#linear-gradient-2);}.cls-2{fill:url(#linear-gradient-6);}.cls-3{fill:#1f1f1e;}.cls-4{fill:#fff;opacity:0;stroke:#1d1d1b;}.cls-4,.cls-5{stroke-miterlimit:10;}.cls-6{fill:url(#Nowy_wzorek_4);isolation:isolate;opacity:.1;}.cls-7{fill:url(#linear-gradient-5);}.cls-8{fill:none;}.cls-5{fill:#010202;stroke:#030304;stroke-width:1.89px;}.cls-9{fill:url(#linear-gradient-7);}.cls-10{fill:url(#linear-gradient-3);}.cls-11{fill:url(#linear-gradient);}.cls-12{fill:url(#linear-gradient-4);}.cls-13{fill:#010101;}</style><linearGradient id="linear-gradient" x1="446.97" y1="533.87" x2="272.64" y2="359.54" gradientTransform="translate(0 -252.64)" gradientUnits="userSpaceOnUse"><stop offset="0" stop-color="#9e9d9c"/><stop offset=".54" stop-color="#010202"/><stop offset="1" stop-color="#9e9d9c"/></linearGradient><linearGradient id="linear-gradient-2" x1="359.88" y1="528.86" x2="359.88" y2="364.58" gradientTransform="translate(0 -252.64)" gradientUnits="userSpaceOnUse"><stop offset="0" stop-color="#462c1b"/><stop offset="1" stop-color="#b18048"/></linearGradient><linearGradient id="linear-gradient-3" x1="359.81" y1="524.7" x2="359.81" y2="368.59" gradientTransform="translate(0 -252.64)" gradientUnits="userSpaceOnUse"><stop offset="0" stop-color="#946137"/><stop offset="1" stop-color="#805127"/></linearGradient><pattern id="Nowy_wzorek_4" x="0" y="0" width="19.7" height="21.7" patternTransform="translate(43.9 16649.47)" patternUnits="userSpaceOnUse" viewBox="0 0 19.7 21.7"><g><rect class="cls-8" width="19.7" height="21.7"/><g><rect class="cls-8" width="19.7" height="21.7"/><g><rect class="cls-8" width="19.7" height="21.7"/><g><rect class="cls-8" width="19.7" height="21.7"/><g><rect class="cls-8" width="19.7" height="21.7"/><path class="cls-3" d="M16.6,8.7c2.1,2.1,2.1,5.6,0,7.7l-1.2,1.2c-2.1,2.1-5.6,2.1-7.8,0L3.1,13c-2.1-2.1-2.1-5.6,0-7.7l1.2-1.2c2.1-2.1,5.6-2.1,7.7,0l4.6,4.6Z"/></g></g></g></g></g></pattern><linearGradient id="linear-gradient-4" x1="360.85" y1="501.86" x2="360.85" y2="393.45" gradientTransform="translate(0 -253.65)" gradientUnits="userSpaceOnUse"><stop offset=".16" stop-color="#823a13"/><stop offset=".18" stop-color="#985c1a"/><stop offset=".22" stop-color="#ae7d22"/><stop offset=".26" stop-color="#c39d26"/><stop offset=".3" stop-color="#d6b92e"/><stop offset=".35" stop-color="#e4cf36"/><stop offset=".41" stop-color="#efe036"/><stop offset=".48" stop-color="#f6e947"/><stop offset=".58" stop-color="#f8ea4e"/><stop offset=".86" stop-color="#f6ea4d"/><stop offset="1" stop-color="#fcf4f9"/></linearGradient><linearGradient id="linear-gradient-5" x1="360.85" y1="387.67" x2="360.85" y2="553.39" gradientTransform="translate(0 -253.65)" gradientUnits="userSpaceOnUse"><stop offset=".26" stop-color="#f6ea4d"/><stop offset=".86" stop-color="#803813"/></linearGradient><linearGradient id="linear-gradient-6" x1="360.91" y1="500.37" x2="360.91" y2="395.04" gradientTransform="translate(0 -253.65)" gradientUnits="userSpaceOnUse"><stop offset=".16" stop-color="#803813"/><stop offset=".17" stop-color="#8c471e"/><stop offset=".18" stop-color="#a26b3c"/><stop offset=".2" stop-color="#b78954"/><stop offset=".22" stop-color="#c7a468"/><stop offset=".24" stop-color="#d7bb7a"/><stop offset=".26" stop-color="#e2cc88"/><stop offset=".3" stop-color="#ead891"/><stop offset=".34" stop-color="#eede97"/><stop offset=".46" stop-color="#efe097"/><stop offset=".7" stop-color="#803813"/><stop offset=".73" stop-color="#e6d234"/><stop offset=".74" stop-color="#ebd948"/><stop offset=".75" stop-color="#eede6d"/><stop offset=".77" stop-color="#f0e28a"/><stop offset=".79" stop-color="#f8ebaa"/><stop offset=".8" stop-color="#f8edbf"/><stop offset=".83" stop-color="#faf0cf"/><stop offset=".85" stop-color="#fcf2da"/><stop offset=".89" stop-color="#fdf4e1"/><stop offset=".99" stop-color="#fdf5e3"/></linearGradient><linearGradient id="linear-gradient-7" x1="360.84" y1="410.5" x2="360.84" y2="573.06" gradientTransform="translate(0 -253.65)" gradientUnits="userSpaceOnUse"><stop offset=".26" stop-color="#f6ea4d"/><stop offset=".77" stop-color="#803813"/></linearGradient></defs><rect class="cls-4" x=".5" y=".5" width="720" height="378.91"/><g id="prodBg"><rect id="external-border" class="cls-11" x="272.18" y="107.36" width="175.25" height="173.41"/><rect id="internal-border" class="cls-1" x="276.76" y="111.94" width="166.24" height="164.28"/><rect id="bg" class="cls-10" x="280.77" y="115.95" width="158.08" height="156.11"/><rect id="bgPattern" class="cls-6" x="280.77" y="115.95" width="158.08" height="156.11"/></g><g id="mln"><polygon id="obram_czarne" class="cls-5" points="320.72 136.49 303.3 153.92 303.3 234.1 320.72 251.53 400.98 251.53 418.31 234.1 418.31 153.92 400.98 136.49 320.72 136.49"/><polygon id="obram_zolte" class="cls-12" points="322.99 139.8 306.68 156.18 306.68 231.83 322.99 248.21 398.64 248.21 415.02 231.83 415.02 156.18 398.64 139.8 322.99 139.8"/><polygon id="tlo_wew" class="cls-7" points="324.11 141.39 308.2 157.33 308.2 230.71 324.11 246.62 397.6 246.62 413.5 230.71 413.5 157.33 397.6 141.39 324.11 141.39"/><path id="obram_skosne" class="cls-2" d="M405.89,214.31c-2.91,0-5.28-2.36-5.28-5.28v-30.05c0-2.91,2.36-5.28,5.28-5.28h7.54v-16.38l-15.83-15.93h-16.48v7.54c0,2.91-2.36,5.28-5.28,5.28h-30.05c-2.91,0-5.28-2.36-5.28-5.28v-7.54h-16.38l-15.93,15.93v16.48h7.54c2.91,0,5.28,2.36,5.28,5.28v30.05c0,2.91-2.36,5.28-5.28,5.28h-7.54v16.38l15.93,15.93h16.48v-7.54c0-2.91,2.36-5.28,5.28-5.28h30.05c2.91,0,5.28,2.36,5.28,5.28v7.54h16.48l15.93-15.93v-16.48h-7.74Z"/><path id="tlo_zew" class="cls-9" d="M405.61,216.1c-3.58,0-6.5-3.58-6.5-7.17v-29.87c0-3.58,2.91-7.17,6.5-7.17h6.12v-13.37l-15.46-15.36h-13.29v6.12c0,3.58-3.58,6.5-7.17,6.5h-29.87c-3.58,0-7.17-2.91-7.17-6.5v-6.12h-13.47l-15.36,15.36v13.37h6.12c3.58,0,6.5,3.58,6.5,7.17v29.87c0,3.58-2.91,7.17-6.5,7.17h-6.12v13.37l15.36,15.36h13.37v-6.12c0-3.58,3.58-6.5,7.17-6.5h29.77c3.58,0,7.17,2.91,7.17,6.5v6.12h13.37l15.36-15.36v-13.37h-5.9Z"/></g><path class="cls-13" d="M345.12,217.52v-7.67c2.94-3.93,5.78-7.12,8.51-9.51l3.96-3.51c2.84-2.51,5.18-5,7.05-7.47s2.79-5.03,2.79-7.72c0-2.44-.77-4.31-2.34-5.63s-3.68-1.99-6.35-1.99c-3.53,0-7.67,1.19-12.37,3.61v-7.12c4.93-1.84,9.71-2.76,14.31-2.76,5.1,0,9.21,1.22,12.35,3.66s4.71,5.7,4.71,9.81c0,2.59-.67,5.03-1.99,7.29-1.32,2.29-4.08,5.1-8.24,8.49l-3.29,2.61c-1.44,1.17-3.01,2.64-4.73,4.46s-2.84,3.73-3.39,5.78h21.43v7.67h-32.41Z"/></svg>