<?xml version="1.0" encoding="UTF-8"?><svg id="Layer" xmlns="http://www.w3.org/2000/svg" xmlns:xlink="http://www.w3.org/1999/xlink" viewBox="0 0 721 379.91"><defs><style>.cls-1{fill:url(#linear-gradient-2);}.cls-2,.cls-3{fill:#030404;}.cls-4{fill:#cf1820;}.cls-3{opacity:.15;}.cls-3,.cls-5{isolation:isolate;}.cls-6{opacity:0;stroke:#1d1d1b;}.cls-6,.cls-7,.cls-8,.cls-9{stroke-miterlimit:10;}.cls-6,.cls-8{fill:#fff;}.cls-7,.cls-8{stroke:#030404;}.cls-7,.cls-9{fill:none;stroke-width:1.87px;}.cls-8{stroke-width:.94px;}.cls-5{fill:#e03f19;opacity:.5;}.cls-9{stroke:#030304;}.cls-10{fill:#80368c;}.cls-11{fill:url(#linear-gradient-3);}.cls-12{fill:url(#linear-gradient);}.cls-13{fill:url(#linear-gradient-4);}</style><linearGradient id="linear-gradient" x1="-522.51" y1="1727.53" x2="-444.93" y2="1649.96" gradientTransform="translate(-307.4 -1344.03) rotate(-45)" gradientUnits="userSpaceOnUse"><stop offset="0" stop-color="#030404"/><stop offset=".11" stop-color="#5e5c5c"/><stop offset="1" stop-color="#fff"/></linearGradient><linearGradient id="linear-gradient-2" x1="495.12" y1="462.41" x2="594.13" y2="462.41" gradientTransform="translate(0 -270.23)" gradientUnits="userSpaceOnUse"><stop offset="0" stop-color="#fff"/><stop offset=".51" stop-color="#fcfbfb"/><stop offset="1" stop-color="#f0efee"/></linearGradient><linearGradient id="linear-gradient-3" x1="391.15" y1="466.86" x2="391.15" y2="423.87" gradientTransform="translate(0 -253.22)" gradientUnits="userSpaceOnUse"><stop offset="0" stop-color="#522b16"/><stop offset=".45" stop-color="#522b16" stop-opacity=".7"/><stop offset=".58" stop-color="#e03f19" stop-opacity=".5"/><stop offset="1" stop-color="#e03f19" stop-opacity=".5"/></linearGradient><linearGradient id="linear-gradient-4" x1="-737.53" y1="1512.61" x2="-659.97" y2="1435.04" gradientTransform="translate(-307.2 -1344.11) rotate(-45)" gradientUnits="userSpaceOnUse"><stop offset="0" stop-color="#1d1527"/><stop offset=".24" stop-color="#372348"/><stop offset=".49" stop-color="#583c6c"/><stop offset=".71" stop-color="#73518d"/><stop offset=".89" stop-color="#835ca1"/><stop offset="1" stop-color="#8964a8"/></linearGradient></defs><rect class="cls-6" x=".5" y=".5" width="720" height="378.91"/><g id="science"><rect class="cls-2" x="486.49" y="133.93" width="116.37" height="116.37"/><rect class="cls-12" x="489.84" y="137.27" width="109.69" height="109.69"/><polygon class="cls-1" points="594.13 142.67 594.13 241.67 495.12 241.67 495.12 142.67 594.13 142.67"/><path class="cls-7" d="M556.92,193.03c0,20.6-4.64,37.32-10.35,37.32s-10.35-16.72-10.35-37.32,4.64-37.32,10.35-37.32,10.35,16.82,10.35,37.32Z"/><path class="cls-7" d="M541.28,184.08c17.8-10.25,34.62-14.67,37.53-9.71,2.91,4.96-9.28,17.36-27.18,27.61-17.8,10.35-34.62,14.67-37.42,9.71-2.7-4.96,9.28-17.36,27.07-27.61h0Z"/><path class="cls-7" d="M551.64,184.08c-17.8-10.25-34.62-14.67-37.53-9.6s9.38,17.26,27.18,27.61c17.8,10.35,34.62,14.56,37.53,9.6,2.91-4.96-9.28-17.36-27.18-27.61Z"/><path id="darker" class="cls-3" d="M599.42,246.96h-109.58v-60.07s34.51,5.28,54.79,5.28,54.9-5.28,54.9-5.28l-.11,60.07h0Z"/><path class="cls-2" d="M550.45,193.03c0,2.16-1.73,3.88-3.88,3.88s-3.88-1.73-3.88-3.88,1.73-3.88,3.88-3.88,3.88,1.73,3.88,3.88Z"/></g><g id="arrow"><path class="cls-5" d="M451.01,192.17l-57.16-26.42,6.9,13.7h-64.39s-1.94,6.15-1.94,12.19,1.94,10.79,1.94,10.79h65.68l-8.09,16.18,57.05-26.42h0Z"/><path class="cls-11" d="M405.82,200.04h-67.73c-.54-1.73-1.29-4.96-1.29-8.52,0-3.77,.86-7.66,1.4-9.81h66.44l-5.61-11.11,46.48,21.57-46.48,21.46,6.79-13.59h0Z"/><path class="cls-4" d="M410.78,197.02h-70.32c-.32-1.51-.54-3.34-.54-5.39,0-2.37,.43-4.75,.75-6.69h68.92l-3.88-7.77,32.46,14.99-32.46,14.99,5.07-10.14h0Z"/><path class="cls-9" d="M405.82,200.04h-67.73c-.54-1.73-1.29-4.96-1.29-8.52,0-3.77,.86-7.66,1.4-9.81h66.44l-5.61-11.11,46.48,21.57-46.48,21.46,6.79-13.59h0Z"/></g><g id="energy"><rect class="cls-2" x="182.67" y="133.93" width="116.37" height="116.37"/><rect class="cls-13" x="186.02" y="137.27" width="109.69" height="109.69"/><polygon class="cls-10" points="290.31 142.67 290.31 241.67 191.3 241.67 191.3 142.67 290.31 142.67"/><polygon class="cls-8" points="228.73 180.85 261.41 160.57 243.93 185.92 253.21 200.91 221.07 221.18 237.25 195.95 228.73 180.85"/><path id="darker-2" class="cls-3" d="M295.7,246.96h-109.69v-60.07s34.51,5.28,54.79,5.28,54.9-5.28,54.9-5.28v60.07h0Z"/></g><path d="M128.53,189.37c1.62-1.94,3.13-3.34,4.53-4.21s3.02-1.62,4.85-2.16,3.67-.75,5.5-.75c3.45,0,6.58,.86,9.71,2.37s5.39,3.88,7.01,6.9c1.62,2.91,2.48,6.26,2.48,9.92,0,3.99-.97,7.66-2.8,11.11s-4.42,6.15-7.66,8.2c-3.24,1.94-7.23,2.91-12.08,2.91-8.3,0-14.45-2.91-18.55-8.84s-6.04-13.37-6.04-22.22c0-6.36,1.08-12.19,3.13-17.47s5.07-9.28,9.06-12.19,9.28-4.31,15.96-4.31c2.05,0,4.21,.11,6.15,.32,2.05,.22,5.18,.86,9.49,1.94v9.06c-5.72-2.37-10.68-3.56-15.21-3.56-3.24,0-6.04,.86-8.2,2.48s-3.99,4.31-5.39,7.77c-1.29,3.56-1.94,7.77-1.94,12.73h0Zm21.68,14.02c0-4.31-.97-7.55-2.91-9.92s-4.42-3.56-7.44-3.56c-2.8,0-5.28,1.08-7.55,3.24s-3.34,4.96-3.34,8.41,.86,6.9,2.7,9.92,4.64,4.53,8.41,4.53c2.91,0,5.39-1.08,7.23-3.34s2.91-5.28,2.91-9.28h0Z"/></svg>