<?xml version="1.0" encoding="UTF-8"?><svg id="Layer" xmlns="http://www.w3.org/2000/svg" xmlns:xlink="http://www.w3.org/1999/xlink" viewBox="0 0 721 379.91"><defs><style>.cls-1{opacity:.29;}.cls-1,.cls-2,.cls-3{fill:#030404;}.cls-1,.cls-3,.cls-4{isolation:isolate;}.cls-5{fill:url(#linear-gradient-2);}.cls-6{fill:#1a291d;}.cls-7{fill:#fff;opacity:0;stroke:#1d1d1b;}.cls-7,.cls-8{stroke-miterlimit:10;}.cls-9{fill:url(#radial-gradient);}.cls-3{opacity:.08;}.cls-10{fill:#175a29;}.cls-8{fill:none;stroke:#030404;}.cls-11{fill:url(#linear-gradient-5);}.cls-12{fill:url(#radial-gradient-2);}.cls-13{fill:url(#radial-gradient-3);}.cls-14{fill:url(#linear-gradient);}.cls-15{fill:url(#linear-gradient-4);}.cls-4{fill:url(#linear-gradient-3);opacity:.4;}</style><linearGradient id="linear-gradient" x1="-553.64" y1="-1069.87" x2="-476.27" y2="-992.51" gradientTransform="translate(96.25 -1011.43) rotate(-45) scale(1 -1)" gradientUnits="userSpaceOnUse"><stop offset="0" stop-color="#1f4d23"/><stop offset=".43" stop-color="#4d7131"/><stop offset="1" stop-color="#99ac44"/></linearGradient><radialGradient id="radial-gradient" cx="461.29" cy="46.25" fx="461.29" fy="46.25" r="49.4" gradientTransform="translate(0 128.1) scale(1 -1)" gradientUnits="userSpaceOnUse"><stop offset=".25" stop-color="#99ac44"/><stop offset="1" stop-color="#3e7c31"/></radialGradient><linearGradient id="linear-gradient-2" x1="-785.93" y1="-1157.78" x2="-708.56" y2="-1080.42" xlink:href="#linear-gradient"/><radialGradient id="radial-gradient-2" cx="359.19" cy="-180.17" fx="359.19" fy="-180.17" xlink:href="#radial-gradient"/><linearGradient id="linear-gradient-3" x1="268.89" y1="412.45" x2="268.89" y2="260.63" gradientTransform="translate(0 -251.45)" gradientUnits="userSpaceOnUse"><stop offset="0" stop-color="#ffdc15"/><stop offset="0" stop-color="#ffdb16"/><stop offset=".05" stop-color="#f9bb24"/><stop offset=".1" stop-color="#f59d1e"/><stop offset=".16" stop-color="#ef7c1e"/><stop offset=".22" stop-color="#e86312"/><stop offset=".27" stop-color="#e94c21"/><stop offset=".34" stop-color="#e63b23"/><stop offset=".41" stop-color="#e63624"/><stop offset=".5" stop-color="#e63324"/><stop offset=".59" stop-color="#e63624"/><stop offset=".66" stop-color="#e63b23"/><stop offset=".73" stop-color="#e94c21"/><stop offset=".78" stop-color="#e86312"/><stop offset=".84" stop-color="#ef7c1e"/><stop offset=".9" stop-color="#f59d1e"/><stop offset=".95" stop-color="#f9bb24"/><stop offset="1" stop-color="#ffdb16"/><stop offset="1" stop-color="#ffdc15"/></linearGradient><linearGradient id="linear-gradient-4" y1="411.05" y2="262.04" xlink:href="#linear-gradient-3"/><linearGradient id="linear-gradient-5" x1="268.95" y1="404.81" x2="268.95" y2="268.17" gradientTransform="translate(0 -251.45)" gradientUnits="userSpaceOnUse"><stop offset="0" stop-color="#030404"/><stop offset="1" stop-color="#fff"/></linearGradient><radialGradient id="radial-gradient-3" cx="269" cy="336.54" fx="269" fy="336.54" r="59.61" gradientTransform="translate(0 -251.45)" gradientUnits="userSpaceOnUse"><stop offset="0" stop-color="#ccc9c9"/><stop offset="1" stop-color="#757474"/></radialGradient></defs><rect class="cls-7" x=".5" y=".5" width="720" height="378.91"/><path d="M355.89,74.53v-12.56h12.56v12.56h-12.56Zm0,34.08v-12.56h12.56v12.56h-12.56Z"/><g id="animal"><rect class="cls-2" x="403.22" y="23.79" width="116.11" height="116.11"/><rect class="cls-14" x="406.58" y="27.15" width="109.41" height="109.41"/><rect class="cls-9" x="411.89" y="32.45" width="98.8" height="98.8"/><path id="darker" class="cls-3" d="M515.98,136.56h-109.41v-59.97s34.46,5.31,54.66,5.31,54.75-5.31,54.75-5.31v59.97h0Z"/><path class="cls-10" d="M449.69,54.06c-.28,0-2.97,.37-4.57,2.6-.65,.84-.93,1.77-1.12,2.79-.37,2.05-1.12,5.77,.37,10.34,.74,2.14,1.58,4.75,4.01,6.52,.74,.56,2.23,1.58,4.19,1.39,2.14-.19,3.45-1.77,3.9-2.32,1.86-2.14,1.86-4.66,1.95-7.35,0-1.3,0-5.31-2.05-9.49-1.39-2.79-2.6-3.53-3.16-3.82-1.49-.93-3.08-.74-3.53-.65h.01Z"/><path class="cls-10" d="M475.39,52.48c-.28-.09-2.88-.65-5.12,.84-.84,.56-1.49,1.3-2.05,2.23-1.12,1.77-3.08,4.94-3.25,9.78-.09,2.32-.19,5.03,1.49,7.54,.56,.74,1.58,2.23,3.45,2.71,2.05,.56,3.9-.46,4.47-.84,2.42-1.39,3.45-3.73,4.47-6.24,.46-1.21,1.86-4.94,1.39-9.6-.28-3.08-1.21-4.19-1.67-4.66-1.21-1.21-2.71-1.58-3.16-1.77h-.02Z"/><path class="cls-10" d="M432.28,68.95c-.28,.09-2.88,.65-4.29,2.97-.56,.93-.74,1.77-.84,2.88-.19,2.05-.56,5.77,1.3,10.25,.93,2.05,1.95,4.57,4.66,6.15,.84,.46,2.42,1.3,4.29,.93,2.14-.37,3.25-2.05,3.73-2.71,1.58-2.32,1.49-4.84,1.3-7.54-.09-1.3-.46-5.22-2.97-9.21-1.58-2.6-2.88-3.25-3.53-3.53-1.67-.56-3.08-.28-3.64-.19h-.01Z"/><path class="cls-10" d="M490.95,66.72c-.28-.09-2.88-.65-5.12,.93-.84,.65-1.39,1.39-1.95,2.32-1.02,1.86-2.97,5.03-2.97,9.86,0,2.32-.09,5.03,1.67,7.45,.56,.74,1.67,2.23,3.53,2.6,2.05,.46,3.82-.56,4.47-.93,2.42-1.39,3.36-3.82,4.29-6.33,.46-1.21,1.77-4.94,1.12-9.6-.37-3.08-1.3-4.19-1.77-4.66-1.3-1.21-2.79-1.58-3.25-1.67h0v.03Z"/><path class="cls-6" d="M490.29,69.7c-.19,0-2.14-.46-3.82,.74-.65,.46-1.02,1.02-1.49,1.67-.74,1.39-2.14,3.73-2.23,7.35,0,1.67-.09,3.73,1.3,5.59,.37,.56,1.21,1.67,2.6,1.95,1.58,.37,2.88-.46,3.36-.65,1.77-1.12,2.42-2.79,3.16-4.75,.37-.93,1.3-3.73,.84-7.17-.28-2.23-1.02-3.08-1.3-3.45-.93-1.02-2.05-1.3-2.42-1.3h0v.02Z"/><path class="cls-6" d="M474.65,55.55c-.19-.09-2.14-.46-3.82,.56-.65,.46-1.02,.93-1.49,1.67-.84,1.3-2.23,3.64-2.42,7.26-.09,1.67-.19,3.73,1.12,5.59,.37,.56,1.12,1.67,2.51,2.05,1.58,.37,2.88-.37,3.36-.56,1.77-1.02,2.51-2.71,3.25-4.57,.37-.93,1.39-3.64,1.02-7.08-.28-2.23-.93-3.08-1.21-3.45-.93-1.12-1.95-1.39-2.32-1.49h0v.02Z"/><path class="cls-6" d="M450.06,57.13c-.19,0-2.14,.28-3.36,1.86-.46,.65-.65,1.3-.84,2.05-.28,1.49-.84,4.19,.28,7.63,.56,1.58,1.12,3.53,2.97,4.84,.56,.37,1.67,1.12,3.08,1.02,1.58-.19,2.51-1.3,2.88-1.67,1.3-1.58,1.39-3.45,1.49-5.4,0-.93,0-3.9-1.58-6.98-1.02-2.05-1.95-2.6-2.32-2.79-1.12-.74-2.23-.65-2.6-.56h0Z"/><path class="cls-6" d="M432.93,71.66c-.19,0-2.23,.46-3.25,2.32-.46,.74-.56,1.39-.65,2.23-.19,1.58-.46,4.47,1.02,7.82,.65,1.58,1.49,3.53,3.53,4.66,.65,.37,1.86,1.02,3.25,.74,1.58-.28,2.51-1.58,2.79-2.05,1.21-1.77,1.12-3.73,1.02-5.77-.09-1.02-.37-4.01-2.23-7.08-1.21-2.05-2.23-2.51-2.71-2.71-1.3-.46-2.51-.19-2.79-.19v.03h.02Z"/><path class="cls-10" d="M462.08,76.59c-1.3,.09-2.71,.09-4.29,.93-1.77,.93-2.79,2.32-3.73,3.53-.84,1.12-.74,1.21-1.95,3.16-1.12,1.67-1.67,2.71-2.71,3.82-1.21,1.39-2.42,2.23-4.57,3.9-2.32,1.77-2.51,1.67-3.16,2.42-1.58,1.86-1.95,3.9-2.23,5.31-.19,1.3-.65,3.73,.37,6.52,.46,1.21,1.3,3.53,3.45,4.57,.84,.37,1.67,.46,3.73,.37,3.45-.19,5.77-.84,7.82-1.3,2.42-.56,4.94-1.12,8.1-1.21,3.82-.09,7.17,.56,8.93,.84,2.05,.37,3.53,.84,6.42,1.12,2.42,.28,3.64,.19,5.03-.28,.84-.28,2.32-.74,3.45-2.05,1.21-1.49,1.3-3.08,1.3-4.75,.09-1.12,.09-3.82-1.49-6.98-.65-1.39-1.21-2.05-3.36-4.66-5.77-7.17-6.05-8.01-8.38-9.97-1.39-1.21-2.79-2.42-4.94-3.45-1.12-.65-4.01-2.05-7.82-1.86h.04v.02Z"/><path class="cls-6" d="M462.36,79.01c-1.12,.09-2.32,.09-3.73,.84-1.49,.84-2.42,2.05-3.16,3.08-.74,.93-.65,1.02-1.67,2.79-.93,1.49-1.49,2.32-2.32,3.25-1.02,1.21-2.05,1.95-3.9,3.36-2.05,1.58-2.14,1.39-2.79,2.14-1.39,1.58-2.6,4.01-2.88,5.12-.19,1.12-.56,3.16,.28,5.59,.37,1.12,1.12,3.08,2.97,3.9,.74,.37,2.42-.09,4.1-.28,2.97-.19,5.03-.74,6.8-1.12,2.05-.46,4.29-.93,6.98-1.02,3.25-.09,6.15,.46,7.73,.74,1.77,.37,3.08,.74,5.5,.93,2.05,.19,4.57,1.02,5.68,.65,.74-.19,1.95-.74,2.97-1.95s.74-3.82,.84-5.31c.09-.93-.74-2.97-2.32-5.68-.74-1.3-1.12-1.77-2.88-4.01-4.94-6.15-5.22-6.89-7.17-8.56-1.21-1.02-2.42-2.05-4.29-2.97-.93-.46-3.45-1.67-6.7-1.49h-.04Z"/></g><g id="animal-2"><rect class="cls-2" x="301.12" y="250.21" width="116.11" height="116.11"/><rect class="cls-5" x="304.48" y="253.57" width="109.41" height="109.41"/><rect class="cls-12" x="309.79" y="258.87" width="98.8" height="98.8"/><path id="darker-2" class="cls-3" d="M413.88,362.98h-109.41v-59.97s34.46,5.31,54.66,5.31,54.75-5.31,54.75-5.31v59.97h0Z"/><path class="cls-10" d="M347.59,280.48c-.28,0-2.97,.37-4.57,2.6-.65,.84-.93,1.77-1.12,2.79-.37,2.05-1.12,5.77,.37,10.34,.74,2.14,1.58,4.75,4.01,6.52,.74,.56,2.23,1.58,4.19,1.39,2.14-.19,3.45-1.77,3.9-2.32,1.86-2.14,1.86-4.66,1.95-7.35,0-1.3,0-5.31-2.05-9.49-1.39-2.79-2.6-3.53-3.16-3.82-1.49-.93-3.08-.74-3.53-.65h.01Z"/><path class="cls-10" d="M373.29,278.9c-.28-.09-2.88-.65-5.12,.84-.84,.56-1.49,1.3-2.05,2.23-1.12,1.77-3.08,4.94-3.25,9.78-.09,2.32-.19,5.03,1.49,7.54,.56,.74,1.58,2.23,3.45,2.71,2.05,.56,3.9-.46,4.47-.84,2.42-1.39,3.45-3.73,4.47-6.24,.46-1.21,1.86-4.94,1.39-9.6-.28-3.08-1.21-4.19-1.67-4.66-1.21-1.21-2.71-1.58-3.16-1.77h-.02Z"/><path class="cls-10" d="M330.18,295.37c-.28,.09-2.88,.65-4.29,2.97-.56,.93-.74,1.77-.84,2.88-.19,2.05-.56,5.77,1.3,10.25,.93,2.05,1.95,4.57,4.66,6.15,.84,.46,2.42,1.3,4.29,.93,2.14-.37,3.25-2.05,3.73-2.71,1.58-2.32,1.49-4.84,1.3-7.54-.09-1.3-.46-5.22-2.97-9.21-1.58-2.6-2.88-3.25-3.53-3.53-1.67-.56-3.08-.28-3.64-.19h-.01Z"/><path class="cls-10" d="M388.85,293.14c-.28-.09-2.88-.65-5.12,.93-.84,.65-1.39,1.39-1.95,2.32-1.02,1.86-2.97,5.03-2.97,9.86,0,2.32-.09,5.03,1.67,7.45,.56,.74,1.67,2.23,3.53,2.6,2.05,.46,3.82-.56,4.47-.93,2.42-1.39,3.36-3.82,4.29-6.33,.46-1.21,1.77-4.94,1.12-9.6-.37-3.08-1.3-4.19-1.77-4.66-1.3-1.21-2.79-1.58-3.25-1.67h0v.03Z"/><path class="cls-6" d="M388.19,296.12c-.19,0-2.14-.46-3.82,.74-.65,.46-1.02,1.02-1.49,1.67-.74,1.39-2.14,3.73-2.23,7.35,0,1.67-.09,3.73,1.3,5.59,.37,.56,1.21,1.67,2.6,1.95,1.58,.37,2.88-.46,3.36-.65,1.77-1.12,2.42-2.79,3.16-4.75,.37-.93,1.3-3.73,.84-7.17-.28-2.23-1.02-3.08-1.3-3.45-.93-1.02-2.05-1.3-2.42-1.3h0v.02Z"/><path class="cls-6" d="M372.55,281.97c-.19-.09-2.14-.46-3.82,.56-.65,.46-1.02,.93-1.49,1.67-.84,1.3-2.23,3.64-2.42,7.26-.09,1.67-.19,3.73,1.12,5.59,.37,.56,1.12,1.67,2.51,2.05,1.58,.37,2.88-.37,3.36-.56,1.77-1.02,2.51-2.71,3.25-4.57,.37-.93,1.39-3.64,1.02-7.08-.28-2.23-.93-3.08-1.21-3.45-.93-1.12-1.95-1.39-2.32-1.49h0v.02Z"/><path class="cls-6" d="M347.96,283.55c-.19,0-2.14,.28-3.36,1.86-.46,.65-.65,1.3-.84,2.05-.28,1.49-.84,4.19,.28,7.63,.56,1.58,1.12,3.53,2.97,4.84,.56,.37,1.67,1.12,3.08,1.02,1.58-.19,2.51-1.3,2.88-1.67,1.3-1.58,1.39-3.45,1.49-5.4,0-.93,0-3.9-1.58-6.98-1.02-2.05-1.95-2.6-2.32-2.79-1.12-.74-2.23-.65-2.6-.56h0Z"/><path class="cls-6" d="M330.83,298.08c-.19,0-2.23,.46-3.25,2.32-.46,.74-.56,1.39-.65,2.23-.19,1.58-.46,4.47,1.02,7.82,.65,1.58,1.49,3.53,3.53,4.66,.65,.37,1.86,1.02,3.25,.74,1.58-.28,2.51-1.58,2.79-2.05,1.21-1.77,1.12-3.73,1.02-5.77-.09-1.02-.37-4.01-2.23-7.08-1.21-2.05-2.23-2.51-2.71-2.71-1.3-.46-2.51-.19-2.79-.19v.03h.02Z"/><path class="cls-10" d="M359.98,303.01c-1.3,.09-2.71,.09-4.29,.93-1.77,.93-2.79,2.32-3.73,3.53-.84,1.12-.74,1.21-1.95,3.16-1.12,1.67-1.67,2.71-2.71,3.82-1.21,1.39-2.42,2.23-4.57,3.9-2.32,1.77-2.51,1.67-3.16,2.42-1.58,1.86-1.95,3.9-2.23,5.31-.19,1.3-.65,3.73,.37,6.52,.46,1.21,1.3,3.53,3.45,4.57,.84,.37,1.67,.46,3.73,.37,3.45-.19,5.77-.84,7.82-1.3,2.42-.56,4.94-1.12,8.1-1.21,3.82-.09,7.17,.56,8.93,.84,2.05,.37,3.53,.84,6.42,1.12,2.42,.28,3.64,.19,5.03-.28,.84-.28,2.32-.74,3.45-2.05,1.21-1.49,1.3-3.08,1.3-4.75,.09-1.12,.09-3.82-1.49-6.98-.65-1.39-1.21-2.05-3.36-4.66-5.77-7.17-6.05-8.01-8.38-9.97-1.39-1.21-2.79-2.42-4.94-3.45-1.12-.65-4.01-2.05-7.82-1.86h.04v.02Z"/><path class="cls-6" d="M360.26,305.43c-1.12,.09-2.32,.09-3.73,.84-1.49,.84-2.42,2.05-3.16,3.08-.74,.93-.65,1.02-1.67,2.79-.93,1.49-1.49,2.32-2.32,3.25-1.02,1.21-2.05,1.95-3.9,3.36-2.05,1.58-2.14,1.39-2.79,2.14-1.39,1.58-2.6,4.01-2.88,5.12-.19,1.12-.56,3.16,.28,5.59,.37,1.12,1.12,3.08,2.97,3.9,.74,.37,2.42-.09,4.1-.28,2.97-.19,5.03-.74,6.8-1.12,2.05-.46,4.29-.93,6.98-1.02,3.25-.09,6.15,.46,7.73,.74,1.77,.37,3.08,.74,5.5,.93,2.05,.19,4.57,1.02,5.68,.65,.74-.19,1.95-.74,2.97-1.95s.74-3.82,.84-5.31c.09-.93-.74-2.97-2.32-5.68-.74-1.3-1.12-1.77-2.88-4.01-4.94-6.15-5.22-6.89-7.17-8.56-1.21-1.02-2.42-2.05-4.29-2.97-.93-.46-3.45-1.67-6.7-1.49h-.04Z"/></g><g id="cityAny"><path class="cls-4" d="M268.95,161.01l-65.79-38.01V47.09L268.95,9.19l65.68,37.9V123l-65.68,38.01h0Z"/><path class="cls-15" d="M268.95,159.61l-64.6-37.25V47.85L268.95,10.6l64.49,37.25V122.25l-64.49,37.36h0Z"/><polygon class="cls-2" points="330 120.31 330 49.89 268.95 14.69 207.9 49.89 207.9 120.31 268.95 155.63 330 120.31"/><polygon class="cls-11" points="328.06 119.23 328.06 50.97 268.95 16.73 209.84 50.97 209.84 119.23 268.95 153.37 328.06 119.23"/><polygon class="cls-13" points="324.18 116.97 324.18 53.23 268.95 21.36 213.82 53.23 213.82 116.97 268.95 148.84 324.18 116.97"/><path class="cls-1" d="M329.57,118.37v-44.04h0c-40.38,6.03-80.86,6.03-121.35,0h0v44.04l60.62,34.99,60.73-34.99h0Z"/><g id="city-logo"><path class="cls-8" d="M226.63,92.85c0-22.61,18.95-40.81,42.21-40.81"/><path class="cls-8" d="M310.94,92.85c0-22.61-19.06-40.81-42.53-40.81"/><rect class="cls-2" x="225.99" y="90.16" width="85.71" height="5.38"/><rect class="cls-2" x="230.4" y="85.21" width="2.58" height="5.06"/><rect class="cls-2" x="231.69" y="81.23" width="1.18" height="4.09"/><rect class="cls-2" x="235.68" y="84.67" width="4.63" height="5.6"/><rect class="cls-2" x="235.68" y="78.1" width="2.37" height="6.57"/><rect class="cls-2" x="241.81" y="83.16" width="1.94" height="7"/><rect class="cls-2" x="243.75" y="69.17" width="2.26" height="21"/><rect class="cls-2" x="244.94" y="66.91" width="1.08" height="2.26"/><rect class="cls-2" x="246.01" y="85.21" width="3.66" height="5.06"/><rect class="cls-2" x="248.92" y="82.73" width=".75" height="2.58"/><rect class="cls-2" x="249.67" y="64.11" width="2.91" height="26.16"/><rect class="cls-2" x="252.58" y="68.84" width="1.51" height="21.43"/><rect class="cls-2" x="254.2" y="76.38" width="3.12" height="13.78"/><rect class="cls-2" x="257.32" y="79.29" width="1.94" height="11.09"/><rect class="cls-2" x="260.98" y="72.5" width="4.09" height="17.77"/><rect class="cls-2" x="265.18" y="79.5" width="2.05" height="10.66"/><rect class="cls-2" x="267.22" y="59.69" width="5.06" height="30.47"/><rect class="cls-2" x="274.65" y="66.48" width="2.58" height="23.69"/><rect class="cls-2" x="279.93" y="71.32" width="2.8" height="18.84"/><rect class="cls-2" x="277.13" y="83.92" width="2.8" height="6.24"/><rect class="cls-2" x="282.73" y="86.72" width="2.05" height="3.55"/><rect class="cls-2" x="287.25" y="84.89" width="1.83" height="5.28"/><rect class="cls-2" x="289.08" y="76.38" width="3.23" height="13.78"/><rect class="cls-2" x="292.1" y="70.03" width="2.37" height="20.13"/><rect class="cls-2" x="294.47" y="84.13" width="1.94" height="6.03"/><rect class="cls-2" x="297.48" y="80.47" width="2.48" height="9.69"/><rect class="cls-2" x="299.96" y="79.5" width="2.69" height="10.66"/><rect class="cls-2" x="304.48" y="85.43" width="1.18" height="4.95"/><rect class="cls-2" x="305.77" y="87.9" width="2.37" height="2.48"/></g></g></svg>