<?xml version="1.0" encoding="UTF-8"?><svg id="Layer" xmlns="http://www.w3.org/2000/svg" xmlns:xlink="http://www.w3.org/1999/xlink" viewBox="0 0 721 379.91"><defs><style>.cls-1{fill:url(#linear-gradient-2);}.cls-2{fill:url(#linear-gradient-6);}.cls-3{fill:#fff;opacity:0;stroke:#1d1d1b;}.cls-3,.cls-4{stroke-miterlimit:10;}.cls-4{fill:#020303;stroke:#030404;stroke-width:1.87px;}.cls-5{fill:url(#linear-gradient-5);}.cls-6{fill:#030304;}.cls-7{fill:url(#linear-gradient-3);}.cls-8{fill:#6a6a69;}.cls-9{fill:#f4e956;}.cls-10{fill:url(#linear-gradient);}.cls-11{fill:#010202;}.cls-12{fill:url(#linear-gradient-4);}</style><linearGradient id="linear-gradient" x1="450.48" y1="101.03" x2="450.48" y2="208.56" gradientTransform="translate(0 346.64) scale(1 -1)" gradientUnits="userSpaceOnUse"><stop offset=".16" stop-color="#823b14"/><stop offset=".18" stop-color="#995d1a"/><stop offset=".22" stop-color="#ae7d22"/><stop offset=".26" stop-color="#c39d25"/><stop offset=".3" stop-color="#d6b92e"/><stop offset=".35" stop-color="#e4cf36"/><stop offset=".41" stop-color="#efe036"/><stop offset=".48" stop-color="#f5e94d"/><stop offset=".58" stop-color="#f8eb53"/><stop offset=".86" stop-color="#f5ea52"/><stop offset="1" stop-color="#fcf4f9"/></linearGradient><linearGradient id="linear-gradient-2" x1="450.48" y1="214.24" x2="450.48" y2="49.94" gradientTransform="translate(0 346.64) scale(1 -1)" gradientUnits="userSpaceOnUse"><stop offset=".26" stop-color="#f5ea52"/><stop offset=".86" stop-color="#813a14"/></linearGradient><linearGradient id="linear-gradient-3" x1="450.53" y1="102.51" x2="450.53" y2="206.97" gradientTransform="translate(0 346.64) scale(1 -1)" gradientUnits="userSpaceOnUse"><stop offset=".16" stop-color="#813a14"/><stop offset=".17" stop-color="#8d481f"/><stop offset=".18" stop-color="#a36c3d"/><stop offset=".2" stop-color="#b78954"/><stop offset=".22" stop-color="#c7a468"/><stop offset=".24" stop-color="#d7bb7a"/><stop offset=".26" stop-color="#e2cc88"/><stop offset=".3" stop-color="#ead891"/><stop offset=".34" stop-color="#eede97"/><stop offset=".46" stop-color="#efe097"/><stop offset=".7" stop-color="#813a14"/><stop offset=".73" stop-color="#e6d234"/><stop offset=".74" stop-color="#ebda49"/><stop offset=".75" stop-color="#eede6d"/><stop offset=".77" stop-color="#f0e18a"/><stop offset=".79" stop-color="#f8ebab"/><stop offset=".8" stop-color="#f8edbf"/><stop offset=".83" stop-color="#faf0cf"/><stop offset=".85" stop-color="#fcf2da"/><stop offset=".89" stop-color="#fdf4e1"/><stop offset=".99" stop-color="#fdf5e3"/></linearGradient><linearGradient id="linear-gradient-4" x1="450.48" y1="191.62" x2="450.48" y2="30.46" gradientTransform="translate(0 346.64) scale(1 -1)" gradientUnits="userSpaceOnUse"><stop offset=".26" stop-color="#f5ea52"/><stop offset=".77" stop-color="#813a14"/></linearGradient><linearGradient id="linear-gradient-5" x1="267.93" y1="527.27" x2="267.93" y2="420.69" gradientTransform="translate(0 -282.18)" gradientUnits="userSpaceOnUse"><stop offset="0" stop-color="#030304"/><stop offset=".07" stop-color="#030404"/><stop offset=".11" stop-color="#070909"/><stop offset=".14" stop-color="#0f1113"/><stop offset=".16" stop-color="#1d1f21"/><stop offset=".19" stop-color="#2d2d2f"/><stop offset=".21" stop-color="#3f3e3c"/><stop offset=".4" stop-color="#595756"/><stop offset=".67" stop-color="#7b7a7a"/><stop offset=".88" stop-color="#929292"/><stop offset="1" stop-color="#9f9d9c"/></linearGradient><linearGradient id="linear-gradient-6" x1="267.82" y1="527.28" x2="267.82" y2="469.05" gradientTransform="translate(0 -282.18)" gradientUnits="userSpaceOnUse"><stop offset="0" stop-color="#070808"/><stop offset="1" stop-color="#292a29"/></linearGradient></defs><rect class="cls-3" x=".5" y=".5" width="720" height="378.91"/><g id="mln"><polygon id="obram_czarne" class="cls-4" points="410.69 134.79 393.47 152.11 393.47 231.59 410.69 248.91 490.28 248.91 507.38 231.59 507.38 152.11 490.28 134.79 410.69 134.79"/><polygon id="obram_zolte" class="cls-10" points="412.92 138.08 396.77 154.34 396.77 229.36 412.92 245.61 487.94 245.61 504.2 229.36 504.2 154.34 487.94 138.08 412.92 138.08"/><polygon id="tlo_wew" class="cls-1" points="414.09 139.67 398.25 155.51 398.25 228.29 414.09 244.02 486.88 244.02 502.71 228.29 502.71 155.51 486.88 139.67 414.09 139.67"/><path id="obram_skosne" class="cls-7" d="M495.16,212.04c-2.87,0-5.21-2.34-5.21-5.21v-29.75c0-2.87,2.34-5.21,5.21-5.21h7.44v-16.36l-15.73-15.83h-16.36v7.44c0,2.87-2.34,5.21-5.21,5.21h-29.75c-2.87,0-5.21-2.34-5.21-5.21v-7.44h-16.26l-15.83,15.83v16.36h7.44c2.87,0,5.21,2.34,5.21,5.21v29.75c0,2.87-2.34,5.21-5.21,5.21h-7.44v16.26l15.83,15.83h16.36v-7.44c0-2.87,2.34-5.21,5.21-5.21h29.75c2.87,0,5.21,2.34,5.21,5.21v7.44h16.36l15.83-15.83v-16.26h-7.65Z"/><path id="tlo_zew" class="cls-12" d="M494.85,213.74c-3.51,0-6.48-3.51-6.48-7.12v-29.54c0-3.51,2.87-7.12,6.48-7.12h6.06v-13.28l-15.3-15.2h-13.18v6.06c0,3.61-3.51,6.48-7.12,6.48h-29.65c-3.51,0-7.12-2.87-7.12-6.48v-6.06h-13.39l-15.09,15.2v13.28h6.06c3.51,0,6.48,3.51,6.48,7.12v29.65c0,3.51-2.87,7.12-6.48,7.12h-6.06v13.28l15.2,15.2h13.28v-6.06c0-3.51,3.51-6.48,7.12-6.48h29.54c3.51,0,7.12,2.87,7.12,6.48v6.06h13.28l15.2-15.2v-13.39h-5.95Z"/></g><path class="cls-11" d="M432.15,219.16v-8.61c3.29-4.36,6.38-7.97,9.46-10.63l4.46-3.93c3.19-2.76,5.84-5.53,7.86-8.29,2.02-2.76,3.08-5.63,3.08-8.61,0-2.66-.85-4.78-2.66-6.27s-4.14-2.23-7.12-2.23c-3.93,0-8.5,1.38-13.81,4.04v-7.97c5.53-2.02,10.84-3.08,15.94-3.08,5.63,0,10.31,1.38,13.81,4.04s5.21,6.38,5.21,10.94c0,2.87-.74,5.63-2.23,8.18s-4.57,5.74-9.24,9.46l-3.72,2.98c-1.59,1.28-3.4,2.98-5.31,4.99s-3.19,4.14-3.72,6.48h23.91v8.61l-35.92-.11h0Z"/><path d="M347.14,182.92v-11.79h11.9v11.9h-11.9v-.11Zm0,32.3v-11.9h11.9v11.9h-11.9Z"/><g id="tagSpace"><path class="cls-6" d="M325.25,191.95c0,31.67-25.72,57.49-57.49,57.49s-57.49-25.71-57.49-57.49,25.72-57.49,57.49-57.49,57.49,25.71,57.49,57.49h0Z"/><path class="cls-5" d="M321.11,191.95c0,29.33-23.8,53.13-53.13,53.13s-53.24-23.8-53.24-53.24,23.8-53.34,53.13-53.34c29.33,.11,53.24,23.91,53.24,53.45h0Z"/><path class="cls-8" d="M315.9,191.95c0,26.46-21.46,48.14-48.14,48.14s-48.03-21.57-48.03-48.14,21.46-48.14,48.14-48.14c26.67,0,48.03,21.46,48.03,48.14h0Z"/><path id="ciemniej" class="cls-2" d="M321.11,191.95c0-1.06,0-2.13-.11-3.19-10.73,2.98-29.22,6.8-53.13,6.8s-41.76-4.68-53.02-8.61c-.21,1.7-.32,3.29-.32,4.99,0,29.33,23.8,53.24,53.13,53.24s53.45-23.91,53.45-53.24h0Z"/><g id="gwiazda"><circle class="cls-9" cx="267.77" cy="191.95" r="7.86"/><path class="cls-9" d="M277.76,186.96l17.32-22.21-22.21,17.32c2.02,.96,3.83,2.66,4.89,4.89h0Z"/><path class="cls-9" d="M262.88,181.97l-22.21-17.32,17.32,22.21c.96-2.02,2.76-3.83,4.89-4.89h0Z"/><path class="cls-9" d="M306.23,191.95l-27.95-3.51c.32,1.06,.53,2.34,.53,3.51s-.21,2.44-.53,3.51l27.95-3.51Z"/><path class="cls-9" d="M271.38,181.43l-3.51-27.95-3.51,27.95c1.06-.32,2.34-.53,3.51-.53,1.28-.11,2.34,.21,3.51,.53Z"/><path class="cls-9" d="M272.76,201.73l22.21,17.32-17.32-22.21c-.96,2.13-2.66,3.83-4.89,4.89h0Z"/><path class="cls-9" d="M256.82,191.95c0-1.17,.21-2.44,.53-3.51l-27.95,3.51,27.95,3.51c-.32-1.17-.53-2.34-.53-3.51Z"/><path class="cls-9" d="M264.26,202.37l3.51,27.95,3.51-27.95c-1.06,.32-2.34,.53-3.51,.53s-2.23-.11-3.51-.53Z"/><path class="cls-9" d="M257.99,196.84l-17.32,22.21,22.21-17.32c-2.13-.96-3.83-2.76-4.89-4.89h0Z"/></g></g></svg>