<?xml version="1.0" encoding="UTF-8"?><svg id="Layer" xmlns="http://www.w3.org/2000/svg" xmlns:xlink="http://www.w3.org/1999/xlink" viewBox="0 0 721 379.91"><defs><style>.cls-1{fill:url(#linear-gradient-2);}.cls-2,.cls-3{fill:#030404;}.cls-4{fill:#20201e;}.cls-3{opacity:.15;}.cls-3,.cls-5{isolation:isolate;}.cls-6{opacity:0;stroke:#1d1d1b;}.cls-6,.cls-7{fill:#fff;stroke-miterlimit:10;}.cls-5{fill:url(#Nowy_wzorek_4);opacity:.1;}.cls-7{stroke:#030404;stroke-width:.93px;}.cls-8{fill:none;}.cls-9{fill:#80368c;}.cls-10{fill:url(#linear-gradient-3);}.cls-11{fill:url(#linear-gradient);}.cls-12{fill:url(#linear-gradient-4);}</style><linearGradient id="linear-gradient" x1="448.55" y1="-150.56" x2="272.45" y2="25.56" gradientTransform="translate(0 127.45) scale(1 -1)" gradientUnits="userSpaceOnUse"><stop offset="0" stop-color="#9f9d9c"/><stop offset=".54" stop-color="#020303"/><stop offset="1" stop-color="#9f9d9c"/></linearGradient><linearGradient id="linear-gradient-2" x1="360.57" y1="-145.38" x2="360.57" y2="20.35" gradientTransform="translate(0 127.45) scale(1 -1)" gradientUnits="userSpaceOnUse"><stop offset="0" stop-color="#472d1c"/><stop offset="1" stop-color="#b18047"/></linearGradient><linearGradient id="linear-gradient-3" x1="360.49" y1="-141.18" x2="360.49" y2="16.31" gradientTransform="translate(0 127.45) scale(1 -1)" gradientUnits="userSpaceOnUse"><stop offset="0" stop-color="#946137"/><stop offset="1" stop-color="#815228"/></linearGradient><pattern id="Nowy_wzorek_4" x="0" y="0" width="19.7" height="21.7" patternTransform="translate(43.4 -32285.17) scale(1 -1)" patternUnits="userSpaceOnUse" viewBox="0 0 19.7 21.7"><g><rect class="cls-8" width="19.7" height="21.7"/><g><rect class="cls-8" width="19.7" height="21.7"/><g><rect class="cls-8" width="19.7" height="21.7"/><g><rect class="cls-8" width="19.7" height="21.7"/><g><rect class="cls-8" width="19.7" height="21.7"/><g><rect class="cls-8" width="19.7" height="21.7"/><path class="cls-4" d="M16.6,13c2.1-2.1,2.1-5.6,0-7.7l-1.2-1.2c-2.1-2.1-5.6-2.1-7.8,0L3.1,8.7c-2.1,2.1-2.1,5.6,0,7.7l1.2,1.2c2.1,2.1,5.6,2.1,7.7,0l4.6-4.6Z"/></g></g></g></g></g></g></pattern><linearGradient id="linear-gradient-4" x1="-534.72" y1="-934.74" x2="-457.4" y2="-857.39" gradientTransform="translate(77.66 -794.43) rotate(-45) scale(1 -1)" gradientUnits="userSpaceOnUse"><stop offset="0" stop-color="#1d1527"/><stop offset=".24" stop-color="#372348"/><stop offset=".49" stop-color="#583c6c"/><stop offset=".71" stop-color="#73518d"/><stop offset=".89" stop-color="#835ca1"/><stop offset="1" stop-color="#8964a8"/></linearGradient></defs><rect class="cls-6" x=".5" y=".5" width="720" height="378.91"/><g id="prodBg"><rect id="external-border" class="cls-11" x="271.86" y="102.48" width="177.28" height="174.95"/><rect id="internal-border" class="cls-1" x="276.46" y="107.1" width="168.22" height="165.73"/><rect id="bg" class="cls-10" x="280.5" y="111.14" width="159.98" height="157.49"/><rect id="bgPattern" class="cls-5" x="280.5" y="111.14" width="159.98" height="157.49"/></g><g id="energy"><rect class="cls-2" x="302.49" y="131.94" width="116.03" height="116.03"/><rect class="cls-12" x="305.82" y="135.28" width="109.35" height="109.35"/><polygon class="cls-9" points="409.88 140.57 409.88 239.33 311.12 239.33 311.12 140.57 409.88 140.57"/><polygon class="cls-7" points="348.45 178.65 381.01 158.46 363.62 183.67 372.84 198.66 340.82 218.86 356.9 193.72 348.45 178.65"/><path id="darker" class="cls-3" d="M415.18,244.62h-109.35v-59.92s34.43,5.3,54.62,5.3,54.72-5.3,54.72-5.3v59.92h.01Z"/></g></svg>