<?xml version="1.0" encoding="utf-8"?>
<!-- Generator: Adobe Illustrator 26.3.1, SVG Export Plug-In . SVG Version: 6.00 Build 0)  -->
<svg version="1.1" id="industrialCenter" xmlns="http://www.w3.org/2000/svg" xmlns:xlink="http://www.w3.org/1999/xlink" x="0px"
	 y="0px" viewBox="0 0 124.7 124.7" style="enable-background:new 0 0 124.7 124.7;" xml:space="preserve">
<style type="text/css">
	.st0{fill:#977355;}
	.st1{fill:url(#SVGID_1_);stroke:#000000;stroke-width:0.75;stroke-miterlimit:10;}
	.st2{fill:#B78C6C;}
	.st3{opacity:0.15;enable-background:new    ;}
	.st4{fill:#D3D3D3;}
	.st5{fill:#9B9B9B;}
	.st6{fill:#1C1C1C;}
	.st7{fill:#91CBFD;}
	.st8{fill:#EA2B2B;}
</style>
<g id="industrialCenter_00000037654575842953514600000005480865362803569536_">
	<polygon points="115.8,93.2 115.8,31.5 62.4,0.7 8.9,31.5 8.9,93.2 62.4,124.1 	"/>
	<polygon class="st0" points="114.1,92.2 114.1,32.4 62.4,2.5 10.6,32.4 10.6,92.2 62.4,122.1 	"/>
	
		<linearGradient id="SVGID_1_" gradientUnits="userSpaceOnUse" x1="62.45" y1="135.1079" x2="62.45" y2="23.5079" gradientTransform="matrix(1 0 0 1 0 -17.0079)">
		<stop  offset="0" style="stop-color:#231C1B"/>
		<stop  offset="1" style="stop-color:#D3B39B"/>
	</linearGradient>
	<polygon class="st1" points="110.8,90.3 110.8,34.4 62.4,6.5 14.1,34.4 14.1,90.3 62.4,118.1 	"/>
	<polygon class="st2" points="107.3,88.3 107.3,36.4 62.4,10.6 17.6,36.4 17.6,88.3 62.4,114 	"/>
	<path class="st3" d="M115.5,91.4V52.9l0,0c-53.1,7.9-53.1,7.9-106.3,0l0,0v38.5l53.1,30.7L115.5,91.4z"/>
	<g>
		<rect x="44.5" y="37.9" class="st4" width="5" height="29.9"/>
		<rect x="55.1" y="37.6" class="st4" width="5" height="29.9"/>
		<path class="st4" d="M80.6,53.5H68c-1.6,0-3,1.3-3,3v25.4h18.6V56.5C83.6,54.9,82.3,53.5,80.6,53.5z"/>
		<polygon class="st5" points="52.4,62 39.7,68.6 39.7,81.9 52.4,81.9 		"/>
		<polygon class="st5" points="65,62 52.4,68.6 52.4,81.9 65,81.9 		"/>
		<rect x="43" y="76.9" class="st6" width="8.2" height="5"/>
		<rect x="54.2" y="76.9" class="st6" width="8.2" height="5"/>
		<rect x="69.5" y="75.7" class="st6" width="9.9" height="6.2"/>
		<rect x="67.9" y="56.2" class="st7" width="3.1" height="3.1"/>
		<rect x="72.9" y="56.2" class="st7" width="3.1" height="3.1"/>
		<rect x="77.8" y="56.2" class="st7" width="3.1" height="3.1"/>
		<rect x="68" y="61.3" class="st7" width="3.1" height="3.1"/>
		<rect x="72.9" y="61.3" class="st7" width="3.1" height="3.1"/>
		<rect x="77.9" y="61.3" class="st7" width="3.1" height="3.1"/>
		<rect x="67.9" y="66.2" class="st7" width="3.1" height="3.1"/>
		<rect x="72.9" y="66.2" class="st7" width="3.1" height="3.1"/>
		<rect x="77.9" y="66.2" class="st7" width="3.1" height="3.1"/>
		<rect x="55.1" y="37.6" class="st8" width="5" height="5"/>
		<rect x="55.1" y="47.6" class="st8" width="5" height="5"/>
		<rect x="55.1" y="56.6" class="st8" width="5" height="5"/>
		<rect x="44.5" y="37.6" class="st8" width="5" height="5"/>
		<rect x="44.5" y="47.6" class="st8" width="5" height="5"/>
		<rect x="44.5" y="56.6" class="st8" width="5" height="5"/>
	</g>
</g>
</svg>
