<?xml version="1.0" encoding="utf-8"?>
<!-- Generator: Adobe Illustrator 26.3.1, SVG Export Plug-In . SVG Version: 6.00 Build 0)  -->
<svg version="1.1" id="lavaFlows_00000019668840596937959550000011088230487079459223_"
	 xmlns="http://www.w3.org/2000/svg" xmlns:xlink="http://www.w3.org/1999/xlink" x="0px" y="0px" viewBox="0 0 124.7 124.7"
	 style="enable-background:new 0 0 124.7 124.7;" xml:space="preserve">
<style type="text/css">
	.st0{fill:#977355;}
	.st1{fill:url(#SVGID_1_);stroke:#000000;stroke-width:0.75;stroke-miterlimit:10;}
	.st2{fill:#B78C6C;}
	.st3{opacity:0.15;enable-background:new    ;}
	.st4{fill:#513564;}
	.st5{fill:#9B9B9B;}
	.st6{fill:#D3D3D3;}
	.st7{fill:#E6E6E6;}
	.st8{fill:#F4F4F4;}
	.st9{fill:#301B3F;}
	.st10{fill:#F36527;}
</style>
<g id="lavaFlows">
	<polygon points="115.8,93.2 115.8,31.5 62.4,0.7 8.9,31.5 8.9,93.2 62.4,124.1 	"/>
	<polygon class="st0" points="114.1,92.2 114.1,32.4 62.4,2.5 10.6,32.4 10.6,92.2 62.4,122.1 	"/>
	
		<linearGradient id="SVGID_1_" gradientUnits="userSpaceOnUse" x1="62.45" y1="135.1079" x2="62.45" y2="23.5079" gradientTransform="matrix(1 0 0 1 0 -17.0079)">
		<stop  offset="0" style="stop-color:#231C1B"/>
		<stop  offset="1" style="stop-color:#D3B39B"/>
	</linearGradient>
	<polygon class="st1" points="110.8,90.3 110.8,34.4 62.4,6.5 14.1,34.4 14.1,90.3 62.4,118.1 	"/>
	<polygon class="st2" points="107.3,88.3 107.3,36.4 62.4,10.6 17.6,36.4 17.6,88.3 62.4,114 	"/>
	<path class="st3" d="M115.5,91.4V52.9l0,0c-53.1,7.9-53.1,7.9-106.3,0l0,0v38.5l53.1,30.7L115.5,91.4z"/>
	<g>
		<path class="st4" d="M67.4,50.5h-10c-0.6,0-0.9,0.3-1.2,0.7c-0.4,0.7-0.8,1.5-1.2,2.2L42.7,80.7c0,1,0.8,1.8,1.8,1.8H81
			c1,0,1.8-0.8,1.8-1.8L69.2,52.4C68.6,51.2,68.4,50.5,67.4,50.5z"/>
		<ellipse transform="matrix(0.1072 -0.9942 0.9942 0.1072 12.6662 103.1281)" class="st5" cx="63.8" cy="44.5" rx="8.7" ry="5.3"/>
		<ellipse transform="matrix(0.4139 -0.9103 0.9103 0.4139 -2.1896 88.0936)" class="st6" cx="67.3" cy="45.7" rx="6.1" ry="3.7"/>
		<ellipse transform="matrix(0.9762 -0.2168 0.2168 0.9762 -8.2157 14.1307)" class="st6" cx="60.3" cy="44.5" rx="3.7" ry="6.1"/>
		<ellipse class="st7" cx="62.8" cy="45.8" rx="13.4" ry="4.1"/>
		<circle class="st8" cx="62.8" cy="46.3" r="5.6"/>
		<path class="st9" d="M74.6,74.1c-0.4-1.5-0.7-3.1-2-3.8c-1.1-0.6-2-0.1-3.8-0.9c-0.8-0.4-1.3-0.8-2.2-1.6c-2.1-1.8-3.3-3.6-3.6-4
			c-1.8-2.5-6.7-4.5-10.8-4.2l-9.5,21c0,1,0.8,1.8,1.8,1.8h33.8C77.7,80.9,75.9,78.7,74.6,74.1z"/>
		<path class="st10" d="M69.2,52.4c-0.7-1.2-0.8-1.8-1.8-1.8h-10c-0.6,0-0.9,0.3-1.2,0.7c-0.4,0.7-0.8,1.5-1.2,2.2L52.5,59
			c0.1,0.6,0.3,1.1,0.8,1.5c0.6,0.5,1.1,0.4,1.7,1.1c0.6,0.7,0.6,1.5,0.7,2c0.4,7.2,0.6,10.8,0.3,13.1c0,0.2-0.1,0.9,0.3,1.3
			c0.4,0.4,1.2,0.5,1.7,0.3c0.4-0.2,0.8-0.5,1.2-1.5c0.7-1.8,0.4-3.5,0.4-3.8c-1.2-7.7-1-8.9-0.3-9.6c0.4-0.4,1.2-0.8,1.8-0.7
			c0.8,0.2,1.2,1.2,1.3,1.6c0.4,0.9,0.1,1.2,0.5,2.3c0.2,0.7,0.5,1.4,1.1,1.6s1.3-0.1,1.7-0.5c0.4-0.4,0.4-1.2,0.4-2.8
			c0-1.2-0.1-1.5,0.1-2.1c0.1-0.2,0.5-1.2,1.2-1.3s1.3,0.6,1.6,0.9c0.7,0.8,0.5,1.2,1.2,1.7c0.1,0.1,0.8,0.6,1.6,0.4
			c0.9-0.2,1.3-1.2,1.5-1.7s0.3-1.1,0.3-1.6L69.2,52.4z"/>
	</g>
</g>
</svg>
