<?xml version="1.0" encoding="utf-8"?>
<!-- Generator: Adobe Illustrator 26.3.1, SVG Export Plug-In . SVG Version: 6.00 Build 0)  -->
<svg version="1.1" id="moholeArea" xmlns="http://www.w3.org/2000/svg" xmlns:xlink="http://www.w3.org/1999/xlink" x="0px" y="0px"
	 viewBox="0 0 124.7 124.7" style="enable-background:new 0 0 124.7 124.7;" xml:space="preserve">
<style type="text/css">
	.st0{fill:#977355;}
	.st1{fill:url(#SVGID_1_);stroke:#000000;stroke-width:0.75;stroke-miterlimit:10;}
	.st2{fill:#B78C6C;}
	.st3{opacity:0.15;enable-background:new    ;}
	.st4{fill:#473628;}
</style>
<g id="moholeArea_00000086658442103759470090000011997011634961561781_">
	<polygon points="115.8,93.2 115.8,31.5 62.4,0.7 8.9,31.5 8.9,93.2 62.4,124.1 	"/>
	<polygon class="st0" points="114.1,92.2 114.1,32.4 62.4,2.5 10.6,32.4 10.6,92.2 62.4,122.1 	"/>
	
		<linearGradient id="SVGID_1_" gradientUnits="userSpaceOnUse" x1="62.45" y1="135.1079" x2="62.45" y2="23.5079" gradientTransform="matrix(1 0 0 1 0 -17.0079)">
		<stop  offset="0" style="stop-color:#231C1B"/>
		<stop  offset="1" style="stop-color:#D3B39B"/>
	</linearGradient>
	<polygon class="st1" points="110.8,90.3 110.8,34.4 62.4,6.5 14.1,34.4 14.1,90.3 62.4,118.1 	"/>
	<polygon class="st2" points="107.3,88.3 107.3,36.4 62.4,10.6 17.6,36.4 17.6,88.3 62.4,114 	"/>
	<path class="st3" d="M115.5,91.4V52.9l0,0c-53.1,7.9-53.1,7.9-106.3,0l0,0v38.5l53.1,30.7L115.5,91.4z"/>
	<g>
		<ellipse class="st4" cx="62.5" cy="77.1" rx="30.5" ry="13.2"/>
		<ellipse class="st2" cx="62.5" cy="77.1" rx="21.1" ry="6.2"/>
		<ellipse class="st4" cx="62.5" cy="77.1" rx="19.8" ry="5.1"/>
		<path class="st4" d="M59,35.3c-0.9,0.8-0.9,1.8-0.9,2c0,1,0.5,1.7,1.3,2.8c0.9,1.3,1.3,1.2,1.7,2.1c0.5,1.1,0.4,2.1,0.4,2.8
			c-0.1,1.7-0.9,2.8-1.6,4c-1.4,2.1-2,2-2.9,3.8c-0.6,1.2-0.7,2.2-0.9,3.3c-0.2,1.5-0.5,3.1,0,5.1c0.2,0.9,0.6,2.3,1.8,3.6
			c2.1,2.1,4.9,2,5.3,2c1.5-0.1,3.6-0.8,3.7-1.7c0-0.4-0.3-0.6-1.5-2c-1-1.2-1.5-1.8-1.7-2.5c-0.4-1.2,0-2.4,0.1-2.9
			c0.4-1.3,1.1-1.8,2.6-3.7c1.6-1.9,2.4-2.8,2.8-3.8c0.9-2.1,0.7-4.1,0.5-5.1c-0.1-0.8-0.4-2.9-1.8-5.1c-1.2-1.9-2.5-2.9-3.4-3.6
			c-2.1-1.6-3.3-1.6-3.6-1.6C60.5,34.7,59.7,34.7,59,35.3z"/>
		<path class="st4" d="M72.3,48c-0.6,0.5-0.8,1.3-0.8,1.5c-0.2,1.1,0.4,1.5,0.8,3.3c0.2,0.9,0.3,1.5,0.1,2.2
			c-0.2,1.1-0.8,1.4-1.6,2.6c-0.4,0.7-0.9,1.5-1.1,2.6c-0.1,0.4-0.3,1.5,0.1,2.8c0.7,2.3,2.8,3.4,3.2,3.6c1.4,0.7,2.7,0.7,3.6,0.7
			c1.2,0,1.4-0.3,1.5-0.4c0.3-0.5-0.4-1.2-0.9-2.9c-0.3-1-0.5-1.6-0.4-2.4c0.1-1.1,0.7-1.4,1.7-3c0.9-1.4,1.3-2.1,1.5-2.9
			c0.4-1.9-0.6-3.6-1.2-4.7c-0.7-1.2-1.3-2.4-2.8-3C75.8,47.8,73.6,46.9,72.3,48z"/>
		<path class="st4" d="M46.8,47.7c-0.8,0.7-0.8,2-0.8,2.1c0,0.9,0.5,1.2,1.1,2.5c0.3,0.9,0.7,1.7,0.5,2.6c-0.2,1.4-1.4,1.6-2.2,3.3
			c-0.6,1.1-0.6,2.1-0.7,3.3c-0.1,1.7,0.3,3.3,1.3,5.9c1.6,4.1,2.6,6.5,4.9,8.8c1.2,1.2,2.5,2,5.1,3.6c4.8,2.8,7.2,4.3,10.7,5.3
			c3.6,1,8.9,2.6,12.8-0.1c0.4-0.3,3-2.3,2.9-4.9s-0.1-2.2-0.1-3c0-1.7-7.4-2-11.3-1.8c-5.4,0.2-8.2,0.3-9.6-0.3
			c-1.1-0.4-2.8-2.1-6.1-5.5c-3.2-3.3-4.1-4.7-4.1-6.5c0-0.5,0.3-1.5,0.8-2.5c0.6-1.2,1-1.4,1.6-2.5c0.2-0.4,0.7-1.5,0.8-2.8
			c0-0.5,0.2-2.4-0.9-4.4c-0.2-0.3-1.4-2.4-3.8-3.2C48.9,47.5,47.7,47.1,46.8,47.7z"/>
	</g>
</g>
</svg>
