<?xml version="1.0" encoding="utf-8"?>
<!-- Generator: Adobe Illustrator 26.3.1, SVG Export Plug-In . SVG Version: 6.00 Build 0)  -->
<svg version="1.1" id="restrictedArea" xmlns="http://www.w3.org/2000/svg" xmlns:xlink="http://www.w3.org/1999/xlink" x="0px"
	 y="0px" viewBox="0 0 124.7 124.7" style="enable-background:new 0 0 124.7 124.7;" xml:space="preserve">
<style type="text/css">
	.st0{fill:#977355;}
	.st1{fill:url(#SVGID_1_);stroke:#000000;stroke-width:0.75;stroke-miterlimit:10;}
	.st2{fill:#B78C6C;}
	.st3{opacity:0.15;enable-background:new    ;}
	.st4{fill:none;stroke:#473628;stroke-width:5;stroke-miterlimit:10;}
</style>
<g id="restrictedArea_00000005237912210714029040000013777581104038433698_">
	<polygon points="115.8,93.2 115.8,31.5 62.4,0.7 8.9,31.5 8.9,93.2 62.4,124.1 	"/>
	<polygon class="st0" points="114.1,92.2 114.1,32.4 62.4,2.5 10.6,32.4 10.6,92.2 62.4,122.1 	"/>
	
		<linearGradient id="SVGID_1_" gradientUnits="userSpaceOnUse" x1="62.45" y1="135.1079" x2="62.45" y2="23.5079" gradientTransform="matrix(1 0 0 1 0 -17.0079)">
		<stop  offset="0" style="stop-color:#231C1B"/>
		<stop  offset="1" style="stop-color:#D3B39B"/>
	</linearGradient>
	<polygon class="st1" points="110.8,90.3 110.8,34.4 62.4,6.5 14.1,34.4 14.1,90.3 62.4,118.1 	"/>
	<polygon class="st2" points="107.3,88.3 107.3,36.4 62.4,10.6 17.6,36.4 17.6,88.3 62.4,114 	"/>
	<path class="st3" d="M115.5,91.4V57.2l0,0c-53.1,7.9-53.1,7.9-106.3,0v-4.3v38.5l53.1,30.7L115.5,91.4z"/>
	<g>
		<circle class="st4" cx="62.4" cy="59.3" r="25.9"/>
		<line class="st4" x1="44.3" y1="40.8" x2="80.8" y2="77.6"/>
	</g>
</g>
</svg>
