<?xml version="1.0" encoding="utf-8"?>
<!-- Generator: Adobe Illustrator 26.3.1, SVG Export Plug-In . SVG Version: 6.00 Build 0)  -->
<svg version="1.1" id="city" xmlns="http://www.w3.org/2000/svg" xmlns:xlink="http://www.w3.org/1999/xlink" x="0px" y="0px"
	 viewBox="0 0 124.7 124.7" style="enable-background:new 0 0 124.7 124.7;" xml:space="preserve">
<style type="text/css">
	.st0{fill:url(#SVGID_1_);}
	.st1{fill:#FFFFFF;}
	.st2{fill:none;stroke:#242424;stroke-width:0.875;stroke-miterlimit:10;}
	.st3{fill:#242424;}
	.st4{opacity:0.19;enable-background:new    ;}
</style>
<g id="cityCapital">
	<polygon points="115.8,93.2 115.8,31.5 62.4,0.7 8.9,31.5 8.9,93.2 62.4,124.1 	"/>
	
		<linearGradient id="SVGID_1_" gradientUnits="userSpaceOnUse" x1="62.35" y1="139.1079" x2="62.35" y2="19.5079" gradientTransform="matrix(1 0 0 1 0 -17.0079)">
		<stop  offset="0" style="stop-color:#424242"/>
		<stop  offset="1" style="stop-color:#FFFFFF"/>
	</linearGradient>
	<polygon class="st0" points="114.1,92.2 114.1,32.4 62.4,2.5 10.6,32.4 10.6,92.2 62.4,122.1 	"/>
	<polygon class="st1" points="110.8,90.3 110.8,34.4 62.4,6.5 14.1,34.4 14.1,90.3 62.4,118.1 	"/>
	<g id="city-logo">
		<path class="st2" d="M25.4,69.1c0-19.8,16.6-35.7,36.9-35.7"/>
		<path class="st2" d="M99.1,69.1c0-19.8-16.7-35.7-37.3-35.7"/>
		<rect x="24.7" y="66.8" class="st3" width="75.1" height="4.7"/>
		<rect x="28.6" y="62.4" class="st3" width="2.3" height="4.4"/>
		<rect x="29.8" y="58.9" class="st3" width="1.1" height="3.6"/>
		<rect x="33.2" y="61.9" class="st3" width="4.1" height="5"/>
		<rect x="33.2" y="56.2" class="st3" width="2" height="5.7"/>
		<rect x="38.6" y="60.6" class="st3" width="1.7" height="6.1"/>
		<rect x="40.3" y="48.4" class="st3" width="1.9" height="18.4"/>
		<rect x="41.3" y="46.4" class="st3" width="1" height="1.9"/>
		<rect x="42.3" y="62.4" class="st3" width="3.2" height="4.4"/>
		<rect x="44.9" y="60.2" class="st3" width="0.6" height="2.3"/>
		<rect x="45.5" y="43.9" class="st3" width="2.6" height="22.9"/>
		<rect x="48.1" y="48" class="st3" width="1.3" height="18.7"/>
		<rect x="49.5" y="54.7" class="st3" width="2.7" height="12.1"/>
		<rect x="52.2" y="57.2" class="st3" width="1.7" height="9.7"/>
		<rect x="55.4" y="51.3" class="st3" width="3.6" height="15.5"/>
		<rect x="59.1" y="57.4" class="st3" width="1.8" height="9.4"/>
		<rect x="60.9" y="40.1" class="st3" width="4.4" height="26.7"/>
		<rect x="67.4" y="46" class="st3" width="2.3" height="20.8"/>
		<rect x="72" y="50.3" class="st3" width="2.5" height="16.5"/>
		<rect x="69.5" y="61.3" class="st3" width="2.5" height="5.5"/>
		<rect x="74.5" y="63.8" class="st3" width="1.8" height="3.1"/>
		<rect x="78.4" y="62.3" class="st3" width="1.6" height="4.6"/>
		<rect x="80" y="54.7" class="st3" width="2.8" height="12.1"/>
		<rect x="82.7" y="49.1" class="st3" width="2" height="17.7"/>
		<rect x="84.7" y="61.5" class="st3" width="1.7" height="5.3"/>
		<rect x="87.4" y="58.3" class="st3" width="2.2" height="8.5"/>
		<rect x="89.6" y="57.4" class="st3" width="2.4" height="9.4"/>
		<rect x="93.5" y="62.6" class="st3" width="1.1" height="4.3"/>
		<rect x="94.6" y="64.7" class="st3" width="2" height="2.2"/>
	</g>
	<path class="st4" d="M115.5,91.4V52.9l0,0c-53.1,7.9-53.1,7.9-106.3,0l0,0v38.5l53.1,30.7L115.5,91.4z"/>
</g>
</svg>
