<?xml version="1.0" encoding="utf-8"?>
<!-- Generator: Adobe Illustrator 26.3.1, SVG Export Plug-In . SVG Version: 6.00 Build 0)  -->
<svg version="1.1" id="commercialDistrict" xmlns="http://www.w3.org/2000/svg" xmlns:xlink="http://www.w3.org/1999/xlink" x="0px"
	 y="0px" viewBox="0 0 106.9 123.4" style="enable-background:new 0 0 106.9 123.4;" xml:space="preserve">
<style type="text/css">
	.st0{fill:#977355;}
	.st1{fill:url(#SVGID_1_);stroke:#000000;stroke-width:0.75;stroke-miterlimit:10;}
	.st2{fill:#B78C6C;}
	.st3{opacity:0.15;enable-background:new    ;}
	.st4{fill:#473628;}
</style>
<g id="commercialDistrict_00000039111201939825107880000008827846640291402124_">
	<polygon points="106.9,92.5 106.9,30.8 53.5,0 0,30.8 0,92.5 53.5,123.4 	"/>
	<polygon class="st0" points="105.2,91.5 105.2,31.7 53.5,1.8 1.7,31.7 1.7,91.5 53.5,121.4 	"/>
	
		<linearGradient id="SVGID_1_" gradientUnits="userSpaceOnUse" x1="53.55" y1="-10.6777" x2="53.55" y2="100.9223" gradientTransform="matrix(1 0 0 -1 0 106.7223)">
		<stop  offset="0" style="stop-color:#231C1B"/>
		<stop  offset="1" style="stop-color:#D3B39B"/>
	</linearGradient>
	<polygon class="st1" points="101.9,89.6 101.9,33.7 53.5,5.8 5.2,33.7 5.2,89.6 53.5,117.4 	"/>
	<polygon class="st2" points="98.4,87.6 98.4,35.7 53.5,9.9 8.7,35.7 8.7,87.6 53.5,113.3 	"/>
	<path class="st3" d="M106.6,90.7V52.2l0,0c-35.4,5.3-70.8,5.3-106.3,0h0v38.5l53.1,30.7L106.6,90.7z"/>
	<g>
		<path class="st4" d="M46.3,69v0.2c1,3.4,2.7,6,5.2,7.8s5.5,2.7,9,2.7c4.1,0,8.2-1.3,12.2-3.8v7.8c-4.2,2.2-9,3.3-14.6,3.3
			c-2.1,0-4-0.2-5.9-0.5s-3.6-0.8-5.1-1.5c-1.6-0.7-3-1.5-4.3-2.6c-1.3-1-2.5-2.2-3.5-3.5s-2-3-3-5.1c-1-2.1-1.4-3.6-1.4-4.6V69
			h-4.9l1.3-6.4h2.7c0-0.4-0.1-1-0.1-1.8l0.1-2.3v-0.2h-4.1l1.3-6.4h3.7v-0.2c1.5-6.1,4.2-10.6,8.1-13.5s8.9-4.4,15.2-4.4
			c5.1,0,9.8,0.7,14,2v8.2c-5.1-2.2-9.5-3.3-13.1-3.3c-6.8,0-11.1,3.7-12.9,11.1h20.7l-1.3,6.4H45.1v0.2c0,0.4-0.1,1.1-0.1,2
			l0.1,1.9v0.2h19.7L63.5,69L46.3,69L46.3,69z"/>
	</g>
</g>
</svg>
