<?xml version="1.0" encoding="utf-8"?>
<!-- Generator: Adobe Illustrator 26.3.1, SVG Export Plug-In . SVG Version: 6.00 Build 0)  -->
<svg version="1.1" id="greenery" xmlns="http://www.w3.org/2000/svg" xmlns:xlink="http://www.w3.org/1999/xlink" x="0px" y="0px"
	 viewBox="0 0 124.7 124.7" style="enable-background:new 0 0 124.7 124.7;" xml:space="preserve">
<style type="text/css">
	.st0{fill:#020203;}
	.st1{fill:url(#SVGID_1_);}
	.st2{fill:#66AB5F;}
	.st3{fill:#252920;}
</style>
<g id="greeneryNeutral">
	<polygon class="st0" points="62.7,123.9 9.4,93.1 9.4,31.6 62.7,0.8 116,31.6 116,93.1 	"/>
	
		<linearGradient id="SVGID_1_" gradientUnits="userSpaceOnUse" x1="62.7" y1="4.6323" x2="62.7" y2="122.1323" gradientTransform="matrix(1 0 0 -1 0 125.7323)">
		<stop  offset="0" style="stop-color:#064525"/>
		<stop  offset="0.1498" style="stop-color:#4D8E68"/>
		<stop  offset="0.6222" style="stop-color:#88C591"/>
		<stop  offset="0.7271" style="stop-color:#ABD3A4"/>
		<stop  offset="0.8321" style="stop-color:#C4DEB3"/>
		<stop  offset="0.9263" style="stop-color:#D2E5BC"/>
		<stop  offset="1" style="stop-color:#D7E7BF"/>
	</linearGradient>
	<polygon class="st1" points="62.7,121.1 11.8,91.7 11.8,33 62.7,3.6 113.6,33 113.6,91.7 	"/>
	<polygon class="st2" points="62.7,116.9 15.5,89.6 15.5,35.1 62.7,7.8 109.9,35.1 109.9,89.6 	"/>
	<path class="st3" d="M70.2,98.3c-0.5,0.5-11.1-0.6-12.8,0c-0.9,0.9,1.4-3,1.4-5.1s0-38,0-38h7.9c0,0,0,36.5,0,38.6
		S70.7,97.8,70.2,98.3z"/>
	<path class="st3" d="M67.3,39.9c6,7.2,7,16.4,2.1,20.5S55.7,62,49.6,54.8c-6-7.2-7-16.4-2.1-20.5C52.4,30.2,61.3,32.7,67.3,39.9z"
		/>
	<path class="st3" d="M61.3,54.2c0,5.4-6.2,9.7-13.9,9.7s-13.9-4.3-13.9-9.7s6.2-9.7,13.9-9.7C55,44.5,61.3,48.8,61.3,54.2z"/>
	<path class="st3" d="M84.7,41.5c2,9.5-1.8,18.4-8.5,19.8s-13.8-5.1-15.8-14.6s1.8-18.4,8.5-19.8C75.6,25.4,82.7,32,84.7,41.5z"/>
	<path class="st3" d="M88.9,57c-1.3,4.4-7.5,6.5-14,4.7c-6.5-1.9-10.7-6.9-9.4-11.4c1.3-4.4,7.5-6.5,14-4.7
		C86,47.5,90.2,52.6,88.9,57z"/>
	<path class="st3" d="M83.4,61.6c-0.1,1-4.8,1.4-10.6,1c-5.8-0.4-10.5-1.5-10.4-2.5s4.8-1.4,10.6-1C78.8,59.5,83.5,60.6,83.4,61.6z"
		/>
</g>
</svg>
