<?xml version="1.0" encoding="utf-8"?>
<!-- Generator: Adobe Illustrator 26.3.1, SVG Export Plug-In . SVG Version: 6.00 Build 0)  -->
<svg version="1.1" id="Layer" xmlns="http://www.w3.org/2000/svg" xmlns:xlink="http://www.w3.org/1999/xlink" x="0px" y="0px"
	 viewBox="0 0 878.7 141.7" style="enable-background:new 0 0 878.7 141.7;" xml:space="preserve">
<style type="text/css">
	.st0{fill:#FFFFFF;fill-opacity:0;}
	.st1{fill:#FFFFFF;}
	.st2{fill:#030304;}
	.st3{fill:url(#SVGID_1_);}
	.st4{fill:#96C227;}
	.st5{fill:#3D4920;}
	.st6{opacity:0.12;fill:#030304;enable-background:new    ;}
	.st7{fill:url(#SVGID_00000059996311883253795590000009484113367452565404_);}
	.st8{opacity:0.5;fill:#E03D15;enable-background:new    ;}
	.st9{fill:url(#SVGID_00000159470348155592194290000001451400585053413273_);}
	.st10{fill:#CD141B;}
	.st11{fill:none;stroke:#010202;stroke-width:1.73;stroke-miterlimit:10;}
	.st12{fill:url(#SVGID_00000045615298658558029470000002475290300246164637_);}
	.st13{fill:#48AD38;}
	.st14{fill:#0B572A;stroke:#1D4422;stroke-width:3.46;stroke-miterlimit:10;}
	.st15{opacity:5.000000e-02;fill:#030304;enable-background:new    ;}
	.st16{fill:url(#SVGID_00000172421801608498354210000009318013365358211715_);}
</style>
<rect y="0" class="st0" width="878.7" height="141.7"/>
<path class="st1" d="M841.8,29.4l-9.7-1.2l2.2-6.9l8.5,4.7c-0.7,0.8-1.1,1.7-1.1,2.7C841.8,28.8,841.8,29.1,841.8,29.4L841.8,29.4
	L841.8,29.4z M844.9,32l-4.2,8.9l-5.8-4.2L842,30C842.7,31.1,843.6,31.8,844.9,32L844.9,32z M841.6,16h7.2l-1.8,9.6
	c-0.6-0.3-1.2-0.4-1.8-0.4s-1.2,0.1-1.7,0.4L841.6,16L841.6,16L841.6,16z M848.4,30l7.1,6.7l-5.8,4.2l-4.1-8.9
	C846.8,31.8,847.7,31.1,848.4,30z M847.5,26l8.6-4.7l2.2,6.9l-9.7,1.2c0-0.3,0.1-0.5,0.1-0.7C848.6,27.7,848.3,26.8,847.5,26
	L847.5,26z"/>
<g id="microbe">
	<rect x="708.1" y="16.1" class="st2" width="108" height="108"/>
	
		<linearGradient id="SVGID_1_" gradientUnits="userSpaceOnUse" x1="-224.7963" y1="1424.5916" x2="-152.8553" y2="1352.6406" gradientTransform="matrix(0.7071 -0.7071 0.7071 0.7071 -86.2699 -1045.3599)">
		<stop  offset="0" style="stop-color:#3D4920"/>
		<stop  offset="0.14" style="stop-color:#4B5E24"/>
		<stop  offset="0.42" style="stop-color:#69852B"/>
		<stop  offset="0.66" style="stop-color:#81A42C"/>
		<stop  offset="0.86" style="stop-color:#8FB923"/>
		<stop  offset="1" style="stop-color:#96C227"/>
	</linearGradient>
	<rect x="711.2" y="19.2" class="st3" width="101.7" height="101.7"/>
	<rect x="716.2" y="24.1" class="st4" width="91.9" height="91.9"/>
	<g id="microbes">
		<polygon class="st5" points="763.3,79.3 759,79.8 759.5,84.1 755.2,83.4 754.5,87.8 750.6,85.8 748.7,89.7 745.5,86.6 742.6,89.8 
			740.4,86 736.6,88.1 735.7,83.9 731.5,84.8 731.8,80.5 727.5,80.1 729.2,76.1 725.2,74.4 728,71.1 724.6,68.3 728.2,65.9 
			725.8,62.3 729.9,61.1 728.7,56.8 733.1,56.9 733.1,52.6 737.3,53.9 738.6,49.8 742.2,52.3 744.7,48.7 747.3,52.2 750.7,49.5 
			752.3,53.6 756.3,52.1 756.6,56.4 760.9,56.2 759.9,60.4 764.1,61.3 761.9,65.1 765.7,67.3 762.4,70.3 765.3,73.5 761.4,75.3 		
			"/>
		<polygon class="st5" points="800.6,61.9 799.1,62.4 799.1,64.4 796.9,63.7 795.5,65 793.2,63.5 791,64.1 784.7,65 782,64.7 
			779.2,59.5 776.1,58.5 773.6,55.8 770.5,54.3 768.2,51.5 765.3,50.2 763.6,47 761.2,44.9 760.2,42.5 758.5,40.6 758.3,38.6 
			756.9,36.8 758.1,35.5 758.2,33.7 759.5,33.7 760.7,32.3 762.5,33.1 765.4,30.4 767.7,32 770.3,32.2 772.9,34.1 775.9,35 
			777.6,39.2 780.8,40.5 783.1,43.3 786.2,45 788.1,47.7 791.1,49.7 795.9,52.3 798.3,54.5 798.6,56.4 800.2,58.3 799.7,60 		"/>
		<polygon class="st5" points="795.8,82.6 796.1,83.1 796.7,84.4 795.5,85.2 795.6,86.6 792.6,87.8 791.4,89.7 787.8,93.2 
			783.7,95.1 778.3,96.7 775.1,98.7 770.8,99.6 767.2,101.4 762.9,102.1 759.5,103.8 755.5,104 751.8,105.1 749,105 746,105.7 
			744.1,105.2 741.5,105.6 741.3,104.3 740.5,104 740.7,102.7 740.5,101.4 742.5,100.3 742.3,97.2 745.5,96.1 747.6,94.3 
			751.2,93.1 755.5,91.9 759.3,91.3 762.9,89.2 767.1,88.5 771,86.9 774.8,86.3 778.8,84.8 784.8,82.1 788.6,81.2 790.5,81.5 
			793.3,81 794.4,81.9 		"/>
	</g>
	<path id="darker" class="st6" d="M813,120.9H711.2V65.2c0,0,32,4.9,50.8,4.9s50.9-4.9,50.9-4.9S813,120.9,813,120.9z"/>
</g>
<g id="microbe-2">
	<rect x="578.1" y="16.1" class="st2" width="108" height="108"/>
	
		<linearGradient id="SVGID_00000011011587005835837370000013849062856730188694_" gradientUnits="userSpaceOnUse" x1="-316.7202" y1="1332.6628" x2="-244.7792" y2="1260.7217" gradientTransform="matrix(0.7071 -0.7071 0.7071 0.7071 -86.2699 -1045.3599)">
		<stop  offset="0" style="stop-color:#3D4920"/>
		<stop  offset="0.14" style="stop-color:#4B5E24"/>
		<stop  offset="0.42" style="stop-color:#69852B"/>
		<stop  offset="0.66" style="stop-color:#81A42C"/>
		<stop  offset="0.86" style="stop-color:#8FB923"/>
		<stop  offset="1" style="stop-color:#96C227"/>
	</linearGradient>
	
		<rect x="581.2" y="19.2" style="fill:url(#SVGID_00000011011587005835837370000013849062856730188694_);" width="101.7" height="101.7"/>
	<rect x="586.2" y="24.1" class="st4" width="91.9" height="91.9"/>
	<g id="microbes-2">
		<polygon class="st5" points="633.3,79.3 628.9,79.8 629.5,84.1 625.2,83.4 624.5,87.8 620.6,85.8 618.7,89.7 615.5,86.6 
			612.6,89.8 610.4,86 606.6,88.1 605.7,83.9 601.5,84.8 601.8,80.5 597.5,80.1 599.2,76.1 595.2,74.4 598,71.1 594.6,68.3 
			598.2,65.9 595.8,62.3 599.9,61.1 598.7,56.8 603.1,56.9 603.1,52.6 607.3,53.9 608.6,49.8 612.2,52.3 614.7,48.7 617.3,52.2 
			620.7,49.5 622.3,53.6 626.3,52.1 626.6,56.4 630.9,56.2 629.9,60.4 634.1,61.3 631.9,65.1 635.7,67.3 632.4,70.3 635.3,73.5 
			631.4,75.3 		"/>
		<polygon class="st5" points="670.6,61.9 669.1,62.4 669.1,64.4 666.9,63.7 665.5,65 663.2,63.5 661,64.1 654.7,65 652,64.7 
			649.2,59.5 646.1,58.5 643.6,55.8 640.5,54.3 638.2,51.5 635.3,50.2 633.6,47 631.2,44.9 630.2,42.5 628.5,40.6 628.3,38.6 
			626.9,36.8 628.1,35.5 628.2,33.7 629.5,33.7 630.7,32.3 632.5,33.1 635.4,30.4 637.7,32 640.3,32.2 642.9,34.1 645.9,35 
			647.6,39.2 650.8,40.5 653.1,43.3 656.2,45 658.1,47.7 661.1,49.7 665.9,52.3 668.3,54.5 668.6,56.4 670.2,58.3 669.7,60 		"/>
		<polygon class="st5" points="665.7,82.6 666.1,83.1 666.7,84.4 665.5,85.2 665.6,86.6 662.6,87.8 661.4,89.7 657.8,93.2 
			653.7,95.1 648.3,96.7 645.1,98.7 640.8,99.6 637.2,101.4 632.9,102.1 629.5,103.8 625.5,104 621.8,105.1 619,105 616,105.7 
			614.1,105.2 611.5,105.6 611.3,104.3 610.5,104 610.7,102.7 610.5,101.4 612.5,100.3 612.3,97.2 615.5,96.1 617.6,94.3 
			621.2,93.1 625.5,91.9 629.3,91.3 632.9,89.2 637.1,88.5 641,86.9 644.8,86.3 648.8,84.8 654.8,82.1 658.6,81.2 660.5,81.5 
			663.3,81 664.4,81.9 		"/>
	</g>
	<path id="darker-2" class="st6" d="M683,120.9H581.2V65.2c0,0,32,4.9,50.8,4.9s50.9-4.9,50.9-4.9S683,120.9,683,120.9z"/>
</g>
<g id="arrow">
	<path class="st8" d="M547.4,70.1l-53-24.5l6.4,12.7h-59.8c0,0-1.8,5.7-1.8,11.3s1.8,10,1.8,10H502l-7.5,15L547.4,70.1L547.4,70.1
		L547.4,70.1z"/>
	
		<linearGradient id="SVGID_00000142159041108540107080000008510513589853803438_" gradientUnits="userSpaceOnUse" x1="491.855" y1="89.4723" x2="491.855" y2="49.5923" gradientTransform="matrix(1 0 0 1 0 0.5377)">
		<stop  offset="0" style="stop-color:#542913"/>
		<stop  offset="0.45" style="stop-color:#542913;stop-opacity:0.7"/>
		<stop  offset="0.58" style="stop-color:#E03D15;stop-opacity:0.5"/>
		<stop  offset="1" style="stop-color:#E03D15;stop-opacity:0.5"/>
	</linearGradient>
	<path style="fill:url(#SVGID_00000142159041108540107080000008510513589853803438_);" d="M505.5,77.4h-62.8
		c-0.5-1.6-1.2-4.6-1.2-7.9c0-3.5,0.8-7.1,1.3-9.1h61.6l-5.2-10.3l43.1,19.9L499.1,90L505.5,77.4L505.5,77.4L505.5,77.4z"/>
	<path class="st10" d="M510.1,74.6h-65.3c-0.3-1.4-0.5-3.1-0.5-5c0-2.2,0.4-4.4,0.7-6.2h64l-3.6-7.2l30.1,13.9L505.4,84L510.1,74.6
		L510.1,74.6L510.1,74.6z"/>
	<path class="st11" d="M505.5,77.4h-62.8c-0.5-1.6-1.2-4.6-1.2-7.9c0-3.5,0.8-7.1,1.3-9.1h61.6l-5.2-10.3l43.1,19.9L499.1,90
		L505.5,77.4L505.5,77.4L505.5,77.4z"/>
</g>
<g>
	<path class="st1" d="M328,93.8c-5.1,0-9.6-1.1-13.4-3.2c-3.8-2.1-6.7-5.2-8.7-9.2s-3-8.5-3-13.6s1-9.5,3-13.6s4.9-7.1,8.7-9.2
		c3.8-2.1,8.3-3.2,13.4-3.2s9.5,1.1,13.4,3.2c3.8,2.1,6.7,5.2,8.7,9.2s3,8.5,3,13.6s-1,9.6-3,13.6c-2,4-4.9,7.1-8.7,9.2
		S333.1,93.8,328,93.8L328,93.8z M328,87c4.8,0,8.3-1.9,10.6-5.8s3.5-8.3,3.5-13.3s-1.2-9.5-3.5-13.3c-2.3-3.9-5.9-5.8-10.6-5.8
		s-8.3,1.9-10.7,5.8c-2.3,3.9-3.5,8.3-3.5,13.3s1.2,9.5,3.5,13.3S323.2,87,328,87L328,87L328,87z"/>
	<path class="st1" d="M362.3,92.5V43.1h18.5c3.8,0,6.7,0.5,8.6,1.4c2,0.9,3.5,2.4,4.7,4.3c1.1,1.9,1.7,4.1,1.7,6.5
		c0,2.9-0.8,5.6-2.5,8.2s-4,4.5-7.1,5.9l16.2,23.1h-12.5l-12.3-20.2H372v20.2L362.3,92.5L362.3,92.5z M372,65.5h2.4
		c4.2,0,7.2-0.9,8.8-2.8s2.4-3.9,2.4-6.3c0-2-0.7-3.6-2-4.8c-1.3-1.2-4-1.8-8-1.8H372L372,65.5L372,65.5L372,65.5z"/>
</g>
<g id="plant">
	<rect x="159.5" y="16.1" class="st2" width="108" height="108"/>
	
		<linearGradient id="SVGID_00000085951798281032904960000015890434353611846290_" gradientUnits="userSpaceOnUse" x1="-612.7151" y1="1036.6678" x2="-540.774" y2="964.7268" gradientTransform="matrix(0.7071 -0.7071 0.7071 0.7071 -86.2699 -1045.3599)">
		<stop  offset="0" style="stop-color:#0F6936"/>
		<stop  offset="4.000000e-02" style="stop-color:#0F6C37"/>
		<stop  offset="8.000000e-02" style="stop-color:#077739"/>
		<stop  offset="0.13" style="stop-color:#108837"/>
		<stop  offset="0.15" style="stop-color:#0A9039"/>
		<stop  offset="0.35" style="stop-color:#36993D"/>
		<stop  offset="0.76" style="stop-color:#5FB048"/>
		<stop  offset="1" style="stop-color:#6FB74B"/>
	</linearGradient>
	
		<rect x="162.6" y="19.2" style="fill:url(#SVGID_00000085951798281032904960000015890434353611846290_);" width="101.7" height="101.7"/>
	<rect x="167.6" y="24.1" class="st13" width="91.9" height="91.9"/>
	<path id="leaf" class="st14" d="M213.5,46.8c-13.2,1.8-23.2,10.4-23.2,23.2c0,3.1,0.6,6.2,1.7,8.9c-2.4,1.7-6,3.8-7.7,4.4
		c-3,1-9.1,0.3-9.4,0.9s1.7,6,2.4,6.2s6.2,0.3,9.4-0.9c2.2-0.8,6.3-3.4,8.7-5.1c4.2,5.4,10.8,8.8,18.2,8.8c12.8,0,23-8.1,23-20.9
		c0-4.9,1.2-11.2,3-15.1c2-4.3,12.3-7.1,12.3-7.1C250.9,46.8,218.6,46.1,213.5,46.8L213.5,46.8L213.5,46.8z"/>
	<path id="darker-3" class="st15" d="M264.4,120.9H162.6V65.2c0,0,32,4.9,50.8,4.9s50.9-4.9,50.9-4.9S264.4,120.9,264.4,120.9z"/>
</g>
<g id="arrow-2">
	<path class="st8" d="M129,70.1L76,45.6l6.4,12.7H22.7c0,0-1.8,5.7-1.8,11.3s1.8,10,1.8,10h60.9l-7.6,15L129,70.1L129,70.1L129,70.1
		z"/>
	
		<linearGradient id="SVGID_00000128450718598593302450000012974755298618662838_" gradientUnits="userSpaceOnUse" x1="73.465" y1="89.4723" x2="73.465" y2="49.5923" gradientTransform="matrix(1 0 0 1 0 0.5377)">
		<stop  offset="0" style="stop-color:#542913"/>
		<stop  offset="0.45" style="stop-color:#542913;stop-opacity:0.7"/>
		<stop  offset="0.58" style="stop-color:#E03D15;stop-opacity:0.5"/>
		<stop  offset="1" style="stop-color:#E03D15;stop-opacity:0.5"/>
	</linearGradient>
	<path style="fill:url(#SVGID_00000128450718598593302450000012974755298618662838_);" d="M87.1,77.4H24.2c-0.5-1.6-1.2-4.6-1.2-7.9
		c0-3.5,0.8-7.1,1.3-9.1h61.6l-5.2-10.3l43.1,19.9L80.8,90L87.1,77.4L87.1,77.4L87.1,77.4z"/>
	<path class="st10" d="M91.7,74.6H26.5c-0.3-1.4-0.5-3.1-0.5-5c0-2.2,0.4-4.4,0.7-6.2h64L87,56.2l30.1,13.9L87,84L91.7,74.6
		L91.7,74.6L91.7,74.6z"/>
	<path class="st11" d="M87.1,77.4H24.2c-0.5-1.6-1.2-4.6-1.2-7.9c0-3.5,0.8-7.1,1.3-9.1h61.6l-5.2-10.3l43.1,19.9L80.8,90L87.1,77.4
		L87.1,77.4L87.1,77.4z"/>
</g>
</svg>
