<?xml version="1.0" encoding="UTF-8"?><svg id="Layer" xmlns="http://www.w3.org/2000/svg" xmlns:xlink="http://www.w3.org/1999/xlink" viewBox="0 0 878.7 141.7"><defs><style>.cls-1{fill:url(#linear-gradient-2);}.cls-2{fill:#fff;}.cls-3,.cls-4{fill:#030404;}.cls-5,.cls-6{fill:#020303;}.cls-7{fill:rgba(255,255,255,0);}.cls-8{fill:url(#linear-gradient-6);}.cls-4{opacity:.15;}.cls-4,.cls-6,.cls-9{isolation:isolate;}.cls-10{fill:#cd141b;}.cls-11{fill:#010101;stroke-width:1.76px;}.cls-11,.cls-12{stroke:#020303;}.cls-11,.cls-12,.cls-13{stroke-miterlimit:10;}.cls-12{stroke-width:1.73px;}.cls-12,.cls-13{fill:none;}.cls-14{fill:#3c481e;}.cls-15{fill:url(#linear-gradient-5);}.cls-6{opacity:.08;}.cls-16{fill:url(#linear-gradient-7);}.cls-17{fill:#95c125;}.cls-18{fill:url(#linear-gradient-3);}.cls-19{fill:url(#linear-gradient);}.cls-9{fill:#e03d15;opacity:.5;}.cls-13{stroke:#010202;stroke-width:1.74px;}.cls-20{fill:url(#linear-gradient-4);}.cls-21{fill:url(#linear-gradient-8);}</style><linearGradient id="linear-gradient" x1="-332.89" y1="-1338.33" x2="-260.92" y2="-1266.34" gradientTransform="translate(-32.3 -1060.53) rotate(-45) scale(1 -1)" gradientUnits="userSpaceOnUse"><stop offset="0" stop-color="#020303"/><stop offset=".11" stop-color="#5b5a5a"/><stop offset="1" stop-color="#fff"/></linearGradient><linearGradient id="linear-gradient-2" x1="632.69" y1="54.07" x2="724.6" y2="54.07" gradientTransform="translate(0 124.37) scale(1 -1)" gradientUnits="userSpaceOnUse"><stop offset="0" stop-color="#fff"/><stop offset=".51" stop-color="#faf9f9"/><stop offset="1" stop-color="#efeeed"/></linearGradient><linearGradient id="linear-gradient-3" x1="467.51" y1="4" x2="467.51" y2="104.14" gradientTransform="translate(0 124.37) scale(1 -1)" gradientUnits="userSpaceOnUse"><stop offset="0" stop-color="#3c481e"/><stop offset=".14" stop-color="#4c5d23"/><stop offset=".42" stop-color="#68842b"/><stop offset=".66" stop-color="#80a42a"/><stop offset=".86" stop-color="#8fb923"/><stop offset="1" stop-color="#95c125"/></linearGradient><linearGradient id="linear-gradient-4" x1="330.01" y1="51.05" x2="330.01" y2="91.07" gradientTransform="translate(0 141.38) scale(1 -1)" gradientUnits="userSpaceOnUse"><stop offset="0" stop-color="#542913"/><stop offset=".45" stop-color="#542913" stop-opacity=".7"/><stop offset=".58" stop-color="#e03d15" stop-opacity=".5"/><stop offset="1" stop-color="#e03d15" stop-opacity=".5"/></linearGradient><linearGradient id="linear-gradient-5" x1="199.44" y1="3.33" x2="199.44" y2="104.8" gradientTransform="translate(0 124.37) scale(1 -1)" gradientUnits="userSpaceOnUse"><stop offset=".16" stop-color="#813912"/><stop offset=".18" stop-color="#975a19"/><stop offset=".22" stop-color="#ae7d21"/><stop offset=".26" stop-color="#c39d27"/><stop offset=".3" stop-color="#d6b92e"/><stop offset=".35" stop-color="#e4cf35"/><stop offset=".41" stop-color="#efe036"/><stop offset=".48" stop-color="#f6e942"/><stop offset=".58" stop-color="#f8ea48"/><stop offset=".86" stop-color="#f7ea47"/><stop offset="1" stop-color="#fcf4f9"/></linearGradient><linearGradient id="linear-gradient-6" x1="199.44" y1="110.21" x2="199.44" y2="-44.9" gradientTransform="translate(0 124.37) scale(1 -1)" gradientUnits="userSpaceOnUse"><stop offset=".26" stop-color="#f7ea47"/><stop offset=".86" stop-color="#803612"/></linearGradient><linearGradient id="linear-gradient-7" x1="199.48" y1="4.75" x2="199.48" y2="103.31" gradientTransform="translate(0 124.37) scale(1 -1)" gradientUnits="userSpaceOnUse"><stop offset=".16" stop-color="#803612"/><stop offset=".17" stop-color="#8b461e"/><stop offset=".18" stop-color="#a26a3b"/><stop offset=".2" stop-color="#b78954"/><stop offset=".22" stop-color="#c7a468"/><stop offset=".24" stop-color="#d7bb7a"/><stop offset=".26" stop-color="#e2cc88"/><stop offset=".3" stop-color="#ead891"/><stop offset=".34" stop-color="#eede97"/><stop offset=".46" stop-color="#efe097"/><stop offset=".7" stop-color="#803612"/><stop offset=".73" stop-color="#e6d234"/><stop offset=".74" stop-color="#ead848"/><stop offset=".75" stop-color="#eede6d"/><stop offset=".77" stop-color="#f1e38b"/><stop offset=".79" stop-color="#f7eaa9"/><stop offset=".8" stop-color="#f8edbf"/><stop offset=".83" stop-color="#faf0cf"/><stop offset=".85" stop-color="#fcf2da"/><stop offset=".89" stop-color="#fdf4e1"/><stop offset=".99" stop-color="#fdf5e3"/></linearGradient><linearGradient id="linear-gradient-8" x1="199.44" y1="88.85" x2="199.44" y2="-63.3" gradientTransform="translate(0 124.37) scale(1 -1)" gradientUnits="userSpaceOnUse"><stop offset=".26" stop-color="#f7ea47"/><stop offset=".77" stop-color="#803612"/></linearGradient></defs><rect class="cls-7" width="878.7" height="141.7"/><g id="science"><rect class="cls-3" x="624.64" y="16.3" width="108.02" height="108.02"/><rect class="cls-19" x="627.75" y="19.41" width="101.78" height="101.78"/><polygon class="cls-1" points="724.6 24.35 724.6 116.26 632.69 116.26 632.69 24.35 724.6 24.35"/><path class="cls-12" d="M690.04,71.13c0,19.14-4.33,34.64-9.62,34.64s-9.62-15.5-9.62-34.64,4.33-34.64,9.62-34.64,9.62,15.6,9.62,34.64Z"/><path class="cls-12" d="M675.57,62.81c16.55-9.52,32.14-13.6,34.82-9.01,2.68,4.59-8.57,16.11-25.2,25.64-16.55,9.62-32.14,13.6-34.74,9.01-2.6-4.59,8.57-16.11,25.12-25.64h0Z"/><path class="cls-12" d="M685.18,62.81c-16.55-9.52-32.14-13.6-34.82-8.92s8.66,16.03,25.2,25.64c16.55,9.62,32.14,13.52,34.82,8.92,2.68-4.59-8.66-16.11-25.2-25.64Z"/><path id="darker" class="cls-4" d="M729.54,121.2h-101.78v-55.78s32.05,4.94,50.85,4.94,50.94-4.94,50.94-4.94v55.78Z"/><path class="cls-5" d="M684.06,71.13c0,2-1.65,3.64-3.64,3.64s-3.64-1.65-3.64-3.64,1.65-3.64,3.64-3.64,3.64,1.65,3.64,3.64Z"/></g><path class="cls-2" d="M571.18,65.37v-11.25h11.25v11.25h-11.25Zm0,30.48v-11.25h11.25v11.25h-11.25Z"/><path class="cls-2" d="M533.96,32.74l-9.62-1.2,2.22-6.79,8.47,4.69c-.73,.8-1.09,1.67-1.09,2.63,0,.15,0,.38,.03,.67h0Zm3,2.64l-4.13,8.79-5.75-4.2,7.07-6.65c.62,1.12,1.55,1.82,2.81,2.06h0Zm-3.26-15.82h7.14l-1.82,9.52c-.59-.29-1.18-.43-1.75-.43s-1.14,.14-1.72,.43l-1.85-9.52h0Zm6.73,13.77l7.07,6.65-5.79,4.2-4.09-8.79c1.23-.25,2.17-.93,2.81-2.06h0Zm-.9-3.89l8.49-4.69,2.18,6.79-9.62,1.2c.04-.29,.07-.51,.07-.67,0-.96-.38-1.84-1.12-2.63Z"/><g id="tagMicrobe"><path class="cls-5" d="M521.51,70.3c0,29.83-24.25,54.07-54.07,54.07s-54.07-24.25-54.07-54.07,24.25-54.07,54.07-54.07,54.07,24.16,54.07,54.07Z"/><path class="cls-18" d="M517.58,70.3c0,27.65-22.41,50.07-50.07,50.07s-50.07-22.41-50.07-50.07,22.41-50.07,50.07-50.07c27.65-.08,50.07,22.33,50.07,50.07Z"/><path class="cls-17" d="M512.69,70.3c0,24.94-20.23,45.27-45.27,45.27s-45.18-20.33-45.18-45.27,20.23-45.27,45.27-45.27,45.18,20.23,45.18,45.27Z"/><g id="microbes"><polygon class="cls-14" points="469.43 75.97 465.42 76.5 465.94 80.51 462.02 79.81 461.32 83.82 457.75 81.99 455.91 85.66 453.04 82.86 450.24 85.74 448.24 82.26 444.75 84.18 443.87 80.25 439.95 81.12 440.3 77.1 436.29 76.76 437.86 73.01 434.11 71.44 436.63 68.38 433.58 65.77 436.9 63.59 434.71 60.19 438.55 59.05 437.42 55.21 441.43 55.3 441.52 51.2 445.35 52.51 446.58 48.68 449.9 50.94 452.16 47.71 454.69 50.85 457.83 48.41 459.23 52.16 463.07 50.76 463.24 54.78 467.34 54.52 466.38 58.45 470.31 59.4 468.21 62.8 471.7 64.9 468.65 67.6 471.35 70.57 467.69 72.31 469.43 75.97"/><polygon class="cls-14" points="504.06 59.93 502.66 60.36 502.66 62.11 500.66 61.5 499.26 62.8 497.26 61.41 495.17 61.93 489.23 62.72 486.79 62.45 484.26 57.57 481.29 56.79 478.93 54.26 476.15 52.77 473.97 50.24 471.35 49.02 469.78 45.97 467.52 44.13 466.64 41.87 464.99 40.12 464.81 38.3 463.5 36.64 464.63 35.51 464.72 33.67 465.94 33.75 467.08 32.45 468.73 33.23 471.44 30.62 473.53 32.19 475.97 32.27 478.33 34.11 481.21 34.8 482.69 38.81 485.74 40.04 487.83 42.57 490.72 44.23 492.46 46.67 495.25 48.5 499.78 50.94 501.88 53.03 502.23 54.78 503.71 56.52 503.28 58.09 504.06 59.93"/><polygon class="cls-14" points="499.61 79.02 499.87 79.55 500.49 80.77 499.34 81.47 499.44 82.86 496.65 83.91 495.51 85.57 492.2 88.88 488.44 90.63 483.38 92.11 480.42 93.94 476.41 94.9 473.1 96.47 469.17 97.17 466.03 98.74 462.2 98.91 458.79 99.96 456.17 99.87 453.38 100.48 451.64 99.96 449.19 100.4 449.02 99.17 448.32 98.91 448.5 97.69 448.32 96.47 450.16 95.51 450.07 92.63 452.95 91.59 454.96 89.84 458.27 88.71 462.2 87.66 465.76 87.14 469.17 85.22 472.92 84.61 476.58 83.04 480.16 82.52 483.82 81.12 489.41 78.59 492.89 77.72 494.73 78.07 497.26 77.54 498.3 78.42 499.61 79.02"/></g><path id="ciemniej" class="cls-6" d="M517.58,70.3c0-1.05,0-2-.08-2.97-10.12,2.79-27.47,6.37-49.98,6.37s-39.34-4.45-49.89-8.11c-.18,1.57-.26,3.14-.26,4.71,0,27.65,22.41,50.07,50.07,50.07s50.15-22.41,50.15-50.07h-.01Z"/></g><g id="arrow"><path class="cls-9" d="M385.77,70.3l-53.19-24.59,6.44,12.78h-59.95s-1.81,5.76-1.81,11.3,1.81,10.06,1.81,10.06h61.08l-7.58,15.04,53.19-24.59h.01Z"/><path class="cls-20" d="M343.67,77.69h-63.04c-.49-1.64-1.2-4.59-1.2-7.89,0-3.5,.78-7.14,1.29-9.13h61.82l-5.22-10.36,43.27,20.01-43.27,20.01,6.36-12.62h0v-.02Z"/><path class="cls-10" d="M348.33,74.82h-65.48c-.3-1.39-.56-3.15-.56-5.02,0-2.19,.35-4.47,.7-6.26h64.19l-3.61-7.18,30.19,13.95-30.19,13.95,4.75-9.44h0Z"/><path class="cls-13" d="M343.67,77.69h-63.04c-.49-1.64-1.2-4.59-1.2-7.89,0-3.5,.78-7.14,1.29-9.13h61.82l-5.22-10.36,43.27,20.01-43.27,20.01,6.36-12.62h0v-.02Z"/></g><g id="mln"><polygon id="obram_czarne" class="cls-11" points="161.89 16.48 145.57 32.78 145.57 107.81 161.89 124.13 237 124.13 253.23 107.81 253.23 32.78 237 16.48 161.89 16.48"/><polygon id="obram_zolte" class="cls-15" points="164 19.57 148.74 34.9 148.74 105.7 164 121.04 234.8 121.04 250.14 105.7 250.14 34.9 234.8 19.57 164 19.57"/><polygon id="tlo_wew" class="cls-8" points="165.05 21.06 150.16 35.96 150.16 104.65 165.05 119.54 233.83 119.54 248.73 104.65 248.73 35.96 233.83 21.06 165.05 21.06"/><path id="obram_skosne" class="cls-16" d="M241.58,89.3c-2.73,0-4.94-2.2-4.94-4.94v-28.12c0-2.73,2.2-4.94,4.94-4.94h7.06v-15.34l-14.81-14.9h-15.43v7.06c0,2.73-2.2,4.94-4.94,4.94h-28.12c-2.73,0-4.94-2.2-4.94-4.94v-7.06h-15.34l-14.9,14.9v15.43h7.06c2.73,0,4.94,2.2,4.94,4.94v28.12c0,2.73-2.2,4.94-4.94,4.94h-7.06v15.34l14.9,14.9h15.43v-7.06c0-2.73,2.2-4.94,4.94-4.94h28.12c2.73,0,4.94,2.2,4.94,4.94v7.06h15.43l14.9-14.9v-15.43h-7.22Z"/><path id="tlo_zew" class="cls-21" d="M241.32,90.98c-3.35,0-6.09-3.35-6.09-6.7v-27.95c0-3.35,2.73-6.7,6.09-6.7h5.73v-12.52l-14.46-14.37h-12.44v5.73c0,3.35-3.35,6.09-6.7,6.09h-27.95c-3.35,0-6.7-2.73-6.7-6.09v-5.73h-12.61l-14.37,14.37v12.52h5.73c3.35,0,6.09,3.35,6.09,6.7v27.95c0,3.35-2.73,6.7-6.09,6.7h-5.73v12.52l14.37,14.37h12.52v-5.73c0-3.35,3.35-6.09,6.7-6.09h27.86c3.35,0,6.7,2.73,6.7,6.09v5.73h12.52l14.37-14.37v-12.52h-5.56Z"/></g><path d="M196.95,92.52V49.29h-6.54l-.19-4.89,16.52-1.42v49.52h-9.79v.02Z"/></svg>