<?xml version="1.0" encoding="utf-8"?>
<!-- Generator: Adobe Illustrator 26.3.1, SVG Export Plug-In . SVG Version: 6.00 Build 0)  -->
<svg version="1.1" id="Layer" xmlns="http://www.w3.org/2000/svg" xmlns:xlink="http://www.w3.org/1999/xlink" x="0px" y="0px"
	 viewBox="0 0 878.7 141.7" style="enable-background:new 0 0 878.7 141.7;" xml:space="preserve">
<style type="text/css">
	.st0{fill:#FFFFFF;fill-opacity:0;}
	.st1{fill:url(#SVGID_1_);stroke:#030304;stroke-width:2.4;stroke-miterlimit:10;}
	.st2{fill:url(#SVGID_00000127011329293324586330000006834743535451400635_);}
	.st3{fill:none;stroke:#030304;stroke-width:3.6;stroke-miterlimit:10;}
	.st4{fill:none;stroke:#030304;stroke-width:1.8;stroke-miterlimit:10;}
	.st5{fill:#030304;}
	.st6{fill:none;stroke:#030304;stroke-width:2.4;stroke-linecap:square;stroke-miterlimit:10;}
	.st7{opacity:0.31;fill:url(#darker_00000178192309712834146350000016401110686223070646_);enable-background:new    ;}
	.st8{opacity:0.5;fill:#E03D15;enable-background:new    ;}
	.st9{fill:url(#SVGID_00000049913706830377528220000018250072412508140181_);}
	.st10{fill:#CD141B;}
	.st11{fill:none;stroke:#010202;stroke-width:1.73;stroke-miterlimit:10;}
	.st12{fill:url(#SVGID_00000003100876998131998600000016192116570064989832_);}
	.st13{fill:#E62B23;}
	.st14{opacity:5.000000e-02;fill:#030304;enable-background:new    ;}
	.st15{fill:#FFD113;}
	.st16{fill:#FFFFFF;}
</style>
<rect y="0" class="st0" width="878.7" height="141.7"/>
<g id="tr">
	
		<linearGradient id="SVGID_1_" gradientUnits="userSpaceOnUse" x1="609.865" y1="-17.7477" x2="609.865" y2="85.8723" gradientTransform="matrix(1 0 0 -1 0 105.6323)">
		<stop  offset="0" style="stop-color:#951919"/>
		<stop  offset="0.21" style="stop-color:#B13C1E"/>
		<stop  offset="0.44" style="stop-color:#CB5E26"/>
		<stop  offset="0.66" style="stop-color:#E27933"/>
		<stop  offset="0.85" style="stop-color:#EF8D3A"/>
		<stop  offset="1" style="stop-color:#F3933C"/>
	</linearGradient>
	<rect x="536.6" y="19.8" class="st1" width="146.6" height="103.6"/>
	
		<radialGradient id="SVGID_00000119104847509839119290000014535446211750248083_" cx="609.925" cy="34.0623" r="59.0199" gradientTransform="matrix(1 0 0 -1 0 105.6323)" gradientUnits="userSpaceOnUse">
		<stop  offset="0" style="stop-color:#F3933C;stop-opacity:0.5"/>
		<stop  offset="1" style="stop-color:#D24016"/>
	</radialGradient>
	
		<rect x="541.1" y="24.3" style="fill:url(#SVGID_00000119104847509839119290000014535446211750248083_);" width="137.6" height="94.5"/>
	<g id="logo">
		<g>
			
				<ellipse transform="matrix(0.236 -0.9718 0.9718 0.236 399.7694 644.7726)" class="st3" cx="609.9" cy="68.1" rx="26.7" ry="26.7"/>
			<path class="st4" d="M609.9,41.5c0,0,13.8,5.7,13.8,26.7s-13.8,26.7-13.8,26.7"/>
			<path class="st4" d="M609.9,41.5c0,0-13.8,5.7-13.8,26.7s13.8,26.7,13.8,26.7"/>
			<line class="st4" x1="609.9" y1="41.5" x2="609.9" y2="94.8"/>
			<line class="st4" x1="583.3" y1="68.2" x2="636.6" y2="68.2"/>
			<path class="st4" d="M589.2,51.3c0,0,7.8,4,20.7,4s20.7-4,20.7-4"/>
			<path class="st4" d="M589.2,85.3c0-0.1,7.8-4,20.7-4s20.7,4,20.7,4"/>
			<polygon class="st5" points="625.9,46.3 633,39.8 623.6,37.9 644,32 639.3,53.3 636.6,42.7 629.9,50.5 			"/>
			<polyline class="st6" points="609.9,100.9 600.3,100.9 604.4,100.9 604.4,110.4 			"/>
			<polyline class="st6" points="616.8,110.4 616.8,100.9 615,100.9 612.7,107.3 612,107.3 610,104.3 608.6,104.3 608.6,110.4 			
				"/>
			<path class="st5" d="M601,106.9c0,1.4-3.6,3.6-5,3.6s-10.1,0.6-10.1-0.8s8.7-4.4,10.1-4.4C597.4,105.4,601,105.5,601,106.9z"/>
			<path class="st5" d="M596.7,103.7c-0.8,0.7-4.1-0.5-4.8-1.3s-5.3-5.9-4.4-6.6s7,3.2,7.7,4.1S597.6,103,596.7,103.7L596.7,103.7
				L596.7,103.7z"/>
			<path class="st5" d="M590.4,105.4c-0.2,1.1-3.4,2.3-4.6,2c-1.1-0.2-10.2-1-10-2s9.7-2.3,10.8-2
				C587.8,103.6,590.6,104.3,590.4,105.4L590.4,105.4z"/>
			<path class="st5" d="M588,102.5c-1.1,0.4-3.7-1.7-4.1-2.8s-4.6-9.2-3.6-9.6s7,7.1,7.5,8.2C588.1,99.4,588.9,102.1,588,102.5
				L588,102.5L588,102.5z"/>
			<path class="st5" d="M581.3,102c-0.7,1.1-4.2,1.1-5.2,0.5s-9.5-4.7-8.8-5.8s10.3,1.2,11.3,1.9C579.7,99.3,582.1,100.9,581.3,102
				C581.3,102,581.3,102,581.3,102z"/>
			<path class="st5" d="M579,98.2c-1.2,0-2.9-2.8-2.9-3.8s-1-9.6,0.2-9.6s4.1,8.7,4.1,9.7C580.3,95.4,580.2,98.2,579,98.2L579,98.2z
				"/>
			<path class="st5" d="M572.6,90.8c-1.1-0.2-2.2-3.2-1.9-4.3c0.2-1,1.2-9.4,2.3-9.1s1.9,9.1,1.7,10.1
				C574.4,88.6,573.7,91.1,572.6,90.8L572.6,90.8L572.6,90.8z"/>
			<path class="st5" d="M573.2,95.5c-1,0.7-4.2-0.4-4.9-1.2c-0.7-1-7.5-7.3-6.5-8.1s9.1,4.4,9.8,5.3C572.3,92.4,574,94.8,573.2,95.5
				L573.2,95.5L573.2,95.5z"/>
			<path class="st5" d="M567.7,86.5c-1,0.5-3.8-1.1-4.3-2s-5.7-8.2-4.6-8.8c1-0.5,7.7,5.9,8.2,6.8C567.4,83.5,568.6,85.9,567.7,86.5
				L567.7,86.5L567.7,86.5z"/>
			<path class="st5" d="M568.3,83c-0.8-0.4-1.2-3.4-0.8-4.3s2.6-9.2,3.5-8.9c0.8,0.4,0.1,9.1-0.2,10.1C570.2,81,569.1,83.4,568.3,83
				L568.3,83z"/>
			<path class="st5" d="M564.5,77.4c-1,0.2-3-2.2-3.2-3.4c-0.2-1.1-3-9.5-2.2-9.7c1-0.2,5.3,7.9,5.5,9S565.5,77.3,564.5,77.4
				L564.5,77.4z"/>
			<path class="st5" d="M566.2,73.7c-0.8-0.5-0.7-3.2-0.2-4.1s3.6-7.6,4.4-7.1s-1.1,8.2-1.6,8.9C568.4,72.2,567.1,74.2,566.2,73.7
				L566.2,73.7L566.2,73.7z"/>
			<path class="st5" d="M563.7,66.8c-1-0.1-2.3-2.9-2.2-4s-0.1-9.4,0.8-9.4c1,0.1,2.8,8.6,2.6,9.7S564.7,67,563.7,66.8L563.7,66.8
				L563.7,66.8z"/>
			<path class="st5" d="M566.1,64.1c-0.6-0.6,0.4-3.4,1.1-4s6-6.6,6.6-5.9c0.6,0.6-3.7,7.7-4.4,8.3S566.7,64.8,566.1,64.1
				L566.1,64.1L566.1,64.1z"/>
			<path class="st5" d="M569.7,55.3c-0.5-0.6,0.2-2.6,0.8-3.2c0.6-0.5,4.8-5.3,5.3-4.7s-2.9,6.1-3.5,6.7
				C571.6,54.5,570.2,55.8,569.7,55.3L569.7,55.3L569.7,55.3z"/>
			<path class="st5" d="M565.6,56.5c-0.7-0.2-1.2-3.1-1-4.1c0.2-1,1.9-9.1,2.6-9c0.7,0.2,0.4,8.8,0.1,9.7
				C567.3,54.3,566.5,56.9,565.6,56.5C565.6,56.5,565.6,56.5,565.6,56.5z"/>
			<path class="st5" d="M570.2,50.1c-1-0.4-1.4-3.2-1.1-4.2c0.4-1,2.3-8.8,3.2-8.4c1,0.4,0.5,8.8,0.1,9.7
				C572.1,48.1,571.1,50.5,570.2,50.1L570.2,50.1z"/>
			<path class="st5" d="M618.8,106.6c0,1.4,3.6,3.6,5,3.6s10.1,0.6,10.1-0.8s-8.7-4.4-10.1-4.4S618.8,105.1,618.8,106.6z"/>
			<path class="st5" d="M623.1,103.3c0.8,0.7,4.1-0.5,4.8-1.3s5.3-5.9,4.4-6.6s-7,3.2-7.7,4.1S622.3,102.6,623.1,103.3L623.1,103.3
				L623.1,103.3z"/>
			<path class="st5" d="M629.5,105c0.2,1.1,3.4,2.3,4.6,2c1.1-0.2,10.2-1,10-2c-0.2-1.1-9.7-2.3-10.8-2
				C632,103.2,629.3,103.9,629.5,105L629.5,105z"/>
			<path class="st5" d="M631.9,102.1c1.1,0.4,3.7-1.7,4.1-2.8s4.6-9.2,3.5-9.6s-7,7.1-7.5,8.2C631.8,99,630.9,101.8,631.9,102.1
				L631.9,102.1L631.9,102.1z"/>
			<path class="st5" d="M638.5,101.7c0.7,1.1,4.2,1.1,5.2,0.5s9.4-4.7,8.7-5.8S642,97.6,641,98.3
				C640.2,98.9,637.8,100.6,638.5,101.7C638.5,101.7,638.5,101.7,638.5,101.7z"/>
			<path class="st5" d="M640.9,97.8c1.2,0,2.9-2.8,2.9-3.8s1-9.6-0.2-9.6s-4.1,8.7-4.1,9.7C639.6,95.2,639.7,97.8,640.9,97.8
				L640.9,97.8z"/>
			<path class="st5" d="M647.3,90.5c1.1-0.2,2.2-3.2,1.9-4.3c-0.2-1-1.2-9.4-2.3-9.1c-1.1,0.2-1.9,9.1-1.7,10.1
				C645.5,88.2,646.2,90.7,647.3,90.5L647.3,90.5L647.3,90.5z"/>
			<path class="st5" d="M646.7,95.2c1,0.7,4.2-0.4,4.9-1.2c0.7-1,7.5-7.3,6.5-8.1s-9.1,4.4-9.8,5.3
				C647.5,92.2,645.8,94.4,646.7,95.2L646.7,95.2L646.7,95.2z"/>
			<path class="st5" d="M652.2,86.2c1,0.5,3.8-1.1,4.3-2s5.7-8.2,4.6-8.8c-1-0.5-7.7,5.9-8.2,6.8C652.4,83.2,651.2,85.7,652.2,86.2
				L652.2,86.2L652.2,86.2z"/>
			<path class="st5" d="M651.6,82.8c0.8-0.4,1.3-3.4,0.8-4.3s-2.6-9.2-3.5-8.9c-0.8,0.4-0.1,9.1,0.2,10.1
				C649.7,80.6,650.8,83.2,651.6,82.8L651.6,82.8z"/>
			<path class="st5" d="M655.3,77c1,0.2,3-2.2,3.2-3.4c0.2-1.1,3.1-9.5,2.2-9.7s-5.3,7.9-5.5,9C655,74.2,654.4,76.9,655.3,77
				L655.3,77z"/>
			<path class="st5" d="M653.6,73.3c0.8-0.5,0.8-3.2,0.2-4.1c-0.5-0.8-3.7-7.6-4.4-7.1s1.1,8.2,1.6,8.9
				C651.5,71.9,652.8,73.9,653.6,73.3L653.6,73.3L653.6,73.3z"/>
			<path class="st5" d="M656.2,66.5c1-0.1,2.3-2.9,2.2-4s0.1-9.5-0.8-9.4s-2.8,8.6-2.6,9.7C654.8,63.9,655.2,66.6,656.2,66.5
				L656.2,66.5L656.2,66.5z"/>
			<path class="st5" d="M653.8,63.7c0.6-0.6-0.4-3.4-1.1-4s-6-6.6-6.6-5.9c-0.6,0.6,3.7,7.7,4.4,8.3S653.2,64.4,653.8,63.7
				L653.8,63.7L653.8,63.7z"/>
			<path class="st5" d="M650.2,54.9c0.5-0.6-0.2-2.6-0.8-3.2s-4.8-5.3-5.3-4.7s2.9,6.1,3.5,6.7C648.1,54.2,649.7,55.4,650.2,54.9
				L650.2,54.9L650.2,54.9z"/>
			<path class="st5" d="M654.1,56.3c0.7-0.2,1.2-3.1,1-4.1s-1.9-9.1-2.6-9c-0.7,0.2-0.4,8.8-0.1,9.7C652.6,54,653.4,56.5,654.1,56.3
				z"/>
			<path class="st5" d="M649.7,49.8c1-0.4,1.4-3.2,1.1-4.2c-0.4-1-2.3-8.8-3.2-8.4c-1,0.4-0.5,8.8-0.1,9.7
				C647.8,47.7,648.7,50.1,649.7,49.8L649.7,49.8z"/>
		</g>
	</g>
	
		<linearGradient id="darker_00000044146531608270760870000010651606328945576638_" gradientUnits="userSpaceOnUse" x1="609.865" y1="-17.7477" x2="609.865" y2="48.2573" gradientTransform="matrix(1 0 0 -1 0 105.6323)">
		<stop  offset="0" style="stop-color:#1F1F1E"/>
		<stop  offset="1" style="stop-color:#3F3E3C"/>
	</linearGradient>
	
		<path id="darker" style="opacity:0.31;fill:url(#darker_00000044146531608270760870000010651606328945576638_);enable-background:new    ;" d="
		M682.7,57.6c-2.3,4.6-41,12-72.8,12s-71.1-8.2-73.4-12v65.8h146.6V58.3C683,57.5,682.8,57.1,682.7,57.6z"/>
</g>
<g id="arrow">
	<path class="st8" d="M506.5,71.1l-53.1-24.5l6.4,12.8H400c0,0-1.8,5.8-1.8,11.3s1.8,10,1.8,10h61l-7.6,15L506.5,71.1L506.5,71.1
		L506.5,71.1z"/>
	
		<linearGradient id="SVGID_00000172409048524453831980000005885238336270714547_" gradientUnits="userSpaceOnUse" x1="450.855" y1="90.5423" x2="450.855" y2="50.6023" gradientTransform="matrix(1 0 0 1 0 0.5377)">
		<stop  offset="0" style="stop-color:#542913"/>
		<stop  offset="0.45" style="stop-color:#542913;stop-opacity:0.7"/>
		<stop  offset="0.58" style="stop-color:#E03D15;stop-opacity:0.5"/>
		<stop  offset="1" style="stop-color:#E03D15;stop-opacity:0.5"/>
	</linearGradient>
	<path style="fill:url(#SVGID_00000172409048524453831980000005885238336270714547_);" d="M464.5,78.5h-62.9
		c-0.5-1.6-1.2-4.6-1.2-7.9c0-3.5,0.8-7.1,1.3-9.1h61.7l-5.2-10.3l43.2,20l-43.2,20L464.5,78.5L464.5,78.5L464.5,78.5z"/>
	<path class="st10" d="M469.1,75.6h-65.4c-0.3-1.4-0.5-3.2-0.5-5c0-2.2,0.4-4.5,0.7-6.2H468l-3.6-7.2l30.1,13.9L464.4,85L469.1,75.6
		L469.1,75.6L469.1,75.6z"/>
	<path class="st11" d="M464.5,78.5h-62.9c-0.5-1.6-1.2-4.6-1.2-7.9c0-3.5,0.8-7.1,1.3-9.1h61.7l-5.2-10.3l43.2,20l-43.2,20
		L464.5,78.5L464.5,78.5L464.5,78.5z"/>
</g>
<g id="heat">
	<rect x="258.7" y="18.4" class="st5" width="108.1" height="108.1"/>
	
		<linearGradient id="SVGID_00000029766758821727312530000012930686505440481456_" gradientUnits="userSpaceOnUse" x1="-615.6015" y1="1256.3694" x2="-543.5444" y2="1184.3223" gradientTransform="matrix(0.7071 -0.7071 0.7071 0.7071 -140.3499 -1200.2898)">
		<stop  offset="0" style="stop-color:#951919"/>
		<stop  offset="0.21" style="stop-color:#B9251D"/>
		<stop  offset="0.47" style="stop-color:#E62B23"/>
		<stop  offset="0.55" style="stop-color:#E62F2A"/>
		<stop  offset="0.84" style="stop-color:#E73A3B"/>
		<stop  offset="1" style="stop-color:#E83E41"/>
	</linearGradient>
	
		<rect x="261.8" y="21.5" style="fill:url(#SVGID_00000029766758821727312530000012930686505440481456_);" width="101.9" height="101.9"/>
	<rect x="266.7" y="26.4" class="st13" width="92" height="92"/>
	<path id="darker-2" class="st14" d="M363.7,123.4H261.8V67.5c0,0,32.1,4.9,50.9,4.9s51-4.9,51-4.9L363.7,123.4L363.7,123.4z"/>
	<g>
		<polygon class="st15" points="301.3,77.2 289.6,67.1 289.6,67.1 289.6,36.4 278,67.7 289.7,77.6 289.7,77.6 289.6,108.5 		"/>
		<polygon class="st15" points="324.4,77.2 312.8,67.1 312.7,67.1 312.8,36.4 301.2,67.7 312.8,77.6 312.8,77.6 312.8,108.5 		"/>
		<polygon class="st15" points="348.2,77.2 336.5,67.1 336.5,67.1 336.5,36.4 324.9,67.7 336.5,77.6 336.5,77.6 336.5,108.5 		"/>
	</g>
</g>
<path class="st16" d="M207.9,70.8c-5.6-3.7-8.3-8.1-8.3-13.2c0-2.7,0.8-5.3,2.4-7.7s3.8-4.3,6.6-5.5s6.1-1.8,10-1.8
	c5.7,0,10,1.2,13.1,3.7c3.1,2.5,4.6,5.6,4.6,9.2c0,2.3-0.7,4.6-2,7c-1.3,2.3-3.9,4.8-7.7,7.5c8.2,4.3,12.3,9.7,12.3,16.2
	c0,4.6-1.9,8.5-5.6,11.9s-9.1,5.1-16,5.1s-12.2-1.6-15.7-4.7c-3.5-3.1-5.2-6.8-5.2-10.9c0-3,0.9-6,2.9-9S204,73,207.9,70.8
	L207.9,70.8L207.9,70.8z M213.5,74.6c-2.9,2.4-4.7,4.5-5.3,6.1s-0.9,3.3-0.9,4.9c0,3.4,1.2,5.9,3.5,7.7c2.3,1.8,4.9,2.7,7.6,2.7
	s5-0.8,7-2.2s3-3.4,3-5.8c0-1.8-0.6-3.5-1.7-4.9s-3.7-3.2-7.7-5.4L213.5,74.6L213.5,74.6L213.5,74.6z M220.5,66.7
	c3.8-3,5.8-6.2,5.8-9.6c0-2.2-0.8-4-2.4-5.4c-1.6-1.3-3.7-2-6.2-2s-4.5,0.6-5.9,1.8s-2.2,2.7-2.2,4.5c0,1.6,0.6,3.1,1.8,4.5
	S215.6,64.1,220.5,66.7L220.5,66.7z"/>
</svg>
