<?xml version="1.0" encoding="utf-8"?>
<!-- Generator: Adobe Illustrator 26.3.1, SVG Export Plug-In . SVG Version: 6.00 Build 0)  -->
<svg version="1.1" id="Layer" xmlns="http://www.w3.org/2000/svg" xmlns:xlink="http://www.w3.org/1999/xlink" x="0px" y="0px"
	 viewBox="0 0 878.7 141.7" style="enable-background:new 0 0 878.7 141.7;" xml:space="preserve">
<style type="text/css">
	.st0{fill:#FFFFFF;fill-opacity:0;}
	.st1{fill:url(#SVGID_1_);}
	.st2{fill:none;stroke:#1F1F1E;stroke-width:3.39;stroke-miterlimit:10;}
	.st3{fill:none;stroke:#1F1F1E;stroke-width:1.06;stroke-miterlimit:10;}
	
		.st4{fill:#E2161C;stroke:url(#SVGID_00000072247702421769305670000016661394644015843968_);stroke-width:3.39;stroke-miterlimit:10;}
	
		.st5{fill:#E2161C;stroke:url(#SVGID_00000089567097075552646970000001729757189231237522_);stroke-width:3.39;stroke-miterlimit:10;}
	.st6{fill:#030304;}
	.st7{fill:url(#SVGID_00000052097377274324711430000002949640458064825528_);}
	.st8{fill:#946137;}
	.st9{fill:#342217;}
	.st10{opacity:0.15;fill:#030304;enable-background:new    ;}
	.st11{opacity:0.5;fill:#E03E17;enable-background:new    ;}
	.st12{fill:url(#SVGID_00000114042403277260061000000016321083068542399627_);}
	.st13{fill:#CE141E;}
	.st14{fill:none;stroke:#020303;stroke-width:1.73;stroke-miterlimit:10;}
	.st15{fill:url(#SVGID_00000023971220688897094230000016234535823709616306_);}
	.st16{fill:#7F358B;}
	.st17{fill:#FFFFFF;stroke:#030304;stroke-width:0.86;stroke-miterlimit:10;}
	.st18{fill:#FFFFFF;}
</style>
<rect y="0" class="st0" width="878.7" height="141.7"/>
<g id="oxIcon">
	
		<radialGradient id="SVGID_1_" cx="692.585" cy="86.3223" r="68.5725" gradientTransform="matrix(1 0 0 1 0 -15.4623)" gradientUnits="userSpaceOnUse">
		<stop  offset="0" style="stop-color:#F6EE84"/>
		<stop  offset="0.78" style="stop-color:#F6EE84"/>
		<stop  offset="0.91" style="stop-color:#F6EE84"/>
		<stop  offset="0.91" style="stop-color:#F7EE87"/>
		<stop  offset="0.94" style="stop-color:#FAF4B7"/>
		<stop  offset="0.96" style="stop-color:#FDFADC"/>
		<stop  offset="0.97" style="stop-color:#FEFCF1"/>
		<stop  offset="0.99" style="stop-color:#FFFFFE"/>
		<stop  offset="1" style="stop-color:#FFFFFF"/>
	</radialGradient>
	<path class="st1" d="M761.2,70.9c0,37.8-30.7,68.6-68.6,68.6S624,108.7,624,70.9s30.7-68.6,68.6-68.6
		C730.4,2.4,761.2,33,761.2,70.9L761.2,70.9z"/>
	<path class="st2" d="M761,70.9c0,37.8-30.7,68.6-68.6,68.6S624,108.7,624,70.9s30.7-68.6,68.6-68.6S761,33.1,761,70.9L761,70.9z"/>
	<path class="st3" d="M753.2,70.9c0,33.5-27.2,60.6-60.6,60.6S632,104.3,632,70.9s27.2-60.5,60.6-60.5S753.2,37.4,753.2,70.9z"/>
	
		<linearGradient id="SVGID_00000183236007910320571740000002693431005228235190_" gradientUnits="userSpaceOnUse" x1="698.1529" y1="114.2152" x2="659.1652" y2="75.2275" gradientTransform="matrix(1 0 0 1 0 -15.4623)">
		<stop  offset="0" style="stop-color:#5D1512"/>
		<stop  offset="0.1" style="stop-color:#611912"/>
		<stop  offset="0.26" style="stop-color:#732B23"/>
		<stop  offset="0.48" style="stop-color:#914D44"/>
		<stop  offset="0.73" style="stop-color:#BE8880"/>
		<stop  offset="1" style="stop-color:#FBDEDE"/>
	</linearGradient>
	
		<path style="fill:#E2161C;stroke:url(#SVGID_00000183236007910320571740000002693431005228235190_);stroke-width:3.39;stroke-miterlimit:10;" d="
		M704.5,79.3c0,14.3-11.6,25.9-25.9,25.9s-25.9-11.6-25.9-25.9s11.6-25.9,25.9-25.9S704.5,65,704.5,79.3z"/>
	
		<linearGradient id="SVGID_00000016047121297743756870000016241786648235114646_" gradientUnits="userSpaceOnUse" x1="725.7704" y1="95.5777" x2="686.7877" y2="56.585" gradientTransform="matrix(1 0 0 1 0 -15.4623)">
		<stop  offset="0" style="stop-color:#5D1512"/>
		<stop  offset="0.1" style="stop-color:#611912"/>
		<stop  offset="0.26" style="stop-color:#732B23"/>
		<stop  offset="0.48" style="stop-color:#914D44"/>
		<stop  offset="0.73" style="stop-color:#BE8880"/>
		<stop  offset="1" style="stop-color:#FBDEDE"/>
	</linearGradient>
	
		<path style="fill:#E2161C;stroke:url(#SVGID_00000016047121297743756870000016241786648235114646_);stroke-width:3.39;stroke-miterlimit:10;" d="
		M732.2,60.6c0,14.3-11.6,25.9-25.9,25.9s-25.9-11.6-25.9-25.9s11.6-25.9,25.9-25.9S732.2,46.3,732.2,60.6z"/>
</g>
<g id="steel">
	<rect x="461.7" y="17.4" class="st6" width="107.6" height="107.6"/>
	
		<linearGradient id="SVGID_00000026121915493370126400000016129069677126818443_" gradientUnits="userSpaceOnUse" x1="-448.1006" y1="1360.24" x2="-376.3859" y2="1288.5251" gradientTransform="matrix(0.7071 -0.7071 0.7071 0.7071 -129.4799 -1156.7399)">
		<stop  offset="0" style="stop-color:#462C1B"/>
		<stop  offset="5.000000e-02" style="stop-color:#58351A"/>
		<stop  offset="0.1" style="stop-color:#683F16"/>
		<stop  offset="0.32" style="stop-color:#77491F"/>
		<stop  offset="0.75" style="stop-color:#8D5B32"/>
		<stop  offset="1" style="stop-color:#946137"/>
	</linearGradient>
	
		<rect x="464.8" y="20.5" style="fill:url(#SVGID_00000026121915493370126400000016129069677126818443_);" width="101.4" height="101.4"/>
	<rect x="469.7" y="25.4" class="st8" width="91.6" height="91.6"/>
	<g>
		<path class="st9" d="M525,101.5l2.2-42.5l-5.2-0.6l-0.8-1.8h-4l-0.7,1.9l-6-0.3v-11h7l0.5,2.2l3.3,0.4l0.8-2.5h7.2l1.4,1.2
			l1.2-1.2h8.9l1,1.7l1.5-1.7l6.7,5.5l-0.4,3.8c0,0-3.7-3.5-5.5-3.5s-4.4-0.1-4.4-0.1l-3.7,6l-2.2,0.2l2.1,42.4L525,101.5L525,101.5
			z"/>
		<polygon class="st9" points="504.9,45.3 497.7,41.3 497.6,51.2 491,51.2 491,41.3 482.8,45.1 482.8,57.2 490.4,60.9 487.8,101.5 
			500.1,101.5 497.7,60.9 504.9,57.6 		"/>
	</g>
	<path id="darker" class="st10" d="M566.2,121.9H464.8V66.4c0,0,31.9,4.9,50.7,4.9s50.8-4.9,50.8-4.9V121.9L566.2,121.9z"/>
</g>
<g id="arrow">
	<path class="st11" d="M429.1,71l-53-24.5l6.4,12.7h-59.7c0,0-1.8,5.7-1.8,11.3s1.8,10,1.8,10h60.9l-7.5,15L429.1,71L429.1,71
		L429.1,71z"/>
	
		<linearGradient id="SVGID_00000161629291401913676630000013682474189963344027_" gradientUnits="userSpaceOnUse" x1="373.53" y1="48.9923" x2="373.53" y2="88.8523" gradientTransform="matrix(1 0 0 -1 0 139.9623)">
		<stop  offset="0" style="stop-color:#532A15"/>
		<stop  offset="0.45" style="stop-color:#532A15;stop-opacity:0.7"/>
		<stop  offset="0.58" style="stop-color:#E03E17;stop-opacity:0.5"/>
		<stop  offset="1" style="stop-color:#E03E17;stop-opacity:0.5"/>
	</linearGradient>
	<path style="fill:url(#SVGID_00000161629291401913676630000013682474189963344027_);" d="M387.1,78.4h-62.8
		c-0.5-1.6-1.2-4.6-1.2-7.9c0-3.5,0.8-7.1,1.3-9.1H386l-5.2-10.3L423.9,71L380.8,91L387.1,78.4L387.1,78.4L387.1,78.4z"/>
	<path class="st13" d="M391.8,75.5h-65.2c-0.3-1.4-0.5-3.1-0.5-5c0-2.2,0.4-4.4,0.7-6.2h63.9l-3.6-7.2L417.1,71l-30.1,13.9
		L391.8,75.5L391.8,75.5L391.8,75.5z"/>
	<path class="st14" d="M387.1,78.4h-62.8c-0.5-1.6-1.2-4.6-1.2-7.9c0-3.5,0.8-7.1,1.3-9.1H386l-5.2-10.3L423.9,71L380.8,91
		L387.1,78.4L387.1,78.4L387.1,78.4z"/>
</g>
<g id="energy">
	<rect x="180.7" y="17.2" class="st6" width="107.6" height="107.6"/>
	
		<linearGradient id="SVGID_00000176738516060633877460000004142312374750521239_" gradientUnits="userSpaceOnUse" x1="-646.6208" y1="-1023.0423" x2="-574.9061" y2="-951.3275" gradientTransform="matrix(0.7071 -0.7071 -0.7071 -0.7071 -31.6101 -1058.8701)">
		<stop  offset="0" style="stop-color:#1D1427"/>
		<stop  offset="0.24" style="stop-color:#372348"/>
		<stop  offset="0.49" style="stop-color:#573B6C"/>
		<stop  offset="0.71" style="stop-color:#72508C"/>
		<stop  offset="0.89" style="stop-color:#835CA0"/>
		<stop  offset="1" style="stop-color:#8963A7"/>
	</linearGradient>
	
		<rect x="183.9" y="20.3" style="fill:url(#SVGID_00000176738516060633877460000004142312374750521239_);" width="101.4" height="101.4"/>
	<polygon class="st16" points="280.4,25.3 280.4,116.8 188.8,116.8 188.8,25.3 	"/>
	<polygon class="st17" points="223.4,60.6 253.6,41.8 237.4,65.2 246,79.1 216.3,97.8 231.2,74.5 	"/>
	<path id="darker-2" class="st10" d="M285.3,121.8H183.8V66.2c0,0,31.9,4.9,50.7,4.9s50.8-4.9,50.8-4.9S285.3,121.8,285.3,121.8z"/>
</g>
<path class="st18" d="M145.3,98.8V83.5h-26.8v-8.6l26.3-33.5h10.5v33.5h6.7v8.6h-6.7v15.3H145.3z M127.6,74.9h17.9V52.4
	C145.5,52.4,127.6,74.9,127.6,74.9z"/>
</svg>
