<?xml version="1.0" encoding="UTF-8"?><svg id="Layer" xmlns="http://www.w3.org/2000/svg" xmlns:xlink="http://www.w3.org/1999/xlink" viewBox="0 0 878.7 141.7"><defs><style>.cls-1{stroke:url(#linear-gradient-2);}.cls-1,.cls-2,.cls-3,.cls-4,.cls-5,.cls-6{stroke-miterlimit:10;}.cls-1,.cls-3,.cls-6{stroke-width:3.37px;}.cls-1,.cls-6{fill:#e2131b;}.cls-7,.cls-8{fill:#020303;}.cls-9{opacity:0;}.cls-9,.cls-2{fill:#fff;}.cls-10{fill:url(#linear-gradient-6);}.cls-2{stroke:#020303;stroke-width:.87px;}.cls-8{opacity:.15;}.cls-8,.cls-11{isolation:isolate;}.cls-12{fill:#7e348b;}.cls-13{fill:#cd141b;}.cls-3,.cls-4,.cls-5{fill:none;}.cls-3,.cls-5{stroke:#1f1f1d;}.cls-4{stroke:#010202;stroke-width:1.74px;}.cls-14{fill:url(#radial-gradient);}.cls-5{stroke-width:1.05px;}.cls-15{fill:url(#linear-gradient-5);}.cls-16{fill:url(#linear-gradient-3);}.cls-6{stroke:url(#linear-gradient);}.cls-11{fill:#e03d15;opacity:.5;}.cls-17{fill:url(#linear-gradient-4);}</style><radialGradient id="radial-gradient" cx="715" cy="54.88" fx="715" fy="54.88" r="68.31" gradientTransform="translate(0 125.73) scale(1 -1)" gradientUnits="userSpaceOnUse"><stop offset="0" stop-color="#f6ee82"/><stop offset=".78" stop-color="#f6ee82"/><stop offset=".91" stop-color="#f6ee82"/><stop offset=".91" stop-color="#f7ee85"/><stop offset=".94" stop-color="#faf4b6"/><stop offset=".96" stop-color="#fdfada"/><stop offset=".97" stop-color="#fefcef"/><stop offset=".99" stop-color="#fffffd"/><stop offset="1" stop-color="#fff"/></radialGradient><linearGradient id="linear-gradient" x1="720.56" y1="27.1" x2="681.73" y2="65.94" gradientTransform="translate(0 125.73) scale(1 -1)" gradientUnits="userSpaceOnUse"><stop offset="0" stop-color="#5c1410"/><stop offset=".1" stop-color="#611912"/><stop offset=".26" stop-color="#722a22"/><stop offset=".48" stop-color="#904c43"/><stop offset=".73" stop-color="#be887f"/><stop offset="1" stop-color="#fbdede"/></linearGradient><linearGradient id="linear-gradient-2" x1="748.07" y1="45.67" x2="709.24" y2="84.51" xlink:href="#linear-gradient"/><linearGradient id="linear-gradient-3" x1="546.96" y1="93.54" x2="546.96" y2="53.57" gradientTransform="translate(0 -1.77)" gradientUnits="userSpaceOnUse"><stop offset="0" stop-color="#542913"/><stop offset=".45" stop-color="#542913" stop-opacity=".7"/><stop offset=".58" stop-color="#e03d15" stop-opacity=".5"/><stop offset="1" stop-color="#e03d15" stop-opacity=".5"/></linearGradient><linearGradient id="linear-gradient-4" x1="-513.85" y1="1259.57" x2="-441.75" y2="1187.47" gradientTransform="translate(-120.07 -1131.23) rotate(-45)" gradientUnits="userSpaceOnUse"><stop offset="0" stop-color="#1d1327"/><stop offset=".24" stop-color="#372348"/><stop offset=".49" stop-color="#573a6c"/><stop offset=".71" stop-color="#714f8b"/><stop offset=".89" stop-color="#825c9f"/><stop offset="1" stop-color="#8862a6"/></linearGradient><linearGradient id="linear-gradient-5" x1="-605.59" y1="1167.84" x2="-533.49" y2="1095.74" xlink:href="#linear-gradient-4"/><linearGradient id="linear-gradient-6" x1="-697.32" y1="1076.1" x2="-625.22" y2="1004" xlink:href="#linear-gradient-4"/></defs><rect class="cls-9" width="878.7" height="141.7"/><g id="oxIcon"><path class="cls-14" d="M783.31,70.85c0,37.7-30.59,68.31-68.31,68.31s-68.31-30.59-68.31-68.31S677.3,2.55,715.01,2.55c37.7,.11,68.31,30.59,68.31,68.31h0Z"/><path class="cls-3" d="M783.2,70.85c0,37.7-30.59,68.31-68.31,68.31s-68.19-30.59-68.19-68.31S677.3,2.55,715.01,2.55s68.19,30.71,68.19,68.31h0Z"/><path class="cls-5" d="M775.4,70.85c0,33.35-27.05,60.4-60.4,60.4s-60.4-27.05-60.4-60.4,27.05-60.28,60.4-60.28,60.4,26.93,60.4,60.28Z"/><path class="cls-6" d="M726.92,79.22c0,14.21-11.57,25.79-25.79,25.79s-25.79-11.57-25.79-25.79,11.57-25.79,25.79-25.79,25.79,11.57,25.79,25.79Z"/><path class="cls-1" d="M754.43,60.65c0,14.21-11.57,25.79-25.79,25.79s-25.79-11.57-25.79-25.79,11.57-25.79,25.79-25.79,25.79,11.57,25.79,25.79Z"/></g><g id="arrow"><path class="cls-11" d="M602.66,71.78l-53.13-24.56,6.43,12.77h-59.89s-1.8,5.75-1.8,11.29,1.8,10.05,1.8,10.05h61.01l-7.57,15.02,53.13-24.56h0Z"/><path class="cls-16" d="M560.61,79.15h-62.97c-.49-1.64-1.2-4.58-1.2-7.88,0-3.5,.78-7.13,1.28-9.12h61.75l-5.22-10.35,43.22,19.98-43.22,19.98,6.35-12.61h0Z"/><path class="cls-13" d="M565.26,76.29h-65.4c-.3-1.39-.56-3.15-.56-5.02,0-2.19,.35-4.46,.7-6.26h64.12l-3.61-7.18,30.16,13.94-30.16,13.94,4.75-9.43h0Z"/><path class="cls-4" d="M560.61,79.15h-62.97c-.49-1.64-1.2-4.58-1.2-7.88,0-3.5,.78-7.13,1.28-9.12h61.75l-5.22-10.35,43.22,19.98-43.22,19.98,6.35-12.61h0Z"/></g><g id="energy"><rect class="cls-7" x="353.13" y="17.68" width="108.21" height="108.21"/><rect class="cls-17" x="356.25" y="20.81" width="101.96" height="101.96"/><polygon class="cls-12" points="453.27 25.75 453.27 117.82 361.2 117.82 361.2 25.75 453.27 25.75"/><polygon class="cls-2" points="396 61.24 426.37 42.41 410.14 65.93 418.73 79.9 388.88 98.73 403.89 75.3 396 61.24"/><path id="darker" class="cls-8" d="M458.22,122.77h-101.96v-55.89s32.11,4.95,50.94,4.95,51.03-4.95,51.03-4.95v55.89Z"/></g><g id="energy-2"><rect class="cls-7" x="223.4" y="17.68" width="108.21" height="108.21"/><rect class="cls-15" x="226.52" y="20.81" width="101.96" height="101.96"/><polygon class="cls-12" points="323.54 25.75 323.54 117.82 231.47 117.82 231.47 25.75 323.54 25.75"/><polygon class="cls-2" points="266.26 61.24 296.64 42.41 280.41 65.93 289 79.9 259.15 98.73 274.16 75.3 266.26 61.24"/><path id="darker-2" class="cls-8" d="M328.48,122.77h-101.96v-55.89s32.11,4.95,50.94,4.95,51.03-4.95,51.03-4.95v55.89Z"/></g><g id="energy-3"><rect class="cls-7" x="93.66" y="17.68" width="108.21" height="108.21"/><rect class="cls-10" x="96.79" y="20.81" width="101.96" height="101.96"/><polygon class="cls-12" points="193.8 25.75 193.8 117.82 101.73 117.82 101.73 25.75 193.8 25.75"/><polygon class="cls-2" points="136.53 61.24 166.9 42.41 150.68 65.93 159.27 79.9 129.42 98.73 144.43 75.3 136.53 61.24"/><path id="darker-3" class="cls-8" d="M198.75,122.77H96.79v-55.89s32.11,4.95,50.94,4.95,51.03-4.95,51.03-4.95v55.89Z"/></g></svg>