<?xml version="1.0" encoding="UTF-8"?><svg id="Layer" xmlns="http://www.w3.org/2000/svg" xmlns:xlink="http://www.w3.org/1999/xlink" viewBox="0 0 878.7 141.7"><defs><style>.cls-1{fill:url(#linear-gradient-2);}.cls-2{fill:#fff;}.cls-3{fill:rgba(255,255,255,0);}.cls-4{fill:url(#linear-gradient-6);}.cls-5{fill:#946137;}.cls-6{fill:#1c2c4c;}.cls-7{fill:#cd141b;}.cls-8{opacity:.15;}.cls-8,.cls-9{fill:#030304;}.cls-8,.cls-10{isolation:isolate;}.cls-11{fill:url(#radial-gradient);}.cls-12{fill:#83a3d5;}.cls-13{fill:url(#linear-gradient-5);}.cls-14{stroke:#030304;}.cls-14,.cls-15{stroke-miterlimit:10;stroke-width:1.73px;}.cls-14,.cls-16{fill:#010202;}.cls-15{fill:none;stroke:#010202;}.cls-17{fill:#7ca5d8;}.cls-18{fill:#3f5ea8;}.cls-19{fill:url(#linear-gradient-7);}.cls-20{fill:#93c6ec;}.cls-21{fill:url(#linear-gradient-3);}.cls-22{fill:url(#linear-gradient);}.cls-10{fill:#e03d15;opacity:.5;}.cls-23{fill:url(#linear-gradient-4);}.cls-24{fill:#342217;}.cls-25{fill:#0f468e;}</style><linearGradient id="linear-gradient" x1="676.6" y1="415.15" x2="676.6" y2="278.85" gradientTransform="translate(0 -276.15)" gradientUnits="userSpaceOnUse"><stop offset="0" stop-color="#c2dcf4"/><stop offset="1" stop-color="#275387"/></linearGradient><radialGradient id="radial-gradient" cx="676.5" cy="355.55" fx="676.5" fy="355.55" r="59.1" gradientTransform="translate(0 -276.15)" gradientUnits="userSpaceOnUse"><stop offset="0" stop-color="#fff" stop-opacity=".7"/><stop offset=".13" stop-color="#f9fbfe" stop-opacity=".68"/><stop offset=".28" stop-color="#e4e9f7" stop-opacity=".62"/><stop offset=".44" stop-color="#c3cdea" stop-opacity=".53"/><stop offset=".62" stop-color="#93a7d6" stop-opacity=".4"/><stop offset=".79" stop-color="#5673b7" stop-opacity=".23"/><stop offset=".98" stop-color="#2e509e" stop-opacity=".03"/><stop offset="1" stop-color="#2c4c9b" stop-opacity="0"/></radialGradient><linearGradient id="linear-gradient-2" x1="528.55" y1="51.11" x2="528.55" y2="90.87" gradientTransform="translate(0 143.44) scale(1 -1)" gradientUnits="userSpaceOnUse"><stop offset="0" stop-color="#542913"/><stop offset=".45" stop-color="#542913" stop-opacity=".7"/><stop offset=".58" stop-color="#e03d15" stop-opacity=".5"/><stop offset="1" stop-color="#e03d15" stop-opacity=".5"/></linearGradient><linearGradient id="linear-gradient-3" x1="-629.22" y1="-1028.75" x2="-557.52" y2="-957.04" gradientTransform="translate(78.7 -1049.25) rotate(-45) scale(1 -1)" gradientUnits="userSpaceOnUse"><stop offset="0" stop-color="#462c1b"/><stop offset=".05" stop-color="#58351a"/><stop offset=".1" stop-color="#683f16"/><stop offset=".32" stop-color="#77491f"/><stop offset=".75" stop-color="#8d5b32"/><stop offset="1" stop-color="#946137"/></linearGradient><linearGradient id="linear-gradient-4" x1="193.45" y1="394.25" x2="193.45" y2="294.85" gradientTransform="translate(0 -272.15)" gradientUnits="userSpaceOnUse"><stop offset=".16" stop-color="#823a13"/><stop offset=".18" stop-color="#985c1a"/><stop offset=".22" stop-color="#ae7d22"/><stop offset=".26" stop-color="#c39d26"/><stop offset=".3" stop-color="#d6b92e"/><stop offset=".35" stop-color="#e4cf36"/><stop offset=".41" stop-color="#efe036"/><stop offset=".48" stop-color="#f6e947"/><stop offset=".58" stop-color="#f8ea4e"/><stop offset=".86" stop-color="#f6ea4d"/><stop offset="1" stop-color="#fcf4f9"/></linearGradient><linearGradient id="linear-gradient-5" x1="193.45" y1="289.61" x2="193.45" y2="441.51" gradientTransform="translate(0 -272.15)" gradientUnits="userSpaceOnUse"><stop offset=".26" stop-color="#f6ea4d"/><stop offset=".86" stop-color="#803813"/></linearGradient><linearGradient id="linear-gradient-6" x1="193.55" y1="392.85" x2="193.55" y2="296.32" gradientTransform="translate(0 -272.15)" gradientUnits="userSpaceOnUse"><stop offset=".16" stop-color="#803813"/><stop offset=".17" stop-color="#8c471e"/><stop offset=".18" stop-color="#a26b3c"/><stop offset=".2" stop-color="#b78954"/><stop offset=".22" stop-color="#c7a468"/><stop offset=".24" stop-color="#d7bb7a"/><stop offset=".26" stop-color="#e2cc88"/><stop offset=".3" stop-color="#ead891"/><stop offset=".34" stop-color="#eede97"/><stop offset=".46" stop-color="#efe097"/><stop offset=".7" stop-color="#803813"/><stop offset=".73" stop-color="#e6d234"/><stop offset=".74" stop-color="#ebd948"/><stop offset=".75" stop-color="#eede6d"/><stop offset=".77" stop-color="#f0e28a"/><stop offset=".79" stop-color="#f8ebaa"/><stop offset=".8" stop-color="#f8edbf"/><stop offset=".83" stop-color="#faf0cf"/><stop offset=".85" stop-color="#fcf2da"/><stop offset=".89" stop-color="#fdf4e1"/><stop offset=".99" stop-color="#fdf5e3"/></linearGradient><linearGradient id="linear-gradient-7" x1="193.25" y1="310.53" x2="193.25" y2="459.52" gradientTransform="translate(0 -272.15)" gradientUnits="userSpaceOnUse"><stop offset=".26" stop-color="#f6ea4d"/><stop offset=".77" stop-color="#803813"/></linearGradient></defs><rect class="cls-3" width="878.7" height="141.7"/><g id="ocean"><polygon class="cls-16" points="737.5 106.1 737.5 35.6 676.6 .4 615.5 35.6 615.5 106.1 676.6 141.3 737.5 106.1"/><polygon class="cls-22" points="735.7 105 735.7 36.8 676.6 2.7 617.5 36.8 617.5 105 676.6 139 735.7 105"/><polygon class="cls-12" points="731.7 102.7 731.7 39 676.6 7.1 621.4 39 621.4 102.7 676.6 134.6 731.7 102.7"/><path class="cls-25" d="M731.7,79.3c-2.5-2.3-7.3-3.3-15.5-4.3-8-1.1-12-1.5-14-1.5-12.7-.1-13.5,3.4-24,3.5-2.8,0-10.3-1.5-25.7-4.7-8.8-1.8-11.5-2.5-16-2.1-6.2,.5-11.4,2.6-15.2,4.8v27.8l55.3,31.9,55.1-31.9v-23.5h0Z"/><path class="cls-6" d="M676.7,117.4h0c24.8-.5,36.9-25.5,25.4-52.9-.9-2.3-2.2-4.8-3.7-7.4-21.9-40-21.9-39.8-21.9-39.8,0,0,0-.2-21.9,39.8-1.4,2.6-2.6,5.1-3.7,7.4-11.5,27.4,.6,52.5,25.4,52.9h0"/><path class="cls-20" d="M676.7,115.9h0c23.5-.5,34.9-24.1,24.1-50.1-.9-2.2-2.1-4.6-3.4-7.1-20.7-37.9-20.7-37.7-20.7-37.7,0,0,0-.2-20.7,37.7-1.3,2.5-2.5,4.7-3.4,7.1-11.1,25.9,.3,49.7,24.1,50.1h0"/><path class="cls-17" d="M676.6,113.2h0c21.7-.3,32.1-22.1,22.1-45.9-.8-2.1-2-4.2-3.2-6.5-18.9-34.8-18.9-34.6-18.9-34.6,0,0,0-.2-19.1,34.6-1.2,2.2-2.2,4.3-3.2,6.5-9.8,23.7,.7,45.4,22.3,45.9h0"/><path class="cls-18" d="M701,73.4c-11.5,.1-12.6,3.4-22.8,3.5-2.8,0-10.3-1.5-25.5-4.6-6.6,21.8,3.9,40.5,24,40.8h.1c19.6-.3,30-18.4,24.2-39.7h0Z"/><circle class="cls-11" cx="676.5" cy="79.4" r="59.1"/></g><g id="arrow"><path class="cls-10" d="M584,72.4l-52.8-24.4,6.4,12.7h-59.6s-1.8,5.7-1.8,11.2,1.8,10,1.8,10h60.7l-7.5,14.9,52.8-24.4h0Z"/><path class="cls-1" d="M542.2,79.8h-62.7c-.5-1.6-1.2-4.6-1.2-7.8,0-3.5,.8-7.1,1.3-9.1h61.4l-5.2-10.3,43,19.9-43,19.9,6.4-12.6h0Z"/><path class="cls-7" d="M546.8,76.9h-65.1c-.3-1.4-.5-3.1-.5-5,0-2.2,.4-4.4,.7-6.2h63.8l-3.6-7.1,30,13.9-30,13.9,4.7-9.5h0Z"/><path class="cls-15" d="M542.2,79.8h-62.7c-.5-1.6-1.2-4.6-1.2-7.8,0-3.5,.8-7.1,1.3-9.1h61.4l-5.2-10.3,43,19.9-43,19.9,6.4-12.6h0Z"/></g><path class="cls-2" d="M426.1,110.5v-7.4c2.4-2.6,4.2-5.3,5.4-8.1s2.2-6.1,2.9-9.8c.7-3.7,1-7.5,1-11.4s-.3-7.9-1-11.5-1.6-6.8-2.9-9.7-3.1-5.7-5.5-8.3v-7.4c4.5,2.4,8.2,5.6,11.3,9.5s5.4,8.3,7.1,13.1c1.7,4.8,2.5,9.5,2.5,14.3s-.8,9.4-2.4,14-3.9,9-6.8,12.9c-2.9,3.8-6.7,7.1-11.6,9.8h0Z"/><g id="steel"><rect class="cls-9" x="307.4" y="18.6" width="107.7" height="107.7"/><rect class="cls-21" x="310.5" y="21.7" width="101.4" height="101.4"/><rect class="cls-5" x="315.4" y="26.6" width="91.6" height="91.6"/><g><path class="cls-24" d="M370.7,102.7l2.2-42.6-5.2-.6-.8-1.8h-4l-.7,1.9-6-.3v-11h7l.5,2.2,3.3,.4,.8-2.5h7.2l1.4,1.2,1.2-1.2h8.9l1,1.7,1.5-1.7,6.7,5.5-.4,3.8s-3.7-3.5-5.5-3.5-4.4-.1-4.4-.1l-3.7,6-2.2,.2,2.1,42.4h-10.9Z"/><polygon class="cls-24" points="350.6 46.5 343.4 42.5 343.3 52.4 336.7 52.4 336.7 42.5 328.4 46.3 328.4 58.4 336.1 62.1 333.4 102.7 345.8 102.7 343.4 62.1 350.6 58.8 350.6 46.5"/></g><path id="darker" class="cls-8" d="M411.9,123.2h-101.4v-55.6s32,4.9,50.7,4.9,50.8-4.9,50.8-4.9v55.6h-.1Z"/></g><path class="cls-2" d="M296.9,36.8v7.4c-2.4,2.6-4.2,5.4-5.5,8.3-1.3,2.9-2.2,6.2-2.9,9.8-.6,3.6-1,7.4-1,11.3s.3,7.8,1,11.3c.6,3.6,1.6,6.8,2.9,9.8,1.3,2.9,3.1,5.7,5.5,8.3v7.4c-3.1-1.7-5.4-3.2-6.8-4.5s-2.7-2.7-4-4.3c-3.3-4.1-5.8-8.6-7.5-13.5s-2.6-9.8-2.6-14.5c0-6.1,1.4-12.2,4.1-18.2,1.9-4.3,4.4-8.1,7.3-11.4,1.1-1.3,2.3-2.4,3.5-3.4,1.3-1,3.3-2.3,6-3.8h0Z"/><g id="mln"><polygon id="obram_czarne" class="cls-14" points="156.7 19.7 140.7 35.7 140.7 109.2 156.7 125.2 230.2 125.2 246.1 109.2 246.1 35.7 230.2 19.7 156.7 19.7"/><polygon id="obram_zolte" class="cls-23" points="158.7 22.7 143.8 37.8 143.8 107.1 158.7 122.1 228.1 122.1 243.1 107.1 243.1 37.8 228.1 22.7 158.7 22.7"/><polygon id="tlo_wew" class="cls-13" points="159.8 24.2 145.2 38.8 145.2 106.1 159.8 120.7 227.1 120.7 241.7 106.1 241.7 38.8 227.1 24.2 159.8 24.2"/><path id="obram_skosne" class="cls-4" d="M234.7,91.1c-2.7,0-4.8-2.2-4.8-4.8v-27.6c0-2.7,2.2-4.8,4.8-4.8h6.9v-15l-14.5-14.6h-15.1v6.9c0,2.7-2.2,4.8-4.8,4.8h-27.5c-2.7,0-4.8-2.2-4.8-4.8v-6.9h-15l-14.6,14.6v15.1h6.9c2.7,0,4.8,2.2,4.8,4.8v27.5c0,2.7-2.2,4.8-4.8,4.8h-6.9v15l14.6,14.6h15.1v-6.9c0-2.7,2.2-4.8,4.8-4.8h27.5c2.7,0,4.8,2.2,4.8,4.8v6.9h15.1l14.6-14.6v-15h-7.1Z"/><path id="tlo_zew" class="cls-19" d="M234.4,92.7c-3.3,0-6-3.3-6-6.6v-27.3c0-3.3,2.7-6.6,6-6.6h5.6v-12.3l-14.2-14.1h-12.2v5.6c0,3.3-3.3,6-6.6,6h-27.4c-3.3,0-6.6-2.7-6.6-6v-5.6h-12.4l-14.1,14.1v12.3h5.6c3.3,0,6,3.3,6,6.6v27.4c0,3.3-2.7,6.6-6,6.6h-5.6v12.2l14.1,14.1h12.3v-5.6c0-3.3,3.3-6,6.6-6h27.5c3.3,0,6.6,2.7,6.6,6v5.6h12.3l14.1-14.1v-12.3h-5.6Z"/></g><path d="M185.32,70.44c-4.67-3.07-7-6.78-7-11.11,0-2.26,.68-4.42,2.03-6.47,1.35-2.06,3.21-3.58,5.58-4.58,2.37-1,5.16-1.5,8.39-1.5,4.75,0,8.41,1.04,10.98,3.13,2.56,2.09,3.84,4.67,3.84,7.76,0,1.94-.56,3.88-1.69,5.83-1.12,1.95-3.29,4.05-6.49,6.29,6.89,3.6,10.34,8.13,10.34,13.59,0,3.84-1.57,7.17-4.69,10-3.13,2.83-7.61,4.24-13.43,4.24s-10.23-1.31-13.15-3.94c-2.92-2.63-4.38-5.68-4.38-9.15,0-2.53,.8-5.05,2.4-7.55,1.6-2.5,4.03-4.68,7.28-6.53Zm4.78,3.24c-2.46,2.05-3.96,3.76-4.48,5.12s-.79,2.74-.79,4.14c0,2.82,.98,4.97,2.93,6.47,1.95,1.5,4.08,2.24,6.4,2.24s4.2-.63,5.87-1.88c1.67-1.25,2.5-2.88,2.5-4.86,0-1.55-.49-2.91-1.46-4.09-.97-1.18-3.12-2.71-6.46-4.58l-4.51-2.55Zm5.82-6.64c3.23-2.53,4.84-5.21,4.84-8.04,0-1.9-.68-3.4-2.04-4.51-1.36-1.11-3.1-1.67-5.22-1.67s-3.78,.51-4.99,1.54c-1.21,1.02-1.82,2.29-1.82,3.79,0,1.33,.51,2.59,1.52,3.78,1.01,1.19,3.58,2.89,7.7,5.11Z"/></svg>