<?xml version="1.0" encoding="utf-8"?>
<!-- Generator: Adobe Illustrator 26.3.1, SVG Export Plug-In . SVG Version: 6.00 Build 0)  -->
<svg version="1.1" id="Layer" xmlns="http://www.w3.org/2000/svg" xmlns:xlink="http://www.w3.org/1999/xlink" x="0px" y="0px"
	 viewBox="0 0 878.7 141.7" style="enable-background:new 0 0 878.7 141.7;" xml:space="preserve">
<style type="text/css">
	.st0{fill:none;}
	.st1{fill:#1F1F1E;}
	.st2{fill:#FFFFFF;fill-opacity:0;}
	.st3{fill:url(#SVGID_1_);stroke:#030304;stroke-width:2.53;stroke-miterlimit:10;}
	.st4{fill:url(#SVGID_00000129902047207536001100000018089321466230697139_);}
	.st5{fill:none;stroke:#030304;stroke-width:3.79;stroke-miterlimit:10;}
	.st6{fill:none;stroke:#030304;stroke-width:1.89;stroke-miterlimit:10;}
	.st7{fill:#030304;}
	.st8{fill:none;stroke:#030304;stroke-width:2.53;stroke-linecap:square;stroke-miterlimit:10;}
	.st9{opacity:0.31;fill:url(#darker_00000044866948477280538160000013540832141408870581_);enable-background:new    ;}
	.st10{opacity:0.5;fill:#E03E17;enable-background:new    ;}
	.st11{fill:url(#SVGID_00000124126051073340260260000012453613961256348088_);}
	.st12{fill:#CE141E;}
	.st13{fill:none;stroke:#020303;stroke-width:1.73;stroke-miterlimit:10;}
	.st14{fill:url(#external-border_00000127756501650633290790000010899779941133874350_);}
	.st15{fill:url(#internal-border_00000142141369133035255800000006302550395329761979_);}
	.st16{fill:url(#bg_00000057867546018168344100000008009940570630997951_);}
	.st17{opacity:0.1;fill:url(#bgPattern_00000119109629727078193160000010612519863065566110_);enable-background:new    ;}
	.st18{fill:url(#SVGID_00000165234873169508067560000012139899144546334614_);}
	.st19{fill:#7F358B;}
	.st20{fill:#FFFFFF;stroke:#030304;stroke-width:0.68;stroke-miterlimit:10;}
	.st21{opacity:0.15;fill:#030304;enable-background:new    ;}
	.st22{fill:#FFFFFF;}
</style>
<pattern  y="141.7" width="19.7" height="21.7" patternUnits="userSpaceOnUse" id="Nowy_wzorek" viewBox="0 -21.7 19.7 21.7" style="overflow:visible;">
	<g>
		<rect y="-21.7" class="st0" width="19.7" height="21.7"/>
		<g>
			<rect y="-21.7" class="st0" width="19.7" height="21.7"/>
			<g>
				<rect y="-21.7" class="st0" width="19.7" height="21.7"/>
				<g>
					<rect y="-21.7" class="st0" width="19.7" height="21.7"/>
					<g>
						<rect y="-21.7" class="st0" width="19.7" height="21.7"/>
						<g>
							<rect y="-21.7" class="st0" width="19.7" height="21.7"/>
							<path class="st1" d="M16.6-8.7c2.1-2.1,2.1-5.6,0-7.7l-1.2-1.2c-2.1-2.1-5.6-2.1-7.8,0L3.1-13C1-10.9,1-7.4,3.1-5.3l1.2,1.2
								C6.4-2,9.9-2,12-4.1C12-4.1,16.6-8.7,16.6-8.7z"/>
						</g>
					</g>
				</g>
			</g>
		</g>
	</g>
</pattern>
<rect y="0" class="st2" width="878.7" height="141.7"/>
<g id="tr">
	
		<linearGradient id="SVGID_1_" gradientUnits="userSpaceOnUse" x1="590.37" y1="-4.9777" x2="590.37" y2="104.0323" gradientTransform="matrix(1 0 0 -1 0 120.4723)">
		<stop  offset="0" style="stop-color:#951919"/>
		<stop  offset="0.21" style="stop-color:#B13C1E"/>
		<stop  offset="0.44" style="stop-color:#CB5E26"/>
		<stop  offset="0.66" style="stop-color:#E27933"/>
		<stop  offset="0.85" style="stop-color:#EF8D3A"/>
		<stop  offset="1" style="stop-color:#F3933C"/>
	</linearGradient>
	<rect x="513.2" y="16.4" class="st3" width="154.2" height="109"/>
	
		<radialGradient id="SVGID_00000120557709778434533570000003587187219538909344_" cx="590.43" cy="49.5273" r="62.0864" gradientTransform="matrix(1 0 0 -1 0 120.4723)" gradientUnits="userSpaceOnUse">
		<stop  offset="0" style="stop-color:#F3933C;stop-opacity:0.5"/>
		<stop  offset="1" style="stop-color:#D24016"/>
	</radialGradient>
	
		<rect x="518" y="21.2" style="fill:url(#SVGID_00000120557709778434533570000003587187219538909344_);" width="144.8" height="99.4"/>
	<g id="logo">
		<g>
			<circle class="st5" cx="590.4" cy="67.3" r="28"/>
			<path class="st6" d="M590.4,39.3c0,0,14.5,5.9,14.5,28s-14.5,28-14.5,28"/>
			<path class="st6" d="M590.4,39.3c0,0-14.5,5.9-14.5,28s14.5,28,14.5,28"/>
			<line class="st6" x1="590.4" y1="39.3" x2="590.4" y2="95.4"/>
			<line class="st6" x1="562.4" y1="67.3" x2="618.5" y2="67.3"/>
			<path class="st6" d="M568.6,49.7c0,0,8.2,4.2,21.7,4.2s21.7-4.2,21.7-4.2"/>
			<path class="st6" d="M568.6,85.4c0-0.1,8.2-4.2,21.7-4.2s21.7,4.2,21.7,4.2"/>
			<polygon class="st7" points="607.2,44.3 614.7,37.5 604.8,35.5 626.3,29.3 621.4,51.7 618.5,40.6 611.4,48.8 			"/>
			<polyline class="st8" points="590.4,101.8 580.3,101.8 584.6,101.8 584.6,111.8 			"/>
			<polyline class="st8" points="597.6,111.8 597.6,101.8 595.7,101.8 593.3,108.5 592.6,108.5 590.6,105.4 589,105.4 589,111.8 			
				"/>
			<path class="st7" d="M581.1,108.2c0,1.5-3.8,3.8-5.3,3.8s-10.6,0.6-10.6-0.9s9.1-4.7,10.6-4.7
				C577.3,106.5,581.1,106.6,581.1,108.2z"/>
			<path class="st7" d="M576.5,104.7c-0.9,0.8-4.3-0.5-5-1.4s-5.6-6.2-4.7-6.9s7.3,3.4,8.1,4.3C575.7,101.6,577.4,104,576.5,104.7
				L576.5,104.7L576.5,104.7z"/>
			<path class="st7" d="M569.8,106.5c-0.3,1.1-3.5,2.4-4.8,2.2c-1.1-0.3-10.7-1-10.5-2.2s10.2-2.4,11.4-2.2
				C567.2,104.6,570.1,105.4,569.8,106.5L569.8,106.5z"/>
			<path class="st7" d="M567.3,103.5c-1.1,0.4-3.9-1.8-4.3-2.9s-4.8-9.7-3.8-10.1s7.3,7.4,7.8,8.6
				C567.4,100.2,568.3,103.1,567.3,103.5L567.3,103.5L567.3,103.5z"/>
			<path class="st7" d="M560.4,103c-0.8,1.1-4.4,1.1-5.4,0.5s-10-4.9-9.2-6.1s10.9,1.3,11.9,2C558.6,100,561.1,101.8,560.4,103
				L560.4,103z"/>
			<path class="st7" d="M557.8,98.9c-1.3,0-3-2.9-3-4s-1-10.1,0.3-10.1s4.3,9.1,4.3,10.2C559.2,96,559.1,98.9,557.8,98.9L557.8,98.9
				L557.8,98.9z"/>
			<path class="st7" d="M551.2,91.2c-1.1-0.3-2.3-3.4-2-4.5c0.3-1,1.3-9.8,2.4-9.6c1.1,0.3,2,9.6,1.8,10.6
				C553,88.8,552.3,91.5,551.2,91.2L551.2,91.2L551.2,91.2z"/>
			<path class="st7" d="M551.8,96.2c-1,0.8-4.4-0.4-5.2-1.3c-0.8-1-7.8-7.7-6.8-8.5s9.6,4.7,10.4,5.6S552.7,95.4,551.8,96.2
				L551.8,96.2L551.8,96.2z"/>
			<path class="st7" d="M546,86.7c-1,0.5-4-1.1-4.5-2.2s-5.9-8.6-4.8-9.2c1-0.5,8.1,6.2,8.6,7.2S547,86,546,86.7L546,86.7L546,86.7z
				"/>
			<path class="st7" d="M546.6,83c-0.9-0.4-1.3-3.5-0.9-4.5s2.8-9.7,3.7-9.3s0.1,9.6-0.3,10.6C548.6,80.9,547.5,83.4,546.6,83
				L546.6,83z"/>
			<path class="st7" d="M542.7,77.1c-1,0.3-3.2-2.3-3.4-3.5c-0.3-1.1-3.2-10-2.3-10.2c1-0.3,5.6,8.3,5.8,9.5
				C543.1,73.9,543.7,76.9,542.7,77.1L542.7,77.1L542.7,77.1z"/>
			<path class="st7" d="M544.5,73.2c-0.9-0.5-0.8-3.4-0.3-4.3s3.8-8,4.7-7.5s-1.1,8.6-1.6,9.4C546.7,71.6,545.3,73.7,544.5,73.2
				L544.5,73.2L544.5,73.2z"/>
			<path class="st7" d="M541.8,65.9c-1-0.1-2.4-3-2.3-4.2s-0.1-9.8,0.9-9.8c1,0.1,2.9,9.1,2.8,10.2S542.8,66.1,541.8,65.9z"/>
			<path class="st7" d="M544.3,63c-0.6-0.6,0.4-3.5,1.1-4.2s6.3-7,7-6.2c0.6,0.6-3.9,8.1-4.7,8.7C547,62,545,63.8,544.3,63L544.3,63
				z"/>
			<path class="st7" d="M548.1,53.8c-0.5-0.6,0.3-2.8,0.9-3.4c0.6-0.5,5-5.6,5.6-4.9s-3,6.5-3.7,7.1C550.1,53,548.6,54.3,548.1,53.8
				C548.1,53.8,548.1,53.8,548.1,53.8z"/>
			<path class="st7" d="M543.8,55.1c-0.8-0.3-1.3-3.3-1-4.3c0.3-1,2-9.6,2.8-9.5c0.8,0.3,0.4,9.2,0.1,10.2
				C545.6,52.8,544.7,55.5,543.8,55.1z"/>
			<path class="st7" d="M548.6,48.4c-1-0.4-1.5-3.4-1.1-4.4s2.4-9.2,3.4-8.8c1,0.4,0.5,9.2,0.1,10.2
				C550.6,46.2,549.6,48.8,548.6,48.4L548.6,48.4L548.6,48.4z"/>
			<path class="st7" d="M599.8,107.8c0,1.5,3.8,3.8,5.3,3.8s10.6,0.6,10.6-0.9s-9.1-4.7-10.6-4.7S599.8,106.3,599.8,107.8z"/>
			<path class="st7" d="M604.3,104.3c0.9,0.8,4.3-0.5,5-1.4s5.6-6.2,4.7-6.9c-0.9-0.8-7.3,3.4-8.1,4.3
				C605.2,101.2,603.4,103.6,604.3,104.3L604.3,104.3L604.3,104.3z"/>
			<path class="st7" d="M611,106.1c0.3,1.1,3.5,2.4,4.8,2.2c1.1-0.3,10.7-1,10.5-2.2c-0.3-1.1-10.2-2.4-11.4-2.2
				C613.7,104.2,610.8,105,611,106.1L611,106.1z"/>
			<path class="st7" d="M613.5,103.1c1.1,0.4,3.9-1.8,4.3-2.9s4.8-9.7,3.7-10.1s-7.3,7.4-7.8,8.6
				C613.4,99.8,612.5,102.7,613.5,103.1L613.5,103.1L613.5,103.1z"/>
			<path class="st7" d="M620.5,102.6c0.8,1.1,4.4,1.1,5.4,0.5s9.8-4.9,9.1-6.1c-0.8-1.1-10.9,1.3-11.9,2
				C622.3,99.7,619.7,101.4,620.5,102.6L620.5,102.6L620.5,102.6z"/>
			<path class="st7" d="M623,98.5c1.3,0,3-2.9,3-4s1-10.1-0.3-10.1s-4.3,9.1-4.3,10.2C621.6,95.8,621.8,98.5,623,98.5L623,98.5
				L623,98.5z"/>
			<path class="st7" d="M629.7,90.8c1.1-0.3,2.3-3.4,2-4.5c-0.3-1-1.3-9.8-2.4-9.6c-1.1,0.3-2,9.6-1.8,10.6
				C627.8,88.4,628.6,91.1,629.7,90.8L629.7,90.8L629.7,90.8z"/>
			<path class="st7" d="M629.1,95.8c1,0.8,4.4-0.4,5.2-1.3c0.8-1,7.8-7.7,6.8-8.5s-9.6,4.7-10.4,5.6C630,92.6,628.2,95,629.1,95.8
				L629.1,95.8L629.1,95.8z"/>
			<path class="st7" d="M634.9,86.3c1,0.5,4-1.1,4.5-2.2s5.9-8.6,4.8-9.2c-1-0.5-8.1,6.2-8.6,7.2S633.9,85.8,634.9,86.3L634.9,86.3
				L634.9,86.3z"/>
			<path class="st7" d="M634.3,82.8c0.9-0.4,1.4-3.5,0.9-4.5s-2.8-9.7-3.7-9.3s-0.1,9.6,0.3,10.6C632.3,80.5,633.4,83.1,634.3,82.8
				L634.3,82.8z"/>
			<path class="st7" d="M638.2,76.7c1,0.3,3.2-2.3,3.4-3.5c0.3-1.1,3.3-10,2.3-10.2s-5.6,8.3-5.8,9.5
				C637.8,73.7,637.2,76.6,638.2,76.7L638.2,76.7L638.2,76.7z"/>
			<path class="st7" d="M636.4,72.8c0.9-0.5,0.9-3.4,0.3-4.3c-0.5-0.9-3.9-8-4.7-7.5s1.1,8.6,1.6,9.4
				C634.1,71.3,635.5,73.4,636.4,72.8L636.4,72.8L636.4,72.8z"/>
			<path class="st7" d="M639.1,65.6c1-0.1,2.4-3,2.3-4.2c-0.1-1.1,0.1-10-0.9-9.8c-1,0.1-2.9,9.1-2.8,10.2
				C637.7,62.9,638,65.7,639.1,65.6z"/>
			<path class="st7" d="M636.5,62.7c0.6-0.6-0.4-3.5-1.1-4.2s-6.3-7-7-6.2c-0.6,0.6,3.9,8.1,4.7,8.7S635.9,63.4,636.5,62.7
				L636.5,62.7z"/>
			<path class="st7" d="M632.8,53.5c0.5-0.6-0.3-2.8-0.9-3.4s-5-5.6-5.6-4.9s3,6.5,3.7,7.1C630.6,52.7,632.2,54,632.8,53.5
				L632.8,53.5z"/>
			<path class="st7" d="M636.9,54.8c0.8-0.3,1.3-3.3,1-4.3c-0.3-1-2-9.6-2.8-9.5c-0.8,0.3-0.4,9.2-0.1,10.2
				C635.3,52.4,636.2,55.1,636.9,54.8L636.9,54.8z"/>
			<path class="st7" d="M632.2,48c1-0.4,1.5-3.4,1.1-4.4s-2.4-9.2-3.4-8.8c-1,0.4-0.5,9.2-0.1,10.2C630.2,45.9,631.2,48.4,632.2,48
				L632.2,48L632.2,48z"/>
		</g>
	</g>
	
		<linearGradient id="darker_00000028308083271553140480000004631441503557005196_" gradientUnits="userSpaceOnUse" x1="590.38" y1="-4.9777" x2="590.38" y2="64.465" gradientTransform="matrix(1 0 0 -1 0 120.4723)">
		<stop  offset="0" style="stop-color:#1F1F1E"/>
		<stop  offset="1" style="stop-color:#3F3E3C"/>
	</linearGradient>
	
		<path id="darker" style="opacity:0.31;fill:url(#darker_00000028308083271553140480000004631441503557005196_);enable-background:new    ;" d="
		M667,56.2c-2.4,4.8-43.1,12.6-76.5,12.6s-74.8-8.6-77.2-12.6v69.2h154.2V57C667.4,56.1,667.1,55.7,667,56.2L667,56.2L667,56.2z"/>
</g>
<g id="arrow">
	<path class="st10" d="M487.6,70.9l-53-24.5l6.4,12.7h-59.8c0,0-1.8,5.7-1.8,11.3s1.8,10,1.8,10h60.9l-7.5,15L487.6,70.9L487.6,70.9
		L487.6,70.9z"/>
	
		<linearGradient id="SVGID_00000158746948930549938780000012417386457868199348_" gradientUnits="userSpaceOnUse" x1="431.95" y1="46.5723" x2="431.95" y2="86.4723" gradientTransform="matrix(1 0 0 -1 0 137.4823)">
		<stop  offset="0" style="stop-color:#532A15"/>
		<stop  offset="0.45" style="stop-color:#532A15;stop-opacity:0.7"/>
		<stop  offset="0.58" style="stop-color:#E03E17;stop-opacity:0.5"/>
		<stop  offset="1" style="stop-color:#E03E17;stop-opacity:0.5"/>
	</linearGradient>
	<path style="fill:url(#SVGID_00000158746948930549938780000012417386457868199348_);" d="M445.6,78.3h-62.9
		c-0.5-1.6-1.2-4.6-1.2-7.9c0-3.5,0.8-7.1,1.3-9.1h61.6L439.2,51l43.1,20l-43.1,19.9L445.6,78.3L445.6,78.3L445.6,78.3z"/>
	<path class="st12" d="M450.2,75.4H385c-0.3-1.4-0.5-3.1-0.5-5c0-2.2,0.4-4.4,0.7-6.2h64l-3.6-7.2l30.1,13.9l-30.1,13.9L450.2,75.4
		L450.2,75.4L450.2,75.4z"/>
	<path class="st13" d="M445.6,78.3h-62.9c-0.5-1.6-1.2-4.6-1.2-7.9c0-3.5,0.8-7.1,1.3-9.1h61.6L439.2,51l43.1,20l-43.1,19.9
		L445.6,78.3L445.6,78.3L445.6,78.3z"/>
</g>
<g id="prodBg">
	
		<linearGradient id="external-border_00000043425366295743996190000007640744824886498978_" gradientUnits="userSpaceOnUse" x1="351.505" y1="-8.4827" x2="233.485" y2="109.5472" gradientTransform="matrix(1 0 0 -1 0 121.4823)">
		<stop  offset="0" style="stop-color:#9E9D9C"/>
		<stop  offset="0.54" style="stop-color:#010202"/>
		<stop  offset="1" style="stop-color:#9E9D9C"/>
	</linearGradient>
	
		<rect id="external-border" x="232.7" y="12.7" style="fill:url(#external-border_00000043425366295743996190000007640744824886498978_);" width="119.7" height="116.4"/>
	
		<linearGradient id="internal-border_00000169539425850175014760000016743937287388944268_" gradientUnits="userSpaceOnUse" x1="292.545" y1="-4.5877" x2="292.545" y2="105.6623" gradientTransform="matrix(1 0 0 -1 0 121.4823)">
		<stop  offset="0" style="stop-color:#462C1B"/>
		<stop  offset="1" style="stop-color:#B18048"/>
	</linearGradient>
	
		<rect id="internal-border" x="235.7" y="15.8" style="fill:url(#internal-border_00000169539425850175014760000016743937287388944268_);" width="113.6" height="110.2"/>
	
		<linearGradient id="bg_00000178884744148435817020000008398189456573123479_" gradientUnits="userSpaceOnUse" x1="292.51" y1="-1.7977" x2="292.51" y2="102.9823" gradientTransform="matrix(1 0 0 -1 0 121.4823)">
		<stop  offset="0" style="stop-color:#946137"/>
		<stop  offset="1" style="stop-color:#805127"/>
	</linearGradient>
	
		<rect id="bg" x="238.4" y="18.5" style="fill:url(#bg_00000178884744148435817020000008398189456573123479_);" width="108.1" height="104.8"/>
	
		<pattern  id="bgPattern_00000004538362195032993260000013094414208935467177_" xlink:href="#Nowy_wzorek" patternTransform="matrix(1 0 0 -1 -393.45 -32820.8242)">
	</pattern>
	
		<rect id="bgPattern" x="238.4" y="18.5" style="opacity:0.1;fill:url(#bgPattern_00000004538362195032993260000013094414208935467177_);enable-background:new    ;" width="108.1" height="104.8"/>
</g>
<g id="energy">
	<rect x="250.2" y="28.6" class="st7" width="84.6" height="84.6"/>
	
		<linearGradient id="SVGID_00000152986446583876533210000002077220367656322966_" gradientUnits="userSpaceOnUse" x1="-617.1769" y1="-1102.809" x2="-560.8064" y2="-1046.4283" gradientTransform="matrix(0.7071 -0.7071 -0.7071 -0.7071 -50.8901 -1105.4102)">
		<stop  offset="0" style="stop-color:#1D1427"/>
		<stop  offset="0.24" style="stop-color:#372348"/>
		<stop  offset="0.49" style="stop-color:#573B6C"/>
		<stop  offset="0.71" style="stop-color:#72508C"/>
		<stop  offset="0.89" style="stop-color:#835CA0"/>
		<stop  offset="1" style="stop-color:#8963A7"/>
	</linearGradient>
	
		<rect x="252.6" y="31.1" style="fill:url(#SVGID_00000152986446583876533210000002077220367656322966_);" width="79.7" height="79.7"/>
	<polygon class="st19" points="328.5,35 328.5,106.9 256.5,106.9 256.5,35 	"/>
	<polygon class="st20" points="283.7,62.7 307.5,48 294.8,66.4 301.5,77.3 278.1,92 289.9,73.7 	"/>
	<path id="darker-2" class="st21" d="M332.4,110.8h-79.7V67.1c0,0,25.1,3.9,39.8,3.9s39.9-3.9,39.9-3.9L332.4,110.8L332.4,110.8z"/>
</g>
<path class="st22" d="M208,73.7v-7.4h17.8v7.4H208z"/>
</svg>
