<?xml version="1.0" encoding="UTF-8"?><svg id="Layer" xmlns="http://www.w3.org/2000/svg" xmlns:xlink="http://www.w3.org/1999/xlink" viewBox="0 0 878.74 141.73"><defs><style>.cls-1{fill:url(#linear-gradient-2);}.cls-2{fill:#fff;opacity:0;}.cls-3{fill:#cd141b;}.cls-4{fill:none;stroke:#010202;stroke-miterlimit:10;stroke-width:1.73px;}.cls-5{fill:#3d4920;}.cls-6{fill:url(#linear-gradient-5);}.cls-7{fill:#96c227;}.cls-8,.cls-9{fill:#030304;}.cls-10{fill:url(#linear-gradient);}.cls-11{fill:#e03d15;opacity:.5;}.cls-11,.cls-9,.cls-12{isolation:isolate;}.cls-9{opacity:.12;}.cls-13{fill:url(#linear-gradient-4);}.cls-12{fill:url(#linear-gradient-3);opacity:.4;}</style><linearGradient id="linear-gradient" x1="-432.97" y1="-1347.69" x2="-361.6" y2="-1276.32" gradientTransform="translate(-60.59 -1137.45) rotate(-45) scale(1 -1)" gradientUnits="userSpaceOnUse"><stop offset="0" stop-color="#3d4920"/><stop offset=".14" stop-color="#4b5e24"/><stop offset=".42" stop-color="#69852b"/><stop offset=".66" stop-color="#81a42c"/><stop offset=".86" stop-color="#8fb923"/><stop offset="1" stop-color="#96c227"/></linearGradient><linearGradient id="linear-gradient-2" x1="440.62" y1="51.17" x2="440.62" y2="90.97" gradientTransform="translate(0 142.27) scale(1 -1)" gradientUnits="userSpaceOnUse"><stop offset="0" stop-color="#542913"/><stop offset=".45" stop-color="#542913" stop-opacity=".7"/><stop offset=".58" stop-color="#e03d15" stop-opacity=".5"/><stop offset="1" stop-color="#e03d15" stop-opacity=".5"/></linearGradient><linearGradient id="linear-gradient-3" x1="297.76" y1="11.54" x2="297.76" y2="130.6" gradientTransform="translate(0 142.27) scale(1 -1)" gradientUnits="userSpaceOnUse"><stop offset="0" stop-color="#ffdc0e"/><stop offset="0" stop-color="#ffdb0f"/><stop offset=".05" stop-color="#f9ba17"/><stop offset=".1" stop-color="#f49a15"/><stop offset=".16" stop-color="#ef7a17"/><stop offset=".22" stop-color="#e86013"/><stop offset=".27" stop-color="#e8491b"/><stop offset=".34" stop-color="#e5381b"/><stop offset=".41" stop-color="#e62f1d"/><stop offset=".5" stop-color="#e52c1d"/><stop offset=".59" stop-color="#e62f1d"/><stop offset=".66" stop-color="#e5381b"/><stop offset=".73" stop-color="#e8491b"/><stop offset=".78" stop-color="#e86013"/><stop offset=".84" stop-color="#ef7a17"/><stop offset=".9" stop-color="#f49a15"/><stop offset=".95" stop-color="#f9ba17"/><stop offset="1" stop-color="#ffdb0f"/><stop offset="1" stop-color="#ffdc0e"/></linearGradient><linearGradient id="linear-gradient-4" x1="297.76" y1="13.13" x2="297.76" y2="129.01" xlink:href="#linear-gradient-3"/><linearGradient id="linear-gradient-5" x1="-636.94" y1="-1143.72" x2="-565.57" y2="-1072.36" xlink:href="#linear-gradient"/></defs><rect class="cls-2" width="878.74" height="141.73"/><g id="microbe"><rect class="cls-8" x="532.66" y="17.64" width="107.11" height="107.11"/><rect class="cls-10" x="535.75" y="20.73" width="100.93" height="100.93"/><rect class="cls-7" x="540.64" y="25.63" width="91.13" height="91.13"/><g id="microbes"><polygon class="cls-5" points="587.38 80.35 583.08 80.86 583.68 85.16 579.39 84.46 578.69 88.76 574.83 86.79 572.94 90.65 569.76 87.65 566.85 90.82 564.69 87.04 560.91 89.11 560.06 84.9 555.85 85.84 556.19 81.55 551.9 81.12 553.53 77.16 549.58 75.53 552.33 72.18 548.98 69.43 552.59 67.03 550.18 63.51 554.31 62.31 553.1 58.1 557.39 58.18 557.48 53.88 561.61 55.17 562.89 51.14 566.41 53.55 568.9 50.02 571.57 53.46 574.91 50.8 576.46 54.84 580.5 53.37 580.76 57.66 585.05 57.41 584.02 61.62 588.23 62.57 586 66.26 589.78 68.49 586.51 71.41 589.43 74.59 585.48 76.4 587.38 80.35"/><polygon class="cls-5" points="624.4 63.08 622.94 63.6 622.94 65.57 620.7 64.89 619.33 66.17 617.09 64.71 614.86 65.31 608.59 66.17 605.93 65.91 603.18 60.67 600.09 59.73 597.6 57.07 594.59 55.61 592.27 52.77 589.43 51.48 587.71 48.31 585.31 46.24 584.37 43.84 582.65 41.95 582.48 39.97 581.02 38.26 582.22 36.97 582.31 35.07 583.6 35.16 584.8 33.79 586.6 34.57 589.52 31.82 591.75 33.44 594.33 33.61 596.91 35.51 599.92 36.36 601.55 40.58 604.81 41.86 607.04 44.61 610.14 46.33 612.02 48.99 614.95 50.97 619.75 53.55 622.07 55.78 622.42 57.66 623.97 59.56 623.53 61.19 624.4 63.08"/><polygon class="cls-5" points="619.58 83.61 619.93 84.13 620.53 85.42 619.33 86.18 619.41 87.65 616.49 88.76 615.29 90.65 611.69 94.18 607.65 96.06 602.32 97.61 599.14 99.59 594.85 100.53 591.24 102.24 587.03 103.02 583.68 104.66 579.65 104.82 576.04 105.94 573.2 105.86 570.28 106.54 568.39 106.02 565.73 106.46 565.56 105.17 564.78 104.82 564.95 103.53 564.78 102.24 566.76 101.21 566.59 98.13 569.76 97.01 571.83 95.2 575.43 94 579.65 92.89 583.42 92.28 587.03 90.22 591.16 89.53 595.02 87.91 598.8 87.3 602.75 85.84 608.68 83.09 612.46 82.23 614.34 82.58 617.18 82.06 618.21 82.93 619.58 83.61"/></g><path id="darker" class="cls-9" d="M636.68,121.66h-100.93v-55.32s31.78,4.89,50.42,4.89,50.5-4.89,50.5-4.89v55.32Z"/></g><g id="strzalka_efekt"><path class="cls-11" d="M496.09,71.19l-52.91-24.45,6.4,12.71h-59.63s-1.8,5.73-1.8,11.24,1.8,10.01,1.8,10.01h60.75l-7.53,14.96,52.91-24.45h0Z"/><path class="cls-1" d="M454.21,78.54h-62.71c-.48-1.63-1.19-4.56-1.19-7.85,0-3.48,.78-7.1,1.28-9.08h61.49l-5.19-10.31,43.04,19.9-43.04,19.9,6.33-12.56h0Z"/><path class="cls-3" d="M458.85,75.69h-65.13c-.29-1.38-.55-3.14-.55-4.99,0-2.18,.35-4.44,.7-6.23h63.85l-3.59-7.15,30.03,13.88-30.03,13.88,4.73-9.39h0Z"/><path class="cls-4" d="M454.21,78.54h-62.71c-.48-1.63-1.19-4.56-1.19-7.85,0-3.48,.78-7.1,1.28-9.08h61.49l-5.19-10.31,43.04,19.9-43.04,19.9,6.33-12.56h0Z"/></g><g id="microbe-2"><rect class="cls-12" x="238.23" y="11.67" width="119.05" height="119.05"/><rect class="cls-13" x="239.82" y="13.25" width="115.89" height="115.89"/><rect class="cls-8" x="244.2" y="17.64" width="107.11" height="107.11"/><rect class="cls-6" x="247.3" y="20.73" width="100.93" height="100.93"/><rect class="cls-7" x="252.19" y="25.63" width="91.13" height="91.13"/><g id="microbes-2"><polygon class="cls-5" points="298.92 80.35 294.63 80.86 295.22 85.16 290.94 84.46 290.24 88.76 286.38 86.79 284.49 90.65 281.31 87.65 278.39 90.82 276.24 87.04 272.46 89.11 271.61 84.9 267.4 85.84 267.74 81.55 263.44 81.12 265.08 77.16 261.13 75.53 263.88 72.18 260.52 69.43 264.14 67.03 261.73 63.51 265.85 62.31 264.64 58.1 268.94 58.18 269.03 53.88 273.15 55.17 274.44 51.14 277.96 53.55 280.45 50.02 283.12 53.46 286.46 50.8 288.01 54.84 292.05 53.37 292.3 57.66 296.6 57.41 295.57 61.62 299.78 62.57 297.54 66.26 301.32 68.49 298.06 71.41 300.98 74.59 297.03 76.4 298.92 80.35"/><polygon class="cls-5" points="335.94 63.08 334.48 63.6 334.48 65.57 332.25 64.89 330.87 66.17 328.64 64.71 326.41 65.31 320.14 66.17 317.48 65.91 314.73 60.67 311.63 59.73 309.14 57.07 306.14 55.61 303.81 52.77 300.98 51.48 299.26 48.31 296.86 46.24 295.92 43.84 294.2 41.95 294.02 39.97 292.56 38.26 293.76 36.97 293.85 35.07 295.14 35.16 296.34 33.79 298.15 34.57 301.07 31.82 303.3 33.44 305.88 33.61 308.46 35.51 311.46 36.36 313.09 40.58 316.36 41.86 318.59 44.61 321.68 46.33 323.57 48.99 326.5 50.97 331.3 53.55 333.62 55.78 333.97 57.66 335.52 59.56 335.08 61.19 335.94 63.08"/><polygon class="cls-5" points="331.13 83.61 331.48 84.13 332.07 85.42 330.87 86.18 330.96 87.65 328.03 88.76 326.83 90.65 323.23 94.18 319.19 96.06 313.87 97.61 310.69 99.59 306.39 100.53 302.78 102.24 298.58 103.02 295.22 104.66 291.19 104.82 287.58 105.94 284.74 105.86 281.83 106.54 279.93 106.02 277.27 106.46 277.1 105.17 276.33 104.82 276.5 103.53 276.33 102.24 278.3 101.21 278.14 98.13 281.31 97.01 283.37 95.2 286.98 94 291.19 92.89 294.96 92.28 298.58 90.22 302.7 89.53 306.56 87.91 310.34 87.3 314.29 85.84 320.23 83.09 324.01 82.23 325.89 82.58 328.73 82.06 329.76 82.93 331.13 83.61"/></g><path id="darker-2" class="cls-9" d="M348.23,121.66h-100.93v-55.32s31.78,4.89,50.42,4.89,50.5-4.89,50.5-4.89v55.32Z"/></g></svg>