<?xml version="1.0" encoding="UTF-8"?><svg id="Layer" xmlns="http://www.w3.org/2000/svg" xmlns:xlink="http://www.w3.org/1999/xlink" viewBox="0 0 878.7 141.7"><defs><style>.cls-1{fill:url(#linear-gradient-2);}.cls-2,.cls-3{fill:#020303;}.cls-4{fill:#fff;opacity:0;}.cls-5{fill:none;stroke:#010101;stroke-miterlimit:10;stroke-width:1.73px;}.cls-3{opacity:.12;}.cls-3,.cls-6{isolation:isolate;}.cls-7{fill:#3c481e;}.cls-8{fill:#95c125;}.cls-9{fill:url(#linear-gradient);}.cls-10{fill:#cd1417;}.cls-6{fill:#e03c13;opacity:.5;}</style><linearGradient id="linear-gradient" x1="-516.4" y1="-1349.79" x2="-444.7" y2="-1278.11" gradientTransform="translate(-81.24 -1198.68) rotate(-45) scale(1 -1)" gradientUnits="userSpaceOnUse"><stop offset="0" stop-color="#3c481e"/><stop offset=".14" stop-color="#4a5d23"/><stop offset=".42" stop-color="#68842b"/><stop offset=".66" stop-color="#80a42a"/><stop offset=".86" stop-color="#8fb923"/><stop offset="1" stop-color="#95c125"/></linearGradient><linearGradient id="linear-gradient-2" x1="368.5" y1="51.62" x2="368.5" y2="91.38" gradientTransform="translate(0 141.73) scale(1 -1)" gradientUnits="userSpaceOnUse"><stop offset="0" stop-color="#552810"/><stop offset=".45" stop-color="#552810" stop-opacity=".7"/><stop offset=".58" stop-color="#e03c13" stop-opacity=".5"/><stop offset="1" stop-color="#e03c13" stop-opacity=".5"/></linearGradient></defs><rect class="cls-4" width="878.7" height="141.7"/><g id="microbe"><rect class="cls-2" x="454.27" y="16.43" width="107.59" height="107.59"/><rect class="cls-9" x="457.37" y="19.53" width="101.38" height="101.38"/><rect class="cls-8" x="462.29" y="24.45" width="91.54" height="91.54"/><g id="microbes"><polygon class="cls-7" points="509.23 79.41 504.91 79.93 505.52 84.24 501.2 83.55 500.51 87.87 496.63 85.88 494.73 89.77 491.54 86.75 488.61 89.94 486.45 86.14 482.65 88.21 481.79 83.98 477.56 84.93 477.91 80.62 473.59 80.19 475.23 76.22 471.26 74.58 474.02 71.22 470.66 68.45 474.28 66.04 471.87 62.5 476.01 61.29 474.8 57.07 479.12 57.15 479.2 52.84 483.34 54.13 484.64 50.08 488.17 52.49 490.68 48.96 493.35 52.41 496.72 49.73 498.27 53.79 502.32 52.32 502.58 56.63 506.9 56.38 505.86 60.6 510.09 61.55 507.85 65.26 511.64 67.51 508.36 70.44 511.3 73.63 507.33 75.44 509.23 79.41"/><polygon class="cls-7" points="546.41 62.07 544.95 62.59 544.95 64.57 542.7 63.88 541.32 65.18 539.08 63.71 536.84 64.31 530.54 65.18 527.86 64.92 525.1 59.65 522 58.7 519.49 56.03 516.47 54.56 514.14 51.72 511.3 50.42 509.57 47.23 507.16 45.16 506.21 42.74 504.48 40.84 504.31 38.86 502.84 37.13 504.05 35.84 504.14 33.94 505.43 34.03 506.64 32.65 508.45 33.42 511.38 30.66 513.63 32.3 516.22 32.48 518.8 34.37 521.82 35.24 523.46 39.46 526.74 40.76 528.98 43.52 532.09 45.25 533.99 47.92 536.92 49.9 541.75 52.49 544.08 54.74 544.43 56.63 545.98 58.53 545.55 60.17 546.41 62.07"/><polygon class="cls-7" points="541.58 82.69 541.93 83.21 542.53 84.5 541.32 85.28 541.41 86.75 538.48 87.87 537.27 89.77 533.64 93.3 529.59 95.2 524.24 96.75 521.05 98.74 516.73 99.69 513.11 101.41 508.88 102.19 505.52 103.83 501.46 104 497.84 105.12 494.99 105.04 492.06 105.73 490.16 105.21 487.48 105.64 487.31 104.35 486.54 104 486.71 102.71 486.54 101.41 488.52 100.38 488.35 97.27 491.54 96.15 493.61 94.34 497.23 93.13 501.46 92.01 505.26 91.4 508.88 89.33 513.02 88.64 516.91 87 520.7 86.4 524.67 84.93 530.62 82.17 534.42 81.31 536.32 81.65 539.17 81.14 540.2 82 541.58 82.69"/></g><path id="darker" class="cls-3" d="M558.75,120.91h-101.38v-55.56s31.92,4.92,50.65,4.92,50.73-4.92,50.73-4.92v55.56Z"/></g><g id="arrow"><path class="cls-6" d="M423.92,70.22l-52.86-24.43,6.4,12.7h-59.58s-1.8,5.72-1.8,11.23,1.8,10,1.8,10h60.7l-7.53,14.94,52.86-24.43h0Z"/><path class="cls-1" d="M382.09,77.56h-62.65c-.48-1.63-1.19-4.56-1.19-7.84,0-3.48,.78-7.1,1.28-9.07h61.44l-5.19-10.3,43,19.88-43,19.88,6.32-12.54h0Z"/><path class="cls-10" d="M386.71,74.71h-65.07c-.29-1.38-.55-3.13-.55-4.99,0-2.18,.35-4.44,.7-6.22h63.79l-3.59-7.14,30,13.87-30,13.87,4.72-9.38h0Z"/><path class="cls-5" d="M382.09,77.56h-62.65c-.48-1.63-1.19-4.56-1.19-7.84,0-3.48,.78-7.1,1.28-9.07h61.44l-5.19-10.3,43,19.88-43,19.88,6.32-12.54h0Z"/></g></svg>