<?xml version="1.0" encoding="utf-8"?>
<!-- Generator: Adobe Illustrator 26.3.1, SVG Export Plug-In . SVG Version: 6.00 Build 0)  -->
<svg version="1.1" id="Layer" xmlns="http://www.w3.org/2000/svg" xmlns:xlink="http://www.w3.org/1999/xlink" x="0px" y="0px"
	 viewBox="0 0 878.7 141.7" style="enable-background:new 0 0 878.7 141.7;" xml:space="preserve">
<style type="text/css">
	.st0{fill:#FFFFFF;fill-opacity:0;}
	.st1{fill:#FFFFFF;}
	.st2{fill:#020303;}
	.st3{fill:url(#SVGID_1_);}
	.st4{fill:#95C125;}
	.st5{fill:#3C481E;}
	.st6{opacity:0.12;fill:#020303;enable-background:new    ;}
	.st7{opacity:0.5;fill:#E03C13;enable-background:new    ;}
	.st8{fill:url(#SVGID_00000054971474707658813180000001388586535239125922_);}
	.st9{fill:#CD1417;}
	.st10{fill:none;stroke:#010101;stroke-width:1.73;stroke-miterlimit:10;}
</style>
<rect y="0" class="st0" width="878.7" height="141.7"/>
<path class="st1" d="M565.2,33.6l-9.7-1.2l2.2-6.9l8.5,4.7c-0.7,0.8-1.1,1.7-1.1,2.7C565.1,33.1,565.1,33.3,565.2,33.6L565.2,33.6
	L565.2,33.6z M568.2,36.3l-4.2,8.9l-5.8-4.2l7.1-6.7C566,35.3,566.9,36,568.2,36.3L568.2,36.3z M564.9,20.3h7.2l-1.8,9.6
	c-0.6-0.3-1.2-0.4-1.8-0.4s-1.2,0.1-1.7,0.4L564.9,20.3L564.9,20.3z M571.7,34.2l7.1,6.7l-5.8,4.2l-4.1-8.9
	C570.1,36,571,35.3,571.7,34.2L571.7,34.2z M570.8,30.3l8.6-4.7l2.2,6.9l-9.7,1.2c0-0.3,0.1-0.5,0.1-0.7
	C571.9,32,571.5,31.1,570.8,30.3L570.8,30.3L570.8,30.3z"/>
<g id="microbe">
	<rect x="435.8" y="16.6" class="st2" width="107.7" height="107.7"/>
	
		<linearGradient id="SVGID_1_" gradientUnits="userSpaceOnUse" x1="-524.8677" y1="1480.6567" x2="-453.1317" y2="1408.9207" gradientTransform="matrix(0.7071 -0.7071 0.7071 0.7071 -186.1899 -1296.9398)">
		<stop  offset="0" style="stop-color:#3C481E"/>
		<stop  offset="0.14" style="stop-color:#4A5D23"/>
		<stop  offset="0.42" style="stop-color:#68842B"/>
		<stop  offset="0.66" style="stop-color:#80A42A"/>
		<stop  offset="0.86" style="stop-color:#8FB923"/>
		<stop  offset="1" style="stop-color:#95C125"/>
	</linearGradient>
	<rect x="438.9" y="19.7" class="st3" width="101.5" height="101.4"/>
	<rect x="443.9" y="24.7" class="st4" width="91.6" height="91.6"/>
	<g id="microbes">
		<polygon class="st5" points="490.8,79.7 486.5,80.2 487.1,84.5 482.8,83.8 482.1,88.1 478.2,86.1 476.3,90 473.1,87 470.2,90.2 
			468,86.4 464.2,88.5 463.4,84.2 459.1,85.2 459.5,80.9 455.2,80.4 456.8,76.5 452.8,74.8 455.6,71.4 452.2,68.7 455.9,66.3 
			453.4,62.7 457.6,61.5 456.4,57.3 460.7,57.4 460.8,53.1 464.9,54.4 466.2,50.3 469.8,52.7 472.3,49.2 474.9,52.6 478.3,50 
			479.9,54 483.9,52.5 484.2,56.9 488.5,56.6 487.5,60.8 491.7,61.8 489.4,65.5 493.2,67.7 490,70.7 492.9,73.9 488.9,75.7 		"/>
		<polygon class="st5" points="528,62.3 526.6,62.8 526.6,64.8 524.3,64.1 522.9,65.4 520.7,63.9 518.5,64.5 512.2,65.4 509.5,65.2 
			506.7,59.9 503.6,58.9 501.1,56.3 498.1,54.8 495.7,51.9 492.9,50.6 491.2,47.5 488.8,45.4 487.8,43 486.1,41.1 485.9,39.1 
			484.4,37.3 485.6,36 485.7,34.2 487,34.2 488.2,32.9 490,33.6 493,30.9 495.2,32.5 497.8,32.7 500.4,34.6 503.4,35.5 505.1,39.7 
			508.4,41 510.6,43.7 513.7,45.5 515.6,48.1 518.5,50.1 523.4,52.7 525.7,55 526,56.9 527.6,58.8 527.2,60.4 		"/>
		<polygon class="st5" points="523.2,82.9 523.5,83.4 524.2,84.8 522.9,85.5 523,87 520.1,88.1 518.9,90 515.3,93.6 511.2,95.4 
			505.9,97 502.6,99 498.3,99.9 494.7,101.7 490.5,102.4 487.1,104.1 483,104.3 479.4,105.4 476.6,105.3 473.6,106 471.7,105.5 
			469.1,105.9 468.9,104.6 468.1,104.3 468.3,103 468.1,101.7 470.1,100.6 469.9,97.5 473.1,96.4 475.2,94.6 478.8,93.4 483,92.3 
			486.9,91.7 490.5,89.6 494.6,88.9 498.5,87.2 502.3,86.7 506.3,85.2 512.2,82.4 516,81.6 517.9,81.9 520.8,81.4 521.8,82.2 		"/>
	</g>
	<path id="darker" class="st6" d="M540.4,121.2H438.9V65.6c0,0,31.9,4.9,50.7,4.9s50.8-4.9,50.8-4.9V121.2z"/>
</g>
<g id="arrow">
	<path class="st7" d="M405.4,70.5L352.6,46l6.4,12.7h-59.6c0,0-1.8,5.7-1.8,11.2s1.8,10,1.8,10h60.7l-7.5,14.9L405.4,70.5
		L405.4,70.5L405.4,70.5z"/>
	
		<linearGradient id="SVGID_00000026844673259508619980000015977279743693806722_" gradientUnits="userSpaceOnUse" x1="350.005" y1="90.3523" x2="350.005" y2="50.5923" gradientTransform="matrix(1 0 0 1 0 -2.288818e-03)">
		<stop  offset="0" style="stop-color:#552810"/>
		<stop  offset="0.45" style="stop-color:#552810;stop-opacity:0.7"/>
		<stop  offset="0.58" style="stop-color:#E03C13;stop-opacity:0.5"/>
		<stop  offset="1" style="stop-color:#E03C13;stop-opacity:0.5"/>
	</linearGradient>
	<path style="fill:url(#SVGID_00000026844673259508619980000015977279743693806722_);" d="M363.6,77.8h-62.7
		c-0.5-1.6-1.2-4.6-1.2-7.8c0-3.5,0.8-7.1,1.3-9.1h61.4l-5.2-10.3l43,19.9l-43,19.9L363.6,77.8L363.6,77.8L363.6,77.8z"/>
	<path class="st9" d="M368.2,74.9h-65.1c-0.3-1.4-0.5-3.1-0.5-5c0-2.2,0.4-4.4,0.7-6.2h63.8l-3.6-7.1l30,13.9l-30,13.9L368.2,74.9
		L368.2,74.9L368.2,74.9z"/>
	<path class="st10" d="M363.6,77.8h-62.7c-0.5-1.6-1.2-4.6-1.2-7.8c0-3.5,0.8-7.1,1.3-9.1h61.4l-5.2-10.3l43,19.9l-43,19.9
		L363.6,77.8L363.6,77.8L363.6,77.8z"/>
</g>
</svg>
