<?xml version="1.0" encoding="UTF-8"?><svg id="Layer" xmlns="http://www.w3.org/2000/svg" xmlns:xlink="http://www.w3.org/1999/xlink" viewBox="0 0 878.7 141.7"><defs><style>.cls-1{fill:url(#linear-gradient-2);}.cls-2{fill:#010101;stroke:#020303;stroke-width:1.76px;}.cls-2,.cls-3{stroke-miterlimit:10;}.cls-4,.cls-5{fill:#020303;}.cls-6{fill:#e52922;}.cls-7{fill:#fff;opacity:0;}.cls-8{fill:url(#linear-gradient-6);}.cls-9{fill:#1f1f1d;}.cls-3{stroke:#010202;stroke-width:1.74px;}.cls-3,.cls-10{fill:none;}.cls-11{fill:#cd141b;}.cls-12{fill:url(#linear-gradient-10);}.cls-13{fill:url(#Nowy_wzorek);opacity:.1;}.cls-13,.cls-5,.cls-14{isolation:isolate;}.cls-15{fill:url(#linear-gradient-5);}.cls-16{fill:#ffd110;}.cls-17{fill:url(#linear-gradient-7);}.cls-18{fill:url(#linear-gradient-9);}.cls-19{fill:url(#linear-gradient-3);}.cls-5{opacity:.05;}.cls-20{fill:url(#linear-gradient);}.cls-14{fill:#e03d15;opacity:.5;}.cls-21{fill:url(#linear-gradient-4);}.cls-22{fill:url(#linear-gradient-8);}</style><linearGradient id="linear-gradient" x1="665.17" y1="177.21" x2="491.12" y2="3.18" gradientTransform="translate(0 -18.68)" gradientUnits="userSpaceOnUse"><stop offset="0" stop-color="#9d9d9c"/><stop offset=".54" stop-color="#010101"/><stop offset="1" stop-color="#9d9d9c"/></linearGradient><linearGradient id="linear-gradient-2" x1="578.2" y1="147.38" x2="578.2" y2="33.01" gradientTransform="translate(0 -18.68)" gradientUnits="userSpaceOnUse"><stop offset="0" stop-color="#452b1a"/><stop offset="1" stop-color="#b18049"/></linearGradient><linearGradient id="linear-gradient-3" x1="578.15" y1="144.49" x2="578.15" y2="35.79" gradientTransform="translate(0 -18.68)" gradientUnits="userSpaceOnUse"><stop offset="0" stop-color="#946137"/><stop offset="1" stop-color="#7f5026"/></linearGradient><pattern id="Nowy_wzorek" x="0" y="0" width="19.7" height="21.7" patternTransform="translate(-361.97 16524.3)" patternUnits="userSpaceOnUse" viewBox="0 0 19.7 21.7"><g><rect class="cls-10" width="19.7" height="21.7"/><g><rect class="cls-10" width="19.7" height="21.7"/><g><rect class="cls-10" width="19.7" height="21.7"/><g><rect class="cls-10" width="19.7" height="21.7"/><g><rect class="cls-10" width="19.7" height="21.7"/><path class="cls-9" d="M16.6,8.7c2.1,2.1,2.1,5.6,0,7.7l-1.2,1.2c-2.1,2.1-5.6,2.1-7.8,0L3.1,13c-2.1-2.1-2.1-5.6,0-7.7l1.2-1.2c2.1-2.1,5.6-2.1,7.7,0l4.6,4.6Z"/></g></g></g></g></g></pattern><linearGradient id="linear-gradient-4" x1="-449.63" y1="-1257.32" x2="-391.54" y2="-1199.23" gradientTransform="translate(-44.58 -1094.41) rotate(-45) scale(1 -1)" gradientUnits="userSpaceOnUse"><stop offset="0" stop-color="#951917"/><stop offset=".21" stop-color="#b9231c"/><stop offset=".47" stop-color="#e52922"/><stop offset=".55" stop-color="#e62d28"/><stop offset=".84" stop-color="#e7393a"/><stop offset="1" stop-color="#e83e41"/></linearGradient><linearGradient id="linear-gradient-5" x1="-376.18" y1="-1330.92" x2="-317.94" y2="-1272.68" xlink:href="#linear-gradient-4"/><linearGradient id="linear-gradient-6" x1="380.31" y1="94.26" x2="380.31" y2="54.14" gradientTransform="translate(0 -2.68)" gradientUnits="userSpaceOnUse"><stop offset="0" stop-color="#542913"/><stop offset=".45" stop-color="#542913" stop-opacity=".7"/><stop offset=".58" stop-color="#e03d15" stop-opacity=".5"/><stop offset="1" stop-color="#e03d15" stop-opacity=".5"/></linearGradient><linearGradient id="linear-gradient-7" x1="239.82" y1="141.74" x2="239.82" y2="40.68" gradientTransform="translate(0 -19.69)" gradientUnits="userSpaceOnUse"><stop offset=".16" stop-color="#813912"/><stop offset=".18" stop-color="#975a19"/><stop offset=".22" stop-color="#ae7d21"/><stop offset=".26" stop-color="#c39d27"/><stop offset=".3" stop-color="#d6b92e"/><stop offset=".35" stop-color="#e4cf35"/><stop offset=".41" stop-color="#efe036"/><stop offset=".48" stop-color="#f6e942"/><stop offset=".58" stop-color="#f8ea48"/><stop offset=".86" stop-color="#f7ea47"/><stop offset="1" stop-color="#fcf4f9"/></linearGradient><linearGradient id="linear-gradient-8" x1="239.82" y1="35.29" x2="239.82" y2="189.75" gradientTransform="translate(0 -19.69)" gradientUnits="userSpaceOnUse"><stop offset=".26" stop-color="#f7ea47"/><stop offset=".86" stop-color="#803612"/></linearGradient><linearGradient id="linear-gradient-9" x1="239.86" y1="140.33" x2="239.86" y2="42.17" gradientTransform="translate(0 -19.69)" gradientUnits="userSpaceOnUse"><stop offset=".16" stop-color="#803612"/><stop offset=".17" stop-color="#8b461e"/><stop offset=".18" stop-color="#a26a3b"/><stop offset=".2" stop-color="#b78954"/><stop offset=".22" stop-color="#c7a468"/><stop offset=".24" stop-color="#d7bb7a"/><stop offset=".26" stop-color="#e2cc88"/><stop offset=".3" stop-color="#ead891"/><stop offset=".34" stop-color="#eede97"/><stop offset=".46" stop-color="#efe097"/><stop offset=".7" stop-color="#803612"/><stop offset=".73" stop-color="#e6d234"/><stop offset=".74" stop-color="#ead848"/><stop offset=".75" stop-color="#eede6d"/><stop offset=".77" stop-color="#f1e38b"/><stop offset=".79" stop-color="#f7eaa9"/><stop offset=".8" stop-color="#f8edbf"/><stop offset=".83" stop-color="#faf0cf"/><stop offset=".85" stop-color="#fcf2da"/><stop offset=".89" stop-color="#fdf4e1"/><stop offset=".99" stop-color="#fdf5e3"/></linearGradient><linearGradient id="linear-gradient-10" x1="239.82" y1="56.56" x2="239.82" y2="208.07" gradientTransform="translate(0 -19.69)" gradientUnits="userSpaceOnUse"><stop offset=".26" stop-color="#f7ea47"/><stop offset=".77" stop-color="#803612"/></linearGradient></defs><rect class="cls-7" width="878.7" height="141.7"/><g id="prodBg"><rect id="external-border" class="cls-20" x="464.48" y="11.14" width="227.34" height="120.75"/><rect id="internal-border" class="cls-1" x="467.66" y="14.33" width="221.07" height="114.37"/><rect id="bg" class="cls-19" x="470.46" y="17.11" width="215.39" height="108.7"/><rect id="bgPattern" class="cls-13" x="470.46" y="17.11" width="215.39" height="108.7"/></g><g id="heat"><rect class="cls-4" x="482.96" y="27.93" width="87.18" height="87.18"/><rect class="cls-21" x="485.47" y="30.44" width="82.14" height="82.14"/><rect class="cls-6" x="489.46" y="34.42" width="74.18" height="74.18"/><path id="darker" class="cls-5" d="M567.62,112.59h-82.14v-45.02s25.87,3.99,41.04,3.99,41.11-3.99,41.11-3.99v45.02Z"/><g><polygon class="cls-16" points="517.29 75.33 507.92 67.21 507.92 67.21 507.92 42.46 498.55 67.71 507.99 75.67 507.99 75.67 507.92 100.56 517.29 75.33"/><polygon class="cls-16" points="535.95 75.33 526.59 67.21 526.52 67.21 526.59 42.46 517.22 67.71 526.59 75.67 526.59 75.67 526.59 100.56 535.95 75.33"/><polygon class="cls-16" points="555.1 75.33 545.73 67.21 545.66 67.21 545.73 42.46 536.37 67.71 545.73 75.67 545.73 75.67 545.73 100.56 555.1 75.33"/></g></g><g id="heat-2"><rect class="cls-4" x="586.82" y="27.81" width="87.42" height="87.42"/><rect class="cls-15" x="589.34" y="30.32" width="82.37" height="82.37"/><rect class="cls-6" x="593.34" y="34.32" width="74.38" height="74.38"/><path id="darker-2" class="cls-5" d="M671.72,112.7h-82.37v-45.15s25.94,4,41.15,4,41.22-4,41.22-4v45.15Z"/><g><polygon class="cls-16" points="621.25 75.34 611.85 67.2 611.85 67.2 611.85 42.39 602.46 67.7 611.92 75.68 611.92 75.68 611.85 100.64 621.25 75.34"/><polygon class="cls-16" points="639.96 75.34 630.57 67.2 630.5 67.2 630.57 42.39 621.18 67.7 630.57 75.68 630.57 75.68 630.57 100.64 639.96 75.34"/><polygon class="cls-16" points="659.16 75.34 649.77 67.2 649.7 67.2 649.77 42.39 640.38 67.7 649.77 75.68 649.77 75.68 649.77 100.64 659.16 75.34"/></g></g><g id="arrow"><path class="cls-14" d="M436.23,71.51l-53.34-24.65,6.46,12.82h-60.12s-1.81,5.78-1.81,11.33,1.81,10.09,1.81,10.09h61.25l-7.6,15.08,53.34-24.65h0Z"/><path class="cls-8" d="M394.01,78.91h-63.22c-.49-1.65-1.2-4.6-1.2-7.91,0-3.51,.78-7.16,1.29-9.16h61.99l-5.24-10.39,43.39,20.06-43.39,20.06,6.38-12.66h0Z"/><path class="cls-11" d="M398.68,76.04h-65.66c-.3-1.39-.56-3.16-.56-5.04,0-2.2,.35-4.48,.71-6.28h64.37l-3.62-7.2,30.27,13.99-30.27,13.99,4.77-9.47h0Z"/><path class="cls-3" d="M394.01,78.91h-63.22c-.49-1.65-1.2-4.6-1.2-7.91,0-3.51,.78-7.16,1.29-9.16h61.99l-5.24-10.39,43.39,20.06-43.39,20.06,6.38-12.66h0Z"/></g><g id="mln"><polygon id="obram_czarne" class="cls-2" points="202.42 17.92 186.18 34.16 186.18 108.87 202.42 125.12 277.22 125.12 293.38 108.87 293.38 34.16 277.22 17.92 202.42 17.92"/><polygon id="obram_zolte" class="cls-17" points="204.53 20.99 189.34 36.27 189.34 106.77 204.53 122.04 275.03 122.04 290.3 106.77 290.3 36.27 275.03 20.99 204.53 20.99"/><polygon id="tlo_wew" class="cls-22" points="205.58 22.48 190.74 37.32 190.74 105.71 205.58 120.55 274.06 120.55 288.9 105.71 288.9 37.32 274.06 22.48 205.58 22.48"/><path id="obram_skosne" class="cls-18" d="M281.79,90.44c-2.72,0-4.92-2.19-4.92-4.92v-28.01c0-2.72,2.19-4.92,4.92-4.92h7.02v-15.28l-14.75-14.84h-15.36v7.02c0,2.72-2.19,4.92-4.92,4.92h-28.01c-2.72,0-4.92-2.19-4.92-4.92v-7.02h-15.28l-14.84,14.84v15.36h7.02c2.72,0,4.92,2.19,4.92,4.92v28.01c0,2.72-2.19,4.92-4.92,4.92h-7.02v15.28l14.84,14.84h15.36v-7.02c0-2.72,2.19-4.92,4.92-4.92h28.01c2.72,0,4.92,2.19,4.92,4.92v7.02h15.36l14.84-14.84v-15.36h-7.2Z"/><path id="tlo_zew" class="cls-12" d="M281.52,92.11c-3.34,0-6.06-3.34-6.06-6.67v-27.83c0-3.34,2.72-6.67,6.06-6.67h5.71v-12.47l-14.4-14.31h-12.38v5.71c0,3.34-3.34,6.06-6.67,6.06h-27.83c-3.34,0-6.67-2.72-6.67-6.06v-5.71h-12.56l-14.31,14.31v12.47h5.71c3.34,0,6.06,3.34,6.06,6.67v27.83c0,3.34-2.72,6.67-6.06,6.67h-5.71v12.47l14.31,14.31h12.47v-5.71c0-3.34,3.34-6.06,6.67-6.06h27.74c3.34,0,6.67,2.72,6.67,6.06v5.71h12.47l14.31-14.31v-12.47h-5.53Z"/></g><g><path d="M215.02,91.42V56.1h-5.35l-.16-3.99,13.5-1.16v40.48h-8Z"/><path d="M254.18,92.42c-3.2,0-5.97-.9-8.29-2.68-2.32-1.78-4.11-4.34-5.35-7.67-1.25-3.33-1.86-6.87-1.86-10.64s.61-7.29,1.85-10.62c1.23-3.34,3.02-5.9,5.36-7.68s5.1-2.68,8.29-2.68,5.9,.88,8.24,2.64c2.34,1.76,4.14,4.32,5.37,7.66s1.86,6.9,1.86,10.69-.6,7.14-1.78,10.44-2.94,5.89-5.27,7.75-5.13,2.79-8.43,2.79h0Zm0-4.99c2.4,0,4.16-1.33,5.29-3.97s1.7-6.83,1.7-12.56c0-5.14-.58-9.01-1.74-11.59-1.16-2.57-2.91-3.86-5.25-3.86s-4.16,1.32-5.3,3.96-1.71,6.82-1.71,12.55c0,5.15,.59,9.02,1.76,11.6s2.92,3.87,5.27,3.87h-.02Z"/></g></svg>