<?xml version="1.0" encoding="utf-8"?>
<!-- Generator: Adobe Illustrator 26.3.1, SVG Export Plug-In . SVG Version: 6.00 Build 0)  -->
<svg version="1.1" id="Layer" xmlns="http://www.w3.org/2000/svg" xmlns:xlink="http://www.w3.org/1999/xlink" x="0px" y="0px"
	 viewBox="0 0 878.7 141.7" style="enable-background:new 0 0 878.7 141.7;" xml:space="preserve">
<style type="text/css">
	.st0{opacity:0;fill:#FFFFFF;}
	.st1{fill:url(#SVGID_1_);}
	.st2{fill:none;stroke:#1F1F1E;stroke-width:3.37;stroke-miterlimit:10;}
	.st3{fill:none;stroke:#1F1F1E;stroke-width:1.05;stroke-miterlimit:10;}
	
		.st4{fill:#E2161C;stroke:url(#SVGID_00000147213450226776520130000007514931618693856685_);stroke-width:3.37;stroke-miterlimit:10;}
	
		.st5{fill:#E2161C;stroke:url(#SVGID_00000120516966914260345180000002165449890363186875_);stroke-width:3.37;stroke-miterlimit:10;}
	.st6{fill:#030304;}
	.st7{fill:url(#SVGID_00000060725985106441360340000001481741451031171213_);}
	.st8{fill:#515150;}
	.st9{opacity:0.64;fill:#030304;enable-background:new    ;}
	.st10{fill:none;stroke:#FFD80C;stroke-width:4.31;stroke-miterlimit:10;}
	.st11{opacity:0.5;fill:#E03E17;enable-background:new    ;}
	.st12{fill:url(#SVGID_00000056385475851195664050000016879765187698560398_);}
	.st13{fill:#CE141E;}
	.st14{fill:none;stroke:#020303;stroke-width:1.73;stroke-miterlimit:10;}
	.st15{fill:url(#SVGID_00000065070398144625477790000004051263156869959603_);}
	.st16{fill:#7F358B;}
	.st17{fill:#FFFFFF;stroke:#030304;stroke-width:0.86;stroke-miterlimit:10;}
	.st18{opacity:0.15;fill:#030304;enable-background:new    ;}
	.st19{fill:#FFFFFF;}
</style>
<rect y="0" class="st0" width="878.7" height="141.7"/>
<g id="oxIcon">
	
		<radialGradient id="SVGID_1_" cx="682.115" cy="55.0823" r="68.2325" gradientTransform="matrix(1 0 0 -1 0 126.2723)" gradientUnits="userSpaceOnUse">
		<stop  offset="0" style="stop-color:#F6EE84"/>
		<stop  offset="0.78" style="stop-color:#F6EE84"/>
		<stop  offset="0.91" style="stop-color:#F6EE84"/>
		<stop  offset="0.91" style="stop-color:#F7EE87"/>
		<stop  offset="0.94" style="stop-color:#FAF4B7"/>
		<stop  offset="0.96" style="stop-color:#FDFADC"/>
		<stop  offset="0.97" style="stop-color:#FEFCF1"/>
		<stop  offset="0.99" style="stop-color:#FFFFFE"/>
		<stop  offset="1" style="stop-color:#FFFFFF"/>
	</radialGradient>
	<path class="st1" d="M750.3,71.2c0,37.7-30.6,68.2-68.2,68.2s-68.2-30.6-68.2-68.2S644.5,3,682.1,3
		C719.8,3.1,750.3,33.5,750.3,71.2L750.3,71.2L750.3,71.2z"/>
	<path class="st2" d="M750.2,71.2c0,37.7-30.6,68.2-68.2,68.2s-68.1-30.6-68.1-68.2S644.5,3,682.1,3S750.2,33.6,750.2,71.2z"/>
	<path class="st3" d="M742.5,71.2c0,33.3-27,60.3-60.3,60.3s-60.3-27-60.3-60.3s27-60.2,60.3-60.2S742.5,37.9,742.5,71.2z"/>
	
		<linearGradient id="SVGID_00000084523091830509197460000008550086644168717954_" gradientUnits="userSpaceOnUse" x1="687.6546" y1="27.3277" x2="648.8635" y2="66.1188" gradientTransform="matrix(1 0 0 -1 0 126.2723)">
		<stop  offset="0" style="stop-color:#5D1512"/>
		<stop  offset="0.1" style="stop-color:#611912"/>
		<stop  offset="0.26" style="stop-color:#732B23"/>
		<stop  offset="0.48" style="stop-color:#914D44"/>
		<stop  offset="0.73" style="stop-color:#BE8880"/>
		<stop  offset="1" style="stop-color:#FBDEDE"/>
	</linearGradient>
	
		<path style="fill:#E2161C;stroke:url(#SVGID_00000084523091830509197460000008550086644168717954_);stroke-width:3.37;stroke-miterlimit:10;" d="
		M694,79.6c0,14.2-11.6,25.8-25.8,25.8s-25.8-11.6-25.8-25.8s11.6-25.8,25.8-25.8S694,65.3,694,79.6z"/>
	
		<linearGradient id="SVGID_00000143575795237051619420000010021046107831377281_" gradientUnits="userSpaceOnUse" x1="715.1346" y1="45.8777" x2="676.3435" y2="84.6688" gradientTransform="matrix(1 0 0 -1 0 126.2723)">
		<stop  offset="0" style="stop-color:#5D1512"/>
		<stop  offset="0.1" style="stop-color:#611912"/>
		<stop  offset="0.26" style="stop-color:#732B23"/>
		<stop  offset="0.48" style="stop-color:#914D44"/>
		<stop  offset="0.73" style="stop-color:#BE8880"/>
		<stop  offset="1" style="stop-color:#FBDEDE"/>
	</linearGradient>
	
		<path style="fill:#E2161C;stroke:url(#SVGID_00000143575795237051619420000010021046107831377281_);stroke-width:3.37;stroke-miterlimit:10;" d="
		M721.5,61c0,14.2-11.6,25.8-25.8,25.8S670,75.2,670,61s11.6-25.8,25.8-25.8S721.5,46.8,721.5,61z"/>
</g>
<g id="titan">
	<rect x="470" y="17.5" class="st6" width="107.5" height="107.5"/>
	
		<linearGradient id="SVGID_00000032615562746105804590000013188378512058217859_" gradientUnits="userSpaceOnUse" x1="-436.3273" y1="1355.1891" x2="-364.7257" y2="1283.5775" gradientTransform="matrix(0.7071 -0.7071 0.7071 0.7071 -125.9699 -1144.9498)">
		<stop  offset="0" style="stop-color:#030304"/>
		<stop  offset="1" style="stop-color:#7A7879"/>
	</linearGradient>
	
		<rect x="473.1" y="20.6" style="fill:url(#SVGID_00000032615562746105804590000013188378512058217859_);" width="101.3" height="101.3"/>
	<rect x="478" y="25.5" class="st8" width="91.4" height="91.4"/>
	<path id="darker" class="st9" d="M574.4,121.8H473.1V66.3c0,0,31.9,4.9,50.6,4.9s50.7-4.9,50.7-4.9V121.8z"/>
	<polygon class="st10" points="524.3,41.3 533.9,61.4 556,64.3 539.8,79.5 543.9,101.3 524.3,90.7 504.9,101.3 509,79.5 492.8,64.3 
		514.8,61.4 	"/>
</g>
<g id="arrow">
	<path class="st11" d="M437.6,70.8l-53-24.5L391,59h-59.7c0,0-1.8,5.7-1.8,11.3s1.8,10,1.8,10h60.9l-7.5,15L437.6,70.8L437.6,70.8
		L437.6,70.8z"/>
	
		<linearGradient id="SVGID_00000116237574784214644460000004499031383727945896_" gradientUnits="userSpaceOnUse" x1="382.015" y1="92.5123" x2="382.015" y2="52.6323" gradientTransform="matrix(1 0 0 1 0 -1.7723)">
		<stop  offset="0" style="stop-color:#532A15"/>
		<stop  offset="0.45" style="stop-color:#532A15;stop-opacity:0.7"/>
		<stop  offset="0.58" style="stop-color:#E03E17;stop-opacity:0.5"/>
		<stop  offset="1" style="stop-color:#E03E17;stop-opacity:0.5"/>
	</linearGradient>
	<path style="fill:url(#SVGID_00000116237574784214644460000004499031383727945896_);" d="M395.6,78.2h-62.8
		c-0.5-1.6-1.2-4.6-1.2-7.9c0-3.5,0.8-7.1,1.3-9.1h61.6l-5.2-10.3l43.1,19.9l-43.1,19.9L395.6,78.2L395.6,78.2L395.6,78.2z"/>
	<path class="st13" d="M400.3,75.3H335c-0.3-1.4-0.5-3.1-0.5-5c0-2.2,0.4-4.4,0.7-6.2h64l-3.6-7.2l30.1,13.9l-30.1,13.9L400.3,75.3
		L400.3,75.3L400.3,75.3z"/>
	<path class="st14" d="M395.6,78.2h-62.8c-0.5-1.6-1.2-4.6-1.2-7.9c0-3.5,0.8-7.1,1.3-9.1h61.6l-5.2-10.3l43.1,19.9l-43.1,19.9
		L395.6,78.2L395.6,78.2L395.6,78.2z"/>
</g>
<g id="energy">
	<rect x="189.5" y="17.1" class="st6" width="107.5" height="107.5"/>
	
		<linearGradient id="SVGID_00000121260623404939549280000013431569354426474655_" gradientUnits="userSpaceOnUse" x1="-634.3809" y1="1156.5508" x2="-562.7792" y2="1084.9491" gradientTransform="matrix(0.7071 -0.7071 0.7071 0.7071 -125.9699 -1144.9498)">
		<stop  offset="0" style="stop-color:#1D1427"/>
		<stop  offset="0.24" style="stop-color:#372348"/>
		<stop  offset="0.49" style="stop-color:#573B6C"/>
		<stop  offset="0.71" style="stop-color:#72508C"/>
		<stop  offset="0.89" style="stop-color:#835CA0"/>
		<stop  offset="1" style="stop-color:#8963A7"/>
	</linearGradient>
	
		<rect x="192.6" y="20.2" style="fill:url(#SVGID_00000121260623404939549280000013431569354426474655_);" width="101.3" height="101.3"/>
	<polygon class="st16" points="289,25.1 289,116.5 197.6,116.5 197.6,25.1 	"/>
	<polygon class="st17" points="232.1,60.3 262.3,41.6 246.1,65 254.7,78.9 225,97.6 239.9,74.3 	"/>
	<path id="darker-2" class="st18" d="M293.9,121.4H192.6V65.9c0,0,31.9,4.9,50.6,4.9s50.7-4.9,50.7-4.9S293.9,121.4,293.9,121.4z"/>
</g>
<path class="st19" d="M154.1,98.5V83.2h-26.8v-8.6l26.3-33.4h10.5v33.4h6.7v8.6h-6.7v15.3H154.1L154.1,98.5z M136.5,74.7h17.8V52.2
	L136.5,74.7z"/>
</svg>
