<?xml version="1.0" encoding="utf-8"?>
<!-- Generator: Adobe Illustrator 26.3.1, SVG Export Plug-In . SVG Version: 6.00 Build 0)  -->
<svg version="1.1" id="Layer" xmlns="http://www.w3.org/2000/svg" xmlns:xlink="http://www.w3.org/1999/xlink" x="0px" y="0px"
	 viewBox="0 0 895.9 141.7" style="enable-background:new 0 0 895.9 141.7;" xml:space="preserve">
<style type="text/css">
	.st0{fill:#FFFFFF;fill-opacity:0;}
	.st1{fill:url(#SVGID_1_);stroke:#030304;stroke-width:2.38;stroke-miterlimit:10;}
	.st2{fill:url(#SVGID_00000039821295369549390140000004983223352290914188_);}
	.st3{fill:none;stroke:#030304;stroke-width:3.57;stroke-miterlimit:10;}
	.st4{fill:none;stroke:#030304;stroke-width:1.78;stroke-miterlimit:10;}
	.st5{fill:#030304;}
	.st6{fill:none;stroke:#030304;stroke-width:2.38;stroke-linecap:square;stroke-miterlimit:10;}
	.st7{opacity:0.31;fill:url(#darker_00000124871775561248940440000004695272528572725692_);enable-background:new    ;}
	.st8{opacity:0.5;fill:#E03E17;enable-background:new    ;}
	.st9{fill:url(#SVGID_00000137107521609200328870000001626735327295506056_);}
	.st10{fill:#CE141E;}
	.st11{fill:none;stroke:#020303;stroke-width:1.73;stroke-miterlimit:10;}
	.st12{fill:#030404;}
	.st13{fill:url(#SVGID_00000168096559315189505690000004615329338514977453_);}
	.st14{fill:#97C22A;}
	.st15{fill:#3E4A21;}
	.st16{opacity:0.12;fill:#030404;enable-background:new    ;}
	.st17{fill:#FFFFFF;}
	.st18{fill:url(#SVGID_00000054245081185027415240000001311925282437762433_);}
	.st19{fill:url(#SVGID_00000013190103514161450150000001196904724214714246_);}
</style>
<rect y="0" class="st0" width="895.9" height="141.7"/>
<g id="tr">
	
		<linearGradient id="SVGID_1_" gradientUnits="userSpaceOnUse" x1="810.025" y1="144.8023" x2="810.025" y2="42.1123" gradientTransform="matrix(1 0 0 1 0 -22.2923)">
		<stop  offset="0" style="stop-color:#951919"/>
		<stop  offset="0.21" style="stop-color:#B13C1E"/>
		<stop  offset="0.44" style="stop-color:#CB5E26"/>
		<stop  offset="0.66" style="stop-color:#E27933"/>
		<stop  offset="0.85" style="stop-color:#EF8D3A"/>
		<stop  offset="1" style="stop-color:#F3933C"/>
	</linearGradient>
	<rect x="737.4" y="19.8" class="st1" width="145.3" height="102.7"/>
	
		<radialGradient id="SVGID_00000028284551597128986730000005180289362908494005_" cx="810.08" cy="93.4523" r="58.4834" gradientTransform="matrix(1 0 0 1 0 -22.2923)" gradientUnits="userSpaceOnUse">
		<stop  offset="0" style="stop-color:#F3933C;stop-opacity:0.5"/>
		<stop  offset="1" style="stop-color:#D24016"/>
	</radialGradient>
	
		<rect x="741.9" y="24.3" style="fill:url(#SVGID_00000028284551597128986730000005180289362908494005_);" width="136.4" height="93.6"/>
	<g id="logo">
		<g>
			<circle class="st3" cx="810.1" cy="67.8" r="26.4"/>
			<path class="st4" d="M810.1,41.4c0,0,13.7,5.6,13.7,26.4s-13.7,26.4-13.7,26.4"/>
			<path class="st4" d="M810.1,41.4c0,0-13.7,5.6-13.7,26.4s13.7,26.4,13.7,26.4"/>
			<line class="st4" x1="810.1" y1="41.4" x2="810.1" y2="94.2"/>
			<line class="st4" x1="783.7" y1="67.8" x2="836.5" y2="67.8"/>
			<path class="st4" d="M789.5,51.1c0,0,7.7,3.9,20.5,3.9s20.5-3.9,20.5-3.9"/>
			<path class="st4" d="M789.5,84.8c0-0.1,7.7-3.9,20.5-3.9s20.5,3.9,20.5,3.9"/>
			<polygon class="st5" points="825.9,46.1 832.9,39.7 823.7,37.8 843.9,32 839.2,53 836.5,42.5 829.8,50.3 			"/>
			<polyline class="st6" points="810.1,100.2 800.6,100.2 804.6,100.2 804.6,109.7 			"/>
			<polyline class="st6" points="816.9,109.7 816.9,100.2 815.1,100.2 812.8,106.6 812.1,106.6 810.2,103.6 808.8,103.6 
				808.8,109.7 			"/>
			<path class="st5" d="M801.3,106.2c0,1.4-3.6,3.6-5,3.6s-10,0.6-10-0.8s8.6-4.4,10-4.4C797.7,104.7,801.3,104.8,801.3,106.2
				L801.3,106.2L801.3,106.2z"/>
			<path class="st5" d="M797,103c-0.8,0.7-4-0.5-4.8-1.3s-5.2-5.8-4.4-6.6s6.9,3.2,7.6,4.1S797.8,102.3,797,103L797,103L797,103z"/>
			<path class="st5" d="M790.7,104.7c-0.2,1.1-3.3,2.3-4.5,2c-1.1-0.2-10.1-0.9-9.9-2s9.6-2.3,10.7-2
				C788.2,102.9,790.9,103.6,790.7,104.7L790.7,104.7z"/>
			<path class="st5" d="M788.3,101.8c-1.1,0.3-3.7-1.7-4-2.7s-4.5-9.2-3.6-9.5s6.9,7,7.4,8.1C788.4,98.7,789.2,101.4,788.3,101.8
				L788.3,101.8z"/>
			<path class="st5" d="M781.8,101.3c-0.7,1.1-4.2,1.1-5.1,0.5s-9.4-4.6-8.7-5.7s10.2,1.2,11.2,1.9
				C780.1,98.6,782.5,100.3,781.8,101.3L781.8,101.3L781.8,101.3z"/>
			<path class="st5" d="M779.4,97.5c-1.2,0-2.8-2.7-2.8-3.8s-1-9.5,0.2-9.5s4,8.6,4,9.6C780.7,94.8,780.6,97.5,779.4,97.5
				L779.4,97.5L779.4,97.5z"/>
			<path class="st5" d="M773.1,90.3c-1.1-0.2-2.1-3.2-1.9-4.3c0.2-0.9,1.2-9.3,2.3-9s1.9,9,1.7,10C774.9,88,774.2,90.5,773.1,90.3
				L773.1,90.3L773.1,90.3z"/>
			<path class="st5" d="M773.7,94.9c-1,0.7-4.2-0.3-4.9-1.2c-0.7-0.9-7.4-7.3-6.4-8s9,4.4,9.8,5.2C772.8,91.8,774.5,94.2,773.7,94.9
				L773.7,94.9L773.7,94.9z"/>
			<path class="st5" d="M768.2,86c-1,0.5-3.8-1.1-4.3-2s-5.6-8.1-4.5-8.7c1-0.5,7.6,5.8,8.1,6.8C768,83,769.2,85.4,768.2,86
				L768.2,86L768.2,86z"/>
			<path class="st5" d="M768.8,82.5c-0.8-0.3-1.2-3.3-0.8-4.3s2.6-9.2,3.5-8.8c0.8,0.3,0.1,9-0.2,10
				C770.7,80.5,769.6,82.9,768.8,82.5L768.8,82.5L768.8,82.5z"/>
			<path class="st5" d="M765.1,76.9c-1,0.2-3-2.1-3.2-3.3c-0.2-1.1-3-9.4-2.1-9.6c1-0.2,5.2,7.8,5.5,8.9
				C765.5,74,766,76.8,765.1,76.9L765.1,76.9z"/>
			<path class="st5" d="M766.8,73.2c-0.8-0.5-0.7-3.2-0.2-4.1s3.6-7.5,4.4-7s-1.1,8.1-1.5,8.8C768.9,71.8,767.6,73.7,766.8,73.2
				L766.8,73.2L766.8,73.2z"/>
			<path class="st5" d="M764.3,66.5c-1-0.1-2.3-2.8-2.1-3.9s-0.1-9.3,0.8-9.3c1,0.1,2.7,8.6,2.6,9.6S765.2,66.6,764.3,66.5
				L764.3,66.5z"/>
			<path class="st5" d="M766.7,63.7c-0.6-0.6,0.3-3.3,1.1-3.9s6-6.5,6.5-5.8c0.6,0.6-3.7,7.6-4.4,8.2
				C769.2,62.8,767.2,64.4,766.7,63.7C766.7,63.7,766.7,63.7,766.7,63.7z"/>
			<path class="st5" d="M770.2,55c-0.5-0.6,0.2-2.6,0.8-3.2c0.6-0.5,4.8-5.2,5.2-4.6s-2.8,6.1-3.5,6.7
				C772.1,54.2,770.7,55.5,770.2,55C770.2,55,770.2,55,770.2,55z"/>
			<path class="st5" d="M766.2,56.2c-0.7-0.2-1.2-3.1-1-4s1.9-9,2.6-8.9c0.7,0.2,0.3,8.7,0.1,9.6C767.8,54.1,767,56.6,766.2,56.2
				L766.2,56.2L766.2,56.2z"/>
			<path class="st5" d="M770.7,49.9c-1-0.3-1.4-3.2-1.1-4.2c0.3-1,2.3-8.7,3.2-8.3c1,0.3,0.5,8.7,0.1,9.6
				C772.6,47.9,771.7,50.3,770.7,49.9L770.7,49.9L770.7,49.9z"/>
			<path class="st5" d="M818.9,105.8c0,1.4,3.6,3.6,5,3.6s10,0.6,10-0.8s-8.6-4.4-10-4.4S818.9,104.4,818.9,105.8L818.9,105.8
				L818.9,105.8z"/>
			<path class="st5" d="M823.2,102.6c0.8,0.7,4-0.5,4.8-1.3s5.2-5.8,4.4-6.6s-6.9,3.2-7.6,4.1S822.3,101.9,823.2,102.6L823.2,102.6
				L823.2,102.6z"/>
			<path class="st5" d="M829.5,104.3c0.2,1.1,3.3,2.3,4.5,2c1.1-0.2,10.1-0.9,9.9-2c-0.2-1.1-9.6-2.3-10.7-2
				C832,102.5,829.2,103.2,829.5,104.3L829.5,104.3z"/>
			<path class="st5" d="M831.9,101.4c1.1,0.3,3.7-1.7,4-2.7s4.5-9.2,3.5-9.5s-6.9,7-7.4,8.1C831.8,98.3,830.9,101.1,831.9,101.4
				L831.9,101.4z"/>
			<path class="st5" d="M838.4,101c0.7,1.1,4.2,1.1,5.1,0.5s9.3-4.6,8.6-5.7c-0.7-1.1-10.2,1.2-11.2,1.9
				C840.1,98.2,837.7,99.9,838.4,101L838.4,101L838.4,101z"/>
			<path class="st5" d="M840.8,97.2c1.2,0,2.8-2.7,2.8-3.8s1-9.5-0.2-9.5s-4,8.6-4,9.6C839.5,94.6,839.6,97.2,840.8,97.2L840.8,97.2
				L840.8,97.2z"/>
			<path class="st5" d="M847.1,89.9c1.1-0.2,2.1-3.2,1.9-4.3c-0.2-0.9-1.2-9.3-2.3-9s-1.9,9-1.7,10C845.3,87.6,846,90.1,847.1,89.9
				L847.1,89.9L847.1,89.9z"/>
			<path class="st5" d="M846.5,94.6c1,0.7,4.2-0.3,4.9-1.2c0.7-0.9,7.4-7.3,6.4-8s-9,4.4-9.8,5.2C847.3,91.6,845.6,93.8,846.5,94.6
				L846.5,94.6L846.5,94.6z"/>
			<path class="st5" d="M852,85.6c1,0.5,3.8-1.1,4.3-2s5.6-8.1,4.5-8.7c-1-0.5-7.6,5.8-8.1,6.8C852.2,82.6,851,85.1,852,85.6
				L852,85.6L852,85.6z"/>
			<path class="st5" d="M851.4,82.3c0.8-0.3,1.3-3.3,0.8-4.3s-2.6-9.2-3.5-8.8c-0.8,0.3-0.1,9,0.2,10
				C849.5,80.1,850.5,82.6,851.4,82.3L851.4,82.3L851.4,82.3z"/>
			<path class="st5" d="M855.1,76.6c1,0.2,3-2.1,3.2-3.3c0.2-1.1,3.1-9.4,2.1-9.6c-1-0.2-5.2,7.8-5.5,8.9
				C854.7,73.7,854.1,76.5,855.1,76.6L855.1,76.6z"/>
			<path class="st5" d="M853.4,72.9c0.8-0.5,0.8-3.2,0.2-4.1c-0.5-0.8-3.7-7.5-4.4-7s1.1,8.1,1.5,8.8
				C851.3,71.4,852.6,73.5,853.4,72.9L853.4,72.9L853.4,72.9z"/>
			<path class="st5" d="M855.9,66.1c1-0.1,2.3-2.8,2.1-3.9c-0.1-1.1,0.1-9.4-0.8-9.3c-1,0.1-2.7,8.6-2.6,9.6
				C854.6,63.6,854.9,66.2,855.9,66.1L855.9,66.1z"/>
			<path class="st5" d="M853.5,63.4c0.6-0.6-0.3-3.3-1.1-3.9s-6-6.5-6.5-5.8c-0.6,0.6,3.7,7.6,4.4,8.2
				C851,62.4,852.9,64.1,853.5,63.4L853.5,63.4z"/>
			<path class="st5" d="M849.9,54.7c0.5-0.6-0.2-2.6-0.8-3.2s-4.8-5.2-5.2-4.6s2.8,6.1,3.5,6.7C847.9,54,849.5,55.2,849.9,54.7
				C849.9,54.7,849.9,54.7,849.9,54.7z"/>
			<path class="st5" d="M853.9,56c0.7-0.2,1.2-3.1,1-4s-1.9-9-2.6-8.9c-0.7,0.2-0.3,8.7-0.1,9.6C852.3,53.7,853.2,56.2,853.9,56
				L853.9,56L853.9,56z"/>
			<path class="st5" d="M849.5,49.6c1-0.3,1.4-3.2,1.1-4.2c-0.3-1-2.3-8.7-3.2-8.3c-1,0.3-0.5,8.7-0.1,9.6
				C847.5,47.5,848.5,49.9,849.5,49.6L849.5,49.6L849.5,49.6z"/>
		</g>
	</g>
	
		<linearGradient id="darker_00000142867780040547369730000001362212261218247083_" gradientUnits="userSpaceOnUse" x1="810.025" y1="144.8023" x2="810.025" y2="79.3836" gradientTransform="matrix(1 0 0 1 0 -22.2923)">
		<stop  offset="0" style="stop-color:#1F1F1E"/>
		<stop  offset="1" style="stop-color:#3F3E3C"/>
	</linearGradient>
	
		<path id="darker" style="opacity:0.31;fill:url(#darker_00000142867780040547369730000001362212261218247083_);enable-background:new    ;" d="
		M882.2,57.3c-2.3,4.5-40.6,11.9-72.1,11.9s-70.4-8.1-72.7-11.9v65.2h145.3V58C882.5,57.2,882.3,56.8,882.2,57.3z"/>
</g>
<g id="arrow">
	<path class="st8" d="M716.6,71.2l-53-24.5l6.4,12.7h-59.7c0,0-1.8,5.7-1.8,11.2s1.8,10,1.8,10h60.8l-7.5,15L716.6,71.2L716.6,71.2
		L716.6,71.2C716.6,71.2,716.6,71.2,716.6,71.2z"/>
	
		<linearGradient id="SVGID_00000062909116451878013170000016364822588163724722_" gradientUnits="userSpaceOnUse" x1="661.135" y1="96.3623" x2="661.135" y2="56.5223" gradientTransform="matrix(1 0 0 1 0 -5.2823)">
		<stop  offset="0" style="stop-color:#532A15"/>
		<stop  offset="0.45" style="stop-color:#532A15;stop-opacity:0.7"/>
		<stop  offset="0.58" style="stop-color:#E03E17;stop-opacity:0.5"/>
		<stop  offset="1" style="stop-color:#E03E17;stop-opacity:0.5"/>
	</linearGradient>
	<path style="fill:url(#SVGID_00000062909116451878013170000016364822588163724722_);" d="M674.7,78.5H612c-0.5-1.6-1.2-4.6-1.2-7.8
		c0-3.5,0.8-7.1,1.3-9.1h61.5l-5.2-10.3l43.1,19.9l-43.1,19.9L674.7,78.5L674.7,78.5L674.7,78.5C674.7,78.5,674.7,78.5,674.7,78.5z"
		/>
	<path class="st10" d="M679.4,75.7h-65.2c-0.3-1.4-0.5-3.1-0.5-5c0-2.2,0.3-4.4,0.7-6.2h63.9l-3.6-7.2l30.1,13.9L674.6,85
		L679.4,75.7L679.4,75.7L679.4,75.7L679.4,75.7L679.4,75.7z"/>
	<path class="st11" d="M674.7,78.5H612c-0.5-1.6-1.2-4.6-1.2-7.8c0-3.5,0.8-7.1,1.3-9.1h61.5l-5.2-10.3l43.1,19.9l-43.1,19.9
		L674.7,78.5L674.7,78.5L674.7,78.5C674.7,78.5,674.7,78.5,674.7,78.5z"/>
</g>
<g id="microbe-3">
	<rect x="476.5" y="17.4" class="st12" width="107.5" height="107.5"/>
	
		<linearGradient id="SVGID_00000150824275794933890890000007834022487624594331_" gradientUnits="userSpaceOnUse" x1="-386.2226" y1="1232.0662" x2="-314.5998" y2="1160.4434" gradientTransform="matrix(0.7071 -0.7071 0.7071 0.7071 -67.7967 -1022.493)">
		<stop  offset="0" style="stop-color:#3E4A21"/>
		<stop  offset="0.14" style="stop-color:#4C5E25"/>
		<stop  offset="0.42" style="stop-color:#6A852B"/>
		<stop  offset="0.66" style="stop-color:#82A52E"/>
		<stop  offset="0.86" style="stop-color:#8FB923"/>
		<stop  offset="1" style="stop-color:#97C22A"/>
	</linearGradient>
	
		<rect x="479.7" y="20.5" style="fill:url(#SVGID_00000150824275794933890890000007834022487624594331_);" width="101.3" height="101.3"/>
	<rect x="484.6" y="25.4" class="st14" width="91.5" height="91.5"/>
	<g id="microbes-2">
		<polygon class="st15" points="531.5,80.3 527.2,80.9 527.8,85.2 523.5,84.5 522.8,88.8 518.9,86.8 517,90.7 513.8,87.7 
			510.9,90.9 508.7,87.1 504.9,89.1 504,84.9 499.8,85.9 500.2,81.6 495.9,81.1 497.5,77.2 493.5,75.5 496.3,72.2 492.9,69.4 
			496.5,67 494.1,63.5 498.3,62.2 497.1,58 501.4,58.1 501.5,53.8 505.6,55.1 506.9,51 510.4,53.5 512.9,49.9 515.6,53.4 519,50.7 
			520.5,54.7 524.6,53.3 524.8,57.6 529.1,57.3 528.1,61.5 532.3,62.5 530.1,66.2 533.9,68.4 530.6,71.4 533.5,74.6 529.6,76.4 		
			"/>
		<polygon class="st15" points="568.6,63 567.2,63.5 567.2,65.5 564.9,64.8 563.5,66.1 561.3,64.7 559.1,65.3 552.8,66.1 
			550.1,65.9 547.3,60.6 544.2,59.7 541.7,57 538.7,55.5 536.4,52.7 533.5,51.4 531.8,48.2 529.4,46.1 528.5,43.7 526.7,41.8 
			526.6,39.8 525.1,38.1 526.3,36.8 526.4,34.9 527.7,35 528.9,33.6 530.7,34.4 533.6,31.6 535.9,33.3 538.5,33.5 541,35.3 
			544.1,36.2 545.7,40.4 549,41.7 551.2,44.5 554.3,46.2 556.2,48.9 559.1,50.9 564,53.5 566.3,55.7 566.6,57.6 568.2,59.5 
			567.8,61.1 		"/>
		<polygon class="st15" points="563.8,83.6 564.1,84.1 564.8,85.4 563.5,86.2 563.6,87.7 560.7,88.8 559.5,90.7 555.9,94.2 
			551.8,96.1 546.5,97.7 543.3,99.7 539,100.6 535.3,102.3 531.1,103.1 527.8,104.7 523.7,104.9 520.1,106 517.2,105.9 514.3,106.6 
			512.4,106.1 509.7,106.6 509.6,105.3 508.8,104.9 509,103.6 508.8,102.3 510.8,101.3 510.6,98.2 513.8,97.1 515.9,95.3 
			519.5,94.1 523.7,92.9 527.5,92.3 531.1,90.3 535.3,89.6 539.1,87.9 542.9,87.3 546.9,85.9 552.8,83.1 556.6,82.2 558.5,82.6 
			561.4,82.1 562.4,82.9 		"/>
	</g>
	<path id="darker-2" class="st16" d="M581,121.8H479.7V66.3c0,0,31.9,4.9,50.6,4.9s50.7-4.9,50.7-4.9V121.8z"/>
</g>
<g>
	<path class="st17" d="M305.8,97c-5.1,0-9.6-1.1-13.4-3.2s-6.7-5.2-8.6-9.2s-3-8.5-3-13.5s1-9.5,3-13.5c2-4,4.9-7,8.7-9.2
		c3.8-2.1,8.3-3.2,13.3-3.2s9.5,1.1,13.3,3.2s6.7,5.2,8.7,9.2s3,8.5,3,13.5s-1,9.5-3,13.5s-4.9,7-8.6,9.2S310.9,97,305.8,97
		L305.8,97L305.8,97z M305.8,90.2c4.7,0,8.3-1.9,10.6-5.8s3.5-8.3,3.5-13.3s-1.2-9.5-3.5-13.3c-2.3-3.8-5.9-5.8-10.6-5.8
		s-8.3,1.9-10.6,5.8s-3.5,8.3-3.5,13.3s1.2,9.4,3.5,13.3S301,90.2,305.8,90.2L305.8,90.2L305.8,90.2z"/>
	<path class="st17" d="M340,95.8V46.6h18.4c3.8,0,6.6,0.5,8.6,1.4c2,0.9,3.5,2.4,4.7,4.3c1.1,1.9,1.7,4.1,1.7,6.5
		c0,2.9-0.8,5.6-2.5,8.2c-1.7,2.6-4,4.5-7,5.9l16.1,23h-12.5l-12.2-20.1h-5.6v20.1L340,95.8L340,95.8L340,95.8L340,95.8z
		 M349.6,68.9h2.4c4.2,0,7.1-0.9,8.8-2.8s2.4-3.9,2.4-6.2c0-2-0.6-3.6-2-4.8c-1.3-1.2-4-1.8-8-1.8h-3.6L349.6,68.9L349.6,68.9
		L349.6,68.9z"/>
</g>
<g id="microbe-4">
	<rect x="148.1" y="17.4" class="st12" width="107.5" height="107.5"/>
	
		<linearGradient id="SVGID_00000132089311293353987840000007114306212687219098_" gradientUnits="userSpaceOnUse" x1="-618.4648" y1="999.824" x2="-546.8419" y2="928.2012" gradientTransform="matrix(0.7071 -0.7071 0.7071 0.7071 -67.7967 -1022.493)">
		<stop  offset="0" style="stop-color:#3E4A21"/>
		<stop  offset="0.14" style="stop-color:#4C5E25"/>
		<stop  offset="0.42" style="stop-color:#6A852B"/>
		<stop  offset="0.66" style="stop-color:#82A52E"/>
		<stop  offset="0.86" style="stop-color:#8FB923"/>
		<stop  offset="1" style="stop-color:#97C22A"/>
	</linearGradient>
	
		<rect x="151.2" y="20.5" style="fill:url(#SVGID_00000132089311293353987840000007114306212687219098_);" width="101.3" height="101.3"/>
	<rect x="156.1" y="25.4" class="st14" width="91.5" height="91.5"/>
	<g id="microbes-3">
		<polygon class="st15" points="203,80.3 198.7,80.9 199.3,85.2 195,84.5 194.3,88.8 190.4,86.8 188.5,90.7 185.4,87.7 182.4,90.9 
			180.3,87.1 176.5,89.1 175.6,84.9 171.4,85.9 171.7,81.6 167.4,81.1 169.1,77.2 165.1,75.5 167.9,72.2 164.5,69.4 168.1,67 
			165.7,63.5 169.8,62.2 168.6,58 172.9,58.1 173,53.8 177.2,55.1 178.5,51 182,53.5 184.5,49.9 187.2,53.4 190.5,50.7 192.1,54.7 
			196.1,53.3 196.4,57.6 200.7,57.3 199.7,61.5 203.9,62.5 201.6,66.2 205.4,68.4 202.2,71.4 205.1,74.6 201.1,76.4 		"/>
		<polygon class="st15" points="240.2,63 238.7,63.5 238.7,65.5 236.5,64.8 235.1,66.1 232.9,64.7 230.6,65.3 224.3,66.1 
			221.6,65.9 218.9,60.6 215.8,59.7 213.3,57 210.3,55.5 207.9,52.7 205.1,51.4 203.4,48.2 201,46.1 200,43.7 198.3,41.8 
			198.1,39.8 196.6,38.1 197.9,36.8 197.9,34.9 199.2,35 200.4,33.6 202.2,34.4 205.2,31.6 207.4,33.3 210,33.5 212.6,35.3 
			215.6,36.2 217.2,40.4 220.5,41.7 222.8,44.5 225.9,46.2 227.8,48.9 230.7,50.9 235.5,53.5 237.9,55.7 238.2,57.6 239.8,59.5 
			239.3,61.1 		"/>
		<polygon class="st15" points="235.4,83.6 235.7,84.1 236.3,85.4 235.1,86.2 235.2,87.7 232.2,88.8 231.1,90.7 227.4,94.2 
			223.4,96.1 218,97.7 214.8,99.7 210.5,100.6 206.9,102.3 202.7,103.1 199.3,104.7 195.3,104.9 191.6,106 188.8,105.9 185.9,106.6 
			184,106.1 181.3,106.6 181.1,105.3 180.4,104.9 180.5,103.6 180.4,102.3 182.3,101.3 182.2,98.2 185.4,97.1 187.4,95.3 191,94.1 
			195.3,92.9 199.1,92.3 202.7,90.3 206.8,89.6 210.7,87.9 214.5,87.3 218.5,85.9 224.4,83.1 228.2,82.2 230.1,82.6 232.9,82.1 
			234,82.9 		"/>
	</g>
	<path id="darker-3" class="st16" d="M252.5,121.8H151.2V66.3c0,0,31.9,4.9,50.6,4.9s50.7-4.9,50.7-4.9L252.5,121.8L252.5,121.8z"/>
</g>
<g id="arrow-2">
	<path class="st8" d="M120,71.2L67,46.7l6.4,12.7H13.6c0,0-1.8,5.7-1.8,11.3s1.8,10,1.8,10h60.9l-7.6,15L120,71.2L120,71.2L120,71.2
		L120,71.2L120,71.2z"/>
	
		<linearGradient id="SVGID_00000074412837170195401750000016385518468921846970_" gradientUnits="userSpaceOnUse" x1="64.425" y1="96.3923" x2="64.425" y2="56.4923" gradientTransform="matrix(1 0 0 1 0 -5.2823)">
		<stop  offset="0" style="stop-color:#532A15"/>
		<stop  offset="0.45" style="stop-color:#532A15;stop-opacity:0.7"/>
		<stop  offset="0.58" style="stop-color:#E03E17;stop-opacity:0.5"/>
		<stop  offset="1" style="stop-color:#E03E17;stop-opacity:0.5"/>
	</linearGradient>
	<path style="fill:url(#SVGID_00000074412837170195401750000016385518468921846970_);" d="M78.1,78.5H15.2c-0.5-1.6-1.2-4.6-1.2-7.9
		c0-3.5,0.8-7.1,1.3-9.1h61.6l-5.2-10.3l43.2,19.9L71.7,91.1L78.1,78.5L78.1,78.5L78.1,78.5L78.1,78.5L78.1,78.5z"/>
	<path class="st10" d="M82.7,75.7H17.4c-0.3-1.4-0.5-3.1-0.5-5c0-2.2,0.4-4.5,0.7-6.2h64L78,57.2l30.1,13.9L78,85.1L82.7,75.7
		L82.7,75.7L82.7,75.7C82.7,75.7,82.7,75.7,82.7,75.7z"/>
	<path class="st11" d="M78.1,78.5H15.2c-0.5-1.6-1.2-4.6-1.2-7.9c0-3.5,0.8-7.1,1.3-9.1h61.6l-5.2-10.3l43.2,19.9L71.7,91.1
		L78.1,78.5L78.1,78.5L78.1,78.5L78.1,78.5L78.1,78.5z"/>
</g>
<path class="st17" d="M424.8,96.6v-7.7c5.1,2,9.3,2.9,12.6,2.9c3,0,5.4-0.8,7.3-2.3s2.8-3.7,2.8-6.3c0-1.9-0.5-3.7-1.5-5.2
	s-2.4-2.8-4.4-3.6s-4.9-1.3-9-1.3h-3.1v-6.1l2.7,0c3.9,0,6.8-0.3,8.5-1.1c1.7-0.7,3-1.8,4-3.3c1-1.5,1.5-3.1,1.5-4.8
	c0-2.1-0.7-3.7-2.1-5c-1.4-1.3-3.6-1.9-6.5-1.9c-3.7,0-7.8,1-12,2.9v-7c2.1-0.7,3.9-1.2,5.1-1.5c1.3-0.2,2.7-0.4,4.4-0.6
	c1.7-0.2,3.3-0.2,4.8-0.2c5.4,0,9.5,1.1,12.5,3.3s4.4,5.2,4.4,8.9c0,3-0.9,5.6-2.8,7.7c-1.9,2.1-4.7,3.8-8.5,5.1
	c3.3,0.8,5.8,1.8,7.6,3.2s3.1,2.9,4,4.8c0.9,1.8,1.4,3.8,1.4,5.9c0,3.9-1.5,7.3-4.6,10.4s-8,4.6-14.9,4.6c-1.8,0-3.7-0.1-5.7-0.2
	C431.1,98,428.3,97.5,424.8,96.6L424.8,96.6L424.8,96.6z"/>
</svg>
