<?xml version="1.0" encoding="utf-8"?>
<!-- Generator: Adobe Illustrator 26.3.1, SVG Export Plug-In . SVG Version: 6.00 Build 0)  -->
<svg version="1.1" id="Layer" xmlns="http://www.w3.org/2000/svg" xmlns:xlink="http://www.w3.org/1999/xlink" x="0px" y="0px"
	 viewBox="0 0 1173.5 141.7" style="enable-background:new 0 0 1173.5 141.7;" xml:space="preserve">
<style type="text/css">
	.st0{fill:#FFFFFF;fill-opacity:0;}
	.st1{fill:#020303;stroke:#030404;stroke-width:1.76;stroke-miterlimit:10;}
	.st2{fill:url(#obram_zolte_00000163783596536793811610000017910657204310640273_);}
	.st3{fill:url(#tlo_wew_00000169530931289586925930000002849285703417631148_);}
	.st4{fill:url(#obram_skosne_00000004541245146519708650000008413417012004626622_);}
	.st5{fill:url(#tlo_zew_00000098933174133210491950000013122768939194653880_);}
	.st6{fill:#010101;}
	.st7{fill:#FFFFFF;}
</style>
<rect y="0" class="st0" width="1173.5" height="141.7"/>
<g id="mln">
	<polygon id="obram_czarne" class="st1" points="568.3,17.8 552,34.1 552,109.1 568.3,125.4 643.5,125.4 659.7,109.1 659.7,34.1 
		643.5,17.8 	"/>
	
		<linearGradient id="obram_zolte_00000000216911623687258550000003753868624156857521_" gradientUnits="userSpaceOnUse" x1="605.915" y1="138.2923" x2="605.915" y2="36.8023" gradientTransform="matrix(1 0 0 1 0 -15.9323)">
		<stop  offset="0.16" style="stop-color:#823A13"/>
		<stop  offset="0.18" style="stop-color:#985C1A"/>
		<stop  offset="0.22" style="stop-color:#AE7D22"/>
		<stop  offset="0.26" style="stop-color:#C39D26"/>
		<stop  offset="0.3" style="stop-color:#D6B92E"/>
		<stop  offset="0.35" style="stop-color:#E4CF36"/>
		<stop  offset="0.41" style="stop-color:#EFE036"/>
		<stop  offset="0.48" style="stop-color:#F6E947"/>
		<stop  offset="0.58" style="stop-color:#F8EA4E"/>
		<stop  offset="0.86" style="stop-color:#F6EA4D"/>
		<stop  offset="1" style="stop-color:#FCF4F9"/>
	</linearGradient>
	<polygon id="obram_zolte" style="fill:url(#obram_zolte_00000000216911623687258550000003753868624156857521_);" points="
		570.4,20.9 555.2,36.2 555.2,107 570.4,122.4 641.2,122.4 656.6,107 656.6,36.2 641.2,20.9 	"/>
	
		<linearGradient id="tlo_wew_00000173162489045727530770000001740249042891145365_" gradientUnits="userSpaceOnUse" x1="605.915" y1="31.3723" x2="605.915" y2="186.5123" gradientTransform="matrix(1 0 0 1 0 -15.9323)">
		<stop  offset="0.26" style="stop-color:#F6EA4D"/>
		<stop  offset="0.86" style="stop-color:#803813"/>
	</linearGradient>
	<polygon id="tlo_wew" style="fill:url(#tlo_wew_00000173162489045727530770000001740249042891145365_);" points="571.5,22.3 
		556.6,37.2 556.6,105.9 571.5,120.8 640.3,120.8 655.2,105.9 655.2,37.2 640.3,22.3 	"/>
	
		<linearGradient id="obram_skosne_00000167368501644747307120000008740645387835626663_" gradientUnits="userSpaceOnUse" x1="606" y1="136.9423" x2="606" y2="38.3123" gradientTransform="matrix(1 0 0 1 0 -15.9323)">
		<stop  offset="0.16" style="stop-color:#803813"/>
		<stop  offset="0.17" style="stop-color:#8C471E"/>
		<stop  offset="0.18" style="stop-color:#A26B3C"/>
		<stop  offset="0.2" style="stop-color:#B78954"/>
		<stop  offset="0.22" style="stop-color:#C7A468"/>
		<stop  offset="0.24" style="stop-color:#D7BB7A"/>
		<stop  offset="0.26" style="stop-color:#E2CC88"/>
		<stop  offset="0.3" style="stop-color:#EAD891"/>
		<stop  offset="0.34" style="stop-color:#EEDE97"/>
		<stop  offset="0.46" style="stop-color:#EFE097"/>
		<stop  offset="0.7" style="stop-color:#803813"/>
		<stop  offset="0.73" style="stop-color:#E6D234"/>
		<stop  offset="0.74" style="stop-color:#EBD948"/>
		<stop  offset="0.75" style="stop-color:#EEDE6D"/>
		<stop  offset="0.77" style="stop-color:#F0E28A"/>
		<stop  offset="0.79" style="stop-color:#F8EBAA"/>
		<stop  offset="0.8" style="stop-color:#F8EDBF"/>
		<stop  offset="0.83" style="stop-color:#FAF0CF"/>
		<stop  offset="0.85" style="stop-color:#FCF2DA"/>
		<stop  offset="0.89" style="stop-color:#FDF4E1"/>
		<stop  offset="0.99" style="stop-color:#FDF5E3"/>
	</linearGradient>
	<path id="obram_skosne" style="fill:url(#obram_skosne_00000167368501644747307120000008740645387835626663_);" d="M648,90.6
		c-2.8,0-5-2.2-5-5V57.5c0-2.8,2.2-5,5-5h7.1V37.2l-14.8-14.9h-15.5v7.1c0,2.8-2.2,5-5,5h-28.1c-2.8,0-5-2.2-5-5v-7.1h-15.4
		l-14.8,14.9v15.5h7.1c2.8,0,5,2.2,5,5v28.1c0,2.8-2.2,5-5,5h-7.1v15.4l14.9,14.9H587V114c0-2.8,2.2-5,5-5h28.1c2.8,0,5,2.2,5,5v7.1
		h15.5l14.9-14.9V90.6H648L648,90.6z"/>
	
		<linearGradient id="tlo_zew_00000039098176981370976760000011358264297614271420_" gradientUnits="userSpaceOnUse" x1="605.8751" y1="52.7323" x2="605.8751" y2="204.9023" gradientTransform="matrix(1 0 0 1 0 -15.9323)">
		<stop  offset="0.26" style="stop-color:#F6EA4D"/>
		<stop  offset="0.77" style="stop-color:#803813"/>
	</linearGradient>
	<path id="tlo_zew" style="fill:url(#tlo_zew_00000039098176981370976760000011358264297614271420_);" d="M647.8,92.3
		c-3.4,0-6-3.4-6-6.7v-28c0-3.4,2.8-6.7,6-6.7h5.7V38.3L639.1,24h-12.4v5.7c0,3.4-3.4,6.1-6.7,6.1h-28c-3.4,0-6.7-2.8-6.7-6.1V24
		h-12.6l-14.4,14.4v12.5h5.7c3.4,0,6,3.4,6,6.7v28c0,3.4-2.8,6.7-6,6.7h-5.7v12.5l14.4,14.4h12.5v-5.7c0-3.4,3.4-6.1,6.7-6.1h27.9
		c3.4,0,6.7,2.8,6.7,6.1v5.7H639l14.4-14.4V92.3H647.8L647.8,92.3z"/>
</g>
<g>
	<path class="st6" d="M577,78v-6.2h14.8V78H577z"/>
	<path class="st6" d="M598.9,95.8v-7.8c3-4,5.8-7.2,8.6-9.6l4-3.6c2.9-2.6,5.2-5.1,7.1-7.6c1.9-2.5,2.8-5.1,2.8-7.8
		c0-2.5-0.8-4.4-2.4-5.7c-1.6-1.3-3.7-2-6.4-2c-3.6,0-7.8,1.2-12.5,3.7v-7.2c5-1.9,9.8-2.8,14.5-2.8c5.2,0,9.3,1.2,12.5,3.7
		c3.2,2.5,4.8,5.8,4.8,9.9c0,2.6-0.7,5.1-2,7.4s-4.1,5.2-8.3,8.6l-3.3,2.7c-1.5,1.2-3.1,2.7-4.8,4.5S610.5,86,610,88h21.7v7.8
		L598.9,95.8L598.9,95.8z"/>
</g>
<path class="st7" d="M513.9,63.7V52.5H525v11.2C525,63.7,513.9,63.7,513.9,63.7z M513.9,94V82.8H525V94H513.9z"/>
</svg>
