<?xml version="1.0" encoding="utf-8"?>
<!-- Generator: Adobe Illustrator 26.3.1, SVG Export Plug-In . SVG Version: 6.00 Build 0)  -->
<svg version="1.1" id="Layer" xmlns="http://www.w3.org/2000/svg" xmlns:xlink="http://www.w3.org/1999/xlink" x="0px" y="0px"
	 viewBox="0 0 1173.5 141.7" style="enable-background:new 0 0 1173.5 141.7;" xml:space="preserve">
<style type="text/css">
	.st0{fill:#FFFFFF;fill-opacity:0;}
	.st1{fill:#030304;}
	.st2{fill:url(#SVGID_1_);}
	.st3{fill:#E62B23;}
	.st4{opacity:5.000000e-02;fill:#030304;enable-background:new    ;}
	.st5{fill:#FFD113;}
	.st6{fill:url(#SVGID_00000076605990656092884310000004447280054204295319_);}
	.st7{fill:url(#SVGID_00000007400899930557310580000015497451601212245669_);}
	.st8{fill:#010202;stroke:#030304;stroke-width:1.76;stroke-miterlimit:10;}
	.st9{fill:url(#obram_zolte_00000019665056766429945170000000768893645308511362_);}
	.st10{fill:url(#tlo_wew_00000057133621878539072210000001628113376067735733_);}
	.st11{fill:url(#obram_skosne_00000098904855053421568590000012970647749431886985_);}
	.st12{fill:url(#tlo_zew_00000084520037143685346340000005590513205820443051_);}
	.st13{fill:#010101;}
	.st14{fill:#FFFFFF;}
	.st15{fill:url(#SVGID_00000095298053854109019240000000673724733374564749_);}
	.st16{fill:url(#SVGID_00000151503393270934964730000017770475954270021307_);}
	.st17{opacity:8.000000e-02;fill:#030304;enable-background:new    ;}
	.st18{fill:#222222;}
	.st19{fill:#010202;}
	.st20{fill:url(#SVGID_00000021088036742297166530000010454375200262319765_);}
	.st21{fill:#6A6A69;}
	.st22{fill:url(#ciemniej_00000144303050668010157490000015761378115031553159_);}
	.st23{fill:#F4E956;}
</style>
<rect y="0" class="st0" width="1173.5" height="141.7"/>
<g id="heat">
	<rect x="619.4" y="17.1" class="st1" width="107.8" height="107.8"/>
	
		<linearGradient id="SVGID_1_" gradientUnits="userSpaceOnUse" x1="-384.0797" y1="-1430.944" x2="-312.2234" y2="-1359.0878" gradientTransform="matrix(0.7071 -0.7071 -0.7071 -0.7071 -66.8848 -1161.6155)">
		<stop  offset="0" style="stop-color:#951919"/>
		<stop  offset="0.21" style="stop-color:#B9251D"/>
		<stop  offset="0.47" style="stop-color:#E62B23"/>
		<stop  offset="0.55" style="stop-color:#E62F2A"/>
		<stop  offset="0.84" style="stop-color:#E73A3B"/>
		<stop  offset="1" style="stop-color:#E83E41"/>
	</linearGradient>
	<rect x="622.5" y="20.2" class="st2" width="101.6" height="101.6"/>
	<rect x="627.5" y="25.1" class="st3" width="91.8" height="91.8"/>
	<path id="darker" class="st4" d="M724.2,121.8H622.5V66.1c0,0,32,4.9,50.8,4.9s50.8-4.9,50.8-4.9V121.8z"/>
	<g>
		<polygon class="st5" points="661.9,75.7 650.3,65.7 650.3,65.7 650.3,35 638.7,66.3 650.4,76.1 650.4,76.1 650.3,106.9 		"/>
		<polygon class="st5" points="685,75.7 673.4,65.7 673.3,65.7 673.4,35 661.8,66.3 673.4,76.1 673.4,76.1 673.4,106.9 		"/>
		<polygon class="st5" points="708.7,75.7 697.1,65.7 697,65.7 697.1,35 685.5,66.3 697.1,76.1 697.1,76.1 697.1,106.9 		"/>
	</g>
</g>
<g id="heat-2">
	<rect x="740.6" y="17.1" class="st1" width="107.8" height="107.8"/>
	
		<linearGradient id="SVGID_00000174571433330352900310000014817321766837370794_" gradientUnits="userSpaceOnUse" x1="-298.4045" y1="-1516.624" x2="-226.5383" y2="-1444.7678" gradientTransform="matrix(0.7071 -0.7071 -0.7071 -0.7071 -66.8848 -1161.6155)">
		<stop  offset="0" style="stop-color:#951919"/>
		<stop  offset="0.21" style="stop-color:#B9251D"/>
		<stop  offset="0.47" style="stop-color:#E62B23"/>
		<stop  offset="0.55" style="stop-color:#E62F2A"/>
		<stop  offset="0.84" style="stop-color:#E73A3B"/>
		<stop  offset="1" style="stop-color:#E83E41"/>
	</linearGradient>
	
		<rect x="743.7" y="20.2" style="fill:url(#SVGID_00000174571433330352900310000014817321766837370794_);" width="101.6" height="101.6"/>
	<rect x="748.7" y="25.1" class="st3" width="91.8" height="91.8"/>
	<path id="darker-2" class="st4" d="M845.3,121.8H743.7V66.1c0,0,32,4.9,50.8,4.9s50.8-4.9,50.8-4.9V121.8z"/>
	<g>
		<polygon class="st5" points="783.1,75.7 771.5,65.7 771.5,65.7 771.5,35 759.9,66.3 771.6,76.1 771.6,76.1 771.5,106.9 		"/>
		<polygon class="st5" points="806.2,75.7 794.6,65.7 794.5,65.7 794.6,35 783,66.3 794.6,76.1 794.6,76.1 794.6,106.9 		"/>
		<polygon class="st5" points="829.9,75.7 818.3,65.7 818.2,65.7 818.3,35 806.7,66.3 818.3,76.1 818.3,76.1 818.3,106.9 		"/>
	</g>
</g>
<g id="heat-3">
	<rect x="861.7" y="17.1" class="st1" width="107.8" height="107.8"/>
	
		<linearGradient id="SVGID_00000093147117333609130590000004087074844704976303_" gradientUnits="userSpaceOnUse" x1="-212.7881" y1="-1602.2406" x2="-140.9218" y2="-1530.3844" gradientTransform="matrix(0.7071 -0.7071 -0.7071 -0.7071 -66.8848 -1161.6155)">
		<stop  offset="0" style="stop-color:#951919"/>
		<stop  offset="0.21" style="stop-color:#B9251D"/>
		<stop  offset="0.47" style="stop-color:#E62B23"/>
		<stop  offset="0.55" style="stop-color:#E62F2A"/>
		<stop  offset="0.84" style="stop-color:#E73A3B"/>
		<stop  offset="1" style="stop-color:#E83E41"/>
	</linearGradient>
	
		<rect x="864.8" y="20.2" style="fill:url(#SVGID_00000093147117333609130590000004087074844704976303_);" width="101.6" height="101.6"/>
	<rect x="869.7" y="25.1" class="st3" width="91.8" height="91.8"/>
	<path id="darker-3" class="st4" d="M966.4,121.8H864.8V66.1c0,0,32,4.9,50.8,4.9s50.8-4.9,50.8-4.9V121.8z"/>
	<g>
		<polygon class="st5" points="904.2,75.7 892.6,65.7 892.6,65.7 892.6,35 881,66.3 892.7,76.1 892.7,76.1 892.6,106.9 		"/>
		<polygon class="st5" points="927.2,75.7 915.7,65.7 915.6,65.7 915.7,35 904.1,66.3 915.7,76.1 915.7,76.1 915.7,106.9 		"/>
		<polygon class="st5" points="950.9,75.7 939.3,65.7 939.3,65.7 939.3,35 927.8,66.3 939.3,76.1 939.3,76.1 939.3,106.9 		"/>
	</g>
</g>
<g id="mln">
	<polygon id="obram_czarne" class="st8" points="515.9,17.2 499.6,33.5 499.6,108.5 515.9,124.8 591,124.8 607.2,108.5 607.2,33.5 
		591,17.2 	"/>
	
		<linearGradient id="obram_zolte_00000160870176701569507450000000385603688798727573_" gradientUnits="userSpaceOnUse" x1="553.445" y1="154.7123" x2="553.445" y2="53.3523" gradientTransform="matrix(1 0 0 1 0 -33.0423)">
		<stop  offset="0.16" style="stop-color:#823A13"/>
		<stop  offset="0.18" style="stop-color:#985C1A"/>
		<stop  offset="0.22" style="stop-color:#AE7D22"/>
		<stop  offset="0.26" style="stop-color:#C39D26"/>
		<stop  offset="0.3" style="stop-color:#D6B92E"/>
		<stop  offset="0.35" style="stop-color:#E4CF36"/>
		<stop  offset="0.41" style="stop-color:#EFE036"/>
		<stop  offset="0.48" style="stop-color:#F6E947"/>
		<stop  offset="0.58" style="stop-color:#F8EA4E"/>
		<stop  offset="0.86" style="stop-color:#F6EA4D"/>
		<stop  offset="1" style="stop-color:#FCF4F9"/>
	</linearGradient>
	<polygon id="obram_zolte" style="fill:url(#obram_zolte_00000160870176701569507450000000385603688798727573_);" points="518,20.3 
		502.8,35.6 502.8,106.3 518,121.7 588.8,121.7 604.1,106.3 604.1,35.6 588.8,20.3 	"/>
	
		<linearGradient id="tlo_wew_00000171692939902746239530000006031288395651540875_" gradientUnits="userSpaceOnUse" x1="553.445" y1="47.9523" x2="553.445" y2="202.8823" gradientTransform="matrix(1 0 0 1 0 -33.0423)">
		<stop  offset="0.26" style="stop-color:#F6EA4D"/>
		<stop  offset="0.86" style="stop-color:#803813"/>
	</linearGradient>
	<polygon id="tlo_wew" style="fill:url(#tlo_wew_00000171692939902746239530000006031288395651540875_);" points="519.1,21.8 
		504.2,36.7 504.2,105.3 519.1,120.2 587.8,120.2 602.7,105.3 602.7,36.7 587.8,21.8 	"/>
	
		<linearGradient id="obram_skosne_00000057117879747803902190000008870128422314162818_" gradientUnits="userSpaceOnUse" x1="553.5049" y1="153.3023" x2="553.5049" y2="54.8623" gradientTransform="matrix(1 0 0 1 0 -33.0423)">
		<stop  offset="0.16" style="stop-color:#803813"/>
		<stop  offset="0.17" style="stop-color:#8C471E"/>
		<stop  offset="0.18" style="stop-color:#A26B3C"/>
		<stop  offset="0.2" style="stop-color:#B78954"/>
		<stop  offset="0.22" style="stop-color:#C7A468"/>
		<stop  offset="0.24" style="stop-color:#D7BB7A"/>
		<stop  offset="0.26" style="stop-color:#E2CC88"/>
		<stop  offset="0.3" style="stop-color:#EAD891"/>
		<stop  offset="0.34" style="stop-color:#EEDE97"/>
		<stop  offset="0.46" style="stop-color:#EFE097"/>
		<stop  offset="0.7" style="stop-color:#803813"/>
		<stop  offset="0.73" style="stop-color:#E6D234"/>
		<stop  offset="0.74" style="stop-color:#EBD948"/>
		<stop  offset="0.75" style="stop-color:#EEDE6D"/>
		<stop  offset="0.77" style="stop-color:#F0E28A"/>
		<stop  offset="0.79" style="stop-color:#F8EBAA"/>
		<stop  offset="0.8" style="stop-color:#F8EDBF"/>
		<stop  offset="0.83" style="stop-color:#FAF0CF"/>
		<stop  offset="0.85" style="stop-color:#FCF2DA"/>
		<stop  offset="0.89" style="stop-color:#FDF4E1"/>
		<stop  offset="0.99" style="stop-color:#FDF5E3"/>
	</linearGradient>
	<path id="obram_skosne" style="fill:url(#obram_skosne_00000057117879747803902190000008870128422314162818_);" d="M595.5,90
		c-2.7,0-4.9-2.2-4.9-4.9V57c0-2.7,2.2-4.9,4.9-4.9h7V36.7l-14.8-14.9h-15.4v7c0,2.7-2.2,4.9-4.9,4.9h-28.1c-2.7,0-4.9-2.2-4.9-4.9
		v-7h-15.3l-14.9,14.9v15.4h7c2.7,0,4.9,2.2,4.9,4.9v28.1c0,2.7-2.2,4.9-4.9,4.9h-7v15.3l14.9,14.9h15.4v-7.1c0-2.7,2.2-4.9,4.9-4.9
		h28.1c2.7,0,4.9,2.2,4.9,4.9v7.1h15.4l14.9-14.9V90H595.5L595.5,90z"/>
	
		<linearGradient id="tlo_zew_00000021084275399219581370000017513517502844044168_" gradientUnits="userSpaceOnUse" x1="553.45" y1="69.2823" x2="553.45" y2="221.2523" gradientTransform="matrix(1 0 0 1 0 -33.0423)">
		<stop  offset="0.26" style="stop-color:#F6EA4D"/>
		<stop  offset="0.77" style="stop-color:#803813"/>
	</linearGradient>
	<path id="tlo_zew" style="fill:url(#tlo_zew_00000021084275399219581370000017513517502844044168_);" d="M595.3,91.6
		c-3.3,0-6.1-3.3-6.1-6.7V57c0-3.3,2.7-6.7,6.1-6.7h5.7V37.8l-14.4-14.4h-12.4v5.7c0,3.4-3.3,6.1-6.7,6.1h-27.9
		c-3.3,0-6.7-2.7-6.7-6.1v-5.7h-12.6l-14.4,14.4v12.5h5.7c3.3,0,6.1,3.3,6.1,6.7V85c0,3.3-2.7,6.7-6.1,6.7h-5.7v12.5l14.3,14.3h12.5
		v-5.7c0-3.3,3.3-6.1,6.7-6.1h27.8c3.3,0,6.7,2.7,6.7,6.1v5.7h12.5l14.3-14.3V91.6C600.8,91.6,595.3,91.6,595.3,91.6z"/>
</g>
<path class="st13" d="M538.4,95.9v-7.5c4.9,1.9,9.1,2.8,12.4,2.8c2.8,0,5.3-0.8,7.1-2.2s2.8-3.6,2.8-6.1c0-1.9-0.5-3.6-1.5-5.1
	s-2.4-2.7-4.2-3.6s-4.8-1.3-8.8-1.3h-3v-6h2.6c3.8,0,6.6-0.3,8.2-1s2.9-1.7,3.9-3.2s1.4-3,1.4-4.7c0-2-0.7-3.6-2.1-4.9
	s-3.5-1.9-6.4-1.9c-3.6,0-7.5,1-11.7,2.8v-6.8c2.1-0.7,3.7-1.2,5-1.5s2.7-0.4,4.3-0.6s3.2-0.3,4.7-0.3c5.3,0,9.3,1,12.1,3.3
	c2.8,2.2,4.2,5,4.2,8.7c0,2.9-1,5.5-2.8,7.5c-1.8,2.1-4.6,3.7-8.3,4.9c3.2,0.8,5.7,1.7,7.3,3.1c1.7,1.3,3,2.8,3.9,4.7
	s1.4,3.7,1.4,5.8c0,3.8-1.5,7.2-4.5,10.1s-7.8,4.4-14.4,4.4c-1.7,0-3.6-0.1-5.6-0.2C544.5,97.3,541.8,96.8,538.4,95.9L538.4,95.9
	L538.4,95.9z"/>
<path class="st14" d="M451.3,62.8V51.3h11.5v11.5H451.3z M451.3,94V82.5h11.5V94H451.3z"/>
<g id="tagEvent">
	<path class="st1" d="M430.5,70.9c0,29.9-24.3,54.2-54.2,54.2s-54.2-24.3-54.2-54.2s24.3-54.2,54.2-54.2
		C406.3,16.7,430.5,40.9,430.5,70.9z"/>
	
		<linearGradient id="SVGID_00000168103430320842858450000005814972573737512088_" gradientUnits="userSpaceOnUse" x1="376.38" y1="-11.4377" x2="376.38" y2="89.0823" gradientTransform="matrix(1 0 0 -1 0 109.7323)">
		<stop  offset="0" style="stop-color:#ED932B"/>
		<stop  offset="1" style="stop-color:#F6EA4D"/>
	</linearGradient>
	<path style="fill:url(#SVGID_00000168103430320842858450000005814972573737512088_);" d="M426.6,70.9c0,27.7-22.5,50.2-50.2,50.2
		s-50.2-22.5-50.2-50.2s22.4-50.3,50.1-50.3S426.6,43.1,426.6,70.9L426.6,70.9z"/>
	
		<linearGradient id="SVGID_00000172397909996832607660000003596792548975524246_" gradientUnits="userSpaceOnUse" x1="331.07" y1="103.9823" x2="421.8" y2="103.9823" gradientTransform="matrix(1 0 0 1 0 -33.0423)">
		<stop  offset="9.000000e-02" style="stop-color:#F6EA4D"/>
		<stop  offset="0.98" style="stop-color:#F6EA4D"/>
	</linearGradient>
	<path style="fill:url(#SVGID_00000172397909996832607660000003596792548975524246_);" d="M421.8,70.9c0,25-20.3,45.4-45.4,45.4
		S331.1,96,331.1,70.9s20.3-45.4,45.4-45.4S421.8,45.8,421.8,70.9L421.8,70.9z"/>
	<path id="darker-4" class="st17" d="M426.6,70.9c0-1.1,0-2-0.1-3c-10.1,2.8-27.6,6.4-50.1,6.4s-39.5-4.4-50-8.1
		c-0.2,1.6-0.3,3.2-0.3,4.7c0,27.7,22.5,50.2,50.2,50.2S426.6,98.8,426.6,70.9L426.6,70.9z"/>
	<rect x="364.8" y="37.4" class="st18" width="22.8" height="37"/>
	<polygon class="st19" points="353.4,74.5 398.6,74.5 377.2,104.6 	"/>
</g>
<g id="tagSpace">
	<path class="st1" d="M313.2,70.9c0,29.9-24.3,54.2-54.2,54.2s-54.2-24.2-54.2-54.2s24.3-54.2,54.2-54.2S313.2,40.9,313.2,70.9z"/>
	
		<linearGradient id="SVGID_00000142136863679764629780000003832493872369164989_" gradientUnits="userSpaceOnUse" x1="259.02" y1="-28.4477" x2="259.02" y2="72.0723" gradientTransform="matrix(1 0 0 -1 0 92.7223)">
		<stop  offset="0" style="stop-color:#030304"/>
		<stop  offset="7.000000e-02" style="stop-color:#030404"/>
		<stop  offset="0.11" style="stop-color:#070909"/>
		<stop  offset="0.14" style="stop-color:#0F1113"/>
		<stop  offset="0.16" style="stop-color:#1D1F21"/>
		<stop  offset="0.19" style="stop-color:#2D2D2F"/>
		<stop  offset="0.21" style="stop-color:#3F3E3C"/>
		<stop  offset="0.4" style="stop-color:#595756"/>
		<stop  offset="0.67" style="stop-color:#7B7A7A"/>
		<stop  offset="0.88" style="stop-color:#929292"/>
		<stop  offset="1" style="stop-color:#9F9D9C"/>
	</linearGradient>
	<path style="fill:url(#SVGID_00000142136863679764629780000003832493872369164989_);" d="M309.3,70.9c0,27.7-22.5,50.2-50.2,50.2
		s-50.3-22.4-50.3-50.2s22.5-50.3,50.2-50.3S309.3,43.1,309.3,70.9L309.3,70.9z"/>
	<path class="st21" d="M304.4,70.9c0,25-20.3,45.4-45.4,45.4S213.6,96,213.6,70.9s20.3-45.4,45.4-45.4S304.4,45.9,304.4,70.9z"/>
	
		<linearGradient id="ciemniej_00000142143943007362549720000007453482812069283259_" gradientUnits="userSpaceOnUse" x1="259.02" y1="-28.5377" x2="259.02" y2="26.4023" gradientTransform="matrix(1 0 0 -1 0 92.7223)">
		<stop  offset="0" style="stop-color:#070808"/>
		<stop  offset="1" style="stop-color:#292A29"/>
	</linearGradient>
	<path id="ciemniej" style="fill:url(#ciemniej_00000142143943007362549720000007453482812069283259_);" d="M309.3,70.9
		c0-1.1,0-2-0.1-3c-10.1,2.8-27.6,6.4-50.1,6.4s-39.5-4.4-50-8.1c-0.2,1.6-0.3,3.2-0.3,4.7c0,27.7,22.5,50.2,50.2,50.2
		S309.3,98.8,309.3,70.9L309.3,70.9z"/>
	<g id="gwiazda">
		<circle class="st23" cx="259" cy="70.9" r="7.4"/>
		<path class="st23" d="M268.3,66.3l16.4-21l-21,16.4C265.7,62.6,267.4,64.3,268.3,66.3L268.3,66.3z"/>
		<path class="st23" d="M254.3,61.7l-21-16.4l16.4,21C250.7,64.3,252.3,62.6,254.3,61.7z"/>
		<path class="st23" d="M295.3,70.9l-26.4-3.3c0.4,1.1,0.5,2.2,0.5,3.3s-0.2,2.3-0.5,3.3C268.9,74.4,295.3,71,295.3,70.9z"/>
		<path class="st23" d="M262.3,61.1L259,34.6l-3.3,26.4c1-0.3,2.2-0.5,3.3-0.5C260.2,60.5,261.2,60.8,262.3,61.1z"/>
		<path class="st23" d="M263.7,80.2l21,16.4l-16.4-21C267.4,77.6,265.7,79.2,263.7,80.2z"/>
		<path class="st23" d="M248.6,70.9c0-1.1,0.2-2.3,0.5-3.3l-26.4,3.3l26.4,3.3C248.8,73.3,248.6,72.2,248.6,70.9z"/>
		<path class="st23" d="M255.6,80.9l3.3,26.4l3.3-26.4c-1,0.3-2.2,0.5-3.3,0.5S256.8,81.3,255.6,80.9z"/>
		<path class="st23" d="M249.7,75.7l-16.4,21l21-16.4C252.3,79.3,250.7,77.6,249.7,75.7z"/>
	</g>
</g>
</svg>
