<?xml version="1.0" encoding="utf-8"?>
<!-- Generator: Adobe Illustrator 26.3.1, SVG Export Plug-In . SVG Version: 6.00 Build 0)  -->
<svg version="1.1" id="Layer" xmlns="http://www.w3.org/2000/svg" xmlns:xlink="http://www.w3.org/1999/xlink" x="0px" y="0px"
	 viewBox="0 0 1173.5 141.7" style="enable-background:new 0 0 1173.5 141.7;" xml:space="preserve">
<style type="text/css">
	.st0{fill:#FFFFFF;fill-opacity:0;}
	.st1{fill:#010202;stroke:#030304;stroke-width:1.74;stroke-miterlimit:10;}
	.st2{fill:url(#obram_zolte_00000095335095543513852370000010256782764550555574_);}
	.st3{fill:url(#tlo_wew_00000103248466026530294570000003076273262033409437_);}
	.st4{fill:url(#obram_skosne_00000099654266127030330450000013830863197237676164_);}
	.st5{fill:url(#tlo_zew_00000051378413393339086050000005026658730521557632_);}
	.st6{fill:#010101;}
	.st7{fill:#FFFFFF;}
	.st8{fill:#030304;}
	.st9{fill:url(#SVGID_1_);}
	.st10{fill:url(#SVGID_00000091002430992694067790000016592325387298588325_);}
	.st11{opacity:8.000000e-02;fill:#030304;enable-background:new    ;}
	.st12{fill:#222222;}
	.st13{fill:#010202;}
</style>
<rect y="0" class="st0" width="1173.5" height="141.7"/>
<g id="mln">
	<polygon id="obram_czarne" class="st1" points="638.7,17.5 622.5,33.7 622.5,107.9 638.7,124 713,124 729,107.9 729,33.7 713,17.5 
			"/>
	
		<linearGradient id="obram_zolte_00000176752839520946701810000016901723133351835054_" gradientUnits="userSpaceOnUse" x1="675.815" y1="154.4323" x2="675.815" y2="54.0623" gradientTransform="matrix(1 0 0 1 0 -33.4623)">
		<stop  offset="0.16" style="stop-color:#823A13"/>
		<stop  offset="0.18" style="stop-color:#985C1A"/>
		<stop  offset="0.22" style="stop-color:#AE7D22"/>
		<stop  offset="0.26" style="stop-color:#C39D26"/>
		<stop  offset="0.3" style="stop-color:#D6B92E"/>
		<stop  offset="0.35" style="stop-color:#E4CF36"/>
		<stop  offset="0.41" style="stop-color:#EFE036"/>
		<stop  offset="0.48" style="stop-color:#F6E947"/>
		<stop  offset="0.58" style="stop-color:#F8EA4E"/>
		<stop  offset="0.86" style="stop-color:#F6EA4D"/>
		<stop  offset="1" style="stop-color:#FCF4F9"/>
	</linearGradient>
	<polygon id="obram_zolte" style="fill:url(#obram_zolte_00000176752839520946701810000016901723133351835054_);" points="
		640.8,20.6 625.7,35.8 625.7,105.8 640.8,121 710.8,121 726,105.8 726,35.8 710.8,20.6 	"/>
	
		<linearGradient id="tlo_wew_00000080174816462495200640000005624392022067671946_" gradientUnits="userSpaceOnUse" x1="675.815" y1="48.7223" x2="675.815" y2="202.1423" gradientTransform="matrix(1 0 0 1 0 -33.4623)">
		<stop  offset="0.26" style="stop-color:#F6EA4D"/>
		<stop  offset="0.86" style="stop-color:#803813"/>
	</linearGradient>
	<polygon id="tlo_wew" style="fill:url(#tlo_wew_00000080174816462495200640000005624392022067671946_);" points="641.8,22.1 
		627.1,36.8 627.1,104.8 641.8,119.5 709.8,119.5 724.6,104.8 724.6,36.8 709.8,22.1 	"/>
	
		<linearGradient id="obram_skosne_00000130615978193843934760000003454554613612561810_" gradientUnits="userSpaceOnUse" x1="675.87" y1="153.0423" x2="675.87" y2="55.5523" gradientTransform="matrix(1 0 0 1 0 -33.4623)">
		<stop  offset="0.16" style="stop-color:#803813"/>
		<stop  offset="0.17" style="stop-color:#8C471E"/>
		<stop  offset="0.18" style="stop-color:#A26B3C"/>
		<stop  offset="0.2" style="stop-color:#B78954"/>
		<stop  offset="0.22" style="stop-color:#C7A468"/>
		<stop  offset="0.24" style="stop-color:#D7BB7A"/>
		<stop  offset="0.26" style="stop-color:#E2CC88"/>
		<stop  offset="0.3" style="stop-color:#EAD891"/>
		<stop  offset="0.34" style="stop-color:#EEDE97"/>
		<stop  offset="0.46" style="stop-color:#EFE097"/>
		<stop  offset="0.7" style="stop-color:#803813"/>
		<stop  offset="0.73" style="stop-color:#E6D234"/>
		<stop  offset="0.74" style="stop-color:#EBD948"/>
		<stop  offset="0.75" style="stop-color:#EEDE6D"/>
		<stop  offset="0.77" style="stop-color:#F0E28A"/>
		<stop  offset="0.79" style="stop-color:#F8EBAA"/>
		<stop  offset="0.8" style="stop-color:#F8EDBF"/>
		<stop  offset="0.83" style="stop-color:#FAF0CF"/>
		<stop  offset="0.85" style="stop-color:#FCF2DA"/>
		<stop  offset="0.89" style="stop-color:#FDF4E1"/>
		<stop  offset="0.99" style="stop-color:#FDF5E3"/>
	</linearGradient>
	<path id="obram_skosne" style="fill:url(#obram_skosne_00000130615978193843934760000003454554613612561810_);" d="M717.5,89.6
		c-2.7,0-4.9-2.2-4.9-4.9V56.9c0-2.7,2.2-4.9,4.9-4.9h7V36.8l-14.7-14.7h-15.3v7c0,2.7-2.2,4.9-4.9,4.9h-27.8
		c-2.7,0-4.9-2.2-4.9-4.9v-7h-15.2l-14.7,14.7v15.3h7c2.7,0,4.9,2.2,4.9,4.9v27.8c0,2.7-2.2,4.9-4.9,4.9h-7v15.2l14.7,14.7h15.3v-7
		c0-2.7,2.2-4.9,4.9-4.9h27.8c2.7,0,4.9,2.2,4.9,4.9v7h15.3l14.7-14.7V89.6H717.5L717.5,89.6z"/>
	
		<linearGradient id="tlo_zew_00000044163922405926383090000018255849795537063059_" gradientUnits="userSpaceOnUse" x1="675.8199" y1="69.8523" x2="675.8199" y2="220.3323" gradientTransform="matrix(1 0 0 1 0 -33.4623)">
		<stop  offset="0.26" style="stop-color:#F6EA4D"/>
		<stop  offset="0.77" style="stop-color:#803813"/>
	</linearGradient>
	<path id="tlo_zew" style="fill:url(#tlo_zew_00000044163922405926383090000018255849795537063059_);" d="M717.2,91.2
		c-3.3,0-6-3.3-6-6.6V57c0-3.3,2.7-6.6,6-6.6h5.7V38l-14.3-14.2h-12.3v5.7c0,3.3-3.3,6-6.6,6H662c-3.3,0-6.6-2.7-6.6-6v-5.7h-12.5
		L628.7,38v12.4h5.7c3.3,0,6,3.3,6,6.6v27.6c0,3.3-2.7,6.6-6,6.6h-5.7v12.4l14.2,14.2h12.4v-5.7c0-3.3,3.3-6,6.6-6h27.6
		c3.3,0,6.6,2.7,6.6,6v5.7h12.4l14.2-14.2V91.2H717.2L717.2,91.2z"/>
</g>
<path class="st6" d="M661.6,93.2V86c4.7,1.8,8.7,2.8,11.8,2.8c2.8,0,5-0.7,6.8-2.2s2.7-3.4,2.7-5.9c0-1.8-0.5-3.4-1.4-4.9
	c-0.9-1.5-2.3-2.6-4.1-3.4s-4.6-1.2-8.4-1.2h-3v-5.7l2.5,0c3.7,0,6.3-0.3,7.9-1s2.8-1.7,3.8-3.1c0.9-1.4,1.4-2.9,1.4-4.5
	c0-1.9-0.7-3.5-2-4.7c-1.3-1.2-3.3-1.8-6.1-1.8c-3.5,0-7.2,0.9-11.2,2.7v-6.5c2-0.7,3.6-1.2,4.8-1.4s2.5-0.4,4.1-0.6
	c1.6-0.2,3.1-0.2,4.5-0.2c5,0,8.9,1,11.6,3.1s4.1,4.8,4.1,8.3c0,2.8-0.9,5.2-2.6,7.2c-1.8,2-4.4,3.6-7.9,4.7c3.1,0.7,5.4,1.7,7.1,3
	s2.9,2.8,3.7,4.5c0.9,1.7,1.3,3.6,1.3,5.5c0,3.6-1.4,6.8-4.3,9.7s-7.5,4.3-13.9,4.3c-1.7,0-3.5-0.1-5.3-0.2
	C667.4,94.4,664.8,94,661.6,93.2L661.6,93.2L661.6,93.2z"/>
<path class="st7" d="M576.5,62.1V50.5h11.6v11.6H576.5z M576.5,93.5V81.9h11.6v11.6H576.5z"/>
<g id="tagEvent">
	<path class="st8" d="M553.9,70.8c0,29.8-24.2,54.1-54.1,54.1s-54.1-24.2-54.1-54.1s24.2-54.1,54.1-54.1S553.9,40.9,553.9,70.8z"/>
	
		<linearGradient id="SVGID_1_" gradientUnits="userSpaceOnUse" x1="499.88" y1="-13.1577" x2="499.88" y2="87.0423" gradientTransform="matrix(1 0 0 -1 0 107.7323)">
		<stop  offset="0" style="stop-color:#ED932B"/>
		<stop  offset="1" style="stop-color:#F6EA4D"/>
	</linearGradient>
	<path class="st9" d="M549.9,70.8c0,27.6-22.4,50.1-50.1,50.1s-50.1-22.4-50.1-50.1s22.3-50.1,50-50.1S549.9,43.1,549.9,70.8
		L549.9,70.8z"/>
	
		<linearGradient id="SVGID_00000116206571703802661050000002682707297786285982_" gradientUnits="userSpaceOnUse" x1="454.62" y1="104.2923" x2="545.05" y2="104.2923" gradientTransform="matrix(1 0 0 1 0 -33.4623)">
		<stop  offset="9.000000e-02" style="stop-color:#F6EA4D"/>
		<stop  offset="0.98" style="stop-color:#F6EA4D"/>
	</linearGradient>
	<path style="fill:url(#SVGID_00000116206571703802661050000002682707297786285982_);" d="M545,70.8c0,24.9-20.2,45.3-45.3,45.3
		s-45.2-20.3-45.2-45.3s20.2-45.3,45.3-45.3C524.9,25.6,545,45.8,545,70.8z"/>
	<path id="darker" class="st11" d="M549.9,70.8c0-1.1,0-2-0.1-3c-10.1,2.8-27.5,6.4-50,6.4s-39.3-4.4-49.9-8.1
		c-0.2,1.6-0.3,3.1-0.3,4.7c0,27.6,22.4,50.1,50.1,50.1S549.9,98.5,549.9,70.8L549.9,70.8z"/>
	<rect x="488.3" y="37.4" class="st12" width="22.8" height="36.9"/>
	<polygon class="st13" points="476.9,74.4 521.9,74.4 500.6,104.4 	"/>
</g>
</svg>
