<?xml version="1.0" encoding="utf-8"?>
<!-- Generator: Adobe Illustrator 26.3.1, SVG Export Plug-In . SVG Version: 6.00 Build 0)  -->
<svg version="1.1" id="Layer" xmlns="http://www.w3.org/2000/svg" xmlns:xlink="http://www.w3.org/1999/xlink" x="0px" y="0px"
	 viewBox="0 0 1173.5 141.7" style="enable-background:new 0 0 1173.5 141.7;" xml:space="preserve">
<style type="text/css">
	.st0{fill:#FFFFFF;fill-opacity:0;}
	.st1{fill:#030404;}
	.st2{fill:url(#SVGID_1_);}
	.st3{fill:#48AD38;}
	.st4{fill:#0B572A;stroke:#1D4422;stroke-width:3.44;stroke-miterlimit:10;}
	.st5{opacity:5.000000e-02;fill:#030404;enable-background:new    ;}
	.st6{fill:url(#SVGID_00000140702751109446299660000007552706745672817559_);}
	.st7{fill:#FFFFFF;}
	.st8{opacity:0.4;fill:url(#SVGID_00000084518070578405558620000002569870127614684851_);enable-background:new    ;}
	.st9{fill:url(#SVGID_00000178196687439480419220000015783516352594072750_);}
	.st10{fill:#020303;}
	.st11{fill:url(#SVGID_00000098197213061295435160000014402488573081821334_);}
	.st12{fill:#83A3D5;}
	.st13{fill:#0F468E;}
	.st14{fill:#1C2C4C;}
	.st15{fill:#93C6EC;}
	.st16{fill:#7CA5D8;}
	.st17{fill:#3F5EA8;}
	.st18{fill:url(#SVGID_00000008113788093726271790000000235675702720023462_);}
</style>
<rect y="0" class="st0" width="1173.5" height="141.7"/>
<g id="plant">
	<rect x="565.3" y="18.9" class="st1" width="107.1" height="107.1"/>
	
		<linearGradient id="SVGID_1_" gradientUnits="userSpaceOnUse" x1="-213.3396" y1="1042.0135" x2="-141.9966" y2="970.6807" gradientTransform="matrix(0.7071 -0.7071 0.7071 0.7071 32.9754 -764.7751)">
		<stop  offset="0" style="stop-color:#0F6936"/>
		<stop  offset="4.000000e-02" style="stop-color:#0F6C37"/>
		<stop  offset="8.000000e-02" style="stop-color:#077739"/>
		<stop  offset="0.13" style="stop-color:#108837"/>
		<stop  offset="0.15" style="stop-color:#0A9039"/>
		<stop  offset="0.35" style="stop-color:#36993D"/>
		<stop  offset="0.76" style="stop-color:#5FB048"/>
		<stop  offset="1" style="stop-color:#6FB74B"/>
	</linearGradient>
	<rect x="568.5" y="22" class="st2" width="100.9" height="100.9"/>
	<rect x="573.3" y="26.9" class="st3" width="91.1" height="91"/>
	<path id="leaf" class="st4" d="M618.8,49.4c-13.1,1.8-23,10.3-23,23c0,3.1,0.6,6.1,1.7,8.8c-2.4,1.7-5.8,3.8-7.7,4.4
		c-3.1,1-9.1,0.3-9.3,0.8c-0.2,0.5,1.7,6,2.4,6.2s6.2,0.2,9.3-0.8c2.2-0.8,6.2-3.3,8.6-5c4.2,5.3,10.7,8.7,18,8.7
		c12.7,0,22.9-8,22.9-20.6c0-4.9,1.2-11,3-15c2-4.4,12.2-7.1,12.2-7.1C656,49.4,624,48.7,618.8,49.4L618.8,49.4L618.8,49.4z"/>
	<path id="darker" class="st5" d="M669.3,122.9H568.4V67.6c0,0,31.8,4.8,50.4,4.8s50.4-4.8,50.4-4.8V122.9z"/>
</g>
<g id="plant-2">
	<rect x="697.8" y="18.8" class="st1" width="107.1" height="107.1"/>
	
		<linearGradient id="SVGID_00000165230581647610760730000011495358989821049735_" gradientUnits="userSpaceOnUse" x1="-119.6287" y1="1135.5547" x2="-48.2958" y2="1064.2118" gradientTransform="matrix(0.7071 -0.7071 0.7071 0.7071 32.9754 -764.7751)">
		<stop  offset="0" style="stop-color:#0F6936"/>
		<stop  offset="4.000000e-02" style="stop-color:#0F6C37"/>
		<stop  offset="8.000000e-02" style="stop-color:#077739"/>
		<stop  offset="0.13" style="stop-color:#108837"/>
		<stop  offset="0.15" style="stop-color:#0A9039"/>
		<stop  offset="0.35" style="stop-color:#36993D"/>
		<stop  offset="0.76" style="stop-color:#5FB048"/>
		<stop  offset="1" style="stop-color:#6FB74B"/>
	</linearGradient>
	
		<rect x="700.9" y="21.9" style="fill:url(#SVGID_00000165230581647610760730000011495358989821049735_);" width="100.9" height="100.9"/>
	<rect x="705.8" y="26.8" class="st3" width="91.1" height="91"/>
	<path id="leaf-2" class="st4" d="M751.3,49.3c-13.1,1.8-23,10.3-23,23c0,3.1,0.6,6.1,1.7,8.8c-2.4,1.7-5.8,3.8-7.7,4.4
		c-3.1,1-9.1,0.3-9.3,0.8c-0.2,0.5,1.7,6,2.4,6.2s6.2,0.2,9.3-0.8c2.2-0.8,6.2-3.3,8.6-5c4.2,5.3,10.7,8.7,18,8.7
		c12.7,0,22.9-8,22.9-20.6c0-4.9,1.2-11,3-15c2-4.4,12.2-7.1,12.2-7.1C788.5,49.3,756.5,48.5,751.3,49.3L751.3,49.3z"/>
	<path id="darker-2" class="st5" d="M801.8,122.8H700.9V67.4c0,0,31.8,4.8,50.4,4.8s50.4-4.8,50.4-4.8S801.8,122.8,801.8,122.8z"/>
</g>
<path class="st7" d="M512.3,57.7V42.5h15.2v15.2H512.3z M512.3,99V83.8h15.2V99H512.3z"/>
<g id="ocean">
	
		<linearGradient id="SVGID_00000081620643841414601490000017850797742033535160_" gradientUnits="userSpaceOnUse" x1="428.25" y1="139.9623" x2="428.25" y2="0.2623" gradientTransform="matrix(1 0 0 1 0 1.0777)">
		<stop  offset="0" style="stop-color:#FFDC0E"/>
		<stop  offset="0" style="stop-color:#FFDB0F"/>
		<stop  offset="5.000000e-02" style="stop-color:#F9BA17"/>
		<stop  offset="0.1" style="stop-color:#F49A15"/>
		<stop  offset="0.16" style="stop-color:#EF7A17"/>
		<stop  offset="0.22" style="stop-color:#E86013"/>
		<stop  offset="0.27" style="stop-color:#E8491B"/>
		<stop  offset="0.34" style="stop-color:#E5381B"/>
		<stop  offset="0.41" style="stop-color:#E62F1D"/>
		<stop  offset="0.5" style="stop-color:#E52C1D"/>
		<stop  offset="0.59" style="stop-color:#E62F1D"/>
		<stop  offset="0.66" style="stop-color:#E5381B"/>
		<stop  offset="0.73" style="stop-color:#E8491B"/>
		<stop  offset="0.78" style="stop-color:#E86013"/>
		<stop  offset="0.84" style="stop-color:#EF7A17"/>
		<stop  offset="0.9" style="stop-color:#F49A15"/>
		<stop  offset="0.95" style="stop-color:#F9BA17"/>
		<stop  offset="1" style="stop-color:#FFDB0F"/>
		<stop  offset="1" style="stop-color:#FFDC0E"/>
	</linearGradient>
	<path style="opacity:0.4;fill:url(#SVGID_00000081620643841414601490000017850797742033535160_);enable-background:new    ;" d="
		M428.3,141l-60.5-35V36.2l60.5-34.9l60.4,34.9V106L428.3,141L428.3,141z"/>
	
		<linearGradient id="SVGID_00000123434186831420206280000017827368058421874827_" gradientUnits="userSpaceOnUse" x1="428.25" y1="137.4623" x2="428.25" y2="2.6623" gradientTransform="matrix(1 0 0 1 0 1.0777)">
		<stop  offset="0" style="stop-color:#FFDC0E"/>
		<stop  offset="0" style="stop-color:#FFDB0F"/>
		<stop  offset="5.000000e-02" style="stop-color:#F9BA17"/>
		<stop  offset="0.1" style="stop-color:#F49A15"/>
		<stop  offset="0.16" style="stop-color:#EF7A17"/>
		<stop  offset="0.22" style="stop-color:#E86013"/>
		<stop  offset="0.27" style="stop-color:#E8491B"/>
		<stop  offset="0.34" style="stop-color:#E5381B"/>
		<stop  offset="0.41" style="stop-color:#E62F1D"/>
		<stop  offset="0.5" style="stop-color:#E52C1D"/>
		<stop  offset="0.59" style="stop-color:#E62F1D"/>
		<stop  offset="0.66" style="stop-color:#E5381B"/>
		<stop  offset="0.73" style="stop-color:#E8491B"/>
		<stop  offset="0.78" style="stop-color:#E86013"/>
		<stop  offset="0.84" style="stop-color:#EF7A17"/>
		<stop  offset="0.9" style="stop-color:#F49A15"/>
		<stop  offset="0.95" style="stop-color:#F9BA17"/>
		<stop  offset="1" style="stop-color:#FFDB0F"/>
		<stop  offset="1" style="stop-color:#FFDC0E"/>
	</linearGradient>
	<path style="fill:url(#SVGID_00000123434186831420206280000017827368058421874827_);" d="M428.3,138.5l-58.4-33.7V37.4l58.4-33.7
		l58.3,33.7v67.3L428.3,138.5z"/>
	<polygon class="st10" points="482.6,102.5 482.6,39.7 428.3,8.4 373.9,39.7 373.9,102.5 428.3,133.9 	"/>
	
		<linearGradient id="SVGID_00000154412626432850180340000014067940340179361414_" gradientUnits="userSpaceOnUse" x1="428.35" y1="-13.2177" x2="428.35" y2="108.3823" gradientTransform="matrix(1 0 0 -1 0 118.7223)">
		<stop  offset="0" style="stop-color:#C2DCF4"/>
		<stop  offset="1" style="stop-color:#275387"/>
	</linearGradient>
	<polygon style="fill:url(#SVGID_00000154412626432850180340000014067940340179361414_);" points="481,101.6 481,40.7 428.3,10.3 
		375.7,40.7 375.7,101.6 428.3,131.9 	"/>
	<polygon class="st12" points="477.4,99.5 477.4,42.7 428.3,14.3 379.1,42.7 379.1,99.5 428.3,127.9 	"/>
	<path class="st13" d="M477.4,78.6c-2.2-2.1-6.5-2.9-13.8-3.9c-7.1-0.9-10.7-1.4-12.5-1.4c-11.3-0.1-12.1,3-21.4,3.1
		c-2.5,0-9.2-1.4-22.9-4.2c-7.9-1.6-10.3-2.2-14.3-1.9c-5.6,0.4-10.2,2.3-13.5,4.3v24.7l49.3,28.4l49.1-28.4L477.4,78.6L477.4,78.6
		L477.4,78.6z"/>
	<path class="st14" d="M428.4,112.6L428.4,112.6c22.1-0.4,32.9-22.8,22.6-47.2c-0.8-2.1-2-4.3-3.3-6.6
		c-19.4-35.7-19.4-35.5-19.4-35.5s0-0.2-19.5,35.4c-1.3,2.3-2.3,4.5-3.3,6.6c-10.3,24.4,0.5,46.8,22.6,47.2l0,0"/>
	<path class="st15" d="M428.4,111.2L428.4,111.2c21-0.4,31.1-21.5,21.5-44.7c-0.8-2-1.9-4.1-3-6.3c-18.5-33.8-18.5-33.6-18.5-33.6
		s0-0.2-18.5,33.6c-1.2,2.2-2.2,4.2-3,6.3C397.1,89.7,407.2,110.9,428.4,111.2L428.4,111.2"/>
	<path class="st16" d="M428.3,108.8L428.3,108.8c19.3-0.3,28.6-19.7,19.7-40.9c-0.7-1.9-1.8-3.8-2.8-5.8
		c-16.9-31-16.9-30.8-16.9-30.8s0-0.2-17,30.8c-1,2-2,3.9-2.8,5.8C399.7,89.1,409,108.4,428.3,108.8L428.3,108.8"/>
	<path class="st17" d="M450,73.4c-10.3,0.1-11.2,3-20.3,3.1c-2.5,0-9.2-1.4-22.8-4.1c-5.9,19.4,3.5,36.1,21.4,36.4h0.1
		C445.9,108.5,455.3,92.3,450,73.4L450,73.4L450,73.4z"/>
	
		<radialGradient id="SVGID_00000060017351870141104360000007628060735146852790_" cx="428.2" cy="39.9823" r="52.7" gradientTransform="matrix(1 0 0 -1 0 118.7223)" gradientUnits="userSpaceOnUse">
		<stop  offset="0" style="stop-color:#FFFFFF;stop-opacity:0.7"/>
		<stop  offset="0.13" style="stop-color:#F9FBFE;stop-opacity:0.68"/>
		<stop  offset="0.28" style="stop-color:#E4E9F7;stop-opacity:0.62"/>
		<stop  offset="0.44" style="stop-color:#C3CDEA;stop-opacity:0.53"/>
		<stop  offset="0.62" style="stop-color:#93A7D6;stop-opacity:0.4"/>
		<stop  offset="0.79" style="stop-color:#5673B7;stop-opacity:0.23"/>
		<stop  offset="0.98" style="stop-color:#2E509E;stop-opacity:3.000000e-02"/>
		<stop  offset="1" style="stop-color:#2C4C9B;stop-opacity:0"/>
	</radialGradient>
	<circle style="fill:url(#SVGID_00000060017351870141104360000007628060735146852790_);" cx="428.2" cy="78.7" r="52.6"/>
</g>
</svg>
