<?xml version="1.0" encoding="utf-8"?>
<!-- Generator: Adobe Illustrator 26.3.1, SVG Export Plug-In . SVG Version: 6.00 Build 0)  -->
<svg version="1.1" id="Layer" xmlns="http://www.w3.org/2000/svg" xmlns:xlink="http://www.w3.org/1999/xlink" x="0px" y="0px"
	 viewBox="0 0 1173.5 141.7" style="enable-background:new 0 0 1173.5 141.7;" xml:space="preserve">
<style type="text/css">
	.st0{fill:#FFFFFF;fill-opacity:0;}
	.st1{fill:#030304;stroke:#030404;stroke-width:1.72;stroke-miterlimit:10;}
	.st2{fill:url(#obram_zolte_00000029018453809811164550000009132134164664896667_);}
	.st3{fill:url(#tlo_wew_00000161591860308798368180000006401832937608783514_);}
	.st4{fill:url(#obram_skosne_00000152982573977351980850000007899973414632633261_);}
	.st5{fill:url(#tlo_zew_00000000923900899260466800000000472146718831504575_);}
	.st6{fill:#010202;}
	.st7{fill:#FFFFFF;}
	.st8{fill:#030404;}
	.st9{fill:url(#SVGID_1_);}
	.st10{fill:#80368C;}
	.st11{fill:#FFFFFF;stroke:#030404;stroke-width:0.87;stroke-miterlimit:10;}
	.st12{opacity:8.000000e-02;fill:#030404;enable-background:new    ;}
</style>
<rect y="0" class="st0" width="1173.5" height="141.7"/>
<g id="mln">
	<polygon id="obram_czarne" class="st1" points="641.2,18.6 625.4,34.4 625.4,107.2 641.2,123 714.1,123 729.8,107.2 729.8,34.4 
		714.1,18.6 	"/>
	
		<linearGradient id="obram_zolte_00000119079087558167023590000010392097179715668386_" gradientUnits="userSpaceOnUse" x1="677.65" y1="7.1523" x2="677.65" y2="105.5823" gradientTransform="matrix(1 0 0 -1 0 127.1623)">
		<stop  offset="0.16" style="stop-color:#833C15"/>
		<stop  offset="0.18" style="stop-color:#9A5E1A"/>
		<stop  offset="0.22" style="stop-color:#AE7D22"/>
		<stop  offset="0.26" style="stop-color:#C39D24"/>
		<stop  offset="0.3" style="stop-color:#D6B92E"/>
		<stop  offset="0.35" style="stop-color:#E4CF36"/>
		<stop  offset="0.41" style="stop-color:#EFE036"/>
		<stop  offset="0.48" style="stop-color:#F5E952"/>
		<stop  offset="0.58" style="stop-color:#F8EB57"/>
		<stop  offset="0.86" style="stop-color:#F4E956"/>
		<stop  offset="1" style="stop-color:#FCF4F9"/>
	</linearGradient>
	<polygon id="obram_zolte" style="fill:url(#obram_zolte_00000119079087558167023590000010392097179715668386_);" points="
		643.3,21.6 628.5,36.5 628.5,105.1 643.3,120 712,120 726.8,105.1 726.8,36.5 712,21.6 	"/>
	
		<linearGradient id="tlo_wew_00000126281467866751874940000001576158478016983174_" gradientUnits="userSpaceOnUse" x1="677.64" y1="110.8123" x2="677.64" y2="-39.6377" gradientTransform="matrix(1 0 0 -1 0 127.1623)">
		<stop  offset="0.26" style="stop-color:#F4E956"/>
		<stop  offset="0.86" style="stop-color:#823B15"/>
	</linearGradient>
	<polygon id="tlo_wew" style="fill:url(#tlo_wew_00000126281467866751874940000001576158478016983174_);" points="644.3,23 
		629.8,37.5 629.8,104.1 644.3,118.6 711,118.6 725.4,104.1 725.4,37.5 711,23 	"/>
	
		<linearGradient id="obram_skosne_00000084494717470122926880000007900795775331013821_" gradientUnits="userSpaceOnUse" x1="677.6951" y1="8.5323" x2="677.6951" y2="104.1323" gradientTransform="matrix(1 0 0 -1 0 127.1623)">
		<stop  offset="0.16" style="stop-color:#823B15"/>
		<stop  offset="0.17" style="stop-color:#8E491F"/>
		<stop  offset="0.18" style="stop-color:#A36D3E"/>
		<stop  offset="0.2" style="stop-color:#B78954"/>
		<stop  offset="0.22" style="stop-color:#C7A468"/>
		<stop  offset="0.24" style="stop-color:#D7BB7A"/>
		<stop  offset="0.26" style="stop-color:#E2CC88"/>
		<stop  offset="0.3" style="stop-color:#EAD891"/>
		<stop  offset="0.34" style="stop-color:#EEDE97"/>
		<stop  offset="0.46" style="stop-color:#EFE097"/>
		<stop  offset="0.7" style="stop-color:#823B15"/>
		<stop  offset="0.73" style="stop-color:#E6D234"/>
		<stop  offset="0.74" style="stop-color:#ECDA49"/>
		<stop  offset="0.75" style="stop-color:#EEDE6D"/>
		<stop  offset="0.77" style="stop-color:#EFE18A"/>
		<stop  offset="0.79" style="stop-color:#F8EBAC"/>
		<stop  offset="0.8" style="stop-color:#F8EDBF"/>
		<stop  offset="0.83" style="stop-color:#FAF0CF"/>
		<stop  offset="0.85" style="stop-color:#FCF2DA"/>
		<stop  offset="0.89" style="stop-color:#FDF4E1"/>
		<stop  offset="0.99" style="stop-color:#FDF5E3"/>
	</linearGradient>
	<path id="obram_skosne" style="fill:url(#obram_skosne_00000084494717470122926880000007900795775331013821_);" d="M718.5,89.2
		c-2.6,0-4.8-2.1-4.8-4.8V57.2c0-2.6,2.1-4.8,4.8-4.8h6.8V37.5L711,23h-15v6.8c0,2.6-2.1,4.8-4.8,4.8H664c-2.6,0-4.8-2.1-4.8-4.8V23
		h-14.9l-14.5,14.5v15h6.8c2.6,0,4.8,2.1,4.8,4.8v27.3c0,2.6-2.1,4.8-4.8,4.8h-6.8v14.9l14.5,14.4h15v-6.8c0-2.6,2.1-4.8,4.8-4.8
		h27.3c2.6,0,4.8,2.1,4.8,4.8v6.8h15l14.5-14.4v-15L718.5,89.2L718.5,89.2z"/>
	
		<linearGradient id="tlo_zew_00000075152794820084262110000007340541840711009179_" gradientUnits="userSpaceOnUse" x1="677.65" y1="90.1023" x2="677.65" y2="-57.4677" gradientTransform="matrix(1 0 0 -1 0 127.1623)">
		<stop  offset="0.26" style="stop-color:#F4E956"/>
		<stop  offset="0.77" style="stop-color:#823B15"/>
	</linearGradient>
	<path id="tlo_zew" style="fill:url(#tlo_zew_00000075152794820084262110000007340541840711009179_);" d="M718.3,90.8
		c-3.3,0-5.9-3.3-5.9-6.5V57.2c0-3.3,2.6-6.5,5.9-6.5h5.5V38.6l-14-13.9h-12.1v5.5c0,3.3-3.3,5.9-6.5,5.9h-27.1
		c-3.3,0-6.5-2.6-6.5-5.9v-5.6h-12.2l-13.9,13.9v12.1h5.5c3.3,0,5.9,3.3,5.9,6.5v27.1c0,3.3-2.6,6.5-5.9,6.5h-5.5V103l13.9,13.9
		h12.1v-5.6c0-3.3,3.3-5.9,6.5-5.9h27c3.3,0,6.5,2.6,6.5,5.9v5.6h12.1l13.9-13.9V90.8L718.3,90.8L718.3,90.8z"/>
</g>
<g>
	<path class="st6" d="M648.3,77.2v-6.1H663v6.1H648.3z"/>
	<path class="st6" d="M671.9,94.6v-7.3c4.9,1.9,8.9,2.8,12.1,2.8c2.8,0,5.1-0.7,7-2.2s2.7-3.5,2.7-6c0-1.8-0.5-3.5-1.4-5
		c-1-1.5-2.3-2.6-4.2-3.5c-1.8-0.8-4.7-1.2-8.6-1.2h-3v-5.9l2.5,0c3.8,0,6.4-0.3,8.1-1s2.9-1.7,3.8-3.1c0.9-1.4,1.4-2.9,1.4-4.6
		c0-2-0.7-3.6-2-4.8s-3.4-1.8-6.2-1.8c-3.6,0-7.4,0.9-11.5,2.8V47c2.1-0.7,3.7-1.2,4.9-1.4s2.6-0.4,4.2-0.6s3.1-0.2,4.6-0.2
		c5.1,0,9.1,1.1,11.9,3.2c2.8,2.1,4.2,5,4.2,8.5c0,2.9-0.9,5.3-2.7,7.4c-1.8,2-4.5,3.6-8.1,4.8c3.2,0.7,5.6,1.7,7.2,3
		c1.7,1.3,3,2.8,3.8,4.6s1.3,3.6,1.3,5.6c0,3.7-1.5,7-4.4,9.9s-7.7,4.4-14.2,4.4c-1.7,0-3.5-0.1-5.5-0.2S675.2,95.5,671.9,94.6
		L671.9,94.6L671.9,94.6L671.9,94.6z"/>
</g>
<path class="st7" d="M580,62.4V51.3h11.2v11.2H580z M580,92.7V81.5h11.2v11.2H580z"/>
<path class="st7" d="M555.5,30.1l-8.7-1.1l2-6.2l7.7,4.2c-0.7,0.7-1,1.5-1,2.4C555.5,29.6,555.5,29.8,555.5,30.1L555.5,30.1
	L555.5,30.1z M558.3,32.5l-3.7,8l-5.2-3.8l6.4-6C556.3,31.6,557.1,32.2,558.3,32.5L558.3,32.5L558.3,32.5z M555.3,18.1h6.5l-1.7,8.6
	c-0.5-0.3-1.1-0.4-1.6-0.4s-1,0.1-1.5,0.4L555.3,18.1L555.3,18.1L555.3,18.1z M561.4,30.6l6.4,6l-5.2,3.8l-3.7-8
	C560,32.2,560.8,31.6,561.4,30.6L561.4,30.6L561.4,30.6z M560.6,27.1l7.7-4.2l2,6.2l-8.7,1.1c0-0.3,0.1-0.5,0.1-0.6
	C561.6,28.6,561.3,27.8,560.6,27.1L560.6,27.1L560.6,27.1z"/>
<g id="tagPower">
	<path class="st8" d="M553.1,70.8c0,29.8-24.2,54-54,54s-54-24.2-54-54s24.2-54,54-54C528.8,16.8,553.1,40.9,553.1,70.8z"/>
	
		<linearGradient id="SVGID_1_" gradientUnits="userSpaceOnUse" x1="499.14" y1="9.3623" x2="499.14" y2="109.3626" gradientTransform="matrix(1 0 0 -1 0 130.1523)">
		<stop  offset="0" style="stop-color:#1D1527"/>
		<stop  offset="0.24" style="stop-color:#372348"/>
		<stop  offset="0.49" style="stop-color:#583C6C"/>
		<stop  offset="0.71" style="stop-color:#73518D"/>
		<stop  offset="0.89" style="stop-color:#835CA1"/>
		<stop  offset="1" style="stop-color:#8964A8"/>
	</linearGradient>
	<path class="st9" d="M549.1,70.8c0,27.6-22.4,50-50,50s-50-22.4-50-50s22.4-50,50-50C526.8,20.7,549.2,43.1,549.1,70.8L549.1,70.8
		L549.1,70.8z"/>
	<path class="st10" d="M544.3,70.8c0,24.9-20.2,45.2-45.2,45.2s-45.1-20.3-45.1-45.2s20.2-45.2,45.2-45.2
		C524.2,25.6,544.3,45.8,544.3,70.8L544.3,70.8z"/>
	<polygon class="st11" points="486.2,61.6 519.1,41.1 501.6,66.6 510.8,81.7 478.5,102.1 494.8,76.8 	"/>
	<path id="darker" class="st12" d="M549.1,70.8c0-1,0-2-0.1-3c-10.1,2.8-27.4,6.4-49.9,6.4s-39.3-4.4-49.8-8.1
		c-0.2,1.6-0.3,3.1-0.3,4.7c0,27.6,22.4,50,50,50S549.1,98.4,549.1,70.8L549.1,70.8z"/>
</g>
</svg>
