<?xml version="1.0" encoding="utf-8"?>
<!-- Generator: Adobe Illustrator 26.3.1, SVG Export Plug-In . SVG Version: 6.00 Build 0)  -->
<svg version="1.1" id="Layer" xmlns="http://www.w3.org/2000/svg" xmlns:xlink="http://www.w3.org/1999/xlink" x="0px" y="0px"
	 viewBox="0 0 1173.5 141.7" style="enable-background:new 0 0 1173.5 141.7;" xml:space="preserve">
<style type="text/css">
	.st0{fill:none;}
	.st1{fill:#20201E;}
	.st2{fill:#FFFFFF;fill-opacity:0;}
	.st3{fill:#020303;stroke:#030404;stroke-width:1.46;stroke-miterlimit:10;}
	.st4{fill:url(#obram_zolte_00000029029796101012546010000017719887520470373782_);}
	.st5{fill:url(#tlo_wew_00000050630927189462738620000004024258110587596172_);}
	.st6{fill:url(#obram_skosne_00000029753393123516059550000008310088448312441512_);}
	.st7{fill:url(#tlo_zew_00000102539340627790559470000008584192563538582934_);}
	.st8{fill:#FFFFFF;}
	.st9{fill:#020303;}
	.st10{fill:url(#SVGID_1_);}
	.st11{fill:url(#SVGID_00000022561321478987093820000002370114086755532987_);}
	.st12{opacity:0.29;fill:#020303;enable-background:new    ;}
	.st13{fill:none;stroke:#030404;stroke-width:0.91;stroke-miterlimit:10;}
	.st14{fill:#030404;}
	.st15{fill:url(#external-border_00000181049380168379135280000012849418770891847601_);}
	.st16{fill:url(#internal-border_00000169548366770209141700000007880660983342330800_);}
	.st17{fill:url(#bg_00000150786242356790253730000017004027766696349616_);}
	.st18{opacity:0.1;fill:url(#bgPattern_00000054254995901967766190000007727032114735473050_);enable-background:new    ;}
	.st19{fill:#020303;stroke:#030404;stroke-width:1.47;stroke-miterlimit:10;}
	.st20{fill:url(#obram_zolte-2_00000004541135980855030440000001526310540185626812_);}
	.st21{fill:url(#tlo_wew-2_00000104672159838576424810000002148885908588672433_);}
	.st22{fill:url(#obram_skosne-2_00000162338733740397571530000014222185779715032244_);}
	.st23{fill:url(#tlo_zew-2_00000145018864412370438130000014364795204126149779_);}
	.st24{fill:#010101;}
	.st25{opacity:0.4;fill:url(#SVGID_00000008856497670436554400000016790772808072110495_);enable-background:new    ;}
	.st26{fill:url(#SVGID_00000065047861458857414320000013695323921545193377_);}
	.st27{fill:url(#SVGID_00000017486785222237563240000011380276163669483666_);}
	.st28{fill:url(#SVGID_00000132807483054626030820000002202632601299828142_);}
</style>
<pattern  y="141.7" width="19.7" height="21.7" patternUnits="userSpaceOnUse" id="Nowy_wzorek" viewBox="0 -21.7 19.7 21.7" style="overflow:visible;">
	<g>
		<rect y="-21.7" class="st0" width="19.7" height="21.7"/>
		<g>
			<rect y="-21.7" class="st0" width="19.7" height="21.7"/>
			<g>
				<rect y="-21.7" class="st0" width="19.7" height="21.7"/>
				<g>
					<rect y="-21.7" class="st0" width="19.7" height="21.7"/>
					<g>
						<rect y="-21.7" class="st0" width="19.7" height="21.7"/>
						<g>
							<rect y="-21.7" class="st0" width="19.7" height="21.7"/>
							<g>
								<rect y="-21.7" class="st0" width="19.7" height="21.7"/>
								<path class="st1" d="M16.6-13c2.1,2.1,2.1,5.6,0,7.7l-1.2,1.2C13.3-2,9.8-2,7.6-4.1L3.1-8.7c-2.1-2.1-2.1-5.6,0-7.7l1.2-1.2
									c2.1-2.1,5.6-2.1,7.7,0L16.6-13z"/>
							</g>
						</g>
					</g>
				</g>
			</g>
		</g>
	</g>
</pattern>
<rect y="0" class="st2" width="1173.5" height="141.7"/>
<g id="mln">
	<polygon id="obram_czarne" class="st3" points="865.5,26.3 852,39.8 852,101.9 865.5,115.4 927.7,115.4 941.1,101.9 941.1,39.8 
		927.7,26.3 	"/>
	
		<linearGradient id="obram_zolte_00000016049176647522422650000014115387104880882842_" gradientUnits="userSpaceOnUse" x1="896.6" y1="129.1323" x2="896.6" y2="45.1523" gradientTransform="matrix(1 0 0 1 0 -16.2823)">
		<stop  offset="0.16" style="stop-color:#823B14"/>
		<stop  offset="0.18" style="stop-color:#995D1A"/>
		<stop  offset="0.22" style="stop-color:#AE7D22"/>
		<stop  offset="0.26" style="stop-color:#C39D25"/>
		<stop  offset="0.3" style="stop-color:#D6B92E"/>
		<stop  offset="0.35" style="stop-color:#E4CF36"/>
		<stop  offset="0.41" style="stop-color:#EFE036"/>
		<stop  offset="0.48" style="stop-color:#F5E94D"/>
		<stop  offset="0.58" style="stop-color:#F8EB53"/>
		<stop  offset="0.86" style="stop-color:#F5EA52"/>
		<stop  offset="1" style="stop-color:#FCF4F9"/>
	</linearGradient>
	<polygon id="obram_zolte" style="fill:url(#obram_zolte_00000016049176647522422650000014115387104880882842_);" points="
		867.3,28.9 854.7,41.6 854.7,100.2 867.3,112.8 925.9,112.8 938.5,100.2 938.5,41.6 925.9,28.9 	"/>
	
		<linearGradient id="tlo_wew_00000063615155330916375590000017219154335857529487_" gradientUnits="userSpaceOnUse" x1="896.6" y1="40.7023" x2="896.6" y2="169.0523" gradientTransform="matrix(1 0 0 1 0 -16.2823)">
		<stop  offset="0.26" style="stop-color:#F5EA52"/>
		<stop  offset="0.86" style="stop-color:#813A14"/>
	</linearGradient>
	<polygon id="tlo_wew" style="fill:url(#tlo_wew_00000063615155330916375590000017219154335857529487_);" points="868.2,30.1 
		855.8,42.5 855.8,99.3 868.2,111.6 925.1,111.6 937.4,99.3 937.4,42.5 925.1,30.1 	"/>
	
		<linearGradient id="obram_skosne_00000155848798426767726900000015336254985585814967_" gradientUnits="userSpaceOnUse" x1="896.645" y1="127.9723" x2="896.645" y2="46.4123" gradientTransform="matrix(1 0 0 1 0 -16.2823)">
		<stop  offset="0.16" style="stop-color:#813A14"/>
		<stop  offset="0.17" style="stop-color:#8D481F"/>
		<stop  offset="0.18" style="stop-color:#A36C3D"/>
		<stop  offset="0.2" style="stop-color:#B78954"/>
		<stop  offset="0.22" style="stop-color:#C7A468"/>
		<stop  offset="0.24" style="stop-color:#D7BB7A"/>
		<stop  offset="0.26" style="stop-color:#E2CC88"/>
		<stop  offset="0.3" style="stop-color:#EAD891"/>
		<stop  offset="0.34" style="stop-color:#EEDE97"/>
		<stop  offset="0.46" style="stop-color:#EFE097"/>
		<stop  offset="0.7" style="stop-color:#813A14"/>
		<stop  offset="0.73" style="stop-color:#E6D234"/>
		<stop  offset="0.74" style="stop-color:#EBDA49"/>
		<stop  offset="0.75" style="stop-color:#EEDE6D"/>
		<stop  offset="0.77" style="stop-color:#F0E18A"/>
		<stop  offset="0.79" style="stop-color:#F8EBAB"/>
		<stop  offset="0.8" style="stop-color:#F8EDBF"/>
		<stop  offset="0.83" style="stop-color:#FAF0CF"/>
		<stop  offset="0.85" style="stop-color:#FCF2DA"/>
		<stop  offset="0.89" style="stop-color:#FDF4E1"/>
		<stop  offset="0.99" style="stop-color:#FDF5E3"/>
	</linearGradient>
	<path id="obram_skosne" style="fill:url(#obram_skosne_00000155848798426767726900000015336254985585814967_);" d="M931.5,86.6
		c-2.3,0-4.1-1.8-4.1-4.1V59.2c0-2.3,1.8-4.1,4.1-4.1h5.8V42.5l-12.3-12.3h-12.8V36c0,2.3-1.8,4.1-4.1,4.1h-23.3
		c-2.3,0-4.1-1.8-4.1-4.1v-5.8h-12.7l-12.3,12.3v12.8h5.8c2.3,0,4.1,1.8,4.1,4.1v23.3c0,2.3-1.8,4.1-4.1,4.1h-5.8v12.7l12.3,12.3
		h12.8v-5.8c0-2.3,1.8-4.1,4.1-4.1h23.3c2.3,0,4.1,1.8,4.1,4.1v5.8h12.8l12.3-12.3V86.6L931.5,86.6L931.5,86.6z"/>
	
		<linearGradient id="tlo_zew_00000000212049454105452360000012641641293016171444_" gradientUnits="userSpaceOnUse" x1="896.605" y1="58.3723" x2="896.605" y2="184.2723" gradientTransform="matrix(1 0 0 1 0 -16.2823)">
		<stop  offset="0.26" style="stop-color:#F5EA52"/>
		<stop  offset="0.77" style="stop-color:#813A14"/>
	</linearGradient>
	<path id="tlo_zew" style="fill:url(#tlo_zew_00000000212049454105452360000012641641293016171444_);" d="M931.3,88
		c-2.8,0-5-2.8-5-5.5V59.3c0-2.8,2.3-5.5,5-5.5h4.7V43.4l-12-11.9h-10.3v4.7c0,2.8-2.8,5-5.5,5h-23.1c-2.8,0-5.5-2.3-5.5-5v-4.7
		h-10.4l-11.9,11.9v10.4h4.7c2.8,0,5,2.8,5,5.5v23.1c0,2.8-2.3,5.5-5,5.5h-4.7v10.4l11.9,11.9h10.4v-4.7c0-2.8,2.8-5,5.5-5h23.1
		c2.8,0,5.5,2.3,5.5,5v4.7H924l11.9-11.9V88H931.3z"/>
</g>
<path class="st8" d="M786.6,60.9V47.6h13.3v13.3H786.6z M786.6,96.9V83.6h13.3v13.3H786.6z"/>
<g id="city">
	<polygon class="st9" points="759.9,102.8 759.9,38.7 704.3,6.6 648.7,38.7 648.7,102.8 704.3,135 	"/>
	
		<linearGradient id="SVGID_1_" gradientUnits="userSpaceOnUse" x1="704.28" y1="-17.0877" x2="704.28" y2="107.3323" gradientTransform="matrix(1 0 0 -1 0 115.8523)">
		<stop  offset="0" style="stop-color:#020303"/>
		<stop  offset="1" style="stop-color:#FFFFFF"/>
	</linearGradient>
	<polygon class="st10" points="758.1,101.8 758.1,39.7 704.3,8.5 650.5,39.7 650.5,101.8 704.3,132.9 	"/>
	
		<radialGradient id="SVGID_00000170991160290942749900000012834212440177035422_" cx="704.335" cy="45.1173" r="54.3145" gradientTransform="matrix(1 0 0 -1 0 115.8523)" gradientUnits="userSpaceOnUse">
		<stop  offset="0" style="stop-color:#CAC8C8"/>
		<stop  offset="1" style="stop-color:#747272"/>
	</radialGradient>
	<polygon style="fill:url(#SVGID_00000170991160290942749900000012834212440177035422_);" points="754.6,99.8 754.6,41.7 
		704.3,12.7 654,41.7 654,99.8 704.3,128.8 	"/>
	<path class="st12" d="M759.5,101V60.9l0,0c-36.8,5.4-73.7,5.4-110.5,0l0,0V101l55.2,31.9L759.5,101L759.5,101L759.5,101z"/>
	<g id="city-logo">
		<path class="st13" d="M665.8,77.8c0-20.6,17.2-37.2,38.4-37.2"/>
		<path class="st13" d="M742.5,77.8c0-20.6-17.4-37.2-38.8-37.2"/>
		<rect x="665.1" y="75.4" class="st14" width="78.1" height="4.9"/>
		<rect x="669.2" y="70.8" class="st14" width="2.3" height="4.6"/>
		<rect x="670.4" y="67.2" class="st14" width="1.1" height="3.7"/>
		<rect x="674" y="70.3" class="st14" width="4.3" height="5.2"/>
		<rect x="674" y="64.4" class="st14" width="2.1" height="5.9"/>
		<rect x="679.6" y="69" class="st14" width="1.8" height="6.4"/>
		<rect x="681.4" y="56.2" class="st14" width="2" height="19.1"/>
		<rect x="682.4" y="54.2" class="st14" width="1" height="2"/>
		<rect x="683.4" y="70.8" class="st14" width="3.4" height="4.6"/>
		<rect x="686.1" y="68.6" class="st14" width="0.7" height="2.3"/>
		<rect x="686.8" y="51.6" class="st14" width="2.7" height="23.8"/>
		<rect x="689.4" y="55.9" class="st14" width="1.3" height="19.5"/>
		<rect x="690.9" y="62.8" class="st14" width="2.8" height="12.5"/>
		<rect x="693.7" y="65.4" class="st14" width="1.8" height="10.1"/>
		<rect x="697.1" y="59.2" class="st14" width="3.7" height="16.1"/>
		<rect x="700.9" y="65.6" class="st14" width="1.9" height="9.7"/>
		<rect x="702.8" y="47.6" class="st14" width="4.6" height="27.8"/>
		<rect x="709.5" y="53.8" class="st14" width="2.3" height="21.6"/>
		<rect x="714.3" y="58.2" class="st14" width="2.6" height="17.1"/>
		<rect x="711.7" y="69.7" class="st14" width="2.6" height="5.7"/>
		<rect x="716.9" y="72.2" class="st14" width="1.9" height="3.2"/>
		<rect x="720.9" y="70.6" class="st14" width="1.7" height="4.8"/>
		<rect x="722.6" y="62.8" class="st14" width="2.9" height="12.5"/>
		<rect x="725.4" y="57" class="st14" width="2.1" height="18.4"/>
		<rect x="727.5" y="69.9" class="st14" width="1.8" height="5.5"/>
		<rect x="730.3" y="66.5" class="st14" width="2.2" height="8.8"/>
		<rect x="732.6" y="65.6" class="st14" width="2.5" height="9.7"/>
		<rect x="736.7" y="71" class="st14" width="1.1" height="4.5"/>
		<rect x="737.8" y="73.2" class="st14" width="2.1" height="2.2"/>
	</g>
</g>
<g id="prodBg">
	
		<linearGradient id="external-border_00000116948357357406547140000012559205396964523395_" gradientUnits="userSpaceOnUse" x1="577.61" y1="145.4523" x2="451.94" y2="19.7823" gradientTransform="matrix(1 0 0 1 0 -12.2823)">
		<stop  offset="0" style="stop-color:#9F9D9C"/>
		<stop  offset="0.54" style="stop-color:#020303"/>
		<stop  offset="1" style="stop-color:#9F9D9C"/>
	</linearGradient>
	
		<rect id="external-border" x="451.1" y="8.4" style="fill:url(#external-border_00000116948357357406547140000012559205396964523395_);" width="127.4" height="123.9"/>
	
		<linearGradient id="internal-border_00000011021811837677387630000001168078356920146831_" gradientUnits="userSpaceOnUse" x1="514.825" y1="141.3123" x2="514.825" y2="23.9223" gradientTransform="matrix(1 0 0 1 0 -12.2823)">
		<stop  offset="0" style="stop-color:#472D1C"/>
		<stop  offset="1" style="stop-color:#B18047"/>
	</linearGradient>
	
		<rect id="internal-border" x="454.3" y="11.6" style="fill:url(#internal-border_00000011021811837677387630000001168078356920146831_);" width="121" height="117.4"/>
	
		<linearGradient id="bg_00000137120902172980416670000000689677838117180813_" gradientUnits="userSpaceOnUse" x1="514.775" y1="138.3523" x2="514.775" y2="26.7823" gradientTransform="matrix(1 0 0 1 0 -12.2823)">
		<stop  offset="0" style="stop-color:#946137"/>
		<stop  offset="1" style="stop-color:#815228"/>
	</linearGradient>
	
		<rect id="bg" x="457.2" y="14.5" style="fill:url(#bg_00000137120902172980416670000000689677838117180813_);" width="115.2" height="111.6"/>
	
		<pattern  id="bgPattern_00000074436562564054429090000009296496041401483437_" xlink:href="#Nowy_wzorek" patternTransform="matrix(1 0 0 1 -827.28 32634.4219)">
	</pattern>
	
		<rect id="bgPattern" x="457.2" y="14.5" style="opacity:0.1;fill:url(#bgPattern_00000074436562564054429090000009296496041401483437_);enable-background:new    ;" width="115.2" height="111.6"/>
</g>
<g id="mln-2">
	<polygon id="obram_czarne-2" class="st19" points="483.6,26.1 470,39.7 470,102.1 483.6,115.6 546,115.6 559.5,102.1 559.5,39.7 
		546,26.1 	"/>
	
		<linearGradient id="obram_zolte-2_00000003070927053621587160000001049603778596536508_" gradientUnits="userSpaceOnUse" x1="514.81" y1="2.7823" x2="514.81" y2="87.1723" gradientTransform="matrix(1 0 0 -1 0 115.8523)">
		<stop  offset="0.16" style="stop-color:#823B14"/>
		<stop  offset="0.18" style="stop-color:#995D1A"/>
		<stop  offset="0.22" style="stop-color:#AE7D22"/>
		<stop  offset="0.26" style="stop-color:#C39D25"/>
		<stop  offset="0.3" style="stop-color:#D6B92E"/>
		<stop  offset="0.35" style="stop-color:#E4CF36"/>
		<stop  offset="0.41" style="stop-color:#EFE036"/>
		<stop  offset="0.48" style="stop-color:#F5E94D"/>
		<stop  offset="0.58" style="stop-color:#F8EB53"/>
		<stop  offset="0.86" style="stop-color:#F5EA52"/>
		<stop  offset="1" style="stop-color:#FCF4F9"/>
	</linearGradient>
	<polygon id="obram_zolte-2" style="fill:url(#obram_zolte-2_00000003070927053621587160000001049603778596536508_);" points="
		485.3,28.7 472.6,41.4 472.6,100.3 485.3,113.1 544.2,113.1 557,100.3 557,41.4 544.2,28.7 	"/>
	
		<linearGradient id="tlo_wew-2_00000116950555117868128620000000933475253893592455_" gradientUnits="userSpaceOnUse" x1="514.815" y1="91.6523" x2="514.815" y2="-37.3377" gradientTransform="matrix(1 0 0 -1 0 115.8523)">
		<stop  offset="0.26" style="stop-color:#F5EA52"/>
		<stop  offset="0.86" style="stop-color:#813A14"/>
	</linearGradient>
	<polygon id="tlo_wew-2" style="fill:url(#tlo_wew-2_00000116950555117868128620000000933475253893592455_);" points="486.2,29.9 
		473.8,42.3 473.8,99.4 486.2,111.8 543.4,111.8 555.8,99.4 555.8,42.3 543.4,29.9 	"/>
	
		<linearGradient id="obram_skosne-2_00000083772515543708785790000018379107167577202325_" gradientUnits="userSpaceOnUse" x1="514.835" y1="3.9523" x2="514.835" y2="85.9323" gradientTransform="matrix(1 0 0 -1 0 115.8523)">
		<stop  offset="0.16" style="stop-color:#813A14"/>
		<stop  offset="0.17" style="stop-color:#8D481F"/>
		<stop  offset="0.18" style="stop-color:#A36C3D"/>
		<stop  offset="0.2" style="stop-color:#B78954"/>
		<stop  offset="0.22" style="stop-color:#C7A468"/>
		<stop  offset="0.24" style="stop-color:#D7BB7A"/>
		<stop  offset="0.26" style="stop-color:#E2CC88"/>
		<stop  offset="0.3" style="stop-color:#EAD891"/>
		<stop  offset="0.34" style="stop-color:#EEDE97"/>
		<stop  offset="0.46" style="stop-color:#EFE097"/>
		<stop  offset="0.7" style="stop-color:#813A14"/>
		<stop  offset="0.73" style="stop-color:#E6D234"/>
		<stop  offset="0.74" style="stop-color:#EBDA49"/>
		<stop  offset="0.75" style="stop-color:#EEDE6D"/>
		<stop  offset="0.77" style="stop-color:#F0E18A"/>
		<stop  offset="0.79" style="stop-color:#F8EBAB"/>
		<stop  offset="0.8" style="stop-color:#F8EDBF"/>
		<stop  offset="0.83" style="stop-color:#FAF0CF"/>
		<stop  offset="0.85" style="stop-color:#FCF2DA"/>
		<stop  offset="0.89" style="stop-color:#FDF4E1"/>
		<stop  offset="0.99" style="stop-color:#FDF5E3"/>
	</linearGradient>
	<path id="obram_skosne-2" style="fill:url(#obram_skosne-2_00000083772515543708785790000018379107167577202325_);" d="M549.9,86.7
		c-2.3,0-4.1-1.8-4.1-4.1V59.2c0-2.3,1.8-4.1,4.1-4.1h5.9V42.3l-12.3-12.4h-12.8v5.9c0,2.3-1.8,4.1-4.1,4.1h-23.4
		c-2.3,0-4.1-1.8-4.1-4.1v-5.9h-12.8l-12.4,12.4v12.8h5.9c2.3,0,4.1,1.8,4.1,4.1v23.4c0,2.3-1.8,4.1-4.1,4.1h-5.9v12.8l12.4,12.4
		H499V106c0-2.3,1.8-4.1,4.1-4.1h23.4c2.3,0,4.1,1.8,4.1,4.1v5.9h12.8l12.4-12.4V86.7H549.9L549.9,86.7z"/>
	
		<linearGradient id="tlo_zew-2_00000098939948896215348400000015433858590644720572_" gradientUnits="userSpaceOnUse" x1="514.82" y1="73.8923" x2="514.82" y2="-52.6377" gradientTransform="matrix(1 0 0 -1 0 115.8523)">
		<stop  offset="0.26" style="stop-color:#F5EA52"/>
		<stop  offset="0.77" style="stop-color:#813A14"/>
	</linearGradient>
	<path id="tlo_zew-2" style="fill:url(#tlo_zew-2_00000098939948896215348400000015433858590644720572_);" d="M549.7,88.1
		c-2.8,0-5.1-2.8-5.1-5.6V59.3c0-2.8,2.3-5.6,5.1-5.6h4.8V43.3l-12-12H532v4.8c0,2.8-2.8,5.1-5.6,5.1h-23.2c-2.8,0-5.6-2.3-5.6-5.1
		v-4.8h-10.5l-12,12v10.4h4.8c2.8,0,5.1,2.8,5.1,5.6v23.2c0,2.8-2.3,5.6-5.1,5.6h-4.8v10.4l12,11.9h10.4v-4.8c0-2.8,2.8-5.1,5.6-5.1
		h23.2c2.8,0,5.6,2.3,5.6,5.1v4.8h10.4l12-11.9V88.1L549.7,88.1L549.7,88.1z"/>
</g>
<path class="st24" d="M512,91.6V53.7h-5.7l-0.2-4.3l14.5-1.2v43.4L512,91.6L512,91.6z"/>
<path class="st8" d="M400.8,60.9V47.6h13.3v13.3H400.8z M400.8,96.9V83.6h13.3v13.3H400.8z"/>
<path class="st8" d="M366.5,26.4L354.7,25l2.7-8.3l10.4,5.8c-0.9,1-1.3,2.1-1.3,3.2C366.5,25.8,366.5,26.1,366.5,26.4L366.5,26.4
	L366.5,26.4z M370.2,29.7l-5.1,10.8l-7-5.2l8.7-8.2C367.5,28.5,368.7,29.4,370.2,29.7L370.2,29.7L370.2,29.7z M366.2,10.2h8.8
	l-2.2,11.7c-0.7-0.4-1.5-0.5-2.1-0.5s-1.4,0.2-2.1,0.5L366.2,10.2L366.2,10.2L366.2,10.2z M374.5,27.1l8.7,8.2l-7.1,5.2l-5-10.8
	C372.5,29.4,373.7,28.5,374.5,27.1L374.5,27.1L374.5,27.1z M373.4,22.4l10.4-5.8l2.7,8.3l-11.8,1.5c0-0.4,0.1-0.6,0.1-0.8
	C374.7,24.5,374.3,23.4,373.4,22.4z"/>
<g id="cityAny">
	
		<linearGradient id="SVGID_00000104696950047737034620000002643768820804363698_" gradientUnits="userSpaceOnUse" x1="292.49" y1="152.1723" x2="292.49" y2="13.9723" gradientTransform="matrix(1 0 0 1 0 -12.2823)">
		<stop  offset="0" style="stop-color:#FFDC12"/>
		<stop  offset="0" style="stop-color:#FFDB13"/>
		<stop  offset="5.000000e-02" style="stop-color:#F9BB1B"/>
		<stop  offset="0.1" style="stop-color:#F59B18"/>
		<stop  offset="0.16" style="stop-color:#EF7B19"/>
		<stop  offset="0.22" style="stop-color:#E86112"/>
		<stop  offset="0.27" style="stop-color:#E84A1D"/>
		<stop  offset="0.34" style="stop-color:#E5391E"/>
		<stop  offset="0.41" style="stop-color:#E63121"/>
		<stop  offset="0.5" style="stop-color:#E62E21"/>
		<stop  offset="0.59" style="stop-color:#E63121"/>
		<stop  offset="0.66" style="stop-color:#E5391E"/>
		<stop  offset="0.73" style="stop-color:#E84A1D"/>
		<stop  offset="0.78" style="stop-color:#E86112"/>
		<stop  offset="0.84" style="stop-color:#EF7B19"/>
		<stop  offset="0.9" style="stop-color:#F59B18"/>
		<stop  offset="0.95" style="stop-color:#F9BB1B"/>
		<stop  offset="1" style="stop-color:#FFDB13"/>
		<stop  offset="1" style="stop-color:#FFDC12"/>
	</linearGradient>
	<path style="opacity:0.4;fill:url(#SVGID_00000104696950047737034620000002643768820804363698_);enable-background:new    ;" d="
		M292.5,139.9l-59.9-34.6V36.2l59.9-34.5l59.8,34.5v69.1L292.5,139.9z"/>
	
		<linearGradient id="SVGID_00000145766257789095745410000010660129909678976916_" gradientUnits="userSpaceOnUse" x1="292.49" y1="150.8223" x2="292.49" y2="15.2023" gradientTransform="matrix(1 0 0 1 0 -12.2823)">
		<stop  offset="0" style="stop-color:#FFDC12"/>
		<stop  offset="0" style="stop-color:#FFDB13"/>
		<stop  offset="5.000000e-02" style="stop-color:#F9BB1B"/>
		<stop  offset="0.1" style="stop-color:#F59B18"/>
		<stop  offset="0.16" style="stop-color:#EF7B19"/>
		<stop  offset="0.22" style="stop-color:#E86112"/>
		<stop  offset="0.27" style="stop-color:#E84A1D"/>
		<stop  offset="0.34" style="stop-color:#E5391E"/>
		<stop  offset="0.41" style="stop-color:#E63121"/>
		<stop  offset="0.5" style="stop-color:#E62E21"/>
		<stop  offset="0.59" style="stop-color:#E63121"/>
		<stop  offset="0.66" style="stop-color:#E5391E"/>
		<stop  offset="0.73" style="stop-color:#E84A1D"/>
		<stop  offset="0.78" style="stop-color:#E86112"/>
		<stop  offset="0.84" style="stop-color:#EF7B19"/>
		<stop  offset="0.9" style="stop-color:#F59B18"/>
		<stop  offset="0.95" style="stop-color:#F9BB1B"/>
		<stop  offset="1" style="stop-color:#FFDB13"/>
		<stop  offset="1" style="stop-color:#FFDC12"/>
	</linearGradient>
	<path style="fill:url(#SVGID_00000145766257789095745410000010660129909678976916_);" d="M292.5,138.5l-58.8-33.9V36.9l58.8-33.9
		l58.7,33.9v67.8L292.5,138.5L292.5,138.5L292.5,138.5z"/>
	<polygon class="st9" points="348.1,102.8 348.1,38.7 292.5,6.6 236.9,38.7 236.9,102.8 292.5,135 	"/>
	
		<linearGradient id="SVGID_00000080183225808050415700000016814661857364403874_" gradientUnits="userSpaceOnUse" x1="292.49" y1="145.2223" x2="292.49" y2="20.8023" gradientTransform="matrix(1 0 0 1 0 -12.2823)">
		<stop  offset="0" style="stop-color:#020303"/>
		<stop  offset="1" style="stop-color:#FFFFFF"/>
	</linearGradient>
	<polygon style="fill:url(#SVGID_00000080183225808050415700000016814661857364403874_);" points="346.3,101.8 346.3,39.7 
		292.5,8.5 238.7,39.7 238.7,101.8 292.5,132.9 	"/>
	
		<radialGradient id="SVGID_00000123420435064860820880000005869035569651701153_" cx="292.545" cy="83.0173" r="54.3145" gradientTransform="matrix(1 0 0 1 0 -12.2823)" gradientUnits="userSpaceOnUse">
		<stop  offset="0" style="stop-color:#CAC8C8"/>
		<stop  offset="1" style="stop-color:#747272"/>
	</radialGradient>
	<polygon style="fill:url(#SVGID_00000123420435064860820880000005869035569651701153_);" points="342.8,99.8 342.8,41.7 
		292.5,12.7 242.3,41.7 242.3,99.8 292.5,128.8 	"/>
	<path class="st12" d="M347.8,101V60.9l0,0c-36.8,5.4-73.6,5.4-110.5,0l0,0V101l55.2,31.9L347.8,101L347.8,101L347.8,101z"/>
	<g id="city-logo-2">
		<path class="st13" d="M254,77.8c0-20.6,17.3-37.2,38.4-37.2"/>
		<path class="st13" d="M330.7,77.8c0-20.6-17.4-37.2-38.8-37.2"/>
		<rect x="253.4" y="75.4" class="st14" width="78.1" height="4.9"/>
		<rect x="257.4" y="70.8" class="st14" width="2.4" height="4.6"/>
		<rect x="258.6" y="67.2" class="st14" width="1.1" height="3.7"/>
		<rect x="262.2" y="70.3" class="st14" width="4.3" height="5.2"/>
		<rect x="262.2" y="64.4" class="st14" width="2.1" height="5.9"/>
		<rect x="267.8" y="69" class="st14" width="1.8" height="6.4"/>
		<rect x="269.6" y="56.2" class="st14" width="2" height="19.1"/>
		<rect x="270.6" y="54.2" class="st14" width="1" height="2"/>
		<rect x="271.6" y="70.8" class="st14" width="3.4" height="4.6"/>
		<rect x="274.3" y="68.6" class="st14" width="0.7" height="2.3"/>
		<rect x="275" y="51.6" class="st14" width="2.7" height="23.8"/>
		<rect x="277.6" y="55.9" class="st14" width="1.3" height="19.5"/>
		<rect x="279.1" y="62.8" class="st14" width="2.8" height="12.5"/>
		<rect x="281.9" y="65.4" class="st14" width="1.8" height="10.1"/>
		<rect x="285.3" y="59.2" class="st14" width="3.7" height="16.1"/>
		<rect x="289.1" y="65.6" class="st14" width="1.9" height="9.7"/>
		<rect x="291" y="47.6" class="st14" width="4.6" height="27.8"/>
		<rect x="297.7" y="53.8" class="st14" width="2.4" height="21.6"/>
		<rect x="302.5" y="58.2" class="st14" width="2.6" height="17.1"/>
		<rect x="299.9" y="69.7" class="st14" width="2.6" height="5.7"/>
		<rect x="305.1" y="72.2" class="st14" width="1.9" height="3.2"/>
		<rect x="309.1" y="70.6" class="st14" width="1.7" height="4.8"/>
		<rect x="310.8" y="62.8" class="st14" width="2.9" height="12.5"/>
		<rect x="313.6" y="57" class="st14" width="2.1" height="18.4"/>
		<rect x="315.7" y="69.9" class="st14" width="1.8" height="5.5"/>
		<rect x="318.5" y="66.5" class="st14" width="2.2" height="8.8"/>
		<rect x="320.8" y="65.6" class="st14" width="2.5" height="9.7"/>
		<rect x="324.9" y="71" class="st14" width="1.1" height="4.5"/>
		<rect x="326" y="73.2" class="st14" width="2.1" height="2.2"/>
	</g>
</g>
<path class="st24" d="M883.9,91.3V85c4.1,1.6,7.6,2.4,10.3,2.4c2.4,0,4.4-0.6,5.9-1.9s2.3-3,2.3-5.1c0-1.6-0.4-3-1.2-4.2
	s-2-2.3-3.5-3c-1.5-0.7-4-1.1-7.4-1.1h-2.6v-5l2.2,0c3.2,0,5.5-0.3,6.9-0.9s2.5-1.5,3.3-2.7c0.8-1.2,1.2-2.5,1.2-3.9
	c0-1.7-0.6-3-1.7-4.1s-2.9-1.6-5.3-1.6c-3,0-6.3,0.8-9.8,2.4v-5.7c1.8-0.6,3.1-1,4.2-1.2s2.2-0.4,3.6-0.5c1.4-0.1,2.7-0.2,3.9-0.2
	c4.4,0,7.8,0.9,10.2,2.7c2.4,1.8,3.6,4.2,3.6,7.3c0,2.5-0.8,4.6-2.3,6.3c-1.5,1.7-3.8,3.1-6.9,4.1c2.7,0.6,4.8,1.5,6.2,2.6
	c1.4,1.1,2.5,2.4,3.3,3.9c0.8,1.5,1.1,3.1,1.1,4.8c0,3.2-1.2,6-3.7,8.5s-6.5,3.7-12.1,3.7c-1.5,0-3,0-4.7-0.1
	C889,92.5,886.7,92,883.9,91.3L883.9,91.3L883.9,91.3L883.9,91.3z"/>
</svg>
