<?xml version="1.0" encoding="utf-8"?>
<!-- Generator: Adobe Illustrator 26.3.1, SVG Export Plug-In . SVG Version: 6.00 Build 0)  -->
<svg version="1.1" id="Layer" xmlns="http://www.w3.org/2000/svg" xmlns:xlink="http://www.w3.org/1999/xlink" x="0px" y="0px"
	 viewBox="0 0 1173.5 141.7" style="enable-background:new 0 0 1173.5 141.7;" xml:space="preserve">
<style type="text/css">
	.st0{fill:#FFFFFF;fill-opacity:0;}
	.st1{fill:#030404;}
	.st2{fill:url(#SVGID_1_);}
	.st3{fill:#946137;}
	.st4{fill:#342217;}
	.st5{opacity:0.15;fill:#030404;enable-background:new    ;}
	.st6{fill:url(#SVGID_00000027569108942130491070000006423456283843944118_);}
	.st7{fill:#515150;}
	.st8{opacity:0.64;fill:#030404;enable-background:new    ;}
	.st9{fill:none;stroke:#FFD80C;stroke-width:4.33;stroke-miterlimit:10;}
	.st10{fill:#020303;stroke:#030404;stroke-width:1.73;stroke-miterlimit:10;}
	.st11{fill:url(#obram_zolte_00000142177260844784733490000002766066413461743011_);}
	.st12{fill:url(#tlo_wew_00000139977092340386394930000016093375849196248991_);}
	.st13{fill:url(#obram_skosne_00000027575813563330733500000007579414307268474268_);}
	.st14{fill:url(#tlo_zew_00000152240447657988209630000003277806436975675308_);}
	.st15{fill:url(#obram_zolte-2_00000031201893480026477550000015872158245912376740_);}
	.st16{fill:url(#tlo_wew-2_00000096035056620160218260000017311178051811162283_);}
	.st17{fill:url(#obram_skosne-2_00000138564008085118109460000001680929159413371011_);}
	.st18{fill:url(#tlo_zew-2_00000091701139513753062910000013018831324497848489_);}
	.st19{fill:#FFFFFF;}
	.st20{fill:#010101;}
</style>
<rect y="0" class="st0" width="1173.5" height="141.7"/>
<g id="steel">
	<rect x="215.9" y="17.2" class="st1" width="108" height="108"/>
	
		<linearGradient id="SVGID_1_" gradientUnits="userSpaceOnUse" x1="-402.924" y1="-518.7125" x2="-330.9688" y2="-446.7573" gradientTransform="matrix(0.7071 -0.7071 -0.7071 -0.7071 188.0252 -529.6354)">
		<stop  offset="0" style="stop-color:#462C1B"/>
		<stop  offset="5.000000e-02" style="stop-color:#58351A"/>
		<stop  offset="0.1" style="stop-color:#683F16"/>
		<stop  offset="0.32" style="stop-color:#77491F"/>
		<stop  offset="0.75" style="stop-color:#8D5B32"/>
		<stop  offset="1" style="stop-color:#946137"/>
	</linearGradient>
	<rect x="219" y="20.3" class="st2" width="101.8" height="101.8"/>
	<rect x="224" y="25.2" class="st3" width="91.9" height="91.9"/>
	<g>
		<path class="st4" d="M279.5,101.5l2.2-42.7l-5.1-0.6l-0.8-1.8h-4l-0.7,1.9l-6.1-0.3V47h7l0.5,2.2l3.4,0.4l0.8-2.5h7.2l1.4,1.2
			l1.2-1.2h8.9l1,1.7l1.6-1.7l6.8,5.5l-0.4,3.8c0,0-3.7-3.5-5.5-3.5s-4.4-0.1-4.4-0.1l-3.7,6l-2.2,0.2l2.1,42.5L279.5,101.5
			L279.5,101.5z"/>
		<polygon class="st4" points="259.3,45.2 252,41.1 251.9,51 245.4,51 245.4,41.1 237,44.9 237,57 244.7,60.8 242.1,101.5 
			254.4,101.5 252,60.8 259.3,57.5 		"/>
	</g>
	<path id="darker" class="st5" d="M320.8,122.1H219V66.2c0,0,32,4.9,50.8,4.9s50.9-4.9,50.9-4.9L320.8,122.1L320.8,122.1z"/>
</g>
<g id="titan">
	<rect x="610" y="17.2" class="st1" width="108" height="108"/>
	
		<linearGradient id="SVGID_00000147928426515610480920000009142357685191183761_" gradientUnits="userSpaceOnUse" x1="-124.2886" y1="939.2922" x2="-52.3334" y2="867.337" gradientTransform="matrix(0.7071 -0.7071 0.7071 0.7071 87.6655 -630.0051)">
		<stop  offset="0" style="stop-color:#030404"/>
		<stop  offset="1" style="stop-color:#7A7879"/>
	</linearGradient>
	
		<rect x="613.1" y="20.3" style="fill:url(#SVGID_00000147928426515610480920000009142357685191183761_);" width="101.8" height="101.8"/>
	<rect x="618" y="25.2" class="st7" width="91.9" height="91.9"/>
	<path id="darker-2" class="st8" d="M714.8,122.1H613.1V66.3c0,0,32,4.9,50.8,4.9s50.9-4.9,50.9-4.9L714.8,122.1L714.8,122.1z"/>
	<polygon class="st9" points="664.5,41.2 674.1,61.4 696.3,64.2 680,79.5 684.2,101.5 664.5,90.7 645,101.5 649.1,79.5 632.8,64.2 
		655,61.4 	"/>
</g>
<g id="mln">
	<polygon id="obram_czarne" class="st10" points="470.4,18.3 454.5,34.2 454.5,108 470.4,124.1 544.2,124.1 560.2,108 560.2,34.2 
		544.2,18.3 	"/>
	
		<linearGradient id="obram_zolte_00000135673412919587706880000000373271028530609055_" gradientUnits="userSpaceOnUse" x1="507.34" y1="137.4123" x2="507.34" y2="37.8123" gradientTransform="matrix(1 0 0 1 0 -16.4723)">
		<stop  offset="0.16" style="stop-color:#823A13"/>
		<stop  offset="0.18" style="stop-color:#985C1A"/>
		<stop  offset="0.22" style="stop-color:#AE7D22"/>
		<stop  offset="0.26" style="stop-color:#C39D26"/>
		<stop  offset="0.3" style="stop-color:#D6B92E"/>
		<stop  offset="0.35" style="stop-color:#E4CF36"/>
		<stop  offset="0.41" style="stop-color:#EFE036"/>
		<stop  offset="0.48" style="stop-color:#F6E947"/>
		<stop  offset="0.58" style="stop-color:#F8EA4E"/>
		<stop  offset="0.86" style="stop-color:#F6EA4D"/>
		<stop  offset="1" style="stop-color:#FCF4F9"/>
	</linearGradient>
	<polygon id="obram_zolte" style="fill:url(#obram_zolte_00000135673412919587706880000000373271028530609055_);" points="
		472.6,21.3 457.5,36.4 457.5,106 472.6,120.9 542.1,120.9 557.1,106 557.1,36.4 542.1,21.3 	"/>
	
		<linearGradient id="tlo_wew_00000176011366006672486040000009272679675809808567_" gradientUnits="userSpaceOnUse" x1="507.335" y1="32.4723" x2="507.335" y2="184.8423" gradientTransform="matrix(1 0 0 1 0 -16.4723)">
		<stop  offset="0.26" style="stop-color:#F6EA4D"/>
		<stop  offset="0.86" style="stop-color:#803813"/>
	</linearGradient>
	<polygon id="tlo_wew" style="fill:url(#tlo_wew_00000176011366006672486040000009272679675809808567_);" points="473.6,22.7 
		458.9,37.4 458.9,104.9 473.6,119.6 541.1,119.6 555.8,104.9 555.8,37.4 541.1,22.7 	"/>
	
		<linearGradient id="obram_skosne_00000090289469587550997230000006582389443546962351_" gradientUnits="userSpaceOnUse" x1="507.3249" y1="136.0323" x2="507.3249" y2="39.1923" gradientTransform="matrix(1 0 0 1 0 -16.4723)">
		<stop  offset="0.16" style="stop-color:#803813"/>
		<stop  offset="0.17" style="stop-color:#8C471E"/>
		<stop  offset="0.18" style="stop-color:#A26B3C"/>
		<stop  offset="0.2" style="stop-color:#B78954"/>
		<stop  offset="0.22" style="stop-color:#C7A468"/>
		<stop  offset="0.24" style="stop-color:#D7BB7A"/>
		<stop  offset="0.26" style="stop-color:#E2CC88"/>
		<stop  offset="0.3" style="stop-color:#EAD891"/>
		<stop  offset="0.34" style="stop-color:#EEDE97"/>
		<stop  offset="0.46" style="stop-color:#EFE097"/>
		<stop  offset="0.7" style="stop-color:#803813"/>
		<stop  offset="0.73" style="stop-color:#E6D234"/>
		<stop  offset="0.74" style="stop-color:#EBD948"/>
		<stop  offset="0.75" style="stop-color:#EEDE6D"/>
		<stop  offset="0.77" style="stop-color:#F0E28A"/>
		<stop  offset="0.79" style="stop-color:#F8EBAA"/>
		<stop  offset="0.8" style="stop-color:#F8EDBF"/>
		<stop  offset="0.83" style="stop-color:#FAF0CF"/>
		<stop  offset="0.85" style="stop-color:#FCF2DA"/>
		<stop  offset="0.89" style="stop-color:#FDF4E1"/>
		<stop  offset="0.99" style="stop-color:#FDF5E3"/>
	</linearGradient>
	<path id="obram_skosne" style="fill:url(#obram_skosne_00000090289469587550997230000006582389443546962351_);" d="M548.7,89.8
		c-2.7,0-4.8-2.2-4.8-4.8V57.4c0-2.7,2.2-4.8,4.8-4.8h6.9V37.4L541,22.7h-15.1v6.9c0,2.7-2.2,4.9-4.8,4.9h-27.6
		c-2.7,0-4.9-2.2-4.9-4.9v-6.9h-15.2l-14.6,14.6v15.2h6.9c2.7,0,4.9,2.2,4.9,4.8V85c0,2.7-2.2,4.8-4.9,4.8h-6.9v15.1l14.6,14.6h15.2
		v-6.9c0-2.7,2.2-4.8,4.9-4.8h27.6c2.7,0,4.8,2.2,4.8,4.8v6.9h15.2l14.6-14.6V89.8H548.7L548.7,89.8z"/>
	
		<linearGradient id="tlo_zew_00000100356022517374017160000000646536317213640637_" gradientUnits="userSpaceOnUse" x1="507.425" y1="53.4523" x2="507.425" y2="202.9023" gradientTransform="matrix(1 0 0 1 0 -16.4723)">
		<stop  offset="0.26" style="stop-color:#F6EA4D"/>
		<stop  offset="0.77" style="stop-color:#803813"/>
	</linearGradient>
	<path id="tlo_zew" style="fill:url(#tlo_zew_00000100356022517374017160000000646536317213640637_);" d="M548.5,91.5
		c-3.3,0-6-3.3-6-6.6V57.5c0-3.3,2.7-6.6,6-6.6h5.6V38.6L540,24.5h-12.3v5.6c0,3.3-3.3,6-6.6,6h-27.4c-3.3,0-6.6-2.7-6.6-6v-5.6
		h-12.3l-14.1,14.1v12.3h5.6c3.3,0,6,3.3,6,6.6v27.4c0,3.3-2.7,6.6-6,6.6h-5.6v12.3l14.1,14.1H487v-5.6c0-3.3,3.3-6,6.6-6h27.4
		c3.3,0,6.6,2.7,6.6,6v5.6h12.3l14.1-14.1V91.5L548.5,91.5L548.5,91.5z"/>
</g>
<g id="mln-2">
	<polygon id="obram_czarne-2" class="st10" points="865.4,18.3 849.4,34.2 849.4,108 865.4,124 939.2,124 955.1,108 955.1,34.2 
		939.2,18.3 	"/>
	
		<linearGradient id="obram_zolte-2_00000183248551150913825180000017988039194211924894_" gradientUnits="userSpaceOnUse" x1="902.27" y1="137.4123" x2="902.27" y2="37.8123" gradientTransform="matrix(1 0 0 1 0 -16.4723)">
		<stop  offset="0.16" style="stop-color:#823A13"/>
		<stop  offset="0.18" style="stop-color:#985C1A"/>
		<stop  offset="0.22" style="stop-color:#AE7D22"/>
		<stop  offset="0.26" style="stop-color:#C39D26"/>
		<stop  offset="0.3" style="stop-color:#D6B92E"/>
		<stop  offset="0.35" style="stop-color:#E4CF36"/>
		<stop  offset="0.41" style="stop-color:#EFE036"/>
		<stop  offset="0.48" style="stop-color:#F6E947"/>
		<stop  offset="0.58" style="stop-color:#F8EA4E"/>
		<stop  offset="0.86" style="stop-color:#F6EA4D"/>
		<stop  offset="1" style="stop-color:#FCF4F9"/>
	</linearGradient>
	<polygon id="obram_zolte-2" style="fill:url(#obram_zolte-2_00000183248551150913825180000017988039194211924894_);" points="
		867.5,21.3 852.5,36.4 852.5,105.9 867.5,120.9 937,120.9 952.1,105.9 952.1,36.4 937,21.3 	"/>
	
		<linearGradient id="tlo_wew-2_00000168089136875068229900000006928044247438702753_" gradientUnits="userSpaceOnUse" x1="902.265" y1="32.4623" x2="902.265" y2="184.8323" gradientTransform="matrix(1 0 0 1 0 -16.4723)">
		<stop  offset="0.26" style="stop-color:#F6EA4D"/>
		<stop  offset="0.86" style="stop-color:#803813"/>
	</linearGradient>
	<polygon id="tlo_wew-2" style="fill:url(#tlo_wew-2_00000168089136875068229900000006928044247438702753_);" points="868.5,22.7 
		853.8,37.4 853.8,104.9 868.5,119.6 936,119.6 950.7,104.9 950.7,37.4 936,22.7 	"/>
	
		<linearGradient id="obram_skosne-2_00000031893468503698565860000007500446900823053700_" gradientUnits="userSpaceOnUse" x1="902.215" y1="136.0323" x2="902.215" y2="39.1923" gradientTransform="matrix(1 0 0 1 0 -16.4723)">
		<stop  offset="0.16" style="stop-color:#803813"/>
		<stop  offset="0.17" style="stop-color:#8C471E"/>
		<stop  offset="0.18" style="stop-color:#A26B3C"/>
		<stop  offset="0.2" style="stop-color:#B78954"/>
		<stop  offset="0.22" style="stop-color:#C7A468"/>
		<stop  offset="0.24" style="stop-color:#D7BB7A"/>
		<stop  offset="0.26" style="stop-color:#E2CC88"/>
		<stop  offset="0.3" style="stop-color:#EAD891"/>
		<stop  offset="0.34" style="stop-color:#EEDE97"/>
		<stop  offset="0.46" style="stop-color:#EFE097"/>
		<stop  offset="0.7" style="stop-color:#803813"/>
		<stop  offset="0.73" style="stop-color:#E6D234"/>
		<stop  offset="0.74" style="stop-color:#EBD948"/>
		<stop  offset="0.75" style="stop-color:#EEDE6D"/>
		<stop  offset="0.77" style="stop-color:#F0E28A"/>
		<stop  offset="0.79" style="stop-color:#F8EBAA"/>
		<stop  offset="0.8" style="stop-color:#F8EDBF"/>
		<stop  offset="0.83" style="stop-color:#FAF0CF"/>
		<stop  offset="0.85" style="stop-color:#FCF2DA"/>
		<stop  offset="0.89" style="stop-color:#FDF4E1"/>
		<stop  offset="0.99" style="stop-color:#FDF5E3"/>
	</linearGradient>
	<path id="obram_skosne-2" style="fill:url(#obram_skosne-2_00000031893468503698565860000007500446900823053700_);" d="M943.8,89.8
		c-2.7,0-4.8-2.2-4.8-4.8V57.4c0-2.7,2.2-4.8,4.8-4.8h6.9V37.4L936,22.7h-15.2v6.9c0,2.7-2.2,4.9-4.8,4.9h-27.6
		c-2.7,0-4.8-2.2-4.8-4.9v-6.9h-15.2l-14.6,14.6v15.2h6.9c2.7,0,4.8,2.2,4.8,4.8V85c0,2.7-2.2,4.8-4.8,4.8h-6.9v15.1l14.6,14.6h15.2
		v-6.9c0-2.7,2.2-4.8,4.8-4.8H916c2.7,0,4.8,2.2,4.8,4.8v6.9H936l14.6-14.6V89.8C950.7,89.8,943.8,89.8,943.8,89.8z"/>
	
		<linearGradient id="tlo_zew-2_00000132069161849169729500000010273717351323603586_" gradientUnits="userSpaceOnUse" x1="902.3149" y1="53.4523" x2="902.3149" y2="202.9023" gradientTransform="matrix(1 0 0 1 0 -16.4723)">
		<stop  offset="0.26" style="stop-color:#F6EA4D"/>
		<stop  offset="0.77" style="stop-color:#803813"/>
	</linearGradient>
	<path id="tlo_zew-2" style="fill:url(#tlo_zew-2_00000132069161849169729500000010273717351323603586_);" d="M943.4,91.5
		c-3.3,0-6-3.3-6-6.6V57.5c0-3.3,2.7-6.6,6-6.6h5.6V38.6l-14.1-14.1h-12.3v5.6c0,3.3-3.3,6-6.6,6h-27.5c-3.3,0-6.6-2.7-6.6-6v-5.6
		h-12.3l-14.1,14.1v12.3h5.6c3.3,0,6,3.3,6,6.6v27.4c0,3.3-2.7,6.6-6,6.6h-5.6v12.3l14.1,14.1H882v-5.6c0-3.3,3.3-6,6.6-6H916
		c3.3,0,6.6,2.7,6.6,6v5.6h12.3l14.1-14.1V91.5H943.4z"/>
</g>
<g>
	<path class="st19" d="M353.1,62.9V51.4h11.5v11.5H353.1z M353.1,94.1V82.6h11.5v11.5H353.1z"/>
	<path class="st19" d="M416,92.2V74.7h-17.5v-7.2H416V50h7.2v17.5h17.5v7.2h-17.5v17.5H416z"/>
</g>
<path class="st20" d="M505.6,95.8V54.4h-6.3l-0.2-4.7l15.9-1.4v47.5L505.6,95.8L505.6,95.8z"/>
<g>
	<path class="st19" d="M748.1,62.9V51.4h11.5v11.5H748.1z M748.1,94.1V82.6h11.5v11.5H748.1z"/>
	<path class="st19" d="M811,92.2V74.7h-17.5v-7.2H811V50h7.2v17.5h17.5v7.2h-17.5v17.5H811z"/>
</g>
<path class="st20" d="M900.6,95.8V54.4h-6.3l-0.2-4.7l15.9-1.4v47.5L900.6,95.8L900.6,95.8z"/>
</svg>
