<?xml version="1.0" encoding="utf-8"?>
<!-- Generator: Adobe Illustrator 26.3.1, SVG Export Plug-In . SVG Version: 6.00 Build 0)  -->
<svg version="1.1" id="Layer" xmlns="http://www.w3.org/2000/svg" xmlns:xlink="http://www.w3.org/1999/xlink" x="0px" y="0px"
	 viewBox="0 0 1173.5 141.7" style="enable-background:new 0 0 1173.5 141.7;" xml:space="preserve">
<style type="text/css">
	.st0{fill:#FFFFFF;fill-opacity:0;}
	.st1{fill:#FFFFFF;}
	.st2{fill:#030404;}
	.st3{fill:url(#SVGID_1_);}
	.st4{fill:url(#SVGID_00000075126742660634804480000002589610113531231669_);}
	.st5{opacity:8.000000e-02;fill:#030404;enable-background:new    ;}
	.st6{fill:#155929;}
	.st7{fill:#1A291D;}
	.st8{fill:url(#SVGID_00000113345960795678736100000002882191912218246808_);}
	.st9{fill:#98C32C;}
	.st10{fill:#3F4B22;}
	.st11{opacity:0.12;fill:#030404;enable-background:new    ;}
	.st12{fill:url(#SVGID_00000031921332523224658280000012931783759662437525_);}
	.st13{fill:#4BAD39;}
	.st14{fill:#0D582A;stroke:#1E4523;stroke-width:3.46;stroke-miterlimit:10;}
	.st15{opacity:5.000000e-02;fill:#030404;enable-background:new    ;}
	.st16{fill:url(#SVGID_00000072256768438858786880000018343369762895308456_);}
	.st17{fill:url(#SVGID_00000047738789624864446800000009560252408060372380_);}
	.st18{fill:url(#SVGID_00000090983230555972346820000003117663938185325997_);}
	.st19{fill:url(#SVGID_00000180341948959156047380000005485186909298691752_);}
	.st20{fill:#4DAE39;}
	.st21{fill:#09582E;stroke:#1F4524;stroke-width:3.46;stroke-miterlimit:10;}
</style>
<rect y="0" class="st0" width="1173.5" height="141.7"/>
<path class="st1" d="M1075.8,36.5l-7.3-1l1.7-5.2l6.5,3.6c-0.6,0.6-0.9,1.3-0.9,2L1075.8,36.5L1075.8,36.5L1075.8,36.5z
	 M1078.1,38.5l-3.2,6.7l-4.4-3.2l5.4-5.1C1076.5,37.8,1077.1,38.3,1078.1,38.5L1078.1,38.5L1078.1,38.5z M1075.6,26.4h5.4l-1.4,7.3
	c-0.4-0.2-0.9-0.3-1.4-0.3s-0.9,0.1-1.3,0.3L1075.6,26.4L1075.6,26.4L1075.6,26.4z M1080.8,37l5.4,5.1l-4.4,3.2l-3.1-6.7
	C1079.6,38.4,1080.3,37.9,1080.8,37L1080.8,37L1080.8,37z M1080.1,33.9l6.5-3.6l1.6,5.2l-7.3,1c0-0.3,0.1-0.4,0.1-0.5
	C1081,35.2,1080.6,34.5,1080.1,33.9L1080.1,33.9L1080.1,33.9z"/>
<g id="animal">
	<rect x="952.9" y="17.3" class="st2" width="107.8" height="107.8"/>
	
		<linearGradient id="SVGID_1_" gradientUnits="userSpaceOnUse" x1="-121.8844" y1="-1584.2164" x2="-50.0707" y2="-1512.4026" gradientTransform="matrix(0.7071 -0.7071 -0.7071 -0.7071 -27.1848 -1084.4554)">
		<stop  offset="0" style="stop-color:#1F4D23"/>
		<stop  offset="0.43" style="stop-color:#4C7030"/>
		<stop  offset="1" style="stop-color:#97AB45"/>
	</linearGradient>
	<rect x="956.1" y="20.4" class="st3" width="101.6" height="101.6"/>
	
		<radialGradient id="SVGID_00000066495005452795621370000004045928630509826718_" cx="1006.85" cy="39.0923" r="45.86" gradientTransform="matrix(1 0 0 -1 0 110.2723)" gradientUnits="userSpaceOnUse">
		<stop  offset="0.25" style="stop-color:#97AB45"/>
		<stop  offset="1" style="stop-color:#3C7B31"/>
	</radialGradient>
	
		<rect x="961" y="25.3" style="fill:url(#SVGID_00000066495005452795621370000004045928630509826718_);" width="91.7" height="91.7"/>
	<path id="darker" class="st5" d="M1057.6,121.9H956.1V66.3c0,0,32,4.9,50.7,4.9c18.8,0,50.8-4.9,50.8-4.9V121.9z"/>
	<path class="st6" d="M996.1,45.4c-0.3,0-2.8,0.3-4.2,2.4c-0.6,0.8-0.9,1.6-1,2.6c-0.3,1.9-1,5.4,0.3,9.6c0.7,2,1.5,4.4,3.7,6.1
		c0.7,0.5,2.1,1.5,3.9,1.3c2-0.2,3.2-1.6,3.6-2.2c1.7-2,1.7-4.3,1.8-6.8c0-1.2,0-4.9-1.9-8.8c-1.3-2.6-2.4-3.3-2.9-3.5
		C998,45.1,996.5,45.3,996.1,45.4L996.1,45.4L996.1,45.4L996.1,45.4z"/>
	<path class="st6" d="M1019.9,43.9c-0.3-0.1-2.7-0.6-4.8,0.8c-0.8,0.5-1.4,1.2-1.9,2.1c-1,1.6-2.8,4.6-3,9.1c-0.1,2.2-0.2,4.7,1.4,7
		c0.5,0.7,1.5,2.1,3.2,2.5c1.9,0.5,3.6-0.4,4.2-0.8c2.2-1.3,3.2-3.5,4.2-5.8c0.4-1.1,1.7-4.6,1.3-8.9c-0.3-2.8-1.1-3.9-1.6-4.3
		C1021.8,44.4,1020.4,44.1,1019.9,43.9L1019.9,43.9L1019.9,43.9L1019.9,43.9z"/>
	<path class="st6" d="M979.9,59.2c-0.3,0.1-2.7,0.6-4,2.8c-0.5,0.9-0.7,1.6-0.8,2.7c-0.2,1.9-0.5,5.4,1.2,9.5
		c0.9,1.9,1.8,4.2,4.3,5.7c0.8,0.4,2.2,1.2,4,0.9c2-0.3,3-1.9,3.5-2.5c1.5-2.2,1.4-4.5,1.2-7c-0.1-1.2-0.4-4.8-2.8-8.5
		c-1.5-2.4-2.7-3-3.3-3.3C981.8,58.9,980.5,59.1,979.9,59.2L979.9,59.2L979.9,59.2L979.9,59.2z"/>
	<path class="st6" d="M1034.4,57.1c-0.3-0.1-2.7-0.6-4.8,0.9c-0.8,0.6-1.3,1.3-1.8,2.2c-0.9,1.7-2.8,4.7-2.8,9.2
		c0,2.2-0.1,4.7,1.6,6.9c0.5,0.7,1.6,2.1,3.3,2.4c1.9,0.4,3.5-0.5,4.2-0.9c2.2-1.3,3.1-3.5,4-5.9c0.4-1.1,1.6-4.6,1-8.9
		c-0.3-2.8-1.2-3.9-1.6-4.3C1036.2,57.5,1034.8,57.2,1034.4,57.1L1034.4,57.1L1034.4,57.1z"/>
	<path class="st7" d="M1033.8,59.9c-0.2,0-2-0.4-3.5,0.7c-0.6,0.4-0.9,1-1.4,1.6c-0.7,1.3-2,3.5-2.1,6.8c0,1.6-0.1,3.5,1.2,5.2
		c0.3,0.5,1.1,1.6,2.4,1.8c1.5,0.3,2.7-0.4,3.1-0.6c1.6-1,2.2-2.6,2.9-4.4c0.3-0.9,1.2-3.5,0.8-6.7c-0.3-2.1-0.9-2.8-1.2-3.2
		C1035.2,60.1,1034.1,59.9,1033.8,59.9L1033.8,59.9L1033.8,59.9z"/>
	<path class="st7" d="M1019.2,46.8c-0.2-0.1-2-0.4-3.5,0.5c-0.6,0.4-1,0.9-1.4,1.6c-0.8,1.2-2.1,3.4-2.2,6.7c-0.1,1.6-0.2,3.5,1,5.2
		c0.3,0.5,1,1.6,2.3,1.9c1.5,0.3,2.7-0.3,3.1-0.5c1.6-1,2.3-2.5,3-4.2c0.3-0.9,1.3-3.4,1-6.6c-0.3-2.1-0.9-2.8-1.1-3.2
		C1020.6,47.1,1019.6,46.8,1019.2,46.8L1019.2,46.8L1019.2,46.8L1019.2,46.8z"/>
	<path class="st7" d="M996.4,48.2c-0.2,0-2,0.3-3.1,1.7c-0.4,0.6-0.6,1.2-0.8,1.9c-0.3,1.4-0.8,3.9,0.3,7.1c0.5,1.5,1,3.3,2.8,4.5
		c0.5,0.3,1.6,1,2.8,0.9c1.5-0.2,2.3-1.2,2.7-1.6c1.2-1.5,1.3-3.2,1.4-5c0-0.9,0-3.6-1.5-6.5c-1-1.9-1.8-2.4-2.2-2.6
		C997.8,48,996.8,48.1,996.4,48.2L996.4,48.2L996.4,48.2z"/>
	<path class="st7" d="M980.5,61.7c-0.2,0-2.1,0.4-3,2.2c-0.4,0.7-0.5,1.3-0.6,2.1c-0.2,1.5-0.4,4.2,1,7.3c0.6,1.5,1.4,3.3,3.3,4.3
		c0.6,0.3,1.7,0.9,3,0.7c1.5-0.3,2.3-1.5,2.6-1.9c1.1-1.6,1-3.5,1-5.4c-0.1-0.9-0.3-3.7-2.1-6.6c-1.1-1.9-2.1-2.3-2.5-2.5
		C981.9,61.5,980.8,61.7,980.5,61.7L980.5,61.7L980.5,61.7z"/>
	<path class="st6" d="M1007.6,66.3c-1.2,0.1-2.5,0.1-4,0.9c-1.6,0.9-2.6,2.2-3.5,3.3c-0.8,1-0.7,1.1-1.8,2.9c-1,1.6-1.6,2.5-2.5,3.5
		c-1.1,1.3-2.2,2.1-4.2,3.6c-2.2,1.6-2.3,1.6-2.9,2.2c-1.5,1.7-1.8,3.6-2.1,4.9c-0.2,1.2-0.6,3.5,0.3,6.1c0.4,1.1,1.2,3.3,3.2,4.2
		c0.8,0.3,1.6,0.4,3.5,0.3c3.2-0.2,5.4-0.8,7.3-1.2c2.2-0.5,4.6-1,7.5-1.1c3.5-0.1,6.7,0.5,8.3,0.8c1.9,0.3,3.3,0.8,6,1
		c2.2,0.3,3.4,0.2,4.7-0.3c0.8-0.3,2.2-0.7,3.2-1.9c1.1-1.4,1.2-2.8,1.2-4.4c0.1-1,0.1-3.5-1.4-6.5c-0.6-1.3-1.1-1.9-3.1-4.3
		c-5.4-6.7-5.6-7.4-7.8-9.2c-1.3-1.1-2.6-2.2-4.6-3.2C1013.8,67.4,1011.1,66.1,1007.6,66.3L1007.6,66.3L1007.6,66.3L1007.6,66.3
		L1007.6,66.3z"/>
	<path class="st7" d="M1007.8,68.5c-1,0.1-2.2,0.1-3.5,0.8c-1.4,0.8-2.2,1.9-2.9,2.8c-0.7,0.9-0.6,0.9-1.6,2.6
		c-0.9,1.4-1.4,2.2-2.2,3c-1,1.1-1.9,1.8-3.6,3.1c-1.9,1.5-2,1.3-2.6,2c-1.3,1.5-2.4,3.7-2.7,4.8c-0.2,1-0.5,2.9,0.3,5.2
		c0.3,1,1,2.8,2.8,3.6c0.7,0.3,2.2-0.1,3.8-0.3c2.8-0.2,4.7-0.7,6.3-1c1.9-0.4,4-0.9,6.5-0.9c3-0.1,5.7,0.4,7.2,0.7
		c1.6,0.3,2.8,0.7,5.1,0.9c1.9,0.2,4.2,0.9,5.3,0.6c0.7-0.2,1.8-0.7,2.8-1.8c0.9-1.1,0.7-3.5,0.8-4.9c0.1-0.9-0.7-2.8-2.2-5.3
		c-0.7-1.2-1-1.6-2.7-3.7c-4.6-5.7-4.8-6.4-6.7-8c-1.1-0.9-2.2-1.9-4-2.8C1013.2,69.5,1010.9,68.3,1007.8,68.5L1007.8,68.5
		L1007.8,68.5z"/>
</g>
<path class="st1" d="M898.8,107.6l34-72.8h8.7l-34,72.8H898.8z"/>
<path class="st1" d="M887.5,36.5l-7.3-1l1.7-5.2l6.5,3.6c-0.6,0.6-0.9,1.3-0.9,2L887.5,36.5L887.5,36.5L887.5,36.5z M889.9,38.5
	l-3.2,6.7l-4.4-3.2l5.4-5.1C888.2,37.8,888.9,38.3,889.9,38.5L889.9,38.5L889.9,38.5z M887.4,26.4h5.4l-1.4,7.3
	c-0.4-0.2-0.9-0.3-1.3-0.3s-0.9,0.1-1.3,0.3L887.4,26.4L887.4,26.4L887.4,26.4z M892.5,37l5.4,5.1l-4.4,3.2l-3.1-6.7
	C891.3,38.4,892,37.9,892.5,37L892.5,37L892.5,37z M891.8,33.9l6.5-3.6l1.6,5.2l-7.3,1c0-0.3,0.1-0.4,0.1-0.5
	C892.7,35.2,892.4,34.5,891.8,33.9L891.8,33.9L891.8,33.9z"/>
<g id="microbe">
	<rect x="765.1" y="17.3" class="st2" width="107.8" height="107.8"/>
	
		<linearGradient id="SVGID_00000065761499284441830950000003228551995048032701_" gradientUnits="userSpaceOnUse" x1="-171.6506" y1="1393.778" x2="-99.8368" y2="1321.9642" gradientTransform="matrix(0.7071 -0.7071 0.7071 0.7071 -45.1646 -984.8951)">
		<stop  offset="0" style="stop-color:#3F4B22"/>
		<stop  offset="0.14" style="stop-color:#4D5F26"/>
		<stop  offset="0.42" style="stop-color:#6B862B"/>
		<stop  offset="0.66" style="stop-color:#83A530"/>
		<stop  offset="0.86" style="stop-color:#8FB923"/>
		<stop  offset="1" style="stop-color:#98C32C"/>
	</linearGradient>
	
		<rect x="768.2" y="20.5" style="fill:url(#SVGID_00000065761499284441830950000003228551995048032701_);" width="101.6" height="101.6"/>
	<rect x="773.2" y="25.4" class="st9" width="91.7" height="91.7"/>
	<g id="microbes">
		<polygon class="st10" points="820.1,80.4 815.9,81 816.4,85.3 812.2,84.6 811.5,88.8 807.6,86.9 805.6,90.8 802.5,87.8 
			799.4,90.9 797.4,87.1 793.6,89.3 792.7,85 788.5,85.9 788.8,81.6 784.5,81.2 786.1,77.2 782.2,75.5 784.9,72.2 781.5,69.5 
			785.2,67.1 782.8,63.4 786.9,62.2 785.7,58.1 790,58.2 790.1,53.8 794.2,55.1 795.5,51 799.1,53.5 801.6,49.9 804.3,53.4 
			807.7,50.7 809.2,54.8 813.3,53.2 813.5,57.5 817.8,57.3 816.8,61.5 821,62.6 818.8,66.3 822.5,68.5 819.3,71.4 822.3,74.7 
			818.3,76.5 		"/>
		<polygon class="st10" points="857.3,63.1 856,63.6 856,65.5 853.7,64.8 852.2,66.2 850.1,64.7 847.8,65.3 841.5,66.1 838.8,65.8 
			836.1,60.7 833,59.7 830.4,56.9 827.5,55.5 825.1,52.7 822.3,51.3 820.5,48.1 818.1,46.1 817.2,43.7 815.4,41.8 815.3,39.8 
			813.8,38.1 815,36.8 815.1,34.9 816.4,34.9 817.6,33.6 819.4,34.4 822.3,31.6 824.6,33.3 827.2,33.4 829.8,35.3 832.8,36.1 
			834.3,40.4 837.7,41.7 840,44.4 843,46.2 845,48.9 847.9,50.9 852.8,53.4 855.1,55.7 855.5,57.6 857,59.5 856.6,61.1 		"/>
		<polygon class="st10" points="852.6,83.7 852.9,84.2 853.5,85.6 852.3,86.2 852.4,87.8 849.5,88.9 848.3,90.7 844.6,94.3 
			840.6,96.2 835.1,97.8 832,99.8 827.7,100.8 824.1,102.5 819.8,103.3 816.5,104.9 812.3,105.1 808.8,106.2 805.9,106.1 
			802.9,106.7 801,106.2 798.4,106.7 798.2,105.4 797.5,105.1 797.6,103.8 797.4,102.4 799.4,101.4 799.3,98.3 802.4,97.2 
			804.5,95.4 808.2,94.1 812.4,93 816.2,92.4 819.8,90.4 823.9,89.7 827.8,88 831.7,87.5 835.7,85.9 841.6,83.2 845.4,82.3 
			847.3,82.6 850.2,82.1 851.2,83.1 		"/>
	</g>
	<path id="darker-2" class="st11" d="M869.8,121.9H768.2V66.3c0,0,32,4.9,50.7,4.9s50.8-4.9,50.8-4.9V121.9z"/>
</g>
<path class="st1" d="M712.3,107.6l34-72.8h8.7l-34,72.8H712.3z"/>
<g id="plant">
	<rect x="595.5" y="17.3" class="st2" width="107.8" height="107.8"/>
	
		<linearGradient id="SVGID_00000034050787774161715710000003506760909050601352_" gradientUnits="userSpaceOnUse" x1="-374.6164" y1="-1331.4894" x2="-302.7927" y2="-1259.6757" gradientTransform="matrix(0.7071 -0.7071 -0.7071 -0.7071 -27.1848 -1084.4554)">
		<stop  offset="0" style="stop-color:#116A37"/>
		<stop  offset="4.000000e-02" style="stop-color:#156D38"/>
		<stop  offset="8.000000e-02" style="stop-color:#0A783A"/>
		<stop  offset="0.13" style="stop-color:#148837"/>
		<stop  offset="0.15" style="stop-color:#0F9039"/>
		<stop  offset="0.35" style="stop-color:#38993D"/>
		<stop  offset="0.76" style="stop-color:#61B149"/>
		<stop  offset="1" style="stop-color:#70B74B"/>
	</linearGradient>
	
		<rect x="598.7" y="20.4" style="fill:url(#SVGID_00000034050787774161715710000003506760909050601352_);" width="101.6" height="101.6"/>
	<rect x="603.6" y="25.3" class="st13" width="91.7" height="91.7"/>
	<path id="leaf" class="st14" d="M649.4,48c-13.1,1.8-23.2,10.4-23.2,23.2c0,3.1,0.6,6.1,1.7,8.9c-2.4,1.6-6,3.8-7.7,4.4
		c-3,1-9.1,0.3-9.3,0.9s1.7,6,2.4,6.2s6.2,0.3,9.3-0.9c2.2-0.8,6.3-3.4,8.6-5.1c4.2,5.4,10.8,8.7,18.2,8.7c12.8,0,23-8,23-20.8
		c0-4.9,1.2-11.2,3-15c2-4.3,12.3-7.1,12.3-7.1C686.6,47.9,654.5,47.2,649.4,48L649.4,48L649.4,48L649.4,48z"/>
	<path id="darker-3" class="st15" d="M700.1,121.9H598.7V66.3c0,0,32,4.9,50.7,4.9s50.8-4.9,50.8-4.9L700.1,121.9L700.1,121.9z"/>
</g>
<path class="st1" d="M538,61.3V49.8h11.5v11.5H538z M538,92.5V81h11.5v11.5H538z"/>
<g id="tagAnimal">
	<path class="st2" d="M521.1,71.1c0,29.6-24,53.6-53.6,53.6s-53.6-24-53.6-53.6s24-53.6,53.6-53.6S521.1,41.5,521.1,71.1z"/>
	
		<linearGradient id="SVGID_00000088103189789080622180000004505704483497476771_" gradientUnits="userSpaceOnUse" x1="467.6" y1="-29.4777" x2="467.6" y2="69.8423" gradientTransform="matrix(1 0 0 -1 0 91.2623)">
		<stop  offset="0" style="stop-color:#204D23"/>
		<stop  offset="1" style="stop-color:#99AC45"/>
	</linearGradient>
	<path style="fill:url(#SVGID_00000088103189789080622180000004505704483497476771_);" d="M517.2,71.1c0,27.4-22.2,49.6-49.6,49.6
		S418,98.5,418,71.1s22.1-49.7,49.5-49.7S517.2,43.6,517.2,71.1L517.2,71.1L517.2,71.1z"/>
	
		<radialGradient id="SVGID_00000024688943545902629390000010760839026258121637_" cx="467.37" cy="20.3423" r="44.27" fx="442.47" fy="20.3423" gradientTransform="matrix(1 0 0 -1 0 91.2623)" gradientUnits="userSpaceOnUse">
		<stop  offset="0.24" style="stop-color:#99AC45"/>
		<stop  offset="0.39" style="stop-color:#8CA343"/>
		<stop  offset="0.67" style="stop-color:#67912E"/>
		<stop  offset="1" style="stop-color:#3C7B31"/>
	</radialGradient>
	<path style="fill:url(#SVGID_00000024688943545902629390000010760839026258121637_);" d="M512.4,71.1c0,24.7-20,44.9-44.9,44.9
		s-44.8-20.1-44.8-44.9s20-44.9,44.9-44.9S512.4,46.3,512.4,71.1L512.4,71.1z"/>
	<path id="darker-3-2" class="st5" d="M517.2,71.1c0-1,0-2-0.1-2.9c-10,2.8-27.2,6.3-49.5,6.3s-39-4.3-49.5-8
		c-0.2,1.6-0.3,3.1-0.3,4.7c0,27.4,22.2,49.6,49.6,49.6S517.2,98.6,517.2,71.1L517.2,71.1L517.2,71.1z"/>
	<path class="st6" d="M455.9,40.7c-0.3,0-2.8,0.3-4.2,2.4c-0.6,0.8-0.9,1.6-1,2.6c-0.4,1.9-1,5.4,0.4,9.6c0.7,2,1.5,4.4,3.7,6
		c0.7,0.5,2.1,1.5,3.9,1.3c2-0.2,3.2-1.6,3.6-2.2c1.7-2,1.7-4.3,1.8-6.8c0-1.2,0-4.9-1.9-8.8c-1.3-2.6-2.4-3.3-2.9-3.5
		C457.8,40.4,456.4,40.6,455.9,40.7L455.9,40.7L455.9,40.7L455.9,40.7z"/>
	<path class="st6" d="M479.8,39.2c-0.3-0.1-2.7-0.6-4.8,0.8c-0.8,0.5-1.4,1.2-1.9,2.1c-1,1.6-2.9,4.6-3,9.1c-0.1,2.2-0.2,4.7,1.4,7
		c0.5,0.7,1.5,2.1,3.2,2.5c1.9,0.5,3.6-0.4,4.1-0.8c2.2-1.3,3.2-3.5,4.1-5.8c0.4-1.1,1.7-4.6,1.3-8.9c-0.3-2.8-1.1-3.9-1.6-4.3
		C481.6,39.7,480.2,39.4,479.8,39.2L479.8,39.2L479.8,39.2L479.8,39.2z"/>
	<path class="st6" d="M439.8,54.6c-0.3,0.1-2.7,0.6-4,2.8c-0.5,0.9-0.7,1.6-0.8,2.7c-0.2,1.9-0.5,5.4,1.2,9.5
		c0.9,1.9,1.8,4.2,4.3,5.7c0.8,0.4,2.2,1.2,4,0.9c2-0.3,3-1.9,3.5-2.5c1.5-2.2,1.4-4.5,1.2-7c-0.1-1.2-0.4-4.8-2.8-8.5
		c-1.5-2.4-2.7-3-3.3-3.3C441.6,54.3,440.3,54.6,439.8,54.6L439.8,54.6L439.8,54.6L439.8,54.6z"/>
	<path class="st6" d="M494.2,52.5c-0.3-0.1-2.7-0.6-4.8,0.9c-0.8,0.6-1.3,1.3-1.8,2.2c-1,1.7-2.8,4.7-2.8,9.2c0,2.2-0.1,4.7,1.6,6.9
		c0.5,0.7,1.6,2.1,3.3,2.4c1.9,0.4,3.5-0.5,4.1-0.9c2.2-1.3,3.1-3.5,4-5.9c0.4-1.1,1.6-4.6,1-8.9c-0.4-2.8-1.2-3.9-1.6-4.3
		C496,53,494.7,52.6,494.2,52.5L494.2,52.5L494.2,52.5z"/>
	<path class="st7" d="M493.6,55.3c-0.2,0-2-0.4-3.5,0.7c-0.6,0.4-1,1-1.4,1.6c-0.7,1.3-2,3.5-2.1,6.8c0,1.6-0.1,3.5,1.2,5.2
		c0.4,0.5,1.1,1.6,2.4,1.8c1.5,0.3,2.7-0.4,3.1-0.6c1.6-1,2.2-2.6,2.9-4.4c0.4-0.9,1.2-3.5,0.8-6.7c-0.3-2.1-1-2.8-1.2-3.2
		C495,55.5,494,55.2,493.6,55.3L493.6,55.3L493.6,55.3z"/>
	<path class="st7" d="M479.1,42.1c-0.2-0.1-2-0.4-3.5,0.5c-0.6,0.4-1,0.9-1.4,1.6c-0.8,1.2-2.1,3.4-2.2,6.7c-0.1,1.6-0.2,3.5,1,5.2
		c0.4,0.5,1,1.6,2.3,1.9c1.5,0.3,2.7-0.3,3.1-0.5c1.6-1,2.3-2.5,3-4.2c0.4-0.9,1.3-3.4,1-6.6c-0.3-2.1-0.9-2.8-1.1-3.2
		C480.4,42.4,479.5,42.2,479.1,42.1L479.1,42.1L479.1,42.1L479.1,42.1z"/>
	<path class="st7" d="M456.3,43.5c-0.2,0-2,0.3-3.1,1.7c-0.4,0.6-0.6,1.2-0.8,1.9c-0.3,1.4-0.8,3.9,0.3,7.1c0.5,1.5,1,3.3,2.8,4.5
		c0.5,0.3,1.6,1,2.9,1c1.5-0.2,2.3-1.2,2.7-1.6c1.2-1.5,1.3-3.2,1.4-5c0-0.9,0-3.6-1.5-6.5c-1-1.9-1.8-2.4-2.2-2.6
		C457.7,43.4,456.6,43.5,456.3,43.5L456.3,43.5L456.3,43.5z"/>
	<path class="st7" d="M440.4,57c-0.2,0-2.1,0.4-3,2.2c-0.4,0.7-0.5,1.3-0.6,2.1c-0.2,1.5-0.4,4.1,1,7.3c0.6,1.5,1.4,3.3,3.3,4.3
		c0.6,0.3,1.7,0.9,3,0.7c1.5-0.3,2.3-1.5,2.6-1.9c1.1-1.6,1-3.5,1-5.4c-0.1-0.9-0.4-3.7-2.1-6.6c-1.1-1.9-2.1-2.3-2.5-2.5
		C441.8,56.9,440.7,57,440.4,57L440.4,57L440.4,57z"/>
	<path class="st6" d="M467.4,61.6c-1.2,0.1-2.5,0.1-4,0.9c-1.6,0.9-2.6,2.2-3.5,3.3c-0.8,1-0.7,1.1-1.8,2.9c-1,1.6-1.6,2.5-2.5,3.5
		c-1.1,1.3-2.2,2.1-4.2,3.6c-2.2,1.6-2.3,1.6-2.9,2.2c-1.5,1.7-1.8,3.6-2.1,4.9c-0.2,1.2-0.6,3.5,0.4,6.1c0.4,1.1,1.2,3.3,3.2,4.2
		c0.8,0.3,1.6,0.4,3.5,0.3c3.2-0.2,5.4-0.8,7.3-1.2c2.2-0.5,4.6-1,7.5-1.1c3.5-0.1,6.7,0.5,8.3,0.8c1.9,0.3,3.3,0.8,6,1
		c2.2,0.3,3.4,0.2,4.7-0.3c0.8-0.3,2.2-0.7,3.2-1.9c1.1-1.4,1.2-2.8,1.2-4.4c0.1-1,0.1-3.5-1.4-6.5c-0.6-1.3-1.1-1.9-3.1-4.3
		c-5.4-6.7-5.6-7.4-7.8-9.2c-1.3-1.1-2.6-2.2-4.6-3.2C473.7,62.7,471,61.4,467.4,61.6L467.4,61.6L467.4,61.6L467.4,61.6L467.4,61.6z
		"/>
	<path class="st7" d="M467.7,63.9c-1,0.1-2.2,0.1-3.5,0.8c-1.4,0.8-2.2,1.9-2.9,2.8c-0.7,0.9-0.6,0.9-1.6,2.6
		c-0.9,1.4-1.4,2.2-2.2,3c-1,1.1-1.9,1.8-3.6,3.1c-1.9,1.5-2,1.3-2.6,2c-1.3,1.5-2.4,3.7-2.7,4.8c-0.2,1-0.5,2.9,0.3,5.2
		c0.4,1,1,2.8,2.8,3.6c0.7,0.3,2.2-0.1,3.8-0.3c2.8-0.2,4.7-0.7,6.3-1c1.9-0.4,4-0.9,6.5-0.9c3-0.1,5.7,0.4,7.2,0.7
		c1.6,0.3,2.9,0.7,5.1,0.9c1.9,0.2,4.2,0.9,5.3,0.6c0.7-0.2,1.8-0.7,2.8-1.8c1-1.1,0.7-3.5,0.8-4.9c0.1-0.9-0.7-2.8-2.2-5.3
		c-0.7-1.2-1-1.6-2.7-3.7c-4.6-5.7-4.8-6.4-6.7-8c-1.1-0.9-2.2-1.9-4-2.8C473,64.9,470.7,63.7,467.7,63.9L467.7,63.9L467.7,63.9z"/>
</g>
<path class="st1" d="M363.3,107.6l34.1-72.9h8.7l-34,72.8L363.3,107.6L363.3,107.6L363.3,107.6L363.3,107.6z"/>
<g id="tagMicrobe">
	<path class="st2" d="M357.5,71.1c0,29.6-24,53.6-53.6,53.6s-53.6-24-53.6-53.6s24-53.6,53.6-53.6S357.5,41.6,357.5,71.1z"/>
	
		<linearGradient id="SVGID_00000120524187517128376080000015248514029066396555_" gradientUnits="userSpaceOnUse" x1="303.9" y1="-29.4777" x2="303.9" y2="69.7623" gradientTransform="matrix(1 0 0 -1 0 91.2623)">
		<stop  offset="0" style="stop-color:#3F4B22"/>
		<stop  offset="0.14" style="stop-color:#516023"/>
		<stop  offset="0.42" style="stop-color:#6B862B"/>
		<stop  offset="0.66" style="stop-color:#83A530"/>
		<stop  offset="0.86" style="stop-color:#8FB923"/>
		<stop  offset="1" style="stop-color:#98C32C"/>
	</linearGradient>
	<path style="fill:url(#SVGID_00000120524187517128376080000015248514029066396555_);" d="M353.5,71.1c0,27.4-22.2,49.6-49.6,49.6
		s-49.6-22.2-49.6-49.6s22.2-49.6,49.6-49.6S353.5,43.7,353.5,71.1z"/>
	<path class="st9" d="M348.8,71.1c0,24.7-20,44.9-44.9,44.9S259,95.9,259,71.1s20-44.9,44.9-44.9S348.8,46.4,348.8,71.1z"/>
	<g id="microbes-2">
		<polygon class="st10" points="305.8,76.7 301.8,77.3 302.4,81.3 298.5,80.6 297.9,84.5 294.2,82.8 292.5,86.3 289.5,83.7 
			286.8,86.6 284.9,83.1 281.3,84.9 280.6,81.1 276.7,81.9 277,77.9 273,77.6 274.5,73.8 270.8,72.4 273.4,69.3 270.3,66.7 
			273.6,64.6 271.4,61.2 275.3,60 274.2,56.2 278.1,56.3 278.1,52.3 282,53.6 283.2,49.7 286.4,52 288.8,48.8 291.2,52 294.4,49.4 
			295.8,53.2 299.5,51.8 299.8,55.7 303.7,55.5 302.8,59.5 306.7,60.3 304.6,63.8 308,65.8 305.1,68.5 307.8,71.6 304.1,73.2 		"/>
		<polygon class="st10" points="340.1,60.9 338.8,61.3 338.8,63.1 336.7,62.5 335.5,63.8 333.4,62.4 331.3,62.9 325.5,63.7 
			323.1,63.5 320.5,58.6 317.6,57.7 315.3,55.3 312.5,53.8 310.4,51.2 307.8,50.1 306.1,47.1 303.9,45.2 303,43 301.5,41.3 
			301.3,39.4 300,37.8 301,36.6 301.1,34.9 302.4,34.9 303.5,33.7 305.1,34.4 307.9,31.9 310,33.3 312.3,33.5 314.7,35.2 317.5,36 
			318.9,40 322,41.1 324,43.6 326.9,45.4 328.7,47.8 331.5,49.7 335.9,52 338,54 338.4,55.9 339.8,57.5 339.3,59 		"/>
		<polygon class="st10" points="335.7,79.8 336,80.3 336.6,81.5 335.5,82.3 335.5,83.7 332.8,84.6 331.7,86.3 328.4,89.7 
			324.6,91.4 319.6,92.8 316.8,94.7 312.8,95.6 309.4,97.1 305.5,97.8 302.5,99.3 298.7,99.6 295.3,100.5 292.7,100.4 290,101 
			288.2,100.5 285.8,100.9 285.7,99.9 284.9,99.6 285.1,98.3 284.9,97.1 286.8,96.1 286.6,93.2 289.5,92.3 291.5,90.6 294.8,89.5 
			298.7,88.4 302.2,87.9 305.5,86.1 309.3,85.4 312.9,83.7 316.4,83.3 320.1,81.9 325.6,79.4 329,78.6 330.9,78.8 333.5,78.5 
			334.5,79.2 		"/>
	</g>
	<path id="ciemniej" class="st5" d="M353.5,71.1c0-1,0-2-0.1-2.9c-10,2.8-27.2,6.3-49.5,6.3s-39-4.4-49.4-8
		c-0.2,1.6-0.3,3.1-0.3,4.7c0,27.4,22.2,49.6,49.6,49.6S353.5,98.6,353.5,71.1L353.5,71.1L353.5,71.1z"/>
</g>
<path class="st1" d="M201.9,107.6L236,34.8h8.7l-34.1,72.8H201.9L201.9,107.6z"/>
<g id="tagPlant">
	<path class="st2" d="M193.4,71.1c0,29.6-24,53.6-53.6,53.6s-53.6-23.9-53.6-53.6s24-53.6,53.6-53.6S193.4,41.5,193.4,71.1
		L193.4,71.1L193.4,71.1z"/>
	
		<linearGradient id="SVGID_00000092422602795245754950000011537709549494273415_" gradientUnits="userSpaceOnUse" x1="139.93" y1="154.9323" x2="139.93" y2="55.6123" gradientTransform="matrix(1 0 0 1 0 -34.1923)">
		<stop  offset="0" style="stop-color:#136B38"/>
		<stop  offset="3.000000e-02" style="stop-color:#186C38"/>
		<stop  offset="5.000000e-02" style="stop-color:#08723A"/>
		<stop  offset="7.000000e-02" style="stop-color:#107B3B"/>
		<stop  offset="8.000000e-02" style="stop-color:#13863B"/>
		<stop  offset="8.000000e-02" style="stop-color:#149138"/>
		<stop  offset="0.12" style="stop-color:#179238"/>
		<stop  offset="0.68" style="stop-color:#4DAE39"/>
		<stop  offset="1" style="stop-color:#70B74B"/>
	</linearGradient>
	<path style="fill:url(#SVGID_00000092422602795245754950000011537709549494273415_);" d="M189.6,71.1c0,27.4-22.2,49.6-49.6,49.6
		S90.3,98.6,90.3,71.1s22.1-49.7,49.5-49.7S189.5,43.6,189.6,71.1L189.6,71.1z"/>
	<path class="st20" d="M184.7,71.1c0,24.7-20.1,44.9-44.9,44.9S95.1,95.8,95.1,71.1s20.1-44.9,44.9-44.9S184.7,46.4,184.7,71.1z"/>
	<path id="leaf-2" class="st21" d="M139.8,51.2c-11.3,1.6-20.1,8.9-20.1,20c0,2.8,0.5,5.4,1.6,7.7c-2.1,1.5-5.1,3.2-6.7,3.8
		c-2.7,0.9-7.9,0.3-8,0.7s1.6,5.2,2.1,5.4c0.5,0.3,5.4,0.2,8-0.7c1.9-0.7,5.4-2.8,7.4-4.4c3.6,4.6,9.3,7.6,15.7,7.6
		c11.1,0,20-7,20-18.1c0-4.3,1-9.7,2.6-13c1.7-3.8,10.6-6.1,10.6-6.1C172.3,51.2,144.4,50.5,139.8,51.2L139.8,51.2L139.8,51.2z"/>
	<path id="darker-2-2" class="st15" d="M189.6,71.1c0-1,0-2-0.1-2.9c-10,2.8-27.2,6.3-49.5,6.3s-39-4.3-49.4-8
		c-0.2,1.6-0.3,3.1-0.3,4.7c0,27.4,22.2,49.6,49.6,49.6S189.6,98.6,189.6,71.1C189.6,71.1,189.6,71.1,189.6,71.1z"/>
</g>
</svg>
