<?xml version="1.0" encoding="utf-8"?>
<!-- Generator: Adobe Illustrator 26.3.1, SVG Export Plug-In . SVG Version: 6.00 Build 0)  -->
<svg version="1.1" id="Layer" xmlns="http://www.w3.org/2000/svg" xmlns:xlink="http://www.w3.org/1999/xlink" x="0px" y="0px"
	 viewBox="0 0 1173.5 141.7" style="enable-background:new 0 0 1173.5 141.7;" xml:space="preserve">
<style type="text/css">
	.st0{fill:#FFFFFF;fill-opacity:0;}
	.st1{fill:#020303;stroke:#030404;stroke-width:1.76;stroke-miterlimit:10;}
	.st2{fill:url(#obram_zolte_00000117641225483457559280000015236454731179476373_);}
	.st3{fill:url(#tlo_wew_00000176028982439771768280000011606588124849013915_);}
	.st4{fill:url(#obram_skosne_00000161605480359892767440000017982561831157940140_);}
	.st5{fill:url(#tlo_zew_00000111895468801539030200000008827986147164180918_);}
	.st6{fill:#010101;}
	.st7{fill:#FFFFFF;}
	.st8{fill:#030404;}
	.st9{fill:url(#SVGID_1_);}
	.st10{fill:url(#SVGID_00000102530530497747083390000010959878069976469127_);}
	.st11{opacity:8.000000e-02;fill:#030404;enable-background:new    ;}
	.st12{fill:#222222;}
	.st13{fill:#020303;}
</style>
<rect y="0" class="st0" width="1173.5" height="141.7"/>
<g id="mln">
	<polygon id="obram_czarne" class="st1" points="637.7,16.8 621.4,33.1 621.4,108.1 637.7,124.4 712.7,124.4 728.9,108.1 
		728.9,33.1 712.7,16.8 	"/>
	
		<linearGradient id="obram_zolte_00000011711135180688339440000014292711477892806026_" gradientUnits="userSpaceOnUse" x1="675.21" y1="137.2423" x2="675.21" y2="35.8623" gradientTransform="matrix(1 0 0 1 0 -15.9323)">
		<stop  offset="0.16" style="stop-color:#823A13"/>
		<stop  offset="0.18" style="stop-color:#985C1A"/>
		<stop  offset="0.22" style="stop-color:#AE7D22"/>
		<stop  offset="0.26" style="stop-color:#C39D26"/>
		<stop  offset="0.3" style="stop-color:#D6B92E"/>
		<stop  offset="0.35" style="stop-color:#E4CF36"/>
		<stop  offset="0.41" style="stop-color:#EFE036"/>
		<stop  offset="0.48" style="stop-color:#F6E947"/>
		<stop  offset="0.58" style="stop-color:#F8EA4E"/>
		<stop  offset="0.86" style="stop-color:#F6EA4D"/>
		<stop  offset="1" style="stop-color:#FCF4F9"/>
	</linearGradient>
	<polygon id="obram_zolte" style="fill:url(#obram_zolte_00000011711135180688339440000014292711477892806026_);" points="
		639.8,19.9 624.6,35.3 624.6,106 639.8,121.3 710.5,121.3 725.9,106 725.9,35.3 710.5,19.9 	"/>
	
		<linearGradient id="tlo_wew_00000179647813460073089480000012718826090189408687_" gradientUnits="userSpaceOnUse" x1="675.21" y1="30.4423" x2="675.21" y2="185.4023" gradientTransform="matrix(1 0 0 1 0 -15.9323)">
		<stop  offset="0.26" style="stop-color:#F6EA4D"/>
		<stop  offset="0.86" style="stop-color:#803813"/>
	</linearGradient>
	<polygon id="tlo_wew" style="fill:url(#tlo_wew_00000179647813460073089480000012718826090189408687_);" points="640.9,21.4 
		626,36.3 626,104.9 640.9,119.8 709.6,119.8 724.5,104.9 724.5,36.3 709.6,21.4 	"/>
	
		<linearGradient id="obram_skosne_00000108288086797593182740000016303602069074062767_" gradientUnits="userSpaceOnUse" x1="675.25" y1="135.8323" x2="675.25" y2="37.3523" gradientTransform="matrix(1 0 0 1 0 -15.9323)">
		<stop  offset="0.16" style="stop-color:#803813"/>
		<stop  offset="0.17" style="stop-color:#8C471E"/>
		<stop  offset="0.18" style="stop-color:#A26B3C"/>
		<stop  offset="0.2" style="stop-color:#B78954"/>
		<stop  offset="0.22" style="stop-color:#C7A468"/>
		<stop  offset="0.24" style="stop-color:#D7BB7A"/>
		<stop  offset="0.26" style="stop-color:#E2CC88"/>
		<stop  offset="0.3" style="stop-color:#EAD891"/>
		<stop  offset="0.34" style="stop-color:#EEDE97"/>
		<stop  offset="0.46" style="stop-color:#EFE097"/>
		<stop  offset="0.7" style="stop-color:#803813"/>
		<stop  offset="0.73" style="stop-color:#E6D234"/>
		<stop  offset="0.74" style="stop-color:#EBD948"/>
		<stop  offset="0.75" style="stop-color:#EEDE6D"/>
		<stop  offset="0.77" style="stop-color:#F0E28A"/>
		<stop  offset="0.79" style="stop-color:#F8EBAA"/>
		<stop  offset="0.8" style="stop-color:#F8EDBF"/>
		<stop  offset="0.83" style="stop-color:#FAF0CF"/>
		<stop  offset="0.85" style="stop-color:#FCF2DA"/>
		<stop  offset="0.89" style="stop-color:#FDF4E1"/>
		<stop  offset="0.99" style="stop-color:#FDF5E3"/>
	</linearGradient>
	<path id="obram_skosne" style="fill:url(#obram_skosne_00000108288086797593182740000016303602069074062767_);" d="M717.3,89.6
		c-2.7,0-4.9-2.2-4.9-4.9V56.6c0-2.7,2.2-4.9,4.9-4.9h7V36.3l-14.8-14.9h-15.4v7c0,2.7-2.2,4.9-4.9,4.9h-28.1
		c-2.7,0-4.9-2.2-4.9-4.9v-7h-15.3L626,36.3v15.4h7c2.7,0,4.9,2.2,4.9,4.9v28.1c0,2.7-2.2,4.9-4.9,4.9h-7V105l14.9,14.9h15.4v-7.1
		c0-2.7,2.2-4.9,4.9-4.9h28.1c2.7,0,4.9,2.2,4.9,4.9v7.1h15.4l14.9-14.9V89.6C724.5,89.6,717.3,89.6,717.3,89.6z"/>
	
		<linearGradient id="tlo_zew_00000157997029975182278930000001505908701487071163_" gradientUnits="userSpaceOnUse" x1="675.215" y1="51.7823" x2="675.215" y2="203.7623" gradientTransform="matrix(1 0 0 1 0 -15.9323)">
		<stop  offset="0.26" style="stop-color:#F6EA4D"/>
		<stop  offset="0.77" style="stop-color:#803813"/>
	</linearGradient>
	<path id="tlo_zew" style="fill:url(#tlo_zew_00000157997029975182278930000001505908701487071163_);" d="M717,91.3
		c-3.3,0-6.1-3.3-6.1-6.7V56.7c0-3.3,2.7-6.7,6.1-6.7h5.7V37.5l-14.5-14.4h-12.4v5.7c0,3.4-3.3,6.1-6.7,6.1h-27.9
		c-3.3,0-6.7-2.7-6.7-6.1v-5.7H642l-14.4,14.4V50h5.7c3.3,0,6.1,3.3,6.1,6.7v27.9c0,3.3-2.7,6.7-6.1,6.7h-5.7v12.5l14.4,14.4h12.5
		v-5.7c0-3.3,3.3-6.1,6.7-6.1H689c3.3,0,6.7,2.7,6.7,6.1v5.7h12.5l14.4-14.4V91.3H717L717,91.3z"/>
</g>
<path class="st6" d="M659.3,93.2v-7.5c2.9-3.9,5.7-7,8.3-9.3l3.9-3.4c2.8-2.5,5.1-4.9,6.9-7.3s2.7-4.9,2.7-7.6
	c0-2.4-0.8-4.2-2.3-5.5c-1.5-1.3-3.6-2-6.2-2c-3.5,0-7.5,1.2-12.1,3.5v-7c4.8-1.8,9.5-2.7,14-2.7c5,0,9,1.2,12.1,3.6
	s4.6,5.6,4.6,9.6c0,2.5-0.7,4.9-1.9,7.2c-1.3,2.2-4,5-8.1,8.3l-3.2,2.6c-1.4,1.1-3,2.6-4.6,4.4c-1.7,1.8-2.8,3.7-3.3,5.7h21v7.5
	L659.3,93.2L659.3,93.2z"/>
<path class="st7" d="M576.5,62V50.4H588V62H576.5z M576.5,93.2V81.6H588v11.5H576.5z"/>
<g id="tagEvent">
	<path class="st8" d="M554,70.7c0,29.6-24.1,53.7-53.7,53.7s-53.7-24.1-53.7-53.7s24.1-53.7,53.7-53.7C529.9,16.9,554,40.9,554,70.7
		z"/>
	
		<linearGradient id="SVGID_1_" gradientUnits="userSpaceOnUse" x1="500.335" y1="-12.2777" x2="500.335" y2="87.2923" gradientTransform="matrix(1 0 0 -1 0 108.1323)">
		<stop  offset="0" style="stop-color:#ED932B"/>
		<stop  offset="1" style="stop-color:#F6EA4D"/>
	</linearGradient>
	<path class="st9" d="M550.1,70.7c0,27.5-22.3,49.7-49.7,49.7s-49.7-22.3-49.7-49.7s22.2-49.8,49.7-49.8S550.1,43.1,550.1,70.7
		L550.1,70.7z"/>
	
		<linearGradient id="SVGID_00000024712614893180825680000008714561281219828866_" gradientUnits="userSpaceOnUse" x1="455.35" y1="86.6023" x2="545.22" y2="86.6023" gradientTransform="matrix(1 0 0 1 0 -15.9323)">
		<stop  offset="9.000000e-02" style="stop-color:#F6EA4D"/>
		<stop  offset="0.98" style="stop-color:#F6EA4D"/>
	</linearGradient>
	<path style="fill:url(#SVGID_00000024712614893180825680000008714561281219828866_);" d="M545.2,70.7c0,24.8-20.1,45-45,45
		s-44.9-20.2-44.9-45s20.1-45,45-45S545.2,45.8,545.2,70.7z"/>
	<path id="darker" class="st11" d="M550.1,70.7c0-1,0-2-0.1-2.9c-10,2.8-27.3,6.3-49.7,6.3s-39.1-4.4-49.6-8.1
		c-0.2,1.6-0.3,3.1-0.3,4.7c0,27.5,22.3,49.7,49.7,49.7S550.1,98.1,550.1,70.7L550.1,70.7z"/>
	<rect x="488.8" y="37.5" class="st12" width="22.6" height="36.7"/>
	<polygon class="st13" points="477.5,74.2 522.2,74.2 501,104 	"/>
</g>
</svg>
