<?xml version="1.0" encoding="utf-8"?>
<!-- Generator: Adobe Illustrator 26.3.1, SVG Export Plug-In . SVG Version: 6.00 Build 0)  -->
<svg version="1.1" id="Layer" xmlns="http://www.w3.org/2000/svg" xmlns:xlink="http://www.w3.org/1999/xlink" x="0px" y="0px"
	 viewBox="0 0 1173.5 141.7" style="enable-background:new 0 0 1173.5 141.7;" xml:space="preserve">
<style type="text/css">
	.st0{fill:#FFFFFF;fill-opacity:0;}
	.st1{fill:#030304;}
	.st2{fill:url(#SVGID_1_);}
	.st3{fill:url(#SVGID_00000043416513893242162110000011411965225403707289_);}
	.st4{opacity:8.000000e-02;fill:#030304;enable-background:new    ;}
	.st5{fill:#135829;}
	.st6{fill:#19291C;}
	.st7{fill:#FFFFFF;}
	.st8{fill:#030404;}
	.st9{fill:url(#SVGID_00000181049898821624642760000002061860164485520806_);}
	.st10{fill:#47AD3E;}
	.st11{fill:#20201E;}
	.st12{fill:url(#SVGID_00000048496920253741026490000014686104101222555529_);}
	.st13{fill:none;stroke:#20201E;stroke-width:0.89;stroke-miterlimit:10;}
	.st14{fill:none;stroke:#20201E;stroke-width:0.28;stroke-miterlimit:10;}
	
		.st15{fill:#E2181E;stroke:url(#SVGID_00000064343466327319191430000017251396739636625555_);stroke-width:0.89;stroke-miterlimit:10;}
	
		.st16{fill:#E2181E;stroke:url(#SVGID_00000026137031921084465770000005116838697936034448_);stroke-width:0.89;stroke-miterlimit:10;}
</style>
<rect y="0" class="st0" width="1173.5" height="141.7"/>
<g id="animal">
	<rect x="640.3" y="17.4" class="st1" width="108" height="108"/>
	
		<linearGradient id="SVGID_1_" gradientUnits="userSpaceOnUse" x1="-532.5119" y1="-1851.676" x2="-460.5497" y2="-1779.7137" gradientTransform="matrix(0.7071 -0.7071 -0.7071 -0.7071 -238.5048 -1563.5554)">
		<stop  offset="0" style="stop-color:#1F4D23"/>
		<stop  offset="0.43" style="stop-color:#4C6F30"/>
		<stop  offset="1" style="stop-color:#96AA46"/>
	</linearGradient>
	<rect x="643.4" y="20.5" class="st2" width="101.8" height="101.8"/>
	
		<radialGradient id="SVGID_00000057114248702479544510000010859733820003586984_" cx="694.28" cy="50.2923" r="45.95" gradientTransform="matrix(1 0 0 -1 0 121.7323)" gradientUnits="userSpaceOnUse">
		<stop  offset="0.25" style="stop-color:#96AA46"/>
		<stop  offset="1" style="stop-color:#3A7A31"/>
	</radialGradient>
	
		<rect x="648.3" y="25.5" style="fill:url(#SVGID_00000057114248702479544510000010859733820003586984_);" width="91.9" height="91.9"/>
	<path id="darker" class="st4" d="M745.2,122.3H643.4V66.5c0,0,32,4.9,50.8,4.9s50.9-4.9,50.9-4.9V122.3z"/>
	<path class="st5" d="M683.5,45.6c-0.3,0-2.8,0.3-4.2,2.4c-0.6,0.8-0.9,1.7-1,2.6c-0.3,1.9-1,5.4,0.3,9.6c0.7,2,1.5,4.4,3.7,6.1
		c0.7,0.5,2.1,1.5,3.9,1.3c2-0.2,3.2-1.7,3.6-2.2c1.7-2,1.7-4.3,1.8-6.8c0-1.2,0-4.9-1.9-8.8c-1.3-2.6-2.4-3.3-2.9-3.5
		C685.4,45.3,684,45.5,683.5,45.6L683.5,45.6L683.5,45.6z"/>
	<path class="st5" d="M707.4,44.1c-0.3-0.1-2.7-0.6-4.8,0.8c-0.8,0.5-1.4,1.2-1.9,2.1c-1,1.7-2.9,4.6-3,9.1c-0.1,2.2-0.2,4.7,1.4,7
		c0.5,0.7,1.5,2.1,3.2,2.5c1.9,0.5,3.6-0.4,4.2-0.8c2.2-1.3,3.2-3.5,4.2-5.8c0.4-1.1,1.7-4.6,1.3-8.9c-0.3-2.9-1.1-3.9-1.6-4.3
		C709.2,44.7,707.8,44.3,707.4,44.1L707.4,44.1L707.4,44.1z"/>
	<path class="st5" d="M667.3,59.5c-0.3,0.1-2.7,0.6-4,2.8c-0.5,0.9-0.7,1.7-0.8,2.7c-0.2,1.9-0.5,5.4,1.2,9.5
		c0.9,1.9,1.8,4.2,4.3,5.7c0.8,0.4,2.2,1.2,4,0.9c2-0.3,3-1.9,3.5-2.5c1.5-2.2,1.4-4.5,1.2-7c-0.1-1.2-0.4-4.8-2.8-8.6
		c-1.5-2.4-2.7-3-3.3-3.3C669.1,59.1,667.8,59.3,667.3,59.5L667.3,59.5L667.3,59.5L667.3,59.5z"/>
	<path class="st5" d="M721.9,57.4c-0.3-0.1-2.7-0.6-4.8,0.9c-0.8,0.6-1.3,1.3-1.8,2.2c-1,1.7-2.8,4.7-2.8,9.2c0,2.2-0.1,4.7,1.6,6.9
		c0.5,0.7,1.6,2.1,3.3,2.4c1.9,0.4,3.5-0.5,4.2-0.9c2.2-1.3,3.1-3.6,4-5.9c0.4-1.1,1.7-4.6,1-8.9c-0.3-2.9-1.2-3.9-1.7-4.3
		C723.7,57.8,722.3,57.5,721.9,57.4L721.9,57.4L721.9,57.4z"/>
	<path class="st6" d="M721.3,60.1c-0.2,0-2-0.4-3.5,0.7c-0.6,0.4-1,1-1.4,1.6c-0.7,1.3-2,3.5-2.1,6.8c0,1.6-0.1,3.5,1.2,5.2
		c0.3,0.5,1.1,1.6,2.4,1.8c1.5,0.3,2.7-0.4,3.1-0.6c1.7-1,2.2-2.6,2.9-4.4c0.3-0.9,1.2-3.5,0.8-6.7c-0.3-2.1-1-2.9-1.2-3.2
		C722.7,60.4,721.6,60.2,721.3,60.1L721.3,60.1L721.3,60.1z"/>
	<path class="st6" d="M706.7,47c-0.2-0.1-2-0.4-3.5,0.5c-0.6,0.4-1,0.9-1.4,1.6c-0.8,1.2-2.1,3.4-2.2,6.8c-0.1,1.6-0.2,3.5,1,5.2
		c0.3,0.5,1,1.6,2.3,1.9c1.5,0.3,2.7-0.3,3.1-0.5c1.7-1,2.3-2.5,3-4.2c0.3-0.9,1.3-3.4,1-6.6c-0.3-2.1-0.9-2.9-1.1-3.2
		C708,47.3,707.1,47.1,706.7,47L706.7,47L706.7,47z"/>
	<path class="st6" d="M683.8,48.5c-0.2,0-2,0.3-3.1,1.7c-0.4,0.6-0.6,1.2-0.8,1.9c-0.3,1.4-0.8,3.9,0.3,7.1c0.5,1.5,1,3.3,2.8,4.5
		c0.5,0.3,1.6,1,2.9,1c1.5-0.2,2.3-1.2,2.7-1.6c1.2-1.5,1.3-3.2,1.4-5c0-0.9,0-3.6-1.5-6.5c-1-1.9-1.8-2.4-2.2-2.6
		C685.2,48.3,684.2,48.4,683.8,48.5L683.8,48.5L683.8,48.5z"/>
	<path class="st6" d="M667.9,62c-0.2,0-2.1,0.4-3,2.2c-0.4,0.7-0.5,1.3-0.6,2.1c-0.2,1.5-0.4,4.2,1,7.3c0.6,1.5,1.4,3.3,3.3,4.3
		c0.6,0.3,1.7,1,3,0.7c1.5-0.3,2.3-1.5,2.6-1.9c1.1-1.7,1-3.5,1-5.4c-0.1-1-0.3-3.7-2.1-6.6c-1.1-1.9-2.1-2.3-2.5-2.5
		C669.3,61.7,668.2,61.9,667.9,62L667.9,62L667.9,62z"/>
	<path class="st5" d="M695,66.5c-1.2,0.1-2.5,0.1-4,0.9c-1.7,0.9-2.6,2.2-3.5,3.3c-0.8,1-0.7,1.1-1.8,2.9c-1,1.6-1.6,2.5-2.5,3.6
		c-1.1,1.3-2.2,2.1-4.2,3.6c-2.2,1.7-2.3,1.6-2.9,2.2c-1.5,1.7-1.8,3.6-2.1,4.9c-0.2,1.2-0.6,3.5,0.3,6.1c0.4,1.1,1.2,3.3,3.2,4.2
		c0.8,0.3,1.6,0.4,3.5,0.3c3.2-0.2,5.4-0.8,7.3-1.2c2.2-0.5,4.6-1,7.5-1.1c3.5-0.1,6.7,0.5,8.3,0.8c1.9,0.3,3.3,0.8,6,1
		c2.2,0.3,3.4,0.2,4.7-0.3c0.8-0.3,2.2-0.7,3.2-1.9c1.1-1.4,1.2-2.9,1.2-4.4c0.1-1,0.1-3.6-1.4-6.5c-0.6-1.3-1.1-1.9-3.1-4.3
		c-5.4-6.7-5.6-7.4-7.8-9.3c-1.3-1.1-2.6-2.2-4.6-3.2C701.3,67.7,698.6,66.4,695,66.5L695,66.5L695,66.5L695,66.5z"/>
	<path class="st6" d="M695.3,68.8c-1,0.1-2.2,0.1-3.5,0.8c-1.4,0.8-2.2,1.9-2.9,2.9c-0.7,0.9-0.6,1-1.6,2.6c-0.9,1.4-1.4,2.2-2.2,3
		c-1,1.1-1.9,1.8-3.6,3.1c-1.9,1.5-2,1.3-2.6,2c-1.3,1.5-2.4,3.7-2.7,4.8c-0.2,1-0.5,2.9,0.3,5.2c0.3,1,1,2.9,2.8,3.6
		c0.7,0.3,2.2-0.1,3.8-0.3c2.8-0.2,4.7-0.7,6.3-1c1.9-0.4,4-0.9,6.5-1c3-0.1,5.7,0.4,7.2,0.7c1.7,0.3,2.9,0.7,5.1,0.9
		c1.9,0.2,4.2,1,5.3,0.6c0.7-0.2,1.8-0.7,2.8-1.8c1-1.1,0.7-3.6,0.8-4.9c0.1-0.9-0.7-2.8-2.2-5.3c-0.7-1.2-1-1.7-2.7-3.7
		c-4.6-5.7-4.8-6.4-6.7-8c-1.1-1-2.2-1.9-4-2.8C700.7,69.7,698.3,68.6,695.3,68.8L695.3,68.8L695.3,68.8z"/>
</g>
<path class="st7" d="M585,63.6v-13h13v13H585z M585,98.7v-13h13v13H585z"/>
<g id="greenery">
	<polygon class="st8" points="485,141.3 424.1,106.1 424.1,35.9 485,0.7 545.8,35.9 545.8,106.1 	"/>
	
		<linearGradient id="SVGID_00000174595399543061195610000007163497240152749975_" gradientUnits="userSpaceOnUse" x1="484.97" y1="-5.6477" x2="484.97" y2="128.5223" gradientTransform="matrix(1 0 0 -1 0 132.4223)">
		<stop  offset="0" style="stop-color:#116A37"/>
		<stop  offset="0.15" style="stop-color:#0F9039"/>
		<stop  offset="0.62" style="stop-color:#28A138"/>
		<stop  offset="0.65" style="stop-color:#2EA43A"/>
		<stop  offset="0.84" style="stop-color:#4EAF45"/>
		<stop  offset="1" style="stop-color:#56B148"/>
	</linearGradient>
	<polygon style="fill:url(#SVGID_00000174595399543061195610000007163497240152749975_);" points="485,138.1 426.8,104.5 
		426.8,37.5 485,3.9 543.1,37.5 543.1,104.5 	"/>
	<polygon class="st10" points="485,133.3 431.1,102.1 431.1,39.9 485,8.7 538.9,39.9 538.9,102.1 	"/>
	<path class="st11" d="M493.5,112c-0.6,0.6-12.7-0.7-14.6,0c-1,1,1.6-3.4,1.6-5.8V62.8h9v44.1C489.5,109.3,494.1,111.5,493.5,112z"
		/>
	<path class="st11" d="M490.2,45.4c6.9,8.2,8,18.7,2.4,23.4c-5.6,4.7-15.6,1.8-22.6-6.4c-6.9-8.2-8-18.7-2.4-23.4
		S483.4,37.1,490.2,45.4L490.2,45.4z"/>
	<path class="st11" d="M483.4,61.7c0,6.2-7.1,11.1-15.9,11.1s-15.9-4.9-15.9-11.1s7.1-11.1,15.9-11.1S483.4,55.5,483.4,61.7z"/>
	<path class="st11" d="M510.1,47.2c2.3,10.8-2,21-9.7,22.6s-15.8-5.8-18-16.7c-2.3-10.8,2-21,9.7-22.6
		C499.7,28.8,507.8,36.3,510.1,47.2z"/>
	<path class="st11" d="M514.9,64.9c-1.5,5-8.6,7.4-16,5.4c-7.4-2.2-12.2-7.9-10.7-13c1.5-5,8.6-7.4,16-5.4
		C511.6,54,516.4,59.8,514.9,64.9z"/>
	<path class="st11" d="M508.6,70.1c-0.1,1.1-5.5,1.6-12.1,1.1c-6.6-0.5-12-1.7-11.9-2.8s5.5-1.6,12.1-1.1
		C503.4,67.8,508.7,69,508.6,70.1z"/>
</g>
<g id="oxIcon">
	
		<radialGradient id="SVGID_00000049935503930421735630000010165524058877421756_" cx="544.81" cy="95.0823" r="18.17" gradientTransform="matrix(1 0 0 -1 0 132.4223)" gradientUnits="userSpaceOnUse">
		<stop  offset="0" style="stop-color:#F6EE87"/>
		<stop  offset="0.78" style="stop-color:#F6EE87"/>
		<stop  offset="0.91" style="stop-color:#F6EE87"/>
		<stop  offset="0.91" style="stop-color:#F7EE88"/>
		<stop  offset="0.94" style="stop-color:#FAF4B7"/>
		<stop  offset="0.96" style="stop-color:#FDFADE"/>
		<stop  offset="0.97" style="stop-color:#FEFCF2"/>
		<stop  offset="0.99" style="stop-color:#FFFFFF"/>
		<stop  offset="1" style="stop-color:#FFFFFF"/>
	</radialGradient>
	<path style="fill:url(#SVGID_00000049935503930421735630000010165524058877421756_);" d="M563,37.3c0,10-8.2,18.2-18.2,18.2
		s-18.2-8.2-18.2-18.2s8.2-18.2,18.2-18.2C554.8,19.2,563,27.3,563,37.3z"/>
	<path class="st13" d="M563,37.3c0,10-8.2,18.2-18.2,18.2s-18.2-8.2-18.2-18.2s8.2-18.2,18.2-18.2S563,27.4,563,37.3z"/>
	<path class="st14" d="M560.9,37.3c0,8.9-7.2,16.1-16.1,16.1s-16.1-7.2-16.1-16.1s7.2-16,16.1-16S560.9,28.5,560.9,37.3z"/>
	
		<linearGradient id="SVGID_00000142884975427906145830000010570264377108361110_" gradientUnits="userSpaceOnUse" x1="546.2791" y1="87.6833" x2="535.949" y2="98.0333" gradientTransform="matrix(1 0 0 -1 0 132.4223)">
		<stop  offset="0" style="stop-color:#5E1613"/>
		<stop  offset="0.1" style="stop-color:#611912"/>
		<stop  offset="0.26" style="stop-color:#732C23"/>
		<stop  offset="0.48" style="stop-color:#924E45"/>
		<stop  offset="0.73" style="stop-color:#BF8981"/>
		<stop  offset="1" style="stop-color:#FBDEDE"/>
	</linearGradient>
	
		<path style="fill:#E2181E;stroke:url(#SVGID_00000142884975427906145830000010570264377108361110_);stroke-width:0.89;stroke-miterlimit:10;" d="
		M548,39.6c0,3.8-3.1,6.9-6.9,6.9s-6.9-3.1-6.9-6.9s3.1-6.9,6.9-6.9S548,35.8,548,39.6z"/>
	
		<linearGradient id="SVGID_00000092434218044252537150000008271167706912863891_" gradientUnits="userSpaceOnUse" x1="553.5966" y1="92.6108" x2="543.2853" y2="102.9519" gradientTransform="matrix(1 0 0 -1 0 132.4223)">
		<stop  offset="0" style="stop-color:#5E1613"/>
		<stop  offset="0.1" style="stop-color:#611912"/>
		<stop  offset="0.26" style="stop-color:#732C23"/>
		<stop  offset="0.48" style="stop-color:#924E45"/>
		<stop  offset="0.73" style="stop-color:#BF8981"/>
		<stop  offset="1" style="stop-color:#FBDEDE"/>
	</linearGradient>
	
		<path style="fill:#E2181E;stroke:url(#SVGID_00000092434218044252537150000008271167706912863891_);stroke-width:0.89;stroke-miterlimit:10;" d="
		M555.3,34.6c0,3.8-3.1,6.9-6.9,6.9s-6.9-3.1-6.9-6.9s3.1-6.9,6.9-6.9S555.3,30.9,555.3,34.6z"/>
</g>
</svg>
