<?xml version="1.0" encoding="utf-8"?>
<!-- Generator: Adobe Illustrator 26.3.1, SVG Export Plug-In . SVG Version: 6.00 Build 0)  -->
<svg version="1.1" id="Layer" xmlns="http://www.w3.org/2000/svg" xmlns:xlink="http://www.w3.org/1999/xlink" x="0px" y="0px"
	 viewBox="0 0 1173.5 141.7" style="enable-background:new 0 0 1173.5 141.7;" xml:space="preserve">
<style type="text/css">
	.st0{fill:none;}
	.st1{fill:#1F1F1E;}
	.st2{fill:#FFFFFF;fill-opacity:0;}
	.st3{fill:url(#external-border_00000049913815314537920370000006299573054341180338_);}
	.st4{fill:url(#internal-border_00000152250471007705098990000007399953579103959966_);}
	.st5{fill:url(#bg_00000173852901496596981840000010915393148231208328_);}
	.st6{opacity:0.1;fill:url(#bgPattern_00000119806731102224022430000011287462661573657496_);enable-background:new    ;}
	.st7{fill:#030304;}
	.st8{fill:url(#SVGID_1_);}
	.st9{fill:#946137;}
	.st10{fill:#342217;}
	.st11{opacity:0.15;fill:#030304;enable-background:new    ;}
	.st12{fill:#FFFFFF;}
	.st13{fill:url(#SVGID_00000147207983993400495520000004984699330439534254_);}
	.st14{fill:#515150;}
	.st15{opacity:0.64;fill:#030304;enable-background:new    ;}
	.st16{fill:none;stroke:#FFD80C;stroke-width:3.63;stroke-miterlimit:10;}
	.st17{fill:url(#SVGID_00000107585237029579875890000004712986439276489610_);}
</style>
<pattern  y="141.7" width="19.7" height="21.7" patternUnits="userSpaceOnUse" id="Nowy_wzorek_2" viewBox="0 -21.7 19.7 21.7" style="overflow:visible;">
	<g>
		<rect y="-21.7" class="st0" width="19.7" height="21.7"/>
		<g>
			<rect y="-21.7" class="st0" width="19.7" height="21.7"/>
			<g>
				<rect y="-21.7" class="st0" width="19.7" height="21.7"/>
				<g>
					<rect y="-21.7" class="st0" width="19.7" height="21.7"/>
					<g>
						<rect y="-21.7" class="st0" width="19.7" height="21.7"/>
						<g>
							<rect y="-21.7" class="st0" width="19.7" height="21.7"/>
							<g>
								<rect y="-21.7" class="st0" width="19.7" height="21.7"/>
								<path class="st1" d="M16.6-13c2.1,2.1,2.1,5.6,0,7.7l-1.2,1.2C13.3-2,9.8-2,7.6-4.1L3.1-8.7c-2.1-2.1-2.1-5.6,0-7.7l1.2-1.2
									c2.1-2.1,5.6-2.1,7.7,0L16.6-13z"/>
							</g>
						</g>
					</g>
				</g>
			</g>
		</g>
	</g>
</pattern>
<rect y="0" class="st2" width="1173.5" height="141.7"/>
<g id="prodBg">
	
		<linearGradient id="external-border_00000079456137594968918480000001749724784945361322_" gradientUnits="userSpaceOnUse" x1="793.9301" y1="149.3723" x2="684.9099" y2="40.3722" gradientTransform="matrix(1 0 0 1 0 -23.8823)">
		<stop  offset="0" style="stop-color:#9E9D9C"/>
		<stop  offset="0.54" style="stop-color:#010202"/>
		<stop  offset="1" style="stop-color:#9E9D9C"/>
	</linearGradient>
	
		<rect id="external-border" x="684.2" y="17.2" style="fill:url(#external-border_00000079456137594968918480000001749724784945361322_);" width="110.5" height="107.5"/>
	
		<linearGradient id="internal-border_00000095310267786451832020000002132552011792305083_" gradientUnits="userSpaceOnUse" x1="739.455" y1="145.7823" x2="739.455" y2="43.9523" gradientTransform="matrix(1 0 0 1 0 -23.8823)">
		<stop  offset="0" style="stop-color:#462C1B"/>
		<stop  offset="1" style="stop-color:#B18048"/>
	</linearGradient>
	
		<rect id="internal-border" x="687" y="20.1" style="fill:url(#internal-border_00000095310267786451832020000002132552011792305083_);" width="104.9" height="101.8"/>
	
		<linearGradient id="bg_00000093173616678070118280000009463511491451509428_" gradientUnits="userSpaceOnUse" x1="739.41" y1="143.2123" x2="739.41" y2="46.4323" gradientTransform="matrix(1 0 0 1 0 -23.8823)">
		<stop  offset="0" style="stop-color:#946137"/>
		<stop  offset="1" style="stop-color:#805127"/>
	</linearGradient>
	
		<rect id="bg" x="689.5" y="22.5" style="fill:url(#bg_00000093173616678070118280000009463511491451509428_);" width="99.9" height="96.8"/>
	
		<pattern  id="bgPattern_00000041280966116711514850000002543930933385203640_" xlink:href="#Nowy_wzorek_2" patternTransform="matrix(1 0 0 1 -393.03 32766.7227)">
	</pattern>
	
		<rect id="bgPattern" x="689.5" y="22.5" style="opacity:0.1;fill:url(#bgPattern_00000041280966116711514850000002543930933385203640_);enable-background:new    ;" width="99.9" height="96.8"/>
</g>
<g id="steel">
	<rect x="700" y="31.6" class="st7" width="78.9" height="78.9"/>
	
		<linearGradient id="SVGID_1_" gradientUnits="userSpaceOnUse" x1="-432.6579" y1="-1729.5127" x2="-380.1057" y2="-1676.9606" gradientTransform="matrix(0.7071 -0.7071 -0.7071 -0.7071 -177.5948 -1420.7355)">
		<stop  offset="0" style="stop-color:#462C1B"/>
		<stop  offset="5.000000e-02" style="stop-color:#58351A"/>
		<stop  offset="0.1" style="stop-color:#683F16"/>
		<stop  offset="0.32" style="stop-color:#77491F"/>
		<stop  offset="0.75" style="stop-color:#8D5B32"/>
		<stop  offset="1" style="stop-color:#946137"/>
	</linearGradient>
	<rect x="702.3" y="33.8" class="st8" width="74.3" height="74.3"/>
	<rect x="705.9" y="37.4" class="st9" width="67.1" height="67.1"/>
	<g>
		<path class="st10" d="M746.4,93.2L748,62l-3.8-0.4l-0.6-1.3h-2.9l-0.5,1.4l-4.4-0.2v-8.1h5.1l0.4,1.6l2.4,0.3l0.6-1.8h5.2l1,0.9
			l0.9-0.9h6.5l0.8,1.3l1.1-1.3l4.9,4l-0.3,2.8c0,0-2.7-2.5-4-2.5s-3.2-0.1-3.2-0.1l-2.7,4.4l-1.6,0.1l1.5,31.1L746.4,93.2
			L746.4,93.2z"/>
		<polygon class="st10" points="731.7,52 726.4,49.1 726.3,56.3 721.5,56.3 721.5,49.1 715.4,51.9 715.4,60.7 721,63.4 719.1,93.2 
			728.1,93.2 726.4,63.4 731.7,61 		"/>
	</g>
	<path id="darker" class="st11" d="M776.6,108.2h-74.3V67.4c0,0,23.4,3.6,37.1,3.6s37.2-3.6,37.2-3.6V108.2L776.6,108.2L776.6,108.2
		z"/>
</g>
<path class="st12" d="M643.6,62.1V51.4h10.7v10.7H643.6z M643.6,91.1V80.4h10.7v10.7H643.6z"/>
<g id="titan">
	<rect x="527.7" y="25.7" class="st7" width="90.6" height="90.6"/>
	
		<linearGradient id="SVGID_00000157996236873483448160000004026180619977941169_" gradientUnits="userSpaceOnUse" x1="-554.2661" y1="1758.334" x2="-493.9216" y2="1697.9894" gradientTransform="matrix(0.7071 -0.7071 0.7071 0.7071 -278.4445 -1521.5951)">
		<stop  offset="0" style="stop-color:#030304"/>
		<stop  offset="1" style="stop-color:#7A7879"/>
	</linearGradient>
	
		<rect x="530.3" y="28.3" style="fill:url(#SVGID_00000157996236873483448160000004026180619977941169_);" width="85.3" height="85.3"/>
	<rect x="534.4" y="32.5" class="st14" width="77.1" height="77.1"/>
	<path id="darker-2" class="st15" d="M615.6,113.7h-85.3V66.9c0,0,26.9,4.1,42.6,4.1s42.7-4.1,42.7-4.1L615.6,113.7L615.6,113.7
		L615.6,113.7z"/>
	<polygon class="st16" points="573.4,45.8 581.5,62.8 600.1,65.2 586.4,78 589.9,96.4 573.4,87.4 557,96.4 560.5,78 546.8,65.2 
		565.4,62.8 	"/>
</g>
<path class="st12" d="M479,103.2l30.4-64.9h7.8l-30.4,64.9H479z"/>
<g id="steel-2">
	<rect x="378.3" y="25.7" class="st7" width="90.6" height="90.6"/>
	
		<linearGradient id="SVGID_00000140722411457520838750000007310331391581867656_" gradientUnits="userSpaceOnUse" x1="-659.8654" y1="-1510.0975" x2="-599.5209" y2="-1449.7529" gradientTransform="matrix(0.7071 -0.7071 -0.7071 -0.7071 -177.5948 -1420.7355)">
		<stop  offset="0" style="stop-color:#462C1B"/>
		<stop  offset="5.000000e-02" style="stop-color:#58351A"/>
		<stop  offset="0.1" style="stop-color:#683F16"/>
		<stop  offset="0.32" style="stop-color:#77491F"/>
		<stop  offset="0.75" style="stop-color:#8D5B32"/>
		<stop  offset="1" style="stop-color:#946137"/>
	</linearGradient>
	
		<rect x="380.9" y="28.3" style="fill:url(#SVGID_00000140722411457520838750000007310331391581867656_);" width="85.3" height="85.3"/>
	<rect x="385.1" y="32.5" class="st9" width="77.1" height="77.1"/>
	<g>
		<path class="st10" d="M431.6,96.4l1.9-35.8l-4.4-0.5l-0.7-1.5h-3.3l-0.6,1.6l-5.1-0.2v-9.3h5.9l0.4,1.8l2.8,0.4l0.7-2.1h6l1.2,1
			l1-1h7.5l0.9,1.5l1.3-1.5l5.7,4.7l-0.4,3.2c0,0-3.1-2.9-4.6-2.9s-3.7-0.1-3.7-0.1l-3.1,5l-1.9,0.2l1.7,35.7L431.6,96.4L431.6,96.4
			L431.6,96.4z"/>
		<polygon class="st10" points="414.7,49.2 408.6,45.8 408.5,54.1 403,54.1 403,45.8 396,49 396,59.2 402.5,62.3 400.3,96.4 
			410.6,96.4 408.6,62.3 414.7,59.5 		"/>
	</g>
	<path id="darker-3" class="st11" d="M466.3,113.7H381V66.9c0,0,26.9,4.1,42.6,4.1s42.7-4.1,42.7-4.1L466.3,113.7L466.3,113.7
		L466.3,113.7z"/>
</g>
</svg>
