<?xml version="1.0" encoding="utf-8"?>
<!-- Generator: Adobe Illustrator 26.3.1, SVG Export Plug-In . SVG Version: 6.00 Build 0)  -->
<svg version="1.1" id="Layer" xmlns="http://www.w3.org/2000/svg" xmlns:xlink="http://www.w3.org/1999/xlink" x="0px" y="0px"
	 viewBox="0 0 1173.5 141.7" style="enable-background:new 0 0 1173.5 141.7;" xml:space="preserve">
<style type="text/css">
	.st0{fill:#FFFFFF;fill-opacity:0;}
	.st1{fill:#010202;stroke:#030304;stroke-width:1.76;stroke-miterlimit:10;}
	.st2{fill:url(#obram_zolte_00000091736687684997331860000010869408610435984000_);}
	.st3{fill:url(#tlo_wew_00000050621589749191965710000003529679012526413212_);}
	.st4{fill:url(#obram_skosne_00000075855544572194077240000002819134332504365953_);}
	.st5{fill:url(#tlo_zew_00000148655547528416489820000009814683229356689851_);}
	.st6{fill:#010101;}
	.st7{fill:#FFFFFF;}
	.st8{fill:url(#SVGID_1_);}
	.st9{fill:#F59C2A;}
	.st10{fill:none;stroke:#1E1E1C;stroke-width:3.95;stroke-miterlimit:10;}
</style>
<rect y="0" class="st0" width="1173.5" height="141.7"/>
<g id="mln">
	<polygon id="obram_czarne" class="st1" points="722.1,19.1 705.8,35.5 705.8,110.5 722.1,126.8 797.2,126.8 813.4,110.5 
		813.4,35.5 797.2,19.1 	"/>
	
		<linearGradient id="obram_zolte_00000173130829223439808080000013704964936021922468_" gradientUnits="userSpaceOnUse" x1="759.66" y1="142.5223" x2="759.66" y2="41.0723" gradientTransform="matrix(1 0 0 1 0 -18.8423)">
		<stop  offset="0.16" style="stop-color:#823A13"/>
		<stop  offset="0.18" style="stop-color:#985C1A"/>
		<stop  offset="0.22" style="stop-color:#AE7D22"/>
		<stop  offset="0.26" style="stop-color:#C39D26"/>
		<stop  offset="0.3" style="stop-color:#D6B92E"/>
		<stop  offset="0.35" style="stop-color:#E4CF36"/>
		<stop  offset="0.41" style="stop-color:#EFE036"/>
		<stop  offset="0.48" style="stop-color:#F6E947"/>
		<stop  offset="0.58" style="stop-color:#F8EA4E"/>
		<stop  offset="0.86" style="stop-color:#F6EA4D"/>
		<stop  offset="1" style="stop-color:#FCF4F9"/>
	</linearGradient>
	<polygon id="obram_zolte" style="fill:url(#obram_zolte_00000173130829223439808080000013704964936021922468_);" points="
		724.2,22.2 709,37.6 709,108.3 724.2,123.7 795,123.7 810.3,108.3 810.3,37.6 795,22.2 	"/>
	
		<linearGradient id="tlo_wew_00000001648605565181359750000007239929199214725008_" gradientUnits="userSpaceOnUse" x1="759.655" y1="35.6823" x2="759.655" y2="190.7523" gradientTransform="matrix(1 0 0 1 0 -18.8423)">
		<stop  offset="0.26" style="stop-color:#F6EA4D"/>
		<stop  offset="0.86" style="stop-color:#803813"/>
	</linearGradient>
	<polygon id="tlo_wew" style="fill:url(#tlo_wew_00000001648605565181359750000007239929199214725008_);" points="725.3,23.7 
		710.4,38.6 710.4,107.3 725.3,122.2 794,122.2 808.9,107.3 808.9,38.6 794,23.7 	"/>
	
		<linearGradient id="obram_skosne_00000129885026229176838520000015670250678038360973_" gradientUnits="userSpaceOnUse" x1="759.7" y1="141.1123" x2="759.7" y2="42.5523" gradientTransform="matrix(1 0 0 1 0 -18.8423)">
		<stop  offset="0.16" style="stop-color:#803813"/>
		<stop  offset="0.17" style="stop-color:#8C471E"/>
		<stop  offset="0.18" style="stop-color:#A26B3C"/>
		<stop  offset="0.2" style="stop-color:#B78954"/>
		<stop  offset="0.22" style="stop-color:#C7A468"/>
		<stop  offset="0.24" style="stop-color:#D7BB7A"/>
		<stop  offset="0.26" style="stop-color:#E2CC88"/>
		<stop  offset="0.3" style="stop-color:#EAD891"/>
		<stop  offset="0.34" style="stop-color:#EEDE97"/>
		<stop  offset="0.46" style="stop-color:#EFE097"/>
		<stop  offset="0.7" style="stop-color:#803813"/>
		<stop  offset="0.73" style="stop-color:#E6D234"/>
		<stop  offset="0.74" style="stop-color:#EBD948"/>
		<stop  offset="0.75" style="stop-color:#EEDE6D"/>
		<stop  offset="0.77" style="stop-color:#F0E28A"/>
		<stop  offset="0.79" style="stop-color:#F8EBAA"/>
		<stop  offset="0.8" style="stop-color:#F8EDBF"/>
		<stop  offset="0.83" style="stop-color:#FAF0CF"/>
		<stop  offset="0.85" style="stop-color:#FCF2DA"/>
		<stop  offset="0.89" style="stop-color:#FDF4E1"/>
		<stop  offset="0.99" style="stop-color:#FDF5E3"/>
	</linearGradient>
	<path id="obram_skosne" style="fill:url(#obram_skosne_00000129885026229176838520000015670250678038360973_);" d="M801.8,91.9
		c-2.7,0-4.9-2.2-4.9-4.9V58.9c0-2.7,2.2-4.9,4.9-4.9h7V38.6L794,23.7h-15.4v7.1c0,2.7-2.2,4.9-4.9,4.9h-28.1
		c-2.7,0-4.9-2.2-4.9-4.9v-7.1h-15.3l-14.9,14.9V54h7c2.7,0,4.9,2.2,4.9,4.9v28.1c0,2.7-2.2,4.9-4.9,4.9h-7v15.3l14.9,14.9h15.4
		v-7.1c0-2.7,2.2-4.9,4.9-4.9h28.1c2.7,0,4.9,2.2,4.9,4.9v7.1h15.4l14.9-14.9V91.9H801.8L801.8,91.9z"/>
	
		<linearGradient id="tlo_zew_00000128463056145526868590000005400202106017641893_" gradientUnits="userSpaceOnUse" x1="759.66" y1="57.0423" x2="759.66" y2="209.1323" gradientTransform="matrix(1 0 0 1 0 -18.8423)">
		<stop  offset="0.26" style="stop-color:#F6EA4D"/>
		<stop  offset="0.77" style="stop-color:#803813"/>
	</linearGradient>
	<path id="tlo_zew" style="fill:url(#tlo_zew_00000128463056145526868590000005400202106017641893_);" d="M801.5,93.6
		c-3.3,0-6.1-3.3-6.1-6.7V59c0-3.3,2.7-6.7,6.1-6.7h5.7V39.8l-14.5-14.4h-12.4v5.7c0,3.4-3.3,6.1-6.7,6.1h-27.9
		c-3.3,0-6.7-2.7-6.7-6.1v-5.7h-12.6l-14.4,14.4v12.5h5.7c3.3,0,6.1,3.3,6.1,6.7v27.9c0,3.3-2.7,6.7-6.1,6.7h-5.7v12.5l14.4,14.4
		H739v-5.7c0-3.3,3.3-6.1,6.7-6.1h27.8c3.3,0,6.7,2.7,6.7,6.1v5.7h12.5l14.4-14.4V93.6H801.5L801.5,93.6z"/>
</g>
<path class="st6" d="M745.1,95.7v-7.6c5,1.9,9.2,2.9,12.6,2.9c2.9,0,5.3-0.8,7.2-2.3s2.8-3.6,2.8-6.2c0-1.9-0.5-3.6-1.5-5.2
	s-2.4-2.8-4.3-3.6s-4.9-1.3-9-1.3h-3.1v-6.1l2.7,0c3.9,0,6.7-0.3,8.4-1.1c1.7-0.7,3-1.8,4-3.2s1.5-3,1.5-4.8c0-2-0.7-3.7-2.1-5
	c-1.4-1.3-3.5-1.9-6.5-1.9c-3.7,0-7.7,1-11.9,2.9v-7c2.1-0.7,3.8-1.2,5.1-1.5s2.7-0.4,4.4-0.6c1.7-0.2,3.3-0.2,4.8-0.2
	c5.3,0,9.5,1.1,12.4,3.3s4.3,5.2,4.3,8.9c0,3-0.9,5.6-2.8,7.7c-1.9,2.1-4.7,3.8-8.5,5c3.3,0.8,5.8,1.8,7.5,3.2
	c1.7,1.3,3.1,2.9,4,4.8s1.4,3.8,1.4,5.9c0,3.9-1.5,7.3-4.6,10.3c-3,3-8,4.5-14.8,4.5c-1.8,0-3.7-0.1-5.7-0.2
	C751.4,97.1,748.6,96.7,745.1,95.7L745.1,95.7L745.1,95.7z"/>
<path class="st7" d="M660.9,68.5V58.5H671v10.1H660.9z M660.9,95.8V85.8H671v10.1H660.9z"/>
<g>
	
		<linearGradient id="SVGID_1_" gradientUnits="userSpaceOnUse" x1="491.02" y1="12.9523" x2="491.02" y2="120.5523" gradientTransform="matrix(1 0 0 -1 0 139.7223)">
		<stop  offset="0" style="stop-color:#B54824"/>
		<stop  offset="1" style="stop-color:#FFD664"/>
	</linearGradient>
	<path class="st8" d="M588.3,126.8H396.7c-29.7,0-38-24.1-38-53.8l0,0c0-29.7,8.3-53.8,38-53.8h191.6c29.7,0,35,24.1,35,53.8l0,0
		C623.3,102.7,618,126.8,588.3,126.8C588.3,126.8,588.3,126.8,588.3,126.8z"/>
	<path class="st9" d="M585.4,118.6H400.2C375,118.6,368,98.1,368,73l0,0c0-25.2,7-45.6,32.2-45.6h185.2c25.2,0,28.1,20.4,28.1,45.6
		l0,0C613.5,98.2,610.6,118.6,585.4,118.6z"/>
	<path class="st10" d="M588.3,126.8H396.7c-29.7,0-38-24.1-38-53.8l0,0c0-29.7,8.3-53.8,38-53.8h191.6c29.7,0,35,24.1,35,53.8l0,0
		C623.3,102.7,618,126.8,588.3,126.8C588.3,126.8,588.3,126.8,588.3,126.8z"/>
	<g>
		<path class="st6" d="M405.8,65.8v-4.9c2.2,0.9,3.9,1.5,5,1.7c1.1,0.2,2.1,0.3,3,0.3c1.6,0,2.9-0.4,3.7-1.1s1.2-1.6,1.2-2.7
			c0-0.8-0.2-1.5-0.7-2.1c-0.5-0.6-1.6-1.4-3.4-2.4l-1.9-1c-2.7-1.5-4.6-2.9-5.5-4.2c-1-1.3-1.5-2.8-1.5-4.5c0-2.1,0.8-4,2.4-5.5
			s4-2.3,7-2.3c2.3,0,4.9,0.3,7.7,1v4.5c-2.9-1.1-5.2-1.6-7-1.6c-1.4,0-2.5,0.3-3.2,0.9s-1.1,1.4-1.1,2.2c0,0.7,0.2,1.3,0.7,1.8
			c0.4,0.6,1.5,1.4,3.3,2.4l2,1.1c3.1,1.8,5.1,3.3,6,4.5c0.9,1.3,1.3,2.8,1.3,4.4c0,2.3-0.9,4.3-2.6,5.9c-1.8,1.7-4.6,2.5-8.4,2.5
			C411.4,66.7,408.8,66.4,405.8,65.8L405.8,65.8L405.8,65.8z"/>
		<path class="st6" d="M440.5,65.9c-1.4,0.4-2.4,0.6-3.2,0.6c-1.8,0-3.3-0.3-4.3-0.8s-1.8-1.2-2.3-2.1c-0.5-0.9-0.8-2.2-0.8-4v-11
			h-2.4V45h2.4v-3.5l5.6-0.7V45h4.5v3.5h-4.5v10.3c0,1.5,0.3,2.5,0.8,3.1c0.5,0.5,1.3,0.8,2.4,0.8c0.5,0,1.1-0.1,1.7-0.2L440.5,65.9
			L440.5,65.9L440.5,65.9z"/>
		<path class="st6" d="M455.8,63.8c-0.8,0.8-1.5,1.4-2.1,1.7s-1.2,0.6-1.9,0.8s-1.3,0.3-2.1,0.3c-1.9,0-3.4-0.6-4.5-1.8
			s-1.7-2.6-1.7-4.3c0-2.1,0.9-3.8,2.5-5.2s4.4-2.1,8.2-2.1h1.5v-1.9c0-1.3-0.4-2.2-1.1-2.6c-0.7-0.5-1.6-0.7-2.7-0.7
			c-2.2,0-4.4,0.6-6.6,1.9V46c2.6-1,5.1-1.5,7.6-1.5c1.6,0,2.9,0.2,4.2,0.6s2.2,1.1,2.9,2c0.7,0.9,1.1,2.2,1.1,4v9.3
			c0,1.1,0.2,1.8,0.5,2.1s0.7,0.4,1,0.4c0.2,0,0.5,0,0.8-0.1l0.1,3.2c-1.2,0.4-2.3,0.5-3.2,0.5c-1,0-2-0.2-2.7-0.5
			c-0.8-0.3-1.3-1.1-1.8-2.2L455.8,63.8L455.8,63.8z M455.8,60.8v-4.3h-1.3c-1.8,0-3.2,0.3-4.1,1c-0.9,0.7-1.4,1.5-1.4,2.5
			c0,0.8,0.3,1.5,0.8,2c0.5,0.5,1.2,0.8,1.9,0.8c0.7,0,1.3-0.2,2-0.5S455.1,61.4,455.8,60.8L455.8,60.8L455.8,60.8z"/>
		<path class="st6" d="M468.6,66V45h5.6v4c1-1.6,2.1-2.8,3.4-3.4c1.2-0.7,2.5-1,3.8-1c1.6,0,3.1,0.5,4.3,1.6s1.8,2.7,1.8,5V66h-5.6
			V52.6c0-1.2-0.1-1.9-0.3-2.3s-0.5-0.7-0.9-0.9s-0.8-0.3-1.2-0.3c-0.8,0-1.6,0.3-2.4,0.8c-0.8,0.5-1.8,1.5-2.7,3V66L468.6,66
			L468.6,66z"/>
		<path class="st6" d="M507.3,66v-4c-0.7,1.5-1.6,2.6-2.8,3.3s-2.5,1.1-4,1.1c-2.5,0-4.5-0.9-5.9-2.9c-1.4-1.9-2.1-4.4-2.1-7.5
			c0-3.3,0.8-6,2.3-8.2s3.7-3.3,6.5-3.3c0.8,0,1.5,0.1,2.1,0.2c0.6,0.2,1.2,0.4,1.8,0.7c0.6,0.3,1.2,0.9,2,1.6V35.8h5.6V66L507.3,66
			L507.3,66z M507.3,50.5c-0.8-0.9-1.5-1.5-2.2-1.8s-1.4-0.5-2.1-0.5c-1.5,0-2.6,0.7-3.4,2.2s-1.1,3.2-1.1,5.2s0.3,3.5,1,4.7
			c0.7,1.2,1.7,1.8,3,1.8c0.8,0,1.7-0.3,2.5-0.9s1.6-1.4,2.2-2.3L507.3,50.5L507.3,50.5L507.3,50.5z"/>
		<path class="st6" d="M530.5,63.8c-0.8,0.8-1.5,1.4-2.1,1.7s-1.2,0.6-1.9,0.8s-1.3,0.3-2.1,0.3c-1.9,0-3.4-0.6-4.5-1.8
			s-1.7-2.6-1.7-4.3c0-2.1,0.8-3.8,2.5-5.2s4.4-2.1,8.2-2.1h1.5v-1.9c0-1.3-0.4-2.2-1.1-2.6c-0.7-0.5-1.6-0.7-2.7-0.7
			c-2.2,0-4.4,0.6-6.6,1.9V46c2.6-1,5.1-1.5,7.6-1.5c1.6,0,2.9,0.2,4.2,0.6s2.2,1.1,2.9,2s1.1,2.2,1.1,4v9.3c0,1.1,0.2,1.8,0.5,2.1
			s0.7,0.4,1,0.4c0.2,0,0.5,0,0.8-0.1l0.1,3.2c-1.2,0.4-2.3,0.5-3.2,0.5c-1,0-2-0.2-2.7-0.5c-0.8-0.3-1.3-1.1-1.8-2.2L530.5,63.8
			L530.5,63.8z M530.5,60.8v-4.3h-1.3c-1.8,0-3.2,0.3-4.1,1s-1.4,1.5-1.4,2.5c0,0.8,0.3,1.5,0.8,2s1.2,0.8,1.9,0.8
			c0.7,0,1.3-0.2,2-0.5S529.8,61.4,530.5,60.8L530.5,60.8L530.5,60.8z"/>
		<path class="st6" d="M543.2,66V45h5.7v4c0.7-1.3,1.6-2.4,2.8-3.2s2.5-1.2,3.9-1.2c0.3,0,0.7,0,1,0.1v5c-0.8-0.3-1.5-0.4-2.2-0.4
			c-1.1,0-2.1,0.3-3.1,0.8s-1.7,1.4-2.4,2.6V66L543.2,66L543.2,66z"/>
		<path class="st6" d="M574,66v-4c-0.7,1.5-1.6,2.6-2.8,3.3s-2.5,1.1-4,1.1c-2.5,0-4.5-0.9-5.9-2.9c-1.4-1.9-2.1-4.4-2.1-7.5
			c0-3.3,0.8-6,2.3-8.2c1.6-2.2,3.7-3.3,6.5-3.3c0.8,0,1.5,0.1,2.1,0.2s1.2,0.4,1.8,0.7c0.6,0.3,1.2,0.9,2,1.6V35.8h5.7V66L574,66
			L574,66z M574,50.5c-0.8-0.9-1.5-1.5-2.2-1.8s-1.4-0.5-2.1-0.5c-1.5,0-2.6,0.7-3.3,2.2s-1.1,3.2-1.1,5.2s0.3,3.5,1,4.7
			s1.7,1.8,3,1.8c0.8,0,1.7-0.3,2.5-0.9s1.6-1.4,2.2-2.3L574,50.5L574,50.5L574,50.5z"/>
	</g>
	<g>
		<path class="st6" d="M417.7,112.3V83.8h5.6v4c0.7-1.5,1.6-2.6,2.8-3.3s2.5-1.1,4-1.1c2.5,0,4.5,1,5.9,2.9s2.1,4.4,2.1,7.5
			c0,3.3-0.8,6-2.3,8.2c-1.6,2.2-3.7,3.3-6.5,3.3c-0.7,0-1.4-0.1-2.1-0.2c-0.6-0.2-1.2-0.4-1.8-0.7s-1.2-0.9-2-1.6v9.7L417.7,112.3
			L417.7,112.3z M423.4,99.3c0.8,0.9,1.5,1.5,2.2,1.8s1.4,0.5,2.1,0.5c1.5,0,2.6-0.8,3.4-2.2c0.7-1.5,1.1-3.2,1.1-5.1
			s-0.4-3.6-1-4.7s-1.7-1.7-3-1.7c-0.8,0-1.6,0.3-2.4,0.9c-0.8,0.6-1.6,1.4-2.3,2.4L423.4,99.3L423.4,99.3L423.4,99.3z"/>
		<path class="st6" d="M443.6,104.8v-21h5.6v3.9c0.7-1.3,1.6-2.4,2.8-3.2s2.5-1.2,3.9-1.2c0.3,0,0.7,0,1,0.1v5.1
			c-0.8-0.3-1.5-0.4-2.2-0.4c-1.1,0-2.1,0.3-3.1,0.8s-1.7,1.4-2.4,2.6v13.3L443.6,104.8L443.6,104.8z"/>
		<path class="st6" d="M470.4,105.2c-2.3,0-4.2-0.4-5.8-1.3s-2.9-2.2-3.7-3.9s-1.3-3.6-1.3-5.7s0.4-4,1.3-5.7s2.1-3,3.7-3.9
			s3.6-1.3,5.9-1.3s4.2,0.4,5.9,1.3c1.6,0.9,2.9,2.2,3.7,3.9s1.3,3.6,1.3,5.7s-0.4,4-1.3,5.7s-2.1,3-3.7,3.9
			S472.7,105.2,470.4,105.2L470.4,105.2L470.4,105.2z M470.4,101.7c1.6,0,2.8-0.7,3.6-2.1s1.2-3.2,1.2-5.3s-0.4-3.9-1.2-5.3
			s-2-2.1-3.6-2.1s-2.8,0.7-3.6,2.1c-0.8,1.4-1.2,3.2-1.2,5.3s0.4,3.9,1.2,5.3C467.6,101,468.8,101.7,470.4,101.7z"/>
		<path class="st6" d="M479.5,111.9v-3.8c1.6,0.8,3.1,1.2,4.2,1.2c0.8,0,1.5-0.3,2.1-0.8s0.9-1.7,0.9-3.7v-21h5.6v20.6
			c0,2.2-0.3,3.9-0.9,4.9c-0.6,1.1-1.5,1.9-2.6,2.5c-1.1,0.6-2.7,0.9-4.7,0.9C482.9,112.8,481.3,112.5,479.5,111.9L479.5,111.9
			L479.5,111.9z M486.7,80.2v-4.7h5.6v4.7H486.7z"/>
		<path class="st6" d="M516.5,104.1c-2.7,0.8-5.2,1.2-7.6,1.2s-4.2-0.4-6-1.3c-1.7-0.8-3-2.2-3.9-4s-1.4-3.8-1.4-5.9
			c0-2,0.4-3.8,1.2-5.4c0.8-1.7,1.9-3,3.4-3.9s3.3-1.4,5.5-1.4c2.7,0,4.8,0.8,6.4,2.6c1.6,1.7,2.4,4.9,2.4,9.5h-12.9
			c0.1,1.4,0.5,2.5,1,3.3c0.5,0.8,1.2,1.5,2.1,1.9s2,0.7,3.5,0.7c1.9,0,4-0.4,6.4-1.3L516.5,104.1L516.5,104.1L516.5,104.1z
			 M503.5,92.2h7.4c0-1.9-0.3-3.3-1-4.1c-0.6-0.8-1.5-1.2-2.5-1.2c-1.1,0-2,0.5-2.7,1.4S503.6,90.5,503.5,92.2L503.5,92.2
			L503.5,92.2z"/>
		<path class="st6" d="M537.7,104.3c-2.3,0.6-4.5,0.9-6.5,0.9c-3.5,0-6.2-1.1-8-3.2c-1.8-2.1-2.7-4.7-2.7-7.8c0-3.2,0.9-5.9,2.8-7.9
			c1.9-2,4.7-3.1,8.3-3.1c1.7,0,3.6,0.3,5.8,0.8v4.1c-2.3-0.8-4.1-1.1-5.4-1.1c-1.9,0-3.3,0.7-4.2,2.2s-1.3,3.1-1.3,4.9
			c0,1.4,0.3,2.7,0.8,3.8s1.2,2.1,2.2,2.6c0.9,0.6,2,0.8,3.1,0.8c1.7,0,3.4-0.4,5.1-1.1L537.7,104.3L537.7,104.3L537.7,104.3z"/>
		<path class="st6" d="M554,104.7c-1.3,0.4-2.4,0.6-3.2,0.6c-1.8,0-3.3-0.3-4.3-0.8c-1-0.5-1.8-1.2-2.3-2.1c-0.5-0.9-0.8-2.2-0.8-4
			v-11h-2.3v-3.5h2.3v-3.5l5.7-0.7v4.2h4.5v3.5h-4.5v10.3c0,1.5,0.3,2.5,0.8,3.1s1.3,0.8,2.3,0.8c0.5,0,1.1-0.1,1.7-0.2L554,104.7
			L554,104.7L554,104.7z"/>
		<path class="st6" d="M558.5,104.1V100c2.8,1.2,5.2,1.8,7.2,1.8c1,0,1.9-0.2,2.5-0.7s0.9-1,0.9-1.7c0-0.6-0.2-1.1-0.7-1.5
			c-0.5-0.4-1.2-0.8-2.2-1.2l-1.9-0.8c-2-0.8-3.4-1.7-4.4-2.6c-0.9-0.9-1.4-2.2-1.4-3.7c0-1.8,0.7-3.3,2.1-4.5s3.6-1.8,6.5-1.8
			c1.7,0,3.7,0.2,6.1,0.7v4c-2.3-0.8-4.1-1.2-5.6-1.2c-1.2,0-2,0.2-2.6,0.6c-0.6,0.4-0.9,0.9-0.9,1.6c0,0.5,0.2,0.9,0.6,1.3
			c0.4,0.4,1,0.8,2,1.1l1.7,0.6c2.7,1,4.5,2,5.3,3c0.8,1,1.2,2.2,1.2,3.5c0,1.8-0.8,3.3-2.3,4.7c-1.5,1.3-3.7,2-6.6,2
			C563.6,105.2,561.1,104.9,558.5,104.1L558.5,104.1L558.5,104.1L558.5,104.1z"/>
	</g>
</g>
</svg>
