<?xml version="1.0" encoding="utf-8"?>
<!-- Generator: Adobe Illustrator 26.3.1, SVG Export Plug-In . SVG Version: 6.00 Build 0)  -->
<svg version="1.1" id="Layer" xmlns="http://www.w3.org/2000/svg" xmlns:xlink="http://www.w3.org/1999/xlink" x="0px" y="0px"
	 viewBox="0 0 1173.5 141.7" style="enable-background:new 0 0 1173.5 141.7;" xml:space="preserve">
<style type="text/css">
	.st0{fill:#FFFFFF;fill-opacity:0;}
	.st1{fill:#010202;stroke:#030304;stroke-width:1.76;stroke-miterlimit:10;}
	.st2{fill:url(#obram_zolte_00000010989124303824082580000009506904798340818843_);}
	.st3{fill:url(#tlo_wew_00000171702637401625620860000008761337780829499785_);}
	.st4{fill:url(#obram_skosne_00000066495980446307419310000017518575549133460100_);}
	.st5{fill:url(#tlo_zew_00000155825352483673687730000013695172188230907531_);}
	.st6{fill:#010101;}
	.st7{fill:#FFFFFF;}
</style>
<rect y="0" class="st0" width="1173.5" height="141.7"/>
<g id="mln">
	<polygon id="obram_czarne" class="st1" points="568.8,18.7 552.5,35 552.5,110.1 568.8,126.4 643.9,126.4 660.2,110.1 660.2,35 
		643.9,18.7 	"/>
	
		<linearGradient id="obram_zolte_00000049925784830487279780000003060538836513706412_" gradientUnits="userSpaceOnUse" x1="606.37" y1="-21.5477" x2="606.37" y2="79.9723" gradientTransform="matrix(1 0 0 -1 0 101.7823)">
		<stop  offset="0.16" style="stop-color:#823A13"/>
		<stop  offset="0.18" style="stop-color:#985C1A"/>
		<stop  offset="0.22" style="stop-color:#AE7D22"/>
		<stop  offset="0.26" style="stop-color:#C39D26"/>
		<stop  offset="0.3" style="stop-color:#D6B92E"/>
		<stop  offset="0.35" style="stop-color:#E4CF36"/>
		<stop  offset="0.41" style="stop-color:#EFE036"/>
		<stop  offset="0.48" style="stop-color:#F6E947"/>
		<stop  offset="0.58" style="stop-color:#F8EA4E"/>
		<stop  offset="0.86" style="stop-color:#F6EA4D"/>
		<stop  offset="1" style="stop-color:#FCF4F9"/>
	</linearGradient>
	<polygon id="obram_zolte" style="fill:url(#obram_zolte_00000049925784830487279780000003060538836513706412_);" points="
		570.9,21.8 555.7,37.2 555.7,108 570.9,123.3 641.7,123.3 657.1,108 657.1,37.2 641.7,21.8 	"/>
	
		<linearGradient id="tlo_wew_00000014635979574960715150000011471346804403469982_" gradientUnits="userSpaceOnUse" x1="606.37" y1="85.3823" x2="606.37" y2="-69.7877" gradientTransform="matrix(1 0 0 -1 0 101.7823)">
		<stop  offset="0.26" style="stop-color:#F6EA4D"/>
		<stop  offset="0.86" style="stop-color:#803813"/>
	</linearGradient>
	<polygon id="tlo_wew" style="fill:url(#tlo_wew_00000014635979574960715150000011471346804403469982_);" points="572,23.3 
		557.1,38.2 557.1,106.9 572,121.8 640.8,121.8 655.7,106.9 655.7,38.2 640.8,23.3 	"/>
	
		<linearGradient id="obram_skosne_00000140014900615006010440000003881171390274801810_" gradientUnits="userSpaceOnUse" x1="606.435" y1="-20.1477" x2="606.435" y2="78.4623" gradientTransform="matrix(1 0 0 -1 0 101.7823)">
		<stop  offset="0.16" style="stop-color:#803813"/>
		<stop  offset="0.17" style="stop-color:#8C471E"/>
		<stop  offset="0.18" style="stop-color:#A26B3C"/>
		<stop  offset="0.2" style="stop-color:#B78954"/>
		<stop  offset="0.22" style="stop-color:#C7A468"/>
		<stop  offset="0.24" style="stop-color:#D7BB7A"/>
		<stop  offset="0.26" style="stop-color:#E2CC88"/>
		<stop  offset="0.3" style="stop-color:#EAD891"/>
		<stop  offset="0.34" style="stop-color:#EEDE97"/>
		<stop  offset="0.46" style="stop-color:#EFE097"/>
		<stop  offset="0.7" style="stop-color:#803813"/>
		<stop  offset="0.73" style="stop-color:#E6D234"/>
		<stop  offset="0.74" style="stop-color:#EBD948"/>
		<stop  offset="0.75" style="stop-color:#EEDE6D"/>
		<stop  offset="0.77" style="stop-color:#F0E28A"/>
		<stop  offset="0.79" style="stop-color:#F8EBAA"/>
		<stop  offset="0.8" style="stop-color:#F8EDBF"/>
		<stop  offset="0.83" style="stop-color:#FAF0CF"/>
		<stop  offset="0.85" style="stop-color:#FCF2DA"/>
		<stop  offset="0.89" style="stop-color:#FDF4E1"/>
		<stop  offset="0.99" style="stop-color:#FDF5E3"/>
	</linearGradient>
	<path id="obram_skosne" style="fill:url(#obram_skosne_00000140014900615006010440000003881171390274801810_);" d="M648.5,91.6
		c-2.7,0-4.9-2.2-4.9-4.9V58.5c0-2.7,2.2-4.9,4.9-4.9h7.1V38.2l-14.8-14.9h-15.4v7c0,2.7-2.2,4.9-4.9,4.9h-28.1
		c-2.7,0-4.9-2.2-4.9-4.9v-7.1H572l-14.9,14.9v15.4h7.1c2.7,0,4.9,2.2,4.9,4.9v28.1c0,2.7-2.2,4.9-4.9,4.9h-7.1V107l14.9,14.9h15.4
		v-7.1c0-2.7,2.2-4.9,4.9-4.9h28.1c2.7,0,4.9,2.2,4.9,4.9v7.1h15.4l14.9-14.9V91.6H648.5L648.5,91.6z"/>
	
		<linearGradient id="tlo_zew_00000042004398319913256400000017677224062946565514_" gradientUnits="userSpaceOnUse" x1="606.365" y1="64.0123" x2="606.365" y2="-88.1777" gradientTransform="matrix(1 0 0 -1 0 101.7823)">
		<stop  offset="0.26" style="stop-color:#F6EA4D"/>
		<stop  offset="0.77" style="stop-color:#803813"/>
	</linearGradient>
	<path id="tlo_zew" style="fill:url(#tlo_zew_00000042004398319913256400000017677224062946565514_);" d="M648.3,93.2
		c-3.3,0-6.1-3.3-6.1-6.7v-28c0-3.3,2.7-6.7,6.1-6.7h5.7V39.4L639.5,25h-12.4v5.7c0,3.4-3.3,6.1-6.7,6.1h-28c-3.3,0-6.7-2.7-6.7-6.1
		V25h-12.6l-14.4,14.4v12.5h5.7c3.3,0,6.1,3.3,6.1,6.7v28c0,3.3-2.7,6.7-6.1,6.7h-5.7v12.5l14.4,14.4h12.5v-5.7
		c0-3.3,3.3-6.1,6.7-6.1h27.9c3.3,0,6.7,2.7,6.7,6.1v5.7h12.5l14.4-14.4V93.2L648.3,93.2L648.3,93.2z"/>
</g>
<g>
	<path class="st6" d="M577.5,79v-6.2h14.8V79H577.5z"/>
	<path class="st6" d="M612.2,96.8V53.3h-6.6l-0.2-4.9L622,47v49.8H612.2L612.2,96.8z"/>
</g>
<path class="st7" d="M514.3,64.7V53.5h11.2v11.2H514.3z M514.3,94.9V83.8h11.2v11.2H514.3z"/>
</svg>
