<?xml version="1.0" encoding="utf-8"?>
<!-- Generator: Adobe Illustrator 26.3.1, SVG Export Plug-In . SVG Version: 6.00 Build 0)  -->
<svg version="1.1" id="Layer" xmlns="http://www.w3.org/2000/svg" xmlns:xlink="http://www.w3.org/1999/xlink" x="0px" y="0px"
	 viewBox="0 0 1173.5 141.7" style="enable-background:new 0 0 1173.5 141.7;" xml:space="preserve">
<style type="text/css">
	.st0{fill:#FFFFFF;fill-opacity:0;}
	.st1{opacity:0.5;fill:#E03D15;enable-background:new    ;}
	.st2{fill:url(#SVGID_1_);}
	.st3{fill:#CD141B;}
	.st4{fill:none;stroke:#010202;stroke-width:1.75;stroke-miterlimit:10;}
	.st5{fill:#030304;}
	.st6{fill:url(#SVGID_00000108277275617466519400000008320956436155698585_);}
	.st7{fill:#45AC3C;}
	.st8{fill:#1F1F1E;}
	.st9{fill:url(#SVGID_00000023991356505742121620000015806989044070189975_);}
	.st10{fill:none;stroke:#1F1F1E;stroke-width:0.9;stroke-miterlimit:10;}
	.st11{fill:none;stroke:#1F1F1E;stroke-width:0.28;stroke-miterlimit:10;}
	
		.st12{fill:#E2161C;stroke:url(#SVGID_00000172423799106331224030000012710472038684108954_);stroke-width:0.9;stroke-miterlimit:10;}
	
		.st13{fill:#E2161C;stroke:url(#SVGID_00000179640624004964092010000011379240380402668422_);stroke-width:0.9;stroke-miterlimit:10;}
	.st14{fill:url(#SVGID_00000183250502169164172080000001120235352097685685_);}
	.st15{fill:#48AD38;}
	.st16{fill:#0B572A;stroke:#1D4422;stroke-width:3.45;stroke-miterlimit:10;}
	.st17{opacity:5.000000e-02;fill:#030304;enable-background:new    ;}
	.st18{fill:#FFFFFF;}
</style>
<rect y="0" class="st0" width="1173.5" height="141.7"/>
<g id="arrow">
	<path class="st1" d="M654.9,72.5l-61.3-28.4l7.4,14.7h-69.1c0,0-2.1,6.7-2.1,13s2.1,11.6,2.1,11.6h70.5l-8.7,17.3
		C593.6,100.9,654.9,72.5,654.9,72.5z"/>
	
		<linearGradient id="SVGID_1_" gradientUnits="userSpaceOnUse" x1="590.605" y1="42.1123" x2="590.605" y2="88.2723" gradientTransform="matrix(1 0 0 -1 0 137.7323)">
		<stop  offset="0" style="stop-color:#542913"/>
		<stop  offset="0.45" style="stop-color:#542913;stop-opacity:0.7"/>
		<stop  offset="0.58" style="stop-color:#E03D15;stop-opacity:0.5"/>
		<stop  offset="1" style="stop-color:#E03D15;stop-opacity:0.5"/>
	</linearGradient>
	<path class="st2" d="M606.4,81.1h-72.7c-0.6-1.9-1.4-5.3-1.4-9.1c0-4,0.9-8.2,1.5-10.5H605l-6-12l49.9,23.1L599,95.6L606.4,81.1
		L606.4,81.1L606.4,81.1z"/>
	<path class="st3" d="M611.7,77.8h-75.5c-0.3-1.6-0.7-3.6-0.7-5.8c0-2.5,0.4-5.2,0.8-7.2h74l-4.2-8.3L641,72.6l-34.8,16.1
		L611.7,77.8L611.7,77.8L611.7,77.8L611.7,77.8z"/>
	<path class="st4" d="M606.4,81.1h-72.7c-0.6-1.9-1.4-5.3-1.4-9.1c0-4,0.9-8.2,1.5-10.5H605l-6-12l49.9,23.1L599,95.6L606.4,81.1
		L606.4,81.1L606.4,81.1z"/>
</g>
<g id="greenery">
	<polygon class="st5" points="758.2,141.5 697.1,106.2 697.1,35.8 758.2,0.4 819.3,35.8 819.3,106.2 	"/>
	
		<linearGradient id="SVGID_00000016074264134793146160000003842478802785003175_" gradientUnits="userSpaceOnUse" x1="758.1949" y1="143.1023" x2="758.1949" y2="8.4223" gradientTransform="matrix(1 0 0 1 0 -4.7723)">
		<stop  offset="0" style="stop-color:#0F6936"/>
		<stop  offset="0.15" style="stop-color:#0A9039"/>
		<stop  offset="0.62" style="stop-color:#28A138"/>
		<stop  offset="0.65" style="stop-color:#2DA33A"/>
		<stop  offset="0.84" style="stop-color:#4DAE44"/>
		<stop  offset="1" style="stop-color:#55B047"/>
	</linearGradient>
	<polygon style="fill:url(#SVGID_00000016074264134793146160000003842478802785003175_);" points="758.2,138.3 699.8,104.6 
		699.8,37.3 758.2,3.6 816.5,37.3 816.5,104.6 	"/>
	<polygon class="st7" points="758.2,133.5 704.1,102.2 704.1,39.8 758.2,8.5 812.3,39.8 812.3,102.2 	"/>
	<path class="st8" d="M766.8,112.2c-0.6,0.6-12.7-0.7-14.7,0c-1,1,1.6-3.4,1.6-5.8V62.8h9V107C762.8,109.5,767.3,111.6,766.8,112.2z
		"/>
	<path class="st8" d="M763.5,45.3c6.9,8.2,8,18.8,2.4,23.5c-5.6,4.7-15.7,1.8-22.7-6.4c-6.9-8.2-8-18.8-2.4-23.5
		S756.6,37,763.5,45.3z"/>
	<path class="st8" d="M756.6,61.7c0,6.2-7.1,11.1-15.9,11.1s-15.9-4.9-15.9-11.1s7.1-11.1,15.9-11.1S756.6,55.5,756.6,61.7z"/>
	<path class="st8" d="M783.4,47.1c2.3,10.9-2.1,21.1-9.7,22.7s-15.8-5.8-18.1-16.7c-2.3-10.9,2.1-21.1,9.7-22.7
		C773,28.6,781.1,36.2,783.4,47.1z"/>
	<path class="st8" d="M788.2,64.9c-1.5,5.1-8.6,7.4-16,5.4c-7.5-2.2-12.3-7.9-10.8-13.1c1.5-5,8.6-7.5,16-5.4
		C784.9,54,789.7,59.8,788.2,64.9z"/>
	<path class="st8" d="M781.9,70.1c-0.1,1.1-5.5,1.6-12.2,1.1c-6.6-0.5-12-1.7-11.9-2.9s5.5-1.6,12.2-1.1
		C776.6,67.7,782,69,781.9,70.1z"/>
</g>
<g id="oxIcon">
	
		<radialGradient id="SVGID_00000141452682939138691320000003852190214828450434_" cx="818.26" cy="41.9923" r="18.24" gradientTransform="matrix(1 0 0 1 0 -4.7723)" gradientUnits="userSpaceOnUse">
		<stop  offset="0" style="stop-color:#F6EE84"/>
		<stop  offset="0.78" style="stop-color:#F6EE84"/>
		<stop  offset="0.91" style="stop-color:#F6EE84"/>
		<stop  offset="0.91" style="stop-color:#F7EE87"/>
		<stop  offset="0.94" style="stop-color:#FAF4B7"/>
		<stop  offset="0.96" style="stop-color:#FDFADC"/>
		<stop  offset="0.97" style="stop-color:#FEFCF1"/>
		<stop  offset="0.99" style="stop-color:#FFFFFE"/>
		<stop  offset="1" style="stop-color:#FFFFFF"/>
	</radialGradient>
	<path style="fill:url(#SVGID_00000141452682939138691320000003852190214828450434_);" d="M836.5,37.2c0,10.1-8.2,18.2-18.2,18.2
		S800,47.3,800,37.2S808.2,19,818.3,19C828.3,19,836.5,27.2,836.5,37.2z"/>
	<path class="st10" d="M836.5,37.2c0,10.1-8.2,18.2-18.2,18.2S800,47.3,800,37.2S808.2,19,818.2,19S836.5,27.2,836.5,37.2z"/>
	<path class="st11" d="M834.4,37.2c0,8.9-7.2,16.1-16.1,16.1s-16.1-7.2-16.1-16.1s7.2-16.1,16.1-16.1S834.4,28.3,834.4,37.2z"/>
	
		<linearGradient id="SVGID_00000026879908818887246230000007029033950670406794_" gradientUnits="userSpaceOnUse" x1="819.7357" y1="49.413" x2="809.3757" y2="39.043" gradientTransform="matrix(1 0 0 1 0 -4.7723)">
		<stop  offset="0" style="stop-color:#5D1512"/>
		<stop  offset="0.1" style="stop-color:#611912"/>
		<stop  offset="0.26" style="stop-color:#732B23"/>
		<stop  offset="0.48" style="stop-color:#914D44"/>
		<stop  offset="0.73" style="stop-color:#BE8880"/>
		<stop  offset="1" style="stop-color:#FBDEDE"/>
	</linearGradient>
	
		<path style="fill:#E2161C;stroke:url(#SVGID_00000026879908818887246230000007029033950670406794_);stroke-width:0.9;stroke-miterlimit:10;" d="
		M821.4,39.5c0,3.8-3.1,6.9-6.9,6.9s-6.9-3.1-6.9-6.9s3.1-6.9,6.9-6.9S821.4,35.7,821.4,39.5z"/>
	
		<linearGradient id="SVGID_00000173151935392196855010000015105147064978658702_" gradientUnits="userSpaceOnUse" x1="827.0757" y1="44.463" x2="816.7043" y2="34.0816" gradientTransform="matrix(1 0 0 1 0 -4.7723)">
		<stop  offset="0" style="stop-color:#5D1512"/>
		<stop  offset="0.1" style="stop-color:#611912"/>
		<stop  offset="0.26" style="stop-color:#732B23"/>
		<stop  offset="0.48" style="stop-color:#914D44"/>
		<stop  offset="0.73" style="stop-color:#BE8880"/>
		<stop  offset="1" style="stop-color:#FBDEDE"/>
	</linearGradient>
	
		<path style="fill:#E2161C;stroke:url(#SVGID_00000173151935392196855010000015105147064978658702_);stroke-width:0.9;stroke-miterlimit:10;" d="
		M828.8,34.5c0,3.8-3.1,6.9-6.9,6.9s-6.9-3.1-6.9-6.9s3.1-6.9,6.9-6.9S828.8,30.7,828.8,34.5z"/>
</g>
<g id="plant">
	<rect x="390.7" y="18.1" class="st5" width="107.6" height="107.6"/>
	
		<linearGradient id="SVGID_00000046329666893491325280000004042883737970017455_" gradientUnits="userSpaceOnUse" x1="-445.5746" y1="1179.8782" x2="-373.9206" y2="1108.2341" gradientTransform="matrix(0.7071 -0.7071 0.7071 0.7071 -74.7645 -1026.8651)">
		<stop  offset="0" style="stop-color:#0F6936"/>
		<stop  offset="4.000000e-02" style="stop-color:#0F6C37"/>
		<stop  offset="8.000000e-02" style="stop-color:#077739"/>
		<stop  offset="0.13" style="stop-color:#108837"/>
		<stop  offset="0.15" style="stop-color:#0A9039"/>
		<stop  offset="0.35" style="stop-color:#36993D"/>
		<stop  offset="0.76" style="stop-color:#5FB048"/>
		<stop  offset="1" style="stop-color:#6FB74B"/>
	</linearGradient>
	
		<rect x="393.8" y="21.2" style="fill:url(#SVGID_00000046329666893491325280000004042883737970017455_);" width="101.3" height="101.3"/>
	<rect x="398.7" y="26.1" class="st15" width="91.5" height="91.5"/>
	<path id="leaf" class="st16" d="M444.4,48.7c-13.1,1.8-23.1,10.3-23.1,23.1c0,3.1,0.6,6.1,1.8,8.9c-2.4,1.7-5.9,3.8-7.7,4.4
		c-3,1-9.1,0.3-9.3,0.8s1.7,5.9,2.4,6.2s6.2,0.2,9.3-0.8c2.2-0.8,6.3-3.3,8.6-5.1c4.2,5.3,10.8,8.7,18.1,8.7c12.8,0,23-8,23-20.8
		c0-4.9,1.2-11.1,3-15c2-4.4,12.2-7.1,12.2-7.1C481.7,48.7,449.6,48,444.4,48.7L444.4,48.7z"/>
	<path id="darker" class="st17" d="M495.1,122.5H393.8V66.9c0,0,31.9,4.9,50.6,4.9s50.7-4.9,50.7-4.9V122.5L495.1,122.5z"/>
</g>
<path class="st18" d="M338.5,100.3c0.3-2.8,0.8-5.1,1.5-7.1s1.7-4.2,3.2-6.9s4.5-7.5,9.3-14.4l13.5-19.7h-29.8V43h39.2v9.3
	c-5.5,6.9-9.9,13.2-13.1,18.9s-5.9,10.9-7.9,15.8s-3,9.3-3,13.3L338.5,100.3L338.5,100.3z"/>
</svg>
