<?xml version="1.0" encoding="utf-8"?>
<!-- Generator: Adobe Illustrator 26.3.1, SVG Export Plug-In . SVG Version: 6.00 Build 0)  -->
<svg version="1.1" id="Layer" xmlns="http://www.w3.org/2000/svg" xmlns:xlink="http://www.w3.org/1999/xlink" x="0px" y="0px"
	 viewBox="0 0 1173.5 141.7" style="enable-background:new 0 0 1173.5 141.7;" xml:space="preserve">
<style type="text/css">
	.st0{fill:#FFFFFF;fill-opacity:0;}
	.st1{fill:#030404;}
	.st2{fill:url(#SVGID_1_);}
	.st3{fill:#96C227;}
	.st4{fill:#3D4920;}
	.st5{opacity:0.12;fill:#030404;enable-background:new    ;}
	.st6{fill:#FFFFFF;}
	.st7{fill:url(#SVGID_00000070838108529597822820000012696179613087301035_);}
	.st8{opacity:8.000000e-02;fill:#030404;enable-background:new    ;}
	.st9{fill:url(#SVGID_00000026864121647954321320000003861171251549702056_);}
	.st10{fill:#46AC36;}
	.st11{fill:#07562C;stroke:#1D4422;stroke-width:3.46;stroke-miterlimit:10;}
	.st12{opacity:5.000000e-02;fill:#030404;enable-background:new    ;}
	.st13{fill:url(#SVGID_00000060017381117370200800000016532700116426782373_);}
	.st14{fill:url(#SVGID_00000100378620211947720760000007621968938418374067_);}
	.st15{fill:#115729;}
	.st16{fill:#18291B;}
</style>
<rect y="0" class="st0" width="1173.5" height="141.7"/>
<g id="microbe">
	<rect x="777.5" y="17.2" class="st1" width="108" height="108"/>
	
		<linearGradient id="SVGID_1_" gradientUnits="userSpaceOnUse" x1="-26.0553" y1="1087.7634" x2="45.91" y2="1015.8082" gradientTransform="matrix(0.7071 -0.7071 0.7071 0.7071 80.7554 -665.4351)">
		<stop  offset="0" style="stop-color:#3D4920"/>
		<stop  offset="0.14" style="stop-color:#4B5E24"/>
		<stop  offset="0.42" style="stop-color:#69852B"/>
		<stop  offset="0.66" style="stop-color:#81A42C"/>
		<stop  offset="0.86" style="stop-color:#8FB923"/>
		<stop  offset="1" style="stop-color:#96C227"/>
	</linearGradient>
	<rect x="780.6" y="20.4" class="st2" width="101.8" height="101.8"/>
	<rect x="785.6" y="25.3" class="st3" width="91.9" height="91.9"/>
	<g id="microbes">
		<polygon class="st4" points="832.6,80.4 828.3,81 828.9,85.3 824.6,84.7 823.9,88.9 820,87 818,90.9 814.9,87.9 811.9,91 
			809.8,87.2 806,89.3 805.1,85.1 800.9,85.9 801.2,81.6 796.9,81.3 798.5,77.2 794.6,75.6 797.3,72.3 794,69.5 797.6,67.1 
			795.2,63.4 799.3,62.2 798.1,58.1 802.4,58.2 802.5,53.7 806.7,55.1 808,51 811.5,53.5 814,49.9 816.7,53.4 820.1,50.7 
			821.7,54.8 825.7,53.2 826,57.5 830.3,57.3 829.3,61.5 833.5,62.6 831.3,66.3 835,68.6 831.8,71.4 834.8,74.7 830.8,76.5 		"/>
		<polygon class="st4" points="869.9,63.1 868.5,63.6 868.5,65.5 866.3,64.8 864.8,66.2 862.6,64.7 860.4,65.3 854.1,66.1 
			851.4,65.9 848.6,60.7 845.5,59.7 842.9,56.9 840,55.5 837.6,52.7 834.8,51.3 833,48.1 830.6,46.1 829.6,43.7 827.9,41.8 
			827.7,39.8 826.3,38.1 827.5,36.8 827.6,34.8 828.9,34.8 830.1,33.6 831.9,34.3 834.8,31.6 837.1,33.2 839.7,33.4 842.3,35.3 
			845.3,36.1 846.9,40.4 850.2,41.7 852.5,44.4 855.5,46.2 857.5,48.9 860.5,50.9 865.3,53.4 867.7,55.7 868,57.6 869.6,59.5 
			869.1,61.1 		"/>
		<polygon class="st4" points="865.2,83.7 865.5,84.3 866.1,85.6 864.9,86.3 865,87.9 862,89 860.8,90.8 857.2,94.3 853.1,96.3 
			847.7,97.9 844.5,99.9 840.2,100.8 836.6,102.6 832.3,103.4 829,105 824.8,105.2 821.2,106.3 818.4,106.2 815.3,106.8 
			813.4,106.3 810.8,106.8 810.7,105.5 809.9,105.2 810.1,103.9 809.8,102.5 811.9,101.5 811.7,98.4 814.8,97.3 817,95.5 
			820.6,94.2 824.9,93.1 828.7,92.4 832.3,90.5 836.4,89.8 840.3,88 844.2,87.5 848.2,85.9 854.2,83.3 858,82.3 859.9,82.7 
			862.7,82.1 863.8,83.1 		"/>
	</g>
	<path id="darker" class="st5" d="M882.4,122.1H780.6V66.3c0,0,32,4.9,50.8,4.9s50.9-4.9,50.9-4.9L882.4,122.1L882.4,122.1z"/>
</g>
<path class="st6" d="M739.6,64.6V53.1h11.5v11.5H739.6z M739.6,95.8V84.3h11.5v11.5H739.6z"/>
<g id="tagMicrobe">
	<path class="st1" d="M721.7,71c0,29.6-24.1,53.7-53.7,53.7s-53.7-24.1-53.7-53.7s24.1-53.7,53.7-53.7S721.7,41.3,721.7,71z"/>
	
		<linearGradient id="SVGID_00000040546997341493467740000004417552991743966352_" gradientUnits="userSpaceOnUse" x1="668.03" y1="-13.9577" x2="668.03" y2="85.4623" gradientTransform="matrix(1 0 0 -1 0 106.7223)">
		<stop  offset="0" style="stop-color:#3D4920"/>
		<stop  offset="0.14" style="stop-color:#4D5E23"/>
		<stop  offset="0.42" style="stop-color:#69852B"/>
		<stop  offset="0.66" style="stop-color:#81A42C"/>
		<stop  offset="0.86" style="stop-color:#8FB923"/>
		<stop  offset="1" style="stop-color:#96C227"/>
	</linearGradient>
	<path style="fill:url(#SVGID_00000040546997341493467740000004417552991743966352_);" d="M717.7,71c0,27.4-22.3,49.7-49.7,49.7
		S618.3,98.4,618.3,71s22.3-49.7,49.7-49.7S717.7,43.5,717.7,71z"/>
	<path class="st3" d="M713,71c0,24.8-20.1,44.9-45,44.9s-45-20.1-45-44.9s20.1-45,45-45S713,46.2,713,71z"/>
	<g id="microbes-2">
		<polygon class="st4" points="669.9,76.6 666,77.1 666.6,81.1 662.6,80.5 662,84.4 658.3,82.7 656.6,86.2 653.7,83.4 650.9,86.4 
			649,82.8 645.4,84.8 644.7,80.8 640.8,81.7 641.1,77.7 637.1,77.4 638.6,73.7 634.9,72.2 637.5,69.1 634.3,66.6 637.7,64.3 
			635.5,61 639.4,59.9 638.2,56 642.2,56.1 642.2,52.1 646,53.3 647.3,49.5 650.5,51.8 652.9,48.5 655.3,51.7 658.5,49.2 659.9,53 
			663.6,51.6 663.9,55.5 667.9,55.3 666.9,59.2 670.8,60.1 668.7,63.6 672.2,65.7 669.2,68.4 671.9,71.3 668.3,73 		"/>
		<polygon class="st4" points="704.3,60.7 703,61.1 703,62.9 700.9,62.3 699.6,63.5 697.6,62.1 695.5,62.7 689.7,63.4 687.3,63.3 
			684.7,58.4 681.8,57.5 679.5,55 676.7,53.7 674.5,51 671.9,49.8 670.3,46.9 668,45 667.2,42.8 665.6,41.1 665.4,39.2 664.1,37.6 
			665.2,36.4 665.3,34.7 666.6,34.7 667.6,33.5 669.2,34.2 672,31.6 674.1,33.1 676.4,33.3 678.9,35 681.7,35.8 683.1,39.8 
			686.2,40.9 688.2,43.4 691.1,45.1 692.9,47.6 695.7,49.4 700.1,51.7 702.2,53.8 702.6,55.6 704,57.3 703.5,58.8 		"/>
		<polygon class="st4" points="699.9,79.6 700.2,80.2 700.8,81.4 699.6,82.1 699.7,83.4 697,84.5 695.9,86.2 692.5,89.5 688.8,91.2 
			683.8,92.7 680.9,94.5 677,95.4 673.6,96.9 669.7,97.7 666.6,99.2 662.8,99.4 659.5,100.4 656.9,100.3 654.1,100.9 652.3,100.4 
			649.9,100.8 649.8,99.7 649,99.4 649.2,98.2 649,96.9 650.9,96 650.7,93.1 653.7,92.2 655.6,90.5 658.9,89.3 662.8,88.3 
			666.3,87.7 669.7,85.9 673.5,85.2 677,83.6 680.6,83.2 684.3,81.7 689.8,79.3 693.2,78.4 695,78.7 697.7,78.2 698.7,79 		"/>
	</g>
	<path id="ciemniej" class="st8" d="M717.7,71c0-1,0-2-0.1-2.9c-10,2.8-27.3,6.3-49.6,6.3s-39.1-4.4-49.5-8.1
		c-0.2,1.6-0.3,3.1-0.3,4.7c0,27.4,22.3,49.7,49.7,49.7S717.7,98.4,717.7,71L717.7,71z"/>
</g>
<path class="st6" d="M564.6,107.4l34.1-72.9h8.8l-34.1,72.9H564.6z"/>
<g id="tagPlant">
	<path class="st1" d="M558.6,71c0,29.6-24.1,53.7-53.7,53.7s-53.7-24.1-53.7-53.7s24.1-53.7,53.7-53.7
		C534.5,17.3,558.6,41.3,558.6,71z"/>
	
		<linearGradient id="SVGID_00000098917583312948414220000007536240526802534819_" gradientUnits="userSpaceOnUse" x1="504.955" y1="119.6023" x2="504.955" y2="20.0923" gradientTransform="matrix(1 0 0 1 0 1.0777)">
		<stop  offset="0" style="stop-color:#0F6936"/>
		<stop  offset="3.000000e-02" style="stop-color:#126A36"/>
		<stop  offset="5.000000e-02" style="stop-color:#087038"/>
		<stop  offset="7.000000e-02" style="stop-color:#097939"/>
		<stop  offset="8.000000e-02" style="stop-color:#0B8439"/>
		<stop  offset="8.000000e-02" style="stop-color:#0A9039"/>
		<stop  offset="0.12" style="stop-color:#0F9039"/>
		<stop  offset="0.68" style="stop-color:#46AC36"/>
		<stop  offset="1" style="stop-color:#6EB74B"/>
	</linearGradient>
	<path style="fill:url(#SVGID_00000098917583312948414220000007536240526802534819_);" d="M554.7,71c0,27.4-22.3,49.7-49.7,49.7
		S455.2,98.4,455.2,71s22.2-49.8,49.6-49.8C532.3,21.2,554.7,43.4,554.7,71L554.7,71z"/>
	<path class="st10" d="M549.8,71c0,24.8-20.1,44.9-45,44.9S460,95.7,460,71s20.1-45,45-45C529.8,26,549.8,46.1,549.8,71z"/>
	<path id="leaf" class="st11" d="M504.9,50.9c-11.4,1.6-20.1,8.9-20.1,20.1c0,2.8,0.5,5.4,1.6,7.7c-2.1,1.5-5.1,3.2-6.7,3.8
		c-2.7,0.9-7.9,0.3-8,0.7s1.6,5.2,2.1,5.4c0.5,0.3,5.4,0.2,8-0.7c1.9-0.7,5.5-2.9,7.5-4.4c3.6,4.6,9.4,7.6,15.8,7.6
		c11.1,0,20-7,20-18.1c0-4.3,1-9.7,2.6-13.1c1.7-3.8,10.6-6.2,10.6-6.2C537.3,50.9,509.5,50.2,504.9,50.9L504.9,50.9L504.9,50.9z"/>
	<path id="darker-2" class="st12" d="M554.7,71c0-1,0-2-0.1-2.9c-10,2.8-27.3,6.3-49.6,6.3s-39.1-4.4-49.5-8.1
		c-0.2,1.6-0.3,3.1-0.3,4.7c0,27.4,22.3,49.7,49.7,49.7C532.3,120.7,554.6,98.4,554.7,71L554.7,71z"/>
</g>
<path class="st6" d="M402.8,107.4L437,34.4h8.8l-34.1,72.9H402.8z"/>
<g id="tagAnimal">
	<path class="st1" d="M395.5,71c0,29.6-24.1,53.7-53.7,53.7s-53.7-24.1-53.7-53.7s24.1-53.7,53.7-53.7S395.5,41.3,395.5,71z"/>
	
		<linearGradient id="SVGID_00000115512017106291704960000005405499395861263286_" gradientUnits="userSpaceOnUse" x1="341.875" y1="-13.9577" x2="341.875" y2="85.5523" gradientTransform="matrix(1 0 0 -1 0 106.7223)">
		<stop  offset="0" style="stop-color:#204D23"/>
		<stop  offset="1" style="stop-color:#96AA47"/>
	</linearGradient>
	<path style="fill:url(#SVGID_00000115512017106291704960000005405499395861263286_);" d="M391.6,71c0,27.4-22.3,49.7-49.7,49.7
		S292.2,98.4,292.2,71s22.2-49.8,49.6-49.8S391.6,43.4,391.6,71L391.6,71z"/>
	
		<radialGradient id="SVGID_00000145026368141911648400000012291187972890528671_" cx="341.64" cy="36.0023" r="44.36" fx="316.69" fy="36.0023" gradientTransform="matrix(1 0 0 -1 0 106.7223)" gradientUnits="userSpaceOnUse">
		<stop  offset="0.24" style="stop-color:#96AA47"/>
		<stop  offset="0.39" style="stop-color:#89A242"/>
		<stop  offset="0.67" style="stop-color:#67912E"/>
		<stop  offset="1" style="stop-color:#397931"/>
	</radialGradient>
	<path style="fill:url(#SVGID_00000145026368141911648400000012291187972890528671_);" d="M386.7,71c0,24.8-20.1,44.9-45,44.9
		S296.9,95.7,296.9,71s20.1-45,45-45S386.7,46.1,386.7,71L386.7,71z"/>
	<path id="darker-3" class="st8" d="M391.6,71c0-1,0-2-0.1-2.9c-10,2.8-27.3,6.3-49.6,6.3s-39.1-4.4-49.5-8.1
		c-0.2,1.6-0.3,3.1-0.3,4.7c0,27.4,22.3,49.7,49.7,49.7S391.6,98.4,391.6,71L391.6,71z"/>
	<path class="st15" d="M330.2,40.5c-0.3,0-2.8,0.3-4.2,2.4c-0.6,0.8-0.9,1.7-1,2.6c-0.4,1.9-1,5.4,0.4,9.6c0.7,2,1.5,4.4,3.7,6.1
		c0.7,0.5,2.1,1.5,3.9,1.3c2-0.2,3.2-1.7,3.6-2.2c1.7-2,1.7-4.3,1.8-6.8c0-1.2,0-4.9-1.9-8.8c-1.3-2.6-2.4-3.3-2.9-3.5
		C332.1,40.2,330.6,40.4,330.2,40.5L330.2,40.5z"/>
	<path class="st15" d="M354.1,39c-0.3-0.1-2.7-0.6-4.8,0.8c-0.8,0.5-1.4,1.2-1.9,2.1c-1,1.7-2.9,4.6-3,9.1c-0.1,2.2-0.2,4.7,1.4,7
		c0.5,0.7,1.5,2.1,3.2,2.5c1.9,0.5,3.6-0.4,4.2-0.8c2.2-1.3,3.2-3.5,4.2-5.8c0.4-1.1,1.7-4.6,1.3-8.9c-0.3-2.9-1.1-3.9-1.6-4.3
		C355.9,39.5,354.5,39.2,354.1,39L354.1,39z"/>
	<path class="st15" d="M314,54.3c-0.3,0.1-2.7,0.6-4,2.8c-0.5,0.9-0.7,1.7-0.8,2.7c-0.2,1.9-0.5,5.4,1.2,9.5
		c0.9,1.9,1.8,4.2,4.3,5.7c0.8,0.4,2.2,1.2,4,0.9c2-0.3,3-1.9,3.5-2.5c1.5-2.2,1.4-4.5,1.2-7c-0.1-1.2-0.4-4.8-2.8-8.6
		c-1.5-2.4-2.7-3-3.3-3.3C315.8,54,314.5,54.3,314,54.3L314,54.3z"/>
	<path class="st15" d="M368.5,52.3c-0.3-0.1-2.7-0.6-4.8,0.9c-0.8,0.6-1.3,1.3-1.8,2.2c-1,1.7-2.8,4.7-2.8,9.2
		c0,2.2-0.1,4.7,1.6,6.9c0.5,0.7,1.6,2.1,3.3,2.4c1.9,0.4,3.5-0.5,4.2-0.9c2.2-1.3,3.1-3.6,4-5.9c0.4-1.1,1.6-4.6,1-8.9
		c-0.4-2.9-1.2-3.9-1.6-4.3C370.4,52.7,369,52.4,368.5,52.3L368.5,52.3z"/>
	<path class="st16" d="M367.9,55c-0.2,0-2-0.4-3.5,0.7c-0.6,0.4-1,1-1.4,1.6c-0.7,1.3-2,3.5-2.1,6.8c0,1.6-0.1,3.5,1.2,5.2
		c0.4,0.5,1.1,1.6,2.4,1.8c1.5,0.3,2.7-0.4,3.1-0.6c1.6-1,2.2-2.6,2.9-4.4c0.4-0.9,1.2-3.5,0.8-6.7c-0.3-2.1-1-2.9-1.2-3.2
		C369.3,55.3,368.3,55,367.9,55z"/>
	<path class="st16" d="M353.4,41.9c-0.2-0.1-2-0.4-3.5,0.5c-0.6,0.4-1,0.9-1.4,1.6c-0.8,1.2-2.1,3.4-2.2,6.8c-0.1,1.6-0.2,3.5,1,5.2
		c0.4,0.5,1,1.6,2.3,1.9c1.5,0.3,2.7-0.3,3.1-0.5c1.6-1,2.3-2.5,3-4.2c0.4-0.9,1.3-3.4,1-6.6c-0.3-2.1-0.9-2.9-1.1-3.2
		C354.7,42.2,353.7,42,353.4,41.9L353.4,41.9z"/>
	<path class="st16" d="M330.5,43.3c-0.2,0-2,0.3-3.1,1.7c-0.4,0.6-0.6,1.2-0.8,1.9c-0.3,1.4-0.8,3.9,0.3,7.1c0.5,1.5,1,3.3,2.8,4.5
		c0.5,0.3,1.6,1,2.9,1c1.5-0.2,2.3-1.2,2.7-1.6c1.2-1.5,1.3-3.2,1.4-5c0-0.9,0-3.6-1.5-6.5c-1-1.9-1.8-2.4-2.2-2.6
		C331.9,43.2,330.9,43.2,330.5,43.3L330.5,43.3z"/>
	<path class="st16" d="M314.6,56.8c-0.2,0-2.1,0.4-3,2.2c-0.4,0.7-0.5,1.3-0.6,2.1c-0.2,1.5-0.4,4.2,1,7.3c0.6,1.5,1.4,3.3,3.3,4.3
		c0.6,0.3,1.7,0.9,3,0.7c1.5-0.3,2.3-1.5,2.6-1.9c1.1-1.7,1-3.5,1-5.4c-0.1-0.9-0.4-3.7-2.1-6.6c-1.1-1.9-2.1-2.3-2.5-2.5
		C316,56.6,314.8,56.9,314.6,56.8L314.6,56.8z"/>
	<path class="st15" d="M341.7,61.4c-1.2,0.1-2.5,0.1-4,0.9c-1.6,0.9-2.6,2.2-3.5,3.3c-0.8,1-0.7,1.1-1.8,2.9c-1,1.6-1.6,2.5-2.5,3.6
		c-1.1,1.3-2.2,2.1-4.2,3.6c-2.2,1.7-2.3,1.6-2.9,2.2c-1.5,1.7-1.8,3.6-2.1,4.9c-0.2,1.2-0.6,3.5,0.4,6.1c0.4,1.1,1.2,3.3,3.2,4.2
		c0.8,0.3,1.6,0.4,3.5,0.3c3.2-0.2,5.4-0.8,7.3-1.2c2.2-0.5,4.6-1,7.5-1.1c3.5-0.1,6.7,0.5,8.3,0.8c1.9,0.3,3.3,0.8,6,1
		c2.2,0.3,3.4,0.2,4.7-0.3c0.8-0.3,2.2-0.7,3.2-1.9c1.1-1.4,1.2-2.9,1.2-4.4c0.1-1,0.1-3.6-1.4-6.5c-0.6-1.3-1.1-1.9-3.1-4.3
		c-5.4-6.7-5.6-7.4-7.8-9.3c-1.3-1.1-2.6-2.2-4.6-3.2C347.9,62.5,345.2,61.2,341.7,61.4L341.7,61.4z"/>
	<path class="st16" d="M342,63.7c-1,0.1-2.2,0.1-3.5,0.8c-1.4,0.8-2.2,1.9-2.9,2.9c-0.7,0.9-0.6,0.9-1.6,2.6c-0.9,1.4-1.4,2.2-2.2,3
		c-1,1.1-1.9,1.8-3.6,3.1c-1.9,1.5-2,1.3-2.6,2c-1.3,1.5-2.4,3.7-2.7,4.8c-0.2,1-0.5,2.9,0.3,5.2c0.4,1,1,2.9,2.8,3.6
		c0.7,0.3,2.2-0.1,3.8-0.3c2.8-0.2,4.7-0.7,6.3-1c1.9-0.4,4-0.9,6.5-0.9c3-0.1,5.7,0.4,7.2,0.7c1.6,0.3,2.9,0.7,5.1,0.9
		c1.9,0.2,4.2,0.9,5.3,0.6c0.7-0.2,1.8-0.7,2.8-1.8c1-1.1,0.7-3.6,0.8-4.9c0.1-0.9-0.7-2.8-2.2-5.3c-0.7-1.2-1-1.7-2.7-3.7
		c-4.6-5.7-4.9-6.4-6.7-8c-1.1-0.9-2.2-1.9-4-2.8C347.3,64.7,345,63.5,342,63.7L342,63.7z"/>
</g>
</svg>
