<?xml version="1.0" encoding="utf-8"?>
<!-- Generator: Adobe Illustrator 26.3.1, SVG Export Plug-In . SVG Version: 6.00 Build 0)  -->
<svg version="1.1" id="Layer" xmlns="http://www.w3.org/2000/svg" xmlns:xlink="http://www.w3.org/1999/xlink" x="0px" y="0px"
	 viewBox="0 0 1173.5 141.7" style="enable-background:new 0 0 1173.5 141.7;" xml:space="preserve">
<style type="text/css">
	.st0{fill:none;}
	.st1{fill:#1F1F1E;}
	.st2{fill:#FFFFFF;fill-opacity:0;}
	.st3{opacity:0.4;fill:url(#SVGID_1_);enable-background:new    ;}
	.st4{fill:url(#SVGID_00000003799520961133285090000014227538140426625705_);}
	.st5{fill:#010202;}
	.st6{fill:url(#SVGID_00000173119368858519767690000016443026970834063751_);}
	.st7{fill:url(#SVGID_00000049911630800114703170000015715365781587930043_);}
	.st8{opacity:0.29;fill:#010202;enable-background:new    ;}
	.st9{fill:none;stroke:#030304;stroke-width:0.93;stroke-miterlimit:10;}
	.st10{fill:#030304;}
	.st11{fill:url(#external-border_00000104693338222188337100000004579046139116108683_);}
	.st12{fill:url(#internal-border_00000121263498423001820700000018082686718345866368_);}
	.st13{fill:url(#bg_00000143617487081015274930000006451769037940222890_);}
	.st14{opacity:0.1;fill:url(#bgPattern_00000012455819783512669690000015860131693962402974_);enable-background:new    ;}
	.st15{fill:#010202;stroke:#030304;stroke-width:1.28;stroke-miterlimit:10;}
	.st16{fill:url(#obram_zolte_00000168095333507964726890000010012277426578740874_);}
	.st17{fill:url(#tlo_wew_00000043448752275551862690000003247063689496423082_);}
	.st18{fill:url(#obram_skosne_00000176019175504062581690000003157230489067705769_);}
	.st19{fill:url(#tlo_zew_00000114048241391330456310000012933827058069661089_);}
	.st20{fill:#FFFFFF;}
	.st21{fill:#010101;}
</style>
<pattern  y="141.7" width="19.7" height="21.7" patternUnits="userSpaceOnUse" id="Nowy_wzorek_3" viewBox="0 -21.7 19.7 21.7" style="overflow:visible;">
	<g>
		<rect y="-21.7" class="st0" width="19.7" height="21.7"/>
		<g>
			<rect y="-21.7" class="st0" width="19.7" height="21.7"/>
			<g>
				<rect y="-21.7" class="st0" width="19.7" height="21.7"/>
				<g>
					<rect y="-21.7" class="st0" width="19.7" height="21.7"/>
					<g>
						<rect y="-21.7" class="st0" width="19.7" height="21.7"/>
						<g>
							<rect y="-21.7" class="st0" width="19.7" height="21.7"/>
							<path class="st1" d="M16.6-8.7c2.1-2.1,2.1-5.6,0-7.7l-1.2-1.2c-2.1-2.1-5.6-2.1-7.8,0L3.1-13C1-10.9,1-7.4,3.1-5.3l1.2,1.2
								C6.4-2,9.9-2,12-4.1C12-4.1,16.6-8.7,16.6-8.7z"/>
						</g>
					</g>
				</g>
			</g>
		</g>
	</g>
</pattern>
<rect y="0" class="st2" width="1173.5" height="141.7"/>
<g id="cityAny">
	
		<linearGradient id="SVGID_1_" gradientUnits="userSpaceOnUse" x1="491.19" y1="-19.5477" x2="491.19" y2="121.2523" gradientTransform="matrix(1 0 0 -1 0 121.7323)">
		<stop  offset="0" style="stop-color:#FFDC0E"/>
		<stop  offset="0" style="stop-color:#FFDB0F"/>
		<stop  offset="5.000000e-02" style="stop-color:#F9BA17"/>
		<stop  offset="0.1" style="stop-color:#F49A15"/>
		<stop  offset="0.16" style="stop-color:#EF7A17"/>
		<stop  offset="0.22" style="stop-color:#E86013"/>
		<stop  offset="0.27" style="stop-color:#E8491B"/>
		<stop  offset="0.34" style="stop-color:#E5381B"/>
		<stop  offset="0.41" style="stop-color:#E62F1D"/>
		<stop  offset="0.5" style="stop-color:#E52C1D"/>
		<stop  offset="0.59" style="stop-color:#E62F1D"/>
		<stop  offset="0.66" style="stop-color:#E5381B"/>
		<stop  offset="0.73" style="stop-color:#E8491B"/>
		<stop  offset="0.78" style="stop-color:#E86013"/>
		<stop  offset="0.84" style="stop-color:#EF7A17"/>
		<stop  offset="0.9" style="stop-color:#F49A15"/>
		<stop  offset="0.95" style="stop-color:#F9BA17"/>
		<stop  offset="1" style="stop-color:#FFDB0F"/>
		<stop  offset="1" style="stop-color:#FFDC0E"/>
	</linearGradient>
	<path class="st3" d="M491.2,141.3l-61-35.3V35.6l61-35.1l60.9,35.1V106L491.2,141.3L491.2,141.3z"/>
	
		<linearGradient id="SVGID_00000059298880739569774690000009748675595342450083_" gradientUnits="userSpaceOnUse" x1="491.19" y1="-18.1677" x2="491.19" y2="119.9923" gradientTransform="matrix(1 0 0 -1 0 121.7323)">
		<stop  offset="0" style="stop-color:#FFDC0E"/>
		<stop  offset="0" style="stop-color:#FFDB0F"/>
		<stop  offset="5.000000e-02" style="stop-color:#F9BA17"/>
		<stop  offset="0.1" style="stop-color:#F49A15"/>
		<stop  offset="0.16" style="stop-color:#EF7A17"/>
		<stop  offset="0.22" style="stop-color:#E86013"/>
		<stop  offset="0.27" style="stop-color:#E8491B"/>
		<stop  offset="0.34" style="stop-color:#E5381B"/>
		<stop  offset="0.41" style="stop-color:#E62F1D"/>
		<stop  offset="0.5" style="stop-color:#E52C1D"/>
		<stop  offset="0.59" style="stop-color:#E62F1D"/>
		<stop  offset="0.66" style="stop-color:#E5381B"/>
		<stop  offset="0.73" style="stop-color:#E8491B"/>
		<stop  offset="0.78" style="stop-color:#E86013"/>
		<stop  offset="0.84" style="stop-color:#EF7A17"/>
		<stop  offset="0.9" style="stop-color:#F49A15"/>
		<stop  offset="0.95" style="stop-color:#F9BA17"/>
		<stop  offset="1" style="stop-color:#FFDB0F"/>
		<stop  offset="1" style="stop-color:#FFDC0E"/>
	</linearGradient>
	<path style="fill:url(#SVGID_00000059298880739569774690000009748675595342450083_);" d="M491.2,139.9l-59.9-34.6v-69l59.9-34.6
		L551,36.3v69L491.2,139.9L491.2,139.9z"/>
	<polygon class="st5" points="547.8,103.5 547.8,38.1 491.2,5.5 434.5,38.1 434.5,103.5 491.2,136.2 	"/>
	
		<linearGradient id="SVGID_00000106841960054769082770000010959882586014263687_" gradientUnits="userSpaceOnUse" x1="491.19" y1="-12.4577" x2="491.19" y2="114.2923" gradientTransform="matrix(1 0 0 -1 0 121.7323)">
		<stop  offset="0" style="stop-color:#010202"/>
		<stop  offset="1" style="stop-color:#FFFFFF"/>
	</linearGradient>
	<polygon style="fill:url(#SVGID_00000106841960054769082770000010959882586014263687_);" points="546,102.5 546,39.2 491.2,7.4 
		436.4,39.2 436.4,102.5 491.2,134.2 	"/>
	
		<radialGradient id="SVGID_00000028304521932140312940000000295504777281909413_" cx="491.25" cy="50.9073" r="55.3346" gradientTransform="matrix(1 0 0 -1 0 121.7323)" gradientUnits="userSpaceOnUse">
		<stop  offset="0" style="stop-color:#C9C7C7"/>
		<stop  offset="1" style="stop-color:#737171"/>
	</radialGradient>
	<polygon style="fill:url(#SVGID_00000028304521932140312940000000295504777281909413_);" points="542.5,100.4 542.5,41.2 
		491.2,11.7 440,41.2 440,100.4 491.2,130 	"/>
	<path class="st8" d="M547.5,101.7V60.8l0,0c-37.5,5.6-75,5.6-112.6,0l0,0v40.8l56.2,32.5L547.5,101.7L547.5,101.7L547.5,101.7z"/>
	<g id="city-logo">
		<path class="st9" d="M452,78.1c0-21,17.6-37.9,39.1-37.9"/>
		<path class="st9" d="M530.2,78.1c0-21-17.7-37.9-39.5-37.9"/>
		<rect x="451.3" y="75.6" class="st10" width="79.5" height="5"/>
		<rect x="455.4" y="70.9" class="st10" width="2.4" height="4.7"/>
		<rect x="456.7" y="67.2" class="st10" width="1.1" height="3.8"/>
		<rect x="460.3" y="70.4" class="st10" width="4.3" height="5.2"/>
		<rect x="460.3" y="64.4" class="st10" width="2.2" height="6.1"/>
		<rect x="466" y="69.1" class="st10" width="1.8" height="6.5"/>
		<rect x="467.9" y="56" class="st10" width="2.1" height="19.5"/>
		<rect x="468.9" y="54" class="st10" width="1" height="2.1"/>
		<rect x="469.9" y="70.9" class="st10" width="3.4" height="4.7"/>
		<rect x="472.6" y="68.6" class="st10" width="0.7" height="2.4"/>
		<rect x="473.3" y="51.4" class="st10" width="2.7" height="24.3"/>
		<rect x="476.1" y="55.7" class="st10" width="1.4" height="19.9"/>
		<rect x="477.6" y="62.8" class="st10" width="2.9" height="12.8"/>
		<rect x="480.4" y="65.4" class="st10" width="1.8" height="10.3"/>
		<rect x="483.8" y="59.1" class="st10" width="3.8" height="16.4"/>
		<rect x="487.7" y="65.6" class="st10" width="1.9" height="9.9"/>
		<rect x="489.6" y="47.3" class="st10" width="4.7" height="28.3"/>
		<rect x="496.5" y="53.5" class="st10" width="2.4" height="22"/>
		<rect x="501.4" y="58.1" class="st10" width="2.6" height="17.5"/>
		<rect x="498.8" y="69.7" class="st10" width="2.6" height="5.8"/>
		<rect x="504" y="72.4" class="st10" width="1.9" height="3.3"/>
		<rect x="508.1" y="70.6" class="st10" width="1.7" height="4.9"/>
		<rect x="509.9" y="62.8" class="st10" width="3" height="12.8"/>
		<rect x="512.7" y="56.8" class="st10" width="2.2" height="18.7"/>
		<rect x="514.9" y="70" class="st10" width="1.8" height="5.6"/>
		<rect x="517.7" y="66.5" class="st10" width="2.3" height="9"/>
		<rect x="520" y="65.6" class="st10" width="2.5" height="9.9"/>
		<rect x="524.2" y="71.1" class="st10" width="1.1" height="4.6"/>
		<rect x="525.4" y="73.4" class="st10" width="2.2" height="2.3"/>
	</g>
</g>
<g id="prodBg">
	
		<linearGradient id="external-border_00000060739822963551088040000002228080928960649381_" gradientUnits="userSpaceOnUse" x1="741.3425" y1="-3.0852" x2="632.0375" y2="106.2198" gradientTransform="matrix(1 0 0 -1 0 121.7323)">
		<stop  offset="0" style="stop-color:#9E9D9C"/>
		<stop  offset="0.54" style="stop-color:#010202"/>
		<stop  offset="1" style="stop-color:#9E9D9C"/>
	</linearGradient>
	
		<rect id="external-border" x="631.3" y="16.3" style="fill:url(#external-border_00000060739822963551088040000002228080928960649381_);" width="110.8" height="107.8"/>
	
		<linearGradient id="internal-border_00000135659115984646037780000010795636236730286989_" gradientUnits="userSpaceOnUse" x1="686.74" y1="0.5123" x2="686.74" y2="102.6223" gradientTransform="matrix(1 0 0 -1 0 121.7323)">
		<stop  offset="0" style="stop-color:#462C1B"/>
		<stop  offset="1" style="stop-color:#B18048"/>
	</linearGradient>
	
		<rect id="internal-border" x="634.1" y="19.1" style="fill:url(#internal-border_00000135659115984646037780000010795636236730286989_);" width="105.2" height="102.1"/>
	
		<linearGradient id="bg_00000168805332791894816090000010150838498940721053_" gradientUnits="userSpaceOnUse" x1="686.695" y1="3.0923" x2="686.695" y2="100.1323" gradientTransform="matrix(1 0 0 -1 0 121.7323)">
		<stop  offset="0" style="stop-color:#946137"/>
		<stop  offset="1" style="stop-color:#805127"/>
	</linearGradient>
	
		<rect id="bg" x="636.6" y="21.6" style="fill:url(#bg_00000168805332791894816090000010150838498940721053_);" width="100.2" height="97"/>
	
		<pattern  id="bgPattern_00000177465247438398356120000014312213652839177646_" xlink:href="#Nowy_wzorek_3" patternTransform="matrix(1 0 0 -1 -503.53 -32819.6641)">
	</pattern>
	
		<rect id="bgPattern" x="636.6" y="21.6" style="opacity:0.1;fill:url(#bgPattern_00000177465247438398356120000014312213652839177646_);enable-background:new    ;" width="100.2" height="97"/>
</g>
<g id="mln">
	<polygon id="obram_czarne" class="st15" points="659.5,31.7 647.8,43.5 647.8,97.8 659.5,109.6 713.9,109.6 725.6,97.8 725.6,43.5 
		713.9,31.7 	"/>
	
		<linearGradient id="obram_zolte_00000093151588157323671570000009597168163884920506_" gradientUnits="userSpaceOnUse" x1="686.72" y1="126.7923" x2="686.72" y2="53.3923" gradientTransform="matrix(1 0 0 1 0 -19.4623)">
		<stop  offset="0.16" style="stop-color:#823A13"/>
		<stop  offset="0.18" style="stop-color:#985C1A"/>
		<stop  offset="0.22" style="stop-color:#AE7D22"/>
		<stop  offset="0.26" style="stop-color:#C39D26"/>
		<stop  offset="0.3" style="stop-color:#D6B92E"/>
		<stop  offset="0.35" style="stop-color:#E4CF36"/>
		<stop  offset="0.41" style="stop-color:#EFE036"/>
		<stop  offset="0.48" style="stop-color:#F6E947"/>
		<stop  offset="0.58" style="stop-color:#F8EA4E"/>
		<stop  offset="0.86" style="stop-color:#F6EA4D"/>
		<stop  offset="1" style="stop-color:#FCF4F9"/>
	</linearGradient>
	<polygon id="obram_zolte" style="fill:url(#obram_zolte_00000093151588157323671570000009597168163884920506_);" points="
		661.1,33.9 650,45 650,96.2 661.1,107.3 712.3,107.3 723.4,96.2 723.4,45 712.3,33.9 	"/>
	
		<linearGradient id="tlo_wew_00000095318242622985382950000011779505433162949051_" gradientUnits="userSpaceOnUse" x1="686.72" y1="49.4923" x2="686.72" y2="161.6823" gradientTransform="matrix(1 0 0 1 0 -19.4623)">
		<stop  offset="0.26" style="stop-color:#F6EA4D"/>
		<stop  offset="0.86" style="stop-color:#803813"/>
	</linearGradient>
	<polygon id="tlo_wew" style="fill:url(#tlo_wew_00000095318242622985382950000011779505433162949051_);" points="661.8,35 
		651.1,45.8 651.1,95.5 661.8,106.2 711.6,106.2 722.4,95.5 722.4,45.8 711.6,35 	"/>
	
		<linearGradient id="obram_skosne_00000061467181723899584490000016006763104015994000_" gradientUnits="userSpaceOnUse" x1="686.75" y1="125.7723" x2="686.75" y2="54.4723" gradientTransform="matrix(1 0 0 1 0 -19.4623)">
		<stop  offset="0.16" style="stop-color:#803813"/>
		<stop  offset="0.17" style="stop-color:#8C471E"/>
		<stop  offset="0.18" style="stop-color:#A26B3C"/>
		<stop  offset="0.2" style="stop-color:#B78954"/>
		<stop  offset="0.22" style="stop-color:#C7A468"/>
		<stop  offset="0.24" style="stop-color:#D7BB7A"/>
		<stop  offset="0.26" style="stop-color:#E2CC88"/>
		<stop  offset="0.3" style="stop-color:#EAD891"/>
		<stop  offset="0.34" style="stop-color:#EEDE97"/>
		<stop  offset="0.46" style="stop-color:#EFE097"/>
		<stop  offset="0.7" style="stop-color:#803813"/>
		<stop  offset="0.73" style="stop-color:#E6D234"/>
		<stop  offset="0.74" style="stop-color:#EBD948"/>
		<stop  offset="0.75" style="stop-color:#EEDE6D"/>
		<stop  offset="0.77" style="stop-color:#F0E28A"/>
		<stop  offset="0.79" style="stop-color:#F8EBAA"/>
		<stop  offset="0.8" style="stop-color:#F8EDBF"/>
		<stop  offset="0.83" style="stop-color:#FAF0CF"/>
		<stop  offset="0.85" style="stop-color:#FCF2DA"/>
		<stop  offset="0.89" style="stop-color:#FDF4E1"/>
		<stop  offset="0.99" style="stop-color:#FDF5E3"/>
	</linearGradient>
	<path id="obram_skosne" style="fill:url(#obram_skosne_00000061467181723899584490000016006763104015994000_);" d="M717.2,84.4
		c-2,0-3.6-1.6-3.6-3.6V60.5c0-2,1.6-3.6,3.6-3.6h5.1V45.8L711.6,35h-11.2v5.1c0,2-1.6,3.6-3.6,3.6h-20.3c-2,0-3.6-1.6-3.6-3.6V35
		h-11.1l-10.8,10.8V57h5.1c2,0,3.6,1.6,3.6,3.6v20.3c0,2-1.6,3.6-3.6,3.6h-5.1v11.1l10.8,10.8H673v-5.1c0-2,1.6-3.6,3.6-3.6h20.3
		c2,0,3.6,1.6,3.6,3.6v5.1h11.2l10.8-10.8V84.4L717.2,84.4L717.2,84.4z"/>
	
		<linearGradient id="tlo_zew_00000012445119849969633920000013637194474205221554_" gradientUnits="userSpaceOnUse" x1="686.725" y1="64.9323" x2="686.725" y2="174.9823" gradientTransform="matrix(1 0 0 1 0 -19.4623)">
		<stop  offset="0.26" style="stop-color:#F6EA4D"/>
		<stop  offset="0.77" style="stop-color:#803813"/>
	</linearGradient>
	<path id="tlo_zew" style="fill:url(#tlo_zew_00000012445119849969633920000013637194474205221554_);" d="M717,85.6
		c-2.4,0-4.4-2.4-4.4-4.8V60.5c0-2.4,2-4.8,4.4-4.8h4.1v-9.1l-10.5-10.4h-9v4.1c0,2.4-2.4,4.4-4.8,4.4h-20.2c-2.4,0-4.8-2-4.8-4.4
		v-4.1h-9.1l-10.4,10.4v9.1h4.1c2.4,0,4.4,2.4,4.4,4.8v20.2c0,2.4-2,4.8-4.4,4.8h-4.1v9.1l10.4,10.4h9.1v-4.1c0-2.4,2.4-4.4,4.8-4.4
		h20.2c2.4,0,4.8,2,4.8,4.4v4.1h9.1L721,94.6v-9.1H717L717,85.6z"/>
</g>
<path class="st20" d="M572.7,60.7V47.4H586v13.3H572.7z M572.7,96.8V83.5H586v13.3H572.7z"/>
<path class="st21" d="M684.3,88.7V55.7h-5l-0.2-3.7l12.6-1.1v37.7L684.3,88.7L684.3,88.7z"/>
</svg>
