<?xml version="1.0" encoding="utf-8"?>
<!-- Generator: Adobe Illustrator 26.3.1, SVG Export Plug-In . SVG Version: 6.00 Build 0)  -->
<svg version="1.1" id="Layer" xmlns="http://www.w3.org/2000/svg" xmlns:xlink="http://www.w3.org/1999/xlink" x="0px" y="0px"
	 viewBox="0 0 1173.5 141.7" style="enable-background:new 0 0 1173.5 141.7;" xml:space="preserve">
<style type="text/css">
	.st0{fill:#FFFFFF;fill-opacity:0;}
	.st1{fill:#020303;stroke:#030404;stroke-width:1.73;stroke-miterlimit:10;}
	.st2{fill:url(#obram_zolte-2_00000183934413593227535290000007340599154811888794_);}
	.st3{fill:url(#tlo_wew-2_00000152945738768156640090000015463402974065068199_);}
	.st4{fill:url(#obram_skosne-2_00000071544642632786730940000005634747432628866730_);}
	.st5{fill:url(#tlo_zew-2_00000006700648537812005990000001103332546573797510_);}
	.st6{fill:#010101;}
	.st7{fill:#FFFFFF;}
	.st8{fill:#030404;}
	.st9{fill:url(#SVGID_1_);}
	.st10{fill:#515150;}
	.st11{opacity:0.64;fill:#030404;enable-background:new    ;}
	.st12{fill:none;stroke:#FFD80C;stroke-width:4.33;stroke-miterlimit:10;}
</style>
<rect y="0" class="st0" width="1173.5" height="141.7"/>
<g id="mln">
	<polygon id="obram_czarne-2" class="st1" points="670.1,19.7 654.2,35.6 654.2,109.4 670.1,125.4 743.9,125.4 759.9,109.4 
		759.9,35.6 743.9,19.7 	"/>
	
		<linearGradient id="obram_zolte-2_00000087384349724420147080000005528592805262879376_" gradientUnits="userSpaceOnUse" x1="707.03" y1="-13.6077" x2="707.03" y2="86.0023" gradientTransform="matrix(1 0 0 -1 0 108.7223)">
		<stop  offset="0.16" style="stop-color:#823A13"/>
		<stop  offset="0.18" style="stop-color:#985C1A"/>
		<stop  offset="0.22" style="stop-color:#AE7D22"/>
		<stop  offset="0.26" style="stop-color:#C39D26"/>
		<stop  offset="0.3" style="stop-color:#D6B92E"/>
		<stop  offset="0.35" style="stop-color:#E4CF36"/>
		<stop  offset="0.41" style="stop-color:#EFE036"/>
		<stop  offset="0.48" style="stop-color:#F6E947"/>
		<stop  offset="0.58" style="stop-color:#F8EA4E"/>
		<stop  offset="0.86" style="stop-color:#F6EA4D"/>
		<stop  offset="1" style="stop-color:#FCF4F9"/>
	</linearGradient>
	<polygon id="obram_zolte-2" style="fill:url(#obram_zolte-2_00000087384349724420147080000005528592805262879376_);" points="
		672.3,22.7 657.2,37.8 657.2,107.3 672.3,122.3 741.8,122.3 756.8,107.3 756.8,37.8 741.8,22.7 	"/>
	
		<linearGradient id="tlo_wew-2_00000166639208593778684560000006316715185200531103_" gradientUnits="userSpaceOnUse" x1="707.03" y1="91.3523" x2="707.03" y2="-61.0377" gradientTransform="matrix(1 0 0 -1 0 108.7223)">
		<stop  offset="0.26" style="stop-color:#F6EA4D"/>
		<stop  offset="0.86" style="stop-color:#803813"/>
	</linearGradient>
	<polygon id="tlo_wew-2" style="fill:url(#tlo_wew-2_00000166639208593778684560000006316715185200531103_);" points="673.2,24.1 
		658.6,38.8 658.6,106.3 673.2,120.9 740.8,120.9 755.5,106.3 755.5,38.8 740.8,24.1 	"/>
	
		<linearGradient id="obram_skosne-2_00000095307441844741663990000004869674908191399357_" gradientUnits="userSpaceOnUse" x1="706.985" y1="-12.2277" x2="706.985" y2="84.6123" gradientTransform="matrix(1 0 0 -1 0 108.7223)">
		<stop  offset="0.16" style="stop-color:#803813"/>
		<stop  offset="0.17" style="stop-color:#8C471E"/>
		<stop  offset="0.18" style="stop-color:#A26B3C"/>
		<stop  offset="0.2" style="stop-color:#B78954"/>
		<stop  offset="0.22" style="stop-color:#C7A468"/>
		<stop  offset="0.24" style="stop-color:#D7BB7A"/>
		<stop  offset="0.26" style="stop-color:#E2CC88"/>
		<stop  offset="0.3" style="stop-color:#EAD891"/>
		<stop  offset="0.34" style="stop-color:#EEDE97"/>
		<stop  offset="0.46" style="stop-color:#EFE097"/>
		<stop  offset="0.7" style="stop-color:#803813"/>
		<stop  offset="0.73" style="stop-color:#E6D234"/>
		<stop  offset="0.74" style="stop-color:#EBD948"/>
		<stop  offset="0.75" style="stop-color:#EEDE6D"/>
		<stop  offset="0.77" style="stop-color:#F0E28A"/>
		<stop  offset="0.79" style="stop-color:#F8EBAA"/>
		<stop  offset="0.8" style="stop-color:#F8EDBF"/>
		<stop  offset="0.83" style="stop-color:#FAF0CF"/>
		<stop  offset="0.85" style="stop-color:#FCF2DA"/>
		<stop  offset="0.89" style="stop-color:#FDF4E1"/>
		<stop  offset="0.99" style="stop-color:#FDF5E3"/>
	</linearGradient>
	<path id="obram_skosne-2" style="fill:url(#obram_skosne-2_00000095307441844741663990000004869674908191399357_);" d="M748.5,91.2
		c-2.7,0-4.8-2.2-4.8-4.8V58.8c0-2.7,2.2-4.8,4.8-4.8h6.9V38.8l-14.6-14.6h-15.2V31c0,2.7-2.2,4.9-4.8,4.9h-27.6
		c-2.7,0-4.8-2.2-4.8-4.9v-6.9h-15.2l-14.6,14.6v15.2h6.9c2.7,0,4.8,2.2,4.8,4.8v27.6c0,2.7-2.2,4.8-4.8,4.8h-6.9v15.1l14.6,14.6
		h15.2V114c0-2.7,2.2-4.8,4.8-4.8h27.6c2.7,0,4.8,2.2,4.8,4.8v6.9h15.2l14.6-14.6V91.1C755.5,91.1,748.5,91.1,748.5,91.2z"/>
	
		<linearGradient id="tlo_zew-2_00000114061574348745442520000013294328846255004312_" gradientUnits="userSpaceOnUse" x1="707.07" y1="70.3623" x2="707.07" y2="-79.1077" gradientTransform="matrix(1 0 0 -1 0 108.7223)">
		<stop  offset="0.26" style="stop-color:#F6EA4D"/>
		<stop  offset="0.77" style="stop-color:#803813"/>
	</linearGradient>
	<path id="tlo_zew-2" style="fill:url(#tlo_zew-2_00000114061574348745442520000013294328846255004312_);" d="M748.2,92.9
		c-3.3,0-6-3.3-6-6.6V58.8c0-3.3,2.7-6.6,6-6.6h5.6V40l-14.1-14.1h-12.3v5.6c0,3.3-3.3,6-6.6,6h-27.5c-3.3,0-6.6-2.7-6.6-6v-5.6
		h-12.3L660.3,40v12.3h5.6c3.3,0,6,3.3,6,6.6v27.5c0,3.3-2.7,6.6-6,6.6h-5.6v12.3l14.1,14.1h12.3v-5.6c0-3.3,3.3-6,6.6-6h27.5
		c3.3,0,6.6,2.7,6.6,6v5.6h12.3l14.1-14.1V92.9H748.2z"/>
</g>
<path class="st6" d="M705.4,97.2V55.7h-6.3l-0.2-4.7l15.9-1.4v47.6L705.4,97.2L705.4,97.2z"/>
<g>
	<path class="st7" d="M552.8,64.3V52.8h11.5v11.5H552.8z M552.8,95.5V84h11.5v11.5H552.8z"/>
	<path class="st7" d="M615.7,93.6V76.1h-17.5v-7.2h17.5V51.4h7.2v17.5h17.5v7.2h-17.5v17.5H615.7z"/>
</g>
<g id="titan">
	<rect x="414.7" y="18.6" class="st8" width="108" height="108"/>
	
		<linearGradient id="SVGID_1_" gradientUnits="userSpaceOnUse" x1="-414.2802" y1="-1025.402" x2="-342.3108" y2="-953.4226" gradientTransform="matrix(0.7071 -0.7071 -0.7071 -0.7071 36.5752 -894.5454)">
		<stop  offset="0" style="stop-color:#030404"/>
		<stop  offset="1" style="stop-color:#7A7879"/>
	</linearGradient>
	<rect x="417.8" y="21.7" class="st9" width="101.8" height="101.8"/>
	<rect x="422.8" y="26.6" class="st10" width="91.9" height="91.9"/>
	<path id="darker-2" class="st11" d="M519.6,123.5H417.8V67.7c0,0,32,4.9,50.9,4.9s50.9-4.9,50.9-4.9V123.5z"/>
	<polygon class="st12" points="469.3,42.6 478.9,62.7 501,65.6 484.8,80.9 488.9,102.8 469.3,92.1 449.7,102.8 453.8,80.9 
		437.6,65.6 459.7,62.7 	"/>
</g>
</svg>
