<?xml version="1.0" encoding="utf-8"?>
<!-- Generator: Adobe Illustrator 26.3.1, SVG Export Plug-In . SVG Version: 6.00 Build 0)  -->
<svg version="1.1" id="Layer" xmlns="http://www.w3.org/2000/svg" xmlns:xlink="http://www.w3.org/1999/xlink" x="0px" y="0px"
	 viewBox="0 0 1173.5 141.7" style="enable-background:new 0 0 1173.5 141.7;" xml:space="preserve">
<style type="text/css">
	.st0{fill:#FFFFFF;fill-opacity:0;}
	.st1{fill:#FFFFFF;}
	
		.st2{fill:url(#tlo_i_obram_00000113325887440811382260000014329818474631831684_);stroke:#010202;stroke-width:3.73;stroke-miterlimit:10;}
	.st3{fill:#010202;}
	.st4{fill:url(#SVGID_1_);stroke:#030304;stroke-width:1.77;stroke-miterlimit:10;}
	.st5{fill:none;stroke:#FFFFFF;stroke-width:1.77;stroke-miterlimit:10;}
	.st6{opacity:0.5;fill:url(#SVGID_00000121278405073351232550000005325252685718986374_);enable-background:new    ;}
	.st7{fill:#010101;}
	.st8{fill:url(#SVGID_00000057135238202544469440000018127728433657711029_);}
	.st9{fill:#83A3D5;}
	.st10{fill:#0F468E;}
	.st11{fill:#1C2C4C;}
	.st12{fill:#93C6EC;}
	.st13{fill:#7CA5D8;}
	.st14{fill:#3F5EA8;}
	.st15{fill:url(#SVGID_00000176745831598990173670000009231322491573594530_);}
	.st16{fill:url(#SVGID_00000150781065655548812560000002602238038109826466_);}
	.st17{fill:none;stroke:#1F1F1E;stroke-width:3.14;stroke-miterlimit:10;}
	.st18{fill:none;stroke:#1F1F1E;stroke-width:0.98;stroke-miterlimit:10;}
	
		.st19{fill:#E2161C;stroke:url(#SVGID_00000004537401769695034100000015962148183770656687_);stroke-width:3.14;stroke-miterlimit:10;}
	
		.st20{fill:#E2161C;stroke:url(#SVGID_00000152946022562965950280000008172601682820713371_);stroke-width:3.14;stroke-miterlimit:10;}
</style>
<rect y="0" class="st0" width="1173.5" height="141.7"/>
<g id="bg">
	<rect x="187.6" y="3.7" class="st1" width="530.2" height="134.9"/>
	
		<linearGradient id="tlo_i_obram_00000137133964076880876230000009038428357878882435_" gradientUnits="userSpaceOnUse" x1="197.43" y1="54.8373" x2="708.1" y2="54.8373" gradientTransform="matrix(1 0 0 -1 0 125.7323)">
		<stop  offset="0" style="stop-color:#E96132"/>
		<stop  offset="0.16" style="stop-color:#F18F32"/>
		<stop  offset="0.5" style="stop-color:#F6A11D"/>
		<stop  offset="0.65" style="stop-color:#F59E22"/>
		<stop  offset="0.79" style="stop-color:#F3962C"/>
		<stop  offset="0.85" style="stop-color:#F18F32"/>
		<stop  offset="1" style="stop-color:#E96132"/>
	</linearGradient>
	
		<rect id="tlo_i_obram" x="197.4" y="12.9" style="fill:url(#tlo_i_obram_00000137133964076880876230000009038428357878882435_);stroke:#010202;stroke-width:3.73;stroke-miterlimit:10;" width="510.7" height="115.9"/>
	<g>
		<rect x="205.3" y="99.8" class="st3" width="12.4" height="6.7"/>
		<rect x="205.3" y="84.9" class="st3" width="12.4" height="6.3"/>
		<rect x="205.3" y="48" class="st3" width="12.4" height="7.8"/>
		<rect x="205.3" y="32.5" class="st3" width="12.4" height="6.9"/>
		<polygon class="st3" points="205.3,73.3 217.8,56 217.8,49.4 205.3,66.7 		"/>
		<polygon class="st3" points="205.3,91.2 217.8,73.9 217.8,67.3 205.3,84.6 		"/>
	</g>
</g>
<g>
	<path class="st1" d="M734.2,68.7V54.5h14.2v14.2H734.2z M734.2,107.1V92.9h14.2v14.2H734.2z"/>
	<path class="st1" d="M811.7,104.8V83.2h-21.6v-8.9h21.6V52.8h8.9v21.6h21.6v8.9h-21.6v21.6H811.7z"/>
	<path class="st1" d="M848.1,121.3l42.1-89.9h10.8l-42.1,89.9H848.1z"/>
	<path class="st1" d="M905.2,81.4v-8.9h21.3v8.9H905.2z"/>
	<path class="st1" d="M936.7,107.1V95.9c4.3-5.8,8.4-10.4,12.5-13.9l5.8-5.1c4.2-3.7,7.6-7.3,10.3-10.9c2.7-3.6,4.1-7.4,4.1-11.3
		c0-3.5-1.1-6.3-3.4-8.2s-5.4-2.9-9.3-2.9c-5.2,0-11.2,1.8-18.1,5.3V38.4c7.2-2.7,14.2-4,20.9-4c7.4,0,13.5,1.8,18,5.3
		s6.9,8.3,6.9,14.3c0,3.8-1,7.3-2.9,10.7c-1.9,3.3-6,7.5-12,12.4l-4.8,3.8c-2.1,1.7-4.4,3.9-6.9,6.5s-4.2,5.5-5,8.4h31.3v11.2
		L936.7,107.1L936.7,107.1z"/>
</g>
<g id="tempIcon">
	
		<linearGradient id="SVGID_1_" gradientUnits="userSpaceOnUse" x1="639.51" y1="216.4123" x2="639.51" y2="91.3123" gradientTransform="matrix(1 0 0 1 0 -83.0023)">
		<stop  offset="8.000000e-02" style="stop-color:#47C0F0"/>
		<stop  offset="0.15" style="stop-color:#52A5D5"/>
		<stop  offset="0.23" style="stop-color:#5D85B4"/>
		<stop  offset="0.3" style="stop-color:#626A9C"/>
		<stop  offset="0.37" style="stop-color:#67568C"/>
		<stop  offset="0.42" style="stop-color:#684981"/>
		<stop  offset="0.46" style="stop-color:#68457E"/>
		<stop  offset="0.55" style="stop-color:#923E61"/>
		<stop  offset="0.67" style="stop-color:#B7323C"/>
		<stop  offset="0.75" style="stop-color:#CC2321"/>
		<stop  offset="0.79" style="stop-color:#D41A1C"/>
	</linearGradient>
	<path class="st4" d="M647.8,100.2V16.6c0-4.5-3.8-8.3-8.3-8.3s-8.3,3.8-8.3,8.3V100c-5.5,3-9.4,8.9-9.4,15.7
		c0,9.8,7.9,17.7,17.7,17.7s17.7-7.9,17.7-17.7C657.2,108.9,653.5,103,647.8,100.2L647.8,100.2L647.8,100.2z"/>
	<line class="st5" x1="635.9" y1="26.4" x2="643.3" y2="26.4"/>
	<line class="st5" x1="635.9" y1="49.6" x2="643.3" y2="49.6"/>
	<line class="st5" x1="635.9" y1="70.8" x2="643.3" y2="70.8"/>
	<line class="st5" x1="635.9" y1="90.4" x2="643.3" y2="90.4"/>
	<line class="st5" x1="635.9" y1="115.3" x2="643.3" y2="115.3"/>
	
		<linearGradient id="SVGID_00000176733313748213651680000000514007380226294926_" gradientUnits="userSpaceOnUse" x1="634.38" y1="194.1323" x2="627.65" y2="187.3823" gradientTransform="matrix(1 0 0 1 0 -83.0023)">
		<stop  offset="0" style="stop-color:#1F1F1E;stop-opacity:0"/>
		<stop  offset="1" style="stop-color:#FFFFFF"/>
	</linearGradient>
	<path style="opacity:0.5;fill:url(#SVGID_00000176733313748213651680000000514007380226294926_);enable-background:new    ;" d="
		M634.4,110.9c-2.6,2.8-6.4,3.4-8.3,1.7c-1.9-1.9-1.1-5.7,1.5-8.3s6.4-3.4,8.3-1.5S637.2,108.3,634.4,110.9z"/>
</g>
<path class="st7" d="M373.3,117.3l42.1-89.9h10.8l-42.1,89.9H373.3z"/>
<g id="ocean">
	<polygon class="st3" points="544.9,102.6 544.9,38.6 489.6,6.7 434.2,38.6 434.2,102.6 489.6,134.5 	"/>
	
		<linearGradient id="SVGID_00000070089063591743868210000011216184087773385383_" gradientUnits="userSpaceOnUse" x1="489.635" y1="167.4523" x2="489.635" y2="43.7323" gradientTransform="matrix(1 0 0 1 0 -35.0023)">
		<stop  offset="0" style="stop-color:#C2DCF4"/>
		<stop  offset="1" style="stop-color:#275387"/>
	</linearGradient>
	<polygon style="fill:url(#SVGID_00000070089063591743868210000011216184087773385383_);" points="543.2,101.6 543.2,39.7 
		489.6,8.7 436,39.7 436,101.6 489.6,132.4 	"/>
	<polygon class="st9" points="539.6,99.5 539.6,41.7 489.6,12.8 439.6,41.7 439.6,99.5 489.6,128.4 	"/>
	<path class="st10" d="M539.6,78.2c-2.2-2.1-6.6-3-14.1-3.9c-7.3-1-10.9-1.4-12.7-1.4c-11.5-0.1-12.3,3.1-21.8,3.2
		c-2.6,0-9.4-1.4-23.3-4.3c-8-1.6-10.5-2.2-14.5-1.9c-5.7,0.4-10.4,2.3-13.8,4.4v25.2l50.2,28.9l50-28.9V78.2L539.6,78.2L539.6,78.2
		z"/>
	<path class="st11" d="M489.8,112.8L489.8,112.8c22.5-0.4,33.5-23.2,23.1-48c-0.9-2.1-2-4.4-3.3-6.7C489.6,21.8,489.6,22,489.6,22
		s0-0.2-19.9,36.1c-1.3,2.3-2.4,4.6-3.3,6.7c-10.5,24.9,0.5,47.6,23.1,48l0,0"/>
	<path class="st12" d="M489.8,111.4L489.8,111.4c21.4-0.4,31.7-21.9,21.9-45.5c-0.9-2-1.9-4.2-3.1-6.4
		c-18.8-34.4-18.8-34.2-18.8-34.2s0-0.2-18.8,34.2c-1.2,2.2-2.2,4.3-3.1,6.4C457.8,89.5,468.2,111.1,489.8,111.4L489.8,111.4"/>
	<path class="st13" d="M489.6,109L489.6,109c19.6-0.3,29.1-20.1,20.1-41.6c-0.8-1.9-1.8-3.8-2.9-5.9c-17.2-31.6-17.2-31.4-17.2-31.4
		s0-0.2-17.3,31.4c-1.1,2-2,4-2.9,5.9C460.5,88.9,470,108.5,489.6,109L489.6,109"/>
	<path class="st14" d="M511.7,72.9C501.3,73,500.3,76,491,76.1c-2.6,0-9.4-1.4-23.2-4.2c-6,19.8,3.5,36.7,21.8,37h0.1
		C507.6,108.6,517.1,92.2,511.7,72.9L511.7,72.9L511.7,72.9z"/>
	
		<radialGradient id="SVGID_00000122713804504698403430000006492713271763086466_" cx="489.53" cy="113.3323" r="53.65" gradientTransform="matrix(1 0 0 1 0 -35.0023)" gradientUnits="userSpaceOnUse">
		<stop  offset="0" style="stop-color:#FFFFFF;stop-opacity:0.7"/>
		<stop  offset="0.13" style="stop-color:#F9FBFE;stop-opacity:0.68"/>
		<stop  offset="0.28" style="stop-color:#E4E9F7;stop-opacity:0.62"/>
		<stop  offset="0.44" style="stop-color:#C3CDEA;stop-opacity:0.53"/>
		<stop  offset="0.62" style="stop-color:#93A7D6;stop-opacity:0.4"/>
		<stop  offset="0.79" style="stop-color:#5673B7;stop-opacity:0.23"/>
		<stop  offset="0.98" style="stop-color:#2E509E;stop-opacity:3.000000e-02"/>
		<stop  offset="1" style="stop-color:#2C4C9B;stop-opacity:0"/>
	</radialGradient>
	<circle style="fill:url(#SVGID_00000122713804504698403430000006492713271763086466_);" cx="489.5" cy="78.3" r="53.6"/>
</g>
<path class="st7" d="M556.1,117.3l42.1-89.9H609l-42.1,89.9H556.1z"/>
<g id="oxIcon">
	
		<radialGradient id="SVGID_00000111881189705013512280000014541114167953325724_" cx="300.07" cy="38.5523" r="63.62" gradientTransform="matrix(1 0 0 -1 0 109.7323)" gradientUnits="userSpaceOnUse">
		<stop  offset="0" style="stop-color:#F6EE84"/>
		<stop  offset="0.78" style="stop-color:#F6EE84"/>
		<stop  offset="0.91" style="stop-color:#F6EE84"/>
		<stop  offset="0.91" style="stop-color:#F7EE87"/>
		<stop  offset="0.94" style="stop-color:#FAF4B7"/>
		<stop  offset="0.96" style="stop-color:#FDFADC"/>
		<stop  offset="0.97" style="stop-color:#FEFCF1"/>
		<stop  offset="0.99" style="stop-color:#FFFFFE"/>
		<stop  offset="1" style="stop-color:#FFFFFF"/>
	</radialGradient>
	<path style="fill:url(#SVGID_00000111881189705013512280000014541114167953325724_);" d="M363.7,71.2c0,35.1-28.5,63.6-63.6,63.6
		s-63.6-28.5-63.6-63.6S265,7.6,300.1,7.6C335.2,7.7,363.7,36.1,363.7,71.2z"/>
	<path class="st17" d="M363.6,71.2c0,35.1-28.5,63.6-63.6,63.6s-63.5-28.5-63.5-63.6S265,7.6,300.1,7.6S363.6,36.2,363.6,71.2
		L363.6,71.2z"/>
	<path class="st18" d="M356.3,71.2c0,31.1-25.2,56.2-56.2,56.2s-56.2-25.2-56.2-56.2S269,15,300.1,15S356.3,40.1,356.3,71.2z"/>
	
		<linearGradient id="SVGID_00000111171412445556161360000008177558899322149546_" gradientUnits="userSpaceOnUse" x1="305.2451" y1="12.6771" x2="269.0749" y2="48.8474" gradientTransform="matrix(1 0 0 -1 0 109.7323)">
		<stop  offset="0" style="stop-color:#5D1512"/>
		<stop  offset="0.1" style="stop-color:#611912"/>
		<stop  offset="0.26" style="stop-color:#732B23"/>
		<stop  offset="0.48" style="stop-color:#914D44"/>
		<stop  offset="0.73" style="stop-color:#BE8880"/>
		<stop  offset="1" style="stop-color:#FBDEDE"/>
	</linearGradient>
	
		<path style="fill:#E2161C;stroke:url(#SVGID_00000111171412445556161360000008177558899322149546_);stroke-width:3.14;stroke-miterlimit:10;" d="
		M311.2,79c0,13.2-10.8,24-24,24s-24-10.8-24-24s10.8-24,24-24S311.2,65.7,311.2,79z"/>
	
		<linearGradient id="SVGID_00000068670284551532012740000009709221762197061802_" gradientUnits="userSpaceOnUse" x1="330.8552" y1="29.9671" x2="294.6849" y2="66.1375" gradientTransform="matrix(1 0 0 -1 0 109.7323)">
		<stop  offset="0" style="stop-color:#5D1512"/>
		<stop  offset="0.1" style="stop-color:#611912"/>
		<stop  offset="0.26" style="stop-color:#732B23"/>
		<stop  offset="0.48" style="stop-color:#914D44"/>
		<stop  offset="0.73" style="stop-color:#BE8880"/>
		<stop  offset="1" style="stop-color:#FBDEDE"/>
	</linearGradient>
	
		<path style="fill:#E2161C;stroke:url(#SVGID_00000068670284551532012740000009709221762197061802_);stroke-width:3.14;stroke-miterlimit:10;" d="
		M336.8,61.7c0,13.2-10.8,24-24,24s-24-10.8-24-24s10.8-24,24-24S336.8,48.4,336.8,61.7z"/>
</g>
</svg>
