<?xml version="1.0" encoding="utf-8"?>
<!-- Generator: Adobe Illustrator 26.3.1, SVG Export Plug-In . SVG Version: 6.00 Build 0)  -->
<svg version="1.1" id="Layer" xmlns="http://www.w3.org/2000/svg" xmlns:xlink="http://www.w3.org/1999/xlink" x="0px" y="0px"
	 viewBox="0 0 1173.5 141.7" style="enable-background:new 0 0 1173.5 141.7;" xml:space="preserve">
<style type="text/css">
	.st0{fill:#FFFFFF;fill-opacity:0;}
	.st1{fill:#030404;}
	.st2{fill:url(#SVGID_1_);}
	.st3{fill:url(#SVGID_00000162323887253017332280000004882367720532109202_);}
	.st4{opacity:8.000000e-02;fill:#030404;enable-background:new    ;}
	.st5{fill:#135829;}
	.st6{fill:#19291C;}
	.st7{fill:#FFFFFF;}
	.st8{fill:url(#SVGID_00000048489054865756600820000000492277915936636066_);}
	.st9{fill:#46AC36;}
	.st10{fill:#07562C;stroke:#1D4422;stroke-width:3.45;stroke-miterlimit:10;}
	.st11{opacity:5.000000e-02;fill:#030404;enable-background:new    ;}
	.st12{fill:url(#SVGID_00000030488700957975418730000012133612809646523787_);}
	.st13{fill:url(#SVGID_00000067203550759282599790000005630207994191855760_);}
	.st14{fill:#115729;}
	.st15{fill:#18291B;}
</style>
<rect y="0" class="st0" width="1173.5" height="141.7"/>
<g id="animal">
	<rect x="698.5" y="17.2" class="st1" width="107.6" height="107.6"/>
	
		<linearGradient id="SVGID_1_" gradientUnits="userSpaceOnUse" x1="-309.0338" y1="-1457.4357" x2="-237.3202" y2="-1385.7422" gradientTransform="matrix(0.7071 -0.7071 -0.7071 -0.7071 -59.8048 -1127.3955)">
		<stop  offset="0" style="stop-color:#1F4D23"/>
		<stop  offset="0.43" style="stop-color:#4C6F30"/>
		<stop  offset="1" style="stop-color:#96AA46"/>
	</linearGradient>
	<rect x="701.5" y="20.3" class="st2" width="101.4" height="101.4"/>
	
		<radialGradient id="SVGID_00000069382262231605043530000017839679521563753655_" cx="752.245" cy="32.5473" r="45.775" gradientTransform="matrix(1 0 0 -1 0 103.5323)" gradientUnits="userSpaceOnUse">
		<stop  offset="0.25" style="stop-color:#96AA46"/>
		<stop  offset="1" style="stop-color:#3A7A31"/>
	</radialGradient>
	
		<rect x="706.5" y="25.2" style="fill:url(#SVGID_00000069382262231605043530000017839679521563753655_);" width="91.5" height="91.6"/>
	<path id="darker" class="st4" d="M803,121.7H701.6V66.1c0,0,31.9,4.9,50.7,4.9s50.7-4.9,50.7-4.9V121.7z"/>
	<path class="st5" d="M741.5,45.2c-0.3,0-2.8,0.3-4.2,2.4c-0.6,0.8-0.9,1.6-1,2.6c-0.3,1.9-1,5.3,0.3,9.6c0.7,2,1.5,4.4,3.7,6
		c0.7,0.5,2.1,1.5,3.9,1.3c2-0.2,3.2-1.6,3.6-2.2c1.7-2,1.7-4.3,1.8-6.8c0-1.2,0-4.9-1.9-8.8c-1.3-2.6-2.4-3.3-2.9-3.5
		C743.4,45,741.9,45.1,741.5,45.2L741.5,45.2z"/>
	<path class="st5" d="M765.3,43.8c-0.3-0.1-2.7-0.6-4.8,0.8c-0.8,0.5-1.4,1.2-1.9,2.1c-1,1.6-2.8,4.6-3,9.1c-0.1,2.2-0.2,4.7,1.4,7
		c0.5,0.7,1.5,2.1,3.2,2.5c1.9,0.5,3.6-0.4,4.1-0.8c2.2-1.3,3.2-3.5,4.1-5.8c0.4-1.1,1.7-4.6,1.3-8.9c-0.3-2.8-1.1-3.9-1.5-4.3
		C767.1,44.3,765.7,43.9,765.3,43.8L765.3,43.8z"/>
	<path class="st5" d="M725.4,59c-0.3,0.1-2.7,0.6-4,2.8c-0.5,0.9-0.7,1.6-0.8,2.7c-0.2,1.9-0.5,5.3,1.2,9.5c0.9,1.9,1.8,4.2,4.3,5.7
		c0.8,0.4,2.2,1.2,4,0.9c2-0.3,3-1.9,3.5-2.5c1.5-2.2,1.4-4.5,1.2-7c-0.1-1.2-0.4-4.8-2.8-8.5c-1.5-2.4-2.7-3-3.3-3.3
		C727.2,58.7,725.9,59,725.4,59L725.4,59z"/>
	<path class="st5" d="M779.7,57c-0.3-0.1-2.7-0.6-4.8,0.9c-0.8,0.6-1.3,1.3-1.8,2.2c-1,1.7-2.8,4.7-2.8,9.1c0,2.2-0.1,4.7,1.5,6.9
		c0.5,0.7,1.5,2.1,3.3,2.4c1.9,0.4,3.5-0.5,4.1-0.9c2.2-1.3,3.1-3.5,4-5.9c0.4-1.1,1.6-4.6,1-8.9c-0.3-2.8-1.2-3.9-1.6-4.3
		C781.5,57.4,780.2,57.1,779.7,57L779.7,57L779.7,57z"/>
	<path class="st6" d="M779.1,59.7c-0.2,0-2-0.4-3.5,0.7c-0.6,0.4-1,1-1.4,1.5c-0.7,1.3-2,3.5-2.1,6.8c0,1.6-0.1,3.4,1.2,5.2
		c0.3,0.5,1.1,1.6,2.4,1.8c1.5,0.3,2.7-0.4,3.1-0.6c1.6-1,2.2-2.6,2.9-4.4c0.3-0.9,1.2-3.4,0.8-6.6c-0.3-2.1-1-2.8-1.2-3.2
		C780.5,60,779.5,59.7,779.1,59.7L779.1,59.7L779.1,59.7z"/>
	<path class="st6" d="M764.6,46.6c-0.2-0.1-2-0.4-3.5,0.5c-0.6,0.4-1,0.9-1.4,1.5c-0.8,1.2-2.1,3.4-2.2,6.7c-0.1,1.5-0.2,3.5,1,5.2
		c0.3,0.5,1,1.5,2.3,1.9c1.5,0.3,2.7-0.3,3.1-0.5c1.6-1,2.3-2.5,3-4.2c0.3-0.9,1.3-3.4,1-6.6c-0.3-2.1-0.9-2.8-1.1-3.2
		C765.9,47,765,46.7,764.6,46.6L764.6,46.6L764.6,46.6z"/>
	<path class="st6" d="M741.8,48.1c-0.2,0-2,0.3-3.1,1.7c-0.4,0.6-0.6,1.2-0.8,1.9c-0.3,1.4-0.8,3.9,0.3,7.1c0.5,1.5,1,3.3,2.8,4.5
		c0.5,0.3,1.5,1,2.8,0.9c1.5-0.2,2.3-1.2,2.7-1.5c1.2-1.5,1.3-3.2,1.4-5c0-0.9,0-3.6-1.5-6.5c-1-1.9-1.8-2.4-2.2-2.6
		C743.2,47.9,742.2,48,741.8,48.1L741.8,48.1z"/>
	<path class="st6" d="M726,61.5c-0.2,0-2.1,0.4-3,2.2c-0.4,0.7-0.5,1.3-0.6,2.1c-0.2,1.5-0.4,4.1,1,7.2c0.6,1.5,1.4,3.3,3.3,4.3
		c0.6,0.3,1.7,0.9,3,0.7c1.5-0.3,2.3-1.5,2.6-1.9c1.1-1.6,1-3.4,1-5.3c-0.1-0.9-0.3-3.7-2.1-6.6c-1.1-1.9-2.1-2.3-2.5-2.5
		C727.4,61.3,726.2,61.5,726,61.5L726,61.5z"/>
	<path class="st5" d="M753,66.1c-1.2,0.1-2.5,0.1-4,0.9c-1.6,0.9-2.6,2.2-3.5,3.3c-0.8,1-0.7,1.1-1.8,2.9c-1,1.6-1.5,2.5-2.5,3.5
		c-1.1,1.3-2.2,2.1-4.2,3.6c-2.2,1.6-2.3,1.6-2.9,2.2c-1.5,1.7-1.8,3.6-2.1,4.9c-0.2,1.2-0.6,3.4,0.3,6c0.4,1.1,1.2,3.3,3.2,4.2
		c0.8,0.3,1.5,0.4,3.5,0.3c3.2-0.2,5.3-0.8,7.2-1.2c2.2-0.5,4.6-1,7.5-1.1c3.5-0.1,6.6,0.5,8.3,0.8c1.9,0.3,3.3,0.8,6,1
		c2.2,0.3,3.4,0.2,4.7-0.3c0.8-0.3,2.2-0.7,3.2-1.9c1.1-1.4,1.2-2.8,1.2-4.4c0.1-1,0.1-3.5-1.4-6.5c-0.6-1.3-1.1-1.9-3.1-4.3
		c-5.3-6.6-5.6-7.4-7.8-9.2c-1.3-1.1-2.6-2.2-4.6-3.2C759.2,67.2,756.5,65.9,753,66.1L753,66.1L753,66.1z"/>
	<path class="st6" d="M753.2,68.4c-1,0.1-2.2,0.1-3.5,0.8c-1.4,0.8-2.2,1.9-2.9,2.8c-0.7,0.9-0.6,0.9-1.5,2.6
		c-0.9,1.4-1.4,2.2-2.2,3c-1,1.1-1.9,1.8-3.6,3.1c-1.9,1.5-2,1.3-2.6,2c-1.3,1.5-2.4,3.7-2.7,4.8c-0.2,1-0.5,2.9,0.3,5.2
		c0.3,1,1,2.8,2.8,3.6c0.7,0.3,2.2-0.1,3.8-0.3c2.8-0.2,4.7-0.7,6.3-1c1.9-0.4,4-0.9,6.5-0.9c3-0.1,5.7,0.4,7.2,0.7
		c1.6,0.3,2.8,0.7,5.1,0.9c1.9,0.2,4.2,0.9,5.3,0.6c0.7-0.2,1.8-0.7,2.8-1.8c1-1.1,0.7-3.5,0.8-4.9c0.1-0.9-0.7-2.8-2.2-5.3
		c-0.7-1.2-1-1.6-2.7-3.7c-4.6-5.7-4.8-6.4-6.6-7.9c-1.1-0.9-2.2-1.9-4-2.8C758.6,69.3,756.3,68.2,753.2,68.4L753.2,68.4L753.2,68.4
		z"/>
</g>
<path class="st7" d="M654.3,65.9V54.5h11.5v11.5H654.3z M654.3,97V85.5h11.5V97H654.3z"/>
<g id="tagPlant">
	<path class="st1" d="M636.4,70.9c0,29.5-24,53.5-53.5,53.5s-53.5-24-53.5-53.5s24-53.5,53.5-53.5S636.4,41.3,636.4,70.9z"/>
	
		<linearGradient id="SVGID_00000152953008917233530260000017427553020180737935_" gradientUnits="userSpaceOnUse" x1="582.99" y1="-16.9477" x2="582.99" y2="82.2023" gradientTransform="matrix(1 0 0 -1 0 103.5323)">
		<stop  offset="0" style="stop-color:#0F6936"/>
		<stop  offset="3.000000e-02" style="stop-color:#126A36"/>
		<stop  offset="5.000000e-02" style="stop-color:#087038"/>
		<stop  offset="7.000000e-02" style="stop-color:#097939"/>
		<stop  offset="8.000000e-02" style="stop-color:#0B8439"/>
		<stop  offset="8.000000e-02" style="stop-color:#0A9039"/>
		<stop  offset="0.12" style="stop-color:#0F9039"/>
		<stop  offset="0.68" style="stop-color:#46AC36"/>
		<stop  offset="1" style="stop-color:#6EB74B"/>
	</linearGradient>
	<path style="fill:url(#SVGID_00000152953008917233530260000017427553020180737935_);" d="M632.5,70.9c0,27.3-22.2,49.5-49.5,49.5
		s-49.5-22.2-49.5-49.5s22.1-49.6,49.4-49.6S632.5,43.5,632.5,70.9L632.5,70.9z"/>
	<path class="st9" d="M627.7,70.9c0,24.7-20,44.8-44.8,44.8s-44.7-20.1-44.7-44.8s20-44.8,44.8-44.8S627.7,46.2,627.7,70.9z"/>
	<path id="leaf" class="st10" d="M582.9,50.9c-11.3,1.5-20,8.9-20,20c0,2.8,0.5,5.3,1.5,7.7c-2.1,1.5-5.1,3.2-6.6,3.8
		c-2.7,0.9-7.8,0.3-8,0.7s1.5,5.2,2.1,5.3c0.5,0.3,5.3,0.2,8-0.7c1.9-0.7,5.4-2.8,7.4-4.4c3.6,4.6,9.3,7.6,15.7,7.6
		c11,0,19.9-7,19.9-18c0-4.3,1-9.7,2.6-13c1.7-3.8,10.5-6.1,10.5-6.1C615.2,50.9,587.5,50.2,582.9,50.9L582.9,50.9L582.9,50.9z"/>
	<path id="darker-2" class="st11" d="M632.5,70.9c0-1,0-2-0.1-2.9c-10,2.8-27.2,6.3-49.4,6.3s-38.9-4.4-49.4-8
		c-0.2,1.6-0.3,3.1-0.3,4.7c0,27.3,22.2,49.5,49.5,49.5S632.5,98.3,632.5,70.9z"/>
</g>
<path class="st7" d="M479.7,108.5l34-72.7h8.7l-34,72.7H479.7L479.7,108.5z"/>
<g id="tagAnimal">
	<path class="st1" d="M471.8,70.9c0,29.5-24,53.5-53.5,53.5s-53.5-24-53.5-53.5s24-53.5,53.5-53.5S471.8,41.3,471.8,70.9z"/>
	
		<linearGradient id="SVGID_00000132064335986575941840000005563047398076422060_" gradientUnits="userSpaceOnUse" x1="418.35" y1="136.4123" x2="418.35" y2="37.2623" gradientTransform="matrix(1 0 0 1 0 -15.9323)">
		<stop  offset="0" style="stop-color:#204D23"/>
		<stop  offset="1" style="stop-color:#96AA47"/>
	</linearGradient>
	<path style="fill:url(#SVGID_00000132064335986575941840000005563047398076422060_);" d="M467.9,70.9c0,27.3-22.2,49.5-49.5,49.5
		s-49.5-22.2-49.5-49.5s22.1-49.6,49.4-49.6S467.9,43.5,467.9,70.9z"/>
	
		<radialGradient id="SVGID_00000097468294919520053000000009970988143980929966_" cx="418.18" cy="86.6523" r="44.2" fx="393.32" fy="86.6523" gradientTransform="matrix(1 0 0 1 0 -15.9323)" gradientUnits="userSpaceOnUse">
		<stop  offset="0.24" style="stop-color:#96AA47"/>
		<stop  offset="0.39" style="stop-color:#89A242"/>
		<stop  offset="0.67" style="stop-color:#67912E"/>
		<stop  offset="1" style="stop-color:#397931"/>
	</radialGradient>
	<path style="fill:url(#SVGID_00000097468294919520053000000009970988143980929966_);" d="M463,70.9c0,24.7-20,44.8-44.8,44.8
		s-44.7-20.1-44.7-44.8s20-44.8,44.8-44.8S463,46.2,463,70.9z"/>
	<path id="darker-3" class="st4" d="M467.9,70.9c0-1,0-2-0.1-2.9c-10,2.8-27.2,6.3-49.4,6.3s-38.9-4.4-49.4-8
		c-0.2,1.6-0.3,3.1-0.3,4.7c0,27.3,22.2,49.5,49.5,49.5S467.9,98.3,467.9,70.9L467.9,70.9z"/>
	<path class="st14" d="M406.7,40.6c-0.3,0-2.8,0.3-4.2,2.4c-0.6,0.8-0.9,1.6-1,2.6c-0.4,1.9-1,5.3,0.4,9.6c0.7,2,1.5,4.4,3.7,6
		c0.7,0.5,2.1,1.5,3.9,1.3c2-0.2,3.2-1.6,3.6-2.2c1.7-2,1.7-4.3,1.8-6.8c0-1.2,0-4.9-1.9-8.8c-1.3-2.6-2.4-3.3-2.9-3.5
		C408.6,40.3,407.1,40.5,406.7,40.6L406.7,40.6z"/>
	<path class="st14" d="M430.5,39.1c-0.3-0.1-2.7-0.6-4.8,0.8c-0.8,0.5-1.4,1.2-1.9,2.1c-1,1.6-2.9,4.6-3,9.1c-0.1,2.2-0.2,4.7,1.4,7
		c0.5,0.7,1.5,2.1,3.2,2.5c1.9,0.5,3.6-0.4,4.1-0.8c2.2-1.3,3.2-3.5,4.1-5.8c0.4-1.1,1.7-4.6,1.3-8.9c-0.3-2.8-1.1-3.9-1.5-4.3
		C432.3,39.6,430.9,39.3,430.5,39.1L430.5,39.1z"/>
	<path class="st14" d="M390.6,54.4c-0.3,0.1-2.7,0.6-4,2.8c-0.5,0.9-0.7,1.6-0.8,2.7c-0.2,1.9-0.5,5.3,1.2,9.5
		c0.9,1.9,1.8,4.2,4.3,5.7c0.8,0.4,2.2,1.2,4,0.9c2-0.3,3-1.9,3.5-2.5c1.5-2.2,1.4-4.5,1.2-7c-0.1-1.2-0.4-4.8-2.8-8.5
		c-1.5-2.4-2.7-3-3.3-3.3C392.4,54,391.1,54.3,390.6,54.4L390.6,54.4z"/>
	<path class="st14" d="M444.9,52.3c-0.3-0.1-2.7-0.6-4.8,0.9c-0.8,0.6-1.3,1.3-1.8,2.2c-1,1.7-2.8,4.7-2.8,9.2
		c0,2.2-0.1,4.7,1.5,6.9c0.5,0.7,1.5,2.1,3.3,2.4c1.9,0.4,3.5-0.5,4.1-0.9c2.2-1.3,3.1-3.5,4-5.9c0.4-1.1,1.6-4.6,1-8.9
		c-0.4-2.8-1.2-3.9-1.6-4.3C446.7,52.8,445.4,52.4,444.9,52.3L444.9,52.3z"/>
	<path class="st15" d="M444.3,55.1c-0.2,0-2-0.4-3.5,0.7c-0.6,0.4-1,1-1.4,1.5c-0.7,1.3-2,3.5-2.1,6.8c0,1.6-0.1,3.4,1.2,5.2
		c0.4,0.5,1.1,1.6,2.4,1.8c1.5,0.3,2.7-0.4,3.1-0.6c1.6-1,2.2-2.6,2.9-4.4c0.4-0.9,1.2-3.5,0.8-6.6c-0.3-2.1-1-2.8-1.2-3.2
		C445.7,55.3,444.7,55.1,444.3,55.1L444.3,55.1z"/>
	<path class="st15" d="M429.8,42c-0.2-0.1-2-0.4-3.5,0.5c-0.6,0.4-1,0.9-1.4,1.5c-0.8,1.2-2.1,3.4-2.2,6.7c-0.1,1.5-0.2,3.5,1,5.2
		c0.4,0.5,1,1.5,2.3,1.9c1.5,0.3,2.7-0.3,3.1-0.5c1.6-1,2.3-2.5,3-4.2c0.4-0.9,1.3-3.4,1-6.6c-0.3-2.1-0.9-2.8-1.1-3.2
		C431.1,42.3,430.2,42,429.8,42L429.8,42z"/>
	<path class="st15" d="M407,43.4c-0.2,0-2,0.3-3.1,1.7c-0.4,0.6-0.6,1.2-0.8,1.9c-0.3,1.4-0.8,3.9,0.3,7.1c0.5,1.5,1,3.3,2.8,4.5
		c0.5,0.3,1.5,1,2.9,1c1.5-0.2,2.3-1.2,2.7-1.5c1.2-1.5,1.3-3.2,1.4-5c0-0.9,0-3.6-1.5-6.5c-1-1.9-1.8-2.4-2.2-2.6
		C408.4,43.3,407.4,43.4,407,43.4L407,43.4z"/>
	<path class="st15" d="M391.2,56.9c-0.2,0-2.1,0.4-3,2.2c-0.4,0.7-0.5,1.3-0.6,2.1c-0.2,1.5-0.4,4.1,1,7.2c0.6,1.5,1.4,3.3,3.3,4.3
		c0.6,0.3,1.7,0.9,3,0.7c1.5-0.3,2.3-1.5,2.6-1.9c1.1-1.6,1-3.4,1-5.3c-0.1-0.9-0.4-3.7-2.1-6.6c-1.1-1.9-2.1-2.3-2.5-2.5
		C392.6,56.6,391.4,56.9,391.2,56.9L391.2,56.9z"/>
	<path class="st14" d="M418.2,61.5c-1.2,0.1-2.5,0.1-4,0.9c-1.6,0.9-2.6,2.2-3.5,3.3c-0.8,1-0.7,1.1-1.8,2.9c-1,1.6-1.5,2.5-2.5,3.5
		c-1.1,1.3-2.2,2.1-4.2,3.6c-2.2,1.6-2.3,1.6-2.9,2.2c-1.5,1.7-1.8,3.6-2.1,4.9c-0.2,1.2-0.6,3.4,0.4,6c0.4,1.1,1.2,3.3,3.2,4.2
		c0.8,0.3,1.5,0.4,3.5,0.3c3.2-0.2,5.4-0.8,7.2-1.2c2.2-0.5,4.6-1,7.5-1.1c3.5-0.1,6.6,0.5,8.3,0.8c1.9,0.3,3.3,0.8,6,1
		c2.2,0.3,3.4,0.2,4.7-0.3c0.8-0.3,2.2-0.7,3.2-1.9c1.1-1.4,1.2-2.8,1.2-4.4c0.1-1,0.1-3.5-1.4-6.5c-0.6-1.3-1.1-1.9-3.1-4.3
		c-5.4-6.6-5.6-7.4-7.8-9.2c-1.3-1.1-2.6-2.2-4.6-3.2C424.4,62.6,421.7,61.3,418.2,61.5L418.2,61.5L418.2,61.5z"/>
	<path class="st15" d="M418.4,63.7c-1,0.1-2.2,0.1-3.5,0.8c-1.4,0.8-2.2,1.9-2.9,2.8c-0.7,0.9-0.6,0.9-1.5,2.6
		c-0.9,1.4-1.4,2.2-2.2,3c-1,1.1-1.9,1.8-3.6,3.1c-1.9,1.5-2,1.3-2.6,2c-1.3,1.5-2.4,3.7-2.7,4.8c-0.2,1-0.5,2.9,0.3,5.2
		c0.4,1,1,2.8,2.8,3.6c0.7,0.3,2.2-0.1,3.8-0.3c2.8-0.2,4.7-0.7,6.3-1c1.9-0.4,4-0.9,6.5-0.9c3-0.1,5.7,0.4,7.2,0.7
		c1.6,0.3,2.9,0.7,5.1,0.9c1.9,0.2,4.2,0.9,5.3,0.6c0.7-0.2,1.8-0.7,2.8-1.8c1-1.1,0.7-3.5,0.8-4.9c0.1-0.9-0.7-2.8-2.2-5.3
		c-0.7-1.2-1-1.6-2.7-3.7c-4.6-5.7-4.8-6.4-6.6-7.9c-1.1-0.9-2.2-1.9-4-2.8C423.8,64.7,421.5,63.5,418.4,63.7L418.4,63.7z"/>
</g>
</svg>
