<?xml version="1.0" encoding="utf-8"?>
<!-- Generator: Adobe Illustrator 26.3.1, SVG Export Plug-In . SVG Version: 6.00 Build 0)  -->
<svg version="1.1" id="animal" xmlns="http://www.w3.org/2000/svg" xmlns:xlink="http://www.w3.org/1999/xlink" x="0px" y="0px"
	 viewBox="0 0 124.7 124.7" style="enable-background:new 0 0 124.7 124.7;" xml:space="preserve">
<style type="text/css">
	.st0{fill:#020203;}
	.st1{fill:url(#SVGID_1_);}
	.st2{fill:url(#SVGID_00000150794656763814483100000001089111925595060921_);}
	.st3{opacity:8.000000e-02;fill:#020203;enable-background:new    ;}
	.st4{fill:#005510;}
	.st5{fill:#022A00;}
</style>
<g id="tagAnimal">
	<path class="st0" d="M124.3,62.4c0,34.2-27.8,62-62,62s-62-27.8-62-62s27.8-62,62-62C96.6,0.4,124.3,28.1,124.3,62.4z"/>
	
		<linearGradient id="SVGID_1_" gradientUnits="userSpaceOnUse" x1="62.4" y1="136.8079" x2="62.4" y2="21.9079" gradientTransform="matrix(1 0 0 1 0 -17.0079)">
		<stop  offset="0" style="stop-color:#104D00"/>
		<stop  offset="1" style="stop-color:#94A847"/>
	</linearGradient>
	<path class="st1" d="M119.8,62.4c0,31.7-25.7,57.4-57.4,57.4S5,94.1,5,62.4S30.6,4.9,62.3,4.9C94.1,4.9,119.8,30.6,119.8,62.4z"/>
	
		<radialGradient id="SVGID_00000122001559597369560880000011089180120618246843_" cx="62.1868" cy="79.1169" r="51.2231" fx="33.3787" fy="77.6512" gradientTransform="matrix(1 0 0 1 0 -17.0079)" gradientUnits="userSpaceOnUse">
		<stop  offset="0.2407" style="stop-color:#94A847"/>
		<stop  offset="0.3904" style="stop-color:#87A140"/>
		<stop  offset="0.6656" style="stop-color:#66902E"/>
		<stop  offset="1" style="stop-color:#357714"/>
	</radialGradient>
	<path style="fill:url(#SVGID_00000122001559597369560880000011089180120618246843_);" d="M114.2,62.4c0,28.6-23.2,51.9-51.9,51.9
		S10.5,91,10.5,62.4s23.2-51.9,51.9-51.9C91,10.5,114.2,33.7,114.2,62.4z"/>
	<path id="darker" class="st3" d="M119.8,62.4c0-1.2,0-2.3-0.1-3.4c-11.6,3.2-31.5,7.3-57.3,7.3c-25.1,0-45.1-5.1-57.2-9.3
		c-0.2,1.8-0.3,3.6-0.3,5.4c0,31.7,25.7,57.4,57.4,57.4C94.1,119.8,119.8,94.1,119.8,62.4z"/>
	<path class="st4" d="M48.9,27.2c-0.3,0-3.2,0.4-4.9,2.8c-0.7,0.9-1,1.9-1.2,3c-0.4,2.2-1.2,6.2,0.4,11.1c0.8,2.3,1.7,5.1,4.3,7
		c0.8,0.6,2.4,1.7,4.5,1.5c2.3-0.2,3.7-1.9,4.2-2.5c2-2.3,2-5,2.1-7.9c0-1.4,0-5.7-2.2-10.2c-1.5-3-2.8-3.8-3.4-4.1
		C51.1,26.9,49.4,27.1,48.9,27.2z"/>
	<path class="st4" d="M76.5,25.5c-0.3-0.1-3.1-0.7-5.5,0.9c-0.9,0.6-1.6,1.4-2.2,2.4c-1.2,1.9-3.3,5.3-3.5,10.5
		c-0.1,2.5-0.2,5.4,1.6,8.1c0.6,0.8,1.7,2.4,3.7,2.9c2.2,0.6,4.2-0.5,4.8-0.9c2.6-1.5,3.7-4,4.8-6.7c0.5-1.3,2-5.3,1.5-10.3
		c-0.3-3.3-1.3-4.5-1.8-5C78.6,26.1,77,25.7,76.5,25.5z"/>
	<path class="st4" d="M30.2,43.2c-0.3,0.1-3.1,0.7-4.6,3.2c-0.6,1-0.8,1.9-0.9,3.1c-0.2,2.2-0.6,6.2,1.4,11c1,2.2,2.1,4.9,5,6.6
		c0.9,0.5,2.6,1.4,4.6,1c2.3-0.4,3.5-2.2,4-2.9c1.7-2.5,1.6-5.2,1.4-8.1c-0.1-1.4-0.5-5.6-3.2-9.9c-1.7-2.8-3.1-3.5-3.8-3.8
		C32.3,42.8,30.8,43.1,30.2,43.2z"/>
	<path class="st4" d="M93.2,40.8c-0.3-0.1-3.1-0.7-5.5,1c-0.9,0.7-1.5,1.5-2.1,2.5c-1.1,2-3.2,5.4-3.2,10.6c0,2.5-0.1,5.4,1.8,8
		c0.6,0.8,1.8,2.4,3.8,2.8c2.2,0.5,4.1-0.6,4.8-1c2.6-1.5,3.6-4.1,4.6-6.8c0.5-1.3,1.9-5.3,1.2-10.3c-0.4-3.3-1.4-4.5-1.9-5
		C95.3,41.3,93.7,40.9,93.2,40.8z"/>
	<path class="st5" d="M92.5,44c-0.2,0-2.3-0.5-4.1,0.8c-0.7,0.5-1.1,1.1-1.6,1.8c-0.8,1.5-2.3,4-2.4,7.9c0,1.8-0.1,4,1.4,6
		c0.4,0.6,1.3,1.8,2.8,2.1c1.7,0.4,3.1-0.5,3.6-0.7c1.9-1.2,2.6-3,3.4-5.1c0.4-1,1.4-4,0.9-7.7c-0.3-2.4-1.1-3.3-1.4-3.7
		C94.1,44.3,92.9,44,92.5,44z"/>
	<path class="st5" d="M75.7,28.8c-0.2-0.1-2.3-0.5-4.1,0.6c-0.7,0.5-1.1,1-1.6,1.8c-0.9,1.4-2.4,3.9-2.6,7.8c-0.1,1.8-0.2,4,1.2,6
		c0.4,0.6,1.2,1.8,2.7,2.2c1.7,0.4,3.1-0.4,3.6-0.6c1.9-1.1,2.7-2.9,3.5-4.9c0.4-1,1.5-3.9,1.1-7.6c-0.3-2.4-1-3.3-1.3-3.7
		C77.2,29.2,76.1,28.9,75.7,28.8z"/>
	<path class="st5" d="M49.3,30.5c-0.2,0-2.3,0.3-3.6,2c-0.5,0.7-0.7,1.4-0.9,2.2c-0.3,1.6-0.9,4.5,0.3,8.2c0.6,1.7,1.2,3.8,3.2,5.2
		c0.6,0.4,1.8,1.2,3.3,1.1c1.7-0.2,2.7-1.4,3.1-1.8c1.4-1.7,1.5-3.7,1.6-5.8c0-1,0-4.2-1.7-7.5c-1.1-2.2-2.1-2.8-2.5-3
		C50.9,30.3,49.7,30.4,49.3,30.5z"/>
	<path class="st5" d="M30.9,46.1c-0.2,0-2.4,0.5-3.5,2.5c-0.5,0.8-0.6,1.5-0.7,2.4c-0.2,1.7-0.5,4.8,1.1,8.4c0.7,1.7,1.6,3.8,3.8,5
		c0.7,0.4,2,1.1,3.5,0.8c1.7-0.3,2.7-1.7,3-2.2c1.3-1.9,1.2-4,1.1-6.2c-0.1-1.1-0.4-4.3-2.4-7.6c-1.3-2.2-2.4-2.7-2.9-2.9
		C32.5,45.8,31.2,46.1,30.9,46.1z"/>
	<path class="st4" d="M62.2,51.4c-1.4,0.1-2.9,0.1-4.6,1c-1.9,1-3,2.5-4,3.8c-0.9,1.2-0.8,1.3-2.1,3.4c-1.2,1.8-1.8,2.9-2.9,4.1
		c-1.3,1.5-2.6,2.4-4.9,4.2c-2.5,1.9-2.7,1.8-3.4,2.6c-1.7,2-2.1,4.2-2.4,5.7c-0.2,1.4-0.7,4,0.4,7c0.5,1.3,1.4,3.8,3.7,4.9
		c0.9,0.4,1.8,0.5,4,0.4c3.7-0.2,6.2-0.9,8.4-1.4c2.6-0.6,5.3-1.2,8.7-1.3c4.1-0.1,7.7,0.6,9.6,0.9c2.2,0.4,3.8,0.9,6.9,1.2
		c2.6,0.3,3.9,0.2,5.4-0.3c0.9-0.3,2.5-0.8,3.7-2.2c1.3-1.6,1.4-3.3,1.4-5.1c0.1-1.2,0.1-4.1-1.6-7.5c-0.7-1.5-1.3-2.2-3.6-5
		c-6.2-7.7-6.5-8.6-9-10.7c-1.5-1.3-3-2.6-5.3-3.7C69.4,52.7,66.3,51.2,62.2,51.4z"/>
	<path class="st5" d="M62.5,54c-1.2,0.1-2.5,0.1-4,0.9c-1.6,0.9-2.6,2.2-3.4,3.3c-0.8,1-0.7,1.1-1.8,3c-1,1.6-1.6,2.5-2.5,3.5
		c-1.1,1.3-2.2,2.1-4.2,3.6c-2.2,1.7-2.3,1.5-3,2.3c-1.5,1.7-2.8,4.3-3.1,5.5c-0.2,1.2-0.6,3.4,0.3,6c0.4,1.2,1.2,3.3,3.2,4.2
		c0.8,0.4,2.6-0.1,4.4-0.3c3.2-0.2,5.4-0.8,7.3-1.2c2.2-0.5,4.6-1,7.5-1.1c3.5-0.1,6.6,0.5,8.3,0.8c1.9,0.4,3.3,0.8,5.9,1
		c2.2,0.2,4.9,1.1,6.1,0.7c0.8-0.2,2.1-0.8,3.2-2.1c1.1-1.3,0.8-4.1,0.9-5.7c0.1-1-0.8-3.2-2.5-6.1c-0.8-1.4-1.2-1.9-3.1-4.3
		c-5.3-6.6-5.6-7.4-7.7-9.2c-1.3-1.1-2.6-2.2-4.6-3.2C68.7,55.1,66,53.8,62.5,54z"/>
</g>
</svg>
