<?xml version="1.0" encoding="UTF-8"?><svg id="animal" xmlns="http://www.w3.org/2000/svg" xmlns:xlink="http://www.w3.org/1999/xlink" viewBox="0 0 124.7 124.7"><defs><style>.cls-1,.cls-2{fill:#020203;}.cls-2{isolation:isolate;opacity:.08;}.cls-3{fill:url(#radial-gradient);}.cls-4{fill:url(#linear-gradient);}</style><linearGradient id="linear-gradient" x1="-914.52" y1="-1277.51" x2="-831.44" y2="-1194.42" gradientTransform="translate(-194.32 -1428.91) rotate(-45) scale(1 -1)" gradientUnits="userSpaceOnUse"><stop offset="0" stop-color="#030303"/><stop offset=".43" stop-color="#5c5c5c"/><stop offset="1" stop-color="#979797"/></linearGradient><radialGradient id="radial-gradient" cx="62.35" cy="69.35" fx="62.35" fy="69.35" r="53.05" gradientTransform="translate(0 131.7) scale(1 -1)" gradientUnits="userSpaceOnUse"><stop offset=".25" stop-color="#979797"/><stop offset="1" stop-color="#4a4a4a"/></radialGradient></defs><g id="animal-2"><path class="cls-1" d="M62.35,0h0c34.43,0,62.35,27.92,62.35,62.35h0c0,34.43-27.92,62.35-62.35,62.35h0C27.92,124.7,0,96.78,0,62.35H0C0,27.92,27.92,0,62.35,0Z"/><path class="cls-4" d="M62.35,3.6h0c32.45,0,58.75,26.3,58.75,58.75h0c0,32.45-26.3,58.75-58.75,58.75h0C29.9,121.1,3.6,94.8,3.6,62.35h0C3.6,29.9,29.9,3.6,62.35,3.6Z"/><path class="cls-3" d="M62.35,9.3h0c29.3,0,53.05,23.75,53.05,53.05h0c0,29.3-23.75,53.05-53.05,53.05h0c-29.3,0-53.05-23.75-53.05-53.05h0c0-29.3,23.75-53.05,53.05-53.05Z"/><path id="darker" class="cls-2" d="M62.35,121.1h0C29.9,121.1,3.6,94.8,3.6,62.35v-5.65s37,5.7,58.7,5.7,58.8-5.7,58.8-5.7v5.65c0,32.45-26.3,58.75-58.75,58.75Z"/></g><g><path d="M28.39,72.87v-16.93h16.93v16.93H28.39Z"/><path d="M55.07,72.87v-16.93h16.93v16.93h-16.93Z"/><path d="M81.75,72.87v-16.93h16.93v16.93h-16.93Z"/></g></svg>