<?xml version="1.0" encoding="utf-8"?>
<!-- Generator: Adobe Illustrator 26.3.1, SVG Export Plug-In . SVG Version: 6.00 Build 0)  -->
<svg version="1.1" id="microbe" xmlns="http://www.w3.org/2000/svg" xmlns:xlink="http://www.w3.org/1999/xlink" x="0px" y="0px"
	 viewBox="0 0 124.7 124.7" style="enable-background:new 0 0 124.7 124.7;" xml:space="preserve">
<style type="text/css">
	.st0{fill:#020203;}
	.st1{fill:url(#SVGID_1_);}
	.st2{fill:#95C122;}
	.st3{fill:#3B481C;}
	.st4{opacity:8.000000e-02;fill:#020203;enable-background:new    ;}
</style>
<g id="tagMicrobe">
	<path class="st0" d="M124.3,62.4c0,34.2-27.8,62-62,62s-62-27.8-62-62s27.8-62,62-62C96.6,0.4,124.3,28.1,124.3,62.4z"/>
	
		<linearGradient id="SVGID_1_" gradientUnits="userSpaceOnUse" x1="62.34" y1="136.7979" x2="62.34" y2="21.9379" gradientTransform="matrix(1 0 0 1 0 -17.0079)">
		<stop  offset="0" style="stop-color:#3B481C"/>
		<stop  offset="0.1446" style="stop-color:#4A5C21"/>
		<stop  offset="0.4183" style="stop-color:#668326"/>
		<stop  offset="0.6621" style="stop-color:#7FA326"/>
		<stop  offset="0.8643" style="stop-color:#8FB923"/>
		<stop  offset="1" style="stop-color:#95C122"/>
	</linearGradient>
	<path class="st1" d="M119.8,62.4c0,31.7-25.7,57.4-57.4,57.4c-31.7,0-57.4-25.7-57.4-57.4c0-31.7,25.7-57.4,57.4-57.4
		C94.1,4.9,119.8,30.6,119.8,62.4z"/>
	<path class="st2" d="M114.2,62.4c0,28.6-23.2,51.9-51.9,51.9S10.5,91,10.5,62.4s23.2-51.9,51.9-51.9C91,10.5,114.2,33.7,114.2,62.4
		z"/>
	<g id="microbes">
		<polygon class="st3" points="64.6,68.9 60,69.5 60.6,74.1 56.1,73.3 55.3,77.9 51.2,75.8 49.1,80 45.8,76.8 42.6,80.1 40.3,76.1 
			36.3,78.3 35.3,73.8 30.8,74.8 31.2,70.2 26.6,69.8 28.4,65.5 24.1,63.7 27,60.2 23.5,57.2 27.3,54.7 24.8,50.8 29.2,49.5 
			27.9,45.1 32.5,45.2 32.6,40.5 37,42 38.4,37.6 42.2,40.2 44.8,36.5 47.7,40.1 51.3,37.3 52.9,41.6 57.3,40 57.5,44.6 62.2,44.3 
			61.1,48.8 65.6,49.9 63.2,53.8 67.2,56.2 63.7,59.3 66.8,62.7 62.6,64.7 		"/>
		<polygon class="st3" points="104.3,50.5 102.7,51 102.7,53 100.4,52.3 98.8,53.8 96.5,52.2 94.1,52.8 87.3,53.7 84.5,53.4 
			81.6,47.8 78.2,46.9 75.5,44 72.3,42.3 69.8,39.4 66.8,38 65,34.5 62.4,32.4 61.4,29.8 59.5,27.8 59.3,25.7 57.8,23.8 59.1,22.5 
			59.2,20.4 60.6,20.5 61.9,19 63.8,19.9 66.9,16.9 69.3,18.7 72.1,18.8 74.8,20.9 78.1,21.7 79.8,26.3 83.3,27.7 85.7,30.6 
			89,32.5 91,35.3 94.2,37.4 99.4,40.2 101.8,42.6 102.2,44.6 103.9,46.6 103.4,48.4 		"/>
		<polygon class="st3" points="99.2,72.4 99.5,73 100.2,74.4 98.9,75.2 99,76.8 95.8,78 94.5,79.9 90.7,83.7 86.4,85.7 80.6,87.4 
			77.2,89.5 72.6,90.6 68.8,92.4 64.3,93.2 60.7,95 56.3,95.2 52.4,96.4 49.4,96.3 46.2,97 44.2,96.4 41.4,96.9 41.2,95.5 
			40.4,95.2 40.6,93.8 40.4,92.4 42.5,91.3 42.4,88 45.7,86.8 48,84.8 51.8,83.5 56.3,82.3 60.4,81.7 64.3,79.5 68.6,78.8 72.8,77 
			76.9,76.4 81.1,74.8 87.5,71.9 91.5,70.9 93.6,71.3 96.5,70.7 97.7,71.7 		"/>
	</g>
	<path id="ciemniej_34_" class="st4" d="M119.8,62.4c0-1.2,0-2.3-0.1-3.4c-11.6,3.2-31.5,7.3-57.3,7.3c-25.1,0-45.1-5.1-57.2-9.3
		c-0.2,1.8-0.3,3.6-0.3,5.4c0,31.7,25.7,57.4,57.4,57.4C94.1,119.8,119.8,94.1,119.8,62.4z"/>
</g>
</svg>
