<?xml version="1.0" encoding="utf-8"?>
<!-- Generator: Adobe Illustrator 26.3.1, SVG Export Plug-In . SVG Version: 6.00 Build 0)  -->
<svg version="1.1" id="building" xmlns="http://www.w3.org/2000/svg" xmlns:xlink="http://www.w3.org/1999/xlink" x="0px" y="0px"
	 viewBox="0 0 124.7 124.7" style="enable-background:new 0 0 124.7 124.7;" xml:space="preserve">
<style type="text/css">
	.st0{fill:#020203;}
	.st1{fill:url(#SVGID_1_);}
	.st2{fill:#946137;}
	.st3{fill:#442A19;}
	.st4{opacity:8.000000e-02;fill:#020203;enable-background:new    ;}
</style>
<g id="tagBuilding">
	<path class="st0" d="M124.3,62.4c0,34.2-27.8,62-62,62s-62-27.8-62-62s27.8-62,62-62C96.6,0.4,124.3,28.1,124.3,62.4z"/>
	
		<linearGradient id="SVGID_1_" gradientUnits="userSpaceOnUse" x1="62.34" y1="5.9423" x2="62.34" y2="120.8023" gradientTransform="matrix(1 0 0 -1 0 125.7323)">
		<stop  offset="0" style="stop-color:#442A19"/>
		<stop  offset="3.370000e-02" style="stop-color:#452B19"/>
		<stop  offset="5.290000e-02" style="stop-color:#4C2E19"/>
		<stop  offset="6.860000e-02" style="stop-color:#563418"/>
		<stop  offset="8.220001e-02" style="stop-color:#653C15"/>
		<stop  offset="8.470000e-02" style="stop-color:#683D14"/>
		<stop  offset="0.3101" style="stop-color:#75471D"/>
		<stop  offset="0.7503" style="stop-color:#8B5930"/>
		<stop  offset="1" style="stop-color:#946137"/>
	</linearGradient>
	<path class="st1" d="M119.8,62.4c0,31.7-25.7,57.4-57.4,57.4c-31.7,0-57.4-25.7-57.4-57.4S30.6,4.9,62.3,4.9
		C94.1,4.9,119.8,30.6,119.8,62.4z"/>
	<path class="st2" d="M114.2,62.4c0,28.6-23.2,51.9-51.9,51.9S10.5,91,10.5,62.4s23.2-51.9,51.9-51.9C91,10.5,114.2,33.7,114.2,62.4
		z"/>
	<polygon class="st3" points="105.1,78.9 19.6,78.9 19.6,55.5 62.3,32.1 105.1,55.5 	"/>
	<path id="darker" class="st4" d="M119.8,62.4c0-1.2,0-2.3-0.1-3.4c-11.6,3.2-31.5,7.3-57.3,7.3c-25.1,0-45.1-5.1-57.2-9.3
		c-0.2,1.8-0.3,3.6-0.3,5.4c0,31.7,25.7,57.4,57.4,57.4C94.1,119.8,119.8,94.1,119.8,62.4z"/>
</g>
</svg>
