<?xml version="1.0" encoding="utf-8"?>
<!-- Generator: Adobe Illustrator 26.3.1, SVG Export Plug-In . SVG Version: 6.00 Build 0)  -->
<svg version="1.1" id="science" xmlns="http://www.w3.org/2000/svg" xmlns:xlink="http://www.w3.org/1999/xlink" x="0px" y="0px"
	 viewBox="0 0 124.7 124.7" style="enable-background:new 0 0 124.7 124.7;" xml:space="preserve">
<style type="text/css">
	.st0{fill:#020203;}
	.st1{fill:url(#SVGID_1_);}
	.st2{fill:url(#SVGID_00000171689240703912049860000017743044168612402087_);}
	.st3{fill:none;stroke:#020203;stroke-width:2;stroke-miterlimit:10;}
</style>
<g id="tagScience">
	<path class="st0" d="M124.3,62.4c0,34.2-27.8,62-62,62s-62-27.8-62-62s27.8-62,62-62C96.6,0.4,124.3,28.1,124.3,62.4z"/>
	
		<linearGradient id="SVGID_1_" gradientUnits="userSpaceOnUse" x1="62.34" y1="136.7979" x2="62.34" y2="21.9379" gradientTransform="matrix(1 0 0 1 0 -17.0079)">
		<stop  offset="0" style="stop-color:#020203"/>
		<stop  offset="1.240000e-02" style="stop-color:#040507"/>
		<stop  offset="3.200000e-02" style="stop-color:#121417"/>
		<stop  offset="5.610000e-02" style="stop-color:#27292C"/>
		<stop  offset="8.370000e-02" style="stop-color:#484849"/>
		<stop  offset="9.510000e-02" style="stop-color:#585857"/>
		<stop  offset="0.1151" style="stop-color:#5E5E5C"/>
		<stop  offset="0.261" style="stop-color:#888584"/>
		<stop  offset="0.4087" style="stop-color:#B0ADAC"/>
		<stop  offset="0.5564" style="stop-color:#D1CECF"/>
		<stop  offset="0.7041" style="stop-color:#EAE9E9"/>
		<stop  offset="0.8518" style="stop-color:#FAFAFA"/>
		<stop  offset="1" style="stop-color:#FFFFFF"/>
	</linearGradient>
	<path class="st1" d="M119.8,62.4c0,31.7-25.7,57.4-57.4,57.4c-31.7,0-57.4-25.7-57.4-57.4c0-31.7,25.7-57.4,57.4-57.4
		C94.1,4.9,119.8,30.6,119.8,62.4z"/>
	
		<linearGradient id="SVGID_00000075842939908880793940000007505405378585174164_" gradientUnits="userSpaceOnUse" x1="62.34" y1="131.2279" x2="62.34" y2="27.5079" gradientTransform="matrix(1 0 0 1 0 -17.0079)">
		<stop  offset="0" style="stop-color:#FFFFFF"/>
		<stop  offset="0.5097" style="stop-color:#F9F8F8"/>
		<stop  offset="1" style="stop-color:#EEEDED"/>
	</linearGradient>
	<path style="fill:url(#SVGID_00000075842939908880793940000007505405378585174164_);" d="M114.2,62.4c0,28.6-23.2,51.9-51.9,51.9
		S10.5,91,10.5,62.4s23.2-51.9,51.9-51.9S114.2,33.7,114.2,62.4z"/>
	<path class="st3" d="M75.5,63.4c0,22.1-5,40-11.1,40s-11.1-17.9-11.1-40c0-22.1,5-40,11.1-40S75.5,41.3,75.5,63.4z"/>
	<path class="st3" d="M58.8,53.7C77.9,42.7,95.9,38,99,43.4S89,62,69.9,73C50.8,84,32.8,88.7,29.7,83.3S39.7,64.8,58.8,53.7z"/>
	<path class="st3" d="M69.9,53.7C50.8,42.7,32.8,38,29.7,43.4S39.7,61.9,58.8,73C77.9,84,95.9,88.7,99,83.3S89,64.8,69.9,53.7z"/>
	<path class="st0" d="M68.6,63.4c0,2.3-1.9,4.2-4.2,4.2s-4.2-1.9-4.2-4.2s1.9-4.2,4.2-4.2S68.6,61,68.6,63.4z"/>
</g>
</svg>
