<?xml version="1.0" encoding="utf-8"?>
<!-- Generator: Adobe Illustrator 26.5.0, SVG Export Plug-In . SVG Version: 6.00 Build 0)  -->
<svg version="1.1" id="Layer" xmlns="http://www.w3.org/2000/svg" xmlns:xlink="http://www.w3.org/1999/xlink" x="0px" y="0px"
	 viewBox="0 0 878.7 141.7" style="enable-background:new 0 0 878.7 141.7;" xml:space="preserve">
<style type="text/css">
	.st0{opacity:0;fill:#FFFFFF;fill-opacity:0;}
	.st1{fill:#030304;}
	.st2{fill:url(#SVGID_1_);}
	.st3{fill:#7F358B;}
	.st4{fill:#FFFFFF;stroke:#030304;stroke-width:0.87;stroke-miterlimit:10;}
	.st5{opacity:0.15;fill:#030304;enable-background:new    ;}
	.st6{fill:#FFFFFF;}
	.st7{opacity:0.5;fill:#E03E17;enable-background:new    ;}
	.st8{fill:url(#SVGID_00000029724164338078286290000014879450692226712228_);}
	.st9{fill:#CE141E;}
	.st10{fill:none;stroke:#020303;stroke-width:1.73;stroke-miterlimit:10;}
	.st11{fill:#010202;stroke:#030304;stroke-width:1.77;stroke-miterlimit:10;}
	.st12{fill:url(#obram_zolte_00000080896146206329058860000006363212123512777144_);}
	.st13{fill:url(#tlo_wew_00000058580384689972539390000004291286070862565761_);}
	.st14{fill:url(#obram_skosne_00000107571040698553523160000006492245827778366904_);}
	.st15{fill:url(#tlo_zew_00000053526184898266992050000015107886886693581729_);}
	.st16{fill:#010101;}
</style>
<rect y="0" class="st0" width="878.7" height="141.7"/>
<g id="energy">
	<rect x="283.4" y="17" class="st1" width="107.9" height="107.9"/>
	
		<linearGradient id="SVGID_1_" gradientUnits="userSpaceOnUse" x1="-2748.4363" y1="-4263.6616" x2="-2676.5125" y2="-4191.7485" gradientTransform="matrix(0.7071 -0.7071 -0.7071 -0.7071 -733.9696 -4836.4507)">
		<stop  offset="0" style="stop-color:#1D1427"/>
		<stop  offset="0.24" style="stop-color:#372348"/>
		<stop  offset="0.49" style="stop-color:#573B6C"/>
		<stop  offset="0.71" style="stop-color:#72508C"/>
		<stop  offset="0.89" style="stop-color:#835CA0"/>
		<stop  offset="1" style="stop-color:#8963A7"/>
	</linearGradient>
	<rect x="286.6" y="20.1" class="st2" width="101.7" height="101.7"/>
	<polygon class="st3" points="383.3,25.1 383.3,116.9 291.5,116.9 291.5,25.1 	"/>
	<polygon class="st4" points="326.2,60.5 356.5,41.7 340.3,65.2 348.9,79.1 319.1,97.9 334.1,74.5 	"/>
	<path id="darker" class="st5" d="M388.2,121.8H286.6V66.1c0,0,32,4.9,50.8,4.9s50.9-4.9,50.9-4.9L388.2,121.8L388.2,121.8z"/>
</g>
<path class="st6" d="M220.1,98.8l18.4-28.3l-17.6-29.2h14l11.7,19.4l12.7-19.4h9.7l-17.7,27.2l18.3,30.4h-13.9l-12.5-20.7
	l-13.4,20.7L220.1,98.8L220.1,98.8z"/>
<g id="arrow">
	<path class="st7" d="M526.5,71l-53-24.5l6.4,12.7h-59.7c0,0-1.8,5.7-1.8,11.3s1.8,10,1.8,10H481l-7.5,15L526.5,71L526.5,71
		L526.5,71z"/>
	
		<linearGradient id="SVGID_00000147916651018209291200000013131563915723001008_" gradientUnits="userSpaceOnUse" x1="470.9" y1="-2050.2175" x2="470.9" y2="-2010.3577" gradientTransform="matrix(1 0 0 -1 0 -1959.3174)">
		<stop  offset="0" style="stop-color:#532A15"/>
		<stop  offset="0.45" style="stop-color:#532A15;stop-opacity:0.7"/>
		<stop  offset="0.58" style="stop-color:#E03E17;stop-opacity:0.5"/>
		<stop  offset="1" style="stop-color:#E03E17;stop-opacity:0.5"/>
	</linearGradient>
	<path style="fill:url(#SVGID_00000147916651018209291200000013131563915723001008_);" d="M484.5,78.3h-62.8
		c-0.5-1.6-1.2-4.6-1.2-7.9c0-3.5,0.8-7.1,1.3-9.1h61.6L478.2,51l43.1,20l-43.1,19.9L484.5,78.3L484.5,78.3L484.5,78.3z"/>
	<path class="st9" d="M489.2,75.5H424c-0.3-1.4-0.5-3.1-0.5-5c0-2.2,0.4-4.4,0.7-6.2H488l-3.6-7.2L514.5,71l-30.1,13.9L489.2,75.5
		L489.2,75.5L489.2,75.5z"/>
	<path class="st10" d="M484.5,78.3h-62.8c-0.5-1.6-1.2-4.6-1.2-7.9c0-3.5,0.8-7.1,1.3-9.1h61.6L478.2,51l43.1,20l-43.1,19.9
		L484.5,78.3L484.5,78.3L484.5,78.3z"/>
</g>
<g id="mln">
	<polygon id="obram_czarne" class="st11" points="569.4,17 553.1,33.4 553.1,108.6 569.4,124.9 644.7,124.9 661,108.6 661,33.4 
		644.7,17 	"/>
	
		<linearGradient id="obram_zolte_00000035523787176932083610000007280320578426943628_" gradientUnits="userSpaceOnUse" x1="607.1" y1="-2098.1274" x2="607.1" y2="-1996.4275" gradientTransform="matrix(1 0 0 -1 0 -1976.3274)">
		<stop  offset="0.16" style="stop-color:#823A13"/>
		<stop  offset="0.18" style="stop-color:#985C1A"/>
		<stop  offset="0.22" style="stop-color:#AE7D22"/>
		<stop  offset="0.26" style="stop-color:#C39D26"/>
		<stop  offset="0.3" style="stop-color:#D6B92E"/>
		<stop  offset="0.35" style="stop-color:#E4CF36"/>
		<stop  offset="0.41" style="stop-color:#EFE036"/>
		<stop  offset="0.48" style="stop-color:#F6E947"/>
		<stop  offset="0.58" style="stop-color:#F8EA4E"/>
		<stop  offset="0.86" style="stop-color:#F6EA4D"/>
		<stop  offset="1" style="stop-color:#FCF4F9"/>
	</linearGradient>
	<polygon id="obram_zolte" style="fill:url(#obram_zolte_00000035523787176932083610000007280320578426943628_);" points="
		571.6,20.1 556.3,35.5 556.3,106.5 571.6,121.8 642.5,121.8 657.9,106.5 657.9,35.5 642.5,20.1 	"/>
	
		<linearGradient id="tlo_wew_00000173126105938898244080000008932614354737706921_" gradientUnits="userSpaceOnUse" x1="607.1" y1="-1991.0477" x2="607.1" y2="-2146.5178" gradientTransform="matrix(1 0 0 -1 0 -1976.3274)">
		<stop  offset="0.26" style="stop-color:#F6EA4D"/>
		<stop  offset="0.86" style="stop-color:#803813"/>
	</linearGradient>
	<polygon id="tlo_wew" style="fill:url(#tlo_wew_00000173126105938898244080000008932614354737706921_);" points="572.6,21.6 
		557.7,36.6 557.7,105.4 572.6,120.3 641.5,120.3 656.5,105.4 656.5,36.6 641.5,21.6 	"/>
	
		<linearGradient id="obram_skosne_00000137096481803487580870000000342574624857593500_" gradientUnits="userSpaceOnUse" x1="607" y1="-2096.7275" x2="607" y2="-1998.0276" gradientTransform="matrix(1 0 0 -1 0 -1976.3274)">
		<stop  offset="0.16" style="stop-color:#803813"/>
		<stop  offset="0.17" style="stop-color:#8C471E"/>
		<stop  offset="0.18" style="stop-color:#A26B3C"/>
		<stop  offset="0.2" style="stop-color:#B78954"/>
		<stop  offset="0.22" style="stop-color:#C7A468"/>
		<stop  offset="0.24" style="stop-color:#D7BB7A"/>
		<stop  offset="0.26" style="stop-color:#E2CC88"/>
		<stop  offset="0.3" style="stop-color:#EAD891"/>
		<stop  offset="0.34" style="stop-color:#EEDE97"/>
		<stop  offset="0.46" style="stop-color:#EFE097"/>
		<stop  offset="0.7" style="stop-color:#803813"/>
		<stop  offset="0.73" style="stop-color:#E6D234"/>
		<stop  offset="0.74" style="stop-color:#EBD948"/>
		<stop  offset="0.75" style="stop-color:#EEDE6D"/>
		<stop  offset="0.77" style="stop-color:#F0E28A"/>
		<stop  offset="0.79" style="stop-color:#F8EBAA"/>
		<stop  offset="0.8" style="stop-color:#F8EDBF"/>
		<stop  offset="0.83" style="stop-color:#FAF0CF"/>
		<stop  offset="0.85" style="stop-color:#FCF2DA"/>
		<stop  offset="0.89" style="stop-color:#FDF4E1"/>
		<stop  offset="0.99" style="stop-color:#FDF5E3"/>
	</linearGradient>
	<path id="obram_skosne" style="fill:url(#obram_skosne_00000137096481803487580870000000342574624857593500_);" d="M649.3,90
		c-2.7,0-5-2.2-5-4.9V56.9c0-2.7,2.2-5,5-5h7.1V36.6l-14.9-14.9H626v7.1c0,2.7-2.2,5-5,5h-28.2c-2.7,0-5-2.2-5-5v-7.1h-15.4
		l-14.9,14.9V52h7.1c2.7,0,4.9,2.2,4.9,5v28.2c0,2.7-2.2,4.9-4.9,4.9h-7.1v15.4l14.9,14.9h15.5v-7.1c0-2.7,2.2-4.9,5-4.9h28.2
		c2.7,0,5,2.2,5,4.9v7.1h15.5l14.9-14.9V90H649.3L649.3,90z"/>
	
		<linearGradient id="tlo_zew_00000160872550948510461620000007979905490156021931_" gradientUnits="userSpaceOnUse" x1="607.1" y1="-2012.4576" x2="607.1" y2="-2164.9377" gradientTransform="matrix(1 0 0 -1 0 -1976.3274)">
		<stop  offset="0.26" style="stop-color:#F6EA4D"/>
		<stop  offset="0.77" style="stop-color:#803813"/>
	</linearGradient>
	<path id="tlo_zew" style="fill:url(#tlo_zew_00000160872550948510461620000007979905490156021931_);" d="M649.1,91.7
		c-3.4,0-6.1-3.4-6.1-6.7V57c0-3.4,2.7-6.7,6.1-6.7h5.7V37.7l-14.5-14.4h-12.5V29c0,3.4-3.4,6.1-6.7,6.1h-28c-3.4,0-6.7-2.7-6.7-6.1
		v-5.7h-12.6l-14.4,14.4v12.5h5.7c3.4,0,6.1,3.4,6.1,6.7v28c0,3.4-2.7,6.7-6.1,6.7h-5.7v12.6l14.4,14.4h12.6v-5.7
		c0-3.4,3.4-6.1,6.7-6.1H621c3.4,0,6.7,2.7,6.7,6.1v5.7h12.5l14.4-14.4V91.7H649.1L649.1,91.7z"/>
</g>
<path class="st16" d="M585.4,95.4l16-24.6l-15.3-25.4h12.1l10.2,16.9l11-16.9h8.4L612.5,69l15.9,26.4h-12.1l-10.8-17.9l-11.6,17.9
	H585.4L585.4,95.4z"/>
</svg>
