<?xml version="1.0" encoding="utf-8"?>
<!-- Generator: Adobe Illustrator 26.3.1, SVG Export Plug-In . SVG Version: 6.00 Build 0)  -->
<svg version="1.1" id="Layer" xmlns="http://www.w3.org/2000/svg" xmlns:xlink="http://www.w3.org/1999/xlink" x="0px" y="0px"
	 viewBox="0 0 878.7 141.7" style="enable-background:new 0 0 878.7 141.7;" xml:space="preserve">
<style type="text/css">
	.st0{fill:#FFFFFF;fill-opacity:0;}
	.st1{fill:url(#SVGID_1_);stroke:#030304;stroke-width:1.96;stroke-miterlimit:10;}
	.st2{fill:none;stroke:#FFFFFF;stroke-width:1.96;stroke-miterlimit:10;}
	.st3{opacity:0.5;fill:url(#SVGID_00000060012475576143720670000011548789668154493081_);enable-background:new    ;}
	.st4{opacity:0.5;fill:#E03D15;enable-background:new    ;}
	.st5{fill:url(#SVGID_00000081609541490604947710000000256824847095507612_);}
	.st6{fill:#CD141B;}
	.st7{fill:none;stroke:#010202;stroke-width:1.73;stroke-miterlimit:10;}
	.st8{fill:#030304;}
	.st9{fill:url(#SVGID_00000149383139313347772930000012512411741606995332_);}
	.st10{fill:#96C227;}
	.st11{fill:#3D4920;}
	.st12{opacity:0.12;fill:#030304;enable-background:new    ;}
	.st13{fill:url(#SVGID_00000062186586573117487540000014606195280967432585_);}
	.st14{fill:#FFFFFF;}
	.st15{fill:url(#SVGID_00000101081315399437328650000001940745802889135010_);}
	.st16{fill:url(#SVGID_00000090278286122822737740000010366250659272068500_);}
</style>
<rect y="0" class="st0" width="878.7" height="141.7"/>
<g id="tempIcon">
	
		<linearGradient id="SVGID_1_" gradientUnits="userSpaceOnUse" x1="847.54" y1="-74.4077" x2="847.54" y2="64.0523" gradientTransform="matrix(1 0 0 -1 0 65.6123)">
		<stop  offset="8.000000e-02" style="stop-color:#47C0F0"/>
		<stop  offset="0.15" style="stop-color:#52A5D5"/>
		<stop  offset="0.23" style="stop-color:#5D85B4"/>
		<stop  offset="0.3" style="stop-color:#626A9C"/>
		<stop  offset="0.37" style="stop-color:#67568C"/>
		<stop  offset="0.42" style="stop-color:#684981"/>
		<stop  offset="0.46" style="stop-color:#68457E"/>
		<stop  offset="0.55" style="stop-color:#923E61"/>
		<stop  offset="0.67" style="stop-color:#B7323C"/>
		<stop  offset="0.75" style="stop-color:#CC2321"/>
		<stop  offset="0.79" style="stop-color:#D41A1C"/>
	</linearGradient>
	<path class="st1" d="M856.7,103.3V10.7c0-5-4.2-9.2-9.2-9.2s-9.2,4.2-9.2,9.2v92.3c-6.1,3.3-10.5,9.8-10.5,17.3
		c0,10.9,8.8,19.6,19.6,19.6s19.6-8.8,19.6-19.6C867.2,112.9,863,106.4,856.7,103.3L856.7,103.3z"/>
	<line class="st2" x1="843.6" y1="21.6" x2="851.7" y2="21.6"/>
	<line class="st2" x1="843.6" y1="47.3" x2="851.7" y2="47.3"/>
	<line class="st2" x1="843.6" y1="70.7" x2="851.7" y2="70.7"/>
	<line class="st2" x1="843.6" y1="92.4" x2="851.7" y2="92.4"/>
	<line class="st2" x1="843.6" y1="120" x2="851.7" y2="120"/>
	
		<linearGradient id="SVGID_00000111156740119498736940000004468053900943561886_" gradientUnits="userSpaceOnUse" x1="841.8875" y1="-49.7502" x2="834.4275" y2="-42.2802" gradientTransform="matrix(1 0 0 -1 0 65.6123)">
		<stop  offset="0" style="stop-color:#1F1F1E;stop-opacity:0"/>
		<stop  offset="1" style="stop-color:#FFFFFF"/>
	</linearGradient>
	<path style="opacity:0.5;fill:url(#SVGID_00000111156740119498736940000004468053900943561886_);enable-background:new    ;" d="
		M841.9,115.2c-2.9,3.1-7.1,3.8-9.2,1.9c-2.1-2.1-1.2-6.3,1.7-9.2c2.9-2.9,7.1-3.8,9.2-1.7S845,112.2,841.9,115.2z"/>
</g>
<g id="arrow">
	<path class="st4" d="M813.4,70.8l-53-24.5l6.4,12.7H707c0,0-1.8,5.7-1.8,11.3s1.8,10,1.8,10h60.9l-7.5,15L813.4,70.8L813.4,70.8
		L813.4,70.8z"/>
	
		<linearGradient id="SVGID_00000012452729323013957610000016859774867535286929_" gradientUnits="userSpaceOnUse" x1="757.8201" y1="90.2123" x2="757.8201" y2="50.3123" gradientTransform="matrix(1 0 0 1 0 0.5377)">
		<stop  offset="0" style="stop-color:#542913"/>
		<stop  offset="0.45" style="stop-color:#542913;stop-opacity:0.7"/>
		<stop  offset="0.58" style="stop-color:#E03D15;stop-opacity:0.5"/>
		<stop  offset="1" style="stop-color:#E03D15;stop-opacity:0.5"/>
	</linearGradient>
	<path style="fill:url(#SVGID_00000012452729323013957610000016859774867535286929_);" d="M771.5,78.2h-62.9
		c-0.5-1.6-1.2-4.6-1.2-7.9c0-3.5,0.8-7.1,1.3-9.1h61.6l-5.2-10.3l43.2,20l-43.2,19.9L771.5,78.2L771.5,78.2L771.5,78.2z"/>
	<path class="st6" d="M776.1,75.3h-65.3c-0.3-1.4-0.5-3.1-0.5-5c0-2.2,0.3-4.4,0.7-6.2h64l-3.6-7.2l30.1,13.9l-30.1,13.9L776.1,75.3
		L776.1,75.3L776.1,75.3z"/>
	<path class="st7" d="M771.5,78.2h-62.9c-0.5-1.6-1.2-4.6-1.2-7.9c0-3.5,0.8-7.1,1.3-9.1h61.6l-5.2-10.3l43.2,20l-43.2,19.9
		L771.5,78.2L771.5,78.2L771.5,78.2z"/>
</g>
<g id="microbe">
	<rect x="569.7" y="17.2" class="st8" width="107.3" height="107.3"/>
	
		<linearGradient id="SVGID_00000090279231609357621250000014142034034637628334_" gradientUnits="userSpaceOnUse" x1="-324.6575" y1="1317.8574" x2="-253.1902" y2="1246.3801" gradientTransform="matrix(0.7071 -0.7071 0.7071 0.7071 -78.9599 -1040.0999)">
		<stop  offset="0" style="stop-color:#3D4920"/>
		<stop  offset="0.14" style="stop-color:#4B5E24"/>
		<stop  offset="0.42" style="stop-color:#69852B"/>
		<stop  offset="0.66" style="stop-color:#81A42C"/>
		<stop  offset="0.86" style="stop-color:#8FB923"/>
		<stop  offset="1" style="stop-color:#96C227"/>
	</linearGradient>
	
		<rect x="572.8" y="20.3" style="fill:url(#SVGID_00000090279231609357621250000014142034034637628334_);" width="101.1" height="101.1"/>
	<rect x="577.7" y="25.2" class="st10" width="91.3" height="91.3"/>
	<g id="microbes">
		<polygon class="st11" points="624.5,80 620.2,80.5 620.8,84.8 616.5,84.1 615.8,88.4 611.9,86.4 610,90.3 606.9,87.3 603.9,90.4 
			601.8,86.7 598,88.7 597.1,84.5 592.9,85.5 593.3,81.2 589,80.7 590.6,76.8 586.7,75.1 589.4,71.8 586,69 589.7,66.6 587.2,63.1 
			591.4,61.9 590.2,57.7 594.5,57.8 594.6,53.5 598.7,54.8 600,50.7 603.5,53.1 606,49.6 608.7,53 612,50.4 613.6,54.4 617.6,53 
			617.9,57.2 622.2,57 621.1,61.2 625.3,62.2 623.1,65.8 626.9,68.1 623.6,71 626.6,74.2 622.6,76 		"/>
		<polygon class="st11" points="661.6,62.7 660.1,63.2 660.1,65.2 657.9,64.5 656.5,65.8 654.2,64.3 652,64.9 645.7,65.8 
			643.1,65.5 640.3,60.3 637.2,59.3 634.7,56.7 631.7,55.2 629.4,52.3 626.6,51.1 624.8,47.9 622.4,45.8 621.5,43.4 619.8,41.5 
			619.6,39.5 618.1,37.8 619.3,36.5 619.4,34.6 620.7,34.7 621.9,33.3 623.7,34.1 626.6,31.4 628.9,33 631.5,33.2 634,35.1 
			637,35.9 638.7,40.1 642,41.4 644.2,44.2 647.3,45.9 649.2,48.6 652.1,50.5 656.9,53.1 659.2,55.4 659.6,57.2 661.1,59.1 
			660.7,60.8 		"/>
		<polygon class="st11" points="656.8,83.2 657.1,83.7 657.7,85 656.5,85.8 656.6,87.3 653.7,88.4 652.5,90.3 648.8,93.8 
			644.8,95.7 639.5,97.2 636.3,99.2 632,100.2 628.4,101.9 624.2,102.7 620.8,104.3 616.8,104.5 613.1,105.6 610.3,105.5 
			607.4,106.2 605.5,105.7 602.8,106.1 602.6,104.8 601.9,104.5 602,103.2 601.9,101.9 603.8,100.9 603.7,97.8 606.9,96.6 
			608.9,94.8 612.5,93.6 616.8,92.5 620.5,91.9 624.2,89.8 628.3,89.2 632.2,87.5 635.9,86.9 639.9,85.5 645.8,82.7 649.6,81.8 
			651.5,82.2 654.3,81.7 655.4,82.5 		"/>
	</g>
	<path id="darker" class="st12" d="M673.9,121.3H572.8V65.9c0,0,31.8,4.9,50.5,4.9s50.6-4.9,50.6-4.9V121.3z"/>
</g>
<g id="microbe-2">
	<rect x="439" y="17.2" class="st8" width="107.3" height="107.3"/>
	
		<linearGradient id="SVGID_00000016052304530425619150000001482215453541262758_" gradientUnits="userSpaceOnUse" x1="-417.1167" y1="1225.3982" x2="-345.6394" y2="1153.9309" gradientTransform="matrix(0.7071 -0.7071 0.7071 0.7071 -78.9599 -1040.0999)">
		<stop  offset="0" style="stop-color:#3D4920"/>
		<stop  offset="0.14" style="stop-color:#4B5E24"/>
		<stop  offset="0.42" style="stop-color:#69852B"/>
		<stop  offset="0.66" style="stop-color:#81A42C"/>
		<stop  offset="0.86" style="stop-color:#8FB923"/>
		<stop  offset="1" style="stop-color:#96C227"/>
	</linearGradient>
	
		<rect x="442" y="20.3" style="fill:url(#SVGID_00000016052304530425619150000001482215453541262758_);" width="101.1" height="101.1"/>
	<rect x="447" y="25.2" class="st10" width="91.3" height="91.3"/>
	<g id="microbes-2">
		<polygon class="st11" points="493.8,80 489.5,80.5 490,84.8 485.8,84.1 485.1,88.4 481.2,86.4 479.3,90.3 476.1,87.3 473.2,90.4 
			471,86.7 467.3,88.7 466.4,84.5 462.2,85.5 462.5,81.2 458.2,80.7 459.9,76.8 455.9,75.1 458.7,71.8 455.3,69 458.9,66.6 
			456.5,63.1 460.6,61.9 459.4,57.7 463.7,57.8 463.8,53.5 468,54.8 469.2,50.7 472.8,53.1 475.3,49.6 477.9,53 481.3,50.4 
			482.8,54.4 486.9,53 487.1,57.2 491.4,57 490.4,61.2 494.6,62.2 492.4,65.8 496.2,68.1 492.9,71 495.8,74.2 491.9,76 		"/>
		<polygon class="st11" points="530.8,62.7 529.4,63.2 529.4,65.2 527.1,64.5 525.8,65.8 523.5,64.3 521.3,64.9 515,65.8 
			512.3,65.5 509.6,60.3 506.5,59.3 504,56.7 501,55.2 498.6,52.3 495.8,51.1 494.1,47.9 491.7,45.8 490.7,43.4 489,41.5 
			488.9,39.5 487.4,37.8 488.6,36.5 488.7,34.6 490,34.7 491.2,33.3 493,34.1 495.9,31.4 498.1,33 500.7,33.2 503.3,35.1 
			506.3,35.9 507.9,40.1 511.2,41.4 513.5,44.2 516.5,45.9 518.4,48.6 521.4,50.5 526.2,53.1 528.5,55.4 528.8,57.2 530.4,59.1 
			530,60.8 		"/>
		<polygon class="st11" points="526,83.2 526.3,83.7 527,85 525.8,85.8 525.8,87.3 522.9,88.4 521.7,90.3 518.1,93.8 514,95.7 
			508.7,97.2 505.5,99.2 501.2,100.2 497.6,101.9 493.4,102.7 490,104.3 486,104.5 482.4,105.6 479.6,105.5 476.6,106.2 
			474.7,105.7 472.1,106.1 471.9,104.8 471.1,104.5 471.3,103.2 471.1,101.9 473.1,100.9 472.9,97.8 476.1,96.6 478.2,94.8 
			481.8,93.6 486,92.5 489.8,91.9 493.4,89.8 497.5,89.2 501.4,87.5 505.2,86.9 509.1,85.5 515.1,82.7 518.9,81.8 520.8,82.2 
			523.6,81.7 524.6,82.5 		"/>
	</g>
	<path id="darker-2" class="st12" d="M543.1,121.3H442V65.9c0,0,31.8,4.9,50.5,4.9s50.6-4.9,50.6-4.9V121.3z"/>
</g>
<g>
	<path class="st14" d="M321.5,94.3c-5.1,0-9.6-1.1-13.3-3.2s-6.7-5.2-8.6-9.1s-3-8.5-3-13.5s1-9.5,3-13.5s4.9-7,8.7-9.1
		c3.8-2.1,8.2-3.2,13.3-3.2s9.5,1.1,13.3,3.2c3.8,2.1,6.7,5.2,8.7,9.1s3,8.5,3,13.5s-1,9.5-3,13.5c-2,4-4.8,7-8.6,9.1
		S326.6,94.3,321.5,94.3z M321.5,87.6c4.7,0,8.3-1.9,10.6-5.8s3.5-8.3,3.5-13.3s-1.2-9.4-3.5-13.3c-2.3-3.8-5.8-5.8-10.5-5.8
		s-8.3,1.9-10.6,5.8c-2.3,3.8-3.5,8.3-3.5,13.3s1.1,9.4,3.5,13.3C313.2,85.6,316.7,87.6,321.5,87.6L321.5,87.6L321.5,87.6z"/>
	<path class="st14" d="M355.6,93.1V44h18.4c3.8,0,6.6,0.5,8.6,1.4s3.5,2.4,4.7,4.3c1.1,1.9,1.7,4.1,1.7,6.5c0,2.9-0.8,5.6-2.5,8.2
		c-1.7,2.6-4,4.5-7,5.9l16.1,22.9H383L370.8,73h-5.6v20.1L355.6,93.1L355.6,93.1z M365.2,66.3h2.4c4.2,0,7.1-0.9,8.7-2.8
		s2.4-3.9,2.4-6.2c0-2-0.6-3.6-2-4.8c-1.3-1.2-4-1.8-8-1.8h-3.6L365.2,66.3L365.2,66.3L365.2,66.3z"/>
</g>
<g id="microbe-3">
	<rect x="149.2" y="17.2" class="st8" width="107.3" height="107.3"/>
	
		<linearGradient id="SVGID_00000137836618414287612620000002447551547230172605_" gradientUnits="userSpaceOnUse" x1="-622.01" y1="1020.5049" x2="-550.5427" y2="949.0276" gradientTransform="matrix(0.7071 -0.7071 0.7071 0.7071 -78.9599 -1040.0999)">
		<stop  offset="0" style="stop-color:#3D4920"/>
		<stop  offset="0.14" style="stop-color:#4B5E24"/>
		<stop  offset="0.42" style="stop-color:#69852B"/>
		<stop  offset="0.66" style="stop-color:#81A42C"/>
		<stop  offset="0.86" style="stop-color:#8FB923"/>
		<stop  offset="1" style="stop-color:#96C227"/>
	</linearGradient>
	
		<rect x="152.3" y="20.3" style="fill:url(#SVGID_00000137836618414287612620000002447551547230172605_);" width="101.1" height="101.1"/>
	<rect x="157.2" y="25.2" class="st10" width="91.3" height="91.3"/>
	<g id="microbes-3">
		<polygon class="st11" points="204,80 199.7,80.5 200.3,84.8 196,84.1 195.3,88.4 191.4,86.4 189.5,90.3 186.3,87.3 183.4,90.4 
			181.3,86.7 177.5,88.7 176.6,84.5 172.4,85.5 172.8,81.2 168.4,80.7 170.1,76.8 166.1,75.1 168.9,71.8 165.5,69 169.1,66.6 
			166.7,63.1 170.9,61.9 169.7,57.7 174,57.8 174,53.5 178.2,54.8 179.5,50.7 183,53.1 185.5,49.6 188.1,53 191.5,50.4 193.1,54.4 
			197.1,53 197.4,57.2 201.6,57 200.6,61.2 204.8,62.2 202.6,65.8 206.4,68.1 203.1,71 206,74.2 202.1,76 		"/>
		<polygon class="st11" points="241.1,62.7 239.6,63.2 239.6,65.2 237.4,64.5 236,65.8 233.7,64.3 231.5,64.9 225.2,65.8 
			222.6,65.5 219.8,60.3 216.7,59.3 214.2,56.7 211.2,55.2 208.9,52.3 206,51.1 204.3,47.9 201.9,45.8 201,43.4 199.2,41.5 
			199.1,39.5 197.6,37.8 198.8,36.5 198.9,34.6 200.2,34.7 201.4,33.3 203.2,34.1 206.1,31.4 208.4,33 210.9,33.2 213.5,35.1 
			216.5,35.9 218.2,40.1 221.4,41.4 223.7,44.2 226.8,45.9 228.7,48.6 231.6,50.5 236.4,53.1 238.7,55.4 239.1,57.2 240.6,59.1 
			240.2,60.8 		"/>
		<polygon class="st11" points="236.2,83.2 236.6,83.7 237.2,85 236,85.8 236.1,87.3 233.1,88.4 231.9,90.3 228.3,93.8 224.3,95.7 
			218.9,97.2 215.8,99.2 211.5,100.2 207.9,101.9 203.6,102.7 200.3,104.3 196.2,104.5 192.6,105.6 189.8,105.5 186.9,106.2 
			185,105.7 182.3,106.1 182.1,104.8 181.4,104.5 181.5,103.2 181.4,101.9 183.3,100.9 183.2,97.8 186.3,96.6 188.4,94.8 192,93.6 
			196.2,92.5 200,91.9 203.6,89.8 207.8,89.2 211.6,87.5 215.4,86.9 219.4,85.5 225.3,82.7 229.1,81.8 231,82.2 233.8,81.7 
			234.9,82.5 		"/>
	</g>
	<path id="darker-3" class="st12" d="M253.4,121.3H152.3V65.9c0,0,31.8,4.9,50.5,4.9s50.6-4.9,50.6-4.9V121.3z"/>
</g>
<g id="arrow-2">
	<path class="st4" d="M119.3,70.8l-53-24.5L72.7,59H12.9c0,0-1.8,5.7-1.8,11.3s1.8,10,1.8,10h60.9l-7.6,15L119.3,70.8L119.3,70.8
		L119.3,70.8z"/>
	
		<linearGradient id="SVGID_00000170958993836019049970000014288969848818701728_" gradientUnits="userSpaceOnUse" x1="63.67" y1="90.2123" x2="63.67" y2="50.3123" gradientTransform="matrix(1 0 0 1 0 0.5377)">
		<stop  offset="0" style="stop-color:#542913"/>
		<stop  offset="0.45" style="stop-color:#542913;stop-opacity:0.7"/>
		<stop  offset="0.58" style="stop-color:#E03D15;stop-opacity:0.5"/>
		<stop  offset="1" style="stop-color:#E03D15;stop-opacity:0.5"/>
	</linearGradient>
	<path style="fill:url(#SVGID_00000170958993836019049970000014288969848818701728_);" d="M77.3,78.2H14.4c-0.5-1.6-1.2-4.6-1.2-7.9
		c0-3.5,0.8-7.1,1.3-9.1h61.6l-5.2-10.3l43.2,20L70.9,90.8L77.3,78.2L77.3,78.2L77.3,78.2z"/>
	<path class="st6" d="M81.9,75.3H16.7c-0.3-1.4-0.5-3.1-0.5-5c0-2.2,0.4-4.4,0.7-6.2h64l-3.6-7.2l30.1,13.9L77.2,84.7L81.9,75.3
		L81.9,75.3L81.9,75.3z"/>
	<path class="st7" d="M77.3,78.2H14.4c-0.5-1.6-1.2-4.6-1.2-7.9c0-3.5,0.8-7.1,1.3-9.1h61.6l-5.2-10.3l43.2,20L70.9,90.8L77.3,78.2
		L77.3,78.2L77.3,78.2z"/>
</g>
</svg>
