<?xml version="1.0" encoding="utf-8"?>
<!-- Generator: Adobe Illustrator 26.3.1, SVG Export Plug-In . SVG Version: 6.00 Build 0)  -->
<svg version="1.1" id="Layer" xmlns="http://www.w3.org/2000/svg" xmlns:xlink="http://www.w3.org/1999/xlink" x="0px" y="0px"
	 viewBox="0 0 878.7 141.7" style="enable-background:new 0 0 878.7 141.7;" xml:space="preserve">
<style type="text/css">
	.st0{fill:#FFFFFF;fill-opacity:0;}
	.st1{fill:#030404;}
	.st2{fill:url(#SVGID_1_);}
	.st3{fill:url(#SVGID_00000036234379091852722330000000035850218610790272_);}
	.st4{fill:none;stroke:#030304;stroke-width:1.73;stroke-miterlimit:10;}
	.st5{opacity:0.15;fill:#030404;enable-background:new    ;}
	.st6{fill:#030304;}
	.st7{opacity:0.5;fill:#E03E17;enable-background:new    ;}
	.st8{fill:url(#SVGID_00000176020167134613667340000011820489628601747084_);}
	.st9{fill:#CE141E;}
	.st10{fill:none;stroke:#020303;stroke-width:1.73;stroke-miterlimit:10;}
	.st11{fill:url(#SVGID_00000012432060148829903920000009301538090160555934_);}
	.st12{fill:#7F358B;}
	.st13{fill:#FFFFFF;stroke:#030304;stroke-width:0.87;stroke-miterlimit:10;}
	.st14{opacity:0.15;fill:#030304;enable-background:new    ;}
	.st15{fill:#FFFFFF;}
</style>
<rect y="0" class="st0" width="878.7" height="141.7"/>
<g id="science">
	<rect x="556.8" y="17" class="st1" width="107.9" height="107.9"/>
	
		<linearGradient id="SVGID_1_" gradientUnits="userSpaceOnUse" x1="-388.1905" y1="-1307.7024" x2="-316.2718" y2="-1235.8037" gradientTransform="matrix(0.7071 -0.7071 -0.7071 -0.7071 -39.4902 -1077.3402)">
		<stop  offset="0" style="stop-color:#030304"/>
		<stop  offset="0.11" style="stop-color:#5C5B5B"/>
		<stop  offset="1" style="stop-color:#FFFFFF"/>
	</linearGradient>
	<rect x="559.9" y="20.1" class="st2" width="101.7" height="101.7"/>
	
		<linearGradient id="SVGID_00000059277215547840710090000011878265195788911507_" gradientUnits="userSpaceOnUse" x1="564.8" y1="37.6823" x2="656.62" y2="37.6823" gradientTransform="matrix(1 0 0 -1 0 108.6723)">
		<stop  offset="0" style="stop-color:#FFFFFF"/>
		<stop  offset="0.51" style="stop-color:#FBFAFA"/>
		<stop  offset="1" style="stop-color:#EFEFED"/>
	</linearGradient>
	<polygon style="fill:url(#SVGID_00000059277215547840710090000011878265195788911507_);" points="656.6,25.1 656.6,116.9 
		564.8,116.9 564.8,25.1 	"/>
	<path class="st4" d="M622.1,71.8c0,19.1-4.3,34.6-9.6,34.6s-9.6-15.5-9.6-34.6s4.3-34.6,9.6-34.6S622.1,52.8,622.1,71.8z"/>
	<path class="st4" d="M607.6,63.5c16.5-9.5,32.1-13.6,34.8-9s-8.6,16.1-25.2,25.6c-16.5,9.6-32.1,13.6-34.7,9
		C580,84.5,591.1,73,607.6,63.5L607.6,63.5z"/>
	<path class="st4" d="M617.2,63.5c-16.5-9.5-32.1-13.6-34.8-8.9s8.7,16,25.2,25.6c16.5,9.6,32.1,13.5,34.8,8.9
		C645.1,84.5,633.8,73,617.2,63.5z"/>
	<path id="darker" class="st5" d="M661.5,121.8H559.9V66.1c0,0,32,4.9,50.8,4.9s50.9-4.9,50.9-4.9L661.5,121.8L661.5,121.8z"/>
	<path class="st6" d="M616.1,71.8c0,2-1.6,3.6-3.6,3.6s-3.6-1.6-3.6-3.6s1.6-3.6,3.6-3.6S616.1,69.8,616.1,71.8z"/>
</g>
<g id="arrow">
	<path class="st7" d="M523.9,71l-53-24.5l6.4,12.7h-59.7c0,0-1.8,5.7-1.8,11.3s1.8,10,1.8,10h60.9l-7.5,15L523.9,71L523.9,71
		L523.9,71z"/>
	
		<linearGradient id="SVGID_00000076590067329056888340000016705189935908711857_" gradientUnits="userSpaceOnUse" x1="468.385" y1="34.7623" x2="468.385" y2="74.6223" gradientTransform="matrix(1 0 0 -1 0 125.6823)">
		<stop  offset="0" style="stop-color:#532A15"/>
		<stop  offset="0.45" style="stop-color:#532A15;stop-opacity:0.7"/>
		<stop  offset="0.58" style="stop-color:#E03E17;stop-opacity:0.5"/>
		<stop  offset="1" style="stop-color:#E03E17;stop-opacity:0.5"/>
	</linearGradient>
	<path style="fill:url(#SVGID_00000076590067329056888340000016705189935908711857_);" d="M482,78.3h-62.8c-0.5-1.6-1.2-4.6-1.2-7.9
		c0-3.5,0.8-7.1,1.3-9.1h61.6l-5.2-10.3L518.8,71l-43.1,19.9L482,78.3L482,78.3L482,78.3z"/>
	<path class="st9" d="M486.6,75.5h-65.2c-0.3-1.4-0.5-3.1-0.5-5c0-2.2,0.4-4.4,0.7-6.2h63.9l-3.6-7.2L512,71l-30.1,13.9L486.6,75.5
		L486.6,75.5L486.6,75.5z"/>
	<path class="st10" d="M482,78.3h-62.8c-0.5-1.6-1.2-4.6-1.2-7.9c0-3.5,0.8-7.1,1.3-9.1h61.6l-5.2-10.3L518.8,71l-43.1,19.9
		L482,78.3L482,78.3L482,78.3z"/>
</g>
<g id="energy">
	<rect x="275.1" y="17" class="st6" width="107.9" height="107.9"/>
	
		<linearGradient id="SVGID_00000136413549331171113990000006269335537430340762_" gradientUnits="userSpaceOnUse" x1="-587.5563" y1="-1108.4396" x2="-515.6577" y2="-1036.541" gradientTransform="matrix(0.7071 -0.7071 -0.7071 -0.7071 -39.2901 -1077.4202)">
		<stop  offset="0" style="stop-color:#1D1427"/>
		<stop  offset="0.24" style="stop-color:#372348"/>
		<stop  offset="0.49" style="stop-color:#573B6C"/>
		<stop  offset="0.71" style="stop-color:#72508C"/>
		<stop  offset="0.89" style="stop-color:#835CA0"/>
		<stop  offset="1" style="stop-color:#8963A7"/>
	</linearGradient>
	
		<rect x="278.2" y="20.1" style="fill:url(#SVGID_00000136413549331171113990000006269335537430340762_);" width="101.7" height="101.7"/>
	<polygon class="st12" points="374.9,25.1 374.9,116.9 283.1,116.9 283.1,25.1 	"/>
	<polygon class="st13" points="317.8,60.5 348.1,41.7 331.9,65.2 340.5,79.1 310.7,97.9 325.7,74.5 	"/>
	<path id="darker-2" class="st14" d="M379.9,121.8H278.2V66.1c0,0,32,4.9,50.8,4.9s50.9-4.9,50.9-4.9L379.9,121.8L379.9,121.8z"/>
</g>
<path class="st15" d="M224.9,68.4c1.5-1.8,2.9-3.1,4.2-3.9s2.8-1.5,4.5-2s3.4-0.7,5.1-0.7c3.2,0,6.1,0.8,9,2.2s5,3.6,6.5,6.4
	c1.5,2.7,2.3,5.8,2.3,9.2c0,3.7-0.9,7.1-2.6,10.3s-4.1,5.7-7.1,7.6c-3,1.8-6.7,2.7-11.2,2.7c-7.7,0-13.4-2.7-17.2-8.2
	c-3.8-5.5-5.6-12.4-5.6-20.6c0-5.9,1-11.3,2.9-16.2s4.7-8.6,8.4-11.3s8.6-4,14.8-4c1.9,0,3.9,0.1,5.7,0.3c1.9,0.2,4.8,0.8,8.8,1.8
	v8.4c-5.3-2.2-9.9-3.3-14.1-3.3c-3,0-5.6,0.8-7.6,2.3s-3.7,4-5,7.2C225.5,59.9,224.9,63.8,224.9,68.4L224.9,68.4L224.9,68.4z
	 M245,81.4c0-4-0.9-7-2.7-9.2s-4.1-3.3-6.9-3.3c-2.6,0-4.9,1-7,3c-2.1,2-3.1,4.6-3.1,7.8s0.8,6.4,2.5,9.2s4.3,4.2,7.8,4.2
	c2.7,0,5-1,6.7-3.1S245,85.1,245,81.4L245,81.4z"/>
</svg>
