<?xml version="1.0" encoding="UTF-8"?><svg id="Layer" xmlns="http://www.w3.org/2000/svg" xmlns:xlink="http://www.w3.org/1999/xlink" viewBox="0 0 878.7 141.7"><defs><style>.cls-1{fill:url(#linear-gradient-2);}.cls-2{fill:#fff;}.cls-3,.cls-4{fill:#020303;}.cls-5{fill:rgba(255,255,255,0);}.cls-6{fill:url(#linear-gradient-6);}.cls-7{fill:#1c2c4c;}.cls-8{fill:#cd141b;}.cls-9{fill:url(#radial-gradient);}.cls-10{fill:#83a3d5;}.cls-4{opacity:.64;}.cls-4,.cls-11{isolation:isolate;}.cls-12{fill:url(#linear-gradient-5);}.cls-13{stroke:#030304;}.cls-13,.cls-14{stroke-width:1.73px;}.cls-13,.cls-14,.cls-15{stroke-miterlimit:10;}.cls-13,.cls-16{fill:#010202;}.cls-17{fill:#50504f;}.cls-14{stroke:#010202;}.cls-14,.cls-15{fill:none;}.cls-18{fill:#7ca5d8;}.cls-19{fill:#3f5ea8;}.cls-20{fill:url(#linear-gradient-7);}.cls-21{fill:#93c6ec;}.cls-15{stroke:#ffd80c;stroke-width:4.32px;}.cls-22{fill:url(#linear-gradient-3);}.cls-23{fill:url(#linear-gradient);}.cls-11{fill:#e03d15;opacity:.5;}.cls-24{fill:url(#linear-gradient-4);}.cls-25{fill:#0f468e;}</style><linearGradient id="linear-gradient" x1="681.9" y1="-34.98" x2="681.9" y2="101.42" gradientTransform="translate(0 103.92) scale(1 -1)" gradientUnits="userSpaceOnUse"><stop offset="0" stop-color="#c2dcf4"/><stop offset="1" stop-color="#275387"/></linearGradient><radialGradient id="radial-gradient" cx="681.8" cy="24.72" fx="681.8" fy="24.72" r="59.1" gradientTransform="translate(0 103.92) scale(1 -1)" gradientUnits="userSpaceOnUse"><stop offset="0" stop-color="#fff" stop-opacity=".7"/><stop offset=".13" stop-color="#f9fbfe" stop-opacity=".68"/><stop offset=".28" stop-color="#e4e9f7" stop-opacity=".62"/><stop offset=".44" stop-color="#c3cdea" stop-opacity=".53"/><stop offset=".62" stop-color="#93a7d6" stop-opacity=".4"/><stop offset=".79" stop-color="#5673b7" stop-opacity=".23"/><stop offset=".98" stop-color="#2e509e" stop-opacity=".03"/><stop offset="1" stop-color="#2c4c9b" stop-opacity="0"/></radialGradient><linearGradient id="linear-gradient-2" x1="521.1" y1="345.45" x2="521.1" y2="305.65" gradientTransform="translate(0 -254.83)" gradientUnits="userSpaceOnUse"><stop offset="0" stop-color="#542913"/><stop offset=".45" stop-color="#542913" stop-opacity=".7"/><stop offset=".58" stop-color="#e03d15" stop-opacity=".5"/><stop offset="1" stop-color="#e03d15" stop-opacity=".5"/></linearGradient><linearGradient id="linear-gradient-3" x1="-633.07" y1="1420.71" x2="-561.23" y2="1348.87" gradientTransform="translate(-203.19 -1330.73) rotate(-45)" gradientUnits="userSpaceOnUse"><stop offset="0" stop-color="#020303"/><stop offset="1" stop-color="#797879"/></linearGradient><linearGradient id="linear-gradient-4" x1="185.55" y1="-12.58" x2="185.55" y2="86.92" gradientTransform="translate(0 107.92) scale(1 -1)" gradientUnits="userSpaceOnUse"><stop offset=".16" stop-color="#823a13"/><stop offset=".18" stop-color="#985c1a"/><stop offset=".22" stop-color="#ae7d22"/><stop offset=".26" stop-color="#c39d26"/><stop offset=".3" stop-color="#d6b92e"/><stop offset=".35" stop-color="#e4cf36"/><stop offset=".41" stop-color="#efe036"/><stop offset=".48" stop-color="#f6e947"/><stop offset=".58" stop-color="#f8ea4e"/><stop offset=".86" stop-color="#f6ea4d"/><stop offset="1" stop-color="#fcf4f9"/></linearGradient><linearGradient id="linear-gradient-5" x1="185.55" y1="92.24" x2="185.55" y2="-59.81" gradientTransform="translate(0 107.92) scale(1 -1)" gradientUnits="userSpaceOnUse"><stop offset=".26" stop-color="#f6ea4d"/><stop offset=".86" stop-color="#803813"/></linearGradient><linearGradient id="linear-gradient-6" x1="185.65" y1="-11.08" x2="185.65" y2="85.55" gradientTransform="translate(0 107.92) scale(1 -1)" gradientUnits="userSpaceOnUse"><stop offset=".16" stop-color="#803813"/><stop offset=".17" stop-color="#8c471e"/><stop offset=".18" stop-color="#a26b3c"/><stop offset=".2" stop-color="#b78954"/><stop offset=".22" stop-color="#c7a468"/><stop offset=".24" stop-color="#d7bb7a"/><stop offset=".26" stop-color="#e2cc88"/><stop offset=".3" stop-color="#ead891"/><stop offset=".34" stop-color="#eede97"/><stop offset=".46" stop-color="#efe097"/><stop offset=".7" stop-color="#803813"/><stop offset=".73" stop-color="#e6d234"/><stop offset=".74" stop-color="#ebd948"/><stop offset=".75" stop-color="#eede6d"/><stop offset=".77" stop-color="#f0e28a"/><stop offset=".79" stop-color="#f8ebaa"/><stop offset=".8" stop-color="#f8edbf"/><stop offset=".83" stop-color="#faf0cf"/><stop offset=".85" stop-color="#fcf2da"/><stop offset=".89" stop-color="#fdf4e1"/><stop offset=".99" stop-color="#fdf5e3"/></linearGradient><linearGradient id="linear-gradient-7" x1="185.55" y1="71.3" x2="185.55" y2="-77.84" gradientTransform="translate(0 107.92) scale(1 -1)" gradientUnits="userSpaceOnUse"><stop offset=".26" stop-color="#f6ea4d"/><stop offset=".77" stop-color="#803813"/></linearGradient></defs><rect class="cls-5" width="878.7" height="141.7"/><g id="ocean"><polygon class="cls-16" points="742.8 106 742.8 35.5 681.9 .3 620.8 35.5 620.8 106 681.9 141.1 742.8 106"/><polygon class="cls-23" points="741 104.9 741 36.7 681.9 2.5 622.8 36.7 622.8 104.9 681.9 138.9 741 104.9"/><polygon class="cls-10" points="737 102.6 737 38.9 681.9 7 626.7 38.9 626.7 102.6 681.9 134.4 737 102.6"/><path class="cls-25" d="M737,79.1c-2.5-2.3-7.3-3.3-15.5-4.3-8-1.1-12-1.5-14-1.5-12.7-.1-13.5,3.4-24,3.5-2.8,0-10.3-1.5-25.7-4.7-8.8-1.8-11.5-2.5-16-2.1-6.2,.5-11.4,2.6-15.2,4.8v27.8l55.3,31.9,55.1-31.9v-23.5h0Z"/><path class="cls-7" d="M682,117.2h0c24.8-.5,36.9-25.5,25.4-52.9-.9-2.3-2.2-4.8-3.7-7.4-21.9-40-21.9-39.8-21.9-39.8,0,0,0-.2-21.9,39.8-1.4,2.6-2.6,5.1-3.7,7.4-11.5,27.4,.6,52.5,25.4,52.9h0"/><path class="cls-21" d="M682,115.7h0c23.5-.5,34.9-24.1,24.1-50.1-.9-2.2-2.1-4.6-3.4-7.1-20.7-37.8-20.7-37.6-20.7-37.6,0,0,0-.2-20.7,37.7-1.3,2.5-2.5,4.7-3.4,7.1-11.1,25.9,.3,49.7,24.1,50h0"/><path class="cls-18" d="M681.9,113h0c21.7-.3,32.1-22.1,22.1-45.9-.8-2.1-2-4.2-3.2-6.5-18.9-34.8-18.9-34.6-18.9-34.6,0,0,0-.2-19.1,34.6-1.2,2.2-2.2,4.3-3.2,6.5-9.8,23.8,.6,45.4,22.3,45.9h0"/><path class="cls-19" d="M706.2,73.2c-11.5,.1-12.6,3.4-22.8,3.5-2.8,0-10.3-1.5-25.5-4.6-6.6,21.8,3.9,40.5,24,40.8h.1c19.6-.2,30.1-18.3,24.2-39.7h0Z"/><circle class="cls-9" cx="681.8" cy="79.2" r="59.1"/></g><g id="arrow"><path class="cls-11" d="M576.5,70.7l-52.9-24.5,6.4,12.8h-59.6s-1.8,5.7-1.8,11.2,1.8,10,1.8,10h60.8l-7.5,15,52.8-24.5h0Z"/><path class="cls-1" d="M534.7,78.1h-62.7c-.5-1.6-1.2-4.6-1.2-7.8,0-3.5,.8-7.1,1.3-9.1h61.5l-5.2-10.3,43,19.9-43,19.9,6.3-12.6h0Z"/><path class="cls-8" d="M539.3,75.2h-65.1c-.3-1.4-.5-3.1-.5-5,0-2.2,.4-4.4,.7-6.2h63.9l-3.6-7.2,30,13.9-30,13.9,4.6-9.4h0Z"/><path class="cls-14" d="M534.7,78.1h-62.7c-.5-1.6-1.2-4.6-1.2-7.8,0-3.5,.8-7.1,1.3-9.1h61.5l-5.2-10.3,43,19.9-43,19.9,6.3-12.6h0Z"/></g><path class="cls-2" d="M418.5,107.6v-7.4c2.4-2.6,4.2-5.3,5.4-8.1s2.2-6.1,2.9-9.8,1-7.5,1-11.4-.3-7.9-1-11.5c-.6-3.6-1.6-6.8-2.9-9.8s-3.1-5.7-5.5-8.3v-7.4c4.5,2.4,8.2,5.6,11.3,9.5s5.4,8.3,7.1,13.1,2.5,9.5,2.5,14.3-.8,9.4-2.4,14.1-3.9,9-6.8,12.9c-2.9,3.8-6.8,7.1-11.6,9.8h0Z"/><g id="titan"><rect class="cls-3" x="299.9" y="16.8" width="107.8" height="107.8"/><rect class="cls-22" x="303" y="19.9" width="101.5" height="101.6"/><rect class="cls-17" x="307.9" y="24.9" width="91.7" height="91.7"/><path id="darker" class="cls-4" d="M404.6,121.5h-101.6v-55.7s32,4.9,50.7,4.9,50.8-4.9,50.8-4.9l.1,55.7h0Z"/><polygon class="cls-15" points="354.4 40.8 364 60.9 386.1 63.8 369.8 79.1 374 100.9 354.4 90.2 334.8 100.9 339 79.1 322.7 63.8 344.8 60.9 354.4 40.8"/></g><path class="cls-2" d="M289.1,33.8v7.4c-2.4,2.6-4.2,5.4-5.5,8.3-1.3,2.9-2.2,6.2-2.9,9.8-.6,3.6-1,7.4-1,11.3s.3,7.8,1,11.4c.6,3.6,1.6,6.8,2.9,9.8,1.3,2.9,3.1,5.7,5.5,8.3v7.4c-3.1-1.7-5.4-3.2-6.8-4.5s-2.7-2.7-4-4.3c-3.3-4.1-5.8-8.6-7.5-13.6s-2.6-9.8-2.6-14.5c0-6.1,1.4-12.2,4.1-18.2,1.9-4.3,4.4-8.1,7.3-11.4,1.1-1.3,2.3-2.4,3.5-3.4,1.3-.9,3.2-2.2,6-3.8h0Z"/><g id="mln"><polygon id="obram_czarne" class="cls-13" points="148.7 18 132.7 34 132.7 107.5 148.7 123.5 222.4 123.5 238.3 107.5 238.3 34 222.4 18 148.7 18"/><polygon id="obram_zolte" class="cls-24" points="150.8 21 135.9 36 135.9 105.4 150.8 120.5 220.2 120.5 235.2 105.4 235.2 36 220.2 21 150.8 21"/><polygon id="tlo_wew" class="cls-12" points="151.8 22.4 137.2 37.1 137.2 104.4 151.8 119 219.3 119 233.9 104.4 233.9 37.1 219.3 22.4 151.8 22.4"/><path id="obram_skosne" class="cls-6" d="M226.9,89.3c-2.7,0-4.8-2.2-4.8-4.8v-27.6c0-2.7,2.2-4.8,4.8-4.8h6.9v-15l-14.5-14.6h-15.1v6.9c0,2.7-2.2,4.8-4.8,4.8h-27.6c-2.7,0-4.8-2.2-4.8-4.8v-6.9h-15l-14.6,14.6v15.1h6.9c2.7,0,4.8,2.2,4.8,4.8v27.6c0,2.7-2.2,4.8-4.8,4.8h-6.9v15l14.6,14.6h15v-6.9c0-2.7,2.2-4.8,4.8-4.8h27.6c2.7,0,4.8,2.2,4.8,4.8v6.9h15.1l14.6-14.6v-15.1h-7Z"/><path id="tlo_zew" class="cls-20" d="M226.6,91c-3.3,0-6-3.3-6-6.6v-27.4c0-3.3,2.7-6.6,6-6.6h5.6v-12.2l-14.2-14.1h-12.2v5.6c0,3.3-3.3,6-6.6,6h-27.4c-3.3,0-6.6-2.7-6.6-6v-5.6h-12.2l-14.1,14.1v12.3h5.6c3.3,0,6,3.3,6,6.6v27.4c0,3.3-2.7,6.6-6,6.6h-5.6v12.3l14.1,14.1h12.3v-5.6c0-3.3,3.3-6,6.6-6h27.3c3.3,0,6.6,2.7,6.6,6v5.6h12.2l14.1-14.1v-12.4h-5.5Z"/></g><g><path d="M160.3,92.65V53.69h-5.9l-.18-4.41,14.89-1.28v44.65h-8.82Z"/><path d="M187.76,92.65v-6.97c2.66-3.57,5.24-6.45,7.74-8.64l3.6-3.19c2.58-2.28,4.71-4.54,6.39-6.78,1.68-2.23,2.52-4.57,2.52-7.01,0-2.2-.71-3.91-2.13-5.11-1.42-1.2-3.34-1.8-5.76-1.8-3.22,0-6.96,1.09-11.23,3.28v-6.46c4.48-1.67,8.82-2.5,13-2.5,4.62,0,8.36,1.11,11.2,3.32,2.85,2.21,4.27,5.18,4.27,8.89,0,2.34-.6,4.55-1.8,6.63-1.2,2.07-3.69,4.64-7.48,7.7l-2.98,2.38c-1.31,1.05-2.74,2.4-4.29,4.05-1.56,1.65-2.58,3.4-3.08,5.24h19.45v6.97h-29.43Z"/></g></svg>