<?xml version="1.0" encoding="utf-8"?>
<!-- Generator: Adobe Illustrator 26.3.1, SVG Export Plug-In . SVG Version: 6.00 Build 0)  -->
<svg version="1.1" id="Layer" xmlns="http://www.w3.org/2000/svg" xmlns:xlink="http://www.w3.org/1999/xlink" x="0px" y="0px"
	 viewBox="0 0 878.7 141.7" style="enable-background:new 0 0 878.7 141.7;" xml:space="preserve">
<style type="text/css">
	.st0{opacity:0;fill:#FFFFFF;}
	.st1{fill:#FFFFFF;}
	.st2{opacity:0.4;fill:url(#SVGID_1_);enable-background:new    ;}
	.st3{fill:url(#SVGID_00000053540891538607040440000003612551422076769178_);}
	.st4{fill:#010202;}
	.st5{fill:url(#SVGID_00000182511688633872332790000017005933758324251264_);}
	.st6{fill:url(#SVGID_00000063596926542132981160000016884608316750252965_);}
	.st7{opacity:0.29;fill:#010202;enable-background:new    ;}
	.st8{fill:none;stroke:#030304;stroke-width:0.93;stroke-miterlimit:10;}
	.st9{fill:#030304;}
	.st10{fill:#010202;stroke:#030304;stroke-width:1.77;stroke-miterlimit:10;}
	.st11{fill:url(#obram_zolte_00000137844242655755893530000006008279065817707172_);}
	.st12{fill:url(#tlo_wew_00000094578506863833291200000004271808215110083234_);}
	.st13{fill:url(#obram_skosne_00000119081568999717179160000018068316359461722779_);}
	.st14{fill:url(#tlo_zew_00000036931966927721363030000003103969610364914084_);}
	.st15{fill:#010101;}
	.st16{opacity:0.5;fill:#E03E17;enable-background:new    ;}
	.st17{fill:url(#SVGID_00000152239125740301088890000009930223023675866036_);}
	.st18{fill:#CE141E;}
	.st19{fill:none;stroke:#020303;stroke-width:1.73;stroke-miterlimit:10;}
	.st20{fill:url(#SVGID_00000142855639655696681450000010892471485141123748_);}
	.st21{fill:#7F358B;}
	.st22{fill:#FFFFFF;stroke:#030304;stroke-width:0.87;stroke-miterlimit:10;}
	.st23{opacity:0.15;fill:#030304;enable-background:new    ;}
</style>
<rect y="0" class="st0" width="878.7" height="141.7"/>
<path class="st1" d="M734,26.6l-11.4-1.4l2.6-8l10,5.5c-0.9,1-1.3,2-1.3,3.1C734,26,734,26.2,734,26.6C734.1,26.6,734,26.6,734,26.6
	z M737.6,29.7l-4.9,10.4l-6.8-5l8.4-7.9C735,28.6,736.1,29.4,737.6,29.7L737.6,29.7L737.6,29.7z M733.7,11h8.4L740,22.3
	c-0.7-0.3-1.4-0.5-2.1-0.5s-1.3,0.2-2,0.5L733.7,11L733.7,11L733.7,11z M741.7,27.3l8.4,7.9l-6.8,5l-4.8-10.4
	C739.8,29.4,740.9,28.6,741.7,27.3L741.7,27.3L741.7,27.3z M740.6,22.7l10-5.5l2.6,8l-11.4,1.4c0-0.3,0.1-0.6,0.1-0.8
	C742,24.7,741.5,23.6,740.6,22.7z"/>
<g id="cityAny">
	
		<linearGradient id="SVGID_1_" gradientUnits="userSpaceOnUse" x1="654.48" y1="-14.8477" x2="654.48" y2="126.1023" gradientTransform="matrix(1 0 0 -1 0 126.2723)">
		<stop  offset="0" style="stop-color:#FFDC0E"/>
		<stop  offset="0" style="stop-color:#FFDB0F"/>
		<stop  offset="5.000000e-02" style="stop-color:#F9BA17"/>
		<stop  offset="0.1" style="stop-color:#F49A15"/>
		<stop  offset="0.16" style="stop-color:#EF7A17"/>
		<stop  offset="0.22" style="stop-color:#E86013"/>
		<stop  offset="0.27" style="stop-color:#E8491B"/>
		<stop  offset="0.34" style="stop-color:#E5381B"/>
		<stop  offset="0.41" style="stop-color:#E62F1D"/>
		<stop  offset="0.5" style="stop-color:#E52C1D"/>
		<stop  offset="0.59" style="stop-color:#E62F1D"/>
		<stop  offset="0.66" style="stop-color:#E5381B"/>
		<stop  offset="0.73" style="stop-color:#E8491B"/>
		<stop  offset="0.78" style="stop-color:#E86013"/>
		<stop  offset="0.84" style="stop-color:#EF7A17"/>
		<stop  offset="0.9" style="stop-color:#F49A15"/>
		<stop  offset="0.95" style="stop-color:#F9BA17"/>
		<stop  offset="1" style="stop-color:#FFDB0F"/>
		<stop  offset="1" style="stop-color:#FFDC0E"/>
	</linearGradient>
	<path class="st2" d="M654.5,141.1l-61.1-35.3V35.3l61.1-35.2l61,35.2v70.5L654.5,141.1L654.5,141.1z"/>
	
		<linearGradient id="SVGID_00000121988822901642341470000007009071427964607885_" gradientUnits="userSpaceOnUse" x1="654.4849" y1="-13.4777" x2="654.4849" y2="124.8423" gradientTransform="matrix(1 0 0 -1 0 126.2723)">
		<stop  offset="0" style="stop-color:#FFDC0E"/>
		<stop  offset="0" style="stop-color:#FFDB0F"/>
		<stop  offset="5.000000e-02" style="stop-color:#F9BA17"/>
		<stop  offset="0.1" style="stop-color:#F49A15"/>
		<stop  offset="0.16" style="stop-color:#EF7A17"/>
		<stop  offset="0.22" style="stop-color:#E86013"/>
		<stop  offset="0.27" style="stop-color:#E8491B"/>
		<stop  offset="0.34" style="stop-color:#E5381B"/>
		<stop  offset="0.41" style="stop-color:#E62F1D"/>
		<stop  offset="0.5" style="stop-color:#E52C1D"/>
		<stop  offset="0.59" style="stop-color:#E62F1D"/>
		<stop  offset="0.66" style="stop-color:#E5381B"/>
		<stop  offset="0.73" style="stop-color:#E8491B"/>
		<stop  offset="0.78" style="stop-color:#E86013"/>
		<stop  offset="0.84" style="stop-color:#EF7A17"/>
		<stop  offset="0.9" style="stop-color:#F49A15"/>
		<stop  offset="0.95" style="stop-color:#F9BA17"/>
		<stop  offset="1" style="stop-color:#FFDB0F"/>
		<stop  offset="1" style="stop-color:#FFDC0E"/>
	</linearGradient>
	<path style="fill:url(#SVGID_00000121988822901642341470000007009071427964607885_);" d="M654.5,139.8l-60-34.6V36l60-34.6
		L714.4,36v69.1L654.5,139.8z"/>
	<polygon class="st4" points="711.2,103.3 711.2,37.9 654.5,5.2 597.8,37.9 597.8,103.3 654.5,136.1 	"/>
	
		<linearGradient id="SVGID_00000008133447252664502720000009986623889527492281_" gradientUnits="userSpaceOnUse" x1="654.485" y1="-7.7677" x2="654.485" y2="119.1323" gradientTransform="matrix(1 0 0 -1 0 126.2723)">
		<stop  offset="0" style="stop-color:#010202"/>
		<stop  offset="1" style="stop-color:#FFFFFF"/>
	</linearGradient>
	<polygon style="fill:url(#SVGID_00000008133447252664502720000009986623889527492281_);" points="709.4,102.3 709.4,38.9 
		654.5,7.1 599.6,38.9 599.6,102.3 654.5,134 	"/>
	
		<radialGradient id="SVGID_00000110470882224675723050000007641937139629132936_" cx="654.545" cy="55.6823" r="55.3948" gradientTransform="matrix(1 0 0 -1 0 126.2723)" gradientUnits="userSpaceOnUse">
		<stop  offset="0" style="stop-color:#C9C7C7"/>
		<stop  offset="1" style="stop-color:#737171"/>
	</radialGradient>
	<polygon style="fill:url(#SVGID_00000110470882224675723050000007641937139629132936_);" points="705.8,100.2 705.8,41 654.5,11.4 
		603.3,41 603.3,100.2 654.5,129.8 	"/>
	<path class="st7" d="M710.8,101.5V60.6l0,0c-37.5,5.6-75.1,5.6-112.7,0l0,0v40.9l56.3,32.5C654.4,134,710.8,101.5,710.8,101.5z"/>
	<g id="city-logo">
		<path class="st8" d="M615.2,77.8c0-21,17.6-37.9,39.2-37.9"/>
		<path class="st8" d="M693.5,77.8c0-21-17.7-37.9-39.5-37.9"/>
		<rect x="614.6" y="75.3" class="st9" width="79.6" height="5"/>
		<rect x="618.7" y="70.7" class="st9" width="2.4" height="4.7"/>
		<rect x="619.9" y="67" class="st9" width="1.1" height="3.8"/>
		<rect x="623.6" y="70.2" class="st9" width="4.3" height="5.2"/>
		<rect x="623.6" y="64.1" class="st9" width="2.2" height="6.1"/>
		<rect x="629.3" y="68.8" class="st9" width="1.8" height="6.5"/>
		<rect x="631.1" y="55.8" class="st9" width="2.1" height="19.5"/>
		<rect x="632.2" y="53.7" class="st9" width="1" height="2.1"/>
		<rect x="633.2" y="70.7" class="st9" width="3.4" height="4.7"/>
		<rect x="635.9" y="68.4" class="st9" width="0.7" height="2.4"/>
		<rect x="636.6" y="51.1" class="st9" width="2.7" height="24.3"/>
		<rect x="639.3" y="55.5" class="st9" width="1.4" height="19.9"/>
		<rect x="640.8" y="62.5" class="st9" width="2.9" height="12.8"/>
		<rect x="643.7" y="65.2" class="st9" width="1.8" height="10.3"/>
		<rect x="647.1" y="58.9" class="st9" width="3.8" height="16.5"/>
		<rect x="651" y="65.4" class="st9" width="1.9" height="9.9"/>
		<rect x="652.9" y="47" class="st9" width="4.7" height="28.3"/>
		<rect x="659.8" y="53.3" class="st9" width="2.4" height="22"/>
		<rect x="664.7" y="57.8" class="st9" width="2.6" height="17.5"/>
		<rect x="662.1" y="69.5" class="st9" width="2.6" height="5.8"/>
		<rect x="667.3" y="72.1" class="st9" width="1.9" height="3.3"/>
		<rect x="671.5" y="70.4" class="st9" width="1.7" height="4.9"/>
		<rect x="673.2" y="62.5" class="st9" width="3" height="12.8"/>
		<rect x="676" y="56.6" class="st9" width="2.2" height="18.7"/>
		<rect x="678.2" y="69.7" class="st9" width="1.8" height="5.6"/>
		<rect x="681" y="66.3" class="st9" width="2.3" height="9"/>
		<rect x="683.3" y="65.4" class="st9" width="2.5" height="9.9"/>
		<rect x="687.5" y="70.9" class="st9" width="1.1" height="4.6"/>
		<rect x="688.7" y="73.2" class="st9" width="2.2" height="2.3"/>
	</g>
</g>
<path class="st1" d="M532.7,104l30.3-64.7h7.8L540.4,104H532.7z"/>
<g id="mln">
	<polygon id="obram_czarne" class="st10" points="424.1,17.8 407.8,34.2 407.8,109.4 424.1,125.7 499.4,125.7 515.7,109.4 
		515.7,34.2 499.4,17.8 	"/>
	
		<linearGradient id="obram_zolte_00000127752015544802137710000016443917238637574324_" gradientUnits="userSpaceOnUse" x1="461.77" y1="137.6823" x2="461.77" y2="35.9523" gradientTransform="matrix(1 0 0 1 0 -15.0623)">
		<stop  offset="0.16" style="stop-color:#823A13"/>
		<stop  offset="0.18" style="stop-color:#985C1A"/>
		<stop  offset="0.22" style="stop-color:#AE7D22"/>
		<stop  offset="0.26" style="stop-color:#C39D26"/>
		<stop  offset="0.3" style="stop-color:#D6B92E"/>
		<stop  offset="0.35" style="stop-color:#E4CF36"/>
		<stop  offset="0.41" style="stop-color:#EFE036"/>
		<stop  offset="0.48" style="stop-color:#F6E947"/>
		<stop  offset="0.58" style="stop-color:#F8EA4E"/>
		<stop  offset="0.86" style="stop-color:#F6EA4D"/>
		<stop  offset="1" style="stop-color:#FCF4F9"/>
	</linearGradient>
	<polygon id="obram_zolte" style="fill:url(#obram_zolte_00000127752015544802137710000016443917238637574324_);" points="
		426.2,20.9 411,36.3 411,107.2 426.2,122.6 497.2,122.6 512.6,107.2 512.6,36.3 497.2,20.9 	"/>
	
		<linearGradient id="tlo_wew_00000143581280852354258040000002163466743481613751_" gradientUnits="userSpaceOnUse" x1="461.765" y1="30.5423" x2="461.765" y2="186.0323" gradientTransform="matrix(1 0 0 1 0 -15.0623)">
		<stop  offset="0.26" style="stop-color:#F6EA4D"/>
		<stop  offset="0.86" style="stop-color:#803813"/>
	</linearGradient>
	<polygon id="tlo_wew" style="fill:url(#tlo_wew_00000143581280852354258040000002163466743481613751_);" points="427.3,22.4 
		412.4,37.3 412.4,106.2 427.3,121.1 496.2,121.1 511.2,106.2 511.2,37.3 496.2,22.4 	"/>
	
		<linearGradient id="obram_skosne_00000026152248655853603840000005169681218367655061_" gradientUnits="userSpaceOnUse" x1="461.805" y1="136.2823" x2="461.805" y2="37.4623" gradientTransform="matrix(1 0 0 1 0 -15.0623)">
		<stop  offset="0.16" style="stop-color:#803813"/>
		<stop  offset="0.17" style="stop-color:#8C471E"/>
		<stop  offset="0.18" style="stop-color:#A26B3C"/>
		<stop  offset="0.2" style="stop-color:#B78954"/>
		<stop  offset="0.22" style="stop-color:#C7A468"/>
		<stop  offset="0.24" style="stop-color:#D7BB7A"/>
		<stop  offset="0.26" style="stop-color:#E2CC88"/>
		<stop  offset="0.3" style="stop-color:#EAD891"/>
		<stop  offset="0.34" style="stop-color:#EEDE97"/>
		<stop  offset="0.46" style="stop-color:#EFE097"/>
		<stop  offset="0.7" style="stop-color:#803813"/>
		<stop  offset="0.73" style="stop-color:#E6D234"/>
		<stop  offset="0.74" style="stop-color:#EBD948"/>
		<stop  offset="0.75" style="stop-color:#EEDE6D"/>
		<stop  offset="0.77" style="stop-color:#F0E28A"/>
		<stop  offset="0.79" style="stop-color:#F8EBAA"/>
		<stop  offset="0.8" style="stop-color:#F8EDBF"/>
		<stop  offset="0.83" style="stop-color:#FAF0CF"/>
		<stop  offset="0.85" style="stop-color:#FCF2DA"/>
		<stop  offset="0.89" style="stop-color:#FDF4E1"/>
		<stop  offset="0.99" style="stop-color:#FDF5E3"/>
	</linearGradient>
	<path id="obram_skosne" style="fill:url(#obram_skosne_00000026152248655853603840000005169681218367655061_);" d="M504,90.8
		c-2.7,0-5-2.2-5-4.9V57.7c0-2.7,2.2-5,5-5h7.1V37.3l-14.9-14.9h-15.5v7.1c0,2.7-2.2,5-5,5h-28.2c-2.7,0-5-2.2-5-5v-7.1h-15.4
		l-14.9,14.9v15.5h7.1c2.7,0,5,2.2,5,5v28.2c0,2.7-2.2,4.9-5,4.9h-7.1v15.4l14.9,14.9h15.5v-7.1c0-2.7,2.2-4.9,5-4.9h28.2
		c2.7,0,5,2.2,5,4.9v7.1h15.5l14.9-14.9V90.8C511.3,90.8,504,90.8,504,90.8z"/>
	
		<linearGradient id="tlo_zew_00000109014500097437025180000007792734051528789941_" gradientUnits="userSpaceOnUse" x1="461.76" y1="51.9523" x2="461.76" y2="204.4623" gradientTransform="matrix(1 0 0 1 0 -15.0623)">
		<stop  offset="0.26" style="stop-color:#F6EA4D"/>
		<stop  offset="0.77" style="stop-color:#803813"/>
	</linearGradient>
	<path id="tlo_zew" style="fill:url(#tlo_zew_00000109014500097437025180000007792734051528789941_);" d="M503.8,92.5
		c-3.4,0-6.1-3.4-6.1-6.7v-28c0-3.4,2.7-6.7,6.1-6.7h5.7V38.5L495,24.1h-12.5v5.7c0,3.4-3.4,6.1-6.7,6.1h-28c-3.4,0-6.7-2.7-6.7-6.1
		v-5.7h-12.6L414,38.5V51h5.7c3.4,0,6.1,3.4,6.1,6.7v28c0,3.4-2.7,6.7-6.1,6.7H414V105l14.4,14.4H441v-5.7c0-3.4,3.4-6.1,6.7-6.1
		h27.9c3.4,0,6.7,2.7,6.7,6.1v5.7h12.5l14.4-14.4V92.5L503.8,92.5L503.8,92.5z"/>
</g>
<path class="st15" d="M459.2,97.7V52.6h-6.8l-0.2-5.1l17.3-1.5v51.8L459.2,97.7L459.2,97.7z"/>
<g id="arrow">
	<path class="st16" d="M375.5,71.8l-53-24.5l6.4,12.7h-59.7c0,0-1.8,5.7-1.8,11.3s1.8,10,1.8,10h60.8l-7.5,15L375.5,71.8L375.5,71.8
		L375.5,71.8z"/>
	
		<linearGradient id="SVGID_00000169528193462131329220000005093211845204418451_" gradientUnits="userSpaceOnUse" x1="319.965" y1="89.7323" x2="319.965" y2="49.8923" gradientTransform="matrix(1 0 0 1 0 1.9377)">
		<stop  offset="0" style="stop-color:#532A15"/>
		<stop  offset="0.45" style="stop-color:#532A15;stop-opacity:0.7"/>
		<stop  offset="0.58" style="stop-color:#E03E17;stop-opacity:0.5"/>
		<stop  offset="1" style="stop-color:#E03E17;stop-opacity:0.5"/>
	</linearGradient>
	<path style="fill:url(#SVGID_00000169528193462131329220000005093211845204418451_);" d="M333.6,79.1h-62.8
		c-0.5-1.6-1.2-4.6-1.2-7.9c0-3.5,0.8-7.1,1.3-9.1h61.6l-5.2-10.3l43.1,19.9l-43.1,19.9L333.6,79.1L333.6,79.1L333.6,79.1z"/>
	<path class="st18" d="M338.2,76.2H273c-0.3-1.4-0.5-3.1-0.5-5c0-2.2,0.4-4.4,0.7-6.2h63.9l-3.6-7.2l30.1,13.9l-30.1,13.9
		L338.2,76.2L338.2,76.2L338.2,76.2z"/>
	<path class="st19" d="M333.6,79.1h-62.8c-0.5-1.6-1.2-4.6-1.2-7.9c0-3.5,0.8-7.1,1.3-9.1h61.6l-5.2-10.3l43.1,19.9l-43.1,19.9
		L333.6,79.1L333.6,79.1L333.6,79.1z"/>
</g>
<g id="energy">
	<rect x="125.7" y="17.8" class="st9" width="107.9" height="107.9"/>
	
		<linearGradient id="SVGID_00000154410755101566992670000009493680579880472963_" gradientUnits="userSpaceOnUse" x1="-677.723" y1="1106.4062" x2="-605.8173" y2="1034.5006" gradientTransform="matrix(0.7071 -0.7071 0.7071 0.7071 -123.4999 -1138.9799)">
		<stop  offset="0" style="stop-color:#1D1427"/>
		<stop  offset="0.24" style="stop-color:#372348"/>
		<stop  offset="0.49" style="stop-color:#573B6C"/>
		<stop  offset="0.71" style="stop-color:#72508C"/>
		<stop  offset="0.89" style="stop-color:#835CA0"/>
		<stop  offset="1" style="stop-color:#8963A7"/>
	</linearGradient>
	
		<rect x="128.8" y="20.9" style="fill:url(#SVGID_00000154410755101566992670000009493680579880472963_);" width="101.7" height="101.7"/>
	<polygon class="st21" points="225.5,25.8 225.5,117.7 133.7,117.7 133.7,25.8 	"/>
	<polygon class="st22" points="168.4,61.2 198.7,42.5 182.5,65.9 191.1,79.8 161.3,98.6 176.3,75.3 	"/>
	<path id="darker" class="st23" d="M230.5,122.6H128.8V66.9c0,0,32,4.9,50.8,4.9s50.9-4.9,50.9-4.9L230.5,122.6L230.5,122.6
		L230.5,122.6z"/>
</g>
</svg>
