<?xml version="1.0" encoding="UTF-8"?><svg id="Layer" xmlns="http://www.w3.org/2000/svg" xmlns:xlink="http://www.w3.org/1999/xlink" viewBox="0 0 878.74 141.73"><defs><style>.cls-1{fill:url(#linear-gradient-2);}.cls-2{fill:#010202;stroke:#030304;stroke-width:1.76px;}.cls-2,.cls-3{stroke-miterlimit:10;}.cls-4{fill:#fff;opacity:0;}.cls-5{fill:url(#linear-gradient-6);}.cls-6{fill:#946137;}.cls-7{fill:#1f1f1e;}.cls-8{opacity:.15;}.cls-8,.cls-9,.cls-10{isolation:isolate;}.cls-8,.cls-11{fill:#030304;}.cls-12{fill:#ce141e;}.cls-3{stroke:#020303;stroke-width:1.73px;}.cls-3,.cls-13{fill:none;}.cls-9{fill:url(#Nowy_wzorek);opacity:.1;}.cls-10{fill:#e03e17;opacity:.5;}.cls-14{fill:url(#linear-gradient-5);}.cls-15{fill:url(#linear-gradient-7);}.cls-16{fill:url(#linear-gradient-9);}.cls-17{fill:url(#linear-gradient-3);}.cls-18{fill:url(#linear-gradient);}.cls-19{fill:url(#linear-gradient-4);}.cls-20{fill:#342217;}.cls-21{fill:#010101;}.cls-22{fill:url(#linear-gradient-8);}</style><linearGradient id="linear-gradient" x1="638.91" y1="166.66" x2="513.41" y2="41.16" gradientTransform="translate(0 -33.09)" gradientUnits="userSpaceOnUse"><stop offset="0" stop-color="#9e9d9c"/><stop offset=".54" stop-color="#010202"/><stop offset="1" stop-color="#9e9d9c"/></linearGradient><linearGradient id="linear-gradient-2" x1="576.21" y1="162.53" x2="576.21" y2="45.3" gradientTransform="translate(0 -33.09)" gradientUnits="userSpaceOnUse"><stop offset="0" stop-color="#462c1b"/><stop offset="1" stop-color="#b18048"/></linearGradient><linearGradient id="linear-gradient-3" x1="576.16" y1="159.57" x2="576.16" y2="48.15" gradientTransform="translate(0 -33.09)" gradientUnits="userSpaceOnUse"><stop offset="0" stop-color="#946137"/><stop offset="1" stop-color="#805127"/></linearGradient><pattern id="Nowy_wzorek" x="0" y="0" width="19.7" height="21.7" patternTransform="translate(-450.9 16402.15)" patternUnits="userSpaceOnUse" viewBox="0 0 19.7 21.7"><g><rect class="cls-13" width="19.7" height="21.7"/><g><rect class="cls-13" width="19.7" height="21.7"/><g><rect class="cls-13" width="19.7" height="21.7"/><g><rect class="cls-13" width="19.7" height="21.7"/><g><rect class="cls-13" width="19.7" height="21.7"/><path class="cls-7" d="M16.6,8.7c2.1,2.1,2.1,5.6,0,7.7l-1.2,1.2c-2.1,2.1-5.6,2.1-7.8,0L3.1,13c-2.1-2.1-2.1-5.6,0-7.7l1.2-1.2c2.1-2.1,5.6-2.1,7.7,0l4.6,4.6Z"/></g></g></g></g></g></pattern><linearGradient id="linear-gradient-4" x1="-439.01" y1="-1338.17" x2="-381.73" y2="-1280.89" gradientTransform="translate(-59.6 -1145.08) rotate(-45) scale(1 -1)" gradientUnits="userSpaceOnUse"><stop offset="0" stop-color="#462c1b"/><stop offset=".05" stop-color="#58351a"/><stop offset=".1" stop-color="#683f16"/><stop offset=".32" stop-color="#77491f"/><stop offset=".75" stop-color="#8d5b32"/><stop offset="1" stop-color="#946137"/></linearGradient><linearGradient id="linear-gradient-5" x1="429.64" y1="107.86" x2="429.64" y2="68.06" gradientTransform="translate(0 -17.09)" gradientUnits="userSpaceOnUse"><stop offset="0" stop-color="#532a15"/><stop offset=".45" stop-color="#532a15" stop-opacity=".7"/><stop offset=".58" stop-color="#e03e17" stop-opacity=".5"/><stop offset="1" stop-color="#e03e17" stop-opacity=".5"/></linearGradient><linearGradient id="linear-gradient-6" x1="293.3" y1="155.81" x2="293.3" y2="54.37" gradientTransform="translate(0 -34.1)" gradientUnits="userSpaceOnUse"><stop offset=".16" stop-color="#823a13"/><stop offset=".18" stop-color="#985c1a"/><stop offset=".22" stop-color="#ae7d22"/><stop offset=".26" stop-color="#c39d26"/><stop offset=".3" stop-color="#d6b92e"/><stop offset=".35" stop-color="#e4cf36"/><stop offset=".41" stop-color="#efe036"/><stop offset=".48" stop-color="#f6e947"/><stop offset=".58" stop-color="#f8ea4e"/><stop offset=".86" stop-color="#f6ea4d"/><stop offset="1" stop-color="#fcf4f9"/></linearGradient><linearGradient id="linear-gradient-7" x1="293.3" y1="48.97" x2="293.3" y2="204.02" gradientTransform="translate(0 -34.1)" gradientUnits="userSpaceOnUse"><stop offset=".26" stop-color="#f6ea4d"/><stop offset=".86" stop-color="#803813"/></linearGradient><linearGradient id="linear-gradient-8" x1="293.35" y1="154.4" x2="293.35" y2="55.87" gradientTransform="translate(0 -34.1)" gradientUnits="userSpaceOnUse"><stop offset=".16" stop-color="#803813"/><stop offset=".17" stop-color="#8c471e"/><stop offset=".18" stop-color="#a26b3c"/><stop offset=".2" stop-color="#b78954"/><stop offset=".22" stop-color="#c7a468"/><stop offset=".24" stop-color="#d7bb7a"/><stop offset=".26" stop-color="#e2cc88"/><stop offset=".3" stop-color="#ead891"/><stop offset=".34" stop-color="#eede97"/><stop offset=".46" stop-color="#efe097"/><stop offset=".7" stop-color="#803813"/><stop offset=".73" stop-color="#e6d234"/><stop offset=".74" stop-color="#ebd948"/><stop offset=".75" stop-color="#eede6d"/><stop offset=".77" stop-color="#f0e28a"/><stop offset=".79" stop-color="#f8ebaa"/><stop offset=".8" stop-color="#f8edbf"/><stop offset=".83" stop-color="#faf0cf"/><stop offset=".85" stop-color="#fcf2da"/><stop offset=".89" stop-color="#fdf4e1"/><stop offset=".99" stop-color="#fdf5e3"/></linearGradient><linearGradient id="linear-gradient-9" x1="293.3" y1="70.32" x2="293.3" y2="222.4" gradientTransform="translate(0 -34.1)" gradientUnits="userSpaceOnUse"><stop offset=".26" stop-color="#f6ea4d"/><stop offset=".77" stop-color="#803813"/></linearGradient></defs><rect class="cls-4" width="878.74" height="141.73"/><g id="prodBg"><rect id="external-border" class="cls-18" x="512.54" y="8.94" width="127.23" height="123.76"/><rect id="internal-border" class="cls-1" x="515.81" y="12.2" width="120.8" height="117.23"/><rect id="bg" class="cls-17" x="518.66" y="15.06" width="114.99" height="111.42"/><rect id="bgPattern" class="cls-9" x="518.66" y="15.06" width="114.99" height="111.42"/></g><g id="steel"><rect class="cls-11" x="533.22" y="28.09" width="85.97" height="85.97"/><rect class="cls-19" x="535.7" y="30.57" width="81" height="81"/><rect class="cls-6" x="539.64" y="34.5" width="73.15" height="73.15"/><g><path class="cls-20" d="M583.83,95.24l1.8-33.99-4.13-.48-.62-1.45h-3.17l-.55,1.52-4.83-.2v-8.83h5.58l.42,1.72,2.62,.35,.62-2h5.72l1.1,.97,.97-.97h7.1l.83,1.38,1.24-1.38,5.38,4.41-.35,3.03s-2.97-2.75-4.41-2.75-3.52-.07-3.52-.07l-2.97,4.75-1.8,.14,1.65,33.85h-8.69Z"/><polygon class="cls-20" points="567.76 50.35 561.97 47.19 561.9 55.05 556.67 55.05 556.67 47.19 550.05 50.22 550.05 59.87 556.18 62.83 554.05 95.24 563.9 95.24 561.97 62.83 567.76 60.22 567.76 50.35"/></g><path id="darker" class="cls-8" d="M616.71,111.58h-81v-44.4s25.51,3.93,40.47,3.93,40.54-3.93,40.54-3.93v44.39h0Z"/></g><g id="arrow"><path class="cls-10" d="M485.1,70.86l-52.91-24.45,6.4,12.71h-59.63s-1.8,5.73-1.8,11.24,1.8,10.01,1.8,10.01h60.75l-7.53,14.96,52.91-24.45h0Z"/><path class="cls-14" d="M443.23,78.2h-62.71c-.48-1.63-1.19-4.56-1.19-7.85,0-3.48,.78-7.1,1.28-9.08h61.49l-5.19-10.31,43.04,19.9-43.04,19.9,6.32-12.55h0Z"/><path class="cls-12" d="M447.86,75.35h-65.12c-.29-1.38-.55-3.14-.55-4.99,0-2.18,.35-4.44,.7-6.23h63.85l-3.59-7.15,30.03,13.88-30.03,13.88,4.73-9.39h0Z"/><path class="cls-3" d="M443.23,78.2h-62.71c-.48-1.63-1.19-4.56-1.19-7.85,0-3.48,.78-7.1,1.28-9.08h61.49l-5.19-10.31,43.04,19.9-43.04,19.9,6.32-12.55h0Z"/></g><g id="mln"><polygon id="obram_czarne" class="cls-2" points="255.76 17.19 239.46 33.49 239.46 108.49 255.76 124.79 330.84 124.79 347.06 108.49 347.06 33.49 330.84 17.19 255.76 17.19"/><polygon id="obram_zolte" class="cls-5" points="257.87 20.27 242.63 35.61 242.63 106.37 257.87 121.71 328.64 121.71 343.98 106.37 343.98 35.61 328.64 20.27 257.87 20.27"/><polygon id="tlo_wew" class="cls-15" points="258.93 21.77 244.04 36.66 244.04 105.31 258.93 120.21 327.67 120.21 342.57 105.31 342.57 36.66 327.67 21.77 258.93 21.77"/><path id="obram_skosne" class="cls-22" d="M335.43,89.98c-2.73,0-4.94-2.2-4.94-4.94v-28.11c0-2.73,2.2-4.94,4.94-4.94h7.05v-15.33l-14.81-14.89h-15.42v7.05c0,2.73-2.2,4.94-4.94,4.94h-28.11c-2.73,0-4.94-2.2-4.94-4.94v-7.05h-15.33l-14.89,14.89v15.42h7.05c2.73,0,4.94,2.2,4.94,4.94v28.11c0,2.73-2.2,4.94-4.94,4.94h-7.05v15.33l14.89,14.89h15.42v-7.05c0-2.73,2.2-4.94,4.94-4.94h28.11c2.73,0,4.94,2.2,4.94,4.94v7.05h15.42l14.89-14.89v-15.42h-7.23Z"/><path id="tlo_zew" class="cls-16" d="M335.16,91.66c-3.35,0-6.08-3.35-6.08-6.7v-27.94c0-3.35,2.73-6.7,6.08-6.7h5.73v-12.51l-14.45-14.36h-12.43v5.73c0,3.35-3.35,6.08-6.7,6.08h-27.94c-3.35,0-6.7-2.73-6.7-6.08v-5.73h-12.6l-14.36,14.36v12.51h5.73c3.35,0,6.08,3.35,6.08,6.7v27.94c0,3.35-2.73,6.7-6.08,6.7h-5.73v12.51l14.36,14.36h12.51v-5.73c0-3.35,3.35-6.08,6.7-6.08h27.85c3.35,0,6.7,2.73,6.7,6.08v5.73h12.51l14.36-14.36v-12.51h-5.55Z"/></g><path class="cls-21" d="M278.48,97.29c.3-2.46,.73-4.55,1.3-6.27,.57-1.72,1.51-3.78,2.8-6.18s4.05-6.66,8.25-12.79l11.98-17.45h-26.51v-8.27h34.84v8.27c-4.89,6.15-8.79,11.75-11.69,16.78-2.9,5.04-5.24,9.72-7.02,14.05s-2.67,8.28-2.67,11.86h-11.28Z"/></svg>