<?xml version="1.0" encoding="UTF-8"?><svg id="Layer" xmlns="http://www.w3.org/2000/svg" xmlns:xlink="http://www.w3.org/1999/xlink" viewBox="0 0 878.7 141.7"><defs><style>.cls-1{fill:#010101;stroke-width:1.75px;}.cls-1,.cls-2,.cls-3,.cls-4,.cls-5{stroke:#020303;}.cls-1,.cls-2,.cls-3,.cls-4,.cls-5,.cls-6{stroke-miterlimit:10;}.cls-7{fill:#020303;}.cls-8{fill:#fff;opacity:0;}.cls-9{fill:url(#linear-gradient-6);}.cls-2{fill:url(#linear-gradient);}.cls-2,.cls-4{stroke-width:2.51px;}.cls-10{fill:#cd141b;}.cls-3{stroke-width:3.77px;}.cls-3,.cls-4,.cls-5,.cls-6{fill:none;}.cls-11{fill:url(#radial-gradient);}.cls-4{stroke-linecap:square;}.cls-12{fill:url(#linear-gradient-5);}.cls-5{stroke-width:1.88px;}.cls-13{fill:url(#linear-gradient-7);}.cls-14{fill:url(#linear-gradient-2);opacity:.31;}.cls-14,.cls-15{isolation:isolate;}.cls-16{fill:url(#linear-gradient-3);}.cls-6{stroke:#010202;stroke-width:1.74px;}.cls-15{fill:#e03d15;opacity:.5;}.cls-17{fill:url(#linear-gradient-4);}</style><linearGradient id="linear-gradient" x1="579.69" y1="147.36" x2="579.69" y2="38.97" gradientTransform="translate(0 -21.65)" gradientUnits="userSpaceOnUse"><stop offset="0" stop-color="#951917"/><stop offset=".21" stop-color="#b13c1e"/><stop offset=".44" stop-color="#cb5e26"/><stop offset=".66" stop-color="#e17932"/><stop offset=".85" stop-color="#ee8c39"/><stop offset="1" stop-color="#f3923b"/></linearGradient><radialGradient id="radial-gradient" cx="579.75" cy="93.16" fx="579.75" fy="93.16" r="61.74" gradientTransform="translate(0 -21.65)" gradientUnits="userSpaceOnUse"><stop offset="0" stop-color="#f3923b" stop-opacity=".5"/><stop offset="1" stop-color="#d23f16"/></radialGradient><linearGradient id="linear-gradient-2" x1="579.7" y1="147.36" x2="579.7" y2="78.3" gradientTransform="translate(0 -21.65)" gradientUnits="userSpaceOnUse"><stop offset="0" stop-color="#1f1f1d"/><stop offset="1" stop-color="#3e3d3c"/></linearGradient><linearGradient id="linear-gradient-3" x1="414.6" y1="96.21" x2="414.6" y2="56.11" gradientTransform="translate(0 -4.64)" gradientUnits="userSpaceOnUse"><stop offset="0" stop-color="#542913"/><stop offset=".45" stop-color="#542913" stop-opacity=".7"/><stop offset=".58" stop-color="#e03d15" stop-opacity=".5"/><stop offset="1" stop-color="#e03d15" stop-opacity=".5"/></linearGradient><linearGradient id="linear-gradient-4" x1="274.62" y1="143.51" x2="274.62" y2="42.81" gradientTransform="translate(0 -21.65)" gradientUnits="userSpaceOnUse"><stop offset=".16" stop-color="#813912"/><stop offset=".18" stop-color="#975a19"/><stop offset=".22" stop-color="#ae7d21"/><stop offset=".26" stop-color="#c39d27"/><stop offset=".3" stop-color="#d6b92e"/><stop offset=".35" stop-color="#e4cf35"/><stop offset=".41" stop-color="#efe036"/><stop offset=".48" stop-color="#f6e942"/><stop offset=".58" stop-color="#f8ea48"/><stop offset=".86" stop-color="#f7ea47"/><stop offset="1" stop-color="#fcf4f9"/></linearGradient><linearGradient id="linear-gradient-5" x1="274.62" y1="37.45" x2="274.62" y2="191.36" gradientTransform="translate(0 -21.65)" gradientUnits="userSpaceOnUse"><stop offset=".26" stop-color="#f7ea47"/><stop offset=".86" stop-color="#803612"/></linearGradient><linearGradient id="linear-gradient-6" x1="274.66" y1="142.11" x2="274.66" y2="44.3" gradientTransform="translate(0 -21.65)" gradientUnits="userSpaceOnUse"><stop offset=".16" stop-color="#803612"/><stop offset=".17" stop-color="#8b461e"/><stop offset=".18" stop-color="#a26a3b"/><stop offset=".2" stop-color="#b78954"/><stop offset=".22" stop-color="#c7a468"/><stop offset=".24" stop-color="#d7bb7a"/><stop offset=".26" stop-color="#e2cc88"/><stop offset=".3" stop-color="#ead891"/><stop offset=".34" stop-color="#eede97"/><stop offset=".46" stop-color="#efe097"/><stop offset=".7" stop-color="#803612"/><stop offset=".73" stop-color="#e6d234"/><stop offset=".74" stop-color="#ead848"/><stop offset=".75" stop-color="#eede6d"/><stop offset=".77" stop-color="#f1e38b"/><stop offset=".79" stop-color="#f7eaa9"/><stop offset=".8" stop-color="#f8edbf"/><stop offset=".83" stop-color="#faf0cf"/><stop offset=".85" stop-color="#fcf2da"/><stop offset=".89" stop-color="#fdf4e1"/><stop offset=".99" stop-color="#fdf5e3"/></linearGradient><linearGradient id="linear-gradient-7" x1="274.62" y1="58.64" x2="274.62" y2="209.61" gradientTransform="translate(0 -21.65)" gradientUnits="userSpaceOnUse"><stop offset=".26" stop-color="#f7ea47"/><stop offset=".77" stop-color="#803612"/></linearGradient></defs><rect class="cls-8" width="878.7" height="141.7"/><g id="tr"><rect class="cls-2" x="503.01" y="17.31" width="153.36" height="108.4"/><rect class="cls-11" x="507.78" y="22.09" width="143.94" height="98.85"/><g id="logo"><g><circle class="cls-3" cx="579.76" cy="67.93" r="27.89"/><path class="cls-5" d="M579.76,40.04s14.44,5.9,14.44,27.89-14.44,27.89-14.44,27.89"/><path class="cls-5" d="M579.76,40.04s-14.44,5.9-14.44,27.89,14.44,27.89,14.44,27.89"/><line class="cls-5" x1="579.76" y1="40.04" x2="579.76" y2="95.81"/><line class="cls-5" x1="551.87" y1="67.93" x2="607.64" y2="67.93"/><path class="cls-5" d="M558.02,50.34s8.16,4.15,21.61,4.15,21.61-4.15,21.61-4.15"/><path class="cls-5" d="M558.02,85.89c0-.13,8.16-4.15,21.61-4.15s21.61,4.15,21.61,4.15"/><polygon class="cls-7" points="596.46 45.07 603.87 38.29 594.07 36.27 615.42 30.12 610.52 52.36 607.64 41.3 600.6 49.47 596.46 45.07"/><polyline class="cls-4" points="579.76 102.22 569.71 102.22 573.97 102.22 573.97 112.14"/><polyline class="cls-4" points="586.91 112.14 586.91 102.22 585.03 102.22 582.64 108.88 581.89 108.88 579.88 105.73 578.37 105.73 578.37 112.14"/><path class="cls-7" d="M570.46,108.5c0,1.51-3.77,3.77-5.28,3.77s-10.55,.63-10.55-.88,9.05-4.64,10.55-4.64c1.51,.13,5.28,.25,5.28,1.76Z"/><path class="cls-7" d="M565.94,105.11c-.88,.75-4.27-.51-5.02-1.38s-5.53-6.15-4.64-6.91,7.28,3.39,8.04,4.27c.75,.88,2.51,3.26,1.64,4.02h0Z"/><path class="cls-7" d="M559.28,106.86c-.25,1.13-3.51,2.39-4.77,2.13-1.13-.25-10.68-1-10.43-2.13s10.17-2.39,11.3-2.13c1.26,.25,4.15,1,3.89,2.13h0Z"/><path class="cls-7" d="M556.77,103.85c-1.13,.38-3.89-1.76-4.27-2.89s-4.77-9.67-3.77-10.05,7.28,7.41,7.79,8.54c.38,1.13,1.26,4.02,.25,4.4h0Z"/><path class="cls-7" d="M549.86,103.35c-.75,1.13-4.4,1.13-5.4,.51s-9.92-4.9-9.17-6.03,10.8,1.26,11.81,2.01c1,.63,3.51,2.39,2.77,3.51h0Z"/><path class="cls-7" d="M547.35,99.33c-1.26,0-3.02-2.89-3.02-4.02s-1-10.05,.25-10.05,4.27,9.05,4.27,10.17c-.13,1-.25,3.89-1.51,3.89h0Z"/><path class="cls-7" d="M540.69,91.66c-1.13-.25-2.26-3.39-2.01-4.52,.25-1,1.26-9.8,2.39-9.54,1.13,.25,2.01,9.54,1.76,10.55-.25,1.13-1,3.77-2.13,3.51h0Z"/><path class="cls-7" d="M541.32,96.56c-1,.75-4.4-.38-5.15-1.26-.75-1-7.79-7.66-6.79-8.41s9.54,4.64,10.3,5.53,2.51,3.39,1.64,4.15Z"/><path class="cls-7" d="M535.54,87.15c-1,.51-4.02-1.13-4.52-2.13s-5.9-8.54-4.77-9.17c1-.51,8.04,6.15,8.54,7.16,.51,1,1.76,3.51,.75,4.15h0Z"/><path class="cls-7" d="M536.17,83.51c-.88-.38-1.26-3.51-.88-4.52s2.77-9.67,3.64-9.3c.88,.38,.13,9.54-.25,10.55-.51,1.13-1.64,3.64-2.51,3.26h0Z"/><path class="cls-7" d="M532.28,77.6c-1,.25-3.14-2.26-3.39-3.51-.25-1.13-3.14-9.92-2.26-10.17,1-.25,5.53,8.29,5.77,9.42,.25,1.13,.88,4.15-.13,4.27h0Z"/><path class="cls-7" d="M534.03,73.71c-.88-.51-.75-3.39-.25-4.27s3.77-7.92,4.64-7.41-1.13,8.54-1.64,9.3c-.51,.88-1.88,2.89-2.77,2.39h0Z"/><path class="cls-7" d="M531.39,66.54c-1-.13-2.39-3.02-2.26-4.15s-.13-9.79,.88-9.79c1,.13,2.89,9.05,2.77,10.17s-.38,3.89-1.38,3.77h0Z"/><path class="cls-7" d="M533.91,63.66c-.63-.63,.38-3.51,1.13-4.15s6.28-6.91,6.91-6.15c.63,.63-3.89,8.04-4.64,8.67-.75,.63-2.77,2.39-3.39,1.64h0Z"/><path class="cls-7" d="M537.67,54.49c-.51-.63,.25-2.77,.88-3.39,.63-.51,5.02-5.53,5.53-4.9s-3.02,6.41-3.64,7.03c-.75,.38-2.26,1.76-2.77,1.26Z"/><path class="cls-7" d="M533.41,55.75c-.75-.25-1.26-3.26-1-4.27,.25-1,2.01-9.54,2.77-9.42,.75,.25,.38,9.17,.13,10.17-.13,1.26-1,3.89-1.88,3.51h0Z"/><path class="cls-7" d="M538.18,49.09c-1-.38-1.51-3.39-1.13-4.4s2.39-9.17,3.39-8.79c1,.38,.51,9.17,.13,10.17-.38,.88-1.38,3.39-2.39,3.02Z"/><path class="cls-7" d="M589.04,108.12c0,1.51,3.77,3.77,5.28,3.77s10.55,.63,10.55-.88-9.05-4.64-10.55-4.64-5.28,.25-5.28,1.76Z"/><path class="cls-7" d="M593.57,104.73c.88,.75,4.27-.51,5.02-1.38s5.53-6.15,4.64-6.91-7.28,3.39-8.04,4.27c-.75,.88-2.51,3.26-1.64,4.02h0Z"/><path class="cls-7" d="M600.22,106.49c.25,1.13,3.51,2.39,4.77,2.13,1.13-.25,10.68-1,10.43-2.13s-10.17-2.39-11.3-2.13c-1.26,.25-4.15,1-3.89,2.13h0Z"/><path class="cls-7" d="M602.74,103.48c1.13,.38,3.89-1.76,4.27-2.89s4.77-9.67,3.64-10.05-7.28,7.41-7.79,8.54c-.25,1.13-1.13,4.02-.13,4.4h0Z"/><path class="cls-7" d="M609.65,102.97c.75,1.13,4.4,1.13,5.4,.51s9.8-4.9,9.05-6.03c-.75-1.13-10.8,1.26-11.81,2.01-.88,.63-3.39,2.39-2.64,3.51Z"/><path class="cls-7" d="M612.16,98.95c1.26,0,3.02-2.89,3.02-4.02s1-10.05-.25-10.05-4.27,9.05-4.27,10.17c.13,1.13,.25,3.89,1.51,3.89h0Z"/><path class="cls-7" d="M618.82,91.29c1.13-.25,2.26-3.39,2.01-4.52-.25-1-1.26-9.8-2.39-9.54-1.13,.25-2.01,9.54-1.76,10.55,.25,1.13,1,3.77,2.13,3.51h0Z"/><path class="cls-7" d="M618.19,96.19c1,.75,4.4-.38,5.15-1.26,.75-1,7.79-7.66,6.79-8.41-1-.75-9.54,4.64-10.3,5.53-.75,1-2.51,3.39-1.64,4.15Z"/><path class="cls-7" d="M623.97,86.77c1,.51,4.02-1.13,4.52-2.13s5.9-8.54,4.77-9.17c-1-.51-8.04,6.15-8.54,7.16-.51,1-1.76,3.64-.75,4.15h0Z"/><path class="cls-7" d="M623.34,83.25c.88-.38,1.38-3.51,.88-4.52s-2.77-9.67-3.64-9.3c-.88,.38-.13,9.54,.25,10.55,.51,1,1.64,3.64,2.51,3.26h0Z"/><path class="cls-7" d="M627.23,77.23c1,.25,3.14-2.26,3.39-3.51,.25-1.13,3.26-9.92,2.26-10.17s-5.53,8.29-5.77,9.42c-.25,1.26-.88,4.15,.13,4.27h0Z"/><path class="cls-7" d="M625.47,73.33c.88-.51,.88-3.39,.25-4.27-.51-.88-3.89-7.92-4.64-7.41s1.13,8.54,1.64,9.3c.51,.88,1.88,3.02,2.77,2.39h0Z"/><path class="cls-7" d="M628.11,66.17c1-.13,2.39-3.02,2.26-4.15-.13-1.13,.13-9.92-.88-9.79-1,.13-2.89,9.05-2.77,10.17,0,1.13,.38,3.89,1.38,3.77h0Z"/><path class="cls-7" d="M625.6,63.28c.63-.63-.38-3.51-1.13-4.15s-6.28-6.91-6.91-6.15c-.63,.63,3.89,8.04,4.64,8.67,.75,.63,2.77,2.39,3.39,1.64h0Z"/><path class="cls-7" d="M621.83,54.11c.51-.63-.25-2.77-.88-3.39s-5.02-5.53-5.53-4.9,3.02,6.41,3.64,7.03c.63,.51,2.26,1.76,2.77,1.26Z"/><path class="cls-7" d="M625.98,55.49c.75-.25,1.26-3.26,1-4.27-.25-1-2.01-9.54-2.77-9.42-.75,.25-.38,9.17-.13,10.17,.25,1.13,1.13,3.77,1.88,3.51h0Z"/><path class="cls-7" d="M621.33,48.71c1-.38,1.51-3.39,1.13-4.4s-2.39-9.17-3.39-8.79c-1,.38-.51,9.17-.13,10.17,.38,.88,1.38,3.39,2.39,3.02Z"/></g></g><path id="darker" class="cls-14" d="M655.87,56.88c-2.39,4.77-42.83,12.56-76.11,12.56s-74.36-8.54-76.74-12.56V125.71h153.36V57.63c-.13-.88-.38-1.26-.51-.75Z"/></g><g id="arrow"><path class="cls-15" d="M470.49,71.51l-53.31-24.64,6.45,12.81h-60.09s-1.81,5.77-1.81,11.33,1.81,10.08,1.81,10.08h61.22l-7.59,15.07,53.31-24.64h0Z"/><path class="cls-16" d="M428.3,78.91h-63.19c-.49-1.65-1.2-4.6-1.2-7.91,0-3.51,.78-7.16,1.29-9.15h61.96l-5.23-10.39,43.37,20.05-43.37,20.05,6.37-12.65h0Z"/><path class="cls-10" d="M432.97,76.04h-65.62c-.3-1.39-.56-3.16-.56-5.03,0-2.19,.35-4.48,.71-6.28h64.34l-3.62-7.2,30.26,13.98-30.26,13.98,4.76-9.46h0Z"/><path class="cls-6" d="M428.3,78.91h-63.19c-.49-1.65-1.2-4.6-1.2-7.91,0-3.51,.78-7.16,1.29-9.15h61.96l-5.23-10.39,43.37,20.05-43.37,20.05,6.37-12.65h0Z"/></g><g id="mln"><polygon id="obram_czarne" class="cls-1" points="237.35 18.1 221.16 34.28 221.16 108.73 237.35 124.92 311.89 124.92 327.99 108.73 327.99 34.28 311.89 18.1 237.35 18.1"/><polygon id="obram_zolte" class="cls-17" points="239.45 21.16 224.31 36.38 224.31 106.63 239.45 121.86 309.7 121.86 324.92 106.63 324.92 36.38 309.7 21.16 239.45 21.16"/><polygon id="tlo_wew" class="cls-12" points="240.5 22.65 225.71 37.43 225.71 105.58 240.5 120.37 308.74 120.37 323.52 105.58 323.52 37.43 308.74 22.65 240.5 22.65"/><path id="obram_skosne" class="cls-9" d="M316.44,90.36c-2.71,0-4.9-2.19-4.9-4.9v-27.91c0-2.71,2.19-4.9,4.9-4.9h7v-15.22l-14.7-14.79h-15.31v7c0,2.71-2.19,4.9-4.9,4.9h-27.91c-2.71,0-4.9-2.19-4.9-4.9v-7h-15.22l-14.79,14.79v15.31h7c2.71,0,4.9,2.19,4.9,4.9v27.91c0,2.71-2.19,4.9-4.9,4.9h-7v15.22l14.79,14.79h15.31v-7c0-2.71,2.19-4.9,4.9-4.9h27.91c2.71,0,4.9,2.19,4.9,4.9v7h15.31l14.79-14.79v-15.31h-7.17Z"/><path id="tlo_zew" class="cls-13" d="M316.17,92.02c-3.32,0-6.04-3.32-6.04-6.65v-27.73c0-3.32,2.71-6.65,6.04-6.65h5.69v-12.42l-14.35-14.26h-12.34v5.69c0,3.32-3.32,6.04-6.65,6.04h-27.73c-3.32,0-6.65-2.71-6.65-6.04v-5.69h-12.51l-14.26,14.26v12.42h5.69c3.32,0,6.04,3.32,6.04,6.65v27.73c0,3.32-2.71,6.65-6.04,6.65h-5.69v12.42l14.26,14.26h12.42v-5.69c0-3.32,3.32-6.04,6.65-6.04h27.65c3.32,0,6.65,2.71,6.65,6.04v5.69h12.42l14.26-14.26v-12.42h-5.51Z"/></g><path d="M259.18,96.32v-7.59c5.01,1.93,9.17,2.9,12.48,2.9,2.91,0,5.31-.77,7.17-2.31s2.8-3.6,2.8-6.2c0-1.89-.49-3.6-1.47-5.14-.98-1.54-2.41-2.73-4.29-3.59s-4.85-1.28-8.91-1.28h-3.11v-6.05l2.63-.03c3.88,0,6.65-.35,8.34-1.04,1.69-.69,3.01-1.77,3.96-3.23s1.43-3.03,1.43-4.72c0-2.03-.69-3.68-2.06-4.95-1.38-1.28-3.53-1.92-6.44-1.92-3.69,0-7.65,.95-11.85,2.87v-6.9c2.12-.73,3.8-1.22,5.04-1.45s2.69-.44,4.36-.59c1.66-.16,3.24-.24,4.72-.24,5.31,0,9.4,1.09,12.28,3.28s4.32,5.12,4.32,8.8c0,2.98-.93,5.52-2.78,7.63s-4.65,3.77-8.39,5c3.25,.75,5.75,1.79,7.47,3.12s3.04,2.9,3.95,4.72,1.36,3.75,1.36,5.83c0,3.83-1.51,7.24-4.53,10.24s-7.9,4.5-14.65,4.5c-1.78,0-3.67-.05-5.65-.16-1.99-.1-4.72-.59-8.19-1.49h0Z"/></svg>