<?xml version="1.0" encoding="UTF-8"?><svg id="Layer" xmlns="http://www.w3.org/2000/svg" xmlns:xlink="http://www.w3.org/1999/xlink" viewBox="0 0 878.7 141.7"><defs><style>.cls-1{fill:url(#linear-gradient-2);}.cls-2,.cls-3{fill:#020303;}.cls-4{fill:#332116;}.cls-5{fill:#fff;opacity:0;}.cls-6{fill:url(#linear-gradient-6);}.cls-7{fill:#946137;}.cls-8{fill:#010101;stroke:#020303;stroke-width:1.75px;}.cls-8,.cls-9{stroke-miterlimit:10;}.cls-3{opacity:.15;}.cls-3,.cls-10{isolation:isolate;}.cls-9{fill:none;stroke:#010202;stroke-width:1.73px;}.cls-11{fill:#cd141b;}.cls-12{fill:url(#linear-gradient-5);}.cls-13{fill:url(#linear-gradient-3);}.cls-14{fill:url(#linear-gradient);}.cls-10{fill:#e03d15;opacity:.5;}.cls-15{fill:url(#linear-gradient-4);}</style><linearGradient id="linear-gradient" x1="576.92" y1="156.2" x2="576.92" y2="55.26" gradientTransform="translate(0 -35.14)" gradientUnits="userSpaceOnUse"><stop offset=".16" stop-color="#813912"/><stop offset=".18" stop-color="#975a19"/><stop offset=".22" stop-color="#ae7d21"/><stop offset=".26" stop-color="#c39d27"/><stop offset=".3" stop-color="#d6b92e"/><stop offset=".35" stop-color="#e4cf35"/><stop offset=".41" stop-color="#efe036"/><stop offset=".48" stop-color="#f6e942"/><stop offset=".58" stop-color="#f8ea48"/><stop offset=".86" stop-color="#f7ea47"/><stop offset="1" stop-color="#fcf4f9"/></linearGradient><linearGradient id="linear-gradient-2" x1="576.92" y1="49.89" x2="576.92" y2="204.17" gradientTransform="translate(0 -35.14)" gradientUnits="userSpaceOnUse"><stop offset=".26" stop-color="#f7ea47"/><stop offset=".86" stop-color="#803612"/></linearGradient><linearGradient id="linear-gradient-3" x1="576.97" y1="154.8" x2="576.97" y2="56.75" gradientTransform="translate(0 -35.14)" gradientUnits="userSpaceOnUse"><stop offset=".16" stop-color="#803612"/><stop offset=".17" stop-color="#8b461e"/><stop offset=".18" stop-color="#a26a3b"/><stop offset=".2" stop-color="#b78954"/><stop offset=".22" stop-color="#c7a468"/><stop offset=".24" stop-color="#d7bb7a"/><stop offset=".26" stop-color="#e2cc88"/><stop offset=".3" stop-color="#ead891"/><stop offset=".34" stop-color="#eede97"/><stop offset=".46" stop-color="#efe097"/><stop offset=".7" stop-color="#803612"/><stop offset=".73" stop-color="#e6d234"/><stop offset=".74" stop-color="#ead848"/><stop offset=".75" stop-color="#eede6d"/><stop offset=".77" stop-color="#f1e38b"/><stop offset=".79" stop-color="#f7eaa9"/><stop offset=".8" stop-color="#f8edbf"/><stop offset=".83" stop-color="#faf0cf"/><stop offset=".85" stop-color="#fcf2da"/><stop offset=".89" stop-color="#fdf4e1"/><stop offset=".99" stop-color="#fdf5e3"/></linearGradient><linearGradient id="linear-gradient-4" x1="576.92" y1="71.14" x2="576.92" y2="222.46" gradientTransform="translate(0 -35.14)" gradientUnits="userSpaceOnUse"><stop offset=".26" stop-color="#f7ea47"/><stop offset=".77" stop-color="#803612"/></linearGradient><linearGradient id="linear-gradient-5" x1="438.04" y1="108.6" x2="438.04" y2="68.87" gradientTransform="translate(0 -18.14)" gradientUnits="userSpaceOnUse"><stop offset="0" stop-color="#542913"/><stop offset=".45" stop-color="#542913" stop-opacity=".7"/><stop offset=".58" stop-color="#e03d15" stop-opacity=".5"/><stop offset="1" stop-color="#e03d15" stop-opacity=".5"/></linearGradient><linearGradient id="linear-gradient-6" x1="-638.98" y1="-1148.71" x2="-567.3" y2="-1077.05" gradientTransform="translate(-58.23 -1142.82) rotate(-45) scale(1 -1)" gradientUnits="userSpaceOnUse"><stop offset="0" stop-color="#452b1a"/><stop offset=".05" stop-color="#583519"/><stop offset=".1" stop-color="#683e15"/><stop offset=".32" stop-color="#76481e"/><stop offset=".75" stop-color="#8c5a31"/><stop offset="1" stop-color="#946137"/></linearGradient></defs><rect class="cls-5" width="878.7" height="141.7"/><g id="mln"><polygon id="obram_czarne" class="cls-8" points="539.56 17.05 523.34 33.27 523.34 107.9 539.56 124.13 614.28 124.13 630.42 107.9 630.42 33.27 614.28 17.05 539.56 17.05"/><polygon id="obram_zolte" class="cls-14" points="541.67 20.12 526.5 35.38 526.5 105.8 541.67 121.06 612.09 121.06 627.35 105.8 627.35 35.38 612.09 20.12 541.67 20.12"/><polygon id="tlo_wew" class="cls-1" points="542.72 21.61 527.9 36.43 527.9 104.75 542.72 119.57 611.12 119.57 625.95 104.75 625.95 36.43 611.12 21.61 542.72 21.61"/><path id="obram_skosne" class="cls-13" d="M618.84,89.49c-2.72,0-4.91-2.19-4.91-4.91v-27.98c0-2.72,2.19-4.91,4.91-4.91h7.02v-15.26l-14.73-14.82h-15.35v7.02c0,2.72-2.19,4.91-4.91,4.91h-27.98c-2.72,0-4.91-2.19-4.91-4.91v-7.02h-15.26l-14.82,14.82v15.35h7.02c2.72,0,4.91,2.19,4.91,4.91v27.98c0,2.72-2.19,4.91-4.91,4.91h-7.02v15.26l14.82,14.82h15.35v-7.02c0-2.72,2.19-4.91,4.91-4.91h27.98c2.72,0,4.91,2.19,4.91,4.91v7.02h15.35l14.82-14.82v-15.35h-7.19Z"/><path id="tlo_zew" class="cls-15" d="M618.58,91.15c-3.33,0-6.05-3.33-6.05-6.66v-27.8c0-3.33,2.72-6.66,6.05-6.66h5.7v-12.45l-14.38-14.29h-12.37v5.7c0,3.33-3.33,6.05-6.66,6.05h-27.8c-3.33,0-6.66-2.72-6.66-6.05v-5.7h-12.54l-14.29,14.29v12.45h5.7c3.33,0,6.05,3.33,6.05,6.66v27.8c0,3.33-2.72,6.66-6.05,6.66h-5.7v12.45l14.29,14.29h12.45v-5.7c0-3.33,3.33-6.05,6.66-6.05h27.71c3.33,0,6.66,2.72,6.66,6.05v5.7h12.45l14.29-14.29v-12.45h-5.52Z"/></g><path d="M562.33,95.21v-7.37c4.32,1.67,7.94,2.5,10.84,2.5,3.18,0,5.55-.96,7.1-2.86,1.55-1.9,2.33-4.15,2.33-6.74,0-3.26-1.29-5.89-3.86-7.89s-6.52-3-11.82-3c-1.24,0-2.47,.11-3.71,.31v-25.45h29.12v8.02h-21.72l-.52,10.93c7.9,0,13.75,1.62,17.56,4.87s5.7,7.3,5.7,12.16c0,4.53-1.67,8.32-5.03,11.39-3.36,3.07-8.35,4.6-14.97,4.6-1.6,0-3.04-.07-4.33-.22s-3.53-.56-6.7-1.25h.02Z"/><g id="arrow"><path class="cls-10" d="M493.41,70.58l-52.81-24.41,6.39,12.69h-59.52s-1.79,5.72-1.79,11.22,1.79,9.99,1.79,9.99h60.65l-7.52,14.93,52.81-24.41h0Z"/><path class="cls-12" d="M451.61,77.91h-62.6c-.48-1.63-1.19-4.55-1.19-7.83,0-3.48,.78-7.09,1.28-9.07h61.38l-5.18-10.29,42.96,19.86-42.96,19.86,6.31-12.53h0Z"/><path class="cls-11" d="M456.23,75.07h-65.01c-.29-1.38-.55-3.13-.55-4.99,0-2.17,.35-4.43,.7-6.22h63.73l-3.59-7.13,29.97,13.85-29.97,13.85,4.72-9.38h0Z"/><path class="cls-9" d="M451.61,77.91h-62.6c-.48-1.63-1.19-4.55-1.19-7.83,0-3.48,.78-7.09,1.28-9.07h61.38l-5.18-10.29,42.96,19.86-42.96,19.86,6.31-12.53h0Z"/></g><g id="steel"><rect class="cls-2" x="248.43" y="16.81" width="107.56" height="107.56"/><rect class="cls-6" x="251.53" y="19.91" width="101.35" height="101.35"/><rect class="cls-7" x="256.45" y="24.83" width="91.52" height="91.52"/><g><path class="cls-4" d="M311.74,100.82l2.24-42.52-5.18-.6-.78-1.81h-3.97l-.69,1.9-6.04-.26v-11.04h6.99l.52,2.16,3.28,.43,.78-2.5h7.16l1.38,1.21,1.21-1.21h8.88l1.04,1.73,1.55-1.73,6.73,5.52-.43,3.8s-3.71-3.45-5.52-3.45-4.4-.09-4.4-.09l-3.71,5.95-2.24,.17,2.07,42.35h-10.87Z"/><polygon class="cls-4" points="291.64 44.67 284.4 40.7 284.31 50.54 277.76 50.54 277.76 40.7 269.47 44.5 269.47 56.57 277.15 60.28 274.48 100.82 286.81 100.82 284.4 60.28 291.64 57 291.64 44.67"/></g><path id="darker" class="cls-3" d="M352.88,121.26h-101.35v-55.55s31.91,4.92,50.63,4.92,50.72-4.92,50.72-4.92v55.55Z"/></g></svg>