<?xml version="1.0" encoding="utf-8"?>
<!-- Generator: Adobe Illustrator 26.3.1, SVG Export Plug-In . SVG Version: 6.00 Build 0)  -->
<svg version="1.1" id="Layer" xmlns="http://www.w3.org/2000/svg" xmlns:xlink="http://www.w3.org/1999/xlink" x="0px" y="0px"
	 viewBox="0 0 878.7 141.7" style="enable-background:new 0 0 878.7 141.7;" xml:space="preserve">
<style type="text/css">
	.st0{fill:#FFFFFF;fill-opacity:0;}
	.st1{fill:url(#SVGID_1_);}
	.st2{fill:none;stroke:#1F1F1D;stroke-width:3.39;stroke-miterlimit:10;}
	.st3{fill:none;stroke:#1F1F1D;stroke-width:1.06;stroke-miterlimit:10;}
	
		.st4{fill:#E2131B;stroke:url(#SVGID_00000047739680255803057300000018379953863229001130_);stroke-width:3.39;stroke-miterlimit:10;}
	
		.st5{fill:#E2131B;stroke:url(#SVGID_00000066517017622945944340000010503627733461850262_);stroke-width:3.39;stroke-miterlimit:10;}
	.st6{opacity:0.5;fill:#E03C13;enable-background:new    ;}
	.st7{fill:url(#SVGID_00000001645822531353728390000012143373986646585238_);}
	.st8{fill:#CD1417;}
	.st9{fill:none;stroke:#010101;stroke-width:1.64;stroke-miterlimit:10;}
	.st10{fill:#020303;}
	.st11{fill:url(#SVGID_00000068670327268953845030000000052685261234818447_);}
	.st12{fill:#95C125;}
	.st13{fill:#3C481E;}
	.st14{opacity:0.12;fill:#020303;enable-background:new    ;}
	.st15{fill:url(#SVGID_00000049205955004372094460000003979043634207580570_);}
	.st16{fill:#FFFFFF;}
	.st17{fill:url(#SVGID_00000013191221945959865570000013888711425193949592_);}
	.st18{fill:url(#SVGID_00000156550482251148995700000003110433628019935902_);}
</style>
<rect y="0" class="st0" width="878.7" height="141.7"/>
<g id="oxIcon">
	
		<radialGradient id="SVGID_1_" cx="806.755" cy="86.9723" r="68.8325" gradientTransform="matrix(1 0 0 1 0 -16.0023)" gradientUnits="userSpaceOnUse">
		<stop  offset="0" style="stop-color:#F6EE82"/>
		<stop  offset="0.78" style="stop-color:#F6EE82"/>
		<stop  offset="0.91" style="stop-color:#F6EE82"/>
		<stop  offset="0.91" style="stop-color:#F7EE85"/>
		<stop  offset="0.94" style="stop-color:#FAF4B6"/>
		<stop  offset="0.96" style="stop-color:#FDFADA"/>
		<stop  offset="0.97" style="stop-color:#FEFCEF"/>
		<stop  offset="0.99" style="stop-color:#FFFFFD"/>
		<stop  offset="1" style="stop-color:#FFFFFF"/>
	</radialGradient>
	<path class="st1" d="M875.6,71c0,38-30.8,68.8-68.8,68.8S737.9,109,737.9,71s30.9-68.8,68.8-68.8C844.8,2.2,875.6,33,875.6,71
		L875.6,71z"/>
	<path class="st2" d="M875.5,71c0,38-30.8,68.8-68.8,68.8S737.9,109,737.9,71s30.8-68.8,68.8-68.8S875.5,33.1,875.5,71z"/>
	<path class="st3" d="M867.6,71c0,33.6-27.2,60.9-60.9,60.9s-60.9-27.2-60.9-60.9s27.2-60.7,60.9-60.7S867.6,37.4,867.6,71z"/>
	
		<linearGradient id="SVGID_00000071553453000851737750000011494415618781175171_" gradientUnits="userSpaceOnUse" x1="812.3386" y1="114.9508" x2="773.2215" y2="75.8337" gradientTransform="matrix(1 0 0 1 0 -16.0023)">
		<stop  offset="0" style="stop-color:#5C1410"/>
		<stop  offset="0.1" style="stop-color:#611912"/>
		<stop  offset="0.26" style="stop-color:#722A22"/>
		<stop  offset="0.48" style="stop-color:#904C43"/>
		<stop  offset="0.73" style="stop-color:#BE887F"/>
		<stop  offset="1" style="stop-color:#FBDEDE"/>
	</linearGradient>
	
		<path style="fill:#E2131B;stroke:url(#SVGID_00000071553453000851737750000011494415618781175171_);stroke-width:3.39;stroke-miterlimit:10;" d="
		M818.8,79.4c0,14.3-11.7,26-26,26s-26-11.7-26-26s11.7-26,26-26S818.8,65.1,818.8,79.4z"/>
	
		<linearGradient id="SVGID_00000054961786828709134960000004827760152169703569_" gradientUnits="userSpaceOnUse" x1="840.0585" y1="96.2508" x2="800.9415" y2="57.1337" gradientTransform="matrix(1 0 0 1 0 -16.0023)">
		<stop  offset="0" style="stop-color:#5C1410"/>
		<stop  offset="0.1" style="stop-color:#611912"/>
		<stop  offset="0.26" style="stop-color:#722A22"/>
		<stop  offset="0.48" style="stop-color:#904C43"/>
		<stop  offset="0.73" style="stop-color:#BE887F"/>
		<stop  offset="1" style="stop-color:#FBDEDE"/>
	</linearGradient>
	
		<path style="fill:#E2131B;stroke:url(#SVGID_00000054961786828709134960000004827760152169703569_);stroke-width:3.39;stroke-miterlimit:10;" d="
		M846.5,60.7c0,14.3-11.7,26-26,26s-26-11.7-26-26s11.7-26,26-26S846.5,46.4,846.5,60.7z"/>
</g>
<g id="arrow">
	<path class="st6" d="M721,70.9l-50.2-23.2l6.1,12h-56.5c0,0-1.7,5.4-1.7,10.7s1.7,9.5,1.7,9.5h57.6l-7.2,14.2L721,70.9L721,70.9
		L721,70.9z"/>
	
		<linearGradient id="SVGID_00000109023765142763396410000013872444057784208010_" gradientUnits="userSpaceOnUse" x1="668.34" y1="89.7523" x2="668.34" y2="52.0123" gradientTransform="matrix(1 0 0 1 0 -2.288818e-03)">
		<stop  offset="0" style="stop-color:#552810"/>
		<stop  offset="0.45" style="stop-color:#552810;stop-opacity:0.7"/>
		<stop  offset="0.58" style="stop-color:#E03C13;stop-opacity:0.5"/>
		<stop  offset="1" style="stop-color:#E03C13;stop-opacity:0.5"/>
	</linearGradient>
	<path style="fill:url(#SVGID_00000109023765142763396410000013872444057784208010_);" d="M681.2,77.8h-59.5
		c-0.5-1.6-1.1-4.3-1.1-7.4c0-3.3,0.7-6.7,1.2-8.6h58.3l-4.9-9.8l40.8,18.9l-40.8,18.9L681.2,77.8L681.2,77.8L681.2,77.8z"/>
	<path class="st8" d="M685.6,75.1h-61.8c-0.3-1.3-0.5-3-0.5-4.7c0-2.1,0.3-4.2,0.7-5.9h60.5l-3.4-6.8l28.5,13.2L681.1,84L685.6,75.1
		L685.6,75.1L685.6,75.1z"/>
	<path class="st9" d="M681.2,77.8h-59.5c-0.5-1.6-1.1-4.3-1.1-7.4c0-3.3,0.7-6.7,1.2-8.6h58.3l-4.9-9.8l40.8,18.9l-40.8,18.9
		L681.2,77.8L681.2,77.8L681.2,77.8z"/>
</g>
<g id="microbe">
	<rect x="494.1" y="19.8" class="st10" width="102.2" height="102.2"/>
	
		<linearGradient id="SVGID_00000005231756723403334050000006650095106724212110_" gradientUnits="userSpaceOnUse" x1="-381.9685" y1="1259.9949" x2="-313.8812" y2="1191.8975" gradientTransform="matrix(0.7071 -0.7071 0.7071 0.7071 -75.6599 -1042.0099)">
		<stop  offset="0" style="stop-color:#3C481E"/>
		<stop  offset="0.14" style="stop-color:#4A5D23"/>
		<stop  offset="0.42" style="stop-color:#68842B"/>
		<stop  offset="0.66" style="stop-color:#80A42A"/>
		<stop  offset="0.86" style="stop-color:#8FB923"/>
		<stop  offset="1" style="stop-color:#95C125"/>
	</linearGradient>
	
		<rect x="497" y="22.7" style="fill:url(#SVGID_00000005231756723403334050000006650095106724212110_);" width="96.3" height="96.3"/>
	<rect x="501.7" y="27.4" class="st12" width="86.9" height="86.9"/>
	<g id="microbes">
		<polygon class="st13" points="546.3,79.6 542.2,80.1 542.8,84.2 538.7,83.5 538,87.6 534.3,85.8 532.5,89.4 529.5,86.6 
			526.7,89.6 524.7,86 521.1,88 520.2,83.9 516.2,84.8 516.6,80.8 512.5,80.3 514,76.6 510.2,75 512.9,71.8 509.7,69.2 513.1,66.9 
			510.8,63.5 514.8,62.4 513.6,58.4 517.7,58.5 517.8,54.4 521.7,55.6 523,51.8 526.3,54 528.7,50.7 531.2,54 534.4,51.4 
			535.9,55.3 539.8,53.9 540,58 544.1,57.7 543.1,61.7 547.1,62.7 545,66.2 548.6,68.3 545.5,71.1 548.3,74.1 544.5,75.8 		"/>
		<polygon class="st13" points="581.6,63.1 580.2,63.6 580.2,65.5 578.1,64.9 576.8,66.1 574.7,64.7 572.5,65.3 566.5,66.1 
			564,65.8 561.4,60.8 558.4,59.9 556.1,57.4 553.2,56 551,53.3 548.3,52.1 546.6,49 544.3,47.1 543.4,44.8 541.8,43 541.6,41.1 
			540.2,39.5 541.4,38.2 541.5,36.4 542.7,36.5 543.8,35.2 545.6,35.9 548.3,33.3 550.5,34.9 552.9,35 555.4,36.8 558.3,37.7 
			559.8,41.7 562.9,42.9 565.1,45.5 568,47.2 569.8,49.7 572.6,51.6 577.2,54 579.4,56.2 579.7,58 581.2,59.8 580.8,61.3 		"/>
		<polygon class="st13" points="577,82.7 577.4,83.2 577.9,84.4 576.8,85.2 576.9,86.6 574.1,87.6 572.9,89.4 569.5,92.8 
			565.6,94.6 560.6,96.1 557.5,98 553.4,98.9 550,100.5 546,101.2 542.8,102.8 538.9,103 535.5,104 532.8,103.9 530,104.6 
			528.2,104.1 525.7,104.5 525.5,103.3 524.8,103 524.9,101.7 524.8,100.5 526.6,99.5 526.5,96.6 529.5,95.5 531.5,93.8 534.9,92.6 
			538.9,91.6 542.5,91 546,89 549.9,88.4 553.6,86.8 557.2,86.2 561,84.8 566.6,82.2 570.2,81.4 572,81.7 574.7,81.2 575.7,82.1 		
			"/>
	</g>
	<path id="darker" class="st14" d="M593.3,119h-96.3V66.2c0,0,30.3,4.7,48.1,4.7s48.2-4.7,48.2-4.7V119z"/>
</g>
<g id="microbe-2">
	<rect x="369.5" y="19.8" class="st10" width="102.2" height="102.2"/>
	
		<linearGradient id="SVGID_00000133498327016292073360000012495017908912351634_" gradientUnits="userSpaceOnUse" x1="-470.0457" y1="1171.9176" x2="-401.9584" y2="1103.8203" gradientTransform="matrix(0.7071 -0.7071 0.7071 0.7071 -75.6599 -1042.0099)">
		<stop  offset="0" style="stop-color:#3C481E"/>
		<stop  offset="0.14" style="stop-color:#4A5D23"/>
		<stop  offset="0.42" style="stop-color:#68842B"/>
		<stop  offset="0.66" style="stop-color:#80A42A"/>
		<stop  offset="0.86" style="stop-color:#8FB923"/>
		<stop  offset="1" style="stop-color:#95C125"/>
	</linearGradient>
	
		<rect x="372.5" y="22.7" style="fill:url(#SVGID_00000133498327016292073360000012495017908912351634_);" width="96.3" height="96.3"/>
	<rect x="377.2" y="27.4" class="st12" width="86.9" height="86.9"/>
	<g id="microbes-2">
		<polygon class="st13" points="421.7,79.6 417.6,80.1 418.2,84.2 414.1,83.5 413.5,87.6 409.8,85.8 408,89.4 404.9,86.6 
			402.1,89.6 400.1,86 396.5,88 395.7,83.9 391.7,84.8 392,80.8 387.9,80.3 389.5,76.6 385.7,75 388.3,71.8 385.1,69.2 388.5,66.9 
			386.3,63.5 390.2,62.4 389,58.4 393.1,58.5 393.2,54.4 397.2,55.6 398.4,51.8 401.7,54 404.1,50.7 406.7,54 409.9,51.4 
			411.3,55.3 415.2,53.9 415.4,58 419.5,57.7 418.5,61.7 422.6,62.7 420.4,66.2 424,68.3 420.9,71.1 423.7,74.1 419.9,75.8 		"/>
		<polygon class="st13" points="457.1,63.1 455.7,63.6 455.7,65.5 453.5,64.9 452.2,66.1 450.1,64.7 448,65.3 442,66.1 439.4,65.8 
			436.8,60.8 433.9,59.9 431.5,57.4 428.6,56 426.4,53.3 423.7,52.1 422.1,49 419.8,47.1 418.9,44.8 417.2,43 417.1,41.1 
			415.7,39.5 416.8,38.2 416.9,36.4 418.1,36.5 419.3,35.2 421,35.9 423.8,33.3 425.9,34.9 428.4,35 430.8,36.8 433.7,37.7 
			435.3,41.7 438.4,42.9 440.5,45.5 443.5,47.2 445.3,49.7 448,51.6 452.6,54 454.9,56.2 455.2,58 456.6,59.8 456.2,61.3 		"/>
		<polygon class="st13" points="452.5,82.7 452.8,83.2 453.4,84.4 452.2,85.2 452.3,86.6 449.5,87.6 448.4,89.4 444.9,92.8 
			441.1,94.6 436,96.1 433,98 428.9,98.9 425.4,100.5 421.4,101.2 418.2,102.8 414.4,103 410.9,104 408.2,103.9 405.4,104.6 
			403.6,104.1 401.1,104.5 400.9,103.3 400.2,103 400.4,101.7 400.2,100.5 402.1,99.5 401.9,96.6 404.9,95.5 406.9,93.8 410.4,92.6 
			414.4,91.6 418,91 421.4,89 425.4,88.4 429,86.8 432.6,86.2 436.4,84.8 442.1,82.2 445.7,81.4 447.5,81.7 450.2,81.2 451.2,82.1 
					"/>
	</g>
	<path id="darker-2" class="st14" d="M468.8,119h-96.3V66.2c0,0,30.3,4.7,48.1,4.7s48.2-4.7,48.2-4.7V119z"/>
</g>
<g>
	<path class="st16" d="M273.7,93.3c-4.9,0-9.1-1-12.7-3s-6.3-4.9-8.2-8.7s-2.8-8.1-2.8-12.8s0.9-9,2.8-12.8s4.6-6.7,8.2-8.7
		c3.6-2,7.9-3,12.7-3s9,1,12.6,3c3.6,2,6.4,4.9,8.2,8.7s2.8,8.1,2.8,12.8s-0.9,9.1-2.8,12.8s-4.6,6.7-8.2,8.7
		C282.8,92.3,278.6,93.3,273.7,93.3z M273.7,86.9c4.5,0,7.9-1.8,10.1-5.5s3.3-7.9,3.3-12.6s-1.1-9-3.3-12.6
		c-2.2-3.7-5.6-5.5-10.1-5.5s-7.9,1.8-10.1,5.5c-2.2,3.7-3.3,7.9-3.3,12.6s1.1,9,3.3,12.6S269.1,86.9,273.7,86.9L273.7,86.9
		L273.7,86.9z"/>
	<path class="st16" d="M306.2,92.1V45.3h17.5c3.6,0,6.3,0.5,8.2,1.3s3.4,2.2,4.4,4.1c1.1,1.8,1.6,3.9,1.6,6.2c0,2.7-0.8,5.3-2.4,7.8
		s-3.8,4.3-6.7,5.6l15.3,21.8h-11.9L320.7,73h-5.4v19.1L306.2,92.1L306.2,92.1z M315.4,66.6h2.2c4,0,6.8-0.9,8.3-2.6
		s2.3-3.7,2.3-5.9c0-1.9-0.6-3.4-1.9-4.6c-1.2-1.1-3.8-1.7-7.6-1.7h-3.4L315.4,66.6L315.4,66.6L315.4,66.6z"/>
</g>
<g id="microbe-3">
	<rect x="122" y="19.8" class="st10" width="102.2" height="102.2"/>
	
		<linearGradient id="SVGID_00000129909880179316192810000015064499035186143670_" gradientUnits="userSpaceOnUse" x1="-645.1041" y1="996.8542" x2="-577.0168" y2="928.7668" gradientTransform="matrix(0.7071 -0.7071 0.7071 0.7071 -75.6599 -1042.0099)">
		<stop  offset="0" style="stop-color:#3C481E"/>
		<stop  offset="0.14" style="stop-color:#4A5D23"/>
		<stop  offset="0.42" style="stop-color:#68842B"/>
		<stop  offset="0.66" style="stop-color:#80A42A"/>
		<stop  offset="0.86" style="stop-color:#8FB923"/>
		<stop  offset="1" style="stop-color:#95C125"/>
	</linearGradient>
	
		<rect x="124.9" y="22.7" style="fill:url(#SVGID_00000129909880179316192810000015064499035186143670_);" width="96.3" height="96.3"/>
	<rect x="129.6" y="27.4" class="st12" width="86.9" height="86.9"/>
	<g id="microbes-3">
		<polygon class="st13" points="174.2,79.6 170.1,80.1 170.6,84.2 166.6,83.5 165.9,87.6 162.2,85.8 160.4,89.4 157.4,86.6 
			154.6,89.6 152.5,86 148.9,88 148.1,83.9 144.1,84.8 144.4,80.8 140.3,80.3 141.9,76.6 138.1,75 140.7,71.8 137.5,69.2 141,66.9 
			138.7,63.5 142.6,62.4 141.5,58.4 145.6,58.5 145.6,54.4 149.6,55.6 150.8,51.8 154.2,54 156.6,50.7 159.1,54 162.3,51.4 
			163.8,55.3 167.6,53.9 167.9,58 172,57.7 171,61.7 175,62.7 172.9,66.2 176.5,68.3 173.4,71.1 176.1,74.1 172.4,75.8 		"/>
		<polygon class="st13" points="209.5,63.1 208.1,63.6 208.1,65.5 206,64.9 204.7,66.1 202.5,64.7 200.4,65.3 194.4,66.1 
			191.9,65.8 189.2,60.8 186.3,59.9 183.9,57.4 181.1,56 178.8,53.3 176.1,52.1 174.5,49 172.2,47.1 171.3,44.8 169.7,43 
			169.5,41.1 168.1,39.5 169.2,38.2 169.3,36.4 170.6,36.5 171.7,35.2 173.4,35.9 176.2,33.3 178.4,34.9 180.8,35 183.3,36.8 
			186.1,37.7 187.7,41.7 190.8,42.9 192.9,45.5 195.9,47.2 197.7,49.7 200.5,51.6 205.1,54 207.3,56.2 207.6,58 209.1,59.8 
			208.7,61.3 		"/>
		<polygon class="st13" points="204.9,82.7 205.2,83.2 205.8,84.4 204.7,85.2 204.7,86.6 201.9,87.6 200.8,89.4 197.4,92.8 
			193.5,94.6 188.4,96.1 185.4,98 181.3,98.9 177.9,100.5 173.8,101.2 170.6,102.8 166.8,103 163.4,104 160.6,103.9 157.9,104.6 
			156.1,104.1 153.5,104.5 153.4,103.3 152.6,103 152.8,101.7 152.6,100.5 154.5,99.5 154.3,96.6 157.4,95.5 159.3,93.8 162.8,92.6 
			166.8,91.6 170.4,91 173.8,89 177.8,88.4 181.5,86.8 185.1,86.2 188.8,84.8 194.5,82.2 198.1,81.4 199.9,81.7 202.6,81.2 
			203.6,82.1 		"/>
	</g>
	<path id="darker-3" class="st14" d="M221.2,119h-96.3V66.2c0,0,30.3,4.7,48.1,4.7s48.2-4.7,48.2-4.7L221.2,119L221.2,119z"/>
</g>
<g id="arrow-2">
	<path class="st6" d="M104.1,70.9L53.9,47.7l6.1,12H3.5c0,0-1.7,5.4-1.7,10.7s1.7,9.5,1.7,9.5h57.6l-7.2,14.2L104.1,70.9L104.1,70.9
		L104.1,70.9z"/>
	
		<linearGradient id="SVGID_00000169541928988294434870000011627243570019108016_" gradientUnits="userSpaceOnUse" x1="51.51" y1="89.7523" x2="51.51" y2="52.0123" gradientTransform="matrix(1 0 0 1 0 -2.288818e-03)">
		<stop  offset="0" style="stop-color:#552810"/>
		<stop  offset="0.45" style="stop-color:#552810;stop-opacity:0.7"/>
		<stop  offset="0.58" style="stop-color:#E03C13;stop-opacity:0.5"/>
		<stop  offset="1" style="stop-color:#E03C13;stop-opacity:0.5"/>
	</linearGradient>
	<path style="fill:url(#SVGID_00000169541928988294434870000011627243570019108016_);" d="M64.4,77.8H4.9c-0.5-1.6-1.1-4.3-1.1-7.4
		c0-3.3,0.7-6.7,1.2-8.6h58.3L58.4,52l40.8,18.9L58.4,89.8L64.4,77.8L64.4,77.8z"/>
	<path class="st8" d="M68.8,75.1H7c-0.3-1.3-0.5-3-0.5-4.7c0-2.1,0.3-4.2,0.7-5.9h60.6l-3.4-6.8l28.5,13.2L64.3,84L68.8,75.1
		L68.8,75.1L68.8,75.1z"/>
	<path class="st9" d="M64.4,77.8H4.9c-0.5-1.6-1.1-4.3-1.1-7.4c0-3.3,0.7-6.7,1.2-8.6h58.3L58.4,52l40.8,18.9L58.4,89.8L64.4,77.8
		L64.4,77.8z"/>
</g>
</svg>
