<?xml version="1.0" encoding="UTF-8"?><svg id="Layer" xmlns="http://www.w3.org/2000/svg" xmlns:xlink="http://www.w3.org/1999/xlink" viewBox="0 0 878.7 141.7"><defs><style>.cls-1{fill:url(#linear-gradient-2);}.cls-2,.cls-3{fill:#020303;}.cls-4{opacity:0;}.cls-4,.cls-5{fill:#fff;}.cls-6{fill:url(#linear-gradient-6);}.cls-7{fill:#1f1f1d;}.cls-3{opacity:.15;}.cls-3,.cls-8,.cls-9{isolation:isolate;}.cls-10{fill:#7e348b;}.cls-11{fill:#cd141b;}.cls-5{stroke-width:.71px;}.cls-5,.cls-12,.cls-13{stroke-miterlimit:10;}.cls-5,.cls-13{stroke:#020303;}.cls-8{fill:url(#Nowy_wzorek);opacity:.1;}.cls-12{stroke:#010202;stroke-width:1.73px;}.cls-12,.cls-14{fill:none;}.cls-15{fill:url(#linear-gradient-5);}.cls-13{fill:#010101;stroke-width:1.75px;}.cls-16{fill:url(#linear-gradient-7);}.cls-17{fill:url(#linear-gradient-9);}.cls-18{fill:url(#linear-gradient-3);}.cls-19{fill:url(#linear-gradient);}.cls-9{fill:#e03d15;opacity:.5;}.cls-20{fill:url(#linear-gradient-4);}.cls-21{fill:url(#linear-gradient-8);}</style><linearGradient id="linear-gradient" x1="638.71" y1="153.85" x2="516.49" y2="31.62" gradientTransform="translate(0 -21.43)" gradientUnits="userSpaceOnUse"><stop offset="0" stop-color="#9d9d9c"/><stop offset=".54" stop-color="#010101"/><stop offset="1" stop-color="#9d9d9c"/></linearGradient><linearGradient id="linear-gradient-2" x1="577.65" y1="149.82" x2="577.65" y2="35.65" gradientTransform="translate(0 -21.43)" gradientUnits="userSpaceOnUse"><stop offset="0" stop-color="#452b1a"/><stop offset="1" stop-color="#b18049"/></linearGradient><linearGradient id="linear-gradient-3" x1="577.61" y1="146.94" x2="577.61" y2="38.43" gradientTransform="translate(0 -21.43)" gradientUnits="userSpaceOnUse"><stop offset="0" stop-color="#946137"/><stop offset="1" stop-color="#7f5026"/></linearGradient><pattern id="Nowy_wzorek" x="0" y="0" width="19.7" height="21.7" patternTransform="translate(-427.17 16525.68)" patternUnits="userSpaceOnUse" viewBox="0 0 19.7 21.7"><g><rect class="cls-14" width="19.7" height="21.7"/><g><rect class="cls-14" width="19.7" height="21.7"/><g><rect class="cls-14" width="19.7" height="21.7"/><g><rect class="cls-14" width="19.7" height="21.7"/><g><rect class="cls-14" width="19.7" height="21.7"/><path class="cls-7" d="M16.6,8.7c2.1,2.1,2.1,5.6,0,7.7l-1.2,1.2c-2.1,2.1-5.6,2.1-7.8,0L3.1,13c-2.1-2.1-2.1-5.6,0-7.7l1.2-1.2c2.1-2.1,5.6-2.1,7.7,0l4.6,4.6Z"/></g></g></g></g></g></pattern><linearGradient id="linear-gradient-4" x1="-433.23" y1="1486.09" x2="-374.23" y2="1427.1" gradientTransform="translate(-166.84 -1244.14) rotate(-45)" gradientUnits="userSpaceOnUse"><stop offset="0" stop-color="#1d1327"/><stop offset=".24" stop-color="#372348"/><stop offset=".49" stop-color="#573a6c"/><stop offset=".71" stop-color="#714f8b"/><stop offset=".89" stop-color="#825c9f"/><stop offset="1" stop-color="#8862a6"/></linearGradient><linearGradient id="linear-gradient-5" x1="431.63" y1="96.65" x2="431.63" y2="56.83" gradientTransform="translate(0 -5.43)" gradientUnits="userSpaceOnUse"><stop offset="0" stop-color="#542913"/><stop offset=".45" stop-color="#542913" stop-opacity=".7"/><stop offset=".58" stop-color="#e03d15" stop-opacity=".5"/><stop offset="1" stop-color="#e03d15" stop-opacity=".5"/></linearGradient><linearGradient id="linear-gradient-6" x1="291.38" y1="144.19" x2="291.38" y2="43.31" gradientTransform="translate(0 -22.44)" gradientUnits="userSpaceOnUse"><stop offset=".16" stop-color="#813912"/><stop offset=".18" stop-color="#975a19"/><stop offset=".22" stop-color="#ae7d21"/><stop offset=".26" stop-color="#c39d27"/><stop offset=".3" stop-color="#d6b92e"/><stop offset=".35" stop-color="#e4cf35"/><stop offset=".41" stop-color="#efe036"/><stop offset=".48" stop-color="#f6e942"/><stop offset=".58" stop-color="#f8ea48"/><stop offset=".86" stop-color="#f7ea47"/><stop offset="1" stop-color="#fcf4f9"/></linearGradient><linearGradient id="linear-gradient-7" x1="291.38" y1="37.94" x2="291.38" y2="192.13" gradientTransform="translate(0 -22.44)" gradientUnits="userSpaceOnUse"><stop offset=".26" stop-color="#f7ea47"/><stop offset=".86" stop-color="#803612"/></linearGradient><linearGradient id="linear-gradient-8" x1="291.43" y1="142.79" x2="291.43" y2="44.8" gradientTransform="translate(0 -22.44)" gradientUnits="userSpaceOnUse"><stop offset=".16" stop-color="#803612"/><stop offset=".17" stop-color="#8b461e"/><stop offset=".18" stop-color="#a26a3b"/><stop offset=".2" stop-color="#b78954"/><stop offset=".22" stop-color="#c7a468"/><stop offset=".24" stop-color="#d7bb7a"/><stop offset=".26" stop-color="#e2cc88"/><stop offset=".3" stop-color="#ead891"/><stop offset=".34" stop-color="#eede97"/><stop offset=".46" stop-color="#efe097"/><stop offset=".7" stop-color="#803612"/><stop offset=".73" stop-color="#e6d234"/><stop offset=".74" stop-color="#ead848"/><stop offset=".75" stop-color="#eede6d"/><stop offset=".77" stop-color="#f1e38b"/><stop offset=".79" stop-color="#f7eaa9"/><stop offset=".8" stop-color="#f8edbf"/><stop offset=".83" stop-color="#faf0cf"/><stop offset=".85" stop-color="#fcf2da"/><stop offset=".89" stop-color="#fdf4e1"/><stop offset=".99" stop-color="#fdf5e3"/></linearGradient><linearGradient id="linear-gradient-9" x1="291.38" y1="59.17" x2="291.38" y2="210.4" gradientTransform="translate(0 -22.44)" gradientUnits="userSpaceOnUse"><stop offset=".26" stop-color="#f7ea47"/><stop offset=".77" stop-color="#803612"/></linearGradient></defs><rect class="cls-4" width="878.7" height="141.7"/><g id="prodBg"><rect id="external-border" class="cls-19" x="515.64" y="11.04" width="123.92" height="120.53"/><rect id="internal-border" class="cls-1" x="518.82" y="14.22" width="117.65" height="114.17"/><rect id="bg" class="cls-18" x="521.61" y="17" width="111.99" height="108.51"/><rect id="bgPattern" class="cls-8" x="521.61" y="17" width="111.99" height="108.51"/></g><g id="energy"><rect class="cls-2" x="533.38" y="27.03" width="88.54" height="88.54"/><rect class="cls-20" x="535.93" y="29.59" width="83.44" height="83.44"/><polygon class="cls-10" points="615.32 33.64 615.32 108.98 539.98 108.98 539.98 33.64 615.32 33.64"/><polygon class="cls-5" points="568.46 62.68 593.31 47.27 580.03 66.51 587.06 77.94 562.64 93.35 574.92 74.18 568.46 62.68"/><path id="darker" class="cls-3" d="M619.37,113.02h-83.44v-45.73s26.28,4.05,41.68,4.05,41.75-4.05,41.75-4.05v45.73h0Z"/></g><g id="arrow"><path class="cls-9" d="M487.12,71.3l-52.93-24.46,6.41,12.72h-59.65s-1.8,5.73-1.8,11.25,1.8,10.01,1.8,10.01h60.78l-7.54,14.96,52.93-24.46h0Z"/><path class="cls-15" d="M445.23,78.65h-62.73c-.48-1.63-1.19-4.56-1.19-7.85,0-3.48,.78-7.11,1.28-9.09h61.51l-5.2-10.31,43.06,19.91-43.06,19.91,6.33-12.56h0Z"/><path class="cls-11" d="M449.86,75.79h-65.15c-.29-1.38-.55-3.14-.55-5,0-2.18,.35-4.44,.7-6.23h63.87l-3.6-7.15,30.04,13.88-30.04,13.88,4.73-9.4h0Z"/><path class="cls-12" d="M445.23,78.65h-62.73c-.48-1.63-1.19-4.56-1.19-7.85,0-3.48,.78-7.11,1.28-9.09h61.51l-5.2-10.31,43.06,19.91-43.06,19.91,6.33-12.56h0Z"/></g><g id="mln"><polygon id="obram_czarne" class="cls-13" points="254.05 17.8 237.84 34.02 237.84 108.6 254.05 124.81 328.72 124.81 344.85 108.6 344.85 34.02 328.72 17.8 254.05 17.8"/><polygon id="obram_zolte" class="cls-6" points="256.15 20.87 240.99 36.12 240.99 106.5 256.15 121.75 326.53 121.75 341.78 106.5 341.78 36.12 326.53 20.87 256.15 20.87"/><polygon id="tlo_wew" class="cls-16" points="257.2 22.36 242.39 37.17 242.39 105.44 257.2 120.26 325.56 120.26 340.38 105.44 340.38 37.17 325.56 22.36 257.2 22.36"/><path id="obram_skosne" class="cls-21" d="M333.28,90.19c-2.72,0-4.91-2.19-4.91-4.91v-27.96c0-2.72,2.19-4.91,4.91-4.91h7.01v-15.25l-14.72-14.81h-15.34v7.01c0,2.72-2.19,4.91-4.91,4.91h-27.96c-2.72,0-4.91-2.19-4.91-4.91v-7.01h-15.25l-14.81,14.81v15.34h7.01c2.72,0,4.91,2.19,4.91,4.91v27.96c0,2.72-2.19,4.91-4.91,4.91h-7.01v15.25l14.81,14.81h15.34v-7.01c0-2.72,2.19-4.91,4.91-4.91h27.96c2.72,0,4.91,2.19,4.91,4.91v7.01h15.34l14.81-14.81v-15.34h-7.19Z"/><path id="tlo_zew" class="cls-17" d="M333.01,91.86c-3.33,0-6.05-3.33-6.05-6.66v-27.78c0-3.33,2.72-6.66,6.05-6.66h5.7v-12.45l-14.37-14.29h-12.36v5.7c0,3.33-3.33,6.05-6.66,6.05h-27.78c-3.33,0-6.66-2.72-6.66-6.05v-5.7h-12.53l-14.29,14.29v12.45h5.7c3.33,0,6.05,3.33,6.05,6.66v27.78c0,3.33-2.72,6.66-6.05,6.66h-5.7v12.45l14.29,14.29h12.45v-5.7c0-3.33,3.33-6.05,6.66-6.05h27.69c3.33,0,6.66,2.72,6.66,6.05v5.7h12.45l14.29-14.29v-12.45h-5.52Z"/></g><path d="M277.7,96.07c.3-2.45,.73-4.52,1.3-6.23,.57-1.71,1.5-3.76,2.79-6.14s4.02-6.63,8.2-12.72l11.91-17.35h-26.36v-8.22h34.64v8.22c-4.86,6.12-8.74,11.68-11.62,16.69-2.88,5.01-5.21,9.67-6.99,13.97-1.77,4.3-2.66,8.23-2.66,11.8h-11.22Z"/></svg>