<?xml version="1.0" encoding="utf-8"?>
<!-- Generator: Adobe Illustrator 26.3.1, SVG Export Plug-In . SVG Version: 6.00 Build 0)  -->
<svg version="1.1" id="Layer" xmlns="http://www.w3.org/2000/svg" xmlns:xlink="http://www.w3.org/1999/xlink" x="0px" y="0px"
	 viewBox="0 0 878.7 141.7" style="enable-background:new 0 0 878.7 141.7;" xml:space="preserve">
<style type="text/css">
	.st0{fill:#FFFFFF;fill-opacity:0;}
	.st1{fill:url(#SVGID_1_);}
	.st2{fill:none;stroke:#1F1F1D;stroke-width:3.39;stroke-miterlimit:10;}
	.st3{fill:none;stroke:#1F1F1D;stroke-width:1.06;stroke-miterlimit:10;}
	
		.st4{fill:#E2131B;stroke:url(#SVGID_00000065038315598114530590000010866221004073640873_);stroke-width:3.39;stroke-miterlimit:10;}
	
		.st5{fill:#E2131B;stroke:url(#SVGID_00000018929008431665576370000015786601948802359460_);stroke-width:3.39;stroke-miterlimit:10;}
	.st6{fill:#020303;}
	.st7{fill:url(#SVGID_00000153696442347155188060000003591166700953334454_);}
	.st8{fill:#946137;}
	.st9{fill:#332116;}
	.st10{opacity:0.15;fill:#020303;enable-background:new    ;}
	.st11{fill:url(#SVGID_00000059271267021851993010000014753498989751987091_);}
	.st12{opacity:0.5;fill:#E03D15;enable-background:new    ;}
	.st13{fill:url(#SVGID_00000095311441121629127300000011869424285999343501_);}
	.st14{fill:#CD141B;}
	.st15{fill:none;stroke:#010202;stroke-width:1.73;stroke-miterlimit:10;}
	.st16{fill:url(#SVGID_00000009583115980870946240000003076198442664322178_);}
	.st17{fill:#7E348B;}
	.st18{fill:#FFFFFF;stroke:#020303;stroke-width:0.86;stroke-miterlimit:10;}
	.st19{fill:#FFFFFF;}
</style>
<rect y="0" class="st0" width="878.7" height="141.7"/>
<g id="oxIcon">
	
		<radialGradient id="SVGID_1_" cx="742.72" cy="87.0523" r="68.7" gradientTransform="matrix(1 0 0 1 0 -16.0023)" gradientUnits="userSpaceOnUse">
		<stop  offset="0" style="stop-color:#F6EE82"/>
		<stop  offset="0.78" style="stop-color:#F6EE82"/>
		<stop  offset="0.91" style="stop-color:#F6EE82"/>
		<stop  offset="0.91" style="stop-color:#F7EE85"/>
		<stop  offset="0.94" style="stop-color:#FAF4B6"/>
		<stop  offset="0.96" style="stop-color:#FDFADA"/>
		<stop  offset="0.97" style="stop-color:#FEFCEF"/>
		<stop  offset="0.99" style="stop-color:#FFFFFD"/>
		<stop  offset="1" style="stop-color:#FFFFFF"/>
	</radialGradient>
	<path class="st1" d="M811.4,71.1c0,37.9-30.8,68.7-68.7,68.7S674,109,674,71.1s30.8-68.7,68.7-68.7
		C780.6,2.5,811.4,33.1,811.4,71.1L811.4,71.1L811.4,71.1z"/>
	<path class="st2" d="M811.3,71.1c0,37.9-30.8,68.7-68.7,68.7S674,109,674,71.1s30.8-68.7,68.7-68.7S811.3,33.2,811.3,71.1
		L811.3,71.1z"/>
	<path class="st3" d="M803.5,71.1c0,33.5-27.2,60.8-60.8,60.8S682,104.6,682,71.1s27.2-60.6,60.8-60.6S803.5,37.5,803.5,71.1z"/>
	
		<linearGradient id="SVGID_00000115489881812556178440000014463007517023026600_" gradientUnits="userSpaceOnUse" x1="748.2992" y1="115.0014" x2="709.239" y2="75.9412" gradientTransform="matrix(1 0 0 1 0 -16.0023)">
		<stop  offset="0" style="stop-color:#5C1410"/>
		<stop  offset="0.1" style="stop-color:#611912"/>
		<stop  offset="0.26" style="stop-color:#722A22"/>
		<stop  offset="0.48" style="stop-color:#904C43"/>
		<stop  offset="0.73" style="stop-color:#BE887F"/>
		<stop  offset="1" style="stop-color:#FBDEDE"/>
	</linearGradient>
	
		<path style="fill:#E2131B;stroke:url(#SVGID_00000115489881812556178440000014463007517023026600_);stroke-width:3.39;stroke-miterlimit:10;" d="
		M754.7,79.5c0,14.3-11.6,25.9-25.9,25.9s-25.9-11.6-25.9-25.9s11.6-25.9,25.9-25.9S754.7,65.2,754.7,79.5z"/>
	
		<linearGradient id="SVGID_00000011737823643808662580000014362962913511900573_" gradientUnits="userSpaceOnUse" x1="775.9692" y1="96.3214" x2="736.9089" y2="57.2612" gradientTransform="matrix(1 0 0 1 0 -16.0023)">
		<stop  offset="0" style="stop-color:#5C1410"/>
		<stop  offset="0.1" style="stop-color:#611912"/>
		<stop  offset="0.26" style="stop-color:#722A22"/>
		<stop  offset="0.48" style="stop-color:#904C43"/>
		<stop  offset="0.73" style="stop-color:#BE887F"/>
		<stop  offset="1" style="stop-color:#FBDEDE"/>
	</linearGradient>
	
		<path style="fill:#E2131B;stroke:url(#SVGID_00000011737823643808662580000014362962913511900573_);stroke-width:3.39;stroke-miterlimit:10;" d="
		M782.4,60.8c0,14.3-11.6,25.9-25.9,25.9s-25.9-11.6-25.9-25.9s11.6-25.9,25.9-25.9S782.4,46.5,782.4,60.8z"/>
</g>
<g id="steel">
	<rect x="541.5" y="16.4" class="st6" width="107.7" height="107.7"/>
	
		<linearGradient id="SVGID_00000018921143893344434590000016037081839740291477_" gradientUnits="userSpaceOnUse" x1="-368.9239" y1="1362.7572" x2="-297.1566" y2="1291" gradientTransform="matrix(0.7071 -0.7071 0.7071 0.7071 -107.4099 -1103.4598)">
		<stop  offset="0" style="stop-color:#452B1A"/>
		<stop  offset="5.000000e-02" style="stop-color:#583519"/>
		<stop  offset="0.1" style="stop-color:#683E15"/>
		<stop  offset="0.32" style="stop-color:#76481E"/>
		<stop  offset="0.75" style="stop-color:#8C5A31"/>
		<stop  offset="1" style="stop-color:#946137"/>
	</linearGradient>
	
		<rect x="544.6" y="19.5" style="fill:url(#SVGID_00000018921143893344434590000016037081839740291477_);" width="101.5" height="101.5"/>
	<rect x="549.5" y="24.5" class="st8" width="91.6" height="91.6"/>
	<g>
		<path class="st9" d="M604.9,100.6l2.2-42.6l-5.2-0.6l-0.8-1.8h-4l-0.7,1.9l-6-0.3v-11h7l0.5,2.2l3.3,0.4l0.8-2.5h7.2l1.4,1.2
			l1.2-1.2h8.9l1,1.7l1.5-1.7l6.7,5.5l-0.4,3.8c0,0-3.7-3.5-5.5-3.5s-4.4-0.1-4.4-0.1l-3.7,6l-2.2,0.2l2.1,42.4L604.9,100.6
			L604.9,100.6z"/>
		<polygon class="st9" points="584.8,44.3 577.5,40.3 577.4,50.2 570.8,50.2 570.8,40.3 562.6,44.2 562.6,56.2 570.2,60 
			567.6,100.6 579.9,100.6 577.5,60 584.8,56.7 		"/>
	</g>
	<path id="darker" class="st10" d="M646.1,121H544.6V65.4c0,0,32,4.9,50.7,4.9s50.8-4.9,50.8-4.9L646.1,121L646.1,121L646.1,121z"/>
</g>
<g id="steel-2">
	<rect x="411.9" y="16.4" class="st6" width="107.7" height="107.7"/>
	
		<linearGradient id="SVGID_00000167362595039653242980000003716195010349285308_" gradientUnits="userSpaceOnUse" x1="-460.5245" y1="1271.1565" x2="-388.7673" y2="1199.3893" gradientTransform="matrix(0.7071 -0.7071 0.7071 0.7071 -107.4099 -1103.4598)">
		<stop  offset="0" style="stop-color:#452B1A"/>
		<stop  offset="5.000000e-02" style="stop-color:#583519"/>
		<stop  offset="0.1" style="stop-color:#683E15"/>
		<stop  offset="0.32" style="stop-color:#76481E"/>
		<stop  offset="0.75" style="stop-color:#8C5A31"/>
		<stop  offset="1" style="stop-color:#946137"/>
	</linearGradient>
	
		<rect x="415" y="19.5" style="fill:url(#SVGID_00000167362595039653242980000003716195010349285308_);" width="101.5" height="101.5"/>
	<rect x="420" y="24.5" class="st8" width="91.6" height="91.6"/>
	<g>
		<path class="st9" d="M475.3,100.6l2.2-42.6l-5.2-0.6l-0.8-1.8h-4l-0.7,1.9l-6-0.3v-11h7l0.5,2.2l3.3,0.4l0.8-2.5h7.2l1.4,1.2
			l1.2-1.2h8.9l1,1.7l1.5-1.7l6.7,5.5l-0.4,3.8c0,0-3.7-3.5-5.5-3.5s-4.4-0.1-4.4-0.1l-3.7,6l-2.2,0.2l2.1,42.4L475.3,100.6
			L475.3,100.6z"/>
		<polygon class="st9" points="455.2,44.3 448,40.3 447.9,50.2 441.3,50.2 441.3,40.3 433,44.2 433,56.2 440.7,60 438,100.6 
			450.4,100.6 448,60 455.2,56.7 		"/>
	</g>
	<path id="darker-2" class="st10" d="M516.5,121H415.1V65.4c0,0,32,4.9,50.7,4.9s50.8-4.9,50.8-4.9V121
		C516.5,121,516.5,121,516.5,121z"/>
</g>
<g id="arrow">
	<path class="st12" d="M379.2,70.1l-52.9-24.4l6.4,12.7h-59.6c0,0-1.8,5.7-1.8,11.2s1.8,10,1.8,10h60.7l-7.5,14.9L379.2,70.1
		L379.2,70.1L379.2,70.1z"/>
	
		<linearGradient id="SVGID_00000153702402171479460900000008695248735140030378_" gradientUnits="userSpaceOnUse" x1="323.755" y1="49.9823" x2="323.755" y2="89.7623" gradientTransform="matrix(1 0 0 -1 0 139.9623)">
		<stop  offset="0" style="stop-color:#542913"/>
		<stop  offset="0.45" style="stop-color:#542913;stop-opacity:0.7"/>
		<stop  offset="0.58" style="stop-color:#E03D15;stop-opacity:0.5"/>
		<stop  offset="1" style="stop-color:#E03D15;stop-opacity:0.5"/>
	</linearGradient>
	<path style="fill:url(#SVGID_00000153702402171479460900000008695248735140030378_);" d="M337.3,77.4h-62.7
		c-0.5-1.6-1.2-4.6-1.2-7.8c0-3.5,0.8-7.1,1.3-9.1h61.5L331,50.2l43,19.9L331,90L337.3,77.4L337.3,77.4L337.3,77.4z"/>
	<path class="st14" d="M342,74.6h-65.1c-0.3-1.4-0.5-3.1-0.5-5c0-2.2,0.4-4.4,0.7-6.2h63.8l-3.6-7.1l30,13.9l-30,13.9L342,74.6
		L342,74.6L342,74.6z"/>
	<path class="st15" d="M337.3,77.4h-62.7c-0.5-1.6-1.2-4.6-1.2-7.8c0-3.5,0.8-7.1,1.3-9.1h61.5L331,50.2l43,19.9L331,90L337.3,77.4
		L337.3,77.4L337.3,77.4z"/>
</g>
<g id="energy">
	<rect x="130.8" y="16.2" class="st6" width="107.7" height="107.7"/>
	
		<linearGradient id="SVGID_00000178187260570431581020000018254836437491869605_" gradientUnits="userSpaceOnUse" x1="-659.1629" y1="-933.3034" x2="-587.3958" y2="-861.5462" gradientTransform="matrix(0.7071 -0.7071 -0.7071 -0.7071 -9.1601 -1005.2102)">
		<stop  offset="0" style="stop-color:#1D1327"/>
		<stop  offset="0.24" style="stop-color:#372348"/>
		<stop  offset="0.49" style="stop-color:#573A6C"/>
		<stop  offset="0.71" style="stop-color:#714F8B"/>
		<stop  offset="0.89" style="stop-color:#825C9F"/>
		<stop  offset="1" style="stop-color:#8862A6"/>
	</linearGradient>
	
		<rect x="133.9" y="19.3" style="fill:url(#SVGID_00000178187260570431581020000018254836437491869605_);" width="101.5" height="101.5"/>
	<polygon class="st17" points="230.5,24.3 230.5,115.9 138.9,115.9 138.9,24.3 	"/>
	<polygon class="st18" points="173.5,59.6 203.7,40.9 187.6,64.3 196.1,78.2 166.4,96.9 181.4,73.6 	"/>
	<path id="darker-3" class="st10" d="M235.4,120.8H133.9V65.2c0,0,31.9,4.9,50.7,4.9s50.8-4.9,50.8-4.9L235.4,120.8L235.4,120.8z"/>
</g>
<path class="st19" d="M95.3,97.9V82.6H68.5V74l26.3-33.5h10.5V74h6.7v8.6h-6.7v15.3H95.3L95.3,97.9z M77.7,73.9h17.9V51.4L77.7,73.9
	z"/>
</svg>
