<?xml version="1.0" encoding="UTF-8"?><svg id="Layer" xmlns="http://www.w3.org/2000/svg" xmlns:xlink="http://www.w3.org/1999/xlink" viewBox="0 0 878.7 141.7"><defs><style>.cls-1{fill:url(#linear-gradient-2);}.cls-2,.cls-3,.cls-4{fill:#020303;}.cls-5{fill:#fff;opacity:0;}.cls-6,.cls-7,.cls-8{fill:none;}.cls-6,.cls-7,.cls-8,.cls-9{stroke-miterlimit:10;}.cls-6,.cls-9{stroke:#626262;stroke-width:.65px;}.cls-10{fill:#de9d01;}.cls-11{fill:#cd141b;}.cls-12{fill:url(#radial-gradient);}.cls-13{fill:#626262;}.cls-3{opacity:.64;}.cls-3,.cls-4,.cls-14{isolation:isolate;}.cls-7{stroke:#010202;stroke-width:1.73px;}.cls-15{fill:url(#radial-gradient-2);}.cls-16{fill:#ebebeb;}.cls-17{fill:#50504f;}.cls-4{opacity:.4;}.cls-18,.cls-9{fill:#bfbebf;}.cls-8{stroke:#ffd80c;stroke-width:4.31px;}.cls-19{fill:url(#linear-gradient-3);}.cls-20{fill:url(#linear-gradient);}.cls-14{fill:#e03d15;opacity:.5;}.cls-21{fill:#4b4a4b;}</style><linearGradient id="linear-gradient" x1="-444.77" y1="-1342.9" x2="-373.11" y2="-1271.24" gradientTransform="translate(-58.26 -1142.81) rotate(-45) scale(1 -1)" gradientUnits="userSpaceOnUse"><stop offset="0" stop-color="#020303"/><stop offset=".05" stop-color="#090a0a"/><stop offset=".31" stop-color="#28282a"/><stop offset=".56" stop-color="#3f3f40"/><stop offset=".79" stop-color="#4e4d4d"/><stop offset="1" stop-color="#535353"/></linearGradient><radialGradient id="radial-gradient" cx="551.67" cy="134.16" fx="551.67" fy="134.16" r="25.23" gradientTransform="translate(0 -35.06)" gradientUnits="userSpaceOnUse"><stop offset="0" stop-color="#fff"/><stop offset="1" stop-color="#fff" stop-opacity="0"/></radialGradient><radialGradient id="radial-gradient-2" cx="603.17" cy="115.2" fx="603.17" fy="115.2" r="25.25" gradientTransform="translate(0 141.73) scale(1 -1)" xlink:href="#radial-gradient"/><linearGradient id="linear-gradient-2" x1="437.98" y1="108.59" x2="437.98" y2="68.69" gradientTransform="translate(0 -18.05)" gradientUnits="userSpaceOnUse"><stop offset="0" stop-color="#542913"/><stop offset=".45" stop-color="#542913" stop-opacity=".7"/><stop offset=".58" stop-color="#e03d15" stop-opacity=".5"/><stop offset="1" stop-color="#e03d15" stop-opacity=".5"/></linearGradient><linearGradient id="linear-gradient-3" x1="-638.99" y1="1309.48" x2="-567.32" y2="1237.82" gradientTransform="translate(-171.96 -1256.51) rotate(-45)" gradientUnits="userSpaceOnUse"><stop offset="0" stop-color="#020303"/><stop offset="1" stop-color="#797879"/></linearGradient></defs><rect class="cls-5" width="878.7" height="141.7"/><g id="fighter"><rect class="cls-2" x="523.04" y="16.81" width="107.56" height="107.56"/><rect class="cls-20" x="526.14" y="19.92" width="101.35" height="101.35"/><rect class="cls-21" x="531.06" y="24.83" width="91.51" height="91.51"/><path id="darker" class="cls-4" d="M627.49,121.26h-101.35v-55.55s31.91,4.92,50.63,4.92,50.72-4.92,50.72-4.92v55.55Z"/><path class="cls-18" d="M563.06,98.84h-1.55c-1.73,0-3.11-1.38-3.11-3.11V59.51h7.68v36.31c0,1.73-1.38,3.02-3.02,3.02Z"/><path class="cls-18" d="M593.42,98.84h-1.55c-1.73,0-3.11-1.38-3.11-3.11V59.51h7.68v36.31c0,1.73-1.38,3.02-3.02,3.02Z"/><path class="cls-18" d="M605.32,104.7h-4.23c-1.73,0-3.11-1.38-3.11-3.11v-17.42h10.44v17.42c0,1.73-1.38,3.11-3.11,3.11Z"/><path class="cls-18" d="M553.83,104.7h-4.31c-1.73,0-3.11-1.38-3.11-3.11v-17.42h10.44v17.42c0,1.73-1.29,3.11-3.02,3.11Z"/><path class="cls-6" d="M605.32,104.7h-4.23c-1.73,0-3.11-1.38-3.11-3.11v-21.05c0-2.85,2.33-5.18,5.18-5.18h0c2.85,0,5.18,2.33,5.18,5.18v21.05c.09,1.73-1.29,3.11-3.02,3.11Z"/><path class="cls-6" d="M593.42,98.84h-1.55c-1.73,0-3.11-1.38-3.11-3.11V41.39c0-1.73,1.38-3.11,3.11-3.11h1.55c1.73,0,3.11,1.38,3.11,3.11v54.43c-.09,1.73-1.47,3.02-3.11,3.02Z"/><path class="cls-9" d="M581.6,98.84h-8.37c-3.11,0-5.61-2.5-5.61-5.61V56.31c0-5.43,4.4-9.83,9.83-9.83h0c5.43,0,9.83,4.4,9.83,9.83v36.92c-.09,3.11-2.59,5.61-5.69,5.61h0Z"/><path class="cls-6" d="M563.06,98.84h-1.55c-1.73,0-3.11-1.38-3.11-3.11V41.39c0-1.73,1.38-3.11,3.11-3.11h1.55c1.73,0,3.11,1.38,3.11,3.11v54.43c-.09,1.73-1.47,3.02-3.11,3.02Z"/><path class="cls-6" d="M553.83,104.7h-4.31c-1.73,0-3.11-1.38-3.11-3.11v-21.05c0-2.85,2.33-5.18,5.18-5.18h0c2.85,0,5.18,2.33,5.18,5.18v21.05c.09,1.73-1.21,3.11-2.93,3.11Z"/><path class="cls-13" d="M570.39,56.92c0-3.88,3.19-7.07,7.07-7.07s7.07,3.19,7.07,7.07c-2.07-1.64-3.19-2.24-7.07-2.24s-5,.6-7.07,2.24Z"/><path class="cls-16" d="M560.73,97.03h-.26c-.69,0-1.12-.52-1.12-1.12V63.3c0-.69,.52-1.12,1.12-1.12h.26c.69,0,1.12,.52,1.12,1.12v32.6c0,.6-.52,1.12-1.12,1.12Z"/><path class="cls-16" d="M548.57,103.67h0c-.69,0-1.21-.52-1.21-1.12v-16.3c0-.69,.52-1.12,1.21-1.12h0c.69,0,1.21,.52,1.21,1.12v16.3c0,.6-.52,1.12-1.21,1.12Z"/><path class="cls-16" d="M600.15,102.98h0c-.69,0-1.12-.52-1.12-1.12v-15.53c0-.69,.52-1.12,1.12-1.12h0c.69,0,1.12,.52,1.12,1.12v15.53c.09,.6-.43,1.12-1.12,1.12Z"/><path class="cls-16" d="M573.49,98.06h0c-2.76,0-5-2.24-5-5v-8.54c0-.69,.6-1.29,1.29-1.29h.95c.35,0,.69,.09,1.04,.26,.35,.17,.6,.6,.69,1.04l1.04,13.54h0Z"/><path class="cls-16" d="M585.14,94.27h0c.17,.09,.17,.26,.17,.43-.09,2.59-1.9,3.36-4.57,3.36h-7.33l-.69-8.28c.17,1.73,.95,4.14,2.5,4.05h8.71c.52,.09,.86,.17,1.21,.43h0Z"/><ellipse class="cls-10" cx="562.28" cy="36.48" rx="4.31" ry="3.02"/><ellipse class="cls-10" cx="592.64" cy="36.48" rx="4.31" ry="3.02"/><circle class="cls-12" cx="551.67" cy="99.1" r="25.27"/><circle class="cls-15" cx="603.17" cy="99.1" r="25.27"/></g><g id="arrow"><path class="cls-14" d="M493.58,70.58l-53.04-24.52,6.42,12.74h-59.78s-1.8,5.74-1.8,11.27,1.8,10.03,1.8,10.03h60.91l-7.55,15,53.04-24.52h0Z"/><path class="cls-1" d="M451.6,77.94h-62.87c-.49-1.64-1.2-4.57-1.2-7.87,0-3.49,.78-7.12,1.28-9.1h61.64l-5.21-10.33,43.15,19.95-43.15,19.95,6.34-12.59h0Z"/><path class="cls-11" d="M456.25,75.09h-65.29c-.29-1.39-.55-3.14-.55-5.01,0-2.18,.35-4.45,.7-6.25h64.01l-3.6-7.16,30.1,13.91-30.1,13.91,4.74-9.42h0Z"/><path class="cls-7" d="M451.6,77.94h-62.87c-.49-1.64-1.2-4.57-1.2-7.87,0-3.49,.78-7.12,1.28-9.1h61.64l-5.21-10.33,43.15,19.95-43.15,19.95,6.34-12.59h0Z"/></g><g id="titan"><rect class="cls-2" x="248.37" y="16.81" width="107.56" height="107.56"/><rect class="cls-19" x="251.48" y="19.92" width="101.35" height="101.35"/><rect class="cls-17" x="256.4" y="24.83" width="91.51" height="91.51"/><path id="darker-2" class="cls-3" d="M352.83,121.26h-101.35v-55.55s31.91,4.92,50.63,4.92,50.72-4.92,50.72-4.92v55.55Z"/><polygon class="cls-8" points="302.71 40.7 312.29 60.8 334.37 63.65 318.15 78.91 322.29 100.73 302.71 90.04 283.22 100.73 287.36 78.91 271.14 63.65 293.22 60.8 302.71 40.7"/></g></svg>