<?xml version="1.0" encoding="UTF-8"?><svg id="Layer" xmlns="http://www.w3.org/2000/svg" xmlns:xlink="http://www.w3.org/1999/xlink" viewBox="0 0 878.7 141.7"><defs><style>.cls-1{fill:url(#linear-gradient-2);}.cls-2,.cls-3{fill:#020203;}.cls-3{opacity:.08;}.cls-3,.cls-4{isolation:isolate;}.cls-5{fill:#fff;opacity:0;}.cls-6{fill:#0e5628;}.cls-7{fill:url(#radial-gradient);}.cls-8{fill:#162919;}.cls-9{fill:none;stroke:#010101;stroke-miterlimit:10;stroke-width:1.74px;}.cls-10{fill:url(#linear-gradient);}.cls-11{fill:#cd1417;}.cls-4{fill:#e03c13;opacity:.5;}</style><linearGradient id="linear-gradient" x1="-516.14" y1="-1352.82" x2="-443.81" y2="-1280.49" gradientTransform="translate(-82.82 -1200.04) rotate(-45) scale(1 -1)" gradientUnits="userSpaceOnUse"><stop offset="0" stop-color="#1f4d23"/><stop offset=".43" stop-color="#4a6d30"/><stop offset="1" stop-color="#94a846"/></linearGradient><radialGradient id="radial-gradient" cx="508.8" cy="55.36" fx="508.8" fy="55.36" r="46.18" gradientTransform="translate(0 125.73) scale(1 -1)" gradientUnits="userSpaceOnUse"><stop offset=".25" stop-color="#94a846"/><stop offset="1" stop-color="#377831"/></radialGradient><linearGradient id="linear-gradient-2" x1="368.01" y1="106.43" x2="368.01" y2="66.33" gradientTransform="translate(0 -16)" gradientUnits="userSpaceOnUse"><stop offset="0" stop-color="#552810"/><stop offset=".45" stop-color="#552810" stop-opacity=".7"/><stop offset=".58" stop-color="#e03c13" stop-opacity=".5"/><stop offset="1" stop-color="#e03c13" stop-opacity=".5"/></linearGradient></defs><rect class="cls-5" width="878.7" height="141.7"/><g id="animal"><rect class="cls-2" x="454.53" y="16.1" width="108.55" height="108.55"/><rect class="cls-10" x="457.66" y="19.23" width="102.28" height="102.28"/><rect class="cls-7" x="462.63" y="24.19" width="92.36" height="92.36"/><path id="darker" class="cls-3" d="M559.94,121.51h-102.28v-56.06s32.21,4.96,51.1,4.96,51.18-4.96,51.18-4.96v56.06Z"/><path class="cls-6" d="M497.97,44.39c-.26,0-2.79,.35-4.27,2.44-.61,.78-.87,1.65-1.04,2.61-.35,1.92-1.04,5.4,.35,9.66,.7,2,1.48,4.44,3.74,6.09,.7,.52,2.09,1.48,3.92,1.31,2-.17,3.22-1.65,3.66-2.18,1.74-2,1.74-4.35,1.83-6.88,0-1.22,0-4.96-1.92-8.88-1.31-2.61-2.44-3.31-2.96-3.57-1.39-.87-2.87-.7-3.31-.61h0Z"/><path class="cls-6" d="M521.99,42.91c-.26-.09-2.7-.61-4.79,.78-.78,.52-1.39,1.22-1.92,2.09-1.04,1.65-2.87,4.61-3.05,9.14-.09,2.18-.17,4.7,1.39,7.05,.52,.7,1.48,2.09,3.22,2.52,1.92,.52,3.66-.44,4.18-.78,2.26-1.31,3.22-3.48,4.18-5.83,.44-1.13,1.74-4.61,1.31-8.97-.26-2.87-1.13-3.92-1.57-4.35-1.13-1.13-2.52-1.48-2.96-1.65h0Z"/><path class="cls-6" d="M481.69,58.31c-.26,.09-2.7,.61-4,2.79-.52,.87-.7,1.65-.78,2.7-.17,1.92-.52,5.4,1.22,9.58,.87,1.92,1.83,4.27,4.35,5.75,.78,.44,2.26,1.22,4,.87,2-.35,3.05-1.92,3.48-2.52,1.48-2.18,1.39-4.53,1.22-7.05-.09-1.22-.44-4.87-2.79-8.62-1.48-2.44-2.7-3.05-3.31-3.31-1.57-.52-2.87-.26-3.39-.17Z"/><path class="cls-6" d="M536.53,56.22c-.26-.09-2.7-.61-4.79,.87-.78,.61-1.31,1.31-1.83,2.18-.96,1.74-2.79,4.7-2.79,9.23,0,2.18-.09,4.7,1.57,6.96,.52,.7,1.57,2.09,3.31,2.44,1.92,.44,3.57-.52,4.18-.87,2.26-1.31,3.13-3.57,4-5.92,.44-1.13,1.65-4.61,1.04-8.97-.35-2.87-1.22-3.92-1.65-4.35-1.22-1.13-2.61-1.48-3.05-1.57h0Z"/><path class="cls-8" d="M535.92,59.01c-.17,0-2-.44-3.57,.7-.61,.44-.96,.96-1.39,1.57-.7,1.31-2,3.48-2.09,6.88,0,1.57-.09,3.48,1.22,5.22,.35,.52,1.13,1.57,2.44,1.83,1.48,.35,2.7-.44,3.13-.61,1.65-1.04,2.26-2.61,2.96-4.44,.35-.87,1.22-3.48,.78-6.7-.26-2.09-.96-2.87-1.22-3.22-.87-.96-1.92-1.22-2.26-1.22Z"/><path class="cls-8" d="M521.29,45.78c-.17-.09-2-.44-3.57,.52-.61,.44-.96,.87-1.39,1.57-.78,1.22-2.09,3.39-2.26,6.79-.09,1.57-.17,3.48,1.04,5.22,.35,.52,1.04,1.57,2.35,1.92,1.48,.35,2.7-.35,3.13-.52,1.65-.96,2.35-2.52,3.05-4.27,.35-.87,1.31-3.39,.96-6.62-.26-2.09-.87-2.87-1.13-3.22-.87-1.04-1.83-1.31-2.18-1.39h0Z"/><path class="cls-8" d="M498.31,47.26c-.17,0-2,.26-3.13,1.74-.44,.61-.61,1.22-.78,1.92-.26,1.39-.78,3.92,.26,7.14,.52,1.48,1.04,3.31,2.79,4.53,.52,.35,1.57,1.04,2.87,.96,1.48-.17,2.35-1.22,2.7-1.57,1.22-1.48,1.31-3.22,1.39-5.05,0-.87,0-3.66-1.48-6.53-.96-1.92-1.83-2.44-2.18-2.61-1.04-.7-2.09-.61-2.44-.52h0Z"/><path class="cls-8" d="M482.3,60.84c-.17,0-2.09,.44-3.05,2.18-.44,.7-.52,1.31-.61,2.09-.17,1.48-.44,4.18,.96,7.31,.61,1.48,1.39,3.31,3.31,4.35,.61,.35,1.74,.96,3.05,.7,1.48-.26,2.35-1.48,2.61-1.92,1.13-1.65,1.04-3.48,.96-5.4-.09-.96-.35-3.74-2.09-6.62-1.13-1.92-2.09-2.35-2.52-2.52-1.22-.44-2.35-.17-2.61-.17h0Z"/><path class="cls-6" d="M509.54,65.45c-1.22,.09-2.52,.09-4,.87-1.65,.87-2.61,2.18-3.48,3.31-.78,1.04-.7,1.13-1.83,2.96-1.04,1.57-1.57,2.52-2.52,3.57-1.13,1.31-2.26,2.09-4.27,3.66-2.18,1.65-2.35,1.57-2.96,2.26-1.48,1.74-1.83,3.66-2.09,4.96-.17,1.22-.61,3.48,.35,6.09,.44,1.13,1.22,3.31,3.22,4.27,.78,.35,1.57,.44,3.48,.35,3.22-.17,5.4-.78,7.31-1.22,2.26-.52,4.61-1.04,7.57-1.13,3.57-.09,6.7,.52,8.36,.78,1.92,.35,3.31,.78,6.01,1.04,2.26,.26,3.39,.17,4.7-.26,.78-.26,2.18-.7,3.22-1.92,1.13-1.39,1.22-2.87,1.22-4.44,.09-1.04,.09-3.57-1.39-6.53-.61-1.31-1.13-1.92-3.13-4.35-5.4-6.7-5.66-7.49-7.83-9.31-1.31-1.13-2.61-2.26-4.61-3.22-1.04-.61-3.74-1.92-7.31-1.74h0Z"/><path class="cls-8" d="M509.8,67.71c-1.04,.09-2.18,.09-3.48,.78-1.39,.78-2.26,1.92-2.96,2.87-.7,.87-.61,.96-1.57,2.61-.87,1.39-1.39,2.18-2.18,3.05-.96,1.13-1.92,1.83-3.66,3.13-1.92,1.48-2,1.31-2.61,2-1.31,1.48-2.44,3.74-2.7,4.79-.17,1.04-.52,2.96,.26,5.22,.35,1.04,1.04,2.87,2.79,3.66,.7,.35,2.26-.09,3.83-.26,2.79-.17,4.7-.7,6.35-1.04,1.92-.44,4-.87,6.53-.96,3.05-.09,5.75,.44,7.22,.7,1.65,.35,2.87,.7,5.14,.87,1.92,.17,4.27,.96,5.31,.61,.7-.17,1.83-.7,2.79-1.83,.96-1.13,.7-3.57,.78-4.96,.09-.87-.7-2.79-2.18-5.31-.7-1.22-1.04-1.65-2.7-3.74-4.61-5.75-4.87-6.44-6.7-8.01-1.13-.96-2.26-1.92-4-2.79-.87-.44-3.22-1.57-6.27-1.39h0Z"/></g><g id="arrow"><path class="cls-4" d="M423.88,70.37l-53.3-24.63,6.45,12.8h-60.07s-1.81,5.77-1.81,11.32,1.81,10.08,1.81,10.08h61.2l-7.59,15.07,53.3-24.63h0Z"/><path class="cls-1" d="M381.7,77.77h-63.17c-.49-1.65-1.2-4.6-1.2-7.9,0-3.51,.78-7.16,1.29-9.15h61.94l-5.23-10.38,43.36,20.05-43.36,20.05,6.37-12.65h0Z"/><path class="cls-11" d="M386.36,74.9h-65.61c-.3-1.39-.56-3.16-.56-5.03,0-2.19,.35-4.47,.71-6.28h64.32l-3.62-7.2,30.25,13.98-30.25,13.98,4.76-9.46h0Z"/><path class="cls-9" d="M381.7,77.77h-63.17c-.49-1.65-1.2-4.6-1.2-7.9,0-3.51,.78-7.16,1.29-9.15h61.94l-5.23-10.38,43.36,20.05-43.36,20.05,6.37-12.65h0Z"/></g></svg>