<?xml version="1.0" encoding="utf-8"?>
<!-- Generator: Adobe Illustrator 26.3.1, SVG Export Plug-In . SVG Version: 6.00 Build 0)  -->
<svg version="1.1" id="Layer" xmlns="http://www.w3.org/2000/svg" xmlns:xlink="http://www.w3.org/1999/xlink" x="0px" y="0px"
	 viewBox="0 0 878.7 141.7" style="enable-background:new 0 0 878.7 141.7;" xml:space="preserve">
<style type="text/css">
	.st0{fill:#FFFFFF;fill-opacity:0;}
	.st1{fill:#FFFFFF;}
	.st2{opacity:0.5;fill:#E03D15;enable-background:new    ;}
	.st3{fill:url(#SVGID_1_);}
	.st4{fill:#CD141B;}
	.st5{fill:none;stroke:#010202;stroke-width:1.73;stroke-miterlimit:10;}
</style>
<rect y="0" class="st0" width="878.7" height="141.7"/>
<g>
	<path class="st1" d="M183,87.8l13.3-34.1h7.1l13.3,34.1h-7.3l-3.5-9.1h-14.1l-3.5,9.1H183L183,87.8z M193.5,74.1h10.6l-5.3-13.6
		L193.5,74.1L193.5,74.1L193.5,74.1z"/>
	<path class="st1" d="M247.9,86.4c-1.5,0.7-2.8,1.1-3.9,1.3s-2.4,0.4-3.8,0.6c-1.4,0.2-2.8,0.2-4.2,0.2c-6,0-10.4-1.7-13.3-5
		c-2.9-3.4-4.4-7.6-4.4-12.8c0-5.2,1.5-9.5,4.4-12.9c2.9-3.3,7.5-5,13.8-5c3.7,0,7.4,0.4,11,1.3v5.5c-1.8-0.6-3.2-1.1-4.3-1.4
		c-1.1-0.3-2.2-0.5-3.2-0.6c-1-0.1-2-0.2-3-0.2c-3.9,0-6.7,1.3-8.5,3.8c-1.8,2.5-2.6,5.6-2.6,9.3c0,3.9,1,7,3,9.5
		c2,2.4,5,3.6,8.9,3.6c3.3,0,6.7-0.8,10.1-2.5L247.9,86.4L247.9,86.4L247.9,86.4z"/>
	<path class="st1" d="M261.6,87.8V58.4h-12.2v-4.7h31.5v4.7h-12.2v29.4H261.6L261.6,87.8z"/>
	<path class="st1" d="M284.7,87.8V53.7h7.1v34.1H284.7z"/>
	<path class="st1" d="M314.6,88.6c-3.5,0-6.6-0.7-9.3-2.2c-2.6-1.5-4.6-3.6-6-6.3c-1.4-2.8-2-5.9-2-9.4c0-3.5,0.7-6.6,2-9.3
		c1.4-2.8,3.4-4.9,6-6.3c2.6-1.5,5.7-2.2,9.2-2.2s6.6,0.7,9.2,2.2c2.6,1.5,4.6,3.6,6,6.3s2,5.9,2,9.3c0,3.5-0.7,6.6-2,9.4
		c-1.4,2.8-3.4,4.9-6,6.3C321.2,87.9,318.1,88.6,314.6,88.6L314.6,88.6L314.6,88.6z M314.6,83.9c3.3,0,5.7-1.3,7.3-4
		c1.6-2.7,2.4-5.7,2.4-9.2s-0.8-6.5-2.4-9.2c-1.6-2.7-4-4-7.3-4c-3.3,0-5.7,1.3-7.3,4c-1.6,2.7-2.4,5.7-2.4,9.2
		c0,3.5,0.8,6.5,2.4,9.2C308.9,82.6,311.3,83.9,314.6,83.9L314.6,83.9L314.6,83.9z"/>
	<path class="st1" d="M337.3,87.8V53.7h6.2L359.3,77V53.7h5.7v34.1h-6.4L343,64.5v23.3H337.3L337.3,87.8z"/>
	<path class="st1" d="M370.7,69.3v-6.8h6.8v6.8H370.7z M370.7,87.7v-6.8h6.8v6.8H370.7z"/>
	<path class="st1" d="M397.4,87.8V53.7h7.1v29.2h15.2v4.8H397.4L397.4,87.8z"/>
	<path class="st1" d="M439,88.6c-3.5,0-6.6-0.7-9.3-2.2c-2.6-1.5-4.6-3.6-6-6.3c-1.4-2.8-2-5.9-2-9.4c0-3.5,0.7-6.6,2-9.3
		c1.4-2.8,3.4-4.9,6-6.3c2.6-1.5,5.7-2.2,9.2-2.2s6.6,0.7,9.2,2.2c2.6,1.5,4.6,3.6,6,6.3c1.4,2.8,2,5.9,2,9.3c0,3.5-0.7,6.6-2,9.4
		c-1.4,2.8-3.4,4.9-6,6.3C445.6,87.9,442.5,88.6,439,88.6L439,88.6L439,88.6z M439,83.9c3.3,0,5.7-1.3,7.3-4s2.4-5.7,2.4-9.2
		s-0.8-6.5-2.4-9.2c-1.6-2.7-4-4-7.3-4c-3.3,0-5.7,1.3-7.3,4c-1.6,2.7-2.4,5.7-2.4,9.2c0,3.5,0.8,6.5,2.4,9.2
		C433.3,82.6,435.7,83.9,439,83.9L439,83.9L439,83.9z"/>
	<path class="st1" d="M476.9,88.6c-3.5,0-6.6-0.7-9.3-2.2c-2.6-1.5-4.6-3.6-6-6.3c-1.4-2.8-2-5.9-2-9.4c0-3.5,0.7-6.6,2-9.3
		c1.4-2.8,3.4-4.9,6-6.3c2.6-1.5,5.7-2.2,9.2-2.2s6.6,0.7,9.2,2.2s4.6,3.6,6,6.3c1.4,2.8,2,5.9,2,9.3c0,3.5-0.7,6.6-2,9.4
		c-1.4,2.8-3.4,4.9-6,6.3C483.5,87.9,480.4,88.6,476.9,88.6L476.9,88.6L476.9,88.6z M476.9,83.9c3.3,0,5.7-1.3,7.3-4
		c1.6-2.7,2.4-5.7,2.4-9.2s-0.8-6.5-2.4-9.2c-1.6-2.7-4-4-7.3-4s-5.7,1.3-7.3,4c-1.6,2.7-2.4,5.7-2.4,9.2c0,3.5,0.8,6.5,2.4,9.2
		C471.1,82.6,473.6,83.9,476.9,83.9L476.9,83.9L476.9,83.9z"/>
	<path class="st1" d="M499.6,87.8V53.7h6.8v16.5L519,53.7h5.8l-11.4,15.2l14.3,18.8h-8.8L506.4,71v16.8H499.6L499.6,87.8z"/>
	<path class="st1" d="M542.4,87.8l13.3-34.1h7.1l13.3,34.1h-7.3l-3.5-9.1h-14.1l-3.5,9.1H542.4L542.4,87.8z M552.9,74.1h10.6
		l-5.3-13.6L552.9,74.1L552.9,74.1L552.9,74.1z"/>
	<path class="st1" d="M588.4,87.8V58.4h-12.2v-4.7h31.5v4.7h-12.2v29.4H588.4z"/>
	<path class="st1" d="M634.1,87.8V58.4h-12.2v-4.7h31.5v4.7h-12.2v29.4H634.1z"/>
	<path class="st1" d="M657.2,87.8V53.7h7.1v13.8h14.1V53.7h7.1v34.1h-7.1V72.2h-14.1v15.5H657.2z"/>
	<path class="st1" d="M693,87.8V53.7h21.8v4.7h-14.7v9.5h12.2v4.7h-12.2v10.4h15.8v4.8L693,87.8L693,87.8z"/>
	<path class="st1" d="M742.9,87.8V58.4h-12.2v-4.7h31.5v4.7H750v29.4H742.9z"/>
	<path class="st1" d="M781.2,88.6c-3.5,0-6.6-0.7-9.3-2.2c-2.6-1.5-4.6-3.6-6-6.3c-1.4-2.8-2-5.9-2-9.4c0-3.5,0.7-6.6,2-9.3
		c1.4-2.8,3.4-4.9,6-6.3s5.7-2.2,9.2-2.2s6.6,0.7,9.2,2.2c2.6,1.5,4.6,3.6,6,6.3c1.4,2.8,2,5.9,2,9.3c0,3.5-0.7,6.6-2,9.4
		c-1.4,2.8-3.4,4.9-6,6.3C787.8,87.9,784.8,88.6,781.2,88.6L781.2,88.6L781.2,88.6z M781.2,83.9c3.3,0,5.7-1.3,7.3-4
		c1.6-2.7,2.4-5.7,2.4-9.2s-0.8-6.5-2.4-9.2c-1.6-2.7-4-4-7.3-4c-3.3,0-5.7,1.3-7.3,4c-1.6,2.7-2.4,5.7-2.4,9.2
		c0,3.5,0.8,6.5,2.4,9.2S777.9,83.9,781.2,83.9L781.2,83.9L781.2,83.9z"/>
	<path class="st1" d="M803.9,87.8V53.7h11.7c3.4,0,5.8,0.3,7.2,1.1c1.4,0.7,2.4,1.7,3.1,3c0.7,1.3,1.1,2.9,1.1,4.9
		c0,3.8-1.2,6.7-3.6,8.7c-2.4,2-5.6,3-9.6,3h-2.9v13.4L803.9,87.8L803.9,87.8z M810.9,69.7h1.3c2.6,0,4.5-0.6,5.7-1.9
		c1.2-1.2,1.8-2.7,1.8-4.4c0-0.9-0.2-1.8-0.6-2.6s-1-1.4-1.8-1.8c-0.8-0.4-2.1-0.7-3.9-0.7h-2.7V69.7L810.9,69.7L810.9,69.7z"/>
</g>
<g id="strzalka_efekt">
	<path class="st2" d="M158.9,70.7l-53.1-24.5l6.4,12.8H52.4c0,0-1.8,5.7-1.8,11.3s1.8,10,1.8,10h60.9l-7.6,15L158.9,70.7L158.9,70.7
		L158.9,70.7z"/>
	
		<linearGradient id="SVGID_1_" gradientUnits="userSpaceOnUse" x1="103.245" y1="51.5923" x2="103.245" y2="91.5123" gradientTransform="matrix(1 0 0 -1 0 142.2723)">
		<stop  offset="0" style="stop-color:#542913"/>
		<stop  offset="0.45" style="stop-color:#542913;stop-opacity:0.7"/>
		<stop  offset="0.58" style="stop-color:#E03D15;stop-opacity:0.5"/>
		<stop  offset="1" style="stop-color:#E03D15;stop-opacity:0.5"/>
	</linearGradient>
	<path class="st3" d="M116.9,78.1H54c-0.5-1.6-1.2-4.6-1.2-7.9c0-3.5,0.8-7.1,1.3-9.1h61.7l-5.2-10.3l43.2,20l-43.2,20L116.9,78.1
		L116.9,78.1L116.9,78.1z"/>
	<path class="st4" d="M121.5,75.2H56.2c-0.3-1.4-0.6-3.2-0.6-5c0-2.2,0.4-4.4,0.7-6.2h64l-3.6-7.2l30.1,13.9l-30.1,13.9L121.5,75.2
		L121.5,75.2L121.5,75.2z"/>
	<path class="st5" d="M116.9,78.1H54c-0.5-1.6-1.2-4.6-1.2-7.9c0-3.5,0.8-7.1,1.3-9.1h61.7l-5.2-10.3l43.2,20l-43.2,20L116.9,78.1
		L116.9,78.1L116.9,78.1z"/>
</g>
</svg>
