<?xml version="1.0" encoding="utf-8"?>
<!-- Generator: Adobe Illustrator 26.3.1, SVG Export Plug-In . SVG Version: 6.00 Build 0)  -->
<svg version="1.1" id="animal" xmlns="http://www.w3.org/2000/svg" xmlns:xlink="http://www.w3.org/1999/xlink" x="0px" y="0px"
	 viewBox="0 0 124.7 124.7" style="enable-background:new 0 0 124.7 124.7;" xml:space="preserve">
<style type="text/css">
	.st0{fill:#020203;}
	.st1{fill:url(#SVGID_1_);}
	.st2{fill:url(#SVGID_00000037655879041058571260000002559601250740717979_);}
	.st3{opacity:8.000000e-02;fill:#020203;enable-background:new    ;}
	.st4{fill:#0E5628;}
	.st5{fill:#162919;}
</style>
<g id="animal_00000113323350931905531220000007149207284481116570_">
	<rect y="0" class="st0" width="124.7" height="124.7"/>
	
		<linearGradient id="SVGID_1_" gradientUnits="userSpaceOnUse" x1="-660.1094" y1="-638.9768" x2="-577.0376" y2="-555.9051" gradientTransform="matrix(0.7071 -0.7071 -0.7071 -0.7071 77.3029 -797.4838)">
		<stop  offset="0" style="stop-color:#1F4D23"/>
		<stop  offset="0.4282" style="stop-color:#4A6D30"/>
		<stop  offset="1" style="stop-color:#94A846"/>
	</linearGradient>
	<rect x="3.6" y="3.6" class="st1" width="117.5" height="117.5"/>
	
		<radialGradient id="SVGID_00000062170449448000813110000010092294551911238293_" cx="62.365" cy="63.3723" r="53.0425" gradientTransform="matrix(1 0 0 -1 0 125.7323)" gradientUnits="userSpaceOnUse">
		<stop  offset="0.2514" style="stop-color:#94A846"/>
		<stop  offset="1" style="stop-color:#377831"/>
	</radialGradient>
	
		<rect x="9.3" y="9.3" style="fill:url(#SVGID_00000062170449448000813110000010092294551911238293_);" width="106.1" height="106.1"/>
	<path id="darker" class="st3" d="M121.1,121.1H3.6V56.7c0,0,37,5.7,58.7,5.7s58.8-5.7,58.8-5.7V121.1z"/>
	<path class="st4" d="M49.9,32.5c-0.3,0-3.2,0.4-4.9,2.8c-0.7,0.9-1,1.9-1.2,3c-0.4,2.2-1.2,6.2,0.4,11.1c0.8,2.3,1.7,5.1,4.3,7
		c0.8,0.6,2.4,1.7,4.5,1.5c2.3-0.2,3.7-1.9,4.2-2.5c2-2.3,2-5,2.1-7.9c0-1.4,0-5.7-2.2-10.2c-1.5-3-2.8-3.8-3.4-4.1
		C52.1,32.2,50.4,32.4,49.9,32.5z"/>
	<path class="st4" d="M77.5,30.8c-0.3-0.1-3.1-0.7-5.5,0.9c-0.9,0.6-1.6,1.4-2.2,2.4c-1.2,1.9-3.3,5.3-3.5,10.5
		c-0.1,2.5-0.2,5.4,1.6,8.1c0.6,0.8,1.7,2.4,3.7,2.9c2.2,0.6,4.2-0.5,4.8-0.9c2.6-1.5,3.7-4,4.8-6.7c0.5-1.3,2-5.3,1.5-10.3
		c-0.3-3.3-1.3-4.5-1.8-5C79.6,31.4,78,31,77.5,30.8z"/>
	<path class="st4" d="M31.2,48.5c-0.3,0.1-3.1,0.7-4.6,3.2c-0.6,1-0.8,1.9-0.9,3.1c-0.2,2.2-0.6,6.2,1.4,11c1,2.2,2.1,4.9,5,6.6
		c0.9,0.5,2.6,1.4,4.6,1c2.3-0.4,3.5-2.2,4-2.9c1.7-2.5,1.6-5.2,1.4-8.1c-0.1-1.4-0.5-5.6-3.2-9.9c-1.7-2.8-3.1-3.5-3.8-3.8
		C33.3,48.1,31.8,48.4,31.2,48.5z"/>
	<path class="st4" d="M94.2,46.1c-0.3-0.1-3.1-0.7-5.5,1c-0.9,0.7-1.5,1.5-2.1,2.5c-1.1,2-3.2,5.4-3.2,10.6c0,2.5-0.1,5.4,1.8,8
		C85.8,69,87,70.6,89,71c2.2,0.5,4.1-0.6,4.8-1c2.6-1.5,3.6-4.1,4.6-6.8c0.5-1.3,1.9-5.3,1.2-10.3c-0.4-3.3-1.4-4.5-1.9-5
		C96.3,46.6,94.7,46.2,94.2,46.1z"/>
	<path class="st5" d="M93.5,49.3c-0.2,0-2.3-0.5-4.1,0.8c-0.7,0.5-1.1,1.1-1.6,1.8c-0.8,1.5-2.3,4-2.4,7.9c0,1.8-0.1,4,1.4,6
		c0.4,0.6,1.3,1.8,2.8,2.1c1.7,0.4,3.1-0.5,3.6-0.7c1.9-1.2,2.6-3,3.4-5.1c0.4-1,1.4-4,0.9-7.7c-0.3-2.4-1.1-3.3-1.4-3.7
		C95.1,49.6,93.9,49.3,93.5,49.3z"/>
	<path class="st5" d="M76.7,34.1c-0.2-0.1-2.3-0.5-4.1,0.6c-0.7,0.5-1.1,1-1.6,1.8c-0.9,1.4-2.4,3.9-2.6,7.8c-0.1,1.8-0.2,4,1.2,6
		c0.4,0.6,1.2,1.8,2.7,2.2c1.7,0.4,3.1-0.4,3.6-0.6c1.9-1.1,2.7-2.9,3.5-4.9c0.4-1,1.5-3.9,1.1-7.6c-0.3-2.4-1-3.3-1.3-3.7
		C78.2,34.5,77.1,34.2,76.7,34.1z"/>
	<path class="st5" d="M50.3,35.8c-0.2,0-2.3,0.3-3.6,2c-0.5,0.7-0.7,1.4-0.9,2.2c-0.3,1.6-0.9,4.5,0.3,8.2c0.6,1.7,1.2,3.8,3.2,5.2
		c0.6,0.4,1.8,1.2,3.3,1.1c1.7-0.2,2.7-1.4,3.1-1.8c1.4-1.7,1.5-3.7,1.6-5.8c0-1,0-4.2-1.7-7.5c-1.1-2.2-2.1-2.8-2.5-3
		C51.9,35.6,50.7,35.7,50.3,35.8z"/>
	<path class="st5" d="M31.9,51.4c-0.2,0-2.4,0.5-3.5,2.5c-0.5,0.8-0.6,1.5-0.7,2.4c-0.2,1.7-0.5,4.8,1.1,8.4c0.7,1.7,1.6,3.8,3.8,5
		c0.7,0.4,2,1.1,3.5,0.8c1.7-0.3,2.7-1.7,3-2.2c1.3-1.9,1.2-4,1.1-6.2c-0.1-1.1-0.4-4.3-2.4-7.6c-1.3-2.2-2.4-2.7-2.9-2.9
		C33.5,51.1,32.2,51.4,31.9,51.4z"/>
	<path class="st4" d="M63.2,56.7c-1.4,0.1-2.9,0.1-4.6,1c-1.9,1-3,2.5-4,3.8c-0.9,1.2-0.8,1.3-2.1,3.4c-1.2,1.8-1.8,2.9-2.9,4.1
		c-1.3,1.5-2.6,2.4-4.9,4.2c-2.5,1.9-2.7,1.8-3.4,2.6c-1.7,2-2.1,4.2-2.4,5.7c-0.2,1.4-0.7,4,0.4,7c0.5,1.3,1.4,3.8,3.7,4.9
		c0.9,0.4,1.8,0.5,4,0.4c3.7-0.2,6.2-0.9,8.4-1.4c2.6-0.6,5.3-1.2,8.7-1.3c4.1-0.1,7.7,0.6,9.6,0.9c2.2,0.4,3.8,0.9,6.9,1.2
		c2.6,0.3,3.9,0.2,5.4-0.3c0.9-0.3,2.5-0.8,3.7-2.2c1.3-1.6,1.4-3.3,1.4-5.1c0.1-1.2,0.1-4.1-1.6-7.5c-0.7-1.5-1.3-2.2-3.6-5
		c-6.2-7.7-6.5-8.6-9-10.7c-1.5-1.3-3-2.6-5.3-3.7C70.4,58,67.3,56.5,63.2,56.7z"/>
	<path class="st5" d="M63.5,59.3c-1.2,0.1-2.5,0.1-4,0.9c-1.6,0.9-2.6,2.2-3.4,3.3c-0.8,1-0.7,1.1-1.8,3c-1,1.6-1.6,2.5-2.5,3.5
		c-1.1,1.3-2.2,2.1-4.2,3.6c-2.2,1.7-2.3,1.5-3,2.3c-1.5,1.7-2.8,4.3-3.1,5.5c-0.2,1.2-0.6,3.4,0.3,6c0.4,1.2,1.2,3.3,3.2,4.2
		c0.8,0.4,2.6-0.1,4.4-0.3c3.2-0.2,5.4-0.8,7.3-1.2c2.2-0.5,4.6-1,7.5-1.1c3.5-0.1,6.6,0.5,8.3,0.8c1.9,0.4,3.3,0.8,5.9,1
		c2.2,0.2,4.9,1.1,6.1,0.7c0.8-0.2,2.1-0.8,3.2-2.1c1.1-1.3,0.8-4.1,0.9-5.7c0.1-1-0.8-3.2-2.5-6.1c-0.8-1.4-1.2-1.9-3.1-4.3
		c-5.3-6.6-5.6-7.4-7.7-9.2c-1.3-1.1-2.6-2.2-4.6-3.2C69.7,60.4,67,59.1,63.5,59.3z"/>
</g>
</svg>
