<?xml version="1.0" encoding="utf-8"?>
<!-- Generator: Adobe Illustrator 26.3.1, SVG Export Plug-In . SVG Version: 6.00 Build 0)  -->
<svg version="1.1" id="science" xmlns="http://www.w3.org/2000/svg" xmlns:xlink="http://www.w3.org/1999/xlink" x="0px" y="0px"
	 viewBox="0 0 124.7 124.7" style="enable-background:new 0 0 124.7 124.7;" xml:space="preserve">
<style type="text/css">
	.st0{fill:#030304;}
	.st1{fill:url(#SVGID_1_);}
	.st2{fill:url(#SVGID_00000170979902283994436840000008869234942901063553_);}
	.st3{fill:none;stroke:#020203;stroke-width:2;stroke-miterlimit:10;}
	.st4{opacity:0.15;fill:#030304;enable-background:new    ;}
	.st5{fill:#020203;}
</style>
<g id="science_00000053533030544081485360000009153523504771595665_">
	<rect x="0.3" y="-0.3" class="st0" width="124.7" height="124.7"/>
	
		<linearGradient id="SVGID_1_" gradientUnits="userSpaceOnUse" x1="-659.4691" y1="781.7906" x2="-576.3972" y2="698.7189" gradientTransform="matrix(0.7071 -0.7071 0.7071 0.7071 -23.8236 -898.3347)">
		<stop  offset="0" style="stop-color:#020203"/>
		<stop  offset="0.1051" style="stop-color:#595958"/>
		<stop  offset="1" style="stop-color:#FFFFFF"/>
	</linearGradient>
	<rect x="3.9" y="3.3" class="st1" width="117.5" height="117.5"/>
	
		<linearGradient id="SVGID_00000171701258043437342940000018333120511281695669_" gradientUnits="userSpaceOnUse" x1="9.63" y1="79.0529" x2="115.72" y2="79.0529" gradientTransform="matrix(1 0 0 1 0 -17.0079)">
		<stop  offset="0" style="stop-color:#FFFFFF"/>
		<stop  offset="0.5097" style="stop-color:#F9F8F8"/>
		<stop  offset="1" style="stop-color:#EEEDED"/>
	</linearGradient>
	<polygon style="fill:url(#SVGID_00000171701258043437342940000018333120511281695669_);" points="115.7,9 115.7,115.1 9.6,115.1 
		9.6,9 	"/>
	<path class="st3" d="M75.8,63c0,22.1-5,40-11.1,40S53.6,85.1,53.6,63c0-22.1,5-40,11.1-40S75.8,41,75.8,63z"/>
	<path class="st3" d="M59.1,53.4c19.1-11,37.1-15.7,40.2-10.4s-9.9,18.6-29.1,29.6C51.1,83.7,33.1,88.3,30.1,83S40,64.4,59.1,53.4z"
		/>
	<path class="st3" d="M70.2,53.4c-19.1-11-37.1-15.7-40.2-10.3S40,61.6,59.1,72.7S96.2,88.3,99.3,83C102.4,77.7,89.3,64.4,70.2,53.4
		z"/>
	<path id="darker" class="st4" d="M121.4,120.8H3.9V56.4c0,0,37,5.7,58.7,5.7s58.8-5.7,58.8-5.7V120.8z"/>
	<path class="st5" d="M68.9,63c0,2.3-1.9,4.2-4.2,4.2s-4.2-1.9-4.2-4.2s1.9-4.2,4.2-4.2S68.9,60.7,68.9,63z"/>
</g>
</svg>
