<?xml version="1.0" encoding="utf-8"?>
<!-- Generator: Adobe Illustrator 26.3.1, SVG Export Plug-In . SVG Version: 6.00 Build 0)  -->
<svg version="1.1" id="steel" xmlns="http://www.w3.org/2000/svg" xmlns:xlink="http://www.w3.org/1999/xlink" x="0px" y="0px"
	 viewBox="0 0 124.7 124.7" style="enable-background:new 0 0 124.7 124.7;" xml:space="preserve">
<style type="text/css">
	.st0{fill:#020203;}
	.st1{fill:url(#SVGID_1_);}
	.st2{fill:#946137;}
	.st3{fill:#332015;}
	.st4{opacity:0.15;fill:#020203;enable-background:new    ;}
</style>
<g id="steel_00000103233489514533017950000011073639926567566997_">
	<rect y="0" class="st0" width="124.7" height="124.7"/>
	
		<linearGradient id="SVGID_1_" gradientUnits="userSpaceOnUse" x1="-660.1094" y1="-638.9768" x2="-577.0377" y2="-555.9051" gradientTransform="matrix(0.7071 -0.7071 -0.7071 -0.7071 77.3029 -797.4838)">
		<stop  offset="0" style="stop-color:#442A19"/>
		<stop  offset="5.020000e-02" style="stop-color:#583518"/>
		<stop  offset="0.101" style="stop-color:#683D14"/>
		<stop  offset="0.3224" style="stop-color:#75471D"/>
		<stop  offset="0.7548" style="stop-color:#8B5930"/>
		<stop  offset="1" style="stop-color:#946137"/>
	</linearGradient>
	<rect x="3.6" y="3.6" class="st1" width="117.5" height="117.5"/>
	<rect x="9.3" y="9.3" class="st2" width="106.1" height="106.1"/>
	<g>
		<path class="st3" d="M73.4,97.4L76,48.1L70,47.4l-0.9-2.1h-4.6l-0.8,2.2l-7-0.3V34.4h8.1l0.6,2.5l3.8,0.5l0.9-2.9h8.3l1.6,1.4
			l1.4-1.4h10.3l1.2,2l1.8-2l7.8,6.4l-0.5,4.4c0,0-4.3-4-6.4-4s-5.1-0.1-5.1-0.1l-4.3,6.9l-2.6,0.2L86,97.4L73.4,97.4L73.4,97.4z"/>
		<polygon class="st3" points="50.1,32.3 41.7,27.7 41.6,39.1 34,39.1 34,27.7 24.4,32.1 24.4,46.1 33.3,50.4 30.2,97.4 44.5,97.4 
			41.7,50.4 50.1,46.6 		"/>
	</g>
	<path id="darker" class="st4" d="M121.1,121.1H3.6V56.7c0,0,37,5.7,58.7,5.7s58.8-5.7,58.8-5.7V121.1z"/>
</g>
</svg>
