<?xml version="1.0" encoding="UTF-8"?><svg id="Layer" xmlns="http://www.w3.org/2000/svg" xmlns:xlink="http://www.w3.org/1999/xlink" viewBox="0 0 149.75 151.08"><defs><style>.cls-1{stroke:url(#linear-gradient-3);}.cls-1,.cls-2,.cls-3,.cls-4{stroke-miterlimit:10;}.cls-1,.cls-3,.cls-4{stroke-width:.96px;}.cls-1,.cls-4{fill:#e21c1f;}.cls-5{fill:#030404;}.cls-6{fill:#20201e;}.cls-2{stroke-width:.3px;}.cls-2,.cls-3{fill:none;stroke:#20201e;}.cls-7{fill:#4aae40;}.cls-8{fill:url(#radial-gradient);}.cls-4{stroke:url(#linear-gradient-2);}.cls-9{fill:url(#linear-gradient);}</style><linearGradient id="linear-gradient" x1="65.38" y1="-13.64" x2="65.38" y2="130.6" gradientTransform="translate(0 134.02) scale(1 -1)" gradientUnits="userSpaceOnUse"><stop offset="0" stop-color="#136b38"/><stop offset=".15" stop-color="#149138"/><stop offset=".62" stop-color="#28a138"/><stop offset=".65" stop-color="#2da43b"/><stop offset=".84" stop-color="#50af46"/><stop offset="1" stop-color="#5ab249"/></linearGradient><radialGradient id="radial-gradient" cx="129.72" cy="94.62" fx="129.72" fy="94.62" r="19.52" gradientTransform="translate(0 134.02) scale(1 -1)" gradientUnits="userSpaceOnUse"><stop offset="0" stop-color="#f6ee89"/><stop offset=".78" stop-color="#f6ee89"/><stop offset=".91" stop-color="#f6ee89"/><stop offset=".91" stop-color="#f7ef89"/><stop offset=".94" stop-color="#faf4b7"/><stop offset=".96" stop-color="#fdfae0"/><stop offset=".97" stop-color="#fefcf3"/><stop offset=".99" stop-color="#fff"/><stop offset="1" stop-color="#fff"/></radialGradient><linearGradient id="linear-gradient-2" x1="131.27" y1="86.6" x2="120.18" y2="97.71" gradientTransform="translate(0 134.02) scale(1 -1)" gradientUnits="userSpaceOnUse"><stop offset="0" stop-color="#5f1714"/><stop offset=".1" stop-color="#611912"/><stop offset=".26" stop-color="#742d24"/><stop offset=".48" stop-color="#934f46"/><stop offset=".73" stop-color="#c08a82"/><stop offset="1" stop-color="#fbdede"/></linearGradient><linearGradient id="linear-gradient-3" x1="139.2" y1="91.95" x2="128.08" y2="103.07" gradientTransform="translate(0 134.02) scale(1 -1)" gradientUnits="userSpaceOnUse"><stop offset="0" stop-color="#5f1714"/><stop offset=".1" stop-color="#611912"/><stop offset=".26" stop-color="#742d24"/><stop offset=".48" stop-color="#934f46"/><stop offset=".73" stop-color="#c08a82"/><stop offset="1" stop-color="#fbdede"/></linearGradient></defs><g id="greenery"><polygon class="cls-5" points="65.43 151.08 0 113.29 0 37.9 65.43 0 130.85 37.9 130.85 113.29 65.43 151.08"/><polygon class="cls-9" points="65.43 147.66 2.9 111.57 2.9 39.51 65.43 3.42 127.86 39.51 127.86 111.57 65.43 147.66"/><polygon class="cls-7" points="65.43 142.52 7.5 109 7.5 42.19 65.43 8.67 123.36 42.19 123.36 109 65.43 142.52"/><path class="cls-6" d="M74.64,119.71c-.64,.64-13.6-.75-15.74,0-1.07,1.07,1.71-3.64,1.71-6.21v-46.69h9.64v47.33c.11,2.68,4.93,4.93,4.39,5.57h0Z"/><path class="cls-6" d="M71.1,48.08c7.39,8.78,8.57,20.13,2.57,25.16s-16.81,1.93-24.31-6.85c-7.39-8.78-8.57-20.13-2.57-25.16s16.92-2.03,24.31,6.85Z"/><path class="cls-6" d="M63.72,65.64c0,6.64-7.6,11.89-17.03,11.89s-17.03-5.25-17.03-11.89,7.6-11.89,17.03-11.89,17.03,5.25,17.03,11.89Z"/><path class="cls-6" d="M92.41,50c2.46,11.67-2.25,22.59-10.39,24.31-8.14,1.71-16.92-6.21-19.38-17.88s2.25-22.59,10.39-24.31c8.24-1.93,16.92,6.21,19.38,17.88Z"/><path class="cls-6" d="M97.55,69.06c-1.61,5.46-9.21,7.92-17.13,5.78-8.03-2.36-13.17-8.46-11.56-14.03,1.61-5.35,9.21-8.03,17.13-5.78,8.03,2.36,13.17,8.57,11.56,14.03Z"/><path class="cls-6" d="M90.81,74.63c-.11,1.18-5.89,1.71-13.06,1.18-7.07-.54-12.85-1.82-12.74-3.11s5.89-1.71,13.06-1.18c7.07,.54,12.85,1.93,12.74,3.11Z"/></g><g id="oxIcon"><path class="cls-8" d="M149.27,39.4c0,10.81-8.78,19.49-19.49,19.49s-19.6-8.67-19.6-19.49,8.78-19.49,19.6-19.49,19.49,8.78,19.49,19.49Z"/><path class="cls-3" d="M149.27,39.4c0,10.81-8.78,19.49-19.49,19.49s-19.6-8.67-19.6-19.49,8.78-19.49,19.49-19.49,19.6,8.78,19.6,19.49Z"/><path class="cls-2" d="M147.02,39.4c0,9.53-7.71,17.24-17.24,17.24s-17.24-7.71-17.24-17.24,7.71-17.24,17.24-17.24,17.24,7.71,17.24,17.24Z"/><path class="cls-4" d="M133.1,41.86c0,4.07-3.32,7.39-7.39,7.39s-7.39-3.32-7.39-7.39,3.32-7.39,7.39-7.39,7.39,3.32,7.39,7.39Z"/><path class="cls-1" d="M141.03,36.51c0,4.07-3.32,7.39-7.39,7.39s-7.39-3.32-7.39-7.39,3.32-7.39,7.39-7.39,7.39,3.32,7.39,7.39Z"/></g></svg>