<?xml version="1.0" encoding="utf-8"?>
<!-- Generator: Adobe Illustrator 26.3.1, SVG Export Plug-In . SVG Version: 6.00 Build 0)  -->
<svg version="1.1" id="tr" xmlns="http://www.w3.org/2000/svg" xmlns:xlink="http://www.w3.org/1999/xlink" x="0px" y="0px"
	 viewBox="0 0 124.7 124.7" style="enable-background:new 0 0 124.7 124.7;" xml:space="preserve">
<style type="text/css">
	.st0{fill:url(#SVGID_1_);stroke:#020203;stroke-width:2;stroke-miterlimit:10;}
	.st1{fill:url(#SVGID_00000034774332933960225140000014455217674905292983_);}
	.st2{fill:none;stroke:#020203;stroke-width:3;stroke-miterlimit:10;}
	.st3{fill:none;stroke:#020203;stroke-width:1.5;stroke-miterlimit:10;}
	.st4{fill:#020203;}
	.st5{fill:none;stroke:#020203;stroke-width:2;stroke-linecap:square;stroke-miterlimit:10;}
	.st6{opacity:0.31;fill:url(#darker_00000040538587196069787550000002106564998777292476_);enable-background:new    ;}
</style>
<g id="tr_00000125581045419877102810000000228140115189174939_">
	
		<linearGradient id="SVGID_1_" gradientUnits="userSpaceOnUse" x1="62.365" y1="122.1879" x2="62.365" y2="35.9079" gradientTransform="matrix(1 0 0 1 0 -17.0079)">
		<stop  offset="0" style="stop-color:#941914"/>
		<stop  offset="0.2134" style="stop-color:#B03C1D"/>
		<stop  offset="0.4419" style="stop-color:#CB5E27"/>
		<stop  offset="0.6562" style="stop-color:#E07931"/>
		<stop  offset="0.8485" style="stop-color:#EE8B38"/>
		<stop  offset="1" style="stop-color:#F3913A"/>
	</linearGradient>
	<rect x="1.3" y="18.9" class="st0" width="122.1" height="86.3"/>
	
		<radialGradient id="SVGID_00000066474960143783894360000009054254677372276352_" cx="62.36" cy="79.0529" r="49.1515" gradientTransform="matrix(1 0 0 1 0 -17.0079)" gradientUnits="userSpaceOnUse">
		<stop  offset="0" style="stop-color:#F3913A;stop-opacity:0.5"/>
		<stop  offset="1" style="stop-color:#D33D16"/>
	</radialGradient>
	
		<rect x="5.1" y="22.7" style="fill:url(#SVGID_00000066474960143783894360000009054254677372276352_);" width="114.6" height="78.7"/>
	<g id="logo">
		<g>
			<g>
				<circle class="st2" cx="62.4" cy="59.2" r="22.2"/>
				<path class="st3" d="M62.4,37c0,0,11.5,4.7,11.5,22.2S62.4,81.4,62.4,81.4"/>
				<path class="st3" d="M62.4,37c0,0-11.5,4.7-11.5,22.2s11.5,22.2,11.5,22.2"/>
				<line class="st3" x1="62.4" y1="37" x2="62.4" y2="81.4"/>
				<line class="st3" x1="40.2" y1="59.2" x2="84.6" y2="59.2"/>
				<path class="st3" d="M45.1,45.2c0,0,6.5,3.3,17.2,3.3s17.2-3.3,17.2-3.3"/>
				<path class="st3" d="M45.1,73.5c0-0.1,6.5-3.3,17.2-3.3s17.2,3.3,17.2,3.3"/>
				<polygon class="st4" points="75.7,41 81.6,35.6 73.8,34 90.8,29.1 86.9,46.8 84.6,38 79,44.5 				"/>
				<polyline class="st5" points="62.4,86.5 54.4,86.5 57.8,86.5 57.8,94.4 				"/>
				<polyline class="st5" points="68.1,94.4 68.1,86.5 66.6,86.5 64.7,91.8 64.1,91.8 62.5,89.3 61.3,89.3 61.3,94.4 				"/>
				<path class="st4" d="M55,91.5c0,1.2-3,3-4.2,3s-8.4,0.5-8.4-0.7s7.2-3.7,8.4-3.7C52,90.2,55,90.3,55,91.5z"/>
				<path class="st4" d="M51.4,88.8c-0.7,0.6-3.4-0.4-4-1.1s-4.4-4.9-3.7-5.5c0.7-0.6,5.8,2.7,6.4,3.4
					C50.7,86.3,52.1,88.2,51.4,88.8z"/>
				<path class="st4" d="M46.1,90.2c-0.2,0.9-2.8,1.9-3.8,1.7c-0.9-0.2-8.5-0.8-8.3-1.7s8.1-1.9,9-1.7C44,88.7,46.3,89.3,46.1,90.2z
					"/>
				<path class="st4" d="M44.1,87.8c-0.9,0.3-3.1-1.4-3.4-2.3s-3.8-7.7-3-8s5.8,5.9,6.2,6.8C44.2,85.2,44.9,87.5,44.1,87.8z"/>
				<path class="st4" d="M38.6,87.4c-0.6,0.9-3.5,0.9-4.3,0.4S26.4,83.9,27,83c0.6-0.9,8.6,1,9.4,1.6C37.2,85.1,39.2,86.5,38.6,87.4
					z"/>
				<path class="st4" d="M36.6,84.2c-1,0-2.4-2.3-2.4-3.2s-0.8-8,0.2-8c1,0,3.4,7.2,3.4,8.1C37.7,81.9,37.6,84.2,36.6,84.2z"/>
				<path class="st4" d="M31.3,78.1c-0.9-0.2-1.8-2.7-1.6-3.6c0.2-0.8,1-7.8,1.9-7.6c0.9,0.2,1.6,7.6,1.4,8.4
					C32.8,76.2,32.2,78.3,31.3,78.1z"/>
				<path class="st4" d="M31.8,82c-0.8,0.6-3.5-0.3-4.1-1c-0.6-0.8-6.2-6.1-5.4-6.7c0.8-0.6,7.6,3.7,8.2,4.4
					C31.1,79.4,32.5,81.4,31.8,82z"/>
				<path class="st4" d="M27.2,74.5c-0.8,0.4-3.2-0.9-3.6-1.7s-4.7-6.8-3.8-7.3c0.8-0.4,6.4,4.9,6.8,5.7C27,72,28,74,27.2,74.5z"/>
				<path class="st4" d="M27.7,71.6c-0.7-0.3-1-2.8-0.7-3.6s2.2-7.7,2.9-7.4c0.7,0.3,0.1,7.6-0.2,8.4C29.3,69.9,28.4,71.9,27.7,71.6
					z"/>
				<path class="st4" d="M24.6,66.9c-0.8,0.2-2.5-1.8-2.7-2.8c-0.2-0.9-2.5-7.9-1.8-8.1c0.8-0.2,4.4,6.6,4.6,7.5
					C24.9,64.4,25.4,66.8,24.6,66.9z"/>
				<path class="st4" d="M26,63.8c-0.7-0.4-0.6-2.7-0.2-3.4c0.4-0.7,3-6.3,3.7-5.9s-0.9,6.8-1.3,7.4C27.8,62.6,26.7,64.2,26,63.8z"
					/>
				<path class="st4" d="M23.9,58.1c-0.8-0.1-1.9-2.4-1.8-3.3S22,47,22.8,47c0.8,0.1,2.3,7.2,2.2,8.1S24.7,58.2,23.9,58.1z"/>
				<path class="st4" d="M25.9,55.8c-0.5-0.5,0.3-2.8,0.9-3.3c0.6-0.5,5-5.5,5.5-4.9c0.5,0.5-3.1,6.4-3.7,6.9
					C28,55,26.4,56.4,25.9,55.8z"/>
				<path class="st4" d="M28.9,48.5c-0.4-0.5,0.2-2.2,0.7-2.7c0.5-0.4,4-4.4,4.4-3.9c0.4,0.5-2.4,5.1-2.9,5.6
					C30.5,47.8,29.3,48.9,28.9,48.5z"/>
				<path class="st4" d="M25.5,49.5c-0.6-0.2-1-2.6-0.8-3.4c0.2-0.8,1.6-7.6,2.2-7.5c0.6,0.2,0.3,7.3,0.1,8.1
					C26.9,47.7,26.2,49.8,25.5,49.5z"/>
				<path class="st4" d="M29.3,44.2c-0.8-0.3-1.2-2.7-0.9-3.5c0.3-0.8,1.9-7.3,2.7-7c0.8,0.3,0.4,7.3,0.1,8.1
					C30.9,42.5,30.1,44.5,29.3,44.2z"/>
				<path class="st4" d="M69.8,91.2c0,1.2,3,3,4.2,3s8.4,0.5,8.4-0.7s-7.2-3.7-8.4-3.7S69.8,90,69.8,91.2z"/>
				<path class="st4" d="M73.4,88.5c0.7,0.6,3.4-0.4,4-1.1s4.4-4.9,3.7-5.5c-0.7-0.6-5.8,2.7-6.4,3.4C74.1,86,72.7,87.9,73.4,88.5z"
					/>
				<path class="st4" d="M78.7,89.9c0.2,0.9,2.8,1.9,3.8,1.7c0.9-0.2,8.5-0.8,8.3-1.7c-0.2-0.9-8.1-1.9-9-1.7
					C80.8,88.4,78.5,89,78.7,89.9z"/>
				<path class="st4" d="M80.7,87.5c0.9,0.3,3.1-1.4,3.4-2.3s3.8-7.7,2.9-8s-5.8,5.9-6.2,6.8C80.6,84.9,79.9,87.2,80.7,87.5z"/>
				<path class="st4" d="M86.2,87.1c0.6,0.9,3.5,0.9,4.3,0.4c0.8-0.5,7.8-3.9,7.2-4.8c-0.6-0.9-8.6,1-9.4,1.6
					C87.6,84.8,85.6,86.2,86.2,87.1z"/>
				<path class="st4" d="M88.2,83.9c1,0,2.4-2.3,2.4-3.2c0-0.9,0.8-8-0.2-8S87,79.9,87,80.8C87.1,81.7,87.2,83.9,88.2,83.9z"/>
				<path class="st4" d="M93.5,77.8c0.9-0.2,1.8-2.7,1.6-3.6c-0.2-0.8-1-7.8-1.9-7.6c-0.9,0.2-1.6,7.6-1.4,8.4
					C92,75.9,92.6,78,93.5,77.8z"/>
				<path class="st4" d="M93,81.7c0.8,0.6,3.5-0.3,4.1-1c0.6-0.8,6.2-6.1,5.4-6.7c-0.8-0.6-7.6,3.7-8.2,4.4
					C93.7,79.2,92.3,81.1,93,81.7z"/>
				<path class="st4" d="M97.6,74.2c0.8,0.4,3.2-0.9,3.6-1.7s4.7-6.8,3.8-7.3c-0.8-0.4-6.4,4.9-6.8,5.7
					C97.8,71.7,96.8,73.8,97.6,74.2z"/>
				<path class="st4" d="M97.1,71.4c0.7-0.3,1.1-2.8,0.7-3.6s-2.2-7.7-2.9-7.4c-0.7,0.3-0.1,7.6,0.2,8.4
					C95.5,69.6,96.4,71.7,97.1,71.4z"/>
				<path class="st4" d="M100.2,66.6c0.8,0.2,2.5-1.8,2.7-2.8c0.2-0.9,2.6-7.9,1.8-8.1c-0.8-0.2-4.4,6.6-4.6,7.5
					C99.9,64.2,99.4,66.5,100.2,66.6z"/>
				<path class="st4" d="M98.8,63.5c0.7-0.4,0.7-2.7,0.2-3.4c-0.4-0.7-3.1-6.3-3.7-5.9s0.9,6.8,1.3,7.4C97,62.3,98.1,64,98.8,63.5z"
					/>
				<path class="st4" d="M100.9,57.8c0.8-0.1,1.9-2.4,1.8-3.3c-0.1-0.9,0.1-7.9-0.7-7.8c-0.8,0.1-2.3,7.2-2.2,8.1
					C99.8,55.7,100.1,57.9,100.9,57.8z"/>
				<path class="st4" d="M98.9,55.5c0.5-0.5-0.3-2.8-0.9-3.3c-0.6-0.5-5-5.5-5.5-4.9c-0.5,0.5,3.1,6.4,3.7,6.9
					C96.8,54.7,98.4,56.1,98.9,55.5z"/>
				<path class="st4" d="M95.9,48.2c0.4-0.5-0.2-2.2-0.7-2.7s-4-4.4-4.4-3.9c-0.4,0.5,2.4,5.1,2.9,5.6
					C94.2,47.6,95.5,48.6,95.9,48.2z"/>
				<path class="st4" d="M99.2,49.3c0.6-0.2,1-2.6,0.8-3.4c-0.2-0.8-1.6-7.6-2.2-7.5c-0.6,0.2-0.3,7.3-0.1,8.1
					C97.9,47.4,98.6,49.5,99.2,49.3z"/>
				<path class="st4" d="M95.5,43.9c0.8-0.3,1.2-2.7,0.9-3.5c-0.3-0.8-1.9-7.3-2.7-7c-0.8,0.3-0.4,7.3-0.1,8.1
					C93.9,42.2,94.7,44.2,95.5,43.9z"/>
			</g>
		</g>
	</g>
	
		<linearGradient id="darker_00000172418356825230839290000003749376264590171789_" gradientUnits="userSpaceOnUse" x1="62.365" y1="122.1979" x2="62.365" y2="67.2145" gradientTransform="matrix(1 0 0 1 0 -17.0079)">
		<stop  offset="0" style="stop-color:#1E1E1C"/>
		<stop  offset="1" style="stop-color:#3D3D3B"/>
	</linearGradient>
	
		<path id="darker" style="opacity:0.31;fill:url(#darker_00000172418356825230839290000003749376264590171789_);enable-background:new    ;" d="
		M123,50.4c-1.9,3.8-34.1,10-60.6,10s-59.2-6.8-61.1-10v54.8h122.1V51C123.3,50.3,123.1,50,123,50.4z"/>
</g>
</svg>
