<?xml version="1.0" encoding="utf-8"?>
<!-- Generator: Adobe Illustrator 26.3.1, SVG Export Plug-In . SVG Version: 6.00 Build 0)  -->
<svg version="1.1" id="event" xmlns="http://www.w3.org/2000/svg" xmlns:xlink="http://www.w3.org/1999/xlink" x="0px" y="0px"
	 viewBox="0 0 124.7 124.7" style="enable-background:new 0 0 124.7 124.7;" xml:space="preserve">
<style type="text/css">
	.st0{fill:#020203;}
	.st1{fill:url(#SVGID_1_);}
	.st2{fill:url(#SVGID_00000065069622941723673260000010185679618954726281_);}
	.st3{opacity:8.000000e-02;fill:#020203;enable-background:new    ;}
	.st4{fill:#222222;}
</style>
<g id="tagEvent">
	<path class="st0" d="M124.3,62.4c0,34.2-27.8,62-62,62s-62-27.8-62-62s27.8-62,62-62C96.6,0.4,124.3,28.1,124.3,62.4z"/>
	
		<linearGradient id="SVGID_1_" gradientUnits="userSpaceOnUse" x1="62.34" y1="5.9423" x2="62.34" y2="120.8023" gradientTransform="matrix(1 0 0 -1 0 125.7323)">
		<stop  offset="0" style="stop-color:#ED9229"/>
		<stop  offset="1" style="stop-color:#FDF43B"/>
	</linearGradient>
	<path class="st1" d="M119.8,62.4c0,31.7-25.7,57.4-57.4,57.4c-31.7,0-57.4-25.7-57.4-57.4S30.6,4.9,62.3,4.9
		C94.1,4.9,119.8,30.6,119.8,62.4z"/>
	
		<linearGradient id="SVGID_00000093139084861433104940000004070718892868968865_" gradientUnits="userSpaceOnUse" x1="10.48" y1="79.3679" x2="114.2" y2="79.3679" gradientTransform="matrix(1 0 0 1 0 -17.0079)">
		<stop  offset="9.480000e-02" style="stop-color:#FDF43B"/>
		<stop  offset="0.9843" style="stop-color:#FDF43B"/>
	</linearGradient>
	<path style="fill:url(#SVGID_00000093139084861433104940000004070718892868968865_);" d="M114.2,62.4c0,28.6-23.2,51.9-51.9,51.9
		S10.5,91,10.5,62.4s23.2-51.9,51.9-51.9C91,10.5,114.2,33.7,114.2,62.4z"/>
	<path id="darker" class="st3" d="M119.8,62.4c0-1.2,0-2.3-0.1-3.4c-11.6,3.2-31.5,7.3-57.3,7.3c-25.1,0-45.1-5.1-57.2-9.3
		c-0.2,1.8-0.3,3.6-0.3,5.4c0,31.7,25.7,57.4,57.4,57.4C94.1,119.8,119.8,94.1,119.8,62.4z"/>
	<rect x="49.1" y="24.1" class="st4" width="26.1" height="42.3"/>
	<polygon points="36.1,66.5 87.7,66.5 63.2,100.9 	"/>
</g>
</svg>
