<?xml version="1.0" encoding="utf-8"?>
<!-- Generator: Adobe Illustrator 26.3.1, SVG Export Plug-In . SVG Version: 6.00 Build 0)  -->
<svg version="1.1" id="plant" xmlns="http://www.w3.org/2000/svg" xmlns:xlink="http://www.w3.org/1999/xlink" x="0px" y="0px"
	 viewBox="0 0 124.7 124.7" style="enable-background:new 0 0 124.7 124.7;" xml:space="preserve">
<style type="text/css">
	.st0{fill:#020203;}
	.st1{fill:url(#SVGID_1_);}
	.st2{fill:#3EAB24;}
	.st3{fill:#05542A;stroke:#1A441F;stroke-width:4;stroke-miterlimit:10;}
	.st4{opacity:5.000000e-02;fill:#020203;enable-background:new    ;}
</style>
<g id="tagPlant">
	<path class="st0" d="M124.3,62.4c0,34.2-27.8,62-62,62s-62-27.8-62-62s27.8-62,62-62C96.6,0.4,124.3,28.1,124.3,62.4z"/>
	
		<linearGradient id="SVGID_1_" gradientUnits="userSpaceOnUse" x1="62.4" y1="5.9323" x2="62.4" y2="120.8323" gradientTransform="matrix(1 0 0 -1 0 125.7323)">
		<stop  offset="0" style="stop-color:#056734"/>
		<stop  offset="3.200000e-02" style="stop-color:#056834"/>
		<stop  offset="5.020000e-02" style="stop-color:#056E36"/>
		<stop  offset="6.510000e-02" style="stop-color:#037737"/>
		<stop  offset="7.800000e-02" style="stop-color:#028438"/>
		<stop  offset="8.470000e-02" style="stop-color:#008E39"/>
		<stop  offset="0.116" style="stop-color:#058F39"/>
		<stop  offset="0.6802" style="stop-color:#3EAB24"/>
		<stop  offset="1" style="stop-color:#5CCC45"/>
	</linearGradient>
	<path class="st1" d="M119.8,62.4c0,31.7-25.7,57.4-57.4,57.4S5,94.1,5,62.4S30.6,4.9,62.3,4.9C94.1,4.9,119.8,30.6,119.8,62.4z"/>
	<path class="st2" d="M114.2,62.4c0,28.6-23.2,51.9-51.9,51.9S10.5,91,10.5,62.4s23.2-51.9,51.9-51.9C91,10.5,114.2,33.7,114.2,62.4
		z"/>
	<path id="leaf" class="st3" d="M62.3,39.2C49.2,41,39.1,49.5,39.1,62.4c0,3.2,0.6,6.2,1.8,8.9C38.5,73,35,75,33.2,75.7
		c-3.1,1.1-9.1,0.3-9.3,0.8c-0.2,0.5,1.8,6,2.4,6.2c0.6,0.3,6.2,0.2,9.3-0.8c2.2-0.8,6.3-3.3,8.6-5.1c4.2,5.3,10.8,8.8,18.2,8.8
		c12.8,0,23.1-8.1,23.1-20.9c0-5,1.2-11.2,3-15.1c2-4.4,12.2-7.1,12.2-7.1C99.8,39.2,67.6,38.4,62.3,39.2z"/>
	<path id="darker" class="st4" d="M119.8,62.4c0-1.2,0-2.3-0.1-3.4c-11.6,3.2-31.5,7.3-57.3,7.3c-25.1,0-45.1-5.1-57.2-9.3
		c-0.2,1.8-0.3,3.6-0.3,5.4c0,31.7,25.7,57.4,57.4,57.4C94.1,119.8,119.8,94.1,119.8,62.4z"/>
</g>
</svg>
