<?xml version="1.0" encoding="utf-8"?>
<!-- Generator: Adobe Illustrator 26.3.1, SVG Export Plug-In . SVG Version: 6.00 Build 0)  -->
<svg version="1.1" id="power" xmlns="http://www.w3.org/2000/svg" xmlns:xlink="http://www.w3.org/1999/xlink" x="0px" y="0px"
	 viewBox="0 0 124.7 124.7" style="enable-background:new 0 0 124.7 124.7;" xml:space="preserve">
<style type="text/css">
	.st0{fill:#020203;}
	.st1{fill:url(#SVGID_1_);}
	.st2{fill:#7E328A;}
	.st3{fill:#FFFFFF;stroke:#020203;stroke-miterlimit:10;}
	.st4{opacity:8.000000e-02;fill:#020203;enable-background:new    ;}
</style>
<g id="tagPower">
	<path class="st0" d="M124.3,62.4c0,34.2-27.8,62-62,62s-62-27.8-62-62s27.8-62,62-62C96.6,0.4,124.3,28.1,124.3,62.4z"/>
	
		<linearGradient id="SVGID_1_" gradientUnits="userSpaceOnUse" x1="62.34" y1="136.7979" x2="62.34" y2="21.9379" gradientTransform="matrix(1 0 0 1 0 -17.0079)">
		<stop  offset="0" style="stop-color:#1C1027"/>
		<stop  offset="0.2392" style="stop-color:#372348"/>
		<stop  offset="0.4931" style="stop-color:#56396B"/>
		<stop  offset="0.7139" style="stop-color:#704E8A"/>
		<stop  offset="0.8902" style="stop-color:#815B9E"/>
		<stop  offset="1" style="stop-color:#8861A6"/>
	</linearGradient>
	<path class="st1" d="M119.8,62.4c0,31.7-25.7,57.4-57.4,57.4c-31.7,0-57.4-25.7-57.4-57.4c0-31.7,25.7-57.4,57.4-57.4
		C94.1,4.9,119.8,30.6,119.8,62.4z"/>
	<path class="st2" d="M114.2,62.4c0,28.6-23.2,51.9-51.9,51.9S10.5,91,10.5,62.4s23.2-51.9,51.9-51.9S114.2,33.7,114.2,62.4z"/>
	<polygon class="st3" points="47.6,51.8 85.3,28.3 65.2,57.6 75.8,74.9 38.7,98.4 57.4,69.3 	"/>
	<path id="darker" class="st4" d="M119.8,62.4c0-1.2,0-2.3-0.1-3.4c-11.6,3.2-31.5,7.3-57.3,7.3c-25.1,0-45.1-5.1-57.2-9.3
		c-0.2,1.8-0.3,3.6-0.3,5.4c0,31.7,25.7,57.4,57.4,57.4C94.1,119.8,119.8,94.1,119.8,62.4z"/>
</g>
</svg>
