<?xml version="1.0" encoding="utf-8"?>
<!-- Generator: Adobe Illustrator 26.3.1, SVG Export Plug-In . SVG Version: 6.00 Build 0)  -->
<svg version="1.1" id="space" xmlns="http://www.w3.org/2000/svg" xmlns:xlink="http://www.w3.org/1999/xlink" x="0px" y="0px"
	 viewBox="0 0 124.7 124.7" style="enable-background:new 0 0 124.7 124.7;" xml:space="preserve">
<style type="text/css">
	.st0{fill:#020203;}
	.st1{fill:url(#SVGID_1_);}
	.st2{fill:#676767;}
	.st3{fill:url(#ciemniej_00000183207440603237653760000012051154357760530333_);}
	.st4{fill:#F6EA4D;}
</style>
<g id="tagSpace">
	<path class="st0" d="M124.3,62.4c0,34.2-27.8,62-62,62s-62-27.8-62-62s27.8-62,62-62S124.3,28.1,124.3,62.4z"/>
	
		<linearGradient id="SVGID_1_" gradientUnits="userSpaceOnUse" x1="62.35" y1="-11.0756" x2="62.35" y2="103.8244" gradientTransform="matrix(1 0 0 -1 0 108.7244)">
		<stop  offset="0" style="stop-color:#020203"/>
		<stop  offset="6.700000e-02" style="stop-color:#020304"/>
		<stop  offset="0.1053" style="stop-color:#050708"/>
		<stop  offset="0.1364" style="stop-color:#0F1113"/>
		<stop  offset="0.1637" style="stop-color:#1B1D1F"/>
		<stop  offset="0.1882" style="stop-color:#2B2C2D"/>
		<stop  offset="0.2066" style="stop-color:#3D3D3B"/>
		<stop  offset="0.3959" style="stop-color:#565554"/>
		<stop  offset="0.671" style="stop-color:#7B7978"/>
		<stop  offset="0.8813" style="stop-color:#949392"/>
		<stop  offset="1" style="stop-color:#9E9D9C"/>
	</linearGradient>
	<path class="st1" d="M119.8,62.4c0,31.7-25.7,57.4-57.4,57.4S4.9,94.1,4.9,62.4S30.6,4.9,62.3,4.9S119.8,30.6,119.8,62.4z"/>
	<path class="st2" d="M114.2,62.4c0,28.6-23.2,51.9-51.9,51.9S10.5,91,10.5,62.4s23.2-51.9,51.9-51.9S114.2,33.7,114.2,62.4z"/>
	
		<linearGradient id="ciemniej_00000112593808418523314410000015708258159201122972_" gradientUnits="userSpaceOnUse" x1="62.35" y1="-11.0756" x2="62.35" y2="51.7244" gradientTransform="matrix(1 0 0 -1 0 108.7244)">
		<stop  offset="0" style="stop-color:#070707"/>
		<stop  offset="1" style="stop-color:#282827"/>
	</linearGradient>
	<path id="ciemniej_29_" style="fill:url(#ciemniej_00000112593808418523314410000015708258159201122972_);" d="M119.8,62.4
		c0-1.2,0-2.3-0.1-3.4c-11.6,3.2-31.5,7.3-57.3,7.3c-25.1,0-45.1-5.1-57.2-9.3c-0.2,1.8-0.3,3.6-0.3,5.4c0,31.7,25.7,57.4,57.4,57.4
		S119.8,94.1,119.8,62.4z"/>
	<g id="gwiazda_2_">
		<circle class="st4" cx="62.3" cy="62.4" r="8.5"/>
		<path class="st4" d="M73,57.1l18.7-24l-24,18.7C70,52.8,71.9,54.7,73,57.1z"/>
		<path class="st4" d="M57,51.7L33,33l18.7,24C52.8,54.7,54.7,52.8,57,51.7z"/>
		<path class="st4" d="M103.8,62.4l-30.2-3.8c0.4,1.2,0.6,2.5,0.6,3.8S74,65,73.6,66.2L103.8,62.4z"/>
		<path class="st4" d="M66.1,51.1l-3.8-30.2l-3.8,30.2c1.2-0.4,2.5-0.6,3.8-0.6C63.7,50.4,64.9,50.7,66.1,51.1z"/>
		<path class="st4" d="M67.7,73l24,18.7L73,67.7C71.9,70,70,71.9,67.7,73z"/>
		<path class="st4" d="M50.4,62.4c0-1.3,0.2-2.6,0.6-3.8l-30.2,3.8L51,66.2C50.7,65,50.4,63.7,50.4,62.4z"/>
		<path class="st4" d="M58.5,73.7l3.8,30.2l3.8-30.2c-1.2,0.4-2.5,0.6-3.8,0.6C61,74.3,59.8,74.1,58.5,73.7z"/>
		<path class="st4" d="M51.7,67.7L33,91.7L57,73C54.7,71.9,52.8,70,51.7,67.7z"/>
	</g>
</g>
</svg>
