<?xml version="1.0" encoding="utf-8"?>
<!-- Generator: Adobe Illustrator 26.3.1, SVG Export Plug-In . SVG Version: 6.00 Build 0)  -->
<svg version="1.1" id="cityAny" xmlns="http://www.w3.org/2000/svg" xmlns:xlink="http://www.w3.org/1999/xlink" x="0px" y="0px"
	 viewBox="0 0 124.7 124.7" style="enable-background:new 0 0 124.7 124.7;" xml:space="preserve">
<style type="text/css">
	.st0{opacity:0.4;fill:url(#SVGID_1_);enable-background:new    ;}
	.st1{fill:url(#SVGID_00000005262162509489367170000018359203925067709340_);}
	.st2{fill:url(#SVGID_00000111896635090856846100000015993843313876843679_);}
	.st3{fill:url(#SVGID_00000035492576586822121410000001938067378457289363_);}
	.st4{opacity:0.29;enable-background:new    ;}
	.st5{fill:none;stroke:#020203;stroke-width:0.8126;stroke-miterlimit:10;}
	.st6{fill:#020203;}
</style>
<g id="cityAny_00000103969054497465512480000016697341131110432391_">
	
		<linearGradient id="SVGID_1_" gradientUnits="userSpaceOnUse" x1="62.35" y1="1.6323" x2="62.35" y2="125.0323" gradientTransform="matrix(1 0 0 -1 0 125.7323)">
		<stop  offset="0" style="stop-color:#FFDC04"/>
		<stop  offset="1.631588e-03" style="stop-color:#FFDB04"/>
		<stop  offset="5.195889e-02" style="stop-color:#F8B90C"/>
		<stop  offset="0.104" style="stop-color:#F29810"/>
		<stop  offset="0.1586" style="stop-color:#EE7912"/>
		<stop  offset="0.2153" style="stop-color:#EA5E13"/>
		<stop  offset="0.2748" style="stop-color:#E74713"/>
		<stop  offset="0.3384" style="stop-color:#E53513"/>
		<stop  offset="0.4089" style="stop-color:#E52A13"/>
		<stop  offset="0.5" style="stop-color:#E42613"/>
		<stop  offset="0.5911" style="stop-color:#E52A13"/>
		<stop  offset="0.6616" style="stop-color:#E53513"/>
		<stop  offset="0.7252" style="stop-color:#E74713"/>
		<stop  offset="0.7847" style="stop-color:#EA5E13"/>
		<stop  offset="0.8414" style="stop-color:#EE7912"/>
		<stop  offset="0.896" style="stop-color:#F29810"/>
		<stop  offset="0.948" style="stop-color:#F8B90C"/>
		<stop  offset="0.9984" style="stop-color:#FFDB04"/>
		<stop  offset="1" style="stop-color:#FFDC04"/>
	</linearGradient>
	<path class="st0" d="M62.4,124.1L8.9,93.2V31.5L62.4,0.7l53.4,30.8v61.7L62.4,124.1z"/>
	
		<linearGradient id="SVGID_00000110432514902139166460000013134782796895781296_" gradientUnits="userSpaceOnUse" x1="62.35" y1="2.8323" x2="62.35" y2="123.9323" gradientTransform="matrix(1 0 0 -1 0 125.7323)">
		<stop  offset="0" style="stop-color:#FFDC04"/>
		<stop  offset="1.631588e-03" style="stop-color:#FFDB04"/>
		<stop  offset="5.195889e-02" style="stop-color:#F8B90C"/>
		<stop  offset="0.104" style="stop-color:#F29810"/>
		<stop  offset="0.1586" style="stop-color:#EE7912"/>
		<stop  offset="0.2153" style="stop-color:#EA5E13"/>
		<stop  offset="0.2748" style="stop-color:#E74713"/>
		<stop  offset="0.3384" style="stop-color:#E53513"/>
		<stop  offset="0.4089" style="stop-color:#E52A13"/>
		<stop  offset="0.5" style="stop-color:#E42613"/>
		<stop  offset="0.5911" style="stop-color:#E52A13"/>
		<stop  offset="0.6616" style="stop-color:#E53513"/>
		<stop  offset="0.7252" style="stop-color:#E74713"/>
		<stop  offset="0.7847" style="stop-color:#EA5E13"/>
		<stop  offset="0.8414" style="stop-color:#EE7912"/>
		<stop  offset="0.896" style="stop-color:#F29810"/>
		<stop  offset="0.948" style="stop-color:#F8B90C"/>
		<stop  offset="0.9984" style="stop-color:#FFDB04"/>
		<stop  offset="1" style="stop-color:#FFDC04"/>
	</linearGradient>
	<path style="fill:url(#SVGID_00000110432514902139166460000013134782796895781296_);" d="M62.4,122.9L9.9,92.6V32.1L62.4,1.8
		l52.4,30.3v60.5L62.4,122.9z"/>
	<polygon points="112,91 112,33.7 62.4,5.1 12.7,33.7 12.7,91 62.4,119.7 	"/>
	
		<linearGradient id="SVGID_00000006693002529864139620000017013965503871203717_" gradientUnits="userSpaceOnUse" x1="62.35" y1="7.8323" x2="62.35" y2="118.9323" gradientTransform="matrix(1 0 0 -1 0 125.7323)">
		<stop  offset="0" style="stop-color:#000000"/>
		<stop  offset="1" style="stop-color:#FFFFFF"/>
	</linearGradient>
	<polygon style="fill:url(#SVGID_00000006693002529864139620000017013965503871203717_);" points="110.4,90.1 110.4,34.6 62.4,6.8 
		14.3,34.6 14.3,90.1 62.4,117.9 	"/>
	
		<radialGradient id="SVGID_00000151533588541909985260000000349155375549154210_" cx="62.4" cy="63.3823" r="48.4997" gradientTransform="matrix(1 0 0 -1 0 125.7323)" gradientUnits="userSpaceOnUse">
		<stop  offset="0" style="stop-color:#C7C6C6"/>
		<stop  offset="1" style="stop-color:#716F6F"/>
	</radialGradient>
	<polygon style="fill:url(#SVGID_00000151533588541909985260000000349155375549154210_);" points="107.3,88.3 107.3,36.4 62.4,10.5 
		17.5,36.4 17.5,88.3 62.4,114.2 	"/>
	<path class="st4" d="M111.7,89.4V53.6l0,0c-49.3,7.3-49.3,7.3-98.7,0l0,0v35.8l49.3,28.5L111.7,89.4z"/>
	<g id="city-logo">
		<path class="st5" d="M28,68.7c0-18.4,15.4-33.2,34.3-33.2"/>
		<path class="st5" d="M96.5,68.7c0-18.4-15.5-33.2-34.6-33.2"/>
		<rect x="27.4" y="66.5" class="st6" width="69.7" height="4.4"/>
		<rect x="31" y="62.4" class="st6" width="2.1" height="4.1"/>
		<rect x="32.1" y="59.2" class="st6" width="1" height="3.3"/>
		<rect x="35.3" y="62" class="st6" width="3.8" height="4.6"/>
		<rect x="35.3" y="56.7" class="st6" width="1.9" height="5.3"/>
		<rect x="40.3" y="60.8" class="st6" width="1.6" height="5.7"/>
		<rect x="41.9" y="49.4" class="st6" width="1.8" height="17.1"/>
		<rect x="42.8" y="47.6" class="st6" width="0.9" height="1.8"/>
		<rect x="43.7" y="62.4" class="st6" width="3" height="4.1"/>
		<rect x="46.1" y="60.4" class="st6" width="0.6" height="2.1"/>
		<rect x="46.7" y="45.3" class="st6" width="2.4" height="21.3"/>
		<rect x="49.1" y="49.1" class="st6" width="1.2" height="17.4"/>
		<rect x="50.4" y="55.3" class="st6" width="2.5" height="11.2"/>
		<rect x="52.9" y="57.6" class="st6" width="1.6" height="9"/>
		<rect x="55.9" y="52.1" class="st6" width="3.3" height="14.4"/>
		<rect x="59.3" y="57.8" class="st6" width="1.7" height="8.7"/>
		<rect x="61" y="41.7" class="st6" width="4.1" height="24.8"/>
		<rect x="67" y="47.2" class="st6" width="2.1" height="19.3"/>
		<rect x="71.3" y="51.2" class="st6" width="2.3" height="15.3"/>
		<rect x="69" y="61.4" class="st6" width="2.3" height="5.1"/>
		<rect x="73.6" y="63.7" class="st6" width="1.7" height="2.9"/>
		<rect x="77.2" y="62.2" class="st6" width="1.5" height="4.3"/>
		<rect x="78.7" y="55.3" class="st6" width="2.6" height="11.2"/>
		<rect x="81.2" y="50.1" class="st6" width="1.9" height="16.4"/>
		<rect x="83.1" y="61.6" class="st6" width="1.6" height="4.9"/>
		<rect x="85.6" y="58.6" class="st6" width="2" height="7.9"/>
		<rect x="87.6" y="57.8" class="st6" width="2.2" height="8.7"/>
		<rect x="91.3" y="62.6" class="st6" width="1" height="4"/>
		<rect x="92.3" y="64.6" class="st6" width="1.9" height="2"/>
	</g>
</g>
</svg>
