<?xml version="1.0" encoding="UTF-8"?><svg id="Layer" xmlns="http://www.w3.org/2000/svg" xmlns:xlink="http://www.w3.org/1999/xlink" viewBox="0 0 721 379.91"><defs><style>.cls-1{fill:url(#linear-gradient-2);}.cls-2{fill:url(#linear-gradient-6);}.cls-3{fill:#1f1f1e;}.cls-4{opacity:0;stroke:#1d1d1b;}.cls-4,.cls-5{fill:#fff;stroke-miterlimit:10;}.cls-6{fill:url(#Nowy_wzorek_3);opacity:.1;}.cls-6,.cls-7,.cls-8,.cls-9,.cls-10{isolation:isolate;}.cls-11{fill:url(#linear-gradient-10);}.cls-7{opacity:.15;}.cls-7,.cls-9,.cls-12{fill:#030304;}.cls-13{fill:#ffd113;}.cls-8{fill:url(#linear-gradient-5);}.cls-8,.cls-10{opacity:.4;}.cls-14{fill:#e62b23;}.cls-15{fill:none;}.cls-16{fill:url(#linear-gradient-7);}.cls-9{opacity:.05;}.cls-17{fill:url(#linear-gradient-9);}.cls-18{fill:#7f358b;}.cls-19{fill:url(#linear-gradient-3);}.cls-10{fill:url(#linear-gradient-8);}.cls-5{stroke:#030304;stroke-width:.92px;}.cls-20{fill:url(#linear-gradient);}.cls-21{fill:url(#linear-gradient-4);}.cls-22{fill:#010101;}</style><linearGradient id="linear-gradient" x1="528.42" y1="6.76" x2="192.58" y2="342.6" gradientTransform="translate(0 364.63) scale(1 -1)" gradientUnits="userSpaceOnUse"><stop offset="0" stop-color="#9e9d9c"/><stop offset=".54" stop-color="#010202"/><stop offset="1" stop-color="#9e9d9c"/></linearGradient><linearGradient id="linear-gradient-2" x1="360.57" y1="26.11" x2="360.57" y2="323.22" gradientTransform="translate(0 364.63) scale(1 -1)" gradientUnits="userSpaceOnUse"><stop offset="0" stop-color="#462c1b"/><stop offset="1" stop-color="#b18048"/></linearGradient><linearGradient id="linear-gradient-3" x1="360.51" y1="30.24" x2="360.51" y2="319.24" gradientTransform="translate(0 364.63) scale(1 -1)" gradientUnits="userSpaceOnUse"><stop offset="0" stop-color="#946137"/><stop offset="1" stop-color="#805127"/></linearGradient><pattern id="Nowy_wzorek_3" x="0" y="0" width="19.7" height="21.7" patternTransform="translate(43.9 -32159.12) scale(1 -1)" patternUnits="userSpaceOnUse" viewBox="0 0 19.7 21.7"><g><rect class="cls-15" width="19.7" height="21.7"/><g><rect class="cls-15" width="19.7" height="21.7"/><g><rect class="cls-15" width="19.7" height="21.7"/><g><rect class="cls-15" width="19.7" height="21.7"/><g><rect class="cls-15" width="19.7" height="21.7"/><g><rect class="cls-15" width="19.7" height="21.7"/><path class="cls-3" d="M16.6,13c2.1-2.1,2.1-5.6,0-7.7l-1.2-1.2c-2.1-2.1-5.6-2.1-7.8,0L3.1,8.7c-2.1,2.1-2.1,5.6,0,7.7l1.2,1.2c2.1,2.1,5.6,2.1,7.7,0l4.6-4.6Z"/></g></g></g></g></g></g></pattern><linearGradient id="linear-gradient-4" x1="-563.04" y1="-763.7" x2="-486.85" y2="-687.51" gradientTransform="translate(245.35 -627.96) rotate(-45) scale(1 -1)" gradientUnits="userSpaceOnUse"><stop offset="0" stop-color="#1d1427"/><stop offset=".24" stop-color="#372348"/><stop offset=".49" stop-color="#573b6c"/><stop offset=".71" stop-color="#72508c"/><stop offset=".89" stop-color="#835ca0"/><stop offset="1" stop-color="#8963a7"/></linearGradient><linearGradient id="linear-gradient-5" x1="318.18" y1="188.96" x2="318.18" y2="326.77" gradientTransform="translate(0 381.17) scale(1 -1)" gradientUnits="userSpaceOnUse"><stop offset="0" stop-color="#ffdc15"/><stop offset="0" stop-color="#ffdb16"/><stop offset=".05" stop-color="#f9bb24"/><stop offset=".1" stop-color="#f59d1e"/><stop offset=".16" stop-color="#ef7c1e"/><stop offset=".22" stop-color="#e86312"/><stop offset=".27" stop-color="#e94c21"/><stop offset=".34" stop-color="#e63b23"/><stop offset=".41" stop-color="#e63624"/><stop offset=".5" stop-color="#e63324"/><stop offset=".59" stop-color="#e63624"/><stop offset=".66" stop-color="#e63b23"/><stop offset=".73" stop-color="#e94c21"/><stop offset=".78" stop-color="#e86312"/><stop offset=".84" stop-color="#ef7c1e"/><stop offset=".9" stop-color="#f59d1e"/><stop offset=".95" stop-color="#f9bb24"/><stop offset="1" stop-color="#ffdb16"/><stop offset="1" stop-color="#ffdc15"/></linearGradient><linearGradient id="linear-gradient-6" x1="318.21" y1="194.03" x2="318.21" y2="321.7" xlink:href="#linear-gradient-5"/><linearGradient id="linear-gradient-7" x1="-517.97" y1="1237.47" x2="-441.78" y2="1161.23" gradientTransform="translate(-190.8 -1064.09) rotate(-45)" gradientUnits="userSpaceOnUse"><stop offset="0" stop-color="#951919"/><stop offset=".21" stop-color="#b9251d"/><stop offset=".47" stop-color="#e62b23"/><stop offset=".55" stop-color="#e62f2a"/><stop offset=".84" stop-color="#e73a3b"/><stop offset="1" stop-color="#e83e41"/></linearGradient><linearGradient id="linear-gradient-8" x1="456.77" x2="456.77" xlink:href="#linear-gradient-5"/><linearGradient id="linear-gradient-9" x1="456.79" y1="194.03" x2="456.79" y2="321.7" xlink:href="#linear-gradient-5"/><linearGradient id="linear-gradient-10" x1="-419.98" y1="1335.45" x2="-343.79" y2="1259.24" xlink:href="#linear-gradient-7"/></defs><rect class="cls-4" x=".5" y=".5" width="720" height="378.91"/><g><g id="prodBg"><rect id="external-border" class="cls-20" x="177.75" y="36.85" width="365.49" height="306.2"/><rect id="internal-border" class="cls-1" x="182.31" y="41.41" width="356.53" height="297.12"/><rect id="bg" class="cls-19" x="186.29" y="45.39" width="348.44" height="289"/><rect id="bgPattern" class="cls-6" x="186.29" y="45.39" width="348.44" height="289"/></g><path class="cls-22" d="M276.99,286.73v-23.93h-23.93v-9.82h23.93v-23.93h9.82v23.93h23.93v9.82h-23.93v23.93h-9.82Z"/><g id="energy"><rect class="cls-12" x="330.07" y="199.15" width="114.33" height="114.33"/><rect class="cls-21" x="333.36" y="202.44" width="107.75" height="107.75"/><polygon class="cls-18" points="435.89 207.66 435.89 304.97 338.61 304.97 338.61 207.66 435.89 207.66"/><polygon class="cls-5" points="375.39 245.18 407.46 225.28 390.31 250.13 399.39 264.9 367.86 284.8 383.73 260.03 375.39 245.18"/><path id="darker" class="cls-7" d="M441.11,310.19h-107.75v-59.05s33.93,5.22,53.83,5.22,53.92-5.22,53.92-5.22v59.05Z"/></g><path class="cls-22" d="M207.52,129.98v-13.41h32.2v13.41h-32.2Z"/><g id="heat"><rect class="cls-8" x="249.27" y="54.4" width="137.82" height="137.82"/><rect class="cls-2" x="254.37" y="59.47" width="127.67" height="127.67"/><rect class="cls-12" x="260.78" y="66.13" width="114.33" height="114.33"/><rect class="cls-16" x="264.07" y="69.42" width="107.75" height="107.75"/><rect class="cls-14" x="269.32" y="74.64" width="97.28" height="97.28"/><path id="darker-2" class="cls-9" d="M371.82,177.17h-107.75v-59.05s33.93,5.22,53.83,5.22,53.92-5.22,53.92-5.22v59.05Z"/><g><polygon class="cls-13" points="305.8 128.3 293.52 117.65 293.52 117.65 293.52 85.21 281.22 118.3 293.62 128.77 293.62 128.77 293.52 161.41 305.8 128.3"/><polygon class="cls-13" points="330.3 128.3 318 117.65 317.9 117.65 318 85.21 305.72 118.3 318 128.77 318 128.77 318 161.41 330.3 128.3"/><polygon class="cls-13" points="355.41 128.3 343.12 117.65 343.04 117.65 343.12 85.21 330.84 118.3 343.12 128.77 343.12 128.77 343.12 161.41 355.41 128.3"/></g></g><g id="heat-2"><rect class="cls-10" x="387.86" y="54.4" width="137.82" height="137.82"/><rect class="cls-17" x="392.96" y="59.47" width="127.67" height="127.67"/><rect class="cls-12" x="399.37" y="66.13" width="114.33" height="114.33"/><rect class="cls-11" x="402.66" y="69.42" width="107.75" height="107.75"/><rect class="cls-14" x="407.9" y="74.64" width="97.28" height="97.28"/><path id="darker-3" class="cls-9" d="M510.41,177.17h-107.75v-59.05s33.93,5.22,53.83,5.22,53.92-5.22,53.92-5.22v59.05h0Z"/><g><polygon class="cls-13" points="444.38 128.3 432.11 117.65 432.11 117.65 432.11 85.21 419.81 118.3 432.21 128.77 432.21 128.77 432.11 161.41 444.38 128.3"/><polygon class="cls-13" points="468.88 128.3 456.58 117.65 456.48 117.65 456.58 85.21 444.31 118.3 456.58 128.77 456.58 128.77 456.58 161.41 468.88 128.3"/><polygon class="cls-13" points="494 128.3 481.7 117.65 481.63 117.65 481.7 85.21 469.43 118.3 481.7 128.77 481.7 128.77 481.7 161.41 494 128.3"/></g></g></g></svg>