<?xml version="1.0" encoding="UTF-8"?><svg id="Layer" xmlns="http://www.w3.org/2000/svg" xmlns:xlink="http://www.w3.org/1999/xlink" viewBox="0 0 720 378.91"><defs><style>.cls-1{fill:url(#linear-gradient-2);}.cls-2{fill:rgba(255,255,255,0);}.cls-3,.cls-4{fill:#020203;}.cls-5{fill:#40ab34;}.cls-6{fill:#1f1f1e;}.cls-7{fill:url(#Nowy_wzorek_4);opacity:.1;}.cls-7,.cls-4{isolation:isolate;}.cls-8{fill:none;}.cls-9{fill:url(#linear-gradient-3);}.cls-10{fill:url(#linear-gradient);}.cls-11{fill:#04552a;stroke:#1a441f;stroke-miterlimit:10;stroke-width:3.73px;}.cls-4{opacity:.05;}.cls-12{fill:url(#linear-gradient-4);}</style><linearGradient id="linear-gradient" x1="445.96" y1="-153.45" x2="272.04" y2="20.48" gradientTransform="translate(0 125.27) scale(1 -1)" gradientUnits="userSpaceOnUse"><stop offset="0" stop-color="#9e9d9c"/><stop offset=".54" stop-color="#010202"/><stop offset="1" stop-color="#9e9d9c"/></linearGradient><linearGradient id="linear-gradient-2" x1="359.08" y1="-148.35" x2="359.08" y2="15.38" gradientTransform="translate(0 125.27) scale(1 -1)" gradientUnits="userSpaceOnUse"><stop offset="0" stop-color="#462c1b"/><stop offset="1" stop-color="#b18048"/></linearGradient><linearGradient id="linear-gradient-3" x1="359.01" y1="-144.21" x2="359.01" y2="11.38" gradientTransform="translate(0 125.27) scale(1 -1)" gradientUnits="userSpaceOnUse"><stop offset="0" stop-color="#946137"/><stop offset="1" stop-color="#805127"/></linearGradient><pattern id="Nowy_wzorek_4" x="0" y="0" width="19.7" height="21.7" patternTransform="translate(42.4 -32655.16) scale(1 -1)" patternUnits="userSpaceOnUse" viewBox="0 0 19.7 21.7"><g><rect class="cls-8" width="19.7" height="21.7"/><g><rect class="cls-8" width="19.7" height="21.7"/><g><rect class="cls-8" width="19.7" height="21.7"/><g><rect class="cls-8" width="19.7" height="21.7"/><g><rect class="cls-8" width="19.7" height="21.7"/><g><rect class="cls-8" width="19.7" height="21.7"/><path class="cls-6" d="M16.6,13c2.1-2.1,2.1-5.6,0-7.7l-1.2-1.2c-2.1-2.1-5.6-2.1-7.8,0L3.1,8.7c-2.1,2.1-2.1,5.6,0,7.7l1.2,1.2c2.1,2.1,5.6,2.1,7.7,0l4.6-4.6Z"/></g></g></g></g></g></g></pattern><linearGradient id="linear-gradient-4" x1="-539.1" y1="1317.41" x2="-461.66" y2="1239.97" gradientTransform="translate(-190.12 -1065.2) rotate(-45)" gradientUnits="userSpaceOnUse"><stop offset="0" stop-color="#056734"/><stop offset=".04" stop-color="#056a35"/><stop offset=".08" stop-color="#047537"/><stop offset=".13" stop-color="#018638"/><stop offset=".15" stop-color="#008e39"/><stop offset=".35" stop-color="#31983d"/><stop offset=".76" stop-color="#5dae46"/><stop offset="1" stop-color="#6cb649"/></linearGradient></defs><rect class="cls-2" width="720" height="378.91"/><g id="prodBg"><rect id="external-border" class="cls-10" x="271.49" y="105.33" width="175.02" height="172.84"/><rect id="internal-border" class="cls-1" x="276.06" y="109.89" width="166.04" height="163.73"/><rect id="bg" class="cls-9" x="280.05" y="113.89" width="157.92" height="155.59"/><rect id="bgPattern" class="cls-7" x="280.05" y="113.89" width="157.92" height="155.59"/></g><g id="plant"><rect class="cls-3" x="302.11" y="134.66" width="116.22" height="116.22"/><rect class="cls-12" x="305.46" y="138.02" width="109.51" height="109.51"/><rect class="cls-5" x="310.78" y="143.33" width="98.89" height="98.89"/><path id="leaf" class="cls-11" d="M360.17,167.75c-14.17,1.96-24.98,11.18-24.98,24.98,0,3.36,.65,6.62,1.86,9.6-2.61,1.77-6.43,4.1-8.29,4.75-3.26,1.12-9.79,.37-10.07,.93s1.86,6.43,2.61,6.71,6.71,.28,10.07-.93c2.42-.84,6.8-3.63,9.32-5.5,4.57,5.78,11.65,9.41,19.57,9.41,13.79,0,24.79-8.67,24.79-22.46,0-5.31,1.3-12.02,3.26-16.22,2.14-4.66,13.23-7.64,13.23-7.64-1.12-3.63-35.79-4.38-41.38-3.63Z"/><path id="darker" class="cls-4" d="M414.98,247.53h-109.51v-60.02s34.48,5.31,54.71,5.31,54.8-5.31,54.8-5.31v60.02Z"/></g></svg>