<?xml version="1.0" encoding="UTF-8"?><svg id="Layer" xmlns="http://www.w3.org/2000/svg" xmlns:xlink="http://www.w3.org/1999/xlink" viewBox="0 0 721 379.91"><defs><style>.cls-1{fill:url(#linear-gradient-2);}.cls-2{fill:#342218;}.cls-3,.cls-4{fill:#030404;}.cls-5,.cls-6{fill:#020303;}.cls-7{fill:url(#linear-gradient-6);}.cls-8{fill:#946137;}.cls-4{opacity:.15;}.cls-4,.cls-9{isolation:isolate;}.cls-10{fill:#fff;opacity:0;stroke:#1d1d1b;}.cls-10,.cls-6,.cls-11{stroke-miterlimit:10;}.cls-12{fill:#415fa9;}.cls-13{fill:#1d2d4c;}.cls-14{fill:url(#radial-gradient);}.cls-15{fill:#84a3d5;}.cls-16{fill:#ce141e;}.cls-9{fill:#e03e17;opacity:.5;}.cls-17{fill:url(#linear-gradient-5);}.cls-18{fill:#7ca5d8;}.cls-19{fill:url(#linear-gradient-7);}.cls-20{fill:#11478d;}.cls-21{fill:#93c6ec;}.cls-6{stroke:#030404;}.cls-6,.cls-11{stroke-width:1.89px;}.cls-11{fill:none;stroke:#020303;}.cls-22{fill:url(#linear-gradient-3);}.cls-23{fill:url(#linear-gradient);}.cls-24{fill:url(#linear-gradient-4);}.cls-25{fill:#1d1d1b;}</style><linearGradient id="linear-gradient" x1="619.51" y1="540.43" x2="619.51" y2="391.79" gradientTransform="translate(0 -276.15)" gradientUnits="userSpaceOnUse"><stop offset="0" stop-color="#c3dcf4"/><stop offset="1" stop-color="#2a5488"/></linearGradient><radialGradient id="radial-gradient" cx="619.4" cy="475.43" fx="619.4" fy="475.43" r="64.45" gradientTransform="translate(0 -276.15)" gradientUnits="userSpaceOnUse"><stop offset="0" stop-color="#fff" stop-opacity=".7"/><stop offset=".13" stop-color="#fafcfe" stop-opacity=".68"/><stop offset=".28" stop-color="#e4e9f7" stop-opacity=".62"/><stop offset=".44" stop-color="#c4ceea" stop-opacity=".53"/><stop offset=".62" stop-color="#93a7d6" stop-opacity=".4"/><stop offset=".79" stop-color="#5673b7" stop-opacity=".23"/><stop offset=".98" stop-color="#30519e" stop-opacity=".03"/><stop offset="1" stop-color="#2e4d9b" stop-opacity="0"/></radialGradient><linearGradient id="linear-gradient-2" x1="458.05" y1="167.25" x2="458.05" y2="210.61" gradientTransform="translate(0 380.63) scale(1 -1)" gradientUnits="userSpaceOnUse"><stop offset="0" stop-color="#532a15"/><stop offset=".45" stop-color="#532a15" stop-opacity=".7"/><stop offset=".58" stop-color="#e03e17" stop-opacity=".5"/><stop offset="1" stop-color="#e03e17" stop-opacity=".5"/></linearGradient><linearGradient id="linear-gradient-3" x1="-716.2" y1="-908.1" x2="-638" y2="-829.9" gradientTransform="translate(139.85 -901.6) rotate(-45) scale(1 -1)" gradientUnits="userSpaceOnUse"><stop offset="0" stop-color="#472d1c"/><stop offset=".05" stop-color="#58361a"/><stop offset=".1" stop-color="#684016"/><stop offset=".32" stop-color="#784a20"/><stop offset=".75" stop-color="#8e5c33"/><stop offset="1" stop-color="#946137"/></linearGradient><linearGradient id="linear-gradient-4" x1="92.6" y1="518" x2="92.6" y2="409.6" gradientTransform="translate(0 -272.15)" gradientUnits="userSpaceOnUse"><stop offset=".16" stop-color="#823b14"/><stop offset=".18" stop-color="#995d1a"/><stop offset=".22" stop-color="#ae7d22"/><stop offset=".26" stop-color="#c39d25"/><stop offset=".3" stop-color="#d6b92e"/><stop offset=".35" stop-color="#e4cf36"/><stop offset=".41" stop-color="#efe036"/><stop offset=".48" stop-color="#f5e94d"/><stop offset=".58" stop-color="#f8eb53"/><stop offset=".86" stop-color="#f5ea52"/><stop offset="1" stop-color="#fcf4f9"/></linearGradient><linearGradient id="linear-gradient-5" x1="92.6" y1="403.88" x2="92.6" y2="569.54" gradientTransform="translate(0 -272.15)" gradientUnits="userSpaceOnUse"><stop offset=".26" stop-color="#f5ea52"/><stop offset=".86" stop-color="#813a14"/></linearGradient><linearGradient id="linear-gradient-6" x1="92.71" y1="516.47" x2="92.71" y2="411.2" gradientTransform="translate(0 -272.15)" gradientUnits="userSpaceOnUse"><stop offset=".16" stop-color="#813a14"/><stop offset=".17" stop-color="#8d481f"/><stop offset=".18" stop-color="#a36c3d"/><stop offset=".2" stop-color="#b78954"/><stop offset=".22" stop-color="#c7a468"/><stop offset=".24" stop-color="#d7bb7a"/><stop offset=".26" stop-color="#e2cc88"/><stop offset=".3" stop-color="#ead891"/><stop offset=".34" stop-color="#eede97"/><stop offset=".46" stop-color="#efe097"/><stop offset=".7" stop-color="#813a14"/><stop offset=".73" stop-color="#e6d234"/><stop offset=".74" stop-color="#ebda49"/><stop offset=".75" stop-color="#eede6d"/><stop offset=".77" stop-color="#f0e18a"/><stop offset=".79" stop-color="#f8ebab"/><stop offset=".8" stop-color="#f8edbf"/><stop offset=".83" stop-color="#faf0cf"/><stop offset=".85" stop-color="#fcf2da"/><stop offset=".89" stop-color="#fdf4e1"/><stop offset=".99" stop-color="#fdf5e3"/></linearGradient><linearGradient id="linear-gradient-7" x1="92.38" y1="426.7" x2="92.38" y2="589.18" gradientTransform="translate(0 -272.15)" gradientUnits="userSpaceOnUse"><stop offset=".26" stop-color="#f5ea52"/><stop offset=".77" stop-color="#813a14"/></linearGradient></defs><rect class="cls-10" x=".5" y=".5" width="720" height="378.91"/><g><g id="ocean"><polygon class="cls-5" points="685.92 228.4 685.92 151.51 619.51 113.12 552.88 151.51 552.88 228.4 619.51 266.78 685.92 228.4"/><polygon class="cls-23" points="683.96 227.2 683.96 152.82 619.51 115.63 555.06 152.82 555.06 227.2 619.51 264.28 683.96 227.2"/><polygon class="cls-15" points="679.6 224.69 679.6 155.22 619.51 120.43 559.31 155.22 559.31 224.69 619.51 259.48 679.6 224.69"/><path class="cls-20" d="M679.6,199.17c-2.73-2.51-7.96-3.6-16.9-4.69-8.72-1.2-13.09-1.64-15.27-1.64-13.85-.11-14.72,3.71-26.17,3.82-3.05,0-11.23-1.64-28.03-5.13-9.6-1.96-12.54-2.73-17.45-2.29-6.76,.55-12.43,2.84-16.58,5.23v30.32l60.31,34.79,60.09-34.79v-25.63h0Z"/><path class="cls-13" d="M619.62,240.72h0c27.05-.55,40.24-27.81,27.7-57.69-.98-2.51-2.4-5.23-4.04-8.07-23.88-43.62-23.88-43.4-23.88-43.4,0,0,0-.22-23.88,43.4-1.53,2.84-2.84,5.56-4.04,8.07-12.54,29.88,.65,57.25,27.7,57.69h0"/><path class="cls-21" d="M619.62,239.08h0c25.63-.55,38.06-26.28,26.28-54.64-.98-2.4-2.29-5.02-3.71-7.74-22.57-41.33-22.57-41.11-22.57-41.11,0,0,0-.22-22.57,41.11-1.42,2.73-2.73,5.13-3.71,7.74-12.11,28.25,.33,54.2,26.28,54.64h0"/><path class="cls-18" d="M619.51,236.14h0c23.67-.33,35.01-24.1,24.1-50.06-.87-2.29-2.18-4.58-3.49-7.09-20.61-37.95-20.61-37.73-20.61-37.73,0,0,0-.22-20.83,37.73-1.31,2.4-2.4,4.69-3.49,7.09-10.69,25.85,.76,49.51,24.32,50.06h0"/><path class="cls-12" d="M646.12,192.73c-12.54,.11-13.74,3.71-24.86,3.82-3.05,0-11.23-1.64-27.81-5.02-7.2,23.77,4.25,44.17,26.17,44.5h.11c21.38-.33,32.72-20.07,26.39-43.3h0Z"/><circle class="cls-14" cx="619.4" cy="199.28" r="64.45"/></g><g id="arrow"><path class="cls-9" d="M518.52,191.64l-57.58-26.61,6.98,13.85h-65s-1.96,6.22-1.96,12.21,1.96,10.91,1.96,10.91h66.2l-8.18,16.25,57.58-26.61h0Z"/><path class="cls-1" d="M472.94,199.71h-68.38c-.55-1.74-1.31-5.02-1.31-8.51,0-3.82,.87-7.74,1.42-9.92h66.96l-5.67-11.23,46.89,21.7-46.89,21.7,6.98-13.74h0Z"/><path class="cls-16" d="M477.95,196.55h-71c-.33-1.53-.55-3.38-.55-5.45,0-2.4,.44-4.8,.76-6.76h69.58l-3.93-7.74,32.72,15.16-32.72,15.16,5.13-10.36h0Z"/><path class="cls-11" d="M472.94,199.71h-68.38c-.55-1.74-1.31-5.02-1.31-8.51,0-3.82,.87-7.74,1.42-9.92h66.96l-5.67-11.23,46.89,21.7-46.89,21.7,6.98-13.74h0Z"/></g><path d="M346.32,233.19v-8.07c2.62-2.84,4.58-5.78,5.89-8.83,1.31-3.05,2.4-6.65,3.16-10.69,.76-4.04,1.09-8.18,1.09-12.43s-.33-8.62-1.09-12.54c-.76-3.93-1.74-7.42-3.16-10.58-1.42-3.16-3.38-6.22-6-9.05v-8.07c4.91,2.62,8.94,6.11,12.32,10.36s5.89,9.05,7.74,14.29c1.85,5.23,2.73,10.36,2.73,15.6s-.87,10.25-2.62,15.27-4.25,9.82-7.42,14.07c-3.16,4.14-7.31,7.74-12.65,10.69h0Z"/><g id="steel"><rect class="cls-3" x="216.87" y="132.97" width="117.45" height="117.45"/><rect class="cls-22" x="220.25" y="136.35" width="110.58" height="110.58"/><rect class="cls-8" x="225.6" y="141.7" width="99.9" height="99.9"/><g><path class="cls-2" d="M285.91,224.69l2.4-46.46-5.67-.65-.87-1.96h-4.36l-.76,2.07-6.54-.33v-12h7.63l.55,2.4,3.6,.44,.87-2.73h7.85l1.53,1.31,1.31-1.31h9.71l1.09,1.85,1.64-1.85,7.31,6-.44,4.14s-4.04-3.82-6-3.82-4.8-.11-4.8-.11l-4.04,6.54-2.4,.22,2.29,46.24h-11.89Z"/><polygon class="cls-2" points="263.99 163.4 256.13 159.04 256.02 169.83 248.83 169.83 248.83 159.04 239.77 163.18 239.77 176.38 248.17 180.41 245.23 224.69 258.75 224.69 256.13 180.41 263.99 176.81 263.99 163.4"/></g><path id="darker" class="cls-4" d="M330.84,247.04h-110.58v-60.64s34.9,5.34,55.29,5.34,55.4-5.34,55.4-5.34v60.64h-.11Z"/></g><path d="M205.42,152.82v8.07c-2.62,2.84-4.58,5.89-6,9.05-1.42,3.16-2.4,6.76-3.16,10.69-.65,3.93-1.09,8.07-1.09,12.32s.33,8.51,1.09,12.32c.65,3.93,1.74,7.42,3.16,10.69,1.42,3.16,3.38,6.22,6,9.05v8.07c-3.38-1.85-5.89-3.49-7.42-4.91s-2.94-2.94-4.36-4.69c-3.6-4.47-6.33-9.38-8.18-14.72s-2.84-10.69-2.84-15.81c0-6.65,1.53-13.3,4.47-19.85,2.07-4.69,4.8-8.83,7.96-12.43,1.2-1.42,2.51-2.62,3.82-3.71,1.42-1.09,3.6-2.51,6.54-4.14h0Z"/><g id="mln"><polygon id="obram_czarne" class="cls-6" points="52.52 134.17 35.08 151.62 35.08 231.78 52.52 249.23 132.68 249.23 150.02 231.78 150.02 151.62 132.68 134.17 52.52 134.17"/><polygon id="obram_zolte" class="cls-24" points="54.71 137.44 38.46 153.91 38.46 229.49 54.71 245.84 130.39 245.84 146.75 229.49 146.75 153.91 130.39 137.44 54.71 137.44"/><polygon id="tlo_wew" class="cls-17" points="55.91 139.08 39.98 155 39.98 228.4 55.91 244.32 129.3 244.32 145.22 228.4 145.22 155 129.3 139.08 55.91 139.08"/><path id="obram_skosne" class="cls-7" d="M137.59,212.04c-2.94,0-5.23-2.4-5.23-5.23v-30.1c0-2.94,2.4-5.23,5.23-5.23h7.52v-16.36l-15.81-15.92h-16.47v7.52c0,2.94-2.4,5.23-5.23,5.23h-29.99c-2.94,0-5.23-2.4-5.23-5.23v-7.52h-16.36l-15.92,15.92v16.47h7.52c2.94,0,5.23,2.4,5.23,5.23v29.99c0,2.94-2.4,5.23-5.23,5.23h-7.52v16.36l15.92,15.92h16.47v-7.52c0-2.94,2.4-5.23,5.23-5.23h29.99c2.94,0,5.23,2.4,5.23,5.23v7.52h16.47l15.92-15.92v-16.36h-7.74Z"/><path id="tlo_zew" class="cls-19" d="M137.26,213.78c-3.6,0-6.54-3.6-6.54-7.2v-29.77c0-3.6,2.94-7.2,6.54-7.2h6.11v-13.41l-15.49-15.38h-13.3v6.11c0,3.6-3.6,6.54-7.2,6.54h-29.88c-3.6,0-7.2-2.94-7.2-6.54v-6.11h-13.52l-15.38,15.38v13.41h6.11c3.6,0,6.54,3.6,6.54,7.2v29.88c0,3.6-2.94,7.2-6.54,7.2h-6.11v13.3l15.38,15.38h13.41v-6.11c0-3.6,3.6-6.54,7.2-6.54h29.99c3.6,0,7.2,2.94,7.2,6.54v6.11h13.41l15.38-15.38v-13.41h-6.11Z"/></g><path class="cls-25" d="M83.62,189.22c-4.95-3.26-7.42-7.18-7.42-11.78,0-2.4,.72-4.68,2.15-6.86,1.43-2.18,3.4-3.8,5.91-4.86s5.47-1.59,8.89-1.59c5.04,0,8.92,1.11,11.63,3.32s4.07,4.95,4.07,8.22c0,2.05-.6,4.12-1.79,6.18s-3.48,4.29-6.88,6.67c7.3,3.82,10.96,8.62,10.96,14.4,0,4.07-1.66,7.6-4.98,10.6-3.32,2.99-8.06,4.49-14.23,4.49s-10.84-1.39-13.94-4.18c-3.1-2.79-4.65-6.02-4.65-9.69,0-2.68,.85-5.35,2.55-8,1.7-2.65,4.27-4.96,7.71-6.92Zm5.06,3.43c-2.61,2.17-4.19,3.98-4.75,5.43-.55,1.45-.83,2.91-.83,4.39,0,2.98,1.03,5.27,3.1,6.85,2.07,1.58,4.33,2.38,6.78,2.38s4.45-.66,6.22-1.99c1.77-1.33,2.65-3.05,2.65-5.15,0-1.64-.51-3.09-1.54-4.34-1.03-1.25-3.31-2.87-6.85-4.86l-4.78-2.71Zm6.17-7.04c3.42-2.68,5.13-5.52,5.13-8.52,0-2.01-.72-3.6-2.17-4.78-1.44-1.18-3.29-1.77-5.53-1.77s-4,.54-5.29,1.63c-1.28,1.08-1.92,2.42-1.92,4.02,0,1.41,.54,2.74,1.61,4,1.08,1.26,3.8,3.06,8.16,5.42Z"/></g></svg>