<?xml version="1.0" encoding="utf-8"?>
<!-- Generator: Adobe Illustrator 26.5.0, SVG Export Plug-In . SVG Version: 6.00 Build 0)  -->
<svg version="1.1" id="Layer" xmlns="http://www.w3.org/2000/svg" xmlns:xlink="http://www.w3.org/1999/xlink" x="0px" y="0px"
	 viewBox="0 0 721 379.9" style="enable-background:new 0 0 721 379.9;" xml:space="preserve">
<style type="text/css">
	.st0{opacity:0;fill:#FFFFFF;fill-opacity:0;}
	.st1{fill:#030404;}
	.st2{fill:url(#SVGID_1_);}
	.st3{fill:#98C32C;}
	.st4{fill:#3F4B22;}
	.st5{opacity:0.12;fill:#030404;enable-background:new    ;}
	.st6{opacity:0.5;fill:#E03F19;enable-background:new    ;}
	.st7{fill:url(#SVGID_00000018927977609719821760000010912507820736252293_);}
	.st8{fill:#CF1820;}
	.st9{fill:none;stroke:#030304;stroke-width:1.4558;stroke-miterlimit:10;}
	
		.st10{fill:url(#SVGID_00000016038461463427191040000014510047032917415828_);stroke:#030404;stroke-width:2.3745;stroke-miterlimit:10;}
	.st11{fill:url(#SVGID_00000126315082285344609530000005925758463166468281_);}
	.st12{fill:none;stroke:#030404;stroke-width:3.5657;stroke-miterlimit:10;}
	.st13{fill:none;stroke:#030404;stroke-width:1.775;stroke-miterlimit:10;}
	.st14{fill:none;stroke:#030404;stroke-width:2.3745;stroke-linecap:square;stroke-miterlimit:10;}
	.st15{opacity:0.31;fill:url(#darker_00000018940158607623225340000004690806682023929768_);enable-background:new    ;}
	.st16{fill:url(#SVGID_00000113332458376747040730000005216248455395431582_);}
	.st17{fill:url(#SVGID_00000180344701225224453240000006337715830675042999_);}
	.st18{fill:url(#SVGID_00000142145892735618862860000011518449899957182894_);}
	.st19{fill:url(#SVGID_00000049920951778762609010000003043538074513166992_);}
	.st20{fill:url(#SVGID_00000129925492734542121740000007872656822102642329_);}
</style>
<rect x="0.5" y="0.5" class="st0" width="720" height="378.9"/>
<g>
	<g>
		<g id="microbe-4">
			<rect x="372.6" y="17.6" class="st1" width="90.5" height="90.5"/>
			
				<linearGradient id="SVGID_1_" gradientUnits="userSpaceOnUse" x1="-1462.4834" y1="3578.7888" x2="-1402.1923" y2="3518.4976" gradientTransform="matrix(0.7071 -0.7071 0.7071 0.7071 -1078.5907 -3459.2395)">
				<stop  offset="0" style="stop-color:#3F4B22"/>
				<stop  offset="0.14" style="stop-color:#4D5F26"/>
				<stop  offset="0.42" style="stop-color:#6B862B"/>
				<stop  offset="0.66" style="stop-color:#83A530"/>
				<stop  offset="0.86" style="stop-color:#8FB923"/>
				<stop  offset="1" style="stop-color:#98C32C"/>
			</linearGradient>
			<rect x="375.2" y="20.2" class="st2" width="85.3" height="85.3"/>
			<rect x="379.4" y="24.3" class="st3" width="77" height="77"/>
			<g id="microbes-3">
				<polygon class="st4" points="418.8,70.5 415.2,71.1 415.7,74.7 412.1,74.1 411.5,77.7 408.2,76 406.6,79.3 404,76.8 401.5,79.5 
					399.7,76.3 396.5,77.9 395.8,74.4 392.2,75.3 392.5,71.6 388.9,71.2 390.3,67.9 386.9,66.5 389.3,63.7 386.4,61.4 389.5,59.4 
					387.4,56.4 390.9,55.3 389.9,51.8 393.5,51.9 393.6,48.2 397.1,49.3 398.2,45.9 401.2,48 403.3,45 405.5,47.9 408.3,45.6 
					409.7,49 413,47.8 413.3,51.4 416.9,51.2 416,54.7 419.6,55.6 417.7,58.7 420.9,60.5 418.2,63.1 420.6,65.7 417.2,67.3 				"/>
				<polygon class="st4" points="450.1,56 448.9,56.4 448.9,58.1 447,57.5 445.9,58.6 444,57.4 442.1,57.9 436.8,58.6 434.5,58.4 
					432.2,54 429.6,53.2 427.5,50.9 425,49.7 423,47.3 420.6,46.2 419.2,43.5 417.1,41.8 416.3,39.7 414.9,38.1 414.7,36.5 
					413.4,35 414.5,33.9 414.5,32.3 415.6,32.4 416.6,31.2 418.2,31.9 420.7,29.6 422.5,31 424.7,31.2 426.9,32.7 429.4,33.4 
					430.8,37 433.6,38.1 435.5,40.4 438.1,41.8 439.7,44.1 442.1,45.8 446.2,48 448.2,49.8 448.5,51.4 449.8,53 449.4,54.4 				"/>
				<polygon class="st4" points="446.1,73.3 446.3,73.7 446.9,74.8 445.9,75.5 445.9,76.8 443.4,77.7 442.5,79.3 439.4,82.2 
					436,83.8 431.5,85.2 428.8,86.9 425.1,87.6 422.1,89.1 418.6,89.7 415.7,91.1 412.4,91.2 409.2,92.2 406.9,92.1 404.4,92.7 
					402.8,92.3 400.6,92.7 400.4,91.6 399.8,91.2 399.9,90.2 399.8,89.1 401.4,88.2 401.3,85.6 404,84.7 405.7,83.2 408.7,82.2 
					412.4,81.1 415.6,80.6 418.6,79 422,78.4 425.3,76.9 428.5,76.4 431.9,75.3 436.8,72.9 440,72.1 441.6,72.5 444,72.1 
					444.9,72.7 				"/>
			</g>
			<path id="darker-3" class="st5" d="M460.5,105.5h-85.3V58.8c0,0,26.9,4.1,42.6,4.1c15.7,0,42.7-4.1,42.7-4.1L460.5,105.5
				L460.5,105.5L460.5,105.5z"/>
		</g>
		<g id="arrow-2">
			<path class="st6" d="M349,62.9l-44.6-20.6l5.4,10.7h-50.3c0,0-1.5,4.8-1.5,9.5s1.5,8.4,1.5,8.4h51.3l-6.4,12.6L349,62.9L349,62.9
				L349,62.9z"/>
			
				<linearGradient id="SVGID_00000147180812067406598910000006684777124086939066_" gradientUnits="userSpaceOnUse" x1="302.2166" y1="1929.2445" x2="302.2166" y2="1895.6665" gradientTransform="matrix(1 0 0 1 0 -1849.6213)">
				<stop  offset="0" style="stop-color:#522B16"/>
				<stop  offset="0.45" style="stop-color:#522B16;stop-opacity:0.7"/>
				<stop  offset="0.58" style="stop-color:#E03F19;stop-opacity:0.5"/>
				<stop  offset="1" style="stop-color:#E03F19;stop-opacity:0.5"/>
			</linearGradient>
			<path style="fill:url(#SVGID_00000147180812067406598910000006684777124086939066_);" d="M313.7,69h-52.9c-0.4-1.3-1-3.9-1-6.6
				c0-2.9,0.7-6,1.1-7.7h51.9l-4.4-8.7l36.4,16.7l-36.4,16.8L313.7,69L313.7,69L313.7,69z"/>
			<path class="st8" d="M317.6,66.7h-55c-0.2-1.2-0.4-2.6-0.4-4.2c0-1.9,0.3-3.8,0.6-5.2h53.9l-3-6.1L339,62.8l-25.3,11.8
				L317.6,66.7L317.6,66.7L317.6,66.7z"/>
			<path class="st9" d="M313.7,69h-52.9c-0.4-1.3-1-3.9-1-6.6c0-2.9,0.7-6,1.1-7.7h51.9l-4.4-8.7l36.4,16.7l-36.4,16.8L313.7,69
				L313.7,69L313.7,69z"/>
		</g>
	</g>
	<g>
		<g id="tr">
			
				<linearGradient id="SVGID_00000071554973561495161560000010955233433734924472_" gradientUnits="userSpaceOnUse" x1="556.3011" y1="2102.946" x2="556.3011" y2="2000.3827" gradientTransform="matrix(1 0 0 1 0 -1866.6313)">
				<stop  offset="0" style="stop-color:#95191B"/>
				<stop  offset="0.21" style="stop-color:#B13C1E"/>
				<stop  offset="0.44" style="stop-color:#CB5E26"/>
				<stop  offset="0.66" style="stop-color:#E27A34"/>
				<stop  offset="0.85" style="stop-color:#EF8E3B"/>
				<stop  offset="1" style="stop-color:#F3943D"/>
			</linearGradient>
			
				<rect x="483.8" y="133.8" style="fill:url(#SVGID_00000071554973561495161560000010955233433734924472_);stroke:#030404;stroke-width:2.3745;stroke-miterlimit:10;" width="145.1" height="102.6"/>
			
				<radialGradient id="SVGID_00000164499504028742224240000001386130083044728463_" cx="556.3478" cy="2051.6099" r="58.4061" gradientTransform="matrix(1 0 0 1 0 -1866.6313)" gradientUnits="userSpaceOnUse">
				<stop  offset="0" style="stop-color:#F3943D;stop-opacity:0.5"/>
				<stop  offset="1" style="stop-color:#D34118"/>
			</radialGradient>
			
				<rect x="488.2" y="138.2" style="fill:url(#SVGID_00000164499504028742224240000001386130083044728463_);" width="136.2" height="93.5"/>
			<g id="logo">
				<g>
					<circle class="st12" cx="556.3" cy="181.7" r="26.4"/>
					<path class="st13" d="M556.3,155.3c0,0,13.7,5.6,13.7,26.4S556.3,208,556.3,208"/>
					<path class="st13" d="M556.3,155.3c0,0-13.7,5.6-13.7,26.4s13.7,26.4,13.7,26.4"/>
					<line class="st13" x1="556.3" y1="155.3" x2="556.3" y2="208"/>
					<line class="st13" x1="530" y1="181.7" x2="582.7" y2="181.7"/>
					<path class="st13" d="M535.8,165c0,0,7.7,3.9,20.5,3.9s20.5-3.9,20.5-3.9"/>
					<path class="st13" d="M535.8,198.7c0-0.1,7.7-3.9,20.5-3.9s20.5,3.9,20.5,3.9"/>
					<polygon class="st1" points="572.1,160 579.1,153.6 569.9,151.7 590.1,145.9 585.4,166.9 582.7,156.4 576,164.2 					"/>
					<polyline class="st14" points="556.3,214 546.9,214 550.9,214 550.9,223.5 					"/>
					<polyline class="st14" points="563.1,223.5 563.1,214 561.3,214 559,220.4 558.3,220.4 556.4,217.4 555,217.4 555,223.5 					
						"/>
					<path class="st1" d="M547.6,220c0,1.4-3.6,3.6-5,3.6s-10,0.6-10-0.8c0-1.4,8.6-4.4,10-4.4C544,218.5,547.6,218.6,547.6,220
						L547.6,220L547.6,220z"/>
					<path class="st1" d="M543.3,216.8c-0.8,0.7-4-0.5-4.8-1.3c-0.8-0.8-5.2-5.8-4.4-6.6c0.8-0.8,6.9,3.2,7.6,4.1
						S544.1,216.1,543.3,216.8L543.3,216.8L543.3,216.8z"/>
					<path class="st1" d="M537,218.5c-0.2,1.1-3.3,2.3-4.5,2c-1.1-0.2-10.1-0.9-9.9-2c0.2-1.1,9.6-2.3,10.7-2
						C534.5,216.7,537.2,217.4,537,218.5L537,218.5L537,218.5z"/>
					<path class="st1" d="M534.6,215.6c-1.1,0.3-3.7-1.7-4-2.7c-0.3-1-4.5-9.2-3.6-9.5s6.9,7,7.4,8.1
						C534.7,212.5,535.5,215.2,534.6,215.6L534.6,215.6L534.6,215.6z"/>
					<path class="st1" d="M528.1,215.1c-0.7,1.1-4.2,1.1-5.1,0.5s-9.4-4.6-8.7-5.7c0.7-1.1,10.2,1.2,11.2,1.9
						C526.4,212.4,528.8,214.1,528.1,215.1L528.1,215.1L528.1,215.1z"/>
					<path class="st1" d="M525.7,211.3c-1.2,0-2.8-2.7-2.8-3.8s-1-9.5,0.2-9.5c1.2,0,4,8.6,4,9.6C527,208.6,526.9,211.3,525.7,211.3
						L525.7,211.3z"/>
					<path class="st1" d="M519.4,204.2c-1.1-0.2-2.1-3.2-1.9-4.3c0.2-0.9,1.2-9.3,2.3-9c1.1,0.3,1.9,9,1.7,10
						C521.2,201.9,520.5,204.4,519.4,204.2L519.4,204.2z"/>
					<path class="st1" d="M520,208.7c-1,0.7-4.2-0.3-4.9-1.2c-0.7-0.9-7.4-7.3-6.4-8s9,4.4,9.8,5.2C519.1,205.6,520.8,208,520,208.7
						L520,208.7L520,208.7z"/>
					<path class="st1" d="M514.5,199.9c-1,0.5-3.8-1.1-4.3-2c-0.5-0.9-5.6-8.1-4.5-8.7c1-0.5,7.6,5.8,8.1,6.8
						C514.3,196.9,515.5,199.2,514.5,199.9L514.5,199.9L514.5,199.9z"/>
					<path class="st1" d="M515.1,196.4c-0.8-0.3-1.2-3.3-0.8-4.3c0.4-1,2.6-9.2,3.5-8.8c0.8,0.3,0.1,9-0.2,10
						C517,194.4,515.9,196.8,515.1,196.4L515.1,196.4L515.1,196.4z"/>
					<path class="st1" d="M511.4,190.8c-1,0.2-3-2.1-3.2-3.3c-0.2-1.1-3-9.4-2.1-9.6c1-0.2,5.2,7.8,5.5,8.9
						C511.8,187.9,512.3,190.7,511.4,190.8L511.4,190.8L511.4,190.8z"/>
					<path class="st1" d="M513.1,187.1c-0.8-0.5-0.7-3.2-0.2-4.1c0.5-0.9,3.6-7.5,4.4-7s-1.1,8.1-1.5,8.8
						C515.2,185.7,513.9,187.6,513.1,187.1L513.1,187.1z"/>
					<path class="st1" d="M510.6,180.4c-1-0.1-2.3-2.8-2.1-3.9c0.2-1.1-0.1-9.3,0.8-9.3c1,0.1,2.7,8.6,2.6,9.6
						S511.5,180.5,510.6,180.4L510.6,180.4L510.6,180.4z"/>
					<path class="st1" d="M513,177.6c-0.6-0.6,0.3-3.3,1.1-3.9c0.8-0.6,6-6.5,6.5-5.8c0.6,0.6-3.7,7.6-4.4,8.2
						C515.5,176.7,513.5,178.3,513,177.6L513,177.6L513,177.6z"/>
					<path class="st1" d="M516.5,168.9c-0.5-0.6,0.2-2.6,0.8-3.2c0.6-0.5,4.8-5.2,5.2-4.6c0.4,0.6-2.8,6.1-3.5,6.7
						C518.4,168.1,517,169.4,516.5,168.9L516.5,168.9z"/>
					<path class="st1" d="M512.5,170.1c-0.7-0.2-1.2-3.1-1-4c0.2-0.9,1.9-9,2.6-8.9c0.7,0.2,0.3,8.7,0.1,9.6
						C514.1,168,513.3,170.5,512.5,170.1L512.5,170.1L512.5,170.1z"/>
					<path class="st1" d="M517,163.8c-1-0.3-1.4-3.2-1.1-4.2c0.3-1,2.3-8.7,3.2-8.3c1,0.3,0.5,8.7,0.1,9.6
						C518.9,161.8,518,164.2,517,163.8L517,163.8L517,163.8z"/>
					<path class="st1" d="M565.1,219.6c0,1.4,3.6,3.6,5,3.6s10,0.6,10-0.8c0-1.4-8.6-4.4-10-4.4C568.7,218,565.1,218.2,565.1,219.6
						L565.1,219.6L565.1,219.6z"/>
					<path class="st1" d="M569.4,216.4c0.8,0.7,4-0.5,4.8-1.3c0.8-0.8,5.2-5.8,4.4-6.6c-0.8-0.8-6.9,3.2-7.6,4.1
						S568.5,215.7,569.4,216.4L569.4,216.4L569.4,216.4z"/>
					<path class="st1" d="M575.7,218.1c0.2,1.1,3.3,2.3,4.5,2c1.1-0.2,10.1-0.9,9.9-2c-0.2-1.1-9.6-2.3-10.7-2
						C578.2,216.3,575.4,217,575.7,218.1L575.7,218.1L575.7,218.1z"/>
					<path class="st1" d="M578.1,215.2c1.1,0.3,3.7-1.7,4-2.7c0.3-1,4.5-9.2,3.5-9.5c-1-0.3-6.9,7-7.4,8.1
						C578,212.1,577.1,214.9,578.1,215.2L578.1,215.2L578.1,215.2z"/>
					<path class="st1" d="M584.6,214.8c0.7,1.1,4.2,1.1,5.1,0.5s9.3-4.6,8.6-5.7c-0.7-1.1-10.2,1.2-11.2,1.9
						C586.3,212,583.9,213.7,584.6,214.8L584.6,214.8L584.6,214.8z"/>
					<path class="st1" d="M587,211c1.2,0,2.8-2.7,2.8-3.8s1-9.5-0.2-9.5c-1.2,0-4,8.6-4,9.6C585.7,208.4,585.8,211,587,211L587,211z
						"/>
					<path class="st1" d="M593.3,203.7c1.1-0.2,2.1-3.2,1.9-4.3c-0.2-0.9-1.2-9.3-2.3-9c-1.1,0.3-1.9,9-1.7,10
						C591.5,201.5,592.2,204,593.3,203.7L593.3,203.7z"/>
					<path class="st1" d="M592.7,208.4c1,0.7,4.2-0.3,4.9-1.2c0.7-0.9,7.4-7.3,6.4-8c-1-0.7-9,4.4-9.8,5.2
						C593.5,205.4,591.8,207.6,592.7,208.4L592.7,208.4L592.7,208.4z"/>
					<path class="st1" d="M598.2,199.5c1,0.5,3.8-1.1,4.3-2c0.5-0.9,5.6-8.1,4.5-8.7c-1-0.5-7.6,5.8-8.1,6.8
						C598.4,196.5,597.2,199,598.2,199.5L598.2,199.5L598.2,199.5z"/>
					<path class="st1" d="M597.6,196.2c0.8-0.3,1.3-3.3,0.8-4.3c-0.5-1-2.6-9.2-3.5-8.8c-0.8,0.3-0.1,9,0.2,10
						C595.7,194,596.7,196.5,597.6,196.2L597.6,196.2L597.6,196.2z"/>
					<path class="st1" d="M601.3,190.5c1,0.2,3-2.1,3.2-3.3c0.2-1.1,3.1-9.4,2.1-9.6c-1-0.2-5.2,7.8-5.5,8.9
						C600.9,187.6,600.3,190.4,601.3,190.5L601.3,190.5L601.3,190.5z"/>
					<path class="st1" d="M599.6,186.8c0.8-0.5,0.8-3.2,0.2-4.1c-0.5-0.8-3.7-7.5-4.4-7c-0.7,0.5,1.1,8.1,1.5,8.8
						C597.5,185.3,598.8,187.4,599.6,186.8L599.6,186.8z"/>
					<path class="st1" d="M602.1,180c1-0.1,2.3-2.8,2.1-3.9c-0.1-1.1,0.1-9.4-0.8-9.3c-1,0.1-2.7,8.6-2.6,9.6
						C600.8,177.5,601.1,180.1,602.1,180L602.1,180L602.1,180z"/>
					<path class="st1" d="M599.7,177.3c0.6-0.6-0.3-3.3-1.1-3.9c-0.8-0.6-6-6.5-6.5-5.8c-0.6,0.6,3.7,7.6,4.4,8.2
						C597.2,176.3,599.1,178,599.7,177.3L599.7,177.3L599.7,177.3z"/>
					<path class="st1" d="M596.1,168.6c0.5-0.6-0.2-2.6-0.8-3.2s-4.8-5.2-5.2-4.6c-0.4,0.6,2.8,6.1,3.5,6.7
						C594.1,167.9,595.7,169.1,596.1,168.6L596.1,168.6z"/>
					<path class="st1" d="M600.1,169.9c0.7-0.2,1.2-3.1,1-4c-0.2-0.9-1.9-9-2.6-8.9c-0.7,0.2-0.3,8.7-0.1,9.6
						C598.5,167.6,599.4,170.1,600.1,169.9L600.1,169.9L600.1,169.9z"/>
					<path class="st1" d="M595.7,163.5c1-0.3,1.4-3.2,1.1-4.2c-0.3-1-2.3-8.7-3.2-8.3c-1,0.3-0.5,8.7-0.1,9.6
						C593.7,161.4,594.7,163.8,595.7,163.5L595.7,163.5L595.7,163.5z"/>
				</g>
			</g>
			
				<linearGradient id="darker_00000028286577810251239700000016979340602430967427_" gradientUnits="userSpaceOnUse" x1="556.3089" y1="2102.9382" x2="556.3089" y2="2037.6022" gradientTransform="matrix(1 0 0 1 0 -1866.6313)">
				<stop  offset="0" style="stop-color:#20201E"/>
				<stop  offset="1" style="stop-color:#403E3C"/>
			</linearGradient>
			
				<path id="darker" style="opacity:0.31;fill:url(#darker_00000028286577810251239700000016979340602430967427_);enable-background:new    ;" d="
				M628.4,171.2c-2.3,4.5-40.5,11.9-72,11.9s-70.3-8.1-72.6-11.9v65.1h145.1v-64.4C628.7,171.1,628.5,170.7,628.4,171.2L628.4,171.2
				z"/>
		</g>
		<g id="arrow">
			<path class="st6" d="M459,185.1l-44.6-20.6l5.4,10.7h-50.2c0,0-1.5,4.8-1.5,9.4c0,4.6,1.5,8.4,1.5,8.4h51.2l-6.3,12.6L459,185.1
				L459,185.1L459,185.1z"/>
			
				<linearGradient id="SVGID_00000091722520239207782680000004060745816061855878_" gradientUnits="userSpaceOnUse" x1="412.2888" y1="2051.4316" x2="412.2888" y2="2017.9005" gradientTransform="matrix(1 0 0 1 0 -1849.6213)">
				<stop  offset="0" style="stop-color:#522B16"/>
				<stop  offset="0.45" style="stop-color:#522B16;stop-opacity:0.7"/>
				<stop  offset="0.58" style="stop-color:#E03F19;stop-opacity:0.5"/>
				<stop  offset="1" style="stop-color:#E03F19;stop-opacity:0.5"/>
			</linearGradient>
			<path style="fill:url(#SVGID_00000091722520239207782680000004060745816061855878_);" d="M423.7,191.2h-52.8
				c-0.4-1.3-1-3.9-1-6.6c0-2.9,0.7-6,1.1-7.7h51.8l-4.4-8.7l36.3,16.7l-36.3,16.7L423.7,191.2L423.7,191.2L423.7,191.2z"/>
			<path class="st8" d="M427.6,188.9h-54.9c-0.2-1.2-0.4-2.6-0.4-4.2c0-1.9,0.2-3.7,0.6-5.2h53.8l-3-6.1l25.3,11.7l-25.4,11.6
				L427.6,188.9L427.6,188.9L427.6,188.9z"/>
			<path class="st9" d="M423.7,191.2h-52.8c-0.4-1.3-1-3.9-1-6.6c0-2.9,0.7-6,1.1-7.7h51.8l-4.4-8.7l36.3,16.7l-36.3,16.7
				L423.7,191.2L423.7,191.2L423.7,191.2z"/>
		</g>
		<g id="microbe-3">
			<rect x="256.9" y="139.8" class="st1" width="90.5" height="90.5"/>
			
				<linearGradient id="SVGID_00000150092821279034079390000013165091159008738982_" gradientUnits="userSpaceOnUse" x1="-1630.6655" y1="3583.3945" x2="-1570.3744" y2="3523.1033" gradientTransform="matrix(0.7071 -0.7071 0.7071 0.7071 -1078.5907 -3459.2395)">
				<stop  offset="0" style="stop-color:#3F4B22"/>
				<stop  offset="0.14" style="stop-color:#4D5F26"/>
				<stop  offset="0.42" style="stop-color:#6B862B"/>
				<stop  offset="0.66" style="stop-color:#83A530"/>
				<stop  offset="0.86" style="stop-color:#8FB923"/>
				<stop  offset="1" style="stop-color:#98C32C"/>
			</linearGradient>
			
				<rect x="259.6" y="142.4" style="fill:url(#SVGID_00000150092821279034079390000013165091159008738982_);" width="85.3" height="85.3"/>
			<rect x="263.7" y="146.5" class="st3" width="77" height="77"/>
			<g id="microbes-2">
				<polygon class="st4" points="303.2,192.7 299.5,193.2 300,196.9 296.4,196.3 295.8,199.9 292.6,198.2 291,201.5 288.3,199 
					285.8,201.7 284,198.5 280.8,200.1 280,196.6 276.5,197.4 276.8,193.8 273.2,193.4 274.5,190.1 271.2,188.7 273.5,185.9 
					270.7,183.6 273.7,181.5 271.7,178.6 275.2,177.5 274.2,174 277.8,174 277.9,170.4 281.4,171.5 282.5,168.1 285.4,170.2 
					287.5,167.1 289.8,170.1 292.6,167.8 293.9,171.2 297.4,170 297.5,173.6 301.1,173.4 300.3,176.9 303.8,177.7 302,180.9 
					305.2,182.7 302.4,185.2 304.8,187.9 301.6,189.4 				"/>
				<polygon class="st4" points="334.4,178.2 333.2,178.6 333.2,180.3 331.3,179.7 330.1,180.8 328.2,179.6 326.4,180.1 
					321.1,180.8 318.8,180.6 316.5,176.2 313.9,175.4 311.7,173.1 309.2,171.9 307.3,169.5 304.8,168.4 303.4,165.7 301.4,163.9 
					300.6,161.9 299.1,160.3 299,158.6 297.8,157.2 298.8,156.1 298.9,154.5 300,154.6 301,153.4 302.5,154.1 304.9,151.7 
					306.9,153.2 309.1,153.3 311.2,154.9 313.8,155.6 315.1,159.1 317.9,160.2 319.7,162.6 322.4,164 323.9,166.3 326.4,168 
					330.5,170.2 332.5,172 332.7,173.6 334.1,175.2 333.7,176.6 				"/>
				<polygon class="st4" points="330.3,195.5 330.6,195.9 331.2,197 330.1,197.7 330.2,199 327.7,199.9 326.7,201.5 323.7,204.4 
					320.3,206 315.8,207.4 313.1,209.1 309.5,209.8 306.4,211.2 302.8,211.9 300,213.3 296.6,213.4 293.6,214.4 291.1,214.3 
					288.7,214.9 287.1,214.4 284.8,214.9 284.7,213.8 284.1,213.4 284.2,212.3 284.1,211.2 285.7,210.4 285.6,207.8 288.3,206.9 
					290,205.4 293.1,204.3 296.6,203.3 299.8,202.8 302.8,201.1 306.4,200.6 309.6,199.1 312.8,198.6 316.1,197.4 321.1,195.1 
					324.3,194.3 325.9,194.7 328.3,194.2 329.2,194.9 				"/>
			</g>
			<path id="darker-2" class="st5" d="M344.8,227.7h-85.3v-46.7c0,0,26.9,4.1,42.6,4.1s42.7-4.1,42.7-4.1L344.8,227.7L344.8,227.7z"
				/>
		</g>
		<g>
			<path d="M113.2,206.8c-4.3,0-8.1-0.9-11.3-2.7c-3.2-1.8-5.6-4.4-7.2-7.7c-1.6-3.4-2.5-7.2-2.5-11.4c0-4.2,0.8-8,2.5-11.4
				c1.7-3.4,4.1-5.9,7.3-7.7c3.2-1.8,7-2.7,11.2-2.7c4.2,0,8,0.9,11.2,2.7c3.2,1.8,5.6,4.4,7.3,7.7c1.7,3.4,2.5,7.2,2.5,11.4
				c0,4.2-0.8,8-2.5,11.4c-1.7,3.4-4.1,5.9-7.2,7.7C121.4,205.9,117.5,206.8,113.2,206.8C113.2,206.8,113.2,206.8,113.2,206.8z
				 M113.2,201.1c4,0,7-1.6,8.9-4.9c1.9-3.3,2.9-7,2.9-11.2c0-4.2-1-8-2.9-11.2c-1.9-3.2-5-4.9-8.9-4.9s-7,1.6-8.9,4.9
				c-1.9,3.3-2.9,7-2.9,11.2c0,4.2,1,7.9,2.9,11.2C106.2,199.5,109.2,201.1,113.2,201.1L113.2,201.1z"/>
			<path d="M142,205.8v-41.4h15.5c3.2,0,5.6,0.4,7.2,1.2s2.9,2,4,3.6c0.9,1.6,1.4,3.4,1.4,5.5c0,2.4-0.7,4.7-2.1,6.9
				c-1.4,2.2-3.4,3.8-5.9,5l13.6,19.4h-10.5l-10.3-16.9h-4.7v16.9L142,205.8L142,205.8L142,205.8z M150.1,183.1h2
				c3.5,0,6-0.8,7.4-2.4c1.4-1.6,2-3.3,2-5.2c0-1.7-0.5-3-1.7-4c-1.1-1-3.4-1.5-6.7-1.5h-3L150.1,183.1L150.1,183.1L150.1,183.1z"/>
		</g>
		<path d="M213.4,206.5V200c4.3,1.7,7.8,2.4,10.6,2.4c2.5,0,4.5-0.7,6.1-1.9c1.6-1.3,2.4-3.1,2.4-5.3c0-1.6-0.4-3.1-1.3-4.4
			c-0.8-1.3-2-2.4-3.7-3s-4.1-1.1-7.6-1.1h-2.6v-5.1h2.3c3.3,0,5.7-0.2,7.2-0.9c1.4-0.6,2.5-1.5,3.4-2.8c0.8-1.3,1.3-2.6,1.3-4
			c0-1.8-0.6-3.1-1.8-4.2c-1.2-1.1-3-1.6-5.5-1.6c-3.1,0-6.6,0.8-10.1,2.4v-5.9c1.8-0.6,3.3-1,4.3-1.3c1.1-0.2,2.3-0.3,3.7-0.5
			c1.4-0.2,2.8-0.2,4-0.2c4.5,0,8,0.9,10.5,2.8c2.5,1.9,3.7,4.4,3.7,7.5c0,2.5-0.8,4.7-2.4,6.5c-1.6,1.8-4,3.2-7.2,4.3
			c2.8,0.7,4.9,1.5,6.4,2.7c1.5,1.2,2.6,2.4,3.4,4c0.8,1.5,1.2,3.2,1.2,5c0,3.3-1.3,6.1-3.9,8.8c-2.6,2.6-6.7,3.9-12.5,3.9
			c-1.5,0-3.1-0.1-4.8-0.2C218.6,207.6,216.3,207.2,213.4,206.5L213.4,206.5L213.4,206.5z"/>
	</g>
</g>
<g id="microbe-4_00000088106574271677006060000014086023155912820613_">
	<rect x="211.7" y="277.4" class="st1" width="85.3" height="85.3"/>
	
		<linearGradient id="SVGID_00000065774822302370202230000006362266780999480732_" gradientUnits="userSpaceOnUse" x1="-1758.2197" y1="3643.2412" x2="-1701.4115" y2="3586.4329" gradientTransform="matrix(0.7071 -0.7071 0.7071 0.7071 -1078.5907 -3459.2395)">
		<stop  offset="0" style="stop-color:#3F4B22"/>
		<stop  offset="0.14" style="stop-color:#4D5F26"/>
		<stop  offset="0.42" style="stop-color:#6B862B"/>
		<stop  offset="0.66" style="stop-color:#83A530"/>
		<stop  offset="0.86" style="stop-color:#8FB923"/>
		<stop  offset="1" style="stop-color:#98C32C"/>
	</linearGradient>
	
		<rect x="214.2" y="279.8" style="fill:url(#SVGID_00000065774822302370202230000006362266780999480732_);" width="80.3" height="80.3"/>
	<rect x="218" y="283.7" class="st3" width="72.6" height="72.6"/>
	<g id="microbes-3_00000123441423913252263260000010118671985791209355_">
		<polygon class="st4" points="255.2,327.3 251.8,327.7 252.3,331.1 248.9,330.6 248.3,334 245.2,332.4 243.7,335.5 241.3,333.1 
			238.9,335.7 237.2,332.6 234.2,334.2 233.5,330.9 230.2,331.7 230.4,328.3 227,327.9 228.3,324.8 225.2,323.4 227.4,320.8 
			224.7,318.6 227.6,316.7 225.7,313.9 228.9,312.9 227.9,309.6 231.4,309.6 231.4,306.2 234.8,307.3 235.8,304 238.6,306 
			240.6,303.1 242.7,305.9 245.3,303.8 246.6,307 249.8,305.8 250,309.3 253.4,309 252.6,312.3 255.9,313.1 254.1,316.1 
			257.1,317.8 254.6,320.2 256.9,322.7 253.7,324.2 		"/>
		<polygon class="st4" points="284.7,313.5 283.5,313.9 283.5,315.5 281.8,315 280.7,316 278.9,314.9 277.1,315.4 272.1,316 
			270,315.8 267.8,311.6 265.4,310.9 263.4,308.8 261,307.6 259.1,305.4 256.9,304.3 255.5,301.8 253.6,300.1 252.9,298.2 
			251.5,296.7 251.3,295.1 250.2,293.8 251.2,292.8 251.2,291.3 252.2,291.3 253.2,290.2 254.6,290.8 257,288.6 258.7,290 
			260.8,290.1 262.8,291.6 265.2,292.3 266.5,295.6 269.1,296.6 270.9,298.9 273.4,300.2 274.9,302.4 277.2,303.9 281,306 
			282.9,307.7 283.1,309.3 284.4,310.8 284,312 		"/>
		<polygon class="st4" points="280.9,329.9 281.2,330.3 281.6,331.3 280.7,331.9 280.8,333.1 278.4,334 277.5,335.5 274.6,338.3 
			271.4,339.8 267.1,341.1 264.6,342.6 261.2,343.3 258.3,344.7 255,345.3 252.3,346.6 249.1,346.8 246.2,347.6 244,347.6 
			241.7,348.1 240.2,347.7 238,348.1 237.9,347.1 237.3,346.8 237.4,345.7 237.3,344.7 238.8,343.9 238.7,341.4 241.3,340.6 
			242.9,339.1 245.7,338.2 249.1,337.2 252.1,336.8 255,335.2 258.2,334.6 261.3,333.3 264.3,332.8 267.5,331.7 272.2,329.5 
			275.2,328.8 276.7,329.1 278.9,328.7 279.8,329.3 		"/>
	</g>
	<path id="darker-3_00000121243061929478349760000002473422511773838991_" class="st5" d="M294.5,360.2h-80.3v-44
		c0,0,25.3,3.9,40.1,3.9c14.8,0,40.2-3.9,40.2-3.9L294.5,360.2L294.5,360.2L294.5,360.2z"/>
</g>
<g id="microbe-4_00000102518698086343787700000003259244366893718152_">
	<rect x="317.8" y="277.4" class="st1" width="85.3" height="85.3"/>
	
		<linearGradient id="SVGID_00000085971490286732607490000017549165970921025178_" gradientUnits="userSpaceOnUse" x1="-1683.1998" y1="3718.261" x2="-1626.3916" y2="3661.4529" gradientTransform="matrix(0.7071 -0.7071 0.7071 0.7071 -1078.5907 -3459.2395)">
		<stop  offset="0" style="stop-color:#3F4B22"/>
		<stop  offset="0.14" style="stop-color:#4D5F26"/>
		<stop  offset="0.42" style="stop-color:#6B862B"/>
		<stop  offset="0.66" style="stop-color:#83A530"/>
		<stop  offset="0.86" style="stop-color:#8FB923"/>
		<stop  offset="1" style="stop-color:#98C32C"/>
	</linearGradient>
	
		<rect x="320.2" y="279.8" style="fill:url(#SVGID_00000085971490286732607490000017549165970921025178_);" width="80.3" height="80.3"/>
	<rect x="324.1" y="283.7" class="st3" width="72.6" height="72.6"/>
	<g id="microbes-3_00000029736991168830313650000006803014809559178940_">
		<polygon class="st4" points="361.3,327.3 357.9,327.7 358.4,331.1 355,330.6 354.4,334 351.3,332.4 349.8,335.5 347.4,333.1 
			345,335.7 343.3,332.6 340.3,334.2 339.6,330.9 336.3,331.7 336.5,328.3 333.1,327.9 334.4,324.8 331.3,323.4 333.5,320.8 
			330.8,318.6 333.6,316.7 331.7,313.9 335,312.9 334,309.6 337.5,309.6 337.5,306.2 340.9,307.3 341.9,304 344.7,306 346.7,303.1 
			348.8,305.9 351.4,303.8 352.7,307 355.9,305.8 356.1,309.3 359.5,309 358.7,312.3 362,313.1 360.2,316.1 363.2,317.8 
			360.7,320.2 363,322.7 359.8,324.2 		"/>
		<polygon class="st4" points="390.8,313.5 389.6,313.9 389.6,315.5 387.9,315 386.8,316 385,314.9 383.2,315.4 378.2,316 
			376.1,315.8 373.9,311.6 371.5,310.9 369.5,308.8 367.1,307.6 365.2,305.4 363,304.3 361.6,301.8 359.7,300.1 358.9,298.2 
			357.6,296.7 357.4,295.1 356.2,293.8 357.3,292.8 357.3,291.3 358.3,291.3 359.3,290.2 360.7,290.8 363.1,288.6 364.8,290 
			366.9,290.1 368.9,291.6 371.3,292.3 372.6,295.6 375.2,296.6 377,298.9 379.5,300.2 381,302.4 383.3,303.9 387.1,306 389,307.7 
			389.2,309.3 390.5,310.8 390.1,312 		"/>
		<polygon class="st4" points="387,329.9 387.3,330.3 387.7,331.3 386.8,331.9 386.9,333.1 384.5,334 383.6,335.5 380.7,338.3 
			377.5,339.8 373.2,341.1 370.7,342.6 367.3,343.3 364.4,344.7 361.1,345.3 358.4,346.6 355.2,346.8 352.3,347.6 350.1,347.6 
			347.8,348.1 346.3,347.7 344.1,348.1 344,347.1 343.4,346.8 343.5,345.7 343.4,344.7 344.9,343.9 344.8,341.4 347.4,340.6 
			349,339.1 351.8,338.2 355.2,337.2 358.2,336.8 361.1,335.2 364.3,334.6 367.4,333.3 370.4,332.8 373.6,331.7 378.3,329.5 
			381.3,328.8 382.8,329.1 385,328.7 385.9,329.3 		"/>
	</g>
	<path id="darker-3_00000129913507819827008520000008386859939423558840_" class="st5" d="M400.6,360.2h-80.3v-44
		c0,0,25.3,3.9,40.1,3.9c14.8,0,40.2-3.9,40.2-3.9L400.6,360.2L400.6,360.2L400.6,360.2z"/>
</g>
<g id="microbe-4_00000112595169067671980540000012997680229256066727_">
	<rect x="426" y="277.5" class="st1" width="85.3" height="85.3"/>
	
		<linearGradient id="SVGID_00000140730396146484607670000015707479350645218944_" gradientUnits="userSpaceOnUse" x1="-1606.7501" y1="3794.8245" x2="-1549.9419" y2="3738.0161" gradientTransform="matrix(0.7071 -0.7071 0.7071 0.7071 -1078.5907 -3459.2395)">
		<stop  offset="0" style="stop-color:#3F4B22"/>
		<stop  offset="0.14" style="stop-color:#4D5F26"/>
		<stop  offset="0.42" style="stop-color:#6B862B"/>
		<stop  offset="0.66" style="stop-color:#83A530"/>
		<stop  offset="0.86" style="stop-color:#8FB923"/>
		<stop  offset="1" style="stop-color:#98C32C"/>
	</linearGradient>
	
		<rect x="428.4" y="279.9" style="fill:url(#SVGID_00000140730396146484607670000015707479350645218944_);" width="80.3" height="80.3"/>
	<rect x="432.3" y="283.8" class="st3" width="72.6" height="72.6"/>
	<g id="microbes-3_00000022521263632746526520000012115276350883004816_">
		<polygon class="st4" points="469.5,327.3 466.1,327.8 466.6,331.2 463.2,330.7 462.6,334.1 459.5,332.5 458,335.6 455.6,333.2 
			453.2,335.7 451.5,332.7 448.5,334.3 447.8,331 444.5,331.8 444.7,328.4 441.3,328 442.6,324.9 439.5,323.5 441.7,320.9 
			439,318.7 441.8,316.8 439.9,314 443.2,313 442.2,309.6 445.7,309.7 445.7,306.3 449.1,307.3 450.1,304.1 452.9,306.1 
			454.8,303.2 457,306 459.6,303.9 460.9,307 464,305.9 464.3,309.3 467.7,309.1 466.9,312.4 470.2,313.2 468.4,316.1 471.4,317.9 
			468.9,320.3 471.2,322.8 468,324.2 		"/>
		<polygon class="st4" points="499,313.6 497.8,314 497.8,315.6 496.1,315 495,316.1 493.2,315 491.4,315.4 486.4,316.1 
			484.3,315.9 482.1,311.7 479.7,311 477.7,308.9 475.3,307.7 473.4,305.4 471.2,304.4 469.8,301.9 467.9,300.2 467.1,298.3 
			465.8,296.8 465.6,295.2 464.4,293.9 465.5,292.8 465.5,291.3 466.5,291.4 467.5,290.3 468.9,290.9 471.3,288.7 473,290.1 
			475.1,290.2 477.1,291.6 479.5,292.4 480.8,295.7 483.4,296.7 485.2,298.9 487.7,300.3 489.2,302.4 491.5,304 495.3,306.1 
			497.2,307.8 497.4,309.3 498.7,310.8 498.3,312.1 		"/>
		<polygon class="st4" points="495.2,330 495.5,330.4 495.9,331.4 495,332 495.1,333.2 492.7,334.1 491.8,335.6 488.9,338.4 
			485.7,339.9 481.4,341.1 478.9,342.7 475.5,343.4 472.6,344.8 469.3,345.4 466.6,346.7 463.4,346.8 460.5,347.7 458.3,347.6 
			456,348.2 454.5,347.8 452.3,348.2 452.2,347.2 451.6,346.8 451.7,345.8 451.6,344.8 453.1,344 453,341.5 455.6,340.7 
			457.2,339.2 460,338.3 463.4,337.3 466.4,336.8 469.3,335.3 472.5,334.7 475.6,333.4 478.6,332.9 481.8,331.8 486.5,329.6 
			489.5,328.8 491,329.2 493.2,328.8 494.1,329.4 		"/>
	</g>
	<path id="darker-3_00000123434999930744578000000018181066390487060643_" class="st5" d="M508.8,360.2h-80.3v-44
		c0,0,25.3,3.9,40.1,3.9s40.2-3.9,40.2-3.9L508.8,360.2L508.8,360.2L508.8,360.2z"/>
</g>
</svg>
