<?xml version="1.0" encoding="UTF-8"?><svg id="Layer" xmlns="http://www.w3.org/2000/svg" xmlns:xlink="http://www.w3.org/1999/xlink" viewBox="0 0 721 379.91"><defs><style>.cls-1{fill:url(#linear-gradient-2);}.cls-2{fill:url(#linear-gradient-6);}.cls-3{fill:#1f1f1e;}.cls-4{opacity:0;stroke:#1d1d1b;}.cls-4,.cls-5,.cls-6{stroke-miterlimit:10;}.cls-4,.cls-6{fill:#fff;}.cls-7{fill:url(#linear-gradient-10);}.cls-8{opacity:.15;}.cls-8,.cls-9{isolation:isolate;}.cls-8,.cls-10{fill:#030304;}.cls-9{fill:url(#Nowy_wzorek_4);opacity:.1;}.cls-11{fill:url(#linear-gradient-5);}.cls-12{fill:none;}.cls-13{fill:url(#linear-gradient-7);}.cls-5{fill:#020303;stroke:#030404;stroke-width:1.89px;}.cls-14{fill:url(#linear-gradient-9);}.cls-15{fill:#7f358b;}.cls-16{fill:url(#linear-gradient-3);}.cls-17{fill:#6a6a69;}.cls-18{fill:#f4e956;}.cls-19{fill:url(#linear-gradient);}.cls-20{fill:#010202;}.cls-21{fill:url(#linear-gradient-4);}.cls-22{fill:url(#linear-gradient-8);}.cls-6{stroke:#030304;stroke-width:.92px;}</style><linearGradient id="linear-gradient" x1="453.21" y1="208.27" x2="453.21" y2="316.97" gradientTransform="translate(0 346.64) scale(1 -1)" gradientUnits="userSpaceOnUse"><stop offset=".16" stop-color="#823b14"/><stop offset=".18" stop-color="#995d1a"/><stop offset=".22" stop-color="#ae7d22"/><stop offset=".26" stop-color="#c39d25"/><stop offset=".3" stop-color="#d6b92e"/><stop offset=".35" stop-color="#e4cf36"/><stop offset=".41" stop-color="#efe036"/><stop offset=".48" stop-color="#f5e94d"/><stop offset=".58" stop-color="#f8eb53"/><stop offset=".86" stop-color="#f5ea52"/><stop offset="1" stop-color="#fcf4f9"/></linearGradient><linearGradient id="linear-gradient-2" x1="453.21" y1="322.7" x2="453.21" y2="156.62" gradientTransform="translate(0 346.64) scale(1 -1)" gradientUnits="userSpaceOnUse"><stop offset=".26" stop-color="#f5ea52"/><stop offset=".86" stop-color="#813a14"/></linearGradient><linearGradient id="linear-gradient-3" x1="453.26" y1="209.77" x2="453.26" y2="315.36" gradientTransform="translate(0 346.64) scale(1 -1)" gradientUnits="userSpaceOnUse"><stop offset=".16" stop-color="#813a14"/><stop offset=".17" stop-color="#8d481f"/><stop offset=".18" stop-color="#a36c3d"/><stop offset=".2" stop-color="#b78954"/><stop offset=".22" stop-color="#c7a468"/><stop offset=".24" stop-color="#d7bb7a"/><stop offset=".26" stop-color="#e2cc88"/><stop offset=".3" stop-color="#ead891"/><stop offset=".34" stop-color="#eede97"/><stop offset=".46" stop-color="#efe097"/><stop offset=".7" stop-color="#813a14"/><stop offset=".73" stop-color="#e6d234"/><stop offset=".74" stop-color="#ebda49"/><stop offset=".75" stop-color="#eede6d"/><stop offset=".77" stop-color="#f0e18a"/><stop offset=".79" stop-color="#f8ebab"/><stop offset=".8" stop-color="#f8edbf"/><stop offset=".83" stop-color="#faf0cf"/><stop offset=".85" stop-color="#fcf2da"/><stop offset=".89" stop-color="#fdf4e1"/><stop offset=".99" stop-color="#fdf5e3"/></linearGradient><linearGradient id="linear-gradient-4" x1="453.21" y1="299.85" x2="453.21" y2="136.93" gradientTransform="translate(0 346.64) scale(1 -1)" gradientUnits="userSpaceOnUse"><stop offset=".26" stop-color="#f5ea52"/><stop offset=".77" stop-color="#813a14"/></linearGradient><linearGradient id="linear-gradient-5" x1="268.67" y1="420.02" x2="268.67" y2="312.29" gradientTransform="translate(0 -282.18)" gradientUnits="userSpaceOnUse"><stop offset="0" stop-color="#030304"/><stop offset=".07" stop-color="#030404"/><stop offset=".11" stop-color="#070909"/><stop offset=".14" stop-color="#0f1113"/><stop offset=".16" stop-color="#1d1f21"/><stop offset=".19" stop-color="#2d2d2f"/><stop offset=".21" stop-color="#3f3e3c"/><stop offset=".4" stop-color="#595756"/><stop offset=".67" stop-color="#7b7a7a"/><stop offset=".88" stop-color="#929292"/><stop offset="1" stop-color="#9f9d9c"/></linearGradient><linearGradient id="linear-gradient-6" x1="268.57" y1="420.03" x2="268.57" y2="361.17" gradientTransform="translate(0 -282.18)" gradientUnits="userSpaceOnUse"><stop offset="0" stop-color="#070808"/><stop offset="1" stop-color="#292a29"/></linearGradient><linearGradient id="linear-gradient-7" x1="459.39" y1="628.92" x2="258.19" y2="427.72" gradientTransform="translate(0 -252.64)" gradientUnits="userSpaceOnUse"><stop offset="0" stop-color="#9e9d9c"/><stop offset=".54" stop-color="#010202"/><stop offset="1" stop-color="#9e9d9c"/></linearGradient><linearGradient id="linear-gradient-8" x1="358.85" y1="610.77" x2="358.85" y2="445.89" gradientTransform="translate(0 -252.64)" gradientUnits="userSpaceOnUse"><stop offset="0" stop-color="#462c1b"/><stop offset="1" stop-color="#b18048"/></linearGradient><linearGradient id="linear-gradient-9" x1="358.78" y1="606.6" x2="358.78" y2="449.91" gradientTransform="translate(0 -252.64)" gradientUnits="userSpaceOnUse"><stop offset="0" stop-color="#946137"/><stop offset="1" stop-color="#805127"/></linearGradient><pattern id="Nowy_wzorek_4" x="0" y="0" width="19.7" height="21.7" patternTransform="translate(43.9 16649.47)" patternUnits="userSpaceOnUse" viewBox="0 0 19.7 21.7"><g><rect class="cls-12" width="19.7" height="21.7"/><g><rect class="cls-12" width="19.7" height="21.7"/><g><rect class="cls-12" width="19.7" height="21.7"/><g><rect class="cls-12" width="19.7" height="21.7"/><g><rect class="cls-12" width="19.7" height="21.7"/><path class="cls-3" d="M16.6,8.7c2.1,2.1,2.1,5.6,0,7.7l-1.2,1.2c-2.1,2.1-5.6,2.1-7.8,0L3.1,13c-2.1-2.1-2.1-5.6,0-7.7l1.2-1.2c2.1-2.1,5.6-2.1,7.7,0l4.6,4.6Z"/></g></g></g></g></g></pattern><linearGradient id="linear-gradient-10" x1="-578.07" y1="1393.23" x2="-501.14" y2="1316.28" gradientTransform="translate(-191.13 -1064.43) rotate(-45)" gradientUnits="userSpaceOnUse"><stop offset="0" stop-color="#1d1427"/><stop offset=".24" stop-color="#372348"/><stop offset=".49" stop-color="#573b6c"/><stop offset=".71" stop-color="#72508c"/><stop offset=".89" stop-color="#835ca0"/><stop offset="1" stop-color="#8963a7"/></linearGradient></defs><rect class="cls-4" x=".5" y=".5" width="720" height="378.91"/><g id="mln"><polygon id="obram_czarne" class="cls-5" points="412.98 26.34 395.58 43.85 395.58 124.2 412.98 141.7 493.43 141.7 510.73 124.2 510.73 43.85 493.43 26.34 412.98 26.34"/><polygon id="obram_zolte" class="cls-19" points="415.24 29.67 398.91 46.11 398.91 121.94 415.24 138.37 491.07 138.37 507.51 121.94 507.51 46.11 491.07 29.67 415.24 29.67"/><polygon id="tlo_wew" class="cls-1" points="416.42 31.28 400.41 47.29 400.41 120.87 416.42 136.76 490 136.76 506 120.87 506 47.29 490 31.28 416.42 31.28"/><path id="obram_skosne" class="cls-16" d="M498.38,104.43c-2.9,0-5.26-2.36-5.26-5.26v-30.08c0-2.9,2.36-5.26,5.26-5.26h7.52v-16.54l-15.9-16h-16.54v7.52c0,2.9-2.36,5.26-5.26,5.26h-30.08c-2.9,0-5.26-2.36-5.26-5.26v-7.52h-16.43l-16,16v16.54h7.52c2.9,0,5.26,2.36,5.26,5.26v30.08c0,2.9-2.36,5.26-5.26,5.26h-7.52v16.43l16,16h16.54v-7.52c0-2.9,2.36-5.26,5.26-5.26h30.08c2.9,0,5.26,2.36,5.26,5.26v7.52h16.54l16-16v-16.43h-7.73Z"/><path id="tlo_zew" class="cls-21" d="M498.05,106.15c-3.54,0-6.55-3.54-6.55-7.2v-29.86c0-3.54,2.9-7.2,6.55-7.2h6.12v-13.43l-15.47-15.36h-13.32v6.12c0,3.65-3.54,6.55-7.2,6.55h-29.97c-3.54,0-7.2-2.9-7.2-6.55v-6.12h-13.53l-15.25,15.36v13.43h6.12c3.54,0,6.55,3.54,6.55,7.2v29.97c0,3.54-2.9,7.2-6.55,7.2h-6.12v13.43l15.36,15.36h13.43v-6.12c0-3.54,3.54-6.55,7.2-6.55h29.86c3.54,0,7.2,2.9,7.2,6.55v6.12h13.43l15.36-15.36v-13.53h-6.02Z"/></g><path class="cls-20" d="M434.68,111.63v-8.7c3.33-4.4,6.44-8.06,9.56-10.74l4.51-3.97c3.22-2.79,5.91-5.59,7.95-8.38,2.04-2.79,3.11-5.69,3.11-8.7,0-2.69-.86-4.83-2.69-6.34s-4.19-2.26-7.2-2.26c-3.97,0-8.59,1.4-13.96,4.08v-8.06c5.59-2.04,10.96-3.11,16.11-3.11,5.69,0,10.42,1.4,13.96,4.08s5.26,6.44,5.26,11.06c0,2.9-.75,5.69-2.26,8.27s-4.62,5.8-9.34,9.56l-3.76,3.01c-1.61,1.29-3.44,3.01-5.37,5.05s-3.22,4.19-3.76,6.55h24.17v8.7l-36.31-.11h0Z"/><path d="M348.75,75v-11.92h12.03v12.03h-12.03v-.11Zm0,32.65v-12.03h12.03v12.03h-12.03Z"/><g id="tagSpace"><path class="cls-10" d="M326.62,84.13c0,32.01-25.99,58.11-58.11,58.11s-58.11-25.99-58.11-58.11,25.99-58.11,58.11-58.11,58.11,25.99,58.11,58.11h0Z"/><path class="cls-11" d="M322.43,84.13c0,29.65-24.06,53.71-53.71,53.71s-53.81-24.06-53.81-53.81,24.06-53.92,53.71-53.92c29.65,.11,53.81,24.17,53.81,54.03h0Z"/><path class="cls-17" d="M317.17,84.13c0,26.75-21.7,48.66-48.66,48.66s-48.55-21.8-48.55-48.66,21.7-48.66,48.66-48.66c26.96,0,48.55,21.7,48.55,48.66h0Z"/><path id="ciemniej" class="cls-2" d="M322.43,84.13c0-1.07,0-2.15-.11-3.22-10.85,3.01-29.54,6.87-53.71,6.87s-42.21-4.73-53.6-8.7c-.21,1.72-.32,3.33-.32,5.05,0,29.65,24.06,53.81,53.71,53.81s54.03-24.17,54.03-53.81h0Z"/><g id="gwiazda"><circle class="cls-18" cx="268.51" cy="84.13" r="7.95"/><path class="cls-18" d="M278.61,79.08l17.51-22.45-22.45,17.51c2.04,.97,3.87,2.69,4.94,4.94h0Z"/><path class="cls-18" d="M263.57,74.03l-22.45-17.51,17.51,22.45c.97-2.04,2.79-3.87,4.94-4.94h0Z"/><path class="cls-18" d="M307.4,84.13l-28.25-3.54c.32,1.07,.54,2.36,.54,3.54s-.21,2.47-.54,3.54l28.25-3.54Z"/><path class="cls-18" d="M272.16,73.5l-3.54-28.25-3.54,28.25c1.07-.32,2.36-.54,3.54-.54,1.29-.11,2.36,.21,3.54,.54Z"/><path class="cls-18" d="M273.56,94.01l22.45,17.51-17.51-22.45c-.97,2.15-2.69,3.87-4.94,4.94h0Z"/><path class="cls-18" d="M257.45,84.13c0-1.18,.21-2.47,.54-3.54l-28.25,3.54,28.25,3.54c-.32-1.18-.54-2.36-.54-3.54Z"/><path class="cls-18" d="M264.97,94.66l3.54,28.25,3.54-28.25c-1.07,.32-2.36,.54-3.54,.54s-2.26-.11-3.54-.54Z"/><path class="cls-18" d="M258.63,89.07l-17.51,22.45,22.45-17.51c-2.15-.97-3.87-2.79-4.94-4.94h0Z"/></g></g><g id="prodBg"><rect id="external-border" class="cls-13" x="244.62" y="188.66" width="228.35" height="174.05"/><rect id="internal-border" class="cls-22" x="249.19" y="193.25" width="219.33" height="164.88"/><rect id="bg" class="cls-14" x="253.21" y="197.28" width="211.13" height="156.68"/><rect id="bgPattern" class="cls-9" x="253.21" y="197.28" width="211.13" height="156.68"/></g><g id="energy"><rect class="cls-10" x="327.55" y="217.36" width="115.43" height="115.43"/><rect class="cls-7" x="330.87" y="220.69" width="108.79" height="108.79"/><polygon class="cls-15" points="434.39 225.96 434.39 324.2 336.15 324.2 336.15 225.96 434.39 225.96"/><polygon class="cls-6" points="373.27 263.84 405.68 243.75 388.36 268.83 397.53 283.75 365.68 303.84 381.69 278.83 373.27 263.84"/><path id="darker" class="cls-8" d="M439.66,329.47h-108.79v-59.62s34.25,5.27,54.34,5.27,54.44-5.27,54.44-5.27v59.62Z"/></g><path d="M283.62,275.04c1.3-1.55,2.53-2.69,3.71-3.42,1.17-.73,2.5-1.3,3.96-1.71s2.97-.62,4.49-.62c2.78,0,5.41,.66,7.88,1.98,2.47,1.32,4.39,3.19,5.74,5.6,1.36,2.41,2.03,5.12,2.03,8.13,0,3.21-.76,6.23-2.27,9.05-1.52,2.82-3.59,5.04-6.22,6.64s-5.91,2.41-9.83,2.41c-6.77,0-11.8-2.41-15.09-7.24-3.29-4.83-4.94-10.87-4.94-18.14,0-5.21,.85-9.96,2.56-14.24,1.71-4.28,4.16-7.6,7.35-9.96,3.19-2.36,7.52-3.54,12.99-3.54,1.71,0,3.39,.1,5.04,.29,1.65,.19,4.23,.71,7.74,1.55v7.35c-4.63-1.91-8.75-2.87-12.37-2.87-2.67,0-4.9,.68-6.72,2.05s-3.28,3.48-4.39,6.34c-1.12,2.86-1.67,6.31-1.67,10.34Zm17.67,11.47c0-3.48-.79-6.18-2.36-8.1-1.57-1.92-3.59-2.88-6.05-2.88-2.28,0-4.32,.87-6.12,2.61-1.8,1.74-2.7,4.03-2.7,6.88s.73,5.66,2.2,8.11,3.74,3.67,6.82,3.67c2.42,0,4.39-.9,5.91-2.7,1.53-1.8,2.29-4.32,2.29-7.58Z"/></svg>