<?xml version="1.0" encoding="UTF-8"?><svg id="Layer" xmlns="http://www.w3.org/2000/svg" xmlns:xlink="http://www.w3.org/1999/xlink" viewBox="0 0 721 379.91"><defs><style>.cls-1{fill:url(#linear-gradient-2);}.cls-2{fill:#1f1f1e;}.cls-3{fill:#fff;opacity:0;stroke:#1d1d1b;stroke-miterlimit:10;}.cls-4{fill:url(#Nowy_wzorek_3);opacity:.1;}.cls-4,.cls-5{isolation:isolate;}.cls-6{fill:#ffd113;}.cls-7{fill:#e62b23;}.cls-8{fill:none;}.cls-5{opacity:.05;}.cls-5,.cls-9{fill:#030304;}.cls-10{fill:url(#linear-gradient-3);}.cls-11{fill:url(#linear-gradient);}.cls-12{fill:url(#linear-gradient-4);}</style><linearGradient id="linear-gradient" x1="461.25" y1="70.72" x2="259.75" y2="272.2" gradientTransform="translate(0 361.41) scale(1 -1)" gradientUnits="userSpaceOnUse"><stop offset="0" stop-color="#9e9d9c"/><stop offset=".54" stop-color="#010202"/><stop offset="1" stop-color="#9e9d9c"/></linearGradient><linearGradient id="linear-gradient-2" x1="360.57" y1="87.98" x2="360.57" y2="254.94" gradientTransform="translate(0 361.41) scale(1 -1)" gradientUnits="userSpaceOnUse"><stop offset="0" stop-color="#462c1b"/><stop offset="1" stop-color="#b18048"/></linearGradient><linearGradient id="linear-gradient-3" x1="360.51" y1="92.2" x2="360.51" y2="250.88" gradientTransform="translate(0 361.41) scale(1 -1)" gradientUnits="userSpaceOnUse"><stop offset="0" stop-color="#946137"/><stop offset="1" stop-color="#805127"/></linearGradient><pattern id="Nowy_wzorek_3" x="0" y="0" width="19.7" height="21.7" patternTransform="translate(-380.57 -32160.49) scale(1 -1)" patternUnits="userSpaceOnUse" viewBox="0 0 19.7 21.7"><g><rect class="cls-8" width="19.7" height="21.7"/><g><rect class="cls-8" width="19.7" height="21.7"/><g><rect class="cls-8" width="19.7" height="21.7"/><g><rect class="cls-8" width="19.7" height="21.7"/><g><rect class="cls-8" width="19.7" height="21.7"/><g><rect class="cls-8" width="19.7" height="21.7"/><path class="cls-2" d="M16.6,13c2.1-2.1,2.1-5.6,0-7.7l-1.2-1.2c-2.1-2.1-5.6-2.1-7.8,0L3.1,8.7c-2.1,2.1-2.1,5.6,0,7.7l1.2,1.2c2.1,2.1,5.6,2.1,7.7,0l4.6-4.6Z"/></g></g></g></g></g></g></pattern><linearGradient id="linear-gradient-4" x1="-642.71" y1="1628.24" x2="-565.27" y2="1550.8" gradientTransform="translate(-312.49 -1361.1) rotate(-45)" gradientUnits="userSpaceOnUse"><stop offset="0" stop-color="#951919"/><stop offset=".21" stop-color="#b9251d"/><stop offset=".47" stop-color="#e62b23"/><stop offset=".55" stop-color="#e62f2a"/><stop offset=".84" stop-color="#e73a3b"/><stop offset="1" stop-color="#e83e41"/></linearGradient></defs><rect class="cls-3" x=".5" y=".5" width="720" height="378.91"/><g><g id="prodBg"><rect id="external-border" class="cls-11" x="247.14" y="101.82" width="226.72" height="176.27"/><rect id="internal-border" class="cls-1" x="251.78" y="106.48" width="217.57" height="166.95"/><rect id="bg" class="cls-10" x="255.87" y="110.54" width="209.28" height="158.68"/><rect id="bgPattern" class="cls-4" x="255.87" y="110.54" width="209.28" height="158.68"/></g><g id="heat-2"><rect class="cls-9" x="326.28" y="131.85" width="116.22" height="116.22"/><rect class="cls-12" x="329.63" y="135.19" width="109.51" height="109.51"/><rect class="cls-7" x="334.95" y="140.51" width="98.88" height="98.88"/><path id="darker-2" class="cls-5" d="M439.15,244.71h-109.51v-60.02s34.49,5.32,54.71,5.32,54.8-5.32,54.8-5.32v60.02Z"/><g><polygon class="cls-6" points="372.06 195.04 359.56 184.22 359.56 184.22 359.56 151.23 347.08 184.88 359.65 195.49 359.65 195.49 359.56 228.67 372.06 195.04"/><polygon class="cls-6" points="396.93 195.04 384.45 184.22 384.35 184.22 384.45 151.23 371.96 184.88 384.45 195.49 384.45 195.49 384.45 228.67 396.93 195.04"/><polygon class="cls-6" points="422.46 195.04 409.97 184.22 409.88 184.22 409.97 151.23 397.49 184.88 409.97 195.49 409.97 195.49 409.97 228.67 422.46 195.04"/></g></g><path d="M275.85,214.7c.29-2.4,.72-4.45,1.28-6.13,.56-1.68,1.48-3.7,2.75-6.05,1.27-2.35,3.96-6.52,8.07-12.52l11.72-17.08h-25.94v-8.09h34.1v8.09c-4.78,6.02-8.6,11.49-11.44,16.42-2.84,4.93-5.13,9.51-6.87,13.75-1.74,4.23-2.61,8.1-2.61,11.61h-11.05Z"/></g></svg>