<?xml version="1.0" encoding="UTF-8"?><svg id="Layer" xmlns="http://www.w3.org/2000/svg" xmlns:xlink="http://www.w3.org/1999/xlink" viewBox="0 0 721 379.91"><defs><style>.cls-1,.cls-2{fill:#030404;}.cls-3{fill:#cf1820;}.cls-4{fill:#20201e;}.cls-5{fill:url(#linear-gradient-6);}.cls-6{stroke:#030304;stroke-width:2.35px;}.cls-6,.cls-7,.cls-8,.cls-9,.cls-10,.cls-11,.cls-12{stroke-miterlimit:10;}.cls-6,.cls-9,.cls-13,.cls-11,.cls-12{fill:none;}.cls-2{opacity:.15;}.cls-2,.cls-14,.cls-15,.cls-16{isolation:isolate;}.cls-7{opacity:0;stroke:#1d1d1b;}.cls-7,.cls-8{fill:#fff;}.cls-8{stroke-width:.92px;}.cls-8,.cls-9,.cls-10,.cls-11,.cls-12{stroke:#030404;}.cls-17{fill:url(#radial-gradient);}.cls-14{fill:url(#bgPattern_000000045383621950329);opacity:.1;}.cls-18{fill:url(#linear-gradient-5);}.cls-9{stroke-width:5.15px;}.cls-19{fill:url(#linear-gradient-7);}.cls-15{fill:#e03f19;opacity:.5;}.cls-20{fill:#80368c;}.cls-16{fill:url(#linear-gradient-2);opacity:.31;}.cls-21{fill:url(#linear-gradient-3);}.cls-10{fill:url(#linear-gradient);}.cls-10,.cls-12{stroke-width:3.44px;}.cls-11{stroke-width:2.57px;}.cls-22{fill:url(#linear-gradient-4);}.cls-12{stroke-linecap:square;}</style><linearGradient id="linear-gradient" x1="566.87" y1="524.45" x2="566.87" y2="376.33" gradientTransform="translate(0 -258.43)" gradientUnits="userSpaceOnUse"><stop offset="0" stop-color="#95191b"/><stop offset=".21" stop-color="#b13c1e"/><stop offset=".44" stop-color="#cb5e26"/><stop offset=".66" stop-color="#e27a34"/><stop offset=".85" stop-color="#ef8e3b"/><stop offset="1" stop-color="#f3943d"/></linearGradient><radialGradient id="radial-gradient" cx="567.01" cy="450.39" fx="567.01" fy="450.39" r="84.38" gradientTransform="translate(0 -258.43)" gradientUnits="userSpaceOnUse"><stop offset="0" stop-color="#f3943d" stop-opacity=".5"/><stop offset="1" stop-color="#d34118"/></radialGradient><linearGradient id="linear-gradient-2" x1="567.01" y1="524.45" x2="567.01" y2="430.12" gradientTransform="translate(0 -258.43)" gradientUnits="userSpaceOnUse"><stop offset="0" stop-color="#20201e"/><stop offset="1" stop-color="#403e3c"/></linearGradient><linearGradient id="linear-gradient-3" x1="351.62" y1="460.56" x2="351.62" y2="406.34" gradientTransform="translate(0 -241.42)" gradientUnits="userSpaceOnUse"><stop offset="0" stop-color="#522b16"/><stop offset=".45" stop-color="#522b16" stop-opacity=".7"/><stop offset=".58" stop-color="#e03f19" stop-opacity=".5"/><stop offset="1" stop-color="#e03f19" stop-opacity=".5"/></linearGradient><linearGradient id="linear-gradient-4" x1="242.46" y1="529.59" x2="82.05" y2="369.17" gradientTransform="translate(0 -257.42)" gradientUnits="userSpaceOnUse"><stop offset="0" stop-color="#9f9d9c"/><stop offset=".54" stop-color="#020303"/><stop offset="1" stop-color="#9f9d9c"/></linearGradient><linearGradient id="linear-gradient-5" x1="162.19" y1="524.25" x2="162.19" y2="374.5" gradientTransform="translate(0 -257.42)" gradientUnits="userSpaceOnUse"><stop offset="0" stop-color="#472d1c"/><stop offset="1" stop-color="#b18047"/></linearGradient><linearGradient id="linear-gradient-6" x1="162.12" y1="520.59" x2="162.12" y2="378.17" gradientTransform="translate(0 -257.42)" gradientUnits="userSpaceOnUse"><stop offset="0" stop-color="#946137"/><stop offset="1" stop-color="#815228"/></linearGradient><pattern id="bgPattern_000000045383621950329" x="0" y="0" width="19.7" height="21.7" patternTransform="translate(-18.05 18.32)" patternUnits="userSpaceOnUse" viewBox="0 0 19.7 21.7"><g><rect class="cls-13" width="19.7" height="21.7"/><g><rect class="cls-13" width="19.7" height="21.7"/><g><rect class="cls-13" width="19.7" height="21.7"/><g><rect class="cls-13" width="19.7" height="21.7"/><g><rect class="cls-13" width="19.7" height="21.7"/><g><rect class="cls-13" width="19.7" height="21.7"/><g><rect class="cls-13" width="19.7" height="21.7"/><path class="cls-4" d="M16.6,8.7c2.1,2.1,2.1,5.6,0,7.7l-1.2,1.2c-2.1,2.1-5.6,2.1-7.8,0L3.1,13c-2.1-2.1-2.1-5.6,0-7.7l1.2-1.2c2.1-2.1,5.6-2.1,7.7,0l4.6,4.6Z"/></g></g></g></g></g></g></g></pattern><linearGradient id="linear-gradient-7" x1="-804.24" y1="1484.37" x2="-727.66" y2="1407.77" gradientTransform="translate(-318.8 -1372.1) rotate(-45)" gradientUnits="userSpaceOnUse"><stop offset="0" stop-color="#1d1527"/><stop offset=".24" stop-color="#372348"/><stop offset=".49" stop-color="#583c6c"/><stop offset=".71" stop-color="#73518d"/><stop offset=".89" stop-color="#835ca1"/><stop offset="1" stop-color="#8964a8"/></linearGradient></defs><rect class="cls-7" x=".5" y=".5" width="720" height="378.91"/><g id="tr"><rect class="cls-10" x="462.1" y="117.89" width="209.54" height="148.12"/><rect class="cls-17" x="468.62" y="124.42" width="196.77" height="135.08"/><g id="logo"><g><circle class="cls-9" cx="567.01" cy="187.06" r="38.05"/><path class="cls-11" d="M567.01,149.01s19.7,8.02,19.7,38.05-19.7,38.05-19.7,38.05"/><path class="cls-11" d="M567.01,149.01s-19.7,8.02-19.7,38.05,19.7,38.05,19.7,38.05"/><line class="cls-11" x1="567.01" y1="149.01" x2="567.01" y2="225.25"/><line class="cls-11" x1="528.96" y1="187.06" x2="605.19" y2="187.06"/><path class="cls-11" d="M537.38,163.14s11.14,5.71,29.49,5.71,29.49-5.71,29.49-5.71"/><path class="cls-11" d="M537.38,211.66c0-.14,11.14-5.71,29.49-5.71s29.49,5.71,29.49,5.71"/><polygon class="cls-1" points="589.84 155.81 600.03 146.57 586.57 143.85 615.79 135.42 609.13 165.86 605.19 150.78 595.54 161.92 589.84 155.81"/><polyline class="cls-12" points="567.01 233.94 553.28 233.94 559.12 233.94 559.12 247.53"/><polyline class="cls-12" points="576.79 247.53 576.79 233.94 574.21 233.94 570.95 243.05 570 243.05 567.28 238.84 565.1 238.84 565.1 247.53"/><path class="cls-1" d="M554.37,242.64c0,2.04-5.16,5.16-7.2,5.16s-14.4,.82-14.4-1.22,12.37-6.39,14.4-6.39c2.04,.14,7.2,.27,7.2,2.45Z"/><path class="cls-1" d="M548.12,237.88c-1.22,1.09-5.84-.68-6.79-1.9s-7.61-8.43-6.39-9.38,9.92,4.62,11.01,5.84c1.09,1.22,3.4,4.48,2.17,5.44h0Z"/><path class="cls-1" d="M539.01,240.33c-.41,1.49-4.76,3.26-6.52,2.99-1.49-.41-14.54-1.36-14.27-2.99s13.86-3.26,15.49-2.99c1.77,.41,5.71,1.49,5.3,2.99h0Z"/><path class="cls-1" d="M535.61,236.25c-1.49,.54-5.3-2.45-5.84-3.94s-6.52-13.18-5.16-13.73,9.92,10.06,10.6,11.69c.54,1.49,1.77,5.44,.41,5.98h0Z"/><path class="cls-1" d="M526.24,235.57c-1.09,1.49-5.98,1.49-7.34,.68s-13.59-6.66-12.5-8.29,14.81,1.77,16.17,2.72c1.22,.82,4.62,3.26,3.67,4.89h0Z"/><path class="cls-1" d="M522.7,230c-1.77,0-4.08-3.94-4.08-5.44s-1.36-13.73,.41-13.73,5.84,12.37,5.84,13.86c-.27,1.36-.41,5.3-2.17,5.3h0Z"/><path class="cls-1" d="M513.74,219.54c-1.49-.41-3.13-4.62-2.72-6.12,.41-1.36,1.77-13.32,3.26-13.05,1.49,.41,2.72,13.05,2.45,14.4-.54,1.49-1.49,5.16-2.99,4.76h0Z"/><path class="cls-1" d="M514.55,226.33c-1.36,1.09-5.98-.54-7.07-1.77-1.09-1.36-10.6-10.46-9.24-11.55s13.05,6.39,14.13,7.61,3.4,4.62,2.17,5.71h0Z"/><path class="cls-1" d="M506.67,213.42c-1.36,.68-5.44-1.49-6.12-2.99s-8.02-11.69-6.52-12.5c1.36-.68,11.01,8.43,11.69,9.78s2.31,4.76,.95,5.71h0Z"/><path class="cls-1" d="M507.49,208.4c-1.22-.54-1.77-4.76-1.22-6.12s3.8-13.18,5.03-12.64,.14,13.05-.41,14.4c-.68,1.49-2.17,4.89-3.4,4.35h0Z"/><path class="cls-1" d="M502.19,200.38c-1.36,.41-4.35-3.13-4.62-4.76-.41-1.49-4.35-13.59-3.13-13.86,1.36-.41,7.61,11.28,7.88,12.91,.41,1.36,1.22,5.44-.14,5.71h0Z"/><path class="cls-1" d="M504.63,195.08c-1.22-.68-1.09-4.62-.41-5.84s5.16-10.87,6.39-10.19-1.49,11.69-2.17,12.77c-.82,1.09-2.72,3.94-3.81,3.26h0Z"/><path class="cls-1" d="M500.96,185.16c-1.36-.14-3.26-4.08-3.13-5.71s-.14-13.32,1.22-13.32c1.36,.14,3.94,12.37,3.8,13.86s-.54,5.44-1.9,5.16Z"/><path class="cls-1" d="M504.36,181.22c-.82-.82,.54-4.76,1.49-5.71s8.56-9.51,9.51-8.43c.82,.82-5.3,11.01-6.39,11.82-.95,.95-3.67,3.4-4.62,2.31h0Z"/><path class="cls-1" d="M509.52,168.72c-.68-.82,.41-3.8,1.22-4.62,.82-.68,6.79-7.61,7.61-6.66s-4.08,8.83-5.03,9.65c-1.09,.54-3.13,2.31-3.8,1.63h0Z"/><path class="cls-1" d="M503.68,170.48c-1.09-.41-1.77-4.48-1.36-5.84s2.72-13.05,3.8-12.91c1.09,.41,.54,12.5,.14,13.86-.14,1.77-1.36,5.44-2.58,4.89Z"/><path class="cls-1" d="M510.2,161.38c-1.36-.54-2.04-4.62-1.49-5.98s3.26-12.5,4.62-11.96,.68,12.5,.14,13.86c-.54,1.09-1.9,4.62-3.26,4.08h0Z"/><path class="cls-1" d="M579.78,242.1c0,2.04,5.16,5.16,7.2,5.16s14.4,.82,14.4-1.22-12.37-6.39-14.4-6.39-7.2,.41-7.2,2.45Z"/><path class="cls-1" d="M585.89,237.34c1.22,1.09,5.84-.68,6.79-1.9s7.61-8.43,6.39-9.38c-1.22-1.09-9.92,4.62-11.01,5.84-.95,1.22-3.4,4.48-2.17,5.44h0Z"/><path class="cls-1" d="M595,239.79c.41,1.49,4.76,3.26,6.52,2.99,1.49-.41,14.54-1.36,14.27-2.99-.41-1.49-13.86-3.26-15.49-2.99-1.63,.41-5.57,1.49-5.3,2.99h0Z"/><path class="cls-1" d="M598.4,235.71c1.49,.54,5.3-2.45,5.84-3.94s6.52-13.18,5.03-13.73-9.92,10.06-10.6,11.69c-.41,1.49-1.63,5.44-.27,5.98h0Z"/><path class="cls-1" d="M607.91,235.03c1.09,1.49,5.98,1.49,7.34,.68s13.32-6.66,12.37-8.29c-1.09-1.49-14.81,1.77-16.17,2.72-1.09,.95-4.62,3.26-3.53,4.89h0Z"/><path class="cls-1" d="M611.31,229.46c1.77,0,4.08-3.94,4.08-5.44s1.36-13.73-.41-13.73-5.84,12.37-5.84,13.86c.27,1.63,.54,5.3,2.17,5.3h0Z"/><path class="cls-1" d="M620.41,219c1.49-.41,3.13-4.62,2.72-6.12-.41-1.36-1.77-13.32-3.26-13.05-1.49,.41-2.72,13.05-2.45,14.4,.41,1.49,1.49,5.16,2.99,4.76h0Z"/><path class="cls-1" d="M619.6,225.79c1.36,1.09,5.98-.54,7.07-1.77,1.09-1.36,10.6-10.46,9.24-11.55s-13.05,6.39-14.13,7.61c-.95,1.36-3.4,4.62-2.17,5.71h0Z"/><path class="cls-1" d="M627.48,212.88c1.36,.68,5.44-1.49,6.12-2.99s8.02-11.69,6.52-12.5c-1.36-.68-11.01,8.43-11.69,9.78s-2.31,5.03-.95,5.71h0Z"/><path class="cls-1" d="M626.66,208.12c1.22-.54,1.9-4.76,1.22-6.12s-3.8-13.18-5.03-12.64-.14,13.05,.41,14.4c.68,1.22,2.17,4.76,3.4,4.35h0Z"/><path class="cls-1" d="M631.96,199.84c1.36,.41,4.35-3.13,4.62-4.76,.41-1.49,4.48-13.59,3.13-13.86s-7.61,11.28-7.88,12.91c-.41,1.63-1.22,5.57,.14,5.71h0Z"/><path class="cls-1" d="M629.52,194.54c1.22-.68,1.22-4.62,.41-5.84-.68-1.22-5.3-10.87-6.39-10.19s1.49,11.69,2.17,12.77c.68,1.22,2.58,4.08,3.81,3.26h0Z"/><path class="cls-1" d="M633.18,184.75c1.36-.14,3.26-4.08,3.13-5.71-.14-1.49,.14-13.59-1.22-13.32-1.36,.14-3.94,12.37-3.8,13.86,0,1.49,.41,5.3,1.9,5.16Z"/><path class="cls-1" d="M629.65,180.81c.82-.82-.54-4.76-1.49-5.71s-8.56-9.51-9.51-8.43c-.82,.82,5.3,11.01,6.39,11.82s3.8,3.26,4.62,2.31h0Z"/><path class="cls-1" d="M624.62,168.31c.68-.82-.41-3.8-1.22-4.62s-6.79-7.61-7.61-6.66,4.08,8.83,5.03,9.65c.82,.54,2.99,2.31,3.8,1.63h0Z"/><path class="cls-1" d="M630.19,170.08c1.09-.41,1.77-4.48,1.36-5.84s-2.72-13.05-3.8-12.91c-1.09,.41-.54,12.5-.14,13.86,.41,1.63,1.63,5.3,2.58,4.89h0Z"/><path class="cls-1" d="M623.81,160.83c1.36-.54,2.04-4.62,1.49-5.98s-3.26-12.5-4.62-11.96-.68,12.5-.14,13.86c.54,1.22,1.9,4.62,3.26,4.08h0Z"/></g></g><path id="darker" class="cls-16" d="M671.1,171.98c-3.26,6.52-58.57,17.12-103.96,17.12s-101.65-11.69-104.91-17.12v94.04h209.54v-92.95c-.14-1.22-.54-1.77-.68-1.09h0Z"/></g><g id="arrow"><path class="cls-15" d="M427.31,191.95l-72.02-33.29,8.7,17.26h-81.26s-2.45,7.75-2.45,15.36,2.45,13.59,2.45,13.59h82.76l-10.19,20.38,72.02-33.29h0Z"/><path class="cls-21" d="M370.23,202.01h-85.48c-.68-2.17-1.63-6.25-1.63-10.74,0-4.76,1.09-9.65,1.77-12.37h83.71l-7.07-14,58.57,27.18-58.57,27.04,8.7-17.12h0Z"/><path class="cls-3" d="M376.49,198.07h-88.6c-.41-1.9-.68-4.21-.68-6.79,0-2.99,.54-5.98,.95-8.43h86.97l-4.89-9.78,40.9,18.89-40.9,18.89,6.25-12.77h0Z"/><path class="cls-6" d="M370.23,202.01h-85.48c-.68-2.17-1.63-6.25-1.63-10.74,0-4.76,1.09-9.65,1.77-12.37h83.71l-7.07-14,58.57,27.18-58.57,27.04,8.7-17.12h0Z"/></g><g id="prodBg"><rect id="external-border" class="cls-22" x="80.92" y="112.86" width="162.66" height="158.18"/><rect id="internal-border" class="cls-18" x="85" y="117.08" width="154.37" height="149.75"/><rect id="bg" class="cls-5" x="88.67" y="120.75" width="146.9" height="142.41"/><rect id="bgPattern" class="cls-14" x="88.67" y="120.75" width="146.9" height="142.41"/></g><g id="energy"><rect class="cls-1" x="104.7" y="134.47" width="114.96" height="114.96"/><rect class="cls-19" x="107.96" y="137.87" width="108.31" height="108.31"/><polygon class="cls-20" points="211.11 143.17 211.11 240.87 113.26 240.87 113.26 143.17 211.11 143.17"/><polygon class="cls-8" points="150.23 180.81 182.57 160.83 165.31 185.84 174.42 200.65 142.62 220.63 158.65 195.76 150.23 180.81"/><path id="darker-2" class="cls-2" d="M216.41,246.17H108.1v-59.38s34.11,5.3,54.08,5.3,54.22-5.3,54.22-5.3v59.38h0Z"/></g><path d="M47.36,195.76v-10.06h24.19v10.06h-24.19Z"/></svg>