<?xml version="1.0" encoding="UTF-8"?><svg id="Layer" xmlns="http://www.w3.org/2000/svg" xmlns:xlink="http://www.w3.org/1999/xlink" viewBox="0 0 721 379.91"><defs><style>.cls-1{fill:url(#linear-gradient-2);}.cls-2{fill:url(#linear-gradient-6);}.cls-3{fill:#010202;stroke:#030304;stroke-width:1.92px;}.cls-3,.cls-4{stroke-miterlimit:10;}.cls-5{fill:#1f1f1e;}.cls-6{fill:url(#linear-gradient-11);}.cls-4{fill:#fff;opacity:0;stroke:#1d1d1b;}.cls-7{fill:url(#Nowy_wzorek_3);isolation:isolate;opacity:.1;}.cls-8{fill:url(#linear-gradient-10);}.cls-9{fill:url(#linear-gradient-5);}.cls-10{fill:none;}.cls-11{fill:url(#linear-gradient-7);}.cls-12{fill:url(#linear-gradient-9);}.cls-13{fill:url(#linear-gradient-3);}.cls-14{fill:url(#linear-gradient);}.cls-15{fill:url(#linear-gradient-4);}.cls-16{fill:#010101;}.cls-17{fill:url(#linear-gradient-8);}</style><linearGradient id="linear-gradient" x1="338.6" y1="530.93" x2="161.92" y2="354.25" gradientTransform="translate(0 -252.64)" gradientUnits="userSpaceOnUse"><stop offset="0" stop-color="#9e9d9c"/><stop offset=".54" stop-color="#010202"/><stop offset="1" stop-color="#9e9d9c"/></linearGradient><linearGradient id="linear-gradient-2" x1="250.33" y1="525.85" x2="250.33" y2="359.36" gradientTransform="translate(0 -252.64)" gradientUnits="userSpaceOnUse"><stop offset="0" stop-color="#462c1b"/><stop offset="1" stop-color="#b18048"/></linearGradient><linearGradient id="linear-gradient-3" x1="250.26" y1="521.63" x2="250.26" y2="363.42" gradientTransform="translate(0 -252.64)" gradientUnits="userSpaceOnUse"><stop offset="0" stop-color="#946137"/><stop offset="1" stop-color="#805127"/></linearGradient><pattern id="Nowy_wzorek_3" x="0" y="0" width="19.7" height="21.7" patternTransform="translate(43.9 16649.47)" patternUnits="userSpaceOnUse" viewBox="0 0 19.7 21.7"><g><rect class="cls-10" width="19.7" height="21.7"/><g><rect class="cls-10" width="19.7" height="21.7"/><g><rect class="cls-10" width="19.7" height="21.7"/><g><rect class="cls-10" width="19.7" height="21.7"/><g><rect class="cls-10" width="19.7" height="21.7"/><path class="cls-5" d="M16.6,8.7c2.1,2.1,2.1,5.6,0,7.7l-1.2,1.2c-2.1,2.1-5.6,2.1-7.8,0L3.1,13c-2.1-2.1-2.1-5.6,0-7.7l1.2-1.2c2.1-2.1,5.6-2.1,7.7,0l4.6,4.6Z"/></g></g></g></g></g></pattern><linearGradient id="linear-gradient-4" x1="251.32" y1="498.47" x2="251.32" y2="388.6" gradientTransform="translate(0 -253.65)" gradientUnits="userSpaceOnUse"><stop offset=".16" stop-color="#823a13"/><stop offset=".18" stop-color="#985c1a"/><stop offset=".22" stop-color="#ae7d22"/><stop offset=".26" stop-color="#c39d26"/><stop offset=".3" stop-color="#d6b92e"/><stop offset=".35" stop-color="#e4cf36"/><stop offset=".41" stop-color="#efe036"/><stop offset=".48" stop-color="#f6e947"/><stop offset=".58" stop-color="#f8ea4e"/><stop offset=".86" stop-color="#f6ea4d"/><stop offset="1" stop-color="#fcf4f9"/></linearGradient><linearGradient id="linear-gradient-5" x1="251.32" y1="382.75" x2="251.32" y2="550.7" gradientTransform="translate(0 -253.65)" gradientUnits="userSpaceOnUse"><stop offset=".26" stop-color="#f6ea4d"/><stop offset=".86" stop-color="#803813"/></linearGradient><linearGradient id="linear-gradient-6" x1="251.38" y1="496.96" x2="251.38" y2="390.22" gradientTransform="translate(0 -253.65)" gradientUnits="userSpaceOnUse"><stop offset=".16" stop-color="#803813"/><stop offset=".17" stop-color="#8c471e"/><stop offset=".18" stop-color="#a26b3c"/><stop offset=".2" stop-color="#b78954"/><stop offset=".22" stop-color="#c7a468"/><stop offset=".24" stop-color="#d7bb7a"/><stop offset=".26" stop-color="#e2cc88"/><stop offset=".3" stop-color="#ead891"/><stop offset=".34" stop-color="#eede97"/><stop offset=".46" stop-color="#efe097"/><stop offset=".7" stop-color="#803813"/><stop offset=".73" stop-color="#e6d234"/><stop offset=".74" stop-color="#ebd948"/><stop offset=".75" stop-color="#eede6d"/><stop offset=".77" stop-color="#f0e28a"/><stop offset=".79" stop-color="#f8ebaa"/><stop offset=".8" stop-color="#f8edbf"/><stop offset=".83" stop-color="#faf0cf"/><stop offset=".85" stop-color="#fcf2da"/><stop offset=".89" stop-color="#fdf4e1"/><stop offset=".99" stop-color="#fdf5e3"/></linearGradient><linearGradient id="linear-gradient-7" x1="251.31" y1="405.88" x2="251.31" y2="570.63" gradientTransform="translate(0 -253.65)" gradientUnits="userSpaceOnUse"><stop offset=".26" stop-color="#f6ea4d"/><stop offset=".77" stop-color="#803813"/></linearGradient><linearGradient id="linear-gradient-8" x1="501.32" x2="501.32" xlink:href="#linear-gradient-4"/><linearGradient id="linear-gradient-9" x1="501.32" x2="501.32" xlink:href="#linear-gradient-5"/><linearGradient id="linear-gradient-10" x1="501.38" x2="501.38" xlink:href="#linear-gradient-6"/><linearGradient id="linear-gradient-11" x1="501.31" x2="501.31" xlink:href="#linear-gradient-7"/></defs><rect class="cls-4" x=".5" y=".5" width="720" height="378.91"/><g><g id="prodBg"><rect id="external-border" class="cls-14" x="161.45" y="102.08" width="177.62" height="175.75"/><rect id="internal-border" class="cls-1" x="166.09" y="106.72" width="168.48" height="166.49"/><rect id="bg" class="cls-13" x="170.16" y="110.78" width="160.21" height="158.21"/><rect id="bgPattern" class="cls-7" x="170.16" y="110.78" width="160.21" height="158.21"/></g><g id="mln"><polygon id="obram_czarne" class="cls-3" points="210.65 131.6 192.99 149.26 192.99 230.52 210.65 248.18 291.99 248.18 309.55 230.52 309.55 149.26 291.99 131.6 210.65 131.6"/><polygon id="obram_zolte" class="cls-15" points="212.94 134.95 196.42 151.55 196.42 228.23 212.94 244.83 289.62 244.83 306.22 228.23 306.22 151.55 289.62 134.95 212.94 134.95"/><polygon id="tlo_wew" class="cls-9" points="214.08 136.57 197.96 152.71 197.96 227.09 214.08 243.21 288.56 243.21 304.68 227.09 304.68 152.71 288.56 136.57 214.08 136.57"/><path id="obram_skosne" class="cls-2" d="M296.96,210.47c-2.95,0-5.35-2.4-5.35-5.35v-30.45c0-2.95,2.4-5.35,5.35-5.35h7.64v-16.6l-16.05-16.15h-16.7v7.64c0,2.95-2.4,5.35-5.35,5.35h-30.45c-2.95,0-5.35-2.4-5.35-5.35v-7.64h-16.6l-16.15,16.15v16.7h7.64c2.95,0,5.35,2.4,5.35,5.35v30.45c0,2.95-2.4,5.35-5.35,5.35h-7.64v16.6l16.15,16.15h16.7v-7.64c0-2.95,2.4-5.35,5.35-5.35h30.45c2.95,0,5.35,2.4,5.35,5.35v7.64h16.7l16.15-16.15v-16.7h-7.85Z"/><path id="tlo_zew" class="cls-11" d="M296.68,212.28c-3.63,0-6.58-3.63-6.58-7.27v-30.28c0-3.63,2.95-7.27,6.58-7.27h6.21v-13.55l-15.67-15.57h-13.47v6.21c0,3.63-3.63,6.58-7.27,6.58h-30.28c-3.63,0-7.27-2.95-7.27-6.58v-6.21h-13.65l-15.57,15.57v13.55h6.21c3.63,0,6.58,3.63,6.58,7.27v30.28c0,3.63-2.95,7.27-6.58,7.27h-6.21v13.55l15.57,15.57h13.55v-6.21c0-3.63,3.63-6.58,7.27-6.58h30.17c3.63,0,7.27,2.95,7.27,6.58v6.21h13.55l15.57-15.57v-13.55h-5.98Z"/></g><path class="cls-16" d="M261.92,214.27v-43.5h-6.58l-.2-4.92,16.63-1.44v49.85h-9.84Z"/><path d="M228.91,193.3v-7.23h17.34v7.23h-17.34Z"/><g id="mln-2"><polygon id="obram_czarne-2" class="cls-3" points="460.65 131.6 442.99 149.26 442.99 230.52 460.65 248.18 541.99 248.18 559.55 230.52 559.55 149.26 541.99 131.6 460.65 131.6"/><polygon id="obram_zolte-2" class="cls-17" points="462.94 134.95 446.42 151.55 446.42 228.23 462.94 244.83 539.62 244.83 556.22 228.23 556.22 151.55 539.62 134.95 462.94 134.95"/><polygon id="tlo_wew-2" class="cls-12" points="464.08 136.57 447.96 152.71 447.96 227.09 464.08 243.21 538.56 243.21 554.68 227.09 554.68 152.71 538.56 136.57 464.08 136.57"/><path id="obram_skosne-2" class="cls-8" d="M546.96,210.47c-2.95,0-5.35-2.4-5.35-5.35v-30.45c0-2.95,2.4-5.35,5.35-5.35h7.64v-16.6l-16.05-16.15h-16.7v7.64c0,2.95-2.4,5.35-5.35,5.35h-30.45c-2.95,0-5.35-2.4-5.35-5.35v-7.64h-16.6l-16.15,16.15v16.7h7.64c2.95,0,5.35,2.4,5.35,5.35v30.45c0,2.95-2.4,5.35-5.35,5.35h-7.64v16.6l16.15,16.15h16.7v-7.64c0-2.95,2.4-5.35,5.35-5.35h30.45c2.95,0,5.35,2.4,5.35,5.35v7.64h16.7l16.15-16.15v-16.7h-7.85Z"/><path id="tlo_zew-2" class="cls-6" d="M546.68,212.28c-3.63,0-6.58-3.63-6.58-7.27v-30.28c0-3.63,2.95-7.27,6.58-7.27h6.21v-13.55l-15.67-15.57h-13.47v6.21c0,3.63-3.63,6.58-7.27,6.58h-30.28c-3.63,0-7.27-2.95-7.27-6.58v-6.21h-13.65l-15.57,15.57v13.55h6.21c3.63,0,6.58,3.63,6.58,7.27v30.28c0,3.63-2.95,7.27-6.58,7.27h-6.21v13.55l15.57,15.57h13.55v-6.21c0-3.63,3.63-6.58,7.27-6.58h30.17c3.63,0,7.27,2.95,7.27,6.58v6.21h13.55l15.57-15.57v-13.55h-5.98Z"/></g><g><path d="M473.4,212.27v-40.24h-6.09l-.18-4.55,15.38-1.32v46.11h-9.11Z"/><path d="M518,213.41c-3.65,0-6.8-1.02-9.44-3.05-2.65-2.03-4.68-4.94-6.09-8.74-1.41-3.79-2.12-7.83-2.12-12.12s.7-8.3,2.11-12.1c1.4-3.8,3.44-6.72,6.11-8.75,2.67-2.03,5.81-3.05,9.44-3.05s6.72,1,9.38,3.01c2.67,2.01,4.71,4.92,6.12,8.72s2.12,7.86,2.12,12.17-.68,8.13-2.03,11.89c-1.35,3.76-3.35,6.71-6,8.83-2.65,2.12-5.84,3.18-9.6,3.18Zm0-5.69c2.73,0,4.74-1.51,6.03-4.52s1.94-7.78,1.94-14.3c0-5.86-.66-10.26-1.98-13.2-1.32-2.93-3.32-4.4-5.98-4.4s-4.74,1.5-6.04,4.51-1.95,7.77-1.95,14.29c0,5.87,.67,10.27,2,13.21,1.33,2.94,3.33,4.41,6,4.41Z"/></g></g></svg>