<?xml version="1.0" encoding="UTF-8"?><svg id="Layer" xmlns="http://www.w3.org/2000/svg" xmlns:xlink="http://www.w3.org/1999/xlink" viewBox="0 0 721 379.91"><defs><style>.cls-1{stroke:url(#linear-gradient-2);}.cls-1,.cls-2,.cls-3,.cls-4,.cls-5,.cls-6,.cls-7{stroke-miterlimit:10;}.cls-1,.cls-5,.cls-7{stroke-width:3.55px;}.cls-1,.cls-7{fill:#e2161c;}.cls-2{stroke-width:1.11px;}.cls-2,.cls-4,.cls-5{fill:none;}.cls-2,.cls-5{stroke:#1f1f1e;}.cls-8{fill:url(#linear-gradient-6);}.cls-3{opacity:0;stroke:#1d1d1b;}.cls-3,.cls-6{fill:#fff;}.cls-4{stroke:#020303;stroke-width:1.83px;}.cls-9{opacity:.15;}.cls-9,.cls-10{isolation:isolate;}.cls-9,.cls-11{fill:#030304;}.cls-12{fill:url(#radial-gradient);}.cls-13{fill:#ce141e;}.cls-10{fill:#e03e17;opacity:.5;}.cls-14{fill:url(#linear-gradient-5);}.cls-15{fill:#7f358b;}.cls-6{stroke:#030304;stroke-width:.92px;}.cls-16{fill:url(#linear-gradient-3);}.cls-17{fill:url(#linear-gradient-4);}.cls-7{stroke:url(#linear-gradient);}</style><radialGradient id="radial-gradient" cx="636.24" cy="443.13" fx="636.24" fy="443.13" r="71.98" gradientTransform="translate(0 -253.18)" gradientUnits="userSpaceOnUse"><stop offset="0" stop-color="#f6ee84"/><stop offset=".78" stop-color="#f6ee84"/><stop offset=".91" stop-color="#f6ee84"/><stop offset=".91" stop-color="#f7ee87"/><stop offset=".94" stop-color="#faf4b7"/><stop offset=".96" stop-color="#fdfadc"/><stop offset=".97" stop-color="#fefcf1"/><stop offset=".99" stop-color="#fffffe"/><stop offset="1" stop-color="#fff"/></radialGradient><linearGradient id="linear-gradient" x1="642.07" y1="472.41" x2="601.16" y2="431.48" gradientTransform="translate(0 -253.18)" gradientUnits="userSpaceOnUse"><stop offset="0" stop-color="#5d1512"/><stop offset=".1" stop-color="#611912"/><stop offset=".26" stop-color="#732b23"/><stop offset=".48" stop-color="#914d44"/><stop offset=".73" stop-color="#be8880"/><stop offset="1" stop-color="#fbdede"/></linearGradient><linearGradient id="linear-gradient-2" x1="671.06" y1="452.84" x2="630.14" y2="411.91" xlink:href="#linear-gradient"/><linearGradient id="linear-gradient-3" x1="480.64" y1="166.34" x2="480.64" y2="208.45" gradientTransform="translate(0 378.32) scale(1 -1)" gradientUnits="userSpaceOnUse"><stop offset="0" stop-color="#532a15"/><stop offset=".45" stop-color="#532a15" stop-opacity=".7"/><stop offset=".58" stop-color="#e03e17" stop-opacity=".5"/><stop offset="1" stop-color="#e03e17" stop-opacity=".5"/></linearGradient><linearGradient id="linear-gradient-4" x1="-644.47" y1="-919.48" x2="-568.51" y2="-843.52" gradientTransform="translate(148.72 -861.23) rotate(-45) scale(1 -1)" gradientUnits="userSpaceOnUse"><stop offset="0" stop-color="#1d1427"/><stop offset=".24" stop-color="#372348"/><stop offset=".49" stop-color="#573b6c"/><stop offset=".71" stop-color="#72508c"/><stop offset=".89" stop-color="#835ca0"/><stop offset="1" stop-color="#8963a7"/></linearGradient><linearGradient id="linear-gradient-5" x1="-741.13" y1="-822.83" x2="-665.16" y2="-746.86" xlink:href="#linear-gradient-4"/><linearGradient id="linear-gradient-6" x1="-837.78" y1="-726.17" x2="-761.82" y2="-650.21" xlink:href="#linear-gradient-4"/></defs><rect class="cls-3" x=".5" y=".5" width="720" height="378.91"/><g><g id="oxIcon"><path class="cls-12" d="M708.21,189.95c0,39.72-32.23,71.98-71.98,71.98s-71.98-32.23-71.98-71.98,32.25-71.96,71.99-71.96c39.72,.12,71.98,32.23,71.98,71.98h-.01Z"/><path class="cls-5" d="M708.09,189.95c0,39.72-32.23,71.98-71.98,71.98s-71.85-32.23-71.85-71.98,32.24-71.96,71.98-71.96,71.85,32.36,71.85,71.98h0Z"/><path class="cls-2" d="M699.87,189.95c0,35.14-28.5,63.64-63.64,63.64s-63.64-28.5-63.64-63.64,28.5-63.51,63.64-63.51,63.64,28.37,63.64,63.51Z"/><path class="cls-7" d="M648.79,198.77c0,14.97-12.19,27.17-27.17,27.17s-27.17-12.19-27.17-27.17,12.19-27.17,27.17-27.17,27.17,12.19,27.17,27.17Z"/><path class="cls-1" d="M677.78,179.2c0,14.97-12.19,27.17-27.17,27.17s-27.17-12.19-27.17-27.17,12.19-27.17,27.17-27.17,27.17,12.19,27.17,27.17Z"/></g><g id="arrow"><path class="cls-10" d="M539.33,190.93l-55.98-25.88,6.77,13.46h-63.1s-1.9,6.06-1.9,11.9,1.9,10.59,1.9,10.59h64.28l-7.98,15.83,55.98-25.88h.02Z"/><path class="cls-16" d="M495.03,198.69h-66.35c-.52-1.73-1.26-4.83-1.26-8.3,0-3.69,.82-7.51,1.35-9.61h65.06l-5.5-10.91,45.54,21.05-45.54,21.05,6.69-13.29h.01Z"/><path class="cls-13" d="M499.93,195.68h-68.91c-.32-1.46-.59-3.32-.59-5.29,0-2.31,.37-4.7,.74-6.6h67.56l-3.8-7.57,31.78,14.69-31.78,14.69,5-9.94h0Z"/><path class="cls-4" d="M495.03,198.69h-66.35c-.52-1.73-1.26-4.83-1.26-8.3,0-3.69,.82-7.51,1.35-9.61h65.06l-5.5-10.91,45.54,21.05-45.54,21.05,6.69-13.29h.01Z"/></g><g id="energy"><rect class="cls-11" x="286.18" y="133.93" width="114.02" height="114.02"/><rect class="cls-17" x="289.46" y="137.22" width="107.43" height="107.43"/><polygon class="cls-15" points="391.69 142.43 391.69 239.44 294.68 239.44 294.68 142.43 391.69 142.43"/><polygon class="cls-6" points="331.35 179.82 363.35 159.98 346.24 184.76 355.3 199.48 323.84 219.32 339.66 194.64 331.35 179.82"/><path id="darker" class="cls-9" d="M396.9,244.65h-107.43v-58.89s33.83,5.22,53.67,5.22,53.77-5.22,53.77-5.22v58.89h-.01Z"/></g><g id="energy-2"><rect class="cls-11" x="149.49" y="133.93" width="114.02" height="114.02"/><rect class="cls-14" x="152.77" y="137.22" width="107.43" height="107.43"/><polygon class="cls-15" points="255 142.43 255 239.44 157.99 239.44 157.99 142.43 255 142.43"/><polygon class="cls-6" points="194.64 179.82 226.66 159.98 209.55 184.76 218.61 199.48 187.15 219.32 202.97 194.64 194.64 179.82"/><path id="darker-2" class="cls-9" d="M260.2,244.65h-107.43v-58.89s33.83,5.22,53.67,5.22,53.77-5.22,53.77-5.22v58.89h-.01Z"/></g><g id="energy-3"><rect class="cls-11" x="12.78" y="133.93" width="114.02" height="114.02"/><rect class="cls-8" x="16.08" y="137.22" width="107.43" height="107.43"/><polygon class="cls-15" points="118.3 142.43 118.3 239.44 21.29 239.44 21.29 142.43 118.3 142.43"/><polygon class="cls-6" points="57.95 179.82 89.95 159.98 72.86 184.76 81.91 199.48 50.46 219.32 66.28 194.64 57.95 179.82"/><path id="darker-3" class="cls-9" d="M123.51,244.65H16.08v-58.89s33.83,5.22,53.67,5.22,53.77-5.22,53.77-5.22v58.89h-.01Z"/></g></g></svg>