<?xml version="1.0" encoding="UTF-8"?><svg id="Layer" xmlns="http://www.w3.org/2000/svg" xmlns:xlink="http://www.w3.org/1999/xlink" viewBox="0 0 720 378.91"><defs><style>.cls-1{fill:url(#linear-gradient-2);}.cls-2{fill:#20201e;}.cls-3{fill:rgba(255,255,255,0);}.cls-4,.cls-5{fill:#020203;}.cls-6{fill:url(#linear-gradient-6);}.cls-7{fill:url(#Nowy_wzorek_5);opacity:.1;}.cls-7,.cls-5{isolation:isolate;}.cls-8{fill:url(#linear-gradient-5);}.cls-9{fill:none;}.cls-10{fill:#ffd10c;}.cls-11{fill:url(#linear-gradient-7);}.cls-12{fill:url(#linear-gradient-3);}.cls-13{fill:#e52521;}.cls-14{fill:url(#linear-gradient);}.cls-5{opacity:.05;}.cls-15{fill:url(#linear-gradient-4);}</style><linearGradient id="linear-gradient" x1="218.21" y1="533.16" x2="41.64" y2="356.61" gradientTransform="translate(0 -251.46)" gradientUnits="userSpaceOnUse"><stop offset="0" stop-color="#9f9d9c"/><stop offset=".54" stop-color="#020303"/><stop offset="1" stop-color="#9f9d9c"/></linearGradient><linearGradient id="linear-gradient-2" x1="130" y1="527.78" x2="130" y2="362.02" gradientTransform="translate(0 -251.46)" gradientUnits="userSpaceOnUse"><stop offset="0" stop-color="#472d1c"/><stop offset="1" stop-color="#b18047"/></linearGradient><linearGradient id="linear-gradient-3" x1="129.94" y1="523.6" x2="129.94" y2="366.05" gradientTransform="translate(0 -251.46)" gradientUnits="userSpaceOnUse"><stop offset="0" stop-color="#946137"/><stop offset="1" stop-color="#815228"/></linearGradient><pattern id="Nowy_wzorek_5" x="0" y="0" width="19.7" height="21.7" patternTransform="translate(2.5 16.09)" patternUnits="userSpaceOnUse" viewBox="0 0 19.7 21.7"><g><rect class="cls-9" width="19.7" height="21.7"/><g><rect class="cls-9" width="19.7" height="21.7"/><g><rect class="cls-9" width="19.7" height="21.7"/><g><rect class="cls-9" width="19.7" height="21.7"/><g><rect class="cls-9" width="19.7" height="21.7"/><g><rect class="cls-9" width="19.7" height="21.7"/><g><rect class="cls-9" width="19.7" height="21.7"/><path class="cls-2" d="M16.6,8.7c2.1,2.1,2.1,5.6,0,7.7l-1.2,1.2c-2.1,2.1-5.6,2.1-7.8,0L3.1,13c-2.1-2.1-2.1-5.6,0-7.7l1.2-1.2c2.1-2.1,5.6-2.1,7.7,0l4.6,4.6Z"/></g></g></g></g></g></g></g></pattern><linearGradient id="linear-gradient-4" x1="-702.53" y1="1155.15" x2="-625.09" y2="1077.71" gradientTransform="translate(-190.12 -1065.2) rotate(-45)" gradientUnits="userSpaceOnUse"><stop offset="0" stop-color="#941914"/><stop offset=".21" stop-color="#b91f1a"/><stop offset=".47" stop-color="#e52521"/><stop offset=".55" stop-color="#e62a27"/><stop offset=".84" stop-color="#e73939"/><stop offset="1" stop-color="#e83e40"/></linearGradient><linearGradient id="linear-gradient-5" x1="-537.06" y1="1320.61" x2="-459.63" y2="1243.18" xlink:href="#linear-gradient-4"/><linearGradient id="linear-gradient-6" x1="-352.51" y1="1505.17" x2="-275.07" y2="1427.73" xlink:href="#linear-gradient-4"/><linearGradient id="linear-gradient-7" x1="-444.43" y1="1413.24" x2="-367" y2="1335.81" xlink:href="#linear-gradient-4"/></defs><rect class="cls-3" width="720" height="378.91"/><g id="prodBg"><rect id="external-border" class="cls-14" x="40.85" y="105.95" width="178.15" height="174.96"/><rect id="internal-border" class="cls-1" x="45.46" y="110.56" width="169.09" height="165.76"/><rect id="bg" class="cls-12" x="49.5" y="114.59" width="160.89" height="157.55"/><rect id="bgPattern" class="cls-7" x="49.5" y="114.59" width="160.89" height="157.55"/></g><g id="heat"><rect class="cls-4" x="71.81" y="135.49" width="116.22" height="116.22"/><rect class="cls-15" x="75.17" y="138.85" width="109.51" height="109.51"/><rect class="cls-13" x="80.48" y="144.16" width="98.89" height="98.89"/><path id="darker" class="cls-5" d="M184.68,248.36H75.17v-60.02s34.48,5.31,54.71,5.31,54.8-5.31,54.8-5.31v60.02Z"/><g><polygon class="cls-10" points="117.58 198.68 105.09 187.87 105.09 187.87 105.09 154.88 92.6 188.53 105.18 199.15 105.18 199.15 105.09 232.33 117.58 198.68"/><polygon class="cls-10" points="142.46 198.68 129.97 187.87 129.88 187.87 129.97 154.88 117.48 188.53 129.97 199.15 129.97 199.15 129.97 232.33 142.46 198.68"/><polygon class="cls-10" points="168 198.68 155.51 187.87 155.42 187.87 155.51 154.88 143.02 188.53 155.51 199.15 155.51 199.15 155.51 232.33 168 198.68"/></g></g><g id="heat-2"><rect class="cls-4" x="305.81" y="135.49" width="116.22" height="116.22"/><rect class="cls-8" x="309.17" y="138.85" width="109.51" height="109.51"/><rect class="cls-13" x="314.48" y="144.16" width="98.89" height="98.89"/><path id="darker-2" class="cls-5" d="M418.68,248.36h-109.51v-60.02s34.48,5.31,54.71,5.31,54.8-5.31,54.8-5.31v60.02Z"/><g><polygon class="cls-10" points="351.58 198.68 339.09 187.87 339.09 187.87 339.09 154.88 326.6 188.53 339.18 199.15 339.18 199.15 339.09 232.33 351.58 198.68"/><polygon class="cls-10" points="376.46 198.68 363.97 187.87 363.88 187.87 363.97 154.88 351.48 188.53 363.97 199.15 363.97 199.15 363.97 232.33 376.46 198.68"/><polygon class="cls-10" points="402 198.68 389.51 187.87 389.42 187.87 389.51 154.88 377.02 188.53 389.51 199.15 389.51 199.15 389.51 232.33 402 198.68"/></g></g><g id="heat-3"><rect class="cls-4" x="566.81" y="135.49" width="116.22" height="116.22"/><rect class="cls-6" x="570.17" y="138.85" width="109.51" height="109.51"/><rect class="cls-13" x="575.48" y="144.16" width="98.89" height="98.89"/><path id="darker-3" class="cls-5" d="M679.68,248.36h-109.51v-60.02s34.48,5.31,54.71,5.31,54.8-5.31,54.8-5.31v60.02Z"/><g><polygon class="cls-10" points="612.58 198.68 600.09 187.87 600.09 187.87 600.09 154.88 587.6 188.53 600.18 199.15 600.18 199.15 600.09 232.33 612.58 198.68"/><polygon class="cls-10" points="637.46 198.68 624.97 187.87 624.88 187.87 624.97 154.88 612.48 188.53 624.97 199.15 624.97 199.15 624.97 232.33 637.46 198.68"/><polygon class="cls-10" points="663 198.68 650.51 187.87 650.42 187.87 650.51 154.88 638.02 188.53 650.51 199.15 650.51 199.15 650.51 232.33 663 198.68"/></g></g><g id="heat-4"><rect class="cls-4" x="436.81" y="135.49" width="116.22" height="116.22"/><rect class="cls-11" x="440.17" y="138.85" width="109.51" height="109.51"/><rect class="cls-13" x="445.48" y="144.16" width="98.89" height="98.89"/><path id="darker-4" class="cls-5" d="M549.68,248.36h-109.51v-60.02s34.48,5.31,54.71,5.31,54.8-5.31,54.8-5.31v60.02Z"/><g><polygon class="cls-10" points="482.58 198.68 470.09 187.87 470.09 187.87 470.09 154.88 457.6 188.53 470.18 199.15 470.18 199.15 470.09 232.33 482.58 198.68"/><polygon class="cls-10" points="507.46 198.68 494.97 187.87 494.88 187.87 494.97 154.88 482.48 188.53 494.97 199.15 494.97 199.15 494.97 232.33 507.46 198.68"/><polygon class="cls-10" points="533 198.68 520.51 187.87 520.42 187.87 520.51 154.88 508.02 188.53 520.51 199.15 520.51 199.15 520.51 232.33 533 198.68"/></g></g></svg>