<?xml version="1.0" encoding="UTF-8"?><svg id="Layer" xmlns="http://www.w3.org/2000/svg" xmlns:xlink="http://www.w3.org/1999/xlink" viewBox="0 0 721 379.91"><defs><style>.cls-1{fill:url(#linear-gradient-2);}.cls-2,.cls-3{fill:#020303;}.cls-4{fill:url(#linear-gradient-6);}.cls-5{stroke:#020303;}.cls-5,.cls-6,.cls-3,.cls-7{stroke-miterlimit:10;}.cls-5,.cls-3{stroke-width:1.86px;}.cls-5,.cls-7{fill:none;}.cls-6{fill:#fff;opacity:0;stroke:#1d1d1b;}.cls-3{stroke:#030404;}.cls-8{fill:#415fa9;}.cls-9{fill:#1d2d4c;}.cls-10{fill:url(#radial-gradient);}.cls-11{fill:#84a3d5;}.cls-12{fill:#ce141e;}.cls-7{stroke:#ffd80c;stroke-width:4.64px;}.cls-13{fill:#e03e17;opacity:.5;}.cls-13,.cls-14{isolation:isolate;}.cls-15{fill:url(#linear-gradient-5);}.cls-14{opacity:.64;}.cls-14,.cls-16{fill:#030304;}.cls-17{fill:#7ca5d8;}.cls-18{fill:url(#linear-gradient-7);}.cls-19{fill:#11478d;}.cls-20{fill:#93c6ec;}.cls-21{fill:#515150;}.cls-22{fill:url(#linear-gradient-3);}.cls-23{fill:url(#linear-gradient);}.cls-24{fill:url(#linear-gradient-4);}</style><linearGradient id="linear-gradient" x1="620.03" y1="75.03" x2="620.03" y2="221.61" gradientTransform="translate(0 341.11) scale(1 -1)" gradientUnits="userSpaceOnUse"><stop offset="0" stop-color="#c3dcf4"/><stop offset="1" stop-color="#2a5488"/></linearGradient><radialGradient id="radial-gradient" cx="619.92" cy="139.18" fx="619.92" fy="139.18" r="63.51" gradientTransform="translate(0 341.11) scale(1 -1)" gradientUnits="userSpaceOnUse"><stop offset="0" stop-color="#fff" stop-opacity=".7"/><stop offset=".13" stop-color="#fafcfe" stop-opacity=".68"/><stop offset=".28" stop-color="#e4e9f7" stop-opacity=".62"/><stop offset=".44" stop-color="#c4ceea" stop-opacity=".53"/><stop offset=".62" stop-color="#93a7d6" stop-opacity=".4"/><stop offset=".79" stop-color="#5673b7" stop-opacity=".23"/><stop offset=".98" stop-color="#30519e" stop-opacity=".03"/><stop offset="1" stop-color="#2e4d9b" stop-opacity="0"/></radialGradient><linearGradient id="linear-gradient-2" x1="447.23" y1="469.03" x2="447.23" y2="426.26" gradientTransform="translate(0 -254.83)" gradientUnits="userSpaceOnUse"><stop offset="0" stop-color="#532a15"/><stop offset=".45" stop-color="#532a15" stop-opacity=".7"/><stop offset=".58" stop-color="#e03e17" stop-opacity=".5"/><stop offset="1" stop-color="#e03e17" stop-opacity=".5"/></linearGradient><linearGradient id="linear-gradient-3" x1="-722" y1="1538.19" x2="-644.79" y2="1460.98" gradientTransform="translate(-309.75 -1350.79) rotate(-45)" gradientUnits="userSpaceOnUse"><stop offset="0" stop-color="#030304"/><stop offset="1" stop-color="#7a7879"/></linearGradient><linearGradient id="linear-gradient-4" x1="86.62" y1="98.8" x2="86.62" y2="205.73" gradientTransform="translate(0 345.11) scale(1 -1)" gradientUnits="userSpaceOnUse"><stop offset=".16" stop-color="#823b14"/><stop offset=".18" stop-color="#995d1a"/><stop offset=".22" stop-color="#ae7d22"/><stop offset=".26" stop-color="#c39d25"/><stop offset=".3" stop-color="#d6b92e"/><stop offset=".35" stop-color="#e4cf36"/><stop offset=".41" stop-color="#efe036"/><stop offset=".48" stop-color="#f5e94d"/><stop offset=".58" stop-color="#f8eb53"/><stop offset=".86" stop-color="#f5ea52"/><stop offset="1" stop-color="#fcf4f9"/></linearGradient><linearGradient id="linear-gradient-5" x1="86.62" y1="211.45" x2="86.62" y2="48.04" gradientTransform="translate(0 345.11) scale(1 -1)" gradientUnits="userSpaceOnUse"><stop offset=".26" stop-color="#f5ea52"/><stop offset=".86" stop-color="#813a14"/></linearGradient><linearGradient id="linear-gradient-6" x1="86.73" y1="100.41" x2="86.73" y2="204.26" gradientTransform="translate(0 345.11) scale(1 -1)" gradientUnits="userSpaceOnUse"><stop offset=".16" stop-color="#813a14"/><stop offset=".17" stop-color="#8d481f"/><stop offset=".18" stop-color="#a36c3d"/><stop offset=".2" stop-color="#b78954"/><stop offset=".22" stop-color="#c7a468"/><stop offset=".24" stop-color="#d7bb7a"/><stop offset=".26" stop-color="#e2cc88"/><stop offset=".3" stop-color="#ead891"/><stop offset=".34" stop-color="#eede97"/><stop offset=".46" stop-color="#efe097"/><stop offset=".7" stop-color="#813a14"/><stop offset=".73" stop-color="#e6d234"/><stop offset=".74" stop-color="#ebda49"/><stop offset=".75" stop-color="#eede6d"/><stop offset=".77" stop-color="#f0e18a"/><stop offset=".79" stop-color="#f8ebab"/><stop offset=".8" stop-color="#f8edbf"/><stop offset=".83" stop-color="#faf0cf"/><stop offset=".85" stop-color="#fcf2da"/><stop offset=".89" stop-color="#fdf4e1"/><stop offset=".99" stop-color="#fdf5e3"/></linearGradient><linearGradient id="linear-gradient-7" x1="86.62" y1="188.94" x2="86.62" y2="28.67" gradientTransform="translate(0 345.11) scale(1 -1)" gradientUnits="userSpaceOnUse"><stop offset=".26" stop-color="#f5ea52"/><stop offset=".77" stop-color="#813a14"/></linearGradient></defs><rect class="cls-6" x=".5" y=".5" width="720" height="378.91"/><g id="ocean"><polygon class="cls-2" points="685.48 230.73 685.48 154.96 620.03 117.14 554.37 154.96 554.37 230.73 620.03 268.45 685.48 230.73"/><polygon class="cls-23" points="683.54 229.55 683.54 156.25 620.03 119.5 556.52 156.25 556.52 229.55 620.03 266.08 683.54 229.55"/><polygon class="cls-11" points="679.25 227.07 679.25 158.62 620.03 124.34 560.71 158.62 560.71 227.07 620.03 261.25 679.25 227.07"/><path class="cls-19" d="M679.25,201.82c-2.69-2.47-7.85-3.55-16.66-4.62-8.6-1.18-12.9-1.61-15.05-1.61-13.65-.11-14.51,3.65-25.79,3.76-3.01,0-11.07-1.61-27.62-5.05-9.46-1.93-12.36-2.69-17.19-2.26-6.66,.54-12.25,2.79-16.33,5.16v29.88l59.43,34.28,59.21-34.28v-25.25h0Z"/><path class="cls-9" d="M620.14,242.76h0c26.65-.54,39.66-27.4,27.3-56.85-.97-2.47-2.36-5.16-3.98-7.95-23.54-42.99-23.54-42.77-23.54-42.77,0,0,0-.21-23.54,42.77-1.5,2.79-2.79,5.48-3.98,7.95-12.36,29.45,.64,56.42,27.3,56.85h0"/><path class="cls-20" d="M620.14,241.15h0c25.25-.54,37.51-25.9,25.9-53.84-.97-2.36-2.26-4.94-3.65-7.63-22.25-40.62-22.25-40.41-22.25-40.41,0,0,0-.21-22.25,40.51-1.4,2.69-2.69,5.05-3.65,7.63-11.93,27.83,.32,53.41,25.9,53.73h0"/><path class="cls-17" d="M620.03,238.25h0c23.32-.32,34.5-23.75,23.75-49.33-.86-2.26-2.15-4.51-3.44-6.99-20.31-37.4-20.31-37.18-20.31-37.18,0,0,0-.21-20.53,37.18-1.29,2.36-2.36,4.62-3.44,6.99-10.53,25.58,.64,48.79,23.97,49.33h0"/><path class="cls-8" d="M646.15,195.48c-12.36,.11-13.54,3.65-24.5,3.76-3.01,0-11.07-1.61-27.4-4.94-7.09,23.43,4.19,43.52,25.79,43.85h.11c21.06-.21,32.35-19.67,26.01-42.66h0Z"/><circle class="cls-10" cx="619.92" cy="201.93" r="63.51"/></g><g id="arrow"><path class="cls-13" d="M506.76,192.79l-56.85-26.33,6.88,13.76h-64.05s-1.93,6.13-1.93,12.04,1.93,10.75,1.93,10.75h65.34l-8.06,16.12,56.74-26.33h0Z"/><path class="cls-1" d="M461.84,200.74h-67.38c-.54-1.72-1.29-4.94-1.29-8.38,0-3.76,.86-7.63,1.4-9.78h66.09l-5.59-11.07,46.21,21.39-46.21,21.39,6.77-13.54h0Z"/><path class="cls-12" d="M466.78,197.63h-69.96c-.32-1.5-.54-3.33-.54-5.37,0-2.36,.43-4.73,.75-6.66h68.67l-3.87-7.74,32.24,14.94-32.24,14.94,4.94-10.1h0Z"/><path class="cls-5" d="M461.84,200.74h-67.38c-.54-1.72-1.29-4.94-1.29-8.38,0-3.76,.86-7.63,1.4-9.78h66.09l-5.59-11.07,46.21,21.39-46.21,21.39,6.77-13.54h0Z"/></g><path d="M336.97,232.45v-7.95c2.58-2.79,4.51-5.7,5.8-8.7s2.36-6.56,3.12-10.53,1.07-8.06,1.07-12.25-.32-8.49-1.07-12.36c-.64-3.87-1.72-7.31-3.12-10.53s-3.33-6.13-5.91-8.92v-7.95c4.84,2.58,8.81,6.02,12.14,10.21s5.8,8.92,7.63,14.08,2.69,10.21,2.69,15.37-.86,10.1-2.58,15.15-4.19,9.67-7.31,13.86c-3.12,4.08-7.31,7.63-12.47,10.53h0Z"/><g id="titan"><rect class="cls-16" x="209.51" y="134.87" width="115.85" height="115.85"/><rect class="cls-22" x="212.84" y="138.2" width="109.08" height="109.19"/><rect class="cls-21" x="218.11" y="143.57" width="98.55" height="98.55"/><path id="darker" class="cls-14" d="M322.03,247.39h-109.19v-59.86s34.39,5.27,54.49,5.27,54.59-5.27,54.59-5.27l.11,59.86h0Z"/><polygon class="cls-7" points="268.08 160.66 278.4 182.26 302.15 185.38 284.63 201.82 289.14 225.25 268.08 213.75 247.02 225.25 251.53 201.82 234.01 185.38 257.76 182.26 268.08 160.66"/></g><path d="M197.9,153.14v7.95c-2.58,2.79-4.51,5.8-5.91,8.92-1.4,3.12-2.36,6.66-3.12,10.53-.64,3.87-1.07,7.95-1.07,12.14s.32,8.38,1.07,12.25c.64,3.87,1.72,7.31,3.12,10.53,1.4,3.12,3.33,6.13,5.91,8.92v7.95c-3.33-1.83-5.8-3.44-7.31-4.84s-2.9-2.9-4.3-4.62c-3.55-4.41-6.23-9.24-8.06-14.62s-2.79-10.53-2.79-15.58c0-6.56,1.5-13.11,4.41-19.56,2.04-4.62,4.73-8.7,7.85-12.25,1.18-1.4,2.47-2.58,3.76-3.65,1.4-.97,3.44-2.36,6.45-4.08h0Z"/><g id="mln"><polygon id="obram_czarne" class="cls-3" points="47.02 136.16 29.83 153.35 29.83 232.34 47.02 249.53 126.22 249.53 143.31 232.34 143.31 153.35 126.22 136.16 47.02 136.16"/><polygon id="obram_zolte" class="cls-24" points="49.28 139.38 33.27 155.5 33.27 230.08 49.28 246.31 123.86 246.31 139.98 230.08 139.98 155.5 123.86 139.38 49.28 139.38"/><polygon id="tlo_wew" class="cls-15" points="50.35 140.89 34.66 156.68 34.66 229.01 50.35 244.7 122.89 244.7 138.58 229.01 138.58 156.68 122.89 140.89 50.35 140.89"/><path id="obram_skosne" class="cls-4" d="M131.06,212.78c-2.9,0-5.16-2.36-5.16-5.16v-29.66c0-2.9,2.36-5.16,5.16-5.16h7.42v-16.12l-15.58-15.69h-16.23v7.42c0,2.9-2.36,5.16-5.16,5.16h-29.66c-2.9,0-5.16-2.36-5.16-5.16v-7.42h-16.12l-15.69,15.69v16.23h7.42c2.9,0,5.16,2.36,5.16,5.16v29.66c0,2.9-2.36,5.16-5.16,5.16h-7.42v16.12l15.69,15.69h16.12v-7.42c0-2.9,2.36-5.16,5.16-5.16h29.66c2.9,0,5.16,2.36,5.16,5.16v7.42h16.23l15.69-15.69v-16.23h-7.52Z"/><path id="tlo_zew" class="cls-18" d="M130.74,214.61c-3.55,0-6.45-3.55-6.45-7.09v-29.45c0-3.55,2.9-7.09,6.45-7.09h6.02v-13.11l-15.26-15.15h-13.11v6.02c0,3.55-3.55,6.45-7.09,6.45h-29.45c-3.55,0-7.09-2.9-7.09-6.45v-6.02h-13.11l-15.15,15.15v13.22h6.02c3.55,0,6.45,3.55,6.45,7.09v29.45c0,3.55-2.9,7.09-6.45,7.09h-6.02v13.22l15.15,15.15h13.22v-6.02c0-3.55,3.55-6.45,7.09-6.45h29.34c3.55,0,7.09,2.9,7.09,6.45v6.02h13.11l15.15-15.15v-13.33h-5.91Z"/></g><g><path d="M61.76,213.5v-37.68h-5.7l-.17-4.26,14.4-1.24v43.18h-8.53Z"/><path d="M88.32,213.5v-6.74c2.57-3.46,5.07-6.24,7.48-8.35l3.48-3.08c2.49-2.21,4.55-4.39,6.18-6.55,1.63-2.16,2.44-4.42,2.44-6.78,0-2.13-.69-3.78-2.06-4.94-1.37-1.16-3.23-1.74-5.57-1.74-3.11,0-6.73,1.06-10.86,3.17v-6.25c4.34-1.61,8.53-2.42,12.58-2.42,4.47,0,8.08,1.07,10.83,3.21s4.13,5.01,4.13,8.6c0,2.27-.58,4.4-1.74,6.41-1.16,2.01-3.57,4.49-7.24,7.45l-2.88,2.3c-1.27,1.02-2.65,2.32-4.15,3.92s-2.5,3.28-2.98,5.07h18.81v6.74h-28.46Z"/></g></svg>