<?xml version="1.0" encoding="UTF-8"?><svg id="Layer" xmlns="http://www.w3.org/2000/svg" xmlns:xlink="http://www.w3.org/1999/xlink" viewBox="0 0 721 379.91"><defs><style>.cls-1{fill:url(#linear-gradient-2);}.cls-2{fill:url(#linear-gradient-6);}.cls-3{fill:#0b572a;stroke:#1d4422;stroke-width:3.74px;}.cls-3,.cls-4,.cls-5{stroke-miterlimit:10;}.cls-6{fill:#48ad38;}.cls-7{fill:#1f1f1e;}.cls-8{fill:url(#linear-gradient-4);opacity:.4;}.cls-8,.cls-9,.cls-10,.cls-11{isolation:isolate;}.cls-4{opacity:0;stroke:#1d1d1b;}.cls-4,.cls-5{fill:#fff;}.cls-9{fill:url(#Nowy_wzorek_3);opacity:.1;}.cls-10{opacity:.15;}.cls-10,.cls-11,.cls-12{fill:#030304;}.cls-5{stroke:#030304;stroke-width:.93px;}.cls-13{fill:url(#linear-gradient-5);}.cls-14{fill:none;}.cls-15{fill:url(#linear-gradient-7);}.cls-11{opacity:.05;}.cls-16{fill:#7f358b;}.cls-17{fill:url(#linear-gradient-3);}.cls-18{fill:url(#linear-gradient);}.cls-19{fill:#010101;}.cls-20{fill:url(#linear-gradient-8);}</style><linearGradient id="linear-gradient" x1="536.23" y1="-1.03" x2="184.77" y2="350.39" gradientTransform="translate(0 364.63) scale(1 -1)" gradientUnits="userSpaceOnUse"><stop offset="0" stop-color="#9e9d9c"/><stop offset=".54" stop-color="#010202"/><stop offset="1" stop-color="#9e9d9c"/></linearGradient><linearGradient id="linear-gradient-2" x1="360.58" y1="23.04" x2="360.58" y2="326.3" gradientTransform="translate(0 364.63) scale(1 -1)" gradientUnits="userSpaceOnUse"><stop offset="0" stop-color="#462c1b"/><stop offset="1" stop-color="#b18048"/></linearGradient><linearGradient id="linear-gradient-3" x1="360.51" y1="27.26" x2="360.51" y2="322.23" gradientTransform="translate(0 364.63) scale(1 -1)" gradientUnits="userSpaceOnUse"><stop offset="0" stop-color="#946137"/><stop offset="1" stop-color="#805127"/></linearGradient><pattern id="Nowy_wzorek_3" x="0" y="0" width="19.7" height="21.7" patternTransform="translate(43.9 -32159.12) scale(1 -1)" patternUnits="userSpaceOnUse" viewBox="0 0 19.7 21.7"><g><rect class="cls-14" width="19.7" height="21.7"/><g><rect class="cls-14" width="19.7" height="21.7"/><g><rect class="cls-14" width="19.7" height="21.7"/><g><rect class="cls-14" width="19.7" height="21.7"/><g><rect class="cls-14" width="19.7" height="21.7"/><g><rect class="cls-14" width="19.7" height="21.7"/><path class="cls-7" d="M16.6,13c2.1-2.1,2.1-5.6,0-7.7l-1.2-1.2c-2.1-2.1-5.6-2.1-7.8,0L3.1,8.7c-2.1,2.1-2.1,5.6,0,7.7l1.2,1.2c2.1,2.1,5.6,2.1,7.7,0l4.6-4.6Z"/></g></g></g></g></g></g></pattern><linearGradient id="linear-gradient-4" x1="398.35" y1="428.6" x2="398.35" y2="287.93" gradientTransform="translate(0 -236.64)" gradientUnits="userSpaceOnUse"><stop offset="0" stop-color="#ffdc15"/><stop offset="0" stop-color="#ffdb16"/><stop offset=".05" stop-color="#f9bb1f"/><stop offset=".1" stop-color="#f59c1b"/><stop offset=".16" stop-color="#ef7b1b"/><stop offset=".22" stop-color="#e86212"/><stop offset=".27" stop-color="#e84b1f"/><stop offset=".34" stop-color="#e63a21"/><stop offset=".41" stop-color="#e63323"/><stop offset=".5" stop-color="#e63023"/><stop offset=".59" stop-color="#e63323"/><stop offset=".66" stop-color="#e63a21"/><stop offset=".73" stop-color="#e84b1f"/><stop offset=".78" stop-color="#e86212"/><stop offset=".84" stop-color="#ef7b1b"/><stop offset=".9" stop-color="#f59c1b"/><stop offset=".95" stop-color="#f9bb1f"/><stop offset="1" stop-color="#ffdb16"/><stop offset="1" stop-color="#ffdc15"/></linearGradient><linearGradient id="linear-gradient-5" x1="398.38" y1="423.42" x2="398.38" y2="293.11" xlink:href="#linear-gradient-4"/><linearGradient id="linear-gradient-6" x1="-460.76" y1="1294.1" x2="-382.99" y2="1216.34" gradientTransform="translate(-190.8 -1064.09) rotate(-45)" gradientUnits="userSpaceOnUse"><stop offset="0" stop-color="#0f6936"/><stop offset=".04" stop-color="#0f6c37"/><stop offset=".08" stop-color="#077739"/><stop offset=".13" stop-color="#108837"/><stop offset=".15" stop-color="#0a9039"/><stop offset=".35" stop-color="#36993d"/><stop offset=".76" stop-color="#5fb048"/><stop offset="1" stop-color="#6fb74b"/></linearGradient><linearGradient id="linear-gradient-7" x1="-508.3" y1="-821.98" x2="-430.49" y2="-744.21" gradientTransform="translate(245.35 -627.96) rotate(-45) scale(1 -1)" gradientUnits="userSpaceOnUse"><stop offset="0" stop-color="#1d1427"/><stop offset=".24" stop-color="#372348"/><stop offset=".49" stop-color="#573b6c"/><stop offset=".71" stop-color="#72508c"/><stop offset=".89" stop-color="#835ca0"/><stop offset="1" stop-color="#8963a7"/></linearGradient><linearGradient id="linear-gradient-8" x1="-604.72" y1="-725.56" x2="-526.96" y2="-647.74" xlink:href="#linear-gradient-7"/></defs><rect class="cls-4" x=".5" y=".5" width="720" height="378.91"/><g><g id="prodBg"><rect id="external-border" class="cls-18" x="165.33" y="33.69" width="390.35" height="312.53"/><rect id="internal-border" class="cls-1" x="169.97" y="38.34" width="381.21" height="303.26"/><rect id="bg" class="cls-17" x="174.04" y="42.4" width="372.95" height="294.97"/><rect id="bgPattern" class="cls-9" x="174.04" y="42.4" width="372.95" height="294.97"/></g><g id="plant"><rect class="cls-8" x="328.02" y="51.3" width="140.67" height="140.67"/><rect class="cls-13" x="333.22" y="56.47" width="130.31" height="130.31"/><rect class="cls-12" x="340.12" y="63.44" width="116.7" height="116.7"/><rect class="cls-2" x="343.48" y="66.8" width="109.98" height="109.98"/><rect class="cls-6" x="348.81" y="72.13" width="99.29" height="99.29"/><path id="leaf" class="cls-3" d="M398.41,96.66c-14.22,1.97-25.08,11.24-25.08,25.08,0,3.36,.66,6.64,1.87,9.65-2.63,1.77-6.47,4.12-8.34,4.77-3.28,1.11-9.83,.38-10.1,.93s1.87,6.47,2.63,6.74,6.74,.28,10.1-.93c2.42-.83,6.82-3.66,9.37-5.53,4.6,5.81,11.69,9.45,19.65,9.45,13.84,0,24.91-8.71,24.91-22.56,0-5.33,1.31-12.07,3.28-16.29,2.15-4.67,13.29-7.68,13.29-7.68-1.11-3.66-35.94-4.4-41.55-3.66h0l-.03,.03Z"/><path id="darker" class="cls-11" d="M453.45,176.78h-109.98v-60.27s34.63,5.33,54.94,5.33,55.04-5.33,55.04-5.33v60.27Z"/></g><path class="cls-19" d="M218.24,288.73v-24.43h-24.43v-10.03h24.43v-24.43h10.03v24.43h24.43v10.03h-24.43v24.43h-10.03Z"/><path class="cls-19" d="M270.73,131.69v-13.69h32.86v13.69h-32.86Z"/><g id="energy"><rect class="cls-12" x="408.82" y="199.34" width="116.7" height="116.7"/><rect class="cls-15" x="412.18" y="202.7" width="109.98" height="109.98"/><polygon class="cls-16" points="516.83 208.03 516.83 307.34 417.53 307.34 417.53 208.03 516.83 208.03"/><polygon class="cls-5" points="455.07 246.32 487.8 226.01 470.3 251.37 479.57 266.45 447.39 286.76 463.58 261.47 455.07 246.32"/><path id="darker-2" class="cls-10" d="M522.16,312.67h-109.98v-60.27s34.63,5.33,54.94,5.33,55.04-5.33,55.04-5.33v60.27h0Z"/></g><g id="energy-2"><rect class="cls-12" x="272.42" y="199.34" width="116.7" height="116.7"/><rect class="cls-20" x="275.78" y="202.7" width="109.98" height="109.98"/><polygon class="cls-16" points="380.43 208.03 380.43 307.34 281.14 307.34 281.14 208.03 380.43 208.03"/><polygon class="cls-5" points="318.67 246.32 351.41 226.01 333.9 251.37 343.17 266.45 310.99 286.76 327.18 261.47 318.67 246.32"/><path id="darker-3" class="cls-10" d="M385.76,312.67h-109.98v-60.27s34.63,5.33,54.94,5.33,55.04-5.33,55.04-5.33v60.27Z"/></g></g></svg>