<?xml version="1.0" encoding="UTF-8"?><svg id="Layer" xmlns="http://www.w3.org/2000/svg" xmlns:xlink="http://www.w3.org/1999/xlink" viewBox="0 0 721 379.91"><defs><style>.cls-1{fill:url(#linear-gradient-2);}.cls-2,.cls-3,.cls-4{fill:#020303;}.cls-5{fill:#1f1f1e;}.cls-6{fill:#fff;opacity:0;stroke:#1d1d1b;}.cls-6,.cls-7{stroke-miterlimit:10;}.cls-8{fill:url(#Nowy_wzorek_6);opacity:.1;}.cls-8,.cls-3,.cls-4{isolation:isolate;}.cls-9{fill:#3c481e;}.cls-10{fill:#44ac36;}.cls-11{fill:url(#linear-gradient-5);}.cls-12{fill:none;}.cls-3{opacity:.08;}.cls-13{fill:#95c125;}.cls-7{fill:#07562a;stroke:#1c4421;stroke-width:3.73px;}.cls-14{fill:url(#linear-gradient-3);}.cls-4{opacity:.05;}.cls-15{fill:url(#linear-gradient);}.cls-16{fill:url(#linear-gradient-4);}.cls-17{fill:#010101;}</style><linearGradient id="linear-gradient" x1="511.25" y1="829.34" x2="209.75" y2="527.84" gradientTransform="translate(0 -488.64)" gradientUnits="userSpaceOnUse"><stop offset="0" stop-color="#9e9d9c"/><stop offset=".54" stop-color="#010202"/><stop offset="1" stop-color="#9e9d9c"/></linearGradient><linearGradient id="linear-gradient-2" x1="360.58" y1="761.85" x2="360.58" y2="595.36" gradientTransform="translate(0 -488.64)" gradientUnits="userSpaceOnUse"><stop offset="0" stop-color="#462c1b"/><stop offset="1" stop-color="#b18048"/></linearGradient><linearGradient id="linear-gradient-3" x1="360.49" y1="757.63" x2="360.49" y2="599.42" gradientTransform="translate(0 -488.64)" gradientUnits="userSpaceOnUse"><stop offset="0" stop-color="#946137"/><stop offset="1" stop-color="#805127"/></linearGradient><pattern id="Nowy_wzorek_6" x="0" y="0" width="19.7" height="21.7" patternTransform="translate(-2.42 16.27)" patternUnits="userSpaceOnUse" viewBox="0 0 19.7 21.7"><g><rect class="cls-12" width="19.7" height="21.7"/><g><rect class="cls-12" width="19.7" height="21.7"/><g><rect class="cls-12" width="19.7" height="21.7"/><g><rect class="cls-12" width="19.7" height="21.7"/><g><rect class="cls-12" width="19.7" height="21.7"/><g><rect class="cls-12" width="19.7" height="21.7"/><g><rect class="cls-12" width="19.7" height="21.7"/><path class="cls-5" d="M16.6,8.7c2.1,2.1,2.1,5.6,0,7.7l-1.2,1.2c-2.1,2.1-5.6,2.1-7.8,0L3.1,13c-2.1-2.1-2.1-5.6,0-7.7l1.2-1.2c2.1-2.1,5.6-2.1,7.7,0l4.6,4.6Z"/></g></g></g></g></g></g></g></pattern><linearGradient id="linear-gradient-4" x1="-619.86" y1="1231.24" x2="-542.42" y2="1153.81" gradientTransform="translate(-190.6 -1064.17) rotate(-45)" gradientUnits="userSpaceOnUse"><stop offset="0" stop-color="#0c6835"/><stop offset=".04" stop-color="#0a6b36"/><stop offset=".08" stop-color="#047638"/><stop offset=".13" stop-color="#078738"/><stop offset=".15" stop-color="#058f39"/><stop offset=".35" stop-color="#34993d"/><stop offset=".76" stop-color="#5eaf47"/><stop offset="1" stop-color="#6eb74a"/></linearGradient><linearGradient id="linear-gradient-5" x1="485.86" y1="119.66" x2="485.86" y2="227.26" gradientTransform="translate(0 363.09) scale(1 -1)" gradientUnits="userSpaceOnUse"><stop offset="0" stop-color="#3c481e"/><stop offset=".14" stop-color="#4c5d23"/><stop offset=".42" stop-color="#68842b"/><stop offset=".66" stop-color="#80a42a"/><stop offset=".86" stop-color="#8fb923"/><stop offset="1" stop-color="#95c125"/></linearGradient></defs><rect class="cls-6" x=".5" y=".5" width="720" height="378.91"/><g><g id="prodBg"><rect id="external-border" class="cls-15" x="146.88" y="102.08" width="427.23" height="175.75"/><rect id="internal-border" class="cls-1" x="151.52" y="106.72" width="418.1" height="166.49"/><rect id="bg" class="cls-14" x="155.56" y="110.78" width="409.85" height="158.21"/><rect id="bgPattern" class="cls-8" x="155.56" y="110.78" width="409.85" height="158.21"/></g><path class="cls-17" d="M382,211.1v-7.77c2.98-3.99,5.85-7.22,8.63-9.64l4.01-3.56c2.88-2.55,5.25-5.07,7.14-7.57s2.83-5.1,2.83-7.82c0-2.47-.78-4.36-2.37-5.7s-3.73-2.02-6.43-2.02c-3.58,0-7.77,1.21-12.54,3.66v-7.22c5-1.87,9.84-2.8,14.51-2.8,5.17,0,9.33,1.24,12.51,3.71s4.77,5.78,4.77,9.94c0,2.62-.68,5.1-2.02,7.39-1.34,2.32-4.14,5.17-8.35,8.6l-3.33,2.65c-1.46,1.19-3.05,2.67-4.79,4.52s-2.88,3.78-3.43,5.85h21.72v7.77h-32.85Z"/><path class="cls-17" d="M321.52,221.97l32.42-69.31h8.33l-32.42,69.31h-8.33Z"/><g id="plant"><rect class="cls-2" x="183.6" y="131.88" width="116.22" height="116.22"/><rect class="cls-16" x="186.95" y="135.23" width="109.51" height="109.51"/><rect class="cls-10" x="192.26" y="140.54" width="98.89" height="98.89"/><path id="leaf" class="cls-7" d="M241.66,164.96c-14.17,1.96-24.98,11.18-24.98,24.98,0,3.36,.65,6.62,1.86,9.6-2.61,1.77-6.43,4.1-8.29,4.75-3.26,1.12-9.79,.37-10.07,.93s1.86,6.43,2.61,6.71,6.71,.28,10.07-.93c2.42-.84,6.8-3.63,9.32-5.5,4.57,5.78,11.65,9.41,19.57,9.41,13.79,0,24.79-8.67,24.79-22.46,0-5.31,1.3-12.02,3.26-16.22,2.14-4.66,13.23-7.64,13.23-7.64-1.12-3.63-35.79-4.38-41.38-3.63Z"/><path id="darker" class="cls-4" d="M296.46,244.74h-109.51v-60.02s34.48,5.31,54.71,5.31,54.8-5.31,54.8-5.31v60.02Z"/></g><g id="tagMicrobe"><path class="cls-2" d="M543.87,189.63c0,32.05-26.06,58.11-58.11,58.11s-58.11-26.06-58.11-58.11,26.06-58.11,58.11-58.11c32.15,0,58.11,25.96,58.11,58.11Z"/><path class="cls-11" d="M539.66,189.63c0,29.71-24.09,53.8-53.8,53.8s-53.8-24.09-53.8-53.8,24.09-53.8,53.8-53.8c29.71-.09,53.8,23.99,53.8,53.8Z"/><path class="cls-13" d="M534.41,189.63c0,26.81-21.74,48.64-48.64,48.64s-48.55-21.84-48.55-48.64,21.74-48.64,48.64-48.64,48.55,21.74,48.55,48.64Z"/><g id="microbes"><polygon class="cls-9" points="487.92 195.72 483.61 196.28 484.17 200.59 479.95 199.84 479.2 204.15 475.36 202.18 473.39 206.12 470.3 203.12 467.3 206.22 465.14 202.47 461.4 204.53 460.46 200.31 456.24 201.25 456.62 196.94 452.3 196.56 453.99 192.53 449.96 190.84 452.68 187.56 449.4 184.75 452.96 182.41 450.62 178.75 454.74 177.53 453.52 173.41 457.83 173.5 457.93 169.1 462.05 170.51 463.36 166.38 466.93 168.82 469.36 165.35 472.08 168.72 475.45 166.1 476.95 170.13 481.08 168.63 481.27 172.94 485.67 172.66 484.64 176.88 488.86 177.91 486.61 181.57 490.36 183.81 487.08 186.72 489.98 189.91 486.05 191.78 487.92 195.72"/><polygon class="cls-9" points="525.13 178.47 523.63 178.94 523.63 180.82 521.47 180.16 519.97 181.57 517.82 180.07 515.57 180.63 509.2 181.47 506.57 181.19 503.85 175.94 500.67 175.1 498.14 172.38 495.14 170.79 492.79 168.07 489.98 166.76 488.29 163.48 485.86 161.51 484.92 159.07 483.14 157.2 482.95 155.23 481.55 153.45 482.76 152.23 482.86 150.26 484.17 150.35 485.39 148.95 487.17 149.79 490.08 146.98 492.32 148.67 494.95 148.76 497.48 150.73 500.57 151.48 502.17 155.79 505.45 157.1 507.7 159.82 510.79 161.6 512.66 164.23 515.66 166.19 520.54 168.82 522.79 171.07 523.16 172.94 524.75 174.82 524.29 176.5 525.13 178.47"/><polygon class="cls-9" points="520.35 199 520.63 199.56 521.29 200.87 520.07 201.62 520.16 203.12 517.16 204.25 515.94 206.03 512.38 209.59 508.35 211.46 502.92 213.06 499.73 215.03 495.42 216.06 491.86 217.74 487.64 218.49 484.26 220.18 480.14 220.37 476.49 221.49 473.67 221.4 470.67 222.05 468.8 221.49 466.18 221.96 465.99 220.65 465.24 220.37 465.43 219.06 465.24 217.74 467.21 216.71 467.11 213.62 470.21 212.49 472.36 210.62 475.92 209.4 480.14 208.28 483.98 207.71 487.64 205.65 491.67 205 495.61 203.31 499.45 202.75 503.38 201.25 509.38 198.53 513.13 197.59 515.1 197.97 517.82 197.4 518.94 198.34 520.35 199"/></g><path id="ciemniej" class="cls-3" d="M539.66,189.63c0-1.12,0-2.16-.09-3.19-10.87,3-29.52,6.84-53.71,6.84s-42.27-4.78-53.61-8.72c-.19,1.69-.28,3.37-.28,5.06,0,29.71,24.09,53.8,53.8,53.8s53.89-24.09,53.89-53.8Z"/></g></g></svg>