<?xml version="1.0" encoding="UTF-8"?><svg id="Layer" xmlns="http://www.w3.org/2000/svg" xmlns:xlink="http://www.w3.org/1999/xlink" viewBox="0 0 721 379.91"><defs><style>.cls-1{fill:url(#linear-gradient-2);}.cls-2,.cls-3{fill:#020303;}.cls-4{fill:#fff;opacity:0;stroke:#1d1d1b;}.cls-4,.cls-5{stroke-miterlimit:10;}.cls-6{fill:#cd141b;}.cls-7{fill:#18291b;}.cls-8{fill:url(#radial-gradient);}.cls-9{fill:url(#linear-gradient-5);}.cls-10{fill:url(#radial-gradient-2);}.cls-5{fill:none;stroke:#010202;stroke-width:1.86px;}.cls-3{opacity:.08;}.cls-3,.cls-11,.cls-12{isolation:isolate;}.cls-13{fill:#115729;}.cls-14{fill:url(#linear-gradient);}.cls-11{fill:#e03d15;opacity:.5;}.cls-15{fill:url(#linear-gradient-4);}.cls-12{fill:url(#linear-gradient-3);opacity:.4;}</style><linearGradient id="linear-gradient" x1="-598.33" y1="1823.47" x2="-521.18" y2="1746.33" gradientTransform="translate(-350.73 -1466.73) rotate(-45)" gradientUnits="userSpaceOnUse"><stop offset="0" stop-color="#1f4d23"/><stop offset=".43" stop-color="#4b6e30"/><stop offset="1" stop-color="#95a946"/></linearGradient><radialGradient id="radial-gradient" cx="515.59" cy="444.36" fx="515.59" fy="444.36" r="49.26" gradientTransform="translate(0 -253.18)" gradientUnits="userSpaceOnUse"><stop offset=".25" stop-color="#95a946"/><stop offset="1" stop-color="#397931"/></radialGradient><linearGradient id="linear-gradient-2" x1="365.4" y1="151.5" x2="365.4" y2="194.27" gradientTransform="translate(0 364.09) scale(1 -1)" gradientUnits="userSpaceOnUse"><stop offset="0" stop-color="#542913"/><stop offset=".45" stop-color="#542913" stop-opacity=".7"/><stop offset=".58" stop-color="#e03d15" stop-opacity=".5"/><stop offset="1" stop-color="#e03d15" stop-opacity=".5"/></linearGradient><linearGradient id="linear-gradient-3" x1="213.69" y1="495" x2="213.69" y2="362.18" gradientTransform="translate(0 -236.64)" gradientUnits="userSpaceOnUse"><stop offset="0" stop-color="#ffdc12"/><stop offset="0" stop-color="#ffdb13"/><stop offset=".05" stop-color="#f9bb1b"/><stop offset=".1" stop-color="#f59b18"/><stop offset=".16" stop-color="#ef7b19"/><stop offset=".22" stop-color="#e86112"/><stop offset=".27" stop-color="#e84a1d"/><stop offset=".34" stop-color="#e5391e"/><stop offset=".41" stop-color="#e63121"/><stop offset=".5" stop-color="#e62e21"/><stop offset=".59" stop-color="#e63121"/><stop offset=".66" stop-color="#e5391e"/><stop offset=".73" stop-color="#e84a1d"/><stop offset=".78" stop-color="#e86112"/><stop offset=".84" stop-color="#ef7b19"/><stop offset=".9" stop-color="#f59b18"/><stop offset=".95" stop-color="#f9bb1b"/><stop offset="1" stop-color="#ffdb13"/><stop offset="1" stop-color="#ffdc12"/></linearGradient><linearGradient id="linear-gradient-4" x1="212.82" y1="491.51" x2="212.82" y2="363.92" xlink:href="#linear-gradient-3"/><linearGradient id="linear-gradient-5" x1="-812.34" y1="1608.13" x2="-735.19" y2="1530.99" xlink:href="#linear-gradient"/><radialGradient id="radial-gradient-2" cx="212" cy="443.42" fx="212" fy="443.42" r="49.26" xlink:href="#radial-gradient"/></defs><rect class="cls-4" x=".5" y=".5" width="720" height="378.91"/><g id="animal"><rect class="cls-2" x="457.69" y="133.3" width="115.79" height="115.79"/><rect class="cls-14" x="461.03" y="136.64" width="109.1" height="109.1"/><rect class="cls-8" x="466.33" y="141.93" width="98.52" height="98.52"/><path id="darker" class="cls-3" d="M570.13,245.73h-109.1v-59.8s34.36,5.29,54.51,5.29,54.59-5.29,54.59-5.29v59.8Z"/><path class="cls-13" d="M504.03,163.47c-.28,0-2.98,.37-4.55,2.6-.65,.83-.93,1.76-1.11,2.78-.37,2.05-1.11,5.76,.37,10.3,.75,2.13,1.58,4.74,3.99,6.5,.75,.55,2.23,1.58,4.18,1.4,2.13-.18,3.43-1.76,3.9-2.33,1.86-2.13,1.86-4.64,1.95-7.34,0-1.3,0-5.29-2.05-9.47-1.4-2.78-2.6-3.53-3.16-3.81-1.48-.93-3.06-.75-3.53-.65h0Z"/><path class="cls-13" d="M529.65,161.89c-.28-.1-2.88-.65-5.11,.83-.83,.55-1.48,1.3-2.05,2.23-1.11,1.76-3.06,4.92-3.25,9.75-.1,2.33-.18,5.01,1.48,7.52,.55,.75,1.58,2.23,3.43,2.69,2.05,.55,3.9-.47,4.46-.83,2.41-1.4,3.43-3.71,4.46-6.22,.47-1.21,1.86-4.92,1.4-9.57-.28-3.06-1.21-4.18-1.67-4.64-1.21-1.21-2.69-1.58-3.16-1.76h.01Z"/><path class="cls-13" d="M486.66,178.32c-.28,.1-2.88,.65-4.27,2.98-.55,.93-.75,1.76-.83,2.88-.18,2.05-.55,5.76,1.3,10.22,.93,2.05,1.95,4.55,4.64,6.13,.83,.47,2.41,1.3,4.27,.93,2.13-.37,3.25-2.05,3.71-2.69,1.58-2.33,1.48-4.83,1.3-7.52-.1-1.3-.47-5.19-2.98-9.19-1.58-2.6-2.88-3.25-3.53-3.53-1.67-.55-3.06-.28-3.62-.18v-.02Z"/><path class="cls-13" d="M545.16,176.09c-.28-.1-2.88-.65-5.11,.93-.83,.65-1.4,1.4-1.95,2.33-1.02,1.86-2.98,5.01-2.98,9.85,0,2.33-.1,5.01,1.67,7.42,.55,.75,1.67,2.23,3.53,2.6,2.05,.47,3.81-.55,4.46-.93,2.41-1.4,3.34-3.81,4.27-6.31,.47-1.21,1.76-4.92,1.11-9.57-.37-3.06-1.3-4.18-1.76-4.64-1.3-1.21-2.78-1.58-3.25-1.67h.01Z"/><path class="cls-7" d="M544.51,179.07c-.18,0-2.13-.47-3.81,.75-.65,.47-1.02,1.02-1.48,1.67-.75,1.4-2.13,3.71-2.23,7.34,0,1.67-.1,3.71,1.3,5.57,.37,.55,1.21,1.67,2.6,1.95,1.58,.37,2.88-.47,3.34-.65,1.76-1.11,2.41-2.78,3.16-4.74,.37-.93,1.3-3.71,.83-7.15-.28-2.23-1.02-3.06-1.3-3.43-.93-1.02-2.05-1.3-2.41-1.3h0Z"/><path class="cls-7" d="M528.9,164.96c-.18-.1-2.13-.47-3.81,.55-.65,.47-1.02,.93-1.48,1.67-.83,1.3-2.23,3.62-2.41,7.24-.1,1.67-.18,3.71,1.11,5.57,.37,.55,1.11,1.67,2.51,2.05,1.58,.37,2.88-.37,3.34-.55,1.76-1.02,2.51-2.69,3.25-4.55,.37-.93,1.4-3.62,1.02-7.06-.28-2.23-.93-3.06-1.21-3.43-.93-1.11-1.95-1.4-2.33-1.48h0Z"/><path class="cls-7" d="M504.39,166.53c-.18,0-2.13,.28-3.34,1.86-.47,.65-.65,1.3-.83,2.05-.28,1.48-.83,4.18,.28,7.62,.55,1.58,1.11,3.53,2.98,4.83,.55,.37,1.67,1.11,3.06,1.02,1.58-.18,2.51-1.3,2.88-1.67,1.3-1.58,1.4-3.43,1.48-5.39,0-.93,0-3.9-1.58-6.97-1.02-2.05-1.95-2.6-2.33-2.78-1.11-.75-2.23-.65-2.6-.55h0Z"/><path class="cls-7" d="M487.31,181.02c-.18,0-2.23,.47-3.25,2.33-.47,.75-.55,1.4-.65,2.23-.18,1.58-.47,4.46,1.02,7.8,.65,1.58,1.48,3.53,3.53,4.64,.65,.37,1.86,1.02,3.25,.75,1.58-.28,2.51-1.58,2.78-2.05,1.21-1.76,1.11-3.71,1.02-5.76-.1-1.02-.37-3.99-2.23-7.06-1.21-2.05-2.23-2.51-2.69-2.69-1.3-.47-2.51-.18-2.78-.18h-.01Z"/><path class="cls-13" d="M516.37,185.94c-1.3,.1-2.69,.1-4.27,.93-1.76,.93-2.78,2.33-3.71,3.53-.83,1.11-.75,1.21-1.95,3.16-1.11,1.67-1.67,2.69-2.69,3.81-1.21,1.4-2.41,2.23-4.55,3.9-2.33,1.76-2.51,1.67-3.16,2.41-1.58,1.86-1.95,3.9-2.23,5.29-.18,1.3-.65,3.71,.37,6.5,.47,1.21,1.3,3.53,3.43,4.55,.83,.37,1.67,.47,3.71,.37,3.43-.18,5.76-.83,7.8-1.3,2.41-.55,4.92-1.11,8.07-1.21,3.81-.1,7.15,.55,8.92,.83,2.05,.37,3.53,.83,6.41,1.11,2.41,.28,3.62,.18,5.01-.28,.83-.28,2.33-.75,3.43-2.05,1.21-1.48,1.3-3.06,1.3-4.74,.1-1.11,.1-3.81-1.48-6.97-.65-1.4-1.21-2.05-3.34-4.64-5.76-7.15-6.04-7.99-8.35-9.93-1.4-1.21-2.78-2.41-4.92-3.43-1.11-.65-3.99-2.05-7.8-1.86h-.02Z"/><path class="cls-7" d="M516.65,188.35c-1.11,.1-2.33,.1-3.71,.83-1.48,.83-2.41,2.05-3.16,3.06-.75,.93-.65,1.02-1.67,2.78-.93,1.48-1.48,2.33-2.33,3.25-1.02,1.21-2.05,1.95-3.9,3.34-2.05,1.58-2.13,1.4-2.78,2.13-1.4,1.58-2.6,3.99-2.88,5.11-.18,1.11-.55,3.16,.28,5.57,.37,1.11,1.11,3.06,2.98,3.9,.75,.37,2.41-.1,4.09-.28,2.98-.18,5.01-.75,6.77-1.11,2.05-.47,4.27-.93,6.97-1.02,3.25-.1,6.13,.47,7.7,.75,1.76,.37,3.06,.75,5.48,.93,2.05,.18,4.55,1.02,5.66,.65,.75-.18,1.95-.75,2.98-1.95,1.02-1.21,.75-3.81,.83-5.29,.1-.93-.75-2.98-2.33-5.66-.75-1.3-1.11-1.76-2.88-3.99-4.92-6.13-5.19-6.87-7.15-8.54-1.21-1.02-2.41-2.05-4.27-2.98-.93-.47-3.43-1.67-6.69-1.48h.01Z"/></g><g id="arrow"><path class="cls-11" d="M425,191.18l-56.85-26.27,6.88,13.65h-64.07s-1.93,6.15-1.93,12.07,1.93,10.75,1.93,10.75h65.28l-8.1,16.07,56.85-26.27h.01Z"/><path class="cls-1" d="M380.01,199.08h-67.38c-.52-1.76-1.28-4.91-1.28-8.43,0-3.74,.83-7.64,1.38-9.76h66.07l-5.58-11.07,46.25,21.39-46.25,21.39,6.79-13.49h0v-.02Z"/><path class="cls-6" d="M384.98,196.02h-69.98c-.32-1.48-.6-3.37-.6-5.37,0-2.34,.37-4.77,.76-6.7h68.61l-3.86-7.68,32.27,14.91-32.27,14.91,5.08-10.09h0Z"/><path class="cls-5" d="M380.01,199.08h-67.38c-.52-1.76-1.28-4.91-1.28-8.43,0-3.74,.83-7.64,1.38-9.76h66.07l-5.58-11.07,46.25,21.39-46.25,21.39,6.79-13.49h0v-.02Z"/></g><rect class="cls-12" x="147.28" y="125.54" width="132.82" height="132.82"/><rect class="cls-15" x="149.02" y="127.28" width="127.59" height="127.59"/><g id="animal-2"><rect class="cls-2" x="154.1" y="132.36" width="115.79" height="115.79"/><rect class="cls-9" x="157.44" y="135.7" width="109.1" height="109.1"/><rect class="cls-10" x="162.74" y="140.99" width="98.52" height="98.52"/><path id="darker-2" class="cls-3" d="M266.54,244.8h-109.1v-59.8s34.36,5.29,54.51,5.29,54.59-5.29,54.59-5.29v59.8Z"/><path class="cls-13" d="M200.43,162.54c-.28,0-2.98,.37-4.55,2.6-.65,.83-.93,1.76-1.11,2.78-.37,2.05-1.11,5.76,.37,10.3,.75,2.13,1.58,4.74,3.99,6.5,.75,.55,2.23,1.58,4.18,1.4,2.13-.18,3.43-1.76,3.9-2.33,1.86-2.13,1.86-4.64,1.95-7.34,0-1.3,0-5.29-2.05-9.47-1.4-2.78-2.6-3.53-3.16-3.81-1.48-.93-3.06-.75-3.53-.65h0Z"/><path class="cls-13" d="M226.06,160.96c-.28-.1-2.88-.65-5.11,.83-.83,.55-1.48,1.3-2.05,2.23-1.11,1.76-3.06,4.92-3.25,9.75-.1,2.33-.18,5.01,1.48,7.52,.55,.75,1.58,2.23,3.43,2.69,2.05,.55,3.9-.47,4.46-.83,2.41-1.4,3.43-3.71,4.46-6.22,.47-1.21,1.86-4.92,1.4-9.57-.28-3.06-1.21-4.18-1.67-4.64-1.21-1.21-2.69-1.58-3.16-1.76h.01Z"/><path class="cls-13" d="M183.07,177.38c-.28,.1-2.88,.65-4.27,2.98-.55,.93-.75,1.76-.83,2.88-.18,2.05-.55,5.76,1.3,10.22,.93,2.05,1.95,4.55,4.64,6.13,.83,.47,2.41,1.3,4.27,.93,2.13-.37,3.25-2.05,3.71-2.69,1.58-2.33,1.48-4.83,1.3-7.52-.1-1.3-.47-5.19-2.98-9.19-1.58-2.6-2.88-3.25-3.53-3.53-1.67-.55-3.06-.28-3.62-.18v-.02Z"/><path class="cls-13" d="M241.57,175.15c-.28-.1-2.88-.65-5.11,.93-.83,.65-1.4,1.4-1.95,2.33-1.02,1.86-2.98,5.01-2.98,9.85,0,2.33-.1,5.01,1.67,7.42,.55,.75,1.67,2.23,3.53,2.6,2.05,.47,3.81-.55,4.46-.93,2.41-1.4,3.34-3.81,4.27-6.31,.47-1.21,1.76-4.92,1.11-9.57-.37-3.06-1.3-4.18-1.76-4.64-1.3-1.21-2.78-1.58-3.25-1.67h.01Z"/><path class="cls-7" d="M240.91,178.13c-.18,0-2.13-.47-3.81,.75-.65,.47-1.02,1.02-1.48,1.67-.75,1.4-2.13,3.71-2.23,7.34,0,1.67-.1,3.71,1.3,5.57,.37,.55,1.21,1.67,2.6,1.95,1.58,.37,2.88-.47,3.34-.65,1.76-1.11,2.41-2.78,3.16-4.74,.37-.93,1.3-3.71,.83-7.15-.28-2.23-1.02-3.06-1.3-3.43-.93-1.02-2.05-1.3-2.41-1.3h0Z"/><path class="cls-7" d="M225.31,164.02c-.18-.1-2.13-.47-3.81,.55-.65,.47-1.02,.93-1.48,1.67-.83,1.3-2.23,3.62-2.41,7.24-.1,1.67-.18,3.71,1.11,5.57,.37,.55,1.11,1.67,2.51,2.05,1.58,.37,2.88-.37,3.34-.55,1.76-1.02,2.51-2.69,3.25-4.55,.37-.93,1.4-3.62,1.02-7.06-.28-2.23-.93-3.06-1.21-3.43-.93-1.11-1.95-1.4-2.33-1.48h0Z"/><path class="cls-7" d="M200.8,165.6c-.18,0-2.13,.28-3.34,1.86-.47,.65-.65,1.3-.83,2.05-.28,1.48-.83,4.18,.28,7.62,.55,1.58,1.11,3.53,2.98,4.83,.55,.37,1.67,1.11,3.06,1.02,1.58-.18,2.51-1.3,2.88-1.67,1.3-1.58,1.4-3.43,1.48-5.39,0-.93,0-3.9-1.58-6.97-1.02-2.05-1.95-2.6-2.33-2.78-1.11-.75-2.23-.65-2.6-.55h0Z"/><path class="cls-7" d="M183.72,180.08c-.18,0-2.23,.47-3.25,2.33-.47,.75-.55,1.4-.65,2.23-.18,1.58-.47,4.46,1.02,7.8,.65,1.58,1.48,3.53,3.53,4.64,.65,.37,1.86,1.02,3.25,.75,1.58-.28,2.51-1.58,2.78-2.05,1.21-1.76,1.11-3.71,1.02-5.76-.1-1.02-.37-3.99-2.23-7.06-1.21-2.05-2.23-2.51-2.69-2.69-1.3-.47-2.51-.18-2.78-.18h-.01Z"/><path class="cls-13" d="M212.78,185c-1.3,.1-2.69,.1-4.27,.93-1.76,.93-2.78,2.33-3.71,3.53-.83,1.11-.75,1.21-1.95,3.16-1.11,1.67-1.67,2.69-2.69,3.81-1.21,1.4-2.41,2.23-4.55,3.9-2.33,1.76-2.51,1.67-3.16,2.41-1.58,1.86-1.95,3.9-2.23,5.29-.18,1.3-.65,3.71,.37,6.5,.47,1.21,1.3,3.53,3.43,4.55,.83,.37,1.67,.47,3.71,.37,3.43-.18,5.76-.83,7.8-1.3,2.41-.55,4.92-1.11,8.07-1.21,3.81-.1,7.15,.55,8.92,.83,2.05,.37,3.53,.83,6.41,1.11,2.41,.28,3.62,.18,5.01-.28,.83-.28,2.33-.75,3.43-2.05,1.21-1.48,1.3-3.06,1.3-4.74,.1-1.11,.1-3.81-1.48-6.97-.65-1.4-1.21-2.05-3.34-4.64-5.76-7.15-6.04-7.99-8.35-9.93-1.4-1.21-2.78-2.41-4.92-3.43-1.11-.65-3.99-2.05-7.8-1.86h-.02Z"/><path class="cls-7" d="M213.05,187.41c-1.11,.1-2.33,.1-3.71,.83-1.48,.83-2.41,2.05-3.16,3.06-.75,.93-.65,1.02-1.67,2.78-.93,1.48-1.48,2.33-2.33,3.25-1.02,1.21-2.05,1.95-3.9,3.34-2.05,1.58-2.13,1.4-2.78,2.13-1.4,1.58-2.6,3.99-2.88,5.11-.18,1.11-.55,3.16,.28,5.57,.37,1.11,1.11,3.06,2.98,3.9,.75,.37,2.41-.1,4.09-.28,2.98-.18,5.01-.75,6.77-1.11,2.05-.47,4.27-.93,6.97-1.02,3.25-.1,6.13,.47,7.7,.75,1.76,.37,3.06,.75,5.48,.93,2.05,.18,4.55,1.02,5.66,.65,.75-.18,1.95-.75,2.98-1.95,1.02-1.21,.75-3.81,.83-5.29,.1-.93-.75-2.98-2.33-5.66-.75-1.3-1.11-1.76-2.88-3.99-4.92-6.13-5.19-6.87-7.15-8.54-1.21-1.02-2.41-2.05-4.27-2.98-.93-.47-3.43-1.67-6.69-1.48h.01Z"/></g></svg>