<?xml version="1.0" encoding="UTF-8"?><svg id="Layer" xmlns="http://www.w3.org/2000/svg" viewBox="0 0 721 379.91"><defs><style>.cls-1{fill:#fff;opacity:0;stroke:#1d1d1b;stroke-miterlimit:10;}</style></defs><rect class="cls-1" x=".5" y=".5" width="720" height="378.91"/><g><path d="M5.58,179.31l11.03-28.32h5.91l11.02,28.32h-6.06l-2.94-7.56H12.82l-2.94,7.56H5.58Zm8.7-11.33h8.79l-4.39-11.29-4.4,11.29Z"/><path d="M37.54,179.31v-28.32h12.19c3.27,0,5.81,.52,7.62,1.57,1.82,1.05,3.27,2.59,4.34,4.62,1.08,2.03,1.62,4.49,1.62,7.38s-.51,5.34-1.54,7.56c-1.03,2.22-2.52,3.97-4.49,5.26-1.96,1.29-4.66,1.93-8.07,1.93h-11.67Zm5.89-4.02h4.4c2.3,0,4.05-.36,5.27-1.07,1.22-.71,2.18-1.92,2.89-3.63,.71-1.7,1.06-3.6,1.06-5.69s-.34-3.78-1.03-5.32c-.69-1.54-1.64-2.71-2.86-3.51-1.22-.8-3.28-1.2-6.17-1.2h-3.56v20.42Z"/><path d="M68.61,179.31v-28.32h12.19c3.27,0,5.81,.52,7.62,1.57,1.82,1.05,3.27,2.59,4.34,4.62,1.08,2.03,1.62,4.49,1.62,7.38s-.51,5.34-1.54,7.56c-1.03,2.22-2.52,3.97-4.49,5.26-1.96,1.29-4.66,1.93-8.07,1.93h-11.67Zm5.89-4.02h4.4c2.3,0,4.05-.36,5.27-1.07,1.22-.71,2.18-1.92,2.89-3.63,.71-1.7,1.06-3.6,1.06-5.69s-.34-3.78-1.03-5.32c-.69-1.54-1.64-2.71-2.86-3.51-1.22-.8-3.28-1.2-6.17-1.2h-3.56v20.42Z"/><path d="M118.45,179.31v-25.03h-3.79l-.11-2.83,9.57-.82v28.68h-5.66Z"/><path d="M149.74,179.31v-28.32h10.6c2.17,0,3.82,.27,4.96,.81,1.14,.54,2.03,1.37,2.69,2.47,.66,1.1,.99,2.35,.99,3.74,0,1.66-.48,3.22-1.44,4.7-.96,1.47-2.31,2.6-4.06,3.38l9.27,13.22h-7.18l-7.04-11.58h-3.24v11.58h-5.55Zm5.55-15.46h1.36c2.43,0,4.11-.53,5.04-1.59,.93-1.06,1.39-2.26,1.39-3.6,0-1.16-.38-2.08-1.13-2.76-.75-.68-2.29-1.02-4.6-1.02h-2.05v8.97Z"/><path d="M176.77,179.31v-28.32h18.14v3.9h-12.25v7.88h10.12v3.9h-10.12v8.61h13.14v4.02h-19.04Z"/><path d="M198.72,179.07v-4.86c2.21,.93,3.86,1.48,4.95,1.66,1.09,.18,2.1,.27,3.02,.27,1.65,0,2.89-.37,3.7-1.11s1.22-1.63,1.22-2.66c0-.79-.23-1.51-.68-2.15-.46-.63-1.57-1.44-3.35-2.43l-1.91-1.05c-2.73-1.52-4.58-2.92-5.54-4.21-.98-1.29-1.47-2.78-1.47-4.48,0-2.13,.81-3.96,2.45-5.48,1.63-1.52,3.97-2.28,7.03-2.28,2.28,0,4.85,.33,7.71,.98v4.54c-2.93-1.09-5.25-1.63-6.97-1.63-1.42,0-2.51,.31-3.25,.93-.75,.62-1.12,1.36-1.12,2.23,0,.66,.23,1.28,.68,1.86,.44,.57,1.55,1.36,3.33,2.35l2.05,1.13c3.13,1.75,5.12,3.27,5.99,4.56,.85,1.3,1.27,2.76,1.27,4.38,0,2.32-.88,4.3-2.65,5.95-1.77,1.64-4.59,2.47-8.45,2.47-2.29,0-4.96-.32-7.99-.96Z"/><path d="M235.3,180.02c-2.95,0-5.51-.61-7.69-1.83-2.18-1.22-3.84-2.97-4.97-5.26-1.14-2.29-1.7-4.88-1.7-7.78s.57-5.47,1.7-7.77c1.14-2.3,2.8-4.05,4.99-5.27,2.19-1.22,4.75-1.83,7.67-1.83s5.46,.61,7.65,1.83c2.19,1.22,3.86,2.98,4.99,5.27,1.13,2.3,1.7,4.89,1.7,7.77s-.57,5.49-1.7,7.78c-1.14,2.29-2.79,4.04-4.97,5.26-2.17,1.22-4.74,1.83-7.68,1.83Zm0-3.88c2.73,0,4.76-1.11,6.09-3.34,1.33-2.23,2-4.78,2-7.65s-.67-5.44-2.01-7.65c-1.34-2.22-3.37-3.32-6.08-3.32s-4.76,1.11-6.1,3.32c-1.34,2.21-2.01,4.77-2.01,7.65s.67,5.42,2,7.65c1.33,2.23,3.37,3.34,6.11,3.34Z"/><path d="M254.72,151h5.89v17.37c0,3.14,.53,5.22,1.6,6.24,1.06,1.02,2.45,1.53,4.14,1.53s3-.5,3.99-1.51c.99-1.01,1.48-2.96,1.48-5.84v-17.79h5.13v17.39c0,3.28-.41,5.63-1.23,7.05s-2.01,2.54-3.57,3.36-3.53,1.22-5.91,1.22-4.36-.38-6.05-1.14c-1.68-.76-3.02-1.89-4-3.39-.98-1.5-1.47-3.89-1.47-7.17v-17.33Z"/><path d="M283.81,179.31v-28.32h10.6c2.17,0,3.82,.27,4.96,.81,1.14,.54,2.03,1.37,2.69,2.47,.66,1.1,.99,2.35,.99,3.74,0,1.66-.48,3.22-1.44,4.7-.96,1.47-2.31,2.6-4.06,3.38l9.27,13.22h-7.18l-7.04-11.58h-3.24v11.58h-5.55Zm5.55-15.46h1.36c2.43,0,4.11-.53,5.04-1.59,.93-1.06,1.39-2.26,1.39-3.6,0-1.16-.38-2.08-1.13-2.76-.75-.68-2.29-1.02-4.6-1.02h-2.05v8.97Z"/><path d="M333.63,178.2c-1.24,.54-2.32,.92-3.23,1.12s-1.96,.37-3.13,.5c-1.17,.13-2.32,.2-3.45,.2-4.95,0-8.64-1.4-11.08-4.19-2.44-2.79-3.65-6.35-3.65-10.68s1.22-7.91,3.65-10.7c2.43-2.78,6.25-4.17,11.45-4.17,3.07,0,6.14,.36,9.18,1.09v4.61c-1.47-.51-2.67-.88-3.6-1.12-.93-.24-1.81-.41-2.65-.53-.84-.12-1.67-.17-2.5-.17-3.25,0-5.61,1.05-7.08,3.14-1.47,2.09-2.2,4.68-2.2,7.77,0,3.24,.83,5.86,2.5,7.86,1.66,2,4.14,3,7.43,3,2.74,0,5.53-.69,8.36-2.09v4.34Z"/><path d="M338.76,179.31v-28.32h18.14v3.9h-12.25v7.88h10.12v3.9h-10.12v8.61h13.14v4.02h-19.04Z"/><path d="M381.85,179.31v-24.41h-10.14v-3.9h26.17v3.9h-10.14v24.41h-5.89Z"/><path d="M414.45,180.02c-2.95,0-5.51-.61-7.69-1.83-2.18-1.22-3.84-2.97-4.97-5.26-1.14-2.29-1.7-4.88-1.7-7.78s.57-5.47,1.7-7.77c1.13-2.3,2.8-4.05,4.99-5.27,2.19-1.22,4.75-1.83,7.67-1.83s5.46,.61,7.65,1.83c2.19,1.22,3.86,2.98,4.99,5.27,1.14,2.3,1.7,4.89,1.7,7.77s-.57,5.49-1.7,7.78c-1.13,2.29-2.79,4.04-4.96,5.26-2.17,1.22-4.74,1.83-7.68,1.83Zm0-3.88c2.73,0,4.76-1.11,6.09-3.34,1.33-2.23,2-4.78,2-7.65s-.67-5.44-2.01-7.65c-1.34-2.22-3.37-3.32-6.08-3.32s-4.76,1.11-6.1,3.32c-1.34,2.21-2.01,4.77-2.01,7.65s.67,5.42,2,7.65c1.33,2.23,3.37,3.34,6.11,3.34Z"/><path d="M443.52,179.31l11.03-28.32h5.91l11.02,28.32h-6.06l-2.94-7.56h-11.72l-2.94,7.56h-4.29Zm8.7-11.33h8.79l-4.39-11.29-4.4,11.29Z"/><path d="M510.77,178.2c-1.24,.54-2.32,.92-3.23,1.12-.92,.2-1.96,.37-3.13,.5-1.17,.13-2.32,.2-3.45,.2-4.95,0-8.64-1.4-11.08-4.19s-3.65-6.35-3.65-10.68,1.21-7.91,3.65-10.7c2.43-2.78,6.25-4.17,11.45-4.17,3.07,0,6.14,.36,9.18,1.09v4.61c-1.47-.51-2.67-.88-3.6-1.12-.93-.24-1.81-.41-2.65-.53-.83-.12-1.67-.17-2.5-.17-3.25,0-5.61,1.05-7.08,3.14-1.47,2.09-2.2,4.68-2.2,7.77,0,3.24,.83,5.86,2.5,7.86,1.66,2,4.14,3,7.43,3,2.74,0,5.53-.69,8.36-2.09v4.34Z"/><path d="M512.8,179.31l11.03-28.32h5.91l11.02,28.32h-6.06l-2.94-7.56h-11.72l-2.94,7.56h-4.29Zm8.7-11.33h8.79l-4.39-11.29-4.4,11.29Z"/><path d="M544.75,179.31v-28.32h10.6c2.17,0,3.82,.27,4.96,.81,1.13,.54,2.03,1.37,2.69,2.47,.66,1.1,.99,2.35,.99,3.74,0,1.66-.48,3.22-1.44,4.7-.96,1.47-2.31,2.6-4.06,3.38l9.27,13.22h-7.18l-7.04-11.58h-3.24v11.58h-5.55Zm5.55-15.46h1.36c2.43,0,4.11-.53,5.04-1.59,.93-1.06,1.39-2.26,1.39-3.6,0-1.16-.38-2.08-1.13-2.76-.75-.68-2.29-1.02-4.6-1.02h-2.05v8.97Z"/><path d="M571.79,179.31v-28.32h12.19c3.27,0,5.81,.52,7.62,1.57,1.82,1.05,3.27,2.59,4.34,4.62,1.08,2.03,1.62,4.49,1.62,7.38s-.51,5.34-1.54,7.56c-1.03,2.22-2.52,3.97-4.49,5.26-1.96,1.29-4.66,1.93-8.08,1.93h-11.67Zm5.89-4.02h4.4c2.3,0,4.05-.36,5.27-1.07,1.22-.71,2.18-1.92,2.89-3.63,.71-1.7,1.06-3.6,1.06-5.69s-.34-3.78-1.03-5.32c-.69-1.54-1.64-2.71-2.86-3.51-1.22-.8-3.27-1.2-6.17-1.2h-3.56v20.42Z"/><path d="M619.31,179.31l-7.07-28.32h5.57l5.17,20.72,4.89-20.72h4.91l4.63,20.61,5.44-20.61h4.08l-7.42,28.32h-5.64l-4.36-19.42-4.58,19.42h-5.61Z"/><path d="M650.79,179.31v-28.32h5.89v28.32h-5.89Z"/><path d="M670.82,179.31v-24.41h-10.14v-3.9h26.17v3.9h-10.14v24.41h-5.89Z"/><path d="M690.82,179.31v-28.32h5.89v11.5h11.71v-11.5h5.89v28.32h-5.89v-12.92h-11.71v12.92h-5.89Z"/><path d="M70.42,226.31l11.03-28.32h5.91l11.02,28.32h-6.06l-2.94-7.56h-11.72l-2.94,7.56h-4.29Zm8.7-11.33h8.79l-4.39-11.29-4.4,11.29Z"/><path d="M109.41,226.31v-24.41h-10.14v-3.9h26.17v3.9h-10.14v24.41h-5.89Z"/><path d="M141.92,226.31v-28.32h5.89v24.3h12.61v4.02h-18.5Z"/><path d="M164.71,226.31v-28.32h18.14v3.9h-12.25v7.88h10.12v3.9h-10.12v8.61h13.14v4.02h-19.04Z"/><path d="M185.14,226.31l11.03-28.32h5.91l11.02,28.32h-6.06l-2.94-7.56h-11.72l-2.94,7.56h-4.29Zm8.7-11.33h8.79l-4.39-11.29-4.4,11.29Z"/><path d="M215.51,226.07v-4.86c2.21,.93,3.86,1.48,4.95,1.66,1.09,.18,2.1,.27,3.02,.27,1.65,0,2.89-.37,3.7-1.11s1.22-1.63,1.22-2.66c0-.79-.23-1.51-.68-2.15-.46-.62-1.57-1.44-3.35-2.43l-1.91-1.05c-2.73-1.52-4.58-2.92-5.54-4.21-.98-1.29-1.47-2.78-1.47-4.48,0-2.13,.81-3.96,2.45-5.48,1.63-1.52,3.97-2.28,7.03-2.28,2.28,0,4.85,.33,7.71,.98v4.54c-2.93-1.08-5.25-1.63-6.97-1.63-1.42,0-2.51,.31-3.25,.93-.75,.62-1.12,1.36-1.12,2.23,0,.66,.23,1.28,.68,1.86,.44,.57,1.55,1.36,3.33,2.36l2.05,1.13c3.13,1.75,5.12,3.27,5.99,4.55,.85,1.3,1.27,2.76,1.27,4.38,0,2.32-.88,4.3-2.65,5.95-1.77,1.64-4.59,2.47-8.45,2.47-2.29,0-4.96-.32-7.99-.96Z"/><path d="M246.53,226.31v-24.41h-10.14v-3.9h26.17v3.9h-10.14v24.41h-5.89Z"/><path d="M285.29,226.31v-25.03h-3.79l-.11-2.83,9.57-.82v28.68h-5.66Z"/><path d="M316.57,226.31v-28.32h10.6c2.17,0,3.82,.27,4.96,.81,1.14,.54,2.03,1.37,2.69,2.47,.66,1.1,.99,2.35,.99,3.74,0,1.66-.48,3.22-1.44,4.7-.96,1.47-2.31,2.6-4.06,3.38l9.27,13.22h-7.18l-7.04-11.58h-3.24v11.58h-5.55Zm5.55-15.46h1.36c2.43,0,4.11-.53,5.04-1.59s1.39-2.26,1.39-3.6c0-1.16-.38-2.08-1.13-2.76-.75-.68-2.29-1.02-4.6-1.02h-2.05v8.97Z"/><path d="M343.61,226.31v-28.32h18.14v3.9h-12.25v7.88h10.12v3.9h-10.12v8.61h13.14v4.02h-19.04Z"/><path d="M365.55,226.07v-4.86c2.21,.93,3.86,1.48,4.96,1.66s2.1,.27,3.02,.27c1.66,0,2.89-.37,3.7-1.11s1.22-1.63,1.22-2.66c0-.79-.23-1.51-.68-2.15-.46-.62-1.57-1.44-3.35-2.43l-1.91-1.05c-2.73-1.52-4.58-2.92-5.54-4.21-.98-1.29-1.47-2.78-1.47-4.48,0-2.13,.81-3.96,2.44-5.48s3.97-2.28,7.03-2.28c2.28,0,4.85,.33,7.71,.98v4.54c-2.93-1.08-5.25-1.63-6.97-1.63-1.42,0-2.51,.31-3.25,.93-.74,.62-1.12,1.36-1.12,2.23,0,.66,.23,1.28,.68,1.86,.44,.57,1.55,1.36,3.33,2.36l2.05,1.13c3.13,1.75,5.12,3.27,5.98,4.55,.85,1.3,1.27,2.76,1.27,4.38,0,2.32-.88,4.3-2.65,5.95-1.77,1.64-4.59,2.47-8.45,2.47-2.29,0-4.96-.32-7.99-.96Z"/><path d="M402.14,227.02c-2.95,0-5.51-.61-7.69-1.83s-3.84-2.97-4.97-5.26c-1.14-2.29-1.7-4.88-1.7-7.78s.57-5.47,1.7-7.77c1.13-2.3,2.8-4.05,4.99-5.27,2.19-1.22,4.75-1.83,7.67-1.83s5.46,.61,7.65,1.83c2.19,1.22,3.86,2.98,4.99,5.27,1.14,2.3,1.7,4.89,1.7,7.77s-.57,5.49-1.7,7.78c-1.13,2.29-2.79,4.04-4.96,5.26s-4.74,1.83-7.68,1.83Zm0-3.88c2.73,0,4.76-1.11,6.09-3.34s2-4.78,2-7.65-.67-5.44-2.01-7.65c-1.34-2.22-3.37-3.32-6.08-3.32s-4.76,1.11-6.1,3.32c-1.34,2.21-2.01,4.76-2.01,7.65s.67,5.42,2,7.65,3.37,3.34,6.11,3.34Z"/><path d="M421.56,198h5.89v17.37c0,3.14,.53,5.22,1.6,6.24s2.45,1.53,4.14,1.53,3-.5,3.99-1.51,1.48-2.96,1.48-5.84v-17.79h5.13v17.39c0,3.28-.41,5.63-1.23,7.05-.82,1.42-2.01,2.54-3.57,3.36-1.56,.82-3.53,1.22-5.91,1.22s-4.36-.38-6.05-1.14-3.02-1.89-4-3.39c-.98-1.5-1.47-3.89-1.47-7.17v-17.33Z"/><path d="M450.64,226.31v-28.32h10.6c2.17,0,3.82,.27,4.96,.81,1.13,.54,2.03,1.37,2.69,2.47,.66,1.1,.99,2.35,.99,3.74,0,1.66-.48,3.22-1.44,4.7-.96,1.47-2.31,2.6-4.06,3.38l9.27,13.22h-7.18l-7.04-11.58h-3.24v11.58h-5.55Zm5.55-15.46h1.36c2.43,0,4.11-.53,5.04-1.59s1.39-2.26,1.39-3.6c0-1.16-.38-2.08-1.13-2.76-.75-.68-2.29-1.02-4.6-1.02h-2.05v8.97Z"/><path d="M500.47,225.21c-1.24,.54-2.32,.92-3.23,1.12-.92,.2-1.96,.37-3.13,.5-1.17,.13-2.32,.2-3.45,.2-4.95,0-8.64-1.4-11.08-4.19-2.44-2.79-3.65-6.35-3.65-10.68s1.21-7.91,3.65-10.7c2.43-2.78,6.25-4.17,11.45-4.17,3.07,0,6.14,.36,9.18,1.09v4.61c-1.47-.51-2.67-.88-3.6-1.12-.93-.24-1.81-.41-2.65-.53-.83-.12-1.67-.17-2.5-.17-3.25,0-5.61,1.05-7.08,3.14-1.47,2.09-2.2,4.68-2.2,7.77,0,3.24,.83,5.86,2.5,7.86,1.66,2,4.14,3,7.43,3,2.74,0,5.53-.7,8.36-2.09v4.34Z"/><path d="M505.59,226.31v-28.32h18.14v3.9h-12.25v7.88h10.12v3.9h-10.12v8.61h13.15v4.02h-19.04Z"/><path d="M554.25,227.02c-2.95,0-5.51-.61-7.69-1.83s-3.84-2.97-4.97-5.26c-1.14-2.29-1.7-4.88-1.7-7.78s.57-5.47,1.7-7.77c1.13-2.3,2.8-4.05,4.99-5.27,2.19-1.22,4.75-1.83,7.67-1.83s5.46,.61,7.65,1.83c2.19,1.22,3.86,2.98,4.99,5.27,1.14,2.3,1.7,4.89,1.7,7.77s-.57,5.49-1.7,7.78c-1.13,2.29-2.79,4.04-4.96,5.26s-4.74,1.83-7.68,1.83Zm0-3.88c2.73,0,4.76-1.11,6.09-3.34s2-4.78,2-7.65-.67-5.44-2.01-7.65c-1.34-2.22-3.37-3.32-6.08-3.32s-4.76,1.11-6.1,3.32c-1.34,2.21-2.01,4.76-2.01,7.65s.67,5.42,2,7.65,3.37,3.34,6.11,3.34Z"/><path d="M573.9,226.31v-28.32h5.19l13.1,19.34v-19.34h4.73v28.32h-5.29l-13.01-19.34v19.34h-4.73Z"/><path d="M616.53,226.31v-28.32h5.89v28.32h-5.89Z"/><path d="M636.57,226.31v-24.41h-10.14v-3.9h26.17v3.9h-10.14v24.41h-5.89Z"/></g></svg>