<?xml version="1.0" encoding="UTF-8"?><svg id="Layer" xmlns="http://www.w3.org/2000/svg" xmlns:xlink="http://www.w3.org/1999/xlink" viewBox="0 0 721 379.91"><defs><style>.cls-1{stroke:url(#linear-gradient-2);}.cls-1,.cls-2{fill:#e2161c;}.cls-1,.cls-2,.cls-3{stroke-width:3.86px;}.cls-1,.cls-2,.cls-3,.cls-4,.cls-5,.cls-6{stroke-miterlimit:10;}.cls-2{stroke:url(#linear-gradient);}.cls-3,.cls-4{stroke:#1f1f1e;}.cls-3,.cls-4,.cls-6{fill:none;}.cls-4{stroke-width:1.21px;}.cls-7{fill:url(#linear-gradient-6);}.cls-5{fill:#fff;opacity:0;stroke:#1d1d1b;}.cls-8{fill:#cd141b;}.cls-9{fill:url(#radial-gradient);}.cls-6{stroke:#010202;stroke-width:1.87px;}.cls-10{fill:#3d4920;}.cls-11{fill:url(#linear-gradient-5);}.cls-12{fill:url(#linear-gradient-7);}.cls-13{fill:#96c227;}.cls-14,.cls-15{fill:#030304;}.cls-16{fill:url(#linear-gradient-3);}.cls-17{fill:#e03d15;opacity:.5;}.cls-17,.cls-15{isolation:isolate;}.cls-15{opacity:.12;}.cls-18{fill:url(#linear-gradient-4);}</style><radialGradient id="radial-gradient" cx="638.87" cy="87.8" fx="638.87" fy="87.8" r="78.37" gradientTransform="translate(0 364.09) scale(1 -1)" gradientUnits="userSpaceOnUse"><stop offset="0" stop-color="#f6ee84"/><stop offset=".78" stop-color="#f6ee84"/><stop offset=".91" stop-color="#f6ee84"/><stop offset=".91" stop-color="#f7ee87"/><stop offset=".94" stop-color="#faf4b7"/><stop offset=".96" stop-color="#fdfadc"/><stop offset=".97" stop-color="#fefcf1"/><stop offset=".99" stop-color="#fffffe"/><stop offset="1" stop-color="#fff"/></radialGradient><linearGradient id="linear-gradient" x1="645.26" y1="55.96" x2="600.71" y2="100.51" gradientTransform="translate(0 364.09) scale(1 -1)" gradientUnits="userSpaceOnUse"><stop offset="0" stop-color="#5d1512"/><stop offset=".1" stop-color="#611912"/><stop offset=".26" stop-color="#732b23"/><stop offset=".48" stop-color="#914d44"/><stop offset=".73" stop-color="#be8880"/><stop offset="1" stop-color="#fbdede"/></linearGradient><linearGradient id="linear-gradient-2" x1="676.8" y1="77.25" x2="632.25" y2="121.8" xlink:href="#linear-gradient"/><linearGradient id="linear-gradient-3" x1="481.22" y1="82.45" x2="481.22" y2="125.42" gradientTransform="translate(0 380.09) scale(1 -1)" gradientUnits="userSpaceOnUse"><stop offset="0" stop-color="#542913"/><stop offset=".45" stop-color="#542913" stop-opacity=".7"/><stop offset=".58" stop-color="#e03d15" stop-opacity=".5"/><stop offset="1" stop-color="#e03d15" stop-opacity=".5"/></linearGradient><linearGradient id="linear-gradient-4" x1="-675.36" y1="-884.49" x2="-597.82" y2="-806.94" gradientTransform="translate(193.12 -772.01) rotate(-45) scale(1 -1)" gradientUnits="userSpaceOnUse"><stop offset="0" stop-color="#3d4920"/><stop offset=".14" stop-color="#4b5e24"/><stop offset=".42" stop-color="#69852b"/><stop offset=".66" stop-color="#81a42c"/><stop offset=".86" stop-color="#8fb923"/><stop offset="1" stop-color="#96c227"/></linearGradient><linearGradient id="linear-gradient-5" x1="-775.6" y1="-784.24" x2="-698.06" y2="-706.7" xlink:href="#linear-gradient-4"/><linearGradient id="linear-gradient-6" x1="-482.44" y1="-816.63" x2="-404.9" y2="-739.1" xlink:href="#linear-gradient-4"/><linearGradient id="linear-gradient-7" x1="291.03" y1="266.83" x2="291.03" y2="309.81" xlink:href="#linear-gradient-3"/></defs><rect class="cls-5" x=".5" y=".5" width="720" height="378.91"/><g id="oxIcon"><path class="cls-9" d="M717.26,276.29c0,43.27-35.07,78.34-78.34,78.34s-78.45-35.07-78.45-78.34,35.18-78.34,78.34-78.34c43.38,0,78.45,35.07,78.45,78.34h0Z"/><path class="cls-3" d="M717.15,276.29c0,43.27-35.07,78.34-78.34,78.34s-78.34-35.07-78.34-78.34,35.07-78.34,78.34-78.34,78.34,35.18,78.34,78.34Z"/><path class="cls-4" d="M708.15,276.29c0,38.26-30.97,69.34-69.34,69.34s-69.34-30.97-69.34-69.34,30.97-69.12,69.34-69.12,69.34,30.86,69.34,69.12Z"/><path class="cls-2" d="M652.59,285.86c0,16.28-13.32,29.6-29.6,29.6s-29.6-13.32-29.6-29.6,13.32-29.6,29.6-29.6,29.6,13.32,29.6,29.6Z"/><path class="cls-1" d="M684.13,264.56c0,16.28-13.32,29.6-29.6,29.6s-29.6-13.32-29.6-29.6,13.32-29.6,29.6-29.6,29.6,13.32,29.6,29.6Z"/></g><g id="arrow"><path class="cls-17" d="M541.23,276.18l-57.16-26.42,6.95,13.66h-64.33s-1.94,6.15-1.94,12.18,1.94,10.82,1.94,10.82h65.59l-8.2,16.17,57.16-26.42h0Z"/><path class="cls-16" d="M495.91,284.04h-67.75c-.57-1.82-1.25-4.9-1.25-8.43,0-3.76,.8-7.63,1.37-9.79h66.38l-5.58-11.16,46.46,21.52-46.46,21.52,6.83-13.66h0Z"/><path class="cls-8" d="M500.92,280.96h-70.37c-.34-1.48-.57-3.42-.57-5.35,0-2.39,.34-4.78,.8-6.72h68.89l-3.87-7.74,32.45,15.03-32.45,14.92,5.12-10.13h0Z"/><path class="cls-6" d="M495.91,284.04h-67.75c-.57-1.82-1.25-4.9-1.25-8.43,0-3.76,.8-7.63,1.37-9.79h66.38l-5.58-11.16,46.46,21.52-46.46,21.52,6.83-13.66h0Z"/></g><g id="microbe"><rect class="cls-14" x="282.87" y="217.99" width="116.37" height="116.37"/><rect class="cls-18" x="286.17" y="221.3" width="109.65" height="109.65"/><rect class="cls-13" x="291.52" y="226.65" width="98.95" height="98.95"/><g id="microbes"><polygon class="cls-10" points="342.31 286.09 337.64 286.65 338.32 291.32 333.65 290.53 332.86 295.19 328.64 293.14 326.59 297.24 323.18 294.06 319.99 297.47 317.71 293.37 313.61 295.65 312.59 290.98 308.03 292.01 308.49 287.45 303.82 286.88 305.53 282.67 301.2 280.85 304.28 277.2 300.63 274.24 304.5 271.62 301.88 267.75 306.44 266.5 305.07 261.95 309.74 262.06 309.85 257.39 314.3 258.76 315.78 254.43 319.53 256.94 322.27 253.18 325.11 256.94 328.76 253.98 330.46 258.42 334.9 256.82 335.13 261.49 339.8 261.15 338.66 265.7 343.22 266.84 340.83 270.83 344.92 273.22 341.4 276.41 344.58 279.82 340.26 281.76 342.31 286.09"/><polygon class="cls-10" points="382.5 267.3 380.91 267.87 380.91 270.03 378.52 269.35 377.03 270.71 374.64 269.12 372.14 269.8 365.31 270.71 362.46 270.37 359.5 264.68 356.08 263.65 353.46 260.81 350.16 259.21 347.66 256.14 344.58 254.77 342.65 251.24 340.03 249.08 339 246.46 337.18 244.41 336.95 242.25 335.36 240.43 336.73 238.94 336.84 236.9 338.21 237.01 339.46 235.53 341.51 236.33 344.58 233.37 347.09 235.19 349.82 235.3 352.67 237.35 355.97 238.38 357.68 242.93 361.21 244.3 363.71 247.26 367.01 249.19 369.06 252.04 372.25 254.2 377.49 256.94 380 259.44 380.34 261.49 382.04 263.54 381.59 265.25 382.5 267.3"/><polygon class="cls-10" points="377.26 289.61 377.72 290.18 378.29 291.55 377.03 292.46 377.15 294.06 373.96 295.19 372.59 297.24 368.72 301.12 364.28 303.16 358.59 304.87 355.06 307.04 350.39 308.06 346.52 309.88 341.96 310.68 338.32 312.5 333.88 312.73 330.01 313.87 326.93 313.75 323.75 314.55 321.7 313.98 318.85 314.44 318.62 313.07 317.83 312.73 317.94 311.25 317.83 309.88 319.87 308.74 319.76 305.44 323.18 304.19 325.45 302.25 329.33 300.89 333.88 299.75 337.98 299.07 341.96 296.79 346.41 296.11 350.62 294.28 354.72 293.6 359.04 292.01 365.42 289.05 369.52 288.13 371.57 288.48 374.64 287.91 375.78 288.93 377.26 289.61"/></g><path id="darker" class="cls-15" d="M395.82,330.95h-109.65v-60.12s34.5,5.35,54.77,5.35,54.88-5.35,54.88-5.35v60.12Z"/></g><g id="microbe-2"><rect class="cls-14" x="140.99" y="217.99" width="116.37" height="116.37"/><rect class="cls-11" x="144.41" y="221.3" width="109.65" height="109.65"/><rect class="cls-13" x="149.76" y="226.65" width="98.95" height="98.95"/><g id="microbes-2"><polygon class="cls-10" points="200.43 286.09 195.76 286.65 196.44 291.32 191.78 290.53 191.09 295.19 186.88 293.14 184.83 297.24 181.3 294.06 178.11 297.47 175.84 293.37 171.74 295.65 170.83 290.98 166.27 292.01 166.61 287.45 161.94 286.88 163.77 282.67 159.44 280.85 162.4 277.2 158.76 274.24 162.63 271.62 160.12 267.75 164.56 266.5 163.2 261.95 167.86 262.06 167.98 257.39 172.53 258.76 173.9 254.43 177.66 256.94 180.39 253.18 183.35 256.94 186.99 253.98 188.59 258.42 193.03 256.82 193.26 261.49 197.93 261.15 196.79 265.7 201.45 266.84 198.95 270.83 203.05 273.22 199.52 276.41 202.71 279.82 198.38 281.76 200.43 286.09"/><polygon class="cls-10" points="240.74 267.3 239.14 267.87 239.14 270.03 236.64 269.35 235.16 270.71 232.77 269.12 230.38 269.8 223.54 270.71 220.58 270.37 217.62 264.68 214.32 263.65 211.59 260.81 208.29 259.21 205.78 256.14 202.71 254.77 200.89 251.24 198.27 249.08 197.24 246.46 195.31 244.41 195.19 242.25 193.6 240.43 194.85 238.94 194.96 236.9 196.33 237.01 197.7 235.53 199.63 236.33 202.82 233.37 205.21 235.19 208.06 235.3 210.79 237.35 214.09 238.38 215.92 242.93 219.45 244.3 221.84 247.26 225.25 249.19 227.3 252.04 230.38 254.2 235.61 256.94 238.23 259.44 238.57 261.49 240.17 263.54 239.71 265.25 240.74 267.3"/><polygon class="cls-10" points="235.5 289.61 235.84 290.18 236.53 291.55 235.16 292.46 235.27 294.06 232.08 295.19 230.83 297.24 226.85 301.12 222.52 303.16 216.71 304.87 213.3 307.04 208.63 308.06 204.64 309.88 200.09 310.68 196.44 312.5 192.12 312.73 188.13 313.87 185.06 313.75 181.87 314.55 179.82 313.98 176.97 314.44 176.75 313.07 175.95 312.73 176.18 311.25 175.95 309.88 178.11 308.74 177.88 305.44 181.3 304.19 183.58 302.25 187.56 300.89 192.12 299.75 196.22 299.07 200.09 296.79 204.64 296.11 208.74 294.28 212.84 293.6 217.17 292.01 223.66 289.05 227.76 288.13 229.81 288.48 232.88 287.91 234.02 288.93 235.5 289.61"/></g><path id="darker-2" class="cls-15" d="M254.06,330.95h-109.65v-60.12s34.5,5.35,54.77,5.35,54.88-5.35,54.88-5.35v60.12h0Z"/></g><g><path d="M31.91,301.68c-5.58,0-10.36-1.14-14.46-3.42s-7.17-5.58-9.34-9.91-3.19-9.22-3.19-14.57,1.02-10.25,3.19-14.57,5.24-7.63,9.34-9.91,9-3.42,14.46-3.42,10.25,1.14,14.35,3.42,7.29,5.58,9.34,9.91c2.05,4.33,3.19,9.22,3.19,14.57s-1.02,10.36-3.19,14.57-5.24,7.63-9.34,9.91c-3.99,2.28-8.77,3.42-14.35,3.42Zm0-7.29c5.12,0,9-2.05,11.5-6.26s3.76-9,3.76-14.35-1.25-10.25-3.76-14.35c-2.51-4.21-6.38-6.26-11.5-6.26s-9,2.05-11.5,6.26-3.76,9-3.76,14.35,1.25,10.25,3.76,14.35,6.26,6.26,11.5,6.26h0Z"/><path d="M68.92,300.32v-53.29h19.93c4.1,0,7.17,.57,9.34,1.48s3.87,2.51,5.01,4.67c1.25,2.05,1.82,4.44,1.82,7.06,0,3.07-.91,6.03-2.73,8.88s-4.33,4.9-7.63,6.38l17.42,24.82h-13.55l-13.09-21.75h-6.15v21.75h-10.36Zm10.48-29.04h2.51c4.55,0,7.74-1.02,9.45-2.96s2.62-4.21,2.62-6.72c0-2.16-.68-3.87-2.16-5.24-1.37-1.25-4.33-1.94-8.65-1.94h-3.87l.11,16.85h0Z"/></g><g id="microbe-3"><rect class="cls-14" x="371.3" y="33.61" width="116.37" height="116.37"/><rect class="cls-7" x="374.61" y="36.91" width="109.65" height="109.65"/><rect class="cls-13" x="379.96" y="42.26" width="98.95" height="98.95"/><g id="microbes-3"><polygon class="cls-10" points="430.74 101.7 426.07 102.27 426.64 106.94 422.09 106.14 421.29 110.81 417.08 108.76 415.03 112.86 411.61 109.67 408.42 113.09 406.03 108.99 401.93 111.26 401.02 106.6 396.47 107.62 396.81 103.07 392.14 102.5 393.96 98.28 389.64 96.46 392.6 92.82 388.95 89.86 392.94 87.24 390.32 83.37 394.76 82.12 393.51 77.56 398.18 77.67 398.18 73.01 402.73 74.37 404.1 70.05 407.97 72.55 410.7 68.79 413.55 72.55 417.19 69.59 418.9 74.03 423.23 72.44 423.57 77.11 428.24 76.76 427.1 81.32 431.65 82.46 429.26 86.44 433.36 88.83 429.83 92.02 432.91 95.44 428.69 97.37 430.74 101.7"/><polygon class="cls-10" points="470.94 82.91 469.34 83.48 469.34 85.65 466.95 84.96 465.47 86.33 462.97 84.73 460.57 85.42 453.74 86.33 450.9 85.99 447.82 80.29 444.52 79.27 441.79 76.42 438.6 74.83 435.98 71.75 432.91 70.39 431.08 66.86 428.46 64.69 427.44 62.08 425.62 60.03 425.39 57.86 423.8 56.04 425.05 54.56 425.16 52.51 426.64 52.62 427.9 51.14 429.83 51.94 433.02 48.98 435.52 50.8 438.26 50.92 441.1 52.97 444.29 53.99 446.11 58.55 449.64 59.91 452.03 62.87 455.45 64.81 457.5 67.65 460.69 69.82 465.93 72.55 468.43 75.06 468.77 77.11 470.48 79.15 470.03 80.86 470.94 82.91"/><polygon class="cls-10" points="465.7 105.23 466.04 105.8 466.72 107.17 465.47 108.08 465.47 109.67 462.28 110.81 461.03 112.86 457.16 116.73 452.72 118.78 446.91 120.49 443.49 122.65 438.83 123.68 434.95 125.5 430.29 126.3 426.64 128.12 422.32 128.34 418.44 129.48 415.26 129.37 412.18 130.17 410.13 129.6 407.17 130.05 407.06 128.69 406.15 128.34 406.37 126.86 406.15 125.5 408.31 124.36 408.08 121.06 411.61 119.8 413.78 117.87 417.76 116.5 422.32 115.36 426.41 114.68 430.29 112.4 434.84 111.72 439.05 109.9 443.15 109.22 447.37 107.62 453.86 104.66 457.96 103.75 460.01 104.09 463.08 103.52 464.22 104.55 465.7 105.23"/></g><path id="darker-3" class="cls-15" d="M484.26,146.56h-109.65v-60.12s34.5,5.35,54.77,5.35,54.88-5.35,54.88-5.35v60.12h0Z"/></g><g id="arrow-2"><path class="cls-17" d="M350.92,91.79l-57.16-26.42,6.95,13.66h-64.33s-1.94,6.15-1.94,12.18,1.94,10.82,1.94,10.82h65.59l-8.2,16.17,57.16-26.42h0Z"/><path class="cls-12" d="M305.72,99.65h-67.75c-.57-1.82-1.25-4.9-1.25-8.43,0-3.76,.8-7.63,1.37-9.79h66.38l-5.58-11.16,46.46,21.52-46.46,21.52,6.83-13.66h0Z"/><path class="cls-8" d="M310.73,96.58h-70.37c-.34-1.48-.57-3.42-.57-5.35,0-2.39,.34-4.78,.8-6.72h69l-3.87-7.74,32.45,15.03-32.57,14.92,5.12-10.13h0Z"/><path class="cls-6" d="M305.72,99.65h-67.75c-.57-1.82-1.25-4.9-1.25-8.43,0-3.76,.8-7.63,1.37-9.79h66.38l-5.58-11.16,46.46,21.52-46.46,21.52,6.83-13.66h0Z"/></g></svg>