<?xml version="1.0" encoding="UTF-8"?><svg id="Layer" xmlns="http://www.w3.org/2000/svg" xmlns:xlink="http://www.w3.org/1999/xlink" viewBox="0 0 721 379.91"><defs><style>.cls-1{fill:url(#linear-gradient);}.cls-1,.cls-2,.cls-3{opacity:.4;}.cls-1,.cls-2,.cls-3,.cls-4,.cls-5{isolation:isolate;}.cls-6{fill:url(#linear-gradient-2);}.cls-7{fill:#114490;}.cls-8{fill:url(#linear-gradient-6);}.cls-9{fill:#1b2b4c;}.cls-10{fill:#48ad38;}.cls-2{fill:url(#linear-gradient-4);}.cls-11{fill:#fff;opacity:0;stroke:#1d1d1b;}.cls-11,.cls-12,.cls-13,.cls-14{stroke-miterlimit:10;}.cls-3{fill:url(#linear-gradient-7);}.cls-15{fill:url(#radial-gradient);}.cls-16{fill:#3d5da7;}.cls-4{fill:url(#linear-gradient-11);opacity:.5;}.cls-17{fill:#82a3d6;}.cls-12{fill:#0b572a;stroke:#1d4422;stroke-width:3.68px;}.cls-18{fill:url(#linear-gradient-5);}.cls-19{fill:#7ca5d8;}.cls-5{opacity:.05;}.cls-5,.cls-20{fill:#030304;}.cls-21{fill:url(#linear-gradient-9);}.cls-22{fill:#93c6ec;}.cls-23{fill:url(#linear-gradient-3);}.cls-13{fill:url(#linear-gradient-10);stroke:#030304;}.cls-13,.cls-14{stroke-width:2.85px;}.cls-14{fill:none;stroke:#fff;}.cls-24{fill:#010101;}.cls-25{fill:url(#linear-gradient-8);}.cls-26{fill:url(#linear-gradient-12);}</style><linearGradient id="linear-gradient" x1="219.84" y1="611.15" x2="219.84" y2="472.64" gradientTransform="translate(0 -236.64)" gradientUnits="userSpaceOnUse"><stop offset="0" stop-color="#ffdc15"/><stop offset="0" stop-color="#ffdb16"/><stop offset=".05" stop-color="#f9bb1f"/><stop offset=".1" stop-color="#f59c1b"/><stop offset=".16" stop-color="#ef7b1b"/><stop offset=".22" stop-color="#e86212"/><stop offset=".27" stop-color="#e84b1f"/><stop offset=".34" stop-color="#e63a21"/><stop offset=".41" stop-color="#e63323"/><stop offset=".5" stop-color="#e63023"/><stop offset=".59" stop-color="#e63323"/><stop offset=".66" stop-color="#e63a21"/><stop offset=".73" stop-color="#e84b1f"/><stop offset=".78" stop-color="#e86212"/><stop offset=".84" stop-color="#ef7b1b"/><stop offset=".9" stop-color="#f59c1b"/><stop offset=".95" stop-color="#f9bb1f"/><stop offset="1" stop-color="#ffdb16"/><stop offset="1" stop-color="#ffdc15"/></linearGradient><linearGradient id="linear-gradient-2" x1="219.87" y1="606.05" x2="219.87" y2="477.74" xlink:href="#linear-gradient"/><linearGradient id="linear-gradient-3" x1="-716.23" y1="1297.12" x2="-639.66" y2="1220.55" gradientTransform="translate(-190.8 -1064.09) rotate(-45)" gradientUnits="userSpaceOnUse"><stop offset="0" stop-color="#0f6936"/><stop offset=".04" stop-color="#0f6c37"/><stop offset=".08" stop-color="#077739"/><stop offset=".13" stop-color="#108837"/><stop offset=".15" stop-color="#0a9039"/><stop offset=".35" stop-color="#36993d"/><stop offset=".76" stop-color="#5fb048"/><stop offset="1" stop-color="#6fb74b"/></linearGradient><linearGradient id="linear-gradient-4" x1="359.84" x2="359.84" xlink:href="#linear-gradient"/><linearGradient id="linear-gradient-5" x1="359.87" y1="606.05" x2="359.87" y2="477.74" xlink:href="#linear-gradient"/><linearGradient id="linear-gradient-6" x1="-617.24" y1="1396.12" x2="-540.67" y2="1319.55" xlink:href="#linear-gradient-3"/><linearGradient id="linear-gradient-7" x1="499.84" x2="499.84" xlink:href="#linear-gradient"/><linearGradient id="linear-gradient-8" x1="499.87" y1="606.05" x2="499.87" y2="477.74" xlink:href="#linear-gradient"/><linearGradient id="linear-gradient-9" x1="-518.24" y1="1495.11" x2="-441.67" y2="1418.54" xlink:href="#linear-gradient-3"/><linearGradient id="linear-gradient-10" x1="259.69" y1="276.72" x2="259.69" y2="76" gradientTransform="translate(0 -67.82)" gradientUnits="userSpaceOnUse"><stop offset=".08" stop-color="#47c0f0"/><stop offset=".15" stop-color="#52a5d5"/><stop offset=".23" stop-color="#5d85b4"/><stop offset=".3" stop-color="#626a9c"/><stop offset=".37" stop-color="#67568c"/><stop offset=".42" stop-color="#684981"/><stop offset=".46" stop-color="#68457e"/><stop offset=".55" stop-color="#923e61"/><stop offset=".67" stop-color="#b7323c"/><stop offset=".75" stop-color="#cc2321"/><stop offset=".79" stop-color="#d41a1c"/></linearGradient><linearGradient id="linear-gradient-11" x1="251.48" y1="240.96" x2="240.66" y2="230.14" gradientTransform="translate(0 -67.82)" gradientUnits="userSpaceOnUse"><stop offset="0" stop-color="#1f1f1e" stop-opacity="0"/><stop offset="1" stop-color="#fff"/></linearGradient><linearGradient id="linear-gradient-12" x1="406.45" y1="156.8" x2="406.45" y2="343.39" gradientTransform="translate(0 359.09) scale(1 -1)" gradientUnits="userSpaceOnUse"><stop offset="0" stop-color="#c1dcf4"/><stop offset="1" stop-color="#255286"/></linearGradient><radialGradient id="radial-gradient" cx="406.29" cy="238.42" fx="406.29" fy="238.42" r="80.92" gradientTransform="translate(0 359.09) scale(1 -1)" gradientUnits="userSpaceOnUse"><stop offset="0" stop-color="#fff" stop-opacity=".7"/><stop offset=".13" stop-color="#f8fafd" stop-opacity=".68"/><stop offset=".28" stop-color="#e4e9f7" stop-opacity=".62"/><stop offset=".44" stop-color="#c2cdea" stop-opacity=".53"/><stop offset=".62" stop-color="#93a7d6" stop-opacity=".4"/><stop offset=".79" stop-color="#5673b7" stop-opacity=".23"/><stop offset=".98" stop-color="#2c4f9e" stop-opacity=".03"/><stop offset="1" stop-color="#2b4b9b" stop-opacity="0"/></radialGradient></defs><rect class="cls-11" x=".5" y=".5" width="720" height="378.91"/><g id="plant"><rect class="cls-1" x="150.59" y="236" width="138.51" height="138.51"/><rect class="cls-6" x="155.71" y="241.1" width="128.31" height="128.31"/><rect class="cls-20" x="162.5" y="247.97" width="114.91" height="114.91"/><rect class="cls-23" x="165.81" y="251.27" width="108.29" height="108.29"/><rect class="cls-10" x="171.06" y="256.52" width="97.77" height="97.77"/><path id="leaf" class="cls-12" d="M219.9,280.67c-14,1.94-24.7,11.07-24.7,24.7,0,3.31,.65,6.54,1.84,9.5-2.59,1.74-6.37,4.05-8.21,4.7-3.23,1.09-9.67,.37-9.95,.92s1.84,6.37,2.59,6.64,6.64,.27,9.95-.92c2.39-.82,6.72-3.61,9.23-5.45,4.53,5.72,11.52,9.3,19.35,9.3,13.63,0,24.52-8.58,24.52-22.21,0-5.25,1.29-11.89,3.23-16.04,2.11-4.6,13.08-7.56,13.08-7.56-1.09-3.61-35.39-4.33-40.91-3.61h0l-.02,.02Z"/><path id="darker" class="cls-5" d="M274.1,359.56h-108.29v-59.34s34.1,5.25,54.1,5.25,54.19-5.25,54.19-5.25v59.34Z"/></g><g id="plant-2"><rect class="cls-2" x="290.59" y="236" width="138.51" height="138.51"/><rect class="cls-18" x="295.71" y="241.1" width="128.31" height="128.31"/><rect class="cls-20" x="302.5" y="247.97" width="114.91" height="114.91"/><rect class="cls-8" x="305.81" y="251.27" width="108.29" height="108.29"/><rect class="cls-10" x="311.06" y="256.52" width="97.77" height="97.77"/><path id="leaf-2" class="cls-12" d="M359.9,280.67c-14,1.94-24.7,11.07-24.7,24.7,0,3.31,.65,6.54,1.84,9.5-2.59,1.74-6.37,4.05-8.21,4.7-3.23,1.09-9.67,.37-9.95,.92s1.84,6.37,2.59,6.64,6.64,.27,9.95-.92c2.39-.82,6.72-3.61,9.23-5.45,4.53,5.72,11.52,9.3,19.35,9.3,13.63,0,24.52-8.58,24.52-22.21,0-5.25,1.29-11.89,3.23-16.04,2.11-4.6,13.08-7.56,13.08-7.56-1.09-3.61-35.39-4.33-40.91-3.61h0l-.02,.02Z"/><path id="darker-2" class="cls-5" d="M414.1,359.56h-108.29v-59.34s34.1,5.25,54.1,5.25,54.19-5.25,54.19-5.25v59.34Z"/></g><g id="plant-3"><rect class="cls-3" x="430.59" y="236" width="138.51" height="138.51"/><rect class="cls-25" x="435.71" y="241.1" width="128.31" height="128.31"/><rect class="cls-20" x="442.5" y="247.97" width="114.91" height="114.91"/><rect class="cls-21" x="445.81" y="251.27" width="108.29" height="108.29"/><rect class="cls-10" x="451.06" y="256.52" width="97.77" height="97.77"/><path id="leaf-3" class="cls-12" d="M499.9,280.67c-14,1.94-24.7,11.07-24.7,24.7,0,3.31,.65,6.54,1.84,9.5-2.59,1.74-6.37,4.05-8.21,4.7-3.23,1.09-9.67,.37-9.95,.92s1.84,6.37,2.59,6.64,6.64,.27,9.95-.92c2.39-.82,6.72-3.61,9.23-5.45,4.53,5.72,11.52,9.3,19.35,9.3,13.63,0,24.52-8.58,24.52-22.21,0-5.25,1.29-11.89,3.23-16.04,2.11-4.6,13.08-7.56,13.08-7.56-1.09-3.61-35.39-4.33-40.91-3.61h0l-.02,.02Z"/><path id="darker-3" class="cls-5" d="M554.1,359.56h-108.29v-59.34s34.1,5.25,54.1,5.25,54.19-5.25,54.19-5.25v59.34Z"/></g><g id="tempIcon"><path class="cls-13" d="M273,155.62V21.5c0-7.27-6.06-13.32-13.32-13.32s-13.32,6.06-13.32,13.32V155.32c-8.78,4.85-15.13,14.23-15.13,25.13,0,15.74,12.72,28.46,28.46,28.46s28.46-12.72,28.46-28.46c0-10.9-6.06-20.29-15.13-24.82h-.02Z"/><line class="cls-14" x1="253.92" y1="37.25" x2="265.74" y2="37.25"/><line class="cls-14" x1="253.92" y1="74.49" x2="265.74" y2="74.49"/><line class="cls-14" x1="253.92" y1="108.39" x2="265.74" y2="108.39"/><line class="cls-14" x1="253.92" y1="139.87" x2="265.74" y2="139.87"/><line class="cls-14" x1="253.92" y1="179.84" x2="265.74" y2="179.84"/><path class="cls-4" d="M251.51,172.87c-4.24,4.54-10.3,5.45-13.32,2.72-3.03-3.03-1.82-9.09,2.42-13.32,4.24-4.24,10.3-5.45,13.32-2.42,3.02,3.03,2.12,8.78-2.42,13.02h0Z"/></g><path d="M99.06,312.24v-13.64h32.74v13.64h-32.74Z"/><g id="ocean"><polygon class="cls-24" points="489.85 157.21 489.85 60.77 406.45 12.63 322.9 60.77 322.9 157.21 406.45 205.35 489.85 157.21"/><polygon class="cls-26" points="487.28 155.76 487.28 62.38 406.45 15.69 325.63 62.38 325.63 155.76 406.45 202.29 487.28 155.76"/><polygon class="cls-17" points="481.8 152.54 481.8 65.44 406.45 21.81 330.95 65.44 330.95 152.54 406.45 196.17 481.8 152.54"/><path class="cls-7" d="M481.8,120.5c-3.38-3.22-9.98-4.51-21.25-5.96-10.95-1.45-16.42-2.09-19.16-2.09-17.39-.16-18.51,4.67-32.84,4.83-3.86,0-14.17-2.09-35.1-6.44-12.07-2.41-15.78-3.38-21.9-2.9-8.53,.64-15.62,3.54-20.77,6.6v38l75.67,43.63,75.35-43.63v-32.04h0Z"/><path class="cls-9" d="M406.62,172.67h0c33.97-.64,50.55-34.94,34.78-72.45-1.29-3.22-3.06-6.6-4.99-10.14-29.95-54.74-29.95-54.42-29.95-54.42,0,0,0-.32-29.95,54.42-1.93,3.54-3.54,6.92-4.99,10.14-15.78,37.51,.8,71.81,34.78,72.45h0"/><path class="cls-22" d="M406.62,170.57h0c32.2-.64,47.82-33,33-68.59-1.29-3.06-2.9-6.28-4.67-9.66-28.34-51.84-28.34-51.52-28.34-51.52,0,0,0-.32-28.34,51.52-1.77,3.38-3.38,6.44-4.67,9.66-15.13,35.58,.48,68.1,33,68.59h0"/><path class="cls-19" d="M406.45,166.87h0c29.62-.48,43.95-30.27,30.27-62.79-1.13-2.9-2.74-5.8-4.35-8.85-25.92-47.66-25.92-47.33-25.92-47.33,0,0,0-.32-26.08,47.33-1.61,3.06-3.06,5.96-4.35,8.85-13.52,32.52,.8,62.15,30.43,62.79h0"/><path class="cls-16" d="M439.78,112.45c-15.78,.16-17.23,4.67-31.23,4.83-3.86,0-14.17-2.09-34.94-6.28-9.02,29.78,5.31,55.38,32.84,55.87h.16c26.89-.48,41.22-25.28,33.17-54.42h0Z"/><circle class="cls-15" cx="406.29" cy="120.66" r="80.82"/></g></svg>