<?xml version="1.0" encoding="UTF-8"?><svg id="Layer" xmlns="http://www.w3.org/2000/svg" xmlns:xlink="http://www.w3.org/1999/xlink" viewBox="0 0 721 379.91"><defs><style>.cls-1{fill:url(#linear-gradient-2);}.cls-2,.cls-3,.cls-4{fill:#020303;}.cls-5{fill:#e52922;}.cls-6{fill:#fff;opacity:0;stroke:#1d1d1b;}.cls-6,.cls-7{stroke-miterlimit:10;}.cls-8{fill:#18291b;}.cls-9{fill:url(#radial-gradient);}.cls-10{fill:#44ac36;}.cls-11{fill:#ffd110;}.cls-3{opacity:.08;}.cls-3,.cls-4{isolation:isolate;}.cls-7{fill:#07562a;stroke:#1c4421;stroke-width:3.73px;}.cls-12{fill:url(#linear-gradient-3);}.cls-13{fill:#115729;}.cls-4{opacity:.05;}.cls-14{fill:url(#linear-gradient);}</style><linearGradient id="linear-gradient" x1="-450.36" y1="1288.04" x2="-372.93" y2="1210.6" gradientTransform="translate(-190.6 -1064.17) rotate(-45)" gradientUnits="userSpaceOnUse"><stop offset="0" stop-color="#951917"/><stop offset=".21" stop-color="#b9231c"/><stop offset=".47" stop-color="#e52922"/><stop offset=".55" stop-color="#e62d28"/><stop offset=".84" stop-color="#e7393a"/><stop offset="1" stop-color="#e83e41"/></linearGradient><linearGradient id="linear-gradient-2" x1="-709.64" y1="1254.07" x2="-632.21" y2="1176.64" gradientTransform="translate(-190.6 -1064.17) rotate(-45)" gradientUnits="userSpaceOnUse"><stop offset="0" stop-color="#0c6835"/><stop offset=".04" stop-color="#0a6b36"/><stop offset=".08" stop-color="#047638"/><stop offset=".13" stop-color="#078738"/><stop offset=".15" stop-color="#058f39"/><stop offset=".35" stop-color="#34993d"/><stop offset=".76" stop-color="#5eaf47"/><stop offset="1" stop-color="#6eb74a"/></linearGradient><linearGradient id="linear-gradient-3" x1="-460.81" y1="1502.91" x2="-383.37" y2="1425.47" gradientTransform="translate(-190.6 -1064.17) rotate(-45)" gradientUnits="userSpaceOnUse"><stop offset="0" stop-color="#1f4d23"/><stop offset=".43" stop-color="#4b6e30"/><stop offset="1" stop-color="#95a946"/></linearGradient><radialGradient id="radial-gradient" cx="546.26" cy="522.79" fx="546.26" fy="522.79" r="49.44" gradientTransform="translate(0 -253.17)" gradientUnits="userSpaceOnUse"><stop offset=".25" stop-color="#95a946"/><stop offset="1" stop-color="#397931"/></radialGradient></defs><rect class="cls-6" x=".5" y=".5" width="720" height="378.91"/><g><g><g id="heat"><rect class="cls-2" x="343.61" y="52.18" width="116.22" height="116.22"/><rect class="cls-14" x="346.96" y="55.54" width="109.51" height="109.51"/><rect class="cls-5" x="352.27" y="60.85" width="98.89" height="98.89"/><path id="darker" class="cls-4" d="M456.47,165.05h-109.51v-60.02s34.48,5.31,54.71,5.31,54.8-5.31,54.8-5.31v60.02Z"/><g><polygon class="cls-11" points="389.37 115.37 376.88 104.56 376.88 104.56 376.88 71.57 364.39 105.21 376.97 115.84 376.97 115.84 376.88 149.02 389.37 115.37"/><polygon class="cls-11" points="414.25 115.37 401.76 104.56 401.67 104.56 401.76 71.57 389.27 105.21 401.76 115.84 401.76 115.84 401.76 149.02 414.25 115.37"/><polygon class="cls-11" points="439.79 115.37 427.3 104.56 427.21 104.56 427.3 71.57 414.81 105.21 427.3 115.84 427.3 115.84 427.3 149.02 439.79 115.37"/></g></g><g><path d="M264.53,115.57v-7.23h17.34v7.23h-17.34Z"/><path d="M294.38,136.32v-8.4c4.93,1.9,9.05,2.85,12.36,2.85,3.63,0,6.33-1.09,8.1-3.26,1.77-2.17,2.66-4.73,2.66-7.68,0-3.72-1.47-6.72-4.4-9-2.93-2.28-7.43-3.42-13.48-3.42-1.41,0-2.82,.12-4.23,.35v-29.02h33.2v9.14h-24.77l-.59,12.46c9.01,0,15.68,1.85,20.02,5.55,4.34,3.7,6.5,8.32,6.5,13.87,0,5.16-1.91,9.49-5.74,12.99-3.83,3.5-9.52,5.25-17.07,5.25-1.82,0-3.47-.08-4.94-.25-1.47-.17-4.02-.64-7.64-1.43Z"/></g></g><g><g id="plant"><rect class="cls-2" x="136.25" y="211.5" width="116.22" height="116.22"/><rect class="cls-1" x="139.61" y="214.86" width="109.51" height="109.51"/><rect class="cls-10" x="144.92" y="220.17" width="98.89" height="98.89"/><path id="leaf" class="cls-7" d="M194.32,244.59c-14.17,1.96-24.98,11.18-24.98,24.98,0,3.36,.65,6.62,1.86,9.6-2.61,1.77-6.43,4.1-8.29,4.75-3.26,1.12-9.79,.37-10.07,.93s1.86,6.43,2.61,6.71,6.71,.28,10.07-.93c2.42-.84,6.8-3.63,9.32-5.5,4.57,5.78,11.65,9.41,19.57,9.41,13.79,0,24.79-8.67,24.79-22.46,0-5.31,1.3-12.02,3.26-16.22,2.14-4.66,13.23-7.64,13.23-7.64-1.12-3.63-35.79-4.38-41.38-3.63Z"/><path id="darker-2" class="cls-4" d="M249.12,324.37h-109.51v-60.02s34.48,5.31,54.71,5.31,54.8-5.31,54.8-5.31v60.02Z"/></g><g id="animal"><rect class="cls-2" x="488.15" y="211.5" width="116.22" height="116.22"/><rect class="cls-12" x="491.51" y="214.86" width="109.51" height="109.51"/><rect class="cls-9" x="496.82" y="220.17" width="98.89" height="98.89"/><path id="darker-3" class="cls-3" d="M601.02,324.37h-109.51v-60.02s34.48,5.31,54.71,5.31,54.8-5.31,54.8-5.31v60.02Z"/><path class="cls-13" d="M534.66,241.79c-.28,0-2.98,.37-4.57,2.61-.65,.84-.93,1.77-1.12,2.8-.37,2.05-1.12,5.78,.37,10.35,.75,2.14,1.58,4.75,4.01,6.52,.75,.56,2.24,1.58,4.19,1.4,2.14-.19,3.45-1.77,3.91-2.33,1.86-2.14,1.86-4.66,1.96-7.36,0-1.3,0-5.31-2.05-9.51-1.4-2.8-2.61-3.54-3.17-3.82-1.49-.93-3.08-.75-3.54-.65Z"/><path class="cls-13" d="M560.38,240.21c-.28-.09-2.89-.65-5.13,.84-.84,.56-1.49,1.3-2.05,2.24-1.12,1.77-3.08,4.94-3.26,9.79-.09,2.33-.19,5.03,1.49,7.55,.56,.75,1.58,2.24,3.45,2.7,2.05,.56,3.91-.47,4.47-.84,2.42-1.4,3.45-3.73,4.47-6.24,.47-1.21,1.86-4.94,1.4-9.6-.28-3.08-1.21-4.19-1.68-4.66-1.21-1.21-2.7-1.58-3.17-1.77Z"/><path class="cls-13" d="M517.23,256.71c-.28,.09-2.89,.65-4.29,2.98-.56,.93-.75,1.77-.84,2.89-.19,2.05-.56,5.78,1.3,10.25,.93,2.05,1.96,4.57,4.66,6.15,.84,.47,2.42,1.3,4.29,.93,2.14-.37,3.26-2.05,3.73-2.7,1.58-2.33,1.49-4.85,1.3-7.55-.09-1.3-.47-5.22-2.98-9.23-1.58-2.61-2.89-3.26-3.54-3.54-1.68-.56-3.08-.28-3.63-.19Z"/><path class="cls-13" d="M575.95,254.47c-.28-.09-2.89-.65-5.13,.93-.84,.65-1.4,1.4-1.96,2.33-1.03,1.86-2.98,5.03-2.98,9.88,0,2.33-.09,5.03,1.68,7.46,.56,.75,1.68,2.24,3.54,2.61,2.05,.47,3.82-.56,4.47-.93,2.42-1.4,3.36-3.82,4.29-6.34,.47-1.21,1.77-4.94,1.12-9.6-.37-3.08-1.3-4.19-1.77-4.66-1.3-1.21-2.8-1.58-3.26-1.68Z"/><path class="cls-8" d="M575.3,257.45c-.19,0-2.14-.47-3.82,.75-.65,.47-1.03,1.03-1.49,1.68-.75,1.4-2.14,3.73-2.24,7.36,0,1.68-.09,3.73,1.3,5.59,.37,.56,1.21,1.68,2.61,1.96,1.58,.37,2.89-.47,3.36-.65,1.77-1.12,2.42-2.8,3.17-4.75,.37-.93,1.3-3.73,.84-7.18-.28-2.24-1.03-3.08-1.3-3.45-.93-1.03-2.05-1.3-2.42-1.3Z"/><path class="cls-8" d="M559.64,243.29c-.19-.09-2.14-.47-3.82,.56-.65,.47-1.03,.93-1.49,1.68-.84,1.3-2.24,3.63-2.42,7.27-.09,1.68-.19,3.73,1.12,5.59,.37,.56,1.12,1.68,2.52,2.05,1.58,.37,2.89-.37,3.36-.56,1.77-1.03,2.52-2.7,3.26-4.57,.37-.93,1.4-3.63,1.03-7.08-.28-2.24-.93-3.08-1.21-3.45-.93-1.12-1.96-1.4-2.33-1.49Z"/><path class="cls-8" d="M535.03,244.87c-.19,0-2.14,.28-3.36,1.86-.47,.65-.65,1.3-.84,2.05-.28,1.49-.84,4.19,.28,7.64,.56,1.58,1.12,3.54,2.98,4.85,.56,.37,1.68,1.12,3.08,1.03,1.58-.19,2.52-1.3,2.89-1.68,1.3-1.58,1.4-3.45,1.49-5.41,0-.93,0-3.91-1.58-6.99-1.03-2.05-1.96-2.61-2.33-2.8-1.12-.75-2.24-.65-2.61-.56Z"/><path class="cls-8" d="M517.88,259.41c-.19,0-2.24,.47-3.26,2.33-.47,.75-.56,1.4-.65,2.24-.19,1.58-.47,4.47,1.03,7.83,.65,1.58,1.49,3.54,3.54,4.66,.65,.37,1.86,1.03,3.26,.75,1.58-.28,2.52-1.58,2.8-2.05,1.21-1.77,1.12-3.73,1.03-5.78-.09-1.03-.37-4.01-2.24-7.08-1.21-2.05-2.24-2.52-2.7-2.7-1.3-.47-2.52-.19-2.8-.19Z"/><path class="cls-13" d="M547.06,264.35c-1.3,.09-2.7,.09-4.29,.93-1.77,.93-2.8,2.33-3.73,3.54-.84,1.12-.75,1.21-1.96,3.17-1.12,1.68-1.68,2.7-2.7,3.82-1.21,1.4-2.42,2.24-4.57,3.91-2.33,1.77-2.52,1.68-3.17,2.42-1.58,1.86-1.96,3.91-2.24,5.31-.19,1.3-.65,3.73,.37,6.52,.47,1.21,1.3,3.54,3.45,4.57,.84,.37,1.68,.47,3.73,.37,3.45-.19,5.78-.84,7.83-1.3,2.42-.56,4.94-1.12,8.11-1.21,3.82-.09,7.18,.56,8.95,.84,2.05,.37,3.54,.84,6.43,1.12,2.42,.28,3.63,.19,5.03-.28,.84-.28,2.33-.75,3.45-2.05,1.21-1.49,1.3-3.08,1.3-4.75,.09-1.12,.09-3.82-1.49-6.99-.65-1.4-1.21-2.05-3.36-4.66-5.78-7.18-6.06-8.02-8.39-9.97-1.4-1.21-2.8-2.42-4.94-3.45-1.12-.65-4.01-2.05-7.83-1.86Z"/><path class="cls-8" d="M547.34,266.77c-1.12,.09-2.33,.09-3.73,.84-1.49,.84-2.42,2.05-3.17,3.08-.75,.93-.65,1.03-1.68,2.8-.93,1.49-1.49,2.33-2.33,3.26-1.03,1.21-2.05,1.96-3.91,3.36-2.05,1.58-2.14,1.4-2.8,2.14-1.4,1.58-2.61,4.01-2.89,5.13-.19,1.12-.56,3.17,.28,5.59,.37,1.12,1.12,3.08,2.98,3.91,.75,.37,2.42-.09,4.1-.28,2.98-.19,5.03-.75,6.8-1.12,2.05-.47,4.29-.93,6.99-1.03,3.26-.09,6.15,.47,7.74,.75,1.77,.37,3.08,.75,5.5,.93,2.05,.19,4.57,1.03,5.69,.65,.75-.19,1.96-.75,2.98-1.96,1.03-1.21,.75-3.82,.84-5.31,.09-.93-.75-2.98-2.33-5.69-.75-1.3-1.12-1.77-2.89-4.01-4.94-6.15-5.22-6.9-7.18-8.57-1.21-1.03-2.42-2.05-4.29-2.98-.93-.47-3.45-1.68-6.71-1.49Z"/></g><path d="M102.48,295.87v-15.43h-26.99v-8.67l26.52-33.71h10.59v33.71h6.76v8.67h-6.76v15.43h-10.12Zm-17.76-24.1h17.99v-22.68l-17.99,22.68Z"/><g><path d="M311.1,297.32c-6.02,0-11.25-1.24-15.7-3.73s-7.84-6.07-10.16-10.74c-2.32-4.67-3.48-9.97-3.48-15.88s1.16-11.17,3.48-15.86c2.32-4.69,5.72-8.27,10.2-10.76,4.48-2.49,9.7-3.73,15.66-3.73s11.15,1.24,15.62,3.73c4.48,2.49,7.88,6.07,10.2,10.76,2.32,4.69,3.48,9.97,3.48,15.86s-1.16,11.21-3.48,15.88c-2.32,4.67-5.7,8.26-10.14,10.74-4.44,2.49-9.67,3.73-15.68,3.73Zm0-7.93c5.57,0,9.72-2.27,12.44-6.82,2.72-4.55,4.08-9.75,4.08-15.62s-1.37-11.1-4.1-15.62-6.88-6.78-12.42-6.78-9.73,2.26-12.46,6.78-4.1,9.73-4.1,15.62,1.36,11.07,4.08,15.62c2.72,4.55,6.88,6.82,12.48,6.82Z"/><path d="M351.21,295.87v-57.81h21.64c4.43,0,7.8,.55,10.12,1.66,2.32,1.11,4.15,2.79,5.49,5.04,1.34,2.25,2.01,4.8,2.01,7.64,0,3.39-.98,6.58-2.93,9.59s-4.71,5.31-8.28,6.89l18.93,26.99h-14.65l-14.38-23.63h-6.61v23.63h-11.33Zm11.33-31.56h2.77c4.97,0,8.4-1.08,10.29-3.24,1.89-2.16,2.84-4.61,2.84-7.34,0-2.37-.77-4.25-2.31-5.64-1.54-1.39-4.67-2.09-9.4-2.09h-4.19v18.32Z"/></g><path d="M432.21,295.87v-9.14c3.49-4.69,6.87-8.46,10.15-11.33l4.72-4.18c3.38-2.99,6.18-5.96,8.38-8.89,2.21-2.93,3.31-6,3.31-9.2,0-2.89-.93-5.12-2.79-6.7-1.86-1.58-4.38-2.36-7.56-2.36-4.22,0-9.13,1.43-14.73,4.3v-8.48c5.88-2.19,11.56-3.28,17.05-3.28,6.06,0,10.96,1.45,14.69,4.36,3.73,2.9,5.6,6.79,5.6,11.66,0,3.07-.79,5.97-2.36,8.69-1.57,2.72-4.84,6.09-9.81,10.1l-3.9,3.12c-1.71,1.38-3.59,3.15-5.63,5.31-2.04,2.16-3.38,4.45-4.03,6.88h25.51v9.14h-38.59Z"/><path d="M625.83,235.05l-11.37-1.42,2.62-8.03,10.01,5.55c-.86,.95-1.29,1.98-1.29,3.11,0,.18,.01,.45,.04,.79Zm3.55,3.12l-4.88,10.39-6.8-4.97,8.36-7.86c.73,1.33,1.83,2.15,3.32,2.43Zm-3.86-18.71h8.44l-2.15,11.25c-.7-.34-1.39-.51-2.07-.51s-1.35,.17-2.03,.51l-2.19-11.25Zm7.96,16.28l8.36,7.86-6.84,4.97-4.84-10.39c1.46-.29,2.56-1.1,3.32-2.43Zm-1.06-4.59l10.04-5.55,2.58,8.03-11.37,1.42c.05-.34,.08-.6,.08-.79,0-1.13-.45-2.17-1.33-3.11Z"/></g></g></svg>