<?xml version="1.0" encoding="UTF-8"?><svg id="Layer" xmlns="http://www.w3.org/2000/svg" xmlns:xlink="http://www.w3.org/1999/xlink" viewBox="0 0 721 379.91"><defs><style>.cls-1{fill:url(#linear-gradient-2);}.cls-2{fill:url(#linear-gradient-17);}.cls-3{fill:#030404;}.cls-4{fill:#20201e;}.cls-5,.cls-6,.cls-7{fill:#020303;}.cls-8{fill:url(#bgPattern_000001774652474383983);}.cls-8,.cls-6,.cls-9,.cls-10,.cls-11,.cls-12{isolation:isolate;}.cls-8,.cls-9{opacity:.1;}.cls-13{fill:url(#linear-gradient-15);}.cls-14{fill:url(#linear-gradient-18);}.cls-15{fill:url(#linear-gradient-14);}.cls-6,.cls-12{opacity:.29;}.cls-16{fill:url(#linear-gradient-6);}.cls-17{stroke-width:1.67px;}.cls-17,.cls-18,.cls-7,.cls-19,.cls-20,.cls-21{stroke-miterlimit:10;}.cls-17,.cls-22{fill:#010202;}.cls-17,.cls-21{stroke:#030304;}.cls-23{fill:#1f1f1e;}.cls-24{fill:url(#linear-gradient-11);}.cls-18{opacity:0;stroke:#1d1d1b;}.cls-18,.cls-21{fill:#fff;}.cls-9{fill:url(#Nowy_wzorek_3);}.cls-10{opacity:.15;}.cls-10,.cls-25{fill:#030304;}.cls-26{fill:url(#radial-gradient);}.cls-27{fill:url(#linear-gradient-16);}.cls-7{stroke-width:1.66px;}.cls-7,.cls-19{stroke:#030404;}.cls-28{fill:url(#linear-gradient-5);}.cls-29{fill:url(#radial-gradient-2);}.cls-19{stroke-width:1.32px;}.cls-19,.cls-30,.cls-20{fill:none;}.cls-31{fill:url(#linear-gradient-7);}.cls-20{stroke:#020303;stroke-width:1.32px;}.cls-11{fill:url(#linear-gradient-10);opacity:.4;}.cls-32{fill:url(#linear-gradient-9);}.cls-33{fill:#7f358b;}.cls-34{fill:url(#linear-gradient-3);}.cls-35{fill:url(#linear-gradient);}.cls-12,.cls-36{fill:#010101;}.cls-37{fill:url(#linear-gradient-19);}.cls-38{fill:url(#linear-gradient-4);}.cls-21{stroke-width:.81px;}.cls-39{fill:url(#linear-gradient-8);}.cls-40{fill:url(#linear-gradient-12);}.cls-41{fill:url(#linear-gradient-13);}</style><linearGradient id="linear-gradient" x1="370.84" y1="-57.24" x2="127.94" y2="185.69" gradientTransform="translate(0 364.63) scale(1 -1)" gradientUnits="userSpaceOnUse"><stop offset="0" stop-color="#9e9d9c"/><stop offset=".54" stop-color="#010202"/><stop offset="1" stop-color="#9e9d9c"/></linearGradient><linearGradient id="linear-gradient-2" x1="249.45" y1="-8.13" x2="249.45" y2="136.56" gradientTransform="translate(0 364.63) scale(1 -1)" gradientUnits="userSpaceOnUse"><stop offset="0" stop-color="#462c1b"/><stop offset="1" stop-color="#b18048"/></linearGradient><linearGradient id="linear-gradient-3" x1="249.38" y1="-4.46" x2="249.38" y2="133.03" gradientTransform="translate(0 364.63) scale(1 -1)" gradientUnits="userSpaceOnUse"><stop offset="0" stop-color="#946137"/><stop offset="1" stop-color="#805127"/></linearGradient><pattern id="Nowy_wzorek_3" x="0" y="0" width="19.7" height="21.7" patternTransform="translate(43.9 -32159.12) scale(1 -1)" patternUnits="userSpaceOnUse" viewBox="0 0 19.7 21.7"><g><rect class="cls-30" width="19.7" height="21.7"/><g><rect class="cls-30" width="19.7" height="21.7"/><g><rect class="cls-30" width="19.7" height="21.7"/><g><rect class="cls-30" width="19.7" height="21.7"/><g><rect class="cls-30" width="19.7" height="21.7"/><g><rect class="cls-30" width="19.7" height="21.7"/><path class="cls-23" d="M16.6,13c2.1-2.1,2.1-5.6,0-7.7l-1.2-1.2c-2.1-2.1-5.6-2.1-7.8,0L3.1,8.7c-2.1,2.1-2.1,5.6,0,7.7l1.2,1.2c2.1,2.1,5.6,2.1,7.7,0l4.6-4.6Z"/></g></g></g></g></g></g></pattern><linearGradient id="linear-gradient-4" x1="337.17" y1="15.99" x2="337.17" y2="111.49" gradientTransform="translate(0 363.62) scale(1 -1)" gradientUnits="userSpaceOnUse"><stop offset=".16" stop-color="#823a13"/><stop offset=".18" stop-color="#985c1a"/><stop offset=".22" stop-color="#ae7d22"/><stop offset=".26" stop-color="#c39d26"/><stop offset=".3" stop-color="#d6b92e"/><stop offset=".35" stop-color="#e4cf36"/><stop offset=".41" stop-color="#efe036"/><stop offset=".48" stop-color="#f6e947"/><stop offset=".58" stop-color="#f8ea4e"/><stop offset=".86" stop-color="#f6ea4d"/><stop offset="1" stop-color="#fcf4f9"/></linearGradient><linearGradient id="linear-gradient-5" x1="337.18" y1="116.58" x2="337.18" y2="-29.39" gradientTransform="translate(0 363.62) scale(1 -1)" gradientUnits="userSpaceOnUse"><stop offset=".26" stop-color="#f6ea4d"/><stop offset=".86" stop-color="#803813"/></linearGradient><linearGradient id="linear-gradient-6" x1="337.22" y1="17.31" x2="337.22" y2="110.07" gradientTransform="translate(0 363.62) scale(1 -1)" gradientUnits="userSpaceOnUse"><stop offset=".16" stop-color="#803813"/><stop offset=".17" stop-color="#8c471e"/><stop offset=".18" stop-color="#a26b3c"/><stop offset=".2" stop-color="#b78954"/><stop offset=".22" stop-color="#c7a468"/><stop offset=".24" stop-color="#d7bb7a"/><stop offset=".26" stop-color="#e2cc88"/><stop offset=".3" stop-color="#ead891"/><stop offset=".34" stop-color="#eede97"/><stop offset=".46" stop-color="#efe097"/><stop offset=".7" stop-color="#803813"/><stop offset=".73" stop-color="#e6d234"/><stop offset=".74" stop-color="#ebd948"/><stop offset=".75" stop-color="#eede6d"/><stop offset=".77" stop-color="#f0e28a"/><stop offset=".79" stop-color="#f8ebaa"/><stop offset=".8" stop-color="#f8edbf"/><stop offset=".83" stop-color="#faf0cf"/><stop offset=".85" stop-color="#fcf2da"/><stop offset=".89" stop-color="#fdf4e1"/><stop offset=".99" stop-color="#fdf5e3"/></linearGradient><linearGradient id="linear-gradient-7" x1="337.16" y1="96.48" x2="337.16" y2="-46.69" gradientTransform="translate(0 363.62) scale(1 -1)" gradientUnits="userSpaceOnUse"><stop offset=".26" stop-color="#f6ea4d"/><stop offset=".77" stop-color="#803813"/></linearGradient><linearGradient id="linear-gradient-8" x1="-716.65" y1="-663.03" x2="-649.12" y2="-595.53" gradientTransform="translate(245.35 -627.96) rotate(-45) scale(1 -1)" gradientUnits="userSpaceOnUse"><stop offset="0" stop-color="#1d1427"/><stop offset=".24" stop-color="#372348"/><stop offset=".49" stop-color="#573b6c"/><stop offset=".71" stop-color="#72508c"/><stop offset=".89" stop-color="#835ca0"/><stop offset="1" stop-color="#8963a7"/></linearGradient><linearGradient id="linear-gradient-9" x1="553.54" y1="-10.18" x2="553.54" y2="169.74" gradientTransform="translate(0 363.09) scale(1 -1)" gradientUnits="userSpaceOnUse"><stop offset="0" stop-color="#010101"/><stop offset="1" stop-color="#fff"/></linearGradient><radialGradient id="radial-gradient" cx="555.43" cy="79.36" fx="555.43" fy="79.36" r="88.45" gradientTransform="translate(60.5 353.77) scale(.89 -.89)" gradientUnits="userSpaceOnUse"><stop offset="0" stop-color="#c8c7c7"/><stop offset="1" stop-color="#727070"/></radialGradient><linearGradient id="linear-gradient-10" x1="225.81" y1="460.18" x2="225.81" y2="260.33" gradientTransform="translate(0 -257.17)" gradientUnits="userSpaceOnUse"><stop offset="0" stop-color="#ffdc12"/><stop offset="0" stop-color="#ffdb13"/><stop offset=".05" stop-color="#f9bb1b"/><stop offset=".1" stop-color="#f59b18"/><stop offset=".16" stop-color="#ef7b19"/><stop offset=".22" stop-color="#e86112"/><stop offset=".27" stop-color="#e84a1d"/><stop offset=".34" stop-color="#e5391e"/><stop offset=".41" stop-color="#e63121"/><stop offset=".5" stop-color="#e62e21"/><stop offset=".59" stop-color="#e63121"/><stop offset=".66" stop-color="#e5391e"/><stop offset=".73" stop-color="#e84a1d"/><stop offset=".78" stop-color="#e86112"/><stop offset=".84" stop-color="#ef7b19"/><stop offset=".9" stop-color="#f59b18"/><stop offset=".95" stop-color="#f9bb1b"/><stop offset="1" stop-color="#ffdb13"/><stop offset="1" stop-color="#ffdc12"/></linearGradient><linearGradient id="linear-gradient-11" x1="225.81" y1="458.2" x2="225.81" y2="262.03" xlink:href="#linear-gradient-10"/><linearGradient id="linear-gradient-12" x1="225.89" y1="450.11" x2="225.89" y2="270.12" gradientTransform="translate(0 -257.17)" gradientUnits="userSpaceOnUse"><stop offset="0" stop-color="#020303"/><stop offset="1" stop-color="#fff"/></linearGradient><radialGradient id="radial-gradient-2" cx="225.96" cy="360.19" fx="225.96" fy="360.19" r="78.55" gradientTransform="translate(0 -257.17)" gradientUnits="userSpaceOnUse"><stop offset="0" stop-color="#cac8c8"/><stop offset="1" stop-color="#747272"/></radialGradient><linearGradient id="linear-gradient-13" x1="580.95" y1="436.83" x2="425.81" y2="281.69" gradientTransform="translate(0 -257.17)" gradientUnits="userSpaceOnUse"><stop offset="0" stop-color="#9f9d9c"/><stop offset=".54" stop-color="#020303"/><stop offset="1" stop-color="#9f9d9c"/></linearGradient><linearGradient id="linear-gradient-14" x1="503.38" y1="431.65" x2="503.38" y2="286.73" gradientTransform="translate(0 -257.17)" gradientUnits="userSpaceOnUse"><stop offset="0" stop-color="#472d1c"/><stop offset="1" stop-color="#b18047"/></linearGradient><linearGradient id="linear-gradient-15" x1="503.38" y1="427.96" x2="503.38" y2="290.28" gradientTransform="translate(0 -257.17)" gradientUnits="userSpaceOnUse"><stop offset="0" stop-color="#946137"/><stop offset="1" stop-color="#815228"/></linearGradient><pattern id="bgPattern_000001774652474383983" x="0" y="0" width="19.7" height="21.7" patternTransform="translate(-10.43 17.16)" patternUnits="userSpaceOnUse" viewBox="0 0 19.7 21.7"><g><rect class="cls-30" width="19.7" height="21.7"/><g><rect class="cls-30" width="19.7" height="21.7"/><g><rect class="cls-30" width="19.7" height="21.7"/><g><rect class="cls-30" width="19.7" height="21.7"/><g><rect class="cls-30" width="19.7" height="21.7"/><g><rect class="cls-30" width="19.7" height="21.7"/><g><rect class="cls-30" width="19.7" height="21.7"/><path class="cls-4" d="M16.6,8.7c2.1,2.1,2.1,5.6,0,7.7l-1.2,1.2c-2.1,2.1-5.6,2.1-7.8,0L3.1,13c-2.1-2.1-2.1-5.6,0-7.7l1.2-1.2c2.1-2.1,5.6-2.1,7.7,0l4.6,4.6Z"/></g></g></g></g></g></g></g></pattern><linearGradient id="linear-gradient-16" x1="503.38" y1="210.5" x2="503.38" y2="305.43" gradientTransform="translate(0 360.63) scale(1 -1)" gradientUnits="userSpaceOnUse"><stop offset=".16" stop-color="#823b14"/><stop offset=".18" stop-color="#995d1a"/><stop offset=".22" stop-color="#ae7d22"/><stop offset=".26" stop-color="#c39d25"/><stop offset=".3" stop-color="#d6b92e"/><stop offset=".35" stop-color="#e4cf36"/><stop offset=".41" stop-color="#efe036"/><stop offset=".48" stop-color="#f5e94d"/><stop offset=".58" stop-color="#f8eb53"/><stop offset=".86" stop-color="#f5ea52"/><stop offset="1" stop-color="#fcf4f9"/></linearGradient><linearGradient id="linear-gradient-17" x1="503.45" y1="310.44" x2="503.45" y2="165.34" gradientTransform="translate(0 360.63) scale(1 -1)" gradientUnits="userSpaceOnUse"><stop offset=".26" stop-color="#f5ea52"/><stop offset=".86" stop-color="#813a14"/></linearGradient><linearGradient id="linear-gradient-18" x1="503.45" y1="211.78" x2="503.45" y2="304" gradientTransform="translate(0 360.63) scale(1 -1)" gradientUnits="userSpaceOnUse"><stop offset=".16" stop-color="#813a14"/><stop offset=".17" stop-color="#8d481f"/><stop offset=".18" stop-color="#a36c3d"/><stop offset=".2" stop-color="#b78954"/><stop offset=".22" stop-color="#c7a468"/><stop offset=".24" stop-color="#d7bb7a"/><stop offset=".26" stop-color="#e2cc88"/><stop offset=".3" stop-color="#ead891"/><stop offset=".34" stop-color="#eede97"/><stop offset=".46" stop-color="#efe097"/><stop offset=".7" stop-color="#813a14"/><stop offset=".73" stop-color="#e6d234"/><stop offset=".74" stop-color="#ebda49"/><stop offset=".75" stop-color="#eede6d"/><stop offset=".77" stop-color="#f0e18a"/><stop offset=".79" stop-color="#f8ebab"/><stop offset=".8" stop-color="#f8edbf"/><stop offset=".83" stop-color="#faf0cf"/><stop offset=".85" stop-color="#fcf2da"/><stop offset=".89" stop-color="#fdf4e1"/><stop offset=".99" stop-color="#fdf5e3"/></linearGradient><linearGradient id="linear-gradient-19" x1="503.38" y1="290.47" x2="503.38" y2="148.14" gradientTransform="translate(0 360.63) scale(1 -1)" gradientUnits="userSpaceOnUse"><stop offset=".26" stop-color="#f5ea52"/><stop offset=".77" stop-color="#813a14"/></linearGradient></defs><rect class="cls-18" x=".5" y=".5" width="720" height="378.91"/><g id="prodBg"><rect id="external-border" class="cls-35" x="82.84" y="224.04" width="333.11" height="152.73"/><rect id="internal-border" class="cls-1" x="86.85" y="228.08" width="325.19" height="144.68"/><rect id="bg" class="cls-34" x="90.38" y="231.61" width="318" height="137.49"/><rect id="bgPattern" class="cls-9" x="90.38" y="231.61" width="318" height="137.49"/></g><g id="mln"><polygon id="obram_czarne" class="cls-17" points="301.83 249.23 286.48 264.58 286.48 335.18 301.83 350.53 372.51 350.53 387.79 335.18 387.79 264.58 372.51 249.23 301.83 249.23"/><polygon id="obram_zolte" class="cls-38" points="303.82 252.13 289.46 266.58 289.46 333.18 303.82 347.63 370.45 347.63 384.88 333.18 384.88 266.58 370.45 252.13 303.82 252.13"/><polygon id="tlo_wew" class="cls-28" points="304.81 253.55 290.8 267.56 290.8 332.2 304.81 346.23 369.53 346.23 383.56 332.2 383.56 267.56 369.53 253.55 304.81 253.55"/><path id="obram_skosne" class="cls-16" d="M376.83,317.77c-2.57,0-4.65-2.08-4.65-4.65v-26.46c0-2.57,2.08-4.65,4.65-4.65h6.64v-14.43l-13.94-14.03h-14.51v6.64c0,2.57-2.08,4.65-4.65,4.65h-26.46c-2.57,0-4.65-2.08-4.65-4.65v-6.64h-14.43l-14.03,14.03v14.51h6.64c2.57,0,4.65,2.08,4.65,4.65v26.46c0,2.57-2.08,4.65-4.65,4.65h-6.64v14.43l14.03,14.03h14.51v-6.64c0-2.57,2.08-4.65,4.65-4.65h26.46c2.57,0,4.65,2.08,4.65,4.65v6.64h14.51l14.03-14.03v-14.51h-6.82Z"/><path id="tlo_zew" class="cls-31" d="M376.59,319.33c-3.16,0-5.72-3.16-5.72-6.31v-26.31c0-3.16,2.57-6.31,5.72-6.31h5.39v-11.77l-13.62-13.53h-11.71v5.39c0,3.16-3.16,5.72-6.31,5.72h-26.31c-3.16,0-6.31-2.57-6.31-5.72v-5.39h-11.86l-13.53,13.53v11.77h5.39c3.16,0,5.72,3.16,5.72,6.31v26.31c0,3.16-2.57,6.31-5.72,6.31h-5.39v11.77l13.53,13.53h11.77v-5.39c0-3.16,3.16-5.72,6.31-5.72h26.22c3.16,0,6.31,2.57,6.31,5.72v5.39h11.77l13.53-13.53v-11.77h-5.2Z"/></g><g><path class="cls-36" d="M311.39,304.79v-5.35h12.83v5.35h-12.83Z"/><path class="cls-36" d="M330.39,320.31v-6.75c2.59-3.46,5.09-6.27,7.5-8.38l3.49-3.09c2.5-2.21,4.56-4.41,6.2-6.58,1.64-2.17,2.46-4.43,2.46-6.8,0-2.15-.68-3.79-2.06-4.96s-3.24-1.75-5.59-1.75c-3.11,0-6.75,1.05-10.9,3.18v-6.27c4.34-1.62,8.55-2.43,12.61-2.43,4.49,0,8.11,1.07,10.87,3.22s4.14,5.02,4.14,8.64c0,2.28-.59,4.43-1.75,6.42-1.16,2.02-3.6,4.49-7.26,7.48l-2.89,2.3c-1.27,1.03-2.65,2.32-4.17,3.92-1.51,1.6-2.5,3.29-2.98,5.09h18.88v6.75h-28.55Z"/></g><g id="energy"><rect class="cls-25" x="156.79" y="249.23" width="101.29" height="101.29"/><rect class="cls-39" x="159.71" y="252.15" width="95.46" height="95.46"/><polygon class="cls-33" points="250.54 256.78 250.54 342.98 164.33 342.98 164.33 256.78 250.54 256.78"/><polygon class="cls-21" points="196.92 290.01 225.35 272.39 210.16 294.4 218.2 307.49 190.25 325.12 204.3 303.17 196.92 290.01"/><path id="darker" class="cls-10" d="M255.17,347.61h-95.46v-52.31s30.06,4.63,47.69,4.63,47.77-4.63,47.77-4.63v52.31Z"/></g><path class="cls-36" d="M109.46,308.56v-11.88h28.52v11.88h-28.52Z"/><g id="city"><polygon class="cls-36" points="633.94 329.79 633.94 236.97 553.61 190.64 473.13 236.97 473.13 329.79 553.61 376.27 633.94 329.79"/><polygon class="cls-32" points="631.39 328.28 631.39 238.32 553.61 193.35 475.69 238.32 475.69 328.28 553.61 373.26 631.39 328.28"/><polygon class="cls-26" points="626.42 325.42 626.42 241.33 553.61 199.36 480.96 241.33 480.96 325.42 553.61 367.24 626.42 325.42"/><path class="cls-12" d="M633.49,327.08v-57.92h0q-79.88,11.88-159.91,0h0v57.92l79.88,46.18,80.03-46.18Z"/><g id="city-logo"><path class="cls-20" d="M497.96,293.53c0-29.79,24.97-53.7,55.51-53.7"/><path class="cls-20" d="M608.82,293.53c0-29.79-25.12-53.7-56.11-53.7"/><rect class="cls-5" x="496.9" y="290.07" width="112.97" height="7.07"/><rect class="cls-5" x="502.77" y="283.45" width="3.46" height="6.62"/><rect class="cls-5" x="504.57" y="278.19" width="1.65" height="5.42"/><rect class="cls-5" x="509.69" y="282.7" width="6.17" height="7.52"/><rect class="cls-5" x="509.69" y="274.13" width="3.01" height="8.57"/><rect class="cls-5" x="517.81" y="280.75" width="2.56" height="9.18"/><rect class="cls-5" x="520.37" y="262.39" width="2.86" height="27.68"/><rect class="cls-5" x="521.87" y="259.39" width="1.5" height="2.86"/><rect class="cls-5" x="523.38" y="283.45" width="4.81" height="6.62"/><rect class="cls-5" x="527.29" y="280.14" width=".9" height="3.46"/><rect class="cls-5" x="528.19" y="255.62" width="3.91" height="34.45"/><rect class="cls-5" x="532.1" y="261.79" width="1.96" height="28.13"/><rect class="cls-5" x="534.21" y="271.87" width="4.06" height="18.2"/><rect class="cls-5" x="538.27" y="275.63" width="2.56" height="14.59"/><rect class="cls-5" x="543.08" y="266.76" width="5.42" height="23.32"/><rect class="cls-5" x="548.65" y="275.93" width="2.71" height="14.14"/><rect class="cls-5" x="551.36" y="249.91" width="6.62" height="40.16"/><rect class="cls-5" x="561.14" y="258.78" width="3.46" height="31.29"/><rect class="cls-5" x="568.06" y="265.25" width="3.76" height="24.82"/><rect class="cls-5" x="564.3" y="281.8" width="3.76" height="8.27"/><rect class="cls-5" x="571.82" y="285.56" width="2.71" height="4.66"/><rect class="cls-5" x="577.68" y="283" width="2.41" height="6.92"/><rect class="cls-5" x="580.09" y="271.87" width="4.21" height="18.2"/><rect class="cls-5" x="584.15" y="263.45" width="3.01" height="26.63"/><rect class="cls-5" x="587.16" y="282.1" width="2.56" height="7.97"/><rect class="cls-5" x="591.22" y="277.29" width="3.31" height="12.79"/><rect class="cls-5" x="594.53" y="275.93" width="3.61" height="14.14"/><rect class="cls-5" x="600.4" y="283.75" width="1.65" height="6.47"/><rect class="cls-5" x="602.05" y="286.91" width="3.01" height="3.31"/></g></g><g id="cityAny"><path class="cls-11" d="M225.89,203.01l-86.58-50.11V52.98L225.89,3.16l86.44,49.82v99.93l-86.44,50.11h0Z"/><path class="cls-24" d="M225.89,201.02l-85.02-49.11V53.97L225.89,4.86l84.88,49.11v97.94l-84.88,49.11h0Z"/><polygon class="cls-5" points="306.22 149.35 306.22 56.53 225.89 10.25 145.4 56.53 145.4 149.35 225.89 195.77 306.22 149.35"/><polygon class="cls-40" points="303.67 147.94 303.67 58.09 225.89 12.95 148.1 58.09 148.1 147.94 225.89 192.93 303.67 147.94"/><polygon class="cls-29" points="298.7 144.95 298.7 60.93 225.89 19.05 153.21 60.93 153.21 144.95 225.89 186.97 298.7 144.95"/><path class="cls-6" d="M305.8,146.8v-58.05h0c-53.23,7.95-106.46,7.95-159.83,0h0v57.91l79.77,46.13,80.05-45.99h0Z"/><g id="city-logo-2"><path class="cls-19" d="M170.24,113.3c0-29.81,24.98-53.8,55.5-53.8"/><path class="cls-19" d="M281.24,113.3c0-29.81-25.12-53.8-56.07-53.8"/><rect class="cls-3" x="169.25" y="109.75" width="112.84" height="7.1"/><rect class="cls-3" x="175.07" y="103.08" width="3.41" height="6.67"/><rect class="cls-3" x="176.92" y="97.83" width="1.56" height="5.39"/><rect class="cls-3" x="182.03" y="102.37" width="6.1" height="7.38"/><rect class="cls-3" x="182.03" y="93.86" width="3.12" height="8.66"/><rect class="cls-3" x="190.12" y="100.53" width="2.55" height="9.23"/><rect class="cls-3" x="192.81" y="81.93" width="2.98" height="27.68"/><rect class="cls-3" x="194.23" y="79.09" width="1.42" height="2.98"/><rect class="cls-3" x="195.65" y="103.08" width="4.83" height="6.67"/><rect class="cls-3" x="199.48" y="99.82" width=".99" height="3.41"/><rect class="cls-3" x="200.48" y="75.4" width="3.83" height="34.49"/><rect class="cls-3" x="204.45" y="81.51" width="1.99" height="28.25"/><rect class="cls-3" x="206.58" y="91.58" width="4.12" height="18.17"/><rect class="cls-3" x="210.56" y="95.28" width="2.55" height="14.62"/><rect class="cls-3" x="215.38" y="86.33" width="5.39" height="23.28"/><rect class="cls-3" x="220.92" y="95.56" width="2.7" height="14.05"/><rect class="cls-3" x="223.61" y="69.58" width="6.67" height="40.17"/><rect class="cls-3" x="233.41" y="78.38" width="3.41" height="31.23"/><rect class="cls-3" x="240.36" y="84.91" width="3.69" height="24.84"/><rect class="cls-3" x="236.67" y="101.38" width="3.69" height="8.23"/><rect class="cls-3" x="244.05" y="105.21" width="2.7" height="4.68"/><rect class="cls-3" x="249.87" y="102.66" width="2.41" height="6.96"/><rect class="cls-3" x="252.43" y="91.58" width="4.26" height="18.17"/><rect class="cls-3" x="256.4" y="83.07" width="3.12" height="26.54"/><rect class="cls-3" x="259.53" y="101.8" width="2.55" height="7.95"/><rect class="cls-3" x="263.5" y="96.84" width="3.26" height="12.77"/><rect class="cls-3" x="266.76" y="95.56" width="3.55" height="14.05"/><rect class="cls-3" x="272.73" y="103.37" width="1.56" height="6.53"/><rect class="cls-3" x="274.43" y="106.63" width="3.12" height="3.26"/></g></g><g id="prodBg-2"><rect id="external-border-2" class="cls-41" x="424.75" y="25.58" width="157.27" height="153.01"/><rect id="internal-border-2" class="cls-15" x="428.72" y="29.56" width="149.32" height="144.92"/><rect id="bg-2" class="cls-13" x="432.27" y="33.1" width="142.23" height="137.68"/><rect id="bgPattern-2" class="cls-8" x="432.27" y="33.1" width="142.23" height="137.68"/></g><g id="mln-2"><polygon id="obram_czarne-2" class="cls-7" points="468.2 52.35 453.07 67.61 453.07 137.84 468.2 153.1 538.56 153.1 553.69 137.84 553.69 67.61 538.56 52.35 468.2 52.35"/><polygon id="obram_zolte-2" class="cls-27" points="470.27 55.2 455.92 69.55 455.92 135.77 470.27 150.13 536.49 150.13 550.84 135.77 550.84 69.55 536.49 55.2 470.27 55.2"/><polygon id="tlo_wew-2" class="cls-2" points="471.18 56.62 457.34 70.59 457.34 134.87 471.18 148.7 535.58 148.7 549.55 134.87 549.55 70.59 535.58 56.62 471.18 56.62"/><path id="obram_skosne-2" class="cls-14" d="M542.83,120.51c-2.59,0-4.66-2.07-4.66-4.66v-26.25c0-2.59,2.07-4.66,4.66-4.66h6.6v-14.36l-13.84-13.97h-14.48v6.6c0,2.59-2.07,4.66-4.66,4.66h-26.25c-2.59,0-4.66-2.07-4.66-4.66v-6.6h-14.36l-13.97,13.97v14.48h6.6c2.59,0,4.66,2.07,4.66,4.66v26.25c0,2.59-2.07,4.66-4.66,4.66h-6.6v14.36l13.97,13.97h14.48v-6.6c0-2.59,2.07-4.66,4.66-4.66h26.25c2.59,0,4.66,2.07,4.66,4.66v6.6h14.48l13.97-13.97v-14.48h-6.85Z"/><path id="tlo_zew-2" class="cls-37" d="M542.57,122.06c-3.1,0-5.69-3.1-5.69-6.21v-26.25c0-3.1,2.59-6.21,5.69-6.21h5.3v-11.77l-13.58-13.45h-11.64v5.3c0,3.1-3.1,5.69-6.21,5.69h-26.12c-3.1,0-6.21-2.59-6.21-5.69v-5.3h-11.77l-13.45,13.45v11.77h5.3c3.1,0,5.69,3.1,5.69,6.21v26.12c0,3.1-2.59,6.21-5.69,6.21h-5.3v11.77l13.45,13.45h11.77v-5.3c0-3.1,3.1-5.69,6.21-5.69h26.12c3.1,0,6.21,2.59,6.21,5.69v5.3h11.77l13.32-13.45v-11.77h-5.17v.13Z"/></g><path d="M341.57,88.6v-18.88h18.88v18.88h-18.88Zm0,51.24v-18.88h18.88v18.88h-18.88Z"/><path class="cls-22" d="M500.28,126.07v-42.68h-6.47l-.26-4.79,16.3-1.42v48.76l-9.57,.13h0Z"/></svg>