<?xml version="1.0" encoding="UTF-8"?><svg id="Layer" xmlns="http://www.w3.org/2000/svg" xmlns:xlink="http://www.w3.org/1999/xlink" viewBox="0 0 721 379.91"><defs><style>.cls-1{fill:url(#linear-gradient-2);}.cls-2{fill:#0b572a;stroke:#1d4422;stroke-width:3.66px;}.cls-2,.cls-3,.cls-4,.cls-5,.cls-6{stroke-miterlimit:10;}.cls-7,.cls-8{fill:#030404;}.cls-9{fill:#20201e;}.cls-10{fill:url(#linear-gradient-6);}.cls-11{fill:url(#Nowy_wzorek_5);opacity:.1;}.cls-11,.cls-8,.cls-12,.cls-13{isolation:isolate;}.cls-14{fill:#48ad38;}.cls-8{opacity:.15;}.cls-3{stroke:#030304;stroke-width:1.62px;}.cls-3,.cls-15{fill:none;}.cls-16{fill:url(#linear-gradient-11);}.cls-4{opacity:0;stroke:#1d1d1b;}.cls-4,.cls-5{fill:#fff;}.cls-17{fill:url(#linear-gradient-10);}.cls-18{fill:url(#radial-gradient);}.cls-12{opacity:.29;}.cls-12,.cls-19{fill:#010202;}.cls-5{stroke-width:.91px;}.cls-5,.cls-6{stroke:#030404;}.cls-6{fill:#020303;stroke-width:1.88px;}.cls-20{fill:url(#linear-gradient-5);}.cls-21{fill:url(#linear-gradient-7);}.cls-13{opacity:.05;}.cls-13,.cls-22{fill:#030304;}.cls-23{fill:url(#linear-gradient-9);}.cls-24{fill:#80368c;}.cls-25{fill:url(#linear-gradient-3);}.cls-26{fill:url(#linear-gradient);}.cls-27{fill:url(#linear-gradient-4);}.cls-28{fill:url(#linear-gradient-8);}</style><linearGradient id="linear-gradient" x1="349.01" y1="342.45" x2="72.06" y2="65.49" gradientTransform="translate(0 -14.28)" gradientUnits="userSpaceOnUse"><stop offset="0" stop-color="#9f9d9c"/><stop offset=".54" stop-color="#020303"/><stop offset="1" stop-color="#9f9d9c"/></linearGradient><linearGradient id="linear-gradient-2" x1="210.61" y1="352.14" x2="210.61" y2="55.81" gradientTransform="translate(0 -14.28)" gradientUnits="userSpaceOnUse"><stop offset="0" stop-color="#472d1c"/><stop offset="1" stop-color="#b18047"/></linearGradient><linearGradient id="linear-gradient-3" x1="210.55" y1="348.01" x2="210.55" y2="59.78" gradientTransform="translate(0 -14.28)" gradientUnits="userSpaceOnUse"><stop offset="0" stop-color="#946137"/><stop offset="1" stop-color="#815228"/></linearGradient><pattern id="Nowy_wzorek_5" x="0" y="0" width="19.7" height="21.7" patternTransform="translate(43.4 32549.63)" patternUnits="userSpaceOnUse" viewBox="0 0 19.7 21.7"><g><rect class="cls-15" width="19.7" height="21.7"/><g><rect class="cls-15" width="19.7" height="21.7"/><g><rect class="cls-15" width="19.7" height="21.7"/><g><rect class="cls-15" width="19.7" height="21.7"/><g><rect class="cls-15" width="19.7" height="21.7"/><g><rect class="cls-15" width="19.7" height="21.7"/><g><rect class="cls-15" width="19.7" height="21.7"/><path class="cls-9" d="M16.6,8.7c2.1,2.1,2.1,5.6,0,7.7l-1.2,1.2c-2.1,2.1-5.6,2.1-7.8,0L3.1,13c-2.1-2.1-2.1-5.6,0-7.7l1.2-1.2c2.1-2.1,5.6-2.1,7.7,0l4.6,4.6Z"/></g></g></g></g></g></g></g></pattern><linearGradient id="linear-gradient-4" x1="248.36" y1="324.91" x2="248.36" y2="217.4" gradientTransform="translate(0 -15.29)" gradientUnits="userSpaceOnUse"><stop offset=".16" stop-color="#823b14"/><stop offset=".18" stop-color="#995d1a"/><stop offset=".22" stop-color="#ae7d22"/><stop offset=".26" stop-color="#c39d25"/><stop offset=".3" stop-color="#d6b92e"/><stop offset=".35" stop-color="#e4cf36"/><stop offset=".41" stop-color="#efe036"/><stop offset=".48" stop-color="#f5e94d"/><stop offset=".58" stop-color="#f8eb53"/><stop offset=".86" stop-color="#f5ea52"/><stop offset="1" stop-color="#fcf4f9"/></linearGradient><linearGradient id="linear-gradient-5" x1="248.37" y1="211.67" x2="248.37" y2="376" gradientTransform="translate(0 -15.29)" gradientUnits="userSpaceOnUse"><stop offset=".26" stop-color="#f5ea52"/><stop offset=".86" stop-color="#813a14"/></linearGradient><linearGradient id="linear-gradient-6" x1="248.42" y1="323.44" x2="248.42" y2="219.01" gradientTransform="translate(0 -15.29)" gradientUnits="userSpaceOnUse"><stop offset=".16" stop-color="#813a14"/><stop offset=".17" stop-color="#8d481f"/><stop offset=".18" stop-color="#a36c3d"/><stop offset=".2" stop-color="#b78954"/><stop offset=".22" stop-color="#c7a468"/><stop offset=".24" stop-color="#d7bb7a"/><stop offset=".26" stop-color="#e2cc88"/><stop offset=".3" stop-color="#ead891"/><stop offset=".34" stop-color="#eede97"/><stop offset=".46" stop-color="#efe097"/><stop offset=".7" stop-color="#813a14"/><stop offset=".73" stop-color="#e6d234"/><stop offset=".74" stop-color="#ebda49"/><stop offset=".75" stop-color="#eede6d"/><stop offset=".77" stop-color="#f0e18a"/><stop offset=".79" stop-color="#f8ebab"/><stop offset=".8" stop-color="#f8edbf"/><stop offset=".83" stop-color="#faf0cf"/><stop offset=".85" stop-color="#fcf2da"/><stop offset=".89" stop-color="#fdf4e1"/><stop offset=".99" stop-color="#fdf5e3"/></linearGradient><linearGradient id="linear-gradient-7" x1="248.34" y1="234.3" x2="248.34" y2="395.48" gradientTransform="translate(0 -15.29)" gradientUnits="userSpaceOnUse"><stop offset=".26" stop-color="#f5ea52"/><stop offset=".77" stop-color="#813a14"/></linearGradient><linearGradient id="linear-gradient-8" x1="-566.2" y1="949.28" x2="-490.21" y2="873.25" gradientTransform="translate(-22.56 -894.65) rotate(-45)" gradientUnits="userSpaceOnUse"><stop offset="0" stop-color="#1d1527"/><stop offset=".24" stop-color="#372348"/><stop offset=".49" stop-color="#583c6c"/><stop offset=".71" stop-color="#73518d"/><stop offset=".89" stop-color="#835ca1"/><stop offset="1" stop-color="#8964a8"/></linearGradient><linearGradient id="linear-gradient-9" x1="-392.22" y1="-913.32" x2="-316.24" y2="-837.34" gradientTransform="translate(78.19 -794.17) rotate(-45) scale(1 -1)" gradientUnits="userSpaceOnUse"><stop offset="0" stop-color="#0f6936"/><stop offset=".04" stop-color="#0f6c37"/><stop offset=".08" stop-color="#077739"/><stop offset=".13" stop-color="#108837"/><stop offset=".15" stop-color="#0a9039"/><stop offset=".35" stop-color="#36993d"/><stop offset=".76" stop-color="#5fb048"/><stop offset="1" stop-color="#6fb74b"/></linearGradient><linearGradient id="linear-gradient-10" x1="-300.29" y1="-1005.24" x2="-224.31" y2="-929.27" xlink:href="#linear-gradient-9"/><linearGradient id="linear-gradient-11" x1="512.08" y1="389.77" x2="512.08" y2="167.77" gradientTransform="translate(0 -15.82)" gradientUnits="userSpaceOnUse"><stop offset="0" stop-color="#010202"/><stop offset="1" stop-color="#fff"/></linearGradient><radialGradient id="radial-gradient" cx="512.27" cy="278.77" fx="512.27" fy="278.77" r="96.9" gradientTransform="translate(0 -15.82)" gradientUnits="userSpaceOnUse"><stop offset="0" stop-color="#c9c7c7"/><stop offset="1" stop-color="#737171"/></radialGradient></defs><rect class="cls-4" x=".5" y=".5" width="720" height="378.91"/><g id="prodBg"><rect id="external-border" class="cls-26" x="86.28" y="36.99" width="248.52" height="305.39"/><rect id="internal-border" class="cls-1" x="90.82" y="41.53" width="239.59" height="296.33"/><rect id="bg" class="cls-25" x="94.79" y="45.5" width="231.52" height="288.23"/><rect id="bgPattern" class="cls-11" x="94.79" y="45.5" width="231.52" height="288.23"/></g><path class="cls-19" d="M138.36,286.2v-23.87h-23.87v-9.8h23.87v-23.87h9.8v23.87h23.87v9.8h-23.87v23.87h-9.8Z"/><path class="cls-19" d="M128.31,129.87v-13.38h32.11v13.38h-32.11Z"/><g id="mln"><polygon id="obram_czarne" class="cls-6" points="208.58 198.85 191.3 216.13 191.3 295.61 208.58 312.88 288.15 312.88 305.35 295.61 305.35 216.13 288.15 198.85 208.58 198.85"/><polygon id="obram_zolte" class="cls-27" points="210.82 202.11 194.65 218.38 194.65 293.36 210.82 309.62 285.83 309.62 302.07 293.36 302.07 218.38 285.83 202.11 210.82 202.11"/><polygon id="tlo_wew" class="cls-20" points="211.93 203.72 196.16 219.49 196.16 292.25 211.93 308.05 284.79 308.05 300.59 292.25 300.59 219.49 284.79 203.72 211.93 203.72"/><path id="obram_skosne" class="cls-10" d="M293.01,276.01c-2.89,0-5.23-2.34-5.23-5.23v-29.79c0-2.89,2.34-5.23,5.23-5.23h7.48v-16.24l-15.7-15.8h-16.34v7.48c0,2.89-2.34,5.23-5.23,5.23h-29.79c-2.89,0-5.23-2.34-5.23-5.23v-7.48h-16.24l-15.8,15.8v16.34h7.48c2.89,0,5.23,2.34,5.23,5.23v29.79c0,2.89-2.34,5.23-5.23,5.23h-7.48v16.24l15.8,15.8h16.34v-7.48c0-2.89,2.34-5.23,5.23-5.23h29.79c2.89,0,5.23,2.34,5.23,5.23v7.48h16.34l15.8-15.8v-16.34h-7.68Z"/><path id="tlo_zew" class="cls-21" d="M292.74,277.76c-3.55,0-6.44-3.55-6.44-7.11v-29.62c0-3.55,2.89-7.11,6.44-7.11h6.07v-13.25l-15.33-15.23h-13.18v6.07c0,3.55-3.55,6.44-7.11,6.44h-29.62c-3.55,0-7.11-2.89-7.11-6.44v-6.07h-13.35l-15.23,15.23v13.25h6.07c3.55,0,6.44,3.55,6.44,7.11v29.62c0,3.55-2.89,7.11-6.44,7.11h-6.07v13.25l15.23,15.23h13.25v-6.07c0-3.55,3.55-6.44,7.11-6.44h29.52c3.55,0,7.11,2.89,7.11,6.44v6.07h13.25l15.23-15.23v-13.25h-5.84Z"/></g><g id="energy"><rect class="cls-7" x="191.3" y="66.19" width="114.03" height="114.03"/><rect class="cls-28" x="194.58" y="69.47" width="107.46" height="107.46"/><polygon class="cls-24" points="296.84 74.68 296.84 171.73 199.81 171.73 199.81 74.68 296.84 74.68"/><polygon class="cls-5" points="236.49 112.1 268.48 92.25 251.37 117.03 260.43 131.77 228.99 151.61 244.81 126.91 236.49 112.1"/><path id="darker" class="cls-8" d="M302.05,176.94h-107.46v-58.89s33.84,5.21,53.68,5.21,53.78-5.21,53.78-5.21v58.89h0Z"/></g><g id="plant"><rect class="cls-22" x="389.64" y="18.24" width="114.03" height="114.03"/><rect class="cls-23" x="392.94" y="21.53" width="107.45" height="107.45"/><rect class="cls-14" x="398.15" y="26.74" width="97.02" height="97.02"/><path id="leaf" class="cls-2" d="M446.61,50.7c-13.9,1.92-24.51,10.97-24.51,24.51,0,3.29,.64,6.49,1.83,9.42-2.56,1.74-6.31,4.02-8.14,4.66-3.2,1.1-9.6,.37-9.88,.91s1.83,6.31,2.56,6.58,6.58,.27,9.88-.91c2.38-.82,6.68-3.57,9.14-5.4,4.48,5.67,11.43,9.24,19.2,9.24,13.53,0,24.32-8.5,24.32-22.04,0-5.21,1.28-11.8,3.2-15.91,2.1-4.57,12.98-7.5,12.98-7.5-1.1-3.57-35.11-4.3-40.6-3.57h.02Z"/><path id="darker-2" class="cls-13" d="M500.38,128.97h-107.45v-58.89s33.83,5.21,53.68,5.21,53.77-5.21,53.77-5.21v58.89Z"/></g><g id="plant-2"><rect class="cls-22" x="519.64" y="18.24" width="114.03" height="114.03"/><rect class="cls-17" x="522.94" y="21.53" width="107.45" height="107.45"/><rect class="cls-14" x="528.15" y="26.74" width="97.02" height="97.02"/><path id="leaf-2" class="cls-2" d="M576.61,50.7c-13.9,1.92-24.51,10.97-24.51,24.51,0,3.29,.64,6.49,1.83,9.42-2.56,1.74-6.31,4.02-8.14,4.66-3.2,1.1-9.6,.37-9.88,.91s1.83,6.31,2.56,6.58,6.58,.27,9.88-.91c2.38-.82,6.68-3.57,9.14-5.4,4.48,5.67,11.43,9.24,19.2,9.24,13.53,0,24.32-8.5,24.32-22.04,0-5.21,1.28-11.8,3.2-15.91,2.1-4.57,12.98-7.5,12.98-7.5-1.1-3.57-35.11-4.3-40.6-3.57h.02Z"/><path id="darker-3" class="cls-13" d="M630.38,128.97h-107.45v-58.89s33.83,5.21,53.68,5.21,53.77-5.21,53.77-5.21v58.89Z"/></g><g id="city"><polygon class="cls-19" points="611.3 320.31 611.3 205.78 512.18 148.61 412.88 205.78 412.88 320.31 512.18 377.66 611.3 320.31"/><polygon class="cls-16" points="608.14 318.45 608.14 207.45 512.18 151.95 416.03 207.45 416.03 318.45 512.18 373.95 608.14 318.45"/><polygon class="cls-18" points="602.02 314.92 602.02 211.16 512.18 159.38 422.53 211.16 422.53 314.92 512.18 366.52 602.02 314.92"/><path class="cls-12" d="M610.74,316.96v-71.46h0c-65.71,9.77-131.48,9.77-197.31,0h0v71.46l98.56,56.98,98.75-56.98Z"/><g id="city-logo"><path class="cls-3" d="M443.5,275.57c0-36.75,30.81-66.27,68.49-66.27"/><path class="cls-3" d="M580.3,275.57c0-36.75-31-66.27-69.24-66.27"/><rect class="cls-22" x="442.2" y="271.3" width="139.4" height="8.72"/><rect class="cls-22" x="449.44" y="263.14" width="4.27" height="8.17"/><rect class="cls-22" x="451.67" y="256.64" width="2.04" height="6.68"/><rect class="cls-22" x="457.98" y="262.21" width="7.61" height="9.28"/><rect class="cls-22" x="457.98" y="251.63" width="3.71" height="10.58"/><rect class="cls-22" x="468" y="259.79" width="3.16" height="11.32"/><rect class="cls-22" x="471.16" y="237.15" width="3.53" height="34.15"/><rect class="cls-22" x="473.02" y="233.44" width="1.86" height="3.53"/><rect class="cls-22" x="474.87" y="263.14" width="5.94" height="8.17"/><rect class="cls-22" x="479.7" y="259.05" width="1.11" height="4.27"/><rect class="cls-22" x="480.81" y="228.8" width="4.83" height="42.51"/><rect class="cls-22" x="485.64" y="236.41" width="2.41" height="34.71"/><rect class="cls-22" x="488.24" y="248.84" width="5.01" height="22.46"/><rect class="cls-22" x="493.25" y="253.48" width="3.16" height="18"/><rect class="cls-22" x="499.19" y="242.53" width="6.68" height="28.77"/><rect class="cls-22" x="506.06" y="253.85" width="3.34" height="17.45"/><rect class="cls-22" x="509.4" y="221.74" width="8.17" height="49.56"/><rect class="cls-22" x="521.46" y="232.69" width="4.27" height="38.61"/><rect class="cls-22" x="530" y="240.68" width="4.64" height="30.63"/><rect class="cls-22" x="525.36" y="261.09" width="4.64" height="10.21"/><rect class="cls-22" x="534.64" y="265.73" width="3.34" height="5.75"/><rect class="cls-22" x="541.88" y="262.58" width="2.97" height="8.54"/><rect class="cls-22" x="544.85" y="248.84" width="5.2" height="22.46"/><rect class="cls-22" x="549.86" y="238.45" width="3.71" height="32.85"/><rect class="cls-22" x="553.57" y="261.46" width="3.16" height="9.84"/><rect class="cls-22" x="558.58" y="255.52" width="4.08" height="15.78"/><rect class="cls-22" x="562.67" y="253.85" width="4.45" height="17.45"/><rect class="cls-22" x="569.91" y="263.51" width="2.04" height="7.98"/><rect class="cls-22" x="571.95" y="267.4" width="3.71" height="4.08"/></g></g><path d="M251.92,280.93v-13.31h-23.28v-7.48l22.88-29.08h9.13v29.08h5.83v7.48h-5.83v13.31h-8.73Zm-15.32-20.79h15.52v-19.56l-15.52,19.56Z"/></svg>