<?xml version="1.0" encoding="UTF-8"?><svg id="Layer" xmlns="http://www.w3.org/2000/svg" xmlns:xlink="http://www.w3.org/1999/xlink" viewBox="0 0 721 379.91"><defs><style>.cls-1{fill:url(#linear-gradient-2);}.cls-2{fill:#20201e;}.cls-3,.cls-4{fill:#020303;}.cls-5{fill:url(#linear-gradient-6);}.cls-6{fill:url(#linear-gradient-4);opacity:.4;}.cls-6,.cls-4,.cls-7{isolation:isolate;}.cls-8{opacity:0;stroke:#1d1d1b;}.cls-8,.cls-9{fill:#fff;stroke-miterlimit:10;}.cls-4{opacity:.15;}.cls-10{fill:#7e348b;}.cls-11{fill:url(#linear-gradient-5);}.cls-12{fill:none;}.cls-13{fill:url(#linear-gradient-7);}.cls-14{fill:url(#linear-gradient-3);}.cls-7{fill:url(#Nowy_wzorek_9);opacity:.14;}.cls-15{fill:url(#linear-gradient);}.cls-9{stroke:#020303;stroke-width:.93px;}.cls-16{fill:#010101;}</style><linearGradient id="linear-gradient" x1="511.43" y1="-207.04" x2="224.58" y2="79.81" gradientTransform="translate(0 127.45) scale(1 -1)" gradientUnits="userSpaceOnUse"><stop offset="0" stop-color="#9f9d9c"/><stop offset=".54" stop-color="#020303"/><stop offset="1" stop-color="#9f9d9c"/></linearGradient><linearGradient id="linear-gradient-2" x1="368.08" y1="-214.7" x2="368.08" y2="87.45" gradientTransform="translate(0 127.45) scale(1 -1)" gradientUnits="userSpaceOnUse"><stop offset="0" stop-color="#472d1c"/><stop offset="1" stop-color="#b18047"/></linearGradient><linearGradient id="linear-gradient-3" x1="368.02" y1="-210.5" x2="368.02" y2="83.4" gradientTransform="translate(0 127.45) scale(1 -1)" gradientUnits="userSpaceOnUse"><stop offset="0" stop-color="#946137"/><stop offset="1" stop-color="#815228"/></linearGradient><pattern id="Nowy_wzorek_9" x="0" y="0" width="56.69" height="62.45" patternTransform="translate(0 -15630.4) scale(1 -1)" patternUnits="userSpaceOnUse" viewBox="0 0 56.69 62.45"><g><rect class="cls-12" width="56.69" height="62.45"/><g><rect class="cls-12" width="56.69" height="62.45"/><g><rect class="cls-12" width="56.69" height="62.45"/><g><rect class="cls-12" width="56.69" height="62.45"/><g><rect class="cls-12" width="56.69" height="62.45"/><path class="cls-2" d="M47.77,37.41c6.04-6.04,6.04-16.12,0-22.16l-3.45-3.45c-6.04-6.04-16.12-6.04-22.45,0l-12.95,13.24c-6.04,6.04-6.04,16.12,0,22.16l3.45,3.45c6.04,6.04,16.12,6.04,22.16,0l13.24-13.24Z"/></g></g></g></g></g></pattern><linearGradient id="linear-gradient-4" x1="407.95" y1="-50.12" x2="407.95" y2="90.18" gradientTransform="translate(0 143.45) scale(1 -1)" gradientUnits="userSpaceOnUse"><stop offset="0" stop-color="#ffdc15"/><stop offset="0" stop-color="#ffdb16"/><stop offset=".05" stop-color="#f9bb24"/><stop offset=".1" stop-color="#f59d1e"/><stop offset=".16" stop-color="#ef7c1e"/><stop offset=".22" stop-color="#e86312"/><stop offset=".27" stop-color="#e94c21"/><stop offset=".34" stop-color="#e63b23"/><stop offset=".41" stop-color="#e63624"/><stop offset=".5" stop-color="#e63324"/><stop offset=".59" stop-color="#e63624"/><stop offset=".66" stop-color="#e63b23"/><stop offset=".73" stop-color="#e94c21"/><stop offset=".78" stop-color="#e86312"/><stop offset=".84" stop-color="#ef7c1e"/><stop offset=".9" stop-color="#f59d1e"/><stop offset=".95" stop-color="#f9bb24"/><stop offset="1" stop-color="#ffdb16"/><stop offset="1" stop-color="#ffdc15"/></linearGradient><linearGradient id="linear-gradient-5" x1="407.98" y1="-44.95" x2="407.98" y2="85.02" xlink:href="#linear-gradient-4"/><linearGradient id="linear-gradient-6" x1="-455.24" y1="-685.47" x2="-377.81" y2="-608.04" gradientTransform="translate(245.16 -628.42) rotate(-45) scale(1 -1)" gradientUnits="userSpaceOnUse"><stop offset="0" stop-color="#1d1327"/><stop offset=".24" stop-color="#372348"/><stop offset=".49" stop-color="#573a6c"/><stop offset=".71" stop-color="#714f8b"/><stop offset=".89" stop-color="#825c9f"/><stop offset="1" stop-color="#8862a6"/></linearGradient><linearGradient id="linear-gradient-7" x1="-550.6" y1="-780.83" x2="-473.17" y2="-703.4" xlink:href="#linear-gradient-6"/></defs><rect class="cls-8" x=".5" y=".5" width="720" height="378.91"/><g id="prodBg"><rect id="external-border" class="cls-15" x="236.85" y="35.38" width="262.31" height="311.39"/><rect id="internal-border" class="cls-1" x="241.48" y="40.01" width="253.2" height="302.15"/><rect id="bg" class="cls-14" x="245.53" y="44.06" width="244.97" height="293.9"/><rect id="bgPattern" class="cls-7" x="245.53" y="44.06" width="244.97" height="293.9"/></g><path class="cls-16" d="M283.07,130.08v-13.64h32.74v13.64h-32.74Z"/><path class="cls-16" d="M292.34,287.3v-24.34h-24.34v-9.99h24.34v-24.34h9.99v24.34h24.34v9.99h-24.34v24.34h-9.99Z"/><g id="energy"><rect class="cls-6" x="337.8" y="53.28" width="140.3" height="140.3"/><rect class="cls-11" x="342.99" y="58.44" width="129.97" height="129.97"/><rect class="cls-3" x="349.84" y="65.32" width="116.22" height="116.22"/><rect class="cls-5" x="353.2" y="68.67" width="109.51" height="109.51"/><polygon class="cls-10" points="457.39 73.98 457.39 172.87 358.51 172.87 358.51 73.98 457.39 73.98"/><polygon class="cls-9" points="395.88 112.1 428.5 91.88 411.07 117.14 420.3 132.14 388.24 152.37 404.36 127.2 395.88 112.1"/><path id="darker" class="cls-4" d="M462.71,178.18h-109.51v-60.02s34.48,5.31,54.71,5.31,54.8-5.31,54.8-5.31v60.02Z"/></g><g id="energy-2"><rect class="cls-3" x="349.84" y="200.18" width="116.22" height="116.22"/><rect class="cls-13" x="353.2" y="203.53" width="109.51" height="109.51"/><polygon class="cls-10" points="457.39 208.84 457.39 307.73 358.51 307.73 358.51 208.84 457.39 208.84"/><polygon class="cls-9" points="395.88 246.96 428.5 226.74 411.07 252 420.3 267 388.24 287.23 404.36 262.06 395.88 246.96"/><path id="darker-2" class="cls-4" d="M462.71,313.04h-109.51v-60.02s34.48,5.31,54.71,5.31,54.8-5.31,54.8-5.31v60.02Z"/></g></svg>