<?xml version="1.0" encoding="UTF-8"?><svg id="Layer" xmlns="http://www.w3.org/2000/svg" xmlns:xlink="http://www.w3.org/1999/xlink" viewBox="0 0 721 379.91"><defs><style>.cls-1{fill:#342218;}.cls-2,.cls-3,.cls-4,.cls-5,.cls-6,.cls-7,.cls-8{stroke-miterlimit:10;}.cls-2,.cls-3,.cls-5{stroke-width:3.7px;}.cls-2,.cls-7{stroke:#20201e;}.cls-2,.cls-7,.cls-8{fill:none;}.cls-9,.cls-10{fill:#030404;}.cls-11{fill:#cf1820;}.cls-12{fill:#946137;}.cls-10{opacity:.15;}.cls-10,.cls-13{isolation:isolate;}.cls-3{stroke:url(#linear-gradient-2);}.cls-3,.cls-5{fill:#e2181e;}.cls-4{stroke:#030404;stroke-width:.94px;}.cls-4,.cls-6{fill:#fff;}.cls-5{stroke:url(#linear-gradient);}.cls-6{opacity:0;stroke:#1d1d1b;}.cls-14{fill:url(#radial-gradient);}.cls-7{stroke-width:1.16px;}.cls-15{fill:url(#linear-gradient-5);}.cls-13{fill:#e03f19;opacity:.5;}.cls-16{fill:#80368c;}.cls-17{fill:url(#linear-gradient-3);}.cls-8{stroke:#030304;stroke-width:1.89px;}.cls-18{fill:url(#linear-gradient-4);}</style><radialGradient id="radial-gradient" cx="635.41" cy="171.44" fx="635.41" fy="171.44" r="74.81" gradientTransform="translate(0 364.63) scale(1 -1)" gradientUnits="userSpaceOnUse"><stop offset="0" stop-color="#f6ee87"/><stop offset=".78" stop-color="#f6ee87"/><stop offset=".91" stop-color="#f6ee87"/><stop offset=".91" stop-color="#f7ee88"/><stop offset=".94" stop-color="#faf4b7"/><stop offset=".96" stop-color="#fdfade"/><stop offset=".97" stop-color="#fefcf2"/><stop offset=".99" stop-color="#fff"/><stop offset="1" stop-color="#fff"/></radialGradient><linearGradient id="linear-gradient" x1="641.42" y1="141" x2="598.86" y2="183.56" gradientTransform="translate(0 364.63) scale(1 -1)" gradientUnits="userSpaceOnUse"><stop offset="0" stop-color="#5e1613"/><stop offset=".1" stop-color="#611912"/><stop offset=".26" stop-color="#732c23"/><stop offset=".48" stop-color="#924e45"/><stop offset=".73" stop-color="#bf8981"/><stop offset="1" stop-color="#fbdede"/></linearGradient><linearGradient id="linear-gradient-2" x1="671.63" y1="161.39" x2="629.08" y2="203.95" xlink:href="#linear-gradient"/><linearGradient id="linear-gradient-3" x1="-588.74" y1="-1017.2" x2="-510.54" y2="-939" gradientTransform="translate(139.3 -886.74) rotate(-45) scale(1 -1)" gradientUnits="userSpaceOnUse"><stop offset="0" stop-color="#472d1c"/><stop offset=".05" stop-color="#58361a"/><stop offset=".1" stop-color="#684016"/><stop offset=".32" stop-color="#784a20"/><stop offset=".75" stop-color="#8e5c33"/><stop offset="1" stop-color="#946137"/></linearGradient><linearGradient id="linear-gradient-4" x1="287.4" y1="454.06" x2="287.4" y2="410.59" gradientTransform="translate(0 -238.94)" gradientUnits="userSpaceOnUse"><stop offset="0" stop-color="#522b16"/><stop offset=".45" stop-color="#522b16" stop-opacity=".7"/><stop offset=".58" stop-color="#e03f19" stop-opacity=".5"/><stop offset="1" stop-color="#e03f19" stop-opacity=".5"/></linearGradient><linearGradient id="linear-gradient-5" x1="-805.2" y1="1421.01" x2="-727.01" y2="1342.81" gradientTransform="translate(-299.52 -1325.56) rotate(-45)" gradientUnits="userSpaceOnUse"><stop offset="0" stop-color="#1d1527"/><stop offset=".24" stop-color="#372348"/><stop offset=".49" stop-color="#583c6c"/><stop offset=".71" stop-color="#73518d"/><stop offset=".89" stop-color="#835ca1"/><stop offset="1" stop-color="#8964a8"/></linearGradient></defs><rect class="cls-6" x=".5" y=".5" width="720" height="378.91"/><g id="oxIcon"><path class="cls-14" d="M710.23,193.19c0,41.22-33.48,74.81-74.81,74.81s-74.81-33.59-74.81-74.81,33.48-74.81,74.81-74.81c41.22,.11,74.81,33.48,74.81,74.81h0Z"/><path class="cls-2" d="M710.01,193.19c0,41.22-33.48,74.81-74.81,74.81s-74.6-33.59-74.6-74.81,33.48-74.81,74.81-74.81,74.6,33.59,74.6,74.81h0Z"/><path class="cls-7" d="M701.5,193.19c0,36.53-29.66,66.09-66.09,66.09s-66.09-29.66-66.09-66.09,29.66-65.98,66.09-65.98,66.09,29.45,66.09,65.98Z"/><path class="cls-5" d="M648.39,202.35c0,15.6-12.65,28.25-28.25,28.25s-28.25-12.65-28.25-28.25,12.65-28.25,28.25-28.25,28.25,12.65,28.25,28.25Z"/><path class="cls-3" d="M678.6,181.96c0,15.6-12.65,28.25-28.25,28.25s-28.25-12.65-28.25-28.25,12.65-28.25,28.25-28.25,28.25,12.65,28.25,28.25Z"/></g><g id="steel"><rect class="cls-9" x="383.59" y="134.85" width="117.35" height="117.35"/><rect class="cls-17" x="386.97" y="138.23" width="110.59" height="110.59"/><rect class="cls-12" x="392.32" y="143.57" width="99.9" height="99.9"/><g><path class="cls-1" d="M452.63,226.56l2.4-46.35-5.67-.65-.87-1.96h-4.36l-.76,2.07-6.54-.33v-12h7.63l.55,2.4,3.6,.44,.87-2.73h7.85l1.53,1.31,1.31-1.31h9.71l1.09,1.85,1.64-1.85,7.31,6-.44,4.14s-4.04-3.82-6-3.82-4.8-.11-4.8-.11l-4.04,6.54-2.4,.22,2.29,46.24-11.89-.11h0Z"/><polygon class="cls-1" points="430.71 165.27 422.85 160.91 422.75 171.71 415.55 171.71 415.55 160.91 406.6 165.06 406.6 178.25 414.89 182.29 412.06 226.56 425.47 226.56 422.85 182.29 430.71 178.69 430.71 165.27"/></g><path id="darker" class="cls-10" d="M497.56,248.81h-110.59v-60.53s34.79,5.34,55.29,5.34,55.4-5.34,55.4-5.34v60.53h-.11Z"/></g><g id="arrow"><path class="cls-13" d="M348.04,193.3l-57.8-26.72,6.98,13.85h-65.11s-1.96,6.22-1.96,12.32,1.96,10.91,1.96,10.91h66.42l-8.18,16.36,57.69-26.72h0Z"/><path class="cls-18" d="M302.23,201.37h-68.49c-.55-1.74-1.31-5.02-1.31-8.62,0-3.82,.87-7.74,1.42-9.92h67.18l-5.67-11.23,47,21.7-47,21.81,6.87-13.74h0Z"/><path class="cls-11" d="M307.36,198.21h-71.11c-.33-1.53-.55-3.38-.55-5.45,0-2.4,.44-4.8,.76-6.76h69.69l-3.93-7.85,32.72,15.16-32.83,15.16,5.23-10.25h0Z"/><path class="cls-8" d="M302.23,201.37h-68.49c-.55-1.74-1.31-5.02-1.31-8.62,0-3.82,.87-7.74,1.42-9.92h67.18l-5.67-11.23,47,21.7-47,21.81,6.87-13.74h0Z"/></g><g id="energy"><rect class="cls-9" x="77.14" y="134.63" width="117.35" height="117.35"/><rect class="cls-15" x="80.63" y="138.01" width="110.59" height="110.59"/><polygon class="cls-16" points="185.87 143.46 185.87 243.25 85.97 243.25 85.97 143.46 185.87 143.46"/><polygon class="cls-4" points="123.7 181.96 156.64 161.46 138.97 186.98 148.35 202.14 115.96 222.53 132.21 197.12 123.7 181.96"/><path id="darker-2" class="cls-10" d="M191.21,248.7H80.52v-60.64s34.79,5.34,55.29,5.34,55.4-5.34,55.4-5.34v60.64Z"/></g><path d="M38.53,223.62v-16.69H9.3v-9.38l28.68-36.53h11.45v36.53h7.31v9.38h-7.31v16.69h-10.91Zm-19.3-26.07h19.52v-24.54l-19.52,24.54Z"/></svg>