<?xml version="1.0" encoding="UTF-8"?><svg id="Layer" xmlns="http://www.w3.org/2000/svg" xmlns:xlink="http://www.w3.org/1999/xlink" viewBox="0 0 721 379.91"><defs><style>.cls-1{fill:url(#linear-gradient-2);}.cls-2,.cls-3{fill:#020303;}.cls-4{fill:url(#linear-gradient-6);}.cls-5{fill:#1f1f1e;}.cls-6{opacity:0;stroke:#1d1d1b;}.cls-6,.cls-7{fill:#fff;}.cls-6,.cls-7,.cls-8{stroke-miterlimit:10;}.cls-9{opacity:.15;}.cls-9,.cls-10,.cls-3{isolation:isolate;}.cls-9,.cls-11{fill:#030304;}.cls-10{fill:url(#Nowy_wzorek_4);opacity:.1;}.cls-3{opacity:.64;}.cls-12{fill:url(#linear-gradient-5);}.cls-13{fill:#50504f;}.cls-14,.cls-8{fill:none;}.cls-15{fill:#7f358b;}.cls-16{fill:url(#linear-gradient-3);}.cls-17{fill:url(#linear-gradient);}.cls-7{stroke:#030304;stroke-width:.93px;}.cls-18{fill:url(#linear-gradient-4);}.cls-8{stroke:#ffd80c;stroke-width:4.66px;}</style><linearGradient id="linear-gradient" x1="274.89" y1="533.25" x2="98.78" y2="357.13" gradientTransform="translate(0 -252.64)" gradientUnits="userSpaceOnUse"><stop offset="0" stop-color="#9e9d9c"/><stop offset=".54" stop-color="#010202"/><stop offset="1" stop-color="#9e9d9c"/></linearGradient><linearGradient id="linear-gradient-2" x1="186.9" y1="528.07" x2="186.9" y2="362.34" gradientTransform="translate(0 -252.64)" gradientUnits="userSpaceOnUse"><stop offset="0" stop-color="#462c1b"/><stop offset="1" stop-color="#b18048"/></linearGradient><linearGradient id="linear-gradient-3" x1="186.82" y1="523.87" x2="186.82" y2="366.38" gradientTransform="translate(0 -252.64)" gradientUnits="userSpaceOnUse"><stop offset="0" stop-color="#946137"/><stop offset="1" stop-color="#805127"/></linearGradient><pattern id="Nowy_wzorek_4" x="0" y="0" width="19.7" height="21.7" patternTransform="translate(43.9 16649.47)" patternUnits="userSpaceOnUse" viewBox="0 0 19.7 21.7"><g><rect class="cls-14" width="19.7" height="21.7"/><g><rect class="cls-14" width="19.7" height="21.7"/><g><rect class="cls-14" width="19.7" height="21.7"/><g><rect class="cls-14" width="19.7" height="21.7"/><g><rect class="cls-14" width="19.7" height="21.7"/><path class="cls-5" d="M16.6,8.7c2.1,2.1,2.1,5.6,0,7.7l-1.2,1.2c-2.1,2.1-5.6,2.1-7.8,0L3.1,13c-2.1-2.1-2.1-5.6,0-7.7l1.2-1.2c2.1-2.1,5.6-2.1,7.7,0l4.6,4.6Z"/></g></g></g></g></g></pattern><linearGradient id="linear-gradient-4" x1="-659.45" y1="1194.68" x2="-582.13" y2="1117.33" gradientTransform="translate(-191.13 -1064.43) rotate(-45)" gradientUnits="userSpaceOnUse"><stop offset="0" stop-color="#1d1427"/><stop offset=".24" stop-color="#372348"/><stop offset=".49" stop-color="#573b6c"/><stop offset=".71" stop-color="#72508c"/><stop offset=".89" stop-color="#835ca0"/><stop offset="1" stop-color="#8963a7"/></linearGradient><linearGradient id="linear-gradient-5" x1="-490.19" y1="-748.3" x2="-412.75" y2="-670.87" gradientTransform="translate(245.16 -628.42) rotate(-45) scale(1 -1)" gradientUnits="userSpaceOnUse"><stop offset="0" stop-color="#020303"/><stop offset="1" stop-color="#797879"/></linearGradient><linearGradient id="linear-gradient-6" x1="-394.73" y1="-843.76" x2="-317.29" y2="-766.33" xlink:href="#linear-gradient-5"/></defs><rect class="cls-6" x=".5" y=".5" width="720" height="378.91"/><g id="prodBg"><rect id="external-border" class="cls-17" x="98.19" y="105.08" width="177.28" height="174.95"/><rect id="internal-border" class="cls-1" x="102.79" y="109.7" width="168.22" height="165.73"/><rect id="bg" class="cls-16" x="106.83" y="113.74" width="159.98" height="157.49"/><rect id="bgPattern" class="cls-10" x="106.83" y="113.74" width="159.98" height="157.49"/></g><g id="energy"><rect class="cls-11" x="129.31" y="133.94" width="116.03" height="116.03"/><rect class="cls-18" x="132.65" y="137.28" width="109.35" height="109.35"/><polygon class="cls-15" points="236.7 142.57 236.7 241.33 137.95 241.33 137.95 142.57 236.7 142.57"/><polygon class="cls-7" points="175.27 180.65 207.84 160.46 190.44 185.67 199.66 200.66 167.64 220.86 183.73 195.72 175.27 180.65"/><path id="darker" class="cls-9" d="M242,246.62h-109.35v-59.92s34.43,5.3,54.62,5.3,54.72-5.3,54.72-5.3v59.92Z"/></g><g id="titan"><rect class="cls-2" x="369.56" y="134.46" width="116.22" height="116.22"/><rect class="cls-12" x="372.91" y="137.81" width="109.51" height="109.51"/><rect class="cls-13" x="378.22" y="143.12" width="98.89" height="98.89"/><path id="darker-2" class="cls-3" d="M482.42,247.32h-109.51v-60.02s34.48,5.31,54.71,5.31,54.8-5.31,54.8-5.31v60.02Z"/><polygon class="cls-8" points="428.27 160.27 438.62 181.99 462.48 185.06 444.96 201.56 449.43 225.14 428.27 213.58 407.21 225.14 411.68 201.56 394.16 185.06 418.02 181.99 428.27 160.27"/></g><g id="titan-2"><rect class="cls-2" x="504.56" y="134.46" width="116.22" height="116.22"/><rect class="cls-4" x="507.91" y="137.81" width="109.51" height="109.51"/><rect class="cls-13" x="513.22" y="143.12" width="98.89" height="98.89"/><path id="darker-3" class="cls-3" d="M617.42,247.32h-109.51v-60.02s34.48,5.31,54.71,5.31,54.8-5.31,54.8-5.31v60.02Z"/><polygon class="cls-8" points="563.27 160.27 573.62 181.99 597.48 185.06 579.96 201.56 584.43 225.14 563.27 213.58 542.21 225.14 546.68 201.56 529.16 185.06 553.02 181.99 563.27 160.27"/></g></svg>