<?xml version="1.0" encoding="UTF-8"?><svg id="Layer" xmlns="http://www.w3.org/2000/svg" xmlns:xlink="http://www.w3.org/1999/xlink" viewBox="0 0 721 379.91"><defs><style>.cls-1{fill:url(#linear-gradient-2);}.cls-2{fill:url(#linear-gradient-6);}.cls-3{fill:#1f1f1e;}.cls-4{opacity:0;stroke:#1d1d1b;}.cls-4,.cls-5{fill:#fff;stroke-miterlimit:10;}.cls-6{opacity:.15;}.cls-6,.cls-7{isolation:isolate;}.cls-6,.cls-8{fill:#030304;}.cls-7{fill:url(#Nowy_wzorek_4);opacity:.1;}.cls-5{stroke:#030304;stroke-width:.93px;}.cls-9{fill:url(#linear-gradient-5);}.cls-10{fill:none;}.cls-11{fill:#7f358b;}.cls-12{fill:url(#linear-gradient-3);}.cls-13{fill:url(#linear-gradient);}.cls-14{fill:url(#linear-gradient-4);}</style><linearGradient id="linear-gradient" x1="514.19" y1="599.83" x2="205.88" y2="291.52" gradientTransform="translate(0 -252.64)" gradientUnits="userSpaceOnUse"><stop offset="0" stop-color="#9e9d9c"/><stop offset=".54" stop-color="#010202"/><stop offset="1" stop-color="#9e9d9c"/></linearGradient><linearGradient id="linear-gradient-2" x1="360.11" y1="528.93" x2="360.11" y2="362.44" gradientTransform="translate(0 -252.64)" gradientUnits="userSpaceOnUse"><stop offset="0" stop-color="#462c1b"/><stop offset="1" stop-color="#b18048"/></linearGradient><linearGradient id="linear-gradient-3" x1="360.03" y1="524.72" x2="360.03" y2="366.51" gradientTransform="translate(0 -252.64)" gradientUnits="userSpaceOnUse"><stop offset="0" stop-color="#946137"/><stop offset="1" stop-color="#805127"/></linearGradient><pattern id="Nowy_wzorek_4" x="0" y="0" width="19.7" height="21.7" patternTransform="translate(43.9 16649.47)" patternUnits="userSpaceOnUse" viewBox="0 0 19.7 21.7"><g><rect class="cls-10" width="19.7" height="21.7"/><g><rect class="cls-10" width="19.7" height="21.7"/><g><rect class="cls-10" width="19.7" height="21.7"/><g><rect class="cls-10" width="19.7" height="21.7"/><g><rect class="cls-10" width="19.7" height="21.7"/><path class="cls-3" d="M16.6,8.7c2.1,2.1,2.1,5.6,0,7.7l-1.2,1.2c-2.1,2.1-5.6,2.1-7.8,0L3.1,13c-2.1-2.1-2.1-5.6,0-7.7l1.2-1.2c2.1-2.1,5.6-2.1,7.7,0l4.6,4.6Z"/></g></g></g></g></g></pattern><linearGradient id="linear-gradient-4" x1="-444.6" y1="1410.57" x2="-366.92" y2="1332.87" gradientTransform="translate(-191.13 -1064.43) rotate(-45)" gradientUnits="userSpaceOnUse"><stop offset="0" stop-color="#1d1427"/><stop offset=".24" stop-color="#372348"/><stop offset=".49" stop-color="#573b6c"/><stop offset=".71" stop-color="#72508c"/><stop offset=".89" stop-color="#835ca0"/><stop offset="1" stop-color="#8963a7"/></linearGradient><linearGradient id="linear-gradient-5" x1="-537.37" y1="1317.8" x2="-459.69" y2="1240.1" xlink:href="#linear-gradient-4"/><linearGradient id="linear-gradient-6" x1="-630.13" y1="1225.03" x2="-552.46" y2="1147.33" xlink:href="#linear-gradient-4"/></defs><rect class="cls-4" x=".5" y=".5" width="720" height="378.91"/><g id="prodBg"><rect id="external-border" class="cls-13" x="139.6" y="105.17" width="440.86" height="175.75"/><rect id="internal-border" class="cls-1" x="144.25" y="109.81" width="431.73" height="166.49"/><rect id="bg" class="cls-12" x="148.31" y="113.87" width="423.45" height="158.21"/><rect id="bgPattern" class="cls-7" x="148.31" y="113.87" width="423.45" height="158.21"/></g><g id="energy"><rect class="cls-8" x="433.63" y="134.15" width="116.56" height="116.56"/><rect class="cls-14" x="436.98" y="137.51" width="109.85" height="109.85"/><polygon class="cls-11" points="541.51 142.83 541.51 242.03 442.31 242.03 442.31 142.83 541.51 142.83"/><polygon class="cls-5" points="479.8 181.08 512.52 160.8 495.04 186.13 504.3 201.19 472.13 221.47 488.3 196.22 479.8 181.08"/><path id="darker" class="cls-6" d="M546.83,247.36h-109.85v-60.2s34.59,5.32,54.87,5.32,54.97-5.32,54.97-5.32v60.2Z"/></g><g id="energy-2"><rect class="cls-8" x="302.43" y="134.15" width="116.56" height="116.56"/><rect class="cls-9" x="305.79" y="137.51" width="109.85" height="109.85"/><polygon class="cls-11" points="410.32 142.83 410.32 242.03 311.11 242.03 311.11 142.83 410.32 142.83"/><polygon class="cls-5" points="348.6 181.08 381.33 160.8 363.84 186.13 373.1 201.19 340.93 221.47 357.11 196.22 348.6 181.08"/><path id="darker-2" class="cls-6" d="M415.64,247.36h-109.85v-60.2s34.59,5.32,54.87,5.32,54.97-5.32,54.97-5.32v60.2Z"/></g><g id="energy-3"><rect class="cls-8" x="171.24" y="134.15" width="116.56" height="116.56"/><rect class="cls-2" x="174.6" y="137.51" width="109.85" height="109.85"/><polygon class="cls-11" points="279.12 142.83 279.12 242.03 179.92 242.03 179.92 142.83 279.12 142.83"/><polygon class="cls-5" points="217.41 181.08 250.13 160.8 232.65 186.13 241.91 201.19 209.74 221.47 225.91 196.22 217.41 181.08"/><path id="darker-3" class="cls-6" d="M284.45,247.36h-109.85v-60.2s34.59,5.32,54.87,5.32,54.97-5.32,54.97-5.32v60.2Z"/></g></svg>