<?xml version="1.0" encoding="UTF-8"?><svg id="Layer" xmlns="http://www.w3.org/2000/svg" xmlns:xlink="http://www.w3.org/1999/xlink" viewBox="0 0 721 379.91"><defs><style>.cls-1{fill:url(#linear-gradient-2);}.cls-2,.cls-3,.cls-4{fill:#fff;}.cls-3{stroke-width:.93px;}.cls-3,.cls-5,.cls-4,.cls-6{stroke-miterlimit:10;}.cls-3,.cls-6{stroke:#030304;}.cls-5{stroke:#242424;stroke-width:1.62px;}.cls-5,.cls-7{fill:none;}.cls-8{fill:url(#linear-gradient-6);}.cls-9{fill:#1f1f1e;}.cls-4{opacity:0;stroke:#1d1d1b;}.cls-10{fill:url(#linear-gradient-10);}.cls-11{opacity:.15;}.cls-11,.cls-12,.cls-13{isolation:isolate;}.cls-11,.cls-14{fill:#030304;}.cls-6{fill:#010202;stroke-width:1.91px;}.cls-15{fill:#242424;}.cls-12{opacity:.19;}.cls-12,.cls-16{fill:#010101;}.cls-17{fill:url(#linear-gradient-5);}.cls-13{fill:url(#Nowy_wzorek_2);opacity:.14;}.cls-18{fill:url(#linear-gradient-7);}.cls-19{fill:url(#linear-gradient-9);}.cls-20{fill:#7f358b;}.cls-21{fill:url(#linear-gradient-3);}.cls-22{fill:url(#linear-gradient);}.cls-23{fill:url(#linear-gradient-4);}.cls-24{fill:url(#linear-gradient-8);}</style><linearGradient id="linear-gradient" x1="416.24" y1="617.77" x2="65.89" y2="267.42" gradientTransform="translate(0 -252.64)" gradientUnits="userSpaceOnUse"><stop offset="0" stop-color="#9e9d9c"/><stop offset=".54" stop-color="#010202"/><stop offset="1" stop-color="#9e9d9c"/></linearGradient><linearGradient id="linear-gradient-2" x1="241.14" y1="593.68" x2="241.14" y2="291.53" gradientTransform="translate(0 -252.64)" gradientUnits="userSpaceOnUse"><stop offset="0" stop-color="#462c1b"/><stop offset="1" stop-color="#b18048"/></linearGradient><linearGradient id="linear-gradient-3" x1="241.08" y1="589.48" x2="241.08" y2="295.58" gradientTransform="translate(0 -252.64)" gradientUnits="userSpaceOnUse"><stop offset="0" stop-color="#946137"/><stop offset="1" stop-color="#805127"/></linearGradient><pattern id="Nowy_wzorek_2" x="0" y="0" width="56.69" height="62.45" patternTransform="translate(.5 .5)" patternUnits="userSpaceOnUse" viewBox="0 0 56.69 62.45"><g><rect class="cls-7" width="56.69" height="62.45"/><g><rect class="cls-7" x="0" y="0" width="56.69" height="62.45"/><g><rect class="cls-7" x="0" y="0" width="56.69" height="62.45"/><g><rect class="cls-7" x="0" y="0" width="56.69" height="62.45"/><path class="cls-9" d="M47.77,25.04c6.04,6.04,6.04,16.12,0,22.16l-3.45,3.45c-6.04,6.04-16.12,6.04-22.45,0l-12.95-13.24c-6.04-6.04-6.04-16.12,0-22.16l3.45-3.45c6.04-6.04,16.12-6.04,22.16,0l13.24,13.24Z"/></g></g></g></g></pattern><linearGradient id="linear-gradient-4" x1="278.02" y1="566.1" x2="278.02" y2="456.47" gradientTransform="translate(0 -253.65)" gradientUnits="userSpaceOnUse"><stop offset=".16" stop-color="#823a13"/><stop offset=".18" stop-color="#985c1a"/><stop offset=".22" stop-color="#ae7d22"/><stop offset=".26" stop-color="#c39d26"/><stop offset=".3" stop-color="#d6b92e"/><stop offset=".35" stop-color="#e4cf36"/><stop offset=".41" stop-color="#efe036"/><stop offset=".48" stop-color="#f6e947"/><stop offset=".58" stop-color="#f8ea4e"/><stop offset=".86" stop-color="#f6ea4d"/><stop offset="1" stop-color="#fcf4f9"/></linearGradient><linearGradient id="linear-gradient-5" x1="278.02" y1="450.66" x2="278.02" y2="618.2" gradientTransform="translate(0 -253.65)" gradientUnits="userSpaceOnUse"><stop offset=".26" stop-color="#f6ea4d"/><stop offset=".86" stop-color="#803813"/></linearGradient><linearGradient id="linear-gradient-6" x1="278.09" y1="564.59" x2="278.09" y2="458.11" gradientTransform="translate(0 -253.65)" gradientUnits="userSpaceOnUse"><stop offset=".16" stop-color="#803813"/><stop offset=".17" stop-color="#8c471e"/><stop offset=".18" stop-color="#a26b3c"/><stop offset=".2" stop-color="#b78954"/><stop offset=".22" stop-color="#c7a468"/><stop offset=".24" stop-color="#d7bb7a"/><stop offset=".26" stop-color="#e2cc88"/><stop offset=".3" stop-color="#ead891"/><stop offset=".34" stop-color="#eede97"/><stop offset=".46" stop-color="#efe097"/><stop offset=".7" stop-color="#803813"/><stop offset=".73" stop-color="#e6d234"/><stop offset=".74" stop-color="#ebd948"/><stop offset=".75" stop-color="#eede6d"/><stop offset=".77" stop-color="#f0e28a"/><stop offset=".79" stop-color="#f8ebaa"/><stop offset=".8" stop-color="#f8edbf"/><stop offset=".83" stop-color="#faf0cf"/><stop offset=".85" stop-color="#fcf2da"/><stop offset=".89" stop-color="#fdf4e1"/><stop offset=".99" stop-color="#fdf5e3"/></linearGradient><linearGradient id="linear-gradient-7" x1="277.98" y1="473.71" x2="277.98" y2="638.05" gradientTransform="translate(0 -253.65)" gradientUnits="userSpaceOnUse"><stop offset=".26" stop-color="#f6ea4d"/><stop offset=".77" stop-color="#803813"/></linearGradient><linearGradient id="linear-gradient-8" x1="-498.07" y1="1257.53" x2="-420.56" y2="1180.05" gradientTransform="translate(-191.13 -1064.43) rotate(-45)" gradientUnits="userSpaceOnUse"><stop offset="0" stop-color="#1d1427"/><stop offset=".24" stop-color="#372348"/><stop offset=".49" stop-color="#573b6c"/><stop offset=".71" stop-color="#72508c"/><stop offset=".89" stop-color="#835ca0"/><stop offset="1" stop-color="#8963a7"/></linearGradient><linearGradient id="linear-gradient-9" x1="-592.38" y1="1163.22" x2="-514.89" y2="1085.72" xlink:href="#linear-gradient-8"/><linearGradient id="linear-gradient-10" x1="580.56" y1="55.24" x2="580.56" y2="276.24" gradientTransform="translate(0 363.09) scale(1 -1)" gradientUnits="userSpaceOnUse"><stop offset="0" stop-color="#434342"/><stop offset="1" stop-color="#fff"/></linearGradient></defs><rect class="cls-4" x=".5" y=".5" width="720" height="378.91"/><g id="prodBg"><rect id="external-border" class="cls-22" x="46.41" y="34.26" width="389.31" height="311.39"/><rect id="internal-border" class="cls-1" x="51.04" y="38.89" width="380.2" height="302.15"/><rect id="bg" class="cls-21" x="55.09" y="42.94" width="371.97" height="293.9"/><rect id="bgPattern" class="cls-13" x="55.09" y="42.94" width="371.97" height="293.9"/></g><g id="mln"><polygon id="obram_czarne" class="cls-6" points="237.45 199.5 219.84 217.12 219.84 298.16 237.45 315.8 318.59 315.8 336.11 298.16 336.11 217.12 318.59 199.5 237.45 199.5"/><polygon id="obram_zolte" class="cls-23" points="239.74 202.83 223.26 219.41 223.26 295.89 239.74 312.45 316.2 312.45 332.79 295.89 332.79 219.41 316.2 202.83 239.74 202.83"/><polygon id="tlo_wew" class="cls-17" points="240.88 204.46 224.79 220.54 224.79 294.74 240.88 310.84 315.17 310.84 331.25 294.74 331.25 220.54 315.17 204.46 240.88 204.46"/><path id="obram_skosne" class="cls-8" d="M323.55,278.18c-2.94,0-5.34-2.39-5.34-5.34v-30.38c0-2.94,2.39-5.34,5.34-5.34h7.63v-16.56l-16.01-16.11h-16.66v7.63c0,2.94-2.39,5.34-5.34,5.34h-30.38c-2.94,0-5.34-2.39-5.34-5.34v-7.63h-16.56l-16.11,16.11v16.66h7.63c2.94,0,5.34,2.39,5.34,5.34v30.38c0,2.94-2.39,5.34-5.34,5.34h-7.63v16.56l16.11,16.11h16.66v-7.63c0-2.94,2.39-5.34,5.34-5.34h30.38c2.94,0,5.34,2.39,5.34,5.34v7.63h16.66l16.11-16.11v-16.66h-7.83Z"/><path id="tlo_zew" class="cls-18" d="M323.25,279.99c-3.62,0-6.57-3.62-6.57-7.25v-30.2c0-3.62,2.94-7.25,6.57-7.25h6.19v-13.51l-15.63-15.53h-13.44v6.19c0,3.62-3.62,6.57-7.25,6.57h-30.2c-3.62,0-7.25-2.94-7.25-6.57v-6.19h-13.62l-15.53,15.53v13.51h6.19c3.62,0,6.57,3.62,6.57,7.25v30.2c0,3.62-2.94,7.25-6.57,7.25h-6.19v13.51l15.53,15.53h13.51v-6.19c0-3.62,3.62-6.57,7.25-6.57h30.1c3.62,0,7.25,2.94,7.25,6.57v6.19h13.51l15.53-15.53v-13.51h-5.96Z"/></g><path class="cls-16" d="M264.71,281.57v-7.12c4.18,1.61,7.68,2.42,10.49,2.42,3.07,0,5.36-.93,6.87-2.77,1.51-1.84,2.27-4.03,2.27-6.52,0-3.17-1.26-5.71-3.75-7.65-2.49-1.94-6.32-2.89-11.45-2.89-1.21,0-2.39,.1-3.6,.3v-24.66h28.21v7.75h-21.04l-.5,10.6c7.65,0,13.31,1.56,17.01,4.71,3.67,3.15,5.51,7.07,5.51,11.78,0,4.38-1.64,8.05-4.88,11.02s-8.08,4.45-14.5,4.45c-1.56,0-2.94-.08-4.2-.23s-3.42-.55-6.49-1.21l.05,.03Z"/><path class="cls-16" d="M87.63,128.96v-13.64h32.74v13.64h-32.74Z"/><g id="energy"><rect class="cls-14" x="287.76" y="64.03" width="116.27" height="116.27"/><rect class="cls-24" x="291.11" y="67.38" width="109.58" height="109.58"/><polygon class="cls-20" points="395.38 72.69 395.38 171.64 296.42 171.64 296.42 72.69 395.38 72.69"/><polygon class="cls-3" points="333.82 110.84 366.46 90.61 349.02 115.87 358.25 130.9 326.17 151.13 342.3 125.94 333.82 110.84"/><path id="darker" class="cls-11" d="M400.69,176.95h-109.58v-60.05s34.5,5.31,54.74,5.31,54.84-5.31,54.84-5.31v60.05h0Z"/></g><path class="cls-16" d="M161.9,286.18v-24.34h-24.34v-9.99h24.34v-24.34h9.99v24.34h24.34v9.99h-24.34v24.34h-9.99Z"/><g id="energy-2"><rect class="cls-14" x="154.38" y="64.03" width="116.27" height="116.27"/><rect class="cls-19" x="157.72" y="67.38" width="109.58" height="109.58"/><polygon class="cls-20" points="261.99 72.69 261.99 171.64 163.03 171.64 163.03 72.69 261.99 72.69"/><polygon class="cls-3" points="200.43 110.84 233.07 90.61 215.63 115.87 224.87 130.9 192.78 151.13 208.91 125.94 200.43 110.84"/><path id="darker-2" class="cls-11" d="M267.3,176.95h-109.58v-60.05s34.5,5.31,54.74,5.31,54.84-5.31,54.84-5.31v60.05Z"/></g><g id="cityCapital"><polygon class="cls-16" points="679.33 254.45 679.33 140.43 580.65 83.51 481.79 140.43 481.79 254.45 580.65 311.54 679.33 254.45"/><polygon class="cls-10" points="676.18 252.6 676.18 142.09 580.65 86.84 484.93 142.09 484.93 252.6 580.65 307.85 676.18 252.6"/><polygon class="cls-2" points="670.09 249.09 670.09 145.79 580.65 94.23 491.39 145.79 491.39 249.09 580.65 300.46 670.09 249.09"/><g id="city-logo"><path class="cls-5" d="M512.28,209.91c0-36.59,30.68-65.97,68.19-65.97"/><path class="cls-5" d="M648.47,209.91c0-36.59-30.86-65.97-68.93-65.97"/><rect class="cls-15" x="510.98" y="205.66" width="138.78" height="8.69"/><rect class="cls-15" x="518.19" y="197.53" width="4.25" height="8.13"/><rect class="cls-15" x="520.41" y="191.06" width="2.03" height="6.65"/><rect class="cls-15" x="526.69" y="196.61" width="7.58" height="9.24"/><rect class="cls-15" x="526.69" y="186.07" width="3.7" height="10.53"/><rect class="cls-15" x="536.67" y="194.2" width="3.14" height="11.27"/><rect class="cls-15" x="539.81" y="171.66" width="3.51" height="34"/><rect class="cls-15" x="541.66" y="167.96" width="1.85" height="3.51"/><rect class="cls-15" x="543.51" y="197.53" width="5.91" height="8.13"/><rect class="cls-15" x="548.31" y="193.46" width="1.11" height="4.25"/><rect class="cls-15" x="549.42" y="163.34" width="4.8" height="42.32"/><rect class="cls-15" x="554.22" y="170.92" width="2.4" height="34.56"/><rect class="cls-15" x="556.81" y="183.3" width="4.99" height="22.36"/><rect class="cls-15" x="561.8" y="187.92" width="3.14" height="17.92"/><rect class="cls-15" x="567.71" y="177.02" width="6.65" height="28.64"/><rect class="cls-15" x="574.55" y="188.29" width="3.33" height="17.37"/><rect class="cls-15" x="577.88" y="156.32" width="8.13" height="49.34"/><rect class="cls-15" x="589.89" y="167.22" width="4.25" height="38.44"/><rect class="cls-15" x="598.39" y="175.17" width="4.62" height="30.49"/><rect class="cls-15" x="593.77" y="195.5" width="4.62" height="10.16"/><rect class="cls-15" x="603.01" y="200.12" width="3.33" height="5.73"/><rect class="cls-15" x="610.21" y="197.35" width="2.96" height="8.5"/><rect class="cls-15" x="613.17" y="183.3" width="5.17" height="22.36"/><rect class="cls-15" x="618.16" y="172.95" width="3.7" height="32.71"/><rect class="cls-15" x="621.86" y="195.87" width="3.14" height="9.79"/><rect class="cls-15" x="626.85" y="189.95" width="4.07" height="15.71"/><rect class="cls-15" x="630.91" y="188.29" width="4.43" height="17.37"/><rect class="cls-15" x="638.12" y="197.9" width="2.03" height="7.95"/><rect class="cls-15" x="640.15" y="201.78" width="3.7" height="4.07"/></g><path class="cls-12" d="M678.77,251.12v-71.14h0q-98.12,14.6-196.43,0h0v71.14l98.12,56.73,98.31-56.73Z"/></g></svg>