<?xml version="1.0" encoding="UTF-8"?><svg id="Layer" xmlns="http://www.w3.org/2000/svg" xmlns:xlink="http://www.w3.org/1999/xlink" viewBox="0 0 721 379.91"><defs><style>.cls-1,.cls-2{fill:#030404;}.cls-2{opacity:.05;}.cls-2,.cls-3,.cls-4,.cls-5,.cls-6{isolation:isolate;}.cls-7{stroke:#ffd80c;stroke-width:4.66px;}.cls-7,.cls-8,.cls-9,.cls-10,.cls-11,.cls-12{stroke-miterlimit:10;}.cls-7,.cls-9{fill:none;}.cls-3{fill:url(#linear-gradient-8);}.cls-3,.cls-4{opacity:.5;}.cls-8{fill:#fff;opacity:0;stroke:#1d1d1b;}.cls-9{stroke:#fff;}.cls-9,.cls-11,.cls-12{stroke-width:3.34px;}.cls-4{fill:url(#linear-gradient-6);}.cls-10{fill:#0d582a;stroke:#1e4523;stroke-width:3.68px;}.cls-5{opacity:.64;}.cls-5,.cls-13{fill:#030304;}.cls-14{fill:#515150;}.cls-15{fill:url(#linear-gradient-3);}.cls-11{fill:url(#linear-gradient-7);}.cls-11,.cls-12{stroke:#030404;}.cls-16{fill:url(#linear-gradient);}.cls-17{fill:#4bad39;}.cls-18{fill:url(#linear-gradient-4);}.cls-12{fill:url(#linear-gradient-5);}.cls-6{fill:url(#linear-gradient-2);opacity:.4;}</style><linearGradient id="linear-gradient" x1="-516.13" y1="985.38" x2="-438.66" y2="907.91" gradientTransform="translate(-22.75 -895.11) rotate(-45)" gradientUnits="userSpaceOnUse"><stop offset="0" stop-color="#030304"/><stop offset="1" stop-color="#7a7879"/></linearGradient><linearGradient id="linear-gradient-2" x1="309.07" y1="-189.22" x2="309.07" y2="-50.71" gradientTransform="translate(0 143.45) scale(1 -1)" gradientUnits="userSpaceOnUse"><stop offset="0" stop-color="#ffdc15"/><stop offset="0" stop-color="#ffdb16"/><stop offset=".05" stop-color="#f9bb24"/><stop offset=".1" stop-color="#f59d1e"/><stop offset=".16" stop-color="#ef7c1e"/><stop offset=".22" stop-color="#e86312"/><stop offset=".27" stop-color="#e94c21"/><stop offset=".34" stop-color="#e63b23"/><stop offset=".41" stop-color="#e63624"/><stop offset=".5" stop-color="#e63324"/><stop offset=".59" stop-color="#e63624"/><stop offset=".66" stop-color="#e63b23"/><stop offset=".73" stop-color="#e94c21"/><stop offset=".78" stop-color="#e86312"/><stop offset=".84" stop-color="#ef7c1e"/><stop offset=".9" stop-color="#f59d1e"/><stop offset=".95" stop-color="#f9bb24"/><stop offset="1" stop-color="#ffdb16"/><stop offset="1" stop-color="#ffdc15"/></linearGradient><linearGradient id="linear-gradient-3" x1="309.09" y1="-184.12" x2="309.09" y2="-55.81" xlink:href="#linear-gradient-2"/><linearGradient id="linear-gradient-4" x1="-622.7" y1="-949.66" x2="-546.12" y2="-873.07" gradientTransform="translate(77.99 -794.09) rotate(-45) scale(1 -1)" gradientUnits="userSpaceOnUse"><stop offset="0" stop-color="#116a37"/><stop offset=".04" stop-color="#156d38"/><stop offset=".08" stop-color="#0a783a"/><stop offset=".13" stop-color="#148837"/><stop offset=".15" stop-color="#0f9039"/><stop offset=".35" stop-color="#38993d"/><stop offset=".76" stop-color="#61b149"/><stop offset="1" stop-color="#70b74b"/></linearGradient><linearGradient id="linear-gradient-5" x1="448.04" y1="6.51" x2="448.04" y2="241.8" gradientTransform="translate(0 312.27) scale(1 -1)" gradientUnits="userSpaceOnUse"><stop offset=".08" stop-color="#4ac0ef"/><stop offset=".15" stop-color="#54a5d6"/><stop offset=".23" stop-color="#5e86b5"/><stop offset=".3" stop-color="#636b9d"/><stop offset=".37" stop-color="#68578d"/><stop offset=".42" stop-color="#6a4a82"/><stop offset=".46" stop-color="#69467f"/><stop offset=".55" stop-color="#943f62"/><stop offset=".67" stop-color="#b7343d"/><stop offset=".75" stop-color="#cd2522"/><stop offset=".79" stop-color="#d41d1e"/></linearGradient><linearGradient id="linear-gradient-6" x1="438.42" y1="48.42" x2="425.74" y2="61.11" gradientTransform="translate(0 312.27) scale(1 -1)" gradientUnits="userSpaceOnUse"><stop offset="0" stop-color="#20201e" stop-opacity="0"/><stop offset="1" stop-color="#fff"/></linearGradient><linearGradient id="linear-gradient-7" x1="558.04" x2="558.04" xlink:href="#linear-gradient-5"/><linearGradient id="linear-gradient-8" x1="548.42" x2="535.74" y2="61.11" xlink:href="#linear-gradient-6"/></defs><rect class="cls-8" x=".5" y=".5" width="720" height="378.91"/><g id="titan"><rect class="cls-13" x="250.93" y="53.71" width="116.27" height="116.27"/><rect class="cls-16" x="254.28" y="57.06" width="109.56" height="109.56"/><rect class="cls-14" x="259.6" y="62.38" width="98.93" height="98.93"/><path id="darker" class="cls-5" d="M363.84,166.62h-109.56v-60.05s34.5,5.31,54.73,5.31,54.83-5.31,54.83-5.31v60.05Z"/><polygon class="cls-7" points="309.67 79.54 320.02 101.26 343.89 104.34 326.36 120.84 330.83 144.43 309.67 132.87 288.6 144.43 293.07 120.84 275.54 104.34 299.41 101.26 309.67 79.54"/></g><g id="plant"><rect class="cls-6" x="239.81" y="194.17" width="138.51" height="138.51"/><rect class="cls-15" x="244.93" y="199.27" width="128.31" height="128.31"/><rect class="cls-1" x="251.72" y="206.14" width="114.91" height="114.91"/><rect class="cls-18" x="255.03" y="209.44" width="108.29" height="108.29"/><rect class="cls-17" x="260.28" y="214.69" width="97.77" height="97.77"/><path id="leaf" class="cls-10" d="M309.12,238.84c-14,1.94-24.7,11.07-24.7,24.7,0,3.31,.65,6.54,1.84,9.5-2.59,1.74-6.37,4.05-8.21,4.7-3.23,1.09-9.67,.37-9.95,.92s1.84,6.37,2.59,6.64,6.64,.27,9.95-.92c2.39-.82,6.72-3.61,9.23-5.45,4.53,5.72,11.52,9.3,19.35,9.3,13.63,0,24.52-8.58,24.52-22.21,0-5.25,1.29-11.89,3.23-16.04,2.11-4.6,13.08-7.56,13.08-7.56-1.09-3.61-35.39-4.33-40.91-3.61h0l-.02,.02h0Z"/><path id="darker-3" class="cls-2" d="M363.32,317.73h-108.29v-59.34s34.1,5.25,54.1,5.25,54.19-5.25,54.19-5.25v59.34Z"/></g><g id="tempIcon"><path class="cls-12" d="M463.64,243.31V86.09c0-8.52-7.1-15.61-15.61-15.61s-15.61,7.1-15.61,15.61V242.95c-10.29,5.68-17.74,16.68-17.74,29.46,0,18.45,14.91,33.36,33.36,33.36s33.36-14.91,33.36-33.36c0-12.78-7.1-23.78-17.74-29.1h-.02Z"/><line class="cls-9" x1="441.28" y1="104.55" x2="455.13" y2="104.55"/><line class="cls-9" x1="441.28" y1="148.2" x2="455.13" y2="148.2"/><line class="cls-9" x1="441.28" y1="187.94" x2="455.13" y2="187.94"/><line class="cls-9" x1="441.28" y1="224.85" x2="455.13" y2="224.85"/><line class="cls-9" x1="441.28" y1="271.7" x2="455.13" y2="271.7"/><path class="cls-4" d="M438.45,263.53c-4.97,5.32-12.07,6.39-15.61,3.19-3.55-3.55-2.13-10.65,2.84-15.61,4.97-4.97,12.07-6.39,15.61-2.84s2.48,10.29-2.84,15.26h0Z"/></g><path d="M128.28,270.41v-13.64h32.74v13.64h-32.74Z"/><path d="M211.17,140.59v-15.43h-26.99v-8.67l26.52-33.71h10.59v33.71h6.76v8.67h-6.76v15.43h-10.12Zm-17.76-24.1h17.99v-22.68l-17.99,22.68Z"/><path d="M211.05,290.23v-15.43h-26.99v-8.67l26.52-33.71h10.59v33.71h6.76v8.67h-6.76v15.43h-10.12Zm-17.76-24.1h17.99v-22.68l-17.99,22.68Z"/><g id="tempIcon-2"><path class="cls-11" d="M573.64,243.31V86.09c0-8.52-7.1-15.61-15.61-15.61s-15.61,7.1-15.61,15.61V242.95c-10.29,5.68-17.74,16.68-17.74,29.46,0,18.45,14.91,33.36,33.36,33.36s33.36-14.91,33.36-33.36c0-12.78-7.1-23.78-17.74-29.1h-.02Z"/><line class="cls-9" x1="551.28" y1="104.55" x2="565.13" y2="104.55"/><line class="cls-9" x1="551.28" y1="148.2" x2="565.13" y2="148.2"/><line class="cls-9" x1="551.28" y1="187.94" x2="565.13" y2="187.94"/><line class="cls-9" x1="551.28" y1="224.85" x2="565.13" y2="224.85"/><line class="cls-9" x1="551.28" y1="271.7" x2="565.13" y2="271.7"/><path class="cls-3" d="M548.45,263.53c-4.97,5.32-12.07,6.39-15.61,3.19-3.55-3.55-2.13-10.65,2.84-15.61,4.97-4.97,12.07-6.39,15.61-2.84s2.48,10.29-2.84,15.26h0Z"/></g></svg>