<?xml version="1.0" encoding="UTF-8"?><svg id="Layer" xmlns="http://www.w3.org/2000/svg" xmlns:xlink="http://www.w3.org/1999/xlink" viewBox="0 0 721 379.91"><defs><style>.cls-1{fill:url(#linear-gradient-2);}.cls-2{fill:#20201e;}.cls-3{fill:url(#linear-gradient-6);}.cls-4{fill:#fff;opacity:0;stroke:#1d1d1b;}.cls-4,.cls-5{stroke-miterlimit:10;}.cls-6{fill:url(#linear-gradient-5);}.cls-7{fill:url(#Nowy_wzorek_7);isolation:isolate;opacity:.1;}.cls-8{fill:none;}.cls-9{fill:url(#linear-gradient-7);}.cls-5{fill:#020303;stroke:#030404;stroke-width:1.87px;}.cls-10{fill:url(#linear-gradient-3);}.cls-11{fill:url(#linear-gradient);}.cls-12{fill:#010202;}.cls-13{fill:url(#linear-gradient-4);}</style><linearGradient id="linear-gradient" x1="446.8" y1="-148.8" x2="274.2" y2="23.8" gradientTransform="translate(0 127.45) scale(1 -1)" gradientUnits="userSpaceOnUse"><stop offset="0" stop-color="#9f9d9c"/><stop offset=".54" stop-color="#020303"/><stop offset="1" stop-color="#9f9d9c"/></linearGradient><linearGradient id="linear-gradient-2" x1="360.56" y1="-143.85" x2="360.56" y2="18.8" gradientTransform="translate(0 127.45) scale(1 -1)" gradientUnits="userSpaceOnUse"><stop offset="0" stop-color="#472d1c"/><stop offset="1" stop-color="#b18047"/></linearGradient><linearGradient id="linear-gradient-3" x1="360.49" y1="-139.72" x2="360.49" y2="14.84" gradientTransform="translate(0 127.45) scale(1 -1)" gradientUnits="userSpaceOnUse"><stop offset="0" stop-color="#946137"/><stop offset="1" stop-color="#815228"/></linearGradient><pattern id="Nowy_wzorek_7" x="0" y="0" width="19.7" height="21.7" patternTransform="translate(43.4 -32285.17) scale(1 -1)" patternUnits="userSpaceOnUse" viewBox="0 0 19.7 21.7"><g><rect class="cls-8" width="19.7" height="21.7"/><g><rect class="cls-8" width="19.7" height="21.7"/><g><rect class="cls-8" width="19.7" height="21.7"/><g><rect class="cls-8" width="19.7" height="21.7"/><g><rect class="cls-8" width="19.7" height="21.7"/><g><rect class="cls-8" width="19.7" height="21.7"/><path class="cls-2" d="M16.6,13c2.1-2.1,2.1-5.6,0-7.7l-1.2-1.2c-2.1-2.1-5.6-2.1-7.8,0L3.1,8.7c-2.1,2.1-2.1,5.6,0,7.7l1.2,1.2c2.1,2.1,5.6,2.1,7.7,0l4.6-4.6Z"/></g></g></g></g></g></g></pattern><linearGradient id="linear-gradient-4" x1="361.53" y1="-117.19" x2="361.53" y2="-9.85" gradientTransform="translate(0 126.44) scale(1 -1)" gradientUnits="userSpaceOnUse"><stop offset=".16" stop-color="#823b14"/><stop offset=".18" stop-color="#995d1a"/><stop offset=".22" stop-color="#ae7d22"/><stop offset=".26" stop-color="#c39d25"/><stop offset=".3" stop-color="#d6b92e"/><stop offset=".35" stop-color="#e4cf36"/><stop offset=".41" stop-color="#efe036"/><stop offset=".48" stop-color="#f5e94d"/><stop offset=".58" stop-color="#f8eb53"/><stop offset=".86" stop-color="#f5ea52"/><stop offset="1" stop-color="#fcf4f9"/></linearGradient><linearGradient id="linear-gradient-5" x1="361.53" y1="-4.13" x2="361.53" y2="-168.2" gradientTransform="translate(0 126.44) scale(1 -1)" gradientUnits="userSpaceOnUse"><stop offset=".26" stop-color="#f5ea52"/><stop offset=".86" stop-color="#813a14"/></linearGradient><linearGradient id="linear-gradient-6" x1="361.58" y1="-115.71" x2="361.58" y2="-11.42" gradientTransform="translate(0 126.44) scale(1 -1)" gradientUnits="userSpaceOnUse"><stop offset=".16" stop-color="#813a14"/><stop offset=".17" stop-color="#8d481f"/><stop offset=".18" stop-color="#a36c3d"/><stop offset=".2" stop-color="#b78954"/><stop offset=".22" stop-color="#c7a468"/><stop offset=".24" stop-color="#d7bb7a"/><stop offset=".26" stop-color="#e2cc88"/><stop offset=".3" stop-color="#ead891"/><stop offset=".34" stop-color="#eede97"/><stop offset=".46" stop-color="#efe097"/><stop offset=".7" stop-color="#813a14"/><stop offset=".73" stop-color="#e6d234"/><stop offset=".74" stop-color="#ebda49"/><stop offset=".75" stop-color="#eede6d"/><stop offset=".77" stop-color="#f0e18a"/><stop offset=".79" stop-color="#f8ebab"/><stop offset=".8" stop-color="#f8edbf"/><stop offset=".83" stop-color="#faf0cf"/><stop offset=".85" stop-color="#fcf2da"/><stop offset=".89" stop-color="#fdf4e1"/><stop offset=".99" stop-color="#fdf5e3"/></linearGradient><linearGradient id="linear-gradient-7" x1="361.51" y1="-26.73" x2="361.51" y2="-187.67" gradientTransform="translate(0 126.44) scale(1 -1)" gradientUnits="userSpaceOnUse"><stop offset=".26" stop-color="#f5ea52"/><stop offset=".77" stop-color="#813a14"/></linearGradient></defs><rect class="cls-4" x=".5" y=".5" width="720" height="378.91"/><g><g id="prodBg"><rect id="external-border" class="cls-11" x="273.74" y="104.11" width="173.52" height="171.69"/><rect id="internal-border" class="cls-1" x="278.27" y="108.65" width="164.59" height="162.65"/><rect id="bg" class="cls-10" x="282.24" y="112.61" width="156.51" height="154.56"/><rect id="bgPattern" class="cls-7" x="282.24" y="112.61" width="156.51" height="154.56"/></g><g id="mln"><polygon id="obram_czarne" class="cls-5" points="321.8 133.01 304.55 150.26 304.55 229.65 321.8 246.9 401.26 246.9 418.42 229.65 418.42 150.26 401.26 133.01 321.8 133.01"/><polygon id="obram_zolte" class="cls-13" points="324.04 136.29 307.9 152.51 307.9 227.41 324.04 243.63 398.94 243.63 415.16 227.41 415.16 152.51 398.94 136.29 324.04 136.29"/><polygon id="tlo_wew" class="cls-6" points="325.15 137.87 309.4 153.64 309.4 226.3 325.15 242.05 397.91 242.05 413.66 226.3 413.66 153.64 397.91 137.87 325.15 137.87"/><path id="obram_skosne" class="cls-3" d="M406.12,210.06c-2.88,0-5.23-2.34-5.23-5.23v-29.75c0-2.88,2.34-5.23,5.23-5.23h7.47v-16.22l-15.68-15.77h-16.32v7.47c0,2.88-2.34,5.23-5.23,5.23h-29.75c-2.88,0-5.23-2.34-5.23-5.23v-7.47h-16.22l-15.77,15.77v16.32h7.47c2.88,0,5.23,2.34,5.23,5.23v29.75c0,2.88-2.34,5.23-5.23,5.23h-7.47v16.22l15.77,15.77h16.32v-7.47c0-2.88,2.34-5.23,5.23-5.23h29.75c2.88,0,5.23,2.34,5.23,5.23v7.47h16.32l15.77-15.77v-16.32h-7.66Z"/><path id="tlo_zew" class="cls-9" d="M405.85,211.83c-3.55,0-6.43-3.55-6.43-7.1v-29.58c0-3.55,2.88-7.1,6.43-7.1h6.06v-13.24l-15.31-15.21h-13.16v6.06c0,3.55-3.55,6.43-7.1,6.43h-29.58c-3.55,0-7.1-2.88-7.1-6.43v-6.06h-13.33l-15.21,15.21v13.24h6.06c3.55,0,6.43,3.55,6.43,7.1v29.58c0,3.55-2.88,7.1-6.43,7.1h-6.06v13.24l15.21,15.21h13.24v-6.06c0-3.55,3.55-6.43,7.1-6.43h29.48c3.55,0,7.1,2.88,7.1,6.43v6.06h13.24l15.21-15.21v-13.24h-5.85Z"/></g><path class="cls-12" d="M359.19,214.31v-42.49h-6.43l-.2-4.81,16.24-1.4v48.7h-9.61Z"/></g></svg>