<?xml version="1.0" encoding="UTF-8"?><svg id="Layer" xmlns="http://www.w3.org/2000/svg" xmlns:xlink="http://www.w3.org/1999/xlink" viewBox="0 0 721 379.91"><defs><style>.cls-1{fill:url(#linear-gradient-2);}.cls-2{fill:url(#linear-gradient-6);}.cls-3{fill:#48ad38;}.cls-4{fill:#1f1f1e;}.cls-5{fill:#fff;opacity:0;stroke:#1d1d1b;}.cls-5,.cls-6,.cls-7{stroke-miterlimit:10;}.cls-8{fill:url(#Nowy_wzorek_3);opacity:.1;}.cls-8,.cls-9{isolation:isolate;}.cls-10{fill:url(#linear-gradient-5);}.cls-11{fill:none;}.cls-12{fill:url(#linear-gradient-7);}.cls-9{opacity:.05;}.cls-9,.cls-13{fill:#030304;}.cls-6{fill:#0b572a;stroke:#1d4422;stroke-width:3.71px;}.cls-14{fill:url(#linear-gradient-3);}.cls-15{fill:url(#linear-gradient);}.cls-7{fill:#010202;stroke:#030304;stroke-width:1.91px;}.cls-16{fill:url(#linear-gradient-4);}.cls-17{fill:#010101;}.cls-18{fill:url(#linear-gradient-8);}</style><linearGradient id="linear-gradient" x1="501.81" y1="33.08" x2="220.5" y2="314.37" gradientTransform="translate(0 364.63) scale(1 -1)" gradientUnits="userSpaceOnUse"><stop offset="0" stop-color="#9e9d9c"/><stop offset=".54" stop-color="#010202"/><stop offset="1" stop-color="#9e9d9c"/></linearGradient><linearGradient id="linear-gradient-2" x1="361.23" y1="23.12" x2="361.23" y2="324.31" gradientTransform="translate(0 364.63) scale(1 -1)" gradientUnits="userSpaceOnUse"><stop offset="0" stop-color="#462c1b"/><stop offset="1" stop-color="#b18048"/></linearGradient><linearGradient id="linear-gradient-3" x1="361.17" y1="27.31" x2="361.17" y2="320.27" gradientTransform="translate(0 364.63) scale(1 -1)" gradientUnits="userSpaceOnUse"><stop offset="0" stop-color="#946137"/><stop offset="1" stop-color="#805127"/></linearGradient><pattern id="Nowy_wzorek_3" x="0" y="0" width="19.7" height="21.7" patternTransform="translate(43.9 -32159.12) scale(1 -1)" patternUnits="userSpaceOnUse" viewBox="0 0 19.7 21.7"><g><rect class="cls-11" width="19.7" height="21.7"/><g><rect class="cls-11" width="19.7" height="21.7"/><g><rect class="cls-11" width="19.7" height="21.7"/><g><rect class="cls-11" width="19.7" height="21.7"/><g><rect class="cls-11" width="19.7" height="21.7"/><g><rect class="cls-11" width="19.7" height="21.7"/><path class="cls-4" d="M16.6,13c2.1-2.1,2.1-5.6,0-7.7l-1.2-1.2c-2.1-2.1-5.6-2.1-7.8,0L3.1,8.7c-2.1,2.1-2.1,5.6,0,7.7l1.2,1.2c2.1,2.1,5.6,2.1,7.7,0l4.6-4.6Z"/></g></g></g></g></g></g></pattern><linearGradient id="linear-gradient-4" x1="399.32" y1="50.86" x2="399.32" y2="160.14" gradientTransform="translate(0 363.62) scale(1 -1)" gradientUnits="userSpaceOnUse"><stop offset=".16" stop-color="#823a13"/><stop offset=".18" stop-color="#985c1a"/><stop offset=".22" stop-color="#ae7d22"/><stop offset=".26" stop-color="#c39d26"/><stop offset=".3" stop-color="#d6b92e"/><stop offset=".35" stop-color="#e4cf36"/><stop offset=".41" stop-color="#efe036"/><stop offset=".48" stop-color="#f6e947"/><stop offset=".58" stop-color="#f8ea4e"/><stop offset=".86" stop-color="#f6ea4d"/><stop offset="1" stop-color="#fcf4f9"/></linearGradient><linearGradient id="linear-gradient-5" x1="399.32" y1="165.96" x2="399.32" y2="-1.07" gradientTransform="translate(0 363.62) scale(1 -1)" gradientUnits="userSpaceOnUse"><stop offset=".26" stop-color="#f6ea4d"/><stop offset=".86" stop-color="#803813"/></linearGradient><linearGradient id="linear-gradient-6" x1="399.37" y1="52.37" x2="399.37" y2="158.51" gradientTransform="translate(0 363.62) scale(1 -1)" gradientUnits="userSpaceOnUse"><stop offset=".16" stop-color="#803813"/><stop offset=".17" stop-color="#8c471e"/><stop offset=".18" stop-color="#a26b3c"/><stop offset=".2" stop-color="#b78954"/><stop offset=".22" stop-color="#c7a468"/><stop offset=".24" stop-color="#d7bb7a"/><stop offset=".26" stop-color="#e2cc88"/><stop offset=".3" stop-color="#ead891"/><stop offset=".34" stop-color="#eede97"/><stop offset=".46" stop-color="#efe097"/><stop offset=".7" stop-color="#803813"/><stop offset=".73" stop-color="#e6d234"/><stop offset=".74" stop-color="#ebd948"/><stop offset=".75" stop-color="#eede6d"/><stop offset=".77" stop-color="#f0e28a"/><stop offset=".79" stop-color="#f8ebaa"/><stop offset=".8" stop-color="#f8edbf"/><stop offset=".83" stop-color="#faf0cf"/><stop offset=".85" stop-color="#fcf2da"/><stop offset=".89" stop-color="#fdf4e1"/><stop offset=".99" stop-color="#fdf5e3"/></linearGradient><linearGradient id="linear-gradient-7" x1="399.3" y1="142.95" x2="399.3" y2="-20.86" gradientTransform="translate(0 363.62) scale(1 -1)" gradientUnits="userSpaceOnUse"><stop offset=".26" stop-color="#f6ea4d"/><stop offset=".77" stop-color="#803813"/></linearGradient><linearGradient id="linear-gradient-8" x1="-461.22" y1="1295.14" x2="-383.98" y2="1217.86" gradientTransform="translate(-190.8 -1064.09) rotate(-45)" gradientUnits="userSpaceOnUse"><stop offset="0" stop-color="#0f6936"/><stop offset=".04" stop-color="#0f6c37"/><stop offset=".08" stop-color="#077739"/><stop offset=".13" stop-color="#108837"/><stop offset=".15" stop-color="#0a9039"/><stop offset=".35" stop-color="#36993d"/><stop offset=".76" stop-color="#5fb048"/><stop offset="1" stop-color="#6fb74b"/></linearGradient></defs><rect class="cls-5" x=".5" y=".5" width="720" height="378.91"/><g id="prodBg"><rect id="external-border" class="cls-15" x="235.05" y="35.71" width="252.22" height="310.39"/><rect id="internal-border" class="cls-1" x="239.66" y="40.32" width="243.14" height="301.19"/><rect id="bg" class="cls-14" x="243.7" y="44.36" width="234.93" height="292.96"/><rect id="bgPattern" class="cls-8" x="243.7" y="44.36" width="234.93" height="292.96"/></g><g id="mln"><polygon id="obram_czarne" class="cls-7" points="358.87 200.17 341.31 217.73 341.31 298.51 358.87 316.07 439.77 316.07 457.23 298.51 457.23 217.73 439.77 200.17 358.87 200.17"/><polygon id="obram_zolte" class="cls-16" points="361.15 203.48 344.75 220.02 344.75 296.25 361.15 312.76 437.39 312.76 453.9 296.25 453.9 220.02 437.39 203.48 361.15 203.48"/><polygon id="tlo_wew" class="cls-10" points="362.31 205.11 346.25 221.14 346.25 295.1 362.31 311.15 436.34 311.15 452.39 295.1 452.39 221.14 436.34 205.11 362.31 205.11"/><path id="obram_skosne" class="cls-2" d="M444.69,278.59c-2.94,0-5.32-2.38-5.32-5.32v-30.28c0-2.94,2.38-5.32,5.32-5.32h7.6v-16.51l-15.95-16.06h-16.61v7.6c0,2.94-2.38,5.32-5.32,5.32h-30.28c-2.94,0-5.32-2.38-5.32-5.32v-7.6h-16.51l-16.06,16.06v16.61h7.6c2.94,0,5.32,2.38,5.32,5.32v30.28c0,2.94-2.38,5.32-5.32,5.32h-7.6v16.51l16.06,16.06h16.61v-7.6c0-2.94,2.38-5.32,5.32-5.32h30.28c2.94,0,5.32,2.38,5.32,5.32v7.6h16.61l16.06-16.06v-16.61h-7.8Z"/><path id="tlo_zew" class="cls-12" d="M444.41,280.4c-3.61,0-6.55-3.61-6.55-7.22v-30.1c0-3.61,2.94-7.22,6.55-7.22h6.17v-13.47l-15.58-15.48h-13.4v6.17c0,3.61-3.61,6.55-7.22,6.55h-30.1c-3.61,0-7.22-2.94-7.22-6.55v-6.17h-13.57l-15.48,15.48v13.47h6.17c3.61,0,6.55,3.61,6.55,7.22v30.1c0,3.61-2.94,7.22-6.55,7.22h-6.17v13.47l15.48,15.48h13.47v-6.17c0-3.61,3.61-6.55,7.22-6.55h30c3.61,0,7.22,2.94,7.22,6.55v6.17h13.47l15.48-15.48v-13.47h-5.95Z"/></g><g id="plant"><rect class="cls-13" x="340.91" y="65.26" width="115.9" height="115.9"/><rect class="cls-18" x="344.25" y="68.6" width="109.23" height="109.23"/><rect class="cls-3" x="349.54" y="73.89" width="98.61" height="98.61"/><path id="leaf" class="cls-6" d="M398.81,98.25c-14.12,1.96-24.91,11.16-24.91,24.91,0,3.34,.65,6.6,1.86,9.58-2.61,1.76-6.42,4.09-8.28,4.74-3.26,1.1-9.76,.38-10.03,.93s1.86,6.42,2.61,6.7,6.7,.28,10.03-.93c2.41-.83,6.77-3.64,9.31-5.49,4.57,5.77,11.61,9.38,19.52,9.38,13.75,0,24.74-8.65,24.74-22.4,0-5.29,1.3-11.99,3.26-16.18,2.13-4.64,13.2-7.63,13.2-7.63-1.1-3.64-35.7-4.37-41.27-3.64h-.03v.03Z"/><path id="darker" class="cls-9" d="M453.47,177.82h-109.23v-59.86s34.39,5.29,54.56,5.29,54.66-5.29,54.66-5.29v59.86Z"/></g><path class="cls-17" d="M403.65,281.83v-13.07h-22.85v-7.35l22.45-28.55h8.96v28.55h5.72v7.35h-5.72v13.07h-8.55Zm-15.03-20.4h15.23v-19.19l-15.23,19.19Z"/><path class="cls-17" d="M287.6,289v-24.26h-24.26v-9.96h24.26v-24.26h9.96v24.26h24.26v9.96h-24.26v24.26h-9.96Z"/><path class="cls-17" d="M277.01,133.04v-13.6h32.64v13.6h-32.64Z"/></svg>