<?xml version="1.0" encoding="utf-8"?>
<!-- Generator: Adobe Illustrator 26.5.0, SVG Export Plug-In . SVG Version: 6.00 Build 0)  -->
<svg version="1.1" id="Layer" xmlns="http://www.w3.org/2000/svg" xmlns:xlink="http://www.w3.org/1999/xlink" x="0px" y="0px"
	 viewBox="0 0 721 379.9" style="enable-background:new 0 0 721 379.9;" xml:space="preserve">
<style type="text/css">
	.st0{opacity:0;fill:#FFFFFF;fill-opacity:0;}
	.st1{opacity:0.4;fill:url(#SVGID_1_);enable-background:new    ;}
	.st2{fill:url(#SVGID_00000110429382503988216100000016435906424217928635_);}
	.st3{fill:#020303;}
	.st4{fill:url(#SVGID_00000109011156234874102190000012743514147762911931_);}
	.st5{fill:#946137;}
	.st6{fill:#332116;}
	.st7{opacity:0.15;fill:#020303;enable-background:new    ;}
	.st8{opacity:0.4;fill:url(#obram_czarne_00000087385168378313409840000013727082089138897850_);enable-background:new    ;}
	.st9{fill:url(#obram_czarne-2_00000092438942910478386850000011237388837157131907_);}
	.st10{fill:#010101;stroke:#020303;stroke-width:1.85;stroke-miterlimit:10;}
	.st11{fill:url(#obram_zolte_00000058563501271548450480000011558996414537988765_);}
	.st12{fill:url(#tlo_wew_00000176760751081155532000000012262833309624413588_);}
	.st13{fill:url(#obram_skosne_00000112623166712647375510000004564032766495221678_);}
	.st14{fill:url(#tlo_zew_00000096034149500579807460000014472937049865002387_);}
	.st15{fill:#010101;}
</style>
<rect x="0.5" y="0.5" class="st0" width="720" height="378.9"/>
<g>
	<g id="steel">
		
			<linearGradient id="SVGID_1_" gradientUnits="userSpaceOnUse" x1="513.98" y1="-22.6485" x2="513.98" y2="111.2315" gradientTransform="matrix(1 0 0 -1 0 146.9716)">
			<stop  offset="0" style="stop-color:#FFDC15"/>
			<stop  offset="0" style="stop-color:#FFDB16"/>
			<stop  offset="5.000000e-02" style="stop-color:#F9BB24"/>
			<stop  offset="0.1" style="stop-color:#F59D1E"/>
			<stop  offset="0.16" style="stop-color:#EF7C1E"/>
			<stop  offset="0.22" style="stop-color:#E86312"/>
			<stop  offset="0.27" style="stop-color:#E94C21"/>
			<stop  offset="0.34" style="stop-color:#E63B23"/>
			<stop  offset="0.41" style="stop-color:#E63624"/>
			<stop  offset="0.5" style="stop-color:#E63324"/>
			<stop  offset="0.59" style="stop-color:#E63624"/>
			<stop  offset="0.66" style="stop-color:#E63B23"/>
			<stop  offset="0.73" style="stop-color:#E94C21"/>
			<stop  offset="0.78" style="stop-color:#E86312"/>
			<stop  offset="0.84" style="stop-color:#EF7C1E"/>
			<stop  offset="0.9" style="stop-color:#F59D1E"/>
			<stop  offset="0.95" style="stop-color:#F9BB24"/>
			<stop  offset="1" style="stop-color:#FFDB16"/>
			<stop  offset="1" style="stop-color:#FFDC15"/>
		</linearGradient>
		<rect x="447" y="35.7" class="st1" width="133.9" height="133.9"/>
		
			<linearGradient id="SVGID_00000134960825790234578980000016471970030786489273_" gradientUnits="userSpaceOnUse" x1="513.995" y1="-19.1485" x2="513.995" y2="107.7415" gradientTransform="matrix(1 0 0 -1 0 146.9716)">
			<stop  offset="0" style="stop-color:#FFDC15"/>
			<stop  offset="0" style="stop-color:#FFDB16"/>
			<stop  offset="5.000000e-02" style="stop-color:#F9BB24"/>
			<stop  offset="0.1" style="stop-color:#F59D1E"/>
			<stop  offset="0.16" style="stop-color:#EF7C1E"/>
			<stop  offset="0.22" style="stop-color:#E86312"/>
			<stop  offset="0.27" style="stop-color:#E94C21"/>
			<stop  offset="0.34" style="stop-color:#E63B23"/>
			<stop  offset="0.41" style="stop-color:#E63624"/>
			<stop  offset="0.5" style="stop-color:#E63324"/>
			<stop  offset="0.59" style="stop-color:#E63624"/>
			<stop  offset="0.66" style="stop-color:#E63B23"/>
			<stop  offset="0.73" style="stop-color:#E94C21"/>
			<stop  offset="0.78" style="stop-color:#E86312"/>
			<stop  offset="0.84" style="stop-color:#EF7C1E"/>
			<stop  offset="0.9" style="stop-color:#F59D1E"/>
			<stop  offset="0.95" style="stop-color:#F9BB24"/>
			<stop  offset="1" style="stop-color:#FFDB16"/>
			<stop  offset="1" style="stop-color:#FFDC15"/>
		</linearGradient>
		
			<rect x="450.5" y="39.2" style="fill:url(#SVGID_00000134960825790234578980000016471970030786489273_);" width="126.9" height="126.9"/>
		<rect x="457.7" y="46.1" class="st3" width="113.1" height="113.1"/>
		
			<linearGradient id="SVGID_00000150103571002567600180000005123074979254735750_" gradientUnits="userSpaceOnUse" x1="-1373.5365" y1="-1573.0803" x2="-1298.1519" y2="-1497.6858" gradientTransform="matrix(0.7071 -0.7071 -0.7071 -0.7071 373.1497 -1927.5892)">
			<stop  offset="0" style="stop-color:#452B1A"/>
			<stop  offset="5.000000e-02" style="stop-color:#583519"/>
			<stop  offset="0.1" style="stop-color:#683E15"/>
			<stop  offset="0.32" style="stop-color:#76481E"/>
			<stop  offset="0.75" style="stop-color:#8C5A31"/>
			<stop  offset="1" style="stop-color:#946137"/>
		</linearGradient>
		
			<rect x="460.9" y="49.4" style="fill:url(#SVGID_00000150103571002567600180000005123074979254735750_);" width="106.6" height="106.6"/>
		<rect x="466.1" y="54.6" class="st5" width="96.3" height="96.3"/>
		<g>
			<path class="st6" d="M524.3,134.5l2.4-44.7l-5.4-0.6l-0.8-1.9h-4.2l-0.7,2l-6.4-0.3V77.3h7.4l0.5,2.3l3.5,0.4l0.8-2.6h7.5
				l1.5,1.3l1.3-1.3h9.3l1.1,1.8l1.6-1.8l7.1,5.8l-0.5,4c0,0-3.9-3.6-5.8-3.6s-4.6-0.1-4.6-0.1l-3.9,6.3l-2.4,0.2l2.2,44.6H524.3
				L524.3,134.5z"/>
			<polygon class="st6" points="503.1,75.4 495.5,71.2 495.4,81.6 488.5,81.6 488.5,71.2 479.8,75.2 479.8,87.9 487.9,91.8 
				485.1,134.5 498,134.5 495.5,91.8 503.1,88.4 			"/>
		</g>
		<path id="darker" class="st7" d="M567.5,156H460.9V97.6c0,0,33.6,5.2,53.3,5.2s53.3-5.2,53.3-5.2V156z"/>
	</g>
	<g id="mln">
		
			<linearGradient id="obram_czarne_00000178185546313587821230000009163270746713215627_" gradientUnits="userSpaceOnUse" x1="545.25" y1="2188.5115" x2="545.25" y2="2052.3416" gradientTransform="matrix(1 0 0 1 0 -1844.3414)">
			<stop  offset="0" style="stop-color:#FFDC15"/>
			<stop  offset="0" style="stop-color:#FFDB16"/>
			<stop  offset="5.000000e-02" style="stop-color:#F9BB24"/>
			<stop  offset="0.1" style="stop-color:#F59D1E"/>
			<stop  offset="0.16" style="stop-color:#EF7C1E"/>
			<stop  offset="0.22" style="stop-color:#E86312"/>
			<stop  offset="0.27" style="stop-color:#E94C21"/>
			<stop  offset="0.34" style="stop-color:#E63B23"/>
			<stop  offset="0.41" style="stop-color:#E63624"/>
			<stop  offset="0.5" style="stop-color:#E63324"/>
			<stop  offset="0.59" style="stop-color:#E63624"/>
			<stop  offset="0.66" style="stop-color:#E63B23"/>
			<stop  offset="0.73" style="stop-color:#E94C21"/>
			<stop  offset="0.78" style="stop-color:#E86312"/>
			<stop  offset="0.84" style="stop-color:#EF7C1E"/>
			<stop  offset="0.9" style="stop-color:#F59D1E"/>
			<stop  offset="0.95" style="stop-color:#F9BB24"/>
			<stop  offset="1" style="stop-color:#FFDB16"/>
			<stop  offset="1" style="stop-color:#FFDC15"/>
		</linearGradient>
		
			<polygon id="obram_czarne" style="opacity:0.4;fill:url(#obram_czarne_00000178185546313587821230000009163270746713215627_);enable-background:new    ;" points="
			497.8,208 477.2,228.6 477.2,323.6 497.8,344.2 592.8,344.2 613.3,323.6 613.3,228.6 592.8,208 		"/>
		
			<linearGradient id="obram_czarne-2_00000084492158450717499830000000567287079702591921_" gradientUnits="userSpaceOnUse" x1="545.255" y1="2185.3816" x2="545.255" y2="2055.4714" gradientTransform="matrix(1 0 0 1 0 -1844.3414)">
			<stop  offset="0" style="stop-color:#FFDC15"/>
			<stop  offset="0" style="stop-color:#FFDB16"/>
			<stop  offset="5.000000e-02" style="stop-color:#F9BB24"/>
			<stop  offset="0.1" style="stop-color:#F59D1E"/>
			<stop  offset="0.16" style="stop-color:#EF7C1E"/>
			<stop  offset="0.22" style="stop-color:#E86312"/>
			<stop  offset="0.27" style="stop-color:#E94C21"/>
			<stop  offset="0.34" style="stop-color:#E63B23"/>
			<stop  offset="0.41" style="stop-color:#E63624"/>
			<stop  offset="0.5" style="stop-color:#E63324"/>
			<stop  offset="0.59" style="stop-color:#E63624"/>
			<stop  offset="0.66" style="stop-color:#E63B23"/>
			<stop  offset="0.73" style="stop-color:#E94C21"/>
			<stop  offset="0.78" style="stop-color:#E86312"/>
			<stop  offset="0.84" style="stop-color:#EF7C1E"/>
			<stop  offset="0.9" style="stop-color:#F59D1E"/>
			<stop  offset="0.95" style="stop-color:#F9BB24"/>
			<stop  offset="1" style="stop-color:#FFDB16"/>
			<stop  offset="1" style="stop-color:#FFDC15"/>
		</linearGradient>
		<polygon id="obram_czarne-2" style="fill:url(#obram_czarne-2_00000084492158450717499830000000567287079702591921_);" points="
			500,211.1 480.3,230.8 480.3,321.4 500,341 590.6,341 610.2,321.4 610.2,230.8 590.6,211.1 		"/>
		<polygon id="obram_czarne-2_00000132781428006425710700000009203319000705353088_" class="st10" points="505.8,219.5 488.7,236.6 
			488.7,315.5 505.8,332.6 584.8,332.6 601.8,315.5 601.8,236.6 584.8,219.5 		"/>
		
			<linearGradient id="obram_zolte_00000036969994804040360110000005428309047195448504_" gradientUnits="userSpaceOnUse" x1="545.3" y1="2190.7014" x2="545.3" y2="2084.0515" gradientTransform="matrix(1 0 0 1 0 -1861.3414)">
			<stop  offset="0.16" style="stop-color:#813912"/>
			<stop  offset="0.18" style="stop-color:#975A19"/>
			<stop  offset="0.22" style="stop-color:#AE7D21"/>
			<stop  offset="0.26" style="stop-color:#C39D27"/>
			<stop  offset="0.3" style="stop-color:#D6B92E"/>
			<stop  offset="0.35" style="stop-color:#E4CF35"/>
			<stop  offset="0.41" style="stop-color:#EFE036"/>
			<stop  offset="0.48" style="stop-color:#F6E942"/>
			<stop  offset="0.58" style="stop-color:#F8EA48"/>
			<stop  offset="0.86" style="stop-color:#F7EA47"/>
			<stop  offset="1" style="stop-color:#FCF4F9"/>
		</linearGradient>
		<polygon id="obram_zolte" style="fill:url(#obram_zolte_00000036969994804040360110000005428309047195448504_);" points="
			508,222.7 492,238.8 492,313.2 508,329.4 582.5,329.4 598.6,313.2 598.6,238.8 582.5,222.7 		"/>
		
			<linearGradient id="tlo_wew_00000099642332413967384560000015271468502937493423_" gradientUnits="userSpaceOnUse" x1="545.295" y1="2078.3816" x2="545.295" y2="2241.3916" gradientTransform="matrix(1 0 0 1 0 -1861.3414)">
			<stop  offset="0.26" style="stop-color:#F7EA47"/>
			<stop  offset="0.86" style="stop-color:#803612"/>
		</linearGradient>
		<polygon id="tlo_wew" style="fill:url(#tlo_wew_00000099642332413967384560000015271468502937493423_);" points="509.2,224.3 
			493.5,240 493.5,312.1 509.2,327.8 581.4,327.8 597.1,312.1 597.1,240 581.4,224.3 		"/>
		
			<linearGradient id="obram_skosne_00000066516155599509022160000016684162331438001575_" gradientUnits="userSpaceOnUse" x1="545.34" y1="2189.2314" x2="545.34" y2="2085.6316" gradientTransform="matrix(1 0 0 1 0 -1861.3414)">
			<stop  offset="0.16" style="stop-color:#803612"/>
			<stop  offset="0.17" style="stop-color:#8B461E"/>
			<stop  offset="0.18" style="stop-color:#A26A3B"/>
			<stop  offset="0.2" style="stop-color:#B78954"/>
			<stop  offset="0.22" style="stop-color:#C7A468"/>
			<stop  offset="0.24" style="stop-color:#D7BB7A"/>
			<stop  offset="0.26" style="stop-color:#E2CC88"/>
			<stop  offset="0.3" style="stop-color:#EAD891"/>
			<stop  offset="0.34" style="stop-color:#EEDE97"/>
			<stop  offset="0.46" style="stop-color:#EFE097"/>
			<stop  offset="0.7" style="stop-color:#803612"/>
			<stop  offset="0.73" style="stop-color:#E6D234"/>
			<stop  offset="0.74" style="stop-color:#EAD848"/>
			<stop  offset="0.75" style="stop-color:#EEDE6D"/>
			<stop  offset="0.77" style="stop-color:#F1E38B"/>
			<stop  offset="0.79" style="stop-color:#F7EAA9"/>
			<stop  offset="0.8" style="stop-color:#F8EDBF"/>
			<stop  offset="0.83" style="stop-color:#FAF0CF"/>
			<stop  offset="0.85" style="stop-color:#FCF2DA"/>
			<stop  offset="0.89" style="stop-color:#FDF4E1"/>
			<stop  offset="0.99" style="stop-color:#FDF5E3"/>
		</linearGradient>
		<path id="obram_skosne" style="fill:url(#obram_skosne_00000066516155599509022160000016684162331438001575_);" d="M589.6,296
			c-2.9,0-5.2-2.3-5.2-5.2v-29.6c0-2.9,2.3-5.2,5.2-5.2h7.4V240l-15.6-15.7h-16.2v7.4c0,2.9-2.3,5.2-5.2,5.2h-29.6
			c-2.9,0-5.2-2.3-5.2-5.2v-7.4h-16.1L493.5,240v16.2h7.4c2.9,0,5.2,2.3,5.2,5.2v29.6c0,2.9-2.3,5.2-5.2,5.2h-7.4v16.1l15.7,15.7
			h16.2v-7.4c0-2.9,2.3-5.2,5.2-5.2h29.6c2.9,0,5.2,2.3,5.2,5.2v7.4h16.2l15.7-15.7V296H589.6L589.6,296z"/>
		
			<linearGradient id="tlo_zew_00000112630421856872122390000008590910887085542549_" gradientUnits="userSpaceOnUse" x1="545.295" y1="2100.8215" x2="545.295" y2="2260.7214" gradientTransform="matrix(1 0 0 1 0 -1861.3414)">
			<stop  offset="0.26" style="stop-color:#F7EA47"/>
			<stop  offset="0.77" style="stop-color:#803612"/>
		</linearGradient>
		<path id="tlo_zew" style="fill:url(#tlo_zew_00000112630421856872122390000008590910887085542549_);" d="M589.3,297.8
			c-3.5,0-6.4-3.5-6.4-7v-29.4c0-3.5,2.9-7,6.4-7h6v-13.2l-15.2-15.1h-13.1v6c0,3.5-3.5,6.4-7,6.4h-29.4c-3.5,0-7-2.9-7-6.4v-6
			h-13.2l-15.1,15.1v13.2h6c3.5,0,6.4,3.5,6.4,7v29.4c0,3.5-2.9,7-6.4,7h-6v13.2l15.1,15.1h13.2v-6c0-3.5,3.5-6.4,7-6.4h29.3
			c3.5,0,7,2.9,7,6.4v6H580l15.1-15.1v-13.2H589.3L589.3,297.8z"/>
	</g>
	<path class="st15" d="M528.9,302.7v-8.1c5.4,2.1,9.8,3.1,13.3,3.1c3.1,0,5.7-0.8,7.7-2.5c2-1.6,3-3.9,3-6.6c0-2-0.5-3.9-1.6-5.5
		c-1-1.7-2.6-2.9-4.6-3.8c-2-0.9-5.2-1.4-9.5-1.4h-3.3v-6.5l2.8,0c4.1,0,7.1-0.4,8.9-1.1c1.8-0.7,3.2-1.9,4.2-3.5
		c1-1.6,1.5-3.2,1.5-5c0-2.2-0.7-3.9-2.2-5.3c-1.5-1.4-3.8-2-6.9-2c-3.9,0-8.2,1-12.7,3.1v-7.4c2.3-0.8,4.1-1.3,5.4-1.6
		s2.9-0.5,4.7-0.6c1.8-0.2,3.5-0.2,5-0.2c5.7,0,10.1,1.2,13.1,3.5c3.1,2.3,4.6,5.5,4.6,9.4c0,3.2-1,5.9-3,8.2c-2,2.3-5,4-9,5.4
		c3.5,0.8,6.2,1.9,8,3.3s3.2,3.1,4.2,5s1.5,4,1.5,6.2c0,4.1-1.6,7.7-4.8,10.9c-3.2,3.2-8.4,4.8-15.7,4.8c-1.9,0-3.9-0.1-6-0.2
		C535.5,304.2,532.6,303.7,528.9,302.7L528.9,302.7L528.9,302.7z"/>
	<g>
		<path d="M152.4,127.1v-8.7c3.9,1.7,6.9,2.7,8.9,3c1.9,0.3,3.8,0.5,5.4,0.5c3,0,5.2-0.7,6.6-2s2.2-2.9,2.2-4.8
			c0-1.4-0.4-2.7-1.2-3.8c-0.8-1.1-2.8-2.6-6-4.3l-3.4-1.9c-4.9-2.7-8.2-5.2-9.9-7.5c-1.8-2.3-2.6-5-2.6-8c0-3.8,1.5-7.1,4.4-9.8
			s7.1-4.1,12.6-4.1c4.1,0,8.7,0.6,13.8,1.8v8.1c-5.2-1.9-9.4-2.9-12.5-2.9c-2.6,0-4.5,0.6-5.8,1.7s-2,2.4-2,4
			c0,1.2,0.4,2.3,1.2,3.3c0.8,1,2.8,2.4,5.9,4.2l3.7,2c5.6,3.1,9.2,5.8,10.7,8.2c1.5,2.3,2.3,4.9,2.3,7.8c0,4.2-1.6,7.7-4.8,10.6
			s-8.2,4.4-15.1,4.4C162.5,128.8,157.8,128.2,152.4,127.1L152.4,127.1z"/>
		<path d="M207.8,127.5V83.9h-18.1v-7h46.8v7h-18.1v43.7H207.8z"/>
		<path d="M243.6,127.5V76.9H276v7h-21.9V98h18.1v7h-18.1v15.4h23.5v7.2L243.6,127.5L243.6,127.5z"/>
		<path d="M280.1,127.5l19.7-50.7h10.6l19.7,50.7h-10.8l-5.3-13.5h-21l-5.3,13.5C287.8,127.5,280.1,127.5,280.1,127.5z M295.7,107.3
			h15.7l-7.9-20.2L295.7,107.3L295.7,107.3z"/>
		<path d="M337.3,127.5V76.9h10.5v43.5h22.5v7.2H337.3z"/>
		<path d="M398.4,127.5v-8c3-4.1,6-7.4,8.9-9.9l4.1-3.7c3-2.6,5.4-5.2,7.3-7.8s2.9-5.2,2.9-8.1c0-2.5-0.8-4.5-2.5-5.9
			c-1.6-1.4-3.8-2.1-6.6-2.1c-3.7,0-8,1.2-12.9,3.8v-7.4c5.1-1.9,10.1-2.9,14.9-2.9c5.3,0,9.6,1.3,12.9,3.8
			c3.3,2.5,4.9,5.9,4.9,10.2c0,2.7-0.7,5.2-2.1,7.6s-4.2,5.3-8.6,8.8l-3.4,2.7c-1.5,1.2-3.1,2.8-4.9,4.7c-1.8,1.9-3,3.9-3.5,6h22.4
			v8L398.4,127.5L398.4,127.5z"/>
	</g>
	<g>
		<path d="M136.6,302.2c-5.3,0-9.9-1.1-13.8-3.3s-6.9-5.3-8.9-9.4s-3.1-8.7-3.1-13.9s1-9.8,3.1-13.9c2-4.1,5-7.2,8.9-9.4
			s8.5-3.3,13.7-3.3s9.8,1.1,13.7,3.3c3.9,2.2,6.9,5.3,8.9,9.4c2,4.1,3.1,8.7,3.1,13.9s-1,9.8-3.1,13.9c-2,4.1-5,7.2-8.9,9.4
			S141.8,302.2,136.6,302.2L136.6,302.2z M136.6,295.3c4.9,0,8.5-2,10.9-6c2.4-4,3.6-8.5,3.6-13.7s-1.2-9.7-3.6-13.7
			c-2.4-4-6-5.9-10.9-5.9s-8.5,2-10.9,5.9c-2.4,4-3.6,8.5-3.6,13.7s1.2,9.7,3.6,13.7C128,293.3,131.7,295.3,136.6,295.3L136.6,295.3
			z"/>
		<path d="M171.7,301v-50.6h19c3.9,0,6.8,0.5,8.9,1.5s3.6,2.4,4.8,4.4c1.2,2,1.8,4.2,1.8,6.7c0,3-0.9,5.8-2.6,8.4
			c-1.7,2.6-4.1,4.6-7.3,6l16.6,23.6H200l-12.6-20.7h-5.8V301L171.7,301L171.7,301z M181.6,273.3h2.4c4.4,0,7.4-1,9-2.8
			c1.7-1.9,2.5-4,2.5-6.4c0-2.1-0.7-3.7-2-5c-1.4-1.2-4.1-1.8-8.2-1.8h-3.7L181.6,273.3L181.6,273.3z"/>
		<path d="M239.6,300.5v-8.7c3.9,1.7,6.9,2.6,8.9,3c1.9,0.3,3.8,0.5,5.4,0.5c3,0,5.2-0.7,6.6-2c1.5-1.3,2.2-2.9,2.2-4.8
			c0-1.4-0.4-2.7-1.2-3.8c-0.8-1.1-2.8-2.6-6-4.4l-3.4-1.9c-4.9-2.7-8.2-5.2-9.9-7.5c-1.8-2.3-2.6-5-2.6-8c0-3.8,1.5-7.1,4.4-9.8
			s7.1-4.1,12.6-4.1c4.1,0,8.7,0.6,13.8,1.8v8.1c-5.2-1.9-9.4-2.9-12.5-2.9c-2.6,0-4.5,0.5-5.8,1.7s-2,2.4-2,4
			c0,1.2,0.4,2.3,1.2,3.3c0.8,1,2.8,2.4,6,4.2l3.7,2c5.6,3.1,9.2,5.8,10.7,8.1c1.5,2.3,2.3,4.9,2.3,7.8c0,4.1-1.6,7.7-4.8,10.6
			s-8.2,4.4-15.1,4.4C249.8,302.2,245,301.6,239.6,300.5L239.6,300.5z"/>
		<path d="M295.1,301v-43.7h-18.1v-7h46.8v7h-18.1V301H295.1L295.1,301z"/>
		<path d="M330.8,301v-50.6h32.4v7h-21.9v14.1h18.1v7h-18.1v15.4h23.5v7.2L330.8,301L330.8,301z"/>
		<path d="M367.4,301l19.7-50.6h10.6l19.7,50.6h-10.8l-5.3-13.5h-21l-5.3,13.5H367.4z M383,280.7h15.7l-7.9-20.2L383,280.7
			L383,280.7z"/>
		<path d="M424.5,301v-50.6h10.5v43.5h22.5v7.2H424.5z"/>
	</g>
</g>
</svg>
