<?xml version="1.0" encoding="UTF-8"?><svg id="Layer" xmlns="http://www.w3.org/2000/svg" xmlns:xlink="http://www.w3.org/1999/xlink" viewBox="0 0 721 379.91"><defs><style>.cls-1{fill:url(#linear-gradient-2);}.cls-2{fill:#977355;}.cls-3{fill:url(#linear-gradient-5);stroke:#010101;stroke-width:1.19px;}.cls-3,.cls-4{stroke-miterlimit:10;}.cls-5{fill:#1f1f1e;}.cls-4{fill:#fff;opacity:0;stroke:#1d1d1b;}.cls-6{fill:url(#Nowy_wzorek_3);opacity:.1;}.cls-6,.cls-7,.cls-8{isolation:isolate;}.cls-9{fill:#ffd113;}.cls-10{fill:#e62b23;}.cls-11{fill:none;}.cls-12{fill:#b88d6d;}.cls-7{opacity:.05;}.cls-7,.cls-13{fill:#030304;}.cls-14{fill:url(#linear-gradient-3);}.cls-15{fill:url(#linear-gradient);}.cls-16{fill:#473628;}.cls-17{fill:url(#linear-gradient-4);}.cls-18,.cls-8{fill:#010101;}.cls-8{opacity:.15;}</style><linearGradient id="linear-gradient" x1="328.65" y1="544.2" x2="124.22" y2="339.76" gradientTransform="translate(0 -252.64)" gradientUnits="userSpaceOnUse"><stop offset="0" stop-color="#9e9d9c"/><stop offset=".54" stop-color="#010202"/><stop offset="1" stop-color="#9e9d9c"/></linearGradient><linearGradient id="linear-gradient-2" x1="226.51" y1="525.24" x2="226.51" y2="358.75" gradientTransform="translate(0 -252.64)" gradientUnits="userSpaceOnUse"><stop offset="0" stop-color="#462c1b"/><stop offset="1" stop-color="#b18048"/></linearGradient><linearGradient id="linear-gradient-3" x1="226.43" y1="521.03" x2="226.43" y2="362.81" gradientTransform="translate(0 -252.64)" gradientUnits="userSpaceOnUse"><stop offset="0" stop-color="#946137"/><stop offset="1" stop-color="#805127"/></linearGradient><pattern id="Nowy_wzorek_3" x="0" y="0" width="19.7" height="21.7" patternTransform="translate(43.9 16649.47)" patternUnits="userSpaceOnUse" viewBox="0 0 19.7 21.7"><g><rect class="cls-11" width="19.7" height="21.7"/><g><rect class="cls-11" width="19.7" height="21.7"/><g><rect class="cls-11" width="19.7" height="21.7"/><g><rect class="cls-11" width="19.7" height="21.7"/><g><rect class="cls-11" width="19.7" height="21.7"/><path class="cls-5" d="M16.6,8.7c2.1,2.1,2.1,5.6,0,7.7l-1.2,1.2c-2.1,2.1-5.6,2.1-7.8,0L3.1,13c-2.1-2.1-2.1-5.6,0-7.7l1.2-1.2c2.1-2.1,5.6-2.1,7.7,0l4.6,4.6Z"/></g></g></g></g></g></pattern><linearGradient id="linear-gradient-4" x1="-609.4" y1="-623.57" x2="-531.72" y2="-545.89" gradientTransform="translate(245.68 -627.62) rotate(-45) scale(1 -1)" gradientUnits="userSpaceOnUse"><stop offset="0" stop-color="#951919"/><stop offset=".21" stop-color="#b9251d"/><stop offset=".47" stop-color="#e62b23"/><stop offset=".55" stop-color="#e62f2a"/><stop offset=".84" stop-color="#e73a3b"/><stop offset="1" stop-color="#e83e41"/></linearGradient><linearGradient id="linear-gradient-5" x1="479.21" y1="85.06" x2="479.21" y2="261.52" gradientTransform="translate(0 363.09) scale(1 -1)" gradientUnits="userSpaceOnUse"><stop offset="0" stop-color="#241d1c"/><stop offset="1" stop-color="#d4b39c"/></linearGradient></defs><rect class="cls-4" x=".5" y=".5" width="720" height="378.91"/><g><path d="M590.81,126.65l-10.23-1.28,2.36-7.23,9.01,4.99c-.78,.85-1.17,1.79-1.17,2.8,0,.17,.01,.4,.04,.71Zm3.2,2.81l-4.39,9.35-6.12-4.47,7.52-7.07c.66,1.2,1.65,1.93,2.99,2.19Zm-3.47-16.84h7.59l-1.93,10.13c-.63-.31-1.25-.46-1.86-.46s-1.22,.15-1.83,.46l-1.97-10.13Zm7.16,14.65l7.52,7.07-6.15,4.47-4.36-9.35c1.31-.26,2.31-.99,2.99-2.19Zm-.95-4.13l9.04-4.99,2.32,7.23-10.23,1.28c.05-.31,.07-.54,.07-.71,0-1.02-.4-1.95-1.2-2.8Z"/><g id="prodBg"><rect id="external-border" class="cls-15" x="109.87" y="101.47" width="233.12" height="175.75"/><rect id="internal-border" class="cls-1" x="114.51" y="106.11" width="223.99" height="166.49"/><rect id="bg" class="cls-14" x="118.58" y="110.17" width="215.71" height="158.21"/><rect id="bgPattern" class="cls-6" x="118.58" y="110.17" width="215.71" height="158.21"/></g><g id="heat"><rect class="cls-13" x="197.42" y="130.99" width="116.56" height="116.56"/><rect class="cls-17" x="200.77" y="134.37" width="109.85" height="109.85"/><rect class="cls-10" x="206.1" y="139.69" width="99.18" height="99.18"/><path id="darker" class="cls-7" d="M310.62,244.22h-109.85v-60.2s34.59,5.32,54.87,5.32,54.97-5.32,54.97-5.32v60.2Z"/><g><polygon class="cls-9" points="243.31 194.39 230.8 183.54 230.8 183.54 230.8 150.44 218.26 184.2 230.87 194.84 230.87 194.84 230.8 228.12 243.31 194.39"/><polygon class="cls-9" points="268.26 194.39 255.75 183.54 255.65 183.54 255.75 150.44 243.21 184.2 255.75 194.84 255.75 194.84 255.75 228.12 268.26 194.39"/><polygon class="cls-9" points="293.9 194.39 281.36 183.54 281.28 183.54 281.36 150.44 268.84 184.2 281.36 194.84 281.36 194.84 281.36 228.12 293.9 194.39"/></g></g><path class="cls-18" d="M162.07,212.58v-13.14h-22.98v-7.39l22.58-28.71h9.01v28.71h5.75v7.39h-5.75v13.14h-8.6Zm-15.11-20.51h15.31v-19.3l-15.31,19.3Z"/><g id="moholeArea"><polygon class="cls-18" points="563.56 238.65 563.56 141.1 479.13 92.4 394.54 141.1 394.54 238.65 479.13 287.51 563.56 238.65"/><polygon class="cls-2" points="560.87 237.07 560.87 142.52 479.13 95.25 397.22 142.52 397.22 237.07 479.13 284.35 560.87 237.07"/><polygon class="cls-3" points="555.65 234.07 555.65 145.68 479.13 101.57 402.76 145.68 402.76 234.07 479.13 278.02 555.65 234.07"/><polygon class="cls-12" points="550.12 230.9 550.12 148.84 479.13 108.05 408.29 148.84 408.29 230.9 479.13 271.54 550.12 230.9"/><path class="cls-8" d="M563.08,235.81v-60.87h0q-83.96,12.49-168.07,0h0v60.87l83.96,48.54,84.11-48.54Z"/><g><ellipse class="cls-16" cx="479.28" cy="213.2" rx="48.22" ry="20.87"/><ellipse class="cls-12" cx="479.28" cy="213.2" rx="33.36" ry="9.8"/><ellipse class="cls-16" cx="479.28" cy="213.2" rx="31.31" ry="8.06"/><path class="cls-16" d="M473.75,147.11c-1.42,1.26-1.42,2.85-1.42,3.16,0,1.58,.79,2.69,2.06,4.43,1.42,2.06,2.06,1.9,2.69,3.32,.79,1.74,.63,3.32,.63,4.43-.16,2.69-1.42,4.43-2.53,6.32-2.21,3.32-3.16,3.16-4.59,6.01-.95,1.9-1.11,3.48-1.42,5.22-.32,2.37-.79,4.9,0,8.06,.32,1.42,.95,3.64,2.85,5.69,3.32,3.32,7.75,3.16,8.38,3.16,2.37-.16,5.69-1.26,5.85-2.69,0-.63-.47-.95-2.37-3.16-1.58-1.9-2.37-2.85-2.69-3.95-.63-1.9,0-3.79,.16-4.59,.63-2.06,1.74-2.85,4.11-5.85,2.53-3,3.79-4.43,4.43-6.01,1.42-3.32,1.11-6.48,.79-8.06-.16-1.26-.63-4.59-2.85-8.06-1.9-3-3.95-4.59-5.38-5.69-3.32-2.53-5.22-2.53-5.69-2.53-.63-.16-1.9-.16-3,.79Z"/><path class="cls-16" d="M494.78,167.19c-.95,.79-1.26,2.06-1.26,2.37-.32,1.74,.63,2.37,1.26,5.22,.32,1.42,.47,2.37,.16,3.48-.32,1.74-1.26,2.21-2.53,4.11-.63,1.11-1.42,2.37-1.74,4.11-.16,.63-.47,2.37,.16,4.43,1.11,3.64,4.43,5.38,5.06,5.69,2.21,1.11,4.27,1.11,5.69,1.11,1.9,0,2.21-.47,2.37-.63,.47-.79-.63-1.9-1.42-4.59-.47-1.58-.79-2.53-.63-3.79,.16-1.74,1.11-2.21,2.69-4.74,1.42-2.21,2.06-3.32,2.37-4.59,.63-3-.95-5.69-1.9-7.43-1.11-1.9-2.06-3.79-4.43-4.74-.32-.32-3.79-1.74-5.85,0Z"/><path class="cls-16" d="M454.46,166.71c-1.26,1.11-1.26,3.16-1.26,3.32,0,1.42,.79,1.9,1.74,3.95,.47,1.42,1.11,2.69,.79,4.11-.32,2.21-2.21,2.53-3.48,5.22-.95,1.74-.95,3.32-1.11,5.22-.16,2.69,.47,5.22,2.06,9.33,2.53,6.48,4.11,10.28,7.75,13.91,1.9,1.9,3.95,3.16,8.06,5.69,7.59,4.43,11.38,6.8,16.92,8.38,5.69,1.58,14.07,4.11,20.24-.16,.63-.47,4.74-3.64,4.59-7.75-.16-4.11-.16-3.48-.16-4.74,0-2.69-11.7-3.16-17.87-2.85-8.54,.32-12.97,.47-15.18-.47-1.74-.63-4.43-3.32-9.64-8.7-5.06-5.22-6.48-7.43-6.48-10.28,0-.79,.47-2.37,1.26-3.95,.95-1.9,1.58-2.21,2.53-3.95,.32-.63,1.11-2.37,1.26-4.43,0-.79,.32-3.79-1.42-6.96-.32-.47-2.21-3.79-6.01-5.06-1.26-.16-3.16-.79-4.59,.16Z"/></g></g></g></svg>