<?xml version="1.0" encoding="UTF-8"?><svg id="Layer" xmlns="http://www.w3.org/2000/svg" xmlns:xlink="http://www.w3.org/1999/xlink" viewBox="0 0 721 379.91"><defs><style>.cls-1{fill:url(#linear-gradient);opacity:.4;}.cls-1,.cls-2,.cls-3,.cls-4{isolation:isolate;}.cls-5{fill:url(#linear-gradient-2);}.cls-6,.cls-3{fill:#030404;}.cls-7{fill:#020303;}.cls-8{stroke-width:1.86px;}.cls-8,.cls-9,.cls-10,.cls-11,.cls-12{stroke-miterlimit:10;}.cls-8,.cls-9,.cls-10,.cls-12{stroke:#030404;}.cls-8,.cls-12{fill:none;}.cls-2{fill:#e13f1b;opacity:.5;}.cls-13{fill:url(#linear-gradient-6);}.cls-3{opacity:.15;}.cls-9{stroke-width:.94px;}.cls-9,.cls-11{fill:#fff;}.cls-10{stroke-width:1.91px;}.cls-10,.cls-4,.cls-14{fill:#030304;}.cls-11{opacity:0;stroke:#1d1d1b;}.cls-15{fill:#d01b22;}.cls-16{fill:url(#radial-gradient);}.cls-4{opacity:.29;}.cls-17{fill:url(#linear-gradient-5);}.cls-18{fill:url(#linear-gradient-7);}.cls-19{fill:url(#linear-gradient-9);}.cls-20{fill:url(#linear-gradient-3);}.cls-21{fill:#80378d;}.cls-22{fill:url(#linear-gradient-4);}.cls-23{fill:#010101;}.cls-24{fill:url(#linear-gradient-8);}</style><linearGradient id="linear-gradient" x1="597.85" y1="-141.42" x2="597.85" y2="10.4" gradientTransform="translate(0 127.46) scale(1 -1)" gradientUnits="userSpaceOnUse"><stop offset="0" stop-color="#ffdc15"/><stop offset="0" stop-color="#ffdb16"/><stop offset=".05" stop-color="#f9bb1f"/><stop offset=".1" stop-color="#f59c1b"/><stop offset=".16" stop-color="#ef7b1b"/><stop offset=".22" stop-color="#e86212"/><stop offset=".27" stop-color="#e84b1f"/><stop offset=".34" stop-color="#e63a21"/><stop offset=".41" stop-color="#e63323"/><stop offset=".5" stop-color="#e63023"/><stop offset=".59" stop-color="#e63323"/><stop offset=".66" stop-color="#e63a21"/><stop offset=".73" stop-color="#e84b1f"/><stop offset=".78" stop-color="#e86212"/><stop offset=".84" stop-color="#ef7b1b"/><stop offset=".9" stop-color="#f59c1b"/><stop offset=".95" stop-color="#f9bb1f"/><stop offset="1" stop-color="#ffdb16"/><stop offset="1" stop-color="#ffdc15"/></linearGradient><linearGradient id="linear-gradient-2" y1="-140.02" y2="8.99" xlink:href="#linear-gradient"/><linearGradient id="linear-gradient-3" x1="597.9" y1="-133.78" x2="597.9" y2="2.86" gradientTransform="translate(0 127.46) scale(1 -1)" gradientUnits="userSpaceOnUse"><stop offset="0" stop-color="#030304"/><stop offset="1" stop-color="#fff"/></linearGradient><radialGradient id="radial-gradient" cx="597.95" cy="-65.51" fx="597.95" fy="-65.51" r="59.61" gradientTransform="translate(0 127.46) scale(1 -1)" gradientUnits="userSpaceOnUse"><stop offset="0" stop-color="#cbc9c9"/><stop offset="1" stop-color="#747373"/></radialGradient><linearGradient id="linear-gradient-4" x1="390.42" y1="262.84" x2="390.42" y2="153.34" gradientTransform="translate(0 -13.88)" gradientUnits="userSpaceOnUse"><stop offset=".16" stop-color="#833c15"/><stop offset=".18" stop-color="#9a5e1a"/><stop offset=".22" stop-color="#ae7d22"/><stop offset=".26" stop-color="#c39d24"/><stop offset=".3" stop-color="#d6b92e"/><stop offset=".35" stop-color="#e4cf36"/><stop offset=".41" stop-color="#efe036"/><stop offset=".48" stop-color="#f5e952"/><stop offset=".58" stop-color="#f8eb57"/><stop offset=".86" stop-color="#f4e956"/><stop offset="1" stop-color="#fcf4f9"/></linearGradient><linearGradient id="linear-gradient-5" x1="390.42" y1="147.5" x2="390.42" y2="314.92" gradientTransform="translate(0 -13.88)" gradientUnits="userSpaceOnUse"><stop offset=".26" stop-color="#f4e956"/><stop offset=".86" stop-color="#823b15"/></linearGradient><linearGradient id="linear-gradient-6" x1="390.31" y1="261.33" x2="390.31" y2="154.96" gradientTransform="translate(0 -13.88)" gradientUnits="userSpaceOnUse"><stop offset=".16" stop-color="#823b15"/><stop offset=".17" stop-color="#8e491f"/><stop offset=".18" stop-color="#a36d3e"/><stop offset=".2" stop-color="#b78954"/><stop offset=".22" stop-color="#c7a468"/><stop offset=".24" stop-color="#d7bb7a"/><stop offset=".26" stop-color="#e2cc88"/><stop offset=".3" stop-color="#ead891"/><stop offset=".34" stop-color="#eede97"/><stop offset=".46" stop-color="#efe097"/><stop offset=".7" stop-color="#823b15"/><stop offset=".73" stop-color="#e6d234"/><stop offset=".74" stop-color="#ecda49"/><stop offset=".75" stop-color="#eede6d"/><stop offset=".77" stop-color="#efe18a"/><stop offset=".79" stop-color="#f8ebac"/><stop offset=".8" stop-color="#f8edbf"/><stop offset=".83" stop-color="#faf0cf"/><stop offset=".85" stop-color="#fcf2da"/><stop offset=".89" stop-color="#fdf4e1"/><stop offset=".99" stop-color="#fdf5e3"/></linearGradient><linearGradient id="linear-gradient-7" x1="390.37" y1="170.56" x2="390.37" y2="334.77" gradientTransform="translate(0 -13.88)" gradientUnits="userSpaceOnUse"><stop offset=".26" stop-color="#f4e956"/><stop offset=".77" stop-color="#823b15"/></linearGradient><linearGradient id="linear-gradient-8" x1="237.74" y1="212.54" x2="237.74" y2="169.68" gradientTransform="translate(0 3.12)" gradientUnits="userSpaceOnUse"><stop offset="0" stop-color="#522b17"/><stop offset=".45" stop-color="#522b17" stop-opacity=".7"/><stop offset=".58" stop-color="#e13f1b" stop-opacity=".5"/><stop offset="1" stop-color="#e13f1b" stop-opacity=".5"/></linearGradient><linearGradient id="linear-gradient-9" x1="-800.08" y1="1052.09" x2="-722.65" y2="974.67" gradientTransform="translate(-91.58 -1060.72) rotate(-45)" gradientUnits="userSpaceOnUse"><stop offset="0" stop-color="#1d1627"/><stop offset=".24" stop-color="#372348"/><stop offset=".49" stop-color="#593d6d"/><stop offset=".71" stop-color="#74528e"/><stop offset=".89" stop-color="#835ca2"/><stop offset="1" stop-color="#8965a8"/></linearGradient></defs><rect class="cls-11" x=".5" y=".5" width="720" height="378.91"/><path class="cls-23" d="M683.5,145.6l-12.27-1.51,2.8-8.61,10.77,5.92c-.97,1.08-1.4,2.15-1.4,3.34,.11,.22,.11,.43,.11,.86,.11,0,0,0,0,0h0Zm3.88,3.34l-5.28,11.2-7.32-5.38,9.04-8.51c.75,1.51,1.94,2.37,3.55,2.69h.01Zm-4.2-20.13h9.04l-2.26,12.17c-.75-.32-1.51-.54-2.26-.54s-1.4,.22-2.15,.54l-2.37-12.17h0Zm8.61,17.55l9.04,8.51-7.32,5.38-5.17-11.2c1.4-.43,2.58-1.29,3.45-2.69h0Zm-1.18-4.95l10.77-5.92,2.8,8.61-12.27,1.51c0-.32,.11-.65,.11-.86,.11-1.18-.43-2.37-1.4-3.34h0Z"/><g id="cityAny"><path class="cls-1" d="M597.9,268.88l-65.79-38.01v-75.91l65.79-37.9,65.68,37.9v75.91l-65.68,38.01h0Z"/><path class="cls-5" d="M597.9,267.48l-64.6-37.25v-74.51l64.6-37.25,64.49,37.25v74.4l-64.49,37.36Z"/><polygon class="cls-14" points="658.95 228.18 658.95 157.76 597.9 122.56 536.85 157.76 536.85 228.18 597.9 263.5 658.95 228.18"/><polygon class="cls-20" points="657.01 227.1 657.01 158.84 597.9 124.6 538.79 158.84 538.79 227.1 597.9 261.24 657.01 227.1"/><polygon class="cls-16" points="653.13 224.84 653.13 161.1 597.9 129.23 542.77 161.1 542.77 224.84 597.9 256.71 653.13 224.84"/><path class="cls-4" d="M658.52,226.24v-44.04h0c-40.38,6.03-80.86,6.03-121.35,0h0v44.04l60.62,34.99,60.73-34.99h0Z"/><g id="city-logo"><path class="cls-12" d="M555.58,200.72c0-22.61,18.95-40.81,42.21-40.81"/><path class="cls-12" d="M639.89,200.72c0-22.61-19.06-40.81-42.53-40.81"/><rect class="cls-6" x="554.94" y="198.03" width="85.71" height="5.38"/><rect class="cls-6" x="559.35" y="193.08" width="2.58" height="5.06"/><rect class="cls-6" x="560.64" y="189.1" width="1.18" height="4.09"/><rect class="cls-6" x="564.63" y="192.54" width="4.63" height="5.6"/><rect class="cls-6" x="564.63" y="185.97" width="2.37" height="6.57"/><rect class="cls-6" x="570.76" y="191.03" width="1.94" height="7"/><rect class="cls-6" x="572.7" y="177.04" width="2.26" height="21"/><rect class="cls-6" x="573.89" y="174.78" width="1.08" height="2.26"/><rect class="cls-6" x="574.96" y="193.08" width="3.66" height="5.06"/><rect class="cls-6" x="577.87" y="190.6" width=".75" height="2.58"/><rect class="cls-6" x="578.62" y="171.98" width="2.91" height="26.16"/><rect class="cls-6" x="581.53" y="176.71" width="1.51" height="21.43"/><rect class="cls-6" x="583.15" y="184.25" width="3.12" height="13.78"/><rect class="cls-6" x="586.27" y="187.16" width="1.94" height="11.09"/><rect class="cls-6" x="589.93" y="180.37" width="4.09" height="17.77"/><rect class="cls-6" x="594.13" y="187.37" width="2.05" height="10.66"/><rect class="cls-6" x="596.17" y="167.56" width="5.06" height="30.47"/><rect class="cls-6" x="603.6" y="174.35" width="2.58" height="23.69"/><rect class="cls-6" x="608.88" y="179.19" width="2.8" height="18.84"/><rect class="cls-6" x="606.08" y="191.79" width="2.8" height="6.24"/><rect class="cls-6" x="611.68" y="194.59" width="2.05" height="3.55"/><rect class="cls-6" x="616.2" y="192.76" width="1.83" height="5.28"/><rect class="cls-6" x="618.03" y="184.25" width="3.23" height="13.78"/><rect class="cls-6" x="621.05" y="177.9" width="2.37" height="20.13"/><rect class="cls-6" x="623.42" y="192" width="1.94" height="6.03"/><rect class="cls-6" x="626.43" y="188.34" width="2.48" height="9.69"/><rect class="cls-6" x="628.91" y="187.37" width="2.69" height="10.66"/><rect class="cls-6" x="633.43" y="193.3" width="1.18" height="4.95"/><rect class="cls-6" x="634.72" y="195.77" width="2.37" height="2.48"/></g></g><path class="cls-23" d="M466.75,228.93l32.62-69.66h8.4l-32.73,69.66h-8.29Z"/><g id="mln"><polygon id="obram_czarne" class="cls-10" points="349.82 136.12 332.27 153.78 332.27 234.75 349.82 252.3 430.9 252.3 448.45 234.75 448.45 153.78 430.9 136.12 349.82 136.12"/><polygon id="obram_zolte" class="cls-22" points="352.08 139.46 335.72 156.04 335.72 232.38 352.08 248.96 428.53 248.96 445.11 232.38 445.11 156.04 428.53 139.46 352.08 139.46"/><polygon id="tlo_wew" class="cls-17" points="353.27 141.07 337.23 157.12 337.23 231.3 353.27 247.35 427.45 247.35 443.6 231.3 443.6 157.12 427.45 141.07 353.27 141.07"/><path id="obram_skosne" class="cls-13" d="M435.85,214.72c-2.91,0-5.38-2.37-5.38-5.28v-30.36c0-2.91,2.37-5.38,5.38-5.38h7.64v-16.58l-16.04-16.04h-16.69v7.64c0,2.91-2.37,5.38-5.38,5.38h-30.36c-2.91,0-5.38-2.37-5.38-5.38v-7.64h-16.58l-16.04,16.04v16.69h7.64c2.91,0,5.38,2.37,5.38,5.38v30.36c0,2.91-2.37,5.28-5.38,5.28h-7.64v16.58l16.04,16.04h16.69v-7.64c0-2.91,2.37-5.28,5.38-5.28h30.36c2.91,0,5.38,2.37,5.38,5.28v7.64h16.69l16.04-16.04v-16.69c.11,0-7.75,0-7.75,0h0Z"/><path id="tlo_zew" class="cls-18" d="M435.64,216.55c-3.66,0-6.57-3.66-6.57-7.21v-30.15c0-3.66,2.91-7.21,6.57-7.21h6.14v-13.57l-15.61-15.5h-13.46v6.14c0,3.66-3.66,6.57-7.21,6.57h-30.15c-3.66,0-7.21-2.91-7.21-6.57v-6.14h-13.57l-15.61,15.5v13.46h6.14c3.66,0,6.57,3.66,6.57,7.21v30.15c0,3.66-2.91,7.21-6.57,7.21h-6.14v13.57l15.5,15.5h13.57v-6.14c0-3.66,3.66-6.57,7.21-6.57h30.04c3.66,0,7.21,2.91,7.21,6.57v6.14h13.46l15.5-15.5v-13.46h-5.81Z"/></g><path class="cls-7" d="M387.62,222.15v-48.56h-7.32l-.22-5.49,18.63-1.62v55.77l-11.09-.11h0Z"/><g id="arrow"><path class="cls-2" d="M297.49,194.26l-57.07-26.38,6.89,13.67h-64.28s-1.94,6.14-1.94,12.17,1.94,10.77,1.94,10.77h65.46l-8.08,16.15,57.07-26.38h0Z"/><path class="cls-24" d="M252.38,202.12h-67.62c-.54-1.72-1.29-4.95-1.29-8.51,0-3.77,.86-7.64,1.4-9.8h66.33l-5.6-11.09,46.41,21.43-46.41,21.43,6.78-13.46h0Z"/><path class="cls-15" d="M257.33,199h-70.2c-.32-1.51-.54-3.34-.54-5.38,0-2.37,.43-4.74,.75-6.68h68.8l-3.88-7.75,32.41,14.97-32.41,14.97,5.06-10.12h.01Z"/><path class="cls-8" d="M252.38,202.12h-67.62c-.54-1.72-1.29-4.95-1.29-8.51,0-3.77,.86-7.64,1.4-9.8h66.33l-5.6-11.09,46.41,21.43-46.41,21.43,6.78-13.46h0Z"/></g><g id="energy"><rect class="cls-6" x="28.53" y="136.12" width="116.18" height="116.18"/><rect class="cls-19" x="31.87" y="139.46" width="109.5" height="109.5"/><polygon class="cls-21" points="135.99 144.74 135.99 243.69 37.15 243.69 37.15 144.74 135.99 144.74"/><polygon class="cls-9" points="74.51 182.85 107.13 162.72 89.69 187.91 98.95 202.88 66.86 223.12 83.01 198.03 74.51 182.85"/><path id="darker" class="cls-3" d="M141.37,248.96H31.87v-59.97s34.45,5.28,54.7,5.28,54.8-5.28,54.8-5.28v59.97h0Z"/></g></svg>