<?xml version="1.0" encoding="UTF-8"?><svg id="Layer" xmlns="http://www.w3.org/2000/svg" xmlns:xlink="http://www.w3.org/1999/xlink" viewBox="0 0 721 379.91"><defs><style>.cls-1{fill:#977355;}.cls-2{fill:none;stroke:#fff;}.cls-2,.cls-3,.cls-4,.cls-5,.cls-6{stroke-miterlimit:10;}.cls-2,.cls-5,.cls-6{stroke-width:2.81px;}.cls-3{fill:url(#linear-gradient-5);stroke:#010101;stroke-width:1.19px;}.cls-7{fill:url(#linear-gradient-2);}.cls-7,.cls-8{opacity:.5;}.cls-7,.cls-8,.cls-9{isolation:isolate;}.cls-4{fill:#fff;opacity:0;stroke:#1d1d1b;}.cls-10{fill:#f4f3f4;}.cls-5{fill:url(#linear-gradient);}.cls-5,.cls-6{stroke:#030404;}.cls-8{fill:url(#linear-gradient-4);}.cls-11{fill:#ec662b;}.cls-12{fill:#d3d3d3;}.cls-13{fill:#e7e6e6;}.cls-14{fill:#b88d6d;}.cls-15{fill:#301b3f;}.cls-16{fill:#523564;}.cls-6{fill:url(#linear-gradient-3);}.cls-17{fill:#9c9b9b;}.cls-18,.cls-9{fill:#010101;}.cls-9{opacity:.15;}</style><linearGradient id="linear-gradient" x1="204.6" y1="356.59" x2="204.6" y2="158.83" gradientTransform="translate(0 -66.64)" gradientUnits="userSpaceOnUse"><stop offset=".08" stop-color="#4cc0f0"/><stop offset=".15" stop-color="#56a5d7"/><stop offset=".23" stop-color="#5f87b5"/><stop offset=".3" stop-color="#646c9e"/><stop offset=".37" stop-color="#69588e"/><stop offset=".42" stop-color="#6c4b83"/><stop offset=".46" stop-color="#6a4780"/><stop offset=".55" stop-color="#953f63"/><stop offset=".67" stop-color="#b8363e"/><stop offset=".75" stop-color="#cd2822"/><stop offset=".79" stop-color="#d52020"/></linearGradient><linearGradient id="linear-gradient-2" x1="196.49" y1="321.34" x2="185.83" y2="310.68" gradientTransform="translate(0 -66.64)" gradientUnits="userSpaceOnUse"><stop offset="0" stop-color="#20201e" stop-opacity="0"/><stop offset="1" stop-color="#fff"/></linearGradient><linearGradient id="linear-gradient-3" x1="289.1" x2="289.1" xlink:href="#linear-gradient"/><linearGradient id="linear-gradient-4" x1="280.99" y1="321.34" x2="270.33" y2="310.68" xlink:href="#linear-gradient-2"/><linearGradient id="linear-gradient-5" x1="475.96" y1="84.3" x2="475.96" y2="260.75" gradientTransform="translate(0 363.09) scale(1 -1)" gradientUnits="userSpaceOnUse"><stop offset="0" stop-color="#241d1c"/><stop offset="1" stop-color="#d4b39c"/></linearGradient></defs><rect class="cls-4" x=".5" y=".5" width="720" height="378.91"/><g id="tempIcon"><path class="cls-5" d="M217.71,237.45V105.31c0-7.16-5.97-13.12-13.12-13.12s-13.12,5.97-13.12,13.12V237.15c-8.65,4.77-14.91,14.02-14.91,24.76,0,15.51,12.53,28.04,28.04,28.04s28.04-12.53,28.04-28.04c0-10.74-5.97-19.99-14.91-24.46h-.02Z"/><line class="cls-2" x1="198.92" y1="120.82" x2="210.55" y2="120.82"/><line class="cls-2" x1="198.92" y1="157.51" x2="210.55" y2="157.51"/><line class="cls-2" x1="198.92" y1="190.91" x2="210.55" y2="190.91"/><line class="cls-2" x1="198.92" y1="221.94" x2="210.55" y2="221.94"/><line class="cls-2" x1="198.92" y1="261.31" x2="210.55" y2="261.31"/><path class="cls-7" d="M196.53,254.45c-4.18,4.47-10.14,5.37-13.12,2.68-2.98-2.98-1.79-8.95,2.39-13.12s10.14-5.37,13.12-2.39,2.09,8.65-2.39,12.83Z"/></g><g id="tempIcon-2"><path class="cls-6" d="M302.21,237.45V105.31c0-7.16-5.97-13.12-13.12-13.12s-13.12,5.97-13.12,13.12V237.15c-8.65,4.77-14.91,14.02-14.91,24.76,0,15.51,12.53,28.04,28.04,28.04s28.04-12.53,28.04-28.04c0-10.74-5.97-19.99-14.91-24.46h-.02Z"/><line class="cls-2" x1="283.42" y1="120.82" x2="295.05" y2="120.82"/><line class="cls-2" x1="283.42" y1="157.51" x2="295.05" y2="157.51"/><line class="cls-2" x1="283.42" y1="190.91" x2="295.05" y2="190.91"/><line class="cls-2" x1="283.42" y1="221.94" x2="295.05" y2="221.94"/><line class="cls-2" x1="283.42" y1="261.31" x2="295.05" y2="261.31"/><path class="cls-8" d="M281.03,254.45c-4.18,4.47-10.14,5.37-13.12,2.68-2.98-2.98-1.79-8.95,2.39-13.12s10.14-5.37,13.12-2.39,2.09,8.65-2.39,12.83Z"/></g><g id="lavaFlows"><polygon class="cls-18" points="560.31 239.42 560.31 141.86 475.88 93.17 391.29 141.86 391.29 239.42 475.88 288.27 560.31 239.42"/><polygon class="cls-1" points="557.62 237.84 557.62 143.29 475.88 96.01 393.98 143.29 393.98 237.84 475.88 285.11 557.62 237.84"/><polygon class="cls-3" points="552.41 234.83 552.41 146.45 475.88 102.34 399.51 146.45 399.51 234.83 475.88 278.79 552.41 234.83"/><polygon class="cls-14" points="546.87 231.67 546.87 149.61 475.88 108.82 405.05 149.61 405.05 231.67 475.88 272.31 546.87 231.67"/><path class="cls-9" d="M559.84,236.57v-60.87h0q-83.96,12.49-168.07,0h0v60.87l83.96,48.54,84.11-48.54Z"/><g><path class="cls-16" d="M483.79,171.91h-15.81c-.95,0-1.42,.47-1.9,1.11-.63,1.11-1.26,2.37-1.9,3.48l-19.45,43.16c0,1.58,1.26,2.85,2.85,2.85h57.71c1.58,0,2.85-1.26,2.85-2.85l-21.5-44.75c-.95-1.9-1.26-3-2.85-3Z"/><ellipse class="cls-17" cx="478.01" cy="162.37" rx="13.76" ry="8.38" transform="translate(265.33 620.22) rotate(-83.85)"/><ellipse class="cls-12" cx="483.58" cy="164.39" rx="9.64" ry="5.85" transform="translate(133.77 536.55) rotate(-65.55)"/><ellipse class="cls-12" cx="472.56" cy="162.42" rx="5.85" ry="9.64" transform="translate(-23.97 106.31) rotate(-12.52)"/><ellipse class="cls-13" cx="476.51" cy="164.47" rx="21.19" ry="6.48"/><circle class="cls-10" cx="476.51" cy="165.26" r="8.85"/><path class="cls-15" d="M495.17,209.22c-.63-2.37-1.11-4.9-3.16-6.01-1.74-.95-3.16-.16-6.01-1.42-1.26-.63-2.06-1.26-3.48-2.53-3.32-2.85-5.22-5.69-5.69-6.32-2.85-3.95-10.59-7.11-17.08-6.64l-15.02,33.2c0,1.58,1.26,2.85,2.85,2.85h53.44c-.95-2.37-3.79-5.85-5.85-13.12Z"/><path class="cls-11" d="M486.63,174.91c-1.11-1.9-1.26-2.85-2.85-2.85h-15.81c-.95,0-1.42,.47-1.9,1.11-.63,1.11-1.26,2.37-1.9,3.48l-3.95,8.7c.16,.95,.47,1.74,1.26,2.37,.95,.79,1.74,.63,2.69,1.74,.95,1.11,.95,2.37,1.11,3.16,.63,11.38,.95,17.08,.47,20.71,0,.32-.16,1.42,.47,2.06,.63,.63,1.9,.79,2.69,.47,.63-.32,1.26-.79,1.9-2.37,1.11-2.85,.63-5.53,.63-6.01-1.9-12.17-1.58-14.07-.47-15.18,.63-.63,1.9-1.26,2.85-1.11,1.26,.32,1.9,1.9,2.06,2.53,.63,1.42,.16,1.9,.79,3.64,.32,1.11,.79,2.21,1.74,2.53s2.06-.16,2.69-.79c.63-.63,.63-1.9,.63-4.43,0-1.9-.16-2.37,.16-3.32,.16-.32,.79-1.9,1.9-2.06s2.06,.95,2.53,1.42c1.11,1.26,.79,1.9,1.9,2.69,.16,.16,1.26,.95,2.53,.63,1.42-.32,2.06-1.9,2.37-2.69s.47-1.74,.47-2.53l-6.96-13.91Z"/></g></g><path d="M586.77,127.26l-10.23-1.28,2.36-7.23,9.01,4.99c-.78,.85-1.17,1.79-1.17,2.8,0,.17,.01,.4,.04,.71Zm3.2,2.81l-4.39,9.35-6.12-4.47,7.52-7.07c.66,1.2,1.65,1.93,2.99,2.19Zm-3.47-16.84h7.59l-1.93,10.13c-.63-.31-1.25-.46-1.86-.46s-1.22,.15-1.83,.46l-1.97-10.13Zm7.16,14.65l7.52,7.07-6.15,4.47-4.36-9.35c1.31-.26,2.31-.99,2.99-2.19Zm-.95-4.13l9.04-4.99,2.32,7.23-10.23,1.28c.05-.31,.07-.54,.07-.71,0-1.02-.4-1.95-1.2-2.8Z"/></svg>