<?xml version="1.0" encoding="UTF-8"?><svg id="Layer" xmlns="http://www.w3.org/2000/svg" xmlns:xlink="http://www.w3.org/1999/xlink" viewBox="0 0 721 379.91"><defs><style>.cls-1{fill:none;stroke:#030304;stroke-width:1.62px;}.cls-1,.cls-2{stroke-miterlimit:10;}.cls-2{fill:#fff;opacity:0;stroke:#1d1d1b;}.cls-3{fill:url(#radial-gradient);}.cls-4{isolation:isolate;opacity:.29;}.cls-4,.cls-5{fill:#010202;}.cls-6{fill:#030304;}.cls-7{fill:url(#linear-gradient);}</style><linearGradient id="linear-gradient" x1="359.27" y1="320.59" x2="359.27" y2="98.59" gradientTransform="translate(0 -15.82)" gradientUnits="userSpaceOnUse"><stop offset="0" stop-color="#010202"/><stop offset="1" stop-color="#fff"/></linearGradient><radialGradient id="radial-gradient" cx="359.46" cy="209.59" fx="359.46" fy="209.59" r="96.9" gradientTransform="translate(0 -15.82)" gradientUnits="userSpaceOnUse"><stop offset="0" stop-color="#c9c7c7"/><stop offset="1" stop-color="#737171"/></radialGradient></defs><rect class="cls-2" x=".5" y=".5" width="720" height="378.91"/><g id="city"><polygon class="cls-5" points="458.49 251.13 458.49 136.6 359.37 79.43 260.07 136.6 260.07 251.13 359.37 308.48 458.49 251.13"/><polygon class="cls-7" points="455.33 249.27 455.33 138.27 359.37 82.77 263.22 138.27 263.22 249.27 359.37 304.77 455.33 249.27"/><polygon class="cls-3" points="449.21 245.74 449.21 141.98 359.37 90.2 269.72 141.98 269.72 245.74 359.37 297.34 449.21 245.74"/><path class="cls-4" d="M457.93,247.78v-71.46h0c-65.71,9.77-131.48,9.77-197.31,0h0v71.46l98.56,56.98,98.75-56.98Z"/><g id="city-logo"><path class="cls-1" d="M290.69,206.39c0-36.75,30.81-66.27,68.49-66.27"/><path class="cls-1" d="M427.49,206.39c0-36.75-31-66.27-69.24-66.27"/><rect class="cls-6" x="289.39" y="202.12" width="139.4" height="8.72"/><rect class="cls-6" x="296.63" y="193.96" width="4.27" height="8.17"/><rect class="cls-6" x="298.86" y="187.46" width="2.04" height="6.68"/><rect class="cls-6" x="305.17" y="193.03" width="7.61" height="9.28"/><rect class="cls-6" x="305.17" y="182.45" width="3.71" height="10.58"/><rect class="cls-6" x="315.19" y="190.61" width="3.16" height="11.32"/><rect class="cls-6" x="318.35" y="167.97" width="3.53" height="34.15"/><rect class="cls-6" x="320.21" y="164.26" width="1.86" height="3.53"/><rect class="cls-6" x="322.06" y="193.96" width="5.94" height="8.17"/><rect class="cls-6" x="326.89" y="189.87" width="1.11" height="4.27"/><rect class="cls-6" x="328" y="159.62" width="4.83" height="42.51"/><rect class="cls-6" x="332.83" y="167.23" width="2.41" height="34.71"/><rect class="cls-6" x="335.43" y="179.66" width="5.01" height="22.46"/><rect class="cls-6" x="340.44" y="184.3" width="3.16" height="18"/><rect class="cls-6" x="346.38" y="173.35" width="6.68" height="28.77"/><rect class="cls-6" x="353.25" y="184.67" width="3.34" height="17.45"/><rect class="cls-6" x="356.59" y="152.56" width="8.17" height="49.56"/><rect class="cls-6" x="368.65" y="163.51" width="4.27" height="38.61"/><rect class="cls-6" x="377.19" y="171.5" width="4.64" height="30.63"/><rect class="cls-6" x="372.55" y="191.91" width="4.64" height="10.21"/><rect class="cls-6" x="381.83" y="196.55" width="3.34" height="5.75"/><rect class="cls-6" x="389.07" y="193.4" width="2.97" height="8.54"/><rect class="cls-6" x="392.04" y="179.66" width="5.2" height="22.46"/><rect class="cls-6" x="397.05" y="169.27" width="3.71" height="32.85"/><rect class="cls-6" x="400.76" y="192.28" width="3.16" height="9.84"/><rect class="cls-6" x="405.77" y="186.34" width="4.08" height="15.78"/><rect class="cls-6" x="409.86" y="184.67" width="4.45" height="17.45"/><rect class="cls-6" x="417.1" y="194.33" width="2.04" height="7.98"/><rect class="cls-6" x="419.14" y="198.22" width="3.71" height="4.08"/></g></g><path d="M481.7,100.73l-12.08-1.51,2.78-8.53,10.63,5.89c-.92,1-1.38,2.11-1.38,3.31,0,.2,.01,.48,.04,.84Zm3.78,3.32l-5.19,11.04-7.22-5.28,8.88-8.35c.77,1.42,1.95,2.28,3.53,2.59Zm-4.1-19.88h8.96l-2.28,11.96c-.75-.36-1.48-.54-2.2-.54s-1.44,.18-2.16,.54l-2.32-11.96Zm8.46,17.29l8.88,8.35-7.26,5.28-5.15-11.04c1.55-.31,2.72-1.17,3.53-2.59Zm-1.13-4.88l10.67-5.89,2.74,8.53-12.08,1.51c.06-.36,.08-.64,.08-.84,0-1.2-.47-2.3-1.42-3.31Z"/></svg>