<?xml version="1.0" encoding="UTF-8"?><svg id="Layer" xmlns="http://www.w3.org/2000/svg" xmlns:xlink="http://www.w3.org/1999/xlink" viewBox="0 0 721 379.91"><defs><style>.cls-1{fill:url(#linear-gradient-2);}.cls-2{stroke-width:1.83px;}.cls-2,.cls-3{stroke:#030304;}.cls-2,.cls-3,.cls-4,.cls-5{stroke-miterlimit:10;}.cls-2,.cls-5{fill:none;}.cls-6,.cls-7{fill:#030404;}.cls-3{fill:#010202;stroke-width:1.86px;}.cls-8{fill:url(#linear-gradient-6);}.cls-7{opacity:.15;}.cls-7,.cls-9,.cls-10{isolation:isolate;}.cls-4{fill:#fff;opacity:0;stroke:#1d1d1b;}.cls-9{opacity:.08;}.cls-9,.cls-11{fill:#030304;}.cls-12{fill:#ce141e;}.cls-13{fill:#3d4920;}.cls-10{fill:#e03e17;opacity:.5;}.cls-5{stroke:#020303;stroke-width:1.84px;}.cls-14{fill:url(#linear-gradient-5);}.cls-15{fill:url(#linear-gradient-7);}.cls-16{fill:#96c227;}.cls-17{fill:url(#linear-gradient-3);}.cls-18{fill:url(#linear-gradient);}.cls-19{fill:url(#linear-gradient-4);}.cls-20{fill:#010101;}.cls-21{fill:url(#linear-gradient-8);}</style><linearGradient id="linear-gradient" x1="-464.58" y1="1756.75" x2="-388.52" y2="1680.67" gradientTransform="translate(-300.21 -1327.22) rotate(-45)" gradientUnits="userSpaceOnUse"><stop offset="0" stop-color="#030304"/><stop offset=".11" stop-color="#5c5b5b"/><stop offset="1" stop-color="#fff"/></linearGradient><linearGradient id="linear-gradient-2" x1="564.92" y1="444.24" x2="662.06" y2="444.24" gradientTransform="translate(0 -254.54)" gradientUnits="userSpaceOnUse"><stop offset="0" stop-color="#fff"/><stop offset=".51" stop-color="#fbfafa"/><stop offset="1" stop-color="#efefed"/></linearGradient><linearGradient id="linear-gradient-3" x1="390.36" y1="497.16" x2="390.36" y2="391.32" gradientTransform="translate(0 -254.54)" gradientUnits="userSpaceOnUse"><stop offset="0" stop-color="#3d4920"/><stop offset=".14" stop-color="#4d5e23"/><stop offset=".42" stop-color="#69852b"/><stop offset=".66" stop-color="#81a42c"/><stop offset=".86" stop-color="#8fb923"/><stop offset="1" stop-color="#96c227"/></linearGradient><linearGradient id="linear-gradient-4" x1="245.04" y1="448.4" x2="245.04" y2="406.1" gradientTransform="translate(0 -237.53)" gradientUnits="userSpaceOnUse"><stop offset="0" stop-color="#532a15"/><stop offset=".45" stop-color="#532a15" stop-opacity=".7"/><stop offset=".58" stop-color="#e03e17" stop-opacity=".5"/><stop offset="1" stop-color="#e03e17" stop-opacity=".5"/></linearGradient><linearGradient id="linear-gradient-5" x1="107.05" y1="497.86" x2="107.05" y2="390.63" gradientTransform="translate(0 -254.54)" gradientUnits="userSpaceOnUse"><stop offset=".16" stop-color="#823a13"/><stop offset=".18" stop-color="#985c1a"/><stop offset=".22" stop-color="#ae7d22"/><stop offset=".26" stop-color="#c39d26"/><stop offset=".3" stop-color="#d6b92e"/><stop offset=".35" stop-color="#e4cf36"/><stop offset=".41" stop-color="#efe036"/><stop offset=".48" stop-color="#f6e947"/><stop offset=".58" stop-color="#f8ea4e"/><stop offset=".86" stop-color="#f6ea4d"/><stop offset="1" stop-color="#fcf4f9"/></linearGradient><linearGradient id="linear-gradient-6" x1="107.05" y1="384.91" x2="107.05" y2="548.83" gradientTransform="translate(0 -254.54)" gradientUnits="userSpaceOnUse"><stop offset=".26" stop-color="#f6ea4d"/><stop offset=".86" stop-color="#803813"/></linearGradient><linearGradient id="linear-gradient-7" x1="107.1" y1="496.37" x2="107.1" y2="392.2" gradientTransform="translate(0 -254.54)" gradientUnits="userSpaceOnUse"><stop offset=".16" stop-color="#803813"/><stop offset=".17" stop-color="#8c471e"/><stop offset=".18" stop-color="#a26b3c"/><stop offset=".2" stop-color="#b78954"/><stop offset=".22" stop-color="#c7a468"/><stop offset=".24" stop-color="#d7bb7a"/><stop offset=".26" stop-color="#e2cc88"/><stop offset=".3" stop-color="#ead891"/><stop offset=".34" stop-color="#eede97"/><stop offset=".46" stop-color="#efe097"/><stop offset=".7" stop-color="#803813"/><stop offset=".73" stop-color="#e6d234"/><stop offset=".74" stop-color="#ebd948"/><stop offset=".75" stop-color="#eede6d"/><stop offset=".77" stop-color="#f0e28a"/><stop offset=".79" stop-color="#f8ebaa"/><stop offset=".8" stop-color="#f8edbf"/><stop offset=".83" stop-color="#faf0cf"/><stop offset=".85" stop-color="#fcf2da"/><stop offset=".89" stop-color="#fdf4e1"/><stop offset=".99" stop-color="#fdf5e3"/></linearGradient><linearGradient id="linear-gradient-8" x1="107.04" y1="407.48" x2="107.04" y2="568.28" gradientTransform="translate(0 -254.54)" gradientUnits="userSpaceOnUse"><stop offset=".26" stop-color="#f6ea4d"/><stop offset=".77" stop-color="#803813"/></linearGradient></defs><rect class="cls-4" x=".5" y=".5" width="720" height="378.91"/><g id="science"><rect class="cls-6" x="556.42" y="132.63" width="114.16" height="114.16"/><rect class="cls-18" x="559.7" y="135.92" width="107.57" height="107.57"/><polygon class="cls-1" points="662.06 141.14 662.06 238.27 564.92 238.27 564.92 141.14 662.06 141.14"/><path class="cls-2" d="M625.53,190.58c0,20.23-4.58,36.61-10.17,36.61s-10.17-16.38-10.17-36.61,4.58-36.61,10.17-36.61,10.17,16.49,10.17,36.61Z"/><path class="cls-2" d="M610.24,181.79c17.49-10.06,33.97-14.37,36.8-9.52,2.83,4.85-9.06,17.03-26.63,27.1-17.49,10.17-33.97,14.37-36.71,9.52-2.75-4.85,9.06-17.03,26.55-27.1h0Z"/><path class="cls-2" d="M620.4,181.79c-17.49-10.06-33.97-14.37-36.8-9.43s9.15,16.94,26.63,27.1c17.49,10.17,33.97,14.29,36.8,9.43,2.83-4.85-9.15-17.03-26.63-27.1Z"/><path id="darker" class="cls-7" d="M667.28,243.5h-107.57v-58.95s33.87,5.22,53.74,5.22,53.84-5.22,53.84-5.22v58.95h-.01Z"/><path class="cls-11" d="M619.21,190.58c0,2.11-1.74,3.85-3.85,3.85s-3.85-1.74-3.85-3.85,1.74-3.85,3.85-3.85,3.85,1.74,3.85,3.85Z"/></g><path d="M499.92,184.49v-11.89h11.89v11.89h-11.89Zm0,32.21v-11.89h11.89v11.89h-11.89Z"/><path d="M460.58,150.01l-10.17-1.27,2.35-7.18,8.95,4.96c-.77,.85-1.15,1.76-1.15,2.78,0,.16,0,.4,.03,.71h-.01Zm3.17,2.79l-4.36,9.29-6.08-4.44,7.47-7.03c.66,1.18,1.64,1.92,2.97,2.18h0Zm-3.45-16.72h7.55l-1.92,10.06c-.62-.31-1.25-.45-1.85-.45s-1.2,.15-1.82,.45l-1.96-10.06h0Zm7.11,14.55l7.47,7.03-6.12,4.44-4.32-9.29c1.3-.26,2.29-.98,2.97-2.18h0Zm-.95-4.11l8.97-4.96,2.3,7.18-10.17,1.27c.04-.31,.07-.54,.07-.71,0-1.01-.4-1.94-1.18-2.78Z"/><g id="tagMicrobe"><path class="cls-11" d="M447.42,189.7c0,31.53-25.63,57.14-57.14,57.14s-57.14-25.63-57.14-57.14,25.63-57.14,57.14-57.14,57.14,25.53,57.14,57.14Z"/><path class="cls-17" d="M443.27,189.7c0,29.22-23.68,52.92-52.92,52.92s-52.92-23.68-52.92-52.92,23.68-52.92,52.92-52.92c29.22-.08,52.92,23.6,52.92,52.92Z"/><path class="cls-16" d="M438.1,189.7c0,26.36-21.38,47.84-47.84,47.84s-47.75-21.49-47.75-47.84,21.38-47.84,47.84-47.84,47.75,21.38,47.75,47.84Z"/><g id="microbes"><polygon class="cls-13" points="392.38 195.69 388.15 196.25 388.7 200.49 384.55 199.75 383.81 203.99 380.04 202.06 378.1 205.94 375.06 202.98 372.1 206.02 369.99 202.34 366.3 204.37 365.37 200.22 361.23 201.14 361.6 196.89 357.36 196.53 359.02 192.57 355.06 190.91 357.72 187.67 354.5 184.91 358.01 182.61 355.69 179.02 359.75 177.81 358.55 173.75 362.79 173.85 362.89 169.52 366.94 170.9 368.24 166.85 371.74 169.24 374.13 165.83 376.81 169.15 380.13 166.57 381.6 170.53 385.66 169.05 385.84 173.3 390.18 173.02 389.16 177.18 393.31 178.18 391.1 181.78 394.78 183.99 391.56 186.85 394.41 189.99 390.55 191.83 392.38 195.69"/><polygon class="cls-13" points="428.98 178.74 427.5 179.2 427.5 181.05 425.39 180.4 423.91 181.78 421.8 180.31 419.59 180.86 413.31 181.69 410.73 181.41 408.06 176.25 404.92 175.42 402.42 172.75 399.49 171.18 397.18 168.5 394.41 167.21 392.75 163.99 390.37 162.04 389.44 159.66 387.69 157.81 387.5 155.88 386.12 154.13 387.31 152.93 387.41 150.99 388.7 151.07 389.9 149.7 391.64 150.52 394.51 147.77 396.72 149.43 399.3 149.51 401.79 151.45 404.83 152.18 406.4 156.42 409.62 157.72 411.83 160.4 414.88 162.15 416.72 164.73 419.67 166.66 424.46 169.24 426.68 171.45 427.05 173.3 428.61 175.14 428.16 176.8 428.98 178.74"/><polygon class="cls-13" points="424.28 198.92 424.55 199.48 425.21 200.77 423.99 201.51 424.1 202.98 421.15 204.09 419.95 205.84 416.45 209.34 412.48 211.19 407.13 212.75 404 214.69 399.76 215.7 396.26 217.36 392.11 218.1 388.79 219.76 384.74 219.94 381.14 221.05 378.37 220.95 375.42 221.6 373.58 221.05 370.99 221.51 370.81 220.21 370.07 219.94 370.26 218.65 370.07 217.36 372.02 216.34 371.92 213.3 374.97 212.2 377.09 210.35 380.59 209.16 384.74 208.05 388.51 207.5 392.11 205.47 396.07 204.83 399.94 203.17 403.72 202.62 407.59 201.14 413.5 198.46 417.18 197.54 419.12 197.91 421.8 197.35 422.9 198.28 424.28 198.92"/></g><path id="ciemniej" class="cls-9" d="M443.27,189.7c0-1.11,0-2.11-.08-3.14-10.7,2.95-29.03,6.73-52.82,6.73s-41.58-4.7-52.73-8.57c-.19,1.66-.27,3.32-.27,4.98,0,29.22,23.68,52.92,52.92,52.92s53-23.68,53-52.92h-.01Z"/></g><g id="arrow"><path class="cls-10" d="M303.97,189.7l-56.21-25.99,6.81,13.51h-63.36s-1.91,6.09-1.91,11.94,1.91,10.63,1.91,10.63h64.55l-8.01,15.89,56.21-25.99h.01Z"/><path class="cls-19" d="M259.48,197.51h-66.62c-.52-1.73-1.27-4.85-1.27-8.34,0-3.7,.82-7.55,1.36-9.65h65.33l-5.52-10.95,45.73,21.15-45.73,21.15,6.72-13.34h0v-.02h-.01Z"/><path class="cls-12" d="M264.4,194.48h-69.2c-.32-1.47-.59-3.33-.59-5.31,0-2.31,.37-4.72,.74-6.62h67.84l-3.82-7.59,31.91,14.74-31.91,14.74,5.02-9.98h.01Z"/><path class="cls-5" d="M259.48,197.51h-66.62c-.52-1.73-1.27-4.85-1.27-8.34,0-3.7,.82-7.55,1.36-9.65h65.33l-5.52-10.95,45.73,21.15-45.73,21.15,6.72-13.34h0v-.02h-.01Z"/></g><g id="mln"><polygon id="obram_czarne" class="cls-3" points="67.36 132.82 50.12 150.05 50.12 229.34 67.36 246.59 146.74 246.59 163.9 229.34 163.9 150.05 146.74 132.82 67.36 132.82"/><polygon id="obram_zolte" class="cls-14" points="69.59 136.09 53.47 152.29 53.47 227.11 69.59 243.33 144.42 243.33 160.63 227.11 160.63 152.29 144.42 136.09 69.59 136.09"/><polygon id="tlo_wew" class="cls-8" points="70.7 137.66 54.97 153.41 54.97 226 70.7 241.74 143.39 241.74 159.14 226 159.14 153.41 143.39 137.66 70.7 137.66"/><path id="obram_skosne" class="cls-15" d="M151.58,209.78c-2.89,0-5.22-2.33-5.22-5.22v-29.72c0-2.89,2.33-5.22,5.22-5.22h7.46v-16.21l-15.65-15.75h-16.31v7.46c0,2.89-2.33,5.22-5.22,5.22h-29.72c-2.89,0-5.22-2.33-5.22-5.22v-7.46h-16.21l-15.75,15.75v16.31h7.46c2.89,0,5.22,2.33,5.22,5.22v29.72c0,2.89-2.33,5.22-5.22,5.22h-7.46v16.21l15.75,15.75h16.31v-7.46c0-2.89,2.33-5.22,5.22-5.22h29.72c2.89,0,5.22,2.33,5.22,5.22v7.46h16.31l15.75-15.75v-16.31h-7.65Z"/><path id="tlo_zew" class="cls-21" d="M151.31,211.56c-3.54,0-6.44-3.54-6.44-7.08v-29.54c0-3.54,2.89-7.08,6.44-7.08h6.06v-13.23l-15.28-15.19h-13.15v6.06c0,3.54-3.54,6.44-7.08,6.44h-29.54c-3.54,0-7.08-2.89-7.08-6.44v-6.06h-13.33l-15.19,15.19v13.23h6.06c3.54,0,6.44,3.54,6.44,7.08v29.54c0,3.54-2.89,7.08-6.44,7.08h-6.06v13.23l15.19,15.19h13.23v-6.06c0-3.54,3.54-6.44,7.08-6.44h29.44c3.54,0,7.08,2.89,7.08,6.44v6.06h13.23l15.19-15.19v-13.23h-5.85Z"/></g><path class="cls-20" d="M104.42,213.18v-45.69h-6.91l-.2-5.17,17.46-1.5v52.33h-10.35v.02h0Z"/></svg>