<?xml version="1.0" encoding="UTF-8"?><svg id="Layer" xmlns="http://www.w3.org/2000/svg" xmlns:xlink="http://www.w3.org/1999/xlink" viewBox="0 0 721 379.91"><defs><style>.cls-1{fill:url(#linear-gradient-2);}.cls-2,.cls-3{fill:#030404;}.cls-4{fill:#cf1820;}.cls-5{fill:url(#linear-gradient-6);}.cls-3{opacity:.15;}.cls-3,.cls-6{isolation:isolate;}.cls-7{opacity:0;stroke:#1d1d1b;}.cls-7,.cls-8,.cls-9,.cls-10{stroke-miterlimit:10;}.cls-7,.cls-10{fill:#fff;}.cls-8{fill:none;stroke:#030304;stroke-width:1.86px;}.cls-11{fill:url(#linear-gradient-5);}.cls-9{fill:#020303;stroke-width:1.91px;}.cls-9,.cls-10{stroke:#030404;}.cls-6{fill:#e03f19;opacity:.5;}.cls-12{fill:#80368c;}.cls-13{fill:url(#linear-gradient-3);}.cls-14{fill:url(#linear-gradient);}.cls-15{fill:#010202;}.cls-10{stroke-width:.94px;}.cls-16{fill:url(#linear-gradient-4);}</style><linearGradient id="linear-gradient" x1="-553.26" y1="1779.43" x2="-475.79" y2="1701.97" gradientTransform="translate(-332.31 -1404.71) rotate(-45)" gradientUnits="userSpaceOnUse"><stop offset="0" stop-color="#1d1527"/><stop offset=".24" stop-color="#372348"/><stop offset=".49" stop-color="#583c6c"/><stop offset=".71" stop-color="#73518d"/><stop offset=".89" stop-color="#835ca1"/><stop offset="1" stop-color="#8964a8"/></linearGradient><linearGradient id="linear-gradient-2" x1="330.56" y1="467.67" x2="330.56" y2="424.73" gradientTransform="translate(0 -256.22)" gradientUnits="userSpaceOnUse"><stop offset="0" stop-color="#522b16"/><stop offset=".45" stop-color="#522b16" stop-opacity=".7"/><stop offset=".58" stop-color="#e03f19" stop-opacity=".5"/><stop offset="1" stop-color="#e03f19" stop-opacity=".5"/></linearGradient><linearGradient id="linear-gradient-3" x1="186.44" y1="517.96" x2="186.44" y2="408.42" gradientTransform="translate(0 -273.23)" gradientUnits="userSpaceOnUse"><stop offset=".16" stop-color="#823b14"/><stop offset=".18" stop-color="#995d1a"/><stop offset=".22" stop-color="#ae7d22"/><stop offset=".26" stop-color="#c39d25"/><stop offset=".3" stop-color="#d6b92e"/><stop offset=".35" stop-color="#e4cf36"/><stop offset=".41" stop-color="#efe036"/><stop offset=".48" stop-color="#f5e94d"/><stop offset=".58" stop-color="#f8eb53"/><stop offset=".86" stop-color="#f5ea52"/><stop offset="1" stop-color="#fcf4f9"/></linearGradient><linearGradient id="linear-gradient-4" x1="186.44" y1="402.62" x2="186.44" y2="570.08" gradientTransform="translate(0 -273.23)" gradientUnits="userSpaceOnUse"><stop offset=".26" stop-color="#f5ea52"/><stop offset=".86" stop-color="#813a14"/></linearGradient><linearGradient id="linear-gradient-5" x1="186.33" y1="516.45" x2="186.33" y2="410.14" gradientTransform="translate(0 -273.23)" gradientUnits="userSpaceOnUse"><stop offset=".16" stop-color="#813a14"/><stop offset=".17" stop-color="#8d481f"/><stop offset=".18" stop-color="#a36c3d"/><stop offset=".2" stop-color="#b78954"/><stop offset=".22" stop-color="#c7a468"/><stop offset=".24" stop-color="#d7bb7a"/><stop offset=".26" stop-color="#e2cc88"/><stop offset=".3" stop-color="#ead891"/><stop offset=".34" stop-color="#eede97"/><stop offset=".46" stop-color="#efe097"/><stop offset=".7" stop-color="#813a14"/><stop offset=".73" stop-color="#e6d234"/><stop offset=".74" stop-color="#ebda49"/><stop offset=".75" stop-color="#eede6d"/><stop offset=".77" stop-color="#f0e18a"/><stop offset=".79" stop-color="#f8ebab"/><stop offset=".8" stop-color="#f8edbf"/><stop offset=".83" stop-color="#faf0cf"/><stop offset=".85" stop-color="#fcf2da"/><stop offset=".89" stop-color="#fdf4e1"/><stop offset=".99" stop-color="#fdf5e3"/></linearGradient><linearGradient id="linear-gradient-6" x1="186.44" y1="425.68" x2="186.44" y2="589.92" gradientTransform="translate(0 -273.23)" gradientUnits="userSpaceOnUse"><stop offset=".26" stop-color="#f5ea52"/><stop offset=".77" stop-color="#813a14"/></linearGradient></defs><rect class="cls-7" x=".5" y=".5" width="720" height="378.91"/><g><g id="energy"><rect class="cls-2" x="476.51" y="131.84" width="116.22" height="116.22"/><rect class="cls-14" x="479.95" y="135.18" width="109.54" height="109.54"/><polygon class="cls-12" points="584.11 140.57 584.11 239.45 485.23 239.45 485.23 140.57 584.11 140.57"/><polygon class="cls-10" points="522.61 178.7 555.24 158.45 537.79 183.76 547.06 198.73 514.96 218.98 531.11 193.78 522.61 178.7"/><path id="darker" class="cls-3" d="M589.39,244.72h-109.43v-60s34.47,5.28,54.72,5.28,54.83-5.28,54.83-5.28v60h-.11Z"/></g><path d="M408.32,219.95l19.82-30.48-18.96-31.45h15.08l12.6,20.9,13.68-20.9h10.45l-19.06,29.3,19.71,32.74h-14.97l-13.46-22.3-14.43,22.3h-10.45v-.11Z"/><g id="arrow"><path class="cls-6" d="M390.44,190.01l-57.09-26.39,6.89,13.68h-64.3s-1.94,6.14-1.94,12.17,1.94,10.77,1.94,10.77h65.49l-8.08,16.16,57.09-26.39h0Z"/><path class="cls-1" d="M345.2,197.87h-67.64c-.54-1.72-1.29-4.95-1.29-8.51,0-3.77,.86-7.65,1.4-9.8h66.35l-5.6-11.09,46.42,21.54-46.42,21.43,6.79-13.57h0Z"/><path class="cls-4" d="M350.27,194.85h-70.23c-.32-1.51-.54-3.34-.54-5.39,0-2.37,.43-4.74,.75-6.68h68.72l-3.88-7.76,32.42,14.97-32.42,14.97,5.17-10.12h0Z"/><path class="cls-8" d="M345.2,197.87h-67.64c-.54-1.72-1.29-4.95-1.29-8.51,0-3.77,.86-7.65,1.4-9.8h66.35l-5.6-11.09,46.42,21.54-46.42,21.43,6.79-13.57h0Z"/></g><g id="mln"><polygon id="obram_czarne" class="cls-9" points="145.83 131.84 128.27 149.51 128.27 230.51 145.83 248.06 226.94 248.06 244.49 230.51 244.49 149.51 226.94 131.84 145.83 131.84"/><polygon id="obram_zolte" class="cls-13" points="148.2 135.18 131.72 151.77 131.72 228.24 148.2 244.72 224.57 244.72 241.16 228.24 241.16 151.77 224.57 135.18 148.2 135.18"/><polygon id="tlo_wew" class="cls-16" points="149.28 136.8 133.23 152.95 133.23 227.06 149.28 243.11 223.49 243.11 239.65 227.06 239.65 152.95 223.49 136.8 149.28 136.8"/><path id="obram_skosne" class="cls-11" d="M231.89,210.47c-2.91,0-5.39-2.37-5.39-5.28v-30.37c0-2.91,2.37-5.39,5.39-5.39h7.65v-16.48l-16.05-16.05h-16.7v7.65c0,2.91-2.37,5.39-5.39,5.39h-30.37c-2.91,0-5.39-2.37-5.39-5.39v-7.65h-16.59l-16.05,16.05v16.59h7.65c2.91,0,5.28,2.37,5.28,5.39v30.37c0,2.91-2.37,5.28-5.28,5.28h-7.65v16.59l16.05,16.05h16.7v-7.65c0-2.91,2.37-5.28,5.39-5.28h30.37c2.91,0,5.39,2.37,5.39,5.28v7.65h16.7l16.05-16.05v-16.7h-7.76Z"/><path id="tlo_zew" class="cls-5" d="M231.68,212.3c-3.66,0-6.57-3.66-6.57-7.22v-30.16c0-3.66,2.91-7.22,6.57-7.22h6.14v-13.57l-15.62-15.51h-13.46v6.14c0,3.66-3.66,6.57-7.22,6.57h-30.16c-3.66,0-7.22-2.91-7.22-6.57v-6.14h-13.57l-15.51,15.51v13.46h6.14c3.66,0,6.57,3.66,6.57,7.22v30.16c0,3.66-2.91,7.22-6.57,7.22h-6.14v13.57l15.51,15.51h13.57v-6.14c0-3.66,3.66-6.57,7.22-6.57h30.05c3.66,0,7.22,2.91,7.22,6.57v6.14h13.46l15.51-15.51v-13.46h-5.92Z"/></g><path class="cls-15" d="M163.07,216.29l17.23-26.5-16.48-27.36h13.03l10.99,18.2,11.85-18.2h9.05l-16.48,25.42,17.13,28.44h-13.03l-11.63-19.28-12.49,19.28h-9.16Z"/></g></svg>