<?xml version="1.0" encoding="UTF-8"?><svg id="Layer" xmlns="http://www.w3.org/2000/svg" xmlns:xlink="http://www.w3.org/1999/xlink" viewBox="0 0 721 379.91"><defs><style>.cls-1{fill:url(#linear-gradient-2);}.cls-2{fill:url(#linear-gradient-6);}.cls-3{stroke-width:.93px;}.cls-3,.cls-4{fill:#fff;}.cls-3,.cls-4,.cls-5{stroke-miterlimit:10;}.cls-3,.cls-5{stroke:#030304;}.cls-6{fill:#1f1f1e;}.cls-4{opacity:0;stroke:#1d1d1b;}.cls-7{fill:url(#linear-gradient-10);}.cls-8{opacity:.15;}.cls-8,.cls-9{isolation:isolate;}.cls-8,.cls-10{fill:#030304;}.cls-9{fill:url(#Nowy_wzorek_4);opacity:.1;}.cls-11{fill:url(#linear-gradient-5);}.cls-12{fill:none;}.cls-13{fill:url(#linear-gradient-7);}.cls-14{fill:url(#linear-gradient-9);}.cls-15{fill:#7f358b;}.cls-16{fill:url(#linear-gradient-3);}.cls-17{fill:url(#linear-gradient);}.cls-18{fill:url(#linear-gradient-4);}.cls-5{fill:#010202;stroke-width:1.91px;}.cls-19{fill:#010101;}.cls-20{fill:url(#linear-gradient-8);}</style><linearGradient id="linear-gradient" x1="572.01" y1="654.8" x2="150.26" y2="233.05" gradientTransform="translate(0 -252.64)" gradientUnits="userSpaceOnUse"><stop offset="0" stop-color="#9e9d9c"/><stop offset=".54" stop-color="#010202"/><stop offset="1" stop-color="#9e9d9c"/></linearGradient><linearGradient id="linear-gradient-2" x1="361.21" y1="594.45" x2="361.21" y2="293.43" gradientTransform="translate(0 -252.64)" gradientUnits="userSpaceOnUse"><stop offset="0" stop-color="#462c1b"/><stop offset="1" stop-color="#b18048"/></linearGradient><linearGradient id="linear-gradient-3" x1="361.15" y1="590.27" x2="361.15" y2="297.47" gradientTransform="translate(0 -252.64)" gradientUnits="userSpaceOnUse"><stop offset="0" stop-color="#946137"/><stop offset="1" stop-color="#805127"/></linearGradient><pattern id="Nowy_wzorek_4" x="0" y="0" width="19.7" height="21.7" patternTransform="translate(43.9 16649.47)" patternUnits="userSpaceOnUse" viewBox="0 0 19.7 21.7"><g><rect class="cls-12" width="19.7" height="21.7"/><g><rect class="cls-12" width="19.7" height="21.7"/><g><rect class="cls-12" width="19.7" height="21.7"/><g><rect class="cls-12" width="19.7" height="21.7"/><g><rect class="cls-12" width="19.7" height="21.7"/><path class="cls-6" d="M16.6,8.7c2.1,2.1,2.1,5.6,0,7.7l-1.2,1.2c-2.1,2.1-5.6,2.1-7.8,0L3.1,13c-2.1-2.1-2.1-5.6,0-7.7l1.2-1.2c2.1-2.1,5.6-2.1,7.7,0l4.6,4.6Z"/></g></g></g></g></g></pattern><linearGradient id="linear-gradient-4" x1="-457.15" y1="1491" x2="-379.93" y2="1413.8" gradientTransform="translate(-191.13 -1064.43) rotate(-45)" gradientUnits="userSpaceOnUse"><stop offset="0" stop-color="#1d1427"/><stop offset=".24" stop-color="#372348"/><stop offset=".49" stop-color="#573b6c"/><stop offset=".71" stop-color="#72508c"/><stop offset=".89" stop-color="#835ca0"/><stop offset="1" stop-color="#8963a7"/></linearGradient><linearGradient id="linear-gradient-5" x1="401.94" y1="431.94" x2="401.94" y2="322.75" gradientTransform="translate(0 -253.65)" gradientUnits="userSpaceOnUse"><stop offset=".16" stop-color="#823a13"/><stop offset=".18" stop-color="#985c1a"/><stop offset=".22" stop-color="#ae7d22"/><stop offset=".26" stop-color="#c39d26"/><stop offset=".3" stop-color="#d6b92e"/><stop offset=".35" stop-color="#e4cf36"/><stop offset=".41" stop-color="#efe036"/><stop offset=".48" stop-color="#f6e947"/><stop offset=".58" stop-color="#f8ea4e"/><stop offset=".86" stop-color="#f6ea4d"/><stop offset="1" stop-color="#fcf4f9"/></linearGradient><linearGradient id="linear-gradient-6" x1="401.96" y1="316.93" x2="401.96" y2="483.84" gradientTransform="translate(0 -253.65)" gradientUnits="userSpaceOnUse"><stop offset=".26" stop-color="#f6ea4d"/><stop offset=".86" stop-color="#803813"/></linearGradient><linearGradient id="linear-gradient-7" x1="402.01" y1="430.43" x2="402.01" y2="324.35" gradientTransform="translate(0 -253.65)" gradientUnits="userSpaceOnUse"><stop offset=".16" stop-color="#803813"/><stop offset=".17" stop-color="#8c471e"/><stop offset=".18" stop-color="#a26b3c"/><stop offset=".2" stop-color="#b78954"/><stop offset=".22" stop-color="#c7a468"/><stop offset=".24" stop-color="#d7bb7a"/><stop offset=".26" stop-color="#e2cc88"/><stop offset=".3" stop-color="#ead891"/><stop offset=".34" stop-color="#eede97"/><stop offset=".46" stop-color="#efe097"/><stop offset=".7" stop-color="#803813"/><stop offset=".73" stop-color="#e6d234"/><stop offset=".74" stop-color="#ebd948"/><stop offset=".75" stop-color="#eede6d"/><stop offset=".77" stop-color="#f0e28a"/><stop offset=".79" stop-color="#f8ebaa"/><stop offset=".8" stop-color="#f8edbf"/><stop offset=".83" stop-color="#faf0cf"/><stop offset=".85" stop-color="#fcf2da"/><stop offset=".89" stop-color="#fdf4e1"/><stop offset=".99" stop-color="#fdf5e3"/></linearGradient><linearGradient id="linear-gradient-8" x1="401.93" y1="339.92" x2="401.93" y2="503.62" gradientTransform="translate(0 -253.65)" gradientUnits="userSpaceOnUse"><stop offset=".26" stop-color="#f6ea4d"/><stop offset=".77" stop-color="#803813"/></linearGradient><linearGradient id="linear-gradient-9" x1="-554.65" y1="1393.49" x2="-477.46" y2="1316.29" xlink:href="#linear-gradient-4"/><linearGradient id="linear-gradient-10" x1="-652.16" y1="1295.99" x2="-574.97" y2="1218.77" xlink:href="#linear-gradient-4"/></defs><rect class="cls-4" x=".5" y=".5" width="720" height="378.91"/><g id="prodBg"><rect id="external-border" class="cls-17" x="94.5" y="36.18" width="533.27" height="310.23"/><rect id="internal-border" class="cls-1" x="99.11" y="40.79" width="524.2" height="301.02"/><rect id="bg" class="cls-16" x="103.15" y="44.83" width="516" height="292.8"/><rect id="bgPattern" class="cls-9" x="103.15" y="44.83" width="516" height="292.8"/></g><path class="cls-19" d="M152.42,289.34v-24.25h-24.25v-9.95h24.25v-24.25h9.95v24.25h24.25v9.95h-24.25v24.25h-9.95Z"/><g id="energy"><rect class="cls-10" x="482" y="200.61" width="115.84" height="115.84"/><rect class="cls-18" x="485.34" y="203.94" width="109.17" height="109.17"/><polygon class="cls-15" points="589.21 209.23 589.21 307.82 490.65 307.82 490.65 209.23 589.21 209.23"/><polygon class="cls-3" points="527.91 247.24 560.4 227.08 543.03 252.26 552.23 267.22 520.29 287.38 536.36 262.28 527.91 247.24"/><path id="darker" class="cls-8" d="M594.5,313.11h-109.17v-59.82s34.37,5.29,54.53,5.29,54.63-5.29,54.63-5.29v59.82h0Z"/></g><g id="mln"><polygon id="obram_czarne" class="cls-5" points="361.53 65.76 343.97 83.31 343.97 164.07 361.53 181.63 442.36 181.63 459.84 164.07 459.84 83.31 442.36 65.76 361.53 65.76"/><polygon id="obram_zolte" class="cls-11" points="363.81 69.1 347.38 85.6 347.38 161.79 363.81 178.29 440 178.29 456.5 161.79 456.5 85.6 440 69.1 363.81 69.1"/><polygon id="tlo_wew" class="cls-2" points="364.96 70.7 348.91 86.75 348.91 160.64 364.96 176.69 438.95 176.69 455 160.64 455 86.75 438.95 70.7 364.96 70.7"/><path id="obram_skosne" class="cls-13" d="M447.3,144.14c-2.93,0-5.32-2.38-5.32-5.32v-30.26c0-2.93,2.38-5.32,5.32-5.32h7.6v-16.5l-15.95-16.05h-16.6v7.6c0,2.93-2.38,5.32-5.32,5.32h-30.26c-2.93,0-5.32-2.38-5.32-5.32v-7.6h-16.5l-16.05,16.05v16.6h7.6c2.93,0,5.32,2.38,5.32,5.32v30.26c0,2.93-2.38,5.32-5.32,5.32h-7.6v16.5l16.05,16.05h16.6v-7.6c0-2.93,2.38-5.32,5.32-5.32h30.26c2.93,0,5.32,2.38,5.32,5.32v7.6h16.6l16.05-16.05v-16.6h-7.8Z"/><path id="tlo_zew" class="cls-20" d="M447.02,145.95c-3.61,0-6.54-3.61-6.54-7.22v-30.09c0-3.61,2.93-7.22,6.54-7.22h6.17v-13.46l-15.57-15.47h-13.39v6.17c0,3.61-3.61,6.54-7.22,6.54h-30.09c-3.61,0-7.22-2.93-7.22-6.54v-6.17h-13.56l-15.47,15.47v13.46h6.17c3.61,0,6.54,3.61,6.54,7.22v30.09c0,3.61-2.93,7.22-6.54,7.22h-6.17v13.46l15.47,15.47h13.46v-6.17c0-3.61,3.61-6.54,7.22-6.54h29.99c3.61,0,7.22,2.93,7.22,6.54v6.17h13.46l15.47-15.47v-13.46h-5.94Z"/></g><g><path class="cls-19" d="M371.48,129.4v-6.12h14.67v6.12h-14.67Z"/><path class="cls-19" d="M393.19,147.15v-7.72c2.96-3.96,5.82-7.17,8.57-9.58l3.99-3.54c2.86-2.53,5.22-5.04,7.1-7.52s2.81-5.06,2.81-7.77c0-2.46-.78-4.34-2.36-5.67s-3.71-2.01-6.39-2.01c-3.56,0-7.72,1.2-12.46,3.64v-7.17c4.96-1.86,9.78-2.78,14.42-2.78,5.14,0,9.28,1.23,12.44,3.69s4.74,5.74,4.74,9.88c0,2.61-.68,5.06-2.01,7.35-1.33,2.31-4.11,5.14-8.3,8.55l-3.31,2.63c-1.45,1.18-3.03,2.66-4.76,4.49s-2.86,3.76-3.41,5.82h21.59v7.72h-32.64Z"/></g><g id="energy-2"><rect class="cls-10" x="344.1" y="200.61" width="115.84" height="115.84"/><rect class="cls-14" x="347.44" y="203.94" width="109.17" height="109.17"/><polygon class="cls-15" points="451.31 209.23 451.31 307.82 352.75 307.82 352.75 209.23 451.31 209.23"/><polygon class="cls-3" points="390.01 247.24 422.5 227.08 405.13 252.26 414.33 267.22 382.39 287.38 398.46 262.28 390.01 247.24"/><path id="darker-2" class="cls-8" d="M456.6,313.11h-109.17v-59.82s34.37,5.29,54.53,5.29,54.63-5.29,54.63-5.29v59.82Z"/></g><g id="energy-3"><rect class="cls-10" x="206.2" y="200.61" width="115.84" height="115.84"/><rect class="cls-7" x="209.53" y="203.94" width="109.17" height="109.17"/><polygon class="cls-15" points="313.41 209.23 313.41 307.82 214.85 307.82 214.85 209.23 313.41 209.23"/><polygon class="cls-3" points="252.11 247.24 284.6 227.08 267.23 252.26 276.43 267.22 244.49 287.38 260.56 262.28 252.11 247.24"/><path id="darker-3" class="cls-8" d="M318.7,313.11h-109.17v-59.82s34.37,5.29,54.53,5.29,54.63-5.29,54.63-5.29v59.82Z"/></g></svg>