<?xml version="1.0" encoding="UTF-8"?><svg id="Layer" xmlns="http://www.w3.org/2000/svg" xmlns:xlink="http://www.w3.org/1999/xlink" viewBox="0 0 721 379.91"><defs><style>.cls-1{fill:url(#linear-gradient-2);}.cls-2{fill:#e62e25;}.cls-3,.cls-4{fill:#030404;}.cls-5{fill:#20201e;}.cls-4{opacity:.05;}.cls-4,.cls-6,.cls-7{isolation:isolate;}.cls-8{fill:url(#linear-gradient-6);}.cls-9{opacity:0;stroke:#1d1d1b;}.cls-9,.cls-10{fill:#fff;stroke-miterlimit:10;}.cls-6{opacity:.15;}.cls-6,.cls-11{fill:#030304;}.cls-12{fill:#ffd116;}.cls-13{fill:url(#linear-gradient-5);}.cls-14{fill:none;}.cls-15{fill:url(#linear-gradient-7);}.cls-16{fill:url(#linear-gradient-9);}.cls-17{fill:#7f358b;}.cls-18{fill:url(#linear-gradient-3);}.cls-19{fill:url(#linear-gradient);}.cls-7{fill:url(#Nowy_wzorek_8);opacity:.14;}.cls-10{stroke:#030304;stroke-width:.93px;}.cls-20{fill:url(#linear-gradient-4);}.cls-21{fill:url(#linear-gradient-8);}</style><linearGradient id="linear-gradient" x1="547.69" y1="-250.74" x2="173.08" y2="123.84" gradientTransform="translate(0 128.63) scale(1 -1)" gradientUnits="userSpaceOnUse"><stop offset="0" stop-color="#9f9d9c"/><stop offset=".54" stop-color="#030404"/><stop offset="1" stop-color="#9f9d9c"/></linearGradient><linearGradient id="linear-gradient-2" x1="360.46" y1="-214.53" x2="360.46" y2="87.62" gradientTransform="translate(0 128.63) scale(1 -1)" gradientUnits="userSpaceOnUse"><stop offset="0" stop-color="#482d1d"/><stop offset="1" stop-color="#b18045"/></linearGradient><linearGradient id="linear-gradient-3" x1="360.39" y1="-210.33" x2="360.39" y2="83.57" gradientTransform="translate(0 128.63) scale(1 -1)" gradientUnits="userSpaceOnUse"><stop offset="0" stop-color="#946137"/><stop offset="1" stop-color="#83542a"/></linearGradient><pattern id="Nowy_wzorek_8" x="0" y="0" width="56.69" height="62.45" patternTransform="translate(-1 -31645.01) scale(1 -1)" patternUnits="userSpaceOnUse" viewBox="0 0 56.69 62.45"><g><rect class="cls-14" width="56.69" height="62.45"/><g><rect class="cls-14" width="56.69" height="62.45"/><g><rect class="cls-14" width="56.69" height="62.45"/><g><rect class="cls-14" width="56.69" height="62.45"/><g><rect class="cls-14" width="56.69" height="62.45"/><g><rect class="cls-14" width="56.69" height="62.45"/><g><rect class="cls-14" width="56.69" height="62.45"/><path class="cls-5" d="M47.77,37.41c6.04-6.04,6.04-16.12,0-22.16l-3.45-3.45c-6.04-6.04-16.12-6.04-22.45,0l-12.95,13.24c-6.04,6.04-6.04,16.12,0,22.16l3.45,3.45c6.04,6.04,16.12,6.04,22.16,0l13.24-13.24Z"/></g></g></g></g></g></g></g></pattern><linearGradient id="linear-gradient-4" x1="-487.72" y1="1264.56" x2="-410.29" y2="1187.12" gradientTransform="translate(-189.72 -1060.86) rotate(-45)" gradientUnits="userSpaceOnUse"><stop offset="0" stop-color="#95191b"/><stop offset=".21" stop-color="#ba261e"/><stop offset=".47" stop-color="#e62e25"/><stop offset=".55" stop-color="#e6322c"/><stop offset=".84" stop-color="#e83b3c"/><stop offset="1" stop-color="#e83e41"/></linearGradient><linearGradient id="linear-gradient-5" x1="-395.45" y1="1356.84" x2="-318.01" y2="1279.4" xlink:href="#linear-gradient-4"/><linearGradient id="linear-gradient-6" x1="-584.72" y1="1125.49" x2="-507.28" y2="1048.06" gradientTransform="translate(-22.75 -895.11) rotate(-45)" gradientUnits="userSpaceOnUse"><stop offset="0" stop-color="#1d1427"/><stop offset=".24" stop-color="#372348"/><stop offset=".49" stop-color="#573b6c"/><stop offset=".71" stop-color="#72508c"/><stop offset=".89" stop-color="#835ca0"/><stop offset="1" stop-color="#8963a7"/></linearGradient><linearGradient id="linear-gradient-7" x1="-492.44" y1="1217.77" x2="-415" y2="1140.33" xlink:href="#linear-gradient-6"/><linearGradient id="linear-gradient-8" x1="-676.64" y1="1033.57" x2="-599.21" y2="956.13" xlink:href="#linear-gradient-6"/><linearGradient id="linear-gradient-9" x1="-579.65" y1="1172.63" x2="-502.21" y2="1095.2" xlink:href="#linear-gradient-4"/></defs><rect class="cls-9" x=".5" y=".5" width="720" height="378.91"/><g id="prodBg"><rect id="external-border" class="cls-19" x="141.49" y="36.39" width="437.8" height="311.39"/><rect id="internal-border" class="cls-1" x="146.12" y="41.02" width="428.69" height="302.15"/><rect id="bg" class="cls-18" x="150.17" y="45.07" width="420.46" height="293.9"/><rect id="bgPattern" class="cls-7" x="150.17" y="45.07" width="420.46" height="293.9"/></g><g id="heat"><rect class="cls-3" x="301.47" y="65.32" width="116.22" height="116.22"/><rect class="cls-20" x="304.83" y="68.68" width="109.51" height="109.51"/><rect class="cls-2" x="310.14" y="73.99" width="98.89" height="98.89"/><path id="darker" class="cls-4" d="M414.34,178.19h-109.51v-60.02s34.48,5.31,54.71,5.31,54.8-5.31,54.8-5.31v60.02h0Z"/><g><polygon class="cls-12" points="347.24 128.51 334.75 117.7 334.75 117.7 334.75 84.71 322.26 118.36 334.84 128.98 334.84 128.98 334.75 162.16 347.24 128.51"/><polygon class="cls-12" points="372.12 128.51 359.63 117.7 359.54 117.7 359.63 84.71 347.14 118.36 359.63 128.98 359.63 128.98 359.63 162.16 372.12 128.51"/><polygon class="cls-12" points="397.66 128.51 385.17 117.7 385.07 117.7 385.17 84.71 372.68 118.36 385.17 128.98 385.17 128.98 385.17 162.16 397.66 128.51"/></g></g><g id="heat-2"><rect class="cls-3" x="431.97" y="65.32" width="116.22" height="116.22"/><rect class="cls-13" x="435.33" y="68.68" width="109.51" height="109.51"/><rect class="cls-2" x="440.64" y="73.99" width="98.89" height="98.89"/><path id="darker-2" class="cls-4" d="M544.84,178.19h-109.51v-60.02s34.48,5.31,54.71,5.31,54.8-5.31,54.8-5.31v60.02h0Z"/><g><polygon class="cls-12" points="477.74 128.51 465.25 117.7 465.25 117.7 465.25 84.71 452.76 118.36 465.34 128.98 465.34 128.98 465.25 162.16 477.74 128.51"/><polygon class="cls-12" points="502.62 128.51 490.13 117.7 490.04 117.7 490.13 84.71 477.64 118.36 490.13 128.98 490.13 128.98 490.13 162.16 502.62 128.51"/><polygon class="cls-12" points="528.16 128.51 515.67 117.7 515.57 117.7 515.67 84.71 503.18 118.36 515.67 128.98 515.67 128.98 515.67 162.16 528.16 128.51"/></g></g><g id="energy"><rect class="cls-11" x="301.52" y="201.33" width="116.22" height="116.22"/><rect class="cls-8" x="304.88" y="204.68" width="109.51" height="109.51"/><polygon class="cls-17" points="409.07 210 409.07 308.88 310.19 308.88 310.19 210 409.07 210"/><polygon class="cls-10" points="347.56 248.11 380.18 227.89 362.75 253.15 371.98 268.15 339.92 288.38 356.04 263.21 347.56 248.11"/><path id="darker-2-2" class="cls-6" d="M414.39,314.19h-109.51v-60.02s34.48,5.31,54.71,5.31,54.8-5.31,54.8-5.31v60.02h0Z"/></g><g id="energy-2"><rect class="cls-11" x="432.02" y="201.33" width="116.22" height="116.22"/><rect class="cls-15" x="435.38" y="204.68" width="109.51" height="109.51"/><polygon class="cls-17" points="539.57 210 539.57 308.88 440.69 308.88 440.69 210 539.57 210"/><polygon class="cls-10" points="478.06 248.11 510.68 227.89 493.25 253.15 502.48 268.15 470.42 288.38 486.54 263.21 478.06 248.11"/><path id="darker-3" class="cls-6" d="M544.89,314.19h-109.51v-60.02s34.48,5.31,54.71,5.31,54.8-5.31,54.8-5.31v60.02Z"/></g><g id="energy-2"><rect class="cls-11" x="171.52" y="201.33" width="116.22" height="116.22"/><rect class="cls-21" x="174.88" y="204.68" width="109.51" height="109.51"/><polygon class="cls-17" points="279.07 210 279.07 308.88 180.19 308.88 180.19 210 279.07 210"/><polygon class="cls-10" points="217.56 248.11 250.18 227.89 232.75 253.15 241.98 268.15 209.92 288.38 226.04 263.21 217.56 248.11"/><path id="darker-2-3" class="cls-6" d="M284.39,314.19h-109.51v-60.02s34.48,5.31,54.71,5.31,54.8-5.31,54.8-5.31v60.02h0Z"/></g><g id="heat-2"><rect class="cls-3" x="171.47" y="65.32" width="116.22" height="116.22"/><rect class="cls-16" x="174.83" y="68.68" width="109.51" height="109.51"/><rect class="cls-2" x="180.14" y="73.99" width="98.89" height="98.89"/><path id="darker-2" class="cls-4" d="M284.34,178.19h-109.51v-60.02s34.48,5.31,54.71,5.31,54.8-5.31,54.8-5.31v60.02h0Z"/><g><polygon class="cls-12" points="217.24 128.51 204.75 117.7 204.75 117.7 204.75 84.71 192.26 118.36 204.84 128.98 204.84 128.98 204.75 162.16 217.24 128.51"/><polygon class="cls-12" points="242.12 128.51 229.63 117.7 229.54 117.7 229.63 84.71 217.14 118.36 229.63 128.98 229.63 128.98 229.63 162.16 242.12 128.51"/><polygon class="cls-12" points="267.66 128.51 255.17 117.7 255.07 117.7 255.17 84.71 242.68 118.36 255.17 128.98 255.17 128.98 255.17 162.16 267.66 128.51"/></g></g></svg>