<?xml version="1.0" encoding="UTF-8"?><svg id="Layer" xmlns="http://www.w3.org/2000/svg" xmlns:xlink="http://www.w3.org/1999/xlink" viewBox="0 0 721 379.91"><defs><style>.cls-1{fill:url(#linear-gradient-2);}.cls-2{fill:url(#linear-gradient-6);}.cls-3{fill:#946137;}.cls-4{fill:#1f1f1e;}.cls-5{stroke-width:1.62px;}.cls-5,.cls-6,.cls-7{stroke-miterlimit:10;}.cls-5,.cls-8{fill:none;}.cls-5,.cls-7{stroke:#030304;}.cls-6{opacity:0;stroke:#1d1d1b;}.cls-6,.cls-7{fill:#fff;}.cls-9{fill:url(#Nowy_wzorek_3);opacity:.1;}.cls-9,.cls-10,.cls-11{isolation:isolate;}.cls-10{opacity:.15;}.cls-10,.cls-12{fill:#030304;}.cls-13{fill:url(#radial-gradient);}.cls-11{opacity:.29;}.cls-11,.cls-14{fill:#010202;}.cls-15{fill:url(#linear-gradient-5);}.cls-16{fill:url(#linear-gradient-7);}.cls-7{stroke-width:.91px;}.cls-17{fill:#7f358b;}.cls-18{fill:url(#linear-gradient-3);}.cls-19{fill:url(#linear-gradient);}.cls-20{fill:url(#linear-gradient-4);}.cls-21{fill:#342217;}.cls-22{fill:#010101;}.cls-23{fill:url(#linear-gradient-8);}</style><linearGradient id="linear-gradient" x1="577.25" y1="315.59" x2="577.25" y2="93.59" gradientTransform="translate(0 -15.82)" gradientUnits="userSpaceOnUse"><stop offset="0" stop-color="#010202"/><stop offset="1" stop-color="#fff"/></linearGradient><radialGradient id="radial-gradient" cx="577.44" cy="204.59" fx="577.44" fy="204.59" r="96.9" gradientTransform="translate(0 -15.82)" gradientUnits="userSpaceOnUse"><stop offset="0" stop-color="#c9c7c7"/><stop offset="1" stop-color="#737171"/></radialGradient><linearGradient id="linear-gradient-2" x1="417.32" y1="619.08" x2="68.59" y2="270.36" gradientTransform="translate(0 -252.64)" gradientUnits="userSpaceOnUse"><stop offset="0" stop-color="#9e9d9c"/><stop offset=".54" stop-color="#010202"/><stop offset="1" stop-color="#9e9d9c"/></linearGradient><linearGradient id="linear-gradient-3" x1="243.03" y1="592.46" x2="243.03" y2="297.01" gradientTransform="translate(0 -252.64)" gradientUnits="userSpaceOnUse"><stop offset="0" stop-color="#462c1b"/><stop offset="1" stop-color="#b18048"/></linearGradient><linearGradient id="linear-gradient-4" x1="242.97" y1="588.35" x2="242.97" y2="300.97" gradientTransform="translate(0 -252.64)" gradientUnits="userSpaceOnUse"><stop offset="0" stop-color="#946137"/><stop offset="1" stop-color="#805127"/></linearGradient><pattern id="Nowy_wzorek_3" x="0" y="0" width="19.7" height="21.7" patternTransform="translate(43.9 16649.47)" patternUnits="userSpaceOnUse" viewBox="0 0 19.7 21.7"><g><rect class="cls-8" width="19.7" height="21.7"/><g><rect class="cls-8" width="19.7" height="21.7"/><g><rect class="cls-8" width="19.7" height="21.7"/><g><rect class="cls-8" width="19.7" height="21.7"/><g><rect class="cls-8" width="19.7" height="21.7"/><path class="cls-4" d="M16.6,8.7c2.1,2.1,2.1,5.6,0,7.7l-1.2,1.2c-2.1,2.1-5.6,2.1-7.8,0L3.1,13c-2.1-2.1-2.1-5.6,0-7.7l1.2-1.2c2.1-2.1,5.6-2.1,7.7,0l4.6,4.6Z"/></g></g></g></g></g></pattern><linearGradient id="linear-gradient-5" x1="-495.74" y1="1263.28" x2="-419.96" y2="1187.52" gradientTransform="translate(-191.13 -1064.43) rotate(-45)" gradientUnits="userSpaceOnUse"><stop offset="0" stop-color="#1d1427"/><stop offset=".24" stop-color="#372348"/><stop offset=".49" stop-color="#573b6c"/><stop offset=".71" stop-color="#72508c"/><stop offset=".89" stop-color="#835ca0"/><stop offset="1" stop-color="#8963a7"/></linearGradient><linearGradient id="linear-gradient-6" x1="-587.95" y1="1171.07" x2="-512.19" y2="1095.28" xlink:href="#linear-gradient-5"/><linearGradient id="linear-gradient-7" x1="-681.53" y1="-647.07" x2="-605.76" y2="-571.31" gradientTransform="translate(245.68 -627.62) rotate(-45) scale(1 -1)" gradientUnits="userSpaceOnUse"><stop offset="0" stop-color="#462c1b"/><stop offset=".05" stop-color="#58351a"/><stop offset=".1" stop-color="#683f16"/><stop offset=".32" stop-color="#77491f"/><stop offset=".75" stop-color="#8d5b32"/><stop offset="1" stop-color="#946137"/></linearGradient><linearGradient id="linear-gradient-8" x1="-589.3" y1="-739.29" x2="-513.54" y2="-663.53" xlink:href="#linear-gradient-7"/></defs><rect class="cls-6" x=".5" y=".5" width="720" height="378.91"/><g id="city"><polygon class="cls-14" points="676.47 246.13 676.47 131.6 577.35 74.43 478.05 131.6 478.05 246.13 577.35 303.48 676.47 246.13"/><polygon class="cls-19" points="673.31 244.27 673.31 133.27 577.35 77.77 481.2 133.27 481.2 244.27 577.35 299.77 673.31 244.27"/><polygon class="cls-13" points="667.19 240.74 667.19 136.98 577.35 85.2 487.7 136.98 487.7 240.74 577.35 292.34 667.19 240.74"/><path class="cls-11" d="M675.91,242.78v-71.46h0c-65.71,9.77-131.48,9.77-197.31,0h0v71.46l98.56,56.98,98.75-56.98Z"/><g id="city-logo"><path class="cls-5" d="M508.67,201.39c0-36.75,30.81-66.27,68.49-66.27"/><path class="cls-5" d="M645.47,201.39c0-36.75-31-66.27-69.24-66.27"/><rect class="cls-12" x="507.37" y="197.12" width="139.4" height="8.72"/><rect class="cls-12" x="514.61" y="188.96" width="4.27" height="8.17"/><rect class="cls-12" x="516.84" y="182.46" width="2.04" height="6.68"/><rect class="cls-12" x="523.15" y="188.03" width="7.61" height="9.28"/><rect class="cls-12" x="523.15" y="177.45" width="3.71" height="10.58"/><rect class="cls-12" x="533.17" y="185.61" width="3.16" height="11.32"/><rect class="cls-12" x="536.33" y="162.97" width="3.53" height="34.15"/><rect class="cls-12" x="538.19" y="159.26" width="1.86" height="3.53"/><rect class="cls-12" x="540.04" y="188.96" width="5.94" height="8.17"/><rect class="cls-12" x="544.87" y="184.87" width="1.11" height="4.27"/><rect class="cls-12" x="545.98" y="154.62" width="4.83" height="42.51"/><rect class="cls-12" x="550.81" y="162.23" width="2.41" height="34.71"/><rect class="cls-12" x="553.41" y="174.66" width="5.01" height="22.46"/><rect class="cls-12" x="558.42" y="179.3" width="3.16" height="18"/><rect class="cls-12" x="564.36" y="168.35" width="6.68" height="28.77"/><rect class="cls-12" x="571.23" y="179.67" width="3.34" height="17.45"/><rect class="cls-12" x="574.57" y="147.56" width="8.17" height="49.56"/><rect class="cls-12" x="586.63" y="158.51" width="4.27" height="38.61"/><rect class="cls-12" x="595.17" y="166.5" width="4.64" height="30.63"/><rect class="cls-12" x="590.53" y="186.91" width="4.64" height="10.21"/><rect class="cls-12" x="599.81" y="191.55" width="3.34" height="5.75"/><rect class="cls-12" x="607.05" y="188.4" width="2.97" height="8.54"/><rect class="cls-12" x="610.02" y="174.66" width="5.2" height="22.46"/><rect class="cls-12" x="615.03" y="164.27" width="3.71" height="32.85"/><rect class="cls-12" x="618.74" y="187.28" width="3.16" height="9.84"/><rect class="cls-12" x="623.75" y="181.34" width="4.08" height="15.78"/><rect class="cls-12" x="627.84" y="179.67" width="4.45" height="17.45"/><rect class="cls-12" x="635.08" y="189.33" width="2.04" height="7.98"/><rect class="cls-12" x="637.12" y="193.22" width="3.71" height="4.08"/></g></g><g id="prodBg"><rect id="external-border" class="cls-1" x="46.47" y="39.85" width="392.97" height="304.48"/><rect id="internal-border" class="cls-18" x="51" y="44.37" width="384.06" height="295.45"/><rect id="bg" class="cls-20" x="54.96" y="48.34" width="376.01" height="287.37"/><rect id="bgPattern" class="cls-9" x="54.96" y="48.34" width="376.01" height="287.37"/></g><path class="cls-22" d="M99.08,132.45v-13.34h32.02v13.34h-32.02Z"/><g id="energy"><rect class="cls-12" x="294.77" y="68.96" width="113.69" height="113.69"/><rect class="cls-15" x="298.04" y="72.23" width="107.14" height="107.14"/><polygon class="cls-17" points="399.99 77.42 399.99 174.18 303.23 174.18 303.23 77.42 399.99 77.42"/><polygon class="cls-7" points="339.8 114.73 371.72 94.94 354.66 119.65 363.69 134.34 332.32 154.13 348.09 129.49 339.8 114.73"/><path id="darker" class="cls-10" d="M405.18,179.37h-107.14v-58.72s33.74,5.19,53.52,5.19,53.62-5.19,53.62-5.19v58.72h0Z"/></g><path class="cls-22" d="M107.72,286.17v-23.8h-23.8v-9.77h23.8v-23.8h9.77v23.8h23.8v9.77h-23.8v23.8h-9.77Z"/><g id="energy-2"><rect class="cls-12" x="164.34" y="68.96" width="113.69" height="113.69"/><rect class="cls-2" x="167.62" y="72.23" width="107.14" height="107.14"/><polygon class="cls-17" points="269.57 77.42 269.57 174.18 172.81 174.18 172.81 77.42 269.57 77.42"/><polygon class="cls-7" points="209.38 114.73 241.29 94.94 224.24 119.65 233.27 134.34 201.9 154.13 217.67 129.49 209.38 114.73"/><path id="darker-2" class="cls-10" d="M274.76,179.37h-107.14v-58.72s33.74,5.19,53.52,5.19,53.62-5.19,53.62-5.19v58.72Z"/></g><g id="steel"><rect class="cls-12" x="164.47" y="201.42" width="113.69" height="113.69"/><rect class="cls-16" x="167.74" y="204.7" width="107.14" height="107.14"/><rect class="cls-3" x="172.96" y="209.89" width="96.73" height="96.73"/><g><path class="cls-21" d="M231.4,290.23l2.36-44.96-5.46-.64-.81-1.92h-4.18l-.74,2.02-6.37-.27v-11.66h7.38l.54,2.29,3.47,.47,.81-2.63h7.58l1.45,1.28,1.28-1.28h9.4l1.08,1.82,1.65-1.82,7.11,5.83-.47,4.01s-3.91-3.64-5.83-3.64-4.65-.1-4.65-.1l-3.91,6.3-2.36,.17,2.19,44.76h-11.49l-.02-.02Z"/><polygon class="cls-21" points="210.14 230.85 202.49 226.67 202.39 237.06 195.47 237.06 195.47 226.67 186.71 230.68 186.71 243.45 194.83 247.37 192 290.23 205.05 290.23 202.49 247.37 210.14 243.9 210.14 230.85"/></g><path id="darker-3" class="cls-10" d="M274.88,311.84h-107.14v-58.72s33.74,5.19,53.52,5.19,53.62-5.19,53.62-5.19v58.72Z"/></g><g id="steel-2"><rect class="cls-12" x="294.89" y="201.42" width="113.69" height="113.69"/><rect class="cls-23" x="298.16" y="204.7" width="107.14" height="107.14"/><rect class="cls-3" x="303.38" y="209.89" width="96.73" height="96.73"/><g><path class="cls-21" d="M361.82,290.23l2.36-44.96-5.46-.64-.81-1.92h-4.18l-.74,2.02-6.37-.27v-11.66h7.38l.54,2.29,3.47,.47,.81-2.63h7.58l1.45,1.28,1.28-1.28h9.4l1.08,1.82,1.65-1.82,7.11,5.83-.47,4.01s-3.91-3.64-5.83-3.64-4.65-.1-4.65-.1l-3.91,6.3-2.36,.17,2.19,44.76h-11.49l-.02-.02Z"/><polygon class="cls-21" points="340.56 230.85 332.91 226.67 332.81 237.06 325.9 237.06 325.9 226.67 317.14 230.68 317.14 243.45 325.26 247.37 322.43 290.23 335.47 290.23 332.91 247.37 340.56 243.9 340.56 230.85"/></g><path id="darker-4" class="cls-10" d="M405.31,311.84h-107.14v-58.72s33.74,5.19,53.52,5.19,53.62-5.19,53.62-5.19v58.72Z"/></g></svg>