<?xml version="1.0" encoding="UTF-8"?><svg id="Layer" xmlns="http://www.w3.org/2000/svg" xmlns:xlink="http://www.w3.org/1999/xlink" viewBox="0 0 721 379.91"><defs><style>.cls-1{stroke-width:.93px;}.cls-1,.cls-2{fill:#fff;}.cls-1,.cls-2,.cls-3{stroke-miterlimit:10;}.cls-1,.cls-3{stroke:#030304;}.cls-4{fill:url(#linear-gradient-2);}.cls-5{fill:url(#linear-gradient-6);}.cls-6{fill:#1f1f1e;}.cls-2{opacity:0;stroke:#1d1d1b;}.cls-7{fill:url(#Nowy_wzorek_3);opacity:.1;}.cls-7,.cls-8{isolation:isolate;}.cls-8{opacity:.15;}.cls-8,.cls-9{fill:#030304;}.cls-10{fill:url(#linear-gradient-5);}.cls-11{fill:none;}.cls-12{fill:url(#linear-gradient-7);}.cls-13{fill:#7f358b;}.cls-14{fill:url(#linear-gradient-3);}.cls-15{fill:url(#linear-gradient);}.cls-16{fill:url(#linear-gradient-4);}.cls-17{fill:#010101;}.cls-3{fill:#010202;stroke-width:1.9px;}.cls-18{fill:url(#linear-gradient-8);}</style><linearGradient id="linear-gradient" x1="504.46" y1="27.87" x2="216.54" y2="315.8" gradientTransform="translate(0 364.63) scale(1 -1)" gradientUnits="userSpaceOnUse"><stop offset="0" stop-color="#9e9d9c"/><stop offset=".54" stop-color="#010202"/><stop offset="1" stop-color="#9e9d9c"/></linearGradient><linearGradient id="linear-gradient-2" x1="360.58" y1="21.54" x2="360.58" y2="322.11" gradientTransform="translate(0 364.63) scale(1 -1)" gradientUnits="userSpaceOnUse"><stop offset="0" stop-color="#462c1b"/><stop offset="1" stop-color="#b18048"/></linearGradient><linearGradient id="linear-gradient-3" x1="360.49" y1="25.72" x2="360.49" y2="318.08" gradientTransform="translate(0 364.63) scale(1 -1)" gradientUnits="userSpaceOnUse"><stop offset="0" stop-color="#946137"/><stop offset="1" stop-color="#805127"/></linearGradient><pattern id="Nowy_wzorek_3" x="0" y="0" width="19.7" height="21.7" patternTransform="translate(43.9 -32159.12) scale(1 -1)" patternUnits="userSpaceOnUse" viewBox="0 0 19.7 21.7"><g><rect class="cls-11" width="19.7" height="21.7"/><g><rect class="cls-11" width="19.7" height="21.7"/><g><rect class="cls-11" width="19.7" height="21.7"/><g><rect class="cls-11" width="19.7" height="21.7"/><g><rect class="cls-11" width="19.7" height="21.7"/><g><rect class="cls-11" width="19.7" height="21.7"/><path class="cls-6" d="M16.6,13c2.1-2.1,2.1-5.6,0-7.7l-1.2-1.2c-2.1-2.1-5.6-2.1-7.8,0L3.1,8.7c-2.1,2.1-2.1,5.6,0,7.7l1.2,1.2c2.1,2.1,5.6,2.1,7.7,0l4.6-4.6Z"/></g></g></g></g></g></g></pattern><linearGradient id="linear-gradient-4" x1="-552.92" y1="-779.85" x2="-475.79" y2="-702.77" gradientTransform="translate(245.35 -627.96) rotate(-45) scale(1 -1)" gradientUnits="userSpaceOnUse"><stop offset="0" stop-color="#1d1427"/><stop offset=".24" stop-color="#372348"/><stop offset=".49" stop-color="#573b6c"/><stop offset=".71" stop-color="#72508c"/><stop offset=".89" stop-color="#835ca0"/><stop offset="1" stop-color="#8963a7"/></linearGradient><linearGradient id="linear-gradient-5" x1="405.75" y1="183.81" x2="405.75" y2="292.83" gradientTransform="translate(0 363.62) scale(1 -1)" gradientUnits="userSpaceOnUse"><stop offset=".16" stop-color="#823a13"/><stop offset=".18" stop-color="#985c1a"/><stop offset=".22" stop-color="#ae7d22"/><stop offset=".26" stop-color="#c39d26"/><stop offset=".3" stop-color="#d6b92e"/><stop offset=".35" stop-color="#e4cf36"/><stop offset=".41" stop-color="#efe036"/><stop offset=".48" stop-color="#f6e947"/><stop offset=".58" stop-color="#f8ea4e"/><stop offset=".86" stop-color="#f6ea4d"/><stop offset="1" stop-color="#fcf4f9"/></linearGradient><linearGradient id="linear-gradient-6" x1="405.76" y1="298.64" x2="405.76" y2="131.98" gradientTransform="translate(0 363.62) scale(1 -1)" gradientUnits="userSpaceOnUse"><stop offset=".26" stop-color="#f6ea4d"/><stop offset=".86" stop-color="#803813"/></linearGradient><linearGradient id="linear-gradient-7" x1="405.81" y1="185.31" x2="405.81" y2="291.23" gradientTransform="translate(0 363.62) scale(1 -1)" gradientUnits="userSpaceOnUse"><stop offset=".16" stop-color="#803813"/><stop offset=".17" stop-color="#8c471e"/><stop offset=".18" stop-color="#a26b3c"/><stop offset=".2" stop-color="#b78954"/><stop offset=".22" stop-color="#c7a468"/><stop offset=".24" stop-color="#d7bb7a"/><stop offset=".26" stop-color="#e2cc88"/><stop offset=".3" stop-color="#ead891"/><stop offset=".34" stop-color="#eede97"/><stop offset=".46" stop-color="#efe097"/><stop offset=".7" stop-color="#803813"/><stop offset=".73" stop-color="#e6d234"/><stop offset=".74" stop-color="#ebd948"/><stop offset=".75" stop-color="#eede6d"/><stop offset=".77" stop-color="#f0e28a"/><stop offset=".79" stop-color="#f8ebaa"/><stop offset=".8" stop-color="#f8edbf"/><stop offset=".83" stop-color="#faf0cf"/><stop offset=".85" stop-color="#fcf2da"/><stop offset=".89" stop-color="#fdf4e1"/><stop offset=".99" stop-color="#fdf5e3"/></linearGradient><linearGradient id="linear-gradient-8" x1="405.74" y1="275.68" x2="405.74" y2="112.23" gradientTransform="translate(0 363.62) scale(1 -1)" gradientUnits="userSpaceOnUse"><stop offset=".26" stop-color="#f6ea4d"/><stop offset=".77" stop-color="#803813"/></linearGradient></defs><rect class="cls-2" x=".5" y=".5" width="720" height="378.91"/><g id="prodBg"><rect id="external-border" class="cls-15" x="227.45" y="37.92" width="266.1" height="309.76"/><rect id="internal-border" class="cls-4" x="232.06" y="42.53" width="257.03" height="300.57"/><rect id="bg" class="cls-14" x="236.06" y="46.56" width="248.85" height="292.36"/><rect id="bgPattern" class="cls-7" x="236.06" y="46.56" width="248.85" height="292.36"/></g><path class="cls-17" d="M289.29,290.7v-24.21h-24.21v-9.94h24.21v-24.21h9.94v24.21h24.21v9.94h-24.21v24.21h-9.94Z"/><path class="cls-17" d="M279.2,135.13v-13.57h32.57v13.57h-32.57Z"/><g id="energy"><rect class="cls-9" x="348" y="202.1" width="115.66" height="115.66"/><rect class="cls-16" x="351.32" y="205.43" width="109" height="109"/><polygon class="cls-13" points="455.04 210.71 455.04 309.15 356.63 309.15 356.63 210.71 455.04 210.71"/><polygon class="cls-1" points="393.83 248.66 426.28 228.54 408.93 253.67 418.12 268.62 386.22 288.74 402.27 263.68 393.83 248.66"/><path id="darker" class="cls-8" d="M460.33,314.43h-109v-59.73s34.32,5.28,54.45,5.28,54.55-5.28,54.55-5.28v59.73h0Z"/></g><g id="mln"><polygon id="obram_czarne" class="cls-3" points="365.39 67.46 347.87 84.98 347.87 165.62 365.39 183.15 446.11 183.15 463.56 165.62 463.56 84.98 446.11 67.46 365.39 67.46"/><polygon id="obram_zolte" class="cls-10" points="367.67 70.79 351.27 87.26 351.27 163.34 367.67 179.82 443.75 179.82 460.23 163.34 460.23 87.26 443.75 70.79 367.67 70.79"/><polygon id="tlo_wew" class="cls-5" points="368.82 72.39 352.8 88.41 352.8 162.19 368.82 178.22 442.7 178.22 458.72 162.19 458.72 88.41 442.7 72.39 368.82 72.39"/><path id="obram_skosne" class="cls-12" d="M451.04,145.72c-2.93,0-5.31-2.38-5.31-5.31v-30.22c0-2.93,2.38-5.31,5.31-5.31h7.59v-16.47l-15.92-16.02h-16.57v7.59c0,2.93-2.38,5.31-5.31,5.31h-30.22c-2.93,0-5.31-2.38-5.31-5.31v-7.59h-16.47l-16.02,16.02v16.57h7.59c2.93,0,5.31,2.38,5.31,5.31v30.22c0,2.93-2.38,5.31-5.31,5.31h-7.59v16.47l16.02,16.02h16.57v-7.59c0-2.93,2.38-5.31,5.31-5.31h30.22c2.93,0,5.31,2.38,5.31,5.31v7.59h16.57l16.02-16.02v-16.57h-7.79Z"/><path id="tlo_zew" class="cls-18" d="M450.76,147.52c-3.61,0-6.53-3.61-6.53-7.21v-30.04c0-3.61,2.93-7.21,6.53-7.21h6.16v-13.44l-15.55-15.45h-13.37v6.16c0,3.61-3.61,6.53-7.21,6.53h-30.04c-3.61,0-7.21-2.93-7.21-6.53v-6.16h-13.54l-15.45,15.45v13.44h6.16c3.61,0,6.53,3.61,6.53,7.21v30.04c0,3.61-2.93,7.21-6.53,7.21h-6.16v13.44l15.45,15.45h13.44v-6.16c0-3.61,3.61-6.53,7.21-6.53h29.94c3.61,0,7.21,2.93,7.21,6.53v6.16h13.44l15.45-15.45v-13.44h-5.93Z"/></g><path class="cls-17" d="M404.02,150.13v-43.16h-6.53l-.2-4.88,16.5-1.43v49.47h-9.76Z"/></svg>