<?xml version="1.0" encoding="UTF-8"?><svg id="Layer" xmlns="http://www.w3.org/2000/svg" xmlns:xlink="http://www.w3.org/1999/xlink" viewBox="0 0 721 379.91"><defs><style>.cls-1{fill:url(#linear-gradient-2);}.cls-2{fill:#20201e;}.cls-3{fill:url(#linear-gradient-6);}.cls-4{fill:#48ad38;}.cls-5{fill:#fff;opacity:0;stroke:#1d1d1b;}.cls-5,.cls-6,.cls-7{stroke-miterlimit:10;}.cls-8{fill:url(#Nowy_wzorek_6);opacity:.1;}.cls-8,.cls-9{isolation:isolate;}.cls-10{fill:url(#linear-gradient-5);}.cls-11{fill:none;}.cls-12{fill:url(#linear-gradient-7);}.cls-9{opacity:.05;}.cls-9,.cls-13{fill:#030304;}.cls-14{fill:url(#linear-gradient-9);}.cls-6{fill:#020303;stroke:#030404;stroke-width:1.89px;}.cls-15{fill:url(#linear-gradient-3);}.cls-16{fill:url(#linear-gradient);}.cls-17{fill:url(#linear-gradient-4);}.cls-18{fill:url(#linear-gradient-8);}.cls-7{fill:#0b572a;stroke:#1d4422;stroke-width:3.71px;}</style><linearGradient id="linear-gradient" x1="-497.85" y1="-976.53" x2="-420.76" y2="-899.42" gradientTransform="translate(78.19 -794.17) rotate(-45) scale(1 -1)" gradientUnits="userSpaceOnUse"><stop offset="0" stop-color="#0f6936"/><stop offset=".04" stop-color="#0f6c37"/><stop offset=".08" stop-color="#077739"/><stop offset=".13" stop-color="#108837"/><stop offset=".15" stop-color="#0a9039"/><stop offset=".35" stop-color="#36993d"/><stop offset=".76" stop-color="#5fb048"/><stop offset="1" stop-color="#6fb74b"/></linearGradient><linearGradient id="linear-gradient-2" x1="290.11" y1="533.01" x2="112.56" y2="355.45" gradientTransform="translate(0 -251.46)" gradientUnits="userSpaceOnUse"><stop offset="0" stop-color="#9f9d9c"/><stop offset=".54" stop-color="#030304"/><stop offset="1" stop-color="#9f9d9c"/></linearGradient><linearGradient id="linear-gradient-3" x1="201.42" y1="527.62" x2="201.42" y2="360.86" gradientTransform="translate(0 -251.46)" gradientUnits="userSpaceOnUse"><stop offset="0" stop-color="#482d1d"/><stop offset="1" stop-color="#b18046"/></linearGradient><linearGradient id="linear-gradient-4" x1="201.35" y1="523.45" x2="201.35" y2="364.9" gradientTransform="translate(0 -251.46)" gradientUnits="userSpaceOnUse"><stop offset="0" stop-color="#946137"/><stop offset="1" stop-color="#825329"/></linearGradient><pattern id="Nowy_wzorek_6" x="0" y="0" width="19.7" height="21.7" patternTransform="translate(42.9 32675.68)" patternUnits="userSpaceOnUse" viewBox="0 0 19.7 21.7"><g><rect class="cls-11" width="19.7" height="21.7"/><g><rect class="cls-11" width="19.7" height="21.7"/><g><rect class="cls-11" width="19.7" height="21.7"/><g><rect class="cls-11" width="19.7" height="21.7"/><g><rect class="cls-11" width="19.7" height="21.7"/><g><rect class="cls-11" width="19.7" height="21.7"/><g><rect class="cls-11" width="19.7" height="21.7"/><path class="cls-2" d="M16.6,8.7c2.1,2.1,2.1,5.6,0,7.7l-1.2,1.2c-2.1,2.1-5.6,2.1-7.8,0L3.1,13c-2.1-2.1-2.1-5.6,0-7.7l1.2-1.2c2.1-2.1,5.6-2.1,7.7,0l4.6,4.6Z"/></g></g></g></g></g></g></g></pattern><linearGradient id="linear-gradient-5" x1="201.39" y1="117.72" x2="201.39" y2="226.22" gradientTransform="translate(0 364.27) scale(1 -1)" gradientUnits="userSpaceOnUse"><stop offset=".16" stop-color="#823b14"/><stop offset=".18" stop-color="#995d1a"/><stop offset=".22" stop-color="#ae7d22"/><stop offset=".26" stop-color="#c39d25"/><stop offset=".3" stop-color="#d6b92e"/><stop offset=".35" stop-color="#e4cf36"/><stop offset=".41" stop-color="#efe036"/><stop offset=".48" stop-color="#f5e94d"/><stop offset=".58" stop-color="#f8eb53"/><stop offset=".86" stop-color="#f5ea52"/><stop offset="1" stop-color="#fcf4f9"/></linearGradient><linearGradient id="linear-gradient-6" x1="201.39" y1="232" x2="201.39" y2="66.16" gradientTransform="translate(0 364.27) scale(1 -1)" gradientUnits="userSpaceOnUse"><stop offset=".26" stop-color="#f5ea52"/><stop offset=".86" stop-color="#813a14"/></linearGradient><linearGradient id="linear-gradient-7" x1="201.43" y1="119.23" x2="201.43" y2="224.62" gradientTransform="translate(0 364.27) scale(1 -1)" gradientUnits="userSpaceOnUse"><stop offset=".16" stop-color="#813a14"/><stop offset=".17" stop-color="#8d481f"/><stop offset=".18" stop-color="#a36c3d"/><stop offset=".2" stop-color="#b78954"/><stop offset=".22" stop-color="#c7a468"/><stop offset=".24" stop-color="#d7bb7a"/><stop offset=".26" stop-color="#e2cc88"/><stop offset=".3" stop-color="#ead891"/><stop offset=".34" stop-color="#eede97"/><stop offset=".46" stop-color="#efe097"/><stop offset=".7" stop-color="#813a14"/><stop offset=".73" stop-color="#e6d234"/><stop offset=".74" stop-color="#ebda49"/><stop offset=".75" stop-color="#eede6d"/><stop offset=".77" stop-color="#f0e18a"/><stop offset=".79" stop-color="#f8ebab"/><stop offset=".8" stop-color="#f8edbf"/><stop offset=".83" stop-color="#faf0cf"/><stop offset=".85" stop-color="#fcf2da"/><stop offset=".89" stop-color="#fdf4e1"/><stop offset=".99" stop-color="#fdf5e3"/></linearGradient><linearGradient id="linear-gradient-8" x1="201.39" y1="209.16" x2="201.39" y2="46.49" gradientTransform="translate(0 364.27) scale(1 -1)" gradientUnits="userSpaceOnUse"><stop offset=".26" stop-color="#f5ea52"/><stop offset=".77" stop-color="#813a14"/></linearGradient><linearGradient id="linear-gradient-9" x1="-402.39" y1="-1071.99" x2="-325.3" y2="-994.88" xlink:href="#linear-gradient"/></defs><rect class="cls-5" x=".5" y=".5" width="720" height="378.91"/><g id="plant-4"><rect class="cls-13" x="358.8" y="136" width="115.71" height="115.71"/><rect class="cls-16" x="362.14" y="139.34" width="109.03" height="109.03"/><rect class="cls-4" x="367.43" y="144.63" width="98.45" height="98.45"/><path id="leaf-4" class="cls-7" d="M416.61,168.94c-14.1,1.95-24.87,11.13-24.87,24.87,0,3.34,.65,6.59,1.86,9.56-2.6,1.76-6.4,4.08-8.26,4.73-3.25,1.11-9.74,.37-10.02,.93s1.86,6.4,2.6,6.68,6.68,.28,10.02-.93c2.41-.84,6.77-3.62,9.28-5.47,4.55,5.75,11.6,9.37,19.49,9.37,13.73,0,24.68-8.63,24.68-22.36,0-5.29,1.3-11.97,3.25-16.15,2.13-4.64,13.18-7.61,13.18-7.61-1.11-3.62-35.63-4.36-41.2-3.62h0Z"/><path id="darker-4" class="cls-9" d="M471.17,248.37h-109.03v-59.76s34.33,5.29,54.47,5.29,54.56-5.29,54.56-5.29v59.76h0Z"/></g><g id="prodBg"><rect id="external-border" class="cls-1" x="111.76" y="104.8" width="179.15" height="175.96"/><rect id="internal-border" class="cls-15" x="116.37" y="109.41" width="170.09" height="166.76"/><rect id="bg" class="cls-17" x="120.4" y="113.45" width="161.89" height="158.55"/><rect id="bgPattern" class="cls-8" x="120.4" y="113.45" width="161.89" height="158.55"/></g><g id="mln"><polygon id="obram_czarne" class="cls-6" points="161.23 134.76 143.79 152.2 143.79 232.42 161.23 249.86 241.54 249.86 258.89 232.42 258.89 152.2 241.54 134.76 161.23 134.76"/><polygon id="obram_zolte" class="cls-10" points="163.49 138.06 147.18 154.46 147.18 230.16 163.49 246.56 239.18 246.56 255.59 230.16 255.59 154.46 239.18 138.06 163.49 138.06"/><polygon id="tlo_wew" class="cls-3" points="164.62 139.66 148.69 155.59 148.69 229.02 164.62 244.96 238.15 244.96 254.08 229.02 254.08 155.59 238.15 139.66 164.62 139.66"/><path id="obram_skosne" class="cls-12" d="M246.44,212.62c-2.92,0-5.28-2.36-5.28-5.28v-30.07c0-2.92,2.36-5.28,5.28-5.28h7.54v-16.4l-15.84-15.93h-16.5v7.54c0,2.92-2.36,5.28-5.28,5.28h-30.07c-2.92,0-5.28-2.36-5.28-5.28v-7.54h-16.4l-15.93,15.93v16.5h7.54c2.92,0,5.28,2.36,5.28,5.28v30.07c0,2.92-2.36,5.28-5.28,5.28h-7.54v16.4l15.93,15.93h16.5v-7.54c0-2.92,2.36-5.28,5.28-5.28h30.07c2.92,0,5.28,2.36,5.28,5.28v7.54h16.5l15.93-15.93v-16.5h-7.73Z"/><path id="tlo_zew" class="cls-18" d="M246.16,214.41c-3.58,0-6.5-3.58-6.5-7.16v-29.88c0-3.58,2.92-7.16,6.5-7.16h6.13v-13.39l-15.46-15.37h-13.29v6.13c0,3.58-3.58,6.5-7.16,6.5h-29.88c-3.58,0-7.16-2.92-7.16-6.5v-6.13h-13.48l-15.37,15.37v13.39h6.13c3.58,0,6.5,3.58,6.5,7.16v29.88c0,3.58-2.92,7.16-6.5,7.16h-6.13v13.39l15.37,15.37h13.39v-6.13c0-3.58,3.58-6.5,7.16-6.5h29.79c3.58,0,7.16,2.92,7.16,6.5v6.13h13.39l15.37-15.37v-13.39h-5.96Z"/></g><path d="M198.47,218.49v-46.62h-7.06l-.21-5.28,17.82-1.53v53.43h-10.55Z"/><g id="plant-4-2"><rect class="cls-13" x="493.8" y="136" width="115.71" height="115.71"/><rect class="cls-14" x="497.14" y="139.34" width="109.03" height="109.03"/><rect class="cls-4" x="502.43" y="144.63" width="98.45" height="98.45"/><path id="leaf-4-2" class="cls-7" d="M551.61,168.94c-14.1,1.95-24.87,11.13-24.87,24.87,0,3.34,.65,6.59,1.86,9.56-2.6,1.76-6.4,4.08-8.26,4.73-3.25,1.11-9.74,.37-10.02,.93s1.86,6.4,2.6,6.68,6.68,.28,10.02-.93c2.41-.84,6.77-3.62,9.28-5.47,4.55,5.75,11.6,9.37,19.49,9.37,13.73,0,24.68-8.63,24.68-22.36,0-5.29,1.3-11.97,3.25-16.15,2.13-4.64,13.18-7.61,13.18-7.61-1.11-3.62-35.63-4.36-41.2-3.62h0Z"/><path id="darker-4-2" class="cls-9" d="M606.17,248.37h-109.03v-59.76s34.33,5.29,54.47,5.29,54.56-5.29,54.56-5.29v59.76h0Z"/></g></svg>