<?xml version="1.0" encoding="UTF-8"?><svg id="Layer" xmlns="http://www.w3.org/2000/svg" xmlns:xlink="http://www.w3.org/1999/xlink" viewBox="0 0 721 379.91"><defs><style>.cls-1{fill:url(#linear-gradient-2);}.cls-2,.cls-3,.cls-4,.cls-5{fill:#030404;}.cls-6{stroke-linecap:square;}.cls-6,.cls-7,.cls-8,.cls-9,.cls-10,.cls-11{stroke-miterlimit:10;}.cls-6,.cls-8,.cls-9,.cls-11{stroke:#020303;}.cls-6,.cls-8,.cls-11{fill:none;}.cls-6,.cls-9{stroke-width:3.12px;}.cls-12{fill:#020303;}.cls-3{opacity:.05;}.cls-3,.cls-13,.cls-4,.cls-5{isolation:isolate;}.cls-14{fill:#1a291d;}.cls-13{fill:url(#linear-gradient-5);opacity:.31;}.cls-7{fill:#fff;opacity:0;stroke:#1d1d1b;}.cls-15{fill:#155929;}.cls-16{fill:url(#radial-gradient);}.cls-4{opacity:.08;}.cls-17{fill:url(#radial-gradient-2);}.cls-18{fill:#3e4a21;}.cls-8{stroke-width:4.67px;}.cls-19{fill:url(#linear-gradient-3);}.cls-9{fill:url(#linear-gradient-4);}.cls-20{fill:url(#linear-gradient);}.cls-10{fill:#0d582a;stroke:#1e4523;stroke-width:3.73px;}.cls-21{fill:#4bad39;}.cls-22{fill:#010202;}.cls-11{stroke-width:2.34px;}.cls-5{opacity:.12;}.cls-23{fill:#97c22a;}</style><linearGradient id="linear-gradient" x1="-474.89" y1="1562.82" x2="-397.43" y2="1485.39" gradientTransform="translate(-172.54 -1281.43) rotate(-45)" gradientUnits="userSpaceOnUse"><stop offset="0" stop-color="#1f4d23"/><stop offset=".43" stop-color="#4c7030"/><stop offset="1" stop-color="#97ab45"/></linearGradient><radialGradient id="radial-gradient" cx="596.76" cy="356.67" fx="596.76" fy="356.67" r="49.44" gradientTransform="translate(0 -251.99)" gradientUnits="userSpaceOnUse"><stop offset=".25" stop-color="#97ab45"/><stop offset="1" stop-color="#3c7b31"/></radialGradient><linearGradient id="linear-gradient-2" x1="-778.33" y1="1259.37" x2="-700.89" y2="1181.94" gradientTransform="translate(-172.54 -1281.43) rotate(-45)" gradientUnits="userSpaceOnUse"><stop offset="0" stop-color="#116a37"/><stop offset=".04" stop-color="#156d38"/><stop offset=".08" stop-color="#0a783a"/><stop offset=".13" stop-color="#148837"/><stop offset=".15" stop-color="#0f9039"/><stop offset=".35" stop-color="#38993d"/><stop offset=".76" stop-color="#61b149"/><stop offset="1" stop-color="#70b74b"/></linearGradient><linearGradient id="linear-gradient-3" x1="-633.48" y1="1404.23" x2="-556.04" y2="1326.78" gradientTransform="translate(-172.54 -1281.43) rotate(-45)" gradientUnits="userSpaceOnUse"><stop offset="0" stop-color="#3e4a21"/><stop offset=".14" stop-color="#4c5e25"/><stop offset=".42" stop-color="#6a852b"/><stop offset=".66" stop-color="#82a52e"/><stop offset=".86" stop-color="#8fb923"/><stop offset="1" stop-color="#97c22a"/></linearGradient><linearGradient id="linear-gradient-4" x1="344.5" y1="29.74" x2="344.5" y2="164.17" gradientTransform="translate(0 363.09) scale(1 -1)" gradientUnits="userSpaceOnUse"><stop offset="0" stop-color="#951917"/><stop offset=".21" stop-color="#b13c1e"/><stop offset=".44" stop-color="#cb5e26"/><stop offset=".66" stop-color="#e17932"/><stop offset=".85" stop-color="#ee8c39"/><stop offset="1" stop-color="#f3923b"/></linearGradient><radialGradient id="radial-gradient-2" cx="344.58" cy="96.95" fx="344.58" fy="96.95" r="76.56" gradientTransform="translate(0 363.09) scale(1 -1)" gradientUnits="userSpaceOnUse"><stop offset="0" stop-color="#f3923b" stop-opacity=".5"/><stop offset="1" stop-color="#d23f16"/></radialGradient><linearGradient id="linear-gradient-5" x1="344.5" y1="29.74" x2="344.5" y2="115.38" gradientTransform="translate(0 363.09) scale(1 -1)" gradientUnits="userSpaceOnUse"><stop offset="0" stop-color="#1f1f1d"/><stop offset="1" stop-color="#3e3d3c"/></linearGradient></defs><rect class="cls-7" x=".5" y=".5" width="720" height="378.91"/><g><g><path d="M449.37,66.77l-9.09-1.13,2.09-6.42,8,4.44c-.69,.76-1.04,1.59-1.04,2.49,0,.15,0,.36,.03,.63Zm2.84,2.5l-3.91,8.31-5.44-3.97,6.69-6.29c.58,1.07,1.47,1.72,2.66,1.95Zm-3.09-14.97h6.75l-1.72,9c-.56-.27-1.11-.41-1.66-.41s-1.08,.14-1.62,.41l-1.75-9Zm6.37,13.02l6.69,6.29-5.47,3.97-3.87-8.31c1.17-.23,2.05-.88,2.66-1.95Zm-.85-3.67l8.04-4.44,2.06,6.42-9.09,1.13c.04-.27,.06-.48,.06-.63,0-.9-.36-1.73-1.07-2.49Z"/><path class="cls-22" d="M480.66,133.4v-8.86c3.38-4.55,6.65-8.2,9.84-10.98l4.57-4.05c3.27-2.9,5.99-5.77,8.12-8.62,2.15-2.84,3.21-5.81,3.21-8.92,0-2.8-.91-4.97-2.71-6.49-1.8-1.53-4.24-2.29-7.33-2.29-4.09,0-8.85,1.39-14.28,4.16v-8.21c5.7-2.12,11.2-3.18,16.53-3.18,5.88,0,10.63,1.41,14.24,4.23,3.61,2.81,5.43,6.58,5.43,11.3,0,2.98-.77,5.79-2.29,8.42s-4.7,5.9-9.5,9.78l-3.78,3.03c-1.67,1.34-3.47,3.05-5.45,5.15-1.98,2.09-3.27,4.32-3.91,6.67h24.73v8.86h-37.41Z"/><g id="animal"><rect class="cls-2" x="538.64" y="46.57" width="116.22" height="116.22"/><rect class="cls-20" x="542" y="49.93" width="109.51" height="109.51"/><rect class="cls-16" x="547.31" y="55.24" width="98.89" height="98.89"/><path id="darker" class="cls-4" d="M651.5,159.44h-109.51v-60.02s34.49,5.31,54.71,5.31,54.8-5.31,54.8-5.31v60.02h.01Z"/><path class="cls-15" d="M585.14,76.86c-.28,0-2.98,.37-4.57,2.61-.65,.84-.93,1.78-1.12,2.8-.37,2.06-1.12,5.77,.37,10.35,.74,2.15,1.58,4.75,4.01,6.53,.74,.56,2.24,1.58,4.19,1.39,2.15-.19,3.45-1.78,3.91-2.32,1.86-2.15,1.86-4.66,1.95-7.36,0-1.3,0-5.31-2.06-9.5-1.39-2.8-2.61-3.54-3.17-3.82-1.49-.93-3.08-.74-3.54-.65h.03Z"/><path class="cls-15" d="M610.87,75.28c-.28-.09-2.89-.65-5.12,.84-.84,.56-1.49,1.3-2.06,2.24-1.12,1.78-3.08,4.94-3.26,9.78-.09,2.32-.19,5.03,1.49,7.55,.56,.74,1.58,2.24,3.45,2.71,2.06,.56,3.91-.46,4.47-.84,2.43-1.39,3.45-3.73,4.47-6.25,.46-1.21,1.86-4.94,1.39-9.61-.28-3.08-1.21-4.19-1.67-4.66-1.21-1.21-2.71-1.58-3.17-1.78h0Z"/><path class="cls-15" d="M567.72,91.77c-.28,.09-2.89,.65-4.29,2.98-.56,.93-.74,1.78-.84,2.89-.19,2.06-.56,5.77,1.3,10.26,.93,2.06,1.95,4.57,4.66,6.16,.84,.46,2.43,1.3,4.29,.93,2.15-.37,3.26-2.06,3.73-2.71,1.58-2.32,1.49-4.84,1.3-7.55-.09-1.3-.46-5.22-2.98-9.22-1.58-2.61-2.89-3.26-3.54-3.54-1.67-.56-3.08-.28-3.64-.19h0Z"/><path class="cls-15" d="M626.44,89.53c-.28-.09-2.89-.65-5.12,.93-.84,.65-1.39,1.39-1.95,2.32-1.02,1.86-2.98,5.03-2.98,9.87,0,2.32-.09,5.03,1.67,7.46,.56,.74,1.67,2.24,3.54,2.61,2.06,.46,3.82-.56,4.47-.93,2.43-1.39,3.36-3.82,4.29-6.34,.46-1.21,1.78-4.94,1.12-9.61-.37-3.08-1.3-4.19-1.78-4.66-1.3-1.21-2.8-1.58-3.26-1.67h-.01Z"/><path class="cls-14" d="M625.79,92.52c-.19,0-2.15-.46-3.82,.74-.65,.46-1.02,1.02-1.49,1.67-.74,1.39-2.15,3.73-2.24,7.36,0,1.67-.09,3.73,1.3,5.59,.37,.56,1.21,1.67,2.61,1.95,1.58,.37,2.89-.46,3.36-.65,1.78-1.12,2.43-2.8,3.17-4.75,.37-.93,1.3-3.73,.84-7.18-.28-2.24-1.02-3.08-1.3-3.45-.93-1.02-2.06-1.3-2.43-1.3h0Z"/><path class="cls-14" d="M610.13,78.36c-.19-.09-2.15-.46-3.82,.56-.65,.46-1.02,.93-1.49,1.67-.84,1.3-2.24,3.64-2.43,7.27-.09,1.67-.19,3.73,1.12,5.59,.37,.56,1.12,1.67,2.52,2.06,1.58,.37,2.89-.37,3.36-.56,1.78-1.02,2.52-2.71,3.26-4.57,.37-.93,1.39-3.64,1.02-7.09-.28-2.24-.93-3.08-1.21-3.45-.93-1.12-1.95-1.39-2.32-1.49h0Z"/><path class="cls-14" d="M585.52,79.94c-.19,0-2.15,.28-3.36,1.86-.46,.65-.65,1.3-.84,2.06-.28,1.49-.84,4.19,.28,7.64,.56,1.58,1.12,3.54,2.98,4.84,.56,.37,1.67,1.12,3.08,1.02,1.58-.19,2.52-1.3,2.89-1.67,1.3-1.58,1.39-3.45,1.49-5.4,0-.93,0-3.91-1.58-6.99-1.02-2.06-1.95-2.61-2.32-2.8-1.12-.74-2.24-.65-2.61-.56Z"/><path class="cls-14" d="M568.37,94.48c-.19,0-2.24,.46-3.26,2.32-.46,.74-.56,1.39-.65,2.24-.19,1.58-.46,4.47,1.02,7.83,.65,1.58,1.49,3.54,3.54,4.66,.65,.37,1.86,1.02,3.26,.74,1.58-.28,2.52-1.58,2.8-2.06,1.21-1.78,1.12-3.73,1.02-5.77-.09-1.02-.37-4.01-2.24-7.09-1.21-2.06-2.24-2.52-2.71-2.71-1.3-.46-2.52-.19-2.8-.19v.03Z"/><path class="cls-15" d="M597.55,99.42c-1.3,.09-2.71,.09-4.29,.93-1.78,.93-2.8,2.32-3.73,3.54-.84,1.12-.74,1.21-1.95,3.17-1.12,1.67-1.67,2.71-2.71,3.82-1.21,1.39-2.43,2.24-4.57,3.91-2.32,1.78-2.52,1.67-3.17,2.43-1.58,1.86-1.95,3.91-2.24,5.31-.19,1.3-.65,3.73,.37,6.53,.46,1.21,1.3,3.54,3.45,4.57,.84,.37,1.67,.46,3.73,.37,3.45-.19,5.77-.84,7.83-1.3,2.43-.56,4.94-1.12,8.11-1.21,3.82-.09,7.18,.56,8.94,.84,2.06,.37,3.54,.84,6.42,1.12,2.43,.28,3.64,.19,5.03-.28,.84-.28,2.32-.74,3.45-2.06,1.21-1.49,1.3-3.08,1.3-4.75,.09-1.12,.09-3.82-1.49-6.99-.65-1.39-1.21-2.06-3.36-4.66-5.77-7.18-6.05-8.02-8.39-9.98-1.39-1.21-2.8-2.43-4.94-3.45-1.12-.65-4.01-2.06-7.83-1.86h.04Z"/><path class="cls-14" d="M597.83,101.83c-1.12,.09-2.32,.09-3.73,.84-1.49,.84-2.43,2.06-3.17,3.08-.74,.93-.65,1.02-1.67,2.8-.93,1.49-1.49,2.32-2.32,3.26-1.02,1.21-2.06,1.95-3.91,3.36-2.06,1.58-2.15,1.39-2.8,2.15-1.39,1.58-2.61,4.01-2.89,5.12-.19,1.12-.56,3.17,.28,5.59,.37,1.12,1.12,3.08,2.98,3.91,.74,.37,2.43-.09,4.1-.28,2.98-.19,5.03-.74,6.81-1.12,2.06-.46,4.29-.93,6.99-1.02,3.26-.09,6.16,.46,7.74,.74,1.78,.37,3.08,.74,5.51,.93,2.06,.19,4.57,1.02,5.68,.65,.74-.19,1.95-.74,2.98-1.95s.74-3.82,.84-5.31c.09-.93-.74-2.98-2.32-5.68-.74-1.3-1.12-1.78-2.89-4.01-4.94-6.16-5.22-6.9-7.18-8.57-1.21-1.02-2.43-2.06-4.29-2.98-.93-.46-3.45-1.67-6.71-1.49h-.03Z"/></g><g id="plant"><rect class="cls-2" x="109.51" y="46.57" width="116.22" height="116.22"/><rect class="cls-1" x="112.86" y="49.93" width="109.51" height="109.51"/><rect class="cls-21" x="118.17" y="55.24" width="98.89" height="98.89"/><path id="leaf" class="cls-10" d="M167.56,79.66c-14.17,1.95-24.98,11.19-24.98,24.98,0,3.36,.65,6.62,1.86,9.61-2.61,1.78-6.42,4.1-8.29,4.75-3.26,1.12-9.78,.37-10.07,.93s1.86,6.42,2.61,6.71,6.71,.28,10.07-.93c2.43-.84,6.81-3.64,9.32-5.51,4.57,5.77,11.65,9.41,19.57,9.41,13.79,0,24.79-8.67,24.79-22.45,0-5.31,1.3-12.02,3.26-16.22,2.15-4.66,13.23-7.64,13.23-7.64-1.12-3.64-35.79-4.38-41.38-3.64h.01Z"/><path id="darker-2" class="cls-3" d="M222.37,159.44H112.86v-60.02s34.49,5.31,54.71,5.31,54.8-5.31,54.8-5.31v60.02h.01Z"/></g><path d="M675.37,66.77l-9.09-1.13,2.09-6.42,8,4.44c-.69,.76-1.04,1.59-1.04,2.49,0,.15,0,.36,.03,.63Zm2.84,2.5l-3.91,8.31-5.44-3.97,6.69-6.29c.58,1.07,1.47,1.72,2.66,1.95Zm-3.09-14.97h6.75l-1.72,9c-.56-.27-1.11-.41-1.66-.41s-1.08,.14-1.62,.41l-1.75-9Zm6.37,13.02l6.69,6.29-5.47,3.97-3.87-8.31c1.17-.23,2.05-.88,2.66-1.95Zm-.85-3.67l8.04-4.44,2.06,6.42-9.09,1.13c.04-.27,.06-.48,.06-.63,0-.9-.36-1.73-1.07-2.49Z"/><path class="cls-22" d="M260.7,132.26v-8.4c5.56,2.15,10.15,3.22,13.82,3.22,3.23,0,5.89-.86,7.94-2.55s3.1-4,3.1-6.87c0-2.09-.54-4-1.62-5.7-1.09-1.71-2.67-3.03-4.75-3.97s-5.36-1.42-9.86-1.42h-3.44v-6.69l2.91-.04c4.29,0,7.37-.38,9.23-1.15,1.86-.77,3.33-1.95,4.39-3.58s1.58-3.36,1.58-5.22c0-2.25-.77-4.07-2.29-5.48-1.53-1.42-3.91-2.12-7.13-2.12-4.09,0-8.47,1.06-13.13,3.18v-7.65c2.35-.8,4.2-1.34,5.58-1.61s2.99-.49,4.83-.66,3.59-.26,5.22-.26c5.89,0,10.42,1.21,13.6,3.64s4.79,5.67,4.79,9.75c0,3.31-1.02,6.12-3.08,8.46s-5.16,4.18-9.3,5.54c3.6,.83,6.37,1.99,8.28,3.46,1.9,1.47,3.36,3.22,4.37,5.22,1.01,2.01,1.51,4.16,1.51,6.45,0,4.24-1.67,8.02-5.02,11.34s-8.75,4.98-16.22,4.98c-1.97,0-4.06-.06-6.26-.18-2.21-.11-5.24-.66-9.07-1.65v-.03h-.01Z"/><g id="microbe"><rect class="cls-2" x="314.35" y="46.57" width="116.22" height="116.22"/><rect class="cls-19" x="317.71" y="49.93" width="109.51" height="109.51"/><rect class="cls-23" x="323.02" y="55.24" width="98.89" height="98.89"/><g id="microbes"><polygon class="cls-18" points="373.72 114.61 369.05 115.17 369.71 119.83 365.06 119.08 364.3 123.74 360.11 121.59 358.06 125.8 354.61 122.53 351.44 125.98 349.12 121.88 345.02 124.11 344.08 119.55 339.51 120.57 339.88 115.91 335.23 115.45 336.99 111.16 332.72 109.38 335.69 105.76 332.06 102.77 335.97 100.16 333.37 96.34 337.84 95.04 336.53 90.47 341.2 90.56 341.29 85.91 345.76 87.3 347.16 82.92 350.98 85.52 353.68 81.7 356.58 85.43 360.2 82.55 361.89 86.93 366.26 85.34 366.54 90.01 371.2 89.73 370.09 94.29 374.65 95.32 372.22 99.32 376.32 101.74 372.78 104.91 375.95 108.36 371.67 110.32 373.72 114.61"/><polygon class="cls-18" points="413.89 95.87 412.3 96.43 412.3 98.58 409.88 97.84 408.39 99.23 405.97 97.64 403.54 98.3 396.73 99.23 393.85 98.95 390.87 93.26 387.51 92.24 384.8 89.36 381.55 87.76 379.03 84.69 375.95 83.29 374.09 79.84 371.48 77.6 370.46 75 368.59 72.94 368.4 70.8 366.82 68.94 368.12 67.54 368.22 65.5 369.62 65.58 370.92 64.09 372.89 64.93 376.05 61.94 378.47 63.72 381.27 63.91 384.06 65.96 387.33 66.89 389.09 71.46 392.63 72.85 395.06 75.83 398.42 77.69 400.46 80.59 403.63 82.73 408.85 85.52 411.37 87.95 411.74 90.01 413.43 92.05 412.95 93.83 413.89 95.87"/><polygon class="cls-18" points="408.66 118.15 409.05 118.71 409.7 120.1 408.39 120.94 408.48 122.53 405.32 123.74 404.01 125.8 400.09 129.62 395.71 131.66 389.94 133.35 386.49 135.48 381.83 136.51 377.92 138.38 373.35 139.21 369.71 140.98 365.32 141.16 361.42 142.38 358.34 142.29 355.17 143.03 353.13 142.48 350.23 142.94 350.05 141.55 349.21 141.16 349.4 139.77 349.21 138.38 351.35 137.25 351.16 133.89 354.61 132.68 356.84 130.73 360.76 129.42 365.32 128.21 369.44 127.56 373.35 125.32 377.82 124.58 382.02 122.81 386.12 122.16 390.4 120.57 396.84 117.58 400.94 116.65 402.98 117.03 406.06 116.47 407.18 117.4 408.66 118.15"/></g><path id="darker-3" class="cls-5" d="M427.21,159.44h-109.51v-60.02s34.49,5.31,54.71,5.31,54.8-5.31,54.8-5.31v60.02h.01Z"/></g><path d="M74.68,134.12v-15.77h-27.58v-8.86l27.1-34.45h10.82v34.45h6.91v8.86h-6.91v15.77h-10.34Zm-18.15-24.63h18.38v-23.17l-18.38,23.17Z"/></g><g id="tr"><rect class="cls-9" x="249.41" y="198.92" width="190.18" height="134.42"/><rect class="cls-17" x="255.33" y="204.84" width="178.5" height="122.58"/><g id="logo"><g><circle class="cls-8" cx="344.58" cy="261.69" r="34.58"/><path class="cls-11" d="M344.58,227.11s17.91,7.32,17.91,34.58-17.91,34.58-17.91,34.58"/><path class="cls-11" d="M344.58,227.11s-17.91,7.32-17.91,34.58,17.91,34.58,17.91,34.58"/><line class="cls-11" x1="344.58" y1="227.11" x2="344.58" y2="296.27"/><line class="cls-11" x1="310" y1="261.69" x2="379.16" y2="261.69"/><path class="cls-11" d="M317.63,239.88s10.12,5.14,26.79,5.14,26.79-5.14,26.79-5.14"/><path class="cls-11" d="M317.63,283.96c0-.16,10.12-5.14,26.79-5.14s26.79,5.14,26.79,5.14"/><polygon class="cls-12" points="365.29 233.34 374.48 224.93 362.33 222.44 388.81 214.81 382.74 242.38 379.16 228.67 370.43 238.79 365.29 233.34"/><polyline class="cls-6" points="344.58 304.21 332.12 304.21 337.41 304.21 337.41 316.52"/><polyline class="cls-6" points="353.46 316.52 353.46 304.21 351.12 304.21 348.16 312.47 347.23 312.47 344.73 308.58 342.86 308.58 342.86 316.52"/><path class="cls-12" d="M333.05,312c0,1.87-4.67,4.67-6.54,4.67s-13.08,.78-13.08-1.09,11.21-5.76,13.08-5.76c1.87,.16,6.54,.31,6.54,2.18Z"/><path class="cls-12" d="M327.44,307.8c-1.09,.93-5.3-.62-6.23-1.71s-6.85-7.63-5.76-8.57,9.03,4.21,9.97,5.3c.93,1.09,3.12,4.05,2.02,4.98Z"/><path class="cls-12" d="M319.19,309.98c-.31,1.4-4.36,2.96-5.92,2.65-1.4-.31-13.24-1.25-12.93-2.65s12.62-2.96,14.02-2.65c1.56,.31,5.14,1.25,4.83,2.65Z"/><path class="cls-12" d="M316.07,306.24c-1.4,.47-4.83-2.18-5.3-3.58s-5.92-11.99-4.67-12.46,9.03,9.19,9.66,10.59c.47,1.4,1.56,4.98,.31,5.45Z"/><path class="cls-12" d="M307.51,305.62c-.93,1.4-5.45,1.4-6.7,.62s-12.31-6.07-11.37-7.48,13.4,1.56,14.64,2.49c1.25,.78,4.36,2.96,3.43,4.36Z"/><path class="cls-12" d="M304.39,300.63c-1.56,0-3.74-3.58-3.74-4.98s-1.25-12.46,.31-12.46,5.3,11.21,5.3,12.62c-.16,1.25-.31,4.83-1.87,4.83Z"/><path class="cls-12" d="M296.14,291.13c-1.4-.31-2.8-4.21-2.49-5.61,.31-1.25,1.56-12.15,2.96-11.84,1.4,.31,2.49,11.84,2.18,13.08-.31,1.4-1.25,4.67-2.65,4.36Z"/><path class="cls-12" d="M296.92,297.2c-1.25,.93-5.45-.47-6.39-1.56-.93-1.25-9.66-9.5-8.41-10.44s11.84,5.76,12.77,6.85c.93,1.09,3.12,4.21,2.02,5.14Z"/><path class="cls-12" d="M289.75,285.52c-1.25,.62-4.98-1.4-5.61-2.65s-7.32-10.59-5.92-11.37c1.25-.62,9.97,7.63,10.59,8.88,.62,1.25,2.18,4.36,.93,5.14Z"/><path class="cls-12" d="M290.53,281.01c-1.09-.47-1.56-4.36-1.09-5.61s3.43-11.99,4.52-11.53c1.09,.47,.16,11.84-.31,13.08-.62,1.4-2.02,4.52-3.12,4.05Z"/><path class="cls-12" d="M285.7,273.68c-1.25,.31-3.89-2.8-4.21-4.36-.31-1.4-3.89-12.31-2.8-12.62,1.25-.31,6.85,10.28,7.16,11.68,.31,1.4,1.09,5.14-.16,5.3Z"/><path class="cls-12" d="M287.88,268.86c-1.09-.62-.93-4.21-.31-5.3s4.67-9.81,5.76-9.19-1.4,10.59-2.02,11.53c-.62,1.09-2.34,3.58-3.43,2.96Z"/><path class="cls-12" d="M284.61,259.98c-1.25-.16-2.96-3.74-2.8-5.14s-.16-12.15,1.09-12.15c1.25,.16,3.58,11.21,3.43,12.62s-.47,4.83-1.71,4.67Z"/><path class="cls-12" d="M287.73,256.4c-.78-.78,.47-4.36,1.4-5.14s7.79-8.57,8.57-7.63c.78,.78-4.83,9.97-5.76,10.75-.93,.78-3.43,2.96-4.21,2.02Z"/><path class="cls-12" d="M292.4,245.02c-.62-.78,.31-3.43,1.09-4.21,.78-.62,6.23-6.85,6.85-6.07s-3.74,7.94-4.52,8.72c-.93,.47-2.8,2.18-3.43,1.56Z"/><path class="cls-12" d="M287.1,246.58c-.93-.31-1.56-4.05-1.25-5.3,.31-1.25,2.49-11.84,3.43-11.68,.93,.31,.47,11.37,.16,12.62-.16,1.56-1.25,4.83-2.34,4.36Z"/><path class="cls-12" d="M293.02,238.33c-1.25-.47-1.87-4.21-1.4-5.45,.47-1.25,2.96-11.37,4.21-10.9,1.25,.47,.62,11.37,.16,12.62-.47,1.09-1.71,4.21-2.96,3.74Z"/><path class="cls-12" d="M356.1,311.53c0,1.87,4.67,4.67,6.54,4.67s13.08,.78,13.08-1.09-11.21-5.76-13.08-5.76-6.54,.31-6.54,2.18Z"/><path class="cls-12" d="M361.71,307.33c1.09,.93,5.3-.62,6.23-1.71s6.85-7.63,5.76-8.57c-1.09-.93-9.03,4.21-9.97,5.3-.93,1.09-3.12,4.05-2.02,4.98Z"/><path class="cls-12" d="M369.97,309.51c.31,1.4,4.36,2.96,5.92,2.65,1.4-.31,13.24-1.25,12.93-2.65-.31-1.4-12.62-2.96-14.02-2.65-1.56,.31-5.14,1.25-4.83,2.65Z"/><path class="cls-12" d="M373.08,305.77c1.4,.47,4.83-2.18,5.3-3.58s5.92-11.99,4.52-12.46-9.03,9.19-9.66,10.59c-.31,1.4-1.4,4.98-.16,5.45Z"/><path class="cls-12" d="M381.65,305.15c.93,1.4,5.45,1.4,6.7,.62s12.15-6.07,11.21-7.48c-.93-1.4-13.4,1.56-14.64,2.49-1.09,.78-4.21,2.96-3.27,4.36Z"/><path class="cls-12" d="M384.76,300.16c1.56,0,3.74-3.58,3.74-4.98s1.25-12.46-.31-12.46-5.3,11.21-5.3,12.62c.16,1.4,.31,4.83,1.87,4.83Z"/><path class="cls-12" d="M393.02,290.66c1.4-.31,2.8-4.21,2.49-5.61-.31-1.25-1.56-12.15-2.96-11.84-1.4,.31-2.49,11.84-2.18,13.08,.31,1.4,1.25,4.67,2.65,4.36Z"/><path class="cls-12" d="M392.24,296.74c1.25,.93,5.45-.47,6.39-1.56,.93-1.25,9.66-9.5,8.41-10.44-1.25-.93-11.84,5.76-12.77,6.85-.93,1.25-3.12,4.21-2.02,5.14Z"/><path class="cls-12" d="M399.41,285.06c1.25,.62,4.98-1.4,5.61-2.65s7.32-10.59,5.92-11.37c-1.25-.62-9.97,7.63-10.59,8.88-.62,1.25-2.18,4.52-.93,5.14Z"/><path class="cls-12" d="M398.63,280.69c1.09-.47,1.71-4.36,1.09-5.61s-3.43-11.99-4.52-11.53c-1.09,.47-.16,11.84,.31,13.08,.62,1.25,2.02,4.52,3.12,4.05Z"/><path class="cls-12" d="M403.46,273.22c1.25,.31,3.89-2.8,4.21-4.36,.31-1.4,4.05-12.31,2.8-12.62-1.25-.31-6.85,10.28-7.16,11.68-.31,1.56-1.09,5.14,.16,5.3Z"/><path class="cls-12" d="M401.27,268.39c1.09-.62,1.09-4.21,.31-5.3-.62-1.09-4.83-9.81-5.76-9.19s1.4,10.59,2.02,11.53c.62,1.09,2.34,3.74,3.43,2.96Z"/><path class="cls-12" d="M404.55,259.51c1.25-.16,2.96-3.74,2.8-5.14-.16-1.4,.16-12.31-1.09-12.15-1.25,.16-3.58,11.21-3.43,12.62,0,1.4,.47,4.83,1.71,4.67Z"/><path class="cls-12" d="M401.43,255.93c.78-.78-.47-4.36-1.4-5.14s-7.79-8.57-8.57-7.63c-.78,.78,4.83,9.97,5.76,10.75,.93,.78,3.43,2.96,4.21,2.02Z"/><path class="cls-12" d="M396.76,244.56c.62-.78-.31-3.43-1.09-4.21s-6.23-6.85-6.85-6.07,3.74,7.94,4.52,8.72c.78,.62,2.8,2.18,3.43,1.56Z"/><path class="cls-12" d="M401.9,246.27c.93-.31,1.56-4.05,1.25-5.3-.31-1.25-2.49-11.84-3.43-11.68-.93,.31-.47,11.37-.16,12.62,.31,1.4,1.4,4.67,2.34,4.36Z"/><path class="cls-12" d="M396.13,237.86c1.25-.47,1.87-4.21,1.4-5.45-.47-1.25-2.96-11.37-4.21-10.9-1.25,.47-.62,11.37-.16,12.62,.47,1.09,1.71,4.21,2.96,3.74Z"/></g></g><path id="darker-2" class="cls-13" d="M438.97,247.98c-2.96,5.92-53.11,15.58-94.39,15.58s-92.21-10.59-95.17-15.58v85.36h190.18v-84.42c-.16-1.09-.47-1.56-.62-.93Z"/></g></g></svg>