<?xml version="1.0" encoding="UTF-8"?><svg id="Layer" xmlns="http://www.w3.org/2000/svg" xmlns:xlink="http://www.w3.org/1999/xlink" viewBox="0 0 721 379.91"><defs><style>.cls-1{fill:url(#linear-gradient-2);}.cls-2{fill:url(#linear-gradient-6);}.cls-3{fill:#946137;}.cls-4{stroke:#ffd80c;stroke-width:4.43px;}.cls-4,.cls-5,.cls-6,.cls-7{stroke-miterlimit:10;}.cls-4,.cls-5,.cls-8{fill:none;}.cls-5{stroke:#020303;stroke-width:1.85px;}.cls-9{fill:#1f1f1e;}.cls-6{fill:#fff;opacity:0;stroke:#1d1d1b;}.cls-10{fill:url(#Nowy_wzorek_3);opacity:.1;}.cls-10,.cls-11,.cls-12,.cls-13{isolation:isolate;}.cls-14{fill:url(#linear-gradient-10);}.cls-11{opacity:.15;}.cls-11,.cls-13,.cls-15{fill:#030304;}.cls-16{fill:#ce141e;}.cls-12{fill:#e03e17;opacity:.5;}.cls-17{fill:url(#linear-gradient-5);}.cls-13{opacity:.64;}.cls-18{fill:url(#linear-gradient-7);}.cls-7{fill:#010202;stroke:#030304;stroke-width:1.87px;}.cls-19{fill:url(#linear-gradient-9);}.cls-20{fill:#515150;}.cls-21{fill:url(#linear-gradient-3);}.cls-22{fill:url(#linear-gradient);}.cls-23{fill:url(#linear-gradient-4);}.cls-24{fill:#342217;}.cls-25{fill:#010101;}.cls-26{fill:url(#linear-gradient-8);}</style><linearGradient id="linear-gradient" x1="508.03" y1="207.02" x2="508.03" y2="314.96" gradientTransform="translate(0 344.95) scale(1 -1)" gradientUnits="userSpaceOnUse"><stop offset=".16" stop-color="#823a13"/><stop offset=".18" stop-color="#985c1a"/><stop offset=".22" stop-color="#ae7d22"/><stop offset=".26" stop-color="#c39d26"/><stop offset=".3" stop-color="#d6b92e"/><stop offset=".35" stop-color="#e4cf36"/><stop offset=".41" stop-color="#efe036"/><stop offset=".48" stop-color="#f6e947"/><stop offset=".58" stop-color="#f8ea4e"/><stop offset=".86" stop-color="#f6ea4d"/><stop offset="1" stop-color="#fcf4f9"/></linearGradient><linearGradient id="linear-gradient-2" x1="508.03" y1="320.7" x2="508.03" y2="155.72" gradientTransform="translate(0 344.95) scale(1 -1)" gradientUnits="userSpaceOnUse"><stop offset=".26" stop-color="#f6ea4d"/><stop offset=".86" stop-color="#803813"/></linearGradient><linearGradient id="linear-gradient-3" x1="508.08" y1="208.51" x2="508.08" y2="313.36" gradientTransform="translate(0 344.95) scale(1 -1)" gradientUnits="userSpaceOnUse"><stop offset=".16" stop-color="#803813"/><stop offset=".17" stop-color="#8c471e"/><stop offset=".18" stop-color="#a26b3c"/><stop offset=".2" stop-color="#b78954"/><stop offset=".22" stop-color="#c7a468"/><stop offset=".24" stop-color="#d7bb7a"/><stop offset=".26" stop-color="#e2cc88"/><stop offset=".3" stop-color="#ead891"/><stop offset=".34" stop-color="#eede97"/><stop offset=".46" stop-color="#efe097"/><stop offset=".7" stop-color="#803813"/><stop offset=".73" stop-color="#e6d234"/><stop offset=".74" stop-color="#ebd948"/><stop offset=".75" stop-color="#eede6d"/><stop offset=".77" stop-color="#f0e28a"/><stop offset=".79" stop-color="#f8ebaa"/><stop offset=".8" stop-color="#f8edbf"/><stop offset=".83" stop-color="#faf0cf"/><stop offset=".85" stop-color="#fcf2da"/><stop offset=".89" stop-color="#fdf4e1"/><stop offset=".99" stop-color="#fdf5e3"/></linearGradient><linearGradient id="linear-gradient-4" x1="508.04" y1="297.98" x2="508.04" y2="136.16" gradientTransform="translate(0 344.95) scale(1 -1)" gradientUnits="userSpaceOnUse"><stop offset=".26" stop-color="#f6ea4d"/><stop offset=".77" stop-color="#803813"/></linearGradient><linearGradient id="linear-gradient-5" x1="359.52" y1="256.76" x2="359.52" y2="299.24" gradientTransform="translate(0 361.95) scale(1 -1)" gradientUnits="userSpaceOnUse"><stop offset="0" stop-color="#532a15"/><stop offset=".45" stop-color="#532a15" stop-opacity=".7"/><stop offset=".58" stop-color="#e03e17" stop-opacity=".5"/><stop offset="1" stop-color="#e03e17" stop-opacity=".5"/></linearGradient><linearGradient id="linear-gradient-6" x1="-712.25" y1="1476.48" x2="-635.6" y2="1399.85" gradientTransform="translate(-326.14 -1409.51) rotate(-45)" gradientUnits="userSpaceOnUse"><stop offset="0" stop-color="#462c1b"/><stop offset=".05" stop-color="#58351a"/><stop offset=".1" stop-color="#683f16"/><stop offset=".32" stop-color="#77491f"/><stop offset=".75" stop-color="#8d5b32"/><stop offset="1" stop-color="#946137"/></linearGradient><linearGradient id="linear-gradient-7" x1="441.65" y1="614.94" x2="273.84" y2="447.13" gradientTransform="translate(0 -252.64)" gradientUnits="userSpaceOnUse"><stop offset="0" stop-color="#9e9d9c"/><stop offset=".54" stop-color="#010202"/><stop offset="1" stop-color="#9e9d9c"/></linearGradient><linearGradient id="linear-gradient-8" x1="357.82" y1="610.03" x2="357.82" y2="452.06" gradientTransform="translate(0 -252.64)" gradientUnits="userSpaceOnUse"><stop offset="0" stop-color="#462c1b"/><stop offset="1" stop-color="#b18048"/></linearGradient><linearGradient id="linear-gradient-9" x1="357.76" y1="606.03" x2="357.76" y2="455.91" gradientTransform="translate(0 -252.64)" gradientUnits="userSpaceOnUse"><stop offset="0" stop-color="#946137"/><stop offset="1" stop-color="#805127"/></linearGradient><pattern id="Nowy_wzorek_3" x="0" y="0" width="19.7" height="21.7" patternTransform="translate(43.9 16649.47)" patternUnits="userSpaceOnUse" viewBox="0 0 19.7 21.7"><g><rect class="cls-8" width="19.7" height="21.7"/><g><rect class="cls-8" width="19.7" height="21.7"/><g><rect class="cls-8" width="19.7" height="21.7"/><g><rect class="cls-8" width="19.7" height="21.7"/><g><rect class="cls-8" width="19.7" height="21.7"/><path class="cls-9" d="M16.6,8.7c2.1,2.1,2.1,5.6,0,7.7l-1.2,1.2c-2.1,2.1-5.6,2.1-7.8,0L3.1,13c-2.1-2.1-2.1-5.6,0-7.7l1.2-1.2c2.1-2.1,5.6-2.1,7.7,0l4.6,4.6Z"/></g></g></g></g></g></pattern><linearGradient id="linear-gradient-10" x1="-598.02" y1="1375.95" x2="-524.32" y2="1302.23" gradientTransform="translate(-191.13 -1064.43) rotate(-45)" gradientUnits="userSpaceOnUse"><stop offset="0" stop-color="#030304"/><stop offset="1" stop-color="#7a7879"/></linearGradient></defs><rect class="cls-6" x=".5" y=".5" width="720" height="378.91"/><g id="mln"><polygon id="obram_czarne" class="cls-7" points="468.08 26.71 450.73 44.06 450.73 123.86 468.08 141.22 547.98 141.22 565.24 123.86 565.24 44.06 547.98 26.71 468.08 26.71"/><polygon id="obram_zolte" class="cls-22" points="470.33 30 454.11 46.31 454.11 121.62 470.33 137.94 545.64 137.94 561.96 121.62 561.96 46.31 545.64 30 470.33 30"/><polygon id="tlo_wew" class="cls-1" points="471.46 31.59 455.61 47.44 455.61 120.49 471.46 136.34 544.6 136.34 560.46 120.49 560.46 47.44 544.6 31.59 471.46 31.59"/><path id="obram_skosne" class="cls-21" d="M552.86,104.18c-2.91,0-5.25-2.34-5.25-5.25v-29.92c0-2.91,2.34-5.25,5.25-5.25h7.51v-16.32l-15.75-15.85h-16.41v7.51c0,2.91-2.34,5.25-5.25,5.25h-29.92c-2.91,0-5.25-2.34-5.25-5.25v-7.51h-16.32l-15.85,15.85v16.41h7.51c2.91,0,5.25,2.34,5.25,5.25v29.92c0,2.91-2.34,5.25-5.25,5.25h-7.51v16.32l15.85,15.85h16.41v-7.51c0-2.91,2.34-5.25,5.25-5.25h29.92c2.91,0,5.25,2.34,5.25,5.25v7.51h16.41l15.85-15.85v-16.41h-7.7Z"/><path id="tlo_zew" class="cls-23" d="M552.58,105.95c-3.56,0-6.47-3.56-6.47-7.12v-29.73c0-3.56,2.91-7.12,6.47-7.12h6.1v-13.31l-15.38-15.28h-13.23v6.1c0,3.56-3.56,6.47-7.12,6.47h-29.73c-3.56,0-7.12-2.91-7.12-6.47v-6.1h-13.41l-15.28,15.28v13.31h6.1c3.56,0,6.47,3.56,6.47,7.12v29.73c0,3.56-2.91,7.12-6.47,7.12h-6.1v13.31l15.28,15.28h13.31v-6.1c0-3.56,3.56-6.47,7.12-6.47h29.63c3.56,0,7.12,2.91,7.12,6.47v6.1h13.31l15.28-15.28v-13.31h-5.89Z"/></g><path class="cls-25" d="M492.43,110.29v-7.88c4.62,1.79,8.49,2.67,11.59,2.67,3.4,0,5.93-1.03,7.59-3.06s2.49-4.44,2.49-7.21c0-3.49-1.38-6.3-4.13-8.44s-6.97-3.21-12.64-3.21c-1.33,0-2.64,.12-3.97,.33v-27.22h31.14v8.58h-23.23l-.56,11.69c8.45,0,14.7,1.73,18.78,5.21,4.07,3.48,6.1,7.81,6.1,13,0,4.84-1.79,8.9-5.38,12.18-3.59,3.28-8.93,4.92-16.01,4.92-1.71,0-3.25-.07-4.63-.24s-3.77-.6-7.16-1.34h.01Z"/><g id="arrow"><path class="cls-12" d="M418.73,83.95l-56.47-26.1,6.83,13.57h-63.65s-1.91,6.12-1.91,12,1.91,10.68,1.91,10.68h64.86l-8.04,15.97,56.47-26.1h0Z"/><path class="cls-17" d="M374.03,91.79h-66.94c-.51-1.74-1.27-4.87-1.27-8.37,0-3.72,.83-7.58,1.37-9.7h65.64l-5.54-11,45.94,21.24-45.94,21.24,6.75-13.4h0Z"/><path class="cls-16" d="M378.97,88.76h-69.52c-.31-1.48-.59-3.35-.59-5.34,0-2.32,.37-4.74,.75-6.65h68.15l-3.84-7.62,32.05,14.81-32.05,14.81,5.05-10.03h0v.02Z"/><path class="cls-5" d="M374.03,91.79h-66.94c-.51-1.74-1.27-4.87-1.27-8.37,0-3.72,.83-7.58,1.37-9.7h65.64l-5.54-11,45.94,21.24-45.94,21.24,6.75-13.4h0Z"/></g><g id="steel"><rect class="cls-15" x="156.76" y="26.46" width="115.02" height="115.02"/><rect class="cls-2" x="160.07" y="29.77" width="108.38" height="108.38"/><rect class="cls-3" x="165.33" y="35.03" width="97.87" height="97.87"/><g><path class="cls-24" d="M224.46,116.29l2.4-45.47-5.54-.64-.83-1.94h-4.25l-.74,2.03-6.46-.28v-11.81h7.47l.56,2.31,3.51,.46,.83-2.67h7.66l1.48,1.29,1.29-1.29h9.5l1.11,1.85,1.66-1.85,7.2,5.9-.46,4.06s-3.97-3.69-5.9-3.69-4.71-.1-4.71-.1l-3.97,6.36-2.4,.18,2.21,45.29h-11.62Z"/><polygon class="cls-24" points="202.96 56.25 195.22 52 195.13 62.52 188.12 62.52 188.12 52 179.26 56.07 179.26 68.97 187.47 72.94 184.61 116.29 197.8 116.29 195.22 72.94 202.96 69.43 202.96 56.25"/></g><path id="darker" class="cls-11" d="M268.45,138.15h-108.38v-59.4s34.12,5.26,54.14,5.26,54.24-5.26,54.24-5.26v59.4Z"/></g><g id="prodBg"><rect id="external-border" class="cls-18" x="273.32" y="195.02" width="168.86" height="166.75"/><rect id="internal-border" class="cls-26" x="277.72" y="199.42" width="160.2" height="157.97"/><rect id="bg" class="cls-19" x="281.58" y="203.28" width="152.37" height="150.12"/><rect id="bgPattern" class="cls-10" x="281.58" y="203.28" width="152.37" height="150.12"/></g><g id="titan"><rect class="cls-15" x="303.62" y="223.94" width="110.59" height="110.59"/><rect class="cls-14" x="306.83" y="227.14" width="104.23" height="104.23"/><rect class="cls-20" x="311.88" y="232.19" width="94.1" height="94.1"/><path id="darker-2" class="cls-13" d="M411.04,331.35h-104.23v-57.12s32.82,5.05,52.07,5.05,52.16-5.05,52.16-5.05v57.12h0Z"/><polygon class="cls-4" points="359.52 248.52 369.36 269.18 392.05 272.1 375.39 287.8 379.65 310.26 359.52 299.25 339.46 310.26 343.72 287.8 327.04 272.1 349.75 269.18 359.52 248.52"/></g></svg>