<?xml version="1.0" encoding="UTF-8"?><svg id="Layer" xmlns="http://www.w3.org/2000/svg" xmlns:xlink="http://www.w3.org/1999/xlink" viewBox="0 0 721 379.91"><defs><style>.cls-1{fill:url(#linear-gradient-2);}.cls-2{fill:#fff;opacity:0;stroke:#1d1d1b;}.cls-2,.cls-3{stroke-miterlimit:10;}.cls-3{fill:none;stroke:#010202;stroke-width:1.88px;}.cls-4{fill:#cd141b;}.cls-5{fill:#3d4920;}.cls-6{fill:#96c227;}.cls-7,.cls-8{fill:#030304;}.cls-9{fill:url(#linear-gradient);}.cls-10{fill:#e03d15;opacity:.5;}.cls-10,.cls-8{isolation:isolate;}.cls-8{opacity:.12;}</style><linearGradient id="linear-gradient" x1="-656.57" y1="1766.51" x2="-578.45" y2="1688.41" gradientTransform="translate(-349.15 -1465.37) rotate(-45)" gradientUnits="userSpaceOnUse"><stop offset="0" stop-color="#3d4920"/><stop offset=".14" stop-color="#4b5e24"/><stop offset=".42" stop-color="#69852b"/><stop offset=".66" stop-color="#81a42c"/><stop offset=".86" stop-color="#8fb923"/><stop offset="1" stop-color="#96c227"/></linearGradient><linearGradient id="linear-gradient-2" x1="283.67" y1="451.61" x2="283.67" y2="408.3" gradientTransform="translate(0 -237.18)" gradientUnits="userSpaceOnUse"><stop offset="0" stop-color="#542913"/><stop offset=".45" stop-color="#542913" stop-opacity=".7"/><stop offset=".58" stop-color="#e03d15" stop-opacity=".5"/><stop offset="1" stop-color="#e03d15" stop-opacity=".5"/></linearGradient></defs><rect class="cls-2" x=".5" y=".5" width="720" height="378.91"/><g id="microbe"><rect class="cls-7" x="377.1" y="134.16" width="117.22" height="117.22"/><rect class="cls-9" x="380.48" y="137.54" width="110.45" height="110.45"/><rect class="cls-6" x="385.84" y="142.9" width="99.73" height="99.73"/><g id="microbes"><polygon class="cls-5" points="436.98 202.78 432.27 203.35 432.94 208.04 428.23 207.29 427.48 212 423.25 209.83 421.18 214.07 417.71 210.78 414.51 214.25 412.16 210.11 408.02 212.37 407.08 207.76 402.48 208.79 402.86 204.1 398.15 203.63 399.94 199.3 395.61 197.52 398.62 193.86 394.96 190.84 398.9 188.21 396.28 184.36 400.79 183.04 399.47 178.44 404.17 178.53 404.26 173.83 408.77 175.24 410.19 170.83 414.03 173.45 416.77 169.6 419.68 173.36 423.35 170.44 425.04 174.87 429.45 173.27 429.73 177.96 434.44 177.69 433.31 182.29 437.92 183.32 435.48 187.36 439.6 189.81 436.03 193.01 439.23 196.48 434.91 198.45 436.98 202.78"/><polygon class="cls-5" points="477.49 183.89 475.9 184.45 475.9 186.61 473.44 185.86 471.94 187.28 469.5 185.67 467.06 186.33 460.2 187.28 457.28 186.99 454.27 181.25 450.89 180.22 448.16 177.31 444.87 175.71 442.33 172.61 439.23 171.2 437.35 167.72 434.72 165.46 433.69 162.83 431.8 160.76 431.62 158.6 430.02 156.72 431.34 155.31 431.43 153.24 432.84 153.34 434.16 151.84 436.13 152.67 439.32 149.67 441.77 151.45 444.59 151.65 447.41 153.71 450.7 154.66 452.48 159.25 456.06 160.67 458.5 163.68 461.88 165.56 463.95 168.47 467.15 170.63 472.41 173.45 474.95 175.9 475.33 177.96 477.02 180.03 476.55 181.82 477.49 183.89"/><polygon class="cls-5" points="472.22 206.35 472.61 206.92 473.26 208.33 471.94 209.17 472.04 210.78 468.85 212 467.53 214.07 463.57 217.91 459.16 219.98 453.33 221.67 449.86 223.84 445.15 224.87 441.21 226.75 436.6 227.6 432.94 229.38 428.51 229.57 424.57 230.79 421.46 230.7 418.27 231.45 416.2 230.89 413.28 231.36 413.1 229.95 412.26 229.57 412.44 228.16 412.26 226.75 414.42 225.63 414.23 222.24 417.71 221.02 419.96 219.05 423.91 217.73 428.51 216.51 432.65 215.84 436.6 213.59 441.11 212.84 445.35 211.05 449.48 210.4 453.8 208.79 460.28 205.79 464.42 204.85 466.49 205.22 469.6 204.66 470.72 205.6 472.22 206.35"/></g><path id="darker" class="cls-8" d="M490.93,247.99h-110.45v-60.53s34.78,5.36,55.18,5.36,55.27-5.36,55.27-5.36v60.53Z"/></g><g id="arrow"><path class="cls-10" d="M344.04,192.77l-57.59-26.62,6.97,13.84h-64.91s-1.96,6.23-1.96,12.23,1.96,10.89,1.96,10.89h66.13l-8.2,16.28,57.59-26.62h.01Z"/><path class="cls-1" d="M298.46,200.76h-68.26c-.52-1.78-1.3-4.97-1.3-8.54,0-3.79,.85-7.74,1.39-9.88h66.94l-5.65-11.22,46.85,21.66-46.85,21.66,6.89-13.66h-.01Z"/><path class="cls-4" d="M303.5,197.66h-70.89c-.32-1.5-.6-3.41-.6-5.44,0-2.38,.38-4.84,.76-6.78h69.5l-3.91-7.78,32.68,15.11-32.68,15.11,5.14-10.22h0Z"/><path class="cls-3" d="M298.46,200.76h-68.26c-.52-1.78-1.3-4.97-1.3-8.54,0-3.79,.85-7.74,1.39-9.88h66.94l-5.65-11.22,46.85,21.66-46.85,21.66,6.89-13.66h-.01Z"/></g></svg>