<?xml version="1.0" encoding="UTF-8"?><svg id="Layer" xmlns="http://www.w3.org/2000/svg" xmlns:xlink="http://www.w3.org/1999/xlink" viewBox="0 0 721 379.91"><defs><style>.cls-1{fill:url(#linear-gradient-2);}.cls-2,.cls-3{fill:#030404;}.cls-4{stroke-width:1.49px;}.cls-4,.cls-5{fill:none;stroke:#1f1f1d;}.cls-4,.cls-5,.cls-6,.cls-7,.cls-8,.cls-9{stroke-miterlimit:10;}.cls-5,.cls-8,.cls-9{stroke-width:4.75px;}.cls-3{isolation:isolate;opacity:.05;}.cls-10{fill:#114490;}.cls-11{fill:#1b2b4c;}.cls-6{fill:#fff;opacity:0;stroke:#1d1d1b;}.cls-12{fill:url(#radial-gradient);}.cls-13{fill:#3d5da7;}.cls-14{fill:#82a3d6;}.cls-15{fill:#4eae3b;}.cls-16{fill:url(#linear-gradient-5);}.cls-17{fill:url(#radial-gradient-2);}.cls-18{fill:#7ca5d8;}.cls-19{fill:#93c6ec;}.cls-7{fill:#10592a;stroke:#1f4524;stroke-width:3.7px;}.cls-20{fill:url(#linear-gradient);}.cls-8{stroke:url(#linear-gradient-3);}.cls-8,.cls-9{fill:#e2131b;}.cls-9{stroke:url(#linear-gradient-4);}.cls-21{fill:#010101;}</style><linearGradient id="linear-gradient" x1="-796.03" y1="1628.57" x2="-719.21" y2="1551.76" gradientTransform="translate(-295.09 -1351.15) rotate(-45)" gradientUnits="userSpaceOnUse"><stop offset="0" stop-color="#136b38"/><stop offset=".04" stop-color="#176d39"/><stop offset=".08" stop-color="#0e793b"/><stop offset=".13" stop-color="#188937"/><stop offset=".15" stop-color="#149138"/><stop offset=".35" stop-color="#3a9a3d"/><stop offset=".76" stop-color="#63b24a"/><stop offset="1" stop-color="#70b74b"/></linearGradient><linearGradient id="linear-gradient-2" x1="-701.28" y1="1723.33" x2="-624.45" y2="1646.52" xlink:href="#linear-gradient"/><radialGradient id="radial-gradient" cx="252.29" cy="367.21" fx="252.29" fy="367.21" r="96.38" gradientTransform="translate(0 -253.17)" gradientUnits="userSpaceOnUse"><stop offset="0" stop-color="#f6ee82"/><stop offset=".78" stop-color="#f6ee82"/><stop offset=".91" stop-color="#f6ee82"/><stop offset=".91" stop-color="#f7ee85"/><stop offset=".94" stop-color="#faf4b6"/><stop offset=".96" stop-color="#fdfada"/><stop offset=".97" stop-color="#fefcef"/><stop offset=".99" stop-color="#fffffd"/><stop offset="1" stop-color="#fff"/></radialGradient><linearGradient id="linear-gradient-3" x1="260.13" y1="406.39" x2="205.35" y2="351.61" gradientTransform="translate(0 -253.17)" gradientUnits="userSpaceOnUse"><stop offset="0" stop-color="#5c1410"/><stop offset=".1" stop-color="#611912"/><stop offset=".26" stop-color="#722a22"/><stop offset=".48" stop-color="#904c43"/><stop offset=".73" stop-color="#be887f"/><stop offset="1" stop-color="#fbdede"/></linearGradient><linearGradient id="linear-gradient-4" x1="298.94" y1="380.2" x2="244.16" y2="325.41" xlink:href="#linear-gradient-3"/><linearGradient id="linear-gradient-5" x1="477.5" y1="143.78" x2="477.5" y2="341.88" gradientTransform="translate(0 359.09) scale(1 -1)" gradientUnits="userSpaceOnUse"><stop offset="0" stop-color="#c1dcf4"/><stop offset="1" stop-color="#255286"/></linearGradient><radialGradient id="radial-gradient-2" cx="477.32" cy="230.44" fx="477.32" fy="230.44" r="85.9" gradientTransform="translate(0 359.09) scale(1 -1)" gradientUnits="userSpaceOnUse"><stop offset="0" stop-color="#fff" stop-opacity=".7"/><stop offset=".13" stop-color="#f8fafd" stop-opacity=".68"/><stop offset=".28" stop-color="#e4e9f7" stop-opacity=".62"/><stop offset=".44" stop-color="#c2cdea" stop-opacity=".53"/><stop offset=".62" stop-color="#93a7d6" stop-opacity=".4"/><stop offset=".79" stop-color="#5673b7" stop-opacity=".23"/><stop offset=".98" stop-color="#2c4f9e" stop-opacity=".03"/><stop offset="1" stop-color="#2b4b9b" stop-opacity="0"/></radialGradient></defs><rect class="cls-6" x=".5" y=".5" width="720" height="378.91"/><g id="plant"><rect class="cls-2" x="235.87" y="251.35" width="115.26" height="115.26"/><rect class="cls-20" x="239.29" y="254.66" width="108.63" height="108.63"/><rect class="cls-15" x="244.53" y="259.9" width="98.04" height="98.04"/><path id="leaf" class="cls-7" d="M293.5,284.17c-14.01,1.92-24.8,11.12-24.8,24.8,0,3.31,.64,6.52,1.82,9.52-2.57,1.71-6.41,4.06-8.23,4.7-3.21,1.07-9.73,.32-9.94,.96s1.82,6.41,2.57,6.63,6.63,.32,9.94-.96c2.35-.86,6.74-3.64,9.19-5.45,4.49,5.77,11.55,9.3,19.46,9.3,13.69,0,24.59-8.55,24.59-22.24,0-5.24,1.28-11.97,3.21-16.04,2.14-4.6,13.15-7.59,13.15-7.59-1.18-3.74-35.5-4.49-40.95-3.64h0Z"/><path id="darker-3" class="cls-3" d="M347.71,363.18h-108.41v-59.45s34.21,5.24,54.21,5.24,54.31-5.24,54.31-5.24l-.11,59.45h0Z"/></g><g id="plant-2"><rect class="cls-2" x="369.87" y="251.35" width="115.26" height="115.26"/><rect class="cls-1" x="373.29" y="254.66" width="108.63" height="108.63"/><rect class="cls-15" x="378.53" y="259.9" width="98.04" height="98.04"/><path id="leaf-2" class="cls-7" d="M427.5,284.17c-14.01,1.92-24.8,11.12-24.8,24.8,0,3.31,.64,6.52,1.82,9.52-2.57,1.71-6.41,4.06-8.23,4.7-3.21,1.07-9.73,.32-9.94,.96s1.82,6.41,2.57,6.63,6.63,.32,9.94-.96c2.35-.86,6.74-3.64,9.19-5.45,4.49,5.77,11.55,9.3,19.46,9.3,13.69,0,24.59-8.55,24.59-22.24,0-5.24,1.28-11.97,3.21-16.04,2.14-4.6,13.15-7.59,13.15-7.59-1.18-3.74-35.5-4.49-40.95-3.64h0Z"/><path id="darker-3-2" class="cls-3" d="M481.71,363.18h-108.41v-59.45s34.21,5.24,54.21,5.24,54.31-5.24,54.31-5.24l-.11,59.45h0Z"/></g><g id="oxIcon"><path class="cls-12" d="M348.67,114.04c0,53.2-43.18,96.38-96.38,96.38s-96.38-43.18-96.38-96.38S199.09,17.66,252.29,17.66c53.2,.16,96.38,43.18,96.38,96.38Z"/><path class="cls-5" d="M348.51,114.04c0,53.2-43.18,96.38-96.38,96.38s-96.22-43.18-96.22-96.38S199.09,17.66,252.29,17.66s96.22,43.34,96.22,96.38Z"/><path class="cls-4" d="M337.51,114.04c0,47.06-38.16,85.22-85.22,85.22s-85.22-38.16-85.22-85.22S205.24,28.98,252.29,28.98s85.22,38,85.22,85.06Z"/><path class="cls-8" d="M269.11,125.84c0,20.05-16.33,36.38-36.38,36.38s-36.38-16.33-36.38-36.38,16.33-36.38,36.38-36.38c20.21,0,36.38,16.33,36.38,36.38Z"/><path class="cls-9" d="M307.92,99.64c0,20.05-16.33,36.38-36.38,36.38s-36.38-16.33-36.38-36.38,16.33-36.38,36.38-36.38c20.21,0,36.38,16.33,36.38,36.38Z"/></g><g id="ocean"><polygon class="cls-21" points="566.03 167.44 566.03 65.06 477.5 13.96 388.79 65.06 388.79 167.44 477.5 218.55 566.03 167.44"/><polygon class="cls-16" points="563.3 165.91 563.3 66.77 477.5 17.21 391.69 66.77 391.69 165.91 477.5 215.3 563.3 165.91"/><polygon class="cls-14" points="557.49 162.49 557.49 70.02 477.5 23.7 397.34 70.02 397.34 162.49 477.5 208.81 557.49 162.49"/><path class="cls-10" d="M557.49,128.47c-3.59-3.42-10.6-4.79-22.56-6.32-11.62-1.54-17.43-2.22-20.34-2.22-18.46-.17-19.66,4.96-34.87,5.13-4.1,0-15.04-2.22-37.26-6.84-12.82-2.56-16.75-3.59-23.24-3.08-9.06,.68-16.58,3.76-22.05,7.01v40.34l80.33,46.32,79.99-46.32v-34.01h0Z"/><path class="cls-11" d="M477.67,183.85h0c36.06-.68,53.67-37.09,36.92-76.91-1.37-3.42-3.25-7.01-5.3-10.77-31.79-58.11-31.79-57.77-31.79-57.77,0,0,0-.34-31.79,57.77-2.05,3.76-3.76,7.35-5.3,10.77-16.75,39.82,.85,76.23,36.92,76.91h0"/><path class="cls-19" d="M477.67,181.63h0c34.18-.68,50.76-35.04,35.04-72.81-1.37-3.25-3.08-6.67-4.96-10.26-30.08-55.04-30.08-54.69-30.08-54.69,0,0,0-.34-30.08,54.69-1.88,3.59-3.59,6.84-4.96,10.26-16.07,37.77,.51,72.3,35.04,72.81h0"/><path class="cls-18" d="M477.5,177.7h0c31.45-.51,46.66-32.13,32.13-66.66-1.2-3.08-2.91-6.15-4.61-9.4-27.52-50.59-27.52-50.25-27.52-50.25,0,0,0-.34-27.69,50.25-1.71,3.25-3.25,6.32-4.61,9.4-14.36,34.53,.85,65.97,32.3,66.66h0"/><path class="cls-13" d="M512.88,119.93c-16.75,.17-18.29,4.96-33.16,5.13-4.1,0-15.04-2.22-37.09-6.67-9.57,31.62,5.64,58.8,34.87,59.31h.17c28.54-.51,43.76-26.83,35.21-57.77h0Z"/><circle class="cls-17" cx="477.32" cy="128.65" r="85.8"/></g></svg>