<?xml version="1.0" encoding="UTF-8"?><svg id="Layer" xmlns="http://www.w3.org/2000/svg" xmlns:xlink="http://www.w3.org/1999/xlink" viewBox="0 0 721 379.91"><defs><style>.cls-1{fill:url(#linear-gradient-2);}.cls-2,.cls-3{fill:#020303;}.cls-4{fill:#222;}.cls-5{fill:url(#linear-gradient-6);}.cls-6{fill:#fff;opacity:0;stroke:#1d1d1b;}.cls-6,.cls-7{stroke-miterlimit:10;}.cls-8{fill:url(#linear-gradient-5);opacity:.4;}.cls-8,.cls-3{isolation:isolate;}.cls-7{fill:#030304;stroke:#030404;stroke-width:1.9px;}.cls-3{opacity:.08;}.cls-9{fill:url(#linear-gradient-7);}.cls-10{fill:url(#linear-gradient-3);}.cls-11{fill:url(#linear-gradient);}.cls-12{fill:#010202;}.cls-13{fill:url(#linear-gradient-4);}.cls-14{fill:#010101;}.cls-15{fill:url(#linear-gradient-8);}</style><linearGradient id="linear-gradient" x1="263.03" y1="500.12" x2="263.03" y2="391.06" gradientTransform="translate(0 -252.47)" gradientUnits="userSpaceOnUse"><stop offset=".16" stop-color="#833c15"/><stop offset=".18" stop-color="#9a5e1a"/><stop offset=".22" stop-color="#ae7d22"/><stop offset=".26" stop-color="#c39d24"/><stop offset=".3" stop-color="#d6b92e"/><stop offset=".35" stop-color="#e4cf36"/><stop offset=".41" stop-color="#efe036"/><stop offset=".48" stop-color="#f5e952"/><stop offset=".58" stop-color="#f8eb57"/><stop offset=".86" stop-color="#f4e956"/><stop offset="1" stop-color="#fcf4f9"/></linearGradient><linearGradient id="linear-gradient-2" x1="263.04" y1="385.23" x2="263.04" y2="551.95" gradientTransform="translate(0 -252.47)" gradientUnits="userSpaceOnUse"><stop offset=".26" stop-color="#f4e956"/><stop offset=".86" stop-color="#823b15"/></linearGradient><linearGradient id="linear-gradient-3" x1="263.09" y1="498.62" x2="263.09" y2="392.65" gradientTransform="translate(0 -252.47)" gradientUnits="userSpaceOnUse"><stop offset=".16" stop-color="#823b15"/><stop offset=".17" stop-color="#8e491f"/><stop offset=".18" stop-color="#a36d3e"/><stop offset=".2" stop-color="#b78954"/><stop offset=".22" stop-color="#c7a468"/><stop offset=".24" stop-color="#d7bb7a"/><stop offset=".26" stop-color="#e2cc88"/><stop offset=".3" stop-color="#ead891"/><stop offset=".34" stop-color="#eede97"/><stop offset=".46" stop-color="#efe097"/><stop offset=".7" stop-color="#823b15"/><stop offset=".73" stop-color="#e6d234"/><stop offset=".74" stop-color="#ecda49"/><stop offset=".75" stop-color="#eede6d"/><stop offset=".77" stop-color="#efe18a"/><stop offset=".79" stop-color="#f8ebac"/><stop offset=".8" stop-color="#f8edbf"/><stop offset=".83" stop-color="#faf0cf"/><stop offset=".85" stop-color="#fcf2da"/><stop offset=".89" stop-color="#fdf4e1"/><stop offset=".99" stop-color="#fdf5e3"/></linearGradient><linearGradient id="linear-gradient-4" x1="263.03" y1="408.2" x2="263.03" y2="571.73" gradientTransform="translate(0 -252.47)" gradientUnits="userSpaceOnUse"><stop offset=".26" stop-color="#f4e956"/><stop offset=".77" stop-color="#823b15"/></linearGradient><linearGradient id="linear-gradient-5" x1="460.25" y1="118.4" x2="460.25" y2="256.26" gradientTransform="translate(0 380.09) scale(1 -1)" gradientUnits="userSpaceOnUse"><stop offset="0" stop-color="#ffdc15"/><stop offset="0" stop-color="#ffdb16"/><stop offset=".05" stop-color="#f9bb1f"/><stop offset=".1" stop-color="#f59c1b"/><stop offset=".16" stop-color="#ef7b1b"/><stop offset=".22" stop-color="#e86212"/><stop offset=".27" stop-color="#e84b1f"/><stop offset=".34" stop-color="#e63a21"/><stop offset=".41" stop-color="#e63323"/><stop offset=".5" stop-color="#e63023"/><stop offset=".59" stop-color="#e63323"/><stop offset=".66" stop-color="#e63a21"/><stop offset=".73" stop-color="#e84b1f"/><stop offset=".78" stop-color="#e86212"/><stop offset=".84" stop-color="#ef7b1b"/><stop offset=".9" stop-color="#f59c1b"/><stop offset=".95" stop-color="#f9bb1f"/><stop offset="1" stop-color="#ffdb16"/><stop offset="1" stop-color="#ffdc15"/></linearGradient><linearGradient id="linear-gradient-6" x1="460.26" y1="122.36" x2="460.26" y2="252.3" xlink:href="#linear-gradient-5"/><linearGradient id="linear-gradient-7" x1="460.34" y1="499.55" x2="460.34" y2="391.86" gradientTransform="translate(0 -253.17)" gradientUnits="userSpaceOnUse"><stop offset="0" stop-color="#ed932a"/><stop offset="1" stop-color="#f7ea47"/></linearGradient><linearGradient id="linear-gradient-8" x1="411.7" y1="170.51" x2="508.89" y2="170.51" gradientTransform="translate(0 363.09) scale(1 -1)" gradientUnits="userSpaceOnUse"><stop offset=".09" stop-color="#f7ea47"/><stop offset=".98" stop-color="#f7ea47"/></linearGradient></defs><rect class="cls-6" x=".5" y=".5" width="720" height="378.91"/><path class="cls-12" d="M342.33,224.97l32.18-68.79h8.26l-32.18,68.79h-8.26Z"/><g id="mln"><polygon id="obram_czarne" class="cls-7" points="222.67 135.27 205.14 152.8 205.14 233.46 222.67 250.99 303.41 250.99 320.84 233.46 320.84 152.8 303.41 135.27 222.67 135.27"/><polygon id="obram_zolte" class="cls-11" points="224.95 138.6 208.54 155.08 208.54 231.18 224.95 247.66 301.05 247.66 317.53 231.18 317.53 155.08 301.05 138.6 224.95 138.6"/><polygon id="tlo_wew" class="cls-1" points="226.07 140.2 210.07 156.23 210.07 230.06 226.07 246.06 300 246.06 316.01 230.06 316.01 156.23 300 140.2 226.07 140.2"/><path id="obram_skosne" class="cls-10" d="M308.34,213.55c-2.93,0-5.31-2.38-5.31-5.31v-30.23c0-2.93,2.38-5.31,5.31-5.31h7.59v-16.48l-15.93-16.03h-16.58v7.59c0,2.93-2.38,5.31-5.31,5.31h-30.23c-2.93,0-5.31-2.38-5.31-5.31v-7.59h-16.48l-16.03,16.03v16.58h7.59c2.93,0,5.31,2.38,5.31,5.31v30.23c0,2.93-2.38,5.31-5.31,5.31h-7.59v16.48l16.03,16.03h16.58v-7.59c0-2.93,2.38-5.31,5.31-5.31h30.23c2.93,0,5.31,2.38,5.31,5.31v7.59h16.58l16.03-16.03v-16.58h-7.79Z"/><path id="tlo_zew" class="cls-13" d="M308.07,215.36c-3.61,0-6.54-3.61-6.54-7.21v-30.05c0-3.61,2.93-7.21,6.54-7.21h6.16v-13.45l-15.55-15.45h-13.37v6.16c0,3.61-3.61,6.54-7.21,6.54h-30.05c-3.61,0-7.21-2.93-7.21-6.54v-6.16h-13.55l-15.45,15.45v13.45h6.16c3.61,0,6.54,3.61,6.54,7.21v30.05c0,3.61-2.93,7.21-6.54,7.21h-6.16v13.45l15.45,15.45h13.45v-6.16c0-3.61,3.61-6.54,7.21-6.54h29.95c3.61,0,7.21,2.93,7.21,6.54v6.16h13.45l15.45-15.45v-13.45h-5.94Z"/></g><path class="cls-2" d="M259.93,214.1v-43.18h-6.54l-.2-4.88,16.5-1.43v49.49h-9.76Z"/><g id="tagEvent"><path class="cls-8" d="M529.18,192.77c0,38.02-30.91,68.93-68.93,68.93s-68.93-30.91-68.93-68.93,30.91-68.93,68.93-68.93,68.93,30.8,68.93,68.93h0Z"/><path class="cls-5" d="M525.23,192.77c0,35.84-29.13,64.97-64.97,64.97s-64.97-29.13-64.97-64.97,29.13-64.97,64.97-64.97,64.97,29.03,64.97,64.97h0Z"/><path class="cls-2" d="M518.36,192.58c0,32.05-26.06,58.11-58.11,58.11s-58.11-26.06-58.11-58.11,26.06-58.11,58.11-58.11c32.15,0,58.11,25.96,58.11,58.11Z"/><path class="cls-9" d="M514.14,192.58c0,29.71-24.09,53.8-53.8,53.8s-53.8-24.09-53.8-53.8,23.99-53.89,53.71-53.89,53.89,24.09,53.89,53.89Z"/><path class="cls-15" d="M508.89,192.58c0,26.81-21.74,48.64-48.64,48.64s-48.55-21.84-48.55-48.64,21.74-48.64,48.64-48.64,48.55,21.74,48.55,48.64Z"/><path id="darker" class="cls-3" d="M514.14,192.58c0-1.12,0-2.16-.09-3.19-10.87,3-29.52,6.84-53.71,6.84s-42.27-4.78-53.61-8.72c-.19,1.69-.28,3.37-.28,5.06,0,29.71,24.09,53.8,53.8,53.8s53.89-24.09,53.89-53.8Z"/><rect class="cls-4" x="447.87" y="156.68" width="24.46" height="39.65"/><polygon class="cls-14" points="435.69 196.42 484.05 196.42 461.09 228.66 435.69 196.42"/></g></svg>