<?xml version="1.0" encoding="UTF-8"?><svg id="Layer" xmlns="http://www.w3.org/2000/svg" xmlns:xlink="http://www.w3.org/1999/xlink" viewBox="0 0 721 379.91"><defs><style>.cls-1{fill:#977355;}.cls-2{stroke:#fff;}.cls-2,.cls-3,.cls-4,.cls-5,.cls-6,.cls-7{stroke-miterlimit:10;}.cls-2,.cls-4,.cls-7{stroke-width:2.81px;}.cls-2,.cls-5{fill:none;}.cls-8{fill:url(#linear-gradient-2);}.cls-8,.cls-9{opacity:.5;}.cls-8,.cls-9,.cls-10{isolation:isolate;}.cls-3{fill:#fff;opacity:0;stroke:#1d1d1b;}.cls-4{fill:url(#linear-gradient);}.cls-4,.cls-7{stroke:#030404;}.cls-5{stroke:#473628;stroke-width:10.01px;}.cls-9{fill:url(#linear-gradient-4);}.cls-11{fill:#b88d6d;}.cls-6{fill:url(#linear-gradient-5);stroke:#010101;stroke-width:1.19px;}.cls-7{fill:url(#linear-gradient-3);}.cls-12{fill:#473628;}.cls-13,.cls-10{fill:#010101;}.cls-10{opacity:.15;}</style><linearGradient id="linear-gradient" x1="195.94" y1="19.86" x2="195.94" y2="217.62" gradientTransform="translate(0 312.27) scale(1 -1)" gradientUnits="userSpaceOnUse"><stop offset=".08" stop-color="#4ac0ef"/><stop offset=".15" stop-color="#54a5d6"/><stop offset=".23" stop-color="#5e86b5"/><stop offset=".3" stop-color="#636b9d"/><stop offset=".37" stop-color="#68578d"/><stop offset=".42" stop-color="#6a4a82"/><stop offset=".46" stop-color="#69467f"/><stop offset=".55" stop-color="#943f62"/><stop offset=".67" stop-color="#b7343d"/><stop offset=".75" stop-color="#cd2522"/><stop offset=".79" stop-color="#d41d1e"/></linearGradient><linearGradient id="linear-gradient-2" x1="187.84" y1="55.1" x2="177.18" y2="65.76" gradientTransform="translate(0 312.27) scale(1 -1)" gradientUnits="userSpaceOnUse"><stop offset="0" stop-color="#20201e" stop-opacity="0"/><stop offset="1" stop-color="#fff"/></linearGradient><linearGradient id="linear-gradient-3" x1="280.44" x2="280.44" xlink:href="#linear-gradient"/><linearGradient id="linear-gradient-4" x1="272.34" y1="55.1" x2="261.68" y2="65.76" xlink:href="#linear-gradient-2"/><linearGradient id="linear-gradient-5" x1="467.85" y1="83.06" x2="467.85" y2="259.52" gradientTransform="translate(0 363.09) scale(1 -1)" gradientUnits="userSpaceOnUse"><stop offset="0" stop-color="#241d1c"/><stop offset="1" stop-color="#d4b39c"/></linearGradient></defs><rect class="cls-3" x=".5" y=".5" width="720" height="378.91"/><g id="tempIcon"><path class="cls-4" d="M209.05,239.92V107.78c0-7.16-5.97-13.12-13.12-13.12s-13.12,5.97-13.12,13.12V239.62c-8.65,4.77-14.91,14.02-14.91,24.76,0,15.51,12.53,28.04,28.04,28.04s28.04-12.53,28.04-28.04c0-10.74-5.97-19.99-14.91-24.46h-.02Z"/><line class="cls-2" x1="190.26" y1="123.29" x2="201.89" y2="123.29"/><line class="cls-2" x1="190.26" y1="159.98" x2="201.89" y2="159.98"/><line class="cls-2" x1="190.26" y1="193.38" x2="201.89" y2="193.38"/><line class="cls-2" x1="190.26" y1="224.41" x2="201.89" y2="224.41"/><line class="cls-2" x1="190.26" y1="263.78" x2="201.89" y2="263.78"/><path class="cls-8" d="M187.87,256.92c-4.18,4.47-10.14,5.37-13.12,2.68-2.98-2.98-1.79-8.95,2.39-13.12s10.14-5.37,13.12-2.39,2.09,8.65-2.39,12.83Z"/></g><g id="tempIcon-2"><path class="cls-7" d="M293.55,239.92V107.78c0-7.16-5.97-13.12-13.12-13.12s-13.12,5.97-13.12,13.12V239.62c-8.65,4.77-14.91,14.02-14.91,24.76,0,15.51,12.53,28.04,28.04,28.04s28.04-12.53,28.04-28.04c0-10.74-5.97-19.99-14.91-24.46h-.02Z"/><line class="cls-2" x1="274.76" y1="123.29" x2="286.39" y2="123.29"/><line class="cls-2" x1="274.76" y1="159.98" x2="286.39" y2="159.98"/><line class="cls-2" x1="274.76" y1="193.38" x2="286.39" y2="193.38"/><line class="cls-2" x1="274.76" y1="224.41" x2="286.39" y2="224.41"/><line class="cls-2" x1="274.76" y1="263.78" x2="286.39" y2="263.78"/><path class="cls-9" d="M272.37,256.92c-4.18,4.47-10.14,5.37-13.12,2.68-2.98-2.98-1.79-8.95,2.39-13.12s10.14-5.37,13.12-2.39,2.09,8.65-2.39,12.83Z"/></g><g id="nuclearZone"><polygon class="cls-13" points="552.2 240.66 552.2 143.09 467.77 94.39 383.17 143.09 383.17 240.66 467.77 289.51 552.2 240.66"/><polygon class="cls-1" points="549.52 239.07 549.52 144.52 467.77 97.24 385.86 144.52 385.86 239.07 467.77 286.35 549.52 239.07"/><polygon class="cls-6" points="544.3 236.07 544.3 147.68 467.77 103.56 391.39 147.68 391.39 236.07 467.77 280.03 544.3 236.07"/><polygon class="cls-11" points="538.76 232.91 538.76 150.84 467.77 110.05 396.93 150.84 396.93 232.91 467.77 273.54 538.76 232.91"/><path class="cls-10" d="M551.73,237.81v-54.08h0q-83.96,12.49-168.08,0v54.08l83.96,48.54,84.12-48.54Z"/><g><circle class="cls-5" cx="467.77" cy="187.53" r="42.22"/><circle class="cls-12" cx="467.77" cy="187.53" r="11.86"/><polygon class="cls-12" points="445.95 149.58 423.97 187.53 467.93 187.53 445.95 149.58"/><polygon class="cls-12" points="467.61 187.53 445.79 225.48 489.59 225.48 467.61 187.53"/><polygon class="cls-12" points="489.75 149.58 467.93 187.53 511.73 187.53 489.75 149.58"/></g></g></svg>