<?xml version="1.0" encoding="UTF-8"?><svg id="Layer" xmlns="http://www.w3.org/2000/svg" xmlns:xlink="http://www.w3.org/1999/xlink" viewBox="0 0 721 379.91"><defs><style>.cls-1{fill:url(#linear-gradient-2);}.cls-2{fill:#47ad3e;}.cls-3,.cls-4{fill:#030404;}.cls-5{fill:url(#linear-gradient-9);opacity:.4;}.cls-5,.cls-6,.cls-4,.cls-7{isolation:isolate;}.cls-8{fill:#20201e;}.cls-9{fill:#1a291d;}.cls-10{fill:url(#linear-gradient-6);}.cls-11,.cls-12,.cls-13,.cls-14,.cls-15,.cls-16{stroke-miterlimit:10;}.cls-11,.cls-13{stroke:#20201e;}.cls-11,.cls-13,.cls-17{fill:none;}.cls-11,.cls-15,.cls-16{stroke-width:.96px;}.cls-6{fill:url(#Nowy_wzorek_5);opacity:.1;}.cls-18{fill:#48ad38;}.cls-19{fill:url(#linear-gradient-11);}.cls-12{fill:#fff;opacity:0;stroke:#1d1d1b;}.cls-13{stroke-width:.3px;}.cls-20{fill:url(#linear-gradient-10);}.cls-21{fill:url(#radial-gradient);}.cls-4{opacity:.08;}.cls-22{fill:#175a29;}.cls-23{fill:url(#linear-gradient-5);}.cls-24{fill:url(#radial-gradient-2);}.cls-14{fill:#0b572a;stroke:#1d4422;stroke-width:3.73px;}.cls-25{fill:url(#radial-gradient-3);}.cls-26{fill:url(#linear-gradient-7);}.cls-7{opacity:.05;}.cls-7,.cls-27{fill:#030304;}.cls-15{stroke:url(#linear-gradient-4);}.cls-15,.cls-16{fill:#e2181e;}.cls-28{fill:url(#linear-gradient);}.cls-29{fill:#010202;}.cls-30{fill:url(#linear-gradient-8);}.cls-16{stroke:url(#linear-gradient-3);}</style><linearGradient id="linear-gradient" x1="-549.4" y1="-1067.04" x2="-472.02" y2="-989.68" gradientTransform="translate(96.25 -1011.43) rotate(-45) scale(1 -1)" gradientUnits="userSpaceOnUse"><stop offset="0" stop-color="#1f4d23"/><stop offset=".43" stop-color="#4d7131"/><stop offset="1" stop-color="#99ac44"/></linearGradient><radialGradient id="radial-gradient" cx="462.29" cy="51.25" fx="462.29" fy="51.25" r="49.4" gradientTransform="translate(0 128.1) scale(1 -1)" gradientUnits="userSpaceOnUse"><stop offset=".25" stop-color="#99ac44"/><stop offset="1" stop-color="#3e7c31"/></radialGradient><linearGradient id="linear-gradient-2" x1="264.58" y1="224.47" x2="264.58" y2="368.71" gradientTransform="translate(0 375.32) scale(1 -1)" gradientUnits="userSpaceOnUse"><stop offset="0" stop-color="#116a37"/><stop offset=".15" stop-color="#0f9039"/><stop offset=".62" stop-color="#28a138"/><stop offset=".65" stop-color="#2ea43a"/><stop offset=".84" stop-color="#4eaf45"/><stop offset="1" stop-color="#56b148"/></linearGradient><radialGradient id="radial-gradient-2" cx="328.93" cy="332.73" fx="328.93" fy="332.73" r="19.51" gradientTransform="translate(0 375.32) scale(1 -1)" gradientUnits="userSpaceOnUse"><stop offset="0" stop-color="#f6ee87"/><stop offset=".78" stop-color="#f6ee87"/><stop offset=".91" stop-color="#f6ee87"/><stop offset=".91" stop-color="#f7ee88"/><stop offset=".94" stop-color="#faf4b7"/><stop offset=".96" stop-color="#fdfade"/><stop offset=".97" stop-color="#fefcf2"/><stop offset=".99" stop-color="#fff"/><stop offset="1" stop-color="#fff"/></radialGradient><linearGradient id="linear-gradient-3" x1="330.47" y1="324.7" x2="319.38" y2="335.81" gradientTransform="translate(0 375.32) scale(1 -1)" gradientUnits="userSpaceOnUse"><stop offset="0" stop-color="#5e1613"/><stop offset=".1" stop-color="#611912"/><stop offset=".26" stop-color="#732c23"/><stop offset=".48" stop-color="#924e45"/><stop offset=".73" stop-color="#bf8981"/><stop offset="1" stop-color="#fbdede"/></linearGradient><linearGradient id="linear-gradient-4" x1="338.4" y1="330.06" x2="327.28" y2="341.18" xlink:href="#linear-gradient-3"/><linearGradient id="linear-gradient-5" x1="-867.58" y1="-1048.73" x2="-790.21" y2="-971.37" xlink:href="#linear-gradient"/><radialGradient id="radial-gradient-3" cx="224.35" cy="-160.79" fx="224.35" fy="-160.79" xlink:href="#radial-gradient"/><linearGradient id="linear-gradient-6" x1="534.8" y1="-263.68" x2="330.03" y2="-58.91" gradientTransform="translate(0 127.45) scale(1 -1)" gradientUnits="userSpaceOnUse"><stop offset="0" stop-color="#9f9d9c"/><stop offset=".54" stop-color="#020303"/><stop offset="1" stop-color="#9f9d9c"/></linearGradient><linearGradient id="linear-gradient-7" x1="432.49" y1="-243.94" x2="432.49" y2="-78.68" gradientTransform="translate(0 127.45) scale(1 -1)" gradientUnits="userSpaceOnUse"><stop offset="0" stop-color="#472d1c"/><stop offset="1" stop-color="#b18047"/></linearGradient><linearGradient id="linear-gradient-8" x1="432.41" y1="-239.76" x2="432.41" y2="-82.71" gradientTransform="translate(0 127.45) scale(1 -1)" gradientUnits="userSpaceOnUse"><stop offset="0" stop-color="#946137"/><stop offset="1" stop-color="#815228"/></linearGradient><pattern id="Nowy_wzorek_5" x="0" y="0" width="19.7" height="21.7" patternTransform="translate(43.4 -32285.17) scale(1 -1)" patternUnits="userSpaceOnUse" viewBox="0 0 19.7 21.7"><g><rect class="cls-17" width="19.7" height="21.7"/><g><rect class="cls-17" width="19.7" height="21.7"/><g><rect class="cls-17" width="19.7" height="21.7"/><g><rect class="cls-17" width="19.7" height="21.7"/><g><rect class="cls-17" width="19.7" height="21.7"/><g><rect class="cls-17" width="19.7" height="21.7"/><path class="cls-8" d="M16.6,13c2.1-2.1,2.1-5.6,0-7.7l-1.2-1.2c-2.1-2.1-5.6-2.1-7.8,0L3.1,8.7c-2.1,2.1-2.1,5.6,0,7.7l1.2,1.2c2.1,2.1,5.6,2.1,7.7,0l4.6-4.6Z"/></g></g></g></g></g></g></pattern><linearGradient id="linear-gradient-9" x1="463.16" y1="594.38" x2="463.16" y2="454.67" gradientTransform="translate(0 -235.46)" gradientUnits="userSpaceOnUse"><stop offset="0" stop-color="#ffdc15"/><stop offset="0" stop-color="#ffdb16"/><stop offset=".05" stop-color="#f9bb24"/><stop offset=".1" stop-color="#f59d1e"/><stop offset=".16" stop-color="#ef7c1e"/><stop offset=".22" stop-color="#e86312"/><stop offset=".27" stop-color="#e94c21"/><stop offset=".34" stop-color="#e63b23"/><stop offset=".41" stop-color="#e63624"/><stop offset=".5" stop-color="#e63324"/><stop offset=".59" stop-color="#e63624"/><stop offset=".66" stop-color="#e63b23"/><stop offset=".73" stop-color="#e94c21"/><stop offset=".78" stop-color="#e86312"/><stop offset=".84" stop-color="#ef7c1e"/><stop offset=".9" stop-color="#f59d1e"/><stop offset=".95" stop-color="#f9bb24"/><stop offset="1" stop-color="#ffdb16"/><stop offset="1" stop-color="#ffdc15"/></linearGradient><linearGradient id="linear-gradient-10" x1="463.17" y1="590.73" x2="463.17" y2="458.32" xlink:href="#linear-gradient-9"/><linearGradient id="linear-gradient-11" x1="-532.04" y1="-1076.79" x2="-454.61" y2="-999.34" gradientTransform="translate(78.19 -794.17) rotate(-45) scale(1 -1)" gradientUnits="userSpaceOnUse"><stop offset="0" stop-color="#0f6936"/><stop offset=".04" stop-color="#0f6c37"/><stop offset=".08" stop-color="#077739"/><stop offset=".13" stop-color="#108837"/><stop offset=".15" stop-color="#0a9039"/><stop offset=".35" stop-color="#36993d"/><stop offset=".76" stop-color="#5fb048"/><stop offset="1" stop-color="#6fb74b"/></linearGradient></defs><rect class="cls-12" x=".5" y=".5" width="720" height="378.91"/><path d="M356.89,69.53v-12.56h12.56v12.56h-12.56Zm0,34.08v-12.56h12.56v12.56h-12.56Z"/><g id="animal"><rect class="cls-3" x="404.22" y="18.79" width="116.11" height="116.11"/><rect class="cls-28" x="407.58" y="22.15" width="109.41" height="109.41"/><rect class="cls-21" x="412.89" y="27.45" width="98.8" height="98.8"/><path id="darker" class="cls-4" d="M516.98,131.56h-109.41v-59.97s34.46,5.31,54.66,5.31,54.75-5.31,54.75-5.31v59.97h0Z"/><path class="cls-22" d="M450.69,49.06c-.28,0-2.97,.37-4.57,2.6-.65,.84-.93,1.77-1.12,2.79-.37,2.05-1.12,5.77,.37,10.34,.74,2.14,1.58,4.75,4.01,6.52,.74,.56,2.23,1.58,4.19,1.39,2.14-.19,3.45-1.77,3.9-2.32,1.86-2.14,1.86-4.66,1.95-7.35,0-1.3,0-5.31-2.05-9.49-1.39-2.79-2.6-3.53-3.16-3.82-1.49-.93-3.08-.74-3.53-.65h.01Z"/><path class="cls-22" d="M476.39,47.48c-.28-.09-2.88-.65-5.12,.84-.84,.56-1.49,1.3-2.05,2.23-1.12,1.77-3.08,4.94-3.25,9.78-.09,2.32-.19,5.03,1.49,7.54,.56,.74,1.58,2.23,3.45,2.71,2.05,.56,3.9-.46,4.47-.84,2.42-1.39,3.45-3.73,4.47-6.24,.46-1.21,1.86-4.94,1.39-9.6-.28-3.08-1.21-4.19-1.67-4.66-1.21-1.21-2.71-1.58-3.16-1.77h-.02Z"/><path class="cls-22" d="M433.28,63.95c-.28,.09-2.88,.65-4.29,2.97-.56,.93-.74,1.77-.84,2.88-.19,2.05-.56,5.77,1.3,10.25,.93,2.05,1.95,4.57,4.66,6.15,.84,.46,2.42,1.3,4.29,.93,2.14-.37,3.25-2.05,3.73-2.71,1.58-2.32,1.49-4.84,1.3-7.54-.09-1.3-.46-5.22-2.97-9.21-1.58-2.6-2.88-3.25-3.53-3.53-1.67-.56-3.08-.28-3.64-.19h-.01Z"/><path class="cls-22" d="M491.95,61.72c-.28-.09-2.88-.65-5.12,.93-.84,.65-1.39,1.39-1.95,2.32-1.02,1.86-2.97,5.03-2.97,9.86,0,2.32-.09,5.03,1.67,7.45,.56,.74,1.67,2.23,3.53,2.6,2.05,.46,3.82-.56,4.47-.93,2.42-1.39,3.36-3.82,4.29-6.33,.46-1.21,1.77-4.94,1.12-9.6-.37-3.08-1.3-4.19-1.77-4.66-1.3-1.21-2.79-1.58-3.25-1.67h0v.03Z"/><path class="cls-9" d="M491.29,64.7c-.19,0-2.14-.46-3.82,.74-.65,.46-1.02,1.02-1.49,1.67-.74,1.39-2.14,3.73-2.23,7.35,0,1.67-.09,3.73,1.3,5.59,.37,.56,1.21,1.67,2.6,1.95,1.58,.37,2.88-.46,3.36-.65,1.77-1.12,2.42-2.79,3.16-4.75,.37-.93,1.3-3.73,.84-7.17-.28-2.23-1.02-3.08-1.3-3.45-.93-1.02-2.05-1.3-2.42-1.3h0v.02Z"/><path class="cls-9" d="M475.65,50.55c-.19-.09-2.14-.46-3.82,.56-.65,.46-1.02,.93-1.49,1.67-.84,1.3-2.23,3.64-2.42,7.26-.09,1.67-.19,3.73,1.12,5.59,.37,.56,1.12,1.67,2.51,2.05,1.58,.37,2.88-.37,3.36-.56,1.77-1.02,2.51-2.71,3.25-4.57,.37-.93,1.39-3.64,1.02-7.08-.28-2.23-.93-3.08-1.21-3.45-.93-1.12-1.95-1.39-2.32-1.49h0v.02Z"/><path class="cls-9" d="M451.06,52.13c-.19,0-2.14,.28-3.36,1.86-.46,.65-.65,1.3-.84,2.05-.28,1.49-.84,4.19,.28,7.63,.56,1.58,1.12,3.53,2.97,4.84,.56,.37,1.67,1.12,3.08,1.02,1.58-.19,2.51-1.3,2.88-1.67,1.3-1.58,1.39-3.45,1.49-5.4,0-.93,0-3.9-1.58-6.98-1.02-2.05-1.95-2.6-2.32-2.79-1.12-.74-2.23-.65-2.6-.56h0Z"/><path class="cls-9" d="M433.93,66.66c-.19,0-2.23,.46-3.25,2.32-.46,.74-.56,1.39-.65,2.23-.19,1.58-.46,4.47,1.02,7.82,.65,1.58,1.49,3.53,3.53,4.66,.65,.37,1.86,1.02,3.25,.74,1.58-.28,2.51-1.58,2.79-2.05,1.21-1.77,1.12-3.73,1.02-5.77-.09-1.02-.37-4.01-2.23-7.08-1.21-2.05-2.23-2.51-2.71-2.71-1.3-.46-2.51-.19-2.79-.19v.03h.02Z"/><path class="cls-22" d="M463.08,71.59c-1.3,.09-2.71,.09-4.29,.93-1.77,.93-2.79,2.32-3.73,3.53-.84,1.12-.74,1.21-1.95,3.16-1.12,1.67-1.67,2.71-2.71,3.82-1.21,1.39-2.42,2.23-4.57,3.9-2.32,1.77-2.51,1.67-3.16,2.42-1.58,1.86-1.95,3.9-2.23,5.31-.19,1.3-.65,3.73,.37,6.52,.46,1.21,1.3,3.53,3.45,4.57,.84,.37,1.67,.46,3.73,.37,3.45-.19,5.77-.84,7.82-1.3,2.42-.56,4.94-1.12,8.1-1.21,3.82-.09,7.17,.56,8.93,.84,2.05,.37,3.53,.84,6.42,1.12,2.42,.28,3.64,.19,5.03-.28,.84-.28,2.32-.74,3.45-2.05,1.21-1.49,1.3-3.08,1.3-4.75,.09-1.12,.09-3.82-1.49-6.98-.65-1.39-1.21-2.05-3.36-4.66-5.77-7.17-6.05-8.01-8.38-9.97-1.39-1.21-2.79-2.42-4.94-3.45-1.12-.65-4.01-2.05-7.82-1.86h.04v.02Z"/><path class="cls-9" d="M463.36,74.01c-1.12,.09-2.32,.09-3.73,.84-1.49,.84-2.42,2.05-3.16,3.08-.74,.93-.65,1.02-1.67,2.79-.93,1.49-1.49,2.32-2.32,3.25-1.02,1.21-2.05,1.95-3.9,3.36-2.05,1.58-2.14,1.39-2.79,2.14-1.39,1.58-2.6,4.01-2.88,5.12-.19,1.12-.56,3.16,.28,5.59,.37,1.12,1.12,3.08,2.97,3.9,.74,.37,2.42-.09,4.1-.28,2.97-.19,5.03-.74,6.8-1.12,2.05-.46,4.29-.93,6.98-1.02,3.25-.09,6.15,.46,7.73,.74,1.77,.37,3.08,.74,5.5,.93,2.05,.19,4.57,1.02,5.68,.65,.74-.19,1.95-.74,2.97-1.95s.74-3.82,.84-5.31c.09-.93-.74-2.97-2.32-5.68-.74-1.3-1.12-1.77-2.88-4.01-4.94-6.15-5.22-6.89-7.17-8.56-1.21-1.02-2.42-2.05-4.29-2.97-.93-.46-3.45-1.67-6.7-1.49h-.04Z"/></g><g id="greenery"><polygon class="cls-3" points="264.63 154.27 199.2 116.48 199.2 41.09 264.63 3.19 330.05 41.09 330.05 116.48 264.63 154.27"/><polygon class="cls-1" points="264.63 150.85 202.1 114.76 202.1 42.7 264.63 6.61 327.06 42.7 327.06 114.76 264.63 150.85"/><polygon class="cls-2" points="264.63 145.71 206.7 112.19 206.7 45.38 264.63 11.86 322.56 45.38 322.56 112.19 264.63 145.71"/><path class="cls-8" d="M273.84,122.9c-.64,.64-13.6-.75-15.74,0-1.07,1.07,1.71-3.64,1.71-6.21v-46.69h9.64v47.33c.11,2.68,4.93,4.93,4.39,5.57Z"/><path class="cls-8" d="M270.3,51.27c7.39,8.78,8.57,20.13,2.57,25.16-6,5.03-16.81,1.93-24.31-6.85-7.39-8.78-8.57-20.13-2.57-25.16,6-5.03,16.92-2.03,24.31,6.85Z"/><path class="cls-8" d="M262.92,68.83c0,6.64-7.6,11.89-17.03,11.89s-17.03-5.25-17.03-11.89,7.6-11.89,17.03-11.89,17.03,5.25,17.03,11.89Z"/><path class="cls-8" d="M291.61,53.19c2.46,11.67-2.25,22.59-10.39,24.31-8.14,1.71-16.92-6.21-19.38-17.88-2.46-11.67,2.25-22.59,10.39-24.31,8.24-1.93,16.92,6.21,19.38,17.88Z"/><path class="cls-8" d="M296.75,72.25c-1.61,5.46-9.21,7.92-17.13,5.78-8.03-2.36-13.17-8.46-11.56-14.03,1.61-5.35,9.21-8.03,17.13-5.78,8.03,2.36,13.17,8.57,11.56,14.03Z"/><path class="cls-8" d="M290.01,77.82c-.11,1.18-5.89,1.71-13.06,1.18-7.07-.54-12.85-1.82-12.74-3.11s5.89-1.71,13.06-1.18c7.07,.54,12.85,1.93,12.74,3.11Z"/></g><g id="oxIcon"><path class="cls-24" d="M348.47,42.59c0,10.81-8.78,19.49-19.49,19.49s-19.6-8.67-19.6-19.49,8.78-19.49,19.6-19.49,19.49,8.78,19.49,19.49Z"/><path class="cls-11" d="M348.47,42.59c0,10.81-8.78,19.49-19.49,19.49s-19.6-8.67-19.6-19.49,8.78-19.49,19.49-19.49,19.6,8.78,19.6,19.49Z"/><path class="cls-13" d="M346.22,42.59c0,9.53-7.71,17.24-17.24,17.24s-17.24-7.71-17.24-17.24,7.71-17.24,17.24-17.24,17.24,7.71,17.24,17.24Z"/><path class="cls-16" d="M332.3,45.05c0,4.07-3.32,7.39-7.39,7.39s-7.39-3.32-7.39-7.39,3.32-7.39,7.39-7.39,7.39,3.32,7.39,7.39Z"/><path class="cls-15" d="M340.23,39.7c0,4.07-3.32,7.39-7.39,7.39s-7.39-3.32-7.39-7.39,3.32-7.39,7.39-7.39,7.39,3.32,7.39,7.39Z"/></g><g id="animal-2"><rect class="cls-3" x="166.28" y="230.83" width="116.11" height="116.11"/><rect class="cls-23" x="169.64" y="234.19" width="109.41" height="109.41"/><rect class="cls-25" x="174.95" y="239.49" width="98.8" height="98.8"/><path id="darker-2" class="cls-4" d="M279.04,343.6h-109.41v-59.97s34.46,5.31,54.66,5.31,54.75-5.31,54.75-5.31v59.97h0Z"/><path class="cls-22" d="M212.75,261.1c-.28,0-2.97,.37-4.57,2.6-.65,.84-.93,1.77-1.12,2.79-.37,2.05-1.12,5.77,.37,10.34,.74,2.14,1.58,4.75,4.01,6.52,.74,.56,2.23,1.58,4.19,1.39,2.14-.19,3.45-1.77,3.9-2.32,1.86-2.14,1.86-4.66,1.95-7.35,0-1.3,0-5.31-2.05-9.49-1.39-2.79-2.6-3.53-3.16-3.82-1.49-.93-3.08-.74-3.53-.65h.01Z"/><path class="cls-22" d="M238.45,259.52c-.28-.09-2.88-.65-5.12,.84-.84,.56-1.49,1.3-2.05,2.23-1.12,1.77-3.08,4.94-3.25,9.78-.09,2.32-.19,5.03,1.49,7.54,.56,.74,1.58,2.23,3.45,2.71,2.05,.56,3.9-.46,4.47-.84,2.42-1.39,3.45-3.73,4.47-6.24,.46-1.21,1.86-4.94,1.39-9.6-.28-3.08-1.21-4.19-1.67-4.66-1.21-1.21-2.71-1.58-3.16-1.77h-.02Z"/><path class="cls-22" d="M195.34,275.99c-.28,.09-2.88,.65-4.29,2.97-.56,.93-.74,1.77-.84,2.88-.19,2.05-.56,5.77,1.3,10.25,.93,2.05,1.95,4.57,4.66,6.15,.84,.46,2.42,1.3,4.29,.93,2.14-.37,3.25-2.05,3.73-2.71,1.58-2.32,1.49-4.84,1.3-7.54-.09-1.3-.46-5.22-2.97-9.21-1.58-2.6-2.88-3.25-3.53-3.53-1.67-.56-3.08-.28-3.64-.19h-.01Z"/><path class="cls-22" d="M254.01,273.76c-.28-.09-2.88-.65-5.12,.93-.84,.65-1.39,1.39-1.95,2.32-1.02,1.86-2.97,5.03-2.97,9.86,0,2.32-.09,5.03,1.67,7.45,.56,.74,1.67,2.23,3.53,2.6,2.05,.46,3.82-.56,4.47-.93,2.42-1.39,3.36-3.82,4.29-6.33,.46-1.21,1.77-4.94,1.12-9.6-.37-3.08-1.3-4.19-1.77-4.66-1.3-1.21-2.79-1.58-3.25-1.67h0v.03Z"/><path class="cls-9" d="M253.35,276.74c-.19,0-2.14-.46-3.82,.74-.65,.46-1.02,1.02-1.49,1.67-.74,1.39-2.14,3.73-2.23,7.35,0,1.67-.09,3.73,1.3,5.59,.37,.56,1.21,1.67,2.6,1.95,1.58,.37,2.88-.46,3.36-.65,1.77-1.12,2.42-2.79,3.16-4.75,.37-.93,1.3-3.73,.84-7.17-.28-2.23-1.02-3.08-1.3-3.45-.93-1.02-2.05-1.3-2.42-1.3h0v.02Z"/><path class="cls-9" d="M237.71,262.59c-.19-.09-2.14-.46-3.82,.56-.65,.46-1.02,.93-1.49,1.67-.84,1.3-2.23,3.64-2.42,7.26-.09,1.67-.19,3.73,1.12,5.59,.37,.56,1.12,1.67,2.51,2.05,1.58,.37,2.88-.37,3.36-.56,1.77-1.02,2.51-2.71,3.25-4.57,.37-.93,1.39-3.64,1.02-7.08-.28-2.23-.93-3.08-1.21-3.45-.93-1.12-1.95-1.39-2.32-1.49h0v.02Z"/><path class="cls-9" d="M213.12,264.17c-.19,0-2.14,.28-3.36,1.86-.46,.65-.65,1.3-.84,2.05-.28,1.49-.84,4.19,.28,7.63,.56,1.58,1.12,3.53,2.97,4.84,.56,.37,1.67,1.12,3.08,1.02,1.58-.19,2.51-1.3,2.88-1.67,1.3-1.58,1.39-3.45,1.49-5.4,0-.93,0-3.9-1.58-6.98-1.02-2.05-1.95-2.6-2.32-2.79-1.12-.74-2.23-.65-2.6-.56h0Z"/><path class="cls-9" d="M195.99,278.7c-.19,0-2.23,.46-3.25,2.32-.46,.74-.56,1.39-.65,2.23-.19,1.58-.46,4.47,1.02,7.82,.65,1.58,1.49,3.53,3.53,4.66,.65,.37,1.86,1.02,3.25,.74,1.58-.28,2.51-1.58,2.79-2.05,1.21-1.77,1.12-3.73,1.02-5.77-.09-1.02-.37-4.01-2.23-7.08-1.21-2.05-2.23-2.51-2.71-2.71-1.3-.46-2.51-.19-2.79-.19v.03h.02Z"/><path class="cls-22" d="M225.14,283.63c-1.3,.09-2.71,.09-4.29,.93-1.77,.93-2.79,2.32-3.73,3.53-.84,1.12-.74,1.21-1.95,3.16-1.12,1.67-1.67,2.71-2.71,3.82-1.21,1.39-2.42,2.23-4.57,3.9-2.32,1.77-2.51,1.67-3.16,2.42-1.58,1.86-1.95,3.9-2.23,5.31-.19,1.3-.65,3.73,.37,6.52,.46,1.21,1.3,3.53,3.45,4.57,.84,.37,1.67,.46,3.73,.37,3.45-.19,5.77-.84,7.82-1.3,2.42-.56,4.94-1.12,8.1-1.21,3.82-.09,7.17,.56,8.93,.84,2.05,.37,3.53,.84,6.42,1.12,2.42,.28,3.64,.19,5.03-.28,.84-.28,2.32-.74,3.45-2.05,1.21-1.49,1.3-3.08,1.3-4.75,.09-1.12,.09-3.82-1.49-6.98-.65-1.39-1.21-2.05-3.36-4.66-5.77-7.17-6.05-8.01-8.38-9.97-1.39-1.21-2.79-2.42-4.94-3.45-1.12-.65-4.01-2.05-7.82-1.86h.04v.02Z"/><path class="cls-9" d="M225.42,286.05c-1.12,.09-2.32,.09-3.73,.84-1.49,.84-2.42,2.05-3.16,3.08-.74,.93-.65,1.02-1.67,2.79-.93,1.49-1.49,2.32-2.32,3.25-1.02,1.21-2.05,1.95-3.9,3.36-2.05,1.58-2.14,1.39-2.79,2.14-1.39,1.58-2.6,4.01-2.88,5.12-.19,1.12-.56,3.16,.28,5.59,.37,1.12,1.12,3.08,2.97,3.9,.74,.37,2.42-.09,4.1-.28,2.97-.19,5.03-.74,6.8-1.12,2.05-.46,4.29-.93,6.98-1.02,3.25-.09,6.15,.46,7.73,.74,1.77,.37,3.08,.74,5.5,.93,2.05,.19,4.57,1.02,5.68,.65,.74-.19,1.95-.74,2.97-1.95s.74-3.82,.84-5.31c.09-.93-.74-2.97-2.32-5.68-.74-1.3-1.12-1.77-2.88-4.01-4.94-6.15-5.22-6.89-7.17-8.56-1.21-1.02-2.42-2.05-4.29-2.97-.93-.46-3.45-1.67-6.7-1.49h-.04Z"/></g><g id="prodBg"><rect id="external-border" class="cls-10" x="314.87" y="201.52" width="235.09" height="174.45"/><rect id="internal-border" class="cls-26" x="319.48" y="206.13" width="226.02" height="165.26"/><rect id="bg" class="cls-30" x="323.49" y="210.16" width="217.83" height="157.05"/><rect id="bgPattern" class="cls-6" x="323.49" y="210.16" width="217.83" height="157.05"/></g><path class="cls-29" d="M350.87,293.75v-9.03h21.68v9.03h-21.68Z"/><g id="plant"><rect class="cls-5" x="393.3" y="219.21" width="139.71" height="139.71"/><rect class="cls-20" x="396.96" y="222.86" width="132.41" height="132.41"/><rect class="cls-27" x="405.26" y="230.58" width="116.22" height="116.22"/><rect class="cls-19" x="408.62" y="233.93" width="109.51" height="109.51"/><rect class="cls-18" x="413.93" y="239.25" width="98.89" height="98.89"/><path id="leaf" class="cls-14" d="M463.33,263.66c-14.17,1.96-24.98,11.18-24.98,24.98,0,3.36,.65,6.62,1.86,9.6-2.61,1.77-6.43,4.1-8.29,4.75-3.26,1.12-9.79,.37-10.07,.93s1.86,6.43,2.61,6.71,6.71,.28,10.07-.93c2.42-.84,6.8-3.63,9.32-5.5,4.57,5.78,11.65,9.41,19.57,9.41,13.79,0,24.79-8.67,24.79-22.46,0-5.31,1.3-12.02,3.26-16.22,2.14-4.66,13.23-7.64,13.23-7.64-1.12-3.63-35.79-4.38-41.38-3.63h.01Z"/><path id="darker-2" class="cls-7" d="M518.13,343.44h-109.51v-60.02s34.48,5.31,54.71,5.31,54.8-5.31,54.8-5.31v60.02h0Z"/></g></svg>