<?xml version="1.0" encoding="UTF-8"?><svg id="Layer" xmlns="http://www.w3.org/2000/svg" xmlns:xlink="http://www.w3.org/1999/xlink" viewBox="0 0 721 379.91"><defs><style>.cls-1{fill:url(#linear-gradient-2);}.cls-2{fill:#020303;stroke:#030404;stroke-width:1.91px;}.cls-2,.cls-3{stroke-miterlimit:10;}.cls-3{fill:#fff;opacity:0;stroke:#1d1d1b;}.cls-4{fill:url(#linear-gradient-3);}.cls-5{fill:url(#linear-gradient);}.cls-6{fill:url(#linear-gradient-4);}</style><linearGradient id="linear-gradient" x1="498.18" y1="516.86" x2="498.18" y2="407.25" gradientTransform="translate(0 -272.15)" gradientUnits="userSpaceOnUse"><stop offset=".16" stop-color="#823b14"/><stop offset=".18" stop-color="#995d1a"/><stop offset=".22" stop-color="#ae7d22"/><stop offset=".26" stop-color="#c39d25"/><stop offset=".3" stop-color="#d6b92e"/><stop offset=".35" stop-color="#e4cf36"/><stop offset=".41" stop-color="#efe036"/><stop offset=".48" stop-color="#f5e94d"/><stop offset=".58" stop-color="#f8eb53"/><stop offset=".86" stop-color="#f5ea52"/><stop offset="1" stop-color="#fcf4f9"/></linearGradient><linearGradient id="linear-gradient-2" x1="498.18" y1="401.47" x2="498.18" y2="568.97" gradientTransform="translate(0 -272.15)" gradientUnits="userSpaceOnUse"><stop offset=".26" stop-color="#f5ea52"/><stop offset=".86" stop-color="#813a14"/></linearGradient><linearGradient id="linear-gradient-3" x1="498.29" y1="515.31" x2="498.29" y2="408.87" gradientTransform="translate(0 -272.15)" gradientUnits="userSpaceOnUse"><stop offset=".16" stop-color="#813a14"/><stop offset=".17" stop-color="#8d481f"/><stop offset=".18" stop-color="#a36c3d"/><stop offset=".2" stop-color="#b78954"/><stop offset=".22" stop-color="#c7a468"/><stop offset=".24" stop-color="#d7bb7a"/><stop offset=".26" stop-color="#e2cc88"/><stop offset=".3" stop-color="#ead891"/><stop offset=".34" stop-color="#eede97"/><stop offset=".46" stop-color="#efe097"/><stop offset=".7" stop-color="#813a14"/><stop offset=".73" stop-color="#e6d234"/><stop offset=".74" stop-color="#ebda49"/><stop offset=".75" stop-color="#eede6d"/><stop offset=".77" stop-color="#f0e18a"/><stop offset=".79" stop-color="#f8ebab"/><stop offset=".8" stop-color="#f8edbf"/><stop offset=".83" stop-color="#faf0cf"/><stop offset=".85" stop-color="#fcf2da"/><stop offset=".89" stop-color="#fdf4e1"/><stop offset=".99" stop-color="#fdf5e3"/></linearGradient><linearGradient id="linear-gradient-4" x1="497.96" y1="424.54" x2="497.96" y2="588.83" gradientTransform="translate(0 -272.15)" gradientUnits="userSpaceOnUse"><stop offset=".26" stop-color="#f5ea52"/><stop offset=".77" stop-color="#813a14"/></linearGradient></defs><rect class="cls-3" x=".5" y=".5" width="720" height="378.91"/><g><g id="mln"><polygon id="obram_czarne" class="cls-2" points="457.66 131.79 440.02 149.43 440.02 230.48 457.66 248.12 538.7 248.12 556.24 230.48 556.24 149.43 538.7 131.79 457.66 131.79"/><polygon id="obram_zolte" class="cls-5" points="459.86 135.1 443.43 151.75 443.43 228.16 459.86 244.7 536.39 244.7 552.93 228.16 552.93 151.75 536.39 135.1 459.86 135.1"/><polygon id="tlo_wew" class="cls-1" points="461.08 136.75 444.98 152.85 444.98 227.06 461.08 243.16 535.29 243.16 551.38 227.06 551.38 152.85 535.29 136.75 461.08 136.75"/><path id="obram_skosne" class="cls-4" d="M543.67,210.52c-2.98,0-5.29-2.43-5.29-5.29v-30.43c0-2.98,2.43-5.29,5.29-5.29h7.61v-16.54l-15.99-16.1h-16.65v7.61c0,2.98-2.43,5.29-5.29,5.29h-30.32c-2.98,0-5.29-2.43-5.29-5.29v-7.61h-16.54l-16.1,16.1v16.65h7.61c2.98,0,5.29,2.43,5.29,5.29v30.32c0,2.98-2.43,5.29-5.29,5.29h-7.61v16.54l16.1,16.1h16.65v-7.61c0-2.98,2.43-5.29,5.29-5.29h30.32c2.98,0,5.29,2.43,5.29,5.29v7.61h16.65l16.1-16.1v-16.54h-7.83Z"/><path id="tlo_zew" class="cls-6" d="M543.34,212.28c-3.64,0-6.62-3.64-6.62-7.28v-30.1c0-3.64,2.98-7.28,6.62-7.28h6.17v-13.56l-15.66-15.55h-13.45v6.17c0,3.64-3.64,6.62-7.28,6.62h-30.21c-3.64,0-7.28-2.98-7.28-6.62v-6.17h-13.67l-15.55,15.55v13.56h6.17c3.64,0,6.62,3.64,6.62,7.28v30.21c0,3.64-2.98,7.28-6.62,7.28h-6.17v13.45l15.55,15.55h13.56v-6.17c0-3.64,3.64-6.62,7.28-6.62h30.32c3.64,0,7.28,2.98,7.28,6.62v6.17h13.56l15.55-15.55v-13.56h-6.17Z"/></g><g><path d="M467.72,195.47v-6.14h14.74v6.14h-14.74Z"/><path d="M499.19,186.95c-4.74-3.12-7.11-6.88-7.11-11.28,0-2.29,.69-4.48,2.06-6.57,1.37-2.09,3.26-3.64,5.66-4.65,2.4-1.01,5.24-1.52,8.52-1.52,4.83,0,8.54,1.06,11.14,3.18,2.6,2.12,3.9,4.74,3.9,7.88,0,1.97-.57,3.94-1.71,5.92-1.14,1.98-3.34,4.11-6.59,6.39,6.99,3.66,10.49,8.25,10.49,13.79,0,3.9-1.59,7.28-4.76,10.15-3.18,2.87-7.72,4.3-13.63,4.3s-10.38-1.33-13.35-4c-2.97-2.67-4.45-5.76-4.45-9.28,0-2.57,.81-5.12,2.44-7.66,1.63-2.54,4.09-4.75,7.39-6.63Zm4.85,3.29c-2.5,2.08-4.02,3.82-4.55,5.2-.53,1.38-.8,2.79-.8,4.2,0,2.86,.99,5.05,2.97,6.56,1.98,1.52,4.14,2.28,6.49,2.28s4.27-.64,5.96-1.91c1.69-1.27,2.54-2.92,2.54-4.93,0-1.57-.49-2.96-1.48-4.15-.99-1.2-3.17-2.75-6.56-4.65l-4.58-2.59Zm5.91-6.74c3.28-2.56,4.91-5.28,4.91-8.16,0-1.92-.69-3.45-2.08-4.58-1.38-1.13-3.15-1.69-5.3-1.69s-3.83,.52-5.06,1.56c-1.23,1.04-1.84,2.32-1.84,3.85,0,1.35,.51,2.63,1.54,3.83s3.64,2.94,7.82,5.19Z"/></g><g><path d="M168.38,202.42v-28.91h5.3l13.37,19.75v-19.75h4.82v28.91h-5.4l-13.28-19.75v19.75h-4.82Z"/><path d="M199.12,202.42v-28.91h18.52v3.98h-12.5v8.05h10.33v3.98h-10.33v8.79h13.42v4.1h-19.43Z"/><path d="M220.5,202.42l9.26-14.24-8.85-14.67h7.02l5.87,9.75,6.37-9.75h4.86l-8.88,13.65,9.2,15.26h-6.99l-6.26-10.37-6.73,10.37h-4.86Z"/><path d="M257.01,202.42v-24.92h-10.35v-3.98h26.72v3.98h-10.35v24.92h-6.02Z"/><path d="M313.46,201.28c-1.26,.55-2.36,.93-3.3,1.14s-2,.38-3.19,.51c-1.19,.14-2.37,.2-3.53,.2-5.05,0-8.82-1.43-11.31-4.28s-3.73-6.48-3.73-10.9,1.24-8.08,3.72-10.92c2.48-2.84,6.38-4.26,11.69-4.26,3.14,0,6.26,.37,9.38,1.11v4.71c-1.5-.52-2.72-.9-3.67-1.14-.95-.24-1.85-.42-2.71-.54s-1.7-.18-2.55-.18c-3.32,0-5.73,1.07-7.23,3.2-1.5,2.14-2.25,4.78-2.25,7.93,0,3.31,.85,5.98,2.55,8.03,1.7,2.04,4.23,3.07,7.59,3.07,2.8,0,5.64-.71,8.54-2.13v4.43Z"/><path d="M315.53,202.42l11.26-28.91h6.03l11.25,28.91h-6.18l-3-7.71h-11.97l-3,7.71h-4.38Zm8.88-11.56h8.97l-4.48-11.52-4.49,11.52Z"/><path d="M348.14,202.42v-28.91h10.82c2.21,0,3.9,.28,5.06,.83,1.16,.55,2.07,1.39,2.74,2.52,.67,1.13,1.01,2.4,1.01,3.82,0,1.69-.49,3.29-1.46,4.79s-2.36,2.65-4.14,3.45l9.46,13.5h-7.33l-7.19-11.82h-3.31v11.82h-5.66Zm5.66-15.78h1.38c2.48,0,4.2-.54,5.14-1.62,.95-1.08,1.42-2.3,1.42-3.67,0-1.18-.38-2.13-1.15-2.82-.77-.7-2.34-1.04-4.7-1.04h-2.09v9.16Z"/><path d="M375.74,202.42v-28.91h12.44c3.33,0,5.93,.53,7.78,1.6,1.86,1.07,3.33,2.64,4.43,4.72,1.1,2.08,1.65,4.59,1.65,7.53s-.52,5.45-1.57,7.71-2.58,4.06-4.58,5.37c-2,1.32-4.75,1.97-8.24,1.97h-11.91Zm6.02-4.1h4.49c2.34,0,4.14-.36,5.38-1.09,1.24-.73,2.23-1.96,2.95-3.7s1.08-3.67,1.08-5.81-.35-3.85-1.05-5.43c-.7-1.58-1.68-2.77-2.92-3.58-1.24-.81-3.34-1.22-6.3-1.22h-3.63v20.84Z"/><path d="M405.9,186.75v-5.78h5.78v5.78h-5.78Zm0,15.66v-5.78h5.78v5.78h-5.78Z"/></g></g></svg>