<?xml version="1.0" encoding="UTF-8"?><svg id="Layer" xmlns="http://www.w3.org/2000/svg" xmlns:xlink="http://www.w3.org/1999/xlink" viewBox="0 0 721 379.91"><defs><style>.cls-1{fill:url(#linear-gradient-2);}.cls-2{fill:url(#linear-gradient-6);}.cls-3{stroke-width:.93px;}.cls-3,.cls-4{fill:#fff;}.cls-3,.cls-4,.cls-5{stroke-miterlimit:10;}.cls-3,.cls-5{stroke:#030304;}.cls-6{fill:#1f1f1e;}.cls-4{opacity:0;stroke:#1d1d1b;}.cls-7{opacity:.15;}.cls-7,.cls-8{isolation:isolate;}.cls-7,.cls-9{fill:#030304;}.cls-8{fill:url(#Nowy_wzorek_4);opacity:.1;}.cls-10{fill:url(#linear-gradient-5);}.cls-11{fill:none;}.cls-12{fill:url(#linear-gradient-7);}.cls-13{fill:#7f358b;}.cls-14{fill:url(#linear-gradient-3);}.cls-15{fill:url(#linear-gradient);}.cls-16{fill:url(#linear-gradient-4);}.cls-5{fill:#010202;stroke-width:1.91px;}.cls-17{fill:url(#linear-gradient-8);}</style><linearGradient id="linear-gradient" x1="481.56" y1="566.77" x2="237.34" y2="322.55" gradientTransform="translate(0 -252.64)" gradientUnits="userSpaceOnUse"><stop offset="0" stop-color="#9e9d9c"/><stop offset=".54" stop-color="#010202"/><stop offset="1" stop-color="#9e9d9c"/></linearGradient><linearGradient id="linear-gradient-2" x1="359.53" y1="526.71" x2="359.53" y2="362.64" gradientTransform="translate(0 -252.64)" gradientUnits="userSpaceOnUse"><stop offset="0" stop-color="#462c1b"/><stop offset="1" stop-color="#b18048"/></linearGradient><linearGradient id="linear-gradient-3" x1="359.46" y1="522.53" x2="359.46" y2="366.67" gradientTransform="translate(0 -252.64)" gradientUnits="userSpaceOnUse"><stop offset="0" stop-color="#946137"/><stop offset="1" stop-color="#805127"/></linearGradient><pattern id="Nowy_wzorek_4" x="0" y="0" width="19.7" height="21.7" patternTransform="translate(43.9 16649.47)" patternUnits="userSpaceOnUse" viewBox="0 0 19.7 21.7"><g><rect class="cls-11" width="19.7" height="21.7"/><g><rect class="cls-11" width="19.7" height="21.7"/><g><rect class="cls-11" width="19.7" height="21.7"/><g><rect class="cls-11" width="19.7" height="21.7"/><g><rect class="cls-11" width="19.7" height="21.7"/><path class="cls-6" d="M16.6,8.7c2.1,2.1,2.1,5.6,0,7.7l-1.2,1.2c-2.1,2.1-5.6,2.1-7.8,0L3.1,13c-2.1-2.1-2.1-5.6,0-7.7l1.2-1.2c2.1-2.1,5.6-2.1,7.7,0l4.6,4.6Z"/></g></g></g></g></g></pattern><linearGradient id="linear-gradient-4" x1="-585.82" y1="1267.88" x2="-508.6" y2="1190.68" gradientTransform="translate(-191.13 -1064.43) rotate(-45)" gradientUnits="userSpaceOnUse"><stop offset="0" stop-color="#1d1427"/><stop offset=".24" stop-color="#372348"/><stop offset=".49" stop-color="#573b6c"/><stop offset=".71" stop-color="#72508c"/><stop offset=".89" stop-color="#835ca0"/><stop offset="1" stop-color="#8963a7"/></linearGradient><linearGradient id="linear-gradient-5" x1="430.2" y1="501.15" x2="430.2" y2="391.95" gradientTransform="translate(0 -253.65)" gradientUnits="userSpaceOnUse"><stop offset=".16" stop-color="#823a13"/><stop offset=".18" stop-color="#985c1a"/><stop offset=".22" stop-color="#ae7d22"/><stop offset=".26" stop-color="#c39d26"/><stop offset=".3" stop-color="#d6b92e"/><stop offset=".35" stop-color="#e4cf36"/><stop offset=".41" stop-color="#efe036"/><stop offset=".48" stop-color="#f6e947"/><stop offset=".58" stop-color="#f8ea4e"/><stop offset=".86" stop-color="#f6ea4d"/><stop offset="1" stop-color="#fcf4f9"/></linearGradient><linearGradient id="linear-gradient-6" x1="430.21" y1="386.14" x2="430.21" y2="553.05" gradientTransform="translate(0 -253.65)" gradientUnits="userSpaceOnUse"><stop offset=".26" stop-color="#f6ea4d"/><stop offset=".86" stop-color="#803813"/></linearGradient><linearGradient id="linear-gradient-7" x1="430.26" y1="499.64" x2="430.26" y2="393.56" gradientTransform="translate(0 -253.65)" gradientUnits="userSpaceOnUse"><stop offset=".16" stop-color="#803813"/><stop offset=".17" stop-color="#8c471e"/><stop offset=".18" stop-color="#a26b3c"/><stop offset=".2" stop-color="#b78954"/><stop offset=".22" stop-color="#c7a468"/><stop offset=".24" stop-color="#d7bb7a"/><stop offset=".26" stop-color="#e2cc88"/><stop offset=".3" stop-color="#ead891"/><stop offset=".34" stop-color="#eede97"/><stop offset=".46" stop-color="#efe097"/><stop offset=".7" stop-color="#803813"/><stop offset=".73" stop-color="#e6d234"/><stop offset=".74" stop-color="#ebd948"/><stop offset=".75" stop-color="#eede6d"/><stop offset=".77" stop-color="#f0e28a"/><stop offset=".79" stop-color="#f8ebaa"/><stop offset=".8" stop-color="#f8edbf"/><stop offset=".83" stop-color="#faf0cf"/><stop offset=".85" stop-color="#fcf2da"/><stop offset=".89" stop-color="#fdf4e1"/><stop offset=".99" stop-color="#fdf5e3"/></linearGradient><linearGradient id="linear-gradient-8" x1="430.18" y1="409.13" x2="430.18" y2="572.83" gradientTransform="translate(0 -253.65)" gradientUnits="userSpaceOnUse"><stop offset=".26" stop-color="#f6ea4d"/><stop offset=".77" stop-color="#803813"/></linearGradient></defs><rect class="cls-4" x=".5" y=".5" width="720" height="378.91"/><g id="prodBg"><rect id="external-border" class="cls-15" x="201.87" y="105.39" width="315.15" height="173.28"/><rect id="internal-border" class="cls-1" x="206.49" y="110" width="306.08" height="164.08"/><rect id="bg" class="cls-14" x="210.52" y="114.04" width="297.88" height="155.85"/><rect id="bgPattern" class="cls-8" x="210.52" y="114.04" width="297.88" height="155.85"/></g><g id="energy"><rect class="cls-9" x="233.25" y="133.81" width="115.84" height="115.84"/><rect class="cls-16" x="236.59" y="137.15" width="109.17" height="109.17"/><polygon class="cls-13" points="340.47 142.44 340.47 241.03 241.9 241.03 241.9 142.44 340.47 142.44"/><polygon class="cls-3" points="279.16 180.45 311.66 160.29 294.28 185.46 303.48 200.43 271.54 220.59 287.61 195.49 279.16 180.45"/><path id="darker" class="cls-7" d="M345.76,246.32h-109.17v-59.82s34.37,5.29,54.53,5.29,54.63-5.29,54.63-5.29v59.82h0Z"/></g><g id="mln"><polygon id="obram_czarne" class="cls-5" points="389.78 134.97 372.23 152.52 372.23 233.28 389.78 250.83 470.61 250.83 488.09 233.28 488.09 152.52 470.61 134.97 389.78 134.97"/><polygon id="obram_zolte" class="cls-10" points="392.06 138.31 375.64 154.81 375.64 231 392.06 247.5 468.26 247.5 484.75 231 484.75 154.81 468.26 138.31 392.06 138.31"/><polygon id="tlo_wew" class="cls-2" points="393.21 139.91 377.17 155.96 377.17 229.85 393.21 245.9 467.2 245.9 483.25 229.85 483.25 155.96 467.2 139.91 393.21 139.91"/><path id="obram_skosne" class="cls-12" d="M475.55,213.35c-2.93,0-5.32-2.38-5.32-5.32v-30.26c0-2.93,2.38-5.32,5.32-5.32h7.6v-16.5l-15.95-16.05h-16.6v7.6c0,2.93-2.38,5.32-5.32,5.32h-30.26c-2.93,0-5.32-2.38-5.32-5.32v-7.6h-16.5l-16.05,16.05v16.6h7.6c2.93,0,5.32,2.38,5.32,5.32v30.26c0,2.93-2.38,5.32-5.32,5.32h-7.6v16.5l16.05,16.05h16.6v-7.6c0-2.93,2.38-5.32,5.32-5.32h30.26c2.93,0,5.32,2.38,5.32,5.32v7.6h16.6l16.05-16.05v-16.6h-7.8Z"/><path id="tlo_zew" class="cls-17" d="M475.28,215.16c-3.61,0-6.54-3.61-6.54-7.22v-30.09c0-3.61,2.93-7.22,6.54-7.22h6.17v-13.46l-15.57-15.47h-13.39v6.17c0,3.61-3.61,6.54-7.22,6.54h-30.09c-3.61,0-7.22-2.93-7.22-6.54v-6.17h-13.56l-15.47,15.47v13.46h6.17c3.61,0,6.54,3.61,6.54,7.22v30.09c0,3.61-2.93,7.22-6.54,7.22h-6.17v13.46l15.47,15.47h13.46v-6.17c0-3.61,3.61-6.54,7.22-6.54h29.99c3.61,0,7.22,2.93,7.22,6.54v6.17h13.46l15.47-15.47v-13.46h-5.94Z"/></g><path d="M428.5,216.95v-43.43h-6.57l-.2-4.91,16.6-1.43v49.77h-9.83Z"/></svg>