<?xml version="1.0" encoding="UTF-8"?><svg id="Layer" xmlns="http://www.w3.org/2000/svg" xmlns:xlink="http://www.w3.org/1999/xlink" viewBox="0 0 721 379.91"><defs><style>.cls-1{fill:url(#linear-gradient-2);}.cls-2{fill:url(#linear-gradient-4);stroke:#010101;stroke-width:1.34px;}.cls-2,.cls-3,.cls-4{stroke-miterlimit:10;}.cls-5{fill:#977355;}.cls-6,.cls-7,.cls-8{fill:#030404;}.cls-7{opacity:.05;}.cls-7,.cls-8,.cls-9{isolation:isolate;}.cls-10{fill:#1a291d;}.cls-3{fill:#fff;opacity:0;stroke:#1d1d1b;}.cls-11{fill:url(#radial-gradient);}.cls-8{opacity:.08;}.cls-12{fill:#175a29;}.cls-13{fill:#49ad38;}.cls-4{fill:#09572d;stroke:#1e4523;stroke-width:3.78px;}.cls-14{fill:#135829;}.cls-15{fill:url(#radial-gradient-2);}.cls-16{fill:#b88d6d;}.cls-17{fill:url(#linear-gradient-3);}.cls-18{fill:url(#linear-gradient);}.cls-19{fill:#19291c;}.cls-20{fill:#473628;}.cls-21,.cls-9{fill:#010101;}.cls-9{opacity:.15;}</style><linearGradient id="linear-gradient" x1="365" y1="253.73" x2="365" y2="362.41" gradientTransform="translate(0 381.17) scale(1 -1)" gradientUnits="userSpaceOnUse"><stop offset="0" stop-color="#116a37"/><stop offset=".03" stop-color="#166b37"/><stop offset=".05" stop-color="#0a7139"/><stop offset=".07" stop-color="#0d7a3a"/><stop offset=".08" stop-color="#10853a"/><stop offset=".08" stop-color="#0f9039"/><stop offset=".12" stop-color="#149138"/><stop offset=".68" stop-color="#49ad38"/><stop offset="1" stop-color="#6fb74b"/></linearGradient><linearGradient id="linear-gradient-2" x1="186.92" y1="399.62" x2="186.92" y2="290.95" gradientTransform="translate(0 -272.18)" gradientUnits="userSpaceOnUse"><stop offset="0" stop-color="#204d23"/><stop offset="1" stop-color="#97ab46"/></linearGradient><radialGradient id="radial-gradient" cx="186.63" cy="345.03" fx="159.38" fy="345.03" r="48.45" gradientTransform="translate(0 -272.18)" gradientUnits="userSpaceOnUse"><stop offset=".24" stop-color="#97ab46"/><stop offset=".39" stop-color="#8ba343"/><stop offset=".67" stop-color="#67912e"/><stop offset="1" stop-color="#3a7a31"/></radialGradient><linearGradient id="linear-gradient-3" x1="-494.41" y1="-1117.27" x2="-417.03" y2="-1039.91" gradientTransform="translate(96.25 -1011.43) rotate(-45) scale(1 -1)" gradientUnits="userSpaceOnUse"><stop offset="0" stop-color="#1f4d23"/><stop offset=".43" stop-color="#4d7131"/><stop offset="1" stop-color="#99ac44"/></linearGradient><radialGradient id="radial-gradient-2" cx="536.69" cy="54.62" fx="536.69" fy="54.62" r="49.4" gradientTransform="translate(0 128.1) scale(1 -1)" gradientUnits="userSpaceOnUse"><stop offset=".25" stop-color="#99ac44"/><stop offset="1" stop-color="#3e7c31"/></radialGradient><linearGradient id="linear-gradient-4" x1="359.18" y1="-3.52" x2="359.18" y2="196.12" gradientTransform="translate(0 363.09) scale(1 -1)" gradientUnits="userSpaceOnUse"><stop offset="0" stop-color="#241d1c"/><stop offset="1" stop-color="#d4b39c"/></linearGradient></defs><rect class="cls-3" x=".5" y=".5" width="720" height="378.91"/><path d="M436.3,66.16v-12.56h12.56v12.56h-12.56Zm0,34.08v-12.56h12.56v12.56h-12.56Z"/><g id="tagPlant"><path class="cls-6" d="M423.6,73.15c0,32.33-26.32,58.65-58.65,58.65s-58.65-26.32-58.65-58.65,26.32-58.65,58.65-58.65,58.65,26.21,58.65,58.65Z"/><path class="cls-18" d="M419.34,73.15c0,29.93-24.36,54.28-54.28,54.28s-54.39-24.36-54.39-54.28,24.25-54.39,54.17-54.39,54.5,24.25,54.5,54.39h0Z"/><path class="cls-13" d="M413.99,73.15c0,27.09-21.95,49.04-49.15,49.04s-48.93-22.06-48.93-49.04,21.95-49.15,49.15-49.15,48.93,21.95,48.93,49.15Z"/><path id="leaf" class="cls-4" d="M364.95,51.2c-12.45,1.75-21.95,9.72-21.95,21.95,0,3.06,.55,5.9,1.75,8.41-2.29,1.64-5.57,3.5-7.32,4.15-2.95,.98-8.63,.33-8.74,.76s1.75,5.68,2.29,5.9c.55,.33,5.9,.22,8.74-.76,2.08-.76,6.01-3.17,8.19-4.81,3.93,5.02,10.27,8.3,17.26,8.3,12.12,0,21.84-7.65,21.84-19.77,0-4.7,1.09-10.59,2.84-14.31,1.86-4.15,11.58-6.77,11.58-6.77-1.09-3.06-31.46-3.82-36.48-3.06h0Z"/><path id="darker-2" class="cls-7" d="M419.34,73.15c0-1.09,0-2.18-.11-3.17-10.92,3.06-29.82,6.88-54.17,6.88s-42.71-4.81-54.07-8.85c-.22,1.75-.33,3.39-.33,5.13,0,29.93,24.36,54.28,54.28,54.28s54.28-24.36,54.39-54.28h0Z"/></g><path d="M253.43,112.91l37.35-79.73h9.61l-37.25,79.62h-9.72v.11Z"/><g id="tagAnimal"><path class="cls-6" d="M245.46,73.15c0,32.33-26.32,58.65-58.65,58.65s-58.65-26.32-58.65-58.65,26.32-58.65,58.65-58.65,58.65,26.21,58.65,58.65Z"/><path class="cls-1" d="M241.2,73.15c0,29.93-24.36,54.28-54.28,54.28s-54.28-24.36-54.28-54.28,24.25-54.39,54.17-54.39,54.39,24.25,54.39,54.39h0Z"/><path class="cls-11" d="M235.85,73.15c0,27.09-21.95,49.04-49.15,49.04s-48.93-22.06-48.93-49.04,21.95-49.15,49.15-49.15,48.93,21.95,48.93,49.15h0Z"/><path id="darker-3" class="cls-8" d="M241.2,73.15c0-1.09,0-2.18-.11-3.17-10.92,3.06-29.82,6.88-54.17,6.88s-42.71-4.81-54.07-8.85c-.22,1.75-.33,3.39-.33,5.13,0,29.93,24.36,54.28,54.28,54.28s54.39-24.36,54.39-54.28h0Z"/><path class="cls-14" d="M174.14,39.84c-.33,0-3.06,.33-4.59,2.62-.66,.87-.98,1.86-1.09,2.84-.44,2.08-1.09,5.9,.44,10.49,.76,2.18,1.64,4.81,4.04,6.66,.76,.55,2.29,1.64,4.26,1.42,2.18-.22,3.5-1.86,3.93-2.4,1.86-2.18,1.86-4.7,1.97-7.43,0-1.31,0-5.35-2.08-9.61-1.42-2.84-2.62-3.6-3.17-3.82-1.64-1.09-3.28-.87-3.71-.76h0Z"/><path class="cls-14" d="M200.24,38.2c-.33-.11-2.95-.66-5.24,.87-.87,.55-1.53,1.31-2.08,2.29-1.09,1.86-3.17,5.02-3.28,9.94-.11,2.4-.22,5.13,1.53,7.65,.55,.76,1.64,2.29,3.5,2.73,2.08,.55,3.93-.44,4.59-.87,2.4-1.42,3.5-3.82,4.59-6.33,.44-1.2,1.86-5.02,1.42-9.72-.33-3.17-1.2-4.26-1.75-4.7-1.31-1.31-2.84-1.64-3.28-1.86h0Z"/><path class="cls-14" d="M156.44,54.91c-.33,.11-2.95,.66-4.37,3.06-.55,.98-.76,1.86-.87,2.95-.22,2.08-.55,5.9,1.31,10.38,.98,2.08,1.97,4.59,4.7,6.23,.87,.44,2.4,1.31,4.37,.98,2.18-.33,3.28-2.08,3.82-2.73,1.64-2.4,1.53-4.92,1.31-7.65-.11-1.31-.44-5.24-3.06-9.39-1.64-2.62-2.95-3.28-3.6-3.6-1.64-.55-3.06-.22-3.6-.22h0Z"/><path class="cls-14" d="M215.97,52.73c-.33-.11-2.95-.66-5.24,.98-.87,.66-1.42,1.42-1.97,2.4-1.09,1.86-3.06,5.13-3.06,10.05,0,2.4-.11,5.13,1.75,7.54,.55,.76,1.75,2.29,3.6,2.62,2.08,.44,3.82-.55,4.59-.98,2.4-1.42,3.39-3.93,4.37-6.44,.44-1.2,1.75-5.02,1.09-9.72-.44-3.17-1.31-4.26-1.75-4.7-1.31-1.31-2.84-1.64-3.39-1.75h0Z"/><path class="cls-19" d="M215.31,55.68c-.22,0-2.18-.44-3.82,.76-.66,.44-1.09,1.09-1.53,1.75-.76,1.42-2.18,3.82-2.29,7.43,0,1.75-.11,3.82,1.31,5.68,.44,.55,1.2,1.75,2.62,1.97,1.64,.33,2.95-.44,3.39-.66,1.75-1.09,2.4-2.84,3.17-4.81,.44-.98,1.31-3.82,.87-7.32-.33-2.29-1.09-3.17-1.31-3.5-.87-.98-1.97-1.31-2.4-1.31Z"/><path class="cls-19" d="M199.48,41.37c-.22-.11-2.18-.44-3.82,.55-.66,.44-1.09,.98-1.53,1.75-.87,1.31-2.29,3.71-2.4,7.43-.11,1.75-.22,3.82,1.09,5.68,.44,.55,1.09,1.75,2.51,2.08,1.64,.33,2.95-.33,3.39-.55,1.75-1.09,2.51-2.73,3.28-4.59,.44-.98,1.42-3.71,1.09-7.21-.33-2.29-.98-3.17-1.2-3.5-.98-1.31-2.08-1.53-2.4-1.64h0Z"/><path class="cls-19" d="M174.46,42.9c-.22,0-2.18,.33-3.39,1.86-.44,.66-.66,1.31-.87,2.08-.33,1.53-.87,4.26,.33,7.75,.55,1.64,1.09,3.6,3.06,4.92,.55,.33,1.75,1.09,3.17,1.09,1.64-.22,2.51-1.31,2.95-1.75,1.31-1.64,1.42-3.5,1.53-5.46,0-.98,0-3.93-1.64-7.1-1.09-2.08-1.97-2.62-2.4-2.84-1.2-.66-2.29-.66-2.73-.55h0Z"/><path class="cls-19" d="M157.1,57.64c-.22,0-2.29,.44-3.28,2.4-.44,.76-.55,1.42-.66,2.29-.22,1.64-.44,4.59,1.09,7.97,.66,1.64,1.53,3.6,3.6,4.7,.66,.33,1.86,.98,3.28,.76,1.64-.33,2.51-1.64,2.84-2.08,1.2-1.86,1.09-3.82,1.09-5.9-.11-.98-.44-4.04-2.29-7.21-1.2-2.08-2.29-2.51-2.73-2.73-1.42-.44-2.73-.11-2.95-.22h0Z"/><path class="cls-14" d="M186.7,62.67c-1.31,.11-2.73,.11-4.37,.98-1.75,.98-2.84,2.4-3.82,3.6-.87,1.09-.76,1.2-1.97,3.17-1.09,1.75-1.75,2.73-2.73,3.93-1.2,1.42-2.4,2.29-4.59,3.93-2.4,1.86-2.51,1.75-3.17,2.4-1.64,1.86-1.97,3.93-2.29,5.35-.22,1.31-.66,3.82,.44,6.66,.44,1.2,1.31,3.6,3.5,4.59,.87,.33,1.75,.44,3.82,.33,3.5-.22,5.9-.87,7.97-1.31,2.4-.55,5.02-1.09,8.19-1.2,3.82-.11,7.32,.55,9.07,.87,2.08,.33,3.6,.87,6.55,1.09,2.4,.33,3.71,.22,5.13-.33,.87-.33,2.4-.76,3.5-2.08,1.2-1.53,1.31-3.17,1.31-4.81,.11-1.09,.11-3.93-1.53-7.1-.66-1.42-1.2-2.08-3.39-4.7-5.9-7.32-6.12-8.08-8.52-10.16-1.42-1.2-2.84-2.4-5.02-3.5-1.31-.55-4.26-1.97-8.08-1.75h0Z"/><path class="cls-19" d="M187.02,65.18c-1.09,.11-2.4,.11-3.82,.87-1.53,.87-2.4,2.08-3.17,3.17-.76,.98-.66,.98-1.75,2.84-.98,1.53-1.53,2.4-2.4,3.28-1.09,1.2-2.08,1.97-3.93,3.39-2.08,1.64-2.18,1.42-2.84,2.18-1.42,1.64-2.62,4.04-2.95,5.24-.22,1.09-.55,3.17,.33,5.68,.44,1.09,1.09,3.17,3.06,3.93,.76,.33,2.4-.11,4.15-.33,3.06-.22,5.13-.76,6.88-1.09,2.08-.44,4.37-.98,7.1-.98,3.28-.11,6.23,.44,7.86,.76,1.75,.33,3.17,.76,5.57,.98,2.08,.22,4.59,.98,5.79,.66,.76-.22,1.97-.76,3.06-1.97,1.09-1.2,.76-3.93,.87-5.35,.11-.98-.76-3.06-2.4-5.79-.76-1.31-1.09-1.86-2.95-4.04-5.02-6.23-5.35-6.99-7.32-8.74-1.2-.98-2.4-2.08-4.37-3.06-.98-.55-3.49-1.86-6.77-1.64h0Z"/></g><g id="animal"><rect class="cls-6" x="478.62" y="15.43" width="116.11" height="116.11"/><rect class="cls-17" x="481.98" y="18.79" width="109.41" height="109.41"/><rect class="cls-15" x="487.29" y="24.09" width="98.8" height="98.8"/><path id="darker" class="cls-8" d="M591.38,128.2h-109.41v-59.97s34.46,5.31,54.66,5.31,54.75-5.31,54.75-5.31v59.97h0Z"/><path class="cls-12" d="M525.09,45.7c-.28,0-2.97,.37-4.57,2.6-.65,.84-.93,1.77-1.12,2.79-.37,2.05-1.12,5.77,.37,10.34,.74,2.14,1.58,4.75,4.01,6.52,.74,.56,2.23,1.58,4.19,1.39,2.14-.19,3.45-1.77,3.9-2.32,1.86-2.14,1.86-4.66,1.95-7.35,0-1.3,0-5.31-2.05-9.49-1.39-2.79-2.6-3.53-3.16-3.82-1.49-.93-3.08-.74-3.53-.65h.01Z"/><path class="cls-12" d="M550.79,44.12c-.28-.09-2.88-.65-5.12,.84-.84,.56-1.49,1.3-2.05,2.23-1.12,1.77-3.08,4.94-3.25,9.78-.09,2.32-.19,5.03,1.49,7.54,.56,.74,1.58,2.23,3.45,2.71,2.05,.56,3.9-.46,4.47-.84,2.42-1.39,3.45-3.73,4.47-6.24,.46-1.21,1.86-4.94,1.39-9.6-.28-3.08-1.21-4.19-1.67-4.66-1.21-1.21-2.71-1.58-3.16-1.77h-.02Z"/><path class="cls-12" d="M507.68,60.59c-.28,.09-2.88,.65-4.29,2.97-.56,.93-.74,1.77-.84,2.88-.19,2.05-.56,5.77,1.3,10.25,.93,2.05,1.95,4.57,4.66,6.15,.84,.46,2.42,1.3,4.29,.93,2.14-.37,3.25-2.05,3.73-2.71,1.58-2.32,1.49-4.84,1.3-7.54-.09-1.3-.46-5.22-2.97-9.21-1.58-2.6-2.88-3.25-3.53-3.53-1.67-.56-3.08-.28-3.64-.19h-.01Z"/><path class="cls-12" d="M566.35,58.36c-.28-.09-2.88-.65-5.12,.93-.84,.65-1.39,1.39-1.95,2.32-1.02,1.86-2.97,5.03-2.97,9.86,0,2.32-.09,5.03,1.67,7.45,.56,.74,1.67,2.23,3.53,2.6,2.05,.46,3.82-.56,4.47-.93,2.42-1.39,3.36-3.82,4.29-6.33,.46-1.21,1.77-4.94,1.12-9.6-.37-3.08-1.3-4.19-1.77-4.66-1.3-1.21-2.79-1.58-3.25-1.67h0v.03Z"/><path class="cls-10" d="M565.69,61.34c-.19,0-2.14-.46-3.82,.74-.65,.46-1.02,1.02-1.49,1.67-.74,1.39-2.14,3.73-2.23,7.35,0,1.67-.09,3.73,1.3,5.59,.37,.56,1.21,1.67,2.6,1.95,1.58,.37,2.88-.46,3.36-.65,1.77-1.12,2.42-2.79,3.16-4.75,.37-.93,1.3-3.73,.84-7.17-.28-2.23-1.02-3.08-1.3-3.45-.93-1.02-2.05-1.3-2.42-1.3h0v.02Z"/><path class="cls-10" d="M550.05,47.19c-.19-.09-2.14-.46-3.82,.56-.65,.46-1.02,.93-1.49,1.67-.84,1.3-2.23,3.64-2.42,7.26-.09,1.67-.19,3.73,1.12,5.59,.37,.56,1.12,1.67,2.51,2.05,1.58,.37,2.88-.37,3.36-.56,1.77-1.02,2.51-2.71,3.25-4.57,.37-.93,1.39-3.64,1.02-7.08-.28-2.23-.93-3.08-1.21-3.45-.93-1.12-1.95-1.39-2.32-1.49h0v.02Z"/><path class="cls-10" d="M525.46,48.77c-.19,0-2.14,.28-3.36,1.86-.46,.65-.65,1.3-.84,2.05-.28,1.49-.84,4.19,.28,7.63,.56,1.58,1.12,3.53,2.97,4.84,.56,.37,1.67,1.12,3.08,1.02,1.58-.19,2.51-1.3,2.88-1.67,1.3-1.58,1.39-3.45,1.49-5.4,0-.93,0-3.9-1.58-6.98-1.02-2.05-1.95-2.6-2.32-2.79-1.12-.74-2.23-.65-2.6-.56h0Z"/><path class="cls-10" d="M508.33,63.3c-.19,0-2.23,.46-3.25,2.32-.46,.74-.56,1.39-.65,2.23-.19,1.58-.46,4.47,1.02,7.82,.65,1.58,1.49,3.53,3.53,4.66,.65,.37,1.86,1.02,3.25,.74,1.58-.28,2.51-1.58,2.79-2.05,1.21-1.77,1.12-3.73,1.02-5.77-.09-1.02-.37-4.01-2.23-7.08-1.21-2.05-2.23-2.51-2.71-2.71-1.3-.46-2.51-.19-2.79-.19v.03h.02Z"/><path class="cls-12" d="M537.48,68.23c-1.3,.09-2.71,.09-4.29,.93-1.77,.93-2.79,2.32-3.73,3.53-.84,1.12-.74,1.21-1.95,3.16-1.12,1.67-1.67,2.71-2.71,3.82-1.21,1.39-2.42,2.23-4.57,3.9-2.32,1.77-2.51,1.67-3.16,2.42-1.58,1.86-1.95,3.9-2.23,5.31-.19,1.3-.65,3.73,.37,6.52,.46,1.21,1.3,3.53,3.45,4.57,.84,.37,1.67,.46,3.73,.37,3.45-.19,5.77-.84,7.82-1.3,2.42-.56,4.94-1.12,8.1-1.21,3.82-.09,7.17,.56,8.93,.84,2.05,.37,3.53,.84,6.42,1.12,2.42,.28,3.64,.19,5.03-.28,.84-.28,2.32-.74,3.45-2.05,1.21-1.49,1.3-3.08,1.3-4.75,.09-1.12,.09-3.82-1.49-6.98-.65-1.39-1.21-2.05-3.36-4.66-5.77-7.17-6.05-8.01-8.38-9.97-1.39-1.21-2.79-2.42-4.94-3.45-1.12-.65-4.01-2.05-7.82-1.86h.04v.02Z"/><path class="cls-10" d="M537.76,70.65c-1.12,.09-2.32,.09-3.73,.84-1.49,.84-2.42,2.05-3.16,3.08-.74,.93-.65,1.02-1.67,2.79-.93,1.49-1.49,2.32-2.32,3.25-1.02,1.21-2.05,1.95-3.9,3.36-2.05,1.58-2.14,1.39-2.79,2.14-1.39,1.58-2.6,4.01-2.88,5.12-.19,1.12-.56,3.16,.28,5.59,.37,1.12,1.12,3.08,2.97,3.9,.74,.37,2.42-.09,4.1-.28,2.97-.19,5.03-.74,6.8-1.12,2.05-.46,4.29-.93,6.98-1.02,3.25-.09,6.15,.46,7.73,.74,1.77,.37,3.08,.74,5.5,.93,2.05,.19,4.57,1.02,5.68,.65,.74-.19,1.95-.74,2.97-1.95s.74-3.82,.84-5.31c.09-.93-.74-2.97-2.32-5.68-.74-1.3-1.12-1.77-2.88-4.01-4.94-6.15-5.22-6.89-7.17-8.56-1.21-1.02-2.42-2.05-4.29-2.97-.93-.46-3.45-1.67-6.7-1.49h-.04Z"/></g><g id="ecologicalZone"><polygon class="cls-21" points="454.62 322.06 454.62 211.68 359.09 156.59 263.38 211.68 263.38 322.06 359.09 377.33 454.62 322.06"/><polygon class="cls-5" points="451.57 320.27 451.57 213.29 359.09 159.81 266.43 213.29 266.43 320.27 359.09 373.76 451.57 320.27"/><polygon class="cls-2" points="445.67 316.87 445.67 216.87 359.09 166.96 272.69 216.87 272.69 316.87 359.09 366.6 445.67 316.87"/><polygon class="cls-16" points="439.41 313.29 439.41 220.45 359.09 174.3 278.95 220.45 278.95 313.29 359.09 359.27 439.41 313.29"/><path class="cls-9" d="M454.08,318.84v-68.87h0q-94.99,14.13-190.16,0h0v68.87l94.99,54.92,95.17-54.92Z"/><g><ellipse class="cls-20" cx="339.41" cy="221.34" rx="6.62" ry="10.91" transform="translate(-30.17 55.21) rotate(-8.91)"/><ellipse class="cls-20" cx="322.59" cy="225.28" rx="6.62" ry="10.91" transform="translate(-48.86 95.51) rotate(-15.67)"/><ellipse class="cls-20" cx="311.5" cy="241.73" rx="5.37" ry="8.94" transform="translate(-69.93 141.83) rotate(-23.13)"/><ellipse class="cls-20" cx="355.15" cy="233.87" rx="5.37" ry="8.94"/><path class="cls-20" d="M317.95,258.91c.54-5.19,1.07-10.55,5.01-16.28,2.15-3.22,4.11-6.08,8.05-7.51,3.76-1.43,6.98-.54,8.41-.18,4.47,1.07,7.16,3.76,8.94,5.37,3.76,3.58,5.19,7.16,6.62,10.91,1.25,3.04,1.79,5.55,1.25,8.23-.36,1.79-1.07,2.33-1.43,2.68-1.43,1.07-3.4,.36-5.37-.18-.54-.18-6.26-1.61-11.09-.72-4.11,.72-7.87,3.22-8.77,3.76-2.15,1.43-3.22,2.5-5.37,2.86-.54,0-3.22,.36-5.01-1.25-1.07-1.07-1.61-2.68-1.25-7.69Z"/></g><g><ellipse class="cls-20" cx="395.03" cy="271.64" rx="10.91" ry="6.62" transform="translate(66.68 620.95) rotate(-81.29)"/><ellipse class="cls-20" cx="377.76" cy="270.39" rx="10.91" ry="6.62" transform="translate(94.66 638.72) rotate(-88.05)"/><ellipse class="cls-20" cx="362.13" cy="282.71" rx="5.37" ry="8.94" transform="translate(-25.48 36.1) rotate(-5.51)"/><ellipse class="cls-20" cx="406.18" cy="288.41" rx="8.94" ry="5.37" transform="translate(8.35 588.23) rotate(-72.38)"/><path class="cls-20" d="M363.2,300.95c1.97-4.65,4.11-9.66,9.66-13.95,2.86-2.33,5.72-4.65,10.02-4.83,3.94-.18,6.98,1.61,8.23,2.33,3.94,2.33,5.72,5.72,6.98,7.87,2.5,4.47,2.68,8.41,3.04,12.34,.18,3.22,0,5.9-1.43,8.23-.89,1.43-1.61,1.97-2.15,1.97-1.79,.54-3.4-.72-5.19-1.79-.54-.36-5.37-3.4-10.38-4.11-4.11-.54-8.59,.72-9.48,.89-2.33,.72-3.76,1.43-6.08,1.07-.54,0-3.22-.54-4.29-2.68-.89-.89-.89-2.68,1.07-7.33Z"/></g></g><path d="M478.06,186.72l-11.37-1.42,2.62-8.03,10.01,5.55c-.86,.95-1.29,1.98-1.29,3.11,0,.18,.01,.45,.04,.79h-.01Zm3.55,3.12l-4.88,10.39-6.8-4.97,8.36-7.86c.73,1.33,1.83,2.15,3.32,2.43h0Zm-3.86-18.7h8.44l-2.15,11.25c-.7-.34-1.39-.51-2.07-.51s-1.35,.17-2.03,.51l-2.19-11.25h0Zm7.96,16.28l8.36,7.86-6.84,4.97-4.84-10.39c1.46-.29,2.56-1.1,3.32-2.43h0Zm-1.06-4.6l10.04-5.55,2.58,8.03-11.37,1.42c.05-.34,.08-.6,.08-.79,0-1.13-.45-2.17-1.33-3.11Z"/></svg>