<?xml version="1.0" encoding="UTF-8"?><svg id="Layer" xmlns="http://www.w3.org/2000/svg" xmlns:xlink="http://www.w3.org/1999/xlink" viewBox="0 0 721 379.91"><defs><style>.cls-1{fill:url(#linear-gradient-2);}.cls-2{stroke:#ffd80c;stroke-width:4.57px;}.cls-2,.cls-3,.cls-4{stroke-miterlimit:10;}.cls-2,.cls-3,.cls-5{fill:none;}.cls-6{fill:#1f1f1e;}.cls-3{stroke:#030304;stroke-width:1.62px;}.cls-4{fill:#fff;opacity:0;stroke:#1d1d1b;}.cls-7{fill:url(#Nowy_wzorek_3);opacity:.1;}.cls-7,.cls-8,.cls-9{isolation:isolate;}.cls-10{fill:url(#radial-gradient);}.cls-8{opacity:.29;}.cls-8,.cls-11{fill:#010202;}.cls-12{fill:url(#linear-gradient-5);}.cls-9{opacity:.64;}.cls-9,.cls-13{fill:#030304;}.cls-14{fill:#515150;}.cls-15{fill:url(#linear-gradient-3);}.cls-16{fill:url(#linear-gradient);}.cls-17{fill:url(#linear-gradient-4);}</style><linearGradient id="linear-gradient" x1="509.27" y1="318.59" x2="509.27" y2="96.59" gradientTransform="translate(0 -15.82)" gradientUnits="userSpaceOnUse"><stop offset="0" stop-color="#010202"/><stop offset="1" stop-color="#fff"/></linearGradient><radialGradient id="radial-gradient" cx="509.46" cy="207.59" fx="509.46" fy="207.59" r="96.9" gradientTransform="translate(0 -15.82)" gradientUnits="userSpaceOnUse"><stop offset="0" stop-color="#c9c7c7"/><stop offset="1" stop-color="#737171"/></radialGradient><linearGradient id="linear-gradient-2" x1="283.75" y1="524.95" x2="110.75" y2="351.95" gradientTransform="translate(0 -252.64)" gradientUnits="userSpaceOnUse"><stop offset="0" stop-color="#9e9d9c"/><stop offset=".54" stop-color="#010202"/><stop offset="1" stop-color="#9e9d9c"/></linearGradient><linearGradient id="linear-gradient-3" x1="197.32" y1="519.89" x2="197.32" y2="357.03" gradientTransform="translate(0 -252.64)" gradientUnits="userSpaceOnUse"><stop offset="0" stop-color="#462c1b"/><stop offset="1" stop-color="#b18048"/></linearGradient><linearGradient id="linear-gradient-4" x1="197.26" y1="515.77" x2="197.26" y2="361" gradientTransform="translate(0 -252.64)" gradientUnits="userSpaceOnUse"><stop offset="0" stop-color="#946137"/><stop offset="1" stop-color="#805127"/></linearGradient><pattern id="Nowy_wzorek_3" x="0" y="0" width="19.7" height="21.7" patternTransform="translate(43.9 16649.47)" patternUnits="userSpaceOnUse" viewBox="0 0 19.7 21.7"><g><rect class="cls-5" width="19.7" height="21.7"/><g><rect class="cls-5" width="19.7" height="21.7"/><g><rect class="cls-5" width="19.7" height="21.7"/><g><rect class="cls-5" width="19.7" height="21.7"/><g><rect class="cls-5" width="19.7" height="21.7"/><path class="cls-6" d="M16.6,8.7c2.1,2.1,2.1,5.6,0,7.7l-1.2,1.2c-2.1,2.1-5.6,2.1-7.8,0L3.1,13c-2.1-2.1-2.1-5.6,0-7.7l1.2-1.2c2.1-2.1,5.6-2.1,7.7,0l4.6,4.6Z"/></g></g></g></g></g></pattern><linearGradient id="linear-gradient-5" x1="-647.18" y1="1198.18" x2="-571.2" y2="1122.18" gradientTransform="translate(-191.13 -1064.43) rotate(-45)" gradientUnits="userSpaceOnUse"><stop offset="0" stop-color="#030304"/><stop offset="1" stop-color="#7a7879"/></linearGradient></defs><rect class="cls-4" x=".5" y=".5" width="720" height="378.91"/><g id="city"><polygon class="cls-11" points="608.49 249.13 608.49 134.6 509.37 77.43 410.07 134.6 410.07 249.13 509.37 306.48 608.49 249.13"/><polygon class="cls-16" points="605.33 247.27 605.33 136.27 509.37 80.77 413.22 136.27 413.22 247.27 509.37 302.77 605.33 247.27"/><polygon class="cls-10" points="599.21 243.74 599.21 139.98 509.37 88.2 419.72 139.98 419.72 243.74 509.37 295.34 599.21 243.74"/><path class="cls-8" d="M607.93,245.78v-71.46h0c-65.71,9.77-131.48,9.77-197.31,0h0v71.46l98.56,56.98,98.75-56.98Z"/><g id="city-logo"><path class="cls-3" d="M440.69,204.39c0-36.75,30.81-66.27,68.49-66.27"/><path class="cls-3" d="M577.49,204.39c0-36.75-31-66.27-69.24-66.27"/><rect class="cls-13" x="439.39" y="200.12" width="139.4" height="8.72"/><rect class="cls-13" x="446.63" y="191.96" width="4.27" height="8.17"/><rect class="cls-13" x="448.86" y="185.46" width="2.04" height="6.68"/><rect class="cls-13" x="455.17" y="191.03" width="7.61" height="9.28"/><rect class="cls-13" x="455.17" y="180.45" width="3.71" height="10.58"/><rect class="cls-13" x="465.19" y="188.61" width="3.16" height="11.32"/><rect class="cls-13" x="468.35" y="165.97" width="3.53" height="34.15"/><rect class="cls-13" x="470.21" y="162.26" width="1.86" height="3.53"/><rect class="cls-13" x="472.06" y="191.96" width="5.94" height="8.17"/><rect class="cls-13" x="476.89" y="187.87" width="1.11" height="4.27"/><rect class="cls-13" x="478" y="157.62" width="4.83" height="42.51"/><rect class="cls-13" x="482.83" y="165.23" width="2.41" height="34.71"/><rect class="cls-13" x="485.43" y="177.66" width="5.01" height="22.46"/><rect class="cls-13" x="490.44" y="182.3" width="3.16" height="18"/><rect class="cls-13" x="496.38" y="171.35" width="6.68" height="28.77"/><rect class="cls-13" x="503.25" y="182.67" width="3.34" height="17.45"/><rect class="cls-13" x="506.59" y="150.56" width="8.17" height="49.56"/><rect class="cls-13" x="518.65" y="161.51" width="4.27" height="38.61"/><rect class="cls-13" x="527.19" y="169.5" width="4.64" height="30.63"/><rect class="cls-13" x="522.55" y="189.91" width="4.64" height="10.21"/><rect class="cls-13" x="531.83" y="194.55" width="3.34" height="5.75"/><rect class="cls-13" x="539.07" y="191.4" width="2.97" height="8.54"/><rect class="cls-13" x="542.04" y="177.66" width="5.2" height="22.46"/><rect class="cls-13" x="547.05" y="167.27" width="3.71" height="32.85"/><rect class="cls-13" x="550.76" y="190.28" width="3.16" height="9.84"/><rect class="cls-13" x="555.77" y="184.34" width="4.08" height="15.78"/><rect class="cls-13" x="559.86" y="182.67" width="4.45" height="17.45"/><rect class="cls-13" x="567.1" y="192.33" width="2.04" height="7.98"/><rect class="cls-13" x="569.14" y="196.22" width="3.71" height="4.08"/></g></g><g id="prodBg"><rect id="external-border" class="cls-1" x="110.2" y="99.85" width="174.09" height="171.92"/><rect id="internal-border" class="cls-15" x="114.74" y="104.39" width="165.15" height="162.86"/><rect id="bg" class="cls-17" x="118.72" y="108.37" width="157.08" height="154.76"/><rect id="bgPattern" class="cls-7" x="118.72" y="108.37" width="157.08" height="154.76"/></g><g id="titan"><rect class="cls-13" x="141.45" y="129.66" width="114.02" height="114.02"/><rect class="cls-12" x="144.75" y="132.97" width="107.45" height="107.45"/><rect class="cls-14" x="149.96" y="138.18" width="97.01" height="97.01"/><path id="darker" class="cls-9" d="M252.18,240.4h-107.45v-58.88s33.84,5.21,53.68,5.21,53.78-5.21,53.78-5.21v58.88h0Z"/><polygon class="cls-2" points="199.07 155.01 209.22 176.31 232.61 179.32 215.44 195.51 219.83 218.66 199.07 207.31 178.39 218.66 182.78 195.51 165.58 179.32 189 176.31 199.07 155.01"/></g></svg>