<?xml version="1.0" encoding="UTF-8"?><svg id="Layer" xmlns="http://www.w3.org/2000/svg" xmlns:xlink="http://www.w3.org/1999/xlink" viewBox="0 0 721 379.91"><defs><style>.cls-1{fill:url(#linear-gradient-2);}.cls-2{fill:#977355;}.cls-3{stroke:#473628;stroke-linecap:round;stroke-width:5.37px;}.cls-3,.cls-4,.cls-5,.cls-6{stroke-miterlimit:10;}.cls-3,.cls-7{fill:none;}.cls-8{fill:url(#linear-gradient-6);}.cls-9{fill:#1f1f1e;}.cls-4{fill:url(#linear-gradient-8);stroke:#010101;stroke-width:1.34px;}.cls-5{fill:#fff;opacity:0;stroke:#1d1d1b;}.cls-10{fill:url(#Nowy_wzorek_4);opacity:.1;}.cls-10,.cls-11{isolation:isolate;}.cls-12{fill:url(#linear-gradient-5);}.cls-13{fill:url(#linear-gradient-7);}.cls-14{fill:#b88d6d;}.cls-15{fill:url(#linear-gradient-3);}.cls-6{fill:#010202;stroke:#030304;stroke-width:1.87px;}.cls-16{fill:url(#linear-gradient);}.cls-17{fill:url(#linear-gradient-4);}.cls-18,.cls-11{fill:#010101;}.cls-11{opacity:.15;}</style><linearGradient id="linear-gradient" x1="310.75" y1="530.84" x2="138.14" y2="358.23" gradientTransform="translate(0 -252.64)" gradientUnits="userSpaceOnUse"><stop offset="0" stop-color="#9e9d9c"/><stop offset=".54" stop-color="#010202"/><stop offset="1" stop-color="#9e9d9c"/></linearGradient><linearGradient id="linear-gradient-2" x1="224.52" y1="525.87" x2="224.52" y2="363.22" gradientTransform="translate(0 -252.64)" gradientUnits="userSpaceOnUse"><stop offset="0" stop-color="#462c1b"/><stop offset="1" stop-color="#b18048"/></linearGradient><linearGradient id="linear-gradient-3" x1="224.44" y1="521.75" x2="224.44" y2="367.19" gradientTransform="translate(0 -252.64)" gradientUnits="userSpaceOnUse"><stop offset="0" stop-color="#946137"/><stop offset="1" stop-color="#805127"/></linearGradient><pattern id="Nowy_wzorek_4" x="0" y="0" width="19.7" height="21.7" patternTransform="translate(43.9 16649.47)" patternUnits="userSpaceOnUse" viewBox="0 0 19.7 21.7"><g><rect class="cls-7" width="19.7" height="21.7"/><g><rect class="cls-7" width="19.7" height="21.7"/><g><rect class="cls-7" width="19.7" height="21.7"/><g><rect class="cls-7" width="19.7" height="21.7"/><g><rect class="cls-7" width="19.7" height="21.7"/><path class="cls-9" d="M16.6,8.7c2.1,2.1,2.1,5.6,0,7.7l-1.2,1.2c-2.1,2.1-5.6,2.1-7.8,0L3.1,13c-2.1-2.1-2.1-5.6,0-7.7l1.2-1.2c2.1-2.1,5.6-2.1,7.7,0l4.6,4.6Z"/></g></g></g></g></g></pattern><linearGradient id="linear-gradient-4" x1="225.48" y1="499.21" x2="225.48" y2="391.87" gradientTransform="translate(0 -253.65)" gradientUnits="userSpaceOnUse"><stop offset=".16" stop-color="#823a13"/><stop offset=".18" stop-color="#985c1a"/><stop offset=".22" stop-color="#ae7d22"/><stop offset=".26" stop-color="#c39d26"/><stop offset=".3" stop-color="#d6b92e"/><stop offset=".35" stop-color="#e4cf36"/><stop offset=".41" stop-color="#efe036"/><stop offset=".48" stop-color="#f6e947"/><stop offset=".58" stop-color="#f8ea4e"/><stop offset=".86" stop-color="#f6ea4d"/><stop offset="1" stop-color="#fcf4f9"/></linearGradient><linearGradient id="linear-gradient-5" x1="225.48" y1="386.16" x2="225.48" y2="550.23" gradientTransform="translate(0 -253.65)" gradientUnits="userSpaceOnUse"><stop offset=".26" stop-color="#f6ea4d"/><stop offset=".86" stop-color="#803813"/></linearGradient><linearGradient id="linear-gradient-6" x1="225.54" y1="497.73" x2="225.54" y2="393.45" gradientTransform="translate(0 -253.65)" gradientUnits="userSpaceOnUse"><stop offset=".16" stop-color="#803813"/><stop offset=".17" stop-color="#8c471e"/><stop offset=".18" stop-color="#a26b3c"/><stop offset=".2" stop-color="#b78954"/><stop offset=".22" stop-color="#c7a468"/><stop offset=".24" stop-color="#d7bb7a"/><stop offset=".26" stop-color="#e2cc88"/><stop offset=".3" stop-color="#ead891"/><stop offset=".34" stop-color="#eede97"/><stop offset=".46" stop-color="#efe097"/><stop offset=".7" stop-color="#803813"/><stop offset=".73" stop-color="#e6d234"/><stop offset=".74" stop-color="#ebd948"/><stop offset=".75" stop-color="#eede6d"/><stop offset=".77" stop-color="#f0e28a"/><stop offset=".79" stop-color="#f8ebaa"/><stop offset=".8" stop-color="#f8edbf"/><stop offset=".83" stop-color="#faf0cf"/><stop offset=".85" stop-color="#fcf2da"/><stop offset=".89" stop-color="#fdf4e1"/><stop offset=".99" stop-color="#fdf5e3"/></linearGradient><linearGradient id="linear-gradient-7" x1="225.47" y1="408.76" x2="225.47" y2="569.7" gradientTransform="translate(0 -253.65)" gradientUnits="userSpaceOnUse"><stop offset=".26" stop-color="#f6ea4d"/><stop offset=".77" stop-color="#803813"/></linearGradient><linearGradient id="linear-gradient-8" x1="485.72" y1="71.42" x2="485.72" y2="271.31" gradientTransform="translate(0 363.09) scale(1 -1)" gradientUnits="userSpaceOnUse"><stop offset="0" stop-color="#241d1c"/><stop offset="1" stop-color="#d4b39c"/></linearGradient></defs><rect class="cls-5" x=".5" y=".5" width="720" height="378.91"/><g id="prodBg"><rect id="external-border" class="cls-16" x="137.69" y="106.05" width="173.52" height="171.69"/><rect id="internal-border" class="cls-1" x="142.22" y="110.59" width="164.59" height="162.65"/><rect id="bg" class="cls-15" x="146.19" y="114.55" width="156.51" height="154.56"/><rect id="bgPattern" class="cls-10" x="146.19" y="114.55" width="156.51" height="154.56"/></g><g id="mln"><polygon id="obram_czarne" class="cls-6" points="185.75 134.95 168.5 152.2 168.5 231.59 185.75 248.84 265.21 248.84 282.37 231.59 282.37 152.2 265.21 134.95 185.75 134.95"/><polygon id="obram_zolte" class="cls-17" points="187.99 138.23 171.85 154.45 171.85 229.35 187.99 245.57 262.89 245.57 279.11 229.35 279.11 154.45 262.89 138.23 187.99 138.23"/><polygon id="tlo_wew" class="cls-12" points="189.1 139.81 173.35 155.58 173.35 228.24 189.1 243.99 261.86 243.99 277.61 228.24 277.61 155.58 261.86 139.81 189.1 139.81"/><path id="obram_skosne" class="cls-8" d="M270.07,212c-2.88,0-5.23-2.34-5.23-5.23v-29.75c0-2.88,2.34-5.23,5.23-5.23h7.47v-16.22l-15.68-15.77h-16.32v7.47c0,2.88-2.34,5.23-5.23,5.23h-29.75c-2.88,0-5.23-2.34-5.23-5.23v-7.47h-16.22l-15.77,15.77v16.32h7.47c2.88,0,5.23,2.34,5.23,5.23v29.75c0,2.88-2.34,5.23-5.23,5.23h-7.47v16.22l15.77,15.77h16.32v-7.47c0-2.88,2.34-5.23,5.23-5.23h29.75c2.88,0,5.23,2.34,5.23,5.23v7.47h16.32l15.77-15.77v-16.32h-7.67Z"/><path id="tlo_zew" class="cls-13" d="M269.8,213.77c-3.55,0-6.43-3.55-6.43-7.1v-29.58c0-3.55,2.88-7.1,6.43-7.1h6.06v-13.24l-15.31-15.21h-13.16v6.06c0,3.55-3.55,6.43-7.1,6.43h-29.58c-3.55,0-7.1-2.88-7.1-6.43v-6.06h-13.33l-15.21,15.21v13.24h6.06c3.55,0,6.43,3.55,6.43,7.1v29.58c0,3.55-2.88,7.1-6.43,7.1h-6.06v13.24l15.21,15.21h13.24v-6.06c0-3.55,3.55-6.43,7.1-6.43h29.48c3.55,0,7.1,2.88,7.1,6.43v6.06h13.24l15.21-15.21v-13.24h-5.84Z"/></g><path class="cls-18" d="M223.14,216.25v-42.49h-6.43l-.2-4.81,16.24-1.4v48.7h-9.61Z"/><g id="naturalPreserve"><polygon class="cls-18" points="581.28 247.06 581.28 136.55 485.63 81.38 389.81 136.55 389.81 247.06 485.63 302.41 581.28 247.06"/><polygon class="cls-2" points="578.24 245.27 578.24 138.16 485.63 84.61 392.85 138.16 392.85 245.27 485.63 298.83 578.24 245.27"/><polygon class="cls-4" points="572.32 241.87 572.32 141.75 485.63 91.77 399.12 141.75 399.12 241.87 485.63 291.66 572.32 241.87"/><polygon class="cls-14" points="566.06 238.29 566.06 145.33 485.63 99.12 405.39 145.33 405.39 238.29 485.63 284.32 566.06 238.29"/><path class="cls-11" d="M580.74,243.84v-68.96h0q-95.11,14.15-190.4,0h0v68.96l95.11,54.99,95.29-54.99Z"/><g><circle class="cls-3" cx="478.83" cy="214.11" r="28.3"/><line class="cls-3" x1="510.71" y1="140.31" x2="488.86" y2="187.6"/><line class="cls-3" x1="519.84" y1="174.88" x2="510.71" y2="140.31"/><line class="cls-3" x1="477.75" y1="156.43" x2="510.71" y2="140.31"/></g></g><path d="M607.44,124.71l-11.37-1.42,2.62-8.03,10.01,5.55c-.86,.95-1.29,1.98-1.29,3.11,0,.18,.01,.45,.04,.79Zm3.55,3.12l-4.88,10.39-6.8-4.97,8.36-7.86c.73,1.33,1.83,2.15,3.32,2.43Zm-3.86-18.71h8.44l-2.15,11.25c-.7-.34-1.39-.51-2.07-.51s-1.35,.17-2.03,.51l-2.19-11.25Zm7.96,16.28l8.36,7.86-6.84,4.97-4.84-10.39c1.46-.29,2.56-1.1,3.32-2.43Zm-1.06-4.59l10.04-5.55,2.58,8.03-11.37,1.42c.05-.34,.08-.6,.08-.79,0-1.13-.45-2.17-1.33-3.11Z"/></svg>