<?xml version="1.0" encoding="UTF-8"?><svg id="Layer" xmlns="http://www.w3.org/2000/svg" xmlns:xlink="http://www.w3.org/1999/xlink" viewBox="0 0 721 379.91"><defs><style>.cls-1{fill:url(#linear-gradient-2);}.cls-2{fill:#20201e;}.cls-3,.cls-4,.cls-5{fill:#020303;}.cls-6{fill:url(#linear-gradient-6);}.cls-7{fill:#fff;opacity:0;stroke:#1d1d1b;}.cls-7,.cls-5,.cls-8{stroke-miterlimit:10;}.cls-9{fill:url(#Nowy_wzorek_4);opacity:.1;}.cls-9,.cls-4{isolation:isolate;}.cls-4{opacity:.64;}.cls-10{fill:url(#linear-gradient-5);}.cls-11{fill:#50504f;}.cls-12,.cls-8{fill:none;}.cls-13{fill:url(#linear-gradient-7);}.cls-14{fill:url(#linear-gradient-9);}.cls-5{stroke:#030404;stroke-width:1.89px;}.cls-15{fill:url(#linear-gradient-3);}.cls-16{fill:url(#linear-gradient);}.cls-17{fill:#010202;}.cls-18{fill:url(#linear-gradient-4);}.cls-19{fill:url(#linear-gradient-8);}.cls-8{stroke:#ffd80c;stroke-width:4.66px;}</style><linearGradient id="linear-gradient" x1="515.34" y1="-222.78" x2="204.6" y2="87.96" gradientTransform="translate(0 127.45) scale(1 -1)" gradientUnits="userSpaceOnUse"><stop offset="0" stop-color="#9f9d9c"/><stop offset=".54" stop-color="#020303"/><stop offset="1" stop-color="#9f9d9c"/></linearGradient><linearGradient id="linear-gradient-2" x1="360.04" y1="-149.56" x2="360.04" y2="14.72" gradientTransform="translate(0 127.45) scale(1 -1)" gradientUnits="userSpaceOnUse"><stop offset="0" stop-color="#472d1c"/><stop offset="1" stop-color="#b18047"/></linearGradient><linearGradient id="linear-gradient-3" x1="359.97" y1="-145.4" x2="359.97" y2="10.71" gradientTransform="translate(0 127.45) scale(1 -1)" gradientUnits="userSpaceOnUse"><stop offset="0" stop-color="#946137"/><stop offset="1" stop-color="#815228"/></linearGradient><pattern id="Nowy_wzorek_4" x="0" y="0" width="19.7" height="21.7" patternTransform="translate(43.4 -32285.17) scale(1 -1)" patternUnits="userSpaceOnUse" viewBox="0 0 19.7 21.7"><g><rect class="cls-12" width="19.7" height="21.7"/><g><rect class="cls-12" width="19.7" height="21.7"/><g><rect class="cls-12" width="19.7" height="21.7"/><g><rect class="cls-12" width="19.7" height="21.7"/><g><rect class="cls-12" width="19.7" height="21.7"/><g><rect class="cls-12" width="19.7" height="21.7"/><path class="cls-2" d="M16.6,13c2.1-2.1,2.1-5.6,0-7.7l-1.2-1.2c-2.1-2.1-5.6-2.1-7.8,0L3.1,8.7c-2.1,2.1-2.1,5.6,0,7.7l1.2,1.2c2.1,2.1,5.6,2.1,7.7,0l4.6-4.6Z"/></g></g></g></g></g></g></pattern><linearGradient id="linear-gradient-4" x1="497.43" y1="-122.56" x2="497.43" y2="-14.15" gradientTransform="translate(0 126.44) scale(1 -1)" gradientUnits="userSpaceOnUse"><stop offset=".16" stop-color="#823b14"/><stop offset=".18" stop-color="#995d1a"/><stop offset=".22" stop-color="#ae7d22"/><stop offset=".26" stop-color="#c39d25"/><stop offset=".3" stop-color="#d6b92e"/><stop offset=".35" stop-color="#e4cf36"/><stop offset=".41" stop-color="#efe036"/><stop offset=".48" stop-color="#f5e94d"/><stop offset=".58" stop-color="#f8eb53"/><stop offset=".86" stop-color="#f5ea52"/><stop offset="1" stop-color="#fcf4f9"/></linearGradient><linearGradient id="linear-gradient-5" x1="497.43" y1="-8.37" x2="497.43" y2="-174.09" gradientTransform="translate(0 126.44) scale(1 -1)" gradientUnits="userSpaceOnUse"><stop offset=".26" stop-color="#f5ea52"/><stop offset=".86" stop-color="#813a14"/></linearGradient><linearGradient id="linear-gradient-6" x1="497.49" y1="-121.07" x2="497.49" y2="-15.74" gradientTransform="translate(0 126.44) scale(1 -1)" gradientUnits="userSpaceOnUse"><stop offset=".16" stop-color="#813a14"/><stop offset=".17" stop-color="#8d481f"/><stop offset=".18" stop-color="#a36c3d"/><stop offset=".2" stop-color="#b78954"/><stop offset=".22" stop-color="#c7a468"/><stop offset=".24" stop-color="#d7bb7a"/><stop offset=".26" stop-color="#e2cc88"/><stop offset=".3" stop-color="#ead891"/><stop offset=".34" stop-color="#eede97"/><stop offset=".46" stop-color="#efe097"/><stop offset=".7" stop-color="#813a14"/><stop offset=".73" stop-color="#e6d234"/><stop offset=".74" stop-color="#ebda49"/><stop offset=".75" stop-color="#eede6d"/><stop offset=".77" stop-color="#f0e18a"/><stop offset=".79" stop-color="#f8ebab"/><stop offset=".8" stop-color="#f8edbf"/><stop offset=".83" stop-color="#faf0cf"/><stop offset=".85" stop-color="#fcf2da"/><stop offset=".89" stop-color="#fdf4e1"/><stop offset=".99" stop-color="#fdf5e3"/></linearGradient><linearGradient id="linear-gradient-7" x1="497.41" y1="-31.2" x2="497.41" y2="-193.76" gradientTransform="translate(0 126.44) scale(1 -1)" gradientUnits="userSpaceOnUse"><stop offset=".26" stop-color="#f5ea52"/><stop offset=".77" stop-color="#813a14"/></linearGradient><linearGradient id="linear-gradient-8" x1="-539.48" y1="-702.28" x2="-462.05" y2="-624.84" gradientTransform="translate(245.16 -628.42) rotate(-45) scale(1 -1)" gradientUnits="userSpaceOnUse"><stop offset="0" stop-color="#020303"/><stop offset="1" stop-color="#797879"/></linearGradient><linearGradient id="linear-gradient-9" x1="-635.65" y1="-606.11" x2="-558.22" y2="-528.67" xlink:href="#linear-gradient-8"/></defs><rect class="cls-7" x=".5" y=".5" width="720" height="378.91"/><g id="prodBg"><rect id="external-border" class="cls-16" x="135.93" y="108.16" width="448.08" height="173.41"/><rect id="internal-border" class="cls-1" x="140.51" y="112.74" width="439.07" height="164.28"/><rect id="bg" class="cls-15" x="144.52" y="116.75" width="430.91" height="156.11"/><rect id="bgPattern" class="cls-9" x="144.52" y="116.75" width="430.91" height="156.11"/></g><g id="mln"><polygon id="obram_czarne" class="cls-5" points="457.3 137.29 439.88 154.72 439.88 234.9 457.3 252.33 537.56 252.33 554.89 234.9 554.89 154.72 537.56 137.29 457.3 137.29"/><polygon id="obram_zolte" class="cls-18" points="459.57 140.6 443.26 156.98 443.26 232.63 459.57 249.01 535.22 249.01 551.6 232.63 551.6 156.98 535.22 140.6 459.57 140.6"/><polygon id="tlo_wew" class="cls-10" points="460.69 142.19 444.78 158.13 444.78 231.51 460.69 247.42 534.18 247.42 550.08 231.51 550.08 158.13 534.18 142.19 460.69 142.19"/><path id="obram_skosne" class="cls-6" d="M542.47,215.11c-2.91,0-5.28-2.36-5.28-5.28v-30.05c0-2.91,2.36-5.28,5.28-5.28h7.54v-16.38l-15.83-15.93h-16.48v7.54c0,2.91-2.36,5.28-5.28,5.28h-30.05c-2.91,0-5.28-2.36-5.28-5.28v-7.54h-16.38l-15.93,15.93v16.48h7.54c2.91,0,5.28,2.36,5.28,5.28v30.05c0,2.91-2.36,5.28-5.28,5.28h-7.54v16.38l15.93,15.93h16.48v-7.54c0-2.91,2.36-5.28,5.28-5.28h30.05c2.91,0,5.28,2.36,5.28,5.28v7.54h16.48l15.93-15.93v-16.48h-7.74Z"/><path id="tlo_zew" class="cls-13" d="M542.19,216.9c-3.58,0-6.5-3.58-6.5-7.17v-29.87c0-3.58,2.91-7.17,6.5-7.17h6.12v-13.37l-15.46-15.36h-13.29v6.12c0,3.58-3.58,6.5-7.17,6.5h-29.87c-3.58,0-7.17-2.91-7.17-6.5v-6.12h-13.47l-15.36,15.36v13.37h6.12c3.58,0,6.5,3.58,6.5,7.17v29.87c0,3.58-2.91,7.17-6.5,7.17h-6.12v13.37l15.36,15.36h13.37v-6.12c0-3.58,3.58-6.5,7.17-6.5h29.77c3.58,0,7.17,2.91,7.17,6.5v6.12h13.37l15.36-15.36v-13.37h-5.9Z"/></g><path class="cls-17" d="M481.7,218.32v-7.67c2.94-3.93,5.78-7.12,8.51-9.51l3.96-3.51c2.84-2.51,5.18-5,7.05-7.47s2.79-5.03,2.79-7.72c0-2.44-.77-4.31-2.34-5.63s-3.68-1.99-6.35-1.99c-3.53,0-7.67,1.19-12.37,3.61v-7.12c4.93-1.84,9.71-2.76,14.31-2.76,5.1,0,9.21,1.22,12.35,3.66s4.71,5.7,4.71,9.81c0,2.59-.67,5.03-1.99,7.29-1.32,2.29-4.08,5.1-8.24,8.49l-3.29,2.61c-1.44,1.17-3.01,2.64-4.73,4.46s-2.84,3.73-3.39,5.78h21.43v7.67h-32.41Z"/><g id="titan"><rect class="cls-3" x="302.16" y="136.77" width="116.22" height="116.22"/><rect class="cls-19" x="305.51" y="140.12" width="109.51" height="109.51"/><rect class="cls-11" x="310.82" y="145.43" width="98.89" height="98.89"/><path id="darker" class="cls-4" d="M415.02,249.63h-109.51v-60.02s34.48,5.31,54.71,5.31,54.8-5.31,54.8-5.31v60.02Z"/><polygon class="cls-8" points="360.87 162.58 371.22 184.3 395.08 187.38 377.55 203.87 382.03 227.45 360.87 215.89 339.81 227.45 344.28 203.87 326.76 187.38 350.62 184.3 360.87 162.58"/></g><g id="titan-2"><rect class="cls-3" x="166.16" y="136.77" width="116.22" height="116.22"/><rect class="cls-14" x="169.51" y="140.12" width="109.51" height="109.51"/><rect class="cls-11" x="174.82" y="145.43" width="98.89" height="98.89"/><path id="darker-2" class="cls-4" d="M279.02,249.63h-109.51v-60.02s34.48,5.31,54.71,5.31,54.8-5.31,54.8-5.31v60.02Z"/><polygon class="cls-8" points="224.87 162.58 235.22 184.3 259.08 187.38 241.55 203.87 246.03 227.45 224.87 215.89 203.81 227.45 208.28 203.87 190.76 187.38 214.62 184.3 224.87 162.58"/></g></svg>