<?xml version="1.0" encoding="UTF-8"?><svg id="Layer" xmlns="http://www.w3.org/2000/svg" xmlns:xlink="http://www.w3.org/1999/xlink" viewBox="0 0 721 379.91"><defs><style>.cls-1{fill:url(#linear-gradient-2);}.cls-2,.cls-3{fill:#020303;}.cls-4{fill:url(#linear-gradient-6);}.cls-5{fill:#1f1f1e;}.cls-6{fill:#010202;stroke:#030304;stroke-width:1.89px;}.cls-6,.cls-7,.cls-8{stroke-miterlimit:10;}.cls-9{fill:url(#linear-gradient-11);}.cls-7{fill:#fff;opacity:0;stroke:#1d1d1b;}.cls-10{fill:url(#linear-gradient-10);}.cls-8{fill:#07562a;stroke:#1c4421;stroke-width:3.72px;}.cls-11{fill:#44ac36;}.cls-12{fill:#ffd113;}.cls-13{fill:url(#linear-gradient-5);}.cls-14{fill:#e62b23;}.cls-15{fill:url(#Nowy_wzorek_2);opacity:.14;}.cls-15,.cls-16,.cls-17,.cls-3{isolation:isolate;}.cls-18{fill:none;}.cls-19{fill:url(#linear-gradient-7);}.cls-16,.cls-20{fill:#030304;}.cls-16,.cls-3{opacity:.05;}.cls-21{fill:url(#linear-gradient-9);}.cls-22{fill:url(#linear-gradient-3);}.cls-17{fill:url(#linear-gradient-8);opacity:.4;}.cls-23{fill:url(#linear-gradient);}.cls-24{fill:url(#linear-gradient-4);}.cls-25{fill:#010101;}.cls-26{fill:url(#linear-gradient-12);}</style><linearGradient id="linear-gradient" x1="538.56" y1="620.03" x2="183.71" y2="265.18" gradientTransform="translate(0 -252.64)" gradientUnits="userSpaceOnUse"><stop offset="0" stop-color="#9e9d9c"/><stop offset=".54" stop-color="#010202"/><stop offset="1" stop-color="#9e9d9c"/></linearGradient><linearGradient id="linear-gradient-2" x1="361.21" y1="593.69" x2="361.21" y2="291.54" gradientTransform="translate(0 -252.64)" gradientUnits="userSpaceOnUse"><stop offset="0" stop-color="#462c1b"/><stop offset="1" stop-color="#b18048"/></linearGradient><linearGradient id="linear-gradient-3" x1="361.14" y1="589.49" x2="361.14" y2="295.59" gradientTransform="translate(0 -252.64)" gradientUnits="userSpaceOnUse"><stop offset="0" stop-color="#946137"/><stop offset="1" stop-color="#805127"/></linearGradient><pattern id="Nowy_wzorek_2" x="0" y="0" width="56.69" height="62.45" patternTransform="translate(.5 .5)" patternUnits="userSpaceOnUse" viewBox="0 0 56.69 62.45"><g><rect class="cls-18" width="56.69" height="62.45"/><g><rect class="cls-18" x="0" y="0" width="56.69" height="62.45"/><g><rect class="cls-18" x="0" y="0" width="56.69" height="62.45"/><g><rect class="cls-18" x="0" y="0" width="56.69" height="62.45"/><path class="cls-5" d="M47.77,25.04c6.04,6.04,6.04,16.12,0,22.16l-3.45,3.45c-6.04,6.04-16.12,6.04-22.45,0l-12.95-13.24c-6.04-6.04-6.04-16.12,0-22.16l3.45-3.45c6.04-6.04,16.12-6.04,22.16,0l13.24,13.24Z"/></g></g></g></g></pattern><linearGradient id="linear-gradient-4" x1="333.13" y1="429.98" x2="333.13" y2="321.62" gradientTransform="translate(0 -253.65)" gradientUnits="userSpaceOnUse"><stop offset=".16" stop-color="#823a13"/><stop offset=".18" stop-color="#985c1a"/><stop offset=".22" stop-color="#ae7d22"/><stop offset=".26" stop-color="#c39d26"/><stop offset=".3" stop-color="#d6b92e"/><stop offset=".35" stop-color="#e4cf36"/><stop offset=".41" stop-color="#efe036"/><stop offset=".48" stop-color="#f6e947"/><stop offset=".58" stop-color="#f8ea4e"/><stop offset=".86" stop-color="#f6ea4d"/><stop offset="1" stop-color="#fcf4f9"/></linearGradient><linearGradient id="linear-gradient-5" x1="333.13" y1="315.85" x2="333.13" y2="481.48" gradientTransform="translate(0 -253.65)" gradientUnits="userSpaceOnUse"><stop offset=".26" stop-color="#f6ea4d"/><stop offset=".86" stop-color="#803813"/></linearGradient><linearGradient id="linear-gradient-6" x1="333.19" y1="428.48" x2="333.19" y2="323.22" gradientTransform="translate(0 -253.65)" gradientUnits="userSpaceOnUse"><stop offset=".16" stop-color="#803813"/><stop offset=".17" stop-color="#8c471e"/><stop offset=".18" stop-color="#a26b3c"/><stop offset=".2" stop-color="#b78954"/><stop offset=".22" stop-color="#c7a468"/><stop offset=".24" stop-color="#d7bb7a"/><stop offset=".26" stop-color="#e2cc88"/><stop offset=".3" stop-color="#ead891"/><stop offset=".34" stop-color="#eede97"/><stop offset=".46" stop-color="#efe097"/><stop offset=".7" stop-color="#803813"/><stop offset=".73" stop-color="#e6d234"/><stop offset=".74" stop-color="#ebd948"/><stop offset=".75" stop-color="#eede6d"/><stop offset=".77" stop-color="#f0e28a"/><stop offset=".79" stop-color="#f8ebaa"/><stop offset=".8" stop-color="#f8edbf"/><stop offset=".83" stop-color="#faf0cf"/><stop offset=".85" stop-color="#fcf2da"/><stop offset=".89" stop-color="#fdf4e1"/><stop offset=".99" stop-color="#fdf5e3"/></linearGradient><linearGradient id="linear-gradient-7" x1="333.12" y1="338.67" x2="333.12" y2="501.13" gradientTransform="translate(0 -253.65)" gradientUnits="userSpaceOnUse"><stop offset=".26" stop-color="#f6ea4d"/><stop offset=".77" stop-color="#803813"/></linearGradient><linearGradient id="linear-gradient-8" x1="472.48" y1="187.93" x2="472.48" y2="328.76" gradientTransform="translate(0 381.17) scale(1 -1)" gradientUnits="userSpaceOnUse"><stop offset="0" stop-color="#ffdc15"/><stop offset="0" stop-color="#ffdb16"/><stop offset=".05" stop-color="#f9bb24"/><stop offset=".1" stop-color="#f59d1e"/><stop offset=".16" stop-color="#ef7c1e"/><stop offset=".22" stop-color="#e86312"/><stop offset=".27" stop-color="#e94c21"/><stop offset=".34" stop-color="#e63b23"/><stop offset=".41" stop-color="#e63624"/><stop offset=".5" stop-color="#e63324"/><stop offset=".59" stop-color="#e63624"/><stop offset=".66" stop-color="#e63b23"/><stop offset=".73" stop-color="#e94c21"/><stop offset=".78" stop-color="#e86312"/><stop offset=".84" stop-color="#ef7c1e"/><stop offset=".9" stop-color="#f59d1e"/><stop offset=".95" stop-color="#f9bb24"/><stop offset="1" stop-color="#ffdb16"/><stop offset="1" stop-color="#ffdc15"/></linearGradient><linearGradient id="linear-gradient-9" x1="472.5" y1="193.11" x2="472.5" y2="323.58" xlink:href="#linear-gradient-8"/><linearGradient id="linear-gradient-10" x1="-409.37" y1="1347.06" x2="-331.51" y2="1269.15" gradientTransform="translate(-190.8 -1064.09) rotate(-45)" gradientUnits="userSpaceOnUse"><stop offset="0" stop-color="#951919"/><stop offset=".21" stop-color="#b9251d"/><stop offset=".47" stop-color="#e62b23"/><stop offset=".55" stop-color="#e62f2a"/><stop offset=".84" stop-color="#e73a3b"/><stop offset="1" stop-color="#e83e41"/></linearGradient><linearGradient id="linear-gradient-11" x1="-602.71" y1="1343.47" x2="-525.42" y2="1266.19" gradientTransform="translate(-190.6 -1064.17) rotate(-45)" gradientUnits="userSpaceOnUse"><stop offset="0" stop-color="#0c6835"/><stop offset=".04" stop-color="#0a6b36"/><stop offset=".08" stop-color="#047638"/><stop offset=".13" stop-color="#078738"/><stop offset=".15" stop-color="#058f39"/><stop offset=".35" stop-color="#34993d"/><stop offset=".76" stop-color="#5eaf47"/><stop offset="1" stop-color="#6eb74a"/></linearGradient><linearGradient id="linear-gradient-12" x1="-504.42" y1="1441.76" x2="-427.13" y2="1364.47" xlink:href="#linear-gradient-11"/></defs><rect class="cls-7" x=".5" y=".5" width="720" height="378.91"/><g id="prodBg"><rect id="external-border" class="cls-23" x="161.98" y="34.27" width="398.31" height="311.39"/><rect id="internal-border" class="cls-1" x="166.61" y="38.9" width="389.2" height="302.15"/><rect id="bg" class="cls-22" x="170.66" y="42.95" width="380.97" height="293.9"/><rect id="bgPattern" class="cls-15" x="170.66" y="42.95" width="380.97" height="293.9"/></g><path d="M208.2,128.97v-13.64h32.74v13.64h-32.74Z"/><path d="M217.47,286.19v-24.34h-24.34v-9.99h24.34v-24.34h9.99v24.34h24.34v9.99h-24.34v24.34h-9.99Z"/><g id="mln"><polygon id="obram_czarne" class="cls-6" points="293.02 64.67 275.61 82.08 275.61 162.22 293.02 179.64 373.23 179.64 390.55 162.22 390.55 82.08 373.23 64.67 293.02 64.67"/><polygon id="obram_zolte" class="cls-24" points="295.29 67.98 278.99 84.35 278.99 159.96 295.29 176.33 370.9 176.33 387.27 159.96 387.27 84.35 370.9 67.98 295.29 67.98"/><polygon id="tlo_wew" class="cls-13" points="296.41 69.57 280.51 85.49 280.51 158.84 296.41 174.74 369.85 174.74 385.75 158.84 385.75 85.49 369.85 69.57 296.41 69.57"/><path id="obram_skosne" class="cls-4" d="M378.14,142.44c-2.91,0-5.27-2.36-5.27-5.27v-30.03c0-2.91,2.36-5.27,5.27-5.27h7.54v-16.37l-15.82-15.92h-16.47v7.54c0,2.91-2.36,5.27-5.27,5.27h-30.03c-2.91,0-5.27-2.36-5.27-5.27v-7.54h-16.37l-15.92,15.92v16.47h7.54c2.91,0,5.27,2.36,5.27,5.27v30.03c0,2.91-2.36,5.27-5.27,5.27h-7.54v16.37l15.92,15.92h16.47v-7.54c0-2.91,2.36-5.27,5.27-5.27h30.03c2.91,0,5.27,2.36,5.27,5.27v7.54h16.47l15.92-15.92v-16.47h-7.74Z"/><path id="tlo_zew" class="cls-19" d="M377.86,144.23c-3.58,0-6.49-3.58-6.49-7.17v-29.86c0-3.58,2.91-7.17,6.49-7.17h6.12v-13.36l-15.45-15.35h-13.29v6.12c0,3.58-3.58,6.49-7.17,6.49h-29.86c-3.58,0-7.17-2.91-7.17-6.49v-6.12h-13.46l-15.35,15.35v13.36h6.12c3.58,0,6.49,3.58,6.49,7.17v29.86c0,3.58-2.91,7.17-6.49,7.17h-6.12v13.36l15.35,15.35h13.36v-6.12c0-3.58,3.58-6.49,7.17-6.49h29.76c3.58,0,7.17,2.91,7.17,6.49v6.12h13.36l15.35-15.35v-13.36h-5.9Z"/></g><path class="cls-25" d="M330.76,146.2v-42.89h-6.49l-.2-4.85,16.4-1.42v49.16h-9.7Z"/><g id="heat"><rect class="cls-17" x="402.06" y="52.41" width="140.84" height="140.84"/><rect class="cls-21" x="407.27" y="57.6" width="130.47" height="130.47"/><rect class="cls-20" x="413.82" y="64.4" width="116.84" height="116.84"/><rect class="cls-10" x="417.18" y="67.76" width="110.11" height="110.11"/><rect class="cls-14" x="422.54" y="73.1" width="99.41" height="99.41"/><path id="darker-2" class="cls-16" d="M527.29,177.87h-110.11v-60.34s34.67,5.34,55,5.34,55.11-5.34,55.11-5.34v60.34Z"/><g><polygon class="cls-12" points="459.82 127.93 447.28 117.05 447.28 117.05 447.28 83.9 434.71 117.71 447.38 128.41 447.38 128.41 447.28 161.76 459.82 127.93"/><polygon class="cls-12" points="484.86 127.93 472.29 117.05 472.19 117.05 472.29 83.9 459.74 117.71 472.29 128.41 472.29 128.41 472.29 161.76 484.86 127.93"/><polygon class="cls-12" points="510.52 127.93 497.95 117.05 497.88 117.05 497.95 83.9 485.41 117.71 497.95 128.41 497.95 128.41 497.95 161.76 510.52 127.93"/></g></g><g id="plant"><rect class="cls-2" x="275.19" y="199.32" width="115.99" height="115.99"/><rect class="cls-9" x="278.54" y="202.67" width="109.29" height="109.29"/><rect class="cls-11" x="283.85" y="207.97" width="98.69" height="98.69"/><path id="leaf" class="cls-8" d="M333.14,232.34c-14.14,1.95-24.93,11.16-24.93,24.93,0,3.35,.65,6.6,1.86,9.58-2.6,1.77-6.42,4.09-8.28,4.74-3.26,1.12-9.77,.37-10.05,.93s1.86,6.42,2.6,6.7,6.7,.28,10.05-.93c2.42-.84,6.79-3.63,9.3-5.49,4.56,5.77,11.63,9.39,19.53,9.39,13.77,0,24.74-8.65,24.74-22.42,0-5.3,1.3-12,3.26-16.18,2.14-4.65,13.21-7.63,13.21-7.63-1.12-3.63-35.72-4.37-41.3-3.63Z"/><path id="darker" class="cls-3" d="M387.84,311.97h-109.29v-59.9s34.42,5.3,54.6,5.3,54.69-5.3,54.69-5.3v59.9Z"/></g><g id="plant-2"><rect class="cls-2" x="414.19" y="199.32" width="115.99" height="115.99"/><rect class="cls-26" x="417.54" y="202.67" width="109.29" height="109.29"/><rect class="cls-11" x="422.85" y="207.97" width="98.69" height="98.69"/><path id="leaf-2" class="cls-8" d="M472.14,232.34c-14.14,1.95-24.93,11.16-24.93,24.93,0,3.35,.65,6.6,1.86,9.58-2.6,1.77-6.42,4.09-8.28,4.74-3.26,1.12-9.77,.37-10.05,.93s1.86,6.42,2.6,6.7,6.7,.28,10.05-.93c2.42-.84,6.79-3.63,9.3-5.49,4.56,5.77,11.63,9.39,19.53,9.39,13.77,0,24.74-8.65,24.74-22.42,0-5.3,1.3-12,3.26-16.18,2.14-4.65,13.21-7.63,13.21-7.63-1.12-3.63-35.72-4.37-41.3-3.63Z"/><path id="darker-2" class="cls-3" d="M526.84,311.97h-109.29v-59.9s34.42,5.3,54.6,5.3,54.69-5.3,54.69-5.3v59.9Z"/></g></svg>