<?xml version="1.0" encoding="UTF-8"?><svg id="Layer" xmlns="http://www.w3.org/2000/svg" xmlns:xlink="http://www.w3.org/1999/xlink" viewBox="0 0 721 379.91"><defs><style>.cls-1{fill:url(#linear-gradient-2);}.cls-2{fill:#20201e;}.cls-3,.cls-4,.cls-5{fill:#020303;}.cls-6{fill:url(#linear-gradient-6);}.cls-7{opacity:0;stroke:#1d1d1b;}.cls-7,.cls-8,.cls-9{stroke-miterlimit:10;}.cls-7,.cls-9{fill:#fff;}.cls-4{opacity:.15;}.cls-4,.cls-10,.cls-5{isolation:isolate;}.cls-11{fill:#7e348b;}.cls-12{fill:#44ac36;}.cls-13{fill:url(#linear-gradient-5);}.cls-10{fill:url(#Nowy_wzorek_7);opacity:.1;}.cls-14{fill:none;}.cls-8{fill:#07562a;stroke:#1c4421;stroke-width:3.73px;}.cls-15{fill:url(#linear-gradient-3);}.cls-5{opacity:.05;}.cls-16{fill:url(#linear-gradient);}.cls-9{stroke:#020303;stroke-width:.93px;}.cls-17{fill:url(#linear-gradient-4);}.cls-18{fill:#010101;}</style><linearGradient id="linear-gradient" x1="552.25" y1="637.09" x2="168.75" y2="253.59" gradientTransform="translate(0 -255.39)" gradientUnits="userSpaceOnUse"><stop offset="0" stop-color="#9f9d9c"/><stop offset=".54" stop-color="#020303"/><stop offset="1" stop-color="#9f9d9c"/></linearGradient><linearGradient id="linear-gradient-2" x1="360.57" y1="528.69" x2="360.57" y2="362.02" gradientTransform="translate(0 -255.39)" gradientUnits="userSpaceOnUse"><stop offset="0" stop-color="#472d1c"/><stop offset="1" stop-color="#b18047"/></linearGradient><linearGradient id="linear-gradient-3" x1="360.51" y1="524.46" x2="360.51" y2="366.08" gradientTransform="translate(0 -255.39)" gradientUnits="userSpaceOnUse"><stop offset="0" stop-color="#946137"/><stop offset="1" stop-color="#815228"/></linearGradient><pattern id="Nowy_wzorek_7" x="0" y="0" width="19.7" height="21.7" patternTransform="translate(-6.62 16.75)" patternUnits="userSpaceOnUse" viewBox="0 0 19.7 21.7"><g><rect class="cls-14" width="19.7" height="21.7"/><g><rect class="cls-14" width="19.7" height="21.7"/><g><rect class="cls-14" width="19.7" height="21.7"/><g><rect class="cls-14" width="19.7" height="21.7"/><g><rect class="cls-14" width="19.7" height="21.7"/><g><rect class="cls-14" width="19.7" height="21.7"/><g><rect class="cls-14" width="19.7" height="21.7"/><path class="cls-2" d="M16.6,8.7c2.1,2.1,2.1,5.6,0,7.7l-1.2,1.2c-2.1,2.1-5.6,2.1-7.8,0L3.1,13c-2.1-2.1-2.1-5.6,0-7.7l1.2-1.2c2.1-2.1,5.6-2.1,7.7,0l4.6,4.6Z"/></g></g></g></g></g></g></g></pattern><linearGradient id="linear-gradient-4" x1="-681.93" y1="1171.09" x2="-604.5" y2="1093.66" gradientTransform="translate(-190.6 -1064.17) rotate(-45)" gradientUnits="userSpaceOnUse"><stop offset="0" stop-color="#0c6835"/><stop offset=".04" stop-color="#0a6b36"/><stop offset=".08" stop-color="#047638"/><stop offset=".13" stop-color="#078738"/><stop offset=".15" stop-color="#058f39"/><stop offset=".35" stop-color="#34993d"/><stop offset=".76" stop-color="#5eaf47"/><stop offset="1" stop-color="#6eb74a"/></linearGradient><linearGradient id="linear-gradient-5" x1="-487.66" y1="-749.11" x2="-410.22" y2="-671.68" gradientTransform="translate(245.16 -628.42) rotate(-45) scale(1 -1)" gradientUnits="userSpaceOnUse"><stop offset="0" stop-color="#1d1327"/><stop offset=".24" stop-color="#372348"/><stop offset=".49" stop-color="#573a6c"/><stop offset=".71" stop-color="#714f8b"/><stop offset=".89" stop-color="#825c9f"/><stop offset="1" stop-color="#8862a6"/></linearGradient><linearGradient id="linear-gradient-6" x1="-390.07" y1="-846.69" x2="-312.64" y2="-769.26" xlink:href="#linear-gradient-5"/></defs><rect class="cls-7" x=".5" y=".5" width="720" height="378.91"/><g><g id="prodBg"><rect id="external-border" class="cls-16" x="64.97" y="101.98" width="591.06" height="175.94"/><rect id="internal-border" class="cls-1" x="69.62" y="106.63" width="581.91" height="166.68"/><rect id="bg" class="cls-15" x="73.68" y="110.69" width="573.65" height="158.38"/><rect id="bgPattern" class="cls-10" x="73.68" y="110.69" width="573.65" height="158.38"/></g><g><path class="cls-18" d="M266.29,218.37c-5.53,0-10.33-1.14-14.43-3.42s-7.2-5.57-9.33-9.87c-2.13-4.29-3.19-9.16-3.19-14.59s1.07-10.26,3.19-14.57c2.13-4.3,5.26-7.6,9.37-9.88s8.91-3.42,14.39-3.42,10.24,1.14,14.35,3.42,7.23,5.58,9.37,9.88c2.13,4.3,3.19,9.16,3.19,14.57s-1.07,10.29-3.19,14.59c-2.14,4.29-5.23,7.59-9.32,9.87s-8.88,3.42-14.41,3.42h-.01Zm0-7.29c5.12,0,8.93-2.09,11.43-6.27s3.75-8.96,3.75-14.35-1.26-10.2-3.77-14.35-6.31-6.23-11.41-6.23-8.94,2.07-11.45,6.23-3.77,8.94-3.77,14.35,1.25,10.18,3.75,14.35,6.32,6.27,11.46,6.27h.01Z"/><path class="cls-18" d="M303.14,217.04v-53.12h19.88c4.07,0,7.16,.51,9.3,1.53,2.14,1.02,3.81,2.56,5.05,4.63,1.24,2.07,1.85,4.41,1.85,7.01,0,3.11-.9,6.05-2.69,8.81-1.79,2.76-4.33,4.88-7.61,6.33l17.39,24.8h-13.46l-13.21-21.71h-6.07v21.71h-10.42Zm10.41-29h2.54c4.56,0,7.72-.99,9.45-2.97,1.74-1.99,2.61-4.23,2.61-6.75,0-2.18-.71-3.9-2.13-5.18s-4.29-1.92-8.64-1.92h-3.85v16.83h.01Z"/></g><g id="plant"><rect class="cls-3" x="97.17" y="133.24" width="116.22" height="116.22"/><rect class="cls-17" x="100.53" y="136.59" width="109.51" height="109.51"/><rect class="cls-12" x="105.84" y="141.9" width="98.89" height="98.89"/><path id="leaf" class="cls-8" d="M155.24,166.32c-14.17,1.96-24.98,11.18-24.98,24.98,0,3.36,.65,6.62,1.86,9.6-2.61,1.77-6.43,4.1-8.29,4.75-3.26,1.12-9.79,.37-10.07,.93s1.86,6.43,2.61,6.71,6.71,.28,10.07-.93c2.42-.84,6.8-3.63,9.32-5.5,4.57,5.78,11.65,9.41,19.57,9.41,13.79,0,24.79-8.67,24.79-22.46,0-5.31,1.3-12.02,3.26-16.22,2.14-4.66,13.23-7.64,13.23-7.64-1.12-3.63-35.79-4.38-41.38-3.63Z"/><path id="darker" class="cls-5" d="M210.04,246.1H100.53v-60.02s34.48,5.31,54.71,5.31,54.8-5.31,54.8-5.31v60.02Z"/></g><g id="energy"><rect class="cls-3" x="371.92" y="133.24" width="116.22" height="116.22"/><rect class="cls-13" x="375.28" y="136.59" width="109.51" height="109.51"/><polygon class="cls-11" points="479.47 141.9 479.47 240.79 380.59 240.79 380.59 141.9 479.47 141.9"/><polygon class="cls-9" points="417.96 180.02 450.58 159.8 433.15 185.05 442.38 200.06 410.32 220.28 426.44 195.12 417.96 180.02"/><path id="darker-2" class="cls-4" d="M484.79,246.1h-109.51v-60.02s34.48,5.31,54.71,5.31,54.8-5.31,54.8-5.31v60.02Z"/></g><g id="energy-2"><rect class="cls-3" x="509.92" y="133.24" width="116.22" height="116.22"/><rect class="cls-6" x="513.28" y="136.59" width="109.51" height="109.51"/><polygon class="cls-11" points="617.47 141.9 617.47 240.79 518.59 240.79 518.59 141.9 617.47 141.9"/><polygon class="cls-9" points="555.96 180.02 588.58 159.8 571.15 185.05 580.38 200.06 548.32 220.28 564.44 195.12 555.96 180.02"/><path id="darker-3" class="cls-4" d="M622.79,246.1h-109.51v-60.02s34.48,5.31,54.71,5.31,54.8-5.31,54.8-5.31v60.02Z"/></g></g></svg>