<?xml version="1.0" encoding="UTF-8"?><svg id="Layer" xmlns="http://www.w3.org/2000/svg" xmlns:xlink="http://www.w3.org/1999/xlink" viewBox="0 0 721 379.91"><defs><style>.cls-1{fill:url(#linear-gradient);}.cls-1,.cls-2,.cls-3,.cls-4,.cls-5,.cls-6{stroke-miterlimit:10;}.cls-1,.cls-2,.cls-3,.cls-5,.cls-6{stroke:#020303;}.cls-1,.cls-2,.cls-6{stroke-width:3.34px;}.cls-2{fill:url(#linear-gradient-3);}.cls-7{fill:#020303;}.cls-3{stroke-width:2.51px;}.cls-3,.cls-5,.cls-6{fill:none;}.cls-4{fill:#fff;opacity:0;stroke:#1d1d1b;}.cls-5{stroke-width:5.02px;}.cls-8{fill:url(#radial-gradient);}.cls-9{fill:url(#radial-gradient-2);}.cls-10{fill:url(#linear-gradient-4);}.cls-10,.cls-11{isolation:isolate;opacity:.31;}.cls-11{fill:url(#linear-gradient-2);}.cls-6{stroke-linecap:square;}</style><linearGradient id="linear-gradient" x1="236.7" y1="98.99" x2="236.7" y2="243.27" gradientTransform="translate(0 363.09) scale(1 -1)" gradientUnits="userSpaceOnUse"><stop offset="0" stop-color="#951917"/><stop offset=".21" stop-color="#b13c1e"/><stop offset=".44" stop-color="#cb5e26"/><stop offset=".66" stop-color="#e17932"/><stop offset=".85" stop-color="#ee8c39"/><stop offset="1" stop-color="#f3923b"/></linearGradient><radialGradient id="radial-gradient" cx="236.78" cy="171.13" fx="236.78" fy="171.13" r="82.17" gradientTransform="translate(0 363.09) scale(1 -1)" gradientUnits="userSpaceOnUse"><stop offset="0" stop-color="#f3923b" stop-opacity=".5"/><stop offset="1" stop-color="#d23f16"/></radialGradient><linearGradient id="linear-gradient-2" x1="236.7" y1="98.99" x2="236.7" y2="190.91" gradientTransform="translate(0 363.09) scale(1 -1)" gradientUnits="userSpaceOnUse"><stop offset="0" stop-color="#1f1f1d"/><stop offset="1" stop-color="#3e3d3c"/></linearGradient><linearGradient id="linear-gradient-3" x1="481.7" x2="481.7" xlink:href="#linear-gradient"/><radialGradient id="radial-gradient-2" cx="481.78" fx="481.78" xlink:href="#radial-gradient"/><linearGradient id="linear-gradient-4" x1="481.7" x2="481.7" xlink:href="#linear-gradient-2"/></defs><rect class="cls-4" x=".5" y=".5" width="720" height="378.91"/><g id="tr"><rect class="cls-1" x="134.63" y="119.81" width="204.13" height="144.28"/><rect class="cls-8" x="140.98" y="126.17" width="191.59" height="131.57"/><g id="logo"><g><circle class="cls-5" cx="236.78" cy="187.19" r="37.11"/><path class="cls-3" d="M236.78,150.07s19.23,7.86,19.23,37.11-19.23,37.11-19.23,37.11"/><path class="cls-3" d="M236.78,150.07s-19.23,7.86-19.23,37.11,19.23,37.11,19.23,37.11"/><line class="cls-3" x1="236.78" y1="150.07" x2="236.78" y2="224.3"/><line class="cls-3" x1="199.66" y1="187.19" x2="273.89" y2="187.19"/><path class="cls-3" d="M207.86,163.78s10.87,5.52,28.76,5.52,28.76-5.52,28.76-5.52"/><path class="cls-3" d="M207.86,211.1c0-.17,10.87-5.52,28.76-5.52s28.76,5.52,28.76,5.52"/><polygon class="cls-7" points="259.02 156.76 268.88 147.73 255.84 145.06 284.26 136.87 277.74 166.46 273.89 151.75 264.53 162.61 259.02 156.76"/><polyline class="cls-6" points="236.78 232.83 223.4 232.83 229.09 232.83 229.09 246.04"/><polyline class="cls-6" points="246.31 246.04 246.31 232.83 243.8 232.83 240.62 241.69 239.62 241.69 236.95 237.51 234.94 237.51 234.94 246.04"/><path class="cls-7" d="M224.41,241.19c0,2.01-5.02,5.02-7.02,5.02s-14.04,.84-14.04-1.17,12.04-6.19,14.04-6.19c2.01,.17,7.02,.33,7.02,2.34Z"/><path class="cls-7" d="M218.39,236.68c-1.17,1-5.68-.67-6.69-1.84s-7.36-8.19-6.19-9.2,9.7,4.51,10.7,5.68c1,1.17,3.34,4.35,2.17,5.35Z"/><path class="cls-7" d="M209.53,239.02c-.33,1.5-4.68,3.18-6.35,2.84-1.5-.33-14.21-1.34-13.88-2.84s13.54-3.18,15.05-2.84c1.67,.33,5.52,1.34,5.18,2.84Z"/><path class="cls-7" d="M206.18,235c-1.5,.5-5.18-2.34-5.68-3.85s-6.35-12.87-5.02-13.37,9.7,9.86,10.37,11.37c.5,1.5,1.67,5.35,.33,5.85Z"/><path class="cls-7" d="M196.99,234.33c-1,1.5-5.85,1.5-7.19,.67s-13.21-6.52-12.2-8.02,14.38,1.67,15.72,2.67c1.34,.84,4.68,3.18,3.68,4.68Z"/><path class="cls-7" d="M193.65,228.98c-1.67,0-4.01-3.85-4.01-5.35s-1.34-13.37,.33-13.37,5.68,12.04,5.68,13.54c-.17,1.34-.33,5.18-2.01,5.18Z"/><path class="cls-7" d="M184.79,218.79c-1.5-.33-3.01-4.51-2.67-6.02,.33-1.34,1.67-13.04,3.18-12.71,1.5,.33,2.67,12.71,2.34,14.04-.33,1.5-1.34,5.02-2.84,4.68Z"/><path class="cls-7" d="M185.62,225.31c-1.34,1-5.85-.5-6.85-1.67-1-1.34-10.37-10.2-9.03-11.2s12.71,6.19,13.71,7.36c1,1.17,3.34,4.51,2.17,5.52Z"/><path class="cls-7" d="M177.93,212.77c-1.34,.67-5.35-1.5-6.02-2.84s-7.86-11.37-6.35-12.2c1.34-.67,10.7,8.19,11.37,9.53,.67,1.34,2.34,4.68,1,5.52Z"/><path class="cls-7" d="M178.77,207.92c-1.17-.5-1.67-4.68-1.17-6.02s3.68-12.87,4.85-12.37c1.17,.5,.17,12.71-.33,14.04-.67,1.5-2.17,4.85-3.34,4.35Z"/><path class="cls-7" d="M173.58,200.06c-1.34,.33-4.18-3.01-4.51-4.68-.33-1.5-4.18-13.21-3.01-13.54,1.34-.33,7.36,11.03,7.69,12.54,.33,1.5,1.17,5.52-.17,5.68Z"/><path class="cls-7" d="M175.92,194.88c-1.17-.67-1-4.51-.33-5.68s5.02-10.53,6.19-9.86-1.5,11.37-2.17,12.37c-.67,1.17-2.51,3.85-3.68,3.18Z"/><path class="cls-7" d="M172.41,185.35c-1.34-.17-3.18-4.01-3.01-5.52s-.17-13.04,1.17-13.04c1.34,.17,3.85,12.04,3.68,13.54s-.5,5.18-1.84,5.02Z"/><path class="cls-7" d="M175.76,181.5c-.84-.84,.5-4.68,1.5-5.52s8.36-9.2,9.2-8.19c.84,.84-5.18,10.7-6.19,11.54-1,.84-3.68,3.18-4.51,2.17Z"/><path class="cls-7" d="M180.77,169.3c-.67-.84,.33-3.68,1.17-4.51,.84-.67,6.69-7.36,7.36-6.52s-4.01,8.53-4.85,9.36c-1,.5-3.01,2.34-3.68,1.67Z"/><path class="cls-7" d="M175.09,170.97c-1-.33-1.67-4.35-1.34-5.68,.33-1.34,2.67-12.71,3.68-12.54,1,.33,.5,12.2,.17,13.54-.17,1.67-1.34,5.18-2.51,4.68Z"/><path class="cls-7" d="M181.44,162.11c-1.34-.5-2.01-4.51-1.5-5.85,.5-1.34,3.18-12.2,4.51-11.7,1.34,.5,.67,12.2,.17,13.54-.5,1.17-1.84,4.51-3.18,4.01Z"/><path class="cls-7" d="M249.15,240.69c0,2.01,5.02,5.02,7.02,5.02s14.04,.84,14.04-1.17-12.04-6.19-14.04-6.19-7.02,.33-7.02,2.34Z"/><path class="cls-7" d="M255.17,236.17c1.17,1,5.68-.67,6.69-1.84s7.36-8.19,6.19-9.2c-1.17-1-9.7,4.51-10.7,5.68-1,1.17-3.34,4.35-2.17,5.35Z"/><path class="cls-7" d="M264.03,238.51c.33,1.5,4.68,3.18,6.35,2.84,1.5-.33,14.21-1.34,13.88-2.84-.33-1.5-13.54-3.18-15.05-2.84-1.67,.33-5.52,1.34-5.18,2.84Z"/><path class="cls-7" d="M267.37,234.5c1.5,.5,5.18-2.34,5.68-3.85s6.35-12.87,4.85-13.37-9.7,9.86-10.37,11.37c-.33,1.5-1.5,5.35-.17,5.85Z"/><path class="cls-7" d="M276.57,233.83c1,1.5,5.85,1.5,7.19,.67s13.04-6.52,12.04-8.02c-1-1.5-14.38,1.67-15.72,2.67-1.17,.84-4.51,3.18-3.51,4.68Z"/><path class="cls-7" d="M279.91,228.48c1.67,0,4.01-3.85,4.01-5.35s1.34-13.37-.33-13.37-5.68,12.04-5.68,13.54c.17,1.5,.33,5.18,2.01,5.18Z"/><path class="cls-7" d="M288.77,218.29c1.5-.33,3.01-4.51,2.67-6.02-.33-1.34-1.67-13.04-3.18-12.71-1.5,.33-2.67,12.71-2.34,14.04,.33,1.5,1.34,5.02,2.84,4.68Z"/><path class="cls-7" d="M287.94,224.81c1.34,1,5.85-.5,6.85-1.67,1-1.34,10.37-10.2,9.03-11.2-1.34-1-12.71,6.19-13.71,7.36-1,1.34-3.34,4.51-2.17,5.52Z"/><path class="cls-7" d="M295.63,212.27c1.34,.67,5.35-1.5,6.02-2.84s7.86-11.37,6.35-12.2c-1.34-.67-10.7,8.19-11.37,9.53-.67,1.34-2.34,4.85-1,5.52Z"/><path class="cls-7" d="M294.79,207.59c1.17-.5,1.84-4.68,1.17-6.02s-3.68-12.87-4.85-12.37c-1.17,.5-.17,12.71,.33,14.04,.67,1.34,2.17,4.85,3.34,4.35Z"/><path class="cls-7" d="M299.98,199.56c1.34,.33,4.18-3.01,4.51-4.68,.33-1.5,4.35-13.21,3.01-13.54-1.34-.33-7.36,11.03-7.69,12.54-.33,1.67-1.17,5.52,.17,5.68Z"/><path class="cls-7" d="M297.63,194.38c1.17-.67,1.17-4.51,.33-5.68-.67-1.17-5.18-10.53-6.19-9.86s1.5,11.37,2.17,12.37c.67,1.17,2.51,4.01,3.68,3.18Z"/><path class="cls-7" d="M301.15,184.85c1.34-.17,3.18-4.01,3.01-5.52-.17-1.5,.17-13.21-1.17-13.04-1.34,.17-3.85,12.04-3.68,13.54,0,1.5,.5,5.18,1.84,5.02Z"/><path class="cls-7" d="M297.8,181c.84-.84-.5-4.68-1.5-5.52s-8.36-9.2-9.2-8.19c-.84,.84,5.18,10.7,6.19,11.54,1,.84,3.68,3.18,4.51,2.17Z"/><path class="cls-7" d="M292.79,168.8c.67-.84-.33-3.68-1.17-4.51s-6.69-7.36-7.36-6.52,4.01,8.53,4.85,9.36c.84,.67,3.01,2.34,3.68,1.67Z"/><path class="cls-7" d="M298.3,170.64c1-.33,1.67-4.35,1.34-5.68-.33-1.34-2.67-12.71-3.68-12.54-1,.33-.5,12.2-.17,13.54,.33,1.5,1.5,5.02,2.51,4.68Z"/><path class="cls-7" d="M292.12,161.61c1.34-.5,2.01-4.51,1.5-5.85-.5-1.34-3.18-12.2-4.51-11.7-1.34,.5-.67,12.2-.17,13.54,.5,1.17,1.84,4.51,3.18,4.01Z"/></g></g><path id="darker" class="cls-11" d="M338.09,172.48c-3.18,6.35-57.01,16.72-101.31,16.72s-98.97-11.37-102.15-16.72v91.62h204.13v-90.61c-.17-1.17-.5-1.67-.67-1Z"/></g><g id="tr-2"><rect class="cls-2" x="379.63" y="119.81" width="204.13" height="144.28"/><rect class="cls-9" x="385.98" y="126.17" width="191.59" height="131.57"/><g id="logo-2"><g><circle class="cls-5" cx="481.78" cy="187.19" r="37.11"/><path class="cls-3" d="M481.78,150.07s19.23,7.86,19.23,37.11-19.23,37.11-19.23,37.11"/><path class="cls-3" d="M481.78,150.07s-19.23,7.86-19.23,37.11,19.23,37.11,19.23,37.11"/><line class="cls-3" x1="481.78" y1="150.07" x2="481.78" y2="224.3"/><line class="cls-3" x1="444.66" y1="187.19" x2="518.89" y2="187.19"/><path class="cls-3" d="M452.86,163.78s10.87,5.52,28.76,5.52,28.76-5.52,28.76-5.52"/><path class="cls-3" d="M452.86,211.1c0-.17,10.87-5.52,28.76-5.52s28.76,5.52,28.76,5.52"/><polygon class="cls-7" points="504.02 156.76 513.88 147.73 500.84 145.06 529.26 136.87 522.74 166.46 518.89 151.75 509.53 162.61 504.02 156.76"/><polyline class="cls-6" points="481.78 232.83 468.4 232.83 474.09 232.83 474.09 246.04"/><polyline class="cls-6" points="491.31 246.04 491.31 232.83 488.8 232.83 485.62 241.69 484.62 241.69 481.95 237.51 479.94 237.51 479.94 246.04"/><path class="cls-7" d="M469.41,241.19c0,2.01-5.02,5.02-7.02,5.02s-14.04,.84-14.04-1.17,12.04-6.19,14.04-6.19c2.01,.17,7.02,.33,7.02,2.34Z"/><path class="cls-7" d="M463.39,236.68c-1.17,1-5.68-.67-6.69-1.84s-7.36-8.19-6.19-9.2,9.7,4.51,10.7,5.68c1,1.17,3.34,4.35,2.17,5.35Z"/><path class="cls-7" d="M454.53,239.02c-.33,1.5-4.68,3.18-6.35,2.84-1.5-.33-14.21-1.34-13.88-2.84s13.54-3.18,15.05-2.84c1.67,.33,5.52,1.34,5.18,2.84Z"/><path class="cls-7" d="M451.18,235c-1.5,.5-5.18-2.34-5.68-3.85s-6.35-12.87-5.02-13.37,9.7,9.86,10.37,11.37c.5,1.5,1.67,5.35,.33,5.85Z"/><path class="cls-7" d="M441.99,234.33c-1,1.5-5.85,1.5-7.19,.67s-13.21-6.52-12.2-8.02,14.38,1.67,15.72,2.67c1.34,.84,4.68,3.18,3.68,4.68Z"/><path class="cls-7" d="M438.65,228.98c-1.67,0-4.01-3.85-4.01-5.35s-1.34-13.37,.33-13.37,5.68,12.04,5.68,13.54c-.17,1.34-.33,5.18-2.01,5.18Z"/><path class="cls-7" d="M429.79,218.79c-1.5-.33-3.01-4.51-2.67-6.02,.33-1.34,1.67-13.04,3.18-12.71,1.5,.33,2.67,12.71,2.34,14.04-.33,1.5-1.34,5.02-2.84,4.68Z"/><path class="cls-7" d="M430.62,225.31c-1.34,1-5.85-.5-6.85-1.67-1-1.34-10.37-10.2-9.03-11.2s12.71,6.19,13.71,7.36c1,1.17,3.34,4.51,2.17,5.52Z"/><path class="cls-7" d="M422.93,212.77c-1.34,.67-5.35-1.5-6.02-2.84s-7.86-11.37-6.35-12.2c1.34-.67,10.7,8.19,11.37,9.53,.67,1.34,2.34,4.68,1,5.52Z"/><path class="cls-7" d="M423.77,207.92c-1.17-.5-1.67-4.68-1.17-6.02s3.68-12.87,4.85-12.37c1.17,.5,.17,12.71-.33,14.04-.67,1.5-2.17,4.85-3.34,4.35Z"/><path class="cls-7" d="M418.58,200.06c-1.34,.33-4.18-3.01-4.51-4.68-.33-1.5-4.18-13.21-3.01-13.54,1.34-.33,7.36,11.03,7.69,12.54,.33,1.5,1.17,5.52-.17,5.68Z"/><path class="cls-7" d="M420.92,194.88c-1.17-.67-1-4.51-.33-5.68s5.02-10.53,6.19-9.86-1.5,11.37-2.17,12.37c-.67,1.17-2.51,3.85-3.68,3.18Z"/><path class="cls-7" d="M417.41,185.35c-1.34-.17-3.18-4.01-3.01-5.52s-.17-13.04,1.17-13.04c1.34,.17,3.85,12.04,3.68,13.54s-.5,5.18-1.84,5.02Z"/><path class="cls-7" d="M420.76,181.5c-.84-.84,.5-4.68,1.5-5.52s8.36-9.2,9.2-8.19c.84,.84-5.18,10.7-6.19,11.54-1,.84-3.68,3.18-4.51,2.17Z"/><path class="cls-7" d="M425.77,169.3c-.67-.84,.33-3.68,1.17-4.51,.84-.67,6.69-7.36,7.36-6.52s-4.01,8.53-4.85,9.36c-1,.5-3.01,2.34-3.68,1.67Z"/><path class="cls-7" d="M420.09,170.97c-1-.33-1.67-4.35-1.34-5.68,.33-1.34,2.67-12.71,3.68-12.54,1,.33,.5,12.2,.17,13.54-.17,1.67-1.34,5.18-2.51,4.68Z"/><path class="cls-7" d="M426.44,162.11c-1.34-.5-2.01-4.51-1.5-5.85,.5-1.34,3.18-12.2,4.51-11.7,1.34,.5,.67,12.2,.17,13.54-.5,1.17-1.84,4.51-3.18,4.01Z"/><path class="cls-7" d="M494.15,240.69c0,2.01,5.02,5.02,7.02,5.02s14.04,.84,14.04-1.17-12.04-6.19-14.04-6.19-7.02,.33-7.02,2.34Z"/><path class="cls-7" d="M500.17,236.17c1.17,1,5.68-.67,6.69-1.84s7.36-8.19,6.19-9.2c-1.17-1-9.7,4.51-10.7,5.68-1,1.17-3.34,4.35-2.17,5.35Z"/><path class="cls-7" d="M509.03,238.51c.33,1.5,4.68,3.18,6.35,2.84,1.5-.33,14.21-1.34,13.88-2.84-.33-1.5-13.54-3.18-15.05-2.84-1.67,.33-5.52,1.34-5.18,2.84Z"/><path class="cls-7" d="M512.37,234.5c1.5,.5,5.18-2.34,5.68-3.85s6.35-12.87,4.85-13.37-9.7,9.86-10.37,11.37c-.33,1.5-1.5,5.35-.17,5.85Z"/><path class="cls-7" d="M521.57,233.83c1,1.5,5.85,1.5,7.19,.67s13.04-6.52,12.04-8.02c-1-1.5-14.38,1.67-15.72,2.67-1.17,.84-4.51,3.18-3.51,4.68Z"/><path class="cls-7" d="M524.91,228.48c1.67,0,4.01-3.85,4.01-5.35s1.34-13.37-.33-13.37-5.68,12.04-5.68,13.54c.17,1.5,.33,5.18,2.01,5.18Z"/><path class="cls-7" d="M533.77,218.29c1.5-.33,3.01-4.51,2.67-6.02-.33-1.34-1.67-13.04-3.18-12.71-1.5,.33-2.67,12.71-2.34,14.04,.33,1.5,1.34,5.02,2.84,4.68Z"/><path class="cls-7" d="M532.94,224.81c1.34,1,5.85-.5,6.85-1.67,1-1.34,10.37-10.2,9.03-11.2-1.34-1-12.71,6.19-13.71,7.36-1,1.34-3.34,4.51-2.17,5.52Z"/><path class="cls-7" d="M540.63,212.27c1.34,.67,5.35-1.5,6.02-2.84s7.86-11.37,6.35-12.2c-1.34-.67-10.7,8.19-11.37,9.53-.67,1.34-2.34,4.85-1,5.52Z"/><path class="cls-7" d="M539.79,207.59c1.17-.5,1.84-4.68,1.17-6.02s-3.68-12.87-4.85-12.37c-1.17,.5-.17,12.71,.33,14.04,.67,1.34,2.17,4.85,3.34,4.35Z"/><path class="cls-7" d="M544.98,199.56c1.34,.33,4.18-3.01,4.51-4.68,.33-1.5,4.35-13.21,3.01-13.54-1.34-.33-7.36,11.03-7.69,12.54-.33,1.67-1.17,5.52,.17,5.68Z"/><path class="cls-7" d="M542.63,194.38c1.17-.67,1.17-4.51,.33-5.68-.67-1.17-5.18-10.53-6.19-9.86s1.5,11.37,2.17,12.37c.67,1.17,2.51,4.01,3.68,3.18Z"/><path class="cls-7" d="M546.15,184.85c1.34-.17,3.18-4.01,3.01-5.52-.17-1.5,.17-13.21-1.17-13.04-1.34,.17-3.85,12.04-3.68,13.54,0,1.5,.5,5.18,1.84,5.02Z"/><path class="cls-7" d="M542.8,181c.84-.84-.5-4.68-1.5-5.52s-8.36-9.2-9.2-8.19c-.84,.84,5.18,10.7,6.19,11.54,1,.84,3.68,3.18,4.51,2.17Z"/><path class="cls-7" d="M537.79,168.8c.67-.84-.33-3.68-1.17-4.51s-6.69-7.36-7.36-6.52,4.01,8.53,4.85,9.36c.84,.67,3.01,2.34,3.68,1.67Z"/><path class="cls-7" d="M543.3,170.64c1-.33,1.67-4.35,1.34-5.68-.33-1.34-2.67-12.71-3.68-12.54-1,.33-.5,12.2-.17,13.54,.33,1.5,1.5,5.02,2.51,4.68Z"/><path class="cls-7" d="M537.12,161.61c1.34-.5,2.01-4.51,1.5-5.85-.5-1.34-3.18-12.2-4.51-11.7-1.34,.5-.67,12.2-.17,13.54,.5,1.17,1.84,4.51,3.18,4.01Z"/></g></g><path id="darker-2" class="cls-10" d="M583.09,172.48c-3.18,6.35-57.01,16.72-101.31,16.72s-98.97-11.37-102.15-16.72v91.62h204.13v-90.61c-.17-1.17-.5-1.67-.67-1Z"/></g></svg>