<?xml version="1.0" encoding="UTF-8"?><svg id="Layer" xmlns="http://www.w3.org/2000/svg" xmlns:xlink="http://www.w3.org/1999/xlink" viewBox="0 0 721 379.91"><defs><style>.cls-1{fill:url(#linear-gradient-2);}.cls-2{fill:#010202;stroke-width:1.89px;}.cls-2,.cls-3{stroke:#030304;}.cls-2,.cls-3,.cls-4{stroke-miterlimit:10;}.cls-5{fill:url(#linear-gradient-6);}.cls-6{fill:#1f1f1e;}.cls-3{stroke-width:.92px;}.cls-3,.cls-4{fill:#fff;}.cls-4{opacity:0;stroke:#1d1d1b;}.cls-7{fill:url(#Nowy_wzorek_3);opacity:.1;}.cls-7,.cls-8{isolation:isolate;}.cls-8{opacity:.15;}.cls-8,.cls-9{fill:#030304;}.cls-10{fill:url(#linear-gradient-5);}.cls-11{fill:none;}.cls-12{fill:url(#linear-gradient-7);}.cls-13{fill:url(#linear-gradient-9);}.cls-14{fill:#7f358b;}.cls-15{fill:url(#linear-gradient-3);}.cls-16{fill:url(#linear-gradient);}.cls-17{fill:url(#linear-gradient-4);}.cls-18{fill:#010101;}.cls-19{fill:url(#linear-gradient-8);}</style><linearGradient id="linear-gradient" x1="532.72" y1="-.45" x2="187.17" y2="345.08" gradientTransform="translate(0 364.63) scale(1 -1)" gradientUnits="userSpaceOnUse"><stop offset="0" stop-color="#9e9d9c"/><stop offset=".54" stop-color="#010202"/><stop offset="1" stop-color="#9e9d9c"/></linearGradient><linearGradient id="linear-gradient-2" x1="360.02" y1="23.22" x2="360.02" y2="321.39" gradientTransform="translate(0 364.63) scale(1 -1)" gradientUnits="userSpaceOnUse"><stop offset="0" stop-color="#462c1b"/><stop offset="1" stop-color="#b18048"/></linearGradient><linearGradient id="linear-gradient-3" x1="359.96" y1="27.37" x2="359.96" y2="317.39" gradientTransform="translate(0 364.63) scale(1 -1)" gradientUnits="userSpaceOnUse"><stop offset="0" stop-color="#946137"/><stop offset="1" stop-color="#805127"/></linearGradient><pattern id="Nowy_wzorek_3" x="0" y="0" width="19.7" height="21.7" patternTransform="translate(43.9 -32159.12) scale(1 -1)" patternUnits="userSpaceOnUse" viewBox="0 0 19.7 21.7"><g><rect class="cls-11" width="19.7" height="21.7"/><g><rect class="cls-11" width="19.7" height="21.7"/><g><rect class="cls-11" width="19.7" height="21.7"/><g><rect class="cls-11" width="19.7" height="21.7"/><g><rect class="cls-11" width="19.7" height="21.7"/><g><rect class="cls-11" width="19.7" height="21.7"/><path class="cls-6" d="M16.6,13c2.1-2.1,2.1-5.6,0-7.7l-1.2-1.2c-2.1-2.1-5.6-2.1-7.8,0L3.1,8.7c-2.1,2.1-2.1,5.6,0,7.7l1.2,1.2c2.1,2.1,5.6,2.1,7.7,0l4.6-4.6Z"/></g></g></g></g></g></g></pattern><linearGradient id="linear-gradient-4" x1="-510.17" y1="-820.54" x2="-433.66" y2="-744.08" gradientTransform="translate(245.35 -627.96) rotate(-45) scale(1 -1)" gradientUnits="userSpaceOnUse"><stop offset="0" stop-color="#1d1427"/><stop offset=".24" stop-color="#372348"/><stop offset=".49" stop-color="#573b6c"/><stop offset=".71" stop-color="#72508c"/><stop offset=".89" stop-color="#835ca0"/><stop offset="1" stop-color="#8963a7"/></linearGradient><linearGradient id="linear-gradient-5" x1="-604.98" y1="-725.73" x2="-528.52" y2="-649.22" xlink:href="#linear-gradient-4"/><linearGradient id="linear-gradient-6" x1="397.21" y1="184.23" x2="397.21" y2="292.42" gradientTransform="translate(0 363.62) scale(1 -1)" gradientUnits="userSpaceOnUse"><stop offset=".16" stop-color="#823a13"/><stop offset=".18" stop-color="#985c1a"/><stop offset=".22" stop-color="#ae7d22"/><stop offset=".26" stop-color="#c39d26"/><stop offset=".3" stop-color="#d6b92e"/><stop offset=".35" stop-color="#e4cf36"/><stop offset=".41" stop-color="#efe036"/><stop offset=".48" stop-color="#f6e947"/><stop offset=".58" stop-color="#f8ea4e"/><stop offset=".86" stop-color="#f6ea4d"/><stop offset="1" stop-color="#fcf4f9"/></linearGradient><linearGradient id="linear-gradient-7" x1="397.21" y1="298.18" x2="397.21" y2="132.83" gradientTransform="translate(0 363.62) scale(1 -1)" gradientUnits="userSpaceOnUse"><stop offset=".26" stop-color="#f6ea4d"/><stop offset=".86" stop-color="#803813"/></linearGradient><linearGradient id="linear-gradient-8" x1="397.26" y1="185.73" x2="397.26" y2="290.8" gradientTransform="translate(0 363.62) scale(1 -1)" gradientUnits="userSpaceOnUse"><stop offset=".16" stop-color="#803813"/><stop offset=".17" stop-color="#8c471e"/><stop offset=".18" stop-color="#a26b3c"/><stop offset=".2" stop-color="#b78954"/><stop offset=".22" stop-color="#c7a468"/><stop offset=".24" stop-color="#d7bb7a"/><stop offset=".26" stop-color="#e2cc88"/><stop offset=".3" stop-color="#ead891"/><stop offset=".34" stop-color="#eede97"/><stop offset=".46" stop-color="#efe097"/><stop offset=".7" stop-color="#803813"/><stop offset=".73" stop-color="#e6d234"/><stop offset=".74" stop-color="#ebd948"/><stop offset=".75" stop-color="#eede6d"/><stop offset=".77" stop-color="#f0e28a"/><stop offset=".79" stop-color="#f8ebaa"/><stop offset=".8" stop-color="#f8edbf"/><stop offset=".83" stop-color="#faf0cf"/><stop offset=".85" stop-color="#fcf2da"/><stop offset=".89" stop-color="#fdf4e1"/><stop offset=".99" stop-color="#fdf5e3"/></linearGradient><linearGradient id="linear-gradient-9" x1="397.19" y1="275.4" x2="397.19" y2="113.23" gradientTransform="translate(0 363.62) scale(1 -1)" gradientUnits="userSpaceOnUse"><stop offset=".26" stop-color="#f6ea4d"/><stop offset=".77" stop-color="#803813"/></linearGradient></defs><rect class="cls-4" x=".5" y=".5" width="720" height="378.91"/><g id="prodBg"><rect id="external-border" class="cls-16" x="168.05" y="38.67" width="383.8" height="307.28"/><rect id="internal-border" class="cls-1" x="172.61" y="43.24" width="374.81" height="298.17"/><rect id="bg" class="cls-15" x="176.61" y="47.24" width="366.69" height="290.02"/><rect id="bgPattern" class="cls-7" x="176.61" y="47.24" width="366.69" height="290.02"/></g><path class="cls-18" d="M220.07,289.43v-24.02h-24.02v-9.86h24.02v-24.02h9.86v24.02h24.02v9.86h-24.02v24.02h-9.86Z"/><path class="cls-18" d="M271.68,135.03v-13.46h32.31v13.46h-32.31Z"/><g id="energy"><rect class="cls-9" x="407.46" y="201.54" width="114.74" height="114.74"/><rect class="cls-17" x="410.76" y="204.84" width="108.13" height="108.13"/><polygon class="cls-14" points="513.65 210.08 513.65 307.74 416.02 307.74 416.02 210.08 513.65 210.08"/><polygon class="cls-3" points="452.93 247.73 485.11 227.77 467.9 252.7 477.02 267.53 445.38 287.5 461.3 262.64 452.93 247.73"/><path id="darker" class="cls-8" d="M518.89,312.98h-108.13v-59.26s34.05,5.24,54.02,5.24,54.12-5.24,54.12-5.24v59.26h0Z"/></g><g id="energy-2"><rect class="cls-9" x="273.35" y="201.54" width="114.74" height="114.74"/><rect class="cls-10" x="276.65" y="204.84" width="108.13" height="108.13"/><polygon class="cls-14" points="379.54 210.08 379.54 307.74 281.91 307.74 281.91 210.08 379.54 210.08"/><polygon class="cls-3" points="318.82 247.73 351.01 227.77 333.79 252.7 342.91 267.53 311.27 287.5 327.19 262.64 318.82 247.73"/><path id="darker-2" class="cls-8" d="M384.78,312.98h-108.13v-59.26s34.05,5.24,54.02,5.24,54.12-5.24,54.12-5.24v59.26Z"/></g><g id="mln"><polygon id="obram_czarne" class="cls-2" points="357.19 67.93 339.78 85.31 339.78 165.28 357.19 182.67 437.26 182.67 454.54 165.28 454.54 85.31 437.26 67.93 357.19 67.93"/><polygon id="obram_zolte" class="cls-5" points="359.42 71.21 343.18 87.57 343.18 163.02 359.42 179.39 434.9 179.39 451.24 163.02 451.24 87.57 434.9 71.21 359.42 71.21"/><polygon id="tlo_wew" class="cls-12" points="360.57 72.82 344.67 88.69 344.67 161.9 360.57 177.8 433.86 177.8 449.75 161.9 449.75 88.69 433.86 72.82 360.57 72.82"/><path id="obram_skosne" class="cls-19" d="M442.13,145.56c-2.91,0-5.27-2.36-5.27-5.27v-29.98c0-2.91,2.36-5.27,5.27-5.27h7.53v-16.34l-15.8-15.89h-16.44v7.53c0,2.91-2.36,5.27-5.27,5.27h-29.98c-2.91,0-5.27-2.36-5.27-5.27v-7.53h-16.34l-15.89,15.89v16.44h7.53c2.91,0,5.27,2.36,5.27,5.27v29.98c0,2.91-2.36,5.27-5.27,5.27h-7.53v16.34l15.89,15.89h16.44v-7.53c0-2.91,2.36-5.27,5.27-5.27h29.98c2.91,0,5.27,2.36,5.27,5.27v7.53h16.44l15.89-15.89v-16.44h-7.72Z"/><path id="tlo_zew" class="cls-13" d="M441.85,147.33c-3.58,0-6.48-3.58-6.48-7.15v-29.8c0-3.58,2.91-7.15,6.48-7.15h6.11v-13.34l-15.42-15.32h-13.26v6.11c0,3.58-3.58,6.48-7.15,6.48h-29.8c-3.58,0-7.15-2.91-7.15-6.48v-6.11h-13.44l-15.32,15.32v13.34h6.11c3.58,0,6.48,3.58,6.48,7.15v29.8c0,3.58-2.91,7.15-6.48,7.15h-6.11v13.34l15.32,15.32h13.34v-6.11c0-3.58,3.58-6.48,7.15-6.48h29.7c3.58,0,7.15,2.91,7.15,6.48v6.11h13.34l15.32-15.32v-13.34h-5.89Z"/></g><path class="cls-18" d="M395.48,149.91v-42.82h-6.48l-.2-4.84,16.37-1.42v49.07h-9.69Z"/></svg>