<?xml version="1.0" encoding="UTF-8"?><svg id="Layer" xmlns="http://www.w3.org/2000/svg" xmlns:xlink="http://www.w3.org/1999/xlink" viewBox="0 0 721 379.91"><defs><style>.cls-1{fill:url(#linear-gradient-2);}.cls-2{fill:#342218;}.cls-3,.cls-4,.cls-5{fill:#030404;}.cls-6{fill:#525251;}.cls-7{fill:url(#linear-gradient-6);}.cls-8{fill:#946137;}.cls-9{fill:none;stroke:#ffd80c;stroke-width:4.77px;}.cls-9,.cls-10,.cls-11{stroke-miterlimit:10;}.cls-4{opacity:.15;}.cls-4,.cls-5{isolation:isolate;}.cls-10{fill:#fff;opacity:0;stroke:#1d1d1b;}.cls-12{fill:url(#linear-gradient-10);}.cls-13{fill:url(#linear-gradient-5);}.cls-14{fill:url(#linear-gradient-7);}.cls-11{fill:#030304;stroke:#030404;stroke-width:1.9px;}.cls-15{fill:url(#linear-gradient-9);}.cls-16{fill:url(#linear-gradient-3);}.cls-5{opacity:.64;}.cls-17{fill:url(#linear-gradient);}.cls-18{fill:#010202;}.cls-19{fill:url(#linear-gradient-4);}.cls-20{fill:url(#linear-gradient-8);}</style><linearGradient id="linear-gradient" x1="-459.63" y1="897.88" x2="-380.39" y2="818.65" gradientTransform="translate(-79.88 -796.33) rotate(-45)" gradientUnits="userSpaceOnUse"><stop offset="0" stop-color="#472d1c"/><stop offset=".05" stop-color="#58361a"/><stop offset=".1" stop-color="#684016"/><stop offset=".32" stop-color="#784a20"/><stop offset=".75" stop-color="#8e5c33"/><stop offset="1" stop-color="#946137"/></linearGradient><linearGradient id="linear-gradient-2" x1="-578.73" y1="-399.91" x2="-499.49" y2="-320.67" gradientTransform="translate(356.45 -360.01) rotate(-45) scale(1 -1)" gradientUnits="userSpaceOnUse"><stop offset="0" stop-color="#030404"/><stop offset="1" stop-color="#7a787a"/></linearGradient><linearGradient id="linear-gradient-3" x1="491.32" y1="201.37" x2="491.32" y2="311" gradientTransform="translate(0 363.62) scale(1 -1)" gradientUnits="userSpaceOnUse"><stop offset=".16" stop-color="#823b14"/><stop offset=".18" stop-color="#995d1a"/><stop offset=".22" stop-color="#ae7d22"/><stop offset=".26" stop-color="#c39d25"/><stop offset=".3" stop-color="#d6b92e"/><stop offset=".35" stop-color="#e4cf36"/><stop offset=".41" stop-color="#efe036"/><stop offset=".48" stop-color="#f5e94d"/><stop offset=".58" stop-color="#f8eb53"/><stop offset=".86" stop-color="#f5ea52"/><stop offset="1" stop-color="#fcf4f9"/></linearGradient><linearGradient id="linear-gradient-4" x1="491.38" y1="316.84" x2="491.38" y2="149.12" gradientTransform="translate(0 363.62) scale(1 -1)" gradientUnits="userSpaceOnUse"><stop offset=".26" stop-color="#f5ea52"/><stop offset=".86" stop-color="#813a14"/></linearGradient><linearGradient id="linear-gradient-5" x1="491.27" y1="202.91" x2="491.27" y2="309.46" gradientTransform="translate(0 363.62) scale(1 -1)" gradientUnits="userSpaceOnUse"><stop offset=".16" stop-color="#813a14"/><stop offset=".17" stop-color="#8d481f"/><stop offset=".18" stop-color="#a36c3d"/><stop offset=".2" stop-color="#b78954"/><stop offset=".22" stop-color="#c7a468"/><stop offset=".24" stop-color="#d7bb7a"/><stop offset=".26" stop-color="#e2cc88"/><stop offset=".3" stop-color="#ead891"/><stop offset=".34" stop-color="#eede97"/><stop offset=".46" stop-color="#efe097"/><stop offset=".7" stop-color="#813a14"/><stop offset=".73" stop-color="#e6d234"/><stop offset=".74" stop-color="#ebda49"/><stop offset=".75" stop-color="#eede6d"/><stop offset=".77" stop-color="#f0e18a"/><stop offset=".79" stop-color="#f8ebab"/><stop offset=".8" stop-color="#f8edbf"/><stop offset=".83" stop-color="#faf0cf"/><stop offset=".85" stop-color="#fcf2da"/><stop offset=".89" stop-color="#fdf4e1"/><stop offset=".99" stop-color="#fdf5e3"/></linearGradient><linearGradient id="linear-gradient-6" x1="491.43" y1="293.75" x2="491.43" y2="129.24" gradientTransform="translate(0 363.62) scale(1 -1)" gradientUnits="userSpaceOnUse"><stop offset=".26" stop-color="#f5ea52"/><stop offset=".77" stop-color="#813a14"/></linearGradient><linearGradient id="linear-gradient-7" x1="492.31" y1="32.96" x2="492.31" y2="142.59" xlink:href="#linear-gradient-3"/><linearGradient id="linear-gradient-8" x1="492.26" y1="148.43" x2="492.26" y2="-19.28" xlink:href="#linear-gradient-4"/><linearGradient id="linear-gradient-9" x1="492.26" y1="34.5" x2="492.26" y2="141.05" xlink:href="#linear-gradient-5"/><linearGradient id="linear-gradient-10" x1="492.26" y1="125.33" x2="492.26" y2="-39.17" xlink:href="#linear-gradient-6"/></defs><rect class="cls-10" x=".5" y=".5" width="720" height="378.91"/><g id="steel"><rect class="cls-3" x="170.57" y="48.1" width="118.88" height="118.88"/><rect class="cls-17" x="173.98" y="51.52" width="112.05" height="112.05"/><rect class="cls-8" x="179.49" y="56.91" width="101.16" height="101.16"/><g><path class="cls-2" d="M240.58,140.89l2.42-47-5.61-.66-.88-1.98h-4.4l-.77,2.09-6.71-.33v-12.11h7.71l.55,2.42,3.74,.44,.88-2.75h7.93l1.54,1.32,1.32-1.32h9.8l1.1,1.87,1.76-1.87,7.48,6.05-.44,4.18s-4.07-3.85-6.05-3.85-4.84-.11-4.84-.11l-4.07,6.6-2.42,.22,2.31,46.78h-12.33Z"/><polygon class="cls-2" points="218.34 78.92 210.31 74.41 210.2 85.31 203.04 85.31 203.04 74.41 193.79 78.59 193.79 91.91 202.27 96.09 199.41 140.89 212.95 140.89 210.31 96.09 218.34 92.46 218.34 78.92"/></g><path id="darker" class="cls-4" d="M286.04,163.57h-112.05v-61.53s35.22,5.39,55.92,5.39,56.03-5.39,56.03-5.39l.11,61.53h0Z"/></g><g id="titan"><rect class="cls-3" x="170.57" y="216.52" width="118.88" height="118.88"/><rect class="cls-1" x="173.98" y="219.93" width="112.05" height="112.05"/><rect class="cls-6" x="179.38" y="225.32" width="101.16" height="101.16"/><path id="darker-2" class="cls-5" d="M285.93,331.99h-111.94v-61.42s35.22,5.39,55.92,5.39,56.03-5.39,56.03-5.39v61.42h0Z"/><polygon class="cls-9" points="230.56 242.94 241.13 265.17 265.56 268.25 247.62 285.09 252.24 309.31 230.56 297.42 209.09 309.31 213.61 285.09 195.67 268.25 220.1 265.17 230.56 242.94"/></g><g id="mln"><polygon id="obram_czarne" class="cls-11" points="450.7 49.31 433.2 66.82 433.2 148.05 450.7 165.77 531.94 165.77 549.55 148.05 549.55 66.82 531.94 49.31 450.7 49.31"/><polygon id="obram_zolte" class="cls-16" points="453.13 52.62 436.51 69.24 436.51 145.85 453.13 162.25 529.63 162.25 546.14 145.85 546.14 69.24 529.63 52.62 453.13 52.62"/><polygon id="tlo_wew" class="cls-19" points="454.23 54.16 438.05 70.34 438.05 144.64 454.23 160.82 528.53 160.82 544.71 144.64 544.71 70.34 528.53 54.16 454.23 54.16"/><path id="obram_skosne" class="cls-13" d="M536.89,128.02c-2.97,0-5.28-2.42-5.28-5.28v-30.38c0-2.97,2.42-5.28,5.28-5.28h7.6v-16.73l-16.07-16.18h-16.62v7.6c0,2.97-2.42,5.39-5.28,5.39h-30.38c-2.97,0-5.39-2.42-5.39-5.39v-7.6h-16.73l-16.07,16.07v16.73h7.6c2.97,0,5.39,2.42,5.39,5.28v30.49c0,2.97-2.42,5.28-5.39,5.28h-7.6v16.62l16.07,16.07h16.73v-7.6c0-2.97,2.42-5.28,5.39-5.28h30.38c2.97,0,5.28,2.42,5.28,5.28v7.6h16.73l16.07-16.07v-16.62h-7.71Z"/><path id="tlo_zew" class="cls-7" d="M536.67,129.89c-3.63,0-6.6-3.63-6.6-7.26v-30.16c0-3.63,2.97-7.26,6.6-7.26h6.16v-13.54l-15.52-15.52h-13.54v6.16c0,3.63-3.63,6.6-7.26,6.6h-30.16c-3.63,0-7.26-2.97-7.26-6.6v-6.16h-13.54l-15.52,15.52v13.54h6.16c3.63,0,6.6,3.63,6.6,7.26v30.16c0,3.63-2.97,7.26-6.6,7.26h-6.16v13.54l15.52,15.52h13.43v-6.16c0-3.63,3.63-6.6,7.26-6.6h30.16c3.63,0,7.26,2.97,7.26,6.6v6.16h13.54l15.52-15.52v-13.54h-6.05Z"/></g><g id="mln-2"><polygon id="obram_czarne-2" class="cls-11" points="451.7 217.73 434.08 235.23 434.08 316.47 451.7 334.08 532.93 334.08 550.43 316.47 550.43 235.23 532.93 217.73 451.7 217.73"/><polygon id="obram_zolte-2" class="cls-14" points="454.01 221.03 437.5 237.65 437.5 314.15 454.01 330.66 530.51 330.66 547.13 314.15 547.13 237.65 530.51 221.03 454.01 221.03"/><polygon id="tlo_wew-2" class="cls-20" points="455.11 222.57 438.93 238.75 438.93 313.05 455.11 329.23 529.41 329.23 545.59 313.05 545.59 238.75 529.41 222.57 455.11 222.57"/><path id="obram_skosne-2" class="cls-15" d="M537.99,296.43c-2.97,0-5.28-2.42-5.28-5.28v-30.38c0-2.97,2.42-5.28,5.28-5.28h7.6v-16.73l-16.18-16.18h-16.73v7.6c0,2.97-2.42,5.39-5.28,5.39h-30.38c-2.97,0-5.28-2.42-5.28-5.39v-7.6h-16.73l-16.07,16.07v16.73h7.6c2.97,0,5.28,2.42,5.28,5.28v30.49c0,2.97-2.42,5.28-5.28,5.28h-7.6v16.62l16.07,16.07h16.73v-7.6c0-2.97,2.42-5.28,5.28-5.28h30.38c2.97,0,5.28,2.42,5.28,5.28v7.6h16.73l16.07-16.07v-16.62c.11,0-7.48,0-7.48,0Z"/><path id="tlo_zew-2" class="cls-12" d="M537.55,298.3c-3.63,0-6.6-3.63-6.6-7.26v-30.16c0-3.63,2.97-7.26,6.6-7.26h6.16v-13.54l-15.52-15.52h-13.54v6.16c0,3.63-3.63,6.6-7.26,6.6h-30.27c-3.63,0-7.26-2.97-7.26-6.6v-6.16h-13.54l-15.52,15.52v13.54h6.16c3.63,0,6.6,3.63,6.6,7.26v30.16c0,3.63-2.97,7.26-6.6,7.26h-6.16v13.54l15.52,15.52h13.65v-6.16c0-3.63,3.63-6.6,7.26-6.6h30.16c3.63,0,7.26,2.97,7.26,6.6v6.16h13.54l15.52-15.52v-13.54h-6.16Z"/></g><g><path d="M321.59,98.41v-12.66h12.66v12.66h-12.66Zm0,34.34v-12.66h12.66v12.66h-12.66Z"/><path d="M390.83,130.66v-19.26h-19.26v-7.93h19.26v-19.26h7.93v19.26h19.26v7.93h-19.26v19.26h-7.93Z"/></g><path class="cls-18" d="M489.45,134.62v-45.57h-6.93l-.22-5.17,17.5-1.54v52.28h-10.35Z"/><g><path d="M322.58,266.82v-12.66h12.66v12.66h-12.66Zm0,34.34v-12.66h12.66v12.66h-12.66Z"/><path d="M391.82,299.07v-19.26h-19.26v-7.93h19.26v-19.26h7.93v19.26h19.26v7.93h-19.26v19.26h-7.93Z"/></g><path class="cls-18" d="M490.44,303.04v-45.57h-6.93l-.22-5.17,17.5-1.54v52.28h-10.35Z"/></svg>