<?xml version="1.0" encoding="UTF-8"?><svg id="Layer" xmlns="http://www.w3.org/2000/svg" xmlns:xlink="http://www.w3.org/1999/xlink" viewBox="0 0 721 379.91"><defs><style>.cls-1{fill:url(#linear-gradient-2);}.cls-2{fill:#0b572a;stroke:#1d4422;stroke-width:3.66px;}.cls-2,.cls-3,.cls-4{stroke-miterlimit:10;}.cls-5,.cls-6{fill:#030404;}.cls-7{fill:#1a291d;}.cls-8{fill:url(#linear-gradient-6);}.cls-9{fill:#48ad38;}.cls-3{fill:#010202;stroke:#030304;stroke-width:1.88px;}.cls-10{fill:#1f1f1e;}.cls-11{fill:url(#linear-gradient-11);}.cls-4{fill:#fff;opacity:0;stroke:#1d1d1b;}.cls-12{fill:url(#Nowy_wzorek_3);opacity:.1;}.cls-12,.cls-6,.cls-13{isolation:isolate;}.cls-14{fill:url(#linear-gradient-10);}.cls-15{fill:#155929;}.cls-16{fill:url(#radial-gradient);}.cls-6{opacity:.08;}.cls-17{fill:url(#linear-gradient-5);}.cls-18{fill:none;}.cls-19{fill:url(#linear-gradient-7);}.cls-13{opacity:.05;}.cls-13,.cls-20{fill:#030304;}.cls-21{fill:url(#linear-gradient-9);}.cls-22{fill:url(#linear-gradient-3);}.cls-23{fill:url(#linear-gradient);}.cls-24{fill:url(#linear-gradient-4);}.cls-25{fill:#010101;}.cls-26{fill:url(#linear-gradient-8);}</style><linearGradient id="linear-gradient" x1="-476.82" y1="-839.31" x2="-400.84" y2="-763.33" gradientTransform="translate(78.19 -794.17) rotate(-45) scale(1 -1)" gradientUnits="userSpaceOnUse"><stop offset="0" stop-color="#0f6936"/><stop offset=".04" stop-color="#0f6c37"/><stop offset=".08" stop-color="#077739"/><stop offset=".13" stop-color="#108837"/><stop offset=".15" stop-color="#0a9039"/><stop offset=".35" stop-color="#36993d"/><stop offset=".76" stop-color="#5fb048"/><stop offset="1" stop-color="#6fb74b"/></linearGradient><linearGradient id="linear-gradient-2" x1="-384.9" y1="-931.23" x2="-308.92" y2="-855.25" xlink:href="#linear-gradient"/><linearGradient id="linear-gradient-3" x1="-292.98" y1="-1023.15" x2="-216.99" y2="-947.18" xlink:href="#linear-gradient"/><linearGradient id="linear-gradient-4" x1="443.29" y1="613.49" x2="269.71" y2="439.91" gradientTransform="translate(0 -252.64)" gradientUnits="userSpaceOnUse"><stop offset="0" stop-color="#9e9d9c"/><stop offset=".54" stop-color="#010202"/><stop offset="1" stop-color="#9e9d9c"/></linearGradient><linearGradient id="linear-gradient-5" x1="356.57" y1="608.49" x2="356.57" y2="444.93" gradientTransform="translate(0 -252.64)" gradientUnits="userSpaceOnUse"><stop offset="0" stop-color="#462c1b"/><stop offset="1" stop-color="#b18048"/></linearGradient><linearGradient id="linear-gradient-6" x1="356.5" y1="604.35" x2="356.5" y2="448.92" gradientTransform="translate(0 -252.64)" gradientUnits="userSpaceOnUse"><stop offset="0" stop-color="#946137"/><stop offset="1" stop-color="#805127"/></linearGradient><pattern id="Nowy_wzorek_3" x="0" y="0" width="19.7" height="21.7" patternTransform="translate(43.9 16649.47)" patternUnits="userSpaceOnUse" viewBox="0 0 19.7 21.7"><g><rect class="cls-18" width="19.7" height="21.7"/><g><rect class="cls-18" width="19.7" height="21.7"/><g><rect class="cls-18" width="19.7" height="21.7"/><g><rect class="cls-18" width="19.7" height="21.7"/><g><rect class="cls-18" width="19.7" height="21.7"/><path class="cls-10" d="M16.6,8.7c2.1,2.1,2.1,5.6,0,7.7l-1.2,1.2c-2.1,2.1-5.6,2.1-7.8,0L3.1,13c-2.1-2.1-2.1-5.6,0-7.7l1.2-1.2c2.1-2.1,5.6-2.1,7.7,0l4.6,4.6Z"/></g></g></g></g></g></pattern><linearGradient id="linear-gradient-7" x1="357.54" y1="581.62" x2="357.54" y2="473.68" gradientTransform="translate(0 -253.65)" gradientUnits="userSpaceOnUse"><stop offset=".16" stop-color="#823a13"/><stop offset=".18" stop-color="#985c1a"/><stop offset=".22" stop-color="#ae7d22"/><stop offset=".26" stop-color="#c39d26"/><stop offset=".3" stop-color="#d6b92e"/><stop offset=".35" stop-color="#e4cf36"/><stop offset=".41" stop-color="#efe036"/><stop offset=".48" stop-color="#f6e947"/><stop offset=".58" stop-color="#f8ea4e"/><stop offset=".86" stop-color="#f6ea4d"/><stop offset="1" stop-color="#fcf4f9"/></linearGradient><linearGradient id="linear-gradient-8" x1="357.54" y1="467.93" x2="357.54" y2="632.93" gradientTransform="translate(0 -253.65)" gradientUnits="userSpaceOnUse"><stop offset=".26" stop-color="#f6ea4d"/><stop offset=".86" stop-color="#803813"/></linearGradient><linearGradient id="linear-gradient-9" x1="357.6" y1="580.13" x2="357.6" y2="475.26" gradientTransform="translate(0 -253.65)" gradientUnits="userSpaceOnUse"><stop offset=".16" stop-color="#803813"/><stop offset=".17" stop-color="#8c471e"/><stop offset=".18" stop-color="#a26b3c"/><stop offset=".2" stop-color="#b78954"/><stop offset=".22" stop-color="#c7a468"/><stop offset=".24" stop-color="#d7bb7a"/><stop offset=".26" stop-color="#e2cc88"/><stop offset=".3" stop-color="#ead891"/><stop offset=".34" stop-color="#eede97"/><stop offset=".46" stop-color="#efe097"/><stop offset=".7" stop-color="#803813"/><stop offset=".73" stop-color="#e6d234"/><stop offset=".74" stop-color="#ebd948"/><stop offset=".75" stop-color="#eede6d"/><stop offset=".77" stop-color="#f0e28a"/><stop offset=".79" stop-color="#f8ebaa"/><stop offset=".8" stop-color="#f8edbf"/><stop offset=".83" stop-color="#faf0cf"/><stop offset=".85" stop-color="#fcf2da"/><stop offset=".89" stop-color="#fdf4e1"/><stop offset=".99" stop-color="#fdf5e3"/></linearGradient><linearGradient id="linear-gradient-10" x1="357.53" y1="490.65" x2="357.53" y2="652.51" gradientTransform="translate(0 -253.65)" gradientUnits="userSpaceOnUse"><stop offset=".26" stop-color="#f6ea4d"/><stop offset=".77" stop-color="#803813"/></linearGradient><linearGradient id="linear-gradient-11" x1="-792.27" y1="1215.12" x2="-716.61" y2="1139.47" gradientTransform="translate(-172.54 -1281.43) rotate(-45)" gradientUnits="userSpaceOnUse"><stop offset="0" stop-color="#1f4d23"/><stop offset=".43" stop-color="#4c7030"/><stop offset="1" stop-color="#97ab45"/></linearGradient><radialGradient id="radial-gradient" cx="126.47" cy="336.5" fx="126.47" fy="336.5" r="48.3" gradientTransform="translate(0 -251.99)" gradientUnits="userSpaceOnUse"><stop offset=".25" stop-color="#97ab45"/><stop offset="1" stop-color="#3c7b31"/></radialGradient></defs><rect class="cls-4" x=".5" y=".5" width="720" height="378.91"/><g id="plant"><rect class="cls-20" x="277.48" y="25.73" width="114.03" height="114.03"/><rect class="cls-23" x="280.78" y="29.02" width="107.45" height="107.45"/><rect class="cls-9" x="285.99" y="34.23" width="97.02" height="97.02"/><path id="leaf" class="cls-2" d="M334.45,58.19c-13.9,1.92-24.51,10.97-24.51,24.51,0,3.29,.64,6.49,1.83,9.42-2.56,1.74-6.31,4.02-8.14,4.66-3.2,1.1-9.6,.37-9.88,.91s1.83,6.31,2.56,6.58,6.58,.27,9.88-.91c2.38-.82,6.68-3.57,9.14-5.4,4.48,5.67,11.43,9.24,19.2,9.24,13.53,0,24.32-8.5,24.32-22.04,0-5.21,1.28-11.8,3.2-15.91,2.1-4.57,12.98-7.5,12.98-7.5-1.1-3.57-35.11-4.3-40.6-3.57h.02Z"/><path id="darker-2" class="cls-13" d="M388.22,136.46h-107.45v-58.89s33.83,5.21,53.68,5.21,53.77-5.21,53.77-5.21v58.89Z"/></g><g id="plant-2"><rect class="cls-20" x="407.48" y="25.73" width="114.03" height="114.03"/><rect class="cls-1" x="410.78" y="29.02" width="107.45" height="107.45"/><rect class="cls-9" x="415.99" y="34.23" width="97.02" height="97.02"/><path id="leaf-2" class="cls-2" d="M464.45,58.19c-13.9,1.92-24.51,10.97-24.51,24.51,0,3.29,.64,6.49,1.83,9.42-2.56,1.74-6.31,4.02-8.14,4.66-3.2,1.1-9.6,.37-9.88,.91s1.83,6.31,2.56,6.58,6.58,.27,9.88-.91c2.38-.82,6.68-3.57,9.14-5.4,4.48,5.67,11.43,9.24,19.2,9.24,13.53,0,24.32-8.5,24.32-22.04,0-5.21,1.28-11.8,3.2-15.91,2.1-4.57,12.98-7.5,12.98-7.5-1.1-3.57-35.11-4.3-40.6-3.57h.02Z"/><path id="darker-3" class="cls-13" d="M518.22,136.46h-107.45v-58.89s33.83,5.21,53.68,5.21,53.77-5.21,53.77-5.21v58.89Z"/></g><g id="plant-3"><rect class="cls-20" x="537.48" y="25.73" width="114.03" height="114.03"/><rect class="cls-22" x="540.78" y="29.02" width="107.45" height="107.45"/><rect class="cls-9" x="545.99" y="34.23" width="97.02" height="97.02"/><path id="leaf-3" class="cls-2" d="M594.45,58.19c-13.9,1.92-24.51,10.97-24.51,24.51,0,3.29,.64,6.49,1.83,9.42-2.56,1.74-6.31,4.02-8.14,4.66-3.2,1.1-9.6,.37-9.88,.91s1.83,6.31,2.56,6.58,6.58,.27,9.88-.91c2.38-.82,6.68-3.57,9.14-5.4,4.48,5.67,11.43,9.24,19.2,9.24,13.53,0,24.32-8.5,24.32-22.04,0-5.21,1.28-11.8,3.2-15.91,2.1-4.57,12.98-7.5,12.98-7.5-1.1-3.57-35.11-4.3-40.6-3.57h.02Z"/><path id="darker-4" class="cls-13" d="M648.22,136.46h-107.45v-58.89s33.83,5.21,53.68,5.21,53.77-5.21,53.77-5.21v58.89Z"/></g><g id="prodBg"><rect id="external-border" class="cls-24" x="269.25" y="187.73" width="174.49" height="172.66"/><rect id="internal-border" class="cls-17" x="273.81" y="192.29" width="165.52" height="163.56"/><rect id="bg" class="cls-8" x="277.8" y="196.28" width="157.39" height="155.43"/><rect id="bgPattern" class="cls-12" x="277.8" y="196.28" width="157.39" height="155.43"/></g><g id="mln"><polygon id="obram_czarne" class="cls-3" points="317.59 216.73 300.24 234.08 300.24 313.92 317.59 331.27 397.5 331.27 414.75 313.92 414.75 234.08 397.5 216.73 317.59 216.73"/><polygon id="obram_zolte" class="cls-19" points="319.84 220.03 303.61 236.34 303.61 311.66 319.84 327.97 395.17 327.97 411.48 311.66 411.48 236.34 395.17 220.03 319.84 220.03"/><polygon id="tlo_wew" class="cls-26" points="320.96 221.61 305.12 237.48 305.12 310.55 320.96 326.39 394.13 326.39 409.96 310.55 409.96 237.48 394.13 221.61 320.96 221.61"/><path id="obram_skosne" class="cls-21" d="M402.38,294.21c-2.9,0-5.25-2.35-5.25-5.25v-29.92c0-2.9,2.35-5.25,5.25-5.25h7.51v-16.31l-15.76-15.86h-16.41v7.51c0,2.9-2.35,5.25-5.25,5.25h-29.92c-2.9,0-5.25-2.35-5.25-5.25v-7.51h-16.31l-15.86,15.86v16.41h7.51c2.9,0,5.25,2.35,5.25,5.25v29.92c0,2.9-2.35,5.25-5.25,5.25h-7.51v16.31l15.86,15.86h16.41v-7.51c0-2.9,2.35-5.25,5.25-5.25h29.92c2.9,0,5.25,2.35,5.25,5.25v7.51h16.41l15.86-15.86v-16.41h-7.71Z"/><path id="tlo_zew" class="cls-14" d="M402.11,296c-3.57,0-6.47-3.57-6.47-7.14v-29.74c0-3.57,2.9-7.14,6.47-7.14h6.1v-13.31l-15.39-15.29h-13.24v6.1c0,3.57-3.57,6.47-7.14,6.47h-29.74c-3.57,0-7.14-2.9-7.14-6.47v-6.1h-13.41l-15.29,15.29v13.31h6.1c3.57,0,6.47,3.57,6.47,7.14v29.74c0,3.57-2.9,7.14-6.47,7.14h-6.1v13.31l15.29,15.29h13.31v-6.1c0-3.57,3.57-6.47,7.14-6.47h29.64c3.57,0,7.14,2.9,7.14,6.47v6.1h13.31l15.29-15.29v-13.31h-5.87Z"/></g><path class="cls-25" d="M341.88,297.41v-7.63c2.92-3.92,5.75-7.09,8.48-9.47l3.94-3.49c2.83-2.5,5.16-4.98,7.01-7.44s2.78-5.01,2.78-7.68c0-2.43-.77-4.29-2.33-5.6s-3.67-1.98-6.32-1.98c-3.52,0-7.63,1.19-12.32,3.59v-7.09c4.91-1.83,9.67-2.75,14.25-2.75,5.08,0,9.17,1.21,12.29,3.64s4.68,5.68,4.68,9.77c0,2.58-.67,5.01-1.98,7.26-1.31,2.28-4.06,5.08-8.2,8.45l-3.27,2.6c-1.44,1.16-3,2.63-4.71,4.44s-2.83,3.72-3.37,5.75h21.34v7.63h-32.27Z"/><g id="animal"><rect class="cls-5" x="69.69" y="27.73" width="113.54" height="113.54"/><rect class="cls-11" x="72.97" y="31.01" width="106.99" height="106.99"/><rect class="cls-16" x="78.16" y="36.21" width="96.61" height="96.61"/><path id="darker" class="cls-6" d="M179.95,138H72.96v-58.64s33.69,5.19,53.45,5.19,53.53-5.19,53.53-5.19v58.64h.01Z"/><path class="cls-15" d="M115.13,57.33c-.27,0-2.91,.36-4.47,2.55-.64,.82-.91,1.73-1.1,2.73-.36,2.01-1.1,5.64,.36,10.11,.72,2.1,1.55,4.64,3.92,6.38,.72,.55,2.18,1.55,4.09,1.36,2.1-.19,3.37-1.73,3.82-2.27,1.82-2.1,1.82-4.55,1.91-7.19,0-1.27,0-5.19-2.01-9.28-1.36-2.73-2.55-3.46-3.09-3.73-1.46-.91-3.01-.72-3.46-.64h.02Z"/><path class="cls-15" d="M140.26,55.78c-.27-.09-2.82-.64-5,.82-.82,.55-1.46,1.27-2.01,2.18-1.1,1.73-3.01,4.83-3.18,9.56-.09,2.27-.19,4.92,1.46,7.37,.55,.72,1.55,2.18,3.37,2.65,2.01,.55,3.82-.45,4.37-.82,2.37-1.36,3.37-3.64,4.37-6.1,.45-1.19,1.82-4.83,1.36-9.38-.27-3.01-1.19-4.09-1.63-4.55-1.19-1.19-2.65-1.55-3.09-1.73h0Z"/><path class="cls-15" d="M98.1,71.89c-.27,.09-2.82,.64-4.19,2.91-.55,.91-.72,1.73-.82,2.82-.19,2.01-.55,5.64,1.27,10.02,.91,2.01,1.91,4.47,4.55,6.01,.82,.45,2.37,1.27,4.19,.91,2.1-.36,3.18-2.01,3.64-2.65,1.55-2.27,1.46-4.73,1.27-7.37-.09-1.27-.45-5.1-2.91-9.01-1.55-2.55-2.82-3.18-3.46-3.46-1.63-.55-3.01-.27-3.56-.19h0Z"/><path class="cls-15" d="M155.47,69.71c-.27-.09-2.82-.64-5,.91-.82,.64-1.36,1.36-1.91,2.27-1,1.82-2.91,4.92-2.91,9.65,0,2.27-.09,4.92,1.63,7.29,.55,.72,1.63,2.18,3.46,2.55,2.01,.45,3.73-.55,4.37-.91,2.37-1.36,3.28-3.73,4.19-6.19,.45-1.19,1.73-4.83,1.1-9.38-.36-3.01-1.27-4.09-1.73-4.55-1.27-1.19-2.73-1.55-3.18-1.63h-.01Z"/><path class="cls-7" d="M154.83,72.63c-.19,0-2.1-.45-3.73,.72-.64,.45-1,1-1.46,1.63-.72,1.36-2.1,3.64-2.18,7.19,0,1.63-.09,3.64,1.27,5.47,.36,.55,1.19,1.63,2.55,1.91,1.55,.36,2.82-.45,3.28-.64,1.73-1.1,2.37-2.73,3.09-4.64,.36-.91,1.27-3.64,.82-7.01-.27-2.18-1-3.01-1.27-3.37-.91-1-2.01-1.27-2.37-1.27h0Z"/><path class="cls-7" d="M139.53,58.79c-.19-.09-2.1-.45-3.73,.55-.64,.45-1,.91-1.46,1.63-.82,1.27-2.18,3.56-2.37,7.1-.09,1.63-.19,3.64,1.1,5.47,.36,.55,1.1,1.63,2.46,2.01,1.55,.36,2.82-.36,3.28-.55,1.73-1,2.46-2.65,3.18-4.47,.36-.91,1.36-3.56,1-6.93-.27-2.18-.91-3.01-1.19-3.37-.91-1.1-1.91-1.36-2.27-1.46h0Z"/><path class="cls-7" d="M115.49,60.34c-.19,0-2.1,.27-3.28,1.82-.45,.64-.64,1.27-.82,2.01-.27,1.46-.82,4.09,.27,7.46,.55,1.55,1.1,3.46,2.91,4.73,.55,.36,1.63,1.1,3.01,1,1.55-.19,2.46-1.27,2.82-1.63,1.27-1.55,1.36-3.37,1.46-5.28,0-.91,0-3.82-1.55-6.83-1-2.01-1.91-2.55-2.27-2.73-1.1-.72-2.18-.64-2.55-.55Z"/><path class="cls-7" d="M98.74,74.54c-.19,0-2.18,.45-3.18,2.27-.45,.72-.55,1.36-.64,2.18-.19,1.55-.45,4.37,1,7.65,.64,1.55,1.46,3.46,3.46,4.55,.64,.36,1.82,1,3.18,.72,1.55-.27,2.46-1.55,2.73-2.01,1.19-1.73,1.1-3.64,1-5.64-.09-1-.36-3.92-2.18-6.93-1.19-2.01-2.18-2.46-2.65-2.65-1.27-.45-2.46-.19-2.73-.19v.02Z"/><path class="cls-15" d="M127.24,79.37c-1.27,.09-2.65,.09-4.19,.91-1.73,.91-2.73,2.27-3.64,3.46-.82,1.1-.72,1.19-1.91,3.09-1.1,1.63-1.63,2.65-2.65,3.73-1.19,1.36-2.37,2.18-4.47,3.82-2.27,1.73-2.46,1.63-3.09,2.37-1.55,1.82-1.91,3.82-2.18,5.19-.19,1.27-.64,3.64,.36,6.38,.45,1.19,1.27,3.46,3.37,4.47,.82,.36,1.63,.45,3.64,.36,3.37-.19,5.64-.82,7.65-1.27,2.37-.55,4.83-1.1,7.92-1.19,3.73-.09,7.01,.55,8.73,.82,2.01,.36,3.46,.82,6.28,1.1,2.37,.27,3.56,.19,4.92-.27,.82-.27,2.27-.72,3.37-2.01,1.19-1.46,1.27-3.01,1.27-4.64,.09-1.1,.09-3.73-1.46-6.83-.64-1.36-1.19-2.01-3.28-4.55-5.64-7.01-5.91-7.84-8.2-9.75-1.36-1.19-2.73-2.37-4.83-3.37-1.1-.64-3.92-2.01-7.65-1.82h.04Z"/><path class="cls-7" d="M127.52,81.73c-1.1,.09-2.27,.09-3.64,.82-1.46,.82-2.37,2.01-3.09,3.01-.72,.91-.64,1-1.63,2.73-.91,1.46-1.46,2.27-2.27,3.18-1,1.19-2.01,1.91-3.82,3.28-2.01,1.55-2.1,1.36-2.73,2.1-1.36,1.55-2.55,3.92-2.82,5-.19,1.1-.55,3.09,.27,5.47,.36,1.1,1.1,3.01,2.91,3.82,.72,.36,2.37-.09,4.01-.27,2.91-.19,4.92-.72,6.65-1.1,2.01-.45,4.19-.91,6.83-1,3.18-.09,6.01,.45,7.56,.72,1.73,.36,3.01,.72,5.38,.91,2.01,.19,4.47,1,5.55,.64,.72-.19,1.91-.72,2.91-1.91s.72-3.73,.82-5.19c.09-.91-.72-2.91-2.27-5.55-.72-1.27-1.1-1.73-2.82-3.92-4.83-6.01-5.1-6.74-7.01-8.37-1.19-1-2.37-2.01-4.19-2.91-.91-.45-3.37-1.63-6.55-1.46h-.02Z"/></g><path class="cls-25" d="M202.42,51.52l-10.97-1.37,2.52-7.75,9.66,5.35c-.84,.91-1.25,1.91-1.25,3.01,0,.17,0,.44,.04,.76h0Zm3.43,3.02l-4.7,10.02-6.55-4.79,8.06-7.59c.7,1.29,1.77,2.07,3.21,2.35h-.01Zm-3.72-18.04h8.14l-2.07,10.86c-.67-.32-1.35-.49-2-.49s-1.31,.16-1.96,.49l-2.11-10.86h0Zm7.67,15.7l8.06,7.59-6.6,4.79-4.67-10.02c1.41-.27,2.47-1.06,3.21-2.35h0Zm-1.02-4.44l9.7-5.35,2.48,7.75-10.97,1.37c.05-.32,.07-.59,.07-.76,0-1.09-.42-2.1-1.29-3.01Z"/></svg>