<?xml version="1.0" encoding="UTF-8"?><svg id="Layer" xmlns="http://www.w3.org/2000/svg" xmlns:xlink="http://www.w3.org/1999/xlink" viewBox="0 0 721 379.91"><defs><style>.cls-1{fill:url(#linear-gradient-2);}.cls-2{fill:#342218;}.cls-3{fill:#977355;}.cls-4{fill:#020303;stroke:#030404;stroke-width:1.9px;}.cls-4,.cls-5,.cls-6,.cls-7{stroke-miterlimit:10;}.cls-8,.cls-9{fill:#030404;}.cls-10{fill:#cf1820;}.cls-11{fill:#e62f2e;}.cls-12{fill:#20201e;}.cls-13{fill:url(#linear-gradient-6);}.cls-14{fill:#946137;}.cls-15{fill:url(#Nowy_wzorek_5);opacity:.1;}.cls-15,.cls-9,.cls-16,.cls-17{isolation:isolate;}.cls-9,.cls-17{opacity:.15;}.cls-18{fill:#97c9ee;}.cls-5{fill:#fff;opacity:0;stroke:#1d1d1b;}.cls-19{fill:url(#linear-gradient-5);}.cls-20{fill:#d3d3d3;}.cls-21{fill:#1d1d1d;}.cls-22,.cls-7{fill:none;}.cls-23{fill:url(#linear-gradient-7);}.cls-24{fill:#b88d6d;}.cls-6{fill:url(#linear-gradient-10);stroke:#010101;stroke-width:1.17px;}.cls-7{stroke:#030304;stroke-width:2.08px;}.cls-16{fill:#e03f19;opacity:.5;}.cls-25{fill:url(#linear-gradient-9);}.cls-26{fill:url(#linear-gradient-3);}.cls-27{fill:url(#linear-gradient);}.cls-28{fill:#010202;}.cls-29{fill:#9c9b9b;}.cls-30{fill:url(#linear-gradient-4);}.cls-31,.cls-17{fill:#010101;}.cls-32{fill:url(#linear-gradient-8);}</style><linearGradient id="linear-gradient" x1="617.36" y1="162.94" x2="439.15" y2="341.16" gradientTransform="translate(0 347) scale(1 -1)" gradientUnits="userSpaceOnUse"><stop offset="0" stop-color="#9f9d9c"/><stop offset=".54" stop-color="#020303"/><stop offset="1" stop-color="#9f9d9c"/></linearGradient><linearGradient id="linear-gradient-2" x1="528.33" y1="168.82" x2="528.33" y2="335.29" gradientTransform="translate(0 347) scale(1 -1)" gradientUnits="userSpaceOnUse"><stop offset="0" stop-color="#472d1c"/><stop offset="1" stop-color="#b18047"/></linearGradient><linearGradient id="linear-gradient-3" x1="528.25" y1="173.01" x2="528.25" y2="331.23" gradientTransform="translate(0 347) scale(1 -1)" gradientUnits="userSpaceOnUse"><stop offset="0" stop-color="#946137"/><stop offset="1" stop-color="#815228"/></linearGradient><pattern id="Nowy_wzorek_5" x="0" y="0" width="19.7" height="21.7" patternTransform="translate(-469.5 -32038.37) scale(1 -1)" patternUnits="userSpaceOnUse" viewBox="0 0 19.7 21.7"><g><rect class="cls-22" width="19.7" height="21.7"/><g><rect class="cls-22" width="19.7" height="21.7"/><g><rect class="cls-22" width="19.7" height="21.7"/><g><rect class="cls-22" width="19.7" height="21.7"/><g><rect class="cls-22" width="19.7" height="21.7"/><g><rect class="cls-22" width="19.7" height="21.7"/><path class="cls-12" d="M16.6,13c2.1-2.1,2.1-5.6,0-7.7l-1.2-1.2c-2.1-2.1-5.6-2.1-7.8,0L3.1,8.7c-2.1,2.1-2.1,5.6,0,7.7l1.2,1.2c2.1,2.1,5.6,2.1,7.7,0l4.6-4.6Z"/></g></g></g></g></g></g></pattern><linearGradient id="linear-gradient-4" x1="-499.22" y1="1709.54" x2="-421.79" y2="1632.11" gradientTransform="translate(-327.51 -1411.77) rotate(-45)" gradientUnits="userSpaceOnUse"><stop offset="0" stop-color="#472d1c"/><stop offset=".05" stop-color="#58361a"/><stop offset=".1" stop-color="#684016"/><stop offset=".32" stop-color="#784a20"/><stop offset=".75" stop-color="#8e5c33"/><stop offset="1" stop-color="#946137"/></linearGradient><linearGradient id="linear-gradient-5" x1="324.51" y1="244.02" x2="324.51" y2="291.96" gradientTransform="translate(0 363) scale(1 -1)" gradientUnits="userSpaceOnUse"><stop offset="0" stop-color="#522b16"/><stop offset=".45" stop-color="#522b16" stop-opacity=".7"/><stop offset=".58" stop-color="#e03f19" stop-opacity=".5"/><stop offset="1" stop-color="#e03f19" stop-opacity=".5"/></linearGradient><linearGradient id="linear-gradient-6" x1="160.57" y1="196.01" x2="160.57" y2="305.58" gradientTransform="translate(0 345.99) scale(1 -1)" gradientUnits="userSpaceOnUse"><stop offset=".16" stop-color="#823b14"/><stop offset=".18" stop-color="#995d1a"/><stop offset=".22" stop-color="#ae7d22"/><stop offset=".26" stop-color="#c39d25"/><stop offset=".3" stop-color="#d6b92e"/><stop offset=".35" stop-color="#e4cf36"/><stop offset=".41" stop-color="#efe036"/><stop offset=".48" stop-color="#f5e94d"/><stop offset=".58" stop-color="#f8eb53"/><stop offset=".86" stop-color="#f5ea52"/><stop offset="1" stop-color="#fcf4f9"/></linearGradient><linearGradient id="linear-gradient-7" x1="160.57" y1="311.41" x2="160.57" y2="143.94" gradientTransform="translate(0 345.99) scale(1 -1)" gradientUnits="userSpaceOnUse"><stop offset=".26" stop-color="#f5ea52"/><stop offset=".86" stop-color="#813a14"/></linearGradient><linearGradient id="linear-gradient-8" x1="160.61" y1="197.55" x2="160.61" y2="303.96" gradientTransform="translate(0 345.99) scale(1 -1)" gradientUnits="userSpaceOnUse"><stop offset=".16" stop-color="#813a14"/><stop offset=".17" stop-color="#8d481f"/><stop offset=".18" stop-color="#a36c3d"/><stop offset=".2" stop-color="#b78954"/><stop offset=".22" stop-color="#c7a468"/><stop offset=".24" stop-color="#d7bb7a"/><stop offset=".26" stop-color="#e2cc88"/><stop offset=".3" stop-color="#ead891"/><stop offset=".34" stop-color="#eede97"/><stop offset=".46" stop-color="#efe097"/><stop offset=".7" stop-color="#813a14"/><stop offset=".73" stop-color="#e6d234"/><stop offset=".74" stop-color="#ebda49"/><stop offset=".75" stop-color="#eede6d"/><stop offset=".77" stop-color="#f0e18a"/><stop offset=".79" stop-color="#f8ebab"/><stop offset=".8" stop-color="#f8edbf"/><stop offset=".83" stop-color="#faf0cf"/><stop offset=".85" stop-color="#fcf2da"/><stop offset=".89" stop-color="#fdf4e1"/><stop offset=".99" stop-color="#fdf5e3"/></linearGradient><linearGradient id="linear-gradient-9" x1="160.56" y1="288.35" x2="160.56" y2="124.09" gradientTransform="translate(0 345.99) scale(1 -1)" gradientUnits="userSpaceOnUse"><stop offset=".26" stop-color="#f5ea52"/><stop offset=".77" stop-color="#813a14"/></linearGradient><linearGradient id="linear-gradient-10" x1="359.46" y1="-4.46" x2="359.46" y2="169.86" gradientTransform="translate(0 363.09) scale(1 -1)" gradientUnits="userSpaceOnUse"><stop offset="0" stop-color="#241d1c"/><stop offset="1" stop-color="#d4b39c"/></linearGradient></defs><rect class="cls-5" x=".5" y=".5" width="720" height="378.91"/><g><g id="prodBg"><rect id="external-border" class="cls-27" x="437.91" y="7.08" width="180.68" height="175.75"/><rect id="internal-border" class="cls-1" x="442.56" y="11.71" width="171.54" height="166.47"/><rect id="bg" class="cls-26" x="446.6" y="15.77" width="163.29" height="158.22"/><rect id="bgPattern" class="cls-15" x="446.6" y="15.77" width="163.29" height="158.22"/></g><g id="steel"><rect class="cls-8" x="470.21" y="37.21" width="116.22" height="116.22"/><rect class="cls-30" x="473.57" y="40.56" width="109.5" height="109.5"/><rect class="cls-14" x="478.89" y="45.87" width="98.89" height="98.89"/><g><path class="cls-2" d="M538.63,127.98l2.43-45.95-5.58-.65-.84-1.96h-4.29l-.74,2.05-6.53-.27v-11.94h7.54l.57,2.33,3.54,.47,.84-2.7h7.73l1.49,1.31,1.31-1.31h9.6l1.12,1.87,1.68-1.87,7.27,5.96-.47,4.1s-4.02-3.72-5.96-3.72-4.76-.09-4.76-.09l-4.02,6.42-2.43,.19,2.23,45.76h-11.73Z"/><polygon class="cls-2" points="516.91 67.3 509.08 63.03 508.98 73.65 501.91 73.65 501.91 63.03 492.96 67.12 492.96 80.17 501.25 84.17 498.37 127.98 511.69 127.98 509.08 84.17 516.91 80.64 516.91 67.3"/></g><path id="darker" class="cls-9" d="M583.08,150.07h-109.5v-60.02s34.49,5.31,54.71,5.31,54.8-5.31,54.8-5.31v60.01h-.01Z"/></g><g id="arrow"><path class="cls-16" d="M391.32,95.01l-63.74-29.45,7.71,15.31h-71.83s-2.17,6.9-2.17,13.54,2.17,12.06,2.17,12.06h73.18l-9.07,18.02,63.74-29.45h0v-.02Z"/><path class="cls-19" d="M340.88,103.85h-75.54c-.58-1.96-1.43-5.49-1.43-9.46,0-4.19,.94-8.55,1.54-10.94h74.07l-6.25-12.42,51.85,23.97-51.85,23.97,7.61-15.12h0Z"/><path class="cls-10" d="M346.46,100.42h-78.45c-.35-1.66-.66-3.78-.66-6.01,0-2.63,.42-5.35,.84-7.51h76.92l-4.32-8.61,36.18,16.72-36.18,16.72,5.7-11.31h-.02Z"/><path class="cls-7" d="M340.88,103.85h-75.54c-.58-1.96-1.43-5.49-1.43-9.46,0-4.19,.94-8.55,1.54-10.94h74.07l-6.25-12.42,51.85,23.97-51.85,23.97,7.61-15.12h0Z"/></g><g id="mln"><polygon id="obram_czarne" class="cls-4" points="120.02 37.08 102.41 54.69 102.41 135.7 120.02 153.31 201.11 153.31 218.63 135.7 218.63 54.69 201.11 37.08 120.02 37.08"/><polygon id="obram_zolte" class="cls-13" points="122.3 40.41 105.83 56.98 105.83 133.41 122.3 149.98 198.74 149.98 215.3 133.41 215.3 56.98 198.74 40.41 122.3 40.41"/><polygon id="tlo_wew" class="cls-23" points="123.44 42.03 107.36 58.11 107.36 132.26 123.44 148.36 197.69 148.36 213.78 132.26 213.78 58.11 197.69 42.03 123.44 42.03"/><path id="obram_skosne" class="cls-32" d="M206.07,115.71c-2.95,0-5.34-2.38-5.34-5.34v-30.36c0-2.95,2.38-5.34,5.34-5.34h7.61v-16.56l-16-16.08h-16.66v7.61c0,2.95-2.38,5.34-5.34,5.34h-30.36c-2.95,0-5.34-2.38-5.34-5.34v-7.61h-16.56l-16.08,16.08v16.66h7.61c2.95,0,5.34,2.38,5.34,5.34v30.36c0,2.95-2.38,5.34-5.34,5.34h-7.61v16.56l16.08,16.08h16.66v-7.61c0-2.95,2.38-5.34,5.34-5.34h30.36c2.95,0,5.34,2.38,5.34,5.34v7.61h16.66l16.08-16.08v-16.66h-7.8Z"/><path id="tlo_zew" class="cls-25" d="M205.78,117.52c-3.62,0-6.57-3.62-6.57-7.24v-30.18c0-3.62,2.95-7.24,6.57-7.24h6.19v-13.51l-15.61-15.51h-13.43v6.19c0,3.62-3.62,6.57-7.24,6.57h-30.18c-3.62,0-7.24-2.95-7.24-6.57v-6.19h-13.61l-15.51,15.51v13.51h6.19c3.62,0,6.57,3.62,6.57,7.24v30.18c0,3.62-2.95,7.24-6.57,7.24h-6.19v13.51l15.51,15.51h13.51v-6.19c0-3.62,3.62-6.57,7.24-6.57h30.08c3.62,0,7.24,2.95,7.24,6.57v6.19h13.51l15.51-15.51v-13.51h-5.98Z"/></g><path class="cls-28" d="M145.56,122.13c.31-2.51,.74-4.63,1.32-6.39,.58-1.75,1.54-3.85,2.85-6.29s4.12-6.78,8.4-13.03l12.2-17.77h-27v-8.42h35.48v8.42c-4.98,6.26-8.95,11.97-11.9,17.09-2.95,5.13-5.34,9.9-7.15,14.31s-2.72,8.43-2.72,12.08h-11.49Z"/></g><g id="industrialCenter"><polygon class="cls-31" points="442.79 328.65 442.79 232.28 359.38 184.16 275.81 232.28 275.81 328.65 359.38 376.92 442.79 328.65"/><polygon class="cls-3" points="440.14 327.09 440.14 233.68 359.38 186.98 278.47 233.68 278.47 327.09 359.38 373.8 440.14 327.09"/><polygon class="cls-6" points="434.98 324.12 434.98 236.81 359.38 193.22 283.94 236.81 283.94 324.12 359.38 367.55 434.98 324.12"/><polygon class="cls-24" points="429.52 321 429.52 239.93 359.38 199.63 289.4 239.93 289.4 321 359.38 361.14 429.52 321"/><path class="cls-17" d="M442.33,325.84v-60.14h0q-82.94,12.34-166.05,0h0v60.14l82.94,47.95,83.1-47.95Z"/><g><rect class="cls-20" x="331.42" y="242.27" width="7.81" height="46.71"/><rect class="cls-20" x="347.98" y="241.8" width="7.81" height="46.71"/><path class="cls-20" d="M387.81,266.64h-19.68c-2.5,0-4.69,2.03-4.69,4.69v39.68h29.05v-39.68c0-2.5-2.03-4.69-4.69-4.69Z"/><polygon class="cls-29" points="343.76 279.92 323.92 290.23 323.92 311 343.76 311 343.76 279.92"/><polygon class="cls-29" points="363.44 279.92 343.76 290.23 343.76 311 363.44 311 363.44 279.92"/><rect class="cls-21" x="329.08" y="303.19" width="12.81" height="7.81"/><rect class="cls-21" x="346.57" y="303.19" width="12.81" height="7.81"/><rect class="cls-21" x="370.47" y="301.32" width="15.46" height="9.68"/><rect class="cls-18" x="367.97" y="270.86" width="4.84" height="4.84"/><rect class="cls-18" x="375.78" y="270.86" width="4.84" height="4.84"/><rect class="cls-18" x="383.44" y="270.86" width="4.84" height="4.84"/><rect class="cls-18" x="368.13" y="278.82" width="4.84" height="4.84"/><rect class="cls-18" x="375.78" y="278.82" width="4.84" height="4.84"/><rect class="cls-18" x="383.59" y="278.82" width="4.84" height="4.84"/><rect class="cls-18" x="367.97" y="286.48" width="4.84" height="4.84"/><rect class="cls-18" x="375.78" y="286.48" width="4.84" height="4.84"/><rect class="cls-18" x="383.59" y="286.48" width="4.84" height="4.84"/><rect class="cls-11" x="347.98" y="241.8" width="7.81" height="7.81"/><rect class="cls-11" x="347.98" y="257.42" width="7.81" height="7.81"/><rect class="cls-11" x="347.98" y="271.48" width="7.81" height="7.81"/><rect class="cls-11" x="331.42" y="241.8" width="7.81" height="7.81"/><rect class="cls-11" x="331.42" y="257.42" width="7.81" height="7.81"/><rect class="cls-11" x="331.42" y="271.48" width="7.81" height="7.81"/></g></g><path d="M459.86,217.49l-10.23-1.28,2.36-7.23,9.01,4.99c-.78,.85-1.17,1.79-1.17,2.8,0,.17,.01,.4,.04,.71Zm3.2,2.81l-4.39,9.35-6.12-4.47,7.52-7.07c.66,1.2,1.65,1.93,2.99,2.19Zm-3.47-16.84h7.59l-1.93,10.13c-.63-.31-1.25-.46-1.86-.46s-1.22,.15-1.83,.46l-1.97-10.13Zm7.16,14.65l7.52,7.07-6.15,4.47-4.36-9.35c1.31-.26,2.31-.99,2.99-2.19Zm-.95-4.13l9.04-4.99,2.32,7.23-10.23,1.28c.05-.31,.07-.54,.07-.71,0-1.02-.4-1.95-1.2-2.8Z"/></svg>