<?xml version="1.0" encoding="UTF-8"?><svg id="Layer" xmlns="http://www.w3.org/2000/svg" xmlns:xlink="http://www.w3.org/1999/xlink" viewBox="0 0 721 379.91"><defs><style>.cls-1{fill:url(#linear-gradient-2);}.cls-2,.cls-3{fill:#030404;}.cls-4{fill:#fff;opacity:0;stroke:#1d1d1b;}.cls-4,.cls-5{stroke-miterlimit:10;}.cls-6{fill:#ce141e;}.cls-7{fill:#e03e17;opacity:.5;}.cls-7,.cls-3,.cls-8{isolation:isolate;}.cls-9{fill:url(#linear-gradient-5);}.cls-10{fill:#3e4a21;}.cls-5{fill:none;stroke:#020303;stroke-width:1.88px;}.cls-11{fill:url(#linear-gradient);}.cls-12{fill:url(#linear-gradient-4);}.cls-3{opacity:.12;}.cls-8{fill:url(#linear-gradient-3);opacity:.4;}.cls-13{fill:#97c22a;}</style><linearGradient id="linear-gradient" x1="-569.02" y1="1767.83" x2="-491.6" y2="1690.42" gradientTransform="translate(-328.5 -1404.14) rotate(-45)" gradientUnits="userSpaceOnUse"><stop offset="0" stop-color="#3e4a21"/><stop offset=".14" stop-color="#4c5e25"/><stop offset=".42" stop-color="#6a852b"/><stop offset=".66" stop-color="#82a52e"/><stop offset=".86" stop-color="#8fb923"/><stop offset="1" stop-color="#97c22a"/></linearGradient><linearGradient id="linear-gradient-2" x1="361.26" y1="451.75" x2="361.26" y2="408.57" gradientTransform="translate(0 -236.64)" gradientUnits="userSpaceOnUse"><stop offset="0" stop-color="#532a15"/><stop offset=".45" stop-color="#532a15" stop-opacity=".7"/><stop offset=".58" stop-color="#e03e17" stop-opacity=".5"/><stop offset="1" stop-color="#e03e17" stop-opacity=".5"/></linearGradient><linearGradient id="linear-gradient-3" x1="206.28" y1="494.73" x2="206.28" y2="365.58" gradientTransform="translate(0 -236.64)" gradientUnits="userSpaceOnUse"><stop offset="0" stop-color="#ffdc12"/><stop offset="0" stop-color="#ffdb13"/><stop offset=".05" stop-color="#f9bb1b"/><stop offset=".1" stop-color="#f59b18"/><stop offset=".16" stop-color="#ef7b19"/><stop offset=".22" stop-color="#e86112"/><stop offset=".27" stop-color="#e84a1d"/><stop offset=".34" stop-color="#e5391e"/><stop offset=".41" stop-color="#e63121"/><stop offset=".5" stop-color="#e62e21"/><stop offset=".59" stop-color="#e63121"/><stop offset=".66" stop-color="#e5391e"/><stop offset=".73" stop-color="#e84a1d"/><stop offset=".78" stop-color="#e86112"/><stop offset=".84" stop-color="#ef7b19"/><stop offset=".9" stop-color="#f59b18"/><stop offset=".95" stop-color="#f9bb1b"/><stop offset="1" stop-color="#ffdb13"/><stop offset="1" stop-color="#ffdc12"/></linearGradient><linearGradient id="linear-gradient-4" x1="206.29" y1="493.01" x2="206.29" y2="367.3" xlink:href="#linear-gradient-3"/><linearGradient id="linear-gradient-5" x1="-790.28" y1="1546.58" x2="-712.85" y2="1469.16" xlink:href="#linear-gradient"/></defs><rect class="cls-4" x=".5" y=".5" width="720" height="378.91"/><g id="microbe"><rect class="cls-2" x="461.1" y="135.42" width="116.19" height="116.19"/><rect class="cls-11" x="464.45" y="138.78" width="109.48" height="109.48"/><rect class="cls-13" x="469.76" y="144.09" width="98.85" height="98.85"/><g id="microbes"><polygon class="cls-10" points="520.46 203.45 515.79 204 516.44 208.67 511.79 207.91 511.03 212.57 506.84 210.44 504.79 214.62 501.34 211.37 498.19 214.81 495.84 210.71 491.74 212.95 490.82 208.38 486.25 209.4 486.62 204.75 481.97 204.28 483.74 199.99 479.45 198.22 482.44 194.59 478.8 191.6 482.72 189 480.1 185.18 484.58 183.88 483.27 179.31 487.92 179.4 488.02 174.74 492.5 176.13 493.89 171.76 497.71 174.38 500.41 170.55 503.31 174.28 506.93 171.39 508.61 175.78 512.99 174.18 513.28 178.84 517.93 178.56 516.81 183.13 521.38 184.16 518.96 188.16 523.06 190.58 519.51 193.75 522.68 197.2 518.4 199.16 520.46 203.45"/><polygon class="cls-10" points="560.61 184.72 559.03 185.28 559.03 187.42 556.6 186.68 555.11 188.07 552.69 186.48 550.27 187.13 543.46 188.07 540.58 187.79 537.6 182.1 534.24 181.08 531.54 178.2 528.28 176.61 525.76 173.53 522.68 172.13 520.81 168.69 518.21 166.45 517.19 163.84 515.33 161.79 515.14 159.65 513.56 157.79 514.86 156.39 514.96 154.33 516.36 154.43 517.66 152.94 519.61 153.79 522.78 150.81 525.2 152.56 528 152.75 530.79 154.81 534.06 155.73 535.83 160.31 539.36 161.7 541.78 164.68 545.15 166.55 547.19 169.43 550.36 171.58 555.57 174.38 558.09 176.8 558.47 178.84 560.15 180.9 559.67 182.67 560.61 184.72"/><polygon class="cls-10" points="555.39 206.99 555.77 207.55 556.42 208.95 555.11 209.77 555.2 211.37 552.03 212.57 550.73 214.62 546.83 218.45 542.44 220.49 536.66 222.17 533.21 224.32 528.56 225.34 524.64 227.19 520.08 228.04 516.44 229.82 512.07 229.99 508.16 231.21 505.07 231.12 501.91 231.86 499.86 231.29 496.97 231.77 496.79 230.37 495.94 229.99 496.13 228.59 495.94 227.19 498.09 226.08 497.9 222.74 501.34 221.52 503.59 219.56 507.49 218.26 512.07 217.05 516.16 216.39 520.08 214.16 524.56 213.41 528.74 211.65 532.84 210.99 537.13 209.4 543.56 206.42 547.66 205.49 549.7 205.87 552.78 205.3 553.9 206.25 555.39 206.99"/></g><path id="darker" class="cls-3" d="M573.94,248.26h-109.48v-60.01s34.47,5.3,54.69,5.3,54.78-5.3,54.78-5.3v60.01h.01Z"/></g><g id="strzalka_efekt"><path class="cls-7" d="M421.43,193.51l-57.39-26.52,6.94,13.79h-64.68s-1.95,6.22-1.95,12.19,1.95,10.86,1.95,10.86h65.9l-8.17,16.23,57.39-26.52h0v-.02Z"/><path class="cls-1" d="M376,201.49h-68.03c-.52-1.77-1.29-4.95-1.29-8.52,0-3.77,.85-7.7,1.39-9.85h66.7l-5.63-11.18,46.69,21.59-46.69,21.59,6.87-13.62h-.01Z"/><path class="cls-6" d="M381.03,198.39h-70.65c-.31-1.5-.6-3.41-.6-5.41,0-2.36,.38-4.82,.76-6.76h69.26l-3.89-7.76,32.58,15.06-32.58,15.06,5.13-10.19h-.01Z"/><path class="cls-5" d="M376,201.49h-68.03c-.52-1.77-1.29-4.95-1.29-8.52,0-3.77,.85-7.7,1.39-9.85h66.7l-5.63-11.18,46.69,21.59-46.69,21.59,6.87-13.62h-.01Z"/></g><g id="microbe-2"><rect class="cls-8" x="141.71" y="128.95" width="129.14" height="129.14"/><rect class="cls-12" x="143.44" y="130.66" width="125.71" height="125.71"/><rect class="cls-2" x="148.19" y="135.42" width="116.19" height="116.19"/><rect class="cls-9" x="151.55" y="138.78" width="109.48" height="109.48"/><rect class="cls-13" x="156.86" y="144.09" width="98.85" height="98.85"/><g id="microbes-2"><polygon class="cls-10" points="207.55 203.45 202.89 204 203.53 208.67 198.89 207.91 198.13 212.57 193.94 210.44 191.89 214.62 188.44 211.37 185.28 214.81 182.94 210.71 178.84 212.95 177.92 208.38 173.36 209.4 173.72 204.75 169.06 204.28 170.84 199.99 166.55 198.22 169.54 194.59 165.89 191.6 169.82 189 167.2 185.18 171.67 183.88 170.36 179.31 175.03 179.4 175.12 174.74 179.59 176.13 180.99 171.76 184.81 174.38 187.51 170.55 190.41 174.28 194.03 171.39 195.71 175.78 200.09 174.18 200.37 178.84 205.03 178.56 203.91 183.13 208.48 184.16 206.05 188.16 210.15 190.58 206.61 193.75 209.78 197.2 205.5 199.16 207.55 203.45"/><polygon class="cls-10" points="247.7 184.72 246.12 185.28 246.12 187.42 243.7 186.68 242.2 188.07 239.79 186.48 237.37 187.13 230.57 188.07 227.68 187.79 224.7 182.1 221.33 181.08 218.63 178.2 215.38 176.61 212.85 173.53 209.78 172.13 207.92 168.69 205.31 166.45 204.29 163.84 202.43 161.79 202.23 159.65 200.65 157.79 201.95 156.39 202.05 154.33 203.45 154.43 204.75 152.94 206.71 153.79 209.88 150.81 212.3 152.56 215.1 152.75 217.9 154.81 221.15 155.73 222.92 160.31 226.46 161.7 228.88 164.68 232.24 166.55 234.29 169.43 237.46 171.58 242.67 174.38 245.19 176.8 245.57 178.84 247.25 180.9 246.77 182.67 247.7 184.72"/><polygon class="cls-10" points="242.49 206.99 242.87 207.55 243.51 208.95 242.2 209.77 242.3 211.37 239.12 212.57 237.82 214.62 233.92 218.45 229.53 220.49 223.76 222.17 220.31 224.32 215.65 225.34 211.73 227.19 207.18 228.04 203.53 229.82 199.16 229.99 195.25 231.21 192.16 231.12 189.01 231.86 186.95 231.29 184.06 231.77 183.88 230.37 183.04 229.99 183.23 228.59 183.04 227.19 185.18 226.08 185.01 222.74 188.44 221.52 190.68 219.56 194.59 218.26 199.16 217.05 203.25 216.39 207.18 214.16 211.65 213.41 215.83 211.65 219.93 210.99 224.22 209.4 230.66 206.42 234.76 205.49 236.8 205.87 239.88 205.3 241 206.25 242.49 206.99"/></g><path id="darker-2" class="cls-3" d="M261.04,248.26h-109.48v-60.01s34.47,5.3,54.69,5.3,54.78-5.3,54.78-5.3v60.01h.01Z"/></g></svg>