<?xml version="1.0" encoding="utf-8"?>
<!-- Generator: Adobe Illustrator 26.5.0, SVG Export Plug-In . SVG Version: 6.00 Build 0)  -->
<svg version="1.1" id="Layer" xmlns="http://www.w3.org/2000/svg" xmlns:xlink="http://www.w3.org/1999/xlink" x="0px" y="0px"
	 viewBox="0 0 721 379.9" style="enable-background:new 0 0 721 379.9;" xml:space="preserve">
<style type="text/css">
	.st0{opacity:0;fill:#FFFFFF;fill-opacity:0;}
	.st1{fill:#030404;}
	.st2{fill:url(#SVGID_1_);}
	.st3{fill:#80368C;}
	.st4{fill:#FFFFFF;stroke:#030404;stroke-width:0.94;stroke-miterlimit:10;}
	.st5{opacity:0.15;fill:#030404;enable-background:new    ;}
	.st6{opacity:0.5;fill:#E03F19;enable-background:new    ;}
	.st7{fill:url(#SVGID_00000105412089171846112230000004438565733924368803_);}
	.st8{fill:#CF1820;}
	.st9{fill:none;stroke:#030304;stroke-width:1.86;stroke-miterlimit:10;}
	.st10{fill:#020303;stroke:#030404;stroke-width:1.91;stroke-miterlimit:10;}
	.st11{fill:url(#obram_zolte_00000013879397798431801110000000574159643745272710_);}
	.st12{fill:url(#tlo_wew_00000028320280385469186270000017640613333335263141_);}
	.st13{fill:url(#obram_skosne_00000070837353562221800430000017956674091594141105_);}
	.st14{fill:url(#tlo_zew_00000179645948893556266520000016761445471752705453_);}
	.st15{fill:#010202;}
</style>
<rect x="0.5" y="0.5" class="st0" width="720" height="378.9"/>
<g>
	<g id="energy">
		<rect x="198.5" y="131.8" class="st1" width="116.2" height="116.2"/>
		
			<linearGradient id="SVGID_1_" gradientUnits="userSpaceOnUse" x1="-1758.9818" y1="-1794.7286" x2="-1681.5154" y2="-1717.2721" gradientTransform="matrix(0.7071 -0.7071 -0.7071 -0.7071 231.4397 -2268.1292)">
			<stop  offset="0" style="stop-color:#1D1527"/>
			<stop  offset="0.24" style="stop-color:#372348"/>
			<stop  offset="0.49" style="stop-color:#583C6C"/>
			<stop  offset="0.71" style="stop-color:#73518D"/>
			<stop  offset="0.89" style="stop-color:#835CA1"/>
			<stop  offset="1" style="stop-color:#8964A8"/>
		</linearGradient>
		<rect x="202" y="135.2" class="st2" width="109.5" height="109.5"/>
		<polygon class="st3" points="306.1,140.6 306.1,239.5 207.2,239.5 207.2,140.6 		"/>
		<polygon class="st4" points="244.6,178.7 277.2,158.5 259.8,183.8 269.1,198.7 237,219 253.1,193.8 		"/>
		<path id="darker" class="st5" d="M311.4,244.7H202v-60c0,0,34.5,5.3,54.7,5.3s54.8-5.3,54.8-5.3v60H311.4L311.4,244.7z"/>
	</g>
	<path d="M130.3,220l19.8-30.5l-19-31.4h15.1l12.6,20.9l13.7-20.9H183l-19.1,29.3l19.7,32.7h-15l-13.5-22.3l-14.4,22.3h-10.5
		L130.3,220L130.3,220z"/>
	<g id="arrow">
		<path class="st6" d="M464.4,190l-57.1-26.4l6.9,13.7h-64.3c0,0-1.9,6.1-1.9,12.2s1.9,10.8,1.9,10.8h65.5l-8.1,16.2L464.4,190
			L464.4,190z"/>
		
			<linearGradient id="SVGID_00000110440764187451031550000009999657971360072344_" gradientUnits="userSpaceOnUse" x1="404.555" y1="-85.2285" x2="404.555" y2="-42.2585" gradientTransform="matrix(1 0 0 -1 0 126.2116)">
			<stop  offset="0" style="stop-color:#522B16"/>
			<stop  offset="0.45" style="stop-color:#522B16;stop-opacity:0.7"/>
			<stop  offset="0.58" style="stop-color:#E03F19;stop-opacity:0.5"/>
			<stop  offset="1" style="stop-color:#E03F19;stop-opacity:0.5"/>
		</linearGradient>
		<path style="fill:url(#SVGID_00000110440764187451031550000009999657971360072344_);" d="M419.2,197.9h-67.6
			c-0.5-1.7-1.3-4.9-1.3-8.5c0-3.8,0.9-7.6,1.4-9.8H418l-5.6-11.1l46.4,21.5l-46.4,21.4L419.2,197.9L419.2,197.9L419.2,197.9z"/>
		<path class="st8" d="M424.3,194.9H354c-0.3-1.5-0.5-3.3-0.5-5.4c0-2.4,0.4-4.7,0.8-6.7H423l-3.9-7.8l32.4,15l-32.4,15L424.3,194.9
			L424.3,194.9L424.3,194.9z"/>
		<path class="st9" d="M419.2,197.9h-67.6c-0.5-1.7-1.3-4.9-1.3-8.5c0-3.8,0.9-7.6,1.4-9.8H418l-5.6-11.1l46.4,21.5l-46.4,21.4
			L419.2,197.9L419.2,197.9L419.2,197.9z"/>
	</g>
	<g id="mln">
		<polygon id="obram_czarne" class="st10" points="503.8,131.8 486.3,149.5 486.3,230.5 503.8,248.1 584.9,248.1 602.5,230.5 
			602.5,149.5 584.9,131.8 		"/>
		
			<linearGradient id="obram_zolte_00000026155756906622529280000009287404027010742450_" gradientUnits="userSpaceOnUse" x1="544.44" y1="-135.5185" x2="544.44" y2="-25.9785" gradientTransform="matrix(1 0 0 -1 0 109.2016)">
			<stop  offset="0.16" style="stop-color:#823B14"/>
			<stop  offset="0.18" style="stop-color:#995D1A"/>
			<stop  offset="0.22" style="stop-color:#AE7D22"/>
			<stop  offset="0.26" style="stop-color:#C39D25"/>
			<stop  offset="0.3" style="stop-color:#D6B92E"/>
			<stop  offset="0.35" style="stop-color:#E4CF36"/>
			<stop  offset="0.41" style="stop-color:#EFE036"/>
			<stop  offset="0.48" style="stop-color:#F5E94D"/>
			<stop  offset="0.58" style="stop-color:#F8EB53"/>
			<stop  offset="0.86" style="stop-color:#F5EA52"/>
			<stop  offset="1" style="stop-color:#FCF4F9"/>
		</linearGradient>
		<polygon id="obram_zolte" style="fill:url(#obram_zolte_00000026155756906622529280000009287404027010742450_);" points="
			506.2,135.2 489.7,151.8 489.7,228.2 506.2,244.7 582.6,244.7 599.2,228.2 599.2,151.8 582.6,135.2 		"/>
		
			<linearGradient id="tlo_wew_00000091698984703720029050000018394718031152055689_" gradientUnits="userSpaceOnUse" x1="544.44" y1="-20.1885" x2="544.44" y2="-187.6485" gradientTransform="matrix(1 0 0 -1 0 109.2016)">
			<stop  offset="0.26" style="stop-color:#F5EA52"/>
			<stop  offset="0.86" style="stop-color:#813A14"/>
		</linearGradient>
		<polygon id="tlo_wew" style="fill:url(#tlo_wew_00000091698984703720029050000018394718031152055689_);" points="507.3,136.8 
			491.2,153 491.2,227.1 507.3,243.1 581.5,243.1 597.7,227.1 597.7,153 581.5,136.8 		"/>
		
			<linearGradient id="obram_skosne_00000076594200959394747990000005049707329063276463_" gradientUnits="userSpaceOnUse" x1="544.325" y1="-134.0185" x2="544.325" y2="-27.6985" gradientTransform="matrix(1 0 0 -1 0 109.2016)">
			<stop  offset="0.16" style="stop-color:#813A14"/>
			<stop  offset="0.17" style="stop-color:#8D481F"/>
			<stop  offset="0.18" style="stop-color:#A36C3D"/>
			<stop  offset="0.2" style="stop-color:#B78954"/>
			<stop  offset="0.22" style="stop-color:#C7A468"/>
			<stop  offset="0.24" style="stop-color:#D7BB7A"/>
			<stop  offset="0.26" style="stop-color:#E2CC88"/>
			<stop  offset="0.3" style="stop-color:#EAD891"/>
			<stop  offset="0.34" style="stop-color:#EEDE97"/>
			<stop  offset="0.46" style="stop-color:#EFE097"/>
			<stop  offset="0.7" style="stop-color:#813A14"/>
			<stop  offset="0.73" style="stop-color:#E6D234"/>
			<stop  offset="0.74" style="stop-color:#EBDA49"/>
			<stop  offset="0.75" style="stop-color:#EEDE6D"/>
			<stop  offset="0.77" style="stop-color:#F0E18A"/>
			<stop  offset="0.79" style="stop-color:#F8EBAB"/>
			<stop  offset="0.8" style="stop-color:#F8EDBF"/>
			<stop  offset="0.83" style="stop-color:#FAF0CF"/>
			<stop  offset="0.85" style="stop-color:#FCF2DA"/>
			<stop  offset="0.89" style="stop-color:#FDF4E1"/>
			<stop  offset="0.99" style="stop-color:#FDF5E3"/>
		</linearGradient>
		<path id="obram_skosne" style="fill:url(#obram_skosne_00000076594200959394747990000005049707329063276463_);" d="M589.9,210.5
			c-2.9,0-5.4-2.4-5.4-5.3v-30.4c0-2.9,2.4-5.4,5.4-5.4h7.6V153l-16-16.1h-16.7v7.6c0,2.9-2.4,5.4-5.4,5.4H529
			c-2.9,0-5.4-2.4-5.4-5.4v-7.6H507L491,153v16.6h7.6c2.9,0,5.3,2.4,5.3,5.4v30.4c0,2.9-2.4,5.3-5.3,5.3H491v16.6l16,16.1h16.7v-7.6
			c0-2.9,2.4-5.3,5.4-5.3h30.4c2.9,0,5.4,2.4,5.4,5.3v7.6h16.7l16.1-16.1v-16.7H589.9z"/>
		
			<linearGradient id="tlo_zew_00000065060098967654053500000014933019286265996735_" gradientUnits="userSpaceOnUse" x1="544.44" y1="-43.2485" x2="544.44" y2="-207.4885" gradientTransform="matrix(1 0 0 -1 0 109.2016)">
			<stop  offset="0.26" style="stop-color:#F5EA52"/>
			<stop  offset="0.77" style="stop-color:#813A14"/>
		</linearGradient>
		<path id="tlo_zew" style="fill:url(#tlo_zew_00000065060098967654053500000014933019286265996735_);" d="M589.7,212.3
			c-3.7,0-6.6-3.7-6.6-7.2v-30.2c0-3.7,2.9-7.2,6.6-7.2h6.1v-13.6l-15.6-15.5h-13.5v6.1c0,3.7-3.7,6.6-7.2,6.6h-30.2
			c-3.7,0-7.2-2.9-7.2-6.6v-6.1h-13.6l-15.5,15.5v13.5h6.1c3.7,0,6.6,3.7,6.6,7.2V205c0,3.7-2.9,7.2-6.6,7.2h-6.1v13.6l15.5,15.5
			h13.6v-6.1c0-3.7,3.7-6.6,7.2-6.6h30c3.7,0,7.2,2.9,7.2,6.6v6.1h13.5l15.5-15.5v-13.5H589.7z"/>
	</g>
	<path class="st15" d="M521.1,216.3l17.2-26.5l-16.5-27.4h13l11,18.2l11.8-18.2h9l-16.5,25.4l17.1,28.4h-13L542.7,197l-12.5,19.3
		H521.1L521.1,216.3z"/>
</g>
</svg>
