<?xml version="1.0" encoding="UTF-8"?><svg id="Layer" xmlns="http://www.w3.org/2000/svg" xmlns:xlink="http://www.w3.org/1999/xlink" viewBox="0 0 721 379.91"><defs><style>.cls-1{fill:url(#linear-gradient-2);}.cls-2{fill:url(#linear-gradient-6);}.cls-3{fill:#1f1f1e;}.cls-4{fill:#fff;opacity:0;stroke:#1d1d1b;}.cls-4,.cls-5,.cls-6{stroke-miterlimit:10;}.cls-7{fill:url(#Nowy_wzorek_3);opacity:.1;}.cls-7,.cls-8,.cls-9{isolation:isolate;}.cls-10{fill:url(#linear-gradient-10);}.cls-11{fill:#ce141e;}.cls-5{fill:#010202;stroke:#030304;stroke-width:1.94px;}.cls-8{fill:#e03e17;opacity:.5;}.cls-12{fill:#ffd113;}.cls-13{fill:url(#linear-gradient-5);}.cls-14{fill:#e62b23;}.cls-15,.cls-6{fill:none;}.cls-16{fill:url(#linear-gradient-7);}.cls-9{opacity:.05;}.cls-9,.cls-17{fill:#030304;}.cls-18{fill:url(#linear-gradient-9);}.cls-19{fill:url(#linear-gradient-3);}.cls-6{stroke:#020303;stroke-width:2.07px;}.cls-20{fill:url(#linear-gradient);}.cls-21{fill:url(#linear-gradient-4);}.cls-22{fill:#010101;}.cls-23{fill:url(#linear-gradient-8);}</style><linearGradient id="linear-gradient" x1="640.3" y1="46.61" x2="390.58" y2="296.31" gradientTransform="translate(0 361.41) scale(1 -1)" gradientUnits="userSpaceOnUse"><stop offset="0" stop-color="#9e9d9c"/><stop offset=".54" stop-color="#010202"/><stop offset="1" stop-color="#9e9d9c"/></linearGradient><linearGradient id="linear-gradient-2" x1="515.51" y1="87.98" x2="515.51" y2="254.94" gradientTransform="translate(0 361.41) scale(1 -1)" gradientUnits="userSpaceOnUse"><stop offset="0" stop-color="#462c1b"/><stop offset="1" stop-color="#b18048"/></linearGradient><linearGradient id="linear-gradient-3" x1="515.45" y1="92.2" x2="515.45" y2="250.88" gradientTransform="translate(0 361.41) scale(1 -1)" gradientUnits="userSpaceOnUse"><stop offset="0" stop-color="#946137"/><stop offset="1" stop-color="#805127"/></linearGradient><pattern id="Nowy_wzorek_3" x="0" y="0" width="19.7" height="21.7" patternTransform="translate(-380.57 -32160.49) scale(1 -1)" patternUnits="userSpaceOnUse" viewBox="0 0 19.7 21.7"><g><rect class="cls-15" width="19.7" height="21.7"/><g><rect class="cls-15" width="19.7" height="21.7"/><g><rect class="cls-15" width="19.7" height="21.7"/><g><rect class="cls-15" width="19.7" height="21.7"/><g><rect class="cls-15" width="19.7" height="21.7"/><g><rect class="cls-15" width="19.7" height="21.7"/><path class="cls-3" d="M16.6,13c2.1-2.1,2.1-5.6,0-7.7l-1.2-1.2c-2.1-2.1-5.6-2.1-7.8,0L3.1,8.7c-2.1,2.1-2.1,5.6,0,7.7l1.2,1.2c2.1,2.1,5.6,2.1,7.7,0l4.6-4.6Z"/></g></g></g></g></g></g></pattern><linearGradient id="linear-gradient-4" x1="-600.23" y1="1670.72" x2="-522.8" y2="1593.29" gradientTransform="translate(-312.49 -1361.1) rotate(-45)" gradientUnits="userSpaceOnUse"><stop offset="0" stop-color="#951919"/><stop offset=".21" stop-color="#b9251d"/><stop offset=".47" stop-color="#e62b23"/><stop offset=".55" stop-color="#e62f2a"/><stop offset=".84" stop-color="#e73a3b"/><stop offset="1" stop-color="#e83e41"/></linearGradient><linearGradient id="linear-gradient-5" x1="-499.06" y1="1771.89" x2="-421.62" y2="1694.45" xlink:href="#linear-gradient-4"/><linearGradient id="linear-gradient-6" x1="252.41" y1="163.66" x2="252.41" y2="211.27" gradientTransform="translate(0 377.41) scale(1 -1)" gradientUnits="userSpaceOnUse"><stop offset="0" stop-color="#532a15"/><stop offset=".45" stop-color="#532a15" stop-opacity=".7"/><stop offset=".58" stop-color="#e03e17" stop-opacity=".5"/><stop offset="1" stop-color="#e03e17" stop-opacity=".5"/></linearGradient><linearGradient id="linear-gradient-7" x1="103.15" y1="114.8" x2="103.15" y2="226.27" gradientTransform="translate(0 360.4) scale(1 -1)" gradientUnits="userSpaceOnUse"><stop offset=".16" stop-color="#823a13"/><stop offset=".18" stop-color="#985c1a"/><stop offset=".22" stop-color="#ae7d22"/><stop offset=".26" stop-color="#c39d26"/><stop offset=".3" stop-color="#d6b92e"/><stop offset=".35" stop-color="#e4cf36"/><stop offset=".41" stop-color="#efe036"/><stop offset=".48" stop-color="#f6e947"/><stop offset=".58" stop-color="#f8ea4e"/><stop offset=".86" stop-color="#f6ea4d"/><stop offset="1" stop-color="#fcf4f9"/></linearGradient><linearGradient id="linear-gradient-8" x1="103.15" y1="232.21" x2="103.15" y2="61.83" gradientTransform="translate(0 360.4) scale(1 -1)" gradientUnits="userSpaceOnUse"><stop offset=".26" stop-color="#f6ea4d"/><stop offset=".86" stop-color="#803813"/></linearGradient><linearGradient id="linear-gradient-9" x1="103.19" y1="116.35" x2="103.19" y2="224.63" gradientTransform="translate(0 360.4) scale(1 -1)" gradientUnits="userSpaceOnUse"><stop offset=".16" stop-color="#803813"/><stop offset=".17" stop-color="#8c471e"/><stop offset=".18" stop-color="#a26b3c"/><stop offset=".2" stop-color="#b78954"/><stop offset=".22" stop-color="#c7a468"/><stop offset=".24" stop-color="#d7bb7a"/><stop offset=".26" stop-color="#e2cc88"/><stop offset=".3" stop-color="#ead891"/><stop offset=".34" stop-color="#eede97"/><stop offset=".46" stop-color="#efe097"/><stop offset=".7" stop-color="#803813"/><stop offset=".73" stop-color="#e6d234"/><stop offset=".74" stop-color="#ebd948"/><stop offset=".75" stop-color="#eede6d"/><stop offset=".77" stop-color="#f0e28a"/><stop offset=".79" stop-color="#f8ebaa"/><stop offset=".8" stop-color="#f8edbf"/><stop offset=".83" stop-color="#faf0cf"/><stop offset=".85" stop-color="#fcf2da"/><stop offset=".89" stop-color="#fdf4e1"/><stop offset=".99" stop-color="#fdf5e3"/></linearGradient><linearGradient id="linear-gradient-10" x1="103.15" y1="208.75" x2="103.15" y2="41.63" gradientTransform="translate(0 360.4) scale(1 -1)" gradientUnits="userSpaceOnUse"><stop offset=".26" stop-color="#f6ea4d"/><stop offset=".77" stop-color="#803813"/></linearGradient></defs><rect class="cls-4" x=".5" y=".5" width="720" height="378.91"/><g><g id="prodBg"><rect id="external-border" class="cls-20" x="353.87" y="101.82" width="323.15" height="176.27"/><rect id="internal-border" class="cls-1" x="358.51" y="106.48" width="313.99" height="166.95"/><rect id="bg" class="cls-19" x="362.6" y="110.54" width="305.7" height="158.68"/><rect id="bgPattern" class="cls-7" x="362.6" y="110.54" width="305.7" height="158.68"/></g><g id="heat"><rect class="cls-17" x="386.37" y="131.85" width="116.22" height="116.22"/><rect class="cls-21" x="389.71" y="135.2" width="109.5" height="109.5"/><rect class="cls-14" x="395.03" y="140.5" width="98.89" height="98.89"/><path id="darker" class="cls-9" d="M499.23,244.71h-109.5v-60.02s34.49,5.32,54.71,5.32,54.8-5.32,54.8-5.32v60.02h-.01Z"/><g><polygon class="cls-12" points="432.13 195.04 419.64 184.22 419.64 184.22 419.64 151.22 407.15 184.88 419.73 195.49 419.73 195.49 419.64 228.67 432.13 195.04"/><polygon class="cls-12" points="457.01 195.04 444.53 184.22 444.44 184.22 444.53 151.22 432.04 184.88 444.53 195.49 444.53 195.49 444.53 228.67 457.01 195.04"/><polygon class="cls-12" points="482.54 195.04 470.04 184.22 469.95 184.22 470.04 151.22 457.57 184.88 470.04 195.49 470.04 195.49 470.04 228.67 482.54 195.04"/></g></g><g id="heat-2"><rect class="cls-17" x="529.44" y="131.85" width="116.22" height="116.22"/><rect class="cls-13" x="532.79" y="135.19" width="109.51" height="109.51"/><rect class="cls-14" x="538.1" y="140.51" width="98.88" height="98.88"/><path id="darker-2" class="cls-9" d="M642.31,244.71h-109.51v-60.02s34.49,5.32,54.71,5.32,54.8-5.32,54.8-5.32v60.02Z"/><g><polygon class="cls-12" points="575.21 195.04 562.71 184.22 562.71 184.22 562.71 151.23 550.23 184.88 562.81 195.49 562.81 195.49 562.71 228.67 575.21 195.04"/><polygon class="cls-12" points="600.08 195.04 587.6 184.22 587.51 184.22 587.6 151.23 575.12 184.88 587.6 195.49 587.6 195.49 587.6 228.67 600.08 195.04"/><polygon class="cls-12" points="625.61 195.04 613.12 184.22 613.03 184.22 613.12 151.23 600.64 184.88 613.12 195.49 613.12 195.49 613.12 228.67 625.61 195.04"/></g></g><g id="arrow"><path class="cls-8" d="M318.78,189.95l-63.31-29.26,7.67,15.22h-71.35s-2.15,6.86-2.15,13.45,2.15,11.98,2.15,11.98h72.7l-9.02,17.9,63.31-29.26h0v-.02Z"/><path class="cls-2" d="M268.68,198.73h-75.03c-.58-1.96-1.42-5.46-1.42-9.39,0-4.17,.93-8.5,1.53-10.87h73.57l-6.22-12.33,51.5,23.81-51.5,23.81,7.57-15.03h0Z"/><path class="cls-11" d="M274.22,195.33h-77.93c-.36-1.65-.66-3.75-.66-5.98,0-2.61,.42-5.32,.84-7.45h76.4l-4.3-8.55,35.93,16.6-35.93,16.6,5.66-11.24h-.01Z"/><path class="cls-6" d="M268.68,198.73h-75.03c-.58-1.96-1.42-5.46-1.42-9.39,0-4.17,.93-8.5,1.53-10.87h73.57l-6.22-12.33,51.5,23.81-51.5,23.81,7.57-15.03h0Z"/></g><g id="mln"><polygon id="obram_czarne" class="cls-5" points="61.9 130.75 43.99 148.66 43.99 231.07 61.9 249 144.41 249 162.23 231.07 162.23 148.66 144.41 130.75 61.9 130.75"/><polygon id="obram_zolte" class="cls-16" points="64.23 134.14 47.47 150.99 47.47 228.76 64.23 245.6 141.99 245.6 158.84 228.76 158.84 150.99 141.99 134.14 64.23 134.14"/><polygon id="tlo_wew" class="cls-23" points="65.39 135.78 49.02 152.15 49.02 227.59 65.39 243.96 140.92 243.96 157.29 227.59 157.29 152.15 140.92 135.78 65.39 135.78"/><path id="obram_skosne" class="cls-18" d="M149.45,210.74c-3,0-5.43-2.42-5.43-5.43v-30.9c0-3,2.42-5.43,5.43-5.43h7.74v-16.85l-16.27-16.37h-16.94v7.74c0,3-2.42,5.43-5.43,5.43h-30.9c-3,0-5.43-2.42-5.43-5.43v-7.74h-16.85l-16.37,16.37v16.94h7.74c3,0,5.43,2.42,5.43,5.43v30.9c0,3-2.42,5.43-5.43,5.43h-7.74v16.85l16.37,16.37h16.94v-7.74c0-3,2.42-5.43,5.43-5.43h30.9c3,0,5.43,2.42,5.43,5.43v7.74h16.94l16.37-16.37v-16.94h-7.93Z"/><path id="tlo_zew" class="cls-10" d="M149.15,212.59c-3.68,0-6.68-3.68-6.68-7.36v-30.7c0-3.68,3-7.36,6.68-7.36h6.3v-13.76l-15.88-15.78h-13.66v6.3c0,3.68-3.68,6.68-7.36,6.68h-30.7c-3.68,0-7.36-3-7.36-6.68v-6.3h-13.85l-15.78,15.78v13.76h6.3c3.68,0,6.68,3.68,6.68,7.36v30.7c0,3.68-3,7.36-6.68,7.36h-6.3v13.76l15.78,15.78h13.76v-6.3c0-3.68,3.68-6.68,7.36-6.68h30.6c3.68,0,7.36,3,7.36,6.68v6.3h13.76l15.78-15.78v-13.76h-6.1Z"/></g><g><path class="cls-22" d="M75.8,211.82v-38.96h-5.9l-.18-4.4,14.89-1.28v44.65h-8.81Z"/><path class="cls-22" d="M118.99,212.93c-3.53,0-6.59-.99-9.14-2.96-2.56-1.96-4.53-4.79-5.9-8.46-1.38-3.67-2.05-7.58-2.05-11.74s.67-8.04,2.04-11.71c1.36-3.68,3.33-6.51,5.91-8.47s5.63-2.96,9.14-2.96,6.51,.97,9.09,2.91,4.57,4.77,5.92,8.45c1.36,3.68,2.05,7.61,2.05,11.79s-.66,7.88-1.96,11.52-3.24,6.5-5.81,8.55-5.66,3.08-9.3,3.08h.01Zm0-5.5c2.65,0,4.59-1.47,5.84-4.38s1.88-7.53,1.88-13.85c0-5.67-.64-9.94-1.92-12.78-1.28-2.83-3.21-4.26-5.79-4.26s-4.59,1.46-5.85,4.37-1.89,7.52-1.89,13.84c0,5.68,.65,9.95,1.94,12.8s3.22,4.27,5.81,4.27h-.02Z"/></g></g></svg>