<?xml version="1.0" encoding="UTF-8"?><svg id="a" xmlns="http://www.w3.org/2000/svg" xmlns:xlink="http://www.w3.org/1999/xlink" viewBox="0 0 720 378.91"><defs><style>.w{fill:url(#i);opacity:.1;}.w,.x{isolation:isolate;}.y{fill:url(#p);}.z{fill:url(#t);}.aa,.x{fill:#020303;}.ab{fill:url(#l);}.ac{fill:#07562a;stroke:#1c4421;stroke-miterlimit:10;stroke-width:3.73px;}.ad{fill:#1f1f1e;}.ae{fill:url(#g);}.af{fill:url(#e);}.ag{fill:#44ac36;}.ah{fill:none;}.ai{fill:url(#c);}.aj{fill:rgba(255,255,255,0);opacity:0;}.x{opacity:.05;}</style><linearGradient id="c" x1="399.05" y1="-187.25" x2="154.84" y2="56.96" gradientTransform="translate(0 126.38) scale(1 -1)" gradientUnits="userSpaceOnUse"><stop offset="0" stop-color="#9e9d9c"/><stop offset=".54" stop-color="#010202"/><stop offset="1" stop-color="#9e9d9c"/></linearGradient><linearGradient id="e" x1="277.03" y1="-147.2" x2="277.03" y2="16.88" gradientTransform="translate(0 126.38) scale(1 -1)" gradientUnits="userSpaceOnUse"><stop offset="0" stop-color="#462c1b"/><stop offset="1" stop-color="#b18048"/></linearGradient><linearGradient id="g" x1="276.96" y1="-143.01" x2="276.96" y2="12.84" gradientTransform="translate(0 126.38) scale(1 -1)" gradientUnits="userSpaceOnUse"><stop offset="0" stop-color="#946137"/><stop offset="1" stop-color="#805127"/></linearGradient><pattern id="i" x="0" y="0" width="19.7" height="21.7" patternTransform="translate(40.8 -32288.71) scale(1 -1)" patternUnits="userSpaceOnUse" viewBox="0 0 19.7 21.7"><g><rect class="ah" width="19.7" height="21.7"/><g><rect class="ah" width="19.7" height="21.7"/><g><rect class="ah" width="19.7" height="21.7"/><g><rect class="ah" width="19.7" height="21.7"/><g><rect class="ah" width="19.7" height="21.7"/><g><rect class="ah" width="19.7" height="21.7"/><path class="ad" d="M16.6,13c2.1-2.1,2.1-5.6,0-7.7l-1.2-1.2c-2.1-2.1-5.6-2.1-7.8,0L3.1,8.7c-2.1,2.1-2.1,5.6,0,7.7l1.2,1.2c2.1,2.1,5.6,2.1,7.7,0l4.6-4.6Z"/></g></g></g></g></g></g></pattern><linearGradient id="l" x1="-696.3" y1="-610.76" x2="-618.85" y2="-533.32" gradientTransform="translate(269.24 -678.04) rotate(-45) scale(1 -1)" gradientUnits="userSpaceOnUse"><stop offset="0" stop-color="#0c6835"/><stop offset=".04" stop-color="#0a6b36"/><stop offset=".08" stop-color="#047638"/><stop offset=".13" stop-color="#078738"/><stop offset=".15" stop-color="#058f39"/><stop offset=".35" stop-color="#34993d"/><stop offset=".76" stop-color="#5eaf47"/><stop offset="1" stop-color="#6eb74a"/></linearGradient><linearGradient id="p" x1="-598.01" y1="-709.04" x2="-520.56" y2="-631.61" gradientTransform="translate(269.24 -678.04) rotate(-45) scale(1 -1)" gradientUnits="userSpaceOnUse"><stop offset="0" stop-color="#0c6835"/><stop offset=".04" stop-color="#0a6b36"/><stop offset=".08" stop-color="#047638"/><stop offset=".13" stop-color="#078738"/><stop offset=".15" stop-color="#058f39"/><stop offset=".35" stop-color="#34993d"/><stop offset=".76" stop-color="#5eaf47"/><stop offset="1" stop-color="#6eb74a"/></linearGradient><linearGradient id="t" x1="-460.83" y1="-846.22" x2="-383.39" y2="-768.79" gradientTransform="translate(269.24 -678.04) rotate(-45) scale(1 -1)" gradientUnits="userSpaceOnUse"><stop offset="0" stop-color="#0c6835"/><stop offset=".04" stop-color="#0a6b36"/><stop offset=".08" stop-color="#047638"/><stop offset=".13" stop-color="#078738"/><stop offset=".15" stop-color="#058f39"/><stop offset=".35" stop-color="#34993d"/><stop offset=".76" stop-color="#5eaf47"/><stop offset="1" stop-color="#6eb74a"/></linearGradient></defs><rect class="aj" width="720" height="378.91"/><g id="b"><rect id="d" class="ai" x="119.37" y="104.89" width="315.15" height="173.28"/><rect id="f" class="af" x="123.99" y="109.5" width="306.08" height="164.08"/><rect id="h" class="ae" x="128.02" y="113.54" width="297.88" height="155.85"/><rect id="j" class="w" x="128.02" y="113.54" width="297.88" height="155.85"/></g><g id="k"><rect class="aa" x="150.65" y="133.32" width="116.22" height="116.22"/><rect class="ab" x="154" y="136.67" width="109.51" height="109.51"/><rect class="ag" x="159.32" y="141.99" width="98.89" height="98.89"/><path id="m" class="ac" d="M208.71,166.4c-14.17,1.96-24.98,11.18-24.98,24.98,0,3.36,.65,6.62,1.86,9.6-2.61,1.77-6.43,4.1-8.29,4.75-3.26,1.12-9.79,.37-10.07,.93s1.86,6.43,2.61,6.71,6.71,.28,10.07-.93c2.42-.84,6.8-3.63,9.32-5.5,4.57,5.78,11.65,9.41,19.57,9.41,13.79,0,24.79-8.67,24.79-22.46,0-5.31,1.3-12.02,3.26-16.22,2.14-4.66,13.23-7.64,13.23-7.64-1.12-3.63-35.79-4.38-41.38-3.63h0Z"/><path id="n" class="x" d="M263.51,246.18h-109.51v-60.02s34.48,5.31,54.71,5.31,54.8-5.31,54.8-5.31v60.02h0Z"/></g><g id="o"><rect class="aa" x="289.65" y="133.32" width="116.22" height="116.22"/><rect class="y" x="293" y="136.67" width="109.51" height="109.51"/><rect class="ag" x="298.32" y="141.99" width="98.89" height="98.89"/><path id="q" class="ac" d="M347.71,166.4c-14.17,1.96-24.98,11.18-24.98,24.98,0,3.36,.65,6.62,1.86,9.6-2.61,1.77-6.43,4.1-8.29,4.75-3.26,1.12-9.79,.37-10.07,.93s1.86,6.43,2.61,6.71,6.71,.28,10.07-.93c2.42-.84,6.8-3.63,9.32-5.5,4.57,5.78,11.65,9.41,19.57,9.41,13.79,0,24.79-8.67,24.79-22.46,0-5.31,1.3-12.02,3.26-16.22,2.14-4.66,13.23-7.64,13.23-7.64-1.12-3.63-35.79-4.38-41.38-3.63h.01Z"/><path id="r" class="x" d="M402.51,246.18h-109.51v-60.02s34.48,5.31,54.71,5.31,54.8-5.31,54.8-5.31v60.02h0Z"/></g><g id="s"><rect class="aa" x="483.65" y="133.32" width="116.22" height="116.22"/><rect class="z" x="487" y="136.67" width="109.51" height="109.51"/><rect class="ag" x="492.32" y="141.99" width="98.89" height="98.89"/><path id="u" class="ac" d="M541.71,166.4c-14.17,1.96-24.98,11.18-24.98,24.98,0,3.36,.65,6.62,1.86,9.6-2.61,1.77-6.43,4.1-8.29,4.75-3.26,1.12-9.79,.37-10.07,.93s1.86,6.43,2.61,6.71,6.71,.28,10.07-.93c2.42-.84,6.8-3.63,9.32-5.5,4.57,5.78,11.65,9.41,19.57,9.41,13.79,0,24.79-8.67,24.79-22.46,0-5.31,1.3-12.02,3.26-16.22,2.14-4.66,13.23-7.64,13.23-7.64-1.12-3.63-35.79-4.38-41.38-3.63h.01Z"/><path id="v" class="x" d="M596.51,246.18h-109.51v-60.02s34.48,5.31,54.71,5.31,54.8-5.31,54.8-5.31v60.02Z"/></g></svg>