<?xml version="1.0" encoding="UTF-8"?><svg id="Layer" xmlns="http://www.w3.org/2000/svg" xmlns:xlink="http://www.w3.org/1999/xlink" viewBox="0 0 721 379.91"><defs><style>.cls-1{fill:url(#linear-gradient-2);}.cls-2{fill:#020303;}.cls-3{fill:#1f1f1e;}.cls-4{opacity:0;stroke:#1d1d1b;}.cls-4,.cls-5,.cls-6,.cls-7,.cls-8,.cls-9,.cls-10{stroke-miterlimit:10;}.cls-4,.cls-7{fill:#fff;}.cls-11{fill:url(#linear-gradient-6);}.cls-11,.cls-12,.cls-13,.cls-14{isolation:isolate;}.cls-11,.cls-14{opacity:.31;}.cls-12{opacity:.15;}.cls-12,.cls-15{fill:#030304;}.cls-16{fill:url(#radial-gradient);}.cls-13{fill:url(#Nowy_wzorek_4);opacity:.1;}.cls-5{stroke-linecap:square;}.cls-5,.cls-6,.cls-8,.cls-17{fill:none;}.cls-5,.cls-6,.cls-8,.cls-9,.cls-10{stroke:#020303;}.cls-5,.cls-9,.cls-10{stroke-width:3.23px;}.cls-6{stroke-width:4.84px;}.cls-7{stroke:#030304;stroke-width:.93px;}.cls-8{stroke-width:2.42px;}.cls-18{fill:url(#radial-gradient-2);}.cls-14{fill:url(#linear-gradient-8);}.cls-9{fill:url(#linear-gradient-5);}.cls-10{fill:url(#linear-gradient-7);}.cls-19{fill:#7f358b;}.cls-20{fill:url(#linear-gradient-3);}.cls-21{fill:url(#linear-gradient);}.cls-22{fill:url(#linear-gradient-4);}.cls-23{fill:#010101;}</style><linearGradient id="linear-gradient" x1="462.84" y1="-81.08" x2="258.16" y2="123.6" gradientTransform="translate(0 127.45) scale(1 -1)" gradientUnits="userSpaceOnUse"><stop offset="0" stop-color="#9e9d9c"/><stop offset=".54" stop-color="#010202"/><stop offset="1" stop-color="#9e9d9c"/></linearGradient><linearGradient id="linear-gradient-2" x1="360.56" y1="-62" x2="360.56" y2="104.49" gradientTransform="translate(0 127.45) scale(1 -1)" gradientUnits="userSpaceOnUse"><stop offset="0" stop-color="#462c1b"/><stop offset="1" stop-color="#b18048"/></linearGradient><linearGradient id="linear-gradient-3" x1="360.49" y1="-57.79" x2="360.49" y2="100.43" gradientTransform="translate(0 127.45) scale(1 -1)" gradientUnits="userSpaceOnUse"><stop offset="0" stop-color="#946137"/><stop offset="1" stop-color="#805127"/></linearGradient><pattern id="Nowy_wzorek_4" x="0" y="0" width="19.7" height="21.7" patternTransform="translate(-412.07 -32363.15) scale(1 -1)" patternUnits="userSpaceOnUse" viewBox="0 0 19.7 21.7"><g><rect class="cls-17" width="19.7" height="21.7"/><g><rect class="cls-17" width="19.7" height="21.7"/><g><rect class="cls-17" width="19.7" height="21.7"/><g><rect class="cls-17" width="19.7" height="21.7"/><g><rect class="cls-17" width="19.7" height="21.7"/><g><rect class="cls-17" width="19.7" height="21.7"/><path class="cls-3" d="M16.6,13c2.1-2.1,2.1-5.6,0-7.7l-1.2-1.2c-2.1-2.1-5.6-2.1-7.8,0L3.1,8.7c-2.1,2.1-2.1,5.6,0,7.7l1.2,1.2c2.1,2.1,5.6,2.1,7.7,0l4.6-4.6Z"/></g></g></g></g></g></g></pattern><linearGradient id="linear-gradient-4" x1="-725.92" y1="-1240.07" x2="-648.24" y2="-1162.37" gradientTransform="translate(25.2 -1229.64) rotate(-45) scale(1 -1)" gradientUnits="userSpaceOnUse"><stop offset="0" stop-color="#1d1427"/><stop offset=".24" stop-color="#372348"/><stop offset=".49" stop-color="#573b6c"/><stop offset=".71" stop-color="#72508c"/><stop offset=".89" stop-color="#835ca0"/><stop offset="1" stop-color="#8963a7"/></linearGradient><linearGradient id="linear-gradient-5" x1="240.5" y1="1.5" x2="240.5" y2="140.71" gradientTransform="translate(0 363.09) scale(1 -1)" gradientUnits="userSpaceOnUse"><stop offset="0" stop-color="#951917"/><stop offset=".21" stop-color="#b13c1e"/><stop offset=".44" stop-color="#cb5e26"/><stop offset=".66" stop-color="#e17932"/><stop offset=".85" stop-color="#ee8c39"/><stop offset="1" stop-color="#f3923b"/></linearGradient><radialGradient id="radial-gradient" cx="240.58" cy="71.1" fx="240.58" fy="71.1" r="79.28" gradientTransform="translate(0 363.09) scale(1 -1)" gradientUnits="userSpaceOnUse"><stop offset="0" stop-color="#f3923b" stop-opacity=".5"/><stop offset="1" stop-color="#d23f16"/></radialGradient><linearGradient id="linear-gradient-6" x1="240.5" y1="1.5" x2="240.5" y2="90.18" gradientTransform="translate(0 363.09) scale(1 -1)" gradientUnits="userSpaceOnUse"><stop offset="0" stop-color="#1f1f1d"/><stop offset="1" stop-color="#3e3d3c"/></linearGradient><linearGradient id="linear-gradient-7" x1="480.5" x2="480.5" xlink:href="#linear-gradient-5"/><radialGradient id="radial-gradient-2" cx="480.58" fx="480.58" xlink:href="#radial-gradient"/><linearGradient id="linear-gradient-8" x1="480.5" x2="480.5" xlink:href="#linear-gradient-6"/></defs><rect class="cls-4" x=".5" y=".5" width="720" height="378.91"/><g><g><g id="prodBg"><rect id="external-border" class="cls-21" x="243.7" y="18.32" width="233.6" height="175.75"/><rect id="internal-border" class="cls-1" x="248.32" y="22.96" width="224.49" height="166.49"/><rect id="bg" class="cls-20" x="252.38" y="27.02" width="216.22" height="158.21"/><rect id="bgPattern" class="cls-13" x="252.38" y="27.02" width="216.22" height="158.21"/></g><g id="energy"><rect class="cls-15" x="330.46" y="47.31" width="116.56" height="116.56"/><rect class="cls-22" x="333.82" y="50.66" width="109.85" height="109.85"/><polygon class="cls-19" points="438.35 55.99 438.35 155.19 339.14 155.19 339.14 55.99 438.35 55.99"/><polygon class="cls-7" points="376.63 94.24 409.36 73.95 391.87 99.28 401.13 114.34 368.96 134.63 385.14 109.37 376.63 94.24"/><path id="darker" class="cls-12" d="M443.67,160.51h-109.85v-60.2s34.59,5.32,54.87,5.32,54.97-5.32,54.97-5.32v60.2Z"/></g><path class="cls-23" d="M275.99,115.58v-13.67h32.82v13.67h-32.82Z"/></g><g><g id="tr"><rect class="cls-9" x="142.02" y="222.38" width="196.95" height="139.21"/><rect class="cls-16" x="148.15" y="228.51" width="184.86" height="126.95"/><g id="logo"><g><circle class="cls-6" cx="240.58" cy="287.39" r="35.81"/><path class="cls-8" d="M240.58,251.58s18.55,7.58,18.55,35.81-18.55,35.81-18.55,35.81"/><path class="cls-8" d="M240.58,251.58s-18.55,7.58-18.55,35.81,18.55,35.81,18.55,35.81"/><line class="cls-8" x1="240.58" y1="251.58" x2="240.58" y2="323.2"/><line class="cls-8" x1="204.77" y1="287.39" x2="276.39" y2="287.39"/><path class="cls-8" d="M212.67,264.8s10.48,5.32,27.74,5.32,27.74-5.32,27.74-5.32"/><path class="cls-8" d="M212.67,310.45c0-.16,10.48-5.32,27.74-5.32s27.74,5.32,27.74,5.32"/><polygon class="cls-2" points="262.03 258.03 271.55 249.32 258.97 246.74 286.39 238.83 280.1 267.38 276.39 253.19 267.36 263.67 262.03 258.03"/><polyline class="cls-5" points="240.58 331.42 227.68 331.42 233.16 331.42 233.16 344.17"/><polyline class="cls-5" points="249.78 344.17 249.78 331.42 247.36 331.42 244.29 339.97 243.32 339.97 240.74 335.94 238.81 335.94 238.81 344.17"/><path class="cls-2" d="M228.64,339.49c0,1.94-4.84,4.84-6.77,4.84s-13.55,.81-13.55-1.13,11.61-5.97,13.55-5.97c1.94,.16,6.77,.32,6.77,2.26Z"/><path class="cls-2" d="M222.84,335.13c-1.13,.97-5.48-.65-6.45-1.77s-7.1-7.9-5.97-8.87,9.36,4.36,10.32,5.48c.97,1.13,3.23,4.19,2.1,5.16Z"/><path class="cls-2" d="M214.29,337.39c-.32,1.45-4.52,3.06-6.13,2.74-1.45-.32-13.71-1.29-13.39-2.74s13.07-3.06,14.52-2.74c1.61,.32,5.32,1.29,5,2.74Z"/><path class="cls-2" d="M211.06,333.52c-1.45,.48-5-2.26-5.48-3.71s-6.13-12.42-4.84-12.9,9.36,9.52,10,10.97c.48,1.45,1.61,5.16,.32,5.65Z"/><path class="cls-2" d="M202.19,332.87c-.97,1.45-5.65,1.45-6.94,.65s-12.74-6.29-11.78-7.74,13.87,1.61,15.16,2.58c1.29,.81,4.52,3.06,3.55,4.52Z"/><path class="cls-2" d="M198.96,327.71c-1.61,0-3.87-3.71-3.87-5.16s-1.29-12.9,.32-12.9,5.48,11.61,5.48,13.07c-.16,1.29-.32,5-1.94,5Z"/><path class="cls-2" d="M190.41,317.87c-1.45-.32-2.9-4.36-2.58-5.81,.32-1.29,1.61-12.58,3.06-12.26,1.45,.32,2.58,12.26,2.26,13.55-.32,1.45-1.29,4.84-2.74,4.52Z"/><path class="cls-2" d="M191.22,324.16c-1.29,.97-5.65-.48-6.61-1.61-.97-1.29-10-9.84-8.71-10.81s12.26,5.97,13.23,7.1c.97,1.13,3.23,4.36,2.1,5.32Z"/><path class="cls-2" d="M183.8,312.07c-1.29,.65-5.16-1.45-5.81-2.74s-7.58-10.97-6.13-11.78c1.29-.65,10.32,7.9,10.97,9.19,.65,1.29,2.26,4.52,.97,5.32Z"/><path class="cls-2" d="M184.61,307.39c-1.13-.48-1.61-4.52-1.13-5.81s3.55-12.42,4.68-11.94c1.13,.48,.16,12.26-.32,13.55-.65,1.45-2.1,4.68-3.23,4.19Z"/><path class="cls-2" d="M179.61,299.81c-1.29,.32-4.03-2.9-4.36-4.52-.32-1.45-4.03-12.74-2.9-13.07,1.29-.32,7.1,10.65,7.42,12.1,.32,1.45,1.13,5.32-.16,5.48Z"/><path class="cls-2" d="M181.87,294.81c-1.13-.65-.97-4.36-.32-5.48s4.84-10.16,5.97-9.52-1.45,10.97-2.1,11.94c-.65,1.13-2.42,3.71-3.55,3.06Z"/><path class="cls-2" d="M178.48,285.61c-1.29-.16-3.06-3.87-2.9-5.32s-.16-12.58,1.13-12.58c1.29,.16,3.71,11.61,3.55,13.07s-.48,5-1.77,4.84Z"/><path class="cls-2" d="M181.7,281.9c-.81-.81,.48-4.52,1.45-5.32,.97-.81,8.07-8.87,8.87-7.9,.81,.81-5,10.32-5.97,11.13-.97,.81-3.55,3.06-4.36,2.1Z"/><path class="cls-2" d="M186.54,270.13c-.65-.81,.32-3.55,1.13-4.36,.81-.65,6.45-7.1,7.1-6.29s-3.87,8.23-4.68,9.03c-.97,.48-2.9,2.26-3.55,1.61Z"/><path class="cls-2" d="M181.06,271.74c-.97-.32-1.61-4.19-1.29-5.48,.32-1.29,2.58-12.26,3.55-12.1,.97,.32,.48,11.78,.16,13.07-.16,1.61-1.29,5-2.42,4.52Z"/><path class="cls-2" d="M187.19,263.19c-1.29-.48-1.94-4.36-1.45-5.65,.48-1.29,3.06-11.78,4.36-11.29,1.29,.48,.65,11.78,.16,13.07-.48,1.13-1.77,4.36-3.06,3.87Z"/><path class="cls-2" d="M252.52,339c0,1.94,4.84,4.84,6.77,4.84s13.55,.81,13.55-1.13-11.61-5.97-13.55-5.97-6.77,.32-6.77,2.26Z"/><path class="cls-2" d="M258.32,334.65c1.13,.97,5.48-.65,6.45-1.77s7.1-7.9,5.97-8.87c-1.13-.97-9.36,4.36-10.32,5.48-.97,1.13-3.23,4.19-2.1,5.16Z"/><path class="cls-2" d="M266.87,336.91c.32,1.45,4.52,3.06,6.13,2.74,1.45-.32,13.71-1.29,13.39-2.74-.32-1.45-13.07-3.06-14.52-2.74-1.61,.32-5.32,1.29-5,2.74Z"/><path class="cls-2" d="M270.1,333.04c1.45,.48,5-2.26,5.48-3.71s6.13-12.42,4.68-12.9-9.36,9.52-10,10.97c-.32,1.45-1.45,5.16-.16,5.65Z"/><path class="cls-2" d="M278.97,332.39c.97,1.45,5.65,1.45,6.94,.65s12.58-6.29,11.61-7.74c-.97-1.45-13.87,1.61-15.16,2.58-1.13,.81-4.36,3.06-3.39,4.52Z"/><path class="cls-2" d="M282.2,327.23c1.61,0,3.87-3.71,3.87-5.16s1.29-12.9-.32-12.9-5.48,11.61-5.48,13.07c.16,1.45,.32,5,1.94,5Z"/><path class="cls-2" d="M290.75,317.39c1.45-.32,2.9-4.36,2.58-5.81-.32-1.29-1.61-12.58-3.06-12.26-1.45,.32-2.58,12.26-2.26,13.55,.32,1.45,1.29,4.84,2.74,4.52Z"/><path class="cls-2" d="M289.94,323.68c1.29,.97,5.65-.48,6.61-1.61,.97-1.29,10-9.84,8.71-10.81-1.29-.97-12.26,5.97-13.23,7.1-.97,1.29-3.23,4.36-2.1,5.32Z"/><path class="cls-2" d="M297.36,311.58c1.29,.65,5.16-1.45,5.81-2.74s7.58-10.97,6.13-11.78c-1.29-.65-10.32,7.9-10.97,9.19-.65,1.29-2.26,4.68-.97,5.32Z"/><path class="cls-2" d="M296.55,307.07c1.13-.48,1.77-4.52,1.13-5.81s-3.55-12.42-4.68-11.94c-1.13,.48-.16,12.26,.32,13.55,.65,1.29,2.1,4.68,3.23,4.19Z"/><path class="cls-2" d="M301.55,299.32c1.29,.32,4.03-2.9,4.36-4.52,.32-1.45,4.19-12.74,2.9-13.07-1.29-.32-7.1,10.65-7.42,12.1-.32,1.61-1.13,5.32,.16,5.48Z"/><path class="cls-2" d="M299.3,294.32c1.13-.65,1.13-4.36,.32-5.48-.65-1.13-5-10.16-5.97-9.52s1.45,10.97,2.1,11.94c.65,1.13,2.42,3.87,3.55,3.06Z"/><path class="cls-2" d="M302.68,285.13c1.29-.16,3.06-3.87,2.9-5.32-.16-1.45,.16-12.74-1.13-12.58-1.29,.16-3.71,11.61-3.55,13.07,0,1.45,.48,5,1.77,4.84Z"/><path class="cls-2" d="M299.46,281.42c.81-.81-.48-4.52-1.45-5.32s-8.07-8.87-8.87-7.9c-.81,.81,5,10.32,5.97,11.13,.97,.81,3.55,3.06,4.36,2.1Z"/><path class="cls-2" d="M294.62,269.64c.65-.81-.32-3.55-1.13-4.36s-6.45-7.1-7.1-6.29,3.87,8.23,4.68,9.03c.81,.65,2.9,2.26,3.55,1.61Z"/><path class="cls-2" d="M299.94,271.42c.97-.32,1.61-4.19,1.29-5.48-.32-1.29-2.58-12.26-3.55-12.1-.97,.32-.48,11.78-.16,13.07,.32,1.45,1.45,4.84,2.42,4.52Z"/><path class="cls-2" d="M293.97,262.71c1.29-.48,1.94-4.36,1.45-5.65-.48-1.29-3.06-11.78-4.36-11.29-1.29,.48-.65,11.78-.16,13.07,.48,1.13,1.77,4.36,3.06,3.87Z"/></g></g><path id="darker-2" class="cls-11" d="M338.33,273.19c-3.06,6.13-55.01,16.13-97.75,16.13s-95.49-10.97-98.56-16.13v88.4h196.95v-87.43c-.16-1.13-.48-1.61-.65-.97Z"/></g><g id="tr-2"><rect class="cls-10" x="382.02" y="222.38" width="196.95" height="139.21"/><rect class="cls-18" x="388.15" y="228.51" width="184.86" height="126.95"/><g id="logo-2"><g><circle class="cls-6" cx="480.58" cy="287.39" r="35.81"/><path class="cls-8" d="M480.58,251.58s18.55,7.58,18.55,35.81-18.55,35.81-18.55,35.81"/><path class="cls-8" d="M480.58,251.58s-18.55,7.58-18.55,35.81,18.55,35.81,18.55,35.81"/><line class="cls-8" x1="480.58" y1="251.58" x2="480.58" y2="323.2"/><line class="cls-8" x1="444.77" y1="287.39" x2="516.39" y2="287.39"/><path class="cls-8" d="M452.67,264.8s10.48,5.32,27.74,5.32,27.74-5.32,27.74-5.32"/><path class="cls-8" d="M452.67,310.45c0-.16,10.48-5.32,27.74-5.32s27.74,5.32,27.74,5.32"/><polygon class="cls-2" points="502.03 258.03 511.55 249.32 498.97 246.74 526.39 238.83 520.1 267.38 516.39 253.19 507.36 263.67 502.03 258.03"/><polyline class="cls-5" points="480.58 331.42 467.68 331.42 473.16 331.42 473.16 344.17"/><polyline class="cls-5" points="489.78 344.17 489.78 331.42 487.36 331.42 484.29 339.97 483.32 339.97 480.74 335.94 478.81 335.94 478.81 344.17"/><path class="cls-2" d="M468.64,339.49c0,1.94-4.84,4.84-6.77,4.84s-13.55,.81-13.55-1.13,11.61-5.97,13.55-5.97c1.94,.16,6.77,.32,6.77,2.26Z"/><path class="cls-2" d="M462.84,335.13c-1.13,.97-5.48-.65-6.45-1.77s-7.1-7.9-5.97-8.87,9.36,4.36,10.32,5.48c.97,1.13,3.23,4.19,2.1,5.16Z"/><path class="cls-2" d="M454.29,337.39c-.32,1.45-4.52,3.06-6.13,2.74-1.45-.32-13.71-1.29-13.39-2.74s13.07-3.06,14.52-2.74c1.61,.32,5.32,1.29,5,2.74Z"/><path class="cls-2" d="M451.06,333.52c-1.45,.48-5-2.26-5.48-3.71s-6.13-12.42-4.84-12.9,9.36,9.52,10,10.97c.48,1.45,1.61,5.16,.32,5.65Z"/><path class="cls-2" d="M442.19,332.87c-.97,1.45-5.65,1.45-6.94,.65s-12.74-6.29-11.78-7.74,13.87,1.61,15.16,2.58c1.29,.81,4.52,3.06,3.55,4.52Z"/><path class="cls-2" d="M438.96,327.71c-1.61,0-3.87-3.71-3.87-5.16s-1.29-12.9,.32-12.9,5.48,11.61,5.48,13.07c-.16,1.29-.32,5-1.94,5Z"/><path class="cls-2" d="M430.41,317.87c-1.45-.32-2.9-4.36-2.58-5.81,.32-1.29,1.61-12.58,3.06-12.26,1.45,.32,2.58,12.26,2.26,13.55-.32,1.45-1.29,4.84-2.74,4.52Z"/><path class="cls-2" d="M431.22,324.16c-1.29,.97-5.65-.48-6.61-1.61-.97-1.29-10-9.84-8.71-10.81s12.26,5.97,13.23,7.1c.97,1.13,3.23,4.36,2.1,5.32Z"/><path class="cls-2" d="M423.8,312.07c-1.29,.65-5.16-1.45-5.81-2.74s-7.58-10.97-6.13-11.78c1.29-.65,10.32,7.9,10.97,9.19,.65,1.29,2.26,4.52,.97,5.32Z"/><path class="cls-2" d="M424.61,307.39c-1.13-.48-1.61-4.52-1.13-5.81s3.55-12.42,4.68-11.94c1.13,.48,.16,12.26-.32,13.55-.65,1.45-2.1,4.68-3.23,4.19Z"/><path class="cls-2" d="M419.61,299.81c-1.29,.32-4.03-2.9-4.36-4.52-.32-1.45-4.03-12.74-2.9-13.07,1.29-.32,7.1,10.65,7.42,12.1,.32,1.45,1.13,5.32-.16,5.48Z"/><path class="cls-2" d="M421.87,294.81c-1.13-.65-.97-4.36-.32-5.48s4.84-10.16,5.97-9.52-1.45,10.97-2.1,11.94c-.65,1.13-2.42,3.71-3.55,3.06Z"/><path class="cls-2" d="M418.48,285.61c-1.29-.16-3.06-3.87-2.9-5.32s-.16-12.58,1.13-12.58c1.29,.16,3.71,11.61,3.55,13.07s-.48,5-1.77,4.84Z"/><path class="cls-2" d="M421.7,281.9c-.81-.81,.48-4.52,1.45-5.32,.97-.81,8.07-8.87,8.87-7.9,.81,.81-5,10.32-5.97,11.13-.97,.81-3.55,3.06-4.36,2.1Z"/><path class="cls-2" d="M426.54,270.13c-.65-.81,.32-3.55,1.13-4.36,.81-.65,6.45-7.1,7.1-6.29s-3.87,8.23-4.68,9.03c-.97,.48-2.9,2.26-3.55,1.61Z"/><path class="cls-2" d="M421.06,271.74c-.97-.32-1.61-4.19-1.29-5.48,.32-1.29,2.58-12.26,3.55-12.1,.97,.32,.48,11.78,.16,13.07-.16,1.61-1.29,5-2.42,4.52Z"/><path class="cls-2" d="M427.19,263.19c-1.29-.48-1.94-4.36-1.45-5.65,.48-1.29,3.06-11.78,4.36-11.29,1.29,.48,.65,11.78,.16,13.07-.48,1.13-1.77,4.36-3.06,3.87Z"/><path class="cls-2" d="M492.52,339c0,1.94,4.84,4.84,6.77,4.84s13.55,.81,13.55-1.13-11.61-5.97-13.55-5.97-6.77,.32-6.77,2.26Z"/><path class="cls-2" d="M498.32,334.65c1.13,.97,5.48-.65,6.45-1.77s7.1-7.9,5.97-8.87c-1.13-.97-9.36,4.36-10.32,5.48-.97,1.13-3.23,4.19-2.1,5.16Z"/><path class="cls-2" d="M506.87,336.91c.32,1.45,4.52,3.06,6.13,2.74,1.45-.32,13.71-1.29,13.39-2.74-.32-1.45-13.07-3.06-14.52-2.74-1.61,.32-5.32,1.29-5,2.74Z"/><path class="cls-2" d="M510.1,333.04c1.45,.48,5-2.26,5.48-3.71s6.13-12.42,4.68-12.9-9.36,9.52-10,10.97c-.32,1.45-1.45,5.16-.16,5.65Z"/><path class="cls-2" d="M518.97,332.39c.97,1.45,5.65,1.45,6.94,.65s12.58-6.29,11.61-7.74c-.97-1.45-13.87,1.61-15.16,2.58-1.13,.81-4.36,3.06-3.39,4.52Z"/><path class="cls-2" d="M522.2,327.23c1.61,0,3.87-3.71,3.87-5.16s1.29-12.9-.32-12.9-5.48,11.61-5.48,13.07c.16,1.45,.32,5,1.94,5Z"/><path class="cls-2" d="M530.75,317.39c1.45-.32,2.9-4.36,2.58-5.81-.32-1.29-1.61-12.58-3.06-12.26-1.45,.32-2.58,12.26-2.26,13.55,.32,1.45,1.29,4.84,2.74,4.52Z"/><path class="cls-2" d="M529.94,323.68c1.29,.97,5.65-.48,6.61-1.61,.97-1.29,10-9.84,8.71-10.81-1.29-.97-12.26,5.97-13.23,7.1-.97,1.29-3.23,4.36-2.1,5.32Z"/><path class="cls-2" d="M537.36,311.58c1.29,.65,5.16-1.45,5.81-2.74s7.58-10.97,6.13-11.78c-1.29-.65-10.32,7.9-10.97,9.19-.65,1.29-2.26,4.68-.97,5.32Z"/><path class="cls-2" d="M536.55,307.07c1.13-.48,1.77-4.52,1.13-5.81s-3.55-12.42-4.68-11.94c-1.13,.48-.16,12.26,.32,13.55,.65,1.29,2.1,4.68,3.23,4.19Z"/><path class="cls-2" d="M541.55,299.32c1.29,.32,4.03-2.9,4.36-4.52,.32-1.45,4.19-12.74,2.9-13.07-1.29-.32-7.1,10.65-7.42,12.1-.32,1.61-1.13,5.32,.16,5.48Z"/><path class="cls-2" d="M539.3,294.32c1.13-.65,1.13-4.36,.32-5.48-.65-1.13-5-10.16-5.97-9.52s1.45,10.97,2.1,11.94c.65,1.13,2.42,3.87,3.55,3.06Z"/><path class="cls-2" d="M542.68,285.13c1.29-.16,3.06-3.87,2.9-5.32-.16-1.45,.16-12.74-1.13-12.58-1.29,.16-3.71,11.61-3.55,13.07,0,1.45,.48,5,1.77,4.84Z"/><path class="cls-2" d="M539.46,281.42c.81-.81-.48-4.52-1.45-5.32s-8.07-8.87-8.87-7.9c-.81,.81,5,10.32,5.97,11.13,.97,.81,3.55,3.06,4.36,2.1Z"/><path class="cls-2" d="M534.62,269.64c.65-.81-.32-3.55-1.13-4.36s-6.45-7.1-7.1-6.29,3.87,8.23,4.68,9.03c.81,.65,2.9,2.26,3.55,1.61Z"/><path class="cls-2" d="M539.94,271.42c.97-.32,1.61-4.19,1.29-5.48-.32-1.29-2.58-12.26-3.55-12.1-.97,.32-.48,11.78-.16,13.07,.32,1.45,1.45,4.84,2.42,4.52Z"/><path class="cls-2" d="M533.97,262.71c1.29-.48,1.94-4.36,1.45-5.65-.48-1.29-3.06-11.78-4.36-11.29-1.29,.48-.65,11.78-.16,13.07,.48,1.13,1.77,4.36,3.06,3.87Z"/></g></g><path id="darker-3" class="cls-14" d="M578.33,273.19c-3.06,6.13-55.01,16.13-97.75,16.13s-95.49-10.97-98.56-16.13v88.4h196.95v-87.43c-.16-1.13-.48-1.61-.65-.97Z"/></g></g></g></svg>