<?xml version="1.0" encoding="UTF-8"?><svg id="Layer" xmlns="http://www.w3.org/2000/svg" xmlns:xlink="http://www.w3.org/1999/xlink" viewBox="0 0 721 379.91"><defs><style>.cls-1{fill:url(#linear-gradient-2);}.cls-2,.cls-3,.cls-4,.cls-5,.cls-6{stroke-miterlimit:10;}.cls-2,.cls-7{fill:#bfbebf;}.cls-2,.cls-6{stroke:#636363;stroke-width:.69px;}.cls-8{opacity:.4;}.cls-8,.cls-9,.cls-10{isolation:isolate;}.cls-8,.cls-10,.cls-11{fill:#030304;}.cls-3{stroke:#020303;stroke-width:1.83px;}.cls-3,.cls-5,.cls-6{fill:none;}.cls-12{fill:#4c4a4c;}.cls-4{fill:#fff;opacity:0;stroke:#1d1d1b;}.cls-13{fill:url(#radial-gradient);}.cls-14{fill:#ce141e;}.cls-9{fill:#e03e17;opacity:.5;}.cls-5{stroke:#ffd80c;stroke-width:4.55px;}.cls-10{opacity:.64;}.cls-15{fill:url(#radial-gradient-2);}.cls-16{fill:#ebebeb;}.cls-17{fill:#636363;}.cls-18{fill:#dd9d05;}.cls-19{fill:#515150;}.cls-20{fill:url(#linear-gradient-3);}.cls-21{fill:url(#linear-gradient);}</style><linearGradient id="linear-gradient" x1="-582.17" y1="1756.89" x2="-506.5" y2="1681.23" gradientTransform="translate(-326.17 -1409.5) rotate(-45)" gradientUnits="userSpaceOnUse"><stop offset="0" stop-color="#030304"/><stop offset=".05" stop-color="#0a0b0b"/><stop offset=".31" stop-color="#29292b"/><stop offset=".56" stop-color="#3f3f40"/><stop offset=".79" stop-color="#4f4e4e"/><stop offset="1" stop-color="#555454"/></linearGradient><radialGradient id="radial-gradient" cx="477.94" cy="123.98" fx="477.94" fy="123.98" r="26.64" gradientTransform="translate(0 345.03) scale(1 -1)" gradientUnits="userSpaceOnUse"><stop offset="0" stop-color="#fff"/><stop offset="1" stop-color="#fff" stop-opacity="0"/></radialGradient><radialGradient id="radial-gradient-2" cx="532.32" cy="381.61" fx="532.32" fy="381.61" r="26.66" gradientTransform="translate(0 -237.18)" xlink:href="#radial-gradient"/><linearGradient id="linear-gradient-2" x1="357.89" y1="150.03" x2="357.89" y2="192.15" gradientTransform="translate(0 362.04) scale(1 -1)" gradientUnits="userSpaceOnUse"><stop offset="0" stop-color="#532a15"/><stop offset=".45" stop-color="#532a15" stop-opacity=".7"/><stop offset=".58" stop-color="#e03e17" stop-opacity=".5"/><stop offset="1" stop-color="#e03e17" stop-opacity=".5"/></linearGradient><linearGradient id="linear-gradient-3" x1="-787.22" y1="-953.64" x2="-711.54" y2="-877.98" gradientTransform="translate(96.83 -986.51) rotate(-45) scale(1 -1)" gradientUnits="userSpaceOnUse"><stop offset="0" stop-color="#030304"/><stop offset="1" stop-color="#7a7879"/></linearGradient></defs><rect class="cls-4" x=".5" y=".5" width="720" height="378.91"/><g id="fighter"><rect class="cls-11" x="447.72" y="134.17" width="113.56" height="113.56"/><rect class="cls-21" x="450.99" y="137.46" width="107" height="107"/><rect class="cls-12" x="456.18" y="142.64" width="96.61" height="96.61"/><path id="darker" class="cls-8" d="M557.99,244.45h-107v-58.65s33.69,5.19,53.45,5.19,53.55-5.19,53.55-5.19v58.65Z"/><path class="cls-7" d="M489.97,220.78h-1.64c-1.83,0-3.28-1.46-3.28-3.28v-38.24h8.11v38.34c0,1.83-1.46,3.19-3.19,3.19Z"/><path class="cls-7" d="M522.02,220.78h-1.64c-1.83,0-3.28-1.46-3.28-3.28v-38.24h8.11v38.34c0,1.83-1.46,3.19-3.19,3.19Z"/><path class="cls-7" d="M534.59,226.97h-4.47c-1.83,0-3.28-1.46-3.28-3.28v-18.39h11.02v18.39c0,1.83-1.46,3.28-3.28,3.28h.01Z"/><path class="cls-7" d="M480.22,226.97h-4.55c-1.83,0-3.28-1.46-3.28-3.28v-18.39h11.02v18.39c0,1.83-1.36,3.28-3.19,3.28Z"/><path class="cls-6" d="M534.59,226.97h-4.47c-1.83,0-3.28-1.46-3.28-3.28v-22.22c0-3.01,2.46-5.47,5.47-5.47h0c3.01,0,5.47,2.46,5.47,5.47v22.22c.1,1.83-1.36,3.28-3.19,3.28Z"/><path class="cls-6" d="M522.02,220.78h-1.64c-1.83,0-3.28-1.46-3.28-3.28v-57.37c0-1.83,1.46-3.28,3.28-3.28h1.64c1.83,0,3.28,1.46,3.28,3.28v57.47c-.1,1.83-1.55,3.19-3.28,3.19Z"/><path class="cls-2" d="M509.54,220.78h-8.84c-3.28,0-5.92-2.64-5.92-5.92v-38.98c0-5.73,4.65-10.38,10.38-10.38h0c5.73,0,10.38,4.65,10.38,10.38v38.98c-.1,3.28-2.73,5.92-6.01,5.92h.01Z"/><path class="cls-6" d="M489.97,220.78h-1.64c-1.83,0-3.28-1.46-3.28-3.28v-57.37c0-1.83,1.46-3.28,3.28-3.28h1.64c1.83,0,3.28,1.46,3.28,3.28v57.47c-.1,1.83-1.55,3.19-3.28,3.19Z"/><path class="cls-6" d="M480.22,226.97h-4.55c-1.83,0-3.28-1.46-3.28-3.28v-22.22c0-3.01,2.46-5.47,5.47-5.47h0c3.01,0,5.47,2.46,5.47,5.47v22.22c.1,1.83-1.28,3.28-3.09,3.28h-.01Z"/><path class="cls-17" d="M497.71,176.52c0-4.1,3.37-7.46,7.46-7.46s7.46,3.37,7.46,7.46c-2.19-1.73-3.37-2.36-7.46-2.36s-5.28,.63-7.46,2.36Z"/><path class="cls-16" d="M487.51,218.87h-.27c-.73,0-1.18-.55-1.18-1.18v-34.43c0-.73,.55-1.18,1.18-1.18h.27c.73,0,1.18,.55,1.18,1.18v34.42c0,.63-.55,1.18-1.18,1.18h0Z"/><path class="cls-16" d="M474.67,225.88h0c-.73,0-1.28-.55-1.28-1.18v-17.21c0-.73,.55-1.18,1.28-1.18h0c.73,0,1.28,.55,1.28,1.18v17.21c0,.63-.55,1.18-1.28,1.18Z"/><path class="cls-16" d="M529.13,225.15h0c-.73,0-1.18-.55-1.18-1.18v-16.4c0-.73,.55-1.18,1.18-1.18h0c.73,0,1.18,.55,1.18,1.18v16.4c.1,.63-.45,1.18-1.18,1.18Z"/><path class="cls-16" d="M500.98,219.96h0c-2.91,0-5.28-2.36-5.28-5.28v-9.02c0-.73,.63-1.36,1.36-1.36h1c.37,0,.73,.1,1.1,.27,.37,.18,.63,.63,.73,1.1l1.1,14.3h-.01Z"/><path class="cls-16" d="M513.28,215.95h0c.18,.1,.18,.27,.18,.45-.1,2.73-2.01,3.55-4.82,3.55h-7.74l-.73-8.74c.18,1.83,1,4.37,2.64,4.28h9.2c.55,.1,.91,.18,1.28,.45h0Z"/><ellipse class="cls-18" cx="489.14" cy="154.94" rx="4.55" ry="3.19"/><ellipse class="cls-18" cx="521.2" cy="154.94" rx="4.55" ry="3.19"/><circle class="cls-13" cx="477.94" cy="221.05" r="26.68"/><circle class="cls-15" cx="532.32" cy="221.05" r="26.68"/></g><g id="arrow"><path class="cls-9" d="M416.61,190.94l-56-25.89,6.78,13.45h-63.11s-1.9,6.06-1.9,11.9,1.9,10.59,1.9,10.59h64.31l-7.97,15.84,56-25.89h0Z"/><path class="cls-1" d="M372.29,198.71h-66.38c-.52-1.73-1.27-4.82-1.27-8.31,0-3.68,.82-7.52,1.35-9.61h65.08l-5.5-10.91,45.56,21.06-45.56,21.06,6.69-13.29h.02Z"/><path class="cls-14" d="M377.2,195.7h-68.93c-.31-1.47-.58-3.32-.58-5.29,0-2.3,.37-4.7,.74-6.6h67.58l-3.8-7.56,31.78,14.69-31.78,14.69,5-9.95h0v.02Z"/><path class="cls-3" d="M372.29,198.71h-66.38c-.52-1.73-1.27-4.82-1.27-8.31,0-3.68,.82-7.52,1.35-9.61h65.08l-5.5-10.91,45.56,21.06-45.56,21.06,6.69-13.29h.02Z"/></g><g id="titan"><rect class="cls-11" x="157.72" y="134.17" width="113.56" height="113.56"/><rect class="cls-20" x="161.01" y="137.46" width="107" height="107"/><rect class="cls-19" x="166.2" y="142.64" width="96.61" height="96.61"/><path id="darker-2" class="cls-10" d="M268.01,244.45h-107v-58.65s33.69,5.19,53.45,5.19,53.55-5.19,53.55-5.19v58.65Z"/><polygon class="cls-5" points="215.1 159.4 225.21 180.62 248.52 183.63 231.4 199.74 235.77 222.77 215.1 211.49 194.52 222.77 198.89 199.74 181.77 183.63 205.08 180.62 215.1 159.4"/></g></svg>