<?xml version="1.0" encoding="UTF-8"?><svg id="Layer" xmlns="http://www.w3.org/2000/svg" xmlns:xlink="http://www.w3.org/1999/xlink" viewBox="0 0 721 379.91"><defs><style>.cls-1{fill:url(#linear-gradient-2);}.cls-2{fill:#20201e;}.cls-3,.cls-4,.cls-5{fill:#020303;}.cls-6{fill:#e52922;}.cls-7{fill:url(#linear-gradient-6);}.cls-8{fill:url(#Nowy_wzorek_5);opacity:.1;}.cls-8,.cls-4,.cls-5{isolation:isolate;}.cls-9{fill:#fff;opacity:0;stroke:#1d1d1b;}.cls-9,.cls-10{stroke-miterlimit:10;}.cls-4{opacity:.12;}.cls-11{fill:#3c481e;}.cls-12{fill:#44ac36;}.cls-13{fill:url(#linear-gradient-5);}.cls-14{fill:none;}.cls-15{fill:#ffd110;}.cls-16{fill:url(#linear-gradient-7);}.cls-17{fill:#95c125;}.cls-18{fill:url(#linear-gradient-9);}.cls-19{fill:url(#linear-gradient-3);}.cls-5{opacity:.05;}.cls-20{fill:url(#linear-gradient);}.cls-10{fill:#07562a;stroke:#1c4421;stroke-width:3.28px;}.cls-21{fill:url(#linear-gradient-4);}.cls-22{fill:url(#linear-gradient-8);}</style><linearGradient id="linear-gradient" x1="397.83" y1="610.56" x2="59.5" y2="272.26" gradientTransform="translate(0 -251.46)" gradientUnits="userSpaceOnUse"><stop offset="0" stop-color="#9f9d9c"/><stop offset=".54" stop-color="#030304"/><stop offset="1" stop-color="#9f9d9c"/></linearGradient><linearGradient id="linear-gradient-2" x1="228.73" y1="574.39" x2="228.73" y2="308.45" gradientTransform="translate(0 -251.46)" gradientUnits="userSpaceOnUse"><stop offset="0" stop-color="#482d1d"/><stop offset="1" stop-color="#b18046"/></linearGradient><linearGradient id="linear-gradient-3" x1="228.69" y1="570.71" x2="228.69" y2="311.99" gradientTransform="translate(0 -251.46)" gradientUnits="userSpaceOnUse"><stop offset="0" stop-color="#946137"/><stop offset="1" stop-color="#825329"/></linearGradient><pattern id="Nowy_wzorek_5" x="0" y="0" width="19.7" height="21.7" patternTransform="translate(4 16409.79)" patternUnits="userSpaceOnUse" viewBox="0 0 19.7 21.7"><g><rect class="cls-14" width="19.7" height="21.7"/><g><rect class="cls-14" width="19.7" height="21.7"/><g><rect class="cls-14" width="19.7" height="21.7"/><g><rect class="cls-14" width="19.7" height="21.7"/><g><rect class="cls-14" width="19.7" height="21.7"/><g><rect class="cls-14" width="19.7" height="21.7"/><g><rect class="cls-14" width="19.7" height="21.7"/><g><rect class="cls-14" width="19.7" height="21.7"/><g><rect class="cls-14" width="19.7" height="21.7"/><path class="cls-2" d="M16.6,8.7c2.1,2.1,2.1,5.6,0,7.7l-1.2,1.2c-2.1,2.1-5.6,2.1-7.8,0L3.1,13c-2.1-2.1-2.1-5.6,0-7.7l1.2-1.2c2.1-2.1,5.6-2.1,7.7,0l4.6,4.6Z"/></g></g></g></g></g></g></g></g></g></pattern><linearGradient id="linear-gradient-4" x1="-669.06" y1="1087.49" x2="-600.92" y2="1019.35" gradientTransform="translate(-190.1 -1063.96) rotate(-45)" gradientUnits="userSpaceOnUse"><stop offset="0" stop-color="#951917"/><stop offset=".21" stop-color="#b9231c"/><stop offset=".47" stop-color="#e52922"/><stop offset=".55" stop-color="#e62d28"/><stop offset=".84" stop-color="#e7393a"/><stop offset="1" stop-color="#e83e41"/></linearGradient><linearGradient id="linear-gradient-5" x1="-581.95" y1="1174.61" x2="-513.8" y2="1106.46" xlink:href="#linear-gradient-4"/><linearGradient id="linear-gradient-6" x1="-494.83" y1="1261.73" x2="-426.68" y2="1193.58" xlink:href="#linear-gradient-4"/><linearGradient id="linear-gradient-7" x1="-667.49" y1="1260.93" x2="-599.34" y2="1192.78" gradientTransform="translate(-190.6 -1064.17) rotate(-45)" gradientUnits="userSpaceOnUse"><stop offset="0" stop-color="#0c6835"/><stop offset=".04" stop-color="#0a6b36"/><stop offset=".08" stop-color="#047638"/><stop offset=".13" stop-color="#078738"/><stop offset=".15" stop-color="#058f39"/><stop offset=".35" stop-color="#34993d"/><stop offset=".76" stop-color="#5eaf47"/><stop offset="1" stop-color="#6eb74a"/></linearGradient><linearGradient id="linear-gradient-8" x1="-433.84" y1="1411.85" x2="-365.69" y2="1343.7" gradientTransform="translate(-190.6 -1064.17) rotate(-45)" gradientUnits="userSpaceOnUse"><stop offset="0" stop-color="#3c481e"/><stop offset=".14" stop-color="#4a5d23"/><stop offset=".42" stop-color="#68842b"/><stop offset=".66" stop-color="#80a42a"/><stop offset=".86" stop-color="#8fb923"/><stop offset="1" stop-color="#95c125"/></linearGradient><linearGradient id="linear-gradient-9" x1="-350.45" y1="1495.24" x2="-282.31" y2="1427.09" xlink:href="#linear-gradient-8"/></defs><rect class="cls-9" x=".5" y=".5" width="720" height="378.91"/><g><g id="prodBg"><rect id="external-border" class="cls-20" x="27.38" y="52.93" width="402.57" height="274.04"/><rect id="internal-border" class="cls-1" x="31.43" y="56.99" width="394.6" height="265.94"/><rect id="bg" class="cls-19" x="35" y="60.54" width="387.38" height="258.72"/><rect id="bgPattern" class="cls-8" x="35" y="60.54" width="387.38" height="258.72"/></g><g id="heat"><rect class="cls-3" x="54.63" y="78.78" width="102.28" height="102.28"/><rect class="cls-21" x="57.59" y="81.74" width="96.37" height="96.37"/><rect class="cls-6" x="62.26" y="86.41" width="87.03" height="87.03"/><path id="darker" class="cls-5" d="M153.96,178.11H57.59v-52.82s30.34,4.67,48.15,4.67,48.23-4.67,48.23-4.67v52.82h0Z"/><g><polygon class="cls-15" points="94.91 134.39 83.92 124.88 83.92 124.88 83.92 95.84 72.93 125.46 84 134.8 84 134.8 83.92 164 94.91 134.39"/><polygon class="cls-15" points="116.81 134.39 105.81 124.88 105.74 124.88 105.81 95.84 94.82 125.46 105.81 134.8 105.81 134.8 105.81 164 116.81 134.39"/><polygon class="cls-15" points="139.28 134.39 128.29 124.88 128.21 124.88 128.29 95.84 117.3 125.46 128.29 134.8 128.29 134.8 128.29 164 139.28 134.39"/></g></g><g id="heat-2"><rect class="cls-3" x="177.84" y="78.78" width="102.28" height="102.28"/><rect class="cls-13" x="180.79" y="81.74" width="96.37" height="96.37"/><rect class="cls-6" x="185.47" y="86.41" width="87.03" height="87.03"/><path id="darker-2" class="cls-5" d="M277.16,178.11h-96.37v-52.82s30.34,4.67,48.15,4.67,48.23-4.67,48.23-4.67v52.82h0Z"/><g><polygon class="cls-15" points="218.11 134.39 207.12 124.88 207.12 124.88 207.12 95.84 196.13 125.46 207.2 134.8 207.2 134.8 207.12 164 218.11 134.39"/><polygon class="cls-15" points="240.01 134.39 229.02 124.88 228.94 124.88 229.02 95.84 218.03 125.46 229.02 134.8 229.02 134.8 229.02 164 240.01 134.39"/><polygon class="cls-15" points="262.49 134.39 251.49 124.88 251.42 124.88 251.49 95.84 240.5 125.46 251.49 134.8 251.49 134.8 251.49 164 262.49 134.39"/></g></g><g id="heat-3"><rect class="cls-3" x="301.04" y="78.78" width="102.28" height="102.28"/><rect class="cls-7" x="304" y="81.74" width="96.37" height="96.37"/><rect class="cls-6" x="308.67" y="86.41" width="87.03" height="87.03"/><path id="darker-3" class="cls-5" d="M400.37,178.11h-96.37v-52.82s30.34,4.67,48.15,4.67,48.23-4.67,48.23-4.67v52.82h0Z"/><g><polygon class="cls-15" points="341.32 134.39 330.33 124.88 330.33 124.88 330.33 95.84 319.34 125.46 330.41 134.8 330.41 134.8 330.33 164 341.32 134.39"/><polygon class="cls-15" points="363.21 134.39 352.22 124.88 352.14 124.88 352.22 95.84 341.23 125.46 352.22 134.8 352.22 134.8 352.22 164 363.21 134.39"/><polygon class="cls-15" points="385.69 134.39 374.7 124.88 374.62 124.88 374.7 95.84 363.71 125.46 374.7 134.8 374.7 134.8 374.7 164 385.69 134.39"/></g></g><g id="plant"><rect class="cls-3" x="177.88" y="200.08" width="102.28" height="102.28"/><rect class="cls-16" x="180.83" y="203.04" width="96.37" height="96.37"/><rect class="cls-12" x="185.51" y="207.71" width="87.02" height="87.02"/><path id="leaf" class="cls-10" d="M228.98,229.2c-12.47,1.72-21.98,9.84-21.98,21.98,0,2.95,.57,5.82,1.64,8.45-2.3,1.56-5.66,3.61-7.3,4.18-2.87,.98-8.61,.33-8.86,.82s1.64,5.66,2.3,5.91,5.91,.25,8.86-.82c2.13-.74,5.99-3.2,8.2-4.84,4.02,5.09,10.25,8.28,17.22,8.28,12.14,0,21.82-7.63,21.82-19.77,0-4.68,1.15-10.58,2.87-14.27,1.89-4.1,11.65-6.73,11.65-6.73-.98-3.2-31.5-3.85-36.42-3.2Z"/><path id="darker-4" class="cls-5" d="M277.2,299.41h-96.37v-52.82s30.35,4.68,48.14,4.68,48.23-4.68,48.23-4.68v52.82Z"/></g><g id="microbe"><rect class="cls-3" x="449.81" y="141.59" width="102.28" height="102.28"/><rect class="cls-22" x="452.76" y="144.54" width="96.37" height="96.37"/><rect class="cls-17" x="457.44" y="149.21" width="87.02" height="87.02"/><g id="microbes"><polygon class="cls-11" points="502.06 201.46 497.96 201.95 498.53 206.05 494.43 205.4 493.77 209.5 490.08 207.61 488.28 211.3 485.24 208.43 482.46 211.47 480.4 207.86 476.8 209.83 475.98 205.81 471.96 206.71 472.28 202.61 468.18 202.2 469.74 198.43 465.97 196.87 468.59 193.67 465.4 191.04 468.84 188.75 466.54 185.38 470.48 184.24 469.33 180.22 473.43 180.3 473.52 176.2 477.45 177.43 478.68 173.57 482.05 175.87 484.42 172.51 486.97 175.79 490.16 173.25 491.64 177.1 495.5 175.71 495.74 179.81 499.84 179.56 498.86 183.58 502.88 184.48 500.75 188.01 504.35 190.14 501.24 192.93 504.03 195.97 500.25 197.69 502.06 201.46"/><polygon class="cls-11" points="537.41 184.97 536.01 185.47 536.01 187.35 533.88 186.7 532.57 187.93 530.44 186.53 528.3 187.11 522.32 187.93 519.77 187.68 517.15 182.68 514.2 181.78 511.82 179.23 508.95 177.84 506.73 175.13 504.03 173.9 502.39 170.87 500.09 168.9 499.19 166.6 497.55 164.8 497.38 162.91 495.99 161.27 497.14 160.04 497.22 158.24 498.45 158.32 499.6 157.01 501.32 157.74 504.11 155.12 506.24 156.68 508.7 156.84 511.16 158.65 514.03 159.47 515.59 163.49 518.71 164.72 520.84 167.34 523.79 168.98 525.6 171.52 528.39 173.41 532.98 175.87 535.19 178 535.52 179.81 537 181.61 536.59 183.17 537.41 184.97"/><polygon class="cls-11" points="532.81 204.58 533.14 205.07 533.72 206.3 532.57 207.04 532.65 208.43 529.86 209.5 528.71 211.3 525.27 214.67 521.41 216.47 516.33 217.95 513.29 219.83 509.19 220.73 505.75 222.38 501.73 223.11 498.53 224.67 494.68 224.84 491.23 225.9 488.52 225.82 485.74 226.48 483.93 225.98 481.39 226.39 481.22 225.16 480.49 224.84 480.65 223.61 480.49 222.38 482.37 221.39 482.21 218.44 485.24 217.37 487.21 215.65 490.66 214.5 494.68 213.44 498.28 212.86 501.73 210.89 505.67 210.24 509.36 208.68 512.97 208.1 516.74 206.71 522.4 204.09 526.01 203.26 527.81 203.59 530.52 203.1 531.5 203.92 532.81 204.58"/></g><path id="darker-5" class="cls-4" d="M549.14,240.91h-96.37v-52.82s30.35,4.68,48.14,4.68,48.23-4.68,48.23-4.68v52.82Z"/></g><g id="microbe-2"><rect class="cls-3" x="567.74" y="141.59" width="102.28" height="102.28"/><rect class="cls-18" x="570.69" y="144.54" width="96.37" height="96.37"/><rect class="cls-17" x="575.36" y="149.21" width="87.02" height="87.02"/><g id="microbes-2"><polygon class="cls-11" points="619.98 201.46 615.88 201.95 616.45 206.05 612.35 205.4 611.7 209.5 608.01 207.61 606.2 211.3 603.17 208.43 600.38 211.47 598.33 207.86 594.72 209.83 593.9 205.81 589.88 206.71 590.21 202.61 586.11 202.2 587.67 198.43 583.89 196.87 586.52 193.67 583.32 191.04 586.76 188.75 584.47 185.38 588.4 184.24 587.26 180.22 591.36 180.3 591.44 176.2 595.38 177.43 596.61 173.57 599.97 175.87 602.35 172.51 604.89 175.79 608.09 173.25 609.57 177.1 613.42 175.71 613.67 179.81 617.77 179.56 616.78 183.58 620.8 184.48 618.67 188.01 622.28 190.14 619.16 192.93 621.95 195.97 618.18 197.69 619.98 201.46"/><polygon class="cls-11" points="655.33 184.97 653.94 185.47 653.94 187.35 651.8 186.7 650.49 187.93 648.36 186.53 646.23 187.11 640.24 187.93 637.7 187.68 635.07 182.68 632.12 181.78 629.74 179.23 626.87 177.84 624.66 175.13 621.95 173.9 620.31 170.87 618.01 168.9 617.11 166.6 615.47 164.8 615.31 162.91 613.91 161.27 615.06 160.04 615.14 158.24 616.37 158.32 617.52 157.01 619.24 157.74 622.03 155.12 624.16 156.68 626.62 156.84 629.09 158.65 631.96 159.47 633.51 163.49 636.63 164.72 638.76 167.34 641.72 168.98 643.52 171.52 646.31 173.41 650.9 175.87 653.12 178 653.44 179.81 654.92 181.61 654.51 183.17 655.33 184.97"/><polygon class="cls-11" points="650.74 204.58 651.07 205.07 651.64 206.3 650.49 207.04 650.57 208.43 647.79 209.5 646.64 211.3 643.19 214.67 639.34 216.47 634.25 217.95 631.22 219.83 627.12 220.73 623.67 222.38 619.65 223.11 616.45 224.67 612.6 224.84 609.15 225.9 606.45 225.82 603.66 226.48 601.86 225.98 599.31 226.39 599.15 225.16 598.41 224.84 598.57 223.61 598.41 222.38 600.3 221.39 600.13 218.44 603.17 217.37 605.14 215.65 608.58 214.5 612.6 213.44 616.21 212.86 619.65 210.89 623.59 210.24 627.28 208.68 630.89 208.1 634.66 206.71 640.32 204.09 643.93 203.26 645.74 203.59 648.44 203.1 649.43 203.92 650.74 204.58"/></g><path id="darker-6" class="cls-4" d="M667.06,240.91h-96.37v-52.82s30.35,4.68,48.14,4.68,48.23-4.68,48.23-4.68v52.82Z"/></g><path d="M695.75,158.81l-10-1.25,2.3-7.07,8.81,4.88c-.76,.83-1.14,1.75-1.14,2.74,0,.16,.01,.39,.03,.69Zm3.13,2.75l-4.3,9.14-5.98-4.37,7.36-6.92c.64,1.17,1.61,1.89,2.92,2.14Zm-3.4-16.47h7.43l-1.89,9.9c-.62-.3-1.23-.45-1.82-.45s-1.19,.15-1.79,.45l-1.93-9.9Zm7,14.32l7.36,6.92-6.02,4.37-4.26-9.14c1.28-.25,2.26-.97,2.92-2.14Zm-.93-4.04l8.84-4.88,2.27,7.07-10,1.25c.05-.3,.07-.53,.07-.69,0-1-.39-1.91-1.17-2.74Z"/></g></svg>