<?xml version="1.0" encoding="UTF-8"?><svg id="Layer" xmlns="http://www.w3.org/2000/svg" xmlns:xlink="http://www.w3.org/1999/xlink" viewBox="0 0 721 379.91"><defs><style>.cls-1{stroke:url(#linear-gradient-3);}.cls-1,.cls-2,.cls-3,.cls-4,.cls-5,.cls-6{stroke-miterlimit:10;}.cls-1,.cls-4,.cls-5{stroke-width:.96px;}.cls-1,.cls-5{fill:#e21c1f;}.cls-7{fill:#030404;}.cls-8{fill:#20201e;}.cls-2{stroke-width:.3px;}.cls-2,.cls-4{stroke:#20201e;}.cls-2,.cls-4,.cls-9{fill:none;}.cls-10{fill:url(#linear-gradient-6);}.cls-11{fill:#4aae40;}.cls-12{fill:url(#Nowy_wzorek_5);isolation:isolate;opacity:.1;}.cls-3{fill:#fff;opacity:0;stroke:#1d1d1b;}.cls-13{fill:url(#linear-gradient-10);}.cls-14{fill:url(#radial-gradient);}.cls-15{fill:url(#linear-gradient-5);}.cls-5{stroke:url(#linear-gradient-2);}.cls-6{fill:#010202;stroke:#030304;stroke-width:1.89px;}.cls-16{fill:url(#linear-gradient-7);}.cls-17{fill:url(#linear-gradient-9);}.cls-18{fill:url(#linear-gradient);}.cls-19{fill:url(#linear-gradient-4);}.cls-20{fill:#010101;}.cls-21{fill:url(#linear-gradient-8);}</style><linearGradient id="linear-gradient" x1="484.82" y1="267.31" x2="484.82" y2="123.07" gradientTransform="translate(0 -3.59)" gradientUnits="userSpaceOnUse"><stop offset="0" stop-color="#136b38"/><stop offset=".15" stop-color="#149138"/><stop offset=".62" stop-color="#28a138"/><stop offset=".65" stop-color="#2da43b"/><stop offset=".84" stop-color="#50af46"/><stop offset="1" stop-color="#5ab249"/></linearGradient><radialGradient id="radial-gradient" cx="549.16" cy="159.05" fx="549.16" fy="159.05" r="19.52" gradientTransform="translate(0 -3.59)" gradientUnits="userSpaceOnUse"><stop offset="0" stop-color="#f6ee89"/><stop offset=".78" stop-color="#f6ee89"/><stop offset=".91" stop-color="#f6ee89"/><stop offset=".91" stop-color="#f7ef89"/><stop offset=".94" stop-color="#faf4b7"/><stop offset=".96" stop-color="#fdfae0"/><stop offset=".97" stop-color="#fefcf3"/><stop offset=".99" stop-color="#fff"/><stop offset="1" stop-color="#fff"/></radialGradient><linearGradient id="linear-gradient-2" x1="550.7" y1="167.08" x2="539.61" y2="155.97" gradientTransform="translate(0 -3.59)" gradientUnits="userSpaceOnUse"><stop offset="0" stop-color="#5f1714"/><stop offset=".1" stop-color="#611912"/><stop offset=".26" stop-color="#742d24"/><stop offset=".48" stop-color="#934f46"/><stop offset=".73" stop-color="#c08a82"/><stop offset="1" stop-color="#fbdede"/></linearGradient><linearGradient id="linear-gradient-3" x1="558.64" y1="161.72" x2="547.52" y2="150.6" xlink:href="#linear-gradient-2"/><linearGradient id="linear-gradient-4" x1="324.11" y1="-154.92" x2="146.56" y2="22.64" gradientTransform="translate(0 127.45) scale(1 -1)" gradientUnits="userSpaceOnUse"><stop offset="0" stop-color="#9f9d9c"/><stop offset=".54" stop-color="#020303"/><stop offset="1" stop-color="#9f9d9c"/></linearGradient><linearGradient id="linear-gradient-5" x1="235.41" y1="-149.53" x2="235.41" y2="17.23" gradientTransform="translate(0 127.45) scale(1 -1)" gradientUnits="userSpaceOnUse"><stop offset="0" stop-color="#472d1c"/><stop offset="1" stop-color="#b18047"/></linearGradient><linearGradient id="linear-gradient-6" x1="235.34" y1="-145.36" x2="235.34" y2="13.19" gradientTransform="translate(0 127.45) scale(1 -1)" gradientUnits="userSpaceOnUse"><stop offset="0" stop-color="#946137"/><stop offset="1" stop-color="#815228"/></linearGradient><pattern id="Nowy_wzorek_5" x="0" y="0" width="19.7" height="21.7" patternTransform="translate(43.4 -32285.17) scale(1 -1)" patternUnits="userSpaceOnUse" viewBox="0 0 19.7 21.7"><g><rect class="cls-9" width="19.7" height="21.7"/><g><rect class="cls-9" width="19.7" height="21.7"/><g><rect class="cls-9" width="19.7" height="21.7"/><g><rect class="cls-9" width="19.7" height="21.7"/><g><rect class="cls-9" width="19.7" height="21.7"/><g><rect class="cls-9" width="19.7" height="21.7"/><path class="cls-8" d="M16.6,13c2.1-2.1,2.1-5.6,0-7.7l-1.2-1.2c-2.1-2.1-5.6-2.1-7.8,0L3.1,8.7c-2.1,2.1-2.1,5.6,0,7.7l1.2,1.2c2.1,2.1,5.6,2.1,7.7,0l4.6-4.6Z"/></g></g></g></g></g></g></pattern><linearGradient id="linear-gradient-7" x1="235.38" y1="263.19" x2="235.38" y2="154.69" gradientTransform="translate(0 -15.82)" gradientUnits="userSpaceOnUse"><stop offset=".16" stop-color="#823a13"/><stop offset=".18" stop-color="#985c1a"/><stop offset=".22" stop-color="#ae7d22"/><stop offset=".26" stop-color="#c39d26"/><stop offset=".3" stop-color="#d6b92e"/><stop offset=".35" stop-color="#e4cf36"/><stop offset=".41" stop-color="#efe036"/><stop offset=".48" stop-color="#f6e947"/><stop offset=".58" stop-color="#f8ea4e"/><stop offset=".86" stop-color="#f6ea4d"/><stop offset="1" stop-color="#fcf4f9"/></linearGradient><linearGradient id="linear-gradient-8" x1="235.38" y1="148.91" x2="235.38" y2="314.75" gradientTransform="translate(0 -15.82)" gradientUnits="userSpaceOnUse"><stop offset=".26" stop-color="#f6ea4d"/><stop offset=".86" stop-color="#803813"/></linearGradient><linearGradient id="linear-gradient-9" x1="235.42" y1="261.68" x2="235.42" y2="156.29" gradientTransform="translate(0 -15.82)" gradientUnits="userSpaceOnUse"><stop offset=".16" stop-color="#803813"/><stop offset=".17" stop-color="#8c471e"/><stop offset=".18" stop-color="#a26b3c"/><stop offset=".2" stop-color="#b78954"/><stop offset=".22" stop-color="#c7a468"/><stop offset=".24" stop-color="#d7bb7a"/><stop offset=".26" stop-color="#e2cc88"/><stop offset=".3" stop-color="#ead891"/><stop offset=".34" stop-color="#eede97"/><stop offset=".46" stop-color="#efe097"/><stop offset=".7" stop-color="#803813"/><stop offset=".73" stop-color="#e6d234"/><stop offset=".74" stop-color="#ebd948"/><stop offset=".75" stop-color="#eede6d"/><stop offset=".77" stop-color="#f0e28a"/><stop offset=".79" stop-color="#f8ebaa"/><stop offset=".8" stop-color="#f8edbf"/><stop offset=".83" stop-color="#faf0cf"/><stop offset=".85" stop-color="#fcf2da"/><stop offset=".89" stop-color="#fdf4e1"/><stop offset=".99" stop-color="#fdf5e3"/></linearGradient><linearGradient id="linear-gradient-10" x1="235.39" y1="171.75" x2="235.39" y2="334.42" gradientTransform="translate(0 -15.82)" gradientUnits="userSpaceOnUse"><stop offset=".26" stop-color="#f6ea4d"/><stop offset=".77" stop-color="#803813"/></linearGradient></defs><rect class="cls-3" x=".5" y=".5" width="720" height="378.91"/><g id="greenery"><polygon class="cls-7" points="484.87 267.14 419.44 229.35 419.44 153.96 484.87 116.06 550.29 153.96 550.29 229.35 484.87 267.14"/><polygon class="cls-18" points="484.87 263.72 422.34 227.63 422.34 155.57 484.87 119.48 547.3 155.57 547.3 227.63 484.87 263.72"/><polygon class="cls-11" points="484.87 258.58 426.94 225.06 426.94 158.25 484.87 124.73 542.8 158.25 542.8 225.06 484.87 258.58"/><path class="cls-8" d="M494.08,235.77c-.64,.64-13.6-.75-15.74,0-1.07,1.07,1.71-3.64,1.71-6.21v-46.69h9.64v47.33c.11,2.68,4.93,4.93,4.39,5.57h0Z"/><path class="cls-8" d="M490.54,164.14c7.39,8.78,8.57,20.13,2.57,25.16s-16.81,1.93-24.31-6.85c-7.39-8.78-8.57-20.13-2.57-25.16,6-5.03,16.92-2.03,24.31,6.85Z"/><path class="cls-8" d="M483.16,181.7c0,6.64-7.6,11.89-17.03,11.89s-17.03-5.25-17.03-11.89,7.6-11.89,17.03-11.89,17.03,5.25,17.03,11.89Z"/><path class="cls-8" d="M511.85,166.06c2.46,11.67-2.25,22.59-10.39,24.31-8.14,1.71-16.92-6.21-19.38-17.88s2.25-22.59,10.39-24.31c8.24-1.93,16.92,6.21,19.38,17.88Z"/><path class="cls-8" d="M516.99,185.12c-1.61,5.46-9.21,7.92-17.13,5.78-8.03-2.36-13.17-8.46-11.56-14.03,1.61-5.35,9.21-8.03,17.13-5.78,8.03,2.36,13.17,8.57,11.56,14.03Z"/><path class="cls-8" d="M510.25,190.69c-.11,1.18-5.89,1.71-13.06,1.18-7.07-.54-12.85-1.82-12.74-3.11s5.89-1.71,13.06-1.18c7.07,.54,12.85,1.93,12.74,3.11Z"/></g><g id="oxIcon"><path class="cls-14" d="M568.71,155.46c0,10.81-8.78,19.49-19.49,19.49s-19.6-8.67-19.6-19.49,8.78-19.49,19.6-19.49,19.49,8.78,19.49,19.49Z"/><path class="cls-4" d="M568.71,155.46c0,10.81-8.78,19.49-19.49,19.49s-19.6-8.67-19.6-19.49,8.78-19.49,19.49-19.49,19.6,8.78,19.6,19.49Z"/><path class="cls-2" d="M566.46,155.46c0,9.53-7.71,17.24-17.24,17.24s-17.24-7.71-17.24-17.24,7.71-17.24,17.24-17.24,17.24,7.71,17.24,17.24Z"/><path class="cls-5" d="M552.54,157.92c0,4.07-3.32,7.39-7.39,7.39s-7.39-3.32-7.39-7.39,3.32-7.39,7.39-7.39,7.39,3.32,7.39,7.39Z"/><path class="cls-1" d="M560.47,152.57c0,4.07-3.32,7.39-7.39,7.39s-7.39-3.32-7.39-7.39,3.32-7.39,7.39-7.39,7.39,3.32,7.39,7.39Z"/></g><g id="prodBg"><rect id="external-border" class="cls-19" x="145.76" y="105.61" width="179.15" height="175.96"/><rect id="internal-border" class="cls-15" x="150.37" y="110.22" width="170.09" height="166.76"/><rect id="bg" class="cls-10" x="154.4" y="114.26" width="161.89" height="158.55"/><rect id="bgPattern" class="cls-12" x="154.4" y="114.26" width="161.89" height="158.55"/></g><g id="mln"><polygon id="obram_czarne" class="cls-6" points="195.23 135.57 177.79 153.01 177.79 233.23 195.23 250.67 275.54 250.67 292.89 233.23 292.89 153.01 275.54 135.57 195.23 135.57"/><polygon id="obram_zolte" class="cls-16" points="197.49 138.87 181.18 155.27 181.18 230.97 197.49 247.37 273.18 247.37 289.59 230.97 289.59 155.27 273.18 138.87 197.49 138.87"/><polygon id="tlo_wew" class="cls-21" points="198.62 140.47 182.69 156.4 182.69 229.83 198.62 245.77 272.15 245.77 288.08 229.83 288.08 156.4 272.15 140.47 198.62 140.47"/><path id="obram_skosne" class="cls-17" d="M280.44,213.43c-2.92,0-5.28-2.36-5.28-5.28v-30.07c0-2.92,2.36-5.28,5.28-5.28h7.54v-16.4l-15.84-15.93h-16.5v7.54c0,2.92-2.36,5.28-5.28,5.28h-30.07c-2.92,0-5.28-2.36-5.28-5.28v-7.54h-16.4l-15.93,15.93v16.5h7.54c2.92,0,5.28,2.36,5.28,5.28v30.07c0,2.92-2.36,5.28-5.28,5.28h-7.54v16.4l15.93,15.93h16.5v-7.54c0-2.92,2.36-5.28,5.28-5.28h30.07c2.92,0,5.28,2.36,5.28,5.28v7.54h16.5l15.93-15.93v-16.5h-7.73Z"/><path id="tlo_zew" class="cls-13" d="M280.16,215.22c-3.58,0-6.5-3.58-6.5-7.16v-29.88c0-3.58,2.92-7.16,6.5-7.16h6.13v-13.39l-15.46-15.37h-13.29v6.13c0,3.58-3.58,6.5-7.16,6.5h-29.88c-3.58,0-7.16-2.92-7.16-6.5v-6.13h-13.48l-15.37,15.37v13.39h6.13c3.58,0,6.5,3.58,6.5,7.16v29.88c0,3.58-2.92,7.16-6.5,7.16h-6.13v13.39l15.37,15.37h13.39v-6.13c0-3.58,3.58-6.5,7.16-6.5h29.79c3.58,0,7.16,2.92,7.16,6.5v6.13h13.39l15.37-15.37v-13.39h-5.96Z"/></g><path class="cls-20" d="M219.13,218.28v-8c3.05-4.1,6.01-7.41,8.88-9.91l4.13-3.66c2.96-2.62,5.4-5.21,7.34-7.78,1.93-2.56,2.9-5.25,2.9-8.05,0-2.53-.82-4.48-2.44-5.86-1.63-1.38-3.83-2.07-6.61-2.07-3.69,0-7.99,1.25-12.89,3.76v-7.42c5.14-1.91,10.12-2.87,14.92-2.87,5.3,0,9.59,1.27,12.85,3.81,3.27,2.54,4.9,5.94,4.9,10.2,0,2.69-.69,5.22-2.07,7.6s-4.24,5.33-8.59,8.84l-3.41,2.73c-1.5,1.21-3.14,2.76-4.93,4.65-1.78,1.89-2.96,3.9-3.53,6.02h22.32v8h-33.77Z"/></svg>