<?xml version="1.0" encoding="UTF-8"?><svg id="Layer" xmlns="http://www.w3.org/2000/svg" xmlns:xlink="http://www.w3.org/1999/xlink" viewBox="0 0 721 379.91"><defs><style>.cls-1{fill:url(#linear-gradient);opacity:.4;}.cls-1,.cls-2,.cls-3,.cls-4{isolation:isolate;}.cls-5{fill:url(#linear-gradient-2);}.cls-6,.cls-2{fill:#030404;}.cls-7{fill:none;stroke:#fff;}.cls-7,.cls-8,.cls-9,.cls-10,.cls-11{stroke-miterlimit:10;}.cls-7,.cls-8,.cls-11{stroke-width:2.81px;}.cls-2{opacity:.05;}.cls-12{fill:#114490;}.cls-13{fill:#1b2b4c;}.cls-8{fill:url(#linear-gradient-4);}.cls-8,.cls-11{stroke:#030304;}.cls-9{fill:#fff;opacity:0;stroke:#1d1d1b;}.cls-3{fill:url(#linear-gradient-7);}.cls-3,.cls-4{opacity:.5;}.cls-14{fill:url(#radial-gradient);}.cls-15{fill:#3d5da7;}.cls-4{fill:url(#linear-gradient-5);}.cls-16{fill:#82a3d6;}.cls-17{fill:#4eae3b;}.cls-10{fill:#10592a;stroke:#1f4524;stroke-width:3.68px;}.cls-18{fill:url(#radial-gradient-2);}.cls-11{fill:url(#linear-gradient-6);}.cls-19{fill:#7ca5d8;}.cls-20{fill:url(#linear-gradient-9);}.cls-21{fill:#93c6ec;}.cls-22{fill:url(#linear-gradient-3);}.cls-23{fill:#1d1d1b;}.cls-24{fill:#010101;}.cls-25{fill:url(#linear-gradient-8);}</style><linearGradient id="linear-gradient" x1="397.63" y1="611.4" x2="397.63" y2="472.89" gradientTransform="translate(0 -235.46)" gradientUnits="userSpaceOnUse"><stop offset="0" stop-color="#ffdc15"/><stop offset="0" stop-color="#ffdb16"/><stop offset=".05" stop-color="#f9bc27"/><stop offset=".1" stop-color="#f59e22"/><stop offset=".16" stop-color="#ef7c21"/><stop offset=".22" stop-color="#e96411"/><stop offset=".27" stop-color="#e94d23"/><stop offset=".34" stop-color="#e63c24"/><stop offset=".41" stop-color="#e63725"/><stop offset=".5" stop-color="#e63525"/><stop offset=".59" stop-color="#e63725"/><stop offset=".66" stop-color="#e63c24"/><stop offset=".73" stop-color="#e94d23"/><stop offset=".78" stop-color="#e96411"/><stop offset=".84" stop-color="#ef7c21"/><stop offset=".9" stop-color="#f59e22"/><stop offset=".95" stop-color="#f9bc27"/><stop offset="1" stop-color="#ffdb16"/><stop offset="1" stop-color="#ffdc15"/></linearGradient><linearGradient id="linear-gradient-2" x1="397.65" y1="606.3" x2="397.65" y2="477.99" xlink:href="#linear-gradient"/><linearGradient id="linear-gradient-3" x1="-589.81" y1="1420.88" x2="-513.24" y2="1344.31" gradientTransform="translate(-189.92 -1060.78) rotate(-45)" gradientUnits="userSpaceOnUse"><stop offset="0" stop-color="#136b38"/><stop offset=".04" stop-color="#176d39"/><stop offset=".08" stop-color="#0e793b"/><stop offset=".13" stop-color="#188937"/><stop offset=".15" stop-color="#149138"/><stop offset=".35" stop-color="#3a9a3d"/><stop offset=".76" stop-color="#63b24a"/><stop offset="1" stop-color="#70b74b"/></linearGradient><linearGradient id="linear-gradient-4" x1="115.7" y1="272.25" x2="115.7" y2="74.49" gradientTransform="translate(0 -67.82)" gradientUnits="userSpaceOnUse"><stop offset=".08" stop-color="#47c0f0"/><stop offset=".15" stop-color="#52a5d5"/><stop offset=".23" stop-color="#5d85b4"/><stop offset=".3" stop-color="#626a9c"/><stop offset=".37" stop-color="#67568c"/><stop offset=".42" stop-color="#684981"/><stop offset=".46" stop-color="#68457e"/><stop offset=".55" stop-color="#923e61"/><stop offset=".67" stop-color="#b7323c"/><stop offset=".75" stop-color="#cc2321"/><stop offset=".79" stop-color="#d41a1c"/></linearGradient><linearGradient id="linear-gradient-5" x1="107.6" y1="237.02" x2="96.94" y2="226.36" gradientTransform="translate(0 -67.82)" gradientUnits="userSpaceOnUse"><stop offset="0" stop-color="#1f1f1e" stop-opacity="0"/><stop offset="1" stop-color="#fff"/></linearGradient><linearGradient id="linear-gradient-6" x1="200.2" x2="200.2" xlink:href="#linear-gradient-4"/><linearGradient id="linear-gradient-7" x1="192.1" y1="237.02" x2="181.44" y2="226.36" xlink:href="#linear-gradient-5"/><linearGradient id="linear-gradient-8" x1="348.89" y1="159.67" x2="348.89" y2="347.39" gradientTransform="translate(0 359.09) scale(1 -1)" gradientUnits="userSpaceOnUse"><stop offset="0" stop-color="#c1dcf4"/><stop offset="1" stop-color="#255286"/></linearGradient><radialGradient id="radial-gradient" cx="348.73" cy="241.79" fx="348.73" fy="241.79" r="81.41" gradientTransform="translate(0 359.09) scale(1 -1)" gradientUnits="userSpaceOnUse"><stop offset="0" stop-color="#fff" stop-opacity=".7"/><stop offset=".13" stop-color="#f8fafd" stop-opacity=".68"/><stop offset=".28" stop-color="#e4e9f7" stop-opacity=".62"/><stop offset=".44" stop-color="#c2cdea" stop-opacity=".53"/><stop offset=".62" stop-color="#93a7d6" stop-opacity=".4"/><stop offset=".79" stop-color="#5673b7" stop-opacity=".23"/><stop offset=".98" stop-color="#2c4f9e" stop-opacity=".03"/><stop offset="1" stop-color="#2b4b9b" stop-opacity="0"/></radialGradient><linearGradient id="linear-gradient-9" x1="548.89" x2="548.89" xlink:href="#linear-gradient-8"/><radialGradient id="radial-gradient-2" cx="548.73" fx="548.73" r="81.41" xlink:href="#radial-gradient"/></defs><rect class="cls-9" x=".5" y=".5" width="720" height="378.91"/><g id="plant"><rect class="cls-1" x="328.38" y="237.43" width="138.51" height="138.51"/><rect class="cls-5" x="333.5" y="242.53" width="128.31" height="128.31"/><rect class="cls-6" x="340.29" y="249.4" width="114.91" height="114.91"/><rect class="cls-22" x="343.6" y="252.7" width="108.29" height="108.29"/><rect class="cls-17" x="348.85" y="257.95" width="97.77" height="97.77"/><path id="leaf" class="cls-10" d="M397.69,282.1c-14,1.94-24.7,11.07-24.7,24.7,0,3.31,.65,6.54,1.84,9.5-2.59,1.74-6.37,4.05-8.21,4.7-3.23,1.09-9.67,.37-9.95,.92s1.84,6.37,2.59,6.64,6.64,.27,9.95-.92c2.39-.82,6.72-3.61,9.23-5.45,4.53,5.72,11.52,9.3,19.35,9.3,13.63,0,24.52-8.58,24.52-22.21,0-5.25,1.29-11.89,3.23-16.04,2.11-4.6,13.08-7.56,13.08-7.56-1.09-3.61-35.39-4.33-40.91-3.61h0l-.02,.02h0Z"/><path id="darker" class="cls-2" d="M451.89,360.99h-108.29v-59.34s34.1,5.25,54.1,5.25,54.19-5.25,54.19-5.25v59.34Z"/></g><path class="cls-24" d="M226.12,312.48v-13.64h32.74v13.64h-32.74Z"/><g id="tempIcon"><path class="cls-8" d="M128.81,151.94V19.8c0-7.16-5.97-13.12-13.12-13.12s-13.12,5.97-13.12,13.12V151.64c-8.65,4.77-14.91,14.02-14.91,24.76,0,15.51,12.53,28.04,28.04,28.04s28.04-12.53,28.04-28.04c0-10.74-5.97-19.99-14.91-24.46h-.02Z"/><line class="cls-7" x1="110.02" y1="35.31" x2="121.65" y2="35.31"/><line class="cls-7" x1="110.02" y1="72" x2="121.65" y2="72"/><line class="cls-7" x1="110.02" y1="105.4" x2="121.65" y2="105.4"/><line class="cls-7" x1="110.02" y1="136.43" x2="121.65" y2="136.43"/><line class="cls-7" x1="110.02" y1="175.8" x2="121.65" y2="175.8"/><path class="cls-4" d="M107.63,168.94c-4.18,4.47-10.14,5.37-13.12,2.68-2.98-2.98-1.79-8.95,2.39-13.12s10.14-5.37,13.12-2.39,2.09,8.65-2.39,12.83Z"/></g><g id="tempIcon-2"><path class="cls-11" d="M213.31,151.94V19.8c0-7.16-5.97-13.12-13.12-13.12s-13.12,5.97-13.12,13.12V151.64c-8.65,4.77-14.91,14.02-14.91,24.76,0,15.51,12.53,28.04,28.04,28.04s28.04-12.53,28.04-28.04c0-10.74-5.97-19.99-14.91-24.46h-.02Z"/><line class="cls-7" x1="194.52" y1="35.31" x2="206.15" y2="35.31"/><line class="cls-7" x1="194.52" y1="72" x2="206.15" y2="72"/><line class="cls-7" x1="194.52" y1="105.4" x2="206.15" y2="105.4"/><line class="cls-7" x1="194.52" y1="136.43" x2="206.15" y2="136.43"/><line class="cls-7" x1="194.52" y1="175.8" x2="206.15" y2="175.8"/><path class="cls-3" d="M192.13,168.94c-4.18,4.47-10.14,5.37-13.12,2.68-2.98-2.98-1.79-8.95,2.39-13.12s10.14-5.37,13.12-2.39,2.09,8.65-2.39,12.83Z"/></g><path class="cls-23" d="M288.27,304.69c1.3-1.55,2.53-2.69,3.71-3.42s2.5-1.3,3.96-1.71c1.47-.41,2.97-.62,4.5-.62,2.78,0,5.41,.66,7.88,1.98s4.39,3.19,5.74,5.6c1.36,2.41,2.03,5.12,2.03,8.13,0,3.21-.76,6.23-2.27,9.05-1.52,2.82-3.59,5.04-6.22,6.64-2.63,1.6-5.91,2.41-9.83,2.41-6.77,0-11.8-2.41-15.09-7.24s-4.94-10.87-4.94-18.14c0-5.21,.85-9.96,2.56-14.24s4.16-7.6,7.35-9.96c3.19-2.36,7.52-3.54,12.99-3.54,1.71,0,3.39,.1,5.04,.29,1.65,.19,4.23,.71,7.74,1.56v7.35c-4.63-1.91-8.75-2.87-12.37-2.87-2.67,0-4.91,.68-6.72,2.05-1.81,1.37-3.28,3.48-4.39,6.34-1.12,2.86-1.67,6.31-1.67,10.34Zm17.67,11.47c0-3.48-.79-6.18-2.36-8.1s-3.59-2.88-6.05-2.88c-2.28,0-4.32,.87-6.12,2.61-1.8,1.74-2.7,4.03-2.7,6.88s.73,5.66,2.21,8.11c1.47,2.45,3.74,3.67,6.82,3.67,2.42,0,4.39-.9,5.91-2.7,1.53-1.8,2.29-4.32,2.29-7.58Z"/><g id="ocean"><polygon class="cls-24" points="432.79 154.07 432.79 57.05 348.89 8.62 264.83 57.05 264.83 154.07 348.89 202.5 432.79 154.07"/><polygon class="cls-25" points="430.2 152.61 430.2 58.67 348.89 11.69 267.58 58.67 267.58 152.61 348.89 199.42 430.2 152.61"/><polygon class="cls-16" points="424.69 149.37 424.69 61.74 348.89 17.85 272.93 61.74 272.93 149.37 348.89 193.26 424.69 149.37"/><path class="cls-12" d="M424.69,117.14c-3.4-3.24-10.04-4.54-21.38-5.99-11.01-1.46-16.52-2.11-19.27-2.11-17.49-.16-18.63,4.7-33.04,4.86-3.89,0-14.25-2.11-35.31-6.48-12.15-2.43-15.87-3.4-22.03-2.92-8.58,.65-15.71,3.56-20.89,6.64v38.23l76.13,43.89,75.8-43.89v-32.23h0Z"/><path class="cls-13" d="M349.05,169.62h0c34.18-.65,50.86-35.15,34.99-72.89-1.3-3.24-3.08-6.64-5.02-10.2-30.13-55.07-30.13-54.75-30.13-54.75,0,0,0-.32-30.13,54.75-1.94,3.56-3.56,6.96-5.02,10.2-15.87,37.74,.81,72.24,34.99,72.89h0"/><path class="cls-21" d="M349.05,167.51h0c32.39-.65,48.11-33.2,33.2-69-1.3-3.08-2.92-6.32-4.7-9.72-28.51-52.16-28.51-51.83-28.51-51.83,0,0,0-.32-28.51,51.83-1.78,3.4-3.4,6.48-4.7,9.72-15.23,35.8,.49,68.51,33.2,69h0"/><path class="cls-19" d="M348.89,163.79h0c29.8-.49,44.22-30.45,30.45-63.17-1.13-2.92-2.75-5.83-4.37-8.91-26.08-47.94-26.08-47.62-26.08-47.62,0,0,0-.32-26.24,47.62-1.62,3.08-3.08,5.99-4.37,8.91-13.61,32.72,.81,62.52,30.61,63.17h0"/><path class="cls-15" d="M382.42,109.04c-15.87,.16-17.33,4.7-31.42,4.86-3.89,0-14.25-2.11-35.15-6.32-9.07,29.96,5.35,55.72,33.04,56.2h.16c27.05-.49,41.46-25.43,33.37-54.75h0Z"/><circle class="cls-14" cx="348.73" cy="117.3" r="81.31"/></g><g id="ocean-2"><polygon class="cls-24" points="632.79 154.07 632.79 57.05 548.89 8.62 464.83 57.05 464.83 154.07 548.89 202.5 632.79 154.07"/><polygon class="cls-20" points="630.2 152.61 630.2 58.67 548.89 11.69 467.58 58.67 467.58 152.61 548.89 199.42 630.2 152.61"/><polygon class="cls-16" points="624.69 149.37 624.69 61.74 548.89 17.85 472.93 61.74 472.93 149.37 548.89 193.26 624.69 149.37"/><path class="cls-12" d="M624.69,117.14c-3.4-3.24-10.04-4.54-21.38-5.99-11.01-1.46-16.52-2.11-19.27-2.11-17.49-.16-18.63,4.7-33.04,4.86-3.89,0-14.25-2.11-35.31-6.48-12.15-2.43-15.87-3.4-22.03-2.92-8.58,.65-15.71,3.56-20.89,6.64v38.23l76.13,43.89,75.8-43.89v-32.23h0Z"/><path class="cls-13" d="M549.05,169.62h0c34.18-.65,50.86-35.15,34.99-72.89-1.3-3.24-3.08-6.64-5.02-10.2-30.13-55.07-30.13-54.75-30.13-54.75,0,0,0-.32-30.13,54.75-1.94,3.56-3.56,6.96-5.02,10.2-15.87,37.74,.81,72.24,34.99,72.89h0"/><path class="cls-21" d="M549.05,167.51h0c32.39-.65,48.11-33.2,33.2-69-1.3-3.08-2.92-6.32-4.7-9.72-28.51-52.16-28.51-51.83-28.51-51.83,0,0,0-.32-28.51,51.83-1.78,3.4-3.4,6.48-4.7,9.72-15.23,35.8,.49,68.51,33.2,69h0"/><path class="cls-19" d="M548.89,163.79h0c29.8-.49,44.22-30.45,30.45-63.17-1.13-2.92-2.75-5.83-4.37-8.91-26.08-47.94-26.08-47.62-26.08-47.62,0,0,0-.32-26.24,47.62-1.62,3.08-3.08,5.99-4.37,8.91-13.61,32.72,.81,62.52,30.61,63.17h0"/><path class="cls-15" d="M582.42,109.04c-15.87,.16-17.33,4.7-31.42,4.86-3.89,0-14.25-2.11-35.15-6.32-9.07,29.96,5.35,55.72,33.04,56.2h.16c27.05-.49,41.46-25.43,33.37-54.75h0Z"/><circle class="cls-18" cx="548.73" cy="117.3" r="81.31"/></g></svg>