<?xml version="1.0" encoding="UTF-8"?><svg id="Layer" xmlns="http://www.w3.org/2000/svg" xmlns:xlink="http://www.w3.org/1999/xlink" viewBox="0 0 721 379.91"><defs><style>.cls-1{fill:url(#linear-gradient-2);}.cls-2{fill:#20201e;}.cls-3{fill:url(#linear-gradient-6);}.cls-4{fill:url(#Nowy_wzorek_5);opacity:.1;}.cls-4,.cls-5{isolation:isolate;}.cls-6{fill:#48ad38;}.cls-7{fill:#fff;opacity:0;stroke:#1d1d1b;}.cls-7,.cls-8{stroke-miterlimit:10;}.cls-9{fill:url(#linear-gradient-5);}.cls-10{fill:none;}.cls-11{fill:url(#linear-gradient-7);}.cls-5{opacity:.05;}.cls-5,.cls-12{fill:#030304;}.cls-13{fill:url(#linear-gradient-3);}.cls-14{fill:url(#linear-gradient);}.cls-15{fill:url(#linear-gradient-4);}.cls-8{fill:#0b572a;stroke:#1d4422;stroke-width:3.71px;}</style><linearGradient id="linear-gradient" x1="218.7" y1="-154.76" x2="42.14" y2="21.79" gradientTransform="translate(0 127.45) scale(1 -1)" gradientUnits="userSpaceOnUse"><stop offset="0" stop-color="#9f9d9c"/><stop offset=".54" stop-color="#020303"/><stop offset="1" stop-color="#9f9d9c"/></linearGradient><linearGradient id="linear-gradient-2" x1="130.5" y1="-149.37" x2="130.5" y2="16.39" gradientTransform="translate(0 127.45) scale(1 -1)" gradientUnits="userSpaceOnUse"><stop offset="0" stop-color="#472d1c"/><stop offset="1" stop-color="#b18047"/></linearGradient><linearGradient id="linear-gradient-3" x1="130.44" y1="-145.19" x2="130.44" y2="12.36" gradientTransform="translate(0 127.45) scale(1 -1)" gradientUnits="userSpaceOnUse"><stop offset="0" stop-color="#946137"/><stop offset="1" stop-color="#815228"/></linearGradient><pattern id="Nowy_wzorek_5" x="0" y="0" width="19.7" height="21.7" patternTransform="translate(43.4 -32285.17) scale(1 -1)" patternUnits="userSpaceOnUse" viewBox="0 0 19.7 21.7"><g><rect class="cls-10" width="19.7" height="21.7"/><g><rect class="cls-10" width="19.7" height="21.7"/><g><rect class="cls-10" width="19.7" height="21.7"/><g><rect class="cls-10" width="19.7" height="21.7"/><g><rect class="cls-10" width="19.7" height="21.7"/><g><rect class="cls-10" width="19.7" height="21.7"/><path class="cls-2" d="M16.6,13c2.1-2.1,2.1-5.6,0-7.7l-1.2-1.2c-2.1-2.1-5.6-2.1-7.8,0L3.1,8.7c-2.1,2.1-2.1,5.6,0,7.7l1.2,1.2c2.1,2.1,5.6,2.1,7.7,0l4.6-4.6Z"/></g></g></g></g></g></g></pattern><linearGradient id="linear-gradient-4" x1="-700.19" y1="-774.37" x2="-623.1" y2="-697.28" gradientTransform="translate(78.19 -794.17) rotate(-45) scale(1 -1)" gradientUnits="userSpaceOnUse"><stop offset="0" stop-color="#0f6936"/><stop offset=".04" stop-color="#0f6c37"/><stop offset=".08" stop-color="#077739"/><stop offset=".13" stop-color="#108837"/><stop offset=".15" stop-color="#0a9039"/><stop offset=".35" stop-color="#36993d"/><stop offset=".76" stop-color="#5fb048"/><stop offset="1" stop-color="#6fb74b"/></linearGradient><linearGradient id="linear-gradient-5" x1="-442.7" y1="-1032.03" x2="-365.61" y2="-954.93" xlink:href="#linear-gradient-4"/><linearGradient id="linear-gradient-6" x1="-534.98" y1="-939.76" x2="-457.89" y2="-862.65" xlink:href="#linear-gradient-4"/><linearGradient id="linear-gradient-7" x1="-350.43" y1="-1124.31" x2="-273.33" y2="-1047.2" xlink:href="#linear-gradient-4"/></defs><rect class="cls-7" x=".5" y=".5" width="720" height="378.91"/><g id="prodBg"><rect id="external-border" class="cls-14" x="41.35" y="106.45" width="178.15" height="174.96"/><rect id="internal-border" class="cls-1" x="45.96" y="111.06" width="169.09" height="165.76"/><rect id="bg" class="cls-13" x="50" y="115.09" width="160.89" height="157.55"/><rect id="bgPattern" class="cls-4" x="50" y="115.09" width="160.89" height="157.55"/></g><g id="plant-2"><rect class="cls-12" x="72.79" y="136.12" width="115.71" height="115.71"/><rect class="cls-15" x="76.13" y="139.47" width="109.03" height="109.03"/><rect class="cls-6" x="81.42" y="144.75" width="98.45" height="98.45"/><path id="leaf-2" class="cls-8" d="M130.6,169.07c-14.1,1.95-24.87,11.13-24.87,24.87,0,3.34,.65,6.59,1.86,9.56-2.6,1.76-6.4,4.08-8.26,4.73-3.25,1.11-9.74,.37-10.02,.93s1.86,6.4,2.6,6.68,6.68,.28,10.02-.93c2.41-.84,6.77-3.62,9.28-5.47,4.55,5.75,11.6,9.37,19.49,9.37,13.73,0,24.68-8.63,24.68-22.36,0-5.29,1.3-11.97,3.25-16.15,2.13-4.64,13.18-7.61,13.18-7.61-1.11-3.62-35.63-4.36-41.2-3.62h-.01Z"/><path id="darker-2" class="cls-5" d="M185.16,248.49H76.13v-59.76s34.33,5.29,54.47,5.29,54.56-5.29,54.56-5.29v59.76Z"/></g><g id="plant-4"><rect class="cls-12" x="437.05" y="136.25" width="115.71" height="115.71"/><rect class="cls-9" x="440.39" y="139.59" width="109.03" height="109.03"/><rect class="cls-6" x="445.68" y="144.88" width="98.45" height="98.45"/><path id="leaf-4" class="cls-8" d="M494.86,169.19c-14.1,1.95-24.87,11.13-24.87,24.87,0,3.34,.65,6.59,1.86,9.56-2.6,1.76-6.4,4.08-8.26,4.73-3.25,1.11-9.74,.37-10.02,.93s1.86,6.4,2.6,6.68,6.68,.28,10.02-.93c2.41-.84,6.77-3.62,9.28-5.47,4.55,5.75,11.6,9.37,19.49,9.37,13.73,0,24.68-8.63,24.68-22.36,0-5.29,1.3-11.97,3.25-16.15,2.13-4.64,13.18-7.61,13.18-7.61-1.11-3.62-35.63-4.36-41.2-3.62h0Z"/><path id="darker-4" class="cls-5" d="M549.42,248.62h-109.03v-59.76s34.33,5.29,54.47,5.29,54.56-5.29,54.56-5.29v59.76h0Z"/></g><g id="plant-4-2"><rect class="cls-12" x="306.55" y="136.25" width="115.71" height="115.71"/><rect class="cls-3" x="309.89" y="139.59" width="109.03" height="109.03"/><rect class="cls-6" x="315.18" y="144.88" width="98.45" height="98.45"/><path id="leaf-4-2" class="cls-8" d="M364.36,169.19c-14.1,1.95-24.87,11.13-24.87,24.87,0,3.34,.65,6.59,1.86,9.56-2.6,1.76-6.4,4.08-8.26,4.73-3.25,1.11-9.74,.37-10.02,.93s1.86,6.4,2.6,6.68,6.68,.28,10.02-.93c2.41-.84,6.77-3.62,9.28-5.47,4.55,5.75,11.6,9.37,19.49,9.37,13.73,0,24.68-8.63,24.68-22.36,0-5.29,1.3-11.97,3.25-16.15,2.13-4.64,13.18-7.61,13.18-7.61-1.11-3.62-35.63-4.36-41.2-3.62h0Z"/><path id="darker-4-2" class="cls-5" d="M418.92,248.62h-109.03v-59.76s34.33,5.29,54.47,5.29,54.56-5.29,54.56-5.29v59.76h0Z"/></g><g id="plant-4-3"><rect class="cls-12" x="567.55" y="136.25" width="115.71" height="115.71"/><rect class="cls-11" x="570.89" y="139.59" width="109.03" height="109.03"/><rect class="cls-6" x="576.18" y="144.88" width="98.45" height="98.45"/><path id="leaf-4-3" class="cls-8" d="M625.36,169.19c-14.1,1.95-24.87,11.13-24.87,24.87,0,3.34,.65,6.59,1.86,9.56-2.6,1.76-6.4,4.08-8.26,4.73-3.25,1.11-9.74,.37-10.02,.93s1.86,6.4,2.6,6.68,6.68,.28,10.02-.93c2.41-.84,6.77-3.62,9.28-5.47,4.55,5.75,11.6,9.37,19.49,9.37,13.73,0,24.68-8.63,24.68-22.36,0-5.29,1.3-11.97,3.25-16.15,2.13-4.64,13.18-7.61,13.18-7.61-1.11-3.62-35.63-4.36-41.2-3.62h0Z"/><path id="darker-4-3" class="cls-5" d="M679.92,248.62h-109.03v-59.76s34.33,5.29,54.47,5.29,54.56-5.29,54.56-5.29v59.76h0Z"/></g></svg>