<?xml version="1.0" encoding="UTF-8"?><svg id="Layer" xmlns="http://www.w3.org/2000/svg" xmlns:xlink="http://www.w3.org/1999/xlink" viewBox="0 0 721 379.91"><defs><style>.cls-1{fill:url(#linear-gradient-2);}.cls-2{fill:url(#linear-gradient-9);}.cls-2,.cls-3,.cls-4,.cls-5,.cls-6,.cls-7{isolation:isolate;}.cls-2,.cls-4,.cls-7{opacity:.4;}.cls-8,.cls-5{fill:#020303;}.cls-3{fill:url(#linear-gradient-13);opacity:.5;}.cls-9{stroke:#ffd80c;stroke-width:4.66px;}.cls-9,.cls-10,.cls-11,.cls-12,.cls-13{stroke-miterlimit:10;}.cls-9,.cls-12{fill:none;}.cls-14{fill:#48ad38;}.cls-10{fill:url(#linear-gradient-12);stroke:#030304;}.cls-10,.cls-12{stroke-width:3.34px;}.cls-15{fill:url(#linear-gradient-11);}.cls-11{fill:#fff;opacity:0;stroke:#1d1d1b;}.cls-16{fill:url(#linear-gradient-10);}.cls-4{fill:url(#linear-gradient-6);}.cls-12{stroke:#fff;}.cls-5{opacity:.64;}.cls-13{fill:#0b572a;stroke:#1d4422;stroke-width:3.68px;}.cls-17{fill:url(#linear-gradient-5);}.cls-18{fill:#50504f;}.cls-19{fill:url(#linear-gradient-7);}.cls-6{opacity:.05;}.cls-6,.cls-20{fill:#030304;}.cls-21{fill:url(#linear-gradient);}.cls-22{fill:url(#linear-gradient-4);}.cls-23{fill:url(#linear-gradient-8);}.cls-7{fill:url(#linear-gradient-3);}</style><linearGradient id="linear-gradient" x1="-570.06" y1="-554.06" x2="-492.59" y2="-476.59" gradientTransform="translate(245.16 -628.42) rotate(-45) scale(1 -1)" gradientUnits="userSpaceOnUse"><stop offset="0" stop-color="#020303"/><stop offset="1" stop-color="#797879"/></linearGradient><linearGradient id="linear-gradient-2" x1="-471.07" y1="-653.06" x2="-393.6" y2="-575.59" xlink:href="#linear-gradient"/><linearGradient id="linear-gradient-3" x1="163.84" y1="569.15" x2="163.84" y2="430.64" gradientTransform="translate(0 -236.64)" gradientUnits="userSpaceOnUse"><stop offset="0" stop-color="#ffdc15"/><stop offset="0" stop-color="#ffdb16"/><stop offset=".05" stop-color="#f9bb1f"/><stop offset=".1" stop-color="#f59c1b"/><stop offset=".16" stop-color="#ef7b1b"/><stop offset=".22" stop-color="#e86212"/><stop offset=".27" stop-color="#e84b1f"/><stop offset=".34" stop-color="#e63a21"/><stop offset=".41" stop-color="#e63323"/><stop offset=".5" stop-color="#e63023"/><stop offset=".59" stop-color="#e63323"/><stop offset=".66" stop-color="#e63a21"/><stop offset=".73" stop-color="#e84b1f"/><stop offset=".78" stop-color="#e86212"/><stop offset=".84" stop-color="#ef7b1b"/><stop offset=".9" stop-color="#f59c1b"/><stop offset=".95" stop-color="#f9bb1f"/><stop offset="1" stop-color="#ffdb16"/><stop offset="1" stop-color="#ffdc15"/></linearGradient><linearGradient id="linear-gradient-4" x1="163.87" y1="564.05" x2="163.87" y2="435.74" xlink:href="#linear-gradient-3"/><linearGradient id="linear-gradient-5" x1="-726.13" y1="1227.83" x2="-649.56" y2="1151.25" gradientTransform="translate(-190.8 -1064.09) rotate(-45)" gradientUnits="userSpaceOnUse"><stop offset="0" stop-color="#0f6936"/><stop offset=".04" stop-color="#0f6c37"/><stop offset=".08" stop-color="#077739"/><stop offset=".13" stop-color="#108837"/><stop offset=".15" stop-color="#0a9039"/><stop offset=".35" stop-color="#36993d"/><stop offset=".76" stop-color="#5fb048"/><stop offset="1" stop-color="#6fb74b"/></linearGradient><linearGradient id="linear-gradient-6" x1="303.84" x2="303.84" xlink:href="#linear-gradient-3"/><linearGradient id="linear-gradient-7" x1="303.87" y1="564.05" x2="303.87" y2="435.74" xlink:href="#linear-gradient-3"/><linearGradient id="linear-gradient-8" x1="-627.14" y1="1326.82" x2="-550.56" y2="1250.25" xlink:href="#linear-gradient-5"/><linearGradient id="linear-gradient-9" x1="443.84" x2="443.84" xlink:href="#linear-gradient-3"/><linearGradient id="linear-gradient-10" x1="443.87" y1="564.05" x2="443.87" y2="435.74" xlink:href="#linear-gradient-3"/><linearGradient id="linear-gradient-11" x1="-528.14" y1="1425.82" x2="-451.57" y2="1349.24" xlink:href="#linear-gradient-5"/><linearGradient id="linear-gradient-12" x1="594.82" y1="373.42" x2="594.82" y2="138.13" gradientTransform="translate(0 -67.82)" gradientUnits="userSpaceOnUse"><stop offset=".08" stop-color="#47c0f0"/><stop offset=".15" stop-color="#52a5d5"/><stop offset=".23" stop-color="#5d85b4"/><stop offset=".3" stop-color="#626a9c"/><stop offset=".37" stop-color="#67568c"/><stop offset=".42" stop-color="#684981"/><stop offset=".46" stop-color="#68457e"/><stop offset=".55" stop-color="#923e61"/><stop offset=".67" stop-color="#b7323c"/><stop offset=".75" stop-color="#cc2321"/><stop offset=".79" stop-color="#d41a1c"/></linearGradient><linearGradient id="linear-gradient-13" x1="585.2" y1="331.5" x2="572.52" y2="318.81" gradientTransform="translate(0 -67.82)" gradientUnits="userSpaceOnUse"><stop offset="0" stop-color="#1f1f1e" stop-opacity="0"/><stop offset="1" stop-color="#fff"/></linearGradient></defs><rect class="cls-11" x=".5" y=".5" width="720" height="378.91"/><g id="titan"><rect class="cls-8" x="175.71" y="53.54" width="116.27" height="116.27"/><rect class="cls-21" x="179.06" y="56.89" width="109.56" height="109.56"/><rect class="cls-18" x="184.38" y="62.21" width="98.93" height="98.93"/><path id="darker" class="cls-5" d="M288.62,166.45h-109.56v-60.05s34.5,5.31,54.73,5.31,54.83-5.31,54.83-5.31v60.05Z"/><polygon class="cls-9" points="234.45 79.37 244.8 101.09 268.67 104.17 251.14 120.67 255.61 144.26 234.45 132.7 213.38 144.26 217.85 120.67 200.32 104.17 224.19 101.09 234.45 79.37"/></g><g id="titan-2"><rect class="cls-8" x="315.71" y="53.54" width="116.27" height="116.27"/><rect class="cls-1" x="319.06" y="56.89" width="109.56" height="109.56"/><rect class="cls-18" x="324.38" y="62.21" width="98.93" height="98.93"/><path id="darker-2" class="cls-5" d="M428.62,166.45h-109.56v-60.05s34.5,5.31,54.73,5.31,54.83-5.31,54.83-5.31v60.05Z"/><polygon class="cls-9" points="374.45 79.37 384.8 101.09 408.67 104.17 391.14 120.67 395.61 144.26 374.45 132.7 353.38 144.26 357.85 120.67 340.32 104.17 364.19 101.09 374.45 79.37"/></g><g id="plant"><rect class="cls-7" x="94.59" y="194" width="138.51" height="138.51"/><rect class="cls-22" x="99.71" y="199.1" width="128.31" height="128.31"/><rect class="cls-20" x="106.5" y="205.97" width="114.91" height="114.91"/><rect class="cls-17" x="109.81" y="209.27" width="108.29" height="108.29"/><rect class="cls-14" x="115.06" y="214.52" width="97.77" height="97.77"/><path id="leaf" class="cls-13" d="M163.9,238.67c-14,1.94-24.7,11.07-24.7,24.7,0,3.31,.65,6.54,1.84,9.5-2.59,1.74-6.37,4.05-8.21,4.7-3.23,1.09-9.67,.37-9.95,.92s1.84,6.37,2.59,6.64,6.64,.27,9.95-.92c2.39-.82,6.72-3.61,9.23-5.45,4.53,5.72,11.52,9.3,19.35,9.3,13.63,0,24.52-8.58,24.52-22.21,0-5.25,1.29-11.89,3.23-16.04,2.11-4.6,13.08-7.56,13.08-7.56-1.09-3.61-35.39-4.33-40.91-3.61h0l-.02,.02Z"/><path id="darker-3" class="cls-6" d="M218.1,317.56H109.81v-59.34s34.1,5.25,54.1,5.25,54.19-5.25,54.19-5.25v59.34Z"/></g><g id="plant-2"><rect class="cls-4" x="234.59" y="194" width="138.51" height="138.51"/><rect class="cls-19" x="239.71" y="199.1" width="128.31" height="128.31"/><rect class="cls-20" x="246.5" y="205.97" width="114.91" height="114.91"/><rect class="cls-23" x="249.81" y="209.27" width="108.29" height="108.29"/><rect class="cls-14" x="255.06" y="214.52" width="97.77" height="97.77"/><path id="leaf-2" class="cls-13" d="M303.9,238.67c-14,1.94-24.7,11.07-24.7,24.7,0,3.31,.65,6.54,1.84,9.5-2.59,1.74-6.37,4.05-8.21,4.7-3.23,1.09-9.67,.37-9.95,.92s1.84,6.37,2.59,6.64,6.64,.27,9.95-.92c2.39-.82,6.72-3.61,9.23-5.45,4.53,5.72,11.52,9.3,19.35,9.3,13.63,0,24.52-8.58,24.52-22.21,0-5.25,1.29-11.89,3.23-16.04,2.11-4.6,13.08-7.56,13.08-7.56-1.09-3.61-35.39-4.33-40.91-3.61h0l-.02,.02Z"/><path id="darker-4" class="cls-6" d="M358.1,317.56h-108.29v-59.34s34.1,5.25,54.1,5.25,54.19-5.25,54.19-5.25v59.34Z"/></g><g id="plant-3"><rect class="cls-2" x="374.59" y="194" width="138.51" height="138.51"/><rect class="cls-16" x="379.71" y="199.1" width="128.31" height="128.31"/><rect class="cls-20" x="386.5" y="205.97" width="114.91" height="114.91"/><rect class="cls-15" x="389.81" y="209.27" width="108.29" height="108.29"/><rect class="cls-14" x="395.06" y="214.52" width="97.77" height="97.77"/><path id="leaf-3" class="cls-13" d="M443.9,238.67c-14,1.94-24.7,11.07-24.7,24.7,0,3.31,.65,6.54,1.84,9.5-2.59,1.74-6.37,4.05-8.21,4.7-3.23,1.09-9.67,.37-9.95,.92s1.84,6.37,2.59,6.64,6.64,.27,9.95-.92c2.39-.82,6.72-3.61,9.23-5.45,4.53,5.72,11.52,9.3,19.35,9.3,13.63,0,24.52-8.58,24.52-22.21,0-5.25,1.29-11.89,3.23-16.04,2.11-4.6,13.08-7.56,13.08-7.56-1.09-3.61-35.39-4.33-40.91-3.61h0l-.02,.02Z"/><path id="darker-5" class="cls-6" d="M498.1,317.56h-108.29v-59.34s34.1,5.25,54.1,5.25,54.19-5.25,54.19-5.25v59.34Z"/></g><g id="tempIcon"><path class="cls-10" d="M610.42,243.14V85.92c0-8.52-7.1-15.61-15.61-15.61s-15.61,7.1-15.61,15.61V242.78c-10.29,5.68-17.74,16.68-17.74,29.46,0,18.45,14.91,33.36,33.36,33.36s33.36-14.91,33.36-33.36c0-12.78-7.1-23.78-17.74-29.1h-.02Z"/><line class="cls-12" x1="588.06" y1="104.38" x2="601.91" y2="104.38"/><line class="cls-12" x1="588.06" y1="148.03" x2="601.91" y2="148.03"/><line class="cls-12" x1="588.06" y1="187.77" x2="601.91" y2="187.77"/><line class="cls-12" x1="588.06" y1="224.68" x2="601.91" y2="224.68"/><line class="cls-12" x1="588.06" y1="271.53" x2="601.91" y2="271.53"/><path class="cls-3" d="M585.23,263.36c-4.97,5.32-12.07,6.39-15.61,3.19-3.55-3.55-2.13-10.65,2.84-15.61,4.97-4.97,12.07-6.39,15.61-2.84,3.54,3.55,2.48,10.29-2.84,15.26h0Z"/></g><path d="M43.06,270.24v-13.64h32.74v13.64H43.06Z"/></svg>