<?xml version="1.0" encoding="UTF-8"?><svg id="Layer" xmlns="http://www.w3.org/2000/svg" xmlns:xlink="http://www.w3.org/1999/xlink" viewBox="0 0 721 379.91"><defs><style>.cls-1{fill:url(#linear-gradient-2);}.cls-2,.cls-3{fill:#020303;}.cls-4{fill:#e52922;}.cls-5{fill:url(#linear-gradient-6);}.cls-6{fill:#1f1f1e;}.cls-7{fill:#fff;opacity:0;stroke:#1d1d1b;}.cls-7,.cls-8{stroke-miterlimit:10;}.cls-9{fill:url(#Nowy_wzorek_3);opacity:.1;}.cls-9,.cls-3{isolation:isolate;}.cls-10{fill:#44ac36;}.cls-11{fill:url(#linear-gradient-5);}.cls-12{fill:none;}.cls-13{fill:#ffd110;}.cls-14{fill:url(#linear-gradient-7);}.cls-8{fill:#07562a;stroke:#1c4421;stroke-width:3.73px;}.cls-15{fill:url(#linear-gradient-3);}.cls-3{opacity:.05;}.cls-16{fill:url(#linear-gradient);}.cls-17{fill:url(#linear-gradient-4);}</style><linearGradient id="linear-gradient" x1="516.38" y1="601.42" x2="204.09" y2="289.12" gradientTransform="translate(0 -252.64)" gradientUnits="userSpaceOnUse"><stop offset="0" stop-color="#9e9d9c"/><stop offset=".54" stop-color="#010202"/><stop offset="1" stop-color="#9e9d9c"/></linearGradient><linearGradient id="linear-gradient-2" x1="360.31" y1="596.22" x2="360.31" y2="294.35" gradientTransform="translate(0 -252.64)" gradientUnits="userSpaceOnUse"><stop offset="0" stop-color="#462c1b"/><stop offset="1" stop-color="#b18048"/></linearGradient><linearGradient id="linear-gradient-3" x1="360.25" y1="592.02" x2="360.25" y2="298.4" gradientTransform="translate(0 -252.64)" gradientUnits="userSpaceOnUse"><stop offset="0" stop-color="#946137"/><stop offset="1" stop-color="#805127"/></linearGradient><pattern id="Nowy_wzorek_3" x="0" y="0" width="19.7" height="21.7" patternTransform="translate(43.9 16649.47)" patternUnits="userSpaceOnUse" viewBox="0 0 19.7 21.7"><g><rect class="cls-12" width="19.7" height="21.7"/><g><rect class="cls-12" width="19.7" height="21.7"/><g><rect class="cls-12" width="19.7" height="21.7"/><g><rect class="cls-12" width="19.7" height="21.7"/><g><rect class="cls-12" width="19.7" height="21.7"/><path class="cls-6" d="M16.6,8.7c2.1,2.1,2.1,5.6,0,7.7l-1.2,1.2c-2.1,2.1-5.6,2.1-7.8,0L3.1,13c-2.1-2.1-2.1-5.6,0-7.7l1.2-1.2c2.1-2.1,5.6-2.1,7.7,0l4.6,4.6Z"/></g></g></g></g></g></pattern><linearGradient id="linear-gradient-4" x1="-536.59" y1="1222.49" x2="-459.15" y2="1145.05" gradientTransform="translate(-190.6 -1064.17) rotate(-45)" gradientUnits="userSpaceOnUse"><stop offset="0" stop-color="#951917"/><stop offset=".21" stop-color="#b9231c"/><stop offset=".47" stop-color="#e52922"/><stop offset=".55" stop-color="#e62d28"/><stop offset=".84" stop-color="#e7393a"/><stop offset="1" stop-color="#e83e41"/></linearGradient><linearGradient id="linear-gradient-5" x1="-632.28" y1="1318.18" x2="-554.85" y2="1240.75" gradientTransform="translate(-190.6 -1064.17) rotate(-45)" gradientUnits="userSpaceOnUse"><stop offset="0" stop-color="#0c6835"/><stop offset=".04" stop-color="#0a6b36"/><stop offset=".08" stop-color="#047638"/><stop offset=".13" stop-color="#078738"/><stop offset=".15" stop-color="#058f39"/><stop offset=".35" stop-color="#34993d"/><stop offset=".76" stop-color="#5eaf47"/><stop offset="1" stop-color="#6eb74a"/></linearGradient><linearGradient id="linear-gradient-6" x1="-538.24" y1="1412.23" x2="-460.8" y2="1334.79" xlink:href="#linear-gradient-5"/><linearGradient id="linear-gradient-7" x1="-442.54" y1="1316.53" x2="-365.1" y2="1239.1" xlink:href="#linear-gradient-4"/></defs><rect class="cls-7" x=".5" y=".5" width="720" height="378.91"/><g id="prodBg"><rect id="external-border" class="cls-16" x="203.49" y="37.08" width="313.49" height="311.1"/><rect id="internal-border" class="cls-1" x="208.12" y="41.71" width="304.39" height="301.87"/><rect id="bg" class="cls-15" x="212.16" y="45.76" width="296.16" height="293.62"/><rect id="bgPattern" class="cls-9" x="212.16" y="45.76" width="296.16" height="293.62"/></g><g id="heat"><rect class="cls-2" x="236.29" y="66.8" width="116.22" height="116.22"/><rect class="cls-17" x="239.64" y="70.15" width="109.51" height="109.51"/><rect class="cls-4" x="244.96" y="75.47" width="98.89" height="98.89"/><path id="darker" class="cls-3" d="M349.15,179.66h-109.51v-60.02s34.48,5.31,54.71,5.31,54.8-5.31,54.8-5.31v60.02Z"/><g><polygon class="cls-13" points="282.05 129.99 269.56 119.18 269.56 119.18 269.56 86.18 257.07 119.83 269.65 130.45 269.65 130.45 269.56 163.63 282.05 129.99"/><polygon class="cls-13" points="306.93 129.99 294.44 119.18 294.35 119.18 294.44 86.18 281.96 119.83 294.44 130.45 294.44 130.45 294.44 163.63 306.93 129.99"/><polygon class="cls-13" points="332.47 129.99 319.98 119.18 319.89 119.18 319.98 86.18 307.49 119.83 319.98 130.45 319.98 130.45 319.98 163.63 332.47 129.99"/></g></g><g id="plant"><rect class="cls-2" x="236.29" y="202.13" width="116.22" height="116.22"/><rect class="cls-11" x="239.64" y="205.49" width="109.51" height="109.51"/><rect class="cls-10" x="244.96" y="210.8" width="98.89" height="98.89"/><path id="leaf" class="cls-8" d="M294.35,235.22c-14.17,1.96-24.98,11.18-24.98,24.98,0,3.36,.65,6.62,1.86,9.6-2.61,1.77-6.43,4.1-8.29,4.75-3.26,1.12-9.79,.37-10.07,.93s1.86,6.43,2.61,6.71,6.71,.28,10.07-.93c2.42-.84,6.8-3.63,9.32-5.5,4.57,5.78,11.65,9.41,19.57,9.41,13.79,0,24.79-8.67,24.79-22.46,0-5.31,1.3-12.02,3.26-16.22,2.14-4.66,13.23-7.64,13.23-7.64-1.12-3.63-35.79-4.38-41.38-3.63Z"/><path id="darker-2" class="cls-3" d="M349.15,315h-109.51v-60.02s34.48,5.31,54.71,5.31,54.8-5.31,54.8-5.31v60.02Z"/></g><g id="plant-2"><rect class="cls-2" x="369.29" y="202.13" width="116.22" height="116.22"/><rect class="cls-5" x="372.64" y="205.49" width="109.51" height="109.51"/><rect class="cls-10" x="377.96" y="210.8" width="98.89" height="98.89"/><path id="leaf-2" class="cls-8" d="M427.35,235.22c-14.17,1.96-24.98,11.18-24.98,24.98,0,3.36,.65,6.62,1.86,9.6-2.61,1.77-6.43,4.1-8.29,4.75-3.26,1.12-9.79,.37-10.07,.93s1.86,6.43,2.61,6.71,6.71,.28,10.07-.93c2.42-.84,6.8-3.63,9.32-5.5,4.57,5.78,11.65,9.41,19.57,9.41,13.79,0,24.79-8.67,24.79-22.46,0-5.31,1.3-12.02,3.26-16.22,2.14-4.66,13.23-7.64,13.23-7.64-1.12-3.63-35.79-4.38-41.38-3.63Z"/><path id="darker-3" class="cls-3" d="M482.15,315h-109.51v-60.02s34.48,5.31,54.71,5.31,54.8-5.31,54.8-5.31v60.02Z"/></g><g id="heat-2"><rect class="cls-2" x="369.29" y="66.8" width="116.22" height="116.22"/><rect class="cls-14" x="372.64" y="70.15" width="109.51" height="109.51"/><rect class="cls-4" x="377.96" y="75.47" width="98.89" height="98.89"/><path id="darker-4" class="cls-3" d="M482.15,179.66h-109.51v-60.02s34.48,5.31,54.71,5.31,54.8-5.31,54.8-5.31v60.02Z"/><g><polygon class="cls-13" points="415.05 129.99 402.56 119.18 402.56 119.18 402.56 86.18 390.07 119.83 402.65 130.45 402.65 130.45 402.56 163.63 415.05 129.99"/><polygon class="cls-13" points="439.93 129.99 427.44 119.18 427.35 119.18 427.44 86.18 414.96 119.83 427.44 130.45 427.44 130.45 427.44 163.63 439.93 129.99"/><polygon class="cls-13" points="465.47 129.99 452.98 119.18 452.89 119.18 452.98 86.18 440.49 119.83 452.98 130.45 452.98 130.45 452.98 163.63 465.47 129.99"/></g></g></svg>