<?xml version="1.0" encoding="UTF-8"?><svg id="Layer" xmlns="http://www.w3.org/2000/svg" xmlns:xlink="http://www.w3.org/1999/xlink" viewBox="0 0 721 379.91"><defs><style>.cls-1{fill:url(#linear-gradient);}.cls-1,.cls-2{opacity:.4;}.cls-1,.cls-2,.cls-3{isolation:isolate;}.cls-4{fill:url(#linear-gradient-2);}.cls-5,.cls-3{fill:#020303;}.cls-6{fill:#332116;}.cls-7{fill:url(#linear-gradient-6);}.cls-8{fill:#946137;}.cls-2{fill:url(#linear-gradient-4);}.cls-9{fill:#fff;opacity:0;stroke:#1d1d1b;}.cls-9,.cls-10{stroke-miterlimit:10;}.cls-3{opacity:.15;}.cls-11{fill:url(#linear-gradient-5);}.cls-12{fill:url(#linear-gradient-7);}.cls-13{fill:url(#linear-gradient-9);}.cls-14{fill:url(#linear-gradient-3);}.cls-15{fill:url(#linear-gradient-8);}.cls-10{fill:#010101;stroke:#020303;stroke-width:1.85px;}</style><linearGradient id="linear-gradient" x1="513.98" y1="405.07" x2="513.98" y2="271.19" gradientTransform="translate(0 -235.46)" gradientUnits="userSpaceOnUse"><stop offset="0" stop-color="#ffdc15"/><stop offset="0" stop-color="#ffdb16"/><stop offset=".05" stop-color="#f9bb24"/><stop offset=".1" stop-color="#f59d1e"/><stop offset=".16" stop-color="#ef7c1e"/><stop offset=".22" stop-color="#e86312"/><stop offset=".27" stop-color="#e94c21"/><stop offset=".34" stop-color="#e63b23"/><stop offset=".41" stop-color="#e63624"/><stop offset=".5" stop-color="#e63324"/><stop offset=".59" stop-color="#e63624"/><stop offset=".66" stop-color="#e63b23"/><stop offset=".73" stop-color="#e94c21"/><stop offset=".78" stop-color="#e86312"/><stop offset=".84" stop-color="#ef7c1e"/><stop offset=".9" stop-color="#f59d1e"/><stop offset=".95" stop-color="#f9bb24"/><stop offset="1" stop-color="#ffdb16"/><stop offset="1" stop-color="#ffdc15"/></linearGradient><linearGradient id="linear-gradient-2" x1="513.99" y1="401.58" x2="513.99" y2="274.69" xlink:href="#linear-gradient"/><linearGradient id="linear-gradient-3" x1="-364.38" y1="1361.2" x2="-289" y2="1285.81" gradientTransform="translate(-190.6 -1064.17) rotate(-45)" gradientUnits="userSpaceOnUse"><stop offset="0" stop-color="#452b1a"/><stop offset=".05" stop-color="#583519"/><stop offset=".1" stop-color="#683e15"/><stop offset=".32" stop-color="#76481e"/><stop offset=".75" stop-color="#8c5a31"/><stop offset="1" stop-color="#946137"/></linearGradient><linearGradient id="linear-gradient-4" x1="545.25" y1="35.92" x2="545.25" y2="172.1" gradientTransform="translate(0 380.09) scale(1 -1)" xlink:href="#linear-gradient"/><linearGradient id="linear-gradient-5" x1="545.25" y1="39.05" x2="545.25" y2="168.96" gradientTransform="translate(0 380.09) scale(1 -1)" xlink:href="#linear-gradient"/><linearGradient id="linear-gradient-6" x1="545.3" y1="33.72" x2="545.3" y2="140.37" gradientTransform="translate(0 363.09) scale(1 -1)" gradientUnits="userSpaceOnUse"><stop offset=".16" stop-color="#813912"/><stop offset=".18" stop-color="#975a19"/><stop offset=".22" stop-color="#ae7d21"/><stop offset=".26" stop-color="#c39d27"/><stop offset=".3" stop-color="#d6b92e"/><stop offset=".35" stop-color="#e4cf35"/><stop offset=".41" stop-color="#efe036"/><stop offset=".48" stop-color="#f6e942"/><stop offset=".58" stop-color="#f8ea48"/><stop offset=".86" stop-color="#f7ea47"/><stop offset="1" stop-color="#fcf4f9"/></linearGradient><linearGradient id="linear-gradient-7" x1="545.3" y1="146.05" x2="545.3" y2="-16.96" gradientTransform="translate(0 363.09) scale(1 -1)" gradientUnits="userSpaceOnUse"><stop offset=".26" stop-color="#f7ea47"/><stop offset=".86" stop-color="#803612"/></linearGradient><linearGradient id="linear-gradient-8" x1="545.34" y1="35.2" x2="545.34" y2="138.8" gradientTransform="translate(0 363.09) scale(1 -1)" gradientUnits="userSpaceOnUse"><stop offset=".16" stop-color="#803612"/><stop offset=".17" stop-color="#8b461e"/><stop offset=".18" stop-color="#a26a3b"/><stop offset=".2" stop-color="#b78954"/><stop offset=".22" stop-color="#c7a468"/><stop offset=".24" stop-color="#d7bb7a"/><stop offset=".26" stop-color="#e2cc88"/><stop offset=".3" stop-color="#ead891"/><stop offset=".34" stop-color="#eede97"/><stop offset=".46" stop-color="#efe097"/><stop offset=".7" stop-color="#803612"/><stop offset=".73" stop-color="#e6d234"/><stop offset=".74" stop-color="#ead848"/><stop offset=".75" stop-color="#eede6d"/><stop offset=".77" stop-color="#f1e38b"/><stop offset=".79" stop-color="#f7eaa9"/><stop offset=".8" stop-color="#f8edbf"/><stop offset=".83" stop-color="#faf0cf"/><stop offset=".85" stop-color="#fcf2da"/><stop offset=".89" stop-color="#fdf4e1"/><stop offset=".99" stop-color="#fdf5e3"/></linearGradient><linearGradient id="linear-gradient-9" x1="545.3" y1="123.61" x2="545.3" y2="-36.29" gradientTransform="translate(0 363.09) scale(1 -1)" gradientUnits="userSpaceOnUse"><stop offset=".26" stop-color="#f7ea47"/><stop offset=".77" stop-color="#803612"/></linearGradient></defs><rect class="cls-9" x=".5" y=".5" width="720" height="378.91"/><g><g id="steel"><rect class="cls-1" x="447.04" y="35.74" width="133.88" height="133.88"/><rect class="cls-4" x="450.55" y="39.23" width="126.89" height="126.89"/><rect class="cls-5" x="457.68" y="46.11" width="113.14" height="113.14"/><rect class="cls-14" x="460.94" y="49.37" width="106.61" height="106.61"/><rect class="cls-8" x="466.12" y="54.55" width="96.26" height="96.26"/><g><path class="cls-6" d="M524.27,134.48l2.36-44.73-5.44-.64-.82-1.91h-4.17l-.73,2-6.35-.27v-11.61h7.35l.54,2.27,3.45,.45,.82-2.63h7.53l1.45,1.27,1.27-1.27h9.34l1.09,1.81,1.63-1.81,7.08,5.81-.45,3.99s-3.9-3.63-5.81-3.63-4.63-.09-4.63-.09l-3.9,6.26-2.36,.18,2.18,44.55h-11.43Z"/><polygon class="cls-6" points="503.13 75.41 495.51 71.24 495.42 81.58 488.53 81.58 488.53 71.24 479.82 75.23 479.82 87.93 487.89 91.84 485.08 134.48 498.05 134.48 495.51 91.84 503.13 88.39 503.13 75.41"/></g><path id="darker" class="cls-3" d="M567.55,155.98h-106.61v-58.43s33.57,5.17,53.26,5.17,53.35-5.17,53.35-5.17v58.43Z"/></g><g id="mln"><polygon id="obram_czarne" class="cls-2" points="497.8 208 477.16 228.63 477.16 323.55 497.8 344.17 592.82 344.17 613.34 323.55 613.34 228.63 592.82 208 497.8 208"/><polygon id="obram_czarne-2" class="cls-11" points="499.98 211.13 480.3 230.82 480.3 321.36 499.98 341.04 590.64 341.04 610.21 321.36 610.21 230.82 590.64 211.13 499.98 211.13"/><polygon id="obram_czarne-2" class="cls-10" points="505.82 219.47 488.68 236.61 488.68 315.46 505.82 332.61 584.77 332.61 601.82 315.46 601.82 236.61 584.77 219.47 505.82 219.47"/><polygon id="obram_zolte" class="cls-7" points="508.05 222.71 492.02 238.83 492.02 313.24 508.05 329.36 582.45 329.36 598.58 313.24 598.58 238.83 582.45 222.71 508.05 222.71"/><polygon id="tlo_wew" class="cls-12" points="509.16 224.29 493.5 239.95 493.5 312.13 509.16 327.79 581.43 327.79 597.09 312.13 597.09 239.95 581.43 224.29 509.16 224.29"/><path id="obram_skosne" class="cls-15" d="M589.59,296.01c-2.87,0-5.19-2.32-5.19-5.19v-29.56c0-2.87,2.32-5.19,5.19-5.19h7.41v-16.12l-15.57-15.66h-16.22v7.41c0,2.87-2.32,5.19-5.19,5.19h-29.56c-2.87,0-5.19-2.32-5.19-5.19v-7.41h-16.12l-15.66,15.66v16.22h7.41c2.87,0,5.19,2.32,5.19,5.19v29.56c0,2.87-2.32,5.19-5.19,5.19h-7.41v16.12l15.66,15.66h16.22v-7.41c0-2.87,2.32-5.19,5.19-5.19h29.56c2.87,0,5.19,2.32,5.19,5.19v7.41h16.22l15.66-15.66v-16.22h-7.6Z"/><path id="tlo_zew" class="cls-13" d="M589.31,297.77c-3.52,0-6.39-3.52-6.39-7.04v-29.37c0-3.52,2.87-7.04,6.39-7.04h6.02v-13.16l-15.2-15.1h-13.07v6.02c0,3.52-3.52,6.39-7.04,6.39h-29.37c-3.52,0-7.04-2.87-7.04-6.39v-6.02h-13.25l-15.1,15.1v13.16h6.02c3.52,0,6.39,3.52,6.39,7.04v29.37c0,3.52-2.87,7.04-6.39,7.04h-6.02v13.16l15.1,15.1h13.16v-6.02c0-3.52,3.52-6.39,7.04-6.39h29.28c3.52,0,7.04,2.87,7.04,6.39v6.02h13.16l15.1-15.1v-13.16h-5.84Z"/></g><path d="M528.55,302.01v-8.01c3.05-4.11,6.02-7.41,8.89-9.92l4.14-3.66c2.96-2.62,5.41-5.22,7.34-7.79,1.93-2.57,2.9-5.25,2.9-8.06,0-2.53-.82-4.49-2.45-5.87-1.63-1.38-3.84-2.07-6.62-2.07-3.7,0-8,1.25-12.9,3.76v-7.43c5.15-1.92,10.13-2.87,14.94-2.87,5.31,0,9.6,1.27,12.87,3.82,3.27,2.54,4.91,5.95,4.91,10.22,0,2.69-.69,5.23-2.07,7.62s-4.25,5.33-8.6,8.85l-3.42,2.74c-1.5,1.21-3.15,2.76-4.93,4.66s-2.97,3.9-3.53,6.02h22.35v8.01h-33.81Z"/><g><path d="M152.36,127.1v-8.7c3.95,1.66,6.91,2.65,8.86,2.98,1.95,.32,3.75,.48,5.39,.48,2.96,0,5.17-.66,6.62-1.99s2.19-2.91,2.19-4.76c0-1.42-.41-2.69-1.22-3.84-.82-1.12-2.81-2.57-5.99-4.35l-3.42-1.88c-4.88-2.72-8.19-5.23-9.91-7.54-1.75-2.31-2.62-4.98-2.62-8.01,0-3.81,1.46-7.08,4.37-9.79s7.1-4.08,12.57-4.08c4.08,0,8.68,.58,13.79,1.75v8.11c-5.24-1.94-9.39-2.91-12.48-2.91-2.55,0-4.49,.55-5.82,1.66s-2,2.44-2,3.99c0,1.19,.41,2.3,1.22,3.32,.79,1.03,2.77,2.43,5.95,4.21l3.66,2.02c5.59,3.13,9.16,5.84,10.71,8.15,1.52,2.33,2.28,4.94,2.28,7.83,0,4.15-1.58,7.7-4.75,10.64-3.17,2.94-8.2,4.41-15.11,4.41-4.1,0-8.86-.57-14.3-1.71Z"/><path d="M207.84,127.54v-43.67h-18.14v-6.98h46.82v6.98h-18.14v43.67h-10.54Z"/><path d="M243.6,127.54v-50.65h32.44v6.98h-21.9v14.1h18.1v6.98h-18.1v15.4h23.51v7.19h-34.05Z"/><path d="M280.15,127.54l19.72-50.65h10.57l19.71,50.65h-10.83l-5.26-13.52h-20.97l-5.27,13.52h-7.67Zm15.56-20.26h15.72l-7.86-20.19-7.86,20.19Z"/><path d="M337.3,127.54v-50.65h10.54v43.46h22.55v7.19h-33.09Z"/><path d="M398.43,127.54v-8.01c3.05-4.11,6.02-7.42,8.89-9.92l4.14-3.66c2.96-2.62,5.41-5.22,7.34-7.79,1.93-2.57,2.9-5.25,2.9-8.06,0-2.53-.82-4.49-2.45-5.87-1.63-1.38-3.84-2.07-6.62-2.07-3.7,0-8,1.25-12.9,3.76v-7.43c5.15-1.92,10.13-2.88,14.94-2.88,5.31,0,9.6,1.27,12.87,3.82,3.27,2.54,4.91,5.95,4.91,10.22,0,2.69-.69,5.23-2.07,7.61-1.38,2.38-4.25,5.33-8.6,8.85l-3.42,2.74c-1.5,1.21-3.15,2.76-4.93,4.65-1.79,1.89-2.97,3.9-3.53,6.02h22.35v8.01h-33.81Z"/></g><g><path d="M136.55,302.22c-5.27,0-9.86-1.09-13.76-3.27s-6.87-5.32-8.9-9.41c-2.03-4.09-3.05-8.73-3.05-13.91s1.02-9.79,3.05-13.9c2.03-4.11,5.01-7.25,8.93-9.43,3.92-2.18,8.5-3.27,13.72-3.27s9.77,1.09,13.69,3.27c3.92,2.18,6.9,5.32,8.93,9.43,2.03,4.11,3.05,8.74,3.05,13.9s-1.02,9.82-3.05,13.91c-2.03,4.1-4.99,7.23-8.88,9.41-3.89,2.18-8.47,3.27-13.74,3.27Zm0-6.95c4.88,0,8.52-1.99,10.9-5.98,2.38-3.98,3.58-8.55,3.58-13.68s-1.2-9.72-3.59-13.68c-2.4-3.96-6.02-5.94-10.88-5.94s-8.52,1.98-10.92,5.94c-2.4,3.96-3.59,8.52-3.59,13.68s1.19,9.7,3.58,13.68c2.38,3.99,6.03,5.98,10.93,5.98Z"/><path d="M171.7,300.95v-50.65h18.96c3.88,0,6.83,.49,8.86,1.46,2.03,.97,3.63,2.44,4.81,4.42,1.17,1.97,1.76,4.2,1.76,6.69,0,2.97-.86,5.77-2.57,8.4-1.71,2.64-4.13,4.65-7.26,6.04l16.58,23.65h-12.84l-12.6-20.71h-5.79v20.71h-9.92Zm9.92-27.65h2.43c4.35,0,7.36-.95,9.02-2.84,1.66-1.89,2.49-4.04,2.49-6.43,0-2.08-.67-3.72-2.02-4.95-1.35-1.22-4.09-1.83-8.23-1.83h-3.67v16.05Z"/><path d="M239.6,300.5v-8.7c3.95,1.66,6.91,2.65,8.86,2.98,1.95,.32,3.75,.48,5.39,.48,2.96,0,5.17-.66,6.62-1.99,1.46-1.32,2.19-2.91,2.19-4.76,0-1.42-.41-2.69-1.22-3.84-.82-1.12-2.81-2.57-5.99-4.35l-3.42-1.88c-4.88-2.72-8.19-5.23-9.91-7.54-1.75-2.31-2.62-4.98-2.62-8.01,0-3.81,1.46-7.08,4.37-9.79s7.1-4.08,12.57-4.08c4.08,0,8.68,.58,13.79,1.75v8.11c-5.24-1.94-9.39-2.91-12.48-2.91-2.55,0-4.49,.55-5.82,1.66s-2,2.44-2,3.99c0,1.19,.41,2.29,1.22,3.32,.79,1.03,2.77,2.43,5.95,4.21l3.66,2.02c5.59,3.13,9.16,5.84,10.71,8.15,1.52,2.33,2.28,4.94,2.28,7.83,0,4.15-1.58,7.7-4.75,10.64s-8.2,4.41-15.11,4.41c-4.1,0-8.86-.57-14.3-1.71Z"/><path d="M295.07,300.95v-43.67h-18.14v-6.98h46.82v6.98h-18.14v43.67h-10.54Z"/><path d="M330.84,300.95v-50.65h32.44v6.98h-21.9v14.1h18.1v6.98h-18.1v15.4h23.51v7.19h-34.05Z"/><path d="M367.39,300.95l19.72-50.65h10.57l19.71,50.65h-10.83l-5.26-13.52h-20.97l-5.27,13.52h-7.67Zm15.56-20.26h15.72l-7.86-20.19-7.86,20.19Z"/><path d="M424.54,300.95v-50.65h10.54v43.46h22.55v7.19h-33.09Z"/></g></g></svg>