<?xml version="1.0" encoding="utf-8"?>
<!-- Generator: Adobe Illustrator 26.3.1, SVG Export Plug-In . SVG Version: 6.00 Build 0)  -->
<svg version="1.1" id="heat" xmlns="http://www.w3.org/2000/svg" xmlns:xlink="http://www.w3.org/1999/xlink" x="0px" y="0px"
	 viewBox="0 0 124.7 124.7" style="enable-background:new 0 0 124.7 124.7;" xml:space="preserve">
<style type="text/css">
	.st0{fill:#020203;}
	.st1{fill:url(#SVGID_1_);}
	.st2{fill:#E52521;}
	.st3{opacity:5.000000e-02;fill:#020203;enable-background:new    ;}
	.st4{fill:#FFD10C;}
</style>
<g id="heat_00000183969883270252751370000002008319555642987396_">
	<rect y="0" class="st0" width="124.7" height="124.7"/>
	
		<linearGradient id="SVGID_1_" gradientUnits="userSpaceOnUse" x1="-660.1094" y1="-638.9768" x2="-577.0377" y2="-555.9051" gradientTransform="matrix(0.7071 -0.7071 -0.7071 -0.7071 77.3029 -797.4838)">
		<stop  offset="0" style="stop-color:#941914"/>
		<stop  offset="0.2122" style="stop-color:#B91F1A"/>
		<stop  offset="0.4669" style="stop-color:#E52521"/>
		<stop  offset="0.5496" style="stop-color:#E62A27"/>
		<stop  offset="0.837" style="stop-color:#E73939"/>
		<stop  offset="1" style="stop-color:#E83E40"/>
	</linearGradient>
	<rect x="3.6" y="3.6" class="st1" width="117.5" height="117.5"/>
	<rect x="9.3" y="9.3" class="st2" width="106.1" height="106.1"/>
	<path id="darker" class="st3" d="M121.1,121.1H3.6V56.7c0,0,37,5.7,58.7,5.7s58.8-5.7,58.8-5.7V121.1z"/>
	<g>
		<polygon class="st4" points="49.1,67.8 35.7,56.2 35.7,56.2 35.7,20.8 22.3,56.9 35.8,68.3 35.8,68.3 35.7,103.9 		"/>
		<polygon class="st4" points="75.8,67.8 62.4,56.2 62.3,56.2 62.4,20.8 49,56.9 62.4,68.3 62.4,68.3 62.4,103.9 		"/>
		<polygon class="st4" points="103.2,67.8 89.8,56.2 89.7,56.2 89.8,20.8 76.4,56.9 89.8,68.3 89.8,68.3 89.8,103.9 		"/>
	</g>
</g>
</svg>
