<?xml version="1.0" encoding="utf-8"?>
<!-- Generator: Adobe Illustrator 26.3.1, SVG Export Plug-In . SVG Version: 6.00 Build 0)  -->
<svg version="1.1" id="mln" xmlns="http://www.w3.org/2000/svg" xmlns:xlink="http://www.w3.org/1999/xlink" x="0px" y="0px"
	 viewBox="0 0 124.7 124.7" style="enable-background:new 0 0 124.7 124.7;" xml:space="preserve">
<style type="text/css">
	.st0{stroke:#020203;stroke-width:2;stroke-miterlimit:10;}
	.st1{fill:url(#obram_zolte_00000174593322493434409850000002410141038578235038_);}
	.st2{fill:url(#tlo_wew_00000082331862467362328090000009649154836162813093_);}
	.st3{fill:url(#obram_skosne_00000115516539603020499920000018307497194988723877_);}
	.st4{fill:url(#tlo_zew_00000116227036188721294110000017666684818500526520_);}
</style>
<g id="mln_00000088813644220353312920000012372334697810991274_">
	<polygon id="obram_czarne_1_" class="st0" points="19.7,1.3 1.2,19.8 1.2,104.9 19.7,123.4 104.9,123.4 123.3,104.9 123.3,19.8 
		104.9,1.3 	"/>
	
		<linearGradient id="obram_zolte_00000107565962161701685540000006692189849908978347_" gradientUnits="userSpaceOnUse" x1="62.29" y1="136.8879" x2="62.29" y2="21.8279" gradientTransform="matrix(1 0 0 1 0 -17.0079)">
		<stop  offset="0.1574" style="stop-color:#803811"/>
		<stop  offset="0.1836" style="stop-color:#965918"/>
		<stop  offset="0.2187" style="stop-color:#AE7D20"/>
		<stop  offset="0.2581" style="stop-color:#C39D28"/>
		<stop  offset="0.3017" style="stop-color:#D5B92E"/>
		<stop  offset="0.3509" style="stop-color:#E4CF33"/>
		<stop  offset="0.4084" style="stop-color:#EFE036"/>
		<stop  offset="0.4794" style="stop-color:#F7EB39"/>
		<stop  offset="0.5791" style="stop-color:#FCF23B"/>
		<stop  offset="0.8557" style="stop-color:#FDF43B"/>
		<stop  offset="1" style="stop-color:#FDF4FF"/>
	</linearGradient>
	<polygon id="obram_zolte_1_" style="fill:url(#obram_zolte_00000107565962161701685540000006692189849908978347_);" points="
		22.1,4.8 4.8,22.2 4.8,102.5 22.1,119.9 102.4,119.9 119.8,102.5 119.8,22.2 102.4,4.8 	"/>
	
		<linearGradient id="tlo_wew_00000078729859291012981830000007778638431170865287_" gradientUnits="userSpaceOnUse" x1="62.29" y1="15.6783" x2="62.29" y2="191.6059" gradientTransform="matrix(1 0 0 1 0 -17.0079)">
		<stop  offset="0.2638" style="stop-color:#FDF43B"/>
		<stop  offset="0.8596" style="stop-color:#803511"/>
	</linearGradient>
	<polygon id="tlo_wew_1_" style="fill:url(#tlo_wew_00000078729859291012981830000007778638431170865287_);" points="23.3,6.5 
		6.4,23.4 6.4,101.3 23.3,118.2 101.3,118.2 118.2,101.3 118.2,23.4 101.3,6.5 	"/>
	
		<linearGradient id="obram_skosne_00000000195682207035085770000007970338747638328756_" gradientUnits="userSpaceOnUse" x1="62.29" y1="135.2379" x2="62.29" y2="23.4779" gradientTransform="matrix(1 0 0 1 0 -17.0079)">
		<stop  offset="0.1623" style="stop-color:#803511"/>
		<stop  offset="0.168" style="stop-color:#8A451D"/>
		<stop  offset="0.1831" style="stop-color:#A2693A"/>
		<stop  offset="0.2001" style="stop-color:#B78954"/>
		<stop  offset="0.2189" style="stop-color:#C8A569"/>
		<stop  offset="0.2401" style="stop-color:#D7BB7A"/>
		<stop  offset="0.2649" style="stop-color:#E2CC88"/>
		<stop  offset="0.2956" style="stop-color:#E9D791"/>
		<stop  offset="0.3386" style="stop-color:#EEDE97"/>
		<stop  offset="0.4579" style="stop-color:#EFE098"/>
		<stop  offset="0.6955" style="stop-color:#803511"/>
		<stop  offset="0.7346" style="stop-color:#E7D334"/>
		<stop  offset="0.7408" style="stop-color:#E9D748"/>
		<stop  offset="0.754" style="stop-color:#EEDE6C"/>
		<stop  offset="0.7689" style="stop-color:#F2E48C"/>
		<stop  offset="0.7853" style="stop-color:#F6E9A8"/>
		<stop  offset="0.8039" style="stop-color:#F8EDBE"/>
		<stop  offset="0.8256" style="stop-color:#FAF0CF"/>
		<stop  offset="0.8524" style="stop-color:#FCF2DA"/>
		<stop  offset="0.89" style="stop-color:#FDF4E1"/>
		<stop  offset="0.9944" style="stop-color:#FDF4E3"/>
	</linearGradient>
	<path id="obram_skosne_1_" style="fill:url(#obram_skosne_00000000195682207035085770000007970338747638328756_);" d="M110.1,83.9
		c-3.1,0-5.6-2.5-5.6-5.6V46.4c0-3.1,2.5-5.6,5.6-5.6h8V23.4L101.3,6.5H83.8v8c0,3.1-2.5,5.6-5.6,5.6H46.3c-3.1,0-5.6-2.5-5.6-5.6
		v-8H23.3L6.4,23.4v17.5h8c3.1,0,5.6,2.5,5.6,5.6v31.9c0,3.1-2.5,5.6-5.6,5.6h-8v17.4l16.9,16.9h17.5v-8c0-3.1,2.5-5.6,5.6-5.6h31.9
		c3.1,0,5.6,2.5,5.6,5.6v8h17.5l16.9-16.9V83.9H110.1z"/>
	
		<linearGradient id="tlo_zew_00000067942309967829508120000008972050544578796174_" gradientUnits="userSpaceOnUse" x1="62.295" y1="39.9046" x2="62.295" y2="212.4621" gradientTransform="matrix(1 0 0 1 0 -17.0079)">
		<stop  offset="0.2638" style="stop-color:#FDF43B"/>
		<stop  offset="0.7689" style="stop-color:#803511"/>
	</linearGradient>
	<path id="tlo_zew_1_" style="fill:url(#tlo_zew_00000067942309967829508120000008972050544578796174_);" d="M109.8,85.8
		c-3.8,0-6.9-3.8-6.9-7.6V46.5c0-3.8,3.1-7.6,6.9-7.6h6.5V24.7L99.9,8.4H85.8v6.5c0,3.8-3.8,6.9-7.6,6.9H46.5
		c-3.8,0-7.6-3.1-7.6-6.9V8.4H24.6L8.3,24.7v14.2h6.5c3.8,0,6.9,3.8,6.9,7.6v31.7c0,3.8-3.1,7.6-6.9,7.6H8.3V100l16.3,16.3h14.2
		v-6.5c0-3.8,3.8-6.9,7.6-6.9h31.6c3.8,0,7.6,3.1,7.6,6.9v6.5h14.2l16.3-16.3V85.8H109.8z"/>
</g>
</svg>
