<?xml version="1.0" encoding="utf-8"?>
<!-- Generator: Adobe Illustrator 26.3.1, SVG Export Plug-In . SVG Version: 6.00 Build 0)  -->
<svg version="1.1" id="plant" xmlns="http://www.w3.org/2000/svg" xmlns:xlink="http://www.w3.org/1999/xlink" x="0px" y="0px"
	 viewBox="0 0 124.7 124.7" style="enable-background:new 0 0 124.7 124.7;" xml:space="preserve">
<style type="text/css">
	.st0{fill:#020203;}
	.st1{fill:url(#SVGID_1_);}
	.st2{fill:#40AB34;}
	.st3{fill:#04552A;stroke:#1A441F;stroke-width:4;stroke-miterlimit:10;}
	.st4{opacity:5.000000e-02;fill:#020203;enable-background:new    ;}
</style>
<g id="plant_00000173134137562085429940000004766549884669946800_">
	<rect y="0" class="st0" width="124.7" height="124.7"/>
	
		<linearGradient id="SVGID_1_" gradientUnits="userSpaceOnUse" x1="-660.1094" y1="-638.9768" x2="-577.0376" y2="-555.9051" gradientTransform="matrix(0.7071 -0.7071 -0.7071 -0.7071 77.3029 -797.4838)">
		<stop  offset="0" style="stop-color:#056734"/>
		<stop  offset="3.590000e-02" style="stop-color:#056A35"/>
		<stop  offset="8.180001e-02" style="stop-color:#047537"/>
		<stop  offset="0.1328" style="stop-color:#018638"/>
		<stop  offset="0.1498" style="stop-color:#008E39"/>
		<stop  offset="0.3477" style="stop-color:#31983D"/>
		<stop  offset="0.764" style="stop-color:#5DAE46"/>
		<stop  offset="1" style="stop-color:#6CB649"/>
	</linearGradient>
	<rect x="3.6" y="3.6" class="st1" width="117.5" height="117.5"/>
	<rect x="9.3" y="9.3" class="st2" width="106.1" height="106.1"/>
	<path id="leaf" class="st3" d="M62.3,35.5c-15.2,2.1-26.8,12-26.8,26.8c0,3.6,0.7,7.1,2,10.3c-2.8,1.9-6.9,4.4-8.9,5.1
		c-3.5,1.2-10.5,0.4-10.8,1s2,6.9,2.8,7.2s7.2,0.3,10.8-1C34,84,38.7,81,41.4,79c4.9,6.2,12.5,10.1,21,10.1C77.2,89.1,89,79.8,89,65
		c0-5.7,1.4-12.9,3.5-17.4c2.3-5,14.2-8.2,14.2-8.2C105.5,35.5,68.3,34.7,62.3,35.5z"/>
	<path id="darker" class="st4" d="M121.1,121.1H3.6V56.7c0,0,37,5.7,58.7,5.7s58.8-5.7,58.8-5.7V121.1z"/>
</g>
</svg>
