<?xml version="1.0" encoding="utf-8"?>
<!-- Generator: Adobe Illustrator 26.3.1, SVG Export Plug-In . SVG Version: 6.00 Build 0)  -->
<svg version="1.1" id="prodBg" xmlns="http://www.w3.org/2000/svg" xmlns:xlink="http://www.w3.org/1999/xlink" x="0px" y="0px"
	 viewBox="0 0 124.7 124.7" style="enable-background:new 0 0 124.7 124.7;" xml:space="preserve">
<style type="text/css">
	.st0{fill:none;}
	.st1{fill:#1E1E1C;}
	.st2{fill:url(#external-border_00000132070689014450143330000011213792010348758672_);}
	.st3{fill:url(#internal-border_00000183210197651167703990000009128646659388124570_);}
	.st4{fill:url(#bg_00000071520319763943581720000002998866479601642122_);}
	.st5{opacity:0.1;fill:url(#Nowy_wzorek);}
</style>
<pattern  y="124.7" width="19.7" height="21.7" patternUnits="userSpaceOnUse" id="Nowy_wzorek" viewBox="0 -21.7 19.7 21.7" style="overflow:visible;">
	<g>
		<rect y="-21.7" class="st0" width="19.7" height="21.7"/>
		<g>
			<rect y="-21.7" class="st0" width="19.7" height="21.7"/>
			<g>
				<rect y="-21.7" class="st0" width="19.7" height="21.7"/>
				<path class="st1" d="M16.6-13c2.1,2.1,2.1,5.6,0,7.7l-1.2,1.2C13.3-2,9.8-2,7.6-4.1L3.1-8.7c-2.1-2.1-2.1-5.6,0-7.7l1.2-1.2
					c2.1-2.1,5.6-2.1,7.7,0L16.6-13z"/>
			</g>
		</g>
	</g>
</pattern>
<g id="prodBg_00000142898908663802319580000009330626267751532954_">
	
		<linearGradient id="external-border_00000030471046159711034910000016535249148813274038_" gradientUnits="userSpaceOnUse" x1="123.85" y1="139.85" x2="0.85" y2="16.85" gradientTransform="matrix(1 0 0 1 0 -16)">
		<stop  offset="0" style="stop-color:#9C9C9C"/>
		<stop  offset="0.5447" style="stop-color:#000000"/>
		<stop  offset="1" style="stop-color:#9C9C9C"/>
	</linearGradient>
	
		<rect id="external-border" y="1.7" style="fill:url(#external-border_00000030471046159711034910000016535249148813274038_);" width="124.7" height="121.3"/>
	
		<linearGradient id="internal-border_00000077288327973457828620000010468965593432069795_" gradientUnits="userSpaceOnUse" x1="62.4" y1="135.8" x2="62.4" y2="20.9" gradientTransform="matrix(1 0 0 1 0 -16)">
		<stop  offset="0" style="stop-color:#442A19"/>
		<stop  offset="1" style="stop-color:#B1804A"/>
	</linearGradient>
	
		<rect id="internal-border" x="3.2" y="4.9" style="fill:url(#internal-border_00000077288327973457828620000010468965593432069795_);" width="118.4" height="114.9"/>
	
		<linearGradient id="bg_00000081632642473476775950000016538890474349709203_" gradientUnits="userSpaceOnUse" x1="62.35" y1="132.9" x2="62.35" y2="23.7" gradientTransform="matrix(1 0 0 1 0 -16)">
		<stop  offset="0" style="stop-color:#946137"/>
		<stop  offset="1" style="stop-color:#7E4F25"/>
	</linearGradient>
	
		<rect id="bg" x="6" y="7.7" style="fill:url(#bg_00000081632642473476775950000016538890474349709203_);" width="112.7" height="109.2"/>
	<rect id="bgPattern" x="6" y="7.7" class="st5" width="112.7" height="109.2"/>
</g>
</svg>
